<?xml version="1.0" encoding="UTF-8"?>
<svg id="Capa_2" xmlns="http://www.w3.org/2000/svg" viewBox="0 0 243.23 243.23">
  <defs>
    <style>
      .cls-1 {
        fill: #fff;
      }

      .cls-2 {
        fill: #4286bd;
      }

      .cls-3 {
        fill: none;
      }

      .cls-4 {
        fill: #4f3535;
      }

      .cls-5 {
        fill: #a1c2de;
      }
    </style>
  </defs>
  <g id="grocery_icons">
    <g>
      <rect class="cls-3" width="243.23" height="243.23"/>
      <g>
        <path class="cls-1" d="M102.21,42.32s-.47,17.32-3.74,24.81c-3.28,7.49-18.72,31.36-22.47,58.04-3.74,26.68.94,82.85,7.96,93.14,7.02,10.3,43.06,16.85,64.59,13.11,21.53-3.74,29.96-15.91,33.23-34.17,3.28-18.25,1.4-76.76-2.81-88.93-4.21-12.17-13.11-29.96-16.85-39.32s-7.96-28.55-7.96-28.55l-51.95,1.87Z"/>
        <path class="cls-4" d="M185.7,131.96c-1.07-11-2.56-22.05-6.61-32.4-3.84-9.79-9.36-18.75-13.64-28.33-1.85-4.15-3.34-8.39-4.73-12.72-1.43-4.45-2.61-9.08-3.15-13.72-.25-2.14-.56-4.28-.63-6.44-.03-.91-1.38-1.14-1.62-.22-2.28,8.75-.49,18.43,2.19,26.91,2.98,9.43,7.88,17.95,12.21,26.78,2.3,4.69,4.41,9.46,5.95,14.45,1.57,5.1,2.62,10.37,3.34,15.66.99,7.28,1.51,14.59,1.61,21.93.1,7.42.02,14.85-.18,22.27-.18,6.51-.39,13.04-1.02,19.53-.75,7.81-1.29,12.78-3.55,20.32-6.58,22-36.45,24.33-55.59,22.54-7.45-.7-14.94-2.24-21.83-5.23-5.57-2.41-10.77-6.42-13.64-11.96-3.84-7.39-4.26-13.04-5.15-21.16-1.5-13.67-1.75-27.45-1.74-41.2.01-16.91,1.08-34.44,7.72-50.2,3.95-9.37,9.48-18.02,13.21-27.48,3.38-8.6,5.67-17.83,5.4-27.13-.06-2.04-.48-4.08-.99-6.05-.24-.91-1.59-.7-1.62.22-.3,9.18-2.86,18.38-6.06,26.94-3.5,9.39-8.72,17.99-12.96,27.04-2.29,4.89-4.32,9.9-5.75,15.11-1.47,5.36-2.37,10.85-3.09,16.35-.94,7.25-1.45,14.48-1.58,21.78-.13,7.61-.04,15.22.19,22.83.19,6.27.39,12.59,1.1,18.83.98,8.62,1.33,16.51,4.39,24.72,2.43,6.51,6.6,11.8,12.42,15.57,4.4,2.86,9.49,4.67,14.59,5.83,7.04,1.59,14.31,2.12,21.52,2.19,7.46.3,15.05-.15,22.38-1.27,5.79-.89,11.55-2.43,16.76-5.15,4.96-2.59,9.37-6.38,12.31-11.16,4.74-7.73,5.65-15.96,6.58-24.77.68-6.47,1.29-12.89,1.56-19.39.32-7.64.48-15.3.44-22.95-.03-6.29-.12-12.6-.73-18.87ZM91.45,222.43c-.08-.06-.09-.07,0,0h0Z"/>
        <path class="cls-2" d="M97.18,35.88s-.18-13.16,1.23-19.31,9.65-11,29.66-11.58c19.33-.57,29.6,5.38,32.06,10.3,2.46,4.91-.59,21.06-.59,21.06,0,0,4.8-.47,4.56,3.86-.16,3-2.7,5.74-15.33,8.78-15.56,3.74-37.5,3.16-46.81-.7-9.3-3.86-10.59-7.66-9.01-9.95,1.58-2.28,4.21-2.46,4.21-2.46Z"/>
        <path class="cls-5" d="M111.93,18.48c-.18-.04-.36-.08-.54-.12-.54,3.52-1.03,7.06-1.31,10.59-.17,2.15-.25,4.3-.26,6.46,0,1.16.01,2.32.04,3.48,0,.3.01.6.03.9.42.1.85.21,1.27.3,0-.48-.03-.97-.04-1.45-.02-1.08-.03-2.15-.03-3.23,0-2.07.05-4.14.1-6.21.1-3.61.3-7.16.73-10.72Z"/>
        <path class="cls-5" d="M118.76,36.59c-.03-2.15-.01-4.31.06-6.46.12-3.43.37-6.86.69-10.27-.29-.04-.57-.09-.86-.13-.4,3.37-.67,6.76-.83,10.16-.1,2.15-.17,4.3-.19,6.46,0,1.08-.01,2.15.01,3.23.01.53,0,1.08.02,1.62.41.04.82.09,1.22.13,0-.59-.05-1.18-.07-1.75-.02-.99-.05-1.99-.06-2.98Z"/>
        <path class="cls-5" d="M125.9,30.09c.06-3.13.37-6.28.45-9.41-.42-.04-.84-.09-1.27-.14-.25,3.09-.19,6.22-.28,9.31-.06,2.1-.1,4.2-.13,6.3-.02,1.05-.03,2.1-.03,3.15,0,.8-.07,1.65.04,2.45.4.02.8.03,1.2.04.27-1.72-.03-3.7-.03-5.4,0-2.1.01-4.2.05-6.3Z"/>
        <path class="cls-5" d="M104.2,16.4c-.32,1.55-.52,3.15-.73,4.69-.31,2.31-.54,4.63-.7,6.96-.16,2.36-.24,4.73-.23,7.09,0,.98.04,1.96.07,2.94.44.08.87.17,1.31.26-.04-.98-.07-1.97-.08-2.95-.03-2.36,0-4.73.12-7.09.12-2.36.32-4.72.6-7.06.18-1.5.45-3,.66-4.51-.34-.1-.68-.21-1.01-.33Z"/>
        <path class="cls-5" d="M147.47,18.96c-.19.06-.38.13-.57.19.32,3.11.48,6.2.57,9.35.06,2.07.09,4.14.1,6.21,0,.99,0,1.99-.02,2.98-.01.71-.09,1.47-.01,2.19.37-.03.76-.06,1.16-.08.08-.53.08-1.07.1-1.61.03-1.16.04-2.32.04-3.48,0-2.16-.09-4.31-.26-6.46-.24-3.1-.65-6.2-1.11-9.29Z"/>
        <path class="cls-5" d="M140.18,20.54c-.3.04-.59.07-.89.11.26,2.92.46,5.85.56,8.78.07,2.15.09,4.31.06,6.46-.01.99-.04,1.99-.06,2.98-.02.65-.08,1.33-.06,2,.4-.05.8-.11,1.2-.16.04-.61.02-1.24.03-1.84.02-.99.02-1.99.01-2.98-.02-2.24-.09-4.47-.19-6.71-.13-2.89-.35-5.77-.66-8.64Z"/>
        <path class="cls-5" d="M133.87,29.15c-.08-2.7-.05-5.44-.21-8.15-.44,0-.87.02-1.31.02.11,2.79.36,5.59.41,8.37.04,2.1.06,4.2.05,6.3,0,1.87-.38,4.11.07,5.93.34-.03.68-.06,1.02-.09.45-1.8.12-4,.09-5.84-.03-2.18-.07-4.36-.13-6.54Z"/>
        <path class="cls-5" d="M155.21,20.46c-.2-1.51-.39-3.07-.7-4.59-.32.22-.64.43-.98.62.2,1.35.44,2.7.6,4.04.28,2.35.48,4.7.6,7.06.12,2.36.15,4.73.12,7.09-.01,1.04-.04,2.09-.09,3.13.3-.1.6-.19.91-.26.13-.03.26-.05.4-.07.04-.93.07-1.86.08-2.8.02-2.45-.07-4.9-.23-7.34-.15-2.3-.39-4.6-.69-6.88Z"/>
        <path class="cls-4" d="M97.36,37.04c7.66,3.88,16.64,5.46,25.14,6.02,8.45.56,16.97.06,25.25-1.79,2.15-.48,4.25-1.09,6.31-1.86,1.92-.72,4.11-1.45,5.75-2.69,1.02-.77.5-2.74-.95-2.26-1.64.55-3.18,1.37-4.82,1.94-1.79.63-3.62,1.12-5.45,1.61-3.9,1.04-7.9,1.75-11.92,2.17-8.18.86-16.72.74-24.85-.58-4.75-.77-9.34-2.44-13.86-4.03-.85-.3-1.43,1.06-.62,1.47h0Z"/>
        <path class="cls-4" d="M99.7,15.86c3.47,1.91,7.24,3.04,11.11,3.86,3.83.81,7.65,1.46,11.56,1.76,7.64.58,15.46.42,22.91-1.53,2.08-.55,4.09-1.26,6.05-2.16s3.96-1.8,5.49-3.22c.85-.79-.04-2.54-1.2-2.06-2.2.91-4.19,2.22-6.43,3.05-2.1.78-4.24,1.48-6.42,2-4.51,1.08-9.14,1.51-13.78,1.54-4.81.04-9.64-.16-14.41-.76s-9.63-2.21-14.25-3.95c-.86-.32-1.4,1.03-.62,1.47h0Z"/>
        <path class="cls-2" d="M172.04,155.26c-6.98-28.23-41.5-37.56-65.13-23.83-17.03,9.89-25.82,31.59-19.56,50.46,5.37,16.19,21.01,26.17,37.45,28.1,18.28,2.14,36.32-5.66,44.03-22.98,4.38-9.83,5.81-21.25,3.21-31.76Z"/>
        <path class="cls-1" d="M129.36,143.19c-2.96,4.31-5.64,8.85-8.09,13.46-3.78,7.14-9.38,17.17-5.7,25.29,4.06,8.99,18.55,13.09,25.73,5.47,6.89-7.31,5.14-19.61.23-27.62-4.45-7.25-12.17-16.62-12.17-16.62Z"/>
        <path class="cls-4" d="M118.38,175.25c-.26,2.22.3,4.4,1.59,6.23.66.94,1.44,1.82,2.39,2.47.42.29.87.54,1.33.75.63.29,1.22.35,1.9.35.9,0,1.07-1.1.43-1.57-.38-.28-.71-.6-1.13-.83-.2-.12-.4-.24-.59-.37-.09-.06-.17-.12-.26-.18-.32-.23.15.14-.15-.12-.36-.3-.73-.59-1.06-.92-.17-.16-.33-.33-.49-.51-.07-.08-.14-.16-.21-.24,0,0-.23-.29-.13-.15-.57-.75-.99-1.59-1.38-2.44-.31-.67-.56-1.62-.64-2.45-.09-1.04-1.49-1.02-1.6,0h0Z"/>
        <path class="cls-4" d="M90.93,101.35c1.45-2.43,3.03-4.81,4.72-7.07.8-1.07,1.67-2.07,2.49-3.12.87-1.11,2.54-2.63,2.16-4.18-.15-.61-.7-.9-1.27-.97-.89-.1-1.56.62-2.16,1.18-.52.49-.96,1.07-1.4,1.62-.96,1.2-1.79,2.52-2.6,3.83-1.54,2.51-2.84,5.12-3.93,7.85-.47,1.17,1.38,1.87,1.99.84h0Z"/>
        <path class="cls-4" d="M102.04,97.34c.4-.63.84-1.24,1.21-1.89.2-.35.38-.74.54-1.11s.21-.79.3-1.18c.08-.36-.03-.72-.32-.95-.26-.2-.72-.29-1.01-.07l-.42.32c-.2.15-.45.3-.62.49-.11.12-.21.26-.32.39-.18.22-.37.44-.54.68-.43.62-.82,1.28-1.23,1.92-.39.62-.15,1.57.5,1.91.69.37,1.49.16,1.91-.5h0Z"/>
        <path class="cls-4" d="M160.46,212.91h1.84c.29-.01.59-.02.88-.02.15,0,.29,0,.44-.01.28,0,.54-.07.79-.21.11-.09.22-.17.34-.26.05-.04.1-.07.14-.12.53-.49.53-1.45,0-1.94-.3-.28-.64-.5-1.06-.56-.21-.03-.4-.04-.61-.04h-.92c-.61-.01-1.22-.01-1.84-.02-.4,0-.83.18-1.12.46s-.48.73-.46,1.12c.04.85.7,1.59,1.58,1.58h0Z"/>
      </g>
    </g>
  </g>
</svg>