<?xml version="1.0" encoding="UTF-8"?>
<svg id="Capa_2" xmlns="http://www.w3.org/2000/svg" viewBox="0 0 243.3 243.3">
  <defs>
    <style>
      .cls-1 {
        fill: #fff;
      }

      .cls-2 {
        fill: none;
      }

      .cls-3 {
        fill: #e09d3e;
      }

      .cls-4 {
        fill: #fad380;
      }

      .cls-5 {
        fill: #4f3535;
      }
    </style>
  </defs>
  <g id="grocery_icons">
    <g>
      <rect class="cls-2" width="243.3" height="243.3"/>
      <g>
        <path class="cls-4" d="M222.39,84s.61,66.84.21,83.75c-.06,2.31-2.41,4.07-5.68,3.95-14.81-.56-54.81-3.95-57.63-3.95-3.44,0-40.44-1.21-40.64-2.83s.2-90.38,0-90.98,103.96,7.99,103.74,10.06Z"/>
        <path class="cls-3" d="M222.39,84l-100.1-6.63,42.05,41.65,3.64,91.39s-55.4,11.73-99.88-1.62c-44.48-13.34-40.44-26.69-44.08-38.01s-7.28-90.58-.4-103.52c6.87-12.94,48.93-35.99,102.71-33.97,53.78,2.02,76.1,16.02,86.82,25.55,13.64,12.12,9.24,25.15,9.24,25.15Z"/>
        <path class="cls-5" d="M222.2,83.09c-1.69-.84-3.49-1.24-5.37-1.38-2.67-.19-5.34-.38-8.01-.57-7.36-.52-14.72-1.03-22.08-1.54-16.03-1.11-32.05-2.32-48.1-3.16-5.3-.28-10.56-.56-15.86-.37-.93.03-1.22.88-.94,1.51l-.03.12c1.31,2.18,2.6,3.78,4.29,5.72,1.68,1.94,3.57,3.74,5.39,5.56,3.49,3.51,7.08,6.91,10.66,10.33,3.57,3.4,7.13,6.8,10.61,10.3,1.8,1.81,3.58,3.65,5.32,5.52.82.89,1.63,1.78,2.44,2.69-1.59.26-3.17.59-4.77.89-2.91.54-5.84,1.01-8.77,1.38-6.2.78-12.44,1.24-18.68,1.41-12.97.36-25.91-.54-38.74-2.42-20.63-3.03-42.41-8.33-57.27-23.99-2.42-2.55-4.6-5.31-6.4-8.33-.73-1.22-1.41-2.49-2.01-3.78-1.04-2.23-2.01-4.81-2.24-7.25-.08-.84-1.38-1.17-1.58-.21-1.42,6.65,3.69,13.88,7.72,18.76,5.47,6.62,12.55,12,20.01,16.18,10.77,6.03,22.66,9.64,34.73,11.98,13.31,2.58,26.9,3.76,40.45,3.71,7.35-.03,14.7-.43,21.99-1.28,3.45-.4,6.88-.89,10.3-1.49,2.49-.44,4.93-.87,7.29-1.64.27,9.6,1.2,20.31,1.6,30.5.56,14.15,1.16,28.3,1.62,42.46.1,2.96.22,5.93.36,8.89.1,2.15,0,4.93,1.23,6.77.51.76,1.58.8,2.09,0,1.02-1.61.95-3.98.91-5.85-.05-2.53-.11-5.06-.24-7.59-.33-6.58-.71-13.16-1.06-19.74-.75-14.2-1.47-28.4-2.28-42.6-.29-5.06-.31-10.23-.63-15.29.05-.25.06-.52-.02-.82-.6-2.27-3.08-4.26-4.66-5.92-1.76-1.86-3.55-3.67-5.37-5.46-3.58-3.52-7.26-6.94-10.95-10.34-3.7-3.42-7.42-6.83-11.08-10.3-1.87-1.78-3.65-3.66-5.54-5.41-.97-.9-1.84-1.71-2.73-2.49,10.82,1.02,21.68,1.74,32.54,2.5,15.95,1.11,31.9,2.27,47.85,3.44,3.17.23,6.33.47,9.5.7,2.33.17,4.22.2,6.31-.49.67-.22.92-1.24.21-1.6Z"/>
        <path class="cls-5" d="M34.99,108.65c-.5,6.37-.95,12.74-1.29,19.12s-.19,12.76,0,19.12.54,12.73,1.02,19.09c.24,3.11.5,6.23.92,9.32s.68,6.36,1.63,9.34c.31.96,1.65.75,1.72-.23.21-3.14-.23-6.37-.45-9.5s-.53-6.35-.79-9.52c-.52-6.25-.92-12.52-1.21-18.79-.28-6.27-.36-12.55-.66-18.82-.31-6.37-.45-12.74-.38-19.12,0-.34-.5-.33-.52,0h0Z"/>
        <path class="cls-5" d="M54.21,122.93c-.5,5.12-.81,10.25-.71,15.4.05,2.57.09,5.14.23,7.7.13,2.4.18,4.98.81,7.31.19.72,1.34.77,1.51,0,.51-2.37.46-4.9.53-7.31.07-2.57.07-5.13.13-7.7.11-5.14-.05-10.26-.27-15.4-.06-1.45-2.09-1.41-2.23,0h0Z"/>
        <path class="cls-5" d="M69.53,128.6c-1.15,10.2-1.83,20.51-1.63,30.79.1,5.13.29,10.28.77,15.39.23,2.5.54,4.98.91,7.47s.64,5.09,1.54,7.47c.31.82,1.4.66,1.49-.2.27-2.54-.07-5.11-.2-7.65s-.28-5.12-.42-7.68c-.28-5.03-.57-10.06-.68-15.1-.21-10.18-.16-20.33.49-30.49.1-1.48-2.11-1.42-2.27,0h0Z"/>
        <path class="cls-5" d="M87.56,143.68c-.21,5.78-.5,11.54-.5,17.32s.31,11.15.68,16.7.86,11.11,1.48,16.65c.31,2.73.63,5.47,1.02,8.19.2,1.37.35,2.77.65,4.13.32,1.47.8,2.49,1.73,3.63.42.52,1.16.15,1.35-.36.97-2.56.26-5.24-.09-7.89s-.77-5.52-1.12-8.29c-.68-5.54-1.23-11.09-1.66-16.65-.85-11.08-1.52-22.31-1.45-33.43,0-1.35-2.04-1.34-2.09,0h0Z"/>
        <path class="cls-5" d="M112.16,134.25c-.77,9.92-.87,19.76-.54,29.7.16,4.9.27,9.8.48,14.69.1,2.4.18,4.8.44,7.19s.4,5.03,1.05,7.35c.2.72,1.13.49,1.21-.16.3-2.42.09-5.05.05-7.48s-.22-4.8-.34-7.19c-.25-4.9-.45-9.79-.47-14.69-.04-9.8.06-19.6.03-29.4,0-1.23-1.8-1.2-1.9,0h0Z"/>
        <path class="cls-5" d="M136.63,139.91c-.21,11.52.27,23.06.99,34.57.36,5.72,1.16,11.38,1.42,17.12.13,2.8.26,5.6.36,8.4s-.07,5.9,1.01,8.56c.21.52,1.03.65,1.19,0,.69-2.79.12-5.74-.15-8.56s-.49-5.6-.7-8.4c-.42-5.72-.21-11.4-.38-17.12-.33-11.52-.59-23.06-1.24-34.57-.09-1.6-2.48-1.63-2.51,0h0Z"/>
        <g>
          <path class="cls-5" d="M201.99,138.12c-1.75-1.9-4.49-2.75-7.01-2.33-4.64.77-6.01,6.02-6.68,9.94-.45,2.64-.61,5.44.3,8.01,1.46,4.12,4.97,7.64,9.57,7.57,5-.08,7.49-4.27,7.96-8.81.29-2.76.05-5.63-.77-8.29-.67-2.15-1.84-4.43-3.37-6.1Z"/>
          <path class="cls-5" d="M213.87,100.36c-2.59-2.1-7.14-1.14-8.14,2.46-1.08,3.86-1.59,11.47,1.95,13.99,1.1.78,2.53.88,3.75.45,2.76-.97,4.33-4.02,4.95-7,.75-3.61.35-7.58-2.51-9.9Z"/>
          <path class="cls-5" d="M174.94,91.53c-6.2-2.13-9.61,7.72-6.94,12.04.7,1.14,1.78,2.07,3.1,2.41,1.38.36,2.86.06,4.06-.68,2.47-1.51,3.83-4.5,3.77-7.34-.05-2.6-1.37-5.53-3.99-6.43Z"/>
        </g>
        <path class="cls-1" d="M185.56,119.64l.08.1c.33.33.73.56,1.18.69.48.13.95.13,1.43,0l.15-.04c.38-.09.71-.26.99-.52.22-.13.39-.3.52-.52.26-.28.43-.61.52-.99l.1-.77-.1-.77c-.09-.38-.26-.71-.52-.99-.13-.22-.3-.39-.52-.52-.28-.26-.61-.43-.99-.52l-.77-.1-.77.1c-.38.09-.71.26-.99.52-.22.13-.39.3-.52.52-.26.28-.43.61-.52.99l-.1.77.1.77c.14.49.39.92.75,1.29h0Z"/>
        <path class="cls-1" d="M214.75,130.8c2.84,0,2.84-4.41,0-4.41s-2.84,4.41,0,4.41h0Z"/>
        <path class="cls-1" d="M176.74,155.29c.37.01.72-.06,1.04-.23.33-.11.62-.3.87-.56.26-.24.45-.53.56-.87.17-.32.25-.67.23-1.04l-.1-.72c-.13-.46-.36-.85-.69-1.19l-.55-.42c-.42-.24-.88-.37-1.36-.37-.37-.01-.72.06-1.04.23-.33.11-.62.3-.87.56-.26.24-.45.53-.56.87-.17.32-.25.67-.23,1.04l.1.72c.13.46.36.85.69,1.19l.55.42c.42.24.88.37,1.36.37h0Z"/>
        <path class="cls-1" d="M155.18,94.74c.31.01.61-.05.88-.2.28-.09.53-.25.73-.47.22-.21.38-.45.47-.73.14-.27.21-.56.2-.88l-.08-.6c-.11-.39-.3-.72-.58-1l-.46-.36c-.35-.21-.74-.31-1.15-.31-.31-.01-.61.05-.88.2-.28.09-.53.25-.73.47-.22.21-.38.45-.47.73-.14.27-.21.56-.2.88l.08.6c.11.39.3.72.58,1l.46.36c.35.21.74.31,1.15.31h0Z"/>
      </g>
    </g>
  </g>
</svg>