<?xml version="1.0" encoding="UTF-8"?>
<svg id="Capa_2" xmlns="http://www.w3.org/2000/svg" viewBox="0 0 243.3 243.3">
  <defs>
    <style>
      .cls-1 {
        fill: #fff;
      }

      .cls-2 {
        fill: none;
      }

      .cls-3 {
        fill: #e09d3e;
      }

      .cls-4 {
        fill: #fad380;
      }

      .cls-5 {
        fill: #4f3535;
      }
    </style>
  </defs>
  <g id="grocery_icons">
    <g>
      <rect class="cls-2" width="243.3" height="243.3"/>
      <g>
        <g>
          <path class="cls-3" d="M228.69,134.25c0,.34-3.22,12.42-7.14,26.12-1.52,5.3-3.13,10.84-4.71,16.02-3.15,10.36-6.15,19.34-7.82,22.27-4.69,8.2-3.05,9.85-19.22,9.85-11.6,0-48.81-.13-68.87-.19-20.06.06-57.26.19-68.87.19-16.17,0-14.53-1.64-19.21-9.85-.91-1.59-2.21-4.99-3.72-9.41-2.4-7.06-5.33-16.78-8.01-26.09-4.29-14.81-7.95-28.56-7.95-28.92l107.75,1.25,107.75-1.25Z"/>
          <path class="cls-1" d="M237.79,125.58c-.7-5.86-11.95-17.8-19.68-26.94-7.73-9.14-13.12-11.95-17.1-12.18-3.34-.2-61.5-.06-80.07-.02-18.58-.05-76.73-.18-80.07.02-3.98.23-9.37,3.05-17.1,12.18-7.73,9.14-18.97,21.08-19.68,26.94-.7,5.86.19,17.69,15.89,18.62,8.24.49,131.17,1.35,131.53,1.29,28.41-.2,62.66-.12,72.5-1.41,15.59-2.04,14.48-12.65,13.78-18.51Z"/>
          <path class="cls-4" d="M85.33,93.26s-42.17-.7-45.33,1.05-19.68,18.97-21.43,24.6-1.76,8.78,5.62,11.95,166.55,1.05,178.5,0c11.95-1.05,29.16.35,23.89-9.84-5.27-10.19-17.92-28.81-28.46-28.81s-112.79,1.05-112.79,1.05Z"/>
          <g>
            <path class="cls-5" d="M42.21,95.56c.05,0,.07,0,0,0h0Z"/>
            <path class="cls-5" d="M224.17,113.78c-2.31-2.96-4.88-5.72-7.3-8.6-2.36-2.81-4.69-5.66-7.26-8.28-1.98-2.02-4.18-3.77-6.89-4.68-.98-.33-2.05-.44-3.07-.56-7.69-.93-15.59-.65-23.32-.62-9.43.04-18.85.23-28.28.26-4.72.02-9.44-.12-14.16,0-12.18.33-24.39.21-36.57.2-9.24,0-18.47-.2-27.7-.26-8.07-.05-16.24-.27-24.29.47-3.51.32-6.32,1.19-9.13,3.53-2.72,2.27-5.02,5.13-7.3,7.82-2.3,2.72-4.65,5.39-6.97,8.09-2.28,2.65-4.8,5.48-6.05,8.79-.96,2.53-1.03,5.8.5,8.15,2.24,3.42,7.24,4.04,10.98,4.25,13.17.75,26.43.64,39.62.8,17.39.22,34.79.4,52.19.31,10.42-.06,20.84-.13,31.27-.15,17.16-.04,34.32-.19,51.48-.52,4.74-.09,9.48-.15,14.22-.39,3.35-.17,7.25-.62,9.94-2.76,2-1.59,2.72-4.15,2.56-6.63-.23-3.58-2.33-6.48-4.46-9.22ZM199.85,95.88c-.4-.05-.14-.02,0,0h0ZM224.59,124.13c-.17,1.99-1.43,2.83-3.26,3.33-4.12,1.12-8.54.92-12.77,1.02-15.51.35-31.03.47-46.54.69-8.83.13-17.66.24-26.49.32-17.65.16-35.6-.09-53.37-.25-15.98-.14-31.97-.3-47.95-.71-2.04-.05-4.08-.11-6.12-.2-.54-.02-1.08-.05-1.61-.1-1.91-.18-5.02-.46-6.45-1.97-1.56-1.64-.75-4.58.2-6.31,1.71-3.11,4.23-5.82,6.57-8.47,2.38-2.7,4.64-5.5,7.01-8.21,2.03-2.32,4.14-4.96,6.87-6.47,1.05-.58,2.01-.87,3.17-1.07.1-.02.15-.03.17-.03.04,0,.1,0,.24-.02.29-.03.59-.07.88-.09.68-.07,1.35-.12,2.03-.16,3.74-.24,7.5-.3,11.25-.34,9.41-.09,18.82.06,28.23.15,12.28.13,24.56-.04,36.83.03,12.43.07,24.84.27,37.27.13,9.25-.1,18.5-.24,27.74-.08,3.39.06,6.8.12,10.18.44.27.03.54.06.81.08.12.01.25.03.38.05.44.07.88.14,1.31.25,2.03.53,3.69,1.93,5.15,3.37,2.55,2.53,4.85,5.3,7.17,8.04,2.37,2.8,4.87,5.49,7.18,8.34,1.87,2.31,4.19,5.07,3.92,8.25Z"/>
          </g>
          <path class="cls-4" d="M221.56,160.37c-1.52,5.3-3.13,10.84-4.71,16.02-4.1-1.64-8.43-2.71-11.83-3.39-15.78-3.19-26.49,4.37-39.88,10.87-14.24,6.9-29.82,11.85-45.78,11.7-17.02-.16-29.82-7.71-44.9-14.3-15.13-6.63-29.63-3.44-42.77,6.11-.85.62-1.71,1.24-2.55,1.88-2.4-7.06-5.33-16.78-8.01-26.09,7.46-4.39,15.58-7.68,24.11-8.99,10.51-1.6,21.69.01,30.69,5.67,5.85,3.68,10.68,8.96,16.95,11.85,12.22,5.61,26.59,1.44,38.5-2.91,13.39-4.9,25.75-9.77,39.9-12.38,13.35-2.45,25.86-4.76,38.92-1.08,5.04,1.42,8.64,3.18,11.36,5.04Z"/>
        </g>
        <path class="cls-5" d="M72.99,99.87c-8.85-.87-17.96.69-25.85,4.9-3.37,1.79-6.68,4.93-6.24,9.1.39,3.72,3.8,5.65,7.11,6.47,5.01,1.23,10.46,1.57,15.53.62,1.05-.2.74-1.74-.24-1.79-5-.25-10.26-.19-15.11-1.57-1.65-.47-3.57-1.26-4.31-2.94-.88-2,.34-4.2,1.8-5.53,1.65-1.5,3.85-2.43,5.88-3.27,2.2-.91,4.44-1.68,6.74-2.28,4.79-1.24,9.74-1.89,14.69-1.8,1.24.02,1.19-1.78,0-1.89h0Z"/>
        <path class="cls-5" d="M72.01,109.96c-.46.58-.81,1.23-.93,1.98s-.1,1.54.19,2.26c.31.79.79,1.39,1.48,1.89s1.73.95,2.48.47l-.55.15c.42-.01.93-.04,1.28-.3.25-.19.43-.41.43-.74,0-.29-.16-.61-.43-.74-.32-.16-.66-.21-.99-.34l.65.5c-.2-.29-.42-.5-.76-.62-.11-.04-.22-.08-.34-.11.3.08.12.05.03,0-.05-.03-.11-.05-.16-.08-.1-.06-.2-.13-.3-.19-.12-.08.2.18.05.04-.04-.04-.09-.08-.13-.12-.09-.08-.16-.17-.24-.26-.03-.04-.07-.11-.11-.14.11.15.14.18.08.11-.02-.03-.04-.06-.06-.09-.07-.1-.12-.21-.18-.32-.1-.19.07.19.02.05-.02-.06-.04-.12-.06-.17-.04-.12-.06-.24-.09-.36-.05-.21.01.21,0,.06,0-.06-.01-.12-.01-.18,0-.12,0-.25,0-.37,0-.26-.05.27,0,.02,0-.05.02-.1.03-.15.03-.13.07-.26.11-.39,0-.02.02-.05.03-.07.03-.08.02-.05-.04.1,0,0,.08-.15.08-.17.06-.12.14-.23.22-.34.33-.46.12-1.15-.29-1.46s-1.13-.35-1.49.09h0Z"/>
        <path class="cls-5" d="M174.12,108.29c.67.72,1.42,1.48,1.73,2.44.13.42.2.85.09,1.29s-.44.77-.74,1.08c-.74.75-1.55,1.45-2.4,2.07-.43.32-.88.62-1.33.9-.6.38-1.19.64-1.42,1.37-.16.48.18,1.06.67,1.18.8.19,1.41-.26,2.06-.67.55-.35,1.08-.73,1.6-1.13,1.08-.83,2.24-1.73,3.04-2.84s.9-2.53.42-3.79-1.44-2.26-2.42-3.2c-.86-.82-2.11.43-1.3,1.3h0Z"/>
        <path class="cls-5" d="M191.14,104.31c5.13,1.8,10.84,5.72,9.85,11.96-.48,3.05-2.77,4.61-5.55,5.5-3.42,1.1-6.96,1.41-10.47,2.09-.97.19-.74,1.75.23,1.71,4.03-.13,8.43-.62,12.25-1.97,3.34-1.18,5.6-3.57,6.02-7.14.85-7.23-5.87-11.73-11.92-13.67-.97-.31-1.36,1.18-.42,1.52h0Z"/>
        <path class="cls-5" d="M240.74,127.8c.09-2.12-.56-4.24-1.61-6.12-1.64-2.96-3.79-5.79-5.94-8.39-2.32-2.81-4.78-5.49-7.14-8.26-2.31-2.71-4.56-5.46-6.9-8.14-3.83-4.37-7.99-9.25-13.75-11.02-2.02-.62-4.25-.74-6.34-.9-7.43-.57-14.93-.6-22.38-.63-9.44-.04-18.89.05-28.33.24-8.15.17-31.22.61-33.65.4-4.12-.35-8.36-.19-12.51-.27-9.48-.19-18.96-.36-28.44-.38-8.23-.02-16.47.03-24.69.39-2.78.12-5.57.28-8.33.69-3.44.5-6.5,2.15-9.16,4.38-5.34,4.48-9.58,10.33-14.1,15.6-2.37,2.77-4.83,5.46-7.14,8.28-2.11,2.57-4.29,5.41-5.83,8.38-.78,1.49-1.27,3.09-1.38,4.7-.61,2.94-.28,8.09.68,10.32,1,2.34,2.96,4.11,5.12,5.38,3.85,2.26,8.72,3.51,13.14,3.85,5.11.39,10.26.43,15.37.56,8.71.21,17.43.35,26.14.52,28.78.54,57.6.37,86.38.27,7.75-.03,15.5-.1,23.25-.17,15.4-.15,30.86-.28,46.25-1.04,3-.15,5.88-.59,8.8-1.35,4.71-1.23,10.12-3.58,11.97-8.47.74-1.95.93-5.84.51-8.81ZM14.49,140.82c-2.9-.96-6.18-2.43-7.75-5.22-.26-.45-.42-.91-.52-1.37.82.77,1.73,1.44,2.7,2.01,3.11,1.83,6.89,2.98,10.56,3.54.05.53.12,1.07.23,1.6.05.24.1.48.15.73-1.81-.29-3.6-.7-5.36-1.29ZM25.8,142.67c-1.03-.04-2.06-.11-3.08-.2-.02-.15-.05-.31-.09-.46-.09-.42-.18-.85-.27-1.27-.05-.22-.12-.43-.18-.65,1.21.09,2.42.16,3.63.22.04.28.07.56.12.84.07.46.16.91.25,1.37.01.05.03.11.04.16-.14,0-.29,0-.43-.02ZM28.78,142.77c0-.06-.02-.12-.03-.19-.04-.23-.08-.46-.13-.68-.11-.45-.24-.89-.35-1.34-.01-.05-.02-.1-.03-.15,1.27.04,2.54.08,3.8.11,0,.09,0,.17,0,.25.09.54.16,1.11.27,1.64.04.16.08.32.12.48-1.22-.04-2.44-.08-3.66-.12ZM92.02,143.54c-6.57-.02-13.14-.07-19.7-.13-12.48-.11-24.96-.12-37.44-.45,0-.04,0-.07,0-.1-.02-.14-.04-.28-.06-.42-.04-.27-.06-.55-.11-.82-.06-.35-.13-.7-.21-1.04.98.02,1.96.04,2.94.06,8.71.21,17.43.35,26.14.52,15.13.29,30.28.37,45.43.37-.03.41-.08.83-.09,1.24,0,.26,0,.52.02.79-5.64,0-11.28,0-16.92-.02ZM111.49,143.56c-.01-.26-.03-.53-.04-.79-.03-.41-.03-.83-.04-1.24,1.29,0,2.57,0,3.86,0l.07,1.12c.02.31.03.61.05.92-1.3,0-2.6,0-3.89,0ZM135.29,143.52c-5.77.02-11.53.03-17.3.03,0-.08-.01-.16-.02-.23-.05-.34-.11-.68-.16-1.02-.04-.26-.08-.52-.12-.78,5.87,0,11.75-.03,17.62-.05,0,.2,0,.41,0,.61,0,.44-.01.87-.02,1.31,0,.04,0,.08,0,.13ZM137.69,143.51s0-.04,0-.07c0-.45-.01-.91-.02-1.36,0-.21,0-.41,0-.62,4.1-.01,8.19-.03,12.28-.04,7.75-.03,15.5-.1,23.25-.17,3.31-.03,6.63-.07,9.94-.1,0,.5-.02,1-.03,1.51,0,.23,0,.45,0,.68-1.52,0-3.03,0-4.55.01-13.63.05-27.27.12-40.9.16ZM212.82,142.9c-6.01.22-12.03.33-18.04.38.02-.38.02-.77,0-1.15-.01-.38-.03-.76-.04-1.14,6.1-.11,12.2-.28,18.29-.51-.04.65-.08,1.31-.16,1.96-.02.16-.03.31-.05.47ZM192.3,143.3c-2.25.01-4.49.02-6.74.03,0-.22.01-.44.01-.67,0-.51-.02-1.02-.03-1.54,2.26-.03,4.53-.07,6.79-.1-.01.37-.03.74-.04,1.11-.01.39-.02.78,0,1.17ZM215.54,142.8c0-.1.01-.21.01-.31,0-.71-.02-1.41-.06-2.11,1.32-.06,2.64-.09,3.96-.16.13,0,.25-.02.38-.03-.04.46-.11.91-.19,1.36-.05.26-.12.51-.14.78,0,.09-.01.18-.02.27-1.31.07-2.63.14-3.94.2ZM236.19,136.3c-1.15,1.86-3.25,3.04-5.2,3.87-2.78,1.18-5.84,1.91-8.87,2.22.07-.45.1-.9.11-1.35.01-.35,0-.71-.02-1.06,2.03-.23,4.03-.59,6.06-1.12,2.9-.76,6.06-1.94,8.5-3.88-.13.44-.3.88-.57,1.31ZM236.19,130.1c-1.15,1.86-3.25,3.04-5.2,3.87-3.18,1.35-6.74,2.15-10.19,2.36-14.03.82-28.15.76-42.2.82-28.85.11-57.72.28-86.57.19-6.57-.02-13.14-.07-19.7-.13-15.5-.14-31.02-.12-46.52-.74-1.85-.07-3.74-.09-5.57-.43-4.27-.78-10.43-2.07-12.75-6.21-1.49-2.66-.09-5.39,1.47-7.65,1.89-2.75,4.11-5.3,6.28-7.83,4.56-5.31,9.04-10.72,13.73-15.92,3.07-3.41,6.54-7.59,11.22-8.71.37-.09.75-.16,1.13-.22.22-.04.44-.07.65-.1.03,0,.09-.01.14-.02.11-.01.22-.03.32-.04,1.29-.15,2.59-.26,3.88-.35,7.45-.52,14.93-.47,22.39-.47,9.25,0,18.49.14,27.74.16,7.91.02,30.07-.23,32.45-.1,3.97.22,8.01.11,12,.11,9.2,0,18.4-.08,27.59-.14,8.23-.05,16.47-.15,24.7.2,2.77.12,5.55.28,8.3.6.13.01.19.02.23.02.03,0,.08.01.16.03.22.03.44.07.65.1.41.07.82.15,1.22.25,1.58.39,3.07,1.24,4.4,2.16,2.67,1.84,4.89,4.49,7.04,6.89,2.26,2.53,4.43,5.14,6.62,7.74,4.45,5.27,9.47,10.25,13.31,16,1.54,2.31,2.66,4.98,1.06,7.57Z"/>
        <g>
          <path class="cls-4" d="M163.06,104.31c-12.56,19.49-34.51,15.45-34.51,15.45,0,.08-.18,1.35-12,2.81-12.18,1.5-29.61-6.18-33.92-20.61-4.31-14.43,6-32.99,16.68-39.73,10.35-6.54,14.72-.6,14.99-.21,0,0,0,.02,0,.02,0,0,.02-.02.07-.05.03-.03.06-.03.09-.05.19-.13.59-.33,1.3-.54.03-.02.04-.03.07-.03.62-.19,1.47-.39,2.61-.56.74-.11,1.61-.2,2.61-.27,4.93-.35,6.95,4.87,7.27,5.82.03.1.05.15.05.15,0,0,1.91-.28,5.24,1.5.41.22.85.48,1.31.77,4.12,2.63,2.81,7.31,2.81,7.31,0,0-4.5-1.12-13.68,4.5-9.18,5.63-9.18,15.18-9.18,15.18,0,0,5.25,3.94,17.06-4.5,12.66-9.04,9.37-26.05,9.37-26.05l2.24-.75c2.25-.75,6.94.94,6.94.94,0,0,2.24-1.12,5.62-1.69,3.37-.56,4.69,1.69,4.69,1.69,0,0,.94-.56,3.19-1.31,2.24-.75,4.5.19,6.93,2.62,2.44,2.44,4.71,18.1-7.85,37.59Z"/>
          <path class="cls-5" d="M104.4,99.28c.07-2.24.39-4.48.86-6.67,1.5-6.97,4.5-13.29,10.04-17.95,2.69-2.26,5.77-4.12,9-5.5,2.12-.91,4.76-1.89,7.3-2.07-2.06-.75-3.22-.59-3.22-.59,0,0-6.34,1.43-9.07,2.99-3.2,1.82-6.01,3.91-8.56,6.56-.28.28-.55.57-.82.86-5.85,6.28-10.44,16.46-7.59,25.08.34,1.02,1.54,1.15,2.16.54-.12-1.09-.12-2.19-.09-3.25Z"/>
          <path class="cls-5" d="M118.44,60.81c-1.53.66-2.99,1.49-4.31,2.45-.65.46-1.27.94-1.89,1.44-.04.03-.08.05-.12.08-2.31,1.7-4.3,3.76-6.06,6.02-.15.19-.3.4-.45.59-1.79,2.18-3.42,4.5-4.87,6.86-1.01,1.64-1.79,3.42-2.45,5.22-.03.09-.07.19-.1.28-.89.19-1.85-.31-1.83-1.43.1-6.53,9.04-15.39,15.38-18.97.83-.46,1.69-.93,2.57-1.33.03-.02.05-.03.08-.03.03-.03.06-.03.09-.05.43-.19.86-.38,1.3-.54.03-.02.04-.03.07-.03.62-.19,1.47-.39,2.61-.56Z"/>
          <path class="cls-5" d="M91.18,95.49c-1.36,3.85-.16,8.25,2.44,11.3.74.86,2.32-.05,1.93-1.13-1.17-3.28-1.47-6.33-1.55-9.79-.04-1.66-2.29-1.89-2.82-.38h0Z"/>
          <path class="cls-5" d="M172.53,71.03c0,.43-.02.86-.04,1.28-.38,7.88-2.48,15.75-6.4,22.62-3.17,5.54-7.76,9.98-12.9,13.69-5.73,4.13-11.86,7.39-19.12,7.35-11.98-.08-21.62-10.58-18.1-22.71.52-1.79,1.34-3.8,2.32-5.41,1.72-3.27,4.23-5.79,6.99-8.05-2.18.3-4.1,1.65-5.69,3.09-2.54,2.29-4.77,5.11-5.97,8.34-3.06,8.13-1.66,17.08,4.75,23.04,1.5,1.39,3.17,2.56,4.96,3.51-6.61,1.46-13.65,1.41-20.39-.86-5.89-1.98-11.64-5.29-15.01-10.68-4.69-7.49-3.75-17.25-1.19-25.31,1.59-5.02,4.16-11.09,7.89-14.94-6.98,7.19-13.19,17.52-13.33,27.58-.32,22.8,27.85,35.72,47.34,26.27,3.88,1.04,8.01,1.19,11.97.41,10.6-2.08,19.67-9.8,25.18-18.87,4.93-8.11,8.71-20.34,6.77-30.35Z"/>
          <path class="cls-5" d="M124.09,108.92c9.45-2.69,16.74-8.71,21.15-17.49.63-1.25-1.12-2.29-1.88-1.1-4.67,7.25-11.87,13-20,15.95-1.63.59-.99,3.13.73,2.64h0Z"/>
          <path class="cls-5" d="M145.79,107.06c4.71-2.54,8.6-6.11,11.67-10.49,2.76-3.93,5.89-9.62,5.47-14.57-.11-1.24-1.81-1.92-2.49-.68-2.17,3.96-3.11,8.4-5.63,12.26-2.78,4.26-6.51,7.77-10.65,10.69-1.68,1.18-.23,3.8,1.63,2.79h0Z"/>
          <path class="cls-5" d="M150.84,81.17c.45-1.48,1.83-4.82-.48-5.46-1.17-.32-2.06.75-2.4,1.73-.31.88-.4,1.86-.56,2.78s.26,1.92,1.24,2.19c.95.26,1.91-.32,2.19-1.24h0Z"/>
        </g>
      </g>
    </g>
  </g>
</svg>