<?xml version="1.0" encoding="UTF-8"?>
<svg id="Capa_2" xmlns="http://www.w3.org/2000/svg" viewBox="0 0 243.3 243.3">
  <defs>
    <style>
      .cls-1 {
        fill: #eca396;
      }

      .cls-2 {
        fill: #fff;
      }

      .cls-3 {
        fill: #f2bfb6;
      }

      .cls-4 {
        fill: none;
      }

      .cls-5 {
        fill: #4f3535;
      }

      .cls-6 {
        fill: #a1c2de;
      }
    </style>
  </defs>
  <g id="grocery_icons">
    <g>
      <rect class="cls-4" width="243.3" height="243.3"/>
      <g>
        <path class="cls-6" d="M25.37,101.06s-17.2,13.15-18.46,15.17,0,23.77,0,23.77l6.32.76s-1.26,37.43,7.33,48.05c8.6,10.62,35.41,8.85,44.51,7.84,9.1-1.01,12.65-3.29,15.17-9.36,2.53-6.07,5.82-15.68,5.82-15.68,0,0,2.28,20.74,10.62,24.28,8.35,3.54,29.84,5.56,41.73,2.28,11.89-3.29,14.54-6.45,15.81-11s3.03-17.07,3.03-17.07c0,0,1.64,20.74,11,24.28s45.4,4.3,51.72-1.52c6.32-5.82,9.86-18.21,10.12-27.82s.51-23.77.51-23.77l6.7-.25s-.38-23.24-1.58-25.28c-1.2-2.04-14.35-12.4-14.35-12.4l-196-2.28Z"/>
        <g>
          <path class="cls-5" d="M21.85,100.8c-6.61,3.35-12.28,9.31-17.49,14.5-1.95,1.95,1.1,5,3.03,3.03,5.17-5.31,11.35-9.67,16.34-15.09,1.21-1.32-.3-3.24-1.88-2.44h0Z"/>
          <path class="cls-5" d="M219.15,103.24c4.99,5.42,11.17,9.78,16.34,15.09,1.93,1.98,4.98-1.08,3.03-3.03-5.2-5.19-10.88-11.15-17.49-14.5-1.56-.79-3.1,1.11-1.88,2.44h0Z"/>
          <path class="cls-1" d="M48.58,119.8c-.33-1,2.34-64.91,35.47-66.58,37.44-1.89,35.72,65.59,35.72,65.59l-71.18.99Z"/>
          <path class="cls-1" d="M126.2,118.46c-.33-1,2.34-64.91,35.47-66.58,37.44-1.89,35.72,65.59,35.72,65.59l-71.18.99Z"/>
          <path class="cls-3" d="M17.46,117.46s4.16-37.12,30.45-44.5c29.78-8.36,36.8,43.16,36.8,43.16l-67.25,1.34Z"/>
          <path class="cls-3" d="M87.39,118.46s6.02-43.83,34.13-46.17c28.1-2.34,34.13,44.5,34.13,44.5l-68.25,1.67Z"/>
          <path class="cls-3" d="M158.99,117.12s7.36-44.16,36.47-44.83c29.11-.67,31.79,45.5,31.79,45.5l-68.25-.67Z"/>
          <g>
            <g>
              <path class="cls-5" d="M24.62,147.74c-2.91,7.46-1.74,20.51,2.46,27.34.82,1.33,2.72.71,2.82-.76.31-4.58-.77-9.3-1.06-13.88-.27-4.24.29-8.51-.47-12.7-.38-2.09-3.13-1.59-3.75,0h0Z"/>
              <path class="cls-5" d="M27.98,181.25c.29.92.54,1.84,1.23,2.56.56.58,1.47.72,2.19.41.77-.33,1.16-1.01,1.23-1.83.07-.8-.28-1.55-.56-2.27-.21-.53-.47-.97-.97-1.27-.45-.27-1.12-.38-1.63-.21-1.06.34-1.84,1.48-1.48,2.61h0Z"/>
            </g>
            <g>
              <path class="cls-5" d="M95.5,147.74c-2.91,7.46-1.74,20.51,2.46,27.34.82,1.33,2.72.71,2.82-.76.31-4.58-.77-9.3-1.06-13.88-.27-4.24.29-8.51-.47-12.7-.38-2.09-3.13-1.59-3.75,0h0Z"/>
              <path class="cls-5" d="M98.86,181.25c.29.92.54,1.84,1.23,2.56.56.58,1.47.72,2.19.41.77-.33,1.16-1.01,1.23-1.83.07-.8-.28-1.55-.56-2.27-.21-.53-.47-.97-.97-1.27-.45-.27-1.12-.38-1.63-.21-1.06.34-1.84,1.48-1.48,2.61h0Z"/>
            </g>
            <g>
              <path class="cls-5" d="M168.1,147.74c-2.91,7.46-1.74,20.51,2.46,27.34.82,1.33,2.72.71,2.82-.76.31-4.58-.77-9.3-1.06-13.88-.27-4.24.29-8.51-.47-12.7-.38-2.09-3.13-1.59-3.75,0h0Z"/>
              <path class="cls-5" d="M171.47,181.25c.29.92.54,1.84,1.23,2.56.56.58,1.47.72,2.19.41.77-.33,1.16-1.01,1.23-1.83.07-.8-.28-1.55-.56-2.27-.21-.53-.47-.97-.97-1.27-.45-.27-1.12-.38-1.63-.21-1.06.34-1.84,1.48-1.48,2.61h0Z"/>
            </g>
          </g>
          <path class="cls-5" d="M239.18,116.61c-.03-1.75-2.56-1.91-3.45-.87-.33-.35-.73-.63-1.28-.71-9.26-1.36-19.3-.32-28.66-.31-9.3,0-18.6.02-27.9.02-5.62,0-11.23,0-16.85.01.2-.91.33-1.84.49-2.82.34-2.02.77-4.02,1.29-6,1.02-3.85,2.34-7.61,4.15-11.17,3.39-6.67,8.31-12.63,14.48-16.91,2.93-2.03,7.15-4.13,10.55-5.29-1.53.04-8.2-.33-19.97,8.84-6.66,5.19-10.08,13.54-12.52,21.57-.7,2.31-1.24,4.66-1.66,7.03-.07.4-.14.8-.21,1.2-.26-1.5-.58-2.99-.87-4.49-5.37-27.57-23.71-32.59-25-32.98,5.27,3.46,10.28,8.08,13.45,13.54,3.74,6.42,6.05,13.52,7.61,20.76.39,1.83.73,3.67,1.09,5.5.07.35.16.78.29,1.23-11.04,0-22.08.02-33.12.03-10.38,0-20.79-.08-31.21-.18.17-1,.18-2.06.29-3.04.21-1.83.55-3.65.99-5.44.88-3.63,2.18-7.16,3.84-10.51,3.19-6.46,7.73-12.21,13.37-16.69,3.13-2.49,7.36-4.94,11.13-6.38.09-.04-2.75.14-7.13,1.89-14.26,5.72-22.09,19.49-24.76,29.13-.29,1.04-.53,2.09-.75,3.14-.19-1.06-.42-2.12-.7-3.16-1.11-4.1-2.63-8.09-4.41-11.95-3.73-8.11-9.54-13.55-14.31-16.06-3.74-1.97-7.2-3.07-10.77-3.36.73.19,4.5,1.61,7.35,3.46,3.01,1.96,5.61,4.32,7.76,7.2,4.57,6.15,7.92,13.4,10.06,20.74.62,2.13,1.17,4.28,1.75,6.42.27,1,.52,1.99.76,2.99.12.51.2,1.04.32,1.56-25.54-.22-51.13-.3-76.52,1.27-.82-1.14-3-.86-3.08.89-.41.6-1.35-.17-.99.45-.07,3.56-.05,25.71,1.77,25.86,4.13.35,44.76-.12,58.13-.06,19.47.08,39-.31,58.44.15,19.46.46,38.95.08,58.42.04,9.45-.02,18.89-.04,28.34-.06,1.66,0,27.3-.65,29.07-.89.87-.12.94-9.22.84-12.79-.12-4.21.19-8.6.11-12.82ZM234.06,137.76c-8.35,0-16.32.24-24.9.23-9.45-.01-18.89-.02-28.34-.03-19.46-.02-38.96-.37-58.42.12-19.44.48-38.97.12-58.44.22-18.33.1-36.87-.88-55.17.41.39-3.04.07-6.29-.01-9.27-.1-3.22-.17-6.45-.24-9.67,37.36,2.29,75.13.99,112.56,1.03,18.93.02,37.86.03,56.8.05,9.3,0,18.6.02,27.9.02,9.37,0,28.22-.42,28.45-.55-.07,3.06-.55,14.46-.19,17.45Z"/>
          <path class="cls-2" d="M44.45,84.55c-3.89,1.38-6.75,4.61-9.06,7.92-2.2,3.15-4.82,7.82-3.75,11.74.6,2.2,3.41,2.9,5.02,1.33,2.35-2.3,3.06-6.13,4.67-8.98,1.7-3.01,4.12-5.53,5.78-8.54.92-1.68-.63-4.18-2.66-3.46h0Z"/>
          <path class="cls-2" d="M75.61,63.85c-1.83,2.06-4.22,4.49-4.18,7.44.03,1.82,1.87,2.67,3.4,1.95,2.19-1.03,3.39-3.49,4.89-5.28,1.01-1.2,1.18-2.93,0-4.11-1.06-1.06-3.06-1.18-4.11,0h0Z"/>
          <path class="cls-2" d="M114.59,84.01c-4.4,1.18-7.55,5.77-9.69,9.54-2.32,4.1-4.4,8.85-3.5,13.62.48,2.54,3.68,2.29,4.92.64,2.43-3.23,3.42-7.52,5.33-11.08,1.77-3.3,4.63-6.53,5.46-10.21.34-1.51-.96-2.93-2.51-2.51h0Z"/>
          <path class="cls-2" d="M157.13,64.02c-4.21,2.52-8.65,7.46-9.07,12.6-.2,2.39,2.8,3.06,4.32,1.79,1.74-1.46,2.83-3.76,4.06-5.63,1.31-1.99,2.38-3.91,3.37-6.07.78-1.68-.87-3.77-2.69-2.69h0Z"/>
          <path class="cls-2" d="M187.75,83.97c-7.16,4.15-15.89,14.36-14.45,23.19.42,2.55,3.78,2.35,4.99.65,2.32-3.25,3.45-7.34,5.62-10.74,2.21-3.47,4.8-6.71,6.42-10.52.69-1.63-.8-3.61-2.58-2.58h0Z"/>
        </g>
      </g>
    </g>
  </g>
</svg>