<?xml version="1.0" encoding="UTF-8"?>
<svg id="Capa_2" xmlns="http://www.w3.org/2000/svg" viewBox="0 0 243.3 243.3">
  <defs>
    <style>
      .cls-1 {
        fill: #fdedca;
      }

      .cls-2 {
        fill: #fff;
      }

      .cls-3 {
        fill: #4286bd;
      }

      .cls-4 {
        fill: none;
      }

      .cls-5 {
        fill: #4f3535;
      }

      .cls-6 {
        fill: #7baad1;
      }

      .cls-7 {
        fill: #a1c2de;
      }
    </style>
  </defs>
  <g id="grocery_icons">
    <g>
      <rect class="cls-4" width="243.3" height="243.3"/>
      <g>
        <path class="cls-3" d="M215.82,121.59c-.1.57-7.65,37.51-9.42,47.62-.28,1.58-.5,3.29-.75,5.08-1.25,9.72-2.25,21.53-7.91,24.99-3.91,2.4-7.99,4.45-12.18,6.21-11.67,4.91-24.25,7.58-36.82,8.95-4.55.5-9.12.86-13.72,1.09-13.27.65-26.68.25-39.82-.95-10.39-.95-20.77-2.75-30.7-5.94-7.22-2.32-14.2-5.36-20.75-9.36-6.69-4.09-6.88-19.88-8.65-30.07-.26-1.51-.66-3.62-1.15-6.13-2.45-12.83-7.13-35.87-8.09-40.62-.09-.47-.15-.76-.17-.85.06.06.32.33.93.77,2.58,1.9,11.16,6.81,34.24,10.25,14,2.09,33.33,3.63,59.89,3.63,3.89,0,7.62-.03,11.22-.11,28.67-.57,48.18-3.35,61.11-6.3,16.69-3.84,22.42-8,22.74-8.24Z"/>
        <path class="cls-6" d="M60.85,132.62c-7.06,11.41-16.8,21.22-26.9,30.46-2.45-12.83-7.13-35.87-8.09-40.62.25-.03.5-.06.76-.08,2.58,1.9,11.16,6.81,34.24,10.25Z"/>
        <path class="cls-6" d="M193.07,129.83c-9.78,23.45-34.48,60.62-58.06,85.69-13.27.65-26.68.25-39.82-.95-10.39-.95-20.77-2.75-30.7-5.94,25.56-21.24,47.97-45.86,67.47-72.5,28.67-.57,48.18-3.35,61.11-6.3Z"/>
        <path class="cls-6" d="M205.65,174.29c-1.25,9.72-2.25,21.53-7.91,24.99-3.91,2.4-7.99,4.45-12.18,6.21,8.32-10.47,14.28-20.13,20.09-31.2Z"/>
        <path class="cls-2" d="M214.8,85.54s-24.45-12.99-66.86-14.9-91.32.38-115.39,11.46c-24.07,11.08-30.95,29.04-19.49,39.35,11.46,10.32,44.7,22.54,99.34,21.78,54.64-.76,84.44-3.06,105.07-14.9,20.63-11.84,18.34-22.54,13.37-29.42s-16.05-13.37-16.05-13.37Z"/>
        <path class="cls-7" d="M93.68,80.95s-37.06,2.67-51.58,7.64c-14.52,4.97-22.27,18.71-14.96,27.5,7.32,8.79,42.09,16.82,89.46,15.29,47.38-1.53,70.69-3.82,85.2-9.93,14.52-6.11,22.16-16.81,8.02-27.13-14.14-10.32-38.59-12.99-57.31-13.75s-43.94-2.29-58.84.38Z"/>
        <path class="cls-5" d="M230.56,96.01c-4.48-6.16-10.96-10.38-17.78-13.58-7.86-3.68-15.99-6.4-24.51-8.12-10.8-2.18-21.78-3.15-32.73-4.15-10.39-.95-20.83-1.64-31.27-1.53-5.09-.25-10.21-.05-15.3.11-5.34.16-10.68.42-16.01.78-10.85.73-21.72,1.67-32.47,3.36-9.23,1.46-18.4,3.59-26.96,7.39-6.96,3.09-13.83,6.33-19.22,11.87-4.87,5-9.24,12.72-8,19.93,1.18,6.83,7.29,11.94,12.79,15.49,6.46,4.18,13.73,6.98,21.04,9.28,10.15,3.2,20.63,5.2,31.17,6.64,11.69,1.6,23.51,2.69,35.34,3.17,3.23.28,6.49.31,9.74.36,4.9.07,9.8.03,14.7-.11,10.7-.32,21.41-1.08,32.04-2.31,10.59-1.22,21.18-2.84,31.49-5.55,8.21-2.15,16.47-4.84,23.97-8.88,5.94-3.2,12.4-7.57,15.48-13.79,3.36-6.77.71-14.56-3.5-20.36ZM231.99,111.29c-1.08,6.42-7.4,10.85-12.64,13.86-6.51,3.74-13.69,6.17-20.9,8.16-9.79,2.71-19.84,4.46-29.92,5.66-10.98,1.3-22.01,2.23-33.07,2.68-3.87-.17-7.74.1-11.61.16-4.32.06-8.63.02-12.95-.11-10-.3-19.98-1.07-29.93-2.09-10-1.02-19.96-2.32-29.78-4.54-8.24-1.86-16.57-4.13-24.22-7.75-5.7-2.69-11.98-6.24-15.4-11.73-1.59-2.55-2.29-5.41-1.64-8.37.78-3.54,2.28-6.84,4.42-9.77,4.22-5.79,10.63-9.7,17.09-12.52,3.32-1.45,6.82-2.44,10.28-3.5,4.41-1.35,8.88-2.55,13.38-3.55,19.25-4.24,39.13-5.47,58.81-5.86.19.08.4.13.66.13,5.25.05,10.5-.18,15.76-.1,5.26.09,10.51.34,15.76.7,10.53.73,21.06,1.86,31.48,3.58,9.19,1.52,18.06,3.97,26.95,6.69,6.91,2.12,13.71,5.42,19.06,10.36,2.59,2.39,4.76,5.16,6.32,8.32,1.4,2.85,2.64,6.38,2.1,9.59Z"/>
        <path class="cls-1" d="M35.94,120.22c5.38,2.51,11.33,3.66,17.12,4.81,7.4,1.48,14.83,2.95,22.28,4.17,7.56,1.24,15.08,2.01,22.74,2.28,7.66.27,15.34.19,23,.17,7.56-.01,15.11.24,22.67.31,14.88.12,30.04-.58,44.4-4.78,5.13-1.5,10.32-3.16,15.18-5.4,2.48-1.14,4.92-2.44,7.14-4.04.91-.65,1.8-1.43,2.66-2.32.11-.12.2-.21.29-.32-.15-.24-.31-.47-.47-.7-7.13-10.06-19.13-15.88-31.32-17.77-6.82-1.06-13.78-1.01-20.6-2.09-6.02-.95-11.86-2.78-17.86-3.84-14.64-2.6-30.01-.54-43.65,5.38-5.44,2.36-10.92,5.39-16.85,5.23-3.64-.1-7.13-1.41-10.72-1.97-8.43-1.32-16.92,1.48-24.84,4.63-6.17,2.45-12.25,5.15-18.21,8.07-.55.27-1.33.6-2.2.97,2.16,3.27,5.56,5.5,9.24,7.22Z"/>
        <path class="cls-5" d="M213.65,95.12c-5.13-4.78-12.01-7.43-18.57-9.59-4.46-1.46-8.96-2.76-13.57-3.66-4.66-.9-9.37-1.47-14.09-1.95-11.28-1.15-22.65-2-34.02-2.41-3.7-.27-7.44-.25-11.15-.23-3.78-.03-7.55-.01-11.32.08-2.15.05-4.26.16-6.39.4-9.38.45-18.76,1.09-28.12,1.96-4.98.46-9.97.99-14.89,1.88-4.8.87-9.48,2.15-14.13,3.62-6.99,2.2-14.46,4.97-19.83,10.15-2.42,2.33-4.32,5.3-4.82,8.67-.66,4.52,1.33,8.82,4.39,12.06,5.43,5.75,13.7,8.06,21.02,10.34,16.44,5.13,33.87,6.76,51.06,7.36,1.95.13,3.91.17,5.89.22,4.01.09,8.03.14,12.04.15,4.59.02,9.17-.01,13.76-.09,1.05,0,2.1,0,3.14-.01,2.19-.01,4.37.04,6.55-.23,18.6-.65,37.35-2.4,55.12-8.21,6.96-2.28,14.73-4.7,19.54-10.6,2.68-3.3,4.19-7.43,3.34-11.69-.64-3.2-2.61-6.03-4.97-8.22ZM214.44,109.62c-3.01,6.72-11,9.32-17.49,11.29-8.26,2.51-16.6,4.39-25.16,5.58-8.91,1.24-17.9,1.76-26.89,2.14-3.48.15-6.95.26-10.44.34-1.37.01-2.73.02-4.1.03-6.39.04-12.77.06-19.16,0-1.72-.02-3.45-.04-5.17-.07-2.08-.05-4.17-.09-6.25-.17-.47-.02-.93,0-1.39-.01-12.84-.42-25.7-1.43-38.27-3.89-4.47-.87-8.88-1.99-13.25-3.3-3.59-1.08-7.24-2.1-10.64-3.72-3.24-1.54-6.37-3.6-8.33-6.69-2.14-3.38-2.21-7.25-.07-10.62,3.5-5.51,10.52-8.51,16.41-10.66,8.84-3.22,18.44-4.5,27.73-5.73,16.39-2.16,32.89-3.4,49.41-3.46,3.18.02,6.35.07,9.53.17,8.99.28,17.93,1,26.87,1.91,8.97.92,17.91,2.06,26.75,3.83,4.38.87,8.65,1.79,12.86,3.33,2.96,1.08,5.85,2.35,8.59,3.93,5.5,3.17,11.57,8.79,8.45,15.75Z"/>
        <path class="cls-2" d="M140.84,95.78c-5.57-.9-11.08-1.09-16.68-.36-5.07.66-10.26,1.75-14.95,3.87-3.79,1.72-7.34,4.61-7.89,8.99-.26,2.07,1.25,3.17,3.12,3.45,2.57.38,5.32.12,7.9-.05,11.63-.8,23.11-3,34.77-3.64,5.88-.32,11.78-.37,17.66-.15,2.85.11,5.69.29,8.54.5,2.31.17,5.63.69,6.38,3.34,1.74,6.09-8.86,8.01-12.84,8.34-6.01.51-11.87-1.49-17.81-2.01-.87-.08-1.2,1.26-.45,1.64,4.69,2.38,10.04,2.96,15.24,2.71,4.83-.23,10.18-.83,14.25-3.7,1.64-1.16,3.14-2.76,3.9-4.64.78-1.94-.07-4.05-1.37-5.55-3.42-3.94-10.01-3.47-14.73-3.66-11.69-.48-23.44.08-35.02,1.73-5.8.83-11.59,1.79-17.43,2.36-2.75.27-5.58.6-8.34.6-.42,0-1.23.04-1.52-.34-.44-.58.24-1.52.56-2,.58-.87,1.34-1.71,2.1-2.41,3.87-3.59,9.83-4.91,14.84-5.89,6.35-1.24,13.03-1.58,19.47-1.14,1.13.08,1.41-1.81.27-2h0Z"/>
        <path class="cls-2" d="M87.03,107.12c-4.17-.55-8.36-.67-12.51.15-3.44.69-7.13,2.24-9.55,4.87-2.14,2.35-3.09,6.16.13,8.06,1.26.74,2.73.95,4.16,1.11,2.08.23,4.24.63,6.33.39,1.1-.13,1.39-1.58.27-1.97-2.8-.96-5.93-.44-8.71-1.45-3.35-1.22-.29-4.15,1.42-5.35,5.4-3.78,12.21-3.28,18.46-3.57,1.48-.07,1.4-2.06,0-2.25h0Z"/>
      </g>
    </g>
  </g>
</svg>