<?xml version="1.0" encoding="UTF-8"?>
<svg id="Capa_2" xmlns="http://www.w3.org/2000/svg" viewBox="0 0 243.3 243.3">
  <defs>
    <style>
      .cls-1 {
        fill: #fff;
      }

      .cls-2 {
        fill: #4286bd;
      }

      .cls-3 {
        fill: none;
      }

      .cls-4 {
        fill: #4f3535;
      }

      .cls-5 {
        fill: #c6dbeb;
      }

      .cls-6 {
        fill: #7baad1;
      }

      .cls-7 {
        fill: #847272;
      }

      .cls-8 {
        fill: #d8d3d3;
      }
    </style>
  </defs>
  <g id="grocery_icons">
    <g>
      <rect class="cls-3" width="243.3" height="243.3"/>
      <g>
        <g>
          <path class="cls-2" d="M92.42,182.6s-3.14,10.66-1.05,23.59,4.89,24.28,18.69,24.28,17.65-9.78,19.92-19.57c2.27-9.78.17-27.25-1.4-29.7s-36.16,1.4-36.16,1.4Z"/>
          <path class="cls-5" d="M89.62,167.75s-15.37-22.01-13.98-34.42c1.4-12.4,16.42-19.39,36.86-19.74,20.44-.35,32.18,9.39,33.89,17.47,2.45,11.53-16.6,39.13-16.6,39.13,0,0-14.15,4.54-23.24,3.32-9.08-1.22-16.95-5.77-16.95-5.77Z"/>
          <path class="cls-6" d="M87.23,135.27c.25,6.36,2.04,12.64,4.06,18.63.99,2.94,2.14,5.82,3.48,8.62,1.33,2.78,2.72,5.9,4.75,8.25.44.51,1.12-.14.87-.67-1.26-2.76-3.08-5.28-4.44-8-1.44-2.89-2.75-5.86-3.83-8.9-2.08-5.87-3-11.94-4-18.05-.08-.51-.92-.39-.9.12h0Z"/>
          <path class="cls-6" d="M103.4,128.11c-.04,7.43.24,14.85.66,22.26.21,3.62.44,7.24.72,10.86.14,1.89.3,3.79.46,5.68.15,1.71.09,3.64.66,5.27.12.35.76.46.83,0,.23-1.72-.16-3.55-.32-5.27-.17-1.81-.32-3.61-.47-5.42-.3-3.7-.56-7.41-.77-11.11-.42-7.42-.65-14.84-.9-22.26-.02-.55-.85-.55-.86,0h0Z"/>
          <path class="cls-6" d="M118.43,131.24c.39,6.6.31,13.2-.3,19.79-.32,3.36-.76,6.71-1.32,10.03s-1.37,6.55-1.93,9.84c-.12.73.91,1.05,1.13.31,1.94-6.28,2.64-13.16,3.16-19.69s.61-13.54.2-20.29c-.04-.6-.98-.61-.94,0h0Z"/>
          <path class="cls-6" d="M122.65,171.19c3.2-6.21,5.93-12.67,8.07-19.33,2.11-6.57,3.99-13.56,4.61-20.45.06-.62-.97-.76-1.09-.15-.66,3.37-1.14,6.76-1.89,10.12-.75,3.35-1.65,6.67-2.66,9.95-2.07,6.68-4.65,13.17-7.79,19.42-.25.5.5.95.76.44h0Z"/>
          <path class="cls-4" d="M88.05,165.65s7.43,3.51,22.01,3.67c16.07.17,23.24-4.89,23.24-4.89,0,0,2.45,5.94,1.92,11.36s-1.57,10.13-13.45,13.1c-11.88,2.97-21.84,1.05-26.21-.87-4.37-1.92-7.86-4.72-9.08-9.08s1.57-13.28,1.57-13.28Z"/>
          <path class="cls-7" d="M93.49,172.99c-.09,1.55-.1,3.1-.02,4.64s.17,3.12.62,4.56c.15.49.93.42.91-.12-.02-.76-.15-1.5-.23-2.26s-.13-1.51-.19-2.27c-.1-1.52-.12-3.04-.06-4.55.03-.66-.99-.66-1.03,0h0Z"/>
          <path class="cls-7" d="M99.19,174.03c-.15,1.42-.22,2.85-.19,4.28.03,1.39.12,2.89.53,4.22.15.47.88.4.88-.12,0-1.39-.19-2.79-.25-4.18s-.02-2.8.09-4.2c.06-.69-.99-.67-1.06,0h0Z"/>
          <path class="cls-4" d="M122.6,193.92c.68-.1,1.32-.29,1.95-.56.29-.13.58-.27.86-.43.17-.1.33-.21.48-.33s.28-.27.4-.43c.15-.19.08-.54-.09-.7-.2-.19-.45-.2-.7-.09-.28.13-.51.31-.76.48s-.52.33-.8.47c-.13.07-.27.13-.41.19-.09.04.07-.03-.02,0-.03.01-.07.03-.1.04-.07.03-.14.05-.21.08-.29.1-.59.19-.89.25-.27.06-.46.39-.37.65.1.3.36.42.65.37h0Z"/>
          <path class="cls-4" d="M123.14,199.75c.77-.25,1.52-.58,2.22-.99s1.42-.92,1.92-1.57c.13-.18.07-.47-.08-.62-.16-.16-.42-.2-.62-.08-.34.21-.57.42-.89.64s-.61.42-.93.61c-.64.39-1.26.68-1.93.91-.29.1-.48.39-.4.7.08.29.41.49.7.4h0Z"/>
          <path class="cls-4" d="M123.57,208.94c.21.11.45.17.69.16s.48-.08.69-.21c.15-.09.28-.2.38-.36.06-.1.11-.22.15-.33.05-.18.04-.37-.06-.54-.11-.18-.3-.3-.51-.3-.17,0-.34.06-.46.18-.06.06-.1.13-.15.2l.1-.13s-.08.09-.13.13-.08.09-.13.13l.13-.1c-.06.05-.12.08-.19.11l.15-.06c-.06.03-.13.05-.2.06l.17-.02c-.06,0-.13,0-.19,0l.16.02s-.09-.02-.13-.03c-.08-.02-.16-.03-.24-.01-.08,0-.15.03-.22.07-.11.07-.19.16-.25.29s-.07.26-.03.39c.05.14.14.29.28.36h0Z"/>
        </g>
        <g>
          <g>
            <path class="cls-2" d="M47.4,94.54s.93,13.74-1.4,20.27-6.52,11.65-7.22,30.05c-.7,18.4-.47,67.32.93,74.77,1.4,7.45,8.15,10.95,17.94,9.08,9.78-1.86,10.72-10.48,11.18-18.87.47-8.39-.47-70.81-2.33-80.36-1.09-5.57-6.52-19.8-6.99-27.02-.47-7.22.23-10.02.23-10.02l-12.35,2.1Z"/>
            <path class="cls-4" d="M83.57,77.08c-9.37-1.08-18.86-.64-28.28-.48-4.69.08-9.37.28-14.06.33-4.77.05-9.51-.11-14.27-.32-.61-.03-1.07.29-1.34.72-.32.32-.48.81-.25,1.32,0,.01.01.02.01.03.05.21.14.4.28.57,4.13,8.59,12.53,16.1,22.12,18.78,9.65,2.7,20-.65,27.6-6.51,4.31-3.33,7.71-7.64,9.64-12.6.38-.97-.58-1.72-1.46-1.83Z"/>
            <path class="cls-7" d="M31.57,48.42c-5.36.23-14.44-.47-17.24,5.36-2.16,4.51-5.14,23.45,1.63,28.42s33.08,3.49,40.07,3.49,31.68.93,37.27-2.33,5.59-12.35,5.12-20.5c-.47-8.15-2.1-13.28-8.15-13.98-6.06-.7-53.34-.7-58.7-.47Z"/>
            <path class="cls-8" d="M22.11,58.98c4.12.12,8.24.39,12.36.55,4.06.16,8.14.17,12.2.19,8.19.03,16.37.04,24.56.03,2.25,0,4.49,0,6.74,0,1.18,0,2.35,0,3.53,0,1.19,0,2.39.1,3.54-.21,1.18-.32,1.19-2.08,0-2.4-1.01-.27-2.02-.21-3.06-.21-1.02,0-2.03,0-3.05,0-2.09,0-4.17,0-6.26,0-4.07,0-8.13,0-12.2,0-8.19,0-16.37.06-24.56.23-4.6.1-9.2.46-13.8.6-.78.02-.78,1.18,0,1.21Z"/>
            <path class="cls-8" d="M21.36,65.2c4.27.12,8.53.39,12.8.55,4.26.16,8.54.18,12.8.19,8.43.02,16.85.04,25.28.03,2.35,0,4.69,0,7.04,0,1.17,0,2.35,0,3.52,0,1.28,0,2.6.11,3.85-.21,1.18-.31,1.19-2.09,0-2.4-1.06-.27-2.12-.21-3.21-.21-1.07,0-2.13,0-3.2,0-2.13,0-4.27,0-6.4,0-4.27,0-8.53,0-12.8,0-8.43,0-16.85.06-25.28.23-4.8.1-9.6.46-14.4.6-.78.02-.78,1.18,0,1.21Z"/>
            <path class="cls-8" d="M88.25,69.56c-1.07-.26-2.12-.21-3.21-.21-1.17,0-2.35,0-3.52,0-2.24,0-4.48,0-6.72,0-4.48,0-8.96,0-13.44,0-8.86,0-17.71.06-26.56.23-5.02.1-10.03.46-15.04.6-.78.02-.78,1.18,0,1.21,4.48.12,8.96.39,13.44.55,4.48.16,8.96.18,13.44.19,8.86.02,17.71.04,26.56.03,2.45,0,4.91,0,7.36,0,1.28,0,2.56,0,3.84,0,1.29,0,2.6.1,3.85-.21,1.18-.29,1.19-2.11,0-2.4Z"/>
          </g>
          <path class="cls-4" d="M57.13,135.94c1.39.12,2.81.13,4.2-.05s3-.34,4.13-1.22c.48-.37.05-1.12-.47-1.13-.7-.01-1.4.21-2.07.39-.62.16-1.25.29-1.88.39-1.3.21-2.6.3-3.91.25-.89-.03-.87,1.3,0,1.37h0Z"/>
          <path class="cls-4" d="M59.4,144.54c.63,0,1.26-.06,1.87-.19.28-.06.56-.13.84-.22.17-.06.34-.12.49-.22.14-.09.25-.18.35-.32.04-.05.07-.1.1-.15.19-.3.02-.77-.34-.85-.06-.01-.12-.03-.18-.04-.13-.03-.25-.03-.38,0h.08c-.12.01-.25,0-.37.04-.06.02-.11.04-.16.06-.27.09-.54.17-.81.23-.13.03-.26.06-.4.08-.07.01-.13.03-.2.03.2,0-.01,0-.06,0-.28.03-.56.05-.84.05-.39,0-.77.34-.75.75s.33.74.75.75h0Z"/>
          <path class="cls-4" d="M60.81,150.44l.73-.27c.17-.06.33-.14.49-.23.06-.03.11-.06.17-.09.09-.05.17-.13.24-.21.17-.17.22-.44.12-.66s-.3-.35-.55-.37c-.12,0-.21,0-.33.02-.06.01-.13.03-.19.04-.12.03-.24.05-.36.1l-.71.27c-.18.07-.33.16-.43.33-.09.15-.13.38-.07.56s.16.34.33.43.38.14.56.07h0Z"/>
          <path class="cls-4" d="M61.49,155.65c.85,0,.85-1.32,0-1.32s-.85,1.32,0,1.32h0Z"/>
        </g>
        <path class="cls-2" d="M226.6,199.55c-.25,10.2-.53,17.02-.77,17.53-.93,2.1-10.48,13.97-37.51,13.74-27.02-.23-34.71-12.35-35.87-14.68-1.16-2.33.23-120.89.93-125.09.69-4.19,16.77-15.84,19.1-16.54,2.33-.7,38.67.23,38.67.23,0,0,12.35,8.86,14.91,19.8.6,2.56.95,10.48,1.14,21.16.41,23.96-.05,61.79-.61,83.84Z"/>
        <path class="cls-6" d="M177.25,103.02c.98.61,2.05,1.08,3.15,1.41s2.72.58,3.79-.14c.64-.43.69-1.36,0-1.77-.56-.34-1.24-.47-1.88-.54-.36-.04.31.05-.04,0-.14-.02-.27-.05-.41-.07-.19-.03-.39-.06-.58-.08-.16-.02-.14-.02.06,0-.07-.01-.14-.02-.21-.03-.48-.08-.96-.19-1.43-.33-.23-.07-.46-.15-.69-.23-.13-.05-.26-.1-.39-.15.26.1-.15-.07-.19-.09-.56-.26-1.29-.18-1.61.42s-.14,1.26.42,1.61h0Z"/>
        <path class="cls-6" d="M190.84,105.08c5.8,1.18,11.97.53,17.67-.9,2.84-.71,5.6-1.68,8.29-2.84,1.38-.59,2.73-1.24,4.04-1.96s2.86-1.48,3.9-2.61c1.04-1.13.04-3.35-1.61-2.76-1.34.48-2.5,1.33-3.73,2.03s-2.37,1.29-3.59,1.86c-2.57,1.21-5.26,2.18-8,2.93-5.49,1.5-11.04,1.86-16.69,2.15-1.15.06-1.54,1.86-.29,2.12h0Z"/>
        <path class="cls-6" d="M226.6,199.55c-10.14,4.29-25.14,5.39-25.92,4.01-.93-1.64-1.87-80.13-1.87-80.13,0,0,7.45-.24,15.61-2.34,4.99-1.28,9.81-3.7,12.79-5.39.41,23.96-.05,61.79-.61,83.84Z"/>
        <path class="cls-4" d="M192.52,88.02c14.27-.5,24.69-7.92,24.69-7.92,0,0,1.16-42.63-.47-45.42-1.63-2.8-10.72-7.92-28.65-7.22-17.94.7-24.46,6.76-25.16,10.72s-.47,43.09-.47,43.09c0,0,10.02,7.45,30.05,6.76Z"/>
        <path class="cls-7" d="M163.94,40.67c8.26,3.64,17.38,5.5,26.42,5.31,4.51-.09,9.04-.76,13.4-1.89,2.19-.57,4.35-1.27,6.45-2.1,1.72-.68,4.94-1.46,5.5-3.46.18-.66-.23-1.25-.84-1.48-1.09-.4-2.15.22-3.13.68-.93.43-1.86.85-2.82,1.23-1.9.76-3.84,1.41-5.81,1.96-4.17,1.17-8.44,1.85-12.76,2.11-8.66.52-17.3-.87-25.27-4.34-1.33-.58-2.49,1.37-1.15,1.97h0Z"/>
        <g>
          <path class="cls-1" d="M186.13,72.71c-1.72-3.43-4.86-6.02-8.51-7.11.99-2.26.76-4.98-.89-6.97-1.47-1.78-3.64-2.59-5.81-2.47.32-4.19-.01-8.75-1.81-12.48-1.87-3.88-6.53-6.11-10.5-7.12-8.32-2.12-17.48.44-22.42,7.71-1.82,2.68-2.85,5.77-2.97,8.94-4.57-2.82-10.74-2.99-15.21.23-5.58,4.03-7.61,11.59-4.3,17.72,1.21,2.24,3.04,4.09,5.21,5.38-3.02,2.46-5.7,5.36-6.9,9.15-1.55,4.86-.06,10.26,2.96,14.22,3.17,4.15,7.92,6.69,12.89,8.06,5.63,1.55,11.7,1.85,17.35.26,4.85-1.36,8.87-4.25,11.72-8.3,7.05,3.68,16.17,1.11,22.12-3.6,6.88-5.44,11.27-15.26,7.08-23.62Z"/>
          <path class="cls-5" d="M187.09,72.71c-1.76-3.51-4.98-6.18-8.73-7.29,1.02-2.32.78-5.11-.91-7.15-1.51-1.83-3.73-2.66-5.96-2.54.33-4.3-.01-8.98-1.86-12.81-1.92-3.98-6.7-6.27-10.78-7.3-8.53-2.17-17.93.45-23.01,7.91-1.87,2.75-2.93,5.92-3.04,9.17-4.69-2.89-11.02-3.07-15.61.24-5.73,4.13-7.81,11.9-4.41,18.18,1.24,2.3,3.12,4.2,5.34,5.52-3.1,2.52-5.85,5.5-7.09,9.39-1.59,4.98-.06,10.53,3.04,14.6,3.25,4.26,8.13,6.86,13.22,8.27,5.78,1.59,12,1.89,17.8.26,4.98-1.4,9.11-4.36,12.03-8.52,7.23,3.78,16.59,1.14,22.7-3.69,7.06-5.58,11.57-15.66,7.27-24.24ZM184.51,83.85c-2.1,7.18-8.6,12.69-15.81,14.26-3.84.84-7.71.36-11.23-1.39-.77-.38-2.03-.29-2.43.64-3.94,9.24-15.7,10.3-24.24,8.48-4.37-.93-8.71-2.65-11.99-5.78-2.95-2.82-4.96-7.06-4.39-11.21.67-4.85,4.8-8.26,8.54-10.93,1.35-.97,1.26-3.12-.47-3.62-6.42-1.87-9.38-9.38-5.85-15.07,3.56-5.73,11.57-6.17,16.04-1.27,1.81,1.98,4.78-.99,2.95-2.95-.14-.15-.29-.28-.43-.42-.37-6.51,3.99-13.16,10.13-15.34,3.55-1.27,7.45-1.41,11.11-.51,3.21.79,7.4,2.35,9.28,5.26,1.16,1.81,1.47,4.35,1.71,6.45.29,2.5.36,5.12.17,7.64-.1,1.42,1.62,2.23,2.75,1.58,1.43-.82,3.47-.65,4.6.63,1.21,1.37,1.06,3.71-.08,5.07-.86,1.02-.28,2.48,1.06,2.57,3.45.23,6.13,2.83,7.73,5.73,1.75,3.17,1.86,6.78.86,10.2Z"/>
        </g>
        <path class="cls-5" d="M163.6,94.08c.98.67,2.25.95,3.43.8.7-.09,1.35-.25,1.95-.63.35-.22.64-.46.89-.79.16-.22.3-.45.42-.7.2-.42.15-.9-.24-1.2s-.85-.22-1.22.07c.09-.07.08-.06,0,0-.05.03-.1.07-.15.1-.09.06-.18.11-.28.16-.21.1-.39.24-.59.35-.06.03-.3.11-.33.16l.15-.06c-.11.04-.21.08-.31.13-.05.02-.12.05-.16.08.04-.03.22-.09.07-.03-.06.02-.11.04-.17.06-.12.04-.23.07-.35.1-.11.03-.21.05-.32.07-.04,0-.25.04-.07.01s-.05,0-.08,0c-.23.02-.46.02-.69,0-.1,0-.17-.07.02,0-.04-.02-.1-.02-.14-.02-.12-.02-.24-.05-.35-.08s-.23-.08-.34-.11c.07.02.13.06.03.01-.07-.03-.13-.06-.2-.1-.43-.22-1.03-.13-1.27.33s-.1.98.33,1.27h0Z"/>
        <path class="cls-5" d="M175.92,89.12l.4-.48.2-.23s.02-.02.03-.03l.18-.23v-.02s.03-.05.04-.07l.06-.15.1-.25c.04-.14.05-.28.02-.41,0-.09-.02-.18-.07-.26-.04-.13-.11-.24-.22-.33l-.21-.16-.25-.1c-.14-.04-.28-.05-.41-.02-.14,0-.27.05-.39.12l-.14.06s-.05.02-.07.03c-.06.02-.07.04-.14.1-.05.04-.1.07-.14.11l-.24.2-.48.4c-.12.11-.2.24-.25.39-.08.15-.11.3-.11.47,0,.17.03.33.11.47.05.15.13.28.25.39l.25.19c.19.11.4.17.62.17l.33-.04c.21-.06.39-.16.54-.31h0Z"/>
        <path class="cls-5" d="M119.84,88.88c.23,0,.45-.04.65-.14.21-.07.39-.18.54-.35.16-.15.28-.33.35-.54.11-.2.15-.42.14-.65l-.06-.45c-.08-.28-.22-.53-.43-.74l-.34-.26c-.26-.15-.54-.23-.85-.23-.23,0-.45.04-.65.14-.21.07-.39.18-.54.35-.16.15-.28.33-.35.54-.11.2-.15.42-.14.65l.06.45c.08.28.22.53.43.74l.34.26c.26.15.54.23.85.23h0Z"/>
        <path class="cls-5" d="M125.43,83.19c1.8,0,1.8-2.79,0-2.79s-1.8,2.79,0,2.79h0Z"/>
        <path class="cls-5" d="M145.71,43.36c-.87.17-1.73.69-2.31,1.36-.38.44-.67.88-.84,1.44-.05.19-.11.4-.1.59.01.18.04.35.07.53.02.08.03.17.06.25.06.2.16.39.3.54.08.08.18.14.27.21.29.22.75.17,1.05,0,.23-.13.4-.33.53-.55.05-.09.12-.18.18-.27l-.21.27c.15-.19.23-.29.32-.49.04-.09.07-.18.11-.27l-.14.32c.15-.35.33-.7.56-1l-.21.27c.17-.22.37-.42.59-.59l-.27.21c.2-.15.42-.28.65-.38l-.31.13c.11-.05.22-.09.34-.12.31-.09.59-.3.75-.58s.23-.67.13-.97-.29-.6-.58-.75c-.31-.17-.62-.19-.97-.13h0Z"/>
        <path class="cls-5" d="M141.86,53.85c1.59,0,1.59-2.47,0-2.47s-1.59,2.47,0,2.47h0Z"/>
        <path class="cls-1" d="M43.46,217.44c-.03.16-.06.33-.07.5,0,.02,0,.03,0,.05l.06.45s0,0,0,.01c0,0,0,.01,0,.02,0,.02,0,.03.02.05s.12.31.19.45c0,.01.02.03.03.04.09.13.19.26.3.38.01.01.02.02.03.03.13.12.27.23.42.33.01,0,.03.02.04.02,0,0,.02,0,.03.01.14.06.29.13.43.18.03.01.06.02.09.03.17.03.34.06.51.07.02,0,.03,0,.05,0,.31,0,.61-.08.88-.24l.35-.27c.22-.22.36-.47.45-.77.07-.23.08-.46.03-.69-.01-.23-.08-.45-.21-.65-.11-.2-.26-.37-.45-.49-.17-.15-.37-.26-.59-.31-.31-.08-.62-.08-.93,0,0,0,0,0-.01,0l.46-.06s-.07,0-.11,0l.46.06s-.08-.02-.12-.03l.41.17s-.08-.04-.11-.06l.35.27s-.06-.05-.08-.08l.27.35s-.04-.05-.05-.08l.17.41s-.02-.05-.02-.08l.06.45s0-.04,0-.07c0-.23-.04-.45-.15-.66-.07-.21-.19-.39-.35-.55l-.34-.27c-.2-.12-.41-.19-.63-.2-.15-.04-.3-.04-.45,0-.23.01-.44.08-.63.2l-.34.27c-.21.21-.36.46-.44.75h0Z"/>
        <path class="cls-1" d="M44.37,213.65c2.19,0,2.2-3.41,0-3.41s-2.2,3.41,0,3.41h0Z"/>
        <path class="cls-1" d="M96.43,198.8c.16-.02.33-.03.49-.05l.49-.07c.16-.05.31-.11.45-.19.02,0,.03-.02.05-.03l.09-.05.19-.1c.49-.28.8-.83.8-1.39s-.31-1.11-.8-1.39l-.19-.1-.09-.05s-.03-.02-.05-.03c-.37-.2-.52-.21-.94-.25-.16-.02-.33-.03-.49-.05-.26,0-.5.04-.72.16-.23.08-.43.2-.6.39-.18.17-.31.37-.39.6-.12.22-.17.46-.16.72l.07.5c.09.32.25.59.48.83l.38.29c.29.17.61.25.95.26h0Z"/>
        <path class="cls-1" d="M96.3,209.52l.18.08c.09.04.18.08.27.12.23.1.12.06.19.08l.41.05.41-.05s0,0,.01,0h.02s.03-.02.05-.02l.16-.07c.17-.06.32-.15.44-.28l.11-.14c.09-.09.14-.19.18-.3.03-.07.05-.11.07-.17v-.03s.02-.03.02-.05c.09-.31.06-.36.03-.61s-.01-.14-.03-.21c-.02-.1-.11-.26-.16-.38l-.02-.05-.09-.21c-.15-.25-.34-.44-.59-.59-.26-.15-.53-.22-.83-.22l-.44.06c-.28.08-.52.22-.72.42-.16.15-.27.32-.34.53-.1.2-.15.41-.14.63,0,.3.08.57.22.83.15.25.34.44.59.59h0Z"/>
        <path class="cls-1" d="M159.74,113c-1.19,5.31-1.41,10.87-1.45,16.31-.02,2.73.02,5.47.12,8.2.09,2.48-.22,6.1,1.72,7.95.93.88,2.18.58,2.89-.37.86-1.17.81-2.61.74-4s-.16-2.73-.25-4.09c-.16-2.56-.27-5.12-.32-7.69-.11-5.29.08-10.6-.28-15.88-.12-1.71-2.74-2.29-3.15-.43h0Z"/>
        <path class="cls-1" d="M159.91,152.55c0,.16-.02.32-.01.48s.03.31.04.46c.02.22.03.47.08.67.06.21.15.4.26.59.03.06.07.12.1.18.08.13.15.25.28.37.1.1.24.19.36.27.23.13.48.2.75.2.27,0,.52-.07.75-.2.12-.09.26-.18.36-.27.12-.12.2-.23.28-.37.03-.06.07-.12.1-.18.11-.19.22-.38.26-.59s.06-.45.08-.67c.01-.15.03-.31.04-.46s0-.32-.01-.48c0-.26-.04-.5-.16-.72-.08-.23-.2-.43-.39-.6-.17-.18-.37-.31-.6-.39-.22-.12-.46-.17-.72-.16l-.5.07c-.32.09-.59.25-.82.48l-.29.38c-.17.29-.25.6-.25.94h0Z"/>
        <path class="cls-4" d="M217.86,196.53c.54-.09,1.08-.19,1.62-.28.27-.05.54-.09.81-.14.3-.05.6-.11.86-.28.2-.13.31-.34.28-.58-.03-.22-.19-.43-.42-.48-.34-.08-.68-.03-1.02.03-.28.05-.56.1-.84.15-.55.1-1.1.19-1.65.29-.34.06-.57.5-.47.82.12.37.45.53.82.47h0Z"/>
        <path class="cls-4" d="M216.77,189.31c.83.14,1.62.03,2.4-.31.33-.15.67-.38.92-.64.14-.15.27-.32.39-.49s.19-.38.26-.57c.09-.26-.06-.61-.3-.74-.26-.14-.58-.11-.79.1-.1.1-.22.19-.32.29-.05.05-.1.09-.16.14-.1.09.11-.08.03-.02-.02.02-.05.04-.07.05-.24.17-.48.32-.75.45-.03.01-.06.03-.08.04-.09.04.18-.07.05-.02-.06.02-.13.05-.2.07-.14.04-.28.07-.42.1-.11.02.06,0,.08,0-.03.01-.08,0-.11.01-.07,0-.14,0-.21.01-.08,0-.15,0-.23,0-.07,0-.33-.04-.06,0-.22-.03-.42-.04-.62.08-.17.1-.33.29-.37.48-.09.39.12.91.56.99h0Z"/>
        <path class="cls-4" d="M218.57,183.98c.35-.14.7-.27,1.03-.42l.43-.19c.15-.07.28-.16.41-.25.27-.17.39-.5.26-.8s-.44-.44-.76-.37c-.16.03-.32.05-.47.11l-.43.15c-.3.1-.58.23-.87.35-.19.08-.34.16-.44.34-.09.16-.13.39-.07.57s.17.35.34.44.39.15.57.07h0Z"/>
        <path class="cls-4" d="M220.91,115.21l1.22-.58c.43-.21.9-.44,1.23-.79.18-.19.24-.46.13-.7-.09-.22-.33-.41-.59-.4-.16.01-.32.03-.47.07-.11.03-.22.07-.33.12-.25.11-.51.21-.75.32l-1.24.6c-.17.08-.31.29-.36.47-.05.19-.03.44.08.6s.27.31.47.36c.22.05.4.02.6-.08h0Z"/>
        <path class="cls-4" d="M220.47,110.68c.98,0,.98-1.52,0-1.52s-.98,1.52,0,1.52h0Z"/>
      </g>
    </g>
  </g>
</svg>