<?xml version="1.0" encoding="UTF-8"?>
<svg id="Capa_2" xmlns="http://www.w3.org/2000/svg" viewBox="0 0 243.3 243.3">
  <defs>
    <style>
      .cls-1 {
        fill: #fff;
      }

      .cls-2 {
        fill: none;
      }

      .cls-3 {
        fill: #e09d3e;
      }

      .cls-4 {
        fill: #fad380;
      }

      .cls-5 {
        fill: #4f3535;
      }
    </style>
  </defs>
  <g id="grocery_icons">
    <g>
      <rect class="cls-2" width="243.3" height="243.3"/>
      <g>
        <g>
          <path class="cls-4" d="M197.26,46.42c-9.84-11.74-54.26-6.98-59.02-2.54-4.76,4.44-11.11,16.5-15.23,18.09s-38.08,32.37-39.67,34.91c-1.59,2.54-6.03,9.84-9.84,11.74-3.81,1.9-27.92,30.46-27.92,32.68s-3.81,18.72-3.81,18.72l15.23,7.93s27.29,10.79,45.7,13.96c18.41,3.17,38.71-20.63,47.6-26.34,8.89-5.71,58.71-73.3,58.71-73.3,0,0-1.9-24.12-11.74-35.86Z"/>
          <path class="cls-3" d="M136.07,45.94s18.17-23.24,40.99-33.8c22.82-10.56,43.95-2.11,52.82,14.37,8.87,16.48,3.8,64.23-28.73,105.22-32.54,40.99-76.9,77.75-106.48,92.12-29.58,14.37-70.14,17.32-79.86,2.54-9.72-14.79,0-45.64,9.72-58.31,9.72-12.68,26.62-20.71,43.52-19.86,16.9.85,49.02,10.56,49.02,10.56,0,0,1.69-15.63-19.44-18.17-21.13-2.54-53.24,6.34-53.24,6.34,0,0-.85-11.41,7.61-24.09,8.45-12.68,17.66-19.6,42.89-22.18,26.83-2.75,40.14,2.32,51.76,9.51,10.45,6.46,15.63,12.68,15.63,12.68,0,0-3.56-22.58-19.01-29.58-11.2-5.07-25.21-5.8-40.14-2.11-16.27,4.01-22.61,9.72-22.61,9.72,0,0,9.93-20.28,24.72-31.69,14.79-11.41,34.22-16.35,54.51-15.21,26.41,1.48,41.83,21.55,41.83,21.55,0,0-2.54-17.82-17.75-25.35-24.72-12.25-47.75-4.23-47.75-4.23Z"/>
          <g>
            <path class="cls-5" d="M55.35,209.29c8.41.1,16.77-1.56,24.7-4.28,3.91-1.34,7.75-2.93,11.5-4.67,3.84-1.78,8.05-3.5,11.16-6.43.96-.9-.04-2.52-1.27-2.18-3.87,1.07-7.3,3.42-10.88,5.21-3.7,1.85-7.46,3.57-11.35,5.01-7.67,2.84-15.65,4.63-23.86,4.55-1.79-.02-1.79,2.76,0,2.78h0Z"/>
            <path class="cls-5" d="M120.3,182.95c1.37-.98,2.73-1.97,4.1-2.95.75-.54,1.51-1.07,2.22-1.65.78-.64,1.8-1.36,1.84-2.46.02-.57-.43-1.14-.98-1.28-1.03-.27-2.03.5-2.84,1.05-.78.53-1.52,1.14-2.27,1.72-1.33,1.03-2.66,2.06-4,3.09-.62.48-.55,1.52-.12,2.08s1.4.87,2.04.41h0Z"/>
            <path class="cls-5" d="M176.25,135.25c2.95-2.39,5.89-4.77,8.66-7.37,1.36-1.28,2.7-2.57,4.01-3.91.65-.67,1.31-1.33,1.89-2.06.61-.77,1.31-1.5,1.6-2.46.3-.94-.77-1.55-1.54-1.19-.84.39-1.47,1.16-2.13,1.78-.68.64-1.3,1.34-1.94,2.01-1.29,1.34-2.62,2.66-3.97,3.94-2.7,2.58-5.38,5.17-8.06,7.76-.99.96.46,2.32,1.48,1.48h0Z"/>
            <path class="cls-5" d="M200.32,110.92l.21-.57c.03-.09.08-.19.11-.29.02-.09.04-.19.05-.28.08-.39.15-.78.23-1.18.06-.29.05-.61-.11-.87-.13-.21-.31-.36-.54-.46s-.49-.13-.73-.06l-.27.11c-.17.1-.3.23-.4.4-.24.32-.49.64-.73.96-.06.08-.12.15-.17.23-.05.08-.1.18-.14.27l-.28.54c-.2.38-.25.76-.15,1.18.07.26.2.48.39.67.14.15.3.25.49.32.18.1.38.14.59.13.21,0,.41-.04.59-.13.19-.06.35-.17.49-.32.19-.19.32-.41.39-.67h0Z"/>
            <path class="cls-5" d="M37.36,157.59c19.06-10.11,41.82-7.28,61.8-1.75,3.02.84,6.03,1.71,9.03,2.63,3.07.94,6.14,2.15,9.28,2.85,2.74.61,3.59-3.06,1.13-4.09-2.68-1.12-5.6-1.83-8.38-2.66-2.81-.84-5.63-1.66-8.47-2.39-5.56-1.42-11.17-2.65-16.86-3.41-10.62-1.42-21.45-1.63-31.95.73-5.7,1.28-11.45,3.58-16.55,6.41-1.1.61-.12,2.27.98,1.68h0Z"/>
            <path class="cls-5" d="M73.96,107.48c11.69-4.22,24.4-6.26,36.82-5.47,11.63.74,23.18,4.27,33.39,9.88,2.77,1.52,5.45,3.2,8.02,5.03,2.71,1.93,5.21,4.07,8.03,5.85,1.81,1.14,3.21-1.28,2.1-2.72-3.64-4.71-9.18-8.15-14.29-11.11-5.24-3.03-10.84-5.53-16.62-7.36-11.98-3.78-24.96-4.59-37.35-2.65-7.32,1.15-14.21,3.48-20.83,6.79-.96.48-.29,2.13.74,1.76h0Z"/>
            <path class="cls-5" d="M119.6,60.45c11.53-3.8,24-5.61,36.07-3.96,10.98,1.5,21.7,5.15,31.21,10.86,2.6,1.56,5.12,3.26,7.52,5.13,1.24.96,2.44,1.97,3.62,3.01,1.24,1.1,2.17,2.03,3.89,2.16.79.06,1.72-.79,1.61-1.61-.37-2.87-3.42-4.71-5.54-6.4-2.2-1.75-4.47-3.4-6.83-4.92-4.86-3.13-10.05-5.71-15.47-7.72-11.58-4.3-24.25-5.43-36.49-4.01-7.1.83-13.85,2.65-20.4,5.51-1.1.48-.32,2.32.82,1.95h0Z"/>
            <path class="cls-5" d="M150.31,44.44c.2,1.38.46,2.74.78,4.09.31,1.32.59,2.83,1.37,3.98.37.54,1.36.39,1.32-.36-.07-1.39-.62-2.75-.95-4.1s-.6-2.71-.81-4.09c-.07-.47-.67-.74-1.09-.62-.51.14-.69.62-.62,1.09h0Z"/>
            <path class="cls-5" d="M162.59,46.07c.36,1.19.72,2.38,1.08,3.57.37,1.22.66,2.51,1.43,3.55.46.62,1.49.45,1.51-.41.03-1.3-.46-2.5-.86-3.71l-1.19-3.54c-.18-.52-.7-.87-1.26-.71-.52.14-.87.73-.71,1.26h0Z"/>
            <path class="cls-5" d="M115.65,91.24c.25.52.39.86.59,1.42.18.52.32,1.04.48,1.56s.29,1.06.43,1.58c.06.2.1.41.2.6.09.17.01-.06.06.15.07.29.17.57.28.85.12.34.41.6.79.6.34,0,.72-.25.79-.6s.13-.67.13-1.01c0-.07,0-.15,0-.22-.02.1-.02.09,0-.04.03-.24.03-.4,0-.63-.07-.66-.21-1.28-.4-1.91-.36-1.18-1.01-2.31-1.72-3.32-.29-.42-.84-.62-1.31-.34s-.57.84-.34,1.31h0Z"/>
            <path class="cls-5" d="M127.32,91.77c.23,1.2.51,2.38.87,3.55.17.56.36,1.12.56,1.67.12.33.26.65.42.97.17.35.39.62.67.89.56.55,1.58.16,1.57-.65,0-.35-.02-.66-.12-1-.09-.28-.17-.56-.28-.83-.22-.57-.42-1.14-.6-1.72-.36-1.14-.66-2.3-.9-3.47-.12-.58-.84-.97-1.39-.79-.62.2-.91.77-.79,1.39h0Z"/>
            <path class="cls-5" d="M145.27,97.82c.15,1.42.36,2.84.64,4.24s.56,2.79,1.22,4.06c.33.63,1.45.37,1.38-.37-.12-1.37-.52-2.68-.8-4.02s-.49-2.59-.64-3.91c-.06-.48-.37-.9-.9-.9-.45,0-.95.41-.9.9h0Z"/>
            <path class="cls-5" d="M74.29,141.61c.3.95.66,1.87,1.08,2.77.19.41.38.85.63,1.23.17.24.36.47.55.7.18.22.4.37.64.51.54.31,1.41-.08,1.34-.77,0-.1-.02-.19-.03-.29-.03-.27-.1-.44-.21-.69-.05-.11-.05-.11,0,.03-.02-.05-.04-.1-.06-.16-.07-.17-.13-.35-.21-.51-.19-.39-.41-.76-.6-1.15-.1-.21-.2-.42-.29-.63-.04-.08-.07-.16-.1-.24-.05-.12-.05-.11.02.04-.02-.05-.04-.11-.07-.16-.17-.43-.33-.86-.48-1.3-.19-.57-.8-1-1.41-.8-.57.19-.99.8-.8,1.41h0Z"/>
            <path class="cls-5" d="M96.57,141.9c.34,1.26.75,2.5,1.24,3.7.26.64.54,1.28.84,1.9s.6,1.35,1.13,1.77c.31.24.65.36,1.03.2.31-.14.62-.49.58-.86-.08-.73-.46-1.38-.78-2.03-.26-.52-.54-1.15-.73-1.61-.48-1.19-.9-2.4-1.23-3.64-.15-.56-.77-.91-1.32-.75s-.9.76-.75,1.32h0Z"/>
          </g>
        </g>
        <path class="cls-1" d="M24.04,210.52c.05-.3.11-.6.16-.9s.1-.57.11-.86l.02-.45-.06-.43c-.05-.21-.14-.39-.29-.54-.07-.12-.17-.22-.29-.29-.15-.14-.34-.24-.54-.29l-.43-.06-.43.06c-.21.05-.39.14-.54.29-.17.11-.31.26-.41.45l-.24.36c-.08.13-.15.25-.22.39l-.38.79c-.17.3-.26.62-.26.97l.07.51c.09.33.26.61.5.85.17.19.38.32.62.4.23.12.48.18.74.17.27.01.51-.05.74-.17.24-.08.45-.21.62-.4.24-.24.4-.52.5-.85h0Z"/>
        <path class="cls-1" d="M32.47,213.97c.03-.48.08-.96.08-1.44,0-.24,0-.48,0-.72,0-.36-.1-.76-.15-1.13l-.18-.42-.27-.35-.35-.27c-.2-.13-.42-.2-.65-.21-.15-.04-.31-.04-.46,0-.16,0-.3.04-.44.12-.15.04-.28.12-.39.22-.19.12-.34.29-.45.49l-.19.32c-.14.23-.22.43-.33.7-.09.23-.19.45-.28.68-.19.45-.33.92-.49,1.38-.2.59-.05,1.25.23,1.78.21.35.48.62.83.83.27.17.55.26.86.27.31.07.61.06.92-.04.3-.07.56-.21.79-.41.25-.16.45-.38.6-.65.21-.36.31-.75.32-1.17h0Z"/>
        <path class="cls-1" d="M183.7,23.02c.32-.74.73-1.43,1.22-2.07l-.37.48c.39-.5.8-.98,1.25-1.43.22-.22.48-.42.69-.64s.37-.49.55-.74c.04-.05.08-.11.12-.16.25-.36.29-.71.33-1.14l-.07-.54c-.06-.26-.18-.49-.36-.68-.28-.36-.61-.57-1.05-.72-.54-.19-1.15-.04-1.68.13-.29.09-.58.21-.83.39s-.49.37-.73.56c-.42.33-.83.69-1.16,1.11-.44.56-.87,1.13-1.22,1.75-.35.62-.63,1.28-.88,1.94-.19.51-.06,1.32.23,1.77s.63.74,1.1.94,1.01.27,1.5.12c.53-.17,1.14-.52,1.37-1.06h0Z"/>
        <path class="cls-1" d="M164.17,79.79l.41-.45c.24-.26.44-.55.64-.84.16-.28.25-.59.25-.92,0-.33-.08-.64-.25-.92-.16-.27-.38-.49-.65-.65-.28-.16-.59-.25-.92-.25h-.28c-.1-.01-.19,0-.28,0l-.56.06c-.42,0-.81.11-1.17.32-.35.21-.63.49-.83.83-.21.36-.32.75-.32,1.17-.01.32.05.62.2.9.09.29.25.54.48.75.29.29.63.49,1.03.6.41.11.82.11,1.24,0,.39-.11.74-.31,1.03-.6h0Z"/>
        <path class="cls-1" d="M172.13,92.77c2.8,0,2.81-4.36,0-4.36s-2.81,4.36,0,4.36h0Z"/>
      </g>
    </g>
  </g>
</svg>