<?xml version="1.0" encoding="UTF-8"?>
<svg id="Capa_2" xmlns="http://www.w3.org/2000/svg" viewBox="0 0 243.3 243.3">
  <defs>
    <style>
      .cls-1 {
        fill: #fff;
      }

      .cls-2 {
        fill: none;
      }

      .cls-3 {
        fill: #e09d3e;
      }

      .cls-4 {
        fill: #4f3535;
      }
    </style>
  </defs>
  <g id="grocery_icons">
    <g>
      <rect class="cls-2" width="243.3" height="243.3"/>
      <g>
        <path class="cls-3" d="M158.71,128.13c-2.76,3.01-7.98,5.43-13.74,7.33-7.15,2.36-15.17,3.9-20.31,4.75,5.24,24.97,9.62,47.1,8.81,47.79-1.89,1.61-12.89,8.06-42.16,9.4-29.27,1.34-50.49-4.02-66.33-11.55-15.84-7.52-19.72-18.26-18.79-31.68.7-10.11,7.17-15.58,11.61-18.19,2.4-1.4,4.23-1.96,4.23-1.96,0,0-.06-.06-.16-.18,0,0-.01,0-.01-.01-.75-.88-3.89-4.64-6.01-8.4-2.42-4.29-5.11-8.59-2.69-24.7,2.42-16.11,14.5-24.98,41.63-29.81,27.12-4.83,54.51-1.61,54.51-1.61,0,0,50.75,5.1,55.32,29.53.31,1.69.6,3.6.79,5.67.63,7.32-.19,16.48-6.69,23.61Z"/>
        <path class="cls-4" d="M158.71,128.13c-2.76,3.01-7.98,5.43-13.74,7.33-1.82-2.88-2.72-6.43-2.56-9.86.24-5.64,2.92-10.94,6.43-15.37,1.84-2.33,4.04-4.56,6.85-5.53,2.51-.87,6.26-.94,9.72-.18.63,7.32-.19,16.48-6.69,23.61Z"/>
        <path class="cls-3" d="M238.2,121.42c-4.83-18.94-18.54-33.84-18.54-33.84,0,0-26.17-26.98-51.55-32.23-18.25-3.76-36.3-4.4-51.73,5.28-6.03,3.77-11.66,9.12-16.75,16.47-18.13,26.19-16.11,66.06-3.23,85.8,12.89,19.75,33.84,33.44,59.21,40.29,25.38,6.84,39.48,8.05,58.41-8.06,7.58-6.44,13.73-16.51,18.07-27.48,6.54-16.42,9-34.87,6.1-46.23ZM150.11,117.79c2.15-5.51,9.15-7.24,20.81-4.3,13.82,3.49,19.2,15.71,20.54,19.33,1.34,3.63,1.47,10.74-4.02,12.89-5.51,2.15-9.67-4.57-15.31-7.65-5.64-3.09-12.89-3.09-18.53-4.7-5.64-1.61-5.64-10.07-3.49-15.58Z"/>
        <path class="cls-4" d="M193.23,135.46c-.63-4.57-3.01-8.88-5.85-12.45-2.87-3.62-6.87-6.56-10.97-8.66-5.8-2.96-14.15-5.37-20.72-3.37-4.51,1.37-7.77,4.93-8.52,9.61-.68,4.25-.61,9.61,3.16,12.45,3.57,2.69,8.3,1.63,12.41,2.45,2.34.46,4.52,1.33,6.6,2.49,2.21,1.24,3.99,2.78,5.85,4.49,3.39,3.13,8.14,5.91,12.81,3.8,4.1-1.86,5.81-6.57,5.23-10.8ZM188.31,141.19c-2.78,3.64-7.3,1.26-10.13-.96-3.17-2.48-5.86-5.31-9.6-6.96-3.52-1.56-7.12-2.09-10.92-2.41-1.43-.12-2.97-.28-4.29-.9-1.63-.76-2.18-2.38-2.33-4.06-.4-4.25.51-8.45,4.57-10.49,5.54-2.77,12.03-1.04,17.45,1.14,3.21,1.29,6.13,3.14,8.61,5.54,4.38,4.23,11.37,12.91,6.64,19.1Z"/>
        <path class="cls-4" d="M87.24,148.7s-19.24,4.23-40.48-.91c-17.26-4.17-25.86-9.51-28.97-11.81,2.4-1.4,4.23-1.96,4.23-1.96,0,0-.06-.06-.16-.18,4.63,2.79,14.54,7.88,28.92,10.73,22.36,4.42,36.23-.07,36.23-.07l.23,4.19Z"/>
        <path class="cls-4" d="M187.79,206.56c-7.3-1.33-14.68-1.89-21.97-3.27-7.28-1.38-14.54-3.2-21.55-5.63-12.53-4.34-24.38-10.93-34.2-19.9-9.43-8.61-16.92-19.32-20.87-31.52-4.64-14.35-4.88-29.41-1.3-44.02,1.73-7.04,4.24-13.55,8.04-19.74,1.9-3.09,3.93-6.11,6.27-8.88,2.11-2.49,6.02-6.82,8.56-8.84,1.38-1.09-3.49.27-7.32,3.29-2.6,2.06-6.88,7.67-8.76,10.4-.76,1.1-1.48,2.23-2.18,3.38-3.08-1.02-6.57-1.21-9.64-1.26-6.32-.1-12.86.5-18.77,2.89-2.39.97-5.89,2.24-6.76,4.96-1,3.13,2.2,4.65,4.64,5.35,3.14.9,6.48,1.04,9.72,1.14,3.55.11,7.12.25,10.67.01,1.42-.1,2.85-.24,4.28-.45-.08.24-.16.47-.24.7-4.61,14.63-6.4,30.79-3.28,45.9,5.71,27.71,28.14,48.49,53.49,58.95,7.96,3.28,16.27,5.68,24.74,7.18,8.53,1.52,17.41,2.76,26.07,2.03,1.42-.12,1.99-2.39.36-2.69Z"/>
        <path class="cls-4" d="M106.54,112.13c-1.11,4.32-2.17,8.5-2.23,12.99-.06,4.22.39,8.51,1.56,12.58.98,3.41,2.46,6.73,4.42,9.68,1.94,2.92,4.48,6.08,7.66,7.68,1.18.59,2.47-.89,1.45-1.88-2.39-2.34-4.85-4.37-6.72-7.19-1.89-2.84-3.28-5.97-4.21-9.25-1.07-3.78-1.5-7.7-1.47-11.62.03-4.18.16-8.51.86-12.63.15-.86-1.1-1.24-1.33-.37h0Z"/>
        <path class="cls-4" d="M124.01,161.49l1.9,1.84c.31.3.61.6.92.89.23.22.49.47.75.64.25.16.58.25.86.35.19.07.49.05.68,0,.27-.07.5-.24.67-.46.33-.43.33-.95.1-1.43-.11-.24-.22-.46-.38-.67s-.36-.39-.56-.57c-.33-.29-.67-.58-1-.87-.66-.57-1.31-1.14-1.97-1.71-.28-.25-.6-.41-.99-.41-.34,0-.75.15-.99.41-.51.55-.56,1.43,0,1.98h0Z"/>
        <path class="cls-4" d="M187.75,167.58c1.01,1.73,1.85,3.54,2.49,5.44.32.95.59,1.92.82,2.89.23,1.01.35,2.05.72,3.02.48,1.25,2.18,1.03,2.3-.31.11-1.14-.19-2.3-.46-3.41-.25-1.01-.55-2-.9-2.98-.74-2.06-1.67-4.04-2.81-5.91-.84-1.38-2.99-.13-2.17,1.27h0Z"/>
        <path class="cls-4" d="M208.83,143.63c2.88,1,5.7,2.19,8.19,3.97,2.2,1.57,3.89,3.65,5.41,5.86.79,1.15,2.7.47,2.32-.98-.82-3.15-3.27-5.57-5.89-7.34-2.82-1.91-6.08-3.1-9.32-4.07-1.65-.49-2.3,2-.71,2.56h0Z"/>
        <path class="cls-4" d="M162.88,96.83c.2-1.43.33-2.85.31-4.3-.01-.76-.08-1.5-.19-2.25-.05-.34-.1-.68-.16-1.02-.07-.41-.25-.78-.43-1.16-.25-.51-1-.8-1.53-.62-.6.19-.94.69-.99,1.31-.01.17-.04.34-.04.51,0,.16.01.32.05.47-.02-.15-.02-.14,0,.04.03.29.06.59.09.88.05.64.1,1.28.13,1.92.07,1.28.03,2.56-.1,3.84-.07.72.61,1.34,1.26,1.43s1.49-.33,1.6-1.04h0Z"/>
        <path class="cls-4" d="M14.83,116.41c6.9,4.55,14.34,8.26,22.12,11.05,3.88,1.39,7.85,2.55,11.87,3.47,2.05.47,4.12.87,6.19,1.21,2.03.33,4.08.74,6.14.52,1.34-.15,1.75-2,.33-2.44-1.92-.59-3.91-.67-5.88-.95-2.02-.28-4.04-.62-6.04-1.03-3.96-.81-7.86-1.85-11.69-3.12-7.74-2.58-15.11-6.13-21.99-10.51-1.14-.73-2.17,1.07-1.05,1.8h0Z"/>
        <path class="cls-4" d="M70.42,132.6c1-.04,2-.11,3-.23.58-.07,1.16-.15,1.74-.24.67-.1,1.22-.35,1.7-.84.28-.29.39-.69.29-1.08-.11-.41-.41-.62-.78-.78-.63-.26-1.21-.21-1.86-.08-.48.09-.97.18-1.46.25-.13.02-.25.04-.38.06-.09.01-.4.09-.06,0-.23.06-.48.06-.71.09-.49.05-.98.1-1.48.14-.71.05-1.39.59-1.35,1.35.03.71.6,1.38,1.35,1.35h0Z"/>
        <path class="cls-4" d="M13.55,166.56c6.57,4.51,13.83,7.91,21.37,10.44,3.76,1.26,7.59,2.29,11.48,3.09,1.9.39,3.81.72,5.73,1,1.89.27,4.03.8,5.91.32.84-.22,1.13-1.59.26-1.98-1.67-.76-3.64-.74-5.43-.99-1.92-.27-3.83-.6-5.73-.98-3.8-.77-7.55-1.76-11.24-2.97-7.44-2.44-14.51-5.82-21.3-9.7-1.16-.66-2.12,1.04-1.04,1.78h0Z"/>
        <path class="cls-4" d="M83.53,182.44c3.22.39,6.47.45,9.69.13,1.6-.16,3.19-.37,4.77-.67,1.53-.29,3.23-.55,4.59-1.34.87-.5.54-2.05-.53-1.97-1.59.11-3.13.71-4.68,1.04-1.48.32-2.98.56-4.49.69-3.11.28-6.24.21-9.35-.17-1.46-.18-1.44,2.11,0,2.28h0Z"/>
        <path class="cls-1" d="M215.62,104.57c1.58,1.74,2.91,3.7,3.96,5.81.55,1.11.93,1.9,1.33,3.03.41,1.18.65,2.84,1.62,3.7.63.56,1.93.64,2.33-.3.61-1.43.09-2.98-.43-4.37-.48-1.29-1.03-2.58-1.72-3.77-1.34-2.3-3.04-4.39-5.03-6.15-1.4-1.24-3.32.67-2.06,2.06h0Z"/>
        <path class="cls-1" d="M224.16,121.72l.06.89c.01.14.02.28.03.42.01.17.02.38.07.54.04.15.13.32.2.46.03.06.06.13.09.19l-.16-.39c.05.13.07.26.1.39.06.23.18.45.29.66.48.89,1.88.89,2.36,0,.11-.21.23-.42.29-.66.03-.13.06-.27.1-.39l-.16.39c.03-.06.06-.12.08-.17.04-.09.08-.17.12-.27.11-.21.16-.44.15-.68v-.05c.01-.15.02-.3.04-.44l.06-.89c0-.26-.04-.5-.16-.72-.08-.23-.2-.43-.39-.6-.17-.18-.37-.31-.6-.39-.22-.12-.46-.17-.72-.16-.48.02-.98.18-1.32.55s-.58.83-.55,1.32h0Z"/>
        <path class="cls-1" d="M28.43,86.64c-.87.37-1.64.83-2.36,1.45s-1.3,1.33-1.87,2.08c-.57.76-.94,1.59-1.26,2.49-.33.95-.62,2.01-.35,3,.29,1.05,1.82,1.6,2.6.69.18-.21.36-.41.5-.65.06-.11.2-.44.26-.62-.05.14-.14.32-.03.07.07-.16.14-.32.2-.48l-.1.23c.05-.07.08-.17.11-.25.08-.18.17-.36.27-.54.35-.66.76-1.3,1.17-1.91.1-.15.21-.3.31-.45.18-.25.02-.01-.07.09.06-.07.12-.14.17-.21.25-.3.51-.58.78-.85.54-.53,1.07-1.08,1.66-1.56.64-.52.59-1.58.13-2.17-.21-.27-.51-.51-.86-.59-.46-.11-.84-.02-1.27.17h0Z"/>
        <path class="cls-1" d="M33.32,97.25c-.12.56-.25,1.12-.37,1.68-.09.4-.14.8-.16,1.21-.01.26-.02.5.06.76.06.2.18.41.27.6.13.26.47.51.75.58.31.07.71.07.97-.13.16-.13.37-.26.51-.39.2-.2.29-.38.4-.62s.23-.48.32-.73c.04-.13.07-.26.11-.39.14-.56.28-1.11.42-1.67.11-.43.06-.92-.17-1.31-.21-.35-.61-.69-1.01-.78-.43-.1-.92-.08-1.31.17-.36.23-.68.58-.78,1.01h0Z"/>
        <path class="cls-1" d="M16.76,147.3l-.5,1.53c-.08.25-.17.5-.24.75-.12.49-.13,1.16-.02,1.65.13.59.66,1.07,1.23,1.23.31.08.62.08.94,0,.3-.08.56-.23.78-.45.19-.16.34-.42.49-.63.08-.11.16-.22.22-.34.2-.34.31-.78.45-1.16l.55-1.52c.08-.27.1-.54.04-.81-.01-.27-.09-.52-.24-.75-.25-.42-.73-.82-1.21-.93-.52-.12-1.1-.09-1.56.2s-.76.69-.93,1.21h0Z"/>
        <path class="cls-1" d="M25.4,154.36c.08.27.17.54.25.81s.19.54.29.8l.13.31c.08.15.2.28.34.37.08.08.18.14.29.17.16.08.32.12.51.11.23-.01.46-.07.66-.18.15-.08.28-.2.37-.34.12-.13.19-.28.23-.45.1-.27.2-.53.29-.8s.17-.54.25-.81c.19-.61,0-1.39-.48-1.83l-.38-.29c-.29-.17-.61-.26-.95-.26-.26,0-.5.04-.72.16-.23.08-.43.21-.6.39-.46.46-.68,1.19-.48,1.83h0Z"/>
        <path class="cls-1" d="M80.85,164.45v1.5c-.02.24.02.48.04.72.05.54.12,1.03.56,1.43.07.06.14.12.21.18.27.24.62.43,1,.41s.71-.16,1-.41c.07-.06.14-.12.21-.18.23-.21.38-.5.48-.8.06-.2.06-.42.08-.63.02-.24.06-.48.06-.72v-1.5c-.02-.47-.21-.95-.54-1.28-.31-.31-.83-.55-1.28-.53s-.95.17-1.28.53-.53.79-.53,1.28h0Z"/>
        <path class="cls-1" d="M120.76,84.28c.28.11-.14-.07.03.01.07.03.15.07.22.1.17.08.33.16.5.24.35.17.69.36,1.03.56.66.39,1.3.83,1.92,1.27.07.05.13.1.2.15.28.21-.23-.19-.05-.04.15.12.29.23.43.35.29.24.56.49.85.72.69.56,1.38,1.14,2.14,1.61.59.36,1.49.26,1.97-.25.53-.58.55-1.27.25-1.97-.73-1.72-2.32-2.93-3.87-3.88-1.47-.89-3.14-1.49-4.82-1.85-.78-.17-1.7.23-1.89,1.07-.2.89.27,1.57,1.07,1.89h0Z"/>
        <path class="cls-1" d="M128.42,75.85c.2.13.39.27.58.42l-.34-.26c.71.55,1.34,1.19,1.9,1.9l-.27-.35c.2.26.4.53.61.79l-.27-.35c.35.46.62.99,1,1.42.14.16.29.32.43.48.2.24.42.43.68.61.64.46,1.74,0,1.89-.77.05-.28.09-.54.05-.82-.03-.19-.06-.39-.09-.58-.08-.41-.18-.77-.39-1.15-.33-.62-.73-1.19-1.18-1.73-.82-.98-1.82-1.81-2.9-2.48-.74-.46-1.87-.18-2.28.6-.44.84-.18,1.76.6,2.28h0Z"/>
        <path class="cls-1" d="M184.24,79.7c.02.24.04.48.06.72.02.26.03.33.1.52l.07.17.13.32.12.29c.08.14.18.25.31.34.08.08.16.13.27.16.14.08.3.11.47.1l.32-.04.29-.12c.14-.08.25-.18.34-.31.11-.12.18-.25.22-.41l.13-.32.06-.16c.07-.19.08-.26.11-.53.02-.24.04-.48.06-.72,0-.21-.04-.41-.13-.59-.06-.19-.17-.35-.32-.49-.14-.15-.3-.25-.49-.32-.18-.1-.38-.14-.59-.13l-.41.05c-.26.07-.48.2-.67.39l-.24.31c-.14.24-.21.49-.21.77h0Z"/>
        <path class="cls-1" d="M165.19,184.14l.69-1.27c.11-.21.24-.41.34-.62.12-.25.2-.47.26-.73l.08-.37.06-.45c0-.23-.04-.45-.15-.65-.04-.14-.11-.27-.22-.37-.12-.18-.28-.33-.48-.44-.27-.14-.55-.22-.86-.23-.44-.02-.88.21-1.2.5-.29.26-.56.5-.78.84-.13.2-.24.41-.37.61-.25.41-.5.83-.74,1.24-.14.22-.22.46-.23.72-.06.26-.05.51.03.77.06.25.18.47.35.66.14.21.32.38.54.5.45.24.99.36,1.49.2.47-.15.91-.44,1.16-.89h0Z"/>
      </g>
    </g>
  </g>
</svg>