<?xml version="1.0" encoding="UTF-8"?>
<svg id="Capa_2" xmlns="http://www.w3.org/2000/svg" viewBox="0 0 243.3 243.3">
  <defs>
    <style>
      .cls-1 {
        fill: #fff;
      }

      .cls-2 {
        fill: none;
      }

      .cls-3 {
        fill: #4f3535;
      }

      .cls-4 {
        fill: #f7bc3b;
      }

      .cls-5 {
        fill: #c0c728;
      }
    </style>
  </defs>
  <g id="grocery_icons">
    <g>
      <rect class="cls-2" width="243.3" height="243.3"/>
      <g>
        <path class="cls-5" d="M215.84,226.68c-.9-2.28-2.2-4.24-3.61-6.34-2.68-4.01-3.38-7.31-2.49-12.04,1.5-7.98,2.89-15.94,3.76-24.02,1.84-17.13,2.06-34.38,1.03-51.58-2.02-34.1-8.61-72.72-14.51-106.28,1.49-1.87,9.95-11.88,9.83-12.95-.12-1.12-.94-1.98-2.04-2.2-13.15-2.62-26.24-3-39.58-2.96-14.07.05-32.47-.42-46.53,0-28.08.84-89.85.18-86.72,5.92,1.51,2.78,9.57,11.16,11.06,13.04-5.9,33.57-12.91,71.34-14.92,105.43-1.01,17.2-.8,34.44,1.03,51.58.87,8.09,2.26,16.04,3.76,24.02.88,4.67.12,8.16-2.49,12.04-.97,1.45-1.95,2.91-2.76,4.46-.97,1.87-1.76,3.86-.86,5.93.37.85.94,1.44,1.91,1.47,35.12.95,70.39-1.12,105.53-.88,13.44.09,26.86.51,40.29.94,12.18.39,25.14,1.37,37.19-.96,2.17-.42,2.38-3.3,1.11-4.61Z"/>
        <g>
          <path class="cls-3" d="M188.05,202.9c.45-.78.71-1.7.38-2.59v1.51c.15-.52.18-1.1.04-1.63-.05-.21-.19-.51-.29-.7-.2-.37-.4-.54-.7-.77-.27-.21-.58-.39-.92-.48-.13-.04-.63-.1-.76-.1-.13,0-.26.02-.39.05-.25,0-.49.06-.71.19-.24.1-.29.11-.45.23.48-.13.96-.26,1.44-.39-.89,0-1.77.36-2.34,1.05-.37.37-.63.81-.77,1.32l-.11.8c0,.54.14,1.04.41,1.51.19.35.45.63.77.84.29.26.63.44,1.02.54.4.12.8.14,1.19.05.4-.02.77-.14,1.11-.36.45-.27.81-.62,1.07-1.07h0Z"/>
          <path class="cls-3" d="M198.06,192.47s.05.02.08.03c.26.1.74.09,1,0,.01,0,.03-.01.04-.02,0,0,.01,0,.02,0,.28-.07.52-.19.73-.38.23-.15.42-.35.55-.6.16-.25.24-.51.25-.8.06-.29.05-.57-.04-.86-.1-.36-.29-.68-.55-.95-.14-.11-.29-.22-.43-.34-.33-.19-.7-.29-1.08-.29-.19.03-.38.05-.57.08-.36.1-.68.29-.95.55-.11.14-.22.29-.34.43-.19.33-.29.7-.29,1.08-.01.3.05.57.18.83.09.27.23.5.44.69.27.27.58.45.95.55h0Z"/>
        </g>
        <g>
          <path class="cls-3" d="M54.67,118.69c.03-.11.06-.23.09-.34.15-.62.1-1.25-.23-1.81-.2-.34-.49-.63-.83-.83s-.76-.29-1.17-.31c-.42,0-.81.11-1.17.32-.16.12-.31.24-.47.36-.08.09-.15.19-.23.29-.3.3-.5.65-.61,1.05-.11.42-.11.85,0,1.27.19.59.55,1.11,1.1,1.43.27.17.57.27.89.28.32.07.63.06.95-.04.8-.22,1.46-.87,1.67-1.67h0Z"/>
          <path class="cls-3" d="M67.19,104.2c1.7,0,1.7-2.64,0-2.64s-1.7,2.64,0,2.64h0Z"/>
        </g>
        <g>
          <path class="cls-1" d="M184.41,102.58c1.45,1.02,3.08,2.6,5,2.22,1.26-.25,2.03-1.43,1.86-2.68-.26-1.89-2.31-2.94-3.71-3.96-1.15-.84-2.99-.59-3.78.63-.8,1.23-.61,2.91.63,3.78h0Z"/>
          <path class="cls-1" d="M193.91,116.56c.03.24.06.47.1.71.07.4.23.78.39,1.15.66,1.54,2.97,1.75,3.9.36.22-.34.45-.67.59-1.06.08-.23.15-.45.23-.68.3-.89.2-1.97-.46-2.69-.48-.53-1.11-.9-1.84-.97-.69-.06-1.45.17-1.98.62-.76.64-1.07,1.6-.93,2.56h0Z"/>
        </g>
        <path class="cls-1" d="M46.45,195.71c1.11,2.16,2.13,4.48,4.27,5.81,1.44.89,2.96-.3,3.11-1.78.24-2.49-1.18-4.86-2.21-7.05-.69-1.46-2.79-1.84-4.1-1.07-1.46.85-1.82,2.65-1.07,4.1h0Z"/>
        <path class="cls-4" d="M121.66,162.53c-.68-.46-1.44-.77-2.21-1.06-1.94-.74-3.98-1.19-6.01-1.61-2.38-.49-4.8-.95-7.24-1.08-.82-.04-2.58-.56-2.84.28-.54,1.73,4.33,3.1,6.83,4.01,2.13.78,4.39,1.24,6.66,1.27,1.02.01,2.06-.08,3.07-.21,2.96-.36,2.16-1.32,1.73-1.61Z"/>
        <path class="cls-1" d="M123.9,165.89c-2.3,1.39-5.23,1.58-7.84,1.22-.64-.02-1.26-.05-1.84-.12-3.19-.35-6.23-1.39-9.08-2.86-1.97-1.02-5.06-2.56-4.79-5.22.3-2.92,4.01-3.24,6.27-3.12,3.12.16,6.29.75,9.31,1.53,2.49.64,4.98,1.37,7.01,3.02.89.72,1.98,1.68,2.33,2.8.37,1.19-.41,2.17-1.38,2.75Z"/>
        <g>
          <path class="cls-1" d="M176.39,132.21c-8.81-35.66-52.44-47.45-82.29-30.11-21.51,12.5-32.62,39.92-24.72,63.76,6.78,20.46,26.55,33.07,47.32,35.5,23.1,2.71,45.89-7.15,55.63-29.03,5.53-12.42,7.34-26.85,4.06-40.12Z"/>
          <path class="cls-4" d="M95.23,154.49c-.54.58-1.06,1.19-1.56,1.81-1.03,1.28-1.94,2.61-2.65,4.09-.69,1.45-1.17,3.1-1.17,4.72,0,.89.42,1.02.94.81.61-.4,1.12-1.01,1.53-1.6.92-1.3,1.62-2.77,2.37-4.16.76-1.4,1.54-2.83,2.1-4.33.31-.82.62-1.69.77-2.55.03-.15.05-.51.05-.5-.02-.01-.47.09-.61.15-.7.33-1.27,1.01-1.79,1.57Z"/>
          <path class="cls-4" d="M103.43,163.6c1.04,1.03,2.25,1.92,3.48,2.72,1.24.8,2.56,1.52,3.92,2.11.33.14,3.68,1.53,3.77,1.3.02-.05.05-.09.08-.14,0-.06,0-.13-.02-.21-.16-.71-.97-1.43-1.45-1.92-.52-.52-1.08-.99-1.62-1.48-1.11-1.02-2.3-1.95-3.58-2.76-1.18-.74-2.69-1.72-4.11-1.84-.47-.04-1.24.09-1.36.66-.12.59.51,1.2.88,1.56Z"/>
          <path class="cls-4" d="M128.63,121.41c-1.22.15-2.52.73-3.63,1.23-1.14.51-2.23,1.11-3.29,1.77-.35.22-.7.45-1.04.68-.85.69-1.64,1.44-2.32,2.27-.2.24-.41.53-.53.82-.05.12-.12.32-.12.44,0,.05,0,.07,0,.09.34.26,1.19.13,1.58.08,1.31-.17,2.58-.77,3.75-1.35,2.21-1.11,4.26-2.55,6.02-4.29.28-.28,1.06-.92.8-1.39-.21-.39-.86-.37-1.22-.33Z"/>
          <path class="cls-4" d="M89.59,132.4c2.27-.21,4.47-.53,6.62-1.31.98-.35,2.18-.77,2.98-1.46.21-.18.57-.5.38-.77-.14-.21-.51-.23-.73-.24-.55-.02-1.12.07-1.66.14-2.72.32-5.49.69-8.12,1.49-.62.19-2.99.77-2.83,1.64.18.99,2.71.58,3.36.52Z"/>
          <path class="cls-4" d="M84.09,140.33c-1.8-.28-1.44,5.41-1.42,6.29.08,2.96.58,5.95,1.8,8.67.22.49.78,1.67,1.5,1.27.48-.26.59-1.27.69-1.74.16-.77.25-1.55.32-2.33.29-3.22-.11-6.49-1.25-9.53-.27-.71-.72-2.49-1.64-2.63Z"/>
          <path class="cls-4" d="M105.9,126.04c.01.08.02.16.03.24.23,1.48.4,3.1.99,4.49.33.78,1.06,1.79,1.78.77.39-.55.57-1.31.73-1.96.35-1.45.4-2.97.44-4.45.04-1.49-.02-3-.3-4.47-.27-1.38-.69-2.75-1.39-3.98-.29-.52-.8-1.27-1.48-.97-.59.27-.79,1-.88,1.58-.25,1.53-.22,3.17-.21,4.72,0,1.35.24,2.7.3,4.04Z"/>
          <path class="cls-4" d="M118.15,149.14c-1.54.1-3.07.41-4.54.86-1.49.46-2.91,1.08-4.25,1.87-.98.58-2.32,1.46-2.07,2.69.1.04.25.04.47.05.42.02.84.02,1.26-.01.76-.05,1.51-.21,2.24-.41,1.62-.46,3.16-1.2,4.62-2.02,1.34-.76,2.79-1.49,3.99-2.47.06-.05.35-.38.54-.57-.01,0-.03,0-.03,0-.72-.08-1.49-.03-2.21.02Z"/>
          <path class="cls-4" d="M94.22,169.92c-.58,1.49-.7,3.11-.86,4.68-.15,1.51-.36,2.99-.27,4.52.04.64,0,3.14.87,3.35.54.13.85-1.61.96-1.98.59-2.05.92-4.18,1-6.3,0-.12,0-.25.01-.38.05-1.38.08-2.91-.3-4.22-.33-1.11-1.12-.42-1.41.32Z"/>
          <path class="cls-4" d="M113.26,137.67c2.35,2.01,5.41,3.46,8.36,4.31.72.21,1.46.4,2.19.56.62.13,1.36.31,1.97.05,1.41-.61-.24-2.26-.86-2.8-1.03-.88-2.33-1.56-3.59-2.04-2.38-.89-5.35-1.48-7.89-1.07-.19.03-.4.08-.5.25-.07.13-.05.29.02.42.07.13.18.23.29.33Z"/>
          <path class="cls-1" d="M145.95,120.04c1.65-.54,3.21.44,4.39,1.51,2.41,2.2,4.42,5.15,5.36,8.29.42,1.42.47,3.75-1.34,4.24-1.02.27-2.09-.44-2.91-.95-.93-.58-1.78-1.28-2.49-2.12-.62-.72-1.2-1.47-1.76-2.24-1.13-1.54-2.28-3.26-2.99-5.04-.63-1.59.13-3.17,1.74-3.69Z"/>
          <path class="cls-1" d="M142.76,135.43c1.09-.29,2.22-.48,3.34-.59,2.2-.21,4.5-.14,6.67.32,1.54.32,3.17.99,4.08,2.34,1.12,1.68-.1,3.24-1.63,4.07-3.41,1.84-7.99,1.41-11.62.54-1.61-.39-3.87-.88-4.9-2.31-.93-1.29-.13-2.86,1.17-3.5.75-.37,1.61-.6,2.49-.76.13-.03.26-.07.39-.1Z"/>
          <path class="cls-1" d="M149.32,154.53c-.08,1.09-1.04,1.84-2.07,1.98-1.07.15-2.26-.21-3.27-.54-1.04-.34-2.06-.79-3.02-1.33-1.57-.88-2.93-1.97-4.15-3.2-.82-.68-1.6-1.4-2.33-2.16-1.29-1.34-3.07-3.48-2.59-5.49.57-2.4,3.8-1.74,5.49-1.18,2.22.73,4.15,2.09,5.85,3.66,1.7,1.57,3.37,3.29,4.72,5.17.62.86,1.45,1.97,1.37,3.09Z"/>
          <path class="cls-1" d="M137.51,120.04c1.71-.63,3.6.16,3.78,2.1.17,1.82-.41,3.91-1.06,5.59-.7,1.81-1.62,3.53-2.82,5.06-1.06,1.35-2.41,3.15-4.18,3.58-.94.23-1.93-.07-2.37-.97-.37-.75-.32-1.81-.26-2.62.1-1.34.42-2.62.86-3.86.51-1.78,1.26-3.51,2.23-5.08.93-1.51,2.09-3.15,3.82-3.79Z"/>
          <path class="cls-1" d="M130.29,124.87c-2.39,2.31-5.23,4.08-8.34,5.24-1.52.57-3.51,1.11-5.08.4-1.74-.78-1.26-2.88-.32-4.11.84-1.1,1.95-2.03,3.17-2.8.76-.62,1.63-1.13,2.42-1.57,1.61-.9,3.34-1.64,5.09-2.25,1.48-.51,3.42-.64,4.39.87,1.03,1.58-.19,3.13-1.32,4.23Z"/>
          <path class="cls-1" d="M113.56,111.92c.25-.47.62-.83,1.04-1.13,1.27-1.12,3.49-1.06,5.09-.96,2.47.16,5.03.39,7.37,1.24,1.73.63,3.78,1.65,4.92,3.15,1.4,1.85-.83,3.49-2.49,3.82-2.05.41-4.44-.08-6.46-.49-2.25-.46-4.46-1.2-6.53-2.19-1.24-.59-3.96-1.58-2.95-3.45Z"/>
          <path class="cls-1" d="M114.44,134.64c.48,0,.96,0,1.44.02,1.03-.03,2.08.07,2.97.17,2.09.23,4.09.85,5.88,1.98,1.54.97,3.18,2.35,3.53,4.23.33,1.76-.72,3.29-2.44,3.74-1.85.49-4.05-.17-5.8-.79-1.81-.64-3.49-1.52-5.05-2.64-.79-.57-1.5-1.21-2.19-1.89-.59-.59-1.29-1.24-1.46-2.09-.37-1.85,1.64-2.7,3.12-2.72Z"/>
          <path class="cls-1" d="M122.07,150.71c-.65.79-1.54,1.36-2.4,1.9-.87.54-1.74,1.08-2.65,1.55-2.01,1.05-4.09,1.83-6.35,2.08-1.18.13-2.39.11-3.55-.13-.71-.15-1.29-.5-1.46-1.25-.43-1.88,1.08-3.68,2.56-4.59.72-.44,1.51-.79,2.32-1.08,1.12-.52,2.29-.95,3.44-1.29,2.01-.58,4.18-.94,6.28-.91.86.01,1.78.21,2.26,1.01.54.9.16,1.96-.46,2.7Z"/>
          <path class="cls-1" d="M104.19,117.08c.18-1.34.81-2.73,2.2-3.12,1.21-.33,2.38.4,3.08,1.34,1.07,1.46,1.63,3.39,1.93,5.16.33,1.95.4,3.95.23,5.92-.17,1.86-.44,3.74-1.28,5.43-.75,1.5-2.27,2.49-3.77,1.24-1.44-1.21-1.7-3.43-1.98-5.16-.17-1.09-.31-2.2-.39-3.32-.32-2.37-.33-5.11-.02-7.48Z"/>
          <path class="cls-1" d="M108.91,142.6c.78.74,1.72,1.52,1.68,2.69-.04,1.13-1.07,1.95-2.08,2.23-2.43.67-5.16-.56-7.34-1.5-1.44-.62-2.89-1.28-4.23-2.1-1.03-.48-2.16-1-2.92-1.82-.78-.84-1.06-2.09-.48-3.12.52-.91,1.53-1.44,2.53-1.67,2.33-.53,4.91-.06,7.05.94,2.23,1.04,4.03,2.69,5.8,4.36Z"/>
          <path class="cls-1" d="M87.39,129.2c2.38-.94,5.09-1.47,7.61-1.83.91-.13,1.82-.21,2.75-.23.8-.02,1.71-.09,2.44.3,1.33.7,1.28,2.2.39,3.25-.92,1.09-2.44,1.69-3.74,2.18-2.94,1.12-6.05,1.36-9.15.92-1.2-.17-2.81-.53-2.89-2.04-.07-1.39,1.51-2.12,2.58-2.55Z"/>
          <path class="cls-1" d="M86.05,158.32c-.45.08-.92-.07-1.31-.32-.68-.43-1.2-1.12-1.62-1.8-1.86-3.04-2.86-6.89-2.78-10.45.05-2.25.29-5.9,2.48-7.2,1.98-1.18,3.64.7,4.38,2.37,1.94,4.36,2.46,9.25,1.28,13.89-.33,1.28-.91,3.26-2.43,3.51Z"/>
          <path class="cls-1" d="M97.96,174.53c-.23,2.06-.72,4.13-1.46,6.07-.46,1.22-1.08,3.43-2.61,3.67-1.33.21-2.03-.98-2.37-2.1-.37-1.23-.43-2.56-.47-3.83-.06-2.07.18-4.28.64-6.3.36-1.59.99-3.64,2.32-4.69,1.55-1.23,3.25-.1,3.74,1.56.52,1.74.41,3.83.21,5.62Z"/>
          <path class="cls-1" d="M99.31,155.43c-.69,2.19-1.78,4.21-3.01,6.15-.91,1.43-1.91,2.82-3.13,3.99-.39.4-.87.83-1.39,1.17-.62.45-1.31.84-2.08.77-.86-.07-1.43-.76-1.56-1.58-.02-.13-.02-.28-.03-.41-.1-.63-.07-1.3-.03-1.85.09-1.27.41-2.53.87-3.71.83-2.09,2.16-3.98,3.69-5.62,1.3-1.38,2.9-3.41,4.95-3.54,1.02-.07,1.89.54,2.13,1.55.23.99-.12,2.15-.41,3.09Z"/>
          <path class="cls-1" d="M100.85,161.17c.4-.95,1.28-1.64,2.3-1.8,2.03-.33,4.2.88,5.86,1.9,1.69,1.03,3.35,2.32,4.66,3.81,1.11,1.27,2.41,2.63,2.5,4.42.03.66-.18,1.36-.74,1.74-1.29.87-3.3.03-4.59-.44-2.91-1.06-5.92-2.86-8.19-5.11-.39-.38-.75-.78-1.09-1.19-.81-.97-1.22-2.11-.71-3.33Z"/>
          <path class="cls-1" d="M124,169.34c-1.52.99-3.85,1.07-4.34-1.05-.25-1.1-.01-2.39.22-3.47.21-1.01.54-2,.93-2.96.82-2.05,1.9-3.95,3.14-5.77,1.06-1.56,2.7-3.74,4.75-3.97.73-.08,1.42.19,1.98.65.71.59,1.21,1.5,1.31,2.37.15,1.37-.29,2.77-.74,4.04-.7,1.97-1.62,3.86-2.84,5.57-1.18,1.66-2.68,3.46-4.4,4.59Z"/>
          <path class="cls-1" d="M138,183.57s-.05.09-.07.14c-.33,1.01-1.17,1.77-2.29,1.74-.71-.02-1.3-.34-1.81-.77-.62-.44-1.15-1.04-1.58-1.64-1.5-2.09-2.45-4.77-3.05-7.25-.32-1.33-.53-2.69-.62-4.06-.07-1.14-.23-2.61.32-3.66.56-1.06,1.84-1.37,2.92-.96,1.09.42,1.82,1.49,2.47,2.4,1.46,2.04,2.48,4.48,3.31,6.84.08.23.16.47.24.72.65,2.09,1.02,4.44.17,6.5Z"/>
          <path class="cls-1" d="M152.7,177.54c-.68,1.08-2,.93-3.08.71-1.13-.23-2.22-.73-3.18-1.36-1.55-1-2.78-2.5-3.94-3.92-1.2-1.48-2.28-3.06-3.23-4.72-.82-1.44-1.89-3.34-1.2-5.02.57-1.38,2.07-1.99,3.48-1.67,1.11.25,2.03,1.05,2.89,1.76.9.74,1.75,1.53,2.56,2.37,1.61,1.67,3.1,3.52,4.28,5.53,1.02,1.73,2.68,4.34,1.43,6.33Z"/>
          <path class="cls-1" d="M161.62,156.52c-.6,2.2-1.6,4.3-2.75,6.26-.91,1.56-2.18,4.3-4.32,4.23-2.28-.08-2.29-2.97-2.2-4.61,0-.02,0-.04,0-.06,0-.27,0-.51.01-.73.15-2.49.93-4.94,1.99-7.18.94-2,2.11-4.13,3.54-5.83,1.59-1.89,3.73-.14,4.19,1.75.49,1.99.06,4.24-.47,6.18Z"/>
          <path class="cls-3" d="M87.7,133.78c3.09.44,6.21.2,9.15-.92,1.3-.5,2.82-1.09,3.74-2.18.89-1.05.95-2.55-.39-3.25-.73-.39-1.65-.32-2.44-.3-.92.03-1.83.1-2.75.23-2.52.37-5.24.89-7.61,1.83-1.07.43-2.66,1.16-2.58,2.55.08,1.51,1.69,1.87,2.89,2.04ZM89.07,130.23c2.63-.8,5.4-1.17,8.12-1.49.55-.06,1.11-.15,1.66-.14.22,0,.58.03.73.24.19.28-.18.6-.38.77-.8.69-2,1.11-2.98,1.46-2.16.78-4.35,1.1-6.62,1.31-.65.06-3.18.46-3.36-.52-.16-.87,2.21-1.45,2.83-1.64Z"/>
          <path class="cls-3" d="M104.6,127.88c.28,1.74.54,3.95,1.98,5.16,1.5,1.26,3.02.26,3.77-1.24.84-1.69,1.11-3.57,1.28-5.43.18-1.97.11-3.97-.23-5.92-.3-1.76-.86-3.7-1.93-5.16-.69-.95-1.87-1.68-3.08-1.34-1.4.39-2.03,1.78-2.2,3.12-.31,2.37-.31,5.12.02,7.48.09,1.12.22,2.23.39,3.32ZM105.81,117.28c.09-.58.29-1.31.88-1.58.68-.31,1.19.45,1.48.97.7,1.23,1.12,2.6,1.39,3.98.28,1.47.35,2.98.3,4.47-.04,1.49-.1,3-.44,4.45-.15.64-.34,1.4-.73,1.96-.72,1.03-1.45.02-1.78-.77-.59-1.39-.75-3.01-.99-4.49-.01-.08-.02-.16-.03-.24-.06-1.34-.3-2.69-.3-4.04,0-1.54-.04-3.19.21-4.72Z"/>
          <path class="cls-3" d="M116.51,115.37c2.07,1,4.28,1.73,6.53,2.19,2.02.41,4.41.9,6.46.49,1.66-.33,3.89-1.97,2.49-3.82-1.14-1.5-3.19-2.52-4.92-3.15-2.34-.85-4.9-1.09-7.37-1.24-1.61-.1-3.82-.16-5.09.96-.42.29-.79.66-1.04,1.13-1.02,1.87,1.71,2.86,2.95,3.45ZM115.05,112.51c1.48-1.22,3.8-1,5.58-.87,3.22.24,7.19,1.01,9.64,3.31.09.08.17.19.22.29.05.1.06.21.01.31-.05.09-.14.15-.23.2-.49.27-1.1.3-1.65.29-3.25-.07-6.54-.74-9.66-1.66-.76-.22-1.52-.46-2.27-.72-.57-.19-1.21-.17-1.71-.53-.06-.05-.13-.1-.16-.17-.07-.17.07-.35.21-.47Z"/>
          <path class="cls-3" d="M131.6,120.65c-.97-1.5-2.91-1.38-4.39-.87-1.75.6-3.47,1.34-5.09,2.25-.79.44-1.66.95-2.42,1.57-1.22.77-2.33,1.7-3.17,2.8-.94,1.23-1.42,3.33.32,4.11,1.57.7,3.56.16,5.08-.4,3.11-1.16,5.95-2.93,8.34-5.24,1.13-1.09,2.35-2.64,1.32-4.23ZM129.05,123.13c-1.76,1.74-3.81,3.19-6.02,4.29-1.17.58-2.44,1.18-3.75,1.35-.39.05-1.24.18-1.58-.08,0-.02,0-.05,0-.09,0-.11.07-.32.12-.44.12-.29.33-.58.53-.82.68-.82,1.47-1.58,2.32-2.27.35-.23.69-.46,1.04-.68,1.06-.66,2.15-1.26,3.29-1.77,1.12-.5,2.41-1.08,3.63-1.23.36-.04,1.01-.06,1.22.33.26.47-.52,1.11-.8,1.39Z"/>
          <path class="cls-3" d="M130.6,132.77c-.06.81-.11,1.87.26,2.62.44.9,1.43,1.2,2.37.97,1.77-.42,3.12-2.22,4.18-3.58,1.2-1.53,2.12-3.25,2.82-5.06.65-1.68,1.23-3.77,1.06-5.59-.18-1.95-2.07-2.73-3.78-2.1-1.74.64-2.89,2.27-3.82,3.79-.97,1.58-1.71,3.3-2.23,5.08-.45,1.24-.76,2.52-.86,3.86ZM132.79,130.96c.3-1.46.75-2.9,1.39-4.25.64-1.36,1.4-2.77,2.47-3.83.35-.35,2.17-1.74,2.43-.64.14.56-.08,1.37-.17,1.93-.14.78-.34,1.55-.57,2.31-.42,1.36-1.02,2.65-1.75,3.87-.74,1.25-1.54,2.53-2.57,3.56-.24.24-.89.83-1.33.8-.11-.45-.2-.89-.19-1.37.02-.8.15-1.6.31-2.37Z"/>
          <path class="cls-3" d="M147.2,128.78c.56.77,1.15,1.51,1.76,2.24.71.83,1.57,1.54,2.49,2.12.82.51,1.89,1.22,2.91.95,1.81-.48,1.76-2.82,1.34-4.24-.94-3.14-2.95-6.09-5.36-8.29-1.18-1.07-2.74-2.05-4.39-1.51-1.61.53-2.37,2.11-1.74,3.69.71,1.79,1.86,3.5,2.99,5.04ZM146,122.15c.97-1.03,2.69.72,3.36,1.38,2.02,1.96,4.43,5.04,4.75,7.93.02.19.03.4-.07.56-.52.9-3.3-2-3.7-2.44-1.02-1.14-1.95-2.38-2.77-3.68-.42-.65-2.24-3.04-1.57-3.75Z"/>
          <path class="cls-3" d="M138.7,139.79c1.03,1.43,3.29,1.93,4.9,2.31,3.63.87,8.21,1.3,11.62-.54,1.52-.82,2.75-2.39,1.63-4.07-.9-1.36-2.54-2.02-4.08-2.34-2.17-.46-4.46-.52-6.67-.32-1.12.11-2.25.3-3.34.59-.13.03-.26.07-.39.1-.88.16-1.73.39-2.49.76-1.31.64-2.1,2.2-1.17,3.5ZM140.06,138.08c.16-.2.43-.28.69-.33,2.79-.5,5.43-1.24,8.31-1.16,1.34.04,2.73.15,4.02.54.72.21,3.1,1.35,1.79,2.18-1.13.71-2.7.93-3.99,1.03-1.48.12-2.96.04-4.44-.09-1.52-.14-2.98-.49-4.46-.84-.43-.1-2.6-.45-1.91-1.32Z"/>
          <path class="cls-3" d="M111.32,137.37c.17.85.87,1.5,1.46,2.09.69.69,1.4,1.33,2.19,1.89,1.56,1.12,3.25,2,5.05,2.64,1.75.62,3.95,1.28,5.8.79,1.72-.45,2.77-1.98,2.44-3.74-.35-1.88-2-3.26-3.53-4.23-1.79-1.13-3.79-1.75-5.88-1.98-.89-.1-1.94-.2-2.97-.17-.48-.02-.96-.03-1.44-.02-1.48.02-3.49.88-3.12,2.72ZM112.95,136.92c.09-.17.31-.22.5-.25,2.54-.41,5.51.18,7.89,1.07,1.27.48,2.56,1.16,3.59,2.04.62.53,2.27,2.18.86,2.8-.61.26-1.35.08-1.97-.05-.74-.16-1.47-.35-2.19-.56-2.95-.85-6.01-2.3-8.36-4.31-.11-.1-.22-.2-.29-.33-.07-.13-.09-.29-.02-.42Z"/>
          <path class="cls-3" d="M136.82,151.45c1.22,1.23,2.58,2.32,4.15,3.2.96.54,1.97.99,3.02,1.33,1.01.33,2.2.69,3.27.54,1.03-.14,1.99-.89,2.07-1.98.08-1.11-.75-2.23-1.37-3.09-1.35-1.88-3.02-3.61-4.72-5.17-1.71-1.57-3.63-2.93-5.85-3.66-1.69-.56-4.92-1.22-5.49,1.18-.48,2.02,1.3,4.16,2.59,5.49.73.75,1.51,1.48,2.33,2.16ZM133.92,144.85c-.05-.19-.09-.41.01-.59.36-.65,1.94-.01,2.43.15.97.32,1.91.76,2.79,1.29,2.19,1.33,3.97,3.24,5.66,5.14.61.69,1.34,1.37,1.81,2.19.17.3,1.36,1.84-2.23.45-.9-.35-1.78-.73-2.63-1.17-2.8-1.46-5.6-3.54-7.28-6.25-.23-.38-.44-.78-.56-1.21Z"/>
          <path class="cls-3" d="M152.37,161.6c-.01.22-.02.47-.01.73,0,.02,0,.04,0,.06-.09,1.64-.08,4.53,2.2,4.61,2.14.08,3.42-2.67,4.32-4.23,1.14-1.97,2.14-4.07,2.75-6.26.53-1.94.96-4.19.47-6.18-.46-1.89-2.6-3.63-4.19-1.75-1.43,1.7-2.6,3.83-3.54,5.83-1.06,2.24-1.84,4.69-1.99,7.18ZM155.86,155.99c.88-2.03,2.03-3.94,3.24-5.79.08-.13.18-.26.32-.32.63-.24.65,1.42.65,1.75.02,3.25-1.02,6.47-2.48,9.35-.04.07-.07.15-.11.22-.38.74-.79,1.46-1.23,2.16-.22.34-.67,1.47-1.1,1.57-.73.17-.87-1.44-.9-1.9-.05-.76.03-1.53.15-2.28.27-1.64.8-3.23,1.46-4.75Z"/>
          <path class="cls-3" d="M128.4,164.75c1.22-1.71,2.14-3.59,2.84-5.57.45-1.27.89-2.67.74-4.04-.1-.87-.59-1.78-1.31-2.37-.56-.46-1.25-.73-1.98-.65-2.05.23-3.69,2.41-4.75,3.97-1.24,1.82-2.32,3.73-3.14,5.77-.39.96-.71,1.95-.93,2.96-.23,1.08-.47,2.37-.22,3.47.49,2.12,2.82,2.04,4.34,1.05,1.72-1.12,3.22-2.93,4.4-4.59ZM122.55,168.12c-.15.07-.33.12-.48.07-.59-.19-.04-2.29.07-2.72.26-1.1.68-2.16,1.13-3.2.82-1.88,1.78-3.7,2.87-5.45.6-.95,1.47-2.44,2.74-2.45.34,0,.71.17.82.49.05.15.04.32.03.49-.27,2.69-1.52,5.1-2.77,7.45-.58,1.09-1.32,2.46-2.24,3.57-.63.76-1.35,1.4-2.16,1.74Z"/>
          <path class="cls-3" d="M146.99,165.68c-.81-.84-1.66-1.63-2.56-2.37-.85-.71-1.78-1.5-2.89-1.76-1.41-.32-2.91.29-3.48,1.67-.69,1.68.37,3.59,1.2,5.02.95,1.66,2.03,3.24,3.23,4.72,1.16,1.43,2.39,2.93,3.94,3.92.96.62,2.06,1.13,3.18,1.36,1.08.22,2.41.37,3.08-.71,1.25-1.99-.41-4.6-1.43-6.33-1.18-2-2.66-3.86-4.28-5.53ZM150.67,175.21c-.09.05-.2.05-.3.04-.28-.02-.55-.13-.81-.24-2.33-.97-4.37-2.5-6.02-4.41-1.09-1.26-2.01-2.67-2.83-4.12-.36-.63-.81-1.32-.9-2.05-.1-.84.61-.99,1.27-.76.76.26,1.38.85,1.97,1.36.69.6,1.37,1.22,2.02,1.86,1.3,1.28,2.49,2.65,3.54,4.14.52.75,1.02,1.52,1.47,2.31.24.42.69.88.78,1.37.03.18-.03.4-.19.49Z"/>
          <path class="cls-3" d="M137.59,176.35c-.83-2.36-1.84-4.8-3.31-6.84-.66-.92-1.38-1.98-2.47-2.4-1.07-.42-2.36-.11-2.92.96-.55,1.05-.39,2.52-.32,3.66.09,1.37.3,2.73.62,4.06.6,2.48,1.55,5.16,3.05,7.25.43.6.96,1.2,1.58,1.64.51.44,1.1.75,1.81.77,1.12.03,1.96-.73,2.29-1.74.02-.05.05-.09.07-.14.86-2.06.49-4.41-.17-6.5-.08-.24-.16-.48-.24-.72ZM135.77,183.5c-.5-.04-1.09-.62-1.5-1.11-.18-.26-.33-.51-.43-.67-1.12-1.75-1.79-3.73-2.29-5.74-.4-1.61-.87-3.22-1-4.88-.04-.49-.34-2.67.71-2.08.71.39,1.27,1.4,1.69,2.05,1.02,1.55,1.81,3.24,2.36,5.02.57,1.82.89,3.71.91,5.62,0,.45.13,1.64-.45,1.79Z"/>
          <path class="cls-3" d="M120.26,147c-2.1-.03-4.26.33-6.28.91-1.16.33-2.32.76-3.44,1.29-.82.29-1.6.64-2.32,1.08-1.48.91-2.99,2.71-2.56,4.59.17.75.76,1.1,1.46,1.25,1.16.24,2.38.27,3.55.13,2.26-.25,4.34-1.04,6.35-2.08.91-.47,1.78-1.01,2.65-1.55.86-.54,1.75-1.11,2.4-1.9.62-.75.99-1.8.46-2.7-.48-.8-1.4-1-2.26-1.01ZM119.85,149.7c-1.19.98-2.64,1.71-3.99,2.47-1.46.82-3,1.56-4.62,2.02-.73.21-1.48.36-2.24.41-.42.03-.84.03-1.26.01-.22-.01-.37-.01-.47-.05-.25-1.24,1.09-2.11,2.07-2.69,1.34-.79,2.76-1.42,4.25-1.87,1.48-.45,3-.76,4.54-.86.72-.05,1.49-.1,2.21-.02,0,0,.02,0,.03,0-.19.2-.48.53-.54.57Z"/>
          <path class="cls-3" d="M96.07,137.31c-.99.22-2.01.76-2.53,1.67-.59,1.03-.3,2.28.48,3.12.76.82,1.89,1.34,2.92,1.82,1.34.82,2.79,1.48,4.23,2.1,2.18.94,4.91,2.17,7.34,1.5,1.01-.28,2.04-1.1,2.08-2.23.04-1.17-.9-1.95-1.68-2.69-1.77-1.67-3.58-3.32-5.8-4.36-2.14-1-4.71-1.46-7.05-.94ZM105.82,142.65c.65.5,1.28,1,1.9,1.53.22.19.79.54.89.85.14.42-.48.36-.79.36-1.86,0-3.55-.56-5.27-1.24-1.72-.68-3.45-1.38-5.08-2.26-.69-.37-1.42-.73-2.05-1.2-.16-.12-.32-.26-.42-.41.08-.57.81-.86,1.29-1,3.36-.96,7,1.43,9.53,3.37Z"/>
          <path class="cls-3" d="M87.2,140.92c-.74-1.67-2.39-3.55-4.38-2.37-2.19,1.3-2.42,4.94-2.48,7.2-.08,3.56.91,7.41,2.78,10.45.41.68.94,1.37,1.62,1.8.39.25.86.4,1.31.32,1.52-.25,2.11-2.23,2.43-3.51,1.18-4.64.66-9.53-1.28-13.89ZM86.98,152.49c-.07.78-.16,1.56-.32,2.33-.1.48-.21,1.48-.69,1.74-.72.39-1.28-.78-1.5-1.27-1.21-2.72-1.72-5.71-1.8-8.67-.02-.88-.38-6.57,1.42-6.29.92.15,1.38,1.92,1.64,2.63,1.13,3.03,1.53,6.31,1.25,9.53Z"/>
          <path class="cls-3" d="M97.6,150.8c-2.05.14-3.65,2.16-4.95,3.54-1.54,1.64-2.86,3.52-3.69,5.62-.47,1.18-.79,2.44-.87,3.71-.04.55-.07,1.22.03,1.85,0,.14,0,.28.03.41.13.81.69,1.51,1.56,1.58.77.06,1.46-.33,2.08-.77.52-.34,1.01-.77,1.39-1.17,1.23-1.17,2.23-2.57,3.13-3.99,1.23-1.93,2.32-3.95,3.01-6.15.3-.94.65-2.09.41-3.09-.23-1-1.11-1.61-2.13-1.55ZM97.58,153.29c-.16.86-.46,1.74-.77,2.55-.57,1.5-1.34,2.92-2.1,4.33-.76,1.4-1.45,2.86-2.37,4.16-.42.59-.92,1.2-1.53,1.6-.53.2-.94.08-.94-.81,0-1.62.47-3.27,1.17-4.72.71-1.49,1.63-2.81,2.65-4.09.5-.62,1.02-1.22,1.56-1.81.52-.56,1.09-1.24,1.79-1.57.13-.06.59-.16.61-.15,0,0-.02.36-.05.5Z"/>
          <path class="cls-3" d="M102.65,165.69c2.27,2.25,5.28,4.06,8.19,5.11,1.29.47,3.3,1.3,4.59.44.57-.38.77-1.08.74-1.74-.08-1.79-1.39-3.15-2.5-4.42-1.31-1.49-2.97-2.78-4.66-3.81-1.67-1.02-3.84-2.24-5.86-1.9-1.02.17-1.9.85-2.3,1.8-.51,1.22-.09,2.36.71,3.33.34.41.7.81,1.09,1.19ZM102.55,162.04c.12-.57.89-.69,1.36-.66,1.42.12,2.93,1.09,4.11,1.84,1.27.8,2.47,1.74,3.58,2.76.54.49,1.1.96,1.62,1.48.49.49,1.3,1.22,1.45,1.92.02.08.02.14.02.21-.03.04-.06.08-.08.14-.09.24-3.44-1.15-3.77-1.3-1.36-.58-2.68-1.3-3.92-2.11-1.23-.79-2.44-1.68-3.48-2.72-.37-.37-1-.97-.88-1.56Z"/>
          <path class="cls-3" d="M94.01,167.36c-1.33,1.05-1.95,3.11-2.32,4.69-.46,2.02-.7,4.22-.64,6.3.04,1.27.1,2.6.47,3.83.33,1.11,1.03,2.31,2.37,2.1,1.53-.24,2.15-2.46,2.61-3.67.74-1.94,1.22-4.01,1.46-6.07.2-1.78.3-3.87-.21-5.62-.49-1.66-2.19-2.78-3.74-1.56ZM95.94,173.82c0,.13,0,.25-.01.38-.08,2.13-.4,4.26-1,6.3-.11.37-.42,2.11-.96,1.98-.88-.21-.84-2.71-.87-3.35-.09-1.53.12-3.01.27-4.52.16-1.57.28-3.2.86-4.68.29-.74,1.08-1.43,1.41-.32.39,1.31.35,2.84.3,4.22Z"/>
          <path class="cls-3" d="M119.72,178.11c-1.64-1.33-3.65-1.92-5.67-2.44-2.44-.63-5.01-1.11-7.53-1.24-1.83-.09-4.83.16-5.07,2.52-.22,2.16,2.28,3.4,3.87,4.22,2.3,1.19,4.76,2.03,7.34,2.31.47.05.97.08,1.49.09,2.11.29,4.48.14,6.34-.99.78-.47,1.41-1.27,1.11-2.23-.28-.91-1.17-1.69-1.89-2.27ZM117.28,181.19c-.82.1-1.66.18-2.48.17-1.84-.02-3.66-.4-5.39-1.03-2.02-.74-5.96-1.85-5.52-3.24.21-.68,1.63-.26,2.29-.23,1.97.1,3.92.48,5.85.87,1.64.34,3.29.7,4.86,1.3.62.24,1.23.49,1.79.86.35.24,1,1.01-1.4,1.3Z"/>
        </g>
        <path class="cls-3" d="M51.77,11.79c1.11,2.86,2.44,5.58,4.04,8.19.78,1.28,1.62,2.53,2.5,3.75s1.7,2.53,2.97,3.28c.19.11.47-.08.39-.3-.5-1.34-1.53-2.42-2.36-3.57-.88-1.22-1.71-2.47-2.49-3.76-1.55-2.56-2.95-5.24-4.17-7.97-.22-.5-1.09-.14-.89.38h0Z"/>
        <path class="cls-3" d="M67.44,12.03c.67,2.01,1.32,4.02,1.93,6.05s1.08,4.02,2,5.87c.12.25.55.13.53-.14-.15-2.07-.83-4.06-1.45-6.03-.64-2.02-1.31-4.03-2.01-6.03-.22-.62-1.21-.36-1,.28h0Z"/>
        <path class="cls-3" d="M78.56,10.93c.54,2.8,1.11,5.59,1.72,8.37.29,1.34.59,2.67.91,4.01.28,1.18.4,2.92,1.35,3.78.25.23.6.12.72-.19.45-1.2-.24-2.83-.53-4.01-.32-1.33-.66-2.66-1-3.98-.71-2.75-1.47-5.49-2.25-8.22-.17-.59-1.02-.34-.9.25h0Z"/>
        <path class="cls-3" d="M102.47,12.08c.14,2.45.36,4.89.67,7.32.15,1.18.31,2.36.53,3.53.2,1.11.32,2.42,1.06,3.31.27.32.8.13.9-.24.29-1.03-.1-2.23-.29-3.25-.22-1.18-.44-2.37-.64-3.55-.39-2.36-.69-4.73-.91-7.11-.08-.83-1.36-.85-1.31,0h0Z"/>
        <path class="cls-3" d="M123.29,25.85c.12-2.74-.05-5.5-.2-8.24-.16-2.92-.27-5.89-.69-8.78-.05-.33-.61-.33-.66,0-.41,2.87-.15,5.89,0,8.78.15,2.74.33,5.49.21,8.24-.04.85,1.29.85,1.33,0h0Z"/>
        <path class="cls-3" d="M130.82,8.74c.25,2.91.12,5.86.09,8.77-.03,2.82-.29,5.89.41,8.65.12.48.82.36.84-.11.15-2.88.05-5.77.02-8.65s.03-5.79-.28-8.65c-.07-.69-1.16-.71-1.09,0h0Z"/>
        <path class="cls-3" d="M154.32,9.85c-.08,2.68-.1,5.37-.12,8.05-.01,1.35-.04,2.69-.04,4.04,0,1.22-.14,2.67.26,3.83.13.38.61.36.75,0,.44-1.11.34-2.51.36-3.69.02-1.39,0-2.79-.02-4.18-.02-2.68-.04-5.37,0-8.05.01-.78-1.19-.78-1.21,0h0Z"/>
        <path class="cls-3" d="M167.21,9.31c-.79,3.16-1.42,6.35-1.94,9.57-.44,2.76-1.03,5.73-.61,8.52.03.21.38.26.46.06,1.1-2.59,1.26-5.57,1.66-8.33.45-3.18.98-6.34,1.66-9.48.18-.81-1.04-1.15-1.24-.34h0Z"/>
        <path class="cls-3" d="M186.53,10.42c-.57,2.59-1.24,5.16-1.8,7.76-.27,1.25-.57,2.5-.8,3.76-.12.65-.25,1.31-.32,1.97-.07.61-.19,1.26.05,1.84.12.27.43.4.67.18.85-.8,1.03-2.43,1.29-3.52.29-1.25.52-2.51.77-3.76.52-2.61.95-5.24,1.46-7.85.17-.86-1.13-1.23-1.32-.36h0Z"/>
        <path class="cls-3" d="M198.67,11.54c-.84,2.13-1.74,4.24-2.61,6.36-.83,2.02-2.02,4.08-2.1,6.3-.01.31.38.44.58.24,1.65-1.54,2.35-3.92,3.14-5.97.83-2.17,1.49-4.38,2.1-6.62.2-.73-.85-.98-1.11-.31h0Z"/>
        <path class="cls-3" d="M43.86,218.47c-.42,1.08-.72,2.15-1.26,3.19-.55,1.04-1.1,2.07-1.67,3.1s-1.03,2.01-1.45,3.06c-.37.93-.9,2.19-.56,3.2.09.27.4.28.55.07.33-.42.48-1,.66-1.5.19-.52.39-1.05.61-1.56.48-1.07,1.06-2.09,1.59-3.14.51-1,1.03-2,1.42-3.06s.78-2.18.76-3.28c0-.39-.52-.43-.65-.09h0Z"/>
        <path class="cls-3" d="M56.46,219.2c-.34,1.85-.68,3.7-1.02,5.56-.17.91-.31,1.82-.45,2.74s-.33,1.85-.06,2.71c.1.32.49.34.68.09.52-.72.64-1.68.78-2.53.16-.91.3-1.83.43-2.74.26-1.84.52-3.67.78-5.51.1-.74-1.01-1.08-1.15-.32h0Z"/>
        <path class="cls-3" d="M90.99,218.6c-.07,2.09-.14,4.17-.2,6.26-.03,1.04-.01,2.09-.02,3.13s-.01,2.04.32,3.02c.15.45.77.45.92,0,.33-.98.32-1.99.32-3.02s.01-2.09-.02-3.13c-.05-2.09-.13-4.17-.2-6.26-.02-.73-1.11-.73-1.13,0h0Z"/>
        <path class="cls-3" d="M105.55,218.6c.09,2.21.08,4.43.09,6.64s-.25,4.43.31,6.52c.13.47.75.42.9,0,.73-2.03.54-4.39.48-6.52-.07-2.22-.3-4.43-.58-6.64-.09-.75-1.24-.8-1.21,0h0Z"/>
        <path class="cls-3" d="M202.54,217.12c1.28,2.42,2.52,4.87,3.86,7.26.66,1.17,1.32,2.35,1.98,3.52.32.57.65,1.12,1,1.68.36.58.72,1.27,1.26,1.7.49.4,1.12.02,1.03-.6-.11-.68-.52-1.35-.84-1.95-.31-.57-.62-1.14-.95-1.7-.68-1.16-1.36-2.32-2.05-3.48-1.39-2.36-2.88-4.66-4.33-6.98-.38-.61-1.3-.07-.96.56h0Z"/>
        <path class="cls-3" d="M194.42,219.5c.78,1.87,1.5,3.76,2.15,5.67.32.94.61,1.89.91,2.84.26.8.5,2.01,1.27,2.48.16.1.41.04.49-.13.41-.82-.04-1.93-.3-2.75-.31-.98-.67-1.95-1.04-2.92-.72-1.92-1.51-3.81-2.35-5.68-.29-.64-1.42-.17-1.14.48h0Z"/>
        <path class="cls-3" d="M187.62,217.86c-.08,2.46-.05,4.93.22,7.38.13,1.17.28,2.33.47,3.49.2,1.25.48,2.42,1.25,3.44.18.24.64.27.71-.09.22-1.12.08-2.17-.11-3.3-.21-1.22-.45-2.43-.62-3.66-.33-2.41-.58-4.83-.68-7.26-.03-.8-1.22-.81-1.25,0h0Z"/>
        <path class="cls-3" d="M175.25,219.18l1,5.8.49,2.84c.15.88.22,1.97.89,2.63.2.19.61.19.74-.09.41-.89.1-1.93-.07-2.85s-.35-1.89-.53-2.83c-.37-1.96-.74-3.92-1.11-5.88-.17-.93-1.57-.53-1.41.39h0Z"/>
        <path class="cls-3" d="M155.69,220.09c.22,1.77.44,3.54.67,5.31.11.86.25,1.71.38,2.57.07.46.12.92.22,1.38s.24.78.55,1.14c.28.32.72.09.85-.22.33-.79.06-1.69-.07-2.51-.14-.88-.27-1.77-.43-2.65-.32-1.72-.64-3.45-.96-5.17-.12-.67-1.3-.53-1.21.16h0Z"/>
        <path class="cls-3" d="M137.12,219.51c.53,2.19.91,4.42,1.09,6.67.09,1.07.14,2.14.17,3.22.03,1.01-.19,2.33.45,3.18.15.19.45.3.64.08.7-.82.55-2.02.52-3.02-.04-1.19-.15-2.38-.31-3.57-.31-2.33-.8-4.62-1.46-6.88-.21-.71-1.29-.42-1.11.31h0Z"/>
        <path class="cls-3" d="M124.41,219.35c-.07,1.74-.14,3.48-.2,5.22-.03.85-.04,1.71-.04,2.56s.02,1.74.41,2.54c.17.35.75.35.93,0,.38-.76.41-1.59.41-2.44,0-.89,0-1.77-.04-2.66-.07-1.74-.13-3.48-.2-5.22-.03-.82-1.24-.82-1.27,0h0Z"/>
        <path class="cls-3" d="M44.83,33.3c9.95-1.24,19.91-2.52,29.89-3.44,9.99-.92,19.99-1.48,30.01-1.83,20.17-.72,40.39-.45,60.53.82,5.68.36,11.35.83,17.01,1.41,2.78.29,5.57.6,8.34.93,2.87.34,5.64.92,8.5.34,1.33-.27,1.58-2.32.38-2.92-2.37-1.2-4.85-1.39-7.45-1.71s-5.08-.6-7.62-.88c-4.94-.53-9.89-.99-14.84-1.42-10.17-.88-20.37-1.51-30.58-1.68-20.37-.34-40.68.59-60.94,2.69-11.27,1.16-22.52,2.59-33.63,4.8-1.6.32-1.27,3.1.39,2.89h0Z"/>
        <path class="cls-3" d="M209.01,212.29c-11.01.6-22,1.35-33.02,1.87s-22.27.79-33.42.97c-22.37.36-44.76.21-67.12-.5-6.29-.2-12.57-.47-18.85-.82-3.05-.17-6.09-.35-9.14-.55-3.2-.21-6.37-.67-9.53.06-1.68.39-1.35,2.56,0,3.08,2.67,1.05,5.49,1.06,8.33,1.24s5.61.36,8.41.52c5.47.32,10.94.59,16.41.86,11.16.55,22.33.96,33.51,1.05,22.37.17,44.71-.46,67.04-1.77,12.48-.73,24.95-1.59,37.36-3.08,1.83-.22,1.93-3.05,0-2.95h0Z"/>
        <g>
          <path class="cls-3" d="M81.71,81.27c-.14-1.7-.24-3.62-.31-5.78-.07-2.16-.1-4.37-.1-6.64s.01-4.51.03-6.71c.02-2.2.08-4.2.17-5.99,0-.46.22-.81.65-1.07.44-.25.79-.35,1.07-.31.83.09,1.39.38,1.69.86.3.48.49,1.16.58,2.03-.05,1.47-.08,2.94-.1,4.41-.02,1.47-.01,2.94.04,4.41,2.07-.37,3.8-1.12,5.2-2.27,1.4-1.15,2.4-2.45,3-3.92.23-.55.4-1.22.52-2,.11-.78.13-1.57.04-2.38-.09-.8-.31-1.56-.65-2.27-.34-.71-.86-1.27-1.55-1.69-1.01-.6-2.11-.92-3.3-.96-1.19-.05-2.42.13-3.68.52-1.26.39-2.5,1-3.72,1.82-1.22.83-2.35,1.81-3.41,2.96.14.69.04,1.3-.28,1.82-.32.53-.78.91-1.38,1.14-.37.09-.8-.1-1.31-.58-.51-.48-.76-.97-.76-1.48,0-1.84.52-3.43,1.55-4.78,1.03-1.35,2.33-2.49,3.89-3.41,1.56-.92,3.24-1.61,5.03-2.07,1.79-.46,3.44-.69,4.96-.69,2.25,0,4.13.65,5.65,1.96,1.51,1.31,2.55,2.95,3.1,4.92.96,3.44.72,6.54-.72,9.29-1.45,2.75-3.8,5.14-7.06,7.16,2.39,1.47,4.62,2.87,6.71,4.2,2.09,1.33,4.19,2.78,6.3,4.34.28.28.58.68.93,1.2.34.53.29,1.32-.17,2.38-.28.64-.75,1-1.41,1.07-.67.07-1.32-.13-1.96-.59-1.01-.83-2.15-1.69-3.41-2.58-1.26-.9-2.58-1.79-3.96-2.69-1.38-.89-2.75-1.77-4.13-2.62-1.38-.85-2.68-1.64-3.92-2.38.04,1.84.08,3.66.1,5.47.02,1.81.08,3.59.17,5.34,0,.64-.18,1.09-.55,1.34-.37.25-.83.38-1.38.38-.28-.05-.53-.19-.76-.45-.23-.25-.45-.55-.65-.89-.21-.34-.38-.69-.52-1.03s-.21-.61-.21-.79Z"/>
          <path class="cls-3" d="M115.65,76.52c.05.18.07.45.07.79s-.07.69-.21,1.03-.33.64-.58.9c-.25.25-.61.38-1.07.38-1.01-.64-1.86-1.49-2.55-2.55-.37-1.38-.7-2.96-1-4.75-.3-1.79-.54-3.66-.72-5.61-.18-1.95-.31-3.94-.38-5.96-.07-2.02-.08-3.97-.03-5.85,0-.32.03-.73.1-1.24.07-.5.2-1,.38-1.48.18-.48.41-.9.69-1.24s.67-.52,1.17-.52c.6,0,1.08.18,1.45.55.37.37.55.96.55,1.79-.05,1.84-.03,3.8.03,5.89.07,2.09.2,4.19.38,6.3.18,2.11.42,4.17.72,6.16.3,2,.63,3.8,1,5.4Z"/>
          <path class="cls-3" d="M136.44,57.18c.18.23.29.52.31.86.02.34-.03.63-.17.86-.23.51-.62.69-1.17.55-.96-.23-1.97-.32-3.03-.28-1.06.05-2.11.46-3.17,1.24-1.06.78-1.88,1.92-2.48,3.41-.6,1.49-.89,3.04-.89,4.65s.38,2.9,1.14,4.03c.76,1.12,1.73,1.94,2.93,2.44.73.32,1.56.51,2.48.55.92.05,1.85.01,2.79-.1.94-.11,1.87-.3,2.79-.55.92-.25,1.79-.54,2.62-.86.27-.09.54-.07.79.07.25.14.42.32.52.55.23.6.11,1.19-.34,1.79-.55.6-1.29,1.12-2.2,1.58-.92.46-1.93.83-3.03,1.1s-2.23.42-3.37.45c-1.15.02-2.23-.1-3.24-.38-1.42-.37-2.63-.91-3.61-1.62-.99-.71-1.8-1.54-2.44-2.48-.64-.94-1.12-1.95-1.45-3.03-.32-1.08-.5-2.19-.55-3.34-.09-2.75.45-5.23,1.62-7.44s2.81-3.83,4.92-4.89c1.56-.78,3.13-1.09,4.72-.93,1.58.16,2.76.75,3.55,1.76Z"/>
          <path class="cls-3" d="M165.97,65.3c.18.46,0,.91-.55,1.34-.55.44-1.42.72-2.62.86-2.07.28-4.18.56-6.33.86-2.16.3-4.36.61-6.61.93-.09,2.34-.09,4.68,0,7.02,1.06,0,2.33-.1,3.82-.31,1.49-.21,3.02-.47,4.58-.79,1.56-.32,3.06-.65,4.51-1,1.45-.34,2.67-.63,3.68-.86.5-.14,1.03-.24,1.58-.31s1.04-.07,1.48,0,.79.24,1.07.52.41.67.41,1.17c0,.14-.16.34-.48.62-.32.28-.72.56-1.21.86-.48.3-.99.57-1.51.83-.53.25-1,.45-1.41.59-2.85.92-5.65,1.71-8.4,2.38-2.75.67-5.44,1.02-8.05,1.07-1.51.05-2.66-.35-3.44-1.2-.78-.85-1.19-2.08-1.24-3.68-.09-2.25-.09-4.52,0-6.82-.78-.46-1.17-1.1-1.17-1.93.09-.87.5-1.47,1.24-1.79.09-1.33.16-2.67.21-4.03.04-1.35.11-2.7.21-4.03-.5-.09-.95-.34-1.34-.76-.39-.41-.59-.87-.59-1.38,0-.41.09-.79.28-1.14s.53-.61,1.03-.79c.83-.18,1.83-.39,3.03-.62,1.19-.23,2.42-.44,3.68-.62,1.26-.18,2.48-.34,3.65-.48,1.17-.14,2.17-.23,3-.27.96-.09,1.89,0,2.79.27.89.28,1.73.8,2.51,1.58.18.64.06,1.13-.38,1.45-.44.32-1,.53-1.69.62-.69.09-1.51.2-2.48.31-.96.12-1.96.24-2.99.38-1.03.14-2.07.26-3.1.38-1.03.12-2.01.24-2.93.38,0,.09.01.2.04.31.02.12.03.22.03.31-.09,1.19-.16,2.39-.21,3.58-.05,1.19-.09,2.39-.14,3.58,1.93-.32,3.9-.61,5.92-.86,2.02-.25,3.62-.42,4.82-.52.96-.09,1.9.02,2.82.34.92.32,1.74.87,2.48,1.65Z"/>
        </g>
      </g>
    </g>
  </g>
</svg>