<?xml version="1.0" encoding="UTF-8"?>
<svg id="Capa_2" xmlns="http://www.w3.org/2000/svg" viewBox="0 0 243.3 243.3">
  <defs>
    <style>
      .cls-1 {
        fill: #fff;
      }

      .cls-2 {
        fill: none;
      }

      .cls-3 {
        fill: #4f3535;
      }

      .cls-4 {
        fill: #f7bc3b;
      }
    </style>
  </defs>
  <g id="grocery_icons">
    <g>
      <rect class="cls-2" width="243.3" height="243.3"/>
      <g>
        <g>
          <path class="cls-4" d="M212.49,227.3c-.9-2.27-2.19-4.22-3.6-6.32-2.67-4-3.37-7.29-2.49-12,1.5-7.96,2.88-15.89,3.75-23.95,1.83-17.08,2.05-34.28,1.03-51.42-2.02-33.99-8.59-72.5-14.47-105.97,1.49-1.87,9.92-11.85,9.8-12.92-.12-1.12-.93-1.97-2.03-2.19-13.11-2.61-26.16-2.99-39.46-2.95-14.03.05-32.37-.42-46.4,0-28,.84-89.58.18-86.46,5.9,1.51,2.77,9.54,11.13,11.03,13-5.88,33.47-12.87,71.13-14.87,105.12-1.01,17.14-.8,34.34,1.03,51.42.86,8.06,2.25,15.99,3.75,23.95.88,4.66.12,8.13-2.49,12-.97,1.45-1.95,2.9-2.75,4.45-.97,1.87-1.76,3.85-.85,5.91.37.85.94,1.43,1.9,1.46,35.02.95,70.18-1.12,105.22-.88,13.4.09,26.78.51,40.17.94,12.15.39,25.07,1.37,37.08-.96,2.17-.42,2.38-3.29,1.1-4.6Z"/>
          <g>
            <path class="cls-3" d="M184.78,203.59c.45-.77.7-1.7.38-2.58v1.51c.15-.52.18-1.1.04-1.62-.05-.2-.19-.51-.29-.7-.2-.37-.4-.54-.7-.77-.27-.21-.58-.38-.91-.48-.13-.04-.63-.1-.76-.1-.13,0-.26.02-.39.05-.25,0-.49.06-.7.19-.24.1-.29.11-.45.22.48-.13.96-.26,1.43-.39-.89,0-1.76.35-2.33,1.05-.37.37-.63.81-.77,1.32l-.11.79c0,.54.14,1.04.41,1.51.19.35.44.63.77.84.29.26.63.44,1.02.53.4.12.79.14,1.19.05.4-.02.77-.14,1.11-.35.45-.27.81-.62,1.07-1.07h0Z"/>
            <path class="cls-3" d="M194.77,193.19s.05.02.08.03c.26.1.74.09,1,0,.01,0,.03-.01.04-.02,0,0,.01,0,.02,0,.28-.07.52-.19.73-.38.23-.15.42-.35.55-.6.16-.25.24-.51.25-.8.06-.28.05-.57-.04-.85-.1-.36-.29-.68-.55-.94-.14-.11-.29-.22-.43-.33-.33-.19-.69-.29-1.08-.29-.19.03-.38.05-.57.08-.36.1-.68.29-.94.55-.11.14-.22.29-.33.43-.19.33-.29.69-.29,1.08-.01.29.05.57.18.82.09.27.23.49.44.69.27.27.58.45.94.55h0Z"/>
          </g>
          <g>
            <path class="cls-3" d="M51.8,119.62c.03-.11.06-.23.09-.34.15-.62.1-1.24-.23-1.8-.2-.34-.49-.63-.83-.83s-.76-.29-1.16-.31c-.42,0-.8.11-1.16.31-.16.12-.31.24-.47.36-.08.09-.15.19-.23.29-.3.3-.5.65-.61,1.05-.11.42-.11.84,0,1.27.19.59.55,1.1,1.09,1.42.27.17.57.27.89.28.32.07.63.06.95-.04.79-.22,1.45-.86,1.66-1.66h0Z"/>
            <path class="cls-3" d="M64.29,105.17c1.69,0,1.69-2.63,0-2.63s-1.69,2.63,0,2.63h0Z"/>
          </g>
          <g>
            <path class="cls-1" d="M181.16,103.57c1.45,1.02,3.07,2.59,4.98,2.22,1.26-.24,2.03-1.42,1.86-2.67-.26-1.88-2.3-2.93-3.7-3.95-1.14-.83-2.98-.59-3.77.63-.8,1.22-.6,2.9.63,3.77h0Z"/>
            <path class="cls-1" d="M190.63,117.5c.03.24.06.47.1.71.07.4.23.77.39,1.14.66,1.54,2.96,1.75,3.89.35.22-.34.45-.67.59-1.05.08-.22.15-.45.23-.68.3-.89.2-1.96-.45-2.68-.48-.53-1.1-.9-1.83-.96-.69-.06-1.44.17-1.98.62-.76.63-1.07,1.59-.93,2.56h0Z"/>
          </g>
          <path class="cls-1" d="M43.61,196.42c1.11,2.15,2.13,4.47,4.26,5.79,1.44.89,2.96-.3,3.1-1.78.24-2.49-1.17-4.85-2.2-7.02-.69-1.46-2.78-1.83-4.09-1.07-1.46.85-1.81,2.65-1.07,4.09h0Z"/>
          <path class="cls-1" d="M173.16,133.1c-8.79-35.56-52.28-47.31-82.05-30.02-21.45,12.46-32.52,39.8-24.64,63.57,6.76,20.4,26.47,32.97,47.18,35.4,23.03,2.7,45.75-7.13,55.46-28.94,5.51-12.38,7.32-26.77,4.05-40.01Z"/>
          <path class="cls-3" d="M48.91,13.04c1.11,2.85,2.44,5.56,4.03,8.17.78,1.28,1.61,2.52,2.49,3.74.85,1.18,1.69,2.52,2.96,3.27.19.11.47-.08.39-.3-.49-1.34-1.52-2.41-2.35-3.56-.87-1.22-1.7-2.47-2.48-3.74-1.55-2.55-2.94-5.23-4.15-7.95-.22-.5-1.09-.14-.89.38h0Z"/>
          <path class="cls-3" d="M64.53,13.29c.67,2,1.31,4.01,1.92,6.03s1.07,4.01,2,5.86c.12.25.55.13.53-.14-.15-2.07-.82-4.04-1.44-6.01s-1.3-4.02-2-6.01c-.22-.62-1.21-.36-1,.28h0Z"/>
          <path class="cls-3" d="M75.61,12.18c.54,2.79,1.1,5.57,1.71,8.34.29,1.33.59,2.67.91,4,.28,1.18.39,2.91,1.34,3.77.25.23.6.12.72-.19.45-1.19-.24-2.82-.53-4-.32-1.33-.66-2.65-1-3.97-.71-2.74-1.47-5.47-2.25-8.2-.17-.59-1.02-.34-.9.25h0Z"/>
          <path class="cls-3" d="M99.46,13.34c.14,2.44.36,4.88.67,7.3.15,1.18.31,2.35.52,3.52.2,1.1.32,2.41,1.06,3.3.27.32.8.13.9-.24.29-1.03-.1-2.23-.29-3.25-.22-1.18-.44-2.36-.64-3.54-.39-2.35-.69-4.72-.91-7.09-.08-.83-1.36-.85-1.31,0h0Z"/>
          <path class="cls-3" d="M120.22,27.07c.12-2.74-.05-5.48-.2-8.21-.16-2.91-.27-5.88-.69-8.76-.05-.33-.61-.33-.66,0-.41,2.87-.15,5.88,0,8.76.15,2.73.33,5.48.21,8.21-.04.85,1.29.85,1.33,0h0Z"/>
          <path class="cls-3" d="M127.72,10c.25,2.9.12,5.84.09,8.74s-.29,5.87.41,8.62c.12.48.82.36.84-.11.16-2.87.05-5.76.02-8.63s.03-5.77-.28-8.63c-.07-.69-1.16-.71-1.09,0h0Z"/>
          <path class="cls-3" d="M151.16,11.11c-.08,2.68-.1,5.35-.12,8.03-.01,1.34-.04,2.68-.04,4.03,0,1.21-.14,2.66.26,3.82.13.38.61.36.75,0,.44-1.11.34-2.5.36-3.68.02-1.39,0-2.78-.02-4.17-.02-2.68-.04-5.35,0-8.03.01-.78-1.19-.78-1.21,0h0Z"/>
          <path class="cls-3" d="M164.01,10.57c-.78,3.15-1.42,6.34-1.93,9.54-.44,2.76-1.03,5.71-.6,8.5.03.21.38.26.46.06,1.1-2.58,1.26-5.55,1.66-8.31.45-3.17.98-6.32,1.66-9.45.18-.81-1.04-1.15-1.24-.34h0Z"/>
          <path class="cls-3" d="M183.26,11.67c-.58,2.63-1.26,5.24-1.83,7.88-.28,1.29-.58,2.59-.82,3.89-.2,1.11-.62,2.53-.17,3.6.11.25.46.24.63.08.85-.8,1.03-2.42,1.29-3.51.29-1.24.52-2.5.77-3.75.52-2.6.94-5.23,1.45-7.83.17-.86-1.13-1.23-1.32-.36h0Z"/>
          <path class="cls-3" d="M195.37,12.8c-.84,2.12-1.74,4.22-2.6,6.34s-2.01,4.07-2.09,6.29c-.01.31.38.44.58.24,1.65-1.53,2.35-3.9,3.13-5.96.83-2.16,1.48-4.37,2.09-6.6.2-.73-.85-.98-1.11-.31h0Z"/>
          <path class="cls-3" d="M41.03,219.11c-.42,1.08-.72,2.15-1.26,3.18s-1.09,2.07-1.66,3.09-1.03,2.01-1.45,3.05c-.37.93-.9,2.19-.56,3.19.06.19.36.33.51.13.65-.84.86-2.05,1.28-3.02.47-1.07,1.05-2.09,1.58-3.13s1.04-2,1.42-3.05.81-2.24.79-3.36c0-.39-.52-.43-.65-.09h0Z"/>
          <path class="cls-3" d="M53.59,219.84l-1.01,5.54c-.17.91-.31,1.82-.45,2.73s-.33,1.84-.06,2.71c.1.32.49.34.68.09.51-.71.64-1.67.78-2.52.16-.91.3-1.82.43-2.74l.78-5.49c.1-.74-1.01-1.08-1.15-.32h0Z"/>
          <path class="cls-3" d="M88.01,219.24c-.07,2.08-.14,4.16-.2,6.24-.03,1.04-.01,2.08-.02,3.12s-.01,2.03.32,3.01c.15.45.77.45.92,0,.33-.98.32-1.99.32-3.01s.01-2.08-.02-3.12c-.05-2.08-.13-4.16-.2-6.24-.02-.73-1.11-.73-1.13,0h0Z"/>
          <path class="cls-3" d="M102.53,219.24c.08,2.21.08,4.41.09,6.62s-.25,4.42.31,6.5c.13.47.75.42.9,0,.73-2.03.54-4.38.48-6.5s-.3-4.42-.58-6.62c-.09-.75-1.24-.8-1.21,0h0Z"/>
          <path class="cls-3" d="M199.23,217.77c1.28,2.41,2.51,4.86,3.85,7.24.66,1.17,1.32,2.34,1.98,3.51.32.56.65,1.12.99,1.67.36.58.72,1.27,1.26,1.7.49.4,1.12.02,1.03-.6-.1-.68-.52-1.34-.84-1.94s-.62-1.14-.95-1.7c-.68-1.16-1.36-2.31-2.04-3.47-1.38-2.35-2.88-4.65-4.32-6.96-.38-.61-1.3-.07-.96.56h0Z"/>
          <path class="cls-3" d="M191.14,220.14c.78,1.86,1.5,3.75,2.15,5.66.32.94.61,1.89.91,2.83.26.8.5,2.01,1.27,2.47.16.1.41.04.49-.13.41-.82-.04-1.93-.3-2.74-.31-.98-.67-1.95-1.03-2.91-.72-1.91-1.5-3.8-2.35-5.66-.29-.64-1.42-.17-1.14.48h0Z"/>
          <path class="cls-3" d="M184.35,218.5c-.08,2.45-.05,4.91.22,7.35.13,1.16.28,2.33.47,3.48.2,1.25.48,2.42,1.25,3.43.18.24.64.27.71-.09.22-1.12.08-2.17-.11-3.29-.21-1.22-.45-2.43-.61-3.65-.33-2.4-.58-4.82-.68-7.24-.03-.8-1.22-.81-1.25,0h0Z"/>
          <path class="cls-3" d="M172.03,219.82l1,5.78.49,2.84c.15.87.22,1.97.89,2.62.2.19.61.19.74-.09.41-.88.1-1.93-.07-2.84l-.53-2.82-1.1-5.87c-.17-.93-1.57-.53-1.41.39h0Z"/>
          <path class="cls-3" d="M152.52,220.73c.22,1.77.44,3.53.67,5.3.11.86.25,1.71.38,2.56.07.46.12.92.22,1.37s.24.78.54,1.13c.2.23.67.19.8-.1.19-.44.23-.76.19-1.24s-.13-.93-.2-1.39c-.13-.85-.26-1.7-.41-2.55-.32-1.75-.65-3.5-.98-5.26-.12-.67-1.3-.53-1.21.16h0Z"/>
          <path class="cls-3" d="M134,220.14c.53,2.19.9,4.41,1.09,6.65.09,1.07.14,2.14.17,3.21.03,1-.19,2.33.45,3.18.15.19.45.3.64.08.7-.81.55-2.01.52-3.01-.04-1.19-.15-2.37-.31-3.55-.31-2.32-.8-4.61-1.46-6.86-.21-.71-1.29-.42-1.11.31h0Z"/>
          <path class="cls-3" d="M121.33,219.99c-.07,1.73-.14,3.47-.2,5.2-.03.85-.04,1.7-.04,2.55s.02,1.74.41,2.53c.18.35.75.35.93,0,.38-.76.41-1.59.41-2.43,0-.88,0-1.77-.04-2.65-.07-1.74-.13-3.47-.2-5.2-.03-.82-1.24-.82-1.27,0h0Z"/>
          <path class="cls-3" d="M41.99,34.49c9.95-1.23,19.91-2.52,29.9-3.44,9.91-.92,19.83-1.46,29.78-1.81,20.17-.71,40.39-.45,60.54.82,5.6.35,11.19.82,16.77,1.39,2.78.29,5.57.6,8.35.93,2.87.34,5.64.92,8.5.34,1.33-.27,1.58-2.31.38-2.92-2.37-1.2-4.85-1.39-7.46-1.71-2.46-.3-4.92-.59-7.39-.85-5.02-.54-10.05-1.01-15.08-1.44-10.1-.87-20.21-1.49-30.34-1.66-20.29-.34-40.52.59-60.71,2.67-11.27,1.16-22.52,2.59-33.64,4.79-1.6.32-1.27,3.1.39,2.89h0Z"/>
          <path class="cls-3" d="M205.69,212.95c-11.01.6-22,1.35-33.01,1.87s-22.27.78-33.41.96c-22.29.36-44.59.2-66.87-.5-6.2-.2-12.4-.46-18.6-.81-3.05-.17-6.09-.35-9.14-.55-3.2-.21-6.37-.67-9.53.06-1.68.39-1.35,2.55,0,3.08,2.66,1.05,5.49,1.06,8.33,1.24s5.45.35,8.17.51c5.55.32,11.1.6,16.65.87,11.16.55,22.33.96,33.51,1.04,22.29.16,44.54-.46,66.79-1.77,12.39-.73,24.78-1.58,37.11-3.06,1.83-.22,1.93-3.05,0-2.95h0Z"/>
          <g>
            <path class="cls-3" d="M71.04,79.15c-.04.38-.15.74-.34,1.07-.19.33-.48.48-.86.44-.59-.03-1.11-.26-1.54-.68-.44-.42-.65-.77-.65-1.05.03-3.03-.06-6.13-.29-9.29-.23-3.16-.58-6.3-1.07-9.44,0-.14.03-.3.1-.47.07-.14.16-.31.26-.5.1-.19.28-.37.52-.55.24-.1.51-.09.81.05.3.14.58.35.86.63.28.28.52.59.73.94.21.35.37.68.47.99.1.7.21,1.46.31,2.3.1.84.19,1.71.26,2.62.84-.45,1.64-.96,2.41-1.52.77-.56,1.44-1.17,2.01-1.83.58-.66,1.02-1.35,1.33-2.07.31-.71.42-1.46.31-2.22-.07-.59-.33-1.13-.78-1.62-.45-.49-1.15-.85-2.09-1.1-2.16-.49-4.1-.51-5.81-.08-1.71.44-3.35,1.16-4.92,2.17-.45.35-.87.56-1.26.63-.38.07-.72.05-.99-.05-.28-.1-.49-.26-.63-.47-.14-.21-.21-.42-.21-.63.07-.8.46-1.53,1.18-2.17.71-.65,1.47-1.19,2.28-1.65,1.05-.52,2.34-.96,3.87-1.31,1.53-.35,3.08-.48,4.63-.39,1.55.09,3.01.46,4.37,1.12,1.36.66,2.41,1.73,3.14,3.19.66,1.74.81,3.31.44,4.71-.37,1.4-1.02,2.67-1.96,3.82-.94,1.15-2.06,2.21-3.35,3.17-1.29.96-2.51,1.84-3.66,2.64.07,1.54.11,3.03.13,4.5.02,1.46,0,2.83-.03,4.08Z"/>
            <path class="cls-3" d="M85.95,79.09c-.17.59-.4,1.12-.68,1.6-.28.47-.58.74-.89.81-.66.17-1.17.07-1.52-.31-.35-.38-.49-.87-.42-1.46.28-2.09.73-4.3,1.36-6.62.63-2.32,1.36-4.64,2.2-6.96.84-2.32,1.75-4.57,2.75-6.75.99-2.18,2.01-4.16,3.06-5.94.17-.28.37-.44.6-.5.23-.05.43-.04.6.03.17-.14.38-.26.63-.37.24-.1.49-.16.73-.16.1,0,.22.02.34.05.12.04.25.14.39.31.14.17.31.43.5.76.19.33.43.81.71,1.44.49,1.78,1.05,3.61,1.7,5.49.65,1.88,1.32,3.77,2.01,5.65.1-.03.2-.06.29-.08.09-.02.18-.04.29-.08.38-.03.82-.02,1.31.05.49.07.82.31.99.73.21.52.17.98-.1,1.36-.28.38-.78.77-1.52,1.15.45,1.12.91,2.21,1.36,3.27.45,1.06.92,2.1,1.41,3.11.03.17.09.44.16.81.07.37.11.73.13,1.1.02.37,0,.71-.08,1.02-.07.31-.21.52-.42.63-.24.1-.5.09-.76-.05-.26-.14-.52-.32-.76-.55-.24-.23-.46-.47-.65-.73-.19-.26-.34-.5-.44-.71-.59-1.15-1.16-2.31-1.7-3.48-.54-1.17-1.06-2.35-1.54-3.53-1.46.28-3.06.52-4.79.73s-3.43.35-5.1.42c-.38,1.33-.76,2.62-1.12,3.9-.37,1.27-.71,2.56-1.02,3.85ZM93.38,57.12c-1.6,3.59-3,7.18-4.19,10.78,2.34-.07,4.83-.37,7.48-.89-1.26-3.17-2.35-6.47-3.3-9.89Z"/>
            <path class="cls-3" d="M121.42,56.76c-.14.17-.39.31-.76.39-.37.09-.74,0-1.12-.29-.28-.21-.61-.43-.99-.65-.38-.23-.8-.44-1.26-.65-.45-.21-.91-.38-1.36-.52-.45-.14-.89-.21-1.31-.21-.52,0-1.07.12-1.65.37-.58.24-1.07.59-1.49,1.05-.8.87-1.09,1.72-.86,2.54.23.82.83,1.58,1.8,2.28.63.45,1.31.92,2.04,1.39.73.47,1.46.93,2.17,1.39.71.45,1.39.89,2.04,1.31.64.42,1.21.78,1.7,1.1.63.42,1.22.87,1.78,1.36.56.49,1.05,1.04,1.46,1.65.42.61.75,1.3.99,2.07.24.77.37,1.64.37,2.62-.24,1.92-1,3.44-2.28,4.58-1.27,1.13-2.75,1.86-4.42,2.17-1.46.28-2.9.23-4.32-.16-1.41-.38-2.61-1.12-3.58-2.2-.24-.28-.45-.66-.63-1.15-.18-.49-.19-.84-.05-1.05.21-.31.58-.53,1.1-.65.52-.12.92-.1,1.2.08.8.73,1.74,1.26,2.82,1.6,1.08.33,2.21.36,3.4.08.91-.21,1.64-.6,2.2-1.18.56-.58.91-1.23,1.05-1.96.17-.77.08-1.56-.29-2.38-.37-.82-1.02-1.56-1.96-2.22-1.43-1.08-2.96-2.09-4.58-3.03-1.62-.94-3.27-2.02-4.94-3.24-.8-.7-1.39-1.46-1.75-2.3-.37-.84-.55-1.66-.55-2.46s.17-1.63.52-2.38c.35-.75.84-1.43,1.46-2.04.63-.61,1.36-1.11,2.2-1.49.84-.38,1.76-.61,2.77-.68,1.39-.07,2.74.22,4.03.86,1.29.65,2.34,1.44,3.14,2.38.17.21.25.47.24.78s-.13.61-.34.89Z"/>
            <path class="cls-3" d="M150.08,58.22c-3.59-.17-7.04.1-10.36.84-3.31.73-6.59,1.73-9.83,2.98-.84.31-1.47.28-1.91-.1-.44-.38-.65-.77-.65-1.15.24-.66.68-1.2,1.31-1.62,7.15-3.49,14.3-4.78,21.45-3.87.35.1.64.36.86.76.23.4.31.74.24,1.02-.07.35-.18.64-.31.86-.14.23-.4.32-.78.29ZM142.66,76.48c0,.38-.13.72-.39,1.02-.26.3-.58.48-.97.55-.7.1-1.15-.02-1.36-.37-.21-.35-.33-.75-.37-1.2-.04-2.44-.08-4.87-.13-7.3-.05-2.42-.17-4.86-.34-7.3,0-.14-.02-.3-.05-.5-.04-.19-.04-.38,0-.58.03-.19.11-.36.24-.5.12-.14.32-.24.6-.31.8-.14,1.38,0,1.73.39.35.4.52.79.52,1.18.28,2.51.45,5,.52,7.48.07,2.48.07,4.95,0,7.43Z"/>
            <path class="cls-3" d="M156.68,79.09c-.17.59-.4,1.12-.68,1.6-.28.47-.58.74-.89.81-.66.17-1.17.07-1.52-.31-.35-.38-.49-.87-.42-1.46.28-2.09.73-4.3,1.36-6.62.63-2.32,1.36-4.64,2.2-6.96.84-2.32,1.75-4.57,2.75-6.75.99-2.18,2.01-4.16,3.06-5.94.17-.28.37-.44.6-.5.23-.05.43-.04.6.03.17-.14.38-.26.63-.37.24-.1.49-.16.73-.16.1,0,.22.02.34.05.12.04.25.14.39.31.14.17.31.43.5.76.19.33.43.81.71,1.44.49,1.78,1.05,3.61,1.7,5.49.65,1.88,1.32,3.77,2.01,5.65.1-.03.2-.06.29-.08.09-.02.18-.04.29-.08.38-.03.82-.02,1.31.05.49.07.82.31.99.73.21.52.17.98-.1,1.36-.28.38-.78.77-1.52,1.15.45,1.12.91,2.21,1.36,3.27.45,1.06.92,2.1,1.41,3.11.03.17.09.44.16.81.07.37.11.73.13,1.1.02.37,0,.71-.08,1.02-.07.31-.21.52-.42.63-.24.1-.5.09-.76-.05-.26-.14-.52-.32-.76-.55-.24-.23-.46-.47-.65-.73-.19-.26-.34-.5-.44-.71-.59-1.15-1.16-2.31-1.7-3.48-.54-1.17-1.06-2.35-1.54-3.53-1.46.28-3.06.52-4.79.73s-3.43.35-5.1.42c-.38,1.33-.76,2.62-1.12,3.9-.37,1.27-.71,2.56-1.02,3.85ZM164.1,57.12c-1.6,3.59-3,7.18-4.19,10.78,2.34-.07,4.83-.37,7.48-.89-1.26-3.17-2.35-6.47-3.3-9.89Z"/>
          </g>
        </g>
        <g>
          <g>
            <g>
              <path class="cls-4" d="M125.51,123.14c-.74-3.53-2.31-7.22-4.18-10.28-1.37-2.25-3.5-4.62-6.42-4.14-2.49.41-4.44,2.73-5.8,4.68-2.34,3.35-4.24,7-6.04,10.66-3.67,7.47-7.42,14.89-11.24,22.29-1.85,3.58-3.69,7.17-5.35,10.85-1.48,3.28-2.2,6.48-.99,9.97,1.09,3.13,3.11,5.92,5.38,8.3,1.7,1.78,4.32,4.5,7.02,3.24,2.74-1.27,4.45-5.03,5.86-7.5,2.24-3.92,4.35-7.92,6.42-11.94,3.79-7.35,7.45-14.82,10.96-22.32.83-1.6,1.55-3.27,2.3-4.91,1.34-2.93,2.77-5.59,2.08-8.89Z"/>
              <path class="cls-3" d="M95.66,166.12c-1.08-1.48-2.5-3.01-4.32-3.51-.77-.21-1.58-.17-2.23.33-1.63,1.26-.56,3.7.2,5.14.73,1.38,1.57,2.72,2.57,3.93.94,1.14,2.18,2.75,3.81,2.7,1.19-.04,2.01-.86,2.27-1.97.41-1.71-.34-3.48-1.19-4.93-.33-.57-.7-1.14-1.1-1.69Z"/>
              <path class="cls-3" d="M114.71,114.09c-6.68,12.94-13.46,25.82-20.04,38.81-.9,1.77-1.64,4-2.85,5.6-.34.45.4.91.73.46.97-1.29,1.66-2.92,2.42-4.34,1.81-3.37,3.57-6.77,5.34-10.16,4.06-7.8,8.05-15.64,12.03-23.47,1.08-2.12,2.14-4.24,3.17-6.38.26-.54-.52-1.07-.81-.51h0Z"/>
              <path class="cls-3" d="M118.83,118.99c-6.21,12.12-12.61,24.14-18.77,36.29-1.04,2.05-2.06,4.12-3.12,6.16-.25.49.45.95.73.46,6.73-11.45,12.5-23.55,18.5-35.39,1.18-2.32,2.34-4.66,3.46-7.01.26-.55-.52-1.07-.81-.51h0Z"/>
              <path class="cls-3" d="M121.98,124.49c-6.26,12.2-12.81,24.24-19.07,36.43-1.06,2.06-2.1,4.14-3.17,6.2-.25.49.45.95.73.46,6.78-11.53,12.7-23.64,18.8-35.53,1.2-2.34,2.39-4.68,3.52-7.05.26-.55-.52-1.07-.81-.51h0Z"/>
            </g>
            <g>
              <path class="cls-4" d="M157.64,144.07c.16-3.6-.44-7.57-1.49-11-.77-2.52-2.24-5.35-5.19-5.6-2.52-.22-4.98,1.54-6.78,3.09-3.1,2.66-5.85,5.72-8.5,8.82-5.41,6.33-10.88,12.58-16.43,18.79-2.68,3.01-5.36,6.03-7.88,9.18-2.25,2.81-3.74,5.73-3.44,9.41.27,3.3,1.54,6.51,3.15,9.38,1.21,2.15,3.07,5.43,5.99,4.89,2.97-.55,5.56-3.76,7.54-5.81,3.15-3.24,6.18-6.59,9.18-9.97,5.5-6.18,10.9-12.5,16.17-18.89,1.21-1.35,2.32-2.78,3.45-4.18,2.02-2.5,4.07-4.72,4.22-8.09Z"/>
              <path class="cls-3" d="M118.13,178.05c-.74-1.67-1.82-3.46-3.5-4.33-.71-.37-1.51-.5-2.25-.14-1.85.89-1.32,3.51-.87,5.07.43,1.51.97,2.98,1.69,4.38.68,1.31,1.56,3.15,3.16,3.44,1.17.21,2.14-.43,2.63-1.45.75-1.59.39-3.48-.14-5.07-.21-.62-.45-1.26-.73-1.88Z"/>
              <path class="cls-3" d="M149.42,132.62c-9.68,10.87-19.45,21.66-29.06,32.61-1.31,1.5-2.59,3.47-4.15,4.72-.44.35.16.98.59.63,1.27-1.01,2.34-2.42,3.43-3.61,2.59-2.82,5.14-5.66,7.7-8.51,5.87-6.54,11.68-13.14,17.49-19.75,1.57-1.78,3.13-3.58,4.66-5.39.39-.46-.24-1.16-.66-.7h0Z"/>
              <path class="cls-3" d="M152.2,138.39c-9.03,10.19-18.21,20.25-27.21,30.48-1.52,1.73-3.02,3.48-4.55,5.19-.37.41.2,1.03.59.63,9.37-9.42,17.96-19.7,26.72-29.68,1.72-1.96,3.42-3.93,5.1-5.93.39-.46-.24-1.16-.66-.7h0Z"/>
              <path class="cls-3" d="M153.88,144.51c-9.09,10.26-18.43,20.3-27.53,30.55-1.54,1.74-3.06,3.49-4.61,5.22-.37.41.2,1.03.59.63,9.44-9.48,18.17-19.74,27.05-29.74,1.74-1.96,3.47-3.94,5.16-5.95.39-.46-.24-1.16-.66-.7h0Z"/>
            </g>
            <path class="cls-1" d="M111.38,112.5c-.88,1.16-2.08,2.46-2.32,3.94-.1.58.7,1.02,1.17.73,1.24-.79,1.97-2.45,2.68-3.7.59-1.02-.83-1.89-1.53-.97h0Z"/>
            <path class="cls-1" d="M106.83,119.78c-.06.12-.13.24-.19.37s-.12.25-.16.38c-.05.15-.05.29-.05.44,0,.35.17.69.47.87.27.17.73.24,1.01.04.24-.17.44-.3.59-.55.07-.12.13-.24.2-.36.14-.26.21-.55.14-.85-.06-.26-.25-.54-.48-.68-.25-.14-.56-.22-.85-.14-.26.07-.55.23-.68.48h0Z"/>
            <path class="cls-1" d="M91.33,154.26s0-.09.01-.13c.02-.21-.04-.4-.12-.59-.11-.25-.31-.48-.58-.55s-.54-.03-.78.12c-.17.11-.33.23-.43.41-.03.04-.05.09-.07.13-.18.33-.24.74-.04,1.08.14.25.36.44.63.52.26.08.57.05.82-.08.35-.19.53-.53.57-.92h0Z"/>
            <path class="cls-1" d="M145.92,130.92c-.55.46-1.1.91-1.64,1.37-.54.45-1.13.82-1.18,1.57-.03.41.32.7.69.73.71.07,1.23-.53,1.74-.95.55-.46,1.09-.92,1.64-1.38.9-.76-.34-2.09-1.24-1.34h0Z"/>
            <path class="cls-1" d="M141.25,135.65s-.06.02-.09.03c-.1.03-.2.07-.29.11-.05.02-.1.05-.14.09-.14.1-.3.2-.38.36l-.12.26c-.05.14-.06.27-.03.41,0,.09.02.18.06.26.04.13.1.25.2.34.15.15.29.25.5.31.02,0,.04.01.07.02.17.05.28.05.44.05.2,0,.39-.04.57-.13l.24-.17c.15-.14.26-.31.32-.5.05-.15.06-.3.03-.45,0-.15-.04-.29-.12-.42-.07-.14-.16-.25-.28-.33-.11-.11-.24-.18-.39-.22-.2-.06-.39-.07-.59-.02h0Z"/>
            <path class="cls-1" d="M115.52,164.24c-.36.3-.7.66-.93,1.06-.28.49-.3.97-.23,1.51s.84.73,1.18.36c.25-.27.51-.51.73-.81.18-.25.36-.47.6-.67.41-.35.41-1.01.06-1.4-.38-.41-.98-.4-1.4-.06h0Z"/>
          </g>
          <path class="cls-3" d="M101.74,170.89l-.04-.14c-.02-.07-.04-.14-.07-.2-.03-.07-.08-.11-.13-.16l.08.11s-.03-.06-.05-.09c0,0,0-.02-.01-.02-.02-.04-.05-.08-.08-.12-.01-.01-.02-.02-.04-.04-.02-.02-.04-.04-.06-.07-.05-.05-.1-.08-.16-.11-.08-.05-.19-.08-.29-.05l-.09.03c-.06.03-.11.08-.14.13-.02.05-.06.12-.08.17s-.02.1-.03.15v.05s-.01.03-.01.05c0,.06,0,.12.01.18,0,.04.01.07.02.11v-.28c0,.07-.02.14-.02.21,0,.09.01.13.04.21l.05.14c.01.07.05.14.09.19.04.06.09.12.15.15.07.04.14.07.21.08.07.02.15.02.22,0l.14-.05c.09-.05.16-.11.21-.2l.06-.14c.03-.1.03-.2,0-.3h0Z"/>
          <path class="cls-3" d="M108.26,159.78l.03-.13c.02-.06.02-.13.03-.19,0-.07,0-.1,0-.19,0-.02,0-.04,0-.06,0-.06-.03-.12-.05-.17-.02-.04-.03-.08-.05-.12l-.07-.09-.09-.08-.11-.05c-.06-.02-.12-.02-.18-.01-.04,0-.08,0-.11.03-.04,0-.07.03-.1.05-.04.02-.06.04-.08.08-.04.04-.07.1-.09.16-.01.04-.03.08-.04.12,0,0,0,.01,0,.02l-.02.13s0,.02,0,.03c0,.02,0,.05,0,.07,0,.13.04.26.08.38l.04.11c.03.05.06.1.11.13.03.03.06.05.1.06.05.03.11.05.18.05h.12s.07-.04.11-.05c.05-.03.1-.06.13-.11.04-.04.07-.1.09-.16h0Z"/>
          <path class="cls-3" d="M123.07,184.69s.03-.02.05-.04c.02-.01.04-.05.04-.05.03-.03.05-.07.07-.11.02-.04.04-.08.04-.12,0-.03.01-.05.01-.07h0s0,0,0-.01c0-.02,0-.04,0-.06,0-.06-.02-.11-.05-.17l-.07-.09-.09-.07s0,0,0,0c0,0,0,0,0,0s0,0,0,0l-.12-.05-.13-.02h-.12s0,.01,0,.01c-.02,0-.04.01-.06.02-.08.02-.16.06-.22.12-.07.06-.11.13-.14.22l-.02.13c0,.09.02.17.06.24.03.06.07.11.12.14.05.05.1.08.17.1.09.03.17.03.26,0,.08-.02.16-.06.22-.12h0Z"/>
          <path class="cls-3" d="M125.52,181.67c.75.23,1.1-.93.35-1.16s-1.1.93-.35,1.16h0Z"/>
        </g>
      </g>
    </g>
  </g>
</svg>