<?xml version="1.0" encoding="UTF-8"?>
<svg id="Capa_2" xmlns="http://www.w3.org/2000/svg" viewBox="0 0 243.3 243.3">
  <defs>
    <style>
      .cls-1 {
        fill: #fff;
      }

      .cls-2 {
        fill: #9469a0;
      }

      .cls-3 {
        fill: none;
      }

      .cls-4 {
        fill: #e09d3e;
      }

      .cls-5 {
        fill: #b597bd;
      }

      .cls-6 {
        fill: #d2bfd7;
      }

      .cls-7 {
        fill: #4f3535;
      }
    </style>
  </defs>
  <g id="grocery_icons">
    <g>
      <rect class="cls-3" width="243.3" height="243.3"/>
      <g>
        <path class="cls-2" d="M208.23,33.58l-20.96-26.73s-49.12-.78-65.5-.78c-16.38,0-65.5.78-65.5.78l-20.96,26.73s-.52,201.78,2.62,203.35c2.21,1.1,53.47,1.17,83.84,1.12,30.37.06,81.63-.01,83.84-1.12,3.14-1.57,2.62-203.35,2.62-203.35Z"/>
        <path class="cls-7" d="M99.51,209.02s-3.54,8.52-3.14,9.04,7.89,3.35,18.46,3.67c11.5.34,19.54-2.75,19.93-3.54s-2.88-9.17-2.88-9.17h-32.36Z"/>
        <path class="cls-6" d="M56.37,162.96s1.92,22.26,21.59,39.3c18.66,16.16,54.17,16.43,75.82.23,20.63-15.45,22.79-38.16,20.63-42.48-2.16-4.32-15.36-13.86-60.94-13.4s-58.06,9.99-57.1,16.35Z"/>
        <path class="cls-1" d="M192.35,61.83c-5.67-7.47-16.38-8.79-23.99-10-28.4-4.53-58.21-2.43-86.72-.06-10.72.89-24.38,2.06-31.2,13.93-2.02,3.49-1.82,10.44.8,13.52,4.05,4.78,10.48,5.16,16.27,5.8,8.05.89,16.09,1.71,24.17,2.29,15.29,1.09,30.63,1.51,45.97,1.27,14.07-.23,28.58.07,42.22-3.86,4.53-1.28,9.2-3.63,12.03-8.54,3.47-6.03,3.21-10.71.46-14.34Z"/>
        <g>
          <path class="cls-7" d="M74.94,61.76c.13.16.2.37.22.61.02.25-.02.45-.12.61-.16.36-.44.49-.83.39-.69-.16-1.41-.23-2.16-.2-.75.03-1.51.33-2.26.88-.75.56-1.34,1.37-1.77,2.43-.43,1.06-.64,2.17-.64,3.31s.27,2.07.81,2.87c.54.8,1.23,1.38,2.09,1.74.52.23,1.11.36,1.77.39.65.03,1.32,0,1.99-.07.67-.08,1.33-.21,1.99-.39.65-.18,1.28-.38,1.87-.61.2-.06.38-.05.56.05.18.1.3.23.37.39.16.43.08.85-.25,1.28-.39.43-.92.8-1.57,1.13-.66.33-1.38.59-2.16.79s-1.59.3-2.41.32c-.82.02-1.59-.07-2.31-.27-1.02-.26-1.87-.65-2.58-1.15-.7-.51-1.29-1.1-1.74-1.77-.46-.67-.8-1.39-1.03-2.16-.23-.77-.36-1.56-.39-2.38-.07-1.96.32-3.73,1.15-5.3.83-1.57,2-2.73,3.51-3.49,1.11-.56,2.23-.78,3.36-.66,1.13.11,1.97.53,2.53,1.25Z"/>
          <path class="cls-7" d="M96,67.56c.13.33,0,.65-.39.96-.39.31-1.02.52-1.87.61-1.47.2-2.98.4-4.52.61-1.54.21-3.11.43-4.71.66-.07,1.67-.07,3.34,0,5.01.75,0,1.66-.07,2.73-.22,1.06-.15,2.15-.34,3.27-.56,1.11-.23,2.19-.47,3.22-.71s1.91-.45,2.63-.61c.36-.1.74-.17,1.13-.22.39-.05.74-.05,1.06,0,.31.05.56.17.76.37.2.2.29.48.29.83,0,.1-.12.25-.34.44-.23.2-.52.4-.86.61s-.7.41-1.08.59c-.38.18-.71.32-1.01.42-2.03.66-4.03,1.22-5.99,1.69-1.96.47-3.88.73-5.75.76-1.08.03-1.9-.25-2.46-.86-.56-.61-.85-1.48-.88-2.63-.07-1.6-.07-3.22,0-4.86-.56-.33-.83-.79-.83-1.37.07-.62.36-1.05.88-1.28.06-.95.11-1.91.15-2.87.03-.97.08-1.92.15-2.87-.36-.07-.68-.25-.96-.54-.28-.29-.42-.62-.42-.98,0-.29.07-.56.2-.81s.38-.43.74-.56c.59-.13,1.31-.28,2.16-.44.85-.16,1.73-.31,2.63-.44.9-.13,1.77-.25,2.6-.34s1.55-.16,2.14-.2c.69-.07,1.35,0,1.99.2.64.2,1.23.57,1.79,1.13.13.46.04.8-.27,1.03-.31.23-.71.38-1.2.44-.49.07-1.08.14-1.77.22-.69.08-1.4.17-2.14.27-.74.1-1.47.19-2.21.27-.74.08-1.43.17-2.09.27,0,.07,0,.14.02.22.02.08.02.16.02.22-.07.85-.11,1.7-.15,2.55-.03.85-.07,1.7-.1,2.55,1.37-.23,2.78-.43,4.22-.61,1.44-.18,2.59-.3,3.44-.37.69-.07,1.36.02,2.01.25.65.23,1.24.62,1.77,1.18Z"/>
          <path class="cls-7" d="M105.24,78.95c-.1-1.21-.17-2.59-.22-4.12-.05-1.54-.07-3.12-.07-4.74s0-3.22.02-4.79c.02-1.57.06-3,.12-4.27,0-.33.16-.58.47-.76.31-.18.56-.25.76-.22.59.07.99.27,1.2.61.21.34.35.83.42,1.45-.03,1.05-.06,2.1-.07,3.14-.02,1.05,0,2.1.02,3.14,1.47-.26,2.71-.8,3.71-1.62,1-.82,1.71-1.75,2.14-2.8.16-.39.29-.87.37-1.42.08-.56.09-1.12.02-1.69-.07-.57-.22-1.11-.47-1.62-.25-.51-.61-.91-1.1-1.2-.72-.42-1.51-.65-2.36-.69-.85-.03-1.73.09-2.63.37-.9.28-1.78.71-2.65,1.3-.87.59-1.68,1.29-2.43,2.11.1.49.03.93-.2,1.3-.23.38-.56.65-.98.81-.26.07-.57-.07-.93-.42-.36-.34-.54-.69-.54-1.06,0-1.31.37-2.45,1.1-3.41.74-.97,1.66-1.78,2.77-2.43,1.11-.65,2.31-1.15,3.58-1.47,1.28-.33,2.46-.49,3.54-.49,1.6,0,2.95.47,4.03,1.4,1.08.93,1.82,2.1,2.21,3.51.69,2.46.52,4.67-.52,6.63-1.03,1.96-2.71,3.67-5.03,5.11,1.7,1.05,3.3,2.05,4.79,3,1.49.95,2.99,1.98,4.49,3.09.2.2.42.48.66.86.25.38.2.94-.12,1.69-.2.46-.53.71-1.01.76-.48.05-.94-.09-1.4-.42-.72-.59-1.53-1.2-2.43-1.84-.9-.64-1.84-1.28-2.82-1.92-.98-.64-1.96-1.26-2.95-1.87-.98-.61-1.92-1.17-2.8-1.69.03,1.31.06,2.61.07,3.9.02,1.29.06,2.56.12,3.81,0,.46-.13.78-.39.96-.26.18-.59.27-.98.27-.2-.03-.38-.14-.54-.32-.16-.18-.32-.39-.47-.64-.15-.25-.27-.49-.37-.74-.1-.25-.15-.43-.15-.56Z"/>
          <path class="cls-7" d="M138.13,67.56c.13.33,0,.65-.39.96-.39.31-1.02.52-1.87.61-1.47.2-2.98.4-4.52.61-1.54.21-3.11.43-4.71.66-.07,1.67-.07,3.34,0,5.01.75,0,1.66-.07,2.73-.22,1.06-.15,2.15-.34,3.27-.56,1.11-.23,2.19-.47,3.22-.71s1.91-.45,2.63-.61c.36-.1.74-.17,1.13-.22.39-.05.74-.05,1.06,0,.31.05.56.17.76.37.2.2.29.48.29.83,0,.1-.12.25-.34.44-.23.2-.52.4-.86.61s-.7.41-1.08.59c-.38.18-.71.32-1.01.42-2.03.66-4.03,1.22-5.99,1.69-1.96.47-3.88.73-5.75.76-1.08.03-1.9-.25-2.46-.86-.56-.61-.85-1.48-.88-2.63-.07-1.6-.07-3.22,0-4.86-.56-.33-.83-.79-.83-1.37.07-.62.36-1.05.88-1.28.06-.95.11-1.91.15-2.87.03-.97.08-1.92.15-2.87-.36-.07-.68-.25-.96-.54-.28-.29-.42-.62-.42-.98,0-.29.07-.56.2-.81s.38-.43.74-.56c.59-.13,1.31-.28,2.16-.44.85-.16,1.73-.31,2.63-.44.9-.13,1.77-.25,2.6-.34s1.55-.16,2.14-.2c.69-.07,1.35,0,1.99.2.64.2,1.23.57,1.79,1.13.13.46.04.8-.27,1.03-.31.23-.71.38-1.2.44-.49.07-1.08.14-1.77.22-.69.08-1.4.17-2.14.27-.74.1-1.47.19-2.21.27-.74.08-1.43.17-2.09.27,0,.07,0,.14.02.22.02.08.02.16.02.22-.07.85-.11,1.7-.15,2.55-.03.85-.07,1.7-.1,2.55,1.37-.23,2.78-.43,4.22-.61,1.44-.18,2.59-.3,3.44-.37.69-.07,1.36.02,2.01.25.65.23,1.24.62,1.77,1.18Z"/>
          <path class="cls-7" d="M146.09,79.79c-.16.56-.38,1.06-.64,1.5-.26.44-.54.7-.83.76-.62.16-1.1.07-1.42-.29-.33-.36-.46-.82-.39-1.37.26-1.96.69-4.03,1.28-6.21.59-2.18,1.28-4.35,2.06-6.53.79-2.18,1.65-4.29,2.58-6.33.93-2.05,1.89-3.9,2.87-5.57.16-.26.35-.42.56-.47.21-.05.4-.04.56.02.16-.13.36-.25.59-.34.23-.1.46-.15.69-.15.1,0,.2.02.32.05.11.03.24.13.37.29.13.16.29.4.47.71.18.31.4.76.66,1.35.46,1.67.99,3.39,1.6,5.16.61,1.77,1.24,3.54,1.89,5.3.1-.03.19-.06.27-.07.08-.02.17-.04.27-.07.36-.03.77-.02,1.23.05.46.07.77.29.93.69.2.49.16.92-.1,1.28-.26.36-.74.72-1.42,1.08.42,1.05.85,2.07,1.28,3.07.42,1,.87,1.97,1.33,2.92.03.16.08.42.15.76.06.34.11.69.12,1.03.02.34,0,.66-.07.96-.07.29-.2.49-.39.59-.23.1-.47.08-.71-.05-.25-.13-.48-.3-.71-.52-.23-.21-.43-.44-.61-.69-.18-.25-.32-.47-.42-.66-.56-1.08-1.09-2.17-1.6-3.27-.51-1.1-.99-2.2-1.45-3.31-1.38.26-2.87.49-4.49.69-1.62.2-3.22.33-4.79.39-.36,1.24-.71,2.46-1.06,3.66-.34,1.2-.66,2.4-.96,3.61ZM153.06,59.16c-1.51,3.37-2.82,6.74-3.93,10.12,2.19-.07,4.53-.34,7.02-.83-1.18-2.98-2.21-6.07-3.09-9.28Z"/>
          <path class="cls-7" d="M171.18,60c-.16,1.15-.31,2.41-.44,3.81-.13,1.39-.26,2.8-.39,4.22-.13,1.42-.25,2.81-.37,4.15-.12,1.34-.2,2.52-.27,3.54,1.11-.2,2.35-.43,3.71-.69,1.36-.26,2.74-.53,4.15-.81,1.41-.28,2.79-.52,4.15-.74,1.36-.21,2.59-.37,3.71-.47.1,0,.21.03.34.1.26.13.39.34.39.64,0,.43-.08.75-.25.96-.16.21-.36.38-.59.49-.23.12-.47.22-.71.32-.25.1-.47.25-.66.44-1.02.26-2.13.54-3.34.83-1.21.29-2.46.59-3.73.88-1.28.29-2.55.59-3.83.88-1.28.29-2.47.59-3.58.88-1.02.26-1.78.08-2.31-.54-.52-.62-.74-1.64-.64-3.04.16-2.65.36-5.31.59-7.98.23-2.67.51-5.33.83-7.98.06-.56.25-1.01.56-1.38.31-.36.7-.57,1.15-.64.75-.1,1.2.09,1.35.56.15.48.2.99.17,1.55Z"/>
        </g>
        <path class="cls-7" d="M35.83,35.08c5.59.75,11.18.77,16.81.8,5.54.03,11.08.07,16.61.1,11.23.06,22.46.14,33.69.22,22.5.16,45,.43,67.51.5,6.31.02,12.61.04,18.92.05,3.04,0,6.09,0,9.13.01,3.21,0,6.3.16,9.41-.75,1.09-.32,1.1-1.9,0-2.22-2.67-.78-5.23-.76-7.98-.76-2.85,0-5.7,0-8.56-.01-5.54,0-11.07-.02-16.61-.04-11.23-.03-22.46-.06-33.69-.06-22.5,0-45.01-.05-67.51-.05-6.31,0-12.61,0-18.92.02-6.29.01-12.56-.06-18.81.78-.92.12-.92,1.3,0,1.43h0Z"/>
        <path class="cls-7" d="M35.61,34.02c3.49-.7,6.82-1.54,10.2-2.66,3.66-1.21,7.31-2.44,10.92-3.79,3.66-1.37,7.31-2.8,10.92-4.29,1.6-.66,3.21-1.31,4.75-2.09,1.76-.89,3.62-1.35,5.43-2.09.94-.39,1.39-1.79.31-2.36-3.5-1.85-6.94-3.8-10.43-5.67-1.76-.94-3.53-1.85-5.35-2.69s-3.97-2.06-6.1-2.02c-1.05.02-1.73,1.4-.9,2.16,1.53,1.4,3.68,1.99,5.55,2.85,1.88.86,3.74,1.78,5.59,2.72,3.51,1.79,6.97,3.57,10.65,5l-.31-2.36c-1.66.89-3.15,1.98-4.94,2.63s-3.51,1.41-5.26,2.12c-3.63,1.47-7.28,2.87-10.95,4.22-3.61,1.33-7.21,2.7-10.84,4.02-3.23,1.17-6.28,2.49-9.39,3.95-.2.09-.05.38.14.34h0Z"/>
        <path class="cls-7" d="M207.57,33.94c-3.12-1.47-6.2-2.8-9.44-3.99-3.65-1.34-7.28-2.74-10.92-4.11-3.62-1.35-7.23-2.75-10.81-4.22-1.8-.74-3.58-1.52-5.41-2.19-1.82-.67-3.36-1.78-5.05-2.7l-.31,2.37c3.68-1.43,7.13-3.22,10.64-5.01,1.77-.9,3.55-1.78,5.35-2.61,1.93-.89,4.19-1.5,5.78-2.95.83-.76.16-2.15-.9-2.16-2.06-.03-4.03,1.07-5.86,1.91-1.89.87-3.74,1.82-5.58,2.8-3.49,1.86-6.94,3.81-10.44,5.66-1.09.57-.64,1.98.31,2.37,1.77.72,3.62,1.16,5.33,2.03,1.59.81,3.24,1.49,4.89,2.18,3.64,1.52,7.32,2.97,11.01,4.38s7.17,2.59,10.79,3.81,6.88,2.06,10.47,2.78c.19.04.34-.24.14-.34h0Z"/>
        <path class="cls-7" d="M166.74,18.77c-.23-.54-.22-1.24.03-1.81-.32,0-.64,0-.96,0-3.44,0-6.88.01-10.32.02-7.35.01-14.7.02-22.04.04-15.11.02-30.21,0-45.32.11-4.26.03-8.52.06-12.77.13.09.54.01,1.12-.23,1.58-.09.17-.2.3-.32.43,10.93.26,21.88.16,32.81.18,15.1.02,30.19.05,45.29.07,3.9,0,7.81.01,11.71.02.89,0,1.77,0,2.66,0-.23-.22-.42-.49-.54-.77Z"/>
        <path class="cls-7" d="M172.66,156.8c-3.14-2.93-7.35-4.55-11.37-5.87-2.73-.9-5.48-1.69-8.31-2.24-2.85-.55-5.74-.9-8.63-1.19-6.91-.7-13.87-1.23-20.83-1.47-2.27-.16-4.56-.16-6.83-.14-2.31-.02-4.63,0-6.93.05-1.32.03-2.61.1-3.91.24-5.75.28-11.49.67-17.22,1.2-3.05.28-6.1.6-9.12,1.15-2.94.53-5.8,1.32-8.65,2.22-4.28,1.35-8.85,3.04-12.14,6.21-1.48,1.43-2.65,3.24-2.95,5.31-.41,2.77.81,5.4,2.69,7.39,3.32,3.52,8.39,4.94,12.87,6.33,10.07,3.14,20.74,4.14,31.27,4.51,1.2.08,2.4.1,3.61.13,2.46.06,4.92.08,7.38.09,2.81.01,5.62,0,8.43-.05.64,0,1.28,0,1.93,0,1.34,0,2.68.03,4.01-.14,11.39-.4,22.87-1.47,33.75-5.03,4.26-1.39,9.02-2.88,11.96-6.49,1.64-2.02,2.57-4.55,2.05-7.16-.39-1.96-1.6-3.69-3.04-5.03ZM173.14,165.67c-1.84,4.12-6.74,5.71-10.71,6.91-5.06,1.54-10.17,2.69-15.41,3.42-5.46.76-10.96,1.08-16.46,1.31-2.13.09-4.26.16-6.39.21-.84,0-1.67.01-2.51.02-3.91.02-7.82.04-11.73,0-1.05,0-2.11-.03-3.17-.04-1.28-.03-2.55-.06-3.83-.1-.29-.01-.57,0-.85,0-7.86-.25-15.73-.88-23.43-2.38-2.74-.54-5.44-1.22-8.11-2.02-2.2-.66-4.43-1.29-6.52-2.28-1.98-.94-3.9-2.21-5.1-4.1-1.31-2.07-1.35-4.44-.04-6.5,2.14-3.38,6.44-5.21,10.05-6.53,5.41-1.97,11.29-2.76,16.98-3.51,10.03-1.32,20.14-2.08,30.25-2.12,1.95.01,3.89.04,5.84.1,5.51.17,10.98.61,16.46,1.17,5.49.56,10.97,1.26,16.38,2.34,2.68.54,5.3,1.1,7.87,2.04,1.81.66,3.59,1.44,5.26,2.4,3.37,1.94,7.08,5.38,5.18,9.65Z"/>
        <path class="cls-4" d="M172.96,152.68c-2.31-6.55-7.85-7.98-9.21-8.24.27-3.43-1.35-7.2-4.48-8.56-2.53-1.1-5.67-.99-8.22.24-.73-6.91-3.85-13.83-10.8-15.88-3.41-1.01-7.05-.56-9.84,1.81-2.1,1.79-3.47,4.37-4.14,7.11-1.93-1.91-4.49-3.12-7.21-3.28-.91-.05-1.81.04-2.7.23-.6-2.43-1.68-4.76-3.23-6.69-2.92-3.66-7.39-5.56-11.95-5.2-9.44.75-12.92,9.14-13.64,18.32-4.61.39-9.52,1.65-12.67,5.33-2.66,3.11-3.86,7.65-2.29,11.5-6.59,4.4-12.31,11.3-12.86,19.32.25.27.49.55.73.82.54.6,1.1,1.17,1.68,1.72-.01-.27-.03-.54-.03-.81,7.01,5.02,16.16,5.79,24.39,6.7,9.97,1.09,19.96,2,29.98,2.23,9.87.23,19.86-.4,29.61-2,4.79-.78,9.65-1.91,14.25-3.51,3.96-1.38,9.4-1.86,11.61-5.59,2.31-3.9,2.91-10.17,1-15.59Z"/>
        <path class="cls-7" d="M175.65,161.63c-.69,1.2-1.47,2.34-2.3,3.45-.07.2-.11.4-.21.6-1.84,4.12-6.74,5.71-10.71,6.91-5.06,1.54-10.17,2.69-15.41,3.42-5.46.76-10.96,1.08-16.46,1.31-2.13.09-4.26.16-6.39.21-.84,0-1.67.01-2.51.02-3.91.02-7.82.04-11.73,0-1.05,0-2.11-.03-3.17-.04-1.28-.03-2.55-.06-3.83-.1-.29-.01-.57,0-.85,0-7.86-.25-15.73-.88-23.43-2.38-2.74-.54-5.44-1.22-8.11-2.02-2.2-.66-4.43-1.29-6.52-2.28-1.98-.94-3.9-2.21-5.1-4.1-1.31-2.07-1.35-4.44-.04-6.5.77-1.21,1.82-2.22,3.02-3.09-.23-.69-.44-1.4-.64-2.1-.9.6-1.76,1.27-2.54,2.02-1.48,1.43-2.65,3.24-2.95,5.31-.41,2.77.81,5.4,2.69,7.39,3.32,3.52,8.39,4.94,12.87,6.33,10.07,3.14,20.74,4.14,31.27,4.51,1.2.08,2.4.1,3.61.13,2.46.06,4.92.08,7.38.09,2.81.01,5.62,0,8.43-.05.64,0,1.28,0,1.93,0,1.34,0,2.68.03,4.01-.14,11.39-.4,22.87-1.47,33.75-5.03,4.26-1.39,9.02-2.88,11.96-6.49,1.64-2.02,2.57-4.55,2.05-7.16-.01-.07-.04-.14-.06-.2Z"/>
        <path class="cls-7" d="M79.67,164.17c1.3-.93,3.09-1.23,4.54-.59.72.32,1.25.75,1.74,1.36-.07-.09.07.1.08.12.06.09.12.17.17.26.11.18.21.36.31.54.04.07.07.15.11.23-.06-.14.04.09.04.12.13.35.25.6.51.88.53.57,1.69.33,1.84-.49.21-1.17-.6-2.36-1.37-3.18-.74-.79-1.68-1.38-2.71-1.74-2.13-.73-4.53-.19-6.23,1.23-.69.57.23,1.78.97,1.25h0Z"/>
        <path class="cls-7" d="M89.64,148.65c.84-1.62,2.78-2.25,4.41-2.01.97.14,1.9.59,2.66,1.19.41.32.79.7,1.13,1.1.39.44.82.78,1.23,1.2.65.67,1.98-.01,1.63-.95-.11-.29-.22-.59-.33-.88-.16-.42-.41-.74-.71-1.07-.47-.53-1.01-1-1.58-1.42-1.15-.85-2.5-1.39-3.93-1.53-2.57-.26-5.19,1.31-6.12,3.71-.36.93,1.15,1.55,1.61.68h0Z"/>
        <path class="cls-7" d="M113.21,173.22c.67-1.77,2.36-3.11,4.22-3.4.92-.14,1.88,0,2.74.33.96.37,1.69,1.1,2.57,1.61.61.35,1.58-.25,1.29-.99-1-2.59-4.6-3.42-7.07-2.99-2.61.46-4.76,2.46-5.63,4.92-.18.5.2,1.07.68,1.2.55.15,1.01-.19,1.2-.68h0Z"/>
        <path class="cls-7" d="M106.98,160.93c.05-.12.11-.23.17-.34.03-.05.08-.11.11-.16-.09.2-.08.09,0,.01.08-.1.18-.18.27-.27.17-.15-.2.14-.02.01.05-.04.11-.07.16-.1s.11-.06.17-.09l.06-.03c.11-.05.08-.04-.09.04.12-.01.25-.09.36-.11s.26.02-.06,0c.05,0,.11-.01.17-.01.15,0,.29,0,.44.02l-.32-.04c.15.02.31.05.46.09.09.02.17.05.26.08.23.07-.28-.14-.02,0,.36.17.67.44,1.07.54.84.2,1.62-.54,1.4-1.4s-1.08-1.32-1.85-1.55c-.64-.19-1.36-.18-2,0-1.22.37-2.19,1.34-2.54,2.57-.13.48.13.98.57,1.17.41.17,1.04.05,1.24-.41h0Z"/>
        <path class="cls-7" d="M108.64,135.05c-.14.18.1-.1.11-.11.07-.07.14-.14.21-.21s.15-.13.22-.2c-.19.15.11-.07.13-.08.17-.11.34-.2.52-.29.33-.17-.21.06.13-.06.09-.03.19-.07.28-.09.21-.06.42-.11.64-.15-.19.03-.03,0,.07,0,.1,0,.2-.01.3-.01.12,0,.24,0,.36.01.25,0-.08-.03.07,0,.21.05.42.09.63.16.03.01.32.13.17.06s.13.07.16.08c.19.1.36.22.54.34.12.08-.13-.12.05.05.09.08.17.16.26.24.14.13.27.27.4.42.24.27-.12-.2.08.1.05.08.11.16.16.24.11.18.21.37.3.57-.18-.39.45.85.29.49,0,0,.13.29.07.16.04.11.08.22.11.33.12.41.5.71.93.71.39,0,.87-.3.93-.71.04-.3.12-.64.09-.95,0-.13,0-.15-.01-.06-.04.16-.02.07.03-.27,0-.21-.04-.41-.1-.61-.19-.56-.45-1.1-.81-1.59-.74-1.01-1.74-1.75-2.94-2.13-2.43-.75-5.06.3-6.53,2.3-.4.55-.09,1.4.45,1.71.65.38,1.3.09,1.71-.45h0Z"/>
        <path class="cls-7" d="M128.64,152.71c.16-.2.32-.39.51-.56.04-.03.08-.07.11-.1.01-.01.21-.17.06-.05s.03-.02.07-.04c.05-.04.1-.07.16-.1.21-.13.43-.22.64-.34-.25.14-.12.05-.04.02.06-.02.12-.04.18-.06.12-.04.24-.07.37-.1.11-.03.22-.05.34-.07.21-.04.02.03-.06,0,.05.01.14-.01.19-.02.24-.02.48-.02.72,0,.06,0,.13.01.19.02.16.01-.29-.05-.07,0,.12.03.25.05.37.08.41.09.8.09,1.2.01.64-.12,1.05-1.06.65-1.6-.3-.4-.68-.73-1.18-.85-.35-.08-.72-.12-1.08-.14-.63-.02-1.29.07-1.9.25-1.3.39-2.4,1.2-3.17,2.31-.32.46-.12,1.12.29,1.44s1.12.35,1.46-.09h0Z"/>
        <path class="cls-7" d="M130.29,139.63c.78-.6,1.57-1.19,2.44-1.65.72-.37,1.47-.61,2.21-.59.1,0,.2.01.29.01.15,0,.11,0-.02-.01.19.03.39.07.58.13.09.03.19.07.28.09.15.03-.18-.1.04.02.17.09.33.19.5.29.21.13-.06-.09.03.02.05.07.15.13.2.19.05.05.1.11.15.17-.22-.24,0,.01.03.07.09.13.2.25.29.38-.18-.26-.03-.03,0,.03.13.24.28.44.46.65.63.73,1.7.24,1.98-.52.47-1.28-.51-2.55-1.48-3.26-.87-.64-1.96-.97-3.04-1.01-2.46-.09-4.57,1.72-6.25,3.3-.39.36-.41,1-.08,1.41.3.37.96.61,1.38.28h0Z"/>
        <path class="cls-5" d="M146.43,156.21c1.28-.19,2.57-.52,3.88-.41.95.08,1.8.25,2.64.71.57.3,1.11.78,1.49,1.35.12-.02.21-.03.21-.03,0,0,27.23-41.27,26.86-48.43-.37-7.17-6.42-4.07-10.48,2.51-3.76,6.09-22.01,39.38-24.74,44.36l.13-.06Z"/>
        <path class="cls-7" d="M144.45,157.84c.49-.8,2.33-.61,3.1-.53,1.24.12,2.51.57,3.57,1.21,1.02.62,1.89,1.48,2.53,2.49.35.56.67,1.16.94,1.77.28.65.49,1.24.98,1.77.62.67,1.55.23,1.84-.49.64-1.56-.44-3.68-1.33-4.93-1.04-1.46-2.39-2.7-4-3.49-1.63-.8-3.44-1.19-5.26-1.07-1.62.1-3.61.47-4.42,2.06-.7,1.37,1.25,2.53,2.07,1.21h0Z"/>
        <path class="cls-7" d="M142.99,171.12c.08-.09.16-.17.25-.25l-.29.22c.12-.09.25-.17.39-.23l-.35.15c.17-.07.34-.11.51-.14l-.41.06c.22-.03.44-.05.66-.08l-.42.06c.19-.02.38-.02.57,0l-.42-.06c.17.03.33.07.48.13l-.38-.16c.18.08.37.17.56.22.07.02.14.04.21.07l-.36-.15h.03c.17.12.36.18.55.19.21.03.4.01.62-.03l.35-.15c.17-.09.31-.22.41-.38.2-.25.32-.56.31-.89,0-.51-.27-.96-.64-1.29-.3-.27-.64-.45-1.03-.56-.48-.13-.96-.14-1.45-.08-.14.02-.27.03-.4.08-.19.07-.37.15-.55.23-.13.06-.25.14-.36.22-.42.31-.8.67-1.03,1.14-.16.32-.25.7-.14,1.06.09.29.25.53.49.72s.53.31.83.3c.35-.02.74-.13.97-.4h0Z"/>
        <path class="cls-1" d="M93.47,157.24c1.52,0,1.53-2.37,0-2.37s-1.53,2.37,0,2.37h0Z"/>
        <path class="cls-1" d="M102.35,125.2c2.29,0,2.29-3.56,0-3.56s-2.29,3.56,0,3.56h0Z"/>
        <path class="cls-1" d="M118.09,149.41c2.5,0,2.51-3.89,0-3.89s-2.51,3.89,0,3.89h0Z"/>
        <path class="cls-1" d="M79.73,145.44c2.18,0,2.19-3.39,0-3.39s-2.19,3.39,0,3.39h0Z"/>
        <path class="cls-1" d="M138.41,130.8c2.13,0,2.13-3.31,0-3.31s-2.13,3.31,0,3.31h0Z"/>
        <path class="cls-1" d="M165.32,158.1c2.27,0,2.27-3.53,0-3.53s-2.27,3.53,0,3.53h0Z"/>
        <path class="cls-1" d="M133.55,162.81c1.33,0,1.33-2.06,0-2.06s-1.33,2.06,0,2.06h0Z"/>
      </g>
    </g>
  </g>
</svg>