<?xml version="1.0" encoding="UTF-8"?>
<svg id="Capa_2" xmlns="http://www.w3.org/2000/svg" viewBox="0 0 243.3 243.3">
  <defs>
    <style>
      .cls-1 {
        fill: #a36545;
      }

      .cls-2 {
        fill: #fff;
      }

      .cls-3 {
        fill: none;
      }

      .cls-4 {
        fill: #feb672;
      }

      .cls-5 {
        fill: #4f3535;
      }
    </style>
  </defs>
  <g id="grocery_icons">
    <g>
      <rect class="cls-3" width="243.3" height="243.3"/>
      <g>
        <path class="cls-1" d="M84.55,5.92c-21.01-3.57-45.72-1.1-52.63,0s-11.16,1.65-11.16,1.65v15.39c0,3.85,6.38,22.54,7.44,28.59,1.06,6.05-1.28,136.2-1.06,146.23.27,12.09,1.59,18.69,1.59,18.69,0,0-6.65,12.92-5.58,17.32,1.06,4.4,203.89,4.67,203.36,1.37-.53-3.3-7.44-15.94-5.32-18.69,2.13-2.75,4.25-48.38-1.06-87.96-5.32-39.58-3.19-79.16-.53-84.66,2.66-5.5,10.1-20.89,11.16-24.19s2.13-13.19-.53-14.29-23.81-2.61-49.44,1.65c-29.77,4.95-54.23,6.05-96.23-1.1Z"/>
        <path class="cls-5" d="M20.46,25.76c27.24-6.56,54.39,1.47,81.46,4.85,6.91.86,13.86,1.39,20.82,1.25,7.08-.14,14.14-.88,21.17-1.75,13.35-1.65,26.65-3.71,40.01-5.28,14.87-1.75,29.87-2.98,44.85-2.22,2.81.14,2.8-4.37,0-4.51-26.88-1.36-53.62,3.45-80.19,6.93-7.02.92-14.06,1.79-21.13,2.18-7.09.39-14.16.15-21.22-.57-13.79-1.41-27.37-4.45-41.12-6.18-15.03-1.9-30.81-2.37-45.3,2.86-1.48.54-.9,2.83.65,2.45h0Z"/>
        <path class="cls-5" d="M27.05,224.43c12.44-.79,24.86-1.46,37.33-1.21,6.2.12,12.39.49,18.59.68s12.7.09,19.05-.14c25.12-.9,50.23-1.85,75.35-2.83,14.2-.55,28.39-1.11,42.59-1.66,2.78-.11,2.8-4.59,0-4.48-25.21.92-50.43,1.85-75.64,2.82-12.71.49-25.41.97-38.12,1.46-6.26.24-12.52.5-18.78.55-6.3.06-12.6-.19-18.91-.29-13.95-.22-27.99.3-41.81,2.37-1.51.23-1.16,2.85.36,2.75h0Z"/>
        <path class="cls-5" d="M35.25,7.15c-.07,2.31.04,4.63.06,6.94,0,1.16-.02,2.31-.02,3.47s-.1,2.32.28,3.37c.16.44.86.68,1.09.15.45-1.03.43-2.14.47-3.25.04-1.2.02-2.41.01-3.61-.02-2.36-.05-4.73-.34-7.07-.12-.99-1.51-1.06-1.54,0h0Z"/>
        <path class="cls-5" d="M47.67,5.1c-.11,2.61-.2,5.23-.14,7.85.03,1.31.08,2.62.14,3.92.06,1.21,0,2.64.35,3.8.18.6,1.15.7,1.28,0,.22-1.22.04-2.57,0-3.8-.04-1.31-.07-2.62-.08-3.92-.02-2.62-.08-5.23-.05-7.85.01-1-1.45-.99-1.49,0h0Z"/>
        <path class="cls-5" d="M62.17,5.92c0,1.52,0,3.05,0,4.57,0,.75.02,1.5.05,2.24.02.41.05.82.12,1.23s.15.83.35,1.16c.29.49,1.07.56,1.35,0,.33-.66.34-1.57.32-2.3-.02-.77-.07-1.56-.13-2.33-.12-1.52-.25-3.05-.37-4.57-.09-1.1-1.68-1.13-1.68,0h0Z"/>
        <path class="cls-5" d="M75.23,6.47c-.23,2.81-.37,5.61-.42,8.43-.02,1.38-.02,2.76.03,4.14.04,1.23-.12,3,.56,4.06.32.49,1.02.54,1.33,0,.62-1.06.42-2.7.43-3.9.02-1.43.02-2.86.02-4.29,0-2.81,0-5.62,0-8.43,0-1.32-1.86-1.28-1.96,0h0Z"/>
        <path class="cls-5" d="M106.01,10.87c-.18,2.68-.2,5.34-.05,8.02s.39,5.35,1.17,7.86c.24.79,1.44.68,1.43-.2-.02-2.61-.37-5.22-.54-7.82s-.25-5.25-.25-7.87c0-1.18-1.68-1.16-1.76,0h0Z"/>
        <path class="cls-5" d="M129.06,13.07c-.29,2.6-.53,5.24-.54,7.86,0,1.29,0,2.57.09,3.86s.15,2.6.78,3.76c.31.56,1.05.37,1.24-.17.43-1.21.31-2.47.3-3.74s-.08-2.57-.09-3.86c-.03-2.57-.07-5.14.03-7.71.05-1.22-1.67-1.16-1.79,0h0Z"/>
        <path class="cls-5" d="M145.74,11.97c-.03,1.84-.08,3.69-.05,5.53.01.89,0,1.78.04,2.66.04.98.07,2.1.72,2.87.39.47,1.03.24,1.33-.18.52-.72.45-1.84.43-2.69-.02-.92-.09-1.84-.14-2.76-.09-1.81-.26-3.62-.41-5.43-.1-1.26-1.91-1.3-1.93,0h0Z"/>
        <path class="cls-5" d="M182.4,7.89c-.34,2.51-.54,5.05-.36,7.59.09,1.27.23,2.53.42,3.78.17,1.11.3,2.83,1.2,3.59.39.33,1.15.41,1.4-.19.48-1.15.03-2.49-.18-3.68s-.37-2.33-.47-3.51c-.22-2.44-.35-4.89-.26-7.34.04-1.01-1.61-1.28-1.75-.24h0Z"/>
        <path class="cls-5" d="M195.83,6.19c.02,2.48.1,4.95.21,7.43.06,1.22.1,2.43.18,3.65s0,2.65.67,3.7c.35.55,1.26.67,1.58,0,.53-1.11.35-2.37.3-3.56-.06-1.26-.17-2.53-.26-3.79-.18-2.49-.4-4.96-.67-7.43-.14-1.3-2.03-1.37-2.01,0h0Z"/>
        <path class="cls-5" d="M210.43,5.37c-.24,2.38-.45,4.75-.5,7.14-.03,1.17-.08,2.34-.02,3.51s-.04,2.5.52,3.52c.28.51,1.11.56,1.38,0,.48-1.03.36-2.26.39-3.38.03-1.21-.02-2.43-.02-3.64,0-2.38-.05-4.76-.04-7.14,0-1.15-1.58-1.1-1.69,0h0Z"/>
        <path class="cls-5" d="M41.25,222.22c-.46,1-.43,2.19-.46,3.28s-.03,2.23-.05,3.35-.02,2.23-.01,3.35-.1,2.36.37,3.36c.23.5,1.05.5,1.29,0,.47-1.01.37-2.27.37-3.36s0-2.23-.01-3.35-.01-2.23-.05-3.35,0-2.28-.46-3.28c-.18-.39-.82-.39-1,0h0Z"/>
        <path class="cls-5" d="M51.28,221.69c.03,2.21.11,4.41.31,6.61.1,1.1.2,2.21.37,3.3.16,1.04.21,2.35.84,3.21.44.6,1.27.54,1.53-.21.35-.99.06-2.18-.04-3.2-.11-1.08-.26-2.15-.38-3.23-.24-2.16-.51-4.32-.71-6.48-.12-1.24-1.93-1.3-1.91,0h0Z"/>
        <path class="cls-5" d="M70.45,221.15c.19,2.52.32,5.04.45,7.56.06,1.24.08,2.48.15,3.72s-.06,2.76.56,3.81c.38.65,1.35.69,1.72,0,.61-1.11.43-2.72.4-3.96s-.14-2.48-.23-3.72c-.2-2.59-.54-5.15-.94-7.71-.19-1.23-2.2-.95-2.11.3h0Z"/>
        <path class="cls-5" d="M104.83,222.24l-.16,3.79c-.03.62-.04,1.24-.03,1.86.02.74.02,1.57.57,2.11.34.33.85.33,1.19,0,.54-.52.55-1.32.57-2.04.02-.65,0-1.28-.03-1.93l-.16-3.79c-.05-1.31-1.91-1.31-1.96,0h0Z"/>
        <path class="cls-5" d="M132.09,220.32c0,2.67.06,5.33.22,8,.08,1.31.16,2.61.26,3.92s.1,2.87.73,3.96c.45.76,1.46.54,1.73-.23.4-1.14.12-2.69.02-3.87-.11-1.31-.22-2.61-.31-3.92-.19-2.62-.41-5.23-.6-7.85-.1-1.34-2.05-1.38-2.05,0h0Z"/>
        <path class="cls-5" d="M164.26,221.43c-.29,2.59-.42,5.19-.18,7.78.12,1.31.3,2.62.54,3.91.22,1.22.43,2.67,1.22,3.64.45.56,1.55.29,1.65-.45.18-1.26-.3-2.62-.54-3.85-.23-1.17-.41-2.34-.54-3.52-.28-2.49-.43-5-.32-7.5.06-1.24-1.7-1.18-1.83,0h0Z"/>
        <path class="cls-5" d="M177.28,221.42c0,2.38,0,4.75.03,7.13.02,1.14,0,2.29.05,3.43s.01,2.56.75,3.53c.37.49,1.06.23,1.34-.18.61-.89.48-2.31.47-3.35,0-1.19-.08-2.38-.12-3.56-.08-2.33-.2-4.67-.31-7-.07-1.46-2.21-1.48-2.21,0h0Z"/>
        <path class="cls-5" d="M198.6,219.24c.36,2.55.6,5.11.79,7.68.09,1.26.17,2.53.22,3.79s-.11,2.76.73,3.77c.44.54,1.17.26,1.51-.2.76-1.03.4-2.81.31-4.01-.09-1.27-.2-2.53-.34-3.79-.29-2.62-.7-5.24-1.19-7.83-.11-.58-.78-.91-1.3-.76-.61.17-.82.76-.74,1.34h0Z"/>
        <path class="cls-5" d="M211.24,219.77c.11,2.67.22,5.34.39,8,.09,1.31.14,2.62.26,3.93.12,1.27.09,2.84.68,3.98.42.81,1.54.54,1.79-.24.38-1.16.1-2.69.01-3.89-.09-1.31-.24-2.62-.37-3.93-.25-2.62-.56-5.24-.87-7.85-.14-1.21-1.95-1.29-1.9,0h0Z"/>
        <path class="cls-5" d="M204.18,208.1c2.11.33,4.23.53,6.36.56,1.04.01,2.08,0,3.12-.07s2.26-.13,3.17-.62c.61-.33.47-1.36-.19-1.52-.93-.23-2.03-.04-2.97,0-1,.05-2,.11-3,.11-1.99,0-3.98-.13-5.95-.42-.52-.08-1.05.13-1.21.71-.13.48.16,1.17.69,1.25h0Z"/>
        <path class="cls-5" d="M208.98,200.18c.75.14,1.49.29,2.24.42.37.07.75.11,1.13.17.43.06.84.12,1.27.11.39-.01.71-.3.77-.7.06-.43-.19-.73-.56-.88-.67-.29-1.43-.44-2.15-.57l-2.19-.42c-.48-.09-1.04.14-1.16.68-.1.48.14,1.1.66,1.19h0Z"/>
        <path class="cls-5" d="M32.89,34.33c1.15-.21,2.2-.34,3.41-.41.6-.04,1.2-.07,1.8-.1.63-.04,1.29,0,1.9-.2.34-.11.6-.4.64-.77.04-.33-.1-.78-.43-.92-.38-.17-.73-.25-1.14-.3-.32-.04-.65-.05-.97-.07-.63-.04-1.24-.03-1.87.01-1.32.08-2.64.25-3.94.49-.59.11-.97.88-.8,1.45.21.66.77.94,1.4.82h0Z"/>
        <path class="cls-5" d="M36.56,41.1c.47-.02.95-.03,1.42-.05l.71-.03c.29-.01.57-.05.86-.12.31-.07.57-.43.56-.76s-.22-.68-.56-.76c-.29-.07-.57-.11-.86-.12l-.71-.03-1.42-.05c-.48-.02-.94.45-.92.95s.41.97.92.95h0Z"/>
        <path class="cls-2" d="M38.18,64.4c.05-.01.11-.02.16-.03l-.42.06c.19-.02.38-.02.57,0l-.43-.06c.23.03.44.09.68.1.09,0,.18.01.27.02l-.43-.06c.07.01.15.02.22.04.03,0,.06.02.09.03.37.1.52.06.9,0l-.42.06s.04,0,.06,0c.28,0,.54-.07.78-.22.23-.14.41-.33.55-.57.27-.47.3-1.13,0-1.6-.18-.29-.39-.55-.69-.71-.18-.09-.37-.17-.56-.25-.27-.11-.56-.18-.86-.17s-.58.05-.86.12-.54.19-.8.31c-.18.1-.33.24-.44.41-.14.16-.23.34-.28.55l-.06.43c0,.22.04.43.13.62.04.14.1.25.2.35.11.17.25.31.44.41l.37.16c.28.08.55.08.83,0h0Z"/>
        <path class="cls-2" d="M37.35,72.52l1.45-.44c.24-.07.48-.14.71-.21.2-.07.43-.18.61-.3.36-.22.51-.54.66-.92l.04-.32c0-.17-.03-.32-.1-.46-.1-.25-.26-.41-.47-.57-.67-.49-1.5-.18-2.21.04-.47.14-.95.29-1.42.43-.34.1-.65.34-.83.66s-.25.76-.14,1.1.32.68.64.86.7.25,1.07.14h0Z"/>
        <path class="cls-2" d="M209.22,182.51l.59.06.28.03s.09.01.14.01c.24.02.54-.09.74-.21.12-.07.22-.16.32-.25.13-.13.23-.28.28-.45.09-.17.12-.35.12-.54l-.05-.37c-.06-.24-.18-.45-.35-.62-.1-.09-.2-.18-.31-.24-.23-.14-.33-.16-.56-.19-.12-.02-.15-.03-.25-.02h-.07c-.1.02-.2.03-.29.03l-.59.06c-.18,0-.35.03-.51.12-.16.05-.3.15-.42.28-.13.12-.22.27-.27.44-.08.16-.12.34-.11.52l.05.36c.06.23.18.43.34.6l.27.21c.21.12.43.19.67.19h0Z"/>
        <g>
          <path class="cls-4" d="M184.22,157.8s10.6-15.48.42-35.41c-10.18-19.93-27.77-36.25-59.57-33.07s-63.18,38.8-58.94,66.36c4.24,27.56,23.32,55.28,37.95,54.27,12.3-.85,48.97-30.95,60.63-38.16,11.66-7.21,18.23-12.08,19.5-13.99Z"/>
          <path class="cls-5" d="M101.29,210.9c1.89.22,3.9.14,5.67-.61,2.01-.85,3.85-2.52,5.13-4.26,3.29-4.49,3.91-10.14,4.33-15.53s1.37-10.15,3.8-14.83c4.48-8.6,12.45-14.99,21.9-17.23,5.64-1.34,11.55-1.28,17.27-.5,2.99.4,5.95,1.02,8.87,1.75,2.77.69,5.53,1.55,8.4,1.66,5.51.21,9.38-3.22,11.44-8.06,1.75-4.1,2.56-9.05,1.75-13.47-.31-1.67-1.13-5.13-1.11-3.55.11,10.07-3.26,21.52-11.66,21.48-2.75-.01-5.43-.93-8.07-1.59-2.72-.67-5.47-1.23-8.24-1.63-5.55-.8-11.14-.99-16.69-.1-9.66,1.55-18.14,6.87-23.92,14.72-2.67,3.63-4.68,7.79-5.82,12.15-1.43,5.49-.89,11.17-1.91,16.7-.82,4.46-3.07,10.14-8.19,10.84-4.31.59-13.74-4.94-16.94-7.75-.6-.53,1.74,2.86,3.07,4.19,2.05,2.05,7.29,5.19,10.92,5.61Z"/>
          <path class="cls-5" d="M105.47,210.61c3.01-.99,5.94-1.94,8.83-3.28,2.92-1.35,5.76-2.85,8.52-4.5,5.49-3.28,10.72-6.96,15.89-10.72s9.87-7.19,14.89-10.67c5.13-3.55,10.3-7.05,15.35-10.73,5.79-4.22,11.43-8.68,16.6-13.65,1.3-1.25-.68-3.22-1.97-1.97-9.03,8.69-19.44,15.7-29.73,22.79-10.04,6.92-19.47,14.72-29.74,21.31-2.94,1.89-5.95,3.69-9.02,5.35-1.59.86-3.21,1.67-4.85,2.43s-3.35,1.7-5.11,2.37c-.77.29-.47,1.53.35,1.26h0Z"/>
          <path class="cls-5" d="M80.4,141.17c-1.4,1.99-1.25,4.88.22,6.78.86,1.11,2.26,2.01,3.72,1.56,1.28-.4,2.21-1.63,2.39-2.93.12-.83,0-1.66-.27-2.45-.14-.41-.32-.81-.51-1.2s-.53-.88-.94-1.09c-.69-.35-1.34.1-1.42.82-.04.3.08.6.17.87.06.19.14.37.23.54.02.05.05.11.08.16.01.02.11.25.05.11.1.23.18.48.25.72.03.11.06.23.08.34,0,.03.05.26.03.13-.01-.1,0,.12.01.14,0,.14,0,.27,0,.41,0,.22.04-.15,0,.07-.02.11-.05.22-.08.32-.01.05-.03.09-.05.14.03-.1.06-.12,0-.01-.05.1-.11.19-.17.29-.03.04-.05.08-.08.12.03-.04.15-.16,0-.02-.06.06-.14.13-.2.19,0-.01.16-.11.05-.04-.06.04-.13.08-.19.12-.17.11.15-.03-.05.03-.05.01-.12.03-.17.05.02,0,.21,0,.08-.01-.07,0-.34-.04-.14.01-.05-.01-.1-.02-.16-.04-.02,0-.22-.08-.12-.04.12.05-.08-.05-.11-.06-.05-.03-.09-.06-.14-.09,0,0-.15-.11-.06-.04s-.05-.04-.06-.05c-.09-.08-.18-.16-.26-.25-.03-.03-.06-.07-.1-.1-.02-.02-.19-.22-.09-.1.08.1-.08-.11-.1-.15-.06-.09-.12-.18-.17-.28-.05-.08-.09-.16-.13-.25-.03-.06-.05-.11-.08-.17.04.09.05.12,0,.01-.07-.19-.13-.39-.17-.58-.02-.11-.04-.22-.06-.32.05.24,0-.08-.01-.17-.02-.23-.01-.47,0-.7,0-.05,0-.09.01-.14-.01.16-.02.09,0-.03.02-.11.04-.21.07-.32.03-.12.07-.24.11-.36.01-.04.03-.09.05-.13.05-.16-.11.23.01-.03.11-.23.23-.44.37-.65.33-.48.11-1.26-.4-1.52-.57-.3-1.17-.11-1.52.4h0Z"/>
          <path class="cls-5" d="M91.01,119.61c-.28.78-.55,1.62-.51,2.46s.4,1.63,1.09,2.16c.61.47,1.45.73,2.19.45.42-.15.76-.4,1.03-.75s.39-.74.44-1.18c.03-.36-.02-.73-.08-1.08-.03-.16-.07-.32-.11-.48-.07-.25-.17-.43-.33-.63-.32-.4-.95-.14-1.08.28-.08.27-.06.53-.07.81,0,.11-.01.23-.02.34-.01.15.04-.19,0,0-.01.07-.02.13-.04.2-.02.1-.06.21-.09.31-.05.15.1-.18.02-.05-.01.02-.02.04-.03.06-.04.08-.08.16-.11.25l.06-.15s-.05.1-.06.12c0,.01-.04.08-.05.08-.02,0,.15-.17.08-.1-.03.03-.06.07-.09.1-.03.03-.12.1,0,0s.03-.02,0,0c-.02.01-.04.02-.06.04-.07.05-.11,0,.09-.03-.04,0-.1.03-.14.04-.03.01-.13.02.03,0s.05,0,0,0c-.03,0-.15.02-.17,0,0,0,.27.06.11.01-.02,0-.05-.01-.07-.02-.05-.01-.09-.03-.14-.04-.11-.03.19.1.09.04-.02-.01-.05-.02-.07-.03-.06-.03-.12-.07-.18-.11-.14-.09.15.13.03.02-.05-.04-.09-.08-.13-.13-.04-.04-.07-.08-.11-.12-.07-.07.07.1.07.09-.02-.04-.05-.07-.07-.11-.03-.04-.05-.09-.08-.14-.02-.03-.03-.06-.05-.09-.05-.08.04.11.04.11-.04-.15-.1-.3-.13-.46,0-.02-.02-.14,0-.02.02.14,0-.08,0-.09,0-.08,0-.16,0-.25,0-.17,0-.36.04-.53-.04.2.02-.08.02-.13.02-.1.04-.19.06-.29.04-.19.09-.38.13-.56.1-.41-.13-.89-.56-.99s-.83.14-.99.56h0Z"/>
          <path class="cls-5" d="M100.93,141.06c-.19,1.66.52,3.45,1.76,4.57.81.73,1.9,1.27,3.01.98.96-.25,1.67-1.15,1.88-2.09.13-.59.1-1.17-.03-1.76-.07-.31-.17-.61-.31-.9-.17-.36-.33-.64-.67-.88-.5-.35-1.29,0-1.42.58-.1.47.06,1,.19,1.46.02.08.04.16.06.24,0,.04.02.08.03.12.03.15-.04.03,0-.05-.02.04.02.2.02.25,0,.09,0,.19,0,.28-.02.27.05-.2,0,0-.02.06-.03.13-.05.19,0,.03-.02.06-.03.09-.04.14.11-.21.04-.09-.04.07-.07.13-.11.2-.02.03-.04.05-.05.08-.06.1.08-.1.08-.1-.05.04-.11.11-.15.16-.07.08.11-.08.11-.08-.03.01-.05.04-.08.05s-.05.03-.08.05c-.18.11.18-.05.07-.03-.07.02-.14.04-.2.06-.12.04.11-.03.11-.02,0,0-.16,0-.15,0-.2,0,.2.05,0,0-.09-.02-.17-.05-.26-.08-.14-.04.18.1.05.02-.03-.02-.07-.03-.11-.05-.07-.04-.14-.08-.2-.12s-.12-.08-.19-.13c-.15-.11.04.03.06.05-.03-.03-.07-.06-.11-.09-.11-.1-.22-.2-.33-.31-.05-.05-.09-.1-.14-.16-.02-.03-.04-.05-.07-.08-.13-.15.09.14.02.03-.17-.25-.31-.51-.45-.78-.05-.1.04.09.04.09-.02-.05-.04-.11-.06-.16-.03-.08-.05-.15-.08-.23-.05-.17-.09-.33-.12-.51,0-.03-.01-.07-.02-.1-.03-.19.01.17,0,.04,0-.08-.01-.16-.02-.24,0-.19,0-.37.01-.56.04-.54-.5-1.05-1.02-1.02-.61.03-.96.45-1.02,1.02h0Z"/>
          <path class="cls-5" d="M155.77,136.29c-.16,1.74-.14,3.67,1.23,4.96.75.7,1.69.99,2.69.83.87-.14,1.72-.76,2.12-1.54.46-.9.44-1.91.02-2.82-.26-.55-.78-1.06-1.41-1.07-.53,0-.98.41-1.05.92-.05.37.09.66.28.96.05.08.1.15.14.22.02.03.03.06.04.09.07.13-.08-.23-.04-.09.02.07.05.15.07.22,0,.04.01.09.03.13-.01-.04-.02-.27-.02-.11,0,.09,0,.17,0,.26,0,.2.06-.28,0-.01-.01.06-.08.17-.07.22,0-.02.13-.25.03-.09-.02.04-.04.08-.07.12,0,0-.08.1-.07.11,0-.02.18-.21.05-.07-.06.06-.12.11-.17.17-.08.08.1-.07.1-.07-.04.02-.08.05-.11.08-.08.05-.17.08-.24.13.19-.13.18-.06.08-.04-.04.01-.09.03-.13.04-.03,0-.07.01-.1.02-.14.04.25-.02.1-.01-.08,0-.16.01-.24,0-.04,0-.09-.01-.14-.01.05,0,.26.05.1,0-.04-.01-.09-.02-.13-.03s-.23-.09-.05,0-.08-.04-.13-.07c-.09-.05-.17-.1-.26-.16-.03-.02-.13-.09,0,0,.15.11-.01-.02-.04-.04-.07-.06-.13-.13-.19-.19,0,0-.09-.1-.09-.1.01,0,.16.22.02.03-.11-.15-.17-.37-.29-.51,0,0,.08.21.04.08-.02-.07-.05-.13-.07-.2-.04-.11-.07-.22-.09-.33-.03-.12-.06-.25-.08-.37,0-.04-.02-.08-.02-.13.01.21,0,.01,0-.03-.05-.5-.05-1-.05-1.51s-.42-.94-.91-.91c-.53.02-.87.4-.91.91h0Z"/>
          <path class="cls-5" d="M173.99,136.48c-.46,1.02-.9,2.04-.95,3.17-.05,1.04.36,2.1,1.12,2.82s1.88,1.11,2.89.75c.93-.33,1.59-1.07,1.86-2.01.15-.49.15-1.03-.02-1.51-.21-.6-.69-1.38-1.43-1.33-.46.03-.85.29-.98.75-.05.19-.06.41,0,.6.02.09.08.19.12.28.05.1-.06-.15-.06-.13,0,.04.03.11.04.15.05.16,0-.29,0-.07,0,.05,0,.1,0,.16,0,0-.01.08,0,.08-.01,0,.06-.29.02-.19-.04.12-.06.25-.09.37-.02.05-.04.1-.05.16-.03.1.07-.18.08-.18,0,0-.03.07-.04.07-.03.05-.05.1-.08.14-.01.02-.03.05-.05.07-.09.15.09-.14.11-.13,0,0-.2.21-.23.23-.02.02-.04.03-.06.05-.07.07.16-.13.16-.13-.01,0-.14.09-.16.1-.01,0-.07.02-.07.04,0,0,.29-.1.19-.08-.05,0-.11.03-.15.04-.09.04.21-.03.22-.03,0,0-.07,0-.08,0-.03,0-.06,0-.08,0-.19,0,.12.03.14.03-.07.02-.16-.04-.23-.06-.12-.02.16.05.16.07,0,0-.09-.04-.09-.04-.06-.03-.12-.07-.18-.1-.11-.06.13.11.13.1-.03-.03-.07-.06-.1-.09-.05-.05-.1-.1-.15-.15-.15-.16.15.23.03.04-.09-.13-.16-.27-.23-.4-.06-.12.06.16.06.15,0-.03-.03-.07-.04-.1-.02-.07-.05-.14-.07-.2s-.04-.14-.05-.21c-.06-.26,0,.2-.01-.04s-.02-.45,0-.68c0-.01.02-.13.01-.14.02.01-.04.25,0,.05.02-.11.04-.21.06-.32.09-.44.23-.87.36-1.29.16-.52-.15-1.09-.63-1.29s-1.14-.05-1.36.45h0Z"/>
          <path class="cls-5" d="M159.66,114.17c-.78,1.34-1.55,2.93-.95,4.5.31.81.83,1.46,1.64,1.8s1.71.24,2.4-.26c.45-.32.8-.73.96-1.26s.04-1.31-.39-1.68c-.28-.25-.63-.36-1-.26s-.58.37-.72.72c-.04.1-.06.21-.06.33.03-.19.04-.23.01-.12-.05.18.15-.24.03-.07-.03.04-.06.09-.09.14-.03.04-.17.25-.03.07s-.03.01-.06.05c-.04.04-.1.08-.13.12.17-.23.17-.12.05-.05-.03.02-.07.04-.11.06-.11.05-.07.04.13-.05-.05,0-.12.03-.17.05-.09.02-.08.02.04,0,.12-.01.14-.02.04-.01-.29-.02.14.06.06.02-.06-.02-.16-.02-.21-.06l.18.07s-.07-.04-.11-.06c-.04-.02-.07-.04-.1-.07l.15.12c-.08-.09-.21-.23-.31-.3.19.15.12.16.04.04-.04-.06-.08-.13-.11-.19-.13-.25.07.23,0,.01-.02-.06-.04-.12-.06-.18s-.03-.12-.05-.19c-.06-.31,0,.19,0-.02,0-.15,0-.3,0-.45.01-.13,0-.11-.01.04,0-.04.01-.08.02-.13.02-.1.04-.19.06-.29.04-.16.09-.33.15-.49.04-.11.07-.22.12-.32-.08.16,0,0,.03-.07.08-.18.17-.37.25-.55.22-.47.15-1.1-.36-1.37-.48-.25-1.09-.12-1.37.36h0Z"/>
          <path class="cls-5" d="M95.52,188.32c-.53.99-.97,2.05-.72,3.18.19.87.99,1.6,1.87,1.76.35.06.62.07.97,0,.16-.03.3-.1.45-.16.07-.03.13-.06.19-.11.21-.16.37-.3.47-.55s.11-.48.06-.75h0c.01.09.03.19.04.29v-.04c-.05.18-.1.37-.15.55.18-.28.29-.66.18-.99-.06-.18-.16-.34-.29-.48-.2-.2-.44-.26-.71-.29l.27.04c-.2-.03-.36-.06-.56,0-.18.05-.36.15-.49.28-.04.04-.08.08-.12.12l.77-.32h-.04c.1.02.2.03.3.04-.18-.06-.45-.06-.62,0-.21.07-.36.17-.53.31l.23-.18c-.06.04-.12.08-.19.11l.27-.12c-.07.03-.14.05-.22.06l.3-.04c-.13.02-.26.02-.38,0l.3.04c-.12-.02-.24-.05-.36-.1l.26.11c-.12-.05-.22-.11-.33-.19l.22.17c-.08-.06-.16-.14-.22-.22l.17.22c-.06-.07-.1-.15-.14-.24l.11.25c-.05-.14-.09-.28-.12-.43l.04.28c-.03-.2-.02-.39,0-.59l-.04.27c.06-.39.19-.76.34-1.12l-.1.24c.06-.14.12-.28.19-.42.11-.24.17-.49.1-.76-.06-.23-.24-.47-.45-.59-.45-.24-1.08-.13-1.34.35h0Z"/>
          <path class="cls-5" d="M136.44,173.64c-.09.18-.19.38-.22.59s-.07.41-.06.61c.03.43.14.82.35,1.19s.5.65.84.91c.09.07.19.13.3.17.19.09.38.17.6.2.15.05.3.05.45.02.15,0,.29-.05.42-.13.25-.16.42-.38.52-.67v-.02c-.23.24-.47.48-.71.72.16-.05.32-.11.45-.22.12-.1.22-.21.3-.34.12-.18.16-.49.09-.69l-.09-.22c-.08-.14-.19-.24-.32-.32h-.02c.06.04.12.08.19.13-.12-.1-.23-.18-.37-.24-.08-.03-.15-.06-.23-.08l.72.72v-.03c-.04-.09-.08-.18-.12-.27-.07-.13-.17-.24-.29-.32-.07-.07-.15-.12-.25-.14-.13-.07-.28-.1-.43-.1h-.02c.1.01.2.02.3.04-.1-.02-.21-.04-.3-.08l.27.11c-.12-.05-.23-.12-.34-.2l.23.18c-.11-.09-.21-.19-.3-.3l.17.23c-.09-.11-.16-.24-.21-.37l.11.27c-.05-.12-.09-.25-.1-.38l.04.29c-.01-.11-.01-.21,0-.32l-.04.29c.01-.11.04-.21.08-.31l-.11.26s.02-.05.03-.07c.13-.27.19-.55.11-.85-.07-.26-.27-.53-.51-.66-.26-.14-.57-.2-.85-.11-.27.09-.53.25-.66.51h0Z"/>
          <path class="cls-2" d="M120.41,108.13h.12c.14,0,.26-.02.4-.05.18-.05.34-.15.48-.28.13-.14.23-.3.28-.48v-.02c-.23.24-.47.47-.71.71l.1-.03s.02,0,.02,0h.01c.13-.03.24-.09.33-.18.07-.04.13-.1.17-.17.03-.03.06-.06.08-.1.02-.04.04-.08.05-.12.06-.11.09-.24.08-.37l-.03-.26-.1-.23h0c-.05-.07-.1-.14-.15-.2-.09-.09-.19-.16-.31-.2-.04-.02-.08-.04-.12-.05,0,0-.02,0-.02,0l-.11-.03.71.71v-.02c-.06-.18-.15-.34-.28-.48-.14-.13-.3-.23-.48-.28-.05-.01-.1-.02-.16-.02-.05-.01-.1-.02-.15-.02-.01,0-.02,0-.03,0h-.06s-.08,0-.12,0c-.15,0-.29.03-.42.09-.14.04-.25.12-.35.23-.11.1-.18.22-.23.35-.07.13-.1.27-.09.42l.04.29c.05.19.15.35.28.48l.22.17c.17.1.36.15.55.15h0Z"/>
          <path class="cls-2" d="M123.51,122.3h0c-.09.03-.18.07-.26.11.03-.01.07-.02.11-.03l-.29.04s.08,0,.12,0l-.29-.04s.09.02.13.03l-.26-.11s.08.04.12.07l-.22-.17s.06.05.09.08l-.17-.21s0,.01.01.02c.11.15.21.29.39.38.16.1.34.14.53.14.19,0,.37-.05.53-.14.16-.09.28-.22.38-.38.1-.16.14-.34.14-.53,0-.05,0-.1-.02-.15,0-.14-.05-.27-.13-.39,0,0,0-.01-.01-.02,0-.01-.02-.02-.02-.04-.07-.09-.14-.19-.22-.28-.01-.01-.02-.02-.03-.03-.08-.07-.16-.13-.25-.19-.02-.02-.05-.03-.08-.05-.11-.05-.22-.1-.33-.14-.01,0-.03,0-.04-.01-.11-.02-.22-.03-.33-.05-.03,0-.06,0-.09,0,0,0-.02,0-.02,0-.1,0-.21.03-.31.04-.02,0-.03,0-.05.01-.19.05-.35.15-.49.28l-.17.22c-.1.17-.15.36-.15.56,0,.15.03.29.1.43.04.14.12.26.23.36.1.11.22.18.36.23.13.07.27.1.43.1.2,0,.39-.05.56-.15h0Z"/>
          <path class="cls-2" d="M93.05,170.86l.83.32c.07.03.14.05.21.07.16.05.33.06.5.07h.21c.15.02.3,0,.45-.03.17-.05.32-.13.45-.26.1-.09.17-.2.21-.33.06-.12.09-.25.09-.39,0-.18-.05-.35-.14-.51-.09-.12-.17-.24-.28-.33l-.16-.13c-.12-.1-.25-.22-.39-.29-.15-.08-.32-.14-.48-.21l-.84-.35c-.16-.05-.33-.06-.49-.02-.16,0-.31.06-.46.15-.14.08-.26.18-.34.32-.11.12-.18.26-.22.42-.07.31-.06.67.12.94l.19.25c.15.15.33.26.54.32h0Z"/>
          <path class="cls-2" d="M171.49,128.65l-.03-.13c-.01-.06-.03-.08-.06-.16-.03-.06-.04-.11-.07-.16-.01-.02-.03-.03-.04-.05l.11.26c-.03-.06-.03-.14-.05-.21-.01-.05-.04-.11-.06-.14-.03-.09-.07-.17-.14-.23-.07-.11-.17-.21-.3-.27,0,0-.02,0-.02-.01-.16-.08-.32-.15-.51-.15l-.25.03-.22.09s0,0-.01,0c0,0-.02,0-.03.01s-.02,0-.03.01l-.21.16-.16.21-.11.25h0s-.01.08-.02.12-.01.07-.02.11l.11-.26c-.08.11-.14.23-.17.37l-.03.13c-.06.21-.06.42,0,.64.06.2.16.38.31.53l.24.19c.19.11.39.16.6.16.17,0,.32-.03.46-.1.15-.05.28-.13.39-.25.15-.15.25-.33.31-.53.06-.21.06-.42,0-.64h0Z"/>
          <path class="cls-2" d="M153.48,166.46c1.59,0,1.6-2.48,0-2.48s-1.6,2.48,0,2.48h0Z"/>
          <path class="cls-2" d="M131.7,172.53l.05.18c.27,1.06,1.87,1.06,2.14,0l.05-.18c.47-1.86-2.71-1.88-2.23,0h0Z"/>
        </g>
        <path class="cls-2" d="M202.15,56.47c-6.16-6.03-17.81-7.1-26.08-8.08-30.87-3.66-63.26-1.96-94.25-.05-11.65.72-26.49,1.67-33.91,11.25-2.2,2.82-1.97,8.44.86,10.93,4.4,3.86,11.39,4.17,17.68,4.69,8.75.72,17.49,1.38,26.27,1.85,16.62.88,33.29,1.22,49.96,1.02,15.29-.18,31.06.05,45.89-3.12,4.92-1.03,10-2.93,13.08-6.9,3.77-4.88,3.49-8.66.5-11.58Z"/>
        <g>
          <path class="cls-5" d="M73.79,58.38c-2.42-.12-4.74.07-6.97.56-2.23.49-4.44,1.16-6.62,2.01-.56.21-.99.19-1.29-.07-.29-.26-.44-.52-.44-.77.16-.45.46-.81.88-1.09,4.81-2.35,9.62-3.22,14.44-2.61.23.07.43.24.58.51.15.27.21.5.16.69-.05.23-.12.43-.21.58-.09.15-.27.22-.53.19ZM68.79,70.67c0,.26-.09.49-.26.69-.18.2-.39.32-.65.37-.47.07-.77-.01-.92-.25-.14-.23-.22-.5-.25-.81-.02-1.64-.05-3.28-.09-4.91s-.11-3.27-.23-4.91c0-.09-.01-.21-.04-.33-.02-.13-.02-.26,0-.39.02-.13.08-.24.16-.33.08-.09.22-.16.4-.21.54-.09.93,0,1.16.26.23.27.35.53.35.79.19,1.69.3,3.37.35,5.03.05,1.67.05,3.33,0,5Z"/>
          <path class="cls-5" d="M89.07,64.96c-.14.66-.39,1.29-.76,1.88-.36.6-.78,1.16-1.25,1.67-.47.52-.98.96-1.53,1.34-.55.38-1.11.67-1.67.88-1.03.38-2.06.5-3.08.37-1.02-.13-1.93-.59-2.73-1.39-.54-.66-.92-1.4-1.14-2.22-.22-.82-.33-1.66-.32-2.52.01-.86.13-1.68.35-2.48.22-.8.51-1.51.86-2.15.42-.75.93-1.37,1.51-1.87.59-.49,1.23-.79,1.94-.88.19-.05.34,0,.46.14.12.14.18.31.18.49.23-.23.6-.41,1.09-.53.49-.12,1.04-.13,1.65-.04,1.13.14,2.02.48,2.68,1.02.66.54,1.14,1.17,1.46,1.88.32.72.48,1.47.49,2.25.01.79-.05,1.5-.19,2.13ZM81.4,60.1c-.47.21-.86.52-1.18.93s-.58.87-.77,1.39c-.2.52-.33,1.07-.39,1.67-.06.6-.06,1.18-.02,1.74.07.82.32,1.5.74,2.02s1.08.79,1.97.79c.52,0,1.03-.1,1.53-.3.5-.2.97-.46,1.39-.79.42-.33.81-.72,1.16-1.18.35-.46.63-.93.85-1.43.12-.26.21-.58.28-.97.07-.39.09-.79.07-1.2-.02-.41-.12-.8-.28-1.18-.16-.38-.42-.69-.77-.95-.49-.35-1.08-.56-1.76-.63-.68-.07-1.4.08-2.15.46-.14.09-.3.11-.48.05-.18-.06-.24-.21-.19-.44Z"/>
          <path class="cls-5" d="M94.6,71.83c-.07-.87-.12-1.85-.16-2.96-.04-1.1-.05-2.24-.05-3.4s0-2.31.02-3.43c.01-1.13.04-2.15.09-3.06,0-.23.11-.42.33-.55.22-.13.4-.18.55-.16.42.05.71.19.86.44.15.25.25.59.3,1.04-.02.75-.04,1.5-.05,2.25-.01.75,0,1.5.02,2.25,1.06-.19,1.94-.58,2.66-1.16.72-.59,1.23-1.26,1.53-2.01.12-.28.21-.62.26-1.02.06-.4.06-.8.02-1.21-.05-.41-.16-.8-.33-1.16-.18-.36-.44-.65-.79-.86-.52-.31-1.08-.47-1.69-.49-.61-.02-1.24.06-1.88.26-.65.2-1.28.51-1.9.93s-1.2.93-1.74,1.51c.07.35.02.66-.14.93-.16.27-.4.46-.7.58-.19.05-.41-.05-.67-.3-.26-.25-.39-.5-.39-.76,0-.94.26-1.75.79-2.45.53-.69,1.19-1.27,1.99-1.74.8-.47,1.65-.82,2.57-1.06.92-.23,1.76-.35,2.54-.35,1.15,0,2.11.33,2.89,1,.77.67,1.3,1.51,1.58,2.52.49,1.76.37,3.34-.37,4.75-.74,1.41-1.94,2.63-3.61,3.66,1.22.75,2.36,1.47,3.43,2.15,1.07.68,2.14,1.42,3.22,2.22.14.14.3.35.48.62.18.27.15.68-.09,1.21-.14.33-.38.51-.72.55-.34.04-.67-.06-1-.3-.52-.42-1.1-.86-1.74-1.32-.65-.46-1.32-.92-2.02-1.37-.7-.46-1.41-.9-2.11-1.34-.7-.43-1.37-.84-2.01-1.21.02.94.04,1.87.05,2.8.01.93.04,1.84.09,2.73,0,.33-.09.56-.28.69-.19.13-.42.19-.7.19-.14-.02-.27-.1-.39-.23-.12-.13-.23-.28-.33-.46-.11-.18-.19-.35-.26-.53-.07-.18-.11-.31-.11-.4Z"/>
          <path class="cls-5" d="M122.38,58.38c-2.42-.12-4.74.07-6.97.56-2.23.49-4.44,1.16-6.62,2.01-.56.21-.99.19-1.29-.07-.29-.26-.44-.52-.44-.77.16-.45.46-.81.88-1.09,4.81-2.35,9.62-3.22,14.44-2.61.23.07.43.24.58.51.15.27.21.5.16.69-.05.23-.12.43-.21.58-.09.15-.27.22-.53.19ZM117.38,70.67c0,.26-.09.49-.26.69-.18.2-.39.32-.65.37-.47.07-.77-.01-.92-.25-.14-.23-.22-.5-.25-.81-.02-1.64-.05-3.28-.09-4.91s-.11-3.27-.23-4.91c0-.09-.01-.21-.04-.33-.02-.13-.02-.26,0-.39.02-.13.08-.24.16-.33.08-.09.22-.16.4-.21.54-.09.93,0,1.16.26.23.27.35.53.35.79.19,1.69.3,3.37.35,5.03.05,1.67.05,3.33,0,5Z"/>
          <path class="cls-5" d="M129.32,69.4c.02.09.04.23.04.4s-.04.35-.11.53c-.07.18-.17.33-.3.46-.13.13-.31.19-.55.19-.52-.33-.95-.76-1.3-1.3-.19-.7-.36-1.51-.51-2.43-.15-.92-.28-1.87-.37-2.87-.09-1-.16-2.01-.19-3.05-.04-1.03-.04-2.03-.02-2.99,0-.16.02-.38.05-.63.04-.26.1-.51.19-.76.09-.25.21-.46.35-.63.14-.18.34-.26.6-.26.3,0,.55.09.74.28.19.19.28.49.28.92-.02.94-.02,1.94.02,3.01.04,1.07.1,2.14.19,3.22.09,1.08.22,2.13.37,3.15.15,1.02.32,1.94.51,2.76Z"/>
          <path class="cls-5" d="M136.01,58.24c-.12.82-.22,1.73-.32,2.73-.09,1-.19,2.01-.28,3.03-.09,1.02-.18,2.01-.26,2.98-.08.96-.15,1.81-.19,2.54.8-.14,1.68-.3,2.66-.49.97-.19,1.97-.38,2.98-.58,1.01-.2,2-.38,2.98-.53.97-.15,1.86-.26,2.66-.33.07,0,.15.02.25.07.19.09.28.25.28.46,0,.31-.06.53-.18.69-.12.15-.26.27-.42.35-.16.08-.33.16-.51.23s-.33.18-.48.32c-.73.19-1.53.39-2.39.6-.87.21-1.76.42-2.68.63-.92.21-1.83.42-2.75.63-.92.21-1.77.42-2.57.63-.73.19-1.28.06-1.65-.39-.38-.45-.53-1.17-.46-2.18.12-1.9.26-3.81.42-5.72.16-1.91.36-3.82.6-5.72.05-.4.18-.73.4-.99.22-.26.5-.41.83-.46.54-.07.86.06.97.41.11.34.15.71.12,1.11Z"/>
          <path class="cls-5" d="M151.43,58.24c-.12.82-.22,1.73-.32,2.73-.09,1-.19,2.01-.28,3.03-.09,1.02-.18,2.01-.26,2.98-.08.96-.15,1.81-.19,2.54.8-.14,1.68-.3,2.66-.49.97-.19,1.97-.38,2.98-.58,1.01-.2,2-.38,2.98-.53.97-.15,1.86-.26,2.66-.33.07,0,.15.02.25.07.19.09.28.25.28.46,0,.31-.06.53-.18.69-.12.15-.26.27-.42.35-.16.08-.33.16-.51.23s-.33.18-.48.32c-.73.19-1.53.39-2.39.6-.87.21-1.76.42-2.68.63-.92.21-1.83.42-2.75.63-.92.21-1.77.42-2.57.63-.73.19-1.28.06-1.65-.39-.38-.45-.53-1.17-.46-2.18.12-1.9.26-3.81.42-5.72.16-1.91.36-3.82.6-5.72.05-.4.18-.73.4-.99.22-.26.5-.41.83-.46.54-.07.86.06.97.41.11.34.15.71.12,1.11Z"/>
          <path class="cls-5" d="M165.05,72.43c-.12.4-.27.76-.46,1.07-.19.32-.39.5-.6.55-.45.12-.79.05-1.02-.21-.23-.26-.33-.59-.28-.99.19-1.41.49-2.89.92-4.45s.92-3.12,1.48-4.68c.56-1.56,1.18-3.07,1.85-4.54.67-1.47,1.36-2.8,2.06-4,.12-.19.25-.3.4-.33.15-.04.29-.03.4.02.12-.09.26-.18.42-.25s.33-.11.49-.11c.07,0,.15.01.23.04.08.02.17.09.26.21.09.12.21.29.33.51.13.22.29.55.48.97.33,1.2.71,2.43,1.14,3.7.43,1.27.89,2.54,1.36,3.8.07-.02.13-.04.19-.05.06-.01.12-.03.19-.05.26-.02.55-.01.88.04.33.05.55.21.67.49.14.35.12.66-.07.92-.19.26-.53.52-1.02.77.3.75.61,1.48.92,2.2.31.72.62,1.41.95,2.09.02.12.06.3.11.55.05.25.08.49.09.74.01.25,0,.48-.05.69-.05.21-.14.35-.28.42-.16.07-.33.06-.51-.04-.18-.09-.35-.22-.51-.37-.16-.15-.31-.32-.44-.49-.13-.18-.23-.33-.3-.48-.4-.77-.78-1.55-1.14-2.34-.36-.79-.71-1.58-1.04-2.38-.99.19-2.06.35-3.22.49-1.16.14-2.31.23-3.43.28-.26.89-.51,1.77-.76,2.62-.25.86-.48,1.72-.69,2.59ZM170.05,57.64c-1.08,2.42-2.02,4.84-2.82,7.25,1.57-.05,3.25-.25,5.04-.6-.85-2.14-1.58-4.35-2.22-6.65Z"/>
          <path class="cls-5" d="M188.93,57.39c-.09.12-.26.21-.51.26-.25.06-.5,0-.76-.19-.19-.14-.41-.29-.67-.44-.26-.15-.54-.3-.84-.44-.31-.14-.61-.26-.92-.35-.31-.09-.6-.14-.88-.14-.35,0-.72.08-1.11.25-.39.16-.72.4-1,.7-.54.59-.73,1.16-.58,1.71.15.55.56,1.06,1.21,1.53.42.31.88.62,1.37.93.49.32.98.63,1.46.93.48.31.94.6,1.37.88.43.28.81.53,1.14.74.42.28.82.59,1.2.92.38.33.7.7.99,1.11s.5.87.67,1.39c.16.52.25,1.1.25,1.76-.16,1.29-.68,2.32-1.53,3.08-.86.76-1.85,1.25-2.98,1.46-.99.19-1.95.15-2.9-.11-.95-.26-1.76-.75-2.41-1.48-.16-.19-.31-.45-.42-.77-.12-.33-.13-.56-.04-.7.14-.21.39-.36.74-.44.35-.08.62-.06.81.05.54.49,1.17.85,1.9,1.07.73.22,1.49.24,2.29.05.61-.14,1.1-.4,1.48-.79s.61-.83.7-1.32c.12-.52.05-1.05-.19-1.6-.25-.55-.69-1.05-1.32-1.5-.96-.73-1.99-1.41-3.08-2.04s-2.2-1.36-3.33-2.18c-.54-.47-.93-.99-1.18-1.55s-.37-1.11-.37-1.65.12-1.1.35-1.6c.23-.5.56-.96.99-1.37s.92-.75,1.48-1c.56-.26,1.19-.41,1.87-.46.94-.05,1.84.15,2.71.58.87.43,1.57.97,2.11,1.6.12.14.17.32.16.53-.01.21-.09.41-.23.6Z"/>
        </g>
      </g>
    </g>
  </g>
</svg>