<?xml version="1.0" encoding="UTF-8"?>
<svg id="Capa_2" xmlns="http://www.w3.org/2000/svg" viewBox="0 0 243.3 243.3">
  <defs>
    <style>
      .cls-1 {
        fill: #fff;
      }

      .cls-2 {
        fill: none;
      }

      .cls-3 {
        fill: #e58473;
      }

      .cls-4 {
        fill: #4f3535;
      }

      .cls-5 {
        fill: #d9472e;
      }

      .cls-6 {
        fill: #cac2c2;
      }
    </style>
  </defs>
  <g id="grocery_icons">
    <g>
      <rect class="cls-2" width="243.3" height="243.3"/>
      <g>
        <g>
          <path class="cls-6" d="M61.37,32.63c-29.11,6.14-32.32,15.22-33.38,20.83-1.07,5.61-1.07,141.55.27,143.95,1.34,2.4,9.88,18.96,71.58,23.24,61.69,4.27,94.54-6.94,104.43-12.02,9.88-5.07,13.35-10.42,13.35-11.75s0-141.28-.27-144.22c-.27-2.94-1.87-12.55-40.33-20.83-38.46-8.28-86.53-5.34-115.64.8Z"/>
          <path class="cls-5" d="M217.62,196.88c0,1.33-3.47,6.67-13.36,11.75-9.88,5.07-42.72,17.49-104.41,13.22-61.7-4.28-70.25-22.04-71.58-24.45-.46-.82-.75-16.86-.9-37.98-.14-18.5-.17-40.9-.1-60.33.1-24.05.34-43.58.73-45.63.04-.23.08-.46.13-.69.05.36.08.6.13.69,1.33,2.4,9.88,18.95,71.58,23.23,61.69,4.27,94.54-6.95,104.41-12.02,8.46-4.34,12.21-8.87,13.12-10.92.08,4.66.14,23.39.17,45.84.04,19.18.05,41.08.06,59.24.01,21.39.01,37.61.01,38.05Z"/>
          <path class="cls-3" d="M217.6,158.83c-14.97,5.23-49.86,14.78-105.12,14.78-50.33,0-74.51-8.45-85.13-14.18-.14-18.5-.17-40.9-.1-60.33,18.45,7.2,60.69,21.31,102.8,18.47,40.72-2.74,72.89-12.72,87.48-17.98.04,19.18.05,41.08.06,59.24Z"/>
          <path class="cls-1" d="M181.68,130.47c-9.63-38.98-57.32-51.87-89.95-32.91-23.52,13.66-35.65,43.63-27.02,69.68,7.41,22.36,29.02,36.14,51.72,38.8,25.25,2.96,50.15-7.81,60.8-31.73,6.04-13.57,8.02-29.35,4.44-43.86Z"/>
          <path class="cls-4" d="M34.14,50.91c6.8,7,15.64,10.83,25.22,12.3,4.78.73,9.62,1.02,14.45.95,5.09-.07,10.51-.23,15.35-2,4.45-1.63,8.45-4.7,10.43-9.1,2.01-4.47,1.51-9.38-1.7-13.15s-8.43-5.39-13.37-5.75c-5.43-.4-10.96.16-16.32.96-12.09,1.81-23.69,5.93-33.96,12.57-2.05,1.33-.25,4.41,1.91,3.28,8.42-4.42,17.52-7.89,26.82-9.92,4.65-1.02,9.34-1.63,14.09-1.93,4.5-.28,9.54-.64,13.75,1.28,3.38,1.54,6.15,4.74,5.42,8.66s-3.9,6.98-7.55,8.44c-4.24,1.71-8.89,1.96-13.41,2.1-4.31.13-8.64.01-12.93-.48-9.28-1.07-19-4.09-26.34-10.06-1.28-1.04-3.04.61-1.85,1.85h0Z"/>
          <path class="cls-4" d="M48.2,49.53c.1-.02.21-.04.31-.06.04,0,.09-.02.13-.02.12-.02.12-.02,0,0-.12.01-.12.01,0,0,.06,0,.12-.01.18-.02.09,0,.18-.02.27-.02.39,0,.78.04,1.17.09l-.41-.06c.61.09,1.23.2,1.83.35l-1.05-.81c.06.13.12.26.17.39l-.18-.42c.13.33.22.67.27,1.02l-.06-.48c.05.38.05.75,0,1.13l.06-.48c-.05.4-.16.79-.32,1.16l.18-.44c-.08.18-.18.36-.28.53-.16.29-.25.61-.37.91l-.06.46.06.46c.1.36.32.67.62.89.25.19.5.3.81.34.35.05.8.01,1.1-.2.46-.34.86-.66,1.12-1.18.19-.38.36-.78.48-1.19.19-.69.28-1.45.2-2.17-.05-.43-.1-.86-.24-1.27s-.29-.84-.53-1.19c-.23-.33-.48-.59-.86-.75-.26-.11-.53-.14-.81-.16-.19-.02-.39-.03-.58-.04-.49-.02-.97.06-1.45.13-.41.07-.81.17-1.21.28-.42.12-.84.21-1.26.36-.63.22-1.11.88-.89,1.57s.87,1.03,1.57.89h0Z"/>
          <path class="cls-4" d="M57.41,51.7c3.36,3.59,8.89,4.85,13.58,5.46,5.05.66,10.49.41,15.32-1.29,2.39-.84,4.85-2.02,6.33-4.17,1.67-2.42,1.38-5.49-.65-7.59-4.03-4.17-11.58-3.42-16.79-2.74-6.52.85-13.73,3.04-18.53,7.77-1.6,1.57.55,4.59,2.47,3.2,4.06-2.94,8.11-5.05,13.05-6.11,2.35-.51,4.74-.78,7.14-.88,2.41-.1,4.99-.33,7.35.3,1.79.48,4.15,1.95,2.29,3.77-1.29,1.26-3.23,1.97-4.93,2.48-4.01,1.2-8.26,1.33-12.41.99-4.54-.36-8.77-1.73-13.02-3.25-1.22-.44-1.99,1.22-1.2,2.06h0Z"/>
          <path class="cls-4" d="M27.02,54.41c6.18,10.4,17.99,16.32,29.18,19.67,6.26,1.87,12.72,2.98,19.18,3.88,7.59,1.06,15.21,1.76,22.87,2.11,15.18.7,30.43.24,45.6-.5,14.44-.71,29.16-1.82,43.12-5.8,6.38-1.82,12.68-4.23,18.46-7.51,2.79-1.58,5.46-3.4,7.89-5.49,1.19-1.02,2.26-2.15,3.2-3.41.88-1.19,1.51-2.69,2.2-4.01.93-1.79-1.55-4.04-2.96-2.29-1.57,1.95-3.7,3.47-5.59,5.11-1.95,1.68-4.01,3.17-6.22,4.5-4.84,2.92-10.09,5.1-15.47,6.81-12.77,4.06-26.36,5.51-39.67,6.4-14.72.98-29.56,1.52-44.31,1.23-14.04-.28-28.3-1.35-42.02-4.49-6.23-1.43-12.39-3.27-18.07-6.24-2.77-1.45-5.54-3.07-8.02-4.98s-4.81-4.39-7.04-6.76c-1.14-1.22-3.15.35-2.3,1.77h0Z"/>
          <path class="cls-4" d="M100.57,34.75c17.99-2.07,36.3-.92,54.28.78,8.59.81,17.16,1.82,25.58,3.77,3.92.91,7.8,2.02,11.58,3.39,3.13,1.14,7.53,2.51,9.29,5.64,2.04,3.62-2.16,6.35-4.92,7.74-3.58,1.8-7.4,3.18-11.22,4.36-7.79,2.4-15.88,3.76-23.98,4.53-15,1.42-30.16,1-45.21.76-8.41-.14-16.82-.37-25.21-1.02-8.8-.68-17.43-2-26.11-3.54-1.22-.22-1.75,1.55-.52,1.88,7.8,2.1,16.04,2.95,24.07,3.68s16.01,1.16,24.02,1.36c15.75.4,31.66.67,47.36-.71,8.5-.75,16.98-2.08,25.16-4.54,3.9-1.17,7.73-2.61,11.42-4.33,2.85-1.33,6.24-3.17,7.36-6.34,2.58-7.3-8.73-10.63-13.58-12.2-8.34-2.71-16.99-4.18-25.67-5.3-21.09-2.73-42.55-3.8-63.69-1.2-.83.1-.84,1.41,0,1.31h0Z"/>
          <path class="cls-1" d="M156.5,43.64c-2.06.26-3.98,1.36-5.86,2.18-1.99.87-3.95,1.8-5.92,2.72-1.9.88-3.8,1.78-5.67,2.72-.93.47-1.89.91-2.8,1.42-.89.49-1.92,1.07-2.12,2.15-.09.51.06,1.06.54,1.33,1.72.96,4.12-.67,5.71-1.37,1.99-.88,3.95-1.79,5.91-2.74,1.89-.91,3.79-1.79,5.66-2.75,1.85-.94,4.06-1.75,5.58-3.19.83-.79.26-2.63-1.02-2.47h0Z"/>
          <path class="cls-1" d="M171.68,48.06c-3.02,1.34-6.09,2.58-9.11,3.93s-6.08,2.6-8.7,4.62c-.97.74-.46,2.36.86,2.05,3.28-.76,6.28-2.38,9.27-3.87,2.99-1.49,5.93-3.1,8.92-4.6,1.44-.73.18-2.76-1.25-2.13h0Z"/>
          <g>
            <path class="cls-5" d="M158.52,138.37c-1.4-2.44-3.07-4.59-5.12-6.33-5.12-4.36-12.06-5.17-18.53-5.44-5.29-.22-10.56-.64-15.84-.95-7.94-.48-16.82-1.56-24.21,2.29-11.54,6.01-15.81,23.39-11.7,35.25,4.11,11.86,12.65,18.02,23.87,16.12,11.22-1.9,16.12-2.21,23.24-.16,7.11,2.05,21.5,3.32,28.93-7.9,7.43-11.22,3.16-26.24-.63-32.88Z"/>
            <path class="cls-1" d="M102.71,130.01c-3.14.78-6.06,2.65-8.36,4.9-2.05,2.01-4.33,5.06-3.46,8.07.25.86,1.3,1.11,1.94.51,1.86-1.74,2.65-4.37,4.36-6.28,1.85-2.07,4.22-3.41,6.45-5.03,1.05-.76.46-2.51-.91-2.17h0Z"/>
            <path class="cls-1" d="M90.04,148.59l.27.47c.31.54,1.12.54,1.43,0,.09-.16.18-.32.27-.47.43-.75-.12-1.72-.99-1.72s-1.42.97-.99,1.72h0Z"/>
            <path class="cls-1" d="M147.47,172.75c1.8-.05,3.39-.52,4.7-1.84,1.22-1.24,2.5-3.49,1.08-5.01-.42-.45-1.08-.46-1.6-.21-1.11.55-1.25,1.84-1.96,2.75-.61.78-1.57,1.65-2.55,1.93-1.29.37-1.08,2.42.32,2.39h0Z"/>
            <g>
              <path class="cls-1" d="M135.63,143.41c-2.98,0-5.81-.75-8.42-2.24-3.28-1.87-5.11-4.38-6.86-7.58l-.24-.45-.4.31c-4.35,3.33-10.62,5.7-18.62,7.04-.04,0-.07,0-.11,0-.28,0-.48-.18-.56-.35-.05-.12-.07-.32.12-.52,2.53-2.65,4.86-5,7.77-6.92,1.64-1.08,3.45-1.9,5.19-2.7.34-.16.69-.31,1.03-.47l1.33-.62-1.45-.21c-3.55-.52-6.75-2.31-8.57-4.78-2.45-3.34-2.48-7.73-.05-10.67.08-.09.16-.13.26-.13.23,0,.49.2.58.43,2.38,6.44,8.48,10.84,15.54,11.21l.4.02.06-.39c.7-4.79,2.4-11.21,6.46-14.65,1.02-.86,2.38-1.36,3.73-1.36s2.4.47,2.99,1.28c.58.8.65,1.92.2,3.23-.6,1.81-2.14,3.37-3.5,4.75l-.48.49c-.87.89-1.85,1.9-2.67,3.03-.76,1.05-2.42,3.59-1.58,4.52.17.19.43.21.61.21.68,0,2.02-.38,3.37-.8l.32-.1c1.55-.46,3.04-1.03,4.42-1.69,2.9-1.37,5.55-3.09,7.88-5.1.16-.14.33-.21.49-.21.18,0,.35.08.48.23.15.17.21.41.17.67-.6,3.94-2.61,7.24-5.82,9.53-3.42,2.44-7.23,2.99-10.83,3.21l-.8.05.47.65c2.21,3.01,5.34,6.81,9.99,9.41.3.17.4.58.35.9-.03.18-.14.48-.49.54-.92.15-1.86.22-2.78.22Z"/>
              <path class="cls-4" d="M144.11,117.88c-2.36,2.04-4.96,3.7-7.78,5.03-1.41.67-2.87,1.22-4.36,1.67-.63.18-3.55,1.14-3.85.81-.63-.69,1.22-3.42,1.61-3.97.78-1.07,1.71-2.04,2.63-2.98,1.52-1.56,3.37-3.28,4.08-5.41,1.75-5.22-4.33-6.41-7.62-3.63-4.09,3.46-5.85,9.75-6.61,14.92-6.72-.35-12.79-4.53-15.15-10.92-.22-.6-1.1-1.02-1.59-.42-2.66,3.23-2.39,7.89.04,11.21,2.01,2.73,5.4,4.44,8.85,4.95-2.12.98-4.29,1.89-6.28,3.21-2.99,1.97-5.39,4.41-7.85,6.98-.7.73.02,1.75.93,1.6,6.34-1.06,13.55-3.1,18.81-7.13,1.74,3.2,3.63,5.82,7.03,7.75,3.52,2.01,7.49,2.7,11.48,2.07,1.08-.17,1.15-1.77.29-2.26-4.13-2.32-7.11-5.57-9.85-9.29,3.94-.24,7.66-.87,11.05-3.29,3.32-2.37,5.39-5.8,6-9.82.17-1.09-.98-1.85-1.86-1.08ZM127.89,130.39c-.59,0-1.27.69-1.03,1.3,1.62,4.01,5.99,7.69,9.44,10.24-6.72-.12-13.62-4.74-14.7-10.16-.17-.88-1-1.01-1.7-.67-3.07,1.47-6.08,2.98-9.19,4.4-2.18,1-5.8,2.49-8.08,3.22,1.67-1.58,4.24-3.8,6.09-5.1,2.66-1.88,6.69-4.49,9.96-4.98.99-.15.85-1.22-.05-1.43-3.52-.84-7.11-.9-10.1-3.25-2.44-1.92-3.8-5.42-2.57-8.28-.09.21.71,1.32.84,1.54.31.52.66,1.02,1.02,1.51.73.96,1.54,1.86,2.44,2.67,1.78,1.62,3.87,2.9,6.13,3.73,1.09.4,2.2.76,3.35.94,1.13.18,2.52.4,3.45-.45,1.27-1.16,1.65-3.03,2.05-4.63.49-1.94,1.52-3.91,2.46-5.67.86-1.61,3.38-6.31,5.8-4.27.85.72.57,1.18.09,2.11-.35.66-.86,1.32-1.32,1.89-.7.87-1.46,1.69-2.22,2.5-1.43,1.54-2.9,3.12-3.71,5.1-.54,1.34-.84,3.31.38,4.45,1.32,1.23,3.98.22,5.43-.17,3.87-1.04,8.4-4.15,11.6-6.47-2.45,6.44-10.02,9.97-15.89,9.92Z"/>
            </g>
          </g>
        </g>
        <path class="cls-4" d="M35.13,76.29l.99.74c.33.25.68.45,1.03.67.22.13.56.18.8.1.22-.07.4-.19.54-.37s.23-.4.22-.63c-.01-.27-.1-.55-.3-.73l-.46-.42c-.22-.2-.45-.37-.68-.55l-1-.75c-.13-.08-.27-.13-.42-.13-.15-.03-.3-.03-.45.02-.26.07-.54.27-.67.52-.14.26-.21.58-.11.86l.11.27c.1.17.23.3.4.4h0Z"/>
        <path class="cls-4" d="M33.36,83.09c.57.53,1.2,1.02,1.89,1.38.38.19.77.36,1.17.52.15.06.31.12.47.17.25.07.52.09.78.11.23.02.48-.1.65-.23s.33-.33.38-.55c.1-.45-.06-.97-.49-1.2-.24-.13-.48-.26-.73-.36l.28.12c-.86-.37-1.68-.87-2.42-1.45l.25.19c-.17-.13-.34-.27-.5-.42-.24-.22-.53-.36-.86-.36-.3,0-.66.13-.86.36-.43.47-.5,1.26,0,1.73h0Z"/>
        <path class="cls-4" d="M200.84,192.69c1.13-.51,2.27-1.01,3.4-1.52.56-.25,1.13-.47,1.67-.75.68-.35,1.54-.94,1.71-1.75.11-.51-.07-1.12-.56-1.38-.75-.4-1.68-.21-2.43.08-.68.26-1.34.6-1.99.92-1.14.54-2.28,1.08-3.41,1.63-.76.36-1.02,1.51-.57,2.19.51.79,1.37.94,2.19.57h0Z"/>
        <path class="cls-4" d="M205.64,197.89c.6-.32,1.19-.63,1.79-.95.29-.16.58-.32.86-.49.37-.22.69-.49,1.02-.76.2-.16.3-.44.33-.68.03-.25,0-.54-.14-.76-.28-.43-.83-.72-1.35-.55-.41.13-.8.28-1.19.48-.3.15-.59.31-.87.47-.58.34-1.17.68-1.75,1.01s-.84,1.18-.46,1.77,1.13.8,1.77.46h0Z"/>
        <path class="cls-1" d="M33.46,148.35c.05,4.96.1,9.92.15,14.87.02,2.43.03,4.87.1,7.3.07,2.41-.03,4.94.99,7.17.57,1.23,2.2.67,2.59-.34.87-2.21.55-4.79.48-7.11-.07-2.43-.2-4.86-.31-7.3-.22-4.86-.44-9.73-.66-14.59-.1-2.14-3.36-2.16-3.34,0h0Z"/>
        <path class="cls-1" d="M36.35,187.83c.11.65.21,1.3.37,1.94s.34,1.27.53,1.9c.21.7.88,1.14,1.6,1.05.73-.1,1.23-.7,1.27-1.43.03-.66.05-1.31.05-1.97s-.06-1.31-.12-1.97c-.04-.52-.2-.95-.55-1.33-.4-.44-1.01-.59-1.58-.52-.51.07-.91.3-1.23.71-.17.18-.28.4-.34.64-.09.33-.09.67,0,1h0Z"/>
        <path class="cls-1" d="M209.36,109.86c.18-2.31.2-4.64.05-6.95-.08-1.21-.22-2.41-.43-3.61s-.46-2.49-1.22-3.52c-.36-.49-.84-.81-1.48-.71-.56.08-1.1.49-1.24,1.07-.27,1.17-.15,2.27-.02,3.44.12,1.15.24,2.31.33,3.46.18,2.27.21,4.55.08,6.82-.06,1.06.95,1.97,1.97,1.97,1.13,0,1.89-.9,1.97-1.97h0Z"/>
        <path class="cls-1" d="M208.94,80.74l-.11-1.01c-.04-.32-.06-.64-.16-.94l-.14-.46-.17-.4c-.1-.19-.25-.35-.43-.46-.1-.1-.23-.17-.37-.21-.2-.1-.41-.15-.64-.14l-.44.06-.4.17c-.19.1-.35.25-.46.43-.15.16-.25.35-.3.56l-.14.46c-.09.31-.12.63-.16.94-.04.34-.08.67-.11,1.01-.01.28.05.53.17.77.08.25.22.46.42.65.18.2.4.33.65.42.24.13.5.18.77.17l.53-.07c.34-.1.64-.27.89-.52l.31-.41c.18-.31.27-.65.27-1.01h0Z"/>
      </g>
    </g>
  </g>
</svg>