<?xml version="1.0" encoding="UTF-8"?>
<svg id="Capa_2" xmlns="http://www.w3.org/2000/svg" viewBox="0 0 243.3 243.3">
  <defs>
    <style>
      .cls-1 {
        fill: #a36545;
      }

      .cls-2 {
        fill: #fff;
      }

      .cls-3 {
        fill: none;
      }

      .cls-4 {
        fill: #e09d3e;
      }

      .cls-5 {
        fill: #4f3535;
      }
    </style>
  </defs>
  <g id="grocery_icons">
    <g>
      <rect class="cls-3" width="243.3" height="243.3"/>
      <g>
        <path class="cls-4" d="M66.34,44.83s.74,9.16,0,9.9-14.61,12.13-16.59,28.72c-1.98,16.59-1.73,78.49,0,98.79,1.73,20.3-1.24,32.68,16.59,44.82,17.83,12.13,48.03,11.64,74.28,10.4,26.25-1.24,43.58-8.42,51-20.8,7.43-12.38,6.19-105.23,6.19-116.87s0-22.04-8.67-33.43c-6.15-8.08-8.67-10.89-8.67-10.89l-.5-9.9-113.65-.74Z"/>
        <path class="cls-1" d="M129.47,4.1s-12.63-.37-35.16,1.36c-20.51,1.58-29.46,6.19-30.45,9.16-.99,2.97,0,30.7.25,32.68.25,1.98,27.48,12.13,66.11,10.15,38.63-1.98,50.26-8.17,51.5-9.41s2.75-30.11.99-32.93c-4.95-7.92-22.04-10.03-53.23-11.02Z"/>
        <path class="cls-2" d="M60.88,78.59c8.59,5.3,18.18,8.91,28.09,10.76,9.22,1.72,20.08,3.23,29.15.23,3.45-1.14,2.6-5.73-.82-6.08-9.14-.95-18.15.16-27.31-1.49-9.1-1.65-17.82-4.54-26.29-8.23-3.22-1.4-5.96,2.88-2.82,4.82h0Z"/>
        <path class="cls-2" d="M148.55,88.18c7.11.8,16.65.63,22.76-3.62,2.59-1.8.96-5.47-2.09-4.96-3.33.56-6.49,1.96-9.85,2.54-3.58.61-7.2.62-10.81.31-3.71-.32-3.61,5.33,0,5.73h0Z"/>
        <path class="cls-2" d="M181.56,81.29c.37-.29.74-.59,1.1-.88l.43-.56.28-.66c.17-.6.1-1.23-.14-1.79-.43-1.02-1.41-1.67-2.52-1.69l-1.48-.03c-1.15-.02-2.26.64-2.84,1.63-.53.91-.57,1.97-.17,2.93.39.93,1.14,1.63,2.13,1.9.58.16,1.17.16,1.75,0,.56-.16,1.04-.44,1.45-.85h0Z"/>
        <path class="cls-2" d="M63.04,110.22s30.06,8.55,63.5,8.26c32.75-.28,56.95-8.26,56.95-8.26l-1.09,84.85s-21.12,11.96-59.85,11.11-58.11-12.24-58.11-12.24l-1.4-83.72Z"/>
        <path class="cls-4" d="M124.45,148.28s5.58,5.58,15.54,2.19c9.96-3.39,15.54-8.97,27.1-4.78,11.56,4.18,12.95,9.96,11.16,17.13-1.79,7.17-6.97,13.75-16.74,13.35s-13.35-3.79-21.52-1.59-15.94,4.58-23.51.8c-7.57-3.79-10.16-11.16-10.16-14.15s18.13-12.95,18.13-12.95Z"/>
        <path class="cls-5" d="M111.82,172.1c.63-1.66,2.12-5.29,4.06-7.68,2.59-3.19,7.57-4.98,11.56-8.97,1.8-1.8,2.78-3.19,3.32-4.18-4.11-.8-6.31-3-6.31-3,0,0-18.13,9.96-18.13,12.95,0,2.26,1.49,7.04,5.5,10.87Z"/>
        <path class="cls-4" d="M116.48,126.96c-14.35,0-18.53,12.75-24.31,17.93-5.78,5.18-21.92,11.56-21.92,22.32s1.79,18.53,18.33,18.13c16.54-.4,14.35-14.54,23.51-21.72,9.17-7.17,18.13-11.36,20.72-19.53,2.59-8.17-1.99-17.13-16.34-17.13Z"/>
        <path class="cls-1" d="M145.63,175.98c-.31-2.45-2.26-4.28-4.55-4.93-2.77-.79-4.85-.2-7.12,1.57-3.45,2.7-7.41,8.62-4.45,13.1,1.32,1.99,4.07,2.64,6.39,2.06,2.31-.58,4.25-2.15,5.94-3.84,2.16-2.15,4.16-4.94,3.79-7.97Z"/>
        <path class="cls-1" d="M145.86,185.72c-1.49,1.55-2.37,3.82-1.8,5.89.5,1.83,2.06,3.24,3.82,3.94,1.76.69,3.72.75,5.61.59,1.82-.16,3.64-.54,5.24-1.41,1.6-.87,2.96-2.28,3.49-4.03.82-2.7-.6-5.79-2.98-7.32-4.1-2.64-10.15-1.02-13.38,2.34Z"/>
        <path class="cls-1" d="M122.92,186.48c-.23-1.98-1.6-3.68-3.27-4.77-1.68-1.1-4.35-2.29-6.39-2.45-2.4-.18-5.11,1.31-6.87,2.81-1.11.94-2.1,2.12-2.46,3.53-.57,2.19.51,4.57,2.25,6.01s4.03,2.05,6.28,2.25c2.44.22,5-.04,7.11-1.3,2.1-1.25,3.63-3.65,3.35-6.08Z"/>
        <path class="cls-5" d="M115.51,129.55c-7.19,4.26-13.27,9.88-17.26,17.27-1.1,2.03-2.26,3.83-3.98,5.39-1.54,1.4-3.32,2.52-5.1,3.57-3.4,2.02-6.91,3.78-9.81,6.53-3.24,3.06-5.6,6.91-6.99,11.13-.29.88,1.09,1.25,1.38.38,1.28-3.84,3.42-7.36,6.26-10.25,2.81-2.85,6.3-4.83,9.68-6.92,3.07-1.9,5.93-4.02,7.97-7.05,2.39-3.54,4.4-7.18,7.35-10.32,3.26-3.46,7.08-6.25,10.99-8.92.5-.34.05-1.13-.48-.82h0Z"/>
        <path class="cls-5" d="M78.58,182.9c8.96-1.67,17.1-7.08,22.15-14.67,2.89-4.34,4.74-9.23,8.53-12.93,3.7-3.62,8.32-5.98,12.34-9.19,2.1-1.67,3.99-3.66,5.19-6.09,1.05-2.14,1.89-5.03.94-7.34-.29-.7-1.41-.68-1.41.19.02,2.52-.06,4.62-1.32,6.9-1.17,2.11-2.91,3.81-4.79,5.28-3.8,2.98-8.09,5.24-11.63,8.55-3.52,3.29-5.58,7.44-7.93,11.57-2.27,3.99-5.28,7.62-8.95,10.41-3.95,3.01-8.57,5.14-13.4,6.26-.69.16-.39,1.18.29,1.05h0Z"/>
        <path class="cls-5" d="M80.27,157.84c3.93,1.63,7.7,3.8,11.06,6.41,1.65,1.28,3.2,2.69,4.67,4.17.73.73,1.43,1.49,2.11,2.27s1.27,1.66,2.09,2.29c.45.35,1.21-.24.99-.76-.78-1.87-2.64-3.53-4.05-4.94-1.55-1.55-3.23-2.96-4.98-4.26-3.55-2.64-7.45-4.71-11.61-6.21-.66-.24-.9.77-.28,1.03h0Z"/>
        <path class="cls-5" d="M77.97,170.26c2.49,3,5.05,5.94,8.15,8.34,1.44,1.11,2.96,2.11,4.6,2.92,1.6.79,3.32,1.51,5.12,1.56.67.02.69-.87.15-1.09-1.64-.66-3.34-1.12-4.93-1.93-1.58-.8-3.08-1.78-4.47-2.88-2.87-2.28-5.39-4.97-7.87-7.66-.47-.51-1.17.23-.74.74h0Z"/>
        <path class="cls-5" d="M93.38,150.42c3.32,1.96,6.46,4.2,9.41,6.68,1.42,1.19,2.79,2.45,4.1,3.76.68.67,1.34,1.36,1.98,2.06s1.24,1.47,2.05,1.99c.55.36,1.04-.32.82-.82-.39-.87-1.12-1.58-1.77-2.27-.65-.7-1.31-1.38-1.99-2.05-1.39-1.37-2.85-2.68-4.36-3.93-2.99-2.46-6.22-4.63-9.6-6.52-.72-.4-1.35.68-.64,1.1h0Z"/>
        <path class="cls-5" d="M103.6,139.48c3.88.56,7.15,2.99,9.78,5.78,1.35,1.43,2.59,2.97,3.82,4.51,1.24,1.56,2.16,3.25,3.22,4.92.28.45,1.16.32,1.09-.3-.24-2.05-1.63-3.8-2.84-5.39-1.33-1.74-2.69-3.46-4.21-5.03-2.92-3.01-6.44-5.32-10.68-5.82-.75-.09-.93,1.22-.18,1.33h0Z"/>
        <path class="cls-5" d="M118.36,132.09c2.58,1.04,5.03,2.46,7.13,4.29,2.1,1.83,3.63,4.02,4.99,6.44.25.45,1.02.15.84-.36-.95-2.73-2.96-5.06-5.14-6.9-2.25-1.9-4.82-3.34-7.56-4.41-.59-.23-.83.71-.26.94h0Z"/>
        <path class="cls-5" d="M106.84,187.89c1.93,1.95,4.4,3.89,7.34,3.28.64-.13,1.23-.41,1.75-.81s1.01-.94,1.65-1.17c1.34-.48,2.91.41,4.17-.4.39-.26.29-1.03-.26-.97-.6.06-1.18.17-1.79.17-.64,0-1.27-.03-1.9.07-1.25.19-1.95,1.12-3.01,1.68-2.65,1.4-5.37-.89-7.12-2.66-.53-.54-1.36.29-.83.83h0Z"/>
        <path class="cls-5" d="M135.43,183.5c1.53-.43,2.95-1.16,4.19-2.17,1.19-.97,2.39-2.25,2.92-3.7.09-.26-.08-.56-.32-.65-.27-.11-.52,0-.69.23-.42.56-.77,1.17-1.21,1.71-.45.56-.96,1.07-1.51,1.54-1.07.91-2.31,1.64-3.64,2.11-.59.2-.35,1.11.26.94h0Z"/>
        <path class="cls-5" d="M146.09,188.32c.96,2.32,3.14,3.87,5.65,4.03,1.37.08,2.56-.39,3.79-.94.8-.36,1.63-.62,2.48-.83s1.79-.3,2.64-.59c.49-.17.42-.91-.12-.92-1.42-.01-2.97.36-4.32.79-1.24.4-2.41,1.13-3.73,1.21-2.22.13-4.43-1.17-5.37-3.18-.27-.57-1.27-.16-1.02.43h0Z"/>
        <path class="cls-5" d="M113.92,165.01c5.65,6.6,14.97,5.55,22.48,3.51,4.65-1.27,9.27-2.83,14.12-3.09s9.59.82,14.41,1.38c4.31.51,9.52.41,13.05-2.5.65-.54-.18-1.54-.88-1.14-2.33,1.31-4.58,2.08-7.27,2.2-2.84.13-5.63-.32-8.43-.75-5.5-.85-10.8-1.04-16.27.16-9.45,2.07-22.64,8.64-30.51-.46-.41-.48-1.1.22-.69.69h0Z"/>
        <path class="cls-5" d="M125.65,157.16c8.85,3.47,17.81.67,26.6-1.47,4.69-1.14,9.51-2.08,14.36-1.77,2.2.14,4.45.55,6.45,1.49s3.13,2.19,4.38,3.86c.45.6,1.61.29,1.32-.56-1.19-3.42-5.26-5.24-8.54-5.93-4.79-1.01-9.73-.39-14.45.67-9.6,2.16-20.12,6.56-29.95,3.1-.38-.13-.53.46-.17.6h0Z"/>
        <path class="cls-5" d="M168.96,150.97c1.53,3.02,2.01,6.52,1.9,9.88-.06,1.78-.29,3.54-.69,5.28-.4,1.73-1.07,3.39-1.45,5.11-.11.48.6.85.84.36.83-1.71,1.28-3.71,1.7-5.56.4-1.76.71-3.55.8-5.36.17-3.56-.61-7.02-2.43-10.09-.26-.43-.9-.05-.67.39h0Z"/>
        <path class="cls-5" d="M157.14,148.92c1.28,3.51,1.78,7.16,1.81,10.88s-.87,7.25-2.1,10.84c-.15.43.52.71.74.31,1.72-3.28,2.51-7.29,2.72-10.96.22-3.88-.58-7.8-2-11.39-.28-.71-1.44-.42-1.17.32h0Z"/>
        <path class="cls-5" d="M146.26,151.75c-.62,3.42-.95,6.87-.98,10.34-.02,1.71.04,3.42.17,5.13.13,1.72.25,3.59.84,5.22.18.49.95.44.94-.13,0-1.7-.38-3.4-.56-5.09-.18-1.64-.29-3.29-.32-4.93-.08-3.45.16-6.91.68-10.32.07-.49-.67-.72-.76-.21h0Z"/>
        <path class="cls-5" d="M132.58,153.47c-.48,3.05-.77,6.1-.65,9.19.06,1.54.21,3.08.42,4.61s.37,3.11.95,4.52c.2.48,1.02.48.98-.13-.08-1.42-.45-2.81-.65-4.21-.23-1.59-.36-3.19-.43-4.79-.14-3.02-.1-6.07.25-9.07.06-.49-.79-.61-.87-.12h0Z"/>
        <path class="cls-5" d="M121.09,159.96c-.29,2.48-.45,4.96-.46,7.46s.09,4.96.68,7.29c.13.52.91.4.92-.12.05-2.43-.19-4.88-.25-7.3s0-4.88.18-7.31c.05-.69-.99-.67-1.07,0h0Z"/>
        <path class="cls-5" d="M182.1,217.99c1.03-.46,2.07-.92,3.1-1.38.51-.23,1.01-.46,1.51-.7.58-.28,1.09-.65,1.59-1.05.39-.32.45-1.04.19-1.45-.29-.46-.82-.68-1.35-.55-1.17.28-2.23.88-3.28,1.45l-2.96,1.62c-.55.3-.77,1.11-.43,1.64.38.59,1.02.7,1.64.43h0Z"/>
        <path class="cls-5" d="M185.16,209.96c.44-.25.88-.51,1.32-.76.22-.13.41-.28.61-.43.17-.13.34-.25.5-.39.1-.09.19-.18.29-.28.36-.34.45-.98.18-1.4s-.8-.67-1.31-.53c-.57.16-1.15.36-1.67.65l-1.33.74c-.3.17-.55.5-.64.83s-.05.78.14,1.07.48.56.83.64.74.05,1.07-.14h0Z"/>
        <path class="cls-5" d="M57.78,95.59c.5.06.99.11,1.49.16.14,0,.27-.02.39-.09.12-.04.23-.11.32-.21l.16-.2c.07-.11.11-.24.12-.37.02-.09.02-.18,0-.27,0-.13-.05-.26-.12-.37l-.16-.2c-.12-.12-.27-.21-.44-.26-.48-.19-.95-.38-1.43-.57-.21-.06-.43-.06-.64,0l-.29.12c-.18.11-.33.25-.43.43-.09.14-.14.29-.14.45-.04.16-.03.32.02.48.04.16.11.29.22.41.09.13.2.24.34.31.19.11.39.16.61.17h0Z"/>
        <path class="cls-5" d="M57.05,106.39c1.64,0,1.64-2.55,0-2.55s-1.64,2.55,0,2.55h0Z"/>
        <path class="cls-5" d="M62.94,16.59c4.44,4.87,11.24,7.32,17.47,8.89,8.49,2.14,17.22,3.43,25.92,4.25,17.27,1.63,34.72.5,51.74-2.7,4.71-.88,9.44-1.84,14.02-3.25,2.13-.66,4.22-1.43,6.27-2.33,2.03-.89,3.98-1.81,5.51-3.45,1.39-1.48.03-4.08-2.03-3.48-1.84.53-3.44,1.45-5.17,2.24-1.63.75-3.31,1.37-5.01,1.93-3.83,1.25-7.77,2.13-11.71,2.94-8.29,1.71-16.67,2.94-25.11,3.58-16.61,1.25-33.29.17-49.71-2.55-3.78-.63-7.52-1.37-11.16-2.6-3.36-1.14-6.88-2.54-9.44-5.06-1.04-1.03-2.58.53-1.6,1.6h0Z"/>
        <path class="cls-5" d="M62.94,47.66c4.44,4.87,11.24,7.32,17.47,8.89,8.49,2.14,17.22,3.43,25.92,4.25,17.27,1.63,34.72.5,51.74-2.7,4.71-.88,9.44-1.84,14.02-3.25,2.13-.66,4.22-1.43,6.27-2.33s3.98-1.81,5.51-3.45c1.39-1.48.03-4.08-2.03-3.48-1.84.53-3.44,1.45-5.17,2.24-1.63.75-3.31,1.37-5.01,1.93-3.83,1.25-7.77,2.13-11.71,2.94-8.29,1.71-16.67,2.94-25.11,3.58-16.61,1.25-33.29.17-49.71-2.55-3.78-.63-7.52-1.37-11.16-2.6-3.36-1.14-6.88-2.54-9.44-5.06-1.04-1.03-2.58.53-1.6,1.6h0Z"/>
        <path class="cls-5" d="M69.12,20.99c.16,9.34.67,18.71,1.01,28.04.02.62.96.62.96,0,.09-9.32-.03-18.75-.88-28.04-.06-.69-1.1-.71-1.09,0h0Z"/>
        <path class="cls-5" d="M80.93,24.52c.06,4.77.15,9.53.26,14.3.05,2.38.11,4.77.16,7.15.05,2.16-.22,4.63.34,6.72.11.43.79.45.89,0,.46-2.12.08-4.56.03-6.72l-.18-7.15c-.12-4.77-.25-9.53-.42-14.3-.02-.69-1.09-.7-1.08,0h0Z"/>
        <path class="cls-5" d="M97.65,27.12c-.07,4.76,0,9.53,0,14.29,0,2.38-.02,4.76-.06,7.15-.02,1.1-.04,2.2-.06,3.3s-.22,2.37.21,3.44c.16.39.78.61,1.01.13.85-1.81.47-4.36.51-6.33.05-2.47.08-4.95.09-7.42.02-4.86-.04-9.72-.36-14.57-.06-.85-1.33-.87-1.34,0h0Z"/>
        <path class="cls-5" d="M118.98,28.42c0,4.73,0,9.47.04,14.2.02,2.37.04,4.73.06,7.1.02,2.18-.16,4.58.42,6.7.14.52.93.53,1.07,0,.55-2.13.33-4.52.31-6.7-.02-2.37-.04-4.73-.07-7.1-.04-4.73-.11-9.47-.21-14.2-.02-1.05-1.63-1.05-1.63,0h0Z"/>
        <path class="cls-5" d="M134.55,28.24c.15,4.92.2,9.84.17,14.76-.01,2.37-.04,4.74-.05,7.11,0,2.11-.28,4.69.43,6.7.18.52.92.56,1.09,0,.62-2.05.31-4.57.31-6.7,0-2.37.02-4.74.03-7.11.01-4.94-.08-9.85-.63-14.76-.1-.84-1.38-.89-1.35,0h0Z"/>
        <path class="cls-5" d="M152.13,27.49c-.02,4.54-.09,9.09-.05,13.63.02,2.27.05,4.54.08,6.82.02,2.16-.07,4.36.32,6.49.13.69,1.3.71,1.42,0,.34-2.14.2-4.33.17-6.49-.03-2.27-.05-4.54-.09-6.82-.07-4.55-.24-9.09-.37-13.63-.03-.95-1.48-.96-1.48,0h0Z"/>
        <path class="cls-5" d="M168.62,23.04c-.16,4.95-.31,9.9-.48,14.85-.08,2.38-.17,4.77-.27,7.15-.1,2.38-.49,4.96-.02,7.32.13.65,1.06.57,1.24,0,.71-2.29.56-4.94.65-7.32.09-2.38.17-4.76.24-7.15.14-4.95.16-9.9.09-14.85-.01-.93-1.42-.93-1.44,0h0Z"/>
        <path class="cls-5" d="M179.06,19.85c-.33,4.61-.52,9.24-.75,13.86-.11,2.26-.2,4.53-.28,6.79-.08,2.31-.38,4.76-.14,7.07.07.66,1.14.95,1.27.17.35-2.18.23-4.48.29-6.69.06-2.35.14-4.71.18-7.06.1-4.71.27-9.42.34-14.13,0-.58-.86-.57-.9,0h0Z"/>
      </g>
    </g>
  </g>
</svg>