<?xml version="1.0" encoding="UTF-8"?>
<svg id="Capa_2" xmlns="http://www.w3.org/2000/svg" viewBox="0 0 243.3 243.3">
  <defs>
    <style>
      .cls-1 {
        fill: #fff;
      }

      .cls-2 {
        fill: none;
      }

      .cls-3 {
        fill: #4f3535;
      }

      .cls-4 {
        fill: #d9472e;
      }

      .cls-5 {
        fill: #f0b5ab;
      }
    </style>
  </defs>
  <g id="grocery_icons">
    <g>
      <rect class="cls-2" width="243.3" height="243.3"/>
      <g>
        <g>
          <path class="cls-4" d="M215.57,120.31c-2.61-17.36-10.43-36.78-23.03-49.31-.83-.83-7.9-11.09-7.37-12.27.19-.43-21.9,0-21.73.37.06.14-56.45-1.9-90.24,1.6-15.73,1.63-23.47,9.93-23.84,10.3-12.6,12.53-20.42,31.95-23.03,49.31-2.79,18.57,1.12,36.86,10.32,53.12,9.04,15.97,20.81,32.09,34.44,44.44,7.47,6.77,15.01,9.1,24.91,10.48,16.33,2.28,33.57,2.28,49.89,0,9.93-1.39,17.41-3.68,24.91-10.48,13.63-12.35,25.41-28.48,34.44-44.44,9.2-16.26,13.11-34.55,10.32-53.12Z"/>
          <path class="cls-5" d="M204.02,68.63c-.97-6.12-7.21-8.77-11.58-12.09-7.52-5.71-4.46-15.92-4.15-24.16,0-.08,0-.16-.01-.23,3.66-9.65-21.19-12.18-25.72-12.94-9.03-1.51-18.14-2.69-27.3-2.89-18.36-.39-36.71-.23-54.87,2.72-4.59.75-30.46,3.29-26.74,13.1,0,.08-.02.15-.01.24.31,8.26,3.37,18.44-4.15,24.16-4.39,3.34-10.57,5.96-11.58,12.09-.96,5.77,5.12,7.04,9.68,6.63,3.64-.33,6.96-1.86,10.21-3.41,3.55-1.69,7.24-3.9,11.28-4.05.34-.01.69,0,.98.17.44.27.58.84.67,1.35.5,2.61.88,5.06,2.2,7.41,1.61,2.87,4.18,5.11,7.53,5.53,7.68.96,11.79-5.35,17.72-8.66,2.73-1.52,4.86-2.63,7.4.13,1.2,1.3,1.73,3.26,2.93,4.63,1.83,2.1,4.24,3.65,6.87,4.55.55.19,1.12.35,1.7.48,1.31.35,2.69.5,4.07.47,1.25,0,2.49-.15,3.67-.46.59-.14,1.17-.3,1.73-.49,2.62-.89,5.04-2.45,6.87-4.55,3.53-4.06,3.96-8.36,10.34-4.76,5.88,3.33,10.11,9.6,17.72,8.66,3.27-.41,5.83-2.57,7.44-5.35.84-1.44,1.4-3.02,1.8-4.64.27-1.07.12-3.63,1.12-4.23.29-.17.64-.2.97-.2,4.08-.03,7.78,2.31,11.34,4.01,3.25,1.55,6.57,3.09,10.21,3.41,4.61.41,10.6-.83,9.68-6.63Z"/>
          <path class="cls-1" d="M172.27,132.33c-.71-4.32-2.1-8.46-4.35-12.16-9.63-15.82-31.21-22.04-48.75-20.69-17.3,1.33-33.24,9.6-41.21,25.63-9.29,18.69-7.57,45.14,8.88,59.3,15.85,13.64,43.63,16.99,61.43,5.2,10.71-7.09,18.01-18.37,21.66-30.56,2.45-8.2,3.81-17.85,2.34-26.72Z"/>
          <path class="cls-1" d="M65.43,34.08c19,2.58,39.54,5.72,58.61,2.3,1.91-.34,1.19-2.91-.42-3.1-9.56-1.16-19.31-.59-28.93-.95-9.6-.36-19.28-.5-28.86-1.23-1.68-.13-2.1,2.75-.4,2.98h0Z"/>
          <path class="cls-1" d="M137.15,36.59c5.62,1.15,11.13,1.05,16.82.51,4.95-.47,10.74-.69,14.96-3.46,1.14-.75,1.2-2.99-.42-3.24-4.8-.76-9.72.7-14.54,1.11-5.42.46-10.85.4-16.27.96-2.16.23-3.07,3.61-.56,4.12h0Z"/>
          <path class="cls-1" d="M177.4,33.81c.09-.06.17-.12.26-.18.04-.03.09-.06.13-.09l.07-.05c.3-.16.55-.39.73-.67.24-.32.2-.25.36-.62.05-.12.1-.24.15-.37.03-.06.05-.13.08-.19l.08-.57c.01-.3-.05-.58-.19-.83-.19-.44-.47-.77-.88-1.03-.3-.19-.57-.36-.94-.46-.41-.11-.82-.09-1.23-.09-.95.01-1.94.51-2.39,1.37-.35.66-.48,1.4-.28,2.13.18.67.67,1.3,1.27,1.65.43.25.9.38,1.4.38.5,0,.96-.13,1.4-.38h0Z"/>
          <path class="cls-3" d="M192.45,41.88c-22.5,4.82-44.57,9.45-67.67,10.4-22.85.94-45.5-1.19-67.8-6.22-1.29-.29-1.86,1.51-.76,2.02-2.12-.45-4.25-.9-6.36-1.4-1.54-.36-2.19,1.96-.66,2.38,23.16,6.21,47.2,8.69,71.14,8.83,23.86.14,49.55-1.25,72.28-9.12,1.15-.4.68-1.99-.49-1.79-12.2,2-24.22,4.63-36.53,5.98-6.09.67-12.2,1.12-18.32,1.4,18.85-1.45,37.98-4.49,55.87-9.93,1.63-.5.95-2.9-.7-2.54Z"/>
          <path class="cls-1" d="M64.09,86.51c-7.64,8.87-17.05,22.45-13.28,34.81.76,2.51,4.2,3,5.57.73,2.85-4.73,3.7-10.1,5.47-15.27,1.94-5.66,4.28-11.16,7.53-16.19,2.05-3.17-2.78-7.01-5.29-4.09h0Z"/>
          <path class="cls-1" d="M48.12,134.23c.05,2.33-.03,4.78,1.6,6.64.83.95,2.63.95,3.46,0,1.63-1.86,1.55-4.31,1.6-6.64.04-1.74-1.56-3.41-3.33-3.33-1.77.08-3.37,1.46-3.33,3.33h0Z"/>
          <path class="cls-1" d="M184.36,169.9c2.23-2.67,4.51-6.11,3.48-9.77-.48-1.72-2.67-2.28-3.94-1.04-1.81,1.76-2.6,4.26-4.16,6.2-1.1,1.37-1.34,3.27,0,4.61,1.16,1.16,3.48,1.36,4.61,0h0Z"/>
        </g>
        <path class="cls-3" d="M175.36,49.99c5.23-12.31,13.41-23.37,23.76-31.85,2.05-1.68,4.7-4.08,7.53-4.06,3.16.02,2.43,4.07,1.8,6.05-2.04,6.42-8.32,11.25-13.38,15.28-2.9,2.31-5.93,4.47-8.98,6.58-1.39.96-2.8,1.9-4.22,2.83-.81.53-1.62,1.03-2.46,1.5-.52.29-1.55,1.03-2.18.69-.42-.23-.78-1.36-.98-1.74-.34-.69-.64-1.4-.96-2.1-.8-1.76-1.61-3.52-2.49-5.24-1.62-3.2-3.5-6.25-5.74-9.05-3.9-4.87-9.43-9.25-15.71-10.39-5.23-.95-12.42,1.16-12.08,7.69.19,3.59,2.65,6.68,5.2,9.01,2.87,2.62,6.04,4.95,9.36,6.97,3.2,1.94,6.6,3.55,10.1,4.88,3.6,1.37,7.41,2.63,11.28,2.75,1.85.06,2.03-2.53.42-3.09-3.38-1.17-6.89-1.89-10.25-3.16-3.2-1.2-6.27-2.72-9.22-4.45s-5.76-3.7-8.35-5.93c-2.16-1.85-5.39-4.76-4.85-7.96.45-2.65,3.45-3.42,5.74-3.41,2.97.02,5.89,1.27,8.39,2.79,6.14,3.74,10.11,9.93,13.41,16.15.79,1.48,1.54,2.98,2.27,4.49.77,1.57,1.39,2.83,2.86,3.85,1.3.91,2.52,1.4,4.14,1.15,1.88-.29,3.42-1.43,4.99-2.43,6.43-4.09,12.63-8.54,18.26-13.7,4.76-4.35,9.83-9.96,10.03-16.79.09-3.15-1.53-6.34-4.81-7.07-3.06-.68-6.28.83-8.7,2.61-12.23,8.99-21.55,21.89-27,35.97-.62,1.6,2.12,2.77,2.79,1.18h0Z"/>
        <path class="cls-3" d="M175.42,44.5c-3.98,8.33-6.89,17.1-8.65,26.17-.88,4.5-1.52,9.06-1.94,13.63-.21,2.25-.32,4.48-.34,6.74-.03,2.37-.11,4.81.51,7.12.34,1.28,2.34,1.34,2.65,0,.51-2.16.48-4.39.61-6.6.13-2.25.3-4.5.48-6.74.36-4.49.95-8.95,1.79-13.38,1.67-8.84,4.07-17.54,7.1-26.01.45-1.27-1.61-2.16-2.2-.93h0Z"/>
        <path class="cls-3" d="M175.49,53.39c6.63,6.72,13.6,13.28,21.49,18.52,3.88,2.57,7.96,4.81,12.25,6.6,4.29,1.8,8.89,3.32,13.59,3.13,1.88-.08,2.18-2.61.44-3.22-4.26-1.47-8.67-2.46-12.85-4.2-4-1.67-7.81-3.81-11.44-6.18-7.59-4.97-14.4-10.93-20.92-17.22-1.68-1.62-4.2.9-2.56,2.56h0Z"/>
        <path class="cls-3" d="M71.27,204.16c.45.02.87-.08,1.26-.28.41-.13.76-.36,1.05-.68.32-.3.55-.65.68-1.05.21-.39.3-.81.28-1.26l-.12-.87c-.16-.55-.44-1.04-.84-1.45l-.66-.51c-.51-.3-1.06-.45-1.65-.45-.45-.02-.87.08-1.26.28-.41.13-.76.36-1.05.68-.32.3-.55.65-.68,1.05-.21.39-.3.81-.28,1.26l.12.87c.16.55.44,1.04.84,1.45.22.17.44.34.66.51.51.3,1.06.45,1.65.45h0Z"/>
        <path class="cls-3" d="M64.81,181.44c.33.01.64-.06.93-.21.3-.1.56-.26.78-.5.24-.22.4-.48.5-.78.15-.29.22-.6.21-.93l-.09-.64c-.12-.41-.32-.77-.62-1.07l-.49-.38c-.38-.22-.79-.33-1.22-.33-.33-.01-.64.06-.93.21-.3.1-.56.26-.78.5-.24.22-.4.48-.5.78-.15.29-.22.6-.21.93l.09.64c.12.41.32.77.62,1.07l.49.38c.38.22.79.33,1.22.33h0Z"/>
        <path class="cls-3" d="M94.96,207.47c.05-.03.11-.06.16-.09.52-.31.94-.73,1.25-1.25.32-.54.47-1.13.48-1.76,0-.63-.16-1.22-.48-1.76-.31-.52-.73-.94-1.25-1.25-.05-.03-.11-.06-.16-.09-.56-.33-1.17-.49-1.82-.49-.65,0-1.26.17-1.82.49-.54.32-.97.75-1.29,1.29-.33.56-.49,1.17-.49,1.82,0,.65.17,1.26.49,1.82.32.54.75.97,1.29,1.29.56.33,1.17.49,1.82.49.65,0,1.26-.17,1.82-.49h0Z"/>
        <path class="cls-3" d="M178.1,121.76c.39.01.76-.07,1.1-.25.35-.12.66-.31.92-.59.28-.26.48-.57.59-.92.18-.34.26-.71.25-1.1l-.1-.76c-.14-.48-.38-.91-.74-1.26l-.58-.45c-.45-.26-.93-.39-1.44-.39-.39-.01-.76.07-1.1.25-.35.12-.66.31-.92.59-.28.26-.48.57-.59.92-.18.34-.26.71-.25,1.1l.1.76c.14.48.38.91.74,1.26l.58.45c.45.26.93.39,1.44.39h0Z"/>
        <path class="cls-3" d="M180.14,95.53l.44.2.64.27c.36.11.71.13,1.07.05.24,0,.47-.06.68-.18.33-.11.62-.29.86-.56l.42-.54.27-.64c.11-.36.13-.71.05-1.07-.02-.36-.12-.69-.32-1l-.2-.44c-.25-.43-.6-.77-1.03-1.03-.45-.26-.93-.39-1.44-.39l-.76.1c-.48.14-.91.38-1.26.74-.28.26-.48.57-.59.92-.18.34-.26.71-.25,1.1,0,.52.13,1,.39,1.44.25.43.6.77,1.03,1.03h0Z"/>
        <path class="cls-3" d="M202.45,111.26c1.69,0,1.69-2.62,0-2.62s-1.69,2.62,0,2.62h0Z"/>
        <path class="cls-3" d="M199.47,124.63c-.14,0-.29,0-.43,0l-.85.11c-.42.1-.78.29-1.09.57-.24.14-.43.33-.58.58-.28.31-.47.67-.57,1.09v.05c.45-.6.91-1.2,1.38-1.8l-.11.07c-.22.14-.4.26-.62.47-.54.54-.85,1.29-.85,2.06,0,.52.13,1.01.4,1.46.1.23.25.43.46.6l.59.46.03.02.11.07-1.39-1.8v.05c.12.26.22.51.33.77.2.37.48.67.83.9.2.2.44.34.71.41.38.2.79.29,1.24.28.14.01.29,0,.43,0,.44.02.85-.08,1.24-.28.4-.13.74-.35,1.03-.66.31-.29.53-.64.66-1.03.2-.38.29-.79.28-1.24l-.11-.85c-.15-.54-.43-1.02-.83-1.42l-.65-.5c-.5-.29-1.04-.44-1.62-.44h0Z"/>
        <path class="cls-3" d="M38.13,112.93l.02.21c.03.3.03.69.13.94l.28.67c.18.33.41.59.72.78.17.17.38.29.62.36.33.17.69.25,1.07.24.25-.03.49-.07.74-.1l.67-.28c.33-.18.59-.41.78-.72.25-.27.41-.59.5-.95.05-.12.07-.25.06-.39.02-.13.04-.26.05-.39,0-.02,0-.03,0-.05v-.11c.02-.07.03-.14.03-.21.01-.39-.07-.76-.24-1.09-.11-.35-.31-.66-.59-.91-.26-.28-.56-.47-.91-.59-.34-.18-.7-.26-1.09-.24l-.75.1c-.48.13-.9.38-1.25.73l-.44.57c-.26.44-.39.92-.39,1.43h0Z"/>
        <path class="cls-3" d="M35.23,150.88l.2.1.1.05.05.02s.01,0,.02.01c.59.28.54.26,1.2.33.32.01.63-.06.91-.2.29-.09.54-.26.76-.49l.37-.48c.21-.37.32-.76.32-1.19-.02-.21-.05-.42-.09-.63l-.24-.56s0-.02-.01-.03l-.02-.05-.05-.1-.1-.2c-.22-.38-.52-.68-.9-.9-.39-.23-.81-.34-1.27-.34l-.67.09c-.43.12-.79.33-1.11.65-.24.23-.42.5-.52.81-.16.3-.23.62-.22.97,0,.45.12.88.34,1.27.22.38.52.68.9.9h0Z"/>
        <path class="cls-3" d="M176.11,194.71c.45.02.87-.08,1.26-.28.41-.13.76-.36,1.05-.68.32-.3.55-.65.68-1.05.21-.39.3-.81.28-1.26l-.12-.87c-.16-.55-.44-1.04-.84-1.45l-.66-.51c-.51-.3-1.06-.45-1.65-.45-.45-.02-.87.08-1.26.28-.41.13-.76.36-1.05.68-.32.3-.55.65-.68,1.05-.21.39-.3.81-.28,1.26l.12.87c.16.55.44,1.04.84,1.45.22.17.44.34.66.51.51.3,1.06.45,1.65.45h0Z"/>
        <g>
          <g>
            <path class="cls-4" d="M140.43,132.5c-3.7-1.18-7.63-.97-11.45-.7-2.1.15-4.18.46-6.28.52-2.15.07-4.08-.51-6.18-.69-4.27-.38-9.92-.14-13.55,2.94-6.51,5.51-7.34,22.07,4.35,36.66,11.34,14.16,16.1,13.71,22.28,10.18,6.18-3.53,15.75-18.18,17.64-31.74,1.5-10.75-.06-15.02-6.81-17.17Z"/>
            <path class="cls-3" d="M113.55,151.68c-.17-.29-.7-.34-.84.08-.18.55-1.78,6.06.34,5.2.75-.3.97-1.43,1.06-2.13.13-1,.24-2.36-.54-3.14,0,0-.02-.01-.03-.02ZM113.08,155.8c-.07.13-.18.2-.31.07-.11-.11-.11-.4-.12-.55-.01-.34.17-.93.27-1.27.11-.38.23-.76.36-1.14.04.33.06.67.04,1.03-.02.58-.04,1.14-.18,1.7-.01.06-.03.12-.06.17Z"/>
            <path class="cls-3" d="M123.82,154.67c1.04.71,1.79-.57,1.94-1.43.18-1.04-.04-2.63-.97-3.3-1.02-.74-1.58.72-1.69,1.52-.14.99-.22,2.57.72,3.22ZM124.25,150.73c.13.03.26.36.34.52.25.55.31,1.17.22,1.76-.02.13-.08.67-.23.74-.84.39-.58-2.49-.5-2.8.05-.19.11-.24.17-.23Z"/>
            <path class="cls-3" d="M135.7,150.09c-.13.04-.25.1-.34.19-.42.4-.25,1.27-.17,1.77.11.67.36,1.32.71,1.91.43.72,1.2,1.39,1.92.55.57-.67.36-1.83.12-2.59-.18-.55-.42-1.15-.84-1.56-.2-.2-.45-.35-.74-.36-.2,0-.44.01-.65.09ZM136.75,153.63c-.31-.26-.44-1.04-.52-1.43-.09-.42-.11-.86-.13-1.29.53.09.89,1.1,1,1.48.08.27.32,1.8-.35,1.24Z"/>
            <path class="cls-3" d="M127.79,161.33c-.35.2-.6.63-.63,1.07-.06.88-.02,1.92.47,2.68.35.55,1.26,1.28,1.69.44.48-.93.47-2.3.07-3.25-.13-.32-.35-.63-.62-.84-.35-.27-.7-.27-.98-.11ZM128.79,164.96s-.06-.05-.11-.08c-.1-.11-.18-.22-.25-.35-.13-.23-.22-.47-.28-.72-.12-.52-.09-1.07-.05-1.61.41.12.53.68.64,1.08.1.4.19,1.33.05,1.68Z"/>
            <path class="cls-3" d="M117.7,163.76c-.1.49-.05,1.06,0,1.44.03.25.1.5.2.74.04.1.27.6.39.6.57.62,1.47.52,1.63-.37.17-.92.01-2.44-.69-3.14-.26-.26-.65-.33-.97-.16-.32.17-.48.5-.56.89ZM119.05,166.07c-.12.16-.48-.72-.52-.87-.11-.42-.08-.82.06-1.24.01-.04.02-.07.02-.11.01-.03.02-.06.03-.09,0,.06.21.49.24.57.04.14.07.29.1.44.05.25.25,1.07.08,1.3Z"/>
            <path class="cls-3" d="M123.03,172.25c-.2.28-.29.71-.31,1.04-.05.85.09,1.75.58,2.46.52.76,1.62,1.18,2.21.24.57-.91.03-2.06-.48-2.87-.27-.43-.66-.9-1.14-1.08-.41-.16-.68-.03-.86.21ZM124.79,175.16s0,.06,0,.09c0,.04,0,.07-.03.1-.14.2-.53-.18-.61-.28-.17-.21-.26-.48-.29-.75-.03-.24-.04-.49-.04-.73,0-.08.06-.6,0-.64.34.25.58.75.74,1.13.15.34.24.72.23,1.09Z"/>
            <path class="cls-3" d="M107.04,146.2c-.13-.31-.43-.49-.76-.48-.4.02-.69.2-.92.46-.44.52-.59,1.36-.67,1.95-.07.47-.09,1.02.16,1.44.47.77,1.36.33,1.69-.3.4-.75.84-2.25.5-3.08ZM106.27,147.9c-.06.22-.11.44-.16.65-.03.13-.06.26-.12.38-.18.34-.65.25-.69-.15-.01-.12.01-.24.04-.36.09-.4.17-.8.26-1.2.08-.4.38-1.25.86-.7.21.24.05.59-.03.86-.05.17-.1.35-.15.53Z"/>
            <path class="cls-3" d="M119.96,144.1c.19-.67.6-2.14-.43-2.35-1.01-.2-1.61,1.1-1.82,1.87-.18.63-.48,1.91.39,2.19.97.31,1.65-.98,1.87-1.71ZM118.54,143.91c.19-.47.52-1.29.77-1.26.11.01-.15,1.09-.18,1.2-.06.21-.13.42-.24.61-.03.05-.43.62-.44.62-.11-.02-.02-.63.09-1.17Z"/>
            <path class="cls-3" d="M107.87,160.34c-.77.44-.41,1.94-.03,2.5.23.34.77.16.68-.27-.07-.33-.23-.72-.19-1.06.05-.58.34.18.41.41.11.35.26,1.26.07,1.74-.08-.09-.15-.2-.19-.24-.19-.22-.58.06-.41.3.33.48.83,1.13,1.25.29.41-.81.29-1.9-.04-2.71-.24-.58-.81-1.38-1.54-.96Z"/>
            <path class="cls-3" d="M136.02,159.69c-.55-.05-.93.58-1.13,1-.26.55-.42,1.23-.17,1.81.24.56.86.61,1.32.27.49-.36.75-1.04.75-1.64,0-.37-.11-.81-.31-1.12-.14-.22-.3-.32-.46-.33ZM135.72,161.93s-.16.29-.2.27c-.08-.03-.06-.45-.06-.5.02-.35.15-.69.26-1.02,0-.02.01-.05.02-.07.12.13.15.29.16.51.01.28-.06.56-.19.8Z"/>
            <path class="cls-3" d="M116.11,171.58c-.65-.35-.98.68-.93,1,.1.59.39,1.11.91,1.42.2.12.45.02.53-.2.25-.73.32-1.79-.51-2.23Z"/>
            <path class="cls-3" d="M131.52,171.25c-.27-.16-.64-.03-.73.28-.02.05-.03.11-.05.16-.02.08-.03.17-.04.25,0,.04,0,.07.01.11.01.03.03.07.04.1.04.08.11.14.19.17.15.07.32.04.45-.07.08-.07.14-.14.21-.22.06-.06.11-.13.13-.21.03-.09.03-.17,0-.26-.04-.12-.11-.23-.22-.3Z"/>
            <path class="cls-3" d="M142.41,139.85c-.39-.1-.78.13-.85.54-.06.39.32.8.64.96.46.23.93-.1.91-.59,0-.15-.03-.3-.11-.44-.12-.22-.35-.4-.6-.47ZM142.07,141.13s.08.02.12.02c-.03,0-.07-.01-.1-.02,0,0,0,0-.01,0Z"/>
            <path class="cls-1" d="M110.04,146.72c.22.01.42-.03.61-.12.2-.06.37-.16.51-.31.16-.14.27-.3.34-.5.1-.18.15-.38.15-.6l-.05-.42c-.07-.27-.2-.5-.39-.7-.3-.29-.67-.47-1.09-.48-.22-.01-.42.03-.61.12-.2.06-.37.16-.51.31-.16.14-.27.3-.34.5-.1.18-.15.38-.15.6l.05.42c.07.27.2.5.39.7.3.29.67.47,1.09.48h0Z"/>
            <path class="cls-1" d="M104.93,155.93c1.44.04,1.5-2.21.05-2.24s-1.5,2.21-.05,2.24h0Z"/>
            <path class="cls-1" d="M102.61,146.59c1.27.03,1.32-1.94.05-1.97s-1.32,1.94-.05,1.97h0Z"/>
          </g>
          <path class="cls-1" d="M139.6,142.5c-3.64-1.72-6.93-5.56-8.52-9.22,6.47-.76,12.3-6.38,12.58-12.27,0-.09,0-.17-.03-.24-.05-.48-.45-.92-1.03-.74-5.35,1.58-10.97,5.23-15.18,9.99.39-2.72,1.26-6.87.33-9.53-.86-2.46-2.91-5.76-5.8-6.06-1.14-.12-2.38.36-2.97,1.39-.75,1.28-.08,2.6.63,3.72,1.06,1.69,2.33,3.25,2.94,5.17.43,1.36.89,4.16.78,5.55-2.5-4.69-8.4-5.99-10.67-9.93-.26-.44-.72-.86-1.12-.36-3.29,4.19.2,9.74,5.01,12.35-4.77.51-10.22,2.97-13.06,6.42-.29.35-.2.79.04,1.04.04.1.11.19.23.24,6.29,2.92,15.49.65,20.15-4.59,1.56,2.84,2.9,6.18,6.06,7.58.23.1.46.19.7.27.13-.1.3-.17.45-.15.25.03.52.06.76.16.13.05.25.11.37.17.1-.03.21-.06.32-.05.17,0,.33.05.49.09.45.11.89.24,1.35.33.28.03.56.05.83.13.06.02.11.05.16.07.18.02.36.06.54.11.08.02.16.06.23.11,1.16.08,2.3.02,3.4-.47.49-.21.52-1.05.03-1.29Z"/>
          <path class="cls-3" d="M139.6,142.5c-3.64-1.72-6.93-5.56-8.52-9.22,6.47-.76,12.3-6.38,12.58-12.27,0-.09,0-.17-.03-.24-.05-.48-.45-.92-1.03-.74-5.35,1.58-10.97,5.23-15.18,9.99.39-2.72,1.26-6.87.33-9.53-.86-2.46-2.91-5.76-5.8-6.06-1.14-.12-2.38.36-2.97,1.39-.75,1.28-.08,2.6.63,3.72,1.06,1.69,2.33,3.25,2.94,5.17.43,1.36.89,4.16.78,5.55-2.5-4.69-8.4-5.99-10.67-9.93-.26-.44-.72-.86-1.12-.36-3.29,4.19.2,9.74,5.01,12.35-4.77.51-10.22,2.97-13.06,6.42-.29.35-.2.79.04,1.04.04.1.11.19.23.24,6.29,2.92,15.49.65,20.15-4.59,1.56,2.84,2.9,6.18,6.06,7.58.55.24,1.12.42,1.7.56,0,1.27,1.26,2.15,2.48,2.13.54,0,1.08-.28,1.31-.78.11-.25.12-.52.06-.75,1.38.14,2.75.16,4.06-.41.49-.21.52-1.05.03-1.29ZM134.4,144.63c-.1.36-.5.13-.7-.02-.25-.19-.5-.44-.65-.73.43.07.85.13,1.28.18.06.14.14.31.06.57ZM130.11,141.36c-2.48-1.31-4.36-4.4-5.7-6.8-.17-.31-.58-.35-.83-.13-2.6,2.26-5.1,4.2-8.5,5.13-3.47.95-6.73.53-10.12-.25,2.06-2.05,4.27-3.66,7.1-4.61,2.96-.99,5.77-.94,8.82-.74.34.02.6-.21.67-.52.2-.79-.9-1.22-1.46-1.44-1.04-.41-2.08-.82-3.09-1.32-1.17-.58-2.32-1.2-3.32-2.05-2.19-1.86-2.88-4.73-1.63-7.21,2.55,4.32,8.63,5.39,10.5,10.3.29.76,1.49.99,1.74.04.64-2.46.64-4.99-.1-7.43-.39-1.29-.97-2.48-1.69-3.61-.38-.6-.75-1.22-1.19-1.79-1.12-1.44-1.13-2.06-.68-2.5,1.44-1.41,3.52.98,4.27,2.12.72,1.08,1.12,2.32,1.37,3.58.59,3.11-.02,6.42-.42,9.53-.13,1,1.2,1.13,1.68.5,3.78-4.89,8.61-8.35,14.48-10.15-.74,2.48-1.56,4.73-3.57,6.64-1.23,1.17-2.68,2.11-4.22,2.8-.79.35-1.6.64-2.43.86-.62.17-1.71.1-1.8.87,0,.07,0,.15.02.23,1.09,4.08,3.89,6.99,7.2,9.32-2.39.17-5.18-.33-7.09-1.34Z"/>
        </g>
      </g>
    </g>
  </g>
</svg>