<?xml version="1.0" encoding="UTF-8"?>
<svg id="Capa_2" xmlns="http://www.w3.org/2000/svg" viewBox="0 0 243.3 243.3">
  <defs>
    <style>
      .cls-1 {
        fill: #fff;
      }

      .cls-2 {
        fill: none;
      }

      .cls-3 {
        fill: #a83c19;
      }

      .cls-4 {
        fill: #e09d3e;
      }

      .cls-5 {
        fill: #fad380;
      }

      .cls-6 {
        fill: #4f3535;
      }

      .cls-7 {
        fill: #a1c2de;
      }
    </style>
  </defs>
  <g id="grocery_icons">
    <g>
      <rect class="cls-2" width="243.3" height="243.3"/>
      <g>
        <path class="cls-3" d="M175.9,161.59c0,8.76.59,15.52-.29,31.35-.69,12.39-2.29,24.26-5.8,31.44-7.06,14.47-29.43,14.17-43.19,14.33-13.02.15-31.74-.83-38.34-14.33-3.6-7.36-5.2-19.67-5.85-32.39-.81-15.55-.24-21.83-.24-30.41,0-15.61-2.67-44.79-2.29-53.93.03-.68.09-1.55.15-2.59.66-8.85,3.15-21.27,8.6-43.41,6.09-24.75,13.33-41.87,13.33-41.87l2.61.12c1.59.5,3.14,1.07,4.74,1.53,2.47.69,5.1.89,7.65,1.11,5.47.47,10.94,1.09,16.43,1.3,5.35.2,10.56-.17,15.84-1.02,2.21-.35,4.41-.8,6.48-1.65.26-.11.54-.22.81-.34,1.63,4.05,7.68,19.65,12.9,40.82,5.4,21.92,7.89,34.12,8.58,43.13.09,1.17.14,2.14.18,2.87.37,9.14-2.29,38.32-2.29,53.93Z"/>
        <path class="cls-1" d="M85.8,111.01s2.06,34.99,2.36,45.78c.29,10.8.29,38.58.29,38.58,0,0,17.98,10.5,46.87,8.4,28.89-2.1,34.09-8.4,34.09-8.4,0,0,.99-49.18,1.28-58.77.29-9.6.88-25.59.88-25.59,0,0-19.15,8.05-40.97,7.8-25.94-.3-44.8-7.8-44.8-7.8Z"/>
        <path class="cls-6" d="M159.1,12.34c-.18-1.84-3.12-5.32-13.22-7.34-10.68-2.13-23.28-2.14-33.97,0-10.1,2.02-13.03,5.51-13.22,7.34-.18,1.84.55,11.74.55,11.75.1,1.31,9.13,3.06,10.03,3.25,10.89,2.31,23.25,2.36,34.27.86,5.06-.69,10.41-1.76,15-4.11,0,0,.73-9.91.55-11.75Z"/>
        <path class="cls-1" d="M100.32,12.77c14.09,4.93,29.51,5.37,44.2,3.43,2.17-.29,4.33-.65,6.48-1.07s4.6-.66,6.53-1.7c1.14-.61.58-2.35-.64-2.37-2.43-.04-4.99.91-7.38,1.36-2.33.43-4.67.81-7.02,1.13-4.87.67-9.8,1.01-14.72,1.11-9.04.19-18.34-.93-27.01-3.49-1.03-.31-1.44,1.25-.44,1.6h0Z"/>
        <path class="cls-1" d="M102.67,40.45c-2.09,7-4,14.02-5.46,21.17-.73,3.57-1.43,7.15-2.04,10.75-.6,3.53-1.28,7.25-.55,10.82.23,1.13,1.9,1.29,2.43.32,1.73-3.15,2.23-6.85,2.85-10.34s1.24-7.02,1.92-10.53c1.38-7.09,2.66-14.21,4.11-21.29.43-2.11-2.63-2.99-3.25-.9h0Z"/>
        <path class="cls-1" d="M92.09,90.16c-.12,1.27-.25,2.55-.37,3.82-.06.63-.1,1.24-.08,1.87.03.77.06,1.66.44,2.33s1.56.95,2.11.27c.22-.27.41-.5.53-.84.05-.13.08-.27.12-.41.09-.32.18-.64.25-.96.15-.73.23-1.46.29-2.2.1-1.3.2-2.59.3-3.89.07-.94-.88-1.83-1.79-1.79-1.05.05-1.7.79-1.79,1.79h0Z"/>
        <path class="cls-6" d="M153.4,46.59c.72.08,1.49-.02,2.18-.25.38-.13.76-.3,1.11-.5.14-.08.27-.17.39-.27.21-.16.39-.31.52-.54.09-.15.13-.32.19-.47l-.12.27c.11-.22.21-.45.29-.69.13-.36-.06-.79-.34-1.01-.31-.24-.72-.26-1.07-.08-.13.07-.25.13-.39.19l.27-.11c-.09.04-.19.05-.29.08-.29.09-.5.29-.73.47l.26-.2c-.3.23-.62.41-.97.56l.3-.13c-.35.14-.71.24-1.08.29l.32-.04c-.28.04-.56.05-.84.03-.63-.04-1.23.58-1.2,1.2.01.31.12.63.35.85.25.23.51.31.85.35h0Z"/>
        <path class="cls-6" d="M155.57,52.83c.45-.18.89-.37,1.34-.55.19-.08.39-.15.58-.25.1-.06.2-.12.3-.18.28-.16.54-.32.76-.56.28-.31.38-.73.21-1.13s-.52-.61-.94-.63c-.32-.02-.62.06-.93.14-.23.06-.45.12-.67.21l-1.32.54c-.16.04-.3.11-.42.22-.14.09-.24.2-.32.35-.16.27-.22.66-.13.96s.28.59.57.74.66.25.96.13h0Z"/>
        <path class="cls-6" d="M159.27,218.36c.75.04,1.5-.02,2.23-.17.33-.06.65-.15.96-.25.15-.05.29-.1.44-.16.26-.1.46-.18.66-.38.06-.06.11-.12.17-.19.3-.34.41-.78.23-1.22-.16-.39-.58-.71-1.02-.69-.19,0-.38,0-.56.05s-.36.14-.54.22l.29-.12c-.61.26-1.25.43-1.91.53l.32-.04c-.42.06-.84.08-1.26.07-.61-.02-1.2.55-1.17,1.17.03.67.52,1.14,1.17,1.17h0Z"/>
        <path class="cls-6" d="M161.84,212.92c.43-.19.85-.38,1.28-.57.21-.09.41-.18.61-.31l.6-.37c.54-.34.77-1.01.52-1.6s-.89-.9-1.51-.74l-.68.18c-.22.06-.43.14-.64.23-.43.18-.86.36-1.29.53-.25.07-.46.19-.64.37l-.23.29c-.25.39-.25.88-.07,1.29.15.36.4.61.77.77.17.09.36.13.56.12.26,0,.51-.07.73-.2h0Z"/>
        <g>
          <g>
            <g>
              <path class="cls-6" d="M105.61,171.28c-8.87,3.9-13.17,9.35-8.95,15.62,4.22,6.26,18.33,10.26,30.13,10.17,11.79-.09,20.49-1.91,28.23-6.08,7.75-4.18,7.55-10.87,3.87-14.53-4.61-4.58-12.91-7.81-22.29-8.81-9.38-1-22.12-.27-30.99,3.63Z"/>
              <path class="cls-7" d="M104.27,168.98c-9.39,3.92-13.95,9.39-9.48,15.69,4.47,6.29,19.42,10.3,31.92,10.21,12.49-.09,21.7-1.92,29.91-6.11,8.21-4.19,8-10.91,4.1-14.59-4.88-4.61-13.68-7.84-23.62-8.85s-23.44-.27-32.83,3.65Z"/>
              <path class="cls-1" d="M106.94,170.46c-4.56,1.47-12.35,5.57-9.89,11.58,1.02,2.49,3.57,4.08,5.87,5.24,1.42.72,2.91,1.29,4.42,1.78,1.33.43,3.04,1.17,4.46.97.38-.05.34-.56.1-.74-1.01-.72-2.54-.89-3.71-1.26-1.25-.39-2.48-.84-3.69-1.34-2.28-.94-4.96-2.24-6.23-4.47-1.56-2.72,0-5.54,2.13-7.39,2.05-1.77,4.49-2.47,6.78-3.81.3-.17.1-.68-.24-.57h0Z"/>
              <path class="cls-1" d="M128.7,191.93c6.37-.15,12.77-.77,18.87-2.71,2.74-.87,5.64-1.91,7.99-3.6,2.28-1.65,4.39-4.12,3.97-7.12-.47-3.41-3.92-5.58-7.05-6.26-.52-.11-.87.6-.37.88,1.63.92,3.46,1.4,4.82,2.78,1.32,1.34,1.8,3.24,1.19,5.03-1.19,3.53-5.44,5.28-8.62,6.48-6.64,2.52-13.76,3.28-20.79,3.77-.47.03-.49.76,0,.75h0Z"/>
            </g>
            <path class="cls-6" d="M158.81,173.63c-.31-.67-1.08,2.05-.9,2.76.19.73-.26,1.39-.63,1.99-.37.6-.71,1.19-.96,1.86-.47,1.24-.63,2.59-1.18,3.8-1.02,2.28-3.21,3.79-5.61,4.32-2.64.59-5.13-1.05-7.73-.32-1.32.37-2.49,1.14-3.73,1.71-1.39.64-2.9,1.15-4.41,1.41-3.23.56-7.31-.32-9.42-3.01-.1-.12-.31-.16-.45-.12-2.53.8-4.96,1.31-7.61.82-2.58-.48-4.95-1.64-6.82-3.5-.12-.12-.33-.19-.5-.13-4.17,1.37-8.45-.2-11.32-3.36-.26-.28-.43-.12-.3.24,1.5,4.37,6.93,5.74,11.17,4.51,1.96,1.89,4.39,3.25,7.07,3.72,2.54.44,5.48.27,7.8-.97,2.18,1.94,4.67,3.13,7.65,3.22,1.67.05,3.43-.17,5.03-.68,1.54-.49,3.04-1.37,4.48-2.07.83-.4,1.72-.73,2.66-.7.92.03,1.79.39,2.67.63,1.31.36,3.1.22,4.43-.03,2.52-.48,4.88-2.25,6.09-4.5.82-1.53.95-2.66,1.59-4.25.59-1.47,2.37-4.2.94-7.33Z"/>
            <path class="cls-5" d="M114.06,163.4s-3-2.02-6.79.13c-3.79,2.15-3.53,7.77-3.53,7.77,0,0-3.33,0-5.35,2.94-2.02,2.94-2.61,8.1,1.7,10.25s9.27.85,9.27.85c0,0,2.87,3.79,7.7,3.92,4.83.13,6.92-1.63,6.92-1.63,0,0,2.68,4.11,8.36,3.4,5.68-.72,9.6-3.33,11.82-2.81s6.2,1.24,9.27-1.57,2.74-5.94,2.74-5.94c0,0,3.59-4.24,1.83-8.75s-5.03-6.07-7.77-6.46c-2.74-.39-5.03-.07-5.03-.07,0,0-2.79-7.96-9.01-9.21-6.2-1.24-9.66.59-11.17,1.76-1.5,1.18-2.87,3.33-2.87,3.33,0,0-2.35-.33-4.9.65s-3.2,1.44-3.2,1.44Z"/>
            <path class="cls-4" d="M109.78,173.3c2.53-5,7.9-8.64,13.58-8.64,3.26,0,5.94,2.14,8.02,4.47,2.04,2.3,3.14,4.9,4.38,7.66.2.44.87.12.76-.32-.74-3.04-2.77-6-4.93-8.21-2.15-2.19-4.88-4.1-8.05-4.15-5.93-.1-11.59,3.72-14.2,8.94-.15.3.3.56.45.26h0Z"/>
            <path class="cls-4" d="M134.21,176.56c-1.68-4.58-5.4-9.38-10.52-10.09-4.31-.6-9.35,2.46-11.21,6.42.22,0,.44.04.66.08,1.11-1.71,2.28-3.22,4.08-4.32,2.04-1.25,4.52-1.95,6.9-1.43,2.28.49,4.24,1.87,5.77,3.6,1.59,1.81,2.55,3.92,3.71,6,.18.32.74.1.61-.26Z"/>
            <path class="cls-4" d="M127.98,172.01c-1.38-1.05-3.05-1.7-4.78-1.84-3.05-.24-6.12,1.17-8.1,3.48.09.03.18.05.27.07.12.03.24.05.37.07.05-.07.14-.13.23-.12.03,0,.06,0,.09.01,1.84-1.76,4.24-2.88,6.86-2.75,1.54.08,3.05.62,4.31,1.51.63.44,1.2.97,1.68,1.57.51.64.82,1.4,1.29,2.06.14.2.55.16.52-.14-.17-1.58-1.53-3.01-2.74-3.93Z"/>
            <path class="cls-4" d="M127.01,175.42c-2.25-3.04-6.52-3.33-9.08-.8.19.11.38.22.55.35,1.02-.93,2.35-1.44,3.77-1.37,1.89.09,2.9,1.24,4.37,2.21.23.15.56-.16.39-.39Z"/>
            <path class="cls-4" d="M106.76,166.34c-1.65,1.68-1.8,4.76.26,6.13.06-.26.11-.53.18-.79-.55-.6-.96-1.29-.98-2.17-.03-1.08.49-2.12,1.29-2.83,1.1-.97,2.46-1.11,3.76-.79.24-.19.49-.39.75-.56-1.76-.68-3.85-.42-5.25,1.01Z"/>
            <path class="cls-4" d="M136.54,163.89c2.04,2.34,1.27,5,.61,7.66.19.19.39.37.58.56,1.23-2.88,1.47-6.45-.75-8.86-2.41-2.62-6.34-2.77-9.29-1-.31.19-.04.64.28.48,2.8-1.4,6.39-1.33,8.56,1.16Z"/>
            <path class="cls-4" d="M131.35,164.67c.93-.07,2.1-.12,2.95.36,1.04.59.79,2.15.85,3.16.01.23.37.31.42.06.21-1.03.21-2.71-.67-3.47s-2.46-.7-3.55-.61c-.32.03-.32.52,0,.5h0Z"/>
            <path class="cls-4" d="M126.21,161.55c4.1-2.87,9.94-2.82,13.48.95,3.53,3.76,2.58,10.12-.09,14.09-.19.28.25.51.44.26,3.13-4.12,3.97-10.87.17-14.87-3.76-3.95-9.99-4.06-14.25-.87-.26.2-.02.64.26.45h0Z"/>
            <path class="cls-4" d="M102.79,178.18c4.34-4.01,10.54-2.87,15.36-.47,2.36,1.17,4.51,2.72,6.81,4s4.75,2.16,7.27,2.84c4.98,1.34,10.38,1.71,15.25-.26,4.12-1.66,8.13-5.28,8.42-9.99.14-2.37-.8-4.83-2.75-6.25-2.14-1.56-5.21-2.22-7.8-1.71-.34.07-.25.58.08.58,2.7.03,5.61.33,7.71,2.22,1.82,1.64,2.32,4.27,1.73,6.58-1.22,4.74-5.96,7.72-10.48,8.72-5.11,1.13-10.53.06-15.37-1.7-4.68-1.69-8.49-5.06-13.18-6.74-2.43-.87-4.97-1.44-7.55-1.01-2.14.35-4.29,1.32-5.87,2.82-.25.23.12.6.37.37h0Z"/>
            <path class="cls-4" d="M150.85,173.83c-.1-2.74-2.36-3.77-4.69-4.08.01.26.02.53,0,.79.93.15,1.87.38,2.61.92,1.42,1.04,1.48,2.99.75,4.46-1.44,2.89-4.77,4.01-7.82,3.87-5.75-.28-11.57-4.35-17.26-1.49-.31.16-.04.61.27.47,7.02-3.18,14.07,3.86,21.18,1.24,2.5-.92,5.06-3.31,4.95-6.18Z"/>
            <path class="cls-4" d="M107.74,182.82c-.05-.16-.1-.32-.15-.47-2.67.25-6.03-.13-7.01-2.98-.99-2.88,1.12-5.39,3.39-6.98-.08-.17-.16-.35-.23-.52-2.67,1.69-5.14,4.77-3.68,8.03,1.18,2.64,4.94,3.83,7.73,3.13-.02-.07-.04-.13-.06-.2Z"/>
            <path class="cls-4" d="M107.87,183.25c-1.81.42-3.54.62-5.37.06-1.92-.59-3.48-1.73-3.87-3.76-.54-2.76,1.2-6.33,3.41-7.98.2-.15-.77.02-1.45.74-1.94,2.06-3.18,5.11-2.49,7.84.98,3.89,6.64,5.2,9.99,3.71-.09-.19-.16-.39-.23-.6Z"/>
            <path class="cls-4" d="M110.68,177.96c-.55,2.63,1.51,4.71,3.79,5.61s5.46.84,7.54-.72c.24-.18-.02-.53-.28-.42-2.11.91-4.21,1.4-6.48.72-2.27-.68-4.39-2.51-4.07-5.08.04-.29-.45-.4-.51-.11h0Z"/>
            <path class="cls-4" d="M118.12,180.14s-.08-.08-.13-.12c0,0,0,0,0,0-.96.49-1.97.72-2.99.17-.87-.46-1.38-1.31-1.54-2.26-.04-.23-.45-.18-.42.06.32,2.46,3.25,4.09,5.33,2.39-.08-.08-.17-.16-.25-.24Z"/>
            <path class="cls-4" d="M125.14,184.45c-2.89,1.93-6.44,2.7-9.8,1.54-3.46-1.19-6.04-4.54-5.49-8.24-.03,0-.05,0-.08.01-.12.02-.25.05-.37.08-.7,3.76,1.77,7.22,5.23,8.71,3.63,1.56,8.17.93,11.11-1.74-.21-.11-.4-.23-.6-.36Z"/>
            <path class="cls-4" d="M136.04,187.74c-1.52.67-3.13.8-4.87.59-1.77-.21-3.57-.9-4.72-2.22-.02.04-.04.08-.06.12-.07.14-.23.17-.36.12,0,0,0,0-.01,0,1.1,1.35,2.81,2.14,4.59,2.44,1.94.32,4.57.41,6.31-.8-.3-.06-.59-.14-.87-.25Z"/>
            <path class="cls-4" d="M153.94,182.53c-.97,1.59-2.12,2.94-3.94,3.57-1.07.38-2.25.46-3.38.27-.25.16-.52.29-.8.41,1.45.47,2.99.49,4.5-.07,1.79-.67,3.49-2.13,4.08-3.99.09-.28-.32-.43-.46-.19Z"/>
            <path class="cls-4" d="M97.6,182.79c.92,1.12,2.08,2.22,3.38,2.75s2.71.74,4.1.71c1.39-.03,3.19-.11,4.45-.75.41-.21.19-.81-.22-.83-1.27-.04-2.58.44-3.87.51-1.26.07-2.56.04-3.78-.31-2.23-.63-4.01-2.62-4.71-4.81-.13-.4-.1,1.8.67,2.73Z"/>
            <path class="cls-4" d="M156.53,180.43c-.05-.14-.16-.26-.29-.33-.1.13-.2.25-.3.37-.16.19-.32.39-.52.53-.03.02-.07.04-.11.04-.08.37-.12.74-.21,1.12-.18.71-.45,1.41-.79,2.06-.73,1.38-1.73,2.49-3.13,3.21-1.4.72-3.01,1.03-4.58.87-1.46-.15-2.82-.85-4.31-.65-3.31.45-6.16,2.58-9.51,2.85-3.23.26-6.78-.67-8.8-3.31-.3-.39-.88-.07-.66.39,1.02,2.17,3.61,3.28,5.81,3.79,2.94.68,5.76.14,8.51-1,1.33-.55,2.65-1.25,4.04-1.66,1.6-.48,2.98.22,4.55.43,2.48.33,4.98-.4,6.94-1.94,1.02-.8,1.89-1.71,2.51-2.86.57-1.06,1.24-2.69.86-3.9Z"/>
            <path class="cls-4" d="M158.46,172.48c-.25-.6-.58-.99-.46-.34.74,4.33-2.07,8.7-5.61,11.04-1.76,1.17-3.71,2.02-5.71,2.7-2.23.76-4.53,1.38-6.9,1.43-4.34.09-8.78-.91-12.81-2.5-2.01-.79-3.94-1.77-5.78-2.9-1.86-1.14-3.6-2.49-5.57-3.44-1.98-.95-4.22-1.53-6.4-1.05-1.13.24-2.18.78-3.2,1.3-.95.49-1.87,1-2.67,1.71.02.01.04.03.05.04.1.12.2.24.3.37.09.08.18.17.27.27.85-.73,1.84-1.21,2.84-1.7,1.13-.55,2.28-1.07,3.56-1.14,2.42-.14,4.67.97,6.66,2.24,1.89,1.2,3.67,2.52,5.65,3.58,1.94,1.04,3.97,1.91,6.06,2.6,4.08,1.34,8.71,2.24,13.01,1.67,4.2-.55,8.77-2.21,12.17-4.76,3.27-2.45,6.26-6.9,4.53-11.12Z"/>
            <path class="cls-4" d="M103.32,175.74c2.35-1.07,4.72-2.02,7.33-2.16,2.38-.13,4.66.39,6.76,1.5s4.06,2.55,6.14,3.75,4.16,2.21,6.36,3.03c4.14,1.54,8.61,2.19,12.97,1.34,3.94-.77,8.35-2.96,10.27-6.67,1.02-1.97,1.14-4.5-.33-6.28-1.61-1.96-4.31-2.35-6.71-2.23-.62.03-.62.93,0,.96,2.2.1,4.77.48,6.05,2.52,1.35,2.16.1,4.73-1.48,6.36-2.82,2.91-6.88,4.29-10.86,4.48-4.39.21-8.7-1.05-12.63-2.92-1.98-.94-3.88-2.03-5.73-3.2s-3.51-2.28-5.48-2.99c-4.24-1.52-9.35-.65-13.02,1.9-.38.26-.06.8.36.61h0Z"/>
            <path class="cls-4" d="M121.49,177.05c2.74-1.61,5.8-1.36,8.79-.71,2.92.63,5.8,1.31,8.78,1.57,2.45.21,5.22.12,7.31-1.35.78-.55,1.45-1.36,1.39-2.37-.05-.93-.63-1.69-1.58-1.77-.54-.04-.79.82-.28,1.05,1.61.72.04,2.09-.88,2.55-1.09.55-2.32.77-3.54.82-2.39.1-4.82-.3-7.15-.76-4.28-.85-9.4-2.77-13.39.02-.57.4-.06,1.31.55.95h0Z"/>
            <path class="cls-4" d="M107.29,173.71c-.11-3.11,2.31-5.7,4.55-7.56,2.26-1.88,4.98-3.27,7.87-3.84,2.98-.58,6.23-.21,9.01,1s4.81,3.2,6.42,5.61c.89,1.33,1.63,2.75,2.3,4.2s1.13,3.04,1.94,4.4c.32.54,1.11.18.99-.42-.31-1.49-1.07-2.96-1.7-4.34-.66-1.45-1.4-2.88-2.27-4.22-1.72-2.64-4-4.93-6.91-6.24-5.88-2.65-12.58-1.49-17.55,2.38-2.66,2.07-5.72,5.41-5.54,9.03.03.57.91.57.89,0h0Z"/>
            <path class="cls-6" d="M143.04,161.32c1.37,2.17,2.21,5.39,2.35,7.95.15,2.63-.53,4.86-1.3,7.32-.16.51.52.71.8.34,1.62-2.13,1.92-5.38,1.66-7.96-.23-2.33-.73-3.9-1.9-5.8-.2-.32-.87-1.25-1.03-1.42-.42-.45-.73-.67-.59-.44h0Z"/>
            <path class="cls-4" d="M107.25,180.85c-.61-.08-1.24-.01-1.84-.12-1.01-.19-1.83-.7-2.2-1.69-.67-1.79.37-3.7,1.4-5.14.19-.26-.23-.58-.44-.34-1.53,1.65-2.79,3.85-1.79,6.13.77,1.76,3.23,2.79,5.09,2.17-.09-.33-.17-.67-.2-1.01Z"/>
            <path class="cls-4" d="M126.16,185.1c-.72.58-1.39,1.19-2.19,1.67-.93.56-1.91,1-2.95,1.3-2.11.62-4.36.66-6.47.02-4.18-1.28-6.66-4.9-7.58-9-.09-.39-.66-.28-.67.09-.19,4.55,3.68,8.67,7.79,10.05,2.28.76,4.81.75,7.12.11,2.17-.59,4.6-1.79,6.01-3.61-.37-.18-.72-.41-1.07-.64Z"/>
            <path class="cls-4" d="M105.17,174.04c-1.04-1.53-1.29-3.59-.96-5.39.37-1.97,1.54-3.76,3.23-5.18.29-.25-1.39.46-2.27,1.44-.99,1.1-1.66,2.51-1.86,3.78-.32,2.03,0,4.14,1.34,5.75.24.29.74-.09.52-.4h0Z"/>
            <path class="cls-6" d="M105.3,180.95c1.7-1.36,3.6-2.25,5.81-2.25,2.32,0,4.36,1.1,6.29,2.27,1.94,1.17,3.88,2.34,5.92,3.32,1.03.5,2.06,1,3.11,1.47.98.44,2.06,1.03,3.12,1.19.31.05.48-.32.21-.51-1.06-.73-2.43-1.13-3.59-1.68-1.15-.54-2.27-1.12-3.39-1.71-2.23-1.17-4.34-2.56-6.57-3.74-3.61-1.9-8.39-1.96-11.43,1.11-.34.34.16.79.51.51h0Z"/>
            <path class="cls-6" d="M133.31,187.79c2.96.94,6.79,1.75,9.73.35.3-.14.07-.55-.21-.5-1.55.27-3.07.49-4.66.37s-3.14-.49-4.69-.83c-.4-.08-.56.49-.17.61h0Z"/>
            <path class="cls-6" d="M144.91,187.67c.28-.07.61-.1.84-.28.2-.16.08-.51-.15-.57-.27-.07-.62.06-.89.11-.2.04-.32.28-.27.47.06.2.27.31.47.27h0Z"/>
            <path class="cls-6" d="M151.14,185.38c1.55-.65,2.96-1.51,4.26-2.58,1.18-.98,2.68-2.28,3.25-3.74.12-.31-.31-.48-.51-.3-.61.54-1.05,1.28-1.6,1.88-.49.53-1.01,1.04-1.56,1.51-1.23,1.05-2.63,1.92-4.08,2.63-.32.16-.09.74.25.59h0Z"/>
            <path class="cls-6" d="M158.48,178.7c.25,0,.25-.39,0-.39s-.25.39,0,.39h0Z"/>
            <path class="cls-6" d="M104.31,173.55c-1.61,1.16-2.82,3.34-2.15,5.36.61,1.83,3.23,3.16,5.05,2.47.27-.1.34-.55,0-.62-.75-.15-1.51-.05-2.25-.29-.92-.3-1.77-.96-2.06-1.91-.49-1.67.61-3.42,1.86-4.41.33-.27-.11-.85-.46-.6h0Z"/>
            <path class="cls-6" d="M121.75,176.4c5.28-2.53,11.36-.02,16.73.81,2.31.36,4.79.48,6.96-.53.86-.4,1.7-.99,2.06-1.89.3-.77.27-1.74-.54-2.13-.27-.13-.5.08-.46.36.09.67.23,1.29-.25,1.87-.34.41-.85.7-1.32.92-1.13.52-2.4.69-3.63.69-2.43,0-4.82-.61-7.19-1.1-4.25-.88-8.58-1.4-12.62.58-.29.14-.04.57.25.43h0Z"/>
            <path class="cls-6" d="M107.32,173.82c3.67-1.65,7.83-.9,11.2,1.1,1.55.92,2.89,2.12,4.31,3.23,1.15.9,2.48,1.98,3.95,2.27.41.08.72-.5.3-.72-.84-.44-1.68-.77-2.47-1.3s-1.54-1.15-2.28-1.77c-1.47-1.22-2.99-2.35-4.73-3.16-3.37-1.57-7.23-1.91-10.62-.23-.39.19-.05.75.34.58h0Z"/>
            <path class="cls-6" d="M130.23,181.81c3.02.94,6.1,1.76,9.28,1.74,1.37,0,2.74-.17,4.07-.52,1.21-.32,2.67-.78,3.6-1.66.22-.21,0-.65-.31-.53-1.25.45-2.36,1.14-3.66,1.47-1.33.34-2.69.47-4.06.46-2.99-.04-5.88-.81-8.73-1.65-.44-.13-.63.55-.19.69h0Z"/>
            <path class="cls-6" d="M149.77,180.09l.28-.19c.11-.07.19-.15.28-.25s.12-.24.05-.37c-.06-.11-.22-.18-.34-.14s-.23.09-.34.16l-.28.19c-.15.1-.23.31-.12.48.1.15.31.23.48.12h0Z"/>
            <path class="cls-6" d="M152.24,176.79c1.71-1.63,1.86-4.69.05-6.29-.24-.21-.6.05-.44.34,1.06,1.95,1.16,3.69-.08,5.58-.19.29.23.6.47.37h0Z"/>
            <path class="cls-6" d="M107.56,170.69c.69-.88,1.32-1.79,1.9-2.74.16-.27-.21-.55-.43-.33-.81.79-1.46,1.67-1.97,2.69-.15.3.26.68.5.38h0Z"/>
            <path class="cls-6" d="M113.31,164.41c2.41-1.66,5.25-2.78,8.18-3.06,3.02-.29,5.81.48,8.35,2.1,2.39,1.52,4.31,3.66,5.84,6.02.78,1.19,1.47,2.44,2.1,3.72s1.07,2.58,1.81,3.76c.15.24.6.16.57-.15-.12-1.43-.75-2.74-1.37-4.01-.72-1.47-1.53-2.9-2.45-4.26-1.65-2.43-3.73-4.6-6.27-6.12-5.47-3.26-12.08-2.05-17.01,1.59-.24.17-.02.57.23.4h0Z"/>
            <path class="cls-1" d="M111.82,168.21c.15-.16.32-.31.5-.44.2-.14.46-.28.57-.51.13-.27-.03-.53-.32-.56s-.55.17-.77.33-.42.35-.61.55c-.38.42.23,1.04.63.63h0Z"/>
            <path class="cls-1" d="M115.43,165.48l.47-.29c.18-.11.37-.21.45-.41.11-.26-.02-.5-.3-.53-.22-.02-.4.09-.58.2l-.48.28c-.49.28-.04,1.06.44.76h0Z"/>
            <path class="cls-1" d="M126.82,169.75c.1,0,.17,0,.27-.01.08-.01.16-.02.23-.07.1-.08.19-.16.22-.29l.02-.13c0-.09-.02-.17-.07-.24-.03-.08-.09-.12-.16-.18-.08-.07-.13-.1-.22-.14-.09-.05-.19-.08-.29-.08-.1,0-.2.03-.29.08-.13.08-.22.2-.26.34s-.02.31.06.44c.05.09.12.15.21.21.09.05.19.08.29.08h0Z"/>
            <path class="cls-1" d="M128.85,171.41c.25,0,.25-.39,0-.39s-.25.39,0,.39h0Z"/>
            <path class="cls-1" d="M136.09,181.56c.7,0,.7-1.09,0-1.09s-.7,1.09,0,1.09h0Z"/>
            <path class="cls-1" d="M141.52,181.61c.57,0,.57-.89,0-.89s-.57.89,0,.89h0Z"/>
            <path class="cls-1" d="M106.99,177.51c.19,0,.36-.04.53-.12.05-.02.1-.06.15-.09.13-.09.19-.18.24-.33.04-.12,0-.26-.07-.35-.08-.11-.19-.15-.32-.16-.07,0-.14,0-.21.02-.04,0-.1.04-.13.03.07,0,.08-.01.03,0-.06,0-.11.01-.17.02.14-.02,0,0-.04,0-.26,0-.51.23-.49.49s.22.49.49.49h0Z"/>
            <path class="cls-1" d="M113.02,174.72c.64,0,.64-.99,0-.99s-.64.99,0,.99h0Z"/>
            <path class="cls-1" d="M99.63,178.49c-.11-.6.17-1.03.25-1.59.04-.28-.25-.63-.54-.42-.68.48-.72,1.5-.54,2.24.13.54.93.31.83-.23h0Z"/>
            <path class="cls-1" d="M100.28,175.17c.62,0,.63-.97,0-.97s-.63.97,0,.97h0Z"/>
            <path class="cls-1" d="M117.26,185.95c.75.34,1.92.51,2.51-.22.18-.22.09-.65-.26-.62-.69.05-1.23.3-1.92.07-.45-.15-.77.58-.33.78h0Z"/>
            <path class="cls-1" d="M121.46,185.76c.58,0,.58-.91,0-.91s-.58.91,0,.91h0Z"/>
            <path class="cls-1" d="M132.85,190.3c.06,0,.13-.02.19-.03.09-.02.17-.08.25-.13.28-.17.28-.58,0-.76-.08-.05-.16-.11-.25-.13-.06-.02-.13-.02-.19-.03-.1-.03-.2-.03-.3,0-.1.03-.18.08-.25.14-.1.11-.16.25-.16.4,0,.14.06.3.16.4.07.07.15.12.25.14.1.03.2.03.3,0h0Z"/>
            <path class="cls-1" d="M156.79,176.27c.58-.77.78-1.7.74-2.66s-.2-2.19-.89-2.86c-.26-.25-.66-.06-.68.28-.05.77.35,1.53.5,2.28.18.92.23,1.79-.24,2.63-.21.38.32.66.57.33h0Z"/>
            <path class="cls-1" d="M156.14,169.75c-.07-.14-.14-.29-.22-.43-.1-.18-.24-.3-.41-.41-.27-.17-.57.06-.59.34-.03.38.17.68.34,1.01.12.24.47.32.7.18.24-.16.31-.44.18-.7h0Z"/>
            <path class="cls-1" d="M139.48,164.92c.64,0,.64-.99,0-.99s-.64.99,0,.99h0Z"/>
            <path class="cls-1" d="M129.22,158.44c.38-.16.81-.17,1.14-.43s.1-.75-.23-.86c-.42-.14-.95.14-1.31.35-.22.13-.31.41-.21.64.09.21.37.39.6.3h0Z"/>
            <path class="cls-1" d="M134.58,158.88c.62,0,.63-.97,0-.97s-.63.97,0,.97h0Z"/>
          </g>
          <path class="cls-3" d="M144.82,160.78c-1.98-2.42-4.03-4.86-6.6-6.37-5.23-3.09-12-.95-15.88,3.74-.27.33-.54.67-.89.87-.41.24-.89.28-1.35.27-1.29-.02-2.61-.32-3.85.11-.56.2-1.08.54-1.64.75-1.58.59-3.3.07-4.95.26-2.84.33-5.34,3.03-5.81,6.27,2.66.74,5.41-.26,8.14-.51.42-.04.86-.06,1.25.13.73.35,1.07,1.3,1.5,2.06,1.42,2.49,4.63,3.32,6.84,1.78,1.6-1.12,2.74-3.3,4.61-3.55,1.62-.22,3.06,1.16,4.18,2.52,1.12,1.36,2.31,2.9,3.93,3.18,1.6.27,3.29-.99,3.72-2.78.27-1.11.13-2.4.77-3.28.84-1.15,2.41-.86,3.69-.53,1.28.33,2.93.41,3.56-.91.65-1.34-.32-2.91-1.23-4.03Z"/>
        </g>
        <path class="cls-6" d="M103.79,167.32c2.07.17,4.4.45,6.47.2.77-.09,1.72-.58,2.49-.45s1.18,1.33,1.56,1.95c2.31,3.78,6.61,2.8,9.36,0,.66-.68,1.3-1.57,2.23-1.9,1.19-.42,2.11.3,2.82,1.17,1.29,1.59,2.31,3.2,4.25,4.08,1.53.7,3.42.65,4.52-.77.94-1.21.96-2.81,1.51-4.19.37-.94.86-1.4,1.88-1.34.91.05,1.81.26,2.72.33,1.53.12,3.28-1.08,3.25-2.73,0-.64-1.01-.82-1.15-.16-.46,2.2-2.71,1.48-4.26,1.3-1.27-.15-2.33-.04-3.13,1.07s-.9,2.67-1.38,3.98c-1.02,2.73-3.92,1.4-5.47-.15-1.15-1.15-1.83-2.86-3.34-3.62-1.35-.67-2.8-.29-3.89.65-1.64,1.41-2.75,3.15-5.05,3.58-2.71.51-3.45-1.66-4.72-3.43-.97-1.34-2.14-1.05-3.6-.73-2.31.5-4.72-.16-7.06.07-.67.07-.68,1,0,1.06h0Z"/>
        <path class="cls-1" d="M109.24,163.83h.02s0-.01,0-.01c.02-.01.04-.03.06-.04.02-.01.04-.03.06-.04.05-.05.09-.11.11-.17.03-.06.05-.13.05-.21l-.02-.14c-.03-.09-.07-.17-.14-.24-.04-.04-.09-.07-.14-.1-.17-.1-.39-.1-.56,0s-.28.28-.28.48.11.38.28.48.39.1.56,0h0Z"/>
        <path class="cls-1" d="M115.34,162.94c.12-.01.25-.03.37-.05.09-.02.17-.06.25-.1.04-.02.08-.04.11-.06.07-.04.14-.08.21-.13.03-.02.06-.05.1-.07.06-.05.11-.08.16-.13.02-.03.04-.05.07-.08.04-.04.06-.08.08-.13.02-.03.03-.05.03-.08.03-.11.03-.21,0-.32-.02-.08-.05-.15-.11-.2-.04-.07-.1-.12-.17-.15-.09-.05-.19-.08-.3-.08-.11.01-.21.02-.32.08,0,0-.02.01-.03.02-.06.04-.12.08-.18.13-.04.03-.08.07-.12.1l.12-.1c-.09.07-.18.13-.28.18s-.18.12-.27.18l-.11.08c-.05.05-.09.11-.11.17-.02.04-.04.09-.04.13-.02.07-.01.14,0,.21.03.09.07.17.14.24.05.05.11.09.17.11.06.03.13.05.21.05h0Z"/>
        <path class="cls-1" d="M118.61,161.83l.11-.05s.05-.03.09-.06c.07-.04.12-.1.16-.18h0s0-.01,0-.01l.02-.04c.04-.07.06-.14.07-.21.02-.08.01-.15-.01-.23l-.06-.14c-.05-.09-.12-.16-.21-.21l-.04-.02h0s0,0,0,0l-.15-.06c-.07-.02-.13-.03-.19-.02h-.12c-.12.01-.23.04-.33.1-.1.06-.18.14-.24.24l-.07.16c-.03.12-.03.23,0,.35.02.09.06.16.12.22.05.07.11.13.18.17.1.06.21.09.33.09.12,0,.23-.03.33-.09h0Z"/>
        <path class="cls-1" d="M132.71,165.98l.09-.14c.04-.06.05-.12.06-.18.01-.06.01-.13,0-.19l-.05-.12c-.04-.07-.1-.13-.17-.17l-.14-.08-.15-.07-.17-.02c-.09,0-.17.02-.25.06-.05.02-.1.04-.14.08-.05.03-.09.07-.12.12-.04.04-.07.09-.08.14-.03.05-.04.1-.04.16-.02.09-.02.17.01.26l.07.15.1.13.13.1.15.07.17.02c.09,0,.17-.02.25-.06.05-.02.1-.04.14-.08.07-.05.13-.11.17-.18h0Z"/>
        <path class="cls-1" d="M141.01,161.34s.08.05.11.08l-.14-.11c.1.08.19.16.28.25.04.04.09.09.13.14.03.04.05.05.1.09.05.04.06.05.11.07.01,0,.03.01.04.02.03.01.06.03.1.04.05.03.11.05.17.05.03,0,.06.01.1.01l.18-.02c.09-.02.16-.06.23-.12.05-.03.09-.07.12-.12.06-.06.1-.14.12-.23,0-.03,0-.06.01-.1.02-.06.02-.12,0-.18,0-.04,0-.07-.02-.11,0-.02,0-.03-.01-.05-.01-.04-.02-.07-.04-.11-.02-.06-.05-.11-.09-.16-.02-.03-.04-.06-.06-.08-.01-.01-.03-.03-.04-.04-.05-.05-.11-.1-.17-.15-.16-.13-.33-.26-.51-.37-.08-.05-.16-.08-.26-.08-.09-.02-.18-.02-.27.01-.09.02-.17.06-.23.12-.07.05-.13.11-.18.19l-.07.16c-.03.12-.03.24,0,.37l.07.16c.06.1.14.19.25.25h0Z"/>
        <g>
          <path class="cls-6" d="M97.75,142.53c-.06.25-.18.48-.36.68-.17.2-.41.27-.69.2-.44-.09-.79-.3-1.07-.63-.28-.33-.4-.59-.37-.78.35-2.02.62-4.09.8-6.22.18-2.13.28-4.27.29-6.42.02-.09.06-.19.13-.3.06-.09.14-.18.24-.3.09-.12.23-.22.42-.31.18-.04.36,0,.55.13.19.13.37.3.53.51.16.22.3.45.41.71.11.26.18.49.22.71,0,.48,0,1-.02,1.57-.01.57-.04,1.16-.08,1.77.64-.21,1.25-.47,1.85-.76.59-.3,1.12-.64,1.59-1.03.46-.39.83-.81,1.11-1.26.28-.45.42-.94.41-1.46,0-.4-.13-.79-.4-1.16-.27-.37-.71-.68-1.33-.93-1.43-.53-2.74-.75-3.96-.65-1.21.1-2.41.39-3.61.87-.35.18-.66.26-.94.26-.27,0-.5-.05-.68-.16-.18-.11-.3-.24-.37-.39-.07-.16-.09-.3-.06-.44.15-.52.51-.95,1.07-1.29.56-.34,1.14-.61,1.74-.81.77-.22,1.69-.36,2.76-.43,1.07-.06,2.12,0,3.16.22,1.04.21,1.98.6,2.85,1.16.86.56,1.49,1.36,1.87,2.41.31,1.22.3,2.29-.07,3.19-.36.91-.92,1.71-1.69,2.4-.76.69-1.64,1.29-2.65,1.81-1.01.52-1.97.98-2.87,1.39-.1,1.03-.22,2.04-.36,3.02-.13.98-.28,1.89-.43,2.72Z"/>
          <path class="cls-6" d="M106.85,143.65c-.17.38-.38.73-.62,1.02-.24.29-.48.45-.72.47-.51.06-.88-.05-1.11-.34-.23-.29-.3-.63-.2-1.02.37-1.38.88-2.82,1.51-4.33.63-1.51,1.33-3,2.09-4.5.76-1.5,1.55-2.94,2.38-4.34.83-1.4,1.65-2.67,2.46-3.81.13-.18.28-.28.44-.3.16-.02.29,0,.41.05.13-.08.27-.16.45-.21.17-.06.34-.08.5-.07.07,0,.15.02.23.05.08.03.16.11.25.23.09.12.19.3.3.54.11.23.25.57.42,1,.25,1.22.56,2.48.94,3.78.37,1.3.77,2.6,1.2,3.89.07-.02.14-.03.21-.04.06,0,.13-.02.21-.04.27,0,.58.02.93.08.34.06.57.24.69.53.13.36.09.67-.11.91-.21.25-.59.49-1.13.73.29.77.58,1.52.88,2.25.3.73.61,1.45.95,2.14.02.12.05.3.09.55.04.25.06.5.07.75,0,.25-.02.48-.08.69-.06.21-.17.35-.33.41-.19.06-.37.04-.56-.06-.19-.1-.37-.23-.55-.4-.18-.16-.33-.33-.46-.52-.13-.18-.23-.35-.31-.49-.4-.8-.78-1.6-1.13-2.41-.35-.81-.68-1.62-.98-2.45-1.07.12-2.24.21-3.49.25-1.26.04-2.5.03-3.71-.04-.36.86-.72,1.71-1.08,2.54-.35.83-.7,1.66-1.02,2.51ZM113.52,129.36c-1.3,2.33-2.49,4.66-3.56,7,1.67.11,3.48.05,5.39-.17-.76-2.2-1.37-4.48-1.84-6.83Z"/>
          <path class="cls-6" d="M131.08,129.67c-.1.12-.27.21-.52.27-.25.06-.51,0-.78-.19-.19-.14-.42-.29-.69-.44-.26-.15-.56-.3-.86-.44-.31-.14-.62-.26-.93-.36-.31-.1-.61-.15-.9-.15-.36,0-.74.07-1.13.23-.4.16-.74.39-1.04.69-.57.58-.78,1.14-.64,1.7.14.56.55,1.08,1.23,1.56.44.31.91.63,1.42.96.51.32,1.02.64,1.53.95.5.31.99.6,1.45.88.46.28.87.52,1.22.73.45.28.88.58,1.28.9.41.32.76.69,1.07,1.09.31.4.56.87.75,1.38.19.51.3,1.1.31,1.76-.14,1.3-.68,2.35-1.61,3.13-.93.78-2.03,1.29-3.28,1.5-1.1.19-2.18.15-3.23-.12-1.05-.27-1.94-.79-2.64-1.54-.18-.19-.32-.46-.44-.79-.12-.33-.13-.57-.02-.71.16-.21.43-.35.82-.42.39-.07.68-.05.88.07.58.51,1.27.88,2.07,1.11.8.23,1.64.25,2.52.06.67-.14,1.21-.41,1.62-.81.41-.39.66-.84.75-1.33.12-.52.04-1.05-.23-1.6-.27-.55-.75-1.04-1.43-1.49-1.04-.72-2.13-1.41-3.28-2.06-1.15-.65-2.31-1.4-3.47-2.26-.56-.49-.95-1.02-1.18-1.59-.24-.57-.34-1.13-.32-1.67.02-.56.16-1.1.42-1.59.26-.5.61-.95,1.05-1.34.44-.4.95-.72,1.52-.97.58-.25,1.2-.39,1.89-.43.94-.04,1.85.16,2.73.59.88.43,1.6.96,2.16,1.59.12.14.18.32.17.53,0,.21-.08.41-.23.6Z"/>
          <path class="cls-6" d="M149.14,129.56c-2.49.15-4.86.55-7.13,1.2-2.27.66-4.52,1.45-6.77,2.37-.58.23-1.03.22-1.34-.03-.31-.25-.47-.51-.48-.77.16-.45.45-.83.88-1.12,4.91-2.51,9.67-3.71,14.62-3.63.25.04.46.19.65.44.19.25.27.47.24.67-.02.24-.07.44-.15.6-.08.16-.25.25-.52.25ZM145,142.34c.02.26-.06.5-.23.71-.18.22-.41.36-.69.43-.51.11-.85.05-1.02-.17-.17-.22-.28-.49-.33-.79-.14-1.64-.29-3.28-.44-4.91-.15-1.63-.35-3.26-.58-4.9,0-.09-.03-.21-.06-.33-.03-.13-.04-.26-.03-.39.02-.13.06-.25.14-.35.08-.1.21-.18.4-.24.55-.13.96-.08,1.22.17.26.25.41.51.43.76.33,1.68.59,3.34.78,5.01.19,1.66.32,3.33.41,5Z"/>
          <path class="cls-6" d="M153.6,143.24c-.08.41-.21.79-.37,1.13-.17.34-.37.55-.6.62-.48.18-.87.15-1.16-.08-.29-.23-.43-.54-.42-.95.05-1.43.22-2.95.5-4.55.28-1.61.62-3.23,1.02-4.85.4-1.63.85-3.22,1.35-4.77.49-1.55,1.01-2.97,1.55-4.26.09-.2.21-.33.36-.39.15-.06.28-.07.41-.04.1-.11.23-.21.39-.31.16-.09.31-.15.48-.18.07-.01.15-.01.24,0,.09,0,.18.07.3.17.11.1.25.25.42.45.16.2.37.49.63.88.52,1.13,1.11,2.29,1.77,3.47.66,1.18,1.34,2.35,2.05,3.52.07-.04.14-.07.19-.09.06-.02.12-.05.19-.09.27-.07.58-.11.93-.13.35-.02.62.1.79.36.21.32.24.63.09.92-.15.29-.46.61-.94.96.46.68.91,1.35,1.37,2,.45.65.93,1.27,1.41,1.88.05.11.12.28.22.52.1.23.17.47.23.71.06.24.08.47.07.69-.01.22-.09.38-.23.48-.17.1-.36.13-.56.07-.21-.06-.42-.14-.62-.26-.21-.12-.4-.25-.57-.4-.17-.15-.31-.28-.41-.41-.57-.69-1.12-1.39-1.64-2.1-.53-.71-1.03-1.43-1.51-2.16-1.02.36-2.14.71-3.36,1.03-1.22.33-2.43.59-3.63.79-.16.92-.32,1.83-.48,2.72-.16.89-.3,1.78-.43,2.67ZM156.9,127.81c-.74,2.56-1.38,5.11-1.9,7.62,1.66-.27,3.41-.73,5.23-1.38-1.23-1.97-2.34-4.05-3.33-6.24Z"/>
        </g>
      </g>
    </g>
  </g>
</svg>