<?xml version="1.0" encoding="UTF-8"?>
<svg id="Capa_2" xmlns="http://www.w3.org/2000/svg" viewBox="0 0 243.3 243.3">
  <defs>
    <style>
      .cls-1 {
        fill: #5a992f;
      }

      .cls-2 {
        fill: #fff;
      }

      .cls-3 {
        fill: #d2d764;
      }

      .cls-4 {
        fill: none;
      }

      .cls-5 {
        fill: #4f3535;
      }

      .cls-6 {
        fill: #847272;
      }
    </style>
  </defs>
  <g id="grocery_icons">
    <g>
      <rect class="cls-4" width="243.3" height="243.3"/>
      <g>
        <path class="cls-3" d="M65.95,44.71s.74,9.13,0,9.88-14.57,12.1-16.54,28.64c-1.98,16.54-1.73,78.26,0,98.51,1.73,20.25-1.23,32.59,16.54,44.69,17.78,12.1,47.9,11.6,74.07,10.37,26.17-1.23,43.45-8.39,50.86-20.74,7.41-12.34,6.17-104.93,6.17-116.53s0-21.97-8.64-33.33c-6.13-8.06-8.64-10.86-8.64-10.86l-.49-9.88-113.32-.74Z"/>
        <g>
          <g>
            <path class="cls-1" d="M143.38,136.04c-5.16-13.08-21.46-7.47-27.52,4.23-6.06,11.7-7.88,25.3-18.44,34.87-10.56,9.56-31,24.83-24.98,38.24,6.02,13.41,21.47,16.09,37.66,1.45,16.19-14.63,43.44-53.08,33.28-78.79Z"/>
            <path class="cls-5" d="M131.11,132.92c-9.75,6.99-13.48,19.49-18.04,30.05-2.4,5.55-5.05,11.1-8.78,15.9-4.46,5.73-10.44,9.83-15.74,14.7s-10.74,10.95-11.53,18.34c-.11.99,1.39,1.09,1.67.23,2.15-6.63,6.03-11.91,11.1-16.62,5.06-4.71,10.65-8.97,15.07-14.32,7.55-9.14,10.85-20.74,15.82-31.3,2.8-5.96,6.35-11.64,10.74-16.56.18-.2-.06-.57-.3-.39h0Z"/>
            <path class="cls-5" d="M90,218.66c5.67-2.26,10.26-6.39,14.58-10.59,4.6-4.48,8.93-9.25,12.86-14.32,7.9-10.19,14.19-21.74,17.56-34.24.96-3.56,1.69-7.19,2.1-10.85.2-1.78.34-3.56.41-5.35.07-1.89.23-3.77-.52-5.55-.25-.6-1.05-.66-1.28,0-.5,1.42-.46,2.78-.5,4.27-.05,1.7-.15,3.41-.32,5.1-.32,3.2-.83,6.39-1.52,9.53-1.39,6.26-3.51,12.35-6.27,18.13-5.34,11.19-12.88,21.23-21.44,30.14-4.7,4.9-9.66,10.17-15.95,12.99-.41.18-.11.9.31.73h0Z"/>
          </g>
          <g>
            <path class="cls-1" d="M173.59,110.22c-10.98-8.78-22.33,4.18-21.78,17.34.55,13.16,5.72,25.88,1.31,39.42-4.41,13.54-14.58,36.95-2.7,45.6,11.88,8.65,26.62,3.3,33.41-17.44,6.79-20.74,11.35-67.64-10.24-84.92Z"/>
            <path class="cls-5" d="M163.43,109.2c-2.06,1.97-3.73,4.18-4.83,6.82s-1.66,5.43-1.98,8.23c-.73,6.37.18,12.79,1.16,19.08,1.09,7,2.17,13.96,1.43,21.05-.75,7.21-3.03,14.08-5.05,21-2.05,7.04-4.17,15.51-1.25,22.61.53,1.28,2.42.83,2.12-.58-.69-3.27-1.06-6.5-.75-9.84.32-3.45,1.16-6.86,2.08-10.19,1.81-6.55,3.97-12.97,4.94-19.72.97-6.79.52-13.41-.55-20.15-1.01-6.38-2.39-12.77-2.15-19.27.24-6.23,1.95-12.98,5.92-17.92.62-.77-.36-1.82-1.11-1.11h0Z"/>
            <path class="cls-5" d="M168.1,111.23c2.34,6.18,4.11,12.54,5.3,19.04.61,3.33,1.16,6.65,1.53,10.01.36,3.26.78,6.59.74,9.87-.14,13.11-1.84,26.34-5.09,39.04-.91,3.55-1.95,7.06-3.11,10.53-.58,1.73-1.17,3.46-1.76,5.19-.64,1.84-1.32,3.51-1.41,5.48-.03.7.92,1.09,1.39.58,2.19-2.39,3.24-5.98,4.29-9.01s2.08-6.32,2.96-9.53c1.8-6.55,3.17-13.22,3.99-19.97.8-6.61,1.07-13.19.69-19.84-.38-6.69-.77-13.31-1.95-19.92-1.32-7.45-3.6-14.79-6.45-21.79-.28-.68-1.39-.4-1.12.31h0Z"/>
          </g>
          <g>
            <path class="cls-1" d="M148.74,102.61c.88-10.15-7.03-21.28-20.36-20.58-13.33.7-43,18.6-54.04,31.59-11.04,12.98-16.9,28.83-6.24,37.12,10.66,8.28,26.46-4.69,32.62-12.18,6.16-7.49,14.74-11.91,19.61-14.23,4.87-2.31,27.54-11.56,28.41-21.71Z"/>
            <path class="cls-5" d="M140.68,88.18c-3.07.55-6.07.91-9.09,1.78s-5.93,1.83-8.83,2.93c-5.73,2.16-11.29,4.78-16.59,7.86-10.8,6.27-20.77,14.49-28.43,24.39-2.23,2.88-4.35,5.86-6.35,8.9-2,3.04-4.41,6.42-5.43,9.94-.23.81.83,1.15,1.28.54,1.94-2.67,3.24-5.91,4.93-8.75s3.49-5.52,5.54-8.09c3.91-4.9,8.2-9.51,12.92-13.66,9.14-8.05,19.76-14.39,31.09-18.83,3.14-1.23,6.34-2.32,9.57-3.27,1.55-.45,3.1-.9,4.65-1.33,1.68-.47,3.28-1.11,4.99-1.5.59-.14.33-1-.25-.9h0Z"/>
            <path class="cls-5" d="M77.72,150.85c3-5.28,5.76-10.45,9.71-15.11,3.66-4.31,7.86-8.16,12.45-11.46,4.31-3.1,9-5.7,13.95-7.64,6.09-2.38,12.51-3.89,18.46-6.66,2.86-1.33,5.59-2.99,8-5.05,2.23-1.9,4.61-4.35,5.39-7.24.19-.7-.8-1.4-1.31-.76-1.83,2.26-3.31,4.62-5.55,6.54-2.15,1.85-4.61,3.33-7.16,4.56-6.08,2.94-12.72,4.42-18.96,6.94-10.04,4.05-18.95,10.59-25.88,18.91-4.07,4.88-8.04,10.5-10.22,16.5-.24.66.79,1.07,1.13.47h0Z"/>
          </g>
        </g>
        <path class="cls-6" d="M128.91,4.1s-12.59-.37-35.06,1.36c-20.46,1.57-29.38,6.17-30.37,9.13-.99,2.96,0,30.61.25,32.59.25,1.98,27.4,12.1,65.92,10.12s50.12-8.15,51.35-9.38c1.23-1.23,2.74-30.03.99-32.84-4.94-7.9-21.97-10-53.08-10.99Z"/>
        <path class="cls-2" d="M60.51,78.37c8.56,5.28,18.13,8.88,28.01,10.73,9.19,1.72,20.02,3.22,29.06.23,3.44-1.14,2.6-5.71-.82-6.07-9.11-.95-18.09.16-27.23-1.49-9.08-1.64-17.77-4.52-26.21-8.2-3.21-1.4-5.94,2.88-2.81,4.81h0Z"/>
        <path class="cls-2" d="M147.93,87.94c7.09.8,16.6.62,22.7-3.61,2.58-1.79.95-5.46-2.09-4.95-3.32.56-6.47,1.95-9.83,2.53-3.57.61-7.18.62-10.78.31-3.7-.32-3.59,5.31,0,5.72h0Z"/>
        <path class="cls-2" d="M180.84,81.07l1.1-.88.43-.56.28-.66c.16-.6.1-1.22-.14-1.79-.43-1.01-1.4-1.66-2.51-1.69l-1.48-.03c-1.15-.02-2.26.64-2.83,1.62-.53.91-.57,1.96-.17,2.92s1.14,1.63,2.13,1.9c.58.16,1.16.16,1.74,0,.56-.16,1.04-.44,1.45-.84h0Z"/>
        <path class="cls-5" d="M181.38,217.38c1.03-.46,2.06-.92,3.09-1.38.51-.23,1.01-.46,1.51-.7.58-.28,1.09-.65,1.58-1.05.39-.32.45-1.04.19-1.45-.29-.46-.81-.68-1.35-.55-1.17.28-2.22.87-3.27,1.45-.98.54-1.97,1.08-2.95,1.61-.55.3-.77,1.1-.43,1.63.38.59,1.02.7,1.63.43h0Z"/>
        <path class="cls-5" d="M184.43,209.38c.44-.25.88-.51,1.31-.76.22-.13.41-.28.61-.43.17-.13.34-.25.5-.39.1-.09.19-.18.29-.28.35-.34.45-.98.18-1.4s-.8-.67-1.3-.53c-.57.16-1.15.36-1.66.65l-1.33.74c-.3.17-.55.5-.64.83s-.05.78.14,1.07.48.56.83.64.74.05,1.07-.14h0Z"/>
        <path class="cls-5" d="M57.42,95.33c.49.06.99.11,1.48.16.14,0,.27-.02.38-.09.12-.04.23-.11.32-.21l.16-.2c.07-.11.11-.24.12-.37.02-.09.02-.18,0-.27,0-.13-.05-.26-.12-.37l-.16-.2c-.12-.12-.27-.21-.44-.26-.47-.19-.95-.38-1.43-.57-.21-.06-.43-.06-.64,0l-.29.12c-.18.11-.33.25-.43.43-.09.14-.14.29-.14.45-.04.16-.03.32.02.48.04.16.11.29.22.41.09.13.2.23.34.31.19.11.39.16.61.16h0Z"/>
        <path class="cls-5" d="M56.69,106.1c1.64,0,1.64-2.54,0-2.54s-1.64,2.54,0,2.54h0Z"/>
        <path class="cls-5" d="M62.56,16.56c4.43,4.85,11.2,7.3,17.42,8.87,8.46,2.13,17.17,3.42,25.85,4.24,17.22,1.62,34.62.5,51.6-2.69,4.7-.88,9.41-1.83,13.98-3.24,2.13-.65,4.21-1.43,6.25-2.32s3.96-1.8,5.49-3.44c1.38-1.48.03-4.07-2.02-3.47-1.83.53-3.43,1.44-5.15,2.24-1.62.75-3.3,1.37-5,1.93-3.82,1.25-7.74,2.12-11.67,2.93-8.27,1.7-16.63,2.93-25.04,3.57-16.56,1.25-33.2.17-49.56-2.55-3.77-.63-7.5-1.36-11.13-2.6-3.35-1.14-6.86-2.53-9.42-5.05-1.04-1.02-2.57.53-1.6,1.6h0Z"/>
        <path class="cls-5" d="M62.56,47.54c4.43,4.85,11.2,7.3,17.42,8.87,8.46,2.13,17.17,3.42,25.85,4.24,17.22,1.62,34.62.5,51.6-2.69,4.7-.88,9.41-1.83,13.98-3.24,2.13-.65,4.21-1.43,6.25-2.32,2.03-.89,3.96-1.8,5.49-3.44,1.38-1.48.03-4.07-2.02-3.47-1.83.53-3.43,1.44-5.15,2.24-1.62.75-3.3,1.37-5,1.93-3.82,1.25-7.74,2.12-11.67,2.93-8.27,1.7-16.63,2.93-25.04,3.57-16.56,1.25-33.2.17-49.56-2.55-3.77-.63-7.5-1.36-11.13-2.6-3.35-1.14-6.86-2.53-9.42-5.05-1.04-1.02-2.57.53-1.6,1.6h0Z"/>
        <path class="cls-5" d="M68.72,20.95c.16,9.32.67,18.65,1.01,27.96.02.62.95.62.96,0,.09-9.29-.03-18.69-.88-27.96-.06-.69-1.1-.71-1.09,0h0Z"/>
        <path class="cls-5" d="M80.5,24.46c.06,4.75.15,9.5.26,14.26l.16,7.13c.05,2.15-.22,4.61.34,6.7.11.42.79.45.89,0,.46-2.12.08-4.54.03-6.7-.06-2.38-.12-4.75-.18-7.13-.12-4.75-.25-9.5-.42-14.26-.02-.69-1.09-.7-1.08,0h0Z"/>
        <path class="cls-5" d="M97.18,27.06c-.07,4.75,0,9.5,0,14.25,0,2.38-.02,4.75-.06,7.13-.02,1.1-.04,2.19-.06,3.29s-.22,2.36.21,3.43c.16.39.78.61,1.01.13.85-1.8.47-4.35.51-6.31.05-2.47.08-4.93.09-7.4.02-4.85-.04-9.69-.36-14.53-.06-.85-1.32-.87-1.34,0h0Z"/>
        <path class="cls-5" d="M118.44,28.35c0,4.72,0,9.44.04,14.16.02,2.36.04,4.72.06,7.08.02,2.17-.16,4.57.42,6.68.14.52.93.53,1.06,0,.54-2.12.33-4.51.31-6.68-.02-2.36-.04-4.72-.06-7.08-.04-4.72-.11-9.44-.2-14.16-.02-1.04-1.62-1.05-1.62,0h0Z"/>
        <path class="cls-5" d="M133.97,28.17c.15,4.9.2,9.81.17,14.71-.01,2.36-.04,4.72-.05,7.08,0,2.1-.28,4.67.43,6.68.18.52.92.55,1.09,0,.62-2.05.31-4.56.31-6.68,0-2.36.02-4.72.03-7.08.01-4.92-.08-9.82-.63-14.71-.09-.84-1.38-.89-1.35,0h0Z"/>
        <path class="cls-5" d="M151.49,27.43c-.02,4.53-.09,9.06-.05,13.59.02,2.27.05,4.53.08,6.8.02,2.15-.07,4.35.32,6.47.13.69,1.3.71,1.41,0,.34-2.13.2-4.31.17-6.47-.03-2.27-.05-4.53-.08-6.8-.06-4.53-.24-9.06-.37-13.59-.03-.95-1.47-.96-1.48,0h0Z"/>
        <path class="cls-5" d="M167.94,22.98c-.16,4.94-.31,9.87-.48,14.81-.08,2.38-.17,4.75-.27,7.13-.1,2.38-.49,4.95-.02,7.29.13.65,1.06.57,1.24,0,.71-2.28.55-4.92.65-7.29s.17-4.75.24-7.13c.14-4.94.16-9.87.09-14.81-.01-.93-1.41-.93-1.44,0h0Z"/>
        <path class="cls-5" d="M178.35,19.81c-.33,4.6-.52,9.21-.75,13.82-.11,2.26-.2,4.52-.28,6.77-.08,2.31-.38,4.75-.14,7.05.07.65,1.14.95,1.26.17.35-2.18.22-4.47.28-6.67.06-2.35.14-4.7.18-7.04.1-4.7.27-9.39.34-14.09,0-.58-.85-.57-.89,0h0Z"/>
      </g>
    </g>
  </g>
</svg>