<?xml version="1.0" encoding="UTF-8"?>
<svg id="Capa_2" xmlns="http://www.w3.org/2000/svg" viewBox="0 0 243.3 243.3">
  <defs>
    <style>
      .cls-1 {
        fill: #ffe2c7;
      }

      .cls-2 {
        fill: #a36545;
      }

      .cls-3 {
        fill: #fff;
      }

      .cls-4 {
        fill: none;
      }

      .cls-5 {
        fill: #feb672;
      }

      .cls-6 {
        fill: #fad380;
      }

      .cls-7 {
        fill: #fe9736;
      }

      .cls-8 {
        fill: #4f3535;
      }

      .cls-9 {
        fill: #d9472e;
      }
    </style>
  </defs>
  <g id="grocery_icons">
    <g>
      <rect class="cls-4" width="243.3" height="243.3"/>
      <g>
        <path class="cls-5" d="M161.55,11.63S26.84,25.42,25.22,27.45s.41,189.07,2.03,191.1c1.62,2.03,48.28,19.07,51.12,19.48,2.84.41,136.33-15.42,136.33-15.42,0,0,1.22-188.26.41-190.29-.81-2.03-53.56-20.69-53.56-20.69Z"/>
        <path class="cls-2" d="M64.98,14.06s.14,15.82.41,16.5,3.65,4.19,18.66,4.33c15.01.14,18.66-3.52,19.07-4.46s.14-17.31-.95-18.8c-1.08-1.49-5.14-5.82-20.69-5.55-15.55.27-16.64,7.03-16.5,7.98Z"/>
        <path class="cls-8" d="M66.66,15.91c5.69,2.42,11.75,3.6,17.93,3.68,3.05.04,6.17-.43,9.13-1.12,1.52-.35,3.01-.79,4.48-1.31,1.38-.48,3.01-.83,3.83-2.1.42-.64.04-1.78-.77-1.9-1.44-.22-2.54.53-3.88,1.03-1.3.48-2.62.89-3.96,1.24-2.91.76-5.84,1.14-8.83,1.4-5.87.5-11.78-.38-17.32-2.34-.82-.29-1.42,1.08-.6,1.43h0Z"/>
        <path class="cls-8" d="M77.7,47.81c5.76-.56,11.52-1.13,17.28-1.68,10.35-.99,20.71-1.96,31.06-2.94,11.92-1.12,23.85-2.23,35.76-3.39,10.61-1.04,21.23-2.08,31.84-3.14,3.91-.39,7.81-.78,11.71-1.19,1.45-.15,2.91-.3,4.36-.46.71-.08,1.43-.14,2.14-.27.24-.05.48-.1.72-.16.09-.02.34-.11-.02-.02-.55.13.37-.06.38-.06.24-.08.48-.2.71-.3.42-.19.88-.36,1.21-.69l-1.18.49h.07c2.1-.27,2.12-3.6,0-3.34.35-.04,1.11.24.24.02-.08-.02-.17-.03-.26-.05-.19-.05-.38-.08-.58-.12-.63-.11-1.25-.13-1.88-.11-1.25.05-2.51.25-3.75.39-3.6.39-7.21.76-10.82,1.13-10.32,1.06-20.65,2.1-30.97,3.14-11.92,1.2-23.84,2.43-35.76,3.68-10.64,1.11-21.28,2.22-31.92,3.36-6.56.7-13.15,1.29-19.69,2.22-.37.05-.75.11-1.12.16-1.87.28-1.45,3.51.45,3.32h0Z"/>
        <path class="cls-8" d="M65.14,31.02c2.06,2.44,5.84,3.8,8.79,4.78,3.34,1.11,6.82,1.7,10.34,1.73,3.4.03,6.84-.43,10.09-1.4,3.12-.93,6.96-2.34,9.27-4.73,1.53-1.6-.39-3.73-2.24-2.9-1.41.63-2.67,1.58-4.05,2.26-1.36.67-2.78,1.21-4.24,1.64-2.95.87-5.99,1.28-9.06,1.25s-6.04-.42-8.95-1.17c-1.51-.39-2.98-.89-4.42-1.46s-2.93-1.41-4.47-1.79c-1.1-.27-1.73,1-1.05,1.8h0Z"/>
        <path class="cls-8" d="M77.87,45.19c-14.37-5.67-29.07-10.43-43.59-15.69-2.63-.95-5.25-2.14-8.04-2.48-1.17-.14-1.84,1.62-.98,2.35,1.86,1.58,4.36,2.29,6.62,3.11,3.78,1.36,7.58,2.69,11.38,4,8.43,2.92,16.84,6.05,25.4,8.6,2.85.85,5.7,1.69,8.55,2.55,1.59.48,2.15-1.86.67-2.44h0Z"/>
        <path class="cls-8" d="M75.41,46.72c-.04.3-.07.61-.11.91-.1.84-.11.6-.12,1.48-.01,1.51-.02,3.03-.04,4.54-.04,4.83.05,9.67.08,14.5.1,14.84.2,29.68.31,44.52.12,17.54.27,35.09.42,52.63.13,15.39.27,30.78.4,46.17.07,8.35.21,16.7.42,25.06,0,.3.02.59.02.89,0,1.76,2.73,1.76,2.73,0,0-7.14.09-14.29.07-21.44-.04-14.84-.25-29.68-.39-44.52-.16-17.54-.32-35.09-.5-52.63-.16-15.39-.33-30.78-.49-46.17-.06-5.38-.11-10.77-.16-16.15-.02-1.83-.05-3.66-.1-5.49-.01-.65-.02-1.3-.04-1.95-.03-.86-.03-.61-.14-1.47-.04-.3-.07-.59-.11-.89-.17-1.46-2.1-1.46-2.27,0h0Z"/>
        <path class="cls-8" d="M25.32,29.86c3.97,9.72,8.28,19.23,13.4,28.4,1.26,2.25,2.56,4.48,3.89,6.69.65,1.07,1.3,2.13,1.95,3.2s1.26,2.45,2.45,2.99c1.21.55,2.22-.08,3.15-.83,1.31-1.07,2.61-2.16,3.92-3.23,2.44-2,4.94-3.92,7.39-5.9,2.74-2.22,5.45-4.48,8.17-6.72,1.44-1.19,2.89-2.39,4.33-3.59,1.4-1.17,2.95-2.24,4-3.74s-.91-2.87-2.24-2.24c-1.22.58-2.2,1.56-3.23,2.42-1.21,1.02-2.43,2.03-3.64,3.04-2.26,1.88-4.53,3.76-6.8,5.63-4.47,3.7-8.86,7.5-13.26,11.28-.76.65-.45.71-.98.18-.43-.44-.77-1.2-1.1-1.72-.66-1.04-1.31-2.09-1.95-3.14-1.21-1.99-2.39-4-3.54-6.03-2.19-3.87-4.26-7.82-6.24-11.8-2.6-5.22-5.26-10.41-7.93-15.6-.48-.94-2.15-.28-1.74.73h0Z"/>
        <path class="cls-8" d="M48.71,36.24c-.81,5.18-1.31,10.39-1.6,15.63s-.68,10.87-.14,16.15c.08.79,1.22.82,1.25,0,.09-2.59-.11-5.19-.1-7.78s.09-5.39.22-8.08c.26-5.28.79-10.54,1.43-15.78.07-.6-.97-.74-1.06-.14h0Z"/>
        <path class="cls-1" d="M36.68,173.01s28.99,9.49,28.99,10.7-.24,26.61-.73,27.34-27.78-9.17-28.26-10.14,0-27.89,0-27.89Z"/>
        <path class="cls-2" d="M31.48,87.88c1.61.53,3.18,1.24,4.75,1.89,3.08,1.27,6.25,2.35,9.37,3.52,3.45,1.29,6.91,2.53,10.38,3.77,2.73.98,5.52,2.26,8.39,2.74,1.35.23,2.38-1.62,1-2.36-2.63-1.41-5.62-2.21-8.42-3.21-3.46-1.24-6.91-2.51-10.38-3.72-4.76-1.67-9.55-3.63-14.49-4.73-1.38-.31-1.92,1.67-.58,2.11h0Z"/>
        <path class="cls-2" d="M32.69,102.15c1.61.53,3.18,1.24,4.75,1.89,3.08,1.27,6.25,2.35,9.37,3.52,3.45,1.29,6.91,2.53,10.38,3.77,2.73.98,5.52,2.26,8.39,2.74,1.35.23,2.38-1.62,1-2.36-2.63-1.41-5.62-2.21-8.42-3.21-3.46-1.24-6.91-2.51-10.38-3.72-4.76-1.67-9.55-3.63-14.49-4.73-1.38-.31-1.92,1.67-.58,2.11h0Z"/>
        <path class="cls-2" d="M32.45,117.88c1.61.53,3.18,1.24,4.75,1.89,3.08,1.27,6.25,2.35,9.37,3.52,3.45,1.29,6.91,2.53,10.38,3.77,2.73.98,5.52,2.26,8.39,2.74,1.35.23,2.38-1.62,1-2.36-2.63-1.41-5.62-2.21-8.42-3.21-3.46-1.24-6.91-2.51-10.38-3.72-4.76-1.67-9.55-3.63-14.49-4.73-1.38-.31-1.92,1.67-.58,2.11h0Z"/>
        <path class="cls-3" d="M193.6,101.3c-.19,8.39-1.69,15.19-3.86,20.69-6.99,17.66-20.9,21.91-20.9,21.91-7.11,3.65-19.02,5.39-30.69,4.1-12.98-1.42-25.63-6.61-30.98-17.09-7.83-15.34-6.9-35.99.86-51.16,9.08-17.71,30.42-24.3,49.25-19.86,18.72,4.39,36.77,21.14,36.31,41.41Z"/>
        <g>
          <path class="cls-9" d="M129.74,92.73c-.2-.13-.39-.15-.56-.12-.25-.33-.86-.33-.98.16-.48,1.94-.88,3.87-1.48,5.78-.6,1.92-1.29,3.8-1.96,5.69-.68,1.93-1.46,3.93-1.76,5.97-.22,1.46.03,3.02,1.19,4.04,2.35,2.08,6.34-.83,8.11-2.5,2.67-2.52,3.29-5.99,3.29-9.52,0-2.04-.4-4.03-1.61-5.7-1.12-1.54-2.64-2.78-4.24-3.8Z"/>
          <path class="cls-9" d="M173.27,67.02c-1.8-1-4.2-.92-6.28-.56.49-2.84,1.56-6.26-1.99-7.5-2.98-1.04-6.56,1.01-9.28,2.74.37-2.74.12-6.01-2.96-6.84-1.63-.44-3.32.46-4.72,1.21-1.65.89-3.18,2.02-4.54,3.3-2.99,2.8-5.25,6.3-7.23,9.86-1.79,3.22-3.89,6.65-4.3,10.39,0,.02,0,.04,0,.05-.03.31-.08.63-.08.94-.01.57.67.62.92.23.21.05.44.04.68-.09,2.66-1.4,5.69-1.63,8.64-1.72,2.91-.08,5.89.07,8.76.57,2.62.46,5.2,1.2,7.68,2.16,1.42.55,2.8,1.19,4.16,1.89.73.37,1.48.94,2.32.65,1.05-.35,1.91-1.94,2.62-2.74.99-1.11,1.97-2.23,2.94-3.36,1.46-1.73,3.17-3.59,3.92-5.76.66-1.9.73-4.32-1.26-5.43Z"/>
        </g>
        <path class="cls-6" d="M189.75,121.99c-6.99,17.66-20.9,21.91-20.9,21.91-7.11,3.65-19.02,5.39-30.69,4.1-.38-.79-.79-1.67-1.23-2.62-2.7-5.95-1.89-10.54-4.05-28.13-2.17-17.58-7.04-22.18-7.04-22.18l-.82-9.74s1.9-5.68,12.17-11.9c10.29-6.22,22.73-3.79,31.93,10.01,9.19,13.8-.28,34.9-.28,34.9,0,0,7.58-.54,14.89,1.35,2.24.58,4.27,1.41,6.01,2.3Z"/>
        <path class="cls-7" d="M125.44,83.98s.81.81,1.22,4.87-.27,6.63-.27,6.63c0,0-13.39,5.41-15.28,3.65-1.89-1.76,12.17-13.93,14.34-15.15Z"/>
        <path class="cls-8" d="M145.01,84.24c-.14-.8-.46-1.55-1.03-2.17-1.29-1.4-3.63-1.66-4.92-.1-1.65,2-1.69,6.42.59,7.94,2.12,1.41,4.48-.14,5.1-2.3.3-1.06.46-2.26.26-3.38Z"/>
        <path class="cls-3" d="M112.59,194.21s-7.17-2.84-5.82-6.76c1.35-3.92,9.87-11.5,25.97-13.52,16.09-2.03,38.82-.54,43.14,1.35,4.33,1.89,7.17,4.19,7.71,6.36s-.41,6.36-5.95,8.66-37.46,7.57-43.55,7.84-21.5-3.92-21.5-3.92Z"/>
        <path class="cls-6" d="M109.07,192.45s9.6-10.28,36.38-11.36c26.78-1.08,33.81,3.65,35.7,6.09s-20.69,15.69-35.84,14.34c-15.15-1.35-22.04.27-26.24-1.76s-10.01-7.3-10.01-7.3Z"/>
        <path class="cls-8" d="M199.04,183.66c-.17-1.56-1.15-2.8-2.47-3.6-1.24-.75-2.68-1.08-4.1-1.31-1.7-.27-3.43-.45-5.15-.44-.8,0-1.64.06-2.48.13-1.82-2.76-4.96-3.84-8.01-4.65-3.57-.95-7.21-1.57-10.87-2.03-3.69-.47-7.39-.71-11.11-.83-7.46-.24-14.87.39-22.23,1.6-6.1,1-12.15,2.67-17.73,5.38-2.49,1.21-6.39,3.13-8.61,5.76-.88-.02-1.77,0-2.66.12-3.03.37-6.11,1.35-8.63,3.1-2.36,1.64-4.4,4.66-2.55,7.47,1.88,2.85,5.89,3.15,8.96,3.61,1.16.17,2.31.28,3.46.35.13.96.28,1.92.49,2.86.82,3.81,2.43,7.46,4.92,10.48,4.2,5.09,10.33,6.94,16.58,7.77,2.09.28,4.17.42,6.19.47,2.27.15,4.54.26,6.81.29,6.89.07,13.76-.53,20.53-1.78,10.87-2,22.23-7.38,25.75-18.73.68-2.18,1.02-4.41,1.12-6.67.24-.08.49-.15.73-.23,3.15-1.06,6.49-2.52,9.04-4.7,1.3-1.11,2.22-2.68,2.02-4.43ZM109.5,185.06c1.9-1.69,4.3-2.98,6.57-4.11,5.38-2.69,11.24-4.22,17.17-5.1,9.21-1.38,18.35-1.38,27.62-.66,5.64.44,11.31,1.28,16.72,2.97,1.81.56,5.08,1.72,4.69,4.19-.2,1.26-1.29,2.01-2.2,2.79-.98.83-2.09,1.5-3.24,2.07-4.69,2.31-10.28,3.33-15.37,4.3-11.17,2.13-22.82,2.68-34.14,1.59-5.64-.54-11.28-1.53-16.75-3.02-.96-.26-2.31-.57-2.64-1.66-.4-1.3.69-2.56,1.57-3.35ZM95.13,191.31c.52-1.22,2-1.98,3.12-2.56,1.39-.72,2.87-1.18,4.39-1.52.66-.15,1.34-.27,2.02-.37,0,.03-.03.05-.04.08-.44,2.17-.27,4.6-.17,6.82-.77-.01-1.53-.03-2.3-.05-1.23-.03-8.14.19-7.03-2.4ZM192.58,186.06c-1.48.83-3.01,1.53-4.62,2.08-.29.1-.58.19-.87.27-.22-2.1-.62-4.18-1.2-6.2.01-.22,0-.44,0-.65.54-.02,1.07-.03,1.61-.02,1.73.05,3.41.32,5.07.81.7.21,2.49.73,2.53,1.6.05.84-1.91,1.77-2.52,2.11Z"/>
      </g>
    </g>
  </g>
</svg>