<?xml version="1.0" encoding="UTF-8"?>
<svg id="Capa_2" xmlns="http://www.w3.org/2000/svg" viewBox="0 0 243.3 243.3">
  <defs>
    <style>
      .cls-1 {
        fill: #5a992f;
      }

      .cls-2 {
        fill: #fff;
      }

      .cls-3 {
        fill: #e0e393;
      }

      .cls-4 {
        fill: none;
      }

      .cls-5 {
        fill: #fad380;
      }

      .cls-6 {
        fill: #4f3535;
      }

      .cls-7 {
        fill: #c0c728;
      }
    </style>
  </defs>
  <g id="grocery_icons">
    <g>
      <rect class="cls-4" width="243.3" height="243.3"/>
      <g>
        <g>
          <path class="cls-7" d="M163.22,9.29S28.51,23.08,26.89,25.11c-1.62,2.03.41,189.07,2.03,191.1,1.62,2.03,48.28,19.07,51.12,19.48s136.33-15.42,136.33-15.42c0,0,1.22-188.26.41-190.29-.81-2.03-53.56-20.69-53.56-20.69Z"/>
          <path class="cls-1" d="M66.65,11.72s.14,15.82.41,16.5,3.65,4.19,18.66,4.33c15.01.14,18.66-3.52,19.07-4.46s.14-17.31-.95-18.8-5.14-5.82-20.69-5.55c-15.55.27-16.64,7.03-16.5,7.98Z"/>
          <path class="cls-6" d="M68.33,13.56c5.69,2.42,11.75,3.6,17.93,3.68,3.05.04,6.17-.43,9.13-1.12,1.52-.35,3.01-.79,4.48-1.31,1.38-.48,3.01-.83,3.83-2.1.42-.64.04-1.78-.77-1.9-1.44-.22-2.54.53-3.88,1.03-1.3.48-2.62.89-3.96,1.24-2.91.76-5.84,1.14-8.83,1.4-5.87.5-11.78-.38-17.32-2.34-.82-.29-1.42,1.08-.6,1.43h0Z"/>
          <path class="cls-6" d="M79.37,45.47c5.76-.56,11.52-1.13,17.28-1.68,10.35-.99,20.71-1.96,31.06-2.94,11.92-1.12,23.85-2.23,35.76-3.39,10.61-1.04,21.23-2.08,31.84-3.14,3.91-.39,7.81-.78,11.71-1.19,1.45-.15,2.91-.3,4.36-.46.71-.08,1.43-.14,2.14-.27.24-.05.48-.1.72-.16.09-.02.34-.11-.02-.02-.55.13.37-.06.38-.06.24-.08.48-.2.71-.3.42-.19.88-.36,1.21-.69l-1.18.49h.07c2.1-.27,2.12-3.6,0-3.34.35-.04,1.11.24.24.02-.08-.02-.17-.03-.26-.05-.19-.05-.38-.08-.58-.12-.63-.11-1.25-.13-1.88-.11-1.25.05-2.51.25-3.75.39-3.6.39-7.21.76-10.82,1.13-10.32,1.06-20.65,2.1-30.97,3.14-11.92,1.2-23.84,2.43-35.76,3.68-10.64,1.11-21.28,2.22-31.92,3.36-6.56.7-13.15,1.29-19.69,2.22-.37.05-.75.11-1.12.16-1.87.28-1.45,3.51.45,3.32h0Z"/>
          <path class="cls-6" d="M66.81,28.68c2.06,2.44,5.84,3.8,8.79,4.78,3.34,1.11,6.82,1.7,10.34,1.73,3.4.03,6.84-.43,10.09-1.4,3.12-.93,6.96-2.34,9.27-4.73,1.53-1.6-.39-3.73-2.24-2.9-1.41.63-2.67,1.58-4.05,2.26-1.36.67-2.78,1.21-4.24,1.64-2.95.87-5.99,1.28-9.06,1.25-3.01-.03-6.04-.42-8.95-1.17-1.51-.39-2.98-.89-4.42-1.46-1.48-.58-2.93-1.41-4.47-1.79-1.1-.27-1.73,1-1.05,1.8h0Z"/>
          <path class="cls-6" d="M79.54,42.85c-14.37-5.67-29.07-10.43-43.59-15.69-2.63-.95-5.25-2.14-8.04-2.48-1.17-.14-1.84,1.62-.98,2.35,1.86,1.58,4.36,2.29,6.62,3.11,3.78,1.36,7.58,2.69,11.38,4,8.43,2.92,16.84,6.05,25.4,8.6,2.85.85,5.7,1.69,8.55,2.55,1.59.48,2.15-1.86.67-2.44h0Z"/>
          <path class="cls-6" d="M77.08,44.38c-.04.3-.07.61-.11.91-.1.84-.11.6-.12,1.48-.01,1.51-.02,3.03-.04,4.54-.04,4.83.05,9.67.08,14.5.1,14.84.2,29.68.31,44.52.12,17.54.27,35.09.42,52.63.13,15.39.27,30.78.4,46.17.07,8.35.21,16.7.42,25.06,0,.3.02.59.02.89,0,1.76,2.73,1.76,2.73,0,0-7.14.09-14.29.07-21.44-.04-14.84-.25-29.68-.39-44.52-.16-17.54-.32-35.09-.5-52.63-.16-15.39-.33-30.78-.49-46.17-.06-5.38-.11-10.77-.16-16.15-.02-1.83-.05-3.66-.1-5.49-.01-.65-.02-1.3-.04-1.95-.03-.86-.03-.61-.14-1.47-.04-.3-.07-.59-.11-.89-.17-1.46-2.1-1.46-2.27,0h0Z"/>
          <path class="cls-6" d="M26.99,27.52c3.97,9.72,8.28,19.23,13.4,28.4,1.26,2.25,2.56,4.48,3.89,6.69.65,1.07,1.3,2.13,1.95,3.2s1.26,2.45,2.45,2.99c1.21.55,2.22-.08,3.15-.83,1.31-1.07,2.61-2.16,3.92-3.23,2.44-2,4.94-3.92,7.39-5.9,2.74-2.22,5.45-4.48,8.17-6.72,1.44-1.19,2.89-2.39,4.33-3.59,1.4-1.17,2.95-2.24,4-3.74,1.02-1.47-.91-2.87-2.24-2.24-1.22.58-2.2,1.56-3.23,2.42-1.21,1.02-2.43,2.03-3.64,3.04-2.26,1.88-4.53,3.76-6.8,5.63-4.47,3.7-8.86,7.5-13.26,11.28-.76.65-.45.71-.98.18-.43-.44-.77-1.2-1.1-1.72-.66-1.04-1.31-2.09-1.95-3.14-1.21-1.99-2.39-4-3.54-6.03-2.19-3.87-4.26-7.82-6.24-11.8-2.6-5.22-5.26-10.41-7.93-15.6-.48-.94-2.15-.28-1.74.73h0Z"/>
          <path class="cls-6" d="M50.38,33.9c-.81,5.18-1.31,10.39-1.6,15.63-.29,5.3-.68,10.87-.14,16.15.08.79,1.22.82,1.25,0,.09-2.59-.11-5.19-.1-7.78s.09-5.39.22-8.08c.26-5.28.79-10.54,1.43-15.78.07-.6-.97-.74-1.06-.14h0Z"/>
          <path class="cls-3" d="M38.35,170.67s28.99,9.49,28.99,10.7-.24,26.61-.73,27.34c-.48.73-27.78-9.17-28.26-10.14s0-27.89,0-27.89Z"/>
          <path class="cls-1" d="M33.15,85.54c1.61.53,3.18,1.24,4.75,1.89,3.08,1.27,6.25,2.35,9.37,3.52,3.45,1.29,6.91,2.53,10.38,3.77,2.73.98,5.52,2.26,8.39,2.74,1.35.23,2.38-1.62,1-2.36-2.63-1.41-5.62-2.21-8.42-3.21-3.46-1.24-6.91-2.51-10.38-3.72-4.76-1.67-9.55-3.63-14.49-4.73-1.38-.31-1.92,1.67-.58,2.11h0Z"/>
          <path class="cls-1" d="M34.36,99.81c1.61.53,3.18,1.24,4.75,1.89,3.08,1.27,6.25,2.35,9.37,3.52,3.45,1.29,6.91,2.53,10.38,3.77,2.73.98,5.52,2.26,8.39,2.74,1.35.23,2.38-1.62,1-2.36-2.63-1.41-5.62-2.21-8.42-3.21-3.46-1.24-6.91-2.51-10.38-3.72-4.76-1.67-9.55-3.63-14.49-4.73-1.38-.31-1.92,1.67-.58,2.11h0Z"/>
          <path class="cls-1" d="M34.12,115.53c1.61.53,3.18,1.24,4.75,1.89,3.08,1.27,6.25,2.35,9.37,3.52,3.45,1.29,6.91,2.53,10.38,3.77,2.73.98,5.52,2.26,8.39,2.74,1.35.23,2.38-1.62,1-2.36-2.63-1.41-5.62-2.21-8.42-3.21-3.46-1.24-6.91-2.51-10.38-3.72-4.76-1.67-9.55-3.63-14.49-4.73-1.38-.31-1.92,1.67-.58,2.11h0Z"/>
          <path class="cls-2" d="M195.27,98.95c-.19,8.39-1.69,15.19-3.86,20.69-6.99,17.66-20.9,21.91-20.9,21.91-7.11,3.65-19.02,5.39-30.69,4.1-12.98-1.42-25.63-6.61-30.98-17.09-7.83-15.34-6.9-35.99.86-51.16,9.08-17.71,30.42-24.3,49.25-19.86,18.72,4.39,36.77,21.14,36.31,41.41Z"/>
          <path class="cls-2" d="M114.26,191.87s-7.17-2.84-5.82-6.76c1.35-3.92,9.87-11.5,25.97-13.52,16.09-2.03,38.82-.54,43.14,1.35,4.33,1.89,7.17,4.19,7.71,6.36s-.41,6.36-5.95,8.66c-5.55,2.3-37.46,7.57-43.55,7.84-6.09.27-21.5-3.92-21.5-3.92Z"/>
          <path class="cls-5" d="M110.74,190.11s9.6-10.28,36.38-11.36c26.78-1.08,33.81,3.65,35.7,6.09s-20.69,15.69-35.84,14.34c-15.15-1.35-22.04.27-26.24-1.76-4.19-2.03-10.01-7.3-10.01-7.3Z"/>
          <path class="cls-6" d="M200.71,181.32c-.17-1.56-1.15-2.8-2.47-3.6-1.24-.75-2.68-1.08-4.1-1.31-1.7-.27-3.43-.45-5.15-.44-.8,0-1.64.06-2.48.13-1.82-2.76-4.96-3.84-8.01-4.65-3.57-.95-7.21-1.57-10.87-2.03-3.69-.47-7.39-.71-11.11-.83-7.46-.24-14.87.39-22.23,1.6-6.1,1-12.15,2.67-17.73,5.38-2.49,1.21-6.39,3.13-8.61,5.76-.88-.02-1.77,0-2.66.12-3.03.37-6.11,1.35-8.63,3.1-2.36,1.64-4.4,4.66-2.55,7.47,1.88,2.85,5.89,3.15,8.96,3.61,1.16.17,2.31.28,3.46.35.13.96.28,1.92.49,2.86.82,3.81,2.43,7.46,4.92,10.48,4.2,5.09,10.33,6.94,16.58,7.77,2.09.28,4.17.42,6.19.47,2.27.15,4.54.26,6.81.29,6.89.07,13.76-.53,20.53-1.78,10.87-2,22.23-7.38,25.75-18.73.68-2.18,1.02-4.41,1.12-6.67.24-.08.49-.15.73-.23,3.15-1.06,6.49-2.52,9.04-4.7,1.3-1.11,2.22-2.68,2.02-4.43ZM111.17,182.72c1.9-1.69,4.3-2.98,6.57-4.11,5.38-2.69,11.24-4.22,17.17-5.1,9.21-1.38,18.35-1.38,27.62-.66,5.64.44,11.31,1.28,16.72,2.97,1.81.56,5.08,1.72,4.69,4.19-.2,1.26-1.29,2.01-2.2,2.79-.98.83-2.09,1.5-3.24,2.07-4.69,2.31-10.28,3.33-15.37,4.3-11.17,2.13-22.82,2.68-34.14,1.59-5.64-.54-11.28-1.53-16.75-3.02-.96-.26-2.31-.57-2.64-1.66-.4-1.3.69-2.56,1.57-3.35ZM96.8,188.97c.52-1.22,2-1.98,3.12-2.56,1.39-.72,2.87-1.18,4.39-1.52.66-.15,1.34-.27,2.02-.37,0,.03-.03.05-.04.08-.44,2.17-.27,4.6-.17,6.82-.77-.01-1.53-.03-2.3-.05-1.23-.03-8.14.19-7.03-2.4ZM194.25,183.72c-1.48.83-3.01,1.53-4.62,2.08-.29.1-.58.19-.87.27-.22-2.1-.62-4.18-1.2-6.2.01-.22,0-.44,0-.65.54-.02,1.07-.03,1.61-.02,1.73.05,3.41.32,5.07.81.7.21,2.49.73,2.53,1.6.05.84-1.91,1.77-2.52,2.11Z"/>
        </g>
        <path class="cls-1" d="M145.08,95c-1.64-2.21-5.19-3.66-5.55-6.6-.22-1.78.28-3.67.55-5.42.33-2.14.67-4.28.97-6.43.44-3.13.55-6.55-1.91-8.94-2.08-2.03-5.53-2.93-8.27-3.64-3.08-.79-5.99-1.25-8.56-3.29-2.39-1.9-4.56-4.17-7.3-5.59-6.1-3.16-12.54.95-16.11,5.98-3.63,5.12-4.81,12.01-3.08,18.04,1.77,6.15,6.29,11.1,11.53,14.58,2.35,1.56,7.1,3.07,6.82,6.56-.16,2-1.26,3.85-1.79,5.76-.48,1.72-.74,3.55-.57,5.33.63,6.51,6.22,8.78,11.83,9.58-.79,1.48-1.36,3.06-1.32,4.78.05,2.56,1.38,4.63,3.61,5.84,4.37,2.36,9.17,3.84,11.81,8.41,1.25,2.16,4.57.28,3.48-1.86.7-7.68,1.36-15.36,3.12-22.89,1.47-6.31,5.16-14.24.74-20.21Z"/>
        <g>
          <path class="cls-1" d="M197.35,87.83c-.2-1.91-1.87-3.32-3.52-4.06-3.69-1.65-8-.44-11.6.84-2.21.78-4.43,1.72-6.55,2.85.35-.45.7-.9,1.05-1.35,1.71-2.18,3.34-4.42,4.84-6.75,1.54-2.38,2.96-4.84,4.27-7.35,1.2-2.31,2.69-4.82,3.17-7.4.38-2.08-.09-4.41-1.86-5.75-1.92-1.45-4.26-.73-6.01.61-3.97,3.04-6.12,7.81-7.73,12.4-1.14,3.26-2.1,6.59-2.86,9.96-.73,3.24-1.55,6.66-1.64,9.99,0,.16.04.29.1.4,0,.03,0,.06,0,.1-.04.22.04.45.2.62.07.1.15.19.25.27,1.62,1.24,4.37,1.5,6.35,1.74,2.22.28,4.47.33,6.7.16,2.24-.17,4.49-.54,6.67-1.08,1.9-.47,4.03-.98,5.73-1.99,1.48-.88,2.66-2.4,2.46-4.2Z"/>
          <path class="cls-1" d="M158.01,95.55c.57,2.7,1.17,5.55,2.2,8.12.45,1.12,1.8,1.06,2.26.25,2.55-3.46,4.06-7.61,4.79-11.83.68-3.91,1.02-8.39-.11-12.24-.87-2.94-4.52-7.4-7.81-4.55-1.47,1.27-1.92,3.41-2.18,5.24-.34,2.29-.42,4.66-.29,6.97.16,2.7.58,5.4,1.14,8.04Z"/>
          <path class="cls-1" d="M156.79,116.79c.37.2.94.09,1.09-.4,1.84-6,.65-12.66-2.56-17.98-.74-1.22-1.65-2.62-3.11-3.03-1.42-.4-2.77.32-3.46,1.57-1.43,2.61-.34,6.44.75,8.98.75,1.75,1.74,3.39,2.67,5.05,1.05,1.87,2.09,3.75,3.16,5.62.35.61,1.03.55,1.45.2Z"/>
          <path class="cls-1" d="M176.06,107.41c-3.44-.59-6.98,1.12-9.8,2.9-3.45,2.17-6.48,4.82-9.07,7.97-.22.27-.24.58-.15.84-.8.34-.74,1.64.29,1.66,6.72.13,13.61-2.34,18.93-6.44,1.24-.96,2.69-2.16,2.7-3.88.01-1.68-1.35-2.79-2.91-3.05Z"/>
          <path class="cls-1" d="M169.84,120.78c-1.68-.17-3.39-.15-5.07.05-3.66.43-7.16,1.66-10.21,3.72-.07.05-.11.1-.16.16-.01.01-.02.02-.03.03-.03.04-.06.09-.08.14-.03.05-.06.08-.08.13.11-.3-.1.19-.14.28-.14.3-.28.59-.42.89-.18.39-.36.79-.56,1.17-.28.53-.1,1.09.37,1.43,2.32,1.68,5.59,1.95,8.37,1.88,2.92-.07,5.82-.84,8.42-2.18,2.08-1.07,5.92-3.95,3.28-6.47-.98-.94-2.42-1.1-3.7-1.23Z"/>
        </g>
        <path class="cls-6" d="M116.17,73.24c11.25,16.21,16.56,35.33,19.75,54.59.47,2.82.89,5.65,1.27,8.48.41,3.03.68,6,1.59,8.94.55,1.76,3,1.35,3.13-.42.38-5.3-.83-10.82-1.66-16.06-.83-5.24-1.8-10.47-3.05-15.63-2.3-9.51-5.79-19.02-10.37-27.67-2.54-4.8-5.5-9.35-8.87-13.61-.79-1.01-2.52.32-1.78,1.38h0Z"/>
        <path class="cls-6" d="M183.99,77.87c-.9.74-1.97,1.28-2.89,2-.92.71-1.74,1.52-2.58,2.32-1.74,1.65-3.44,3.35-5.08,5.09-3.14,3.33-6.09,6.84-8.8,10.52-5.53,7.52-10.04,16.11-12.43,25.17-.69,2.61-1.22,5.26-1.58,7.94s-.86,5.26-.38,7.82c.27,1.43,2.42,1.3,2.77,0,.58-2.15.51-4.45.87-6.64s.84-4.41,1.43-6.58c1.18-4.36,2.72-8.66,4.64-12.75,3.84-8.17,9.03-15.72,14.97-22.49,1.64-1.87,3.34-3.69,5.09-5.46.87-.89,1.79-1.73,2.64-2.64.92-.98,1.62-2.13,2.58-3.06.81-.79-.38-1.92-1.22-1.22h0Z"/>
      </g>
    </g>
  </g>
</svg>