<?xml version="1.0" encoding="UTF-8"?>
<svg id="Capa_2" xmlns="http://www.w3.org/2000/svg" viewBox="0 0 243.3 243.3">
  <defs>
    <style>
      .cls-1 {
        fill: none;
      }

      .cls-2 {
        fill: #e09d3e;
      }

      .cls-3 {
        fill: #fad380;
      }

      .cls-4 {
        fill: #4f3535;
      }
    </style>
  </defs>
  <g id="grocery_icons">
    <g>
      <rect class="cls-1" width="243.3" height="243.3"/>
      <g>
        <path class="cls-2" d="M48.89,50.36s-12.76-2.28-16.4,5.69c-3.64,7.97-5.69,27.11-1.82,33.26,3.87,6.15,10.25,7.74,10.25,7.74,0,0-4.78,4.1-8.2,29.38-3.42,25.28-1.14,63.09-1.14,63.09,0,0-13.78,9-14.46,23.12-.68,14.12,31.55,9.68,46.58,10.36s98.63,2.05,117.3,2.05,39.52-1.25,46.58-14.46c7.06-13.21-10.36-11.5-12.87-16.51-2.51-5.01-.23-43.96-9.11-68.33-8.88-24.37-19.82-32.8-19.82-32.8,0,0,8.88-1.59,10.02-15.26,1.14-13.67-7.74-25.74-12.3-26.88-4.56-1.14-7.74.23-7.74.23,0,0,3.87,5.47,2.05,8.43-1.82,2.96-34.17,12.53-61.5,12.3-27.33-.23-63.55-7.52-68.79-10.25-5.24-2.73-5.92-2.28-3.87-4.78,2.05-2.51,5.24-6.38,5.24-6.38Z"/>
        <path class="cls-4" d="M179.9,56.92c-.07.03-.14.06-.21.09-1.77-6.17-5.61-14.28-10.89-11.43-8.43,4.56-8.84,1.17-10.82-2.85-4.44-9-10.02-15.55-16.63-15.15-3.65.22-8.17,2.12-11.16,4.1-2.79,1.84-2.42,1.39-4.69-1.07-1.43-1.55-14.67-14.88-24.23-14.19-7.75.55-15.68,4.75-22.22,8.53-13.37,7.72-27.32,18.72-35.67,31.97-.88-.29-1.77-.55-2.65-.85-2.04-.68-3.14,2.29-1.42,3.37,10.37,6.53,23.65,9.19,35.51,11.69,12.46,2.63,25.26,4.38,38.01,4.33,22.85-.09,49.24-2.84,69.25-14.81,2.46-1.47.31-4.82-2.19-3.74ZM111.87,69.91c-22.36-.84-44.24-5.34-65.53-12.05,9.34-10.32,18.16-20,30.2-27.52,6.3-3.94,13.83-8.58,21.21-9.95,8.77-1.63,16.48,3.91,22.23,9.9,3.99,4.16,5.77,8.22,11.58,4.84,3.14-1.83,6.33-4.34,10.18-4.04,4.31.34,7.7,3.78,9.92,7.18,2.29,3.51,4.44,12.52,9.19,13.23,2.55.38,4.03-1.85,6.28-2.37,5.19-1.21,7.63,5.47,9.02,9.39-9.36,3.93-18.58,7.31-28.72,9.2-11.73,2.18-23.66,2.66-35.57,2.21Z"/>
        <path class="cls-4" d="M67.68,54.71c4.28,0,4.29-6.65,0-6.65s-4.29,6.65,0,6.65h0Z"/>
        <path class="cls-4" d="M82.03,41.77c.46.02.9-.08,1.3-.29.42-.14.78-.37,1.08-.7.33-.3.56-.67.7-1.08.21-.4.31-.83.29-1.3-.04-.3-.08-.6-.12-.9-.16-.57-.45-1.07-.87-1.49-.23-.18-.45-.35-.68-.53-.53-.3-1.09-.46-1.7-.46-.46-.02-.9.08-1.3.29-.42.14-.78.37-1.08.7-.33.3-.56.67-.7,1.08-.21.4-.31.83-.29,1.3.04.3.08.6.12.9.16.57.45,1.07.87,1.49.23.18.45.35.68.53.53.3,1.09.46,1.7.46h0Z"/>
        <path class="cls-4" d="M85.1,53.99c3.35,0,3.36-5.21,0-5.21s-3.36,5.21,0,5.21h0Z"/>
        <path class="cls-4" d="M37.77,96.69c17.86,8.68,38.33,10.79,57.94,11.49,21.86.77,44.06-.84,65.51-5.19,9.64-1.96,19.26-4.49,28.18-8.7,1.08-.51,1.36-2.06.79-3.02-.66-1.13-1.92-1.27-3.02-.79-1.34.58-3.17,1.27-5,1.92-1.95.69-3.89,1.38-5.86,1.99-4.35,1.35-8.77,2.48-13.22,3.46-9.93,2.18-20.01,3.62-30.13,4.56-21.56,2-43.41,1.9-64.9-.91-9.91-1.3-20.09-3.18-29.49-6.69-1.09-.41-1.85,1.38-.8,1.89h0Z"/>
        <path class="cls-3" d="M123.2,169.94s4.1-13.5-.85-26.82c-4.95-13.32-8.2-20.16-10.42-17.6-2.22,2.56-5.47,20.84-1.02,30.07,4.44,9.22,12.3,14.35,12.3,14.35Z"/>
        <path class="cls-3" d="M131.74,154.22s9.91-4.27,12.98-15.37c3.07-11.1-1.2-22.21-2.73-21.87-1.54.34-9.4,6.66-11.1,17.6-1.71,10.93.85,19.65.85,19.65Z"/>
        <path class="cls-3" d="M126.27,166.18s11.1-9.4,22.72-13.84,17.42-5.81,17.77-3.59-2.05,15.72-16.23,18.28c-14.18,2.56-24.26-.85-24.26-.85Z"/>
        <path class="cls-3" d="M108.51,191.29c.51-1.02,2.56-10.08-2.39-21.52-4.95-11.45-16.4-17.77-17.6-16.23-1.2,1.54-.68,18.62,6.32,26.48,7,7.86,13.67,11.27,13.67,11.27Z"/>
        <path class="cls-3" d="M113.8,184.8s8.2,9.91,25.45,9.05c17.25-.85,22.21-10.42,21.52-12.47s-36.73-3.93-46.98,3.42Z"/>
        <path class="cls-4" d="M94.35,206.55c16.98-13.66,32.81-33.43,38.97-54.67.46-1.6-2.02-2.74-2.76-1.16-4.65,10.02-8.92,19.73-15.25,28.88-6.47,9.35-14.24,17.67-22.85,25.07-1.32,1.13.57,2.94,1.88,1.88h0Z"/>
      </g>
    </g>
  </g>
</svg>