<?xml version="1.0" encoding="UTF-8"?>
<svg id="Capa_2" data-name="Capa 2" xmlns="http://www.w3.org/2000/svg" viewBox="0 0 200 200">
  <defs>
    <style>
      .cls-1 {
        fill: none;
      }

      .cls-1, .cls-2, .cls-3, .cls-4 {
        stroke-width: 0px;
      }

      .cls-2 {
        fill: #fff;
      }

      .cls-3 {
        fill: #593737;
      }

      .cls-4 {
        fill: #f3b200;
      }
    </style>
  </defs>
  <g id="colorful_icons" data-name="colorful icons">
    <g>
      <g>
        <g>
          <path class="cls-4" d="m55.19,172.87c-1.06,3.35-4.51,6.89-9.17,7.11-4.54.21-8.4-1.24-10.84-5.28-2.87-4.75-1.44-10.34.03-15.3,2.35-7.95,6.15-15.56,8.77-23.46.77,3.26,2.3,6.47,3.55,9.59,1.76,4.42,3.58,8.83,5.35,13.24,1.78,4.45,3.79,9.44,2.32,14.09Z"/>
          <g>
            <path class="cls-4" d="m69.08,68.52l85-.35s-23.07,27.15-27.86,31.23-9.58,11.89-13.84,11.53c-4.26-.35-7.99-1.06-9.23-1.95s-4.08-3.37-4.08-3.37c0,0-1.06,5.68-4.79,8.7s-6.03,3.9-8.16,2.13-4.79-4.26-4.79-4.26c0,0-4.44,5.5-6.21,4.97s-5.5-5.32-5.5-5.32c0,0-19.17,17.04-21.83,18.46s-4.44,2.13-4.44-.35,9.41-11,11.53-13.31,10.65-10.29,10.65-10.29c0,0-4.61-4.97-3.19-6.74s4.61-3.73,4.61-3.73c0,0-5.5-5.15-4.26-7.45s8.16-8.16,9.41-7.99,2.13-.35,2.13-.35c0,0-6.03-7.45-6.03-8.87s.89-2.66.89-2.66Z"/>
            <path class="cls-3" d="m163.5,48.93c-1.86-3.4-4.27-6.53-6.7-9.54-3.71-4.59-8.03-8.75-12.61-12.47-2.38-1.93-4.99-3.37-7.52-5.06-3.38-1.85-6.13-2.12-9.39.05-3.87,2.58-7.66,5.3-11.44,8-14.64,10.47-28.99,21.44-42.72,33.08-3.02,2.56-7.4,5.12-5.47,9.59,1.11,2.57,2.78,4.96,4.73,7.04-.35.07-.72.18-1.1.35-1.9.83-3.66,2.27-5.2,3.65-1.46,1.31-3.43,3-4.3,4.79-.78,1.61.29,2.82,1.32,3.97.15.17.32.34.47.51.52,1.01,1.22,1.96,1.9,2.85-2,.89-4.58,2.31-4.17,4.35.08.42.26.86.48,1.31.58,1.86,1.69,3.64,2.66,5.25-2.09,1.61-3.94,3.64-5.8,5.47-2.3,2.26-4.68,4.41-6.97,6.68-2.24,2.22-4.42,4.49-6.61,6.75-1.56,1.61-3.49,3.26-2.83,5.71.13.49.57.77,1.05.8,1.19.08,2.16-.09,3.13-.57,2.98-1.48,7.2-4.69,7.89-5.21,5.2-3.96,10.22-8.49,14.94-13.04.21.23.43.47.64.7,1.48,1.55,3.53,4.17,5.88,4.21,2.21.04,4.87-2.41,6.25-4.05.06.06.13.13.19.19,1.47,1.79,3.16,3.37,5.09,3.89,2.41.95,4.7-.32,6.57-1.83,2.34-1.9,5.59-5.09,6.37-8.38.94.92,1.91,1.81,2.9,2.64,1.32,1.1,2.64,1.74,3.95,2.02,2.68,1.33,5.4,1.33,8.22-.62,3.64-2.51,6.87-5.98,9.94-9.15,3.43-3.54,6.7-7.21,9.95-10.91,6.85-7.77,13.67-15.56,20.51-23.35,1.7-1.93,3.39-3.86,5.09-5.79,1.37-1.56,3.05-3.14,3.95-5.04,1.42-2.98.2-6.14-1.28-8.83ZM57.33,120.3c-1.97,1.68-3.95,3.37-5.93,5.04-1.27,1.07-2.54,2.15-3.86,3.15-.6.46-3.19,2.47-2.39.11.3-.88,8.89-9.23,10.54-11.13,2.94-3.38,6.54-6.34,9.39-9.8.78,1.23,1.62,2.43,2.52,3.58-3.38,3.07-6.8,6.09-10.27,9.05Zm18.31-5.41c-4.58-4.59-8.98-9.3-12.15-15.01,1.16-.72,2.34-1.48,3.39-2.35,3.27,4.1,6.72,8.07,10.4,11.81.77.81,1.53,1.63,2.28,2.45-1.29,1.05-2.58,2.12-3.92,3.1Zm18-2.87c-.88.93-2.02,2.14-3.19,2.67-1.92.87-3.35-.31-4.79-1.52-4.12-3.44-7.77-7.66-11.43-11.58-1.93-2.06-3.77-4.22-5.58-6.39-1.48-1.78-4.85-5.1-3.83-7.67.53-.54,1.16-1.06,1.57-1.44,1.54-1.42,3.41-2.98,5.37-3.82,2.31-.98,3.57.82,5.04,2.26,4.45,4.39,8.94,8.75,13.28,13.24,1.83,1.89,3.69,3.79,5.36,5.83.44.54.96,1.05,1.36,1.59.44,2.53-1.47,5.02-3.16,6.81Zm67.96-56.24c-1.63,3.44-5.11,6.46-7.63,9.26-.62.69-7.12,7.89-8.59,9.53-5.57,6.22-11.12,12.48-16.9,18.51-2.88,3.01-5.82,5.96-8.83,8.84-1.46,1.39-2.93,2.75-4.42,4.11-1.42,1.3-2.93,2.86-4.87,3.32-2.79.66-5.33-1.39-7.33-3.04-1.67-1.38-3.3-2.83-4.91-4.28-1.9-1.71-3.63-3.62-5.41-5.48-.2-.21-.4-.43-.6-.64-.36-.38-.72-.76-1.1-1.13-1.62-1.63-3.27-3.2-4.85-4.74-2.39-2.33-4.8-4.62-7.2-6.93-1-.96-1.97-1.98-3.03-2.68-.99-1.29-1.96-2.6-2.84-3.98-.93-1.45-1.94-3.05-2.08-4.82-.31-3.83,3.64-6.15,6.18-8.25,5.82-4.83,11.72-9.56,17.7-14.19,6.22-4.82,12.52-9.54,18.91-14.15.8-.58,1.61-1.16,2.42-1.73,4.08-2.69,8.19-5.32,12.31-7.89,2.37-1.48,4.45-1.76,7-.47,1.79.91,3.42,2.16,5.03,3.34,3.69,2.71,6.96,5.92,10.19,9.15,3.13,3.13,6.25,6.29,8.81,9.91.4.56.89,1.24,1.38,1.99,1.11,2.08,1.68,4.31.66,6.45Z"/>
            <path class="cls-2" d="m70.17,89.61l.94,1.15c.16.19.32.36.5.53.17.16.34.33.54.45s.43.18.64.26l.36.05.36-.05c.29-.08.53-.26.71-.49.08-.08.14-.18.17-.3.06-.11.09-.22.09-.34.03-.12.03-.24,0-.36,0-.18-.06-.35-.16-.51-.05-.11-.09-.22-.15-.32-.12-.2-.3-.36-.47-.52-.09-.08-.17-.17-.26-.25-.18-.16-.38-.29-.57-.43l-1.17-.85c-.15-.09-.3-.14-.47-.15-.17-.04-.34-.03-.51.02-.27.09-.49.23-.66.45s-.28.49-.27.77l.05.34c.06.21.17.4.33.56h0Z"/>
            <path class="cls-2" d="m75.08,95.81c.27.4.57.79.88,1.15.11.13.23.26.35.38.07.07.12.1.21.17.06.06.13.11.2.15l.42.18s.07.03.11.04c.08.03.16.05.23.08l.43.06.43-.06.38-.16c.19-.1.34-.24.45-.41.1-.1.17-.22.21-.35.07-.13.11-.26.11-.4.04-.14.04-.28,0-.43,0-.21-.07-.41-.19-.6-.04-.07-.07-.14-.11-.22-.02-.03-.03-.07-.05-.1-.04-.09-.09-.14-.16-.23-.09-.11-.1-.14-.17-.21-.13-.11-.26-.22-.39-.34-.25-.23-.48-.48-.7-.74-.15-.16-.33-.28-.54-.35-.2-.11-.42-.15-.65-.15l-.45.06c-.22.05-.41.15-.57.3-.13.07-.23.18-.3.3-.15.16-.25.35-.3.57l-.06.45c0,.3.08.59.23.85h0Z"/>
          </g>
        </g>
        <path class="cls-2" d="m40.49,173.13c-.19-.35-.31-.73-.51-1.07-.22-.36-.45-.71-.65-1.08-.36-.69-.6-1.43-.8-2.19s-.29-1.45-.31-2.22c-.01-.47.04-.93-.05-1.39-.08-.39-.21-.71-.39-1.07-.14-.28-.48-.25-.69-.09-.35.28-.57.57-.76.98-.22.48-.23,1.04-.23,1.56,0,.96.13,1.94.37,2.86s.63,1.78,1.1,2.57c.24.41.51.83.82,1.19s.76.62,1.16.87c.6.38,1.25-.36.94-.94h0Z"/>
        <path class="cls-2" d="m38.55,160.93c1.77,0,1.77-2.75,0-2.75s-1.77,2.75,0,2.75h0Z"/>
      </g>
      <rect class="cls-1" width="200" height="200"/>
    </g>
  </g>
</svg>