<?xml version="1.0" encoding="UTF-8"?>
<svg id="Capa_2" xmlns="http://www.w3.org/2000/svg" viewBox="0 0 243.3 243.3">
  <defs>
    <style>
      .cls-1 {
        fill: #eca396;
      }

      .cls-2 {
        fill: #fff;
      }

      .cls-3 {
        fill: none;
      }

      .cls-4 {
        fill: #4f3535;
      }
    </style>
  </defs>
  <g id="grocery_icons">
    <g>
      <rect class="cls-3" width="243.3" height="243.3"/>
      <g>
        <path class="cls-1" d="M216.05,205.9c-2.04-8.28-4.32-16.5-6.45-24.76-5.54-21.44-8.18-43.36-9.25-65.44-1.14-23.49-1.12-47.05-3.67-70.44-.27-2.49-3.85-2.77-4.25-.57-22,.45-148.37,2.91-149.72,2.8-4.27,41.74-1.29,83.92-10.61,125.13-2.07,9.15-4.65,18.18-7,27.26-1.64,6.34-5.36,14.7.94,19.56,6.43,4.96,16.4,6.37,24.23,7.22,9.83,1.08,19.7.41,29.56.33,4.2-.04,8.4-.03,12.6-.02,12.33,1.06,24.91.79,37.43.44,5.56.05,11.12,0,16.62-.4,1.94-.03,3.89-.05,5.82-.05,18.48.01,38.37,2.53,55.92-4.74,3.12-1.29,6.65-2.78,8.19-6.01,1.58-3.29.47-6.99-.35-10.32Z"/>
        <path class="cls-1" d="M189.47,14.32c-14.1-.14-28.19-.39-42.28-.44-29.04-.11-58.32-1.04-87.1,3.64-6.05.98-12.19.87-17.84,3.57-5.73,2.74-3.82,8.3-.52,12.08-3.8,5.02-8.87,14.24-.67,16.07,5.64,1.25,11.92.1,17.57-.44,7.45-.72,14.92-1.28,22.4-1.68,27.81-1.51,55.67-.95,83.5-.58,7.14.09,14.28.16,21.43.14,3.95-.01,10.55,1.26,13.76-1.98,3.25-3.28-1.42-7.01.9-10.47,2.62-3.93,7.71-5.27,8.34-10.61,1.21-10.38-13.22-9.22-19.49-9.28Z"/>
        <path class="cls-4" d="M56.63,35.06c9.41-.78,18.84-1.53,28.26-2.16,8.68-.58,18.16.06,26.63-1.93,1.4-.33,1.52-2.71,0-2.95-8.54-1.34-18.03.18-26.63.73-9.45.6-18.85,1.41-28.26,2.44-2.43.27-2.5,4.07,0,3.86h0Z"/>
        <path class="cls-4" d="M131.86,31.79c2.66.03,5.47.31,8.11-.05,1.42-.2,1.42-2.67,0-2.87-2.64-.36-5.45-.08-8.11-.05-1.91.02-1.92,2.95,0,2.97h0Z"/>
        <path class="cls-4" d="M154.04,33.33c3.86.14,8.3.77,12.05-.32,1.72-.5,1.72-2.99,0-3.48-3.76-1.08-8.2-.46-12.05-.32-2.65.1-2.65,4.02,0,4.12h0Z"/>
        <path class="cls-4" d="M197.22,49.28c-.1-1.26-.13-1.76-.14-3.01-11.27.63-29.29-.75-36.16-.96-13.55-.43-27-1.46-40.55-1.52-12.82-.06-25.72.25-38.44,2-13.19,1.82-25.89,4.44-39.25,3.54-.14,0-.26,0-.38,0-.04.82-.15,1.64-.16,2.43,0,.4,0,.81-.01,1.21.11.03.22.06.34.08,13.2,1.99,26.09-.85,39.14-2.52,14.84-1.9,29.94-1.85,44.87-1.49,14.94.36,29.85,1.27,44.79,1.56,7.09.14,14.21.24,21.3-.01,1.59-.06,3.2-.11,4.72-.41-.03-.31-.05-.61-.08-.91Z"/>
        <path class="cls-2" d="M183.66,208.94c3.04.38,6.42.69,9.11-1.09,1.32-.87,1.65-3.18,0-3.96-2.63-1.25-5.42-1.08-8.23-1.49-1.97-.29-3.86.6-4.16,2.77-.29,2.16,1.29,3.52,3.27,3.77h0Z"/>
        <path class="cls-2" d="M188.01,190.6c1.01.73,2.3.78,3.51.88,1.24.1,2.52.19,3.73-.12,2.93-.74,3.1-5.45,0-6.1-2.64-.55-6.3.21-8,2.42-.75.97-.07,2.3.76,2.9h0Z"/>
        <path class="cls-2" d="M58.03,78.38c1.23-.21,2.36-.55,3.32-1.39,1.12-.97.92-3.28-.5-3.91-.61-.27-.98-.42-1.65-.48-.19-.02-.39-.02-.58-.03-.46-.02-.9.04-1.36.1-.81.1-1.45.29-2.06.85-.68.62-.92,1.57-.8,2.44.11.79.46,1.41,1.09,1.9.78.6,1.59.68,2.53.52h0Z"/>
        <path class="cls-2" d="M61.64,63.84c.91.19,1.9.18,2.72-.32.42-.25.78-.65,1-1.09.26-.53.3-.77.37-1.36.05-.45-.25-1.09-.57-1.38-.37-.34-.86-.6-1.38-.57-.06,0-.13,0-.19,0,.19.03.37.05.56.08-.11-.01-.2-.04-.3-.08.19.08.38.16.57.24-.49-.23-.77-.34-1.32-.36-.1,0-.19,0-.29-.02.22.03.44.06.66.09-.11-.02-.21-.05-.31-.09.2.09.4.17.61.26-.05-.02-.1-.05-.14-.07-1.34-.76-3.04-.19-3.64,1.23-.28.66-.28,1.32,0,1.98.29.69.89,1.33,1.66,1.49h0Z"/>
        <g>
          <path class="cls-2" d="M103.39,135.98s-1.94-12.54.35-15.37,15.19-12.9,28.62-12.9,28.73,11.85,30.62,17.76c1.89,5.91,1.36,27.64.83,29.58-.53,1.94-1.94,2.47-1.94,2.47,0,0,5.12-.18,6.18,9.36.61,5.52.98,11.09.94,16.64-.04,4.76-.13,10.48-3.61,14.29-3.18,3.48-8.47,4-12.75,5.31-4.12,1.26-8.38,2.76-12.67,3.33-5.3.71-18.55-3.71-26.14-8.48-7.6-4.77-6.19-14.46-6.19-14.46,0,0-8.82,8.45-13.95,8.45s-21.9-6.18-26.5-14.13c-4.59-7.95-3.89-25.97,1.41-31.62,5.3-5.65,23.49-11.13,27.2-11.13s7.6.88,7.6.88Z"/>
          <g>
            <g>
              <path class="cls-4" d="M103.45,154.01c3.74-1.94,7.92-3.78,11.14-6.53.69-.59-.05-1.9-.91-1.56-3.21,1.28-6.19,3.34-9.2,5.02-3.25,1.82-6.57,3.59-9.96,5.15-2.1.97-3.95,1.64-6.24.93-1.84-.57-3.6-1.68-5.32-2.54-3.79-1.9-7.59-3.78-11.45-5.54-.88-.4-1.66.83-.78,1.33,4.29,2.45,8.64,4.75,13.03,7.03,1.79.93,3.52,1.77,5.34,2.06.15,3.99.73,8.04,1.09,11.91.27,2.95.51,5.9.73,8.86.19,2.52.04,5.37.73,7.81.32,1.14,1.79.78,1.92-.26.34-2.67-.29-5.69-.49-8.37-.22-2.97-.42-5.93-.59-8.9-.21-3.6-.26-7.39-.65-11.08.35-.06.7-.14,1.06-.26,3.65-1.19,7.14-3.3,10.54-5.06Z"/>
              <path class="cls-4" d="M165.07,158.36c-2.48-2.41-6.34-3.39-9.51-4.51-4.09-1.45-8.2-2.84-12.41-3.86-3.13-.76-6.38-1.69-9.64-1.55,0-1.78-.26-3.63-.32-5.23-.13-3.08-.15-6.31-.73-9.34.96-.15,1.89-.51,2.84-.88,2.24-.87,4.47-1.76,6.7-2.65,4.41-1.76,8.89-3.42,13.21-5.4,1.36-.62.39-2.99-1.03-2.44-3.79,1.46-7.49,3.2-11.21,4.84-2.04.9-4.08,1.81-6.12,2.72-2.1.94-4.19,2.32-6.56,1.61-3.79-1.15-7.6-3.34-11.18-5.02-3.87-1.81-7.7-3.73-11.55-5.58-1.03-.49-1.91.95-.9,1.54,3.96,2.34,8.06,4.41,12.22,6.37,1.87.88,3.75,1.75,5.65,2.56,1.87.8,3.95,1.91,5.98,2.3-.29,3.28.07,6.69.19,9.97.06,1.55-.05,3.35.07,5.05-2.97.72-5.82,2.28-8.6,3.41-.65.27-1.3.54-1.95.82.21-3.35-.46-7.35-2.19-9.86-2.38-3.47-7.47-6.24-11.2-7.79-.97-.4-2.6-1.21-3.74-1.59l.25,1.89s0,.02,0,.02c.03.09.04.17.05.25,2.13.88,8.51,4.82,11.21,7.27,2.92,2.64,2.08,7.66,2.43,11.28-1.4.7-2.76,1.45-4.07,2.31-3.04,2-4.7,5.44-5.37,8.92-.45,2.32-.35,4.91-.44,7.27-.09,2.43-.13,4.85-.12,7.28.02,2.42.14,6.29.69,8.67.48,2.06,1.4,4.59,2.83,6.18-.9-4.05-1.05-10.12-.94-14.24.07-2.72.17-5.43.31-8.15.13-2.63.23-5.33.9-7.89.76-2.91,2.43-5.47,5.13-6.89,2.46-1.29,4.91-2.53,7.49-3.58,1.85-.76,3.73-1.49,5.64-2.08,1.66-.51,3.23-1.06,4.99-1.05,1.81,0,3.59.4,5.34.8,4.51,1.05,8.96,2.36,13.37,3.8,2.25.73,4.48,1.5,6.72,2.27,2.15.75,5.54,1.97,7.43,3.92.8.51-.58-2.46-1.86-3.7Z"/>
              <path class="cls-4" d="M161.03,161.43c-3.81,1.87-7.42,4.21-11.1,6.33-3.8,2.19-8.08,5.03-12.67,4.15-3.82-.73-7.51-2.75-11.07-4.24-4.11-1.71-8.2-3.48-12.33-5.15-.87-.35-1.45,1.07-.64,1.51,4.24,2.27,8.58,4.3,12.99,6.23,3.5,1.53,7.4,3.68,11.29,4.05-.02,4.54.66,9.19.81,13.74.15,4.44-.22,9.14.5,13.53.14.85,1.57.84,1.71,0,.77-4.51.22-9.49,0-14.04-.2-4.31-.17-8.92-.87-13.2,3.48-.28,6.66-1.92,9.66-3.64,4.26-2.42,8.7-4.7,12.78-7.42,1.15-.77.16-2.46-1.08-1.85Z"/>
            </g>
            <path class="cls-4" d="M125.44,145.77c.13-.08.27-.18.37-.29-.31.13-.62.26-.93.38h.02c.43.04.97-.27,1.15-.66.13-.26.2-.43.2-.72,0-.13-.02-.27-.05-.4-.08-.35-.32-.69-.65-.85l.24.18v-.02c-.26-.27-.64-.36-.98-.32s-.69.23-.84.55v.02c.13-.14.27-.28.41-.42-.13.06-.25.16-.35.26s-.19.22-.27.34l.21-.27-.02.02-.21.27c-.1.15-.15.32-.16.5-.03.12-.03.24,0,.36,0,.18.06.34.16.5h0v-1.31l-.02.02.21-.27s-.04.04-.06.06l.26-.2-.02.02c-.15.08-.27.19-.37.34-.12.13-.19.27-.23.44-.09.31-.05.73.13,1.01s.45.52.78.6.7.05,1.01-.13h0Z"/>
            <path class="cls-4" d="M121.32,137.58v-.04c-.11.38-.21.77-.31,1.15l.05-.06.18-.23.12-.27.04-.31c0-.16-.03-.31-.1-.44-.03-.1-.08-.18-.15-.25-.05-.09-.12-.16-.21-.21-.07-.07-.16-.12-.25-.15-.14-.07-.28-.11-.44-.1h-.07c.28.12.56.23.84.35-.05-.06-.11-.11-.18-.15-.13-.12-.29-.2-.46-.24-.18-.06-.36-.06-.54-.02-.18,0-.35.06-.51.16l-.28.21c-.13.12-.23.27-.28.44-.09.16-.12.34-.12.52,0,.19.03.36.12.52.05.17.15.31.28.44l.28.21c.16.1.32.15.51.16.18.04.36.03.54-.02l.32-.14c.2-.12.37-.28.49-.49l.14-.32c.06-.24.06-.48,0-.72h0Z"/>
            <path class="cls-4" d="M126.71,137.83c1.71,0,1.71-2.66,0-2.66s-1.71,2.66,0,2.66h0Z"/>
            <path class="cls-4" d="M149.92,134.73c-.03-.08-.06-.15-.1-.23-.05-.16-.14-.31-.27-.43-.09-.1-.19-.17-.3-.22l.45.45s-.02-.04-.03-.06c-.2-.37-.63-.6-1.05-.6s-.85.23-1.05.6c-.01.02-.02.04-.03.06l.45-.45c-.12.05-.22.13-.3.22-.13.12-.22.26-.27.43-.03.08-.07.15-.1.23-.06.24-.06.48,0,.72.06.23.18.43.35.6.26.24.59.4.96.4.19,0,.36-.03.52-.12.17-.05.31-.15.44-.28.17-.17.28-.37.35-.6.06-.24.06-.48,0-.72h0Z"/>
            <path class="cls-4" d="M156.55,129.45l-.08.05c-.41.26-.68.68-.68,1.18s.27.92.68,1.18l.08.05c.43.27,1.01.25,1.44,0,.43-.25.7-.73.7-1.23s-.27-.97-.7-1.23c-.43-.25-1.01-.27-1.44,0h0Z"/>
            <path class="cls-4" d="M153.16,139.51v.29c.03.11.05.23.06.34.04.17.12.31.23.43.16.2.4.41.66.46h.02c-.24-.18-.48-.36-.71-.55l.02.03c.23.35.59.58,1.01.58s.79-.23,1.01-.58l.02-.03-.71.55h.02c.1-.05.2-.09.3-.13.15-.08.27-.19.36-.33.18-.23.26-.48.27-.77v-.29c.03-.32-.14-.69-.36-.91s-.59-.39-.91-.38-.68.12-.91.38c-.22.24-.4.57-.38.91h0Z"/>
            <path class="cls-4" d="M157.98,149.11c1.21,0,1.21-1.88,0-1.88s-1.21,1.88,0,1.88h0Z"/>
            <path class="cls-4" d="M158.96,170.68l-.03-.03c-.12-.13-.27-.22-.43-.28-.16-.08-.33-.12-.52-.12l-.36.05c-.23.06-.42.18-.59.35l-.03.03-.22.28-.14.33c-.06.18-.07.37-.02.55,0,.13.03.24.09.35.03.12.09.22.18.31.06.1.15.19.25.25.09.09.19.15.31.18.17.09.34.13.54.12l.37-.05.33-.14.28-.22.22-.28.14-.33c.06-.18.07-.37.02-.55,0-.13-.03-.24-.09-.35-.06-.17-.15-.32-.29-.45h0Z"/>
            <path class="cls-4" d="M161.16,178.8c1.46,0,1.46-2.27,0-2.27s-1.46,2.27,0,2.27h0Z"/>
            <path class="cls-4" d="M158.69,191.06c2.01,0,2.01-3.12,0-3.12s-2.01,3.12,0,3.12h0Z"/>
            <path class="cls-4" d="M127.83,186.14c0,.13.02.26.05.4.06.22.17.41.33.57.16.16.35.27.57.33.06.01.12.02.18.02.06.02.12.03.18.02,0,0,.02,0,.03,0,.12-.02.24-.03.36-.05.11-.05.22-.09.32-.14.16-.08.28-.2.38-.35.08-.08.14-.18.17-.3.06-.11.09-.22.09-.34.03-.12.03-.24,0-.36,0-.12-.03-.24-.09-.34-.05-.17-.15-.31-.28-.44l-.27-.21-.32-.14-.36-.05-.36.05-.32.14c-.16.08-.28.2-.38.35-.08.08-.14.18-.17.3-.08.16-.12.33-.12.52h0Z"/>
            <path class="cls-4" d="M124.81,195.94c.2.1.4.21.62.25l.34.05c.17,0,.34-.03.49-.11.11-.03.2-.08.28-.16.14-.09.25-.21.33-.36l.13-.3.05-.34c0-.17-.03-.34-.11-.49-.05-.16-.14-.29-.26-.41-.11-.11-.23-.22-.38-.3-.05-.03-.11-.05-.16-.08-.15-.1-.31-.15-.49-.15-.17-.04-.35-.03-.52.02-.17.04-.32.12-.44.23-.14.09-.25.21-.34.37-.16.3-.24.67-.13,1.01.1.31.3.63.6.78h0Z"/>
            <path class="cls-4" d="M133.78,193.96c1.65,0,1.65-2.56,0-2.56s-1.65,2.56,0,2.56h0Z"/>
            <path class="cls-4" d="M115.94,173.96c.2,0,.38-.03.55-.12.18-.06.33-.16.46-.29.14-.13.24-.28.29-.46.09-.17.13-.35.12-.55l-.05-.38c-.07-.24-.19-.45-.37-.63l-.29-.22c-.22-.13-.46-.19-.72-.19-.2,0-.38.03-.55.12-.18.06-.33.16-.46.29-.14.13-.24.28-.29.46-.09.17-.13.35-.12.55l.05.38c.07.24.19.45.37.63l.29.22c.22.13.46.19.72.19h0Z"/>
            <path class="cls-4" d="M113.68,178.37s0,.05,0,.08v.03c0,.16.03.32.1.46.07.17.1.26.26.4s.33.25.54.31c-.22-.17-.44-.34-.66-.51v.02c.19.33.58.54.95.54s.76-.2.94-.54v-.02c-.21.17-.43.34-.65.51.06-.02.11-.04.16-.07.15-.05.27-.13.38-.24l.18-.24c.03-.05.05-.11.07-.16.05-.09.08-.19.08-.3.01-.06.02-.12.02-.19,0-.03,0-.05,0-.08,0-.16-.03-.32-.1-.46-.05-.15-.13-.28-.25-.39-.11-.12-.24-.2-.39-.25-.14-.07-.3-.11-.46-.1-.31.01-.63.12-.85.35s-.37.53-.35.85h0Z"/>
            <path class="cls-4" d="M77.99,157.89c-.11-.04-.22-.07-.33-.09-.26-.05-.5-.06-.76,0-.14.03-.29.1-.42.17.22-.06.45-.12.67-.18-.25.03-.5.04-.72.19-.18.12-.39.29-.48.49l1.01-.58c-.25.03-.45.05-.67.18-.41.26-.62.75-.5,1.22.07.24.18.4.34.59-.1-.38-.2-.76-.3-1.14h0c-.17.46.05.95.34,1.28l.04.05-.34-.59c.06.14.11.29.19.41.14.22.31.39.54.53.19.12.4.2.62.29.33.13.83.03,1.13-.15s.59-.52.67-.87c.09-.37.07-.79-.15-1.13l-.23-.3c-.18-.18-.4-.31-.64-.38h0Z"/>
            <path class="cls-4" d="M71.07,158.5c1.48,0,1.48-2.3,0-2.3s-1.48,2.3,0,2.3h0Z"/>
            <path class="cls-4" d="M68.66,165.12s0,.08,0,.12c0,.16.03.31.1.45.05.14.13.27.24.37.11.11.23.19.37.24.14.07.29.11.45.1l.31-.04c.2-.06.37-.16.51-.3l.18-.24c.11-.18.16-.38.16-.59,0-.04,0-.08,0-.12,0-.16-.03-.31-.1-.45-.05-.15-.13-.27-.24-.38-.11-.11-.23-.2-.38-.24-.14-.07-.29-.11-.45-.1l-.31.04c-.2.06-.37.16-.52.3l-.18.24c-.11.18-.16.38-.16.59h0Z"/>
            <path class="cls-4" d="M84.67,183.24c1.72,0,1.72-2.67,0-2.67s-1.72,2.67,0,2.67h0Z"/>
            <path class="cls-4" d="M102.54,157.42c-.06.01-.12.02-.18.04-.24.06-.39.17-.57.33l.23-.18-.04.02.26-.11-.05.02c-.23.08-.41.19-.57.39-.14.18-.24.42-.23.66,0,.19.06.38.15.55.13.25.39.41.65.5l.05.02-.26-.11.04.02-.23-.18c.18.16.33.27.57.33.06.01.12.03.18.04.42.09.88.02,1.18-.31.22-.24.36-.53.36-.86,0-.31-.14-.64-.36-.86-.32-.32-.75-.4-1.18-.31h0Z"/>
            <path class="cls-4" d="M97.05,163.6l.12-.21.08-.18c.03-.1.04-.2.01-.31,0-.07-.02-.13-.05-.19-.03-.1-.08-.18-.16-.25l-.16-.12-.18-.08c-.1-.03-.2-.04-.31-.01-.1,0-.2.04-.29.09l-.21.12c-.25.14-.43.44-.42.73l.03.22c.04.14.11.27.22.37.08.08.17.14.27.17.1.05.21.08.32.07.29,0,.58-.16.73-.42h0Z"/>
            <path class="cls-4" d="M97.92,172.04c.2,0,.38-.03.56-.12.18-.06.33-.16.47-.3.14-.13.24-.29.3-.47.09-.17.13-.36.12-.56l-.05-.38c-.07-.24-.19-.46-.37-.64l-.29-.23c-.23-.13-.47-.2-.73-.2-.2,0-.38.03-.56.12-.18.06-.33.16-.47.3-.14.13-.24.29-.3.47-.09.17-.13.36-.12.56l.05.38c.07.24.19.46.37.64l.29.23c.23.13.47.2.73.2h0Z"/>
          </g>
          <path class="cls-2" d="M145.98,177.93l.05-.08c.24-.39.24-.92,0-1.31l-.05-.08c-.09-.17-.22-.3-.37-.41-.09-.09-.2-.15-.32-.19-.17-.09-.36-.13-.56-.12l-.39.05-.35.15c-.17.09-.3.22-.41.37-.09.09-.15.2-.19.32-.09.17-.13.36-.12.56l.05.39.15.35c.09.17.22.3.37.41.09.09.2.15.32.19.17.09.36.13.56.12l.39-.05.35-.15c.22-.13.39-.3.52-.52h0Z"/>
          <path class="cls-2" d="M148.51,189.94c.2-.03.42-.03.62-.08.43-.12.76-.42.96-.82.13-.22.19-.45.19-.7,0-.19-.03-.37-.12-.53-.06-.17-.15-.32-.29-.45-.17-.17-.38-.29-.61-.36-.03,0-.07-.01-.1-.02-.14-.02-.28-.04-.42-.06-.27,0-.52.07-.75.2-.19.11-.32.25-.46.4l-.22.29-.14.34-.05.37c0,.19.03.38.12.54.03.12.09.22.18.31.06.11.15.19.25.25.09.09.19.15.31.18.17.09.35.13.54.12h0Z"/>
          <path class="cls-2" d="M99.27,179.37c1.89,0,1.9-2.94,0-2.94s-1.9,2.94,0,2.94h0Z"/>
          <path class="cls-2" d="M139.82,136.28s-.01,0-.02,0c-.29.05-.39.16-.59.31-.13.08-.23.18-.31.31-.11.11-.18.23-.22.38-.08.13-.12.28-.12.44-.04.15-.04.31,0,.46,0,.16.04.3.12.44.04.15.12.27.22.38.08.13.18.23.31.31.11.11.23.18.38.22.13.08.28.12.44.12.23.05.46.04.69-.03l.41-.17.35-.27.27-.35.17-.41.06-.46-.06-.46-.17-.41-.27-.35-.35-.27-.41-.17s0,0-.01,0c0,0,0,0,0,0-.07-.01-.15-.02-.22-.03-.22-.05-.44-.04-.65.03h0Z"/>
        </g>
        <g>
          <path class="cls-4" d="M84.64,75.66c-.12.15-.33.26-.65.33-.31.08-.63,0-.96-.25-.24-.18-.52-.36-.85-.56-.33-.19-.68-.38-1.07-.56-.39-.18-.77-.33-1.16-.45-.39-.12-.76-.18-1.11-.18-.45,0-.91.1-1.4.31s-.91.51-1.27.89c-.68.74-.93,1.46-.74,2.16.19.7.71,1.35,1.54,1.94.54.39,1.11.78,1.74,1.18s1.24.8,1.85,1.18c.61.39,1.19.76,1.74,1.11.55.36,1.03.67,1.45.94.54.36,1.04.74,1.52,1.16.48.42.89.89,1.25,1.41.36.52.64,1.11.85,1.76.21.65.31,1.4.31,2.23-.21,1.63-.85,2.94-1.94,3.9-1.09.97-2.34,1.58-3.77,1.85-1.25.24-2.48.19-3.68-.13s-2.22-.95-3.05-1.87c-.21-.24-.39-.56-.54-.98-.15-.42-.16-.71-.04-.89.18-.27.49-.45.94-.56.45-.1.79-.08,1.03.07.68.62,1.49,1.08,2.41,1.36.92.28,1.89.31,2.9.07.77-.18,1.4-.51,1.87-1,.48-.49.77-1.05.89-1.67.15-.65.07-1.33-.25-2.03-.31-.7-.87-1.33-1.67-1.9-1.22-.92-2.52-1.78-3.9-2.59-1.38-.8-2.79-1.72-4.21-2.76-.68-.59-1.18-1.25-1.49-1.96-.31-.71-.47-1.41-.47-2.1s.15-1.39.45-2.03c.3-.64.71-1.22,1.25-1.74.54-.52,1.16-.94,1.87-1.27s1.5-.52,2.36-.58c1.19-.06,2.33.19,3.43.74,1.1.55,1.99,1.23,2.68,2.03.15.18.22.4.2.67-.02.27-.11.52-.29.76Z"/>
          <path class="cls-4" d="M105.91,77.94c.12.54.24,1.17.36,1.9.12.73.2,1.49.25,2.27.04.79.05,1.6.02,2.43-.03.83-.12,1.64-.27,2.41-.18.89-.54,1.71-1.07,2.45s-1.19,1.41-1.96,2.01c-.74.6-1.57,1.08-2.48,1.45-.91.37-1.81.64-2.72.8-.91.16-1.8.19-2.68.09-.88-.1-1.66-.35-2.34-.74-.77-.45-1.4-1.03-1.87-1.74-.48-.71-.68-1.59-.62-2.63.06-1.01.15-1.94.27-2.79.12-.85.27-1.66.47-2.43.19-.77.41-1.55.65-2.34.24-.79.49-1.61.76-2.47.15-.39.42-.61.8-.67.15-.03.33-.03.54,0,.09,0,.21.05.38.16.16.1.32.25.47.42.15.18.27.39.38.62.1.24.11.51.02.8-.27.95-.54,1.92-.8,2.9-.27.98-.5,1.92-.69,2.81-.19.89-.31,1.69-.36,2.39-.04.7.02,1.24.2,1.63.39.56.91.93,1.58,1.09.67.16,1.37.19,2.12.07.74-.12,1.46-.32,2.16-.6.7-.28,1.3-.59,1.81-.91.8-.54,1.39-1.2,1.76-2.01.37-.8.6-1.68.69-2.63.09-.95.08-1.95-.02-2.99-.1-1.04-.25-2.07-.42-3.08-.06-.27-.04-.61.04-1.03.09-.42.33-.74.71-.98.42-.24.79-.21,1.14.09.34.3.59.71.74,1.25Z"/>
          <path class="cls-4" d="M117.64,82.89c-.15,0-.33-.02-.56-.07-.22-.04-.43-.12-.62-.22-.19-.1-.36-.24-.51-.4-.15-.16-.22-.33-.22-.51,0-.24.14-.53.42-.87.28-.34.75-.6,1.4-.78.89-.21,1.83-.33,2.81-.38.98-.04,1.96-.04,2.94,0s1.95.1,2.9.18c.95.07,1.84.13,2.68.16.48,0,.79.09.94.27.15.18.22.39.22.62,0,.54-.24.95-.71,1.25-.48.3-.95.43-1.43.4-.51-.03-1.03-.04-1.58-.04h-1.72c0,.83.04,1.76.11,2.79.07,1.03.16,2.06.25,3.1.09,1.04.19,2.04.29,2.99.1.95.2,1.75.29,2.41.06.24,0,.45-.16.65-.16.19-.41.29-.74.29-.62,0-1.09-.39-1.38-1.16-.56-1.46-.97-3.12-1.2-4.99-1.61.98-3.18,1.59-4.73,1.83-1.55.24-2.94.19-4.17-.16-1.23-.34-2.23-.94-2.99-1.78-.76-.85-1.14-1.88-1.14-3.1s.21-2.41.62-3.75c.42-1.34,1.01-2.63,1.78-3.88.77-1.25,1.69-2.39,2.74-3.41,1.06-1.03,2.24-1.81,3.55-2.34.45-.12.87-.14,1.27-.07.4.08.77.22,1.11.45.34.22.65.49.94.8.28.31.53.62.74.91.15.21.24.43.27.67.03.24-.06.46-.27.67-.45.33-.83.3-1.16-.09-.51-.62-.93-1-1.27-1.14-.34-.13-.81,0-1.4.38-.6.42-1.25,1.05-1.96,1.9-.71.85-1.38,1.78-1.98,2.81-.61,1.03-1.09,2.08-1.45,3.17-.36,1.09-.48,2.09-.36,3.01.09.8.54,1.38,1.34,1.72.8.34,1.72.5,2.74.47,1.03-.03,2.05-.22,3.08-.58,1.03-.36,1.82-.83,2.39-1.43-.03-.5-.06-1.02-.09-1.54-.03-.52-.04-1.03-.04-1.54-.65.06-1.31.11-1.96.16-.65.04-1.32.11-2.01.2Z"/>
          <path class="cls-4" d="M134.27,94.7c-.15.51-.34.96-.58,1.36-.24.4-.49.63-.76.69-.56.15-1,.06-1.29-.27-.3-.33-.42-.74-.36-1.25.24-1.78.62-3.66,1.16-5.64.54-1.98,1.16-3.95,1.87-5.93.71-1.98,1.49-3.89,2.34-5.75.85-1.86,1.72-3.54,2.61-5.06.15-.24.32-.38.51-.42.19-.04.36-.04.51.02.15-.12.33-.22.54-.31.21-.09.42-.13.62-.13.09,0,.19.02.29.04.1.03.22.12.33.27.12.15.26.36.42.65.16.28.36.69.6,1.23.42,1.52.9,3.08,1.45,4.68.55,1.61,1.12,3.21,1.72,4.82.09-.03.17-.05.25-.07.07-.01.16-.04.25-.07.33-.03.7-.01,1.11.04.42.06.7.27.85.62.18.45.15.83-.09,1.16-.24.33-.67.65-1.29.98.39.95.77,1.88,1.16,2.79.39.91.79,1.79,1.2,2.65.03.15.07.38.13.69.06.31.1.62.11.94.01.31,0,.6-.07.87-.06.27-.18.45-.36.54-.21.09-.42.07-.65-.04-.22-.12-.44-.27-.65-.47-.21-.19-.39-.4-.56-.62-.16-.22-.29-.42-.38-.6-.51-.98-.99-1.97-1.45-2.97-.46-1-.9-2-1.32-3.01-1.25.24-2.61.45-4.08.62s-2.92.3-4.35.36c-.33,1.13-.65,2.24-.96,3.32-.31,1.09-.6,2.18-.87,3.28ZM140.61,75.97c-1.37,3.06-2.56,6.12-3.57,9.19,1.99-.06,4.12-.31,6.38-.76-1.07-2.71-2.01-5.51-2.81-8.43Z"/>
          <path class="cls-4" d="M155.95,93.94c-.09-1.1-.16-2.35-.2-3.75-.04-1.4-.07-2.83-.07-4.3s0-2.92.02-4.35c.01-1.43.05-2.72.11-3.88,0-.3.14-.53.42-.69.28-.16.51-.23.69-.2.54.06.9.25,1.09.56.19.31.32.75.38,1.32-.03.95-.05,1.9-.07,2.85-.02.95,0,1.9.02,2.85,1.34-.24,2.46-.73,3.37-1.47.91-.74,1.55-1.59,1.94-2.54.15-.36.26-.79.33-1.29.07-.5.08-1.02.02-1.54-.06-.52-.2-1.01-.42-1.47-.22-.46-.56-.83-1-1.09-.65-.39-1.37-.59-2.14-.62-.77-.03-1.57.08-2.39.33-.82.25-1.62.65-2.41,1.18-.79.54-1.52,1.17-2.21,1.92.09.45.03.84-.18,1.18-.21.34-.51.59-.89.74-.24.06-.52-.07-.85-.38-.33-.31-.49-.63-.49-.96,0-1.19.33-2.22,1-3.1s1.51-1.61,2.52-2.21c1.01-.59,2.1-1.04,3.26-1.34,1.16-.3,2.23-.45,3.21-.45,1.46,0,2.68.42,3.66,1.27.98.85,1.65,1.91,2.01,3.19.62,2.23.47,4.24-.47,6.02-.94,1.78-2.46,3.33-4.57,4.64,1.55.95,2.99,1.86,4.35,2.72,1.35.86,2.71,1.8,4.08,2.81.18.18.38.44.6.78.22.34.19.85-.11,1.54-.18.42-.48.65-.91.69-.43.04-.85-.08-1.27-.38-.65-.54-1.39-1.09-2.21-1.67-.82-.58-1.67-1.16-2.56-1.74-.89-.58-1.78-1.14-2.68-1.7-.89-.55-1.74-1.06-2.54-1.54.03,1.19.05,2.37.07,3.54.01,1.17.05,2.33.11,3.46,0,.42-.12.71-.36.87-.24.16-.54.25-.89.25-.18-.03-.34-.13-.49-.29-.15-.16-.29-.36-.42-.58-.13-.22-.25-.45-.33-.67-.09-.22-.13-.39-.13-.51Z"/>
        </g>
      </g>
    </g>
  </g>
</svg>