<?xml version="1.0" encoding="UTF-8"?>
<svg id="Capa_2" data-name="Capa 2" xmlns="http://www.w3.org/2000/svg" viewBox="0 0 200 200">
  <defs>
    <style>
      .cls-1 {
        fill: #80dce8;
      }

      .cls-1, .cls-2, .cls-3 {
        stroke-width: 0px;
      }

      .cls-2 {
        fill: none;
      }

      .cls-3 {
        fill: #593737;
      }
    </style>
  </defs>
  <g id="colorful_icons" data-name="colorful icons">
    <g>
      <g>
        <path class="cls-1" d="m176.03,85.83c-3.43-6.58-7.2-10.4-7.2-10.4,0,0-31.66.48-46.53,1.48-14.87,1-40.04.19-53.2,4.45-16.32,5.29-34.19,22.2-41.2,44.79-4.16,13.41-5.73,27.43-6.36,41.4,0,.14-.01.29-.02.44,1.56-.09,3.14-.05,4.68-.08,2.76-.05,5.51-.02,8.27-.03,5.33,0,10.66,0,15.99,0,3.14,0,6.29,0,9.43,0-.52-5.45-2.8-16.82-4.33-28.12-2.41-17.8,2.04-34.11,7.6-43.75,4.04-7,9.22-9.96,9.22-9.96,0,0,21.72,5.07,25.44,7.65,3.72,2.57,8.87,9.87,10.44,16.3,1.57,6.43,16.01,24.17,27.17,24.31,11.15.14,21.31-7.29,31.31-20.02,10.01-12.73,12.73-21.88,9.29-28.45Z"/>
        <path class="cls-3" d="m177.09,81.33c-2.87-5.25-7.77-8.81-13.03-11.68.94-5.82,1.02-11.83-.55-16.12-1.69-4.64-4.69-8.57-8.26-11.93-3.54-3.33-7.68-7.13-12.28-8.86-3.59-1.34-7.48-1.62-11.21-.73-4.44,1.06-9.22,3.87-11.91,7.84,0-.02-.02-.04-.03-.06-.49-1.16-.91-2.34-1.38-3.5-.62-1.53-1.36-4.24-3.52-2.97-1.99,1.17-3.41,3-4.9,4.71-3.23,3.7-6.31,7.52-9.44,11.31-.86,1.06-1.72,2.11-2.58,3.17-.31.33-.61.68-.9,1.02-4.11,4.8-7.98,9.8-12.04,14.64-2.37,2.82-12.5,15.71-12.87,16.3-.87,1.36-1.33,3.15.38,4.1.84.46,1.84.55,2.76.72,1.18.23,2.37.42,3.57.61,2.29.37,4.59.73,6.85,1.29,3.51.87,7.03,2.12,10.19,3.95,1.61.93,3.14,2.01,4.53,3.26,1.46,1.32,1.98,3.21,2.59,5.04.31.94.6,1.89.89,2.84,1.16,3.74,2.9,7.4,4.99,10.71,3.34,5.28,7.62,9.89,12.85,13.2,3.52,2.57,7.51,4.46,11.89,5.34,8.42,1.7,16.24-.56,22.9-5.89,3.74-2.99,6.99-6.53,9.98-10.25,2.05-2.56,4.41-5.31,6.07-8.32,6.92-8.13,9.54-20.5,4.48-29.74Zm-45.44-46.1c5.79-.95,12.14,1.93,16.54,5.35,4.6,3.57,10.14,7.89,12.05,13.44,2.31,6.7,1.03,12.39,1.02,13.72-1.34-.82-3.62-2.19-5.06-2.88,0,0,0,0,0,0,.57-2.62.99-5.34.46-8-1.06-5.37-5.88-9.44-10.11-12.46-4.35-3.1-9.18-5.46-14.59-3.85-3.49,1.04-6.57,3.42-8.88,6.37-.65-1.38-1.59-3.38-2.23-4.77,3.07-3.12,6.17-6.17,10.8-6.93Zm22.01,28.34c-2.84-1.12-6.05-1.89-9.05-2.47-3.74-.73-7.54-.81-11.19-1.92-.14-.06-.28-.12-.42-.18-3.59-1.65-6.46-5.99-8.35-9.33,1.46-1.62,2.84-3.31,4.79-4.46,3.16-1.86,6.46-1.91,9.8-.54,3.2,1.32,6.85,4.54,9.6,6.63,1,.76,1.97,1.56,2.82,2.48.9,1.28,1.6,2.68,1.97,4.28.44,1.88.33,3.7.02,5.51Zm19.78,35.37c-.13.34-.26.68-.4,1.01-2.04,4.93-5.08,9.39-8.34,13.61-3.97,5.13-8.32,9.99-13.31,14.14-3.73,3.1-9.66,5.27-14.5,5.02-3.42-.18-6.95-1.5-9.82-3.38-5.62-3.7-11.56-8.58-15.21-14.23-4.08-6.3-3.36-12.44-7.42-17.43-4.29-5.27-11.46-7.65-17.96-9.27-1.9-.47-3.83-.83-5.78-1.09-1.93-.26-4.7-.89-6.6-1.22.53-.88,14.72-17.78,17.53-21.18,5.62-6.79,23.81-28.76,23.74-29.1,1.48,7.58,5.61,15.53,10.52,21.5,1.92,2.33,3.61,4.39,6.53,5.23,3.52,1.02,8.27,1.36,11.49,1.95,8.64,1.57,15.85,5.89,22.62,11.49,3.62,3,7.31,8.72,8.16,13.35.59,3.22-.11,6.52-1.26,9.6Z"/>
      </g>
      <rect class="cls-2" width="200" height="200"/>
    </g>
  </g>
</svg>