<?xml version="1.0" encoding="UTF-8"?>
<svg id="Capa_2" xmlns="http://www.w3.org/2000/svg" viewBox="0 0 243.3 243.3">
  <defs>
    <style>
      .cls-1 {
        fill: #fff;
      }

      .cls-2 {
        fill: none;
      }

      .cls-3 {
        fill: #e09d3e;
      }

      .cls-4 {
        fill: #fad380;
      }

      .cls-5 {
        fill: #4f3535;
      }
    </style>
  </defs>
  <g id="grocery_icons">
    <g>
      <rect class="cls-2" width="243.3" height="243.3"/>
      <g>
        <g>
          <path class="cls-3" d="M223.76,193.59c-1.86-7.56-3.94-15.06-5.88-22.59-5.05-19.57-7.46-39.57-8.44-59.73-1.04-21.44-1.02-42.94-3.35-64.29-.25-2.27-3.51-2.53-3.88-.52-20.08.41-135.41,2.65-136.64,2.56-3.9,38.09-1.18,76.59-9.68,114.2-1.89,8.35-4.25,16.59-6.39,24.88-1.49,5.78-4.89,13.42.85,17.85,5.87,4.53,14.97,5.81,22.12,6.59,8.97.98,17.98.38,26.98.3,3.83-.03,7.67-.03,11.5-.02,11.25.97,22.73.72,34.16.4,5.07.05,10.15,0,15.16-.37,1.77-.03,3.55-.04,5.31-.04,16.87,0,35.02,2.31,51.03-4.32,2.85-1.18,6.07-2.54,7.48-5.49,1.44-3,.43-6.38-.32-9.42Z"/>
          <path class="cls-3" d="M199.5,18.75c-12.87-.13-25.73-.35-38.59-.4-26.5-.1-53.23-.95-79.49,3.32-5.52.9-11.13.79-16.28,3.26-5.23,2.5-3.48,7.57-.48,11.03-3.46,4.58-8.1,13-.61,14.66,5.15,1.14,10.88.09,16.04-.41,6.8-.66,13.62-1.17,20.44-1.54,25.38-1.38,50.81-.86,76.21-.53,6.52.08,13.04.15,19.56.13,3.6-.01,9.63,1.15,12.56-1.81,2.96-2.99-1.29-6.39.82-9.56,2.39-3.58,7.04-4.81,7.61-9.68,1.11-9.48-12.07-8.42-17.78-8.47Z"/>
          <path class="cls-5" d="M78.27,37.68c8.59-.71,17.19-1.4,25.79-1.97,7.92-.53,16.57.06,24.3-1.76,1.27-.3,1.39-2.48,0-2.69-7.79-1.22-16.46.16-24.3.66-8.62.55-17.21,1.28-25.79,2.23-2.21.24-2.29,3.72,0,3.53h0Z"/>
          <path class="cls-5" d="M146.93,34.7c2.43.03,4.99.28,7.4-.05,1.3-.18,1.3-2.44,0-2.62-2.41-.33-4.97-.08-7.4-.05-1.75.02-1.75,2.69,0,2.72h0Z"/>
          <path class="cls-5" d="M167.17,36.1c3.52.13,7.57.7,11-.29,1.57-.45,1.57-2.72,0-3.18-3.43-.99-7.48-.42-11-.29-2.42.09-2.42,3.67,0,3.76h0Z"/>
          <g>
            <path class="cls-4" d="M138.13,112.44c-.23.07-.46.13-.69.2-1.36.39-1.16,2.66.35,2.55,12.94-.98,23.24-12.55,25.39-24.81.19-1.09-.85-2.02-1.89-1.45-9.66,5.3-17.7,12.85-23.34,22.33-.28.47-.13.9.18,1.18Z"/>
            <path class="cls-4" d="M135.92,121.2c1.85.33,2.66-2.5.79-2.85-.05,0-.11-.03-.16-.04.45-.17.82-.62.7-1.16-2.62-11.71-12.55-19.85-22.77-25.04-.84-.42-2.26.07-2.11,1.21.78,6.12,3.49,11.43,7.57,16.02,3.83,4.32,10.12,10.8,15.98,11.85Z"/>
            <path class="cls-4" d="M135.71,139.25c.2.38.4.76.6,1.15.51.98,1.93.28,1.72-.72-.03-.14-.08-.27-.11-.41.87-.28,1.06-1.38.57-2.06.03-.03.07-.05.1-.08.13.65.72,1.26,1.57,1.11,12.18-2.2,21.93-11.59,24.82-23.59.21-.89-.6-1.84-1.54-1.54-5.9,1.89-10.94,5.22-15.59,9.26-4.16,3.61-9.68,7.92-10.96,13.55-3.81-9.68-13.75-16.94-23.34-19.7-.97-.28-1.96.67-1.65,1.65,3.4,11.04,11.98,20.43,23.82,21.38Z"/>
            <path class="cls-4" d="M165.92,131.5c-11.55,5.97-22.61,15.51-28.44,27.33-.07.14-.1.28-.12.41-4.91-11.41-18.32-18.19-29.73-20.87-1.25-.29-2.39,1.33-1.32,2.27,2.65,2.35,3.82,5.73,5.94,8.51,1.71,2.24,3.76,4.16,6.01,5.84,5.59,4.18,12.19,6.49,18.82,8.44.81.24,1.4-.21,1.65-.81.1,0,.2,0,.31-.03,14.71-2.89,24.38-16.33,28.5-29.85.29-.96-.8-1.67-1.62-1.24ZM138.07,160.3c-.08.05-.15.1-.21.16-.04-.12-.08-.24-.13-.36.1.09.22.16.34.2Z"/>
          </g>
          <path class="cls-5" d="M206.58,50.65c-.09-1.15-.12-1.6-.12-2.75-10.29.57-26.74-.68-33-.88-12.36-.39-24.64-1.33-37.01-1.39-11.7-.05-23.47.23-35.08,1.83-12.04,1.66-23.63,4.05-35.82,3.23-.12,0-.24,0-.35,0-.04.75-.14,1.5-.14,2.21,0,.37,0,.74,0,1.11.1.03.2.06.31.07,12.05,1.82,23.81-.78,35.72-2.3,13.54-1.73,27.33-1.69,40.95-1.36,13.63.32,27.25,1.16,40.88,1.43,6.47.13,12.97.22,19.44-.01,1.45-.05,2.92-.1,4.3-.37-.03-.28-.05-.56-.07-.83Z"/>
          <path class="cls-5" d="M138.92,163.31c-.05-8.17-.16-16.33-.21-24.5-.1-13.99-.21-27.98-.33-41.98-.04.06-.07.12-.11.18-.6.79-1.48,1.21-2.44.8-.04-.02-.08-.05-.12-.07-.05,13.69-.1,27.37-.13,41.06-.02,8.16-.09,16.33-.1,24.5,0,4.08-.01,8.16-.02,12.25,0,4.14-.48,8.56.55,12.59.31,1.24,2.21,1.25,2.51,0,.94-3.78.52-7.85.5-11.72-.03-4.37-.05-8.75-.08-13.12Z"/>
          <path class="cls-4" d="M138.05,102.43s-.03-.09-.05-.14c4.11-11.64,7.36-24.7,1.23-36.21-.46-.86-1.71-.79-2.19,0-6.4,10.64-8.32,26.39-1.18,37.28.7,1.07,2.69.41,2.19-.92Z"/>
          <path class="cls-1" d="M188.74,195.38c2.78.35,5.86.63,8.32-.99,1.2-.79,1.51-2.9,0-3.61-2.4-1.14-4.94-.99-7.51-1.36-1.8-.26-3.53.55-3.79,2.53-.27,1.97,1.17,3.22,2.99,3.44h0Z"/>
          <path class="cls-1" d="M192.71,178.64c.92.67,2.1.71,3.2.81,1.13.1,2.3.18,3.41-.11,2.67-.68,2.83-4.98,0-5.56-2.41-.5-5.75.19-7.3,2.21-.68.89-.06,2.1.7,2.65h0Z"/>
          <path class="cls-1" d="M79.54,77.21c1.12-.19,2.15-.5,3.03-1.27,1.02-.89.84-3-.46-3.57-.55-.25-.89-.38-1.5-.43-.18-.01-.35-.02-.53-.03-.42-.02-.82.04-1.24.09-.74.09-1.32.27-1.88.78-.62.57-.84,1.43-.73,2.23.1.72.42,1.29,1,1.73.71.55,1.45.62,2.31.47h0Z"/>
          <path class="cls-1" d="M82.84,63.94c.83.17,1.73.16,2.48-.29.38-.23.72-.6.91-1,.24-.49.28-.71.34-1.24.05-.41-.23-.99-.52-1.26-.34-.31-.79-.55-1.26-.52-.06,0-.11,0-.17,0,.17.02.34.05.51.07-.1-.01-.18-.04-.27-.08.17.07.35.15.52.22-.45-.21-.7-.31-1.21-.33-.09,0-.17,0-.26-.02l.6.08c-.1-.02-.19-.05-.29-.08.18.08.37.16.55.23-.05-.02-.09-.04-.13-.07-1.22-.69-2.78-.18-3.32,1.12-.25.6-.25,1.2,0,1.81.27.63.82,1.21,1.52,1.36h0Z"/>
        </g>
        <g>
          <path class="cls-4" d="M116.36,208.81c-4.7-9.31-11.42-17.74-18.4-25.44-6.63-7.32-14.35-15.71-23.23-20.31-8.43-4.36-18.02-2.11-25.7,2.72-9.13,5.73-16.39,14.87-22.95,23.29-5.91,7.59-10.84,15.61-16.14,23.58-4.13,6.2-.65,10.83,5.61,12.88,10.25,3.35,21,5.19,31.74,6.06,11.24.9,22.58.49,33.79-.58,9.45-.9,20.56-1.53,29.32-5.42,7.31-3.25,9.59-9.6,5.96-16.77Z"/>
          <path class="cls-5" d="M43.5,180.03c-1.4,1.96-3.41,4.67-2.05,7.14.34.62,1.2.99,1.88.77,2.4-.79,3.03-3.59,4.11-5.6,1.42-2.63-2.26-4.67-3.95-2.31h0Z"/>
          <path class="cls-5" d="M60.9,181.36c.03.41.06.83.09,1.24.06.74.19,1.37.56,2.03.44.79,1.37,1.19,2.24,1.08.94-.13,1.55-.75,1.87-1.61.33-.88.18-1.82.11-2.73-.1-1.27-1.05-2.5-2.44-2.44-1.24.06-2.54,1.08-2.44,2.44h0Z"/>
          <path class="cls-5" d="M69.86,198.75c.07.08.15.15.22.23,0,.01.32.4.14.16-.16-.22.05.08.07.12.14.2.29.42.46.6.13.15.27.29.4.44-.24-.27.1.15.24.27.14.13.31.24.46.36.59.44,1.68.13,1.99-.52.68-1.45.21-2.98-.54-4.31-.65-1.14-2.2-1.4-3.22-.61-1.04.8-1.14,2.32-.22,3.27h0Z"/>
          <path class="cls-1" d="M75.41,184.31c.2.27.4.55.58.83.03.05.21.44.25.45l-.17-.4c.06.24.15.47.26.69.55,1.31,1.4,2.34,2.84,2.74-.63-.48-1.25-.96-1.88-1.44.32.45-.18-.6.06.11.34,1,1.18,1.7,2.26,1.72s1.89-.5,2.61-1.19c-.46.27-.92.54-1.39.81,2.52-.78,3.48-3.72,2.21-5.97-.71-1.26-1.94-2.11-3.15-2.84-1.21-.72-3.02-.54-3.99.51-.92,1-1.4,2.79-.51,3.99h0Z"/>
          <path class="cls-1" d="M46.08,208.26c.06.44.12.88.17,1.32.07.52.16.94.55,1.33.33.33.86.57,1.33.55.49-.02.99-.18,1.33-.55.1-.13.2-.25.29-.38.17-.29.26-.61.26-.95.06-.44.12-.88.17-1.32.06-.48-.28-1.13-.6-1.45-.36-.36-.94-.62-1.45-.6s-1.08.2-1.45.6c-.34.37-.67.93-.6,1.45h0Z"/>
          <path class="cls-1" d="M25.7,205.32c0,.32,0,.62-.03.94-.01.15-.13.5-.07.64.08-.55.09-.66.03-.35-.03.15-.07.31-.11.46-.06.26-.11.52-.17.78-.59,2.72.97,5.81,4.06,5.79,1.54-.01,3.08-.95,3.86-2.28.52-.89.74-2.11.8-3.13.1-1.69-.43-3.31-1.2-4.79-1.78-3.43-7.23-1.78-7.18,1.94h0Z"/>
          <path class="cls-1" d="M81.55,214.48c1.64,1.06,3.57,2.75,5.62,2.61,2.82-.19,4.32-2.87,3.09-5.39-.89-1.82-3.31-2.66-5.02-3.54-1.7-.87-4.05-.5-5.01,1.31-.96,1.82-.4,3.89,1.31,5.01h0Z"/>
        </g>
      </g>
    </g>
  </g>
</svg>