<?xml version="1.0" encoding="UTF-8"?>
<svg id="Capa_2" data-name="Capa 2" xmlns="http://www.w3.org/2000/svg" viewBox="0 0 200 200">
  <defs>
    <style>
      .cls-1 {
        fill: none;
      }

      .cls-1, .cls-2, .cls-3, .cls-4, .cls-5, .cls-6 {
        stroke-width: 0px;
      }

      .cls-2 {
        fill: #fff;
      }

      .cls-3 {
        fill: #593737;
      }

      .cls-4 {
        fill: #99ca93;
      }

      .cls-5 {
        fill: #8b7373;
      }

      .cls-6 {
        fill: #bdafaf;
      }
    </style>
  </defs>
  <g id="colorful_icons" data-name="colorful icons">
    <g>
      <g>
        <path class="cls-4" d="m73.98,92.08s-14.05.04-32.36,17.76c-18.31,17.72-20.49,46.79-21.08,55.36s0,13.29,0,13.29h35.43s-7.39-28.63-3.25-50.18c4.13-21.56,19.01-29.24,21.73-29.32s-.47-6.89-.47-6.89Z"/>
        <path class="cls-5" d="m102.43,94.01s-7.89-2.1-17.87-2.63c-9.99-.53-12.35.18-12.35.18,0,0-4.21,2.72-3.68,7.1s3.94,4.47,9.99,5.7,16.13,4.21,24.01,8.15c8.06,4.03,14.54,8.76,14.54,8.76,0,0-10.51-23.83-14.63-27.25Z"/>
        <path class="cls-3" d="m72.07,91.09c-2.85,1.5-4.82,4.92-4.09,8.13.24,1.03.71,2.29,1.48,3.05.3.3.8.63,1.19.27.44-.41.05-1.12-.19-1.53-.99-1.75-1.42-3.46-.8-5.41.51-1.62,1.57-2.84,2.88-3.89.36-.29-.1-.81-.47-.61h0Z"/>
        <path class="cls-3" d="m70.01,102.68c12.34,2.17,24.64,6.53,35.67,12.43,1.77.94,3.51,1.94,5.21,2.99,1.56.96,3.06,2.13,4.83,2.65.6.18,1.31-.59.88-1.15-1.98-2.59-5.66-4.07-8.51-5.51-3.23-1.63-6.54-3.07-9.87-4.47-6.41-2.69-13.03-5-19.79-6.65-2.75-.67-5.46-1.16-8.3-1.18-.49,0-.63.8-.12.89h0Z"/>
        <path class="cls-5" d="m123.63,52.66s-8.06-10.16-2.8-22.61,20.15-12.62,26.64-5.43c6.48,7.18,7.89,16.82,7.01,25.58-.88,8.76-.53,10.86.35,11.74s.6-4.65,5.08-5.08c3.68-.35,6.23,2.51,5.26,6.48-1.05,4.29-5.96,4.91-8.41,5.08s-7.71-4.56-7.71-4.56c0,0,1.4-20.85-4.73-29.79-6.4-9.32-16.3-5.43-18.4,2.1-3.24,11.63,3.15,17.87,3.15,17.87l-5.43-1.4Z"/>
        <path class="cls-3" d="m127.33,51.92c-.5-4.69-1.87-9.15-.61-13.88.95-3.54,3.35-6.99,6.9-8.3,9.47-3.49,12.73,11.06,13.47,17.51.29,2.56.46,5.13.61,7.7s-.21,5.76.78,8.25c.29.73,1.27.78,1.54,0,.91-2.59.32-5.82.17-8.51s-.31-5.26-.62-7.87c-.55-4.65-1.55-9.43-4.04-13.47s-6.46-7.26-11.5-6.01c-4.07,1.01-7.11,4.37-8.66,8.14-2.09,5.1-1.55,11.88,1.17,16.64.19.34.83.22.78-.21h0Z"/>
        <path class="cls-3" d="m93.84,47.31c-.26,0-2.8-7.71-7.01-10.6-4.21-2.89-7.89.44-6.13,5.7,1.75,5.26,10.08,7.45,10.08,7.45l3.07-2.54Z"/>
        <path class="cls-6" d="m128.89,50.73c-21.2-10.69-28.91-11.04-36.97-4.56-8.06,6.48-9.11,16.65-2.63,30.14,6.48,13.49,32.07,54.85,36.8,59.05s14.02-1.93,28.91-15.25c14.89-13.32,23.93-30.87,25.41-34.35,2.98-7.01-23.68-21.01-51.52-35.05Z"/>
        <path class="cls-5" d="m91.92,46.17c-5.87,4.72-8,11.41-6.24,19.9,4.77,1.16,12.19,1.59,17.98-4.3,6.44-6.56,7.49-13.89,7.47-18.57-8.82-2.57-13.94-1.26-19.21,2.98Z"/>
        <path class="cls-2" d="m99.21,50.47c5.26-.17,10.35.87,15.21,2.86,2.37.97,4.61,2.18,6.81,3.5,1.13.68,2.25,1.34,3.39,1.99s2.28,1.32,3.61,1.28c1.23-.04,2-1.34,1.39-2.43-.68-1.23-1.94-1.88-3.14-2.54s-2.48-1.28-3.76-1.85c-2.52-1.12-5.08-2.22-7.69-3.13-5.15-1.79-10.7-2.78-16.12-1.82-1.21.22-.92,2.18.29,2.14h0Z"/>
        <path class="cls-2" d="m134.48,65.23c.48.24.96.5,1.47.67l.57.08c.29.01.57-.05.82-.18.18-.05.34-.14.47-.27.23-.15.42-.35.55-.6h0c-.56.31-1.12.63-1.68.95h.08c.34,0,.66-.09.96-.26.29-.17.51-.4.68-.68.17-.3.26-.62.26-.96,0-.34-.09-.66-.26-.96l-.04-.06.2,1.5v-.04c.04-.19.06-.38.09-.57.01-.29-.05-.57-.18-.82-.05-.18-.14-.34-.27-.47-.15-.23-.35-.42-.6-.55-.15-.1-.31-.18-.47-.26l-.48-.24c-.25-.16-.51-.24-.8-.26-.29-.06-.57-.05-.86.04-.28.07-.53.2-.73.39-.23.15-.42.35-.56.6l-.22.52c-.1.38-.1.76,0,1.15l.22.52c.19.32.45.58.77.77h0Z"/>
        <path class="cls-2" d="m74.8,99.23c.06-.19.12-.39.17-.59.06-.25.03-.49-.04-.73-.02-.07-.04-.14-.07-.21-.09-.21-.22-.31-.39-.44l.31.41-.21-.65c-.06-.2-.33-.29-.48-.13l-.45.48.3-.18c-.22.04-.4.16-.54.33-.16.18-.32.36-.36.6-.04.19-.06.39-.09.59-.04.13-.05.26-.02.38,0,.13.04.25.11.36.12.2.35.39.58.44.25.06.52.04.74-.1s.37-.33.44-.58h0Z"/>
        <path class="cls-2" d="m85.94,101.55l.02-.47c0-.06,0-.11-.04-.16-.02-.05-.04-.09-.08-.13-.08-.07-.18-.12-.29-.12l-.47.02-.23.03-.21.09c-.1.05-.18.13-.24.22-.05.05-.09.12-.11.19-.04.07-.06.14-.06.22-.02.08-.02.15,0,.23,0,.08.02.15.06.22.03.11.09.2.18.28l.17.13.21.09.23.03.23-.03.21-.09c.1-.05.18-.13.24-.22.05-.05.09-.12.11-.19.05-.1.08-.21.07-.33h0Z"/>
      </g>
      <rect class="cls-1" width="200" height="200"/>
    </g>
  </g>
</svg>