<?xml version="1.0" encoding="UTF-8"?>
<svg id="Capa_2" xmlns="http://www.w3.org/2000/svg" viewBox="0 0 243.3 243.3">
  <defs>
    <style>
      .cls-1 {
        fill: #fff;
      }

      .cls-2 {
        fill: #4286bd;
      }

      .cls-3 {
        fill: none;
      }

      .cls-4 {
        fill: #d2e2ef;
      }

      .cls-5 {
        fill: #4f3535;
      }

      .cls-6 {
        fill: #a1c2de;
      }
    </style>
  </defs>
  <g id="grocery_icons">
    <g>
      <rect class="cls-3" width="243.3" height="243.3"/>
      <g>
        <g>
          <g>
            <path class="cls-6" d="M143.35,31.13s-114.63,11.74-116.01,13.47.35,160.9,1.73,162.63c1.38,1.73,41.09,16.23,43.51,16.57,2.42.35,116.01-13.12,116.01-13.12,0,0,1.04-160.21.35-161.94-.69-1.73-45.58-17.61-45.58-17.61Z"/>
            <path class="cls-2" d="M61.17,33.2s.12,13.47.35,14.04,3.11,3.57,15.88,3.68c12.78.12,15.88-2.99,16.23-3.8.35-.81.12-14.73-.81-16-.92-1.27-4.37-4.95-17.61-4.72-13.24.23-14.16,5.98-14.04,6.79Z"/>
            <path class="cls-5" d="M62.6,34.77c4.84,2.06,10,3.06,15.25,3.13,2.59.03,5.25-.37,7.77-.95,1.29-.3,2.56-.67,3.81-1.11,1.17-.41,2.56-.71,3.26-1.79.35-.55.04-1.51-.66-1.62-1.23-.19-2.16.45-3.3.87-1.11.41-2.23.76-3.37,1.06-2.48.65-4.97.97-7.51,1.19-5,.42-10.02-.32-14.74-1.99-.7-.25-1.21.92-.51,1.21h0Z"/>
            <path class="cls-5" d="M71.99,61.91c4.9-.48,9.81-.96,14.71-1.43,8.81-.84,17.62-1.67,26.43-2.5,10.15-.95,20.29-1.89,30.44-2.89,9.03-.88,18.07-1.77,27.1-2.67,3.32-.33,6.65-.67,9.97-1.01,1.24-.13,2.48-.26,3.71-.39.61-.07,1.22-.12,1.82-.23.2-.04.41-.08.61-.13.08-.02.29-.09-.02-.02-.46.11.32-.05.32-.05.21-.07.41-.17.6-.26.36-.16.75-.31,1.03-.59l-1,.41h.06c1.79-.23,1.81-3.06,0-2.84.3-.04.95.2.2.02-.07-.02-.15-.03-.22-.04-.16-.04-.33-.07-.49-.1-.53-.09-1.06-.11-1.6-.09-1.06.04-2.13.21-3.19.33-3.07.33-6.14.65-9.2.96-8.78.91-17.57,1.79-26.36,2.67-10.15,1.02-20.29,2.07-30.43,3.13-9.05.95-18.11,1.89-27.16,2.86-5.58.6-11.19,1.1-16.75,1.89-.32.05-.64.09-.95.14-1.59.24-1.23,2.99.38,2.83h0Z"/>
            <path class="cls-5" d="M61.3,47.63c1.75,2.08,4.97,3.23,7.48,4.07,2.84.95,5.8,1.45,8.8,1.47,2.89.02,5.82-.37,8.59-1.2s5.92-1.99,7.89-4.03c1.31-1.36-.33-3.18-1.91-2.47-1.2.53-2.27,1.34-3.45,1.92-1.16.57-2.37,1.03-3.61,1.4-2.51.74-5.09,1.09-7.71,1.06-2.56-.02-5.14-.35-7.61-.99-1.28-.33-2.53-.76-3.77-1.25-1.26-.5-2.49-1.2-3.8-1.52-.93-.23-1.47.85-.89,1.54h0Z"/>
            <path class="cls-5" d="M72.14,59.69c-12.23-4.82-24.74-8.88-37.1-13.35-2.24-.81-4.47-1.82-6.85-2.11-1-.12-1.57,1.38-.83,2,1.59,1.35,3.71,1.95,5.63,2.64,3.22,1.16,6.45,2.29,9.68,3.41,7.17,2.49,14.33,5.15,21.61,7.32,2.43.72,4.85,1.44,7.27,2.17,1.35.41,1.83-1.58.57-2.08h0Z"/>
            <path class="cls-5" d="M70.04,60.99c-.03.26-.06.52-.09.78-.08.72-.09.51-.1,1.26,0,1.29-.02,2.58-.03,3.87-.03,4.11.04,8.23.07,12.34.08,12.63.17,25.26.26,37.88.11,14.93.23,29.86.36,44.79.11,13.1.23,26.19.34,39.29.06,7.11.18,14.22.36,21.32,0,.25.02.5.02.75,0,1.49,2.32,1.5,2.32,0,0-6.08.08-12.16.06-18.24-.04-12.63-.22-25.26-.33-37.88-.14-14.93-.27-29.86-.43-44.79-.14-13.1-.28-26.19-.41-39.29-.05-4.58-.09-9.16-.14-13.74-.02-1.56-.05-3.11-.08-4.67-.01-.55-.02-1.11-.04-1.66-.03-.73-.03-.52-.12-1.25-.03-.25-.06-.5-.09-.75-.15-1.24-1.79-1.24-1.93,0h0Z"/>
            <path class="cls-5" d="M27.42,46.64c3.38,8.27,7.04,16.36,11.4,24.17,1.07,1.92,2.18,3.82,3.31,5.7.55.91,1.1,1.82,1.66,2.72.56.9,1.07,2.09,2.09,2.55s1.89-.07,2.68-.71c1.12-.91,2.22-1.84,3.33-2.75,2.08-1.7,4.2-3.33,6.29-5.02,2.33-1.89,4.64-3.81,6.95-5.72,1.23-1.01,2.46-2.03,3.68-3.05,1.19-.99,2.51-1.9,3.4-3.18.87-1.25-.77-2.44-1.9-1.9-1.04.49-1.87,1.32-2.75,2.06-1.03.87-2.06,1.73-3.1,2.59-1.92,1.6-3.85,3.2-5.78,4.79-3.81,3.15-7.54,6.38-11.29,9.6-.65.55-.38.61-.83.15-.37-.37-.66-1.02-.94-1.47-.56-.89-1.11-1.78-1.66-2.68-1.03-1.7-2.04-3.41-3.02-5.14-1.87-3.3-3.63-6.65-5.31-10.05-2.21-4.44-4.47-8.86-6.75-13.27-.41-.8-1.83-.23-1.48.62h0Z"/>
            <path class="cls-5" d="M47.32,52.07c-.69,4.41-1.12,8.85-1.36,13.3-.25,4.51-.58,9.25-.12,13.75.07.67,1.04.7,1.06,0,.07-2.2-.09-4.42-.08-6.62.01-2.29.08-4.58.19-6.87.22-4.49.67-8.97,1.21-13.43.06-.51-.82-.63-.9-.12h0Z"/>
            <path class="cls-4" d="M37.09,168.46s24.67,8.07,24.67,9.1-.21,22.65-.62,23.26-23.64-7.8-24.05-8.63,0-23.74,0-23.74Z"/>
            <path class="cls-2" d="M32.66,96.01c1.37.45,2.71,1.06,4.04,1.61,2.62,1.08,5.32,2,7.97,3,2.93,1.1,5.88,2.15,8.83,3.21,2.32.84,4.7,1.93,7.14,2.33,1.15.19,2.03-1.38.85-2.01-2.24-1.2-4.78-1.88-7.17-2.73-2.94-1.05-5.88-2.13-8.83-3.17-4.05-1.42-8.13-3.09-12.33-4.03-1.17-.26-1.64,1.42-.49,1.79h0Z"/>
            <path class="cls-2" d="M33.69,108.16c1.37.45,2.71,1.06,4.04,1.61,2.62,1.08,5.32,2,7.97,3,2.93,1.1,5.88,2.15,8.83,3.21,2.32.84,4.7,1.93,7.14,2.33,1.15.19,2.03-1.38.85-2.01-2.24-1.2-4.78-1.88-7.17-2.73-2.94-1.05-5.88-2.13-8.83-3.17-4.05-1.42-8.13-3.09-12.33-4.03-1.17-.26-1.64,1.42-.49,1.79h0Z"/>
            <path class="cls-2" d="M33.48,121.54c1.37.45,2.71,1.06,4.04,1.61,2.62,1.08,5.32,2,7.97,3,2.93,1.1,5.88,2.15,8.83,3.21,2.32.84,4.7,1.93,7.14,2.33,1.15.19,2.03-1.38.85-2.01-2.24-1.2-4.78-1.88-7.17-2.73-2.94-1.05-5.88-2.13-8.83-3.17-4.05-1.42-8.13-3.09-12.33-4.03-1.17-.26-1.64,1.42-.49,1.79h0Z"/>
          </g>
          <g>
            <path class="cls-5" d="M100.59,81.75c-.13.19-.38.34-.75.46-.37.12-.76.05-1.17-.21-.3-.19-.66-.39-1.07-.59-.41-.2-.86-.39-1.34-.57-.48-.18-.96-.32-1.44-.43-.48-.11-.93-.14-1.36-.11-.54.04-1.09.21-1.66.51s-1.05.69-1.44,1.19c-.75.96-.98,1.85-.68,2.67.3.82.98,1.55,2.03,2.19.68.41,1.41.83,2.2,1.25.79.42,1.57.84,2.34,1.24.77.41,1.5.8,2.2,1.17.69.38,1.3.71,1.83.99.68.38,1.32.79,1.93,1.25.61.46,1.16.98,1.63,1.57.48.59.87,1.27,1.19,2.04.31.77.51,1.65.59,2.65-.09,1.98-.75,3.61-1.96,4.87-1.21,1.26-2.66,2.12-4.35,2.58-1.48.4-2.96.47-4.43.19-1.48-.28-2.76-.93-3.85-1.96-.27-.27-.52-.64-.74-1.13-.22-.49-.26-.84-.14-1.07.19-.34.55-.59,1.07-.76.53-.17.94-.17,1.24-.02.88.69,1.89,1.16,3.02,1.41,1.13.25,2.3.19,3.49-.2.91-.29,1.63-.75,2.16-1.38.52-.63.83-1.33.91-2.09.12-.8-.05-1.6-.49-2.42-.44-.81-1.17-1.52-2.19-2.12-1.55-.99-3.2-1.9-4.94-2.74-1.74-.83-3.51-1.81-5.33-2.92-.88-.65-1.54-1.39-1.98-2.22-.44-.83-.7-1.65-.76-2.47-.07-.86.05-1.68.34-2.48.3-.8.74-1.53,1.34-2.21.59-.68,1.3-1.25,2.13-1.71.83-.46,1.75-.77,2.79-.92,1.42-.18,2.82,0,4.2.56,1.37.56,2.51,1.29,3.41,2.18.2.2.3.46.3.79,0,.32-.08.64-.28.94Z"/>
            <path class="cls-5" d="M127.71,91.2c-.13,1.02-.44,2-.92,2.96-.48.96-1.05,1.85-1.7,2.7-.65.84-1.38,1.58-2.17,2.22-.79.64-1.61,1.15-2.44,1.54-1.53.7-3.07,1.01-4.64.93-1.57-.07-3.01-.67-4.32-1.79-.9-.93-1.57-2.01-2.01-3.24-.44-1.22-.7-2.49-.78-3.79-.09-1.3,0-2.58.24-3.82.24-1.24.59-2.37,1.05-3.37.55-1.19,1.25-2.2,2.08-3.02.83-.82,1.78-1.35,2.84-1.57.28-.09.52-.04.71.16s.3.44.33.73c.33-.38.86-.7,1.6-.94.74-.24,1.57-.32,2.51-.25,1.73.08,3.13.49,4.2,1.23,1.06.74,1.88,1.64,2.45,2.69.57,1.05.91,2.17,1.02,3.37.11,1.2.1,2.28-.04,3.27ZM115.44,84.73c-.69.38-1.25.9-1.68,1.56-.43.66-.77,1.4-1.01,2.21-.24.81-.37,1.67-.39,2.59-.02.92.04,1.8.18,2.65.21,1.24.66,2.24,1.37,2.99.71.75,1.74,1.08,3.1.97.79-.06,1.55-.27,2.29-.64.74-.36,1.42-.82,2.02-1.37.6-.55,1.15-1.2,1.63-1.93.48-.74.85-1.5,1.11-2.27.15-.41.25-.91.31-1.51.06-.6.05-1.21-.04-1.83-.08-.62-.28-1.21-.57-1.76-.3-.55-.73-1-1.29-1.35-.79-.48-1.71-.73-2.76-.75-1.05-.03-2.12.29-3.21.96-.2.16-.44.21-.72.14-.27-.07-.39-.28-.35-.65Z"/>
            <path class="cls-5" d="M131.81,80.95c-.52.26-.98.31-1.39.16-.41-.15-.71-.36-.91-.63-.28-.34-.38-.71-.3-1.11.08-.4.35-.76.83-1.09.79-.53,1.79-.99,3.02-1.4,1.23-.4,2.56-.59,4-.56,1.44.03,2.78.31,4.03.84,1.25.53,2.33,1.25,3.24,2.14.92.9,1.65,1.95,2.19,3.14.54,1.2.85,2.48.92,3.84.04,1.43-.12,2.89-.49,4.35-.37,1.47-.92,2.86-1.66,4.18-.74,1.32-1.65,2.53-2.73,3.64-1.08,1.11-2.29,2.01-3.64,2.69-.94.33-1.67.42-2.19.28-.51-.14-.87-.33-1.07-.56-.09-.17-.13-.41-.14-.72s.16-.63.49-.98c-.7-3.43-1.23-6.76-1.57-9.99-.35-3.23-.62-6.18-.83-8.86-.6.16-1.19.36-1.78.63ZM137.59,79.79c-.22-.02-.44-.03-.68-.03s-.46,0-.67.03c.24.27.44.6.62,1,.17.4.28.79.31,1.19.17,2.18.38,4.52.64,7.01s.63,5.18,1.15,8.05c1.48-1.27,2.72-2.81,3.71-4.63.99-1.82,1.44-3.7,1.36-5.63-.11-1.79-.68-3.33-1.71-4.64-1.04-1.3-2.61-2.09-4.71-2.35Z"/>
            <path class="cls-5" d="M155.03,100.47c-.13.62-.32,1.18-.57,1.69-.25.51-.53.81-.85.9-.67.23-1.19.17-1.58-.2-.39-.36-.57-.85-.55-1.47.12-2.17.4-4.46.86-6.89.46-2.43,1.02-4.86,1.69-7.31.67-2.44,1.43-4.82,2.27-7.13.84-2.31,1.73-4.42,2.66-6.33.16-.3.35-.49.58-.56s.43-.08.62-.02c.17-.16.37-.3.61-.43.24-.13.49-.2.74-.22.11,0,.22,0,.35.03.13.03.27.12.43.29.16.17.35.41.57.74.22.32.5.79.84,1.42.64,1.78,1.37,3.61,2.19,5.49.81,1.88,1.65,3.75,2.52,5.63.1-.04.2-.08.29-.1.09-.02.18-.06.29-.1.39-.07.84-.08,1.34-.05.51.03.86.26,1.08.67.26.52.26.99,0,1.4-.25.42-.74.85-1.46,1.3.55,1.11,1.11,2.19,1.66,3.24.55,1.05,1.12,2.08,1.7,3.07.05.18.12.45.23.82.1.37.17.74.22,1.12.05.37.05.72,0,1.05-.05.33-.17.55-.38.68-.24.13-.5.13-.78,0-.28-.12-.55-.29-.82-.5-.27-.21-.51-.44-.73-.7-.22-.25-.39-.48-.51-.69-.7-1.13-1.38-2.27-2.02-3.43-.65-1.15-1.27-2.32-1.87-3.49-1.48.41-3.09.78-4.84,1.14-1.75.35-3.48.63-5.19.84-.29,1.39-.56,2.75-.84,4.08-.27,1.33-.52,2.68-.73,4.02ZM160.86,77.36c-1.35,3.81-2.49,7.6-3.41,11.38,2.39-.26,4.92-.77,7.59-1.52-1.54-3.15-2.94-6.44-4.18-9.86Z"/>
          </g>
        </g>
        <g>
          <path class="cls-2" d="M236.08,136.12s-.04-.05-.05-.07c-4.57-6.73-13.49-4.49-20.1-3.14-20.21,4.13-40.74,6.68-60.94,10.88-11.38,1.06-44.35,4.92-44.19,4.52-2.48.35-5.6,1.15-8.08,2.52-.07.04-.15.08-.22.13-.31.17-.6.35-.88.55-1.37.94-2.43,2.09-2.9,3.49-.22.65-.31,1.35-.24,2.11.04.49.13.94.25,1.38.03.99.1,1.98.19,2.96.49,4.93,1.78,9.8,3.29,14.51,1.68,5.24,3.18,12.27,7.2,16.31,4.22,4.24,11.79,4.3,17.36,4.63,6.41.37,13.85.91,20.07-1,5.9-1.8,7.76-6.45,9.95-11.75,1.18-2.89,1.92-5.89,2.73-8.89.5-1.84,1.09-3.39,2.91-4.26,1.37-.66,3.99-1.37,5.5-1.69,13.46-2.88,26.12-4.98,39.29-8.73,9.98-2.84,24.08-6.06,29.38-16.81.34-.67.56-1.37.68-2.07.34-1.93-.09-3.89-1.2-5.56Z"/>
          <path class="cls-5" d="M237.29,141.68c-3.44,3.68-11.08,5.17-15.62,6.32-13.89,3.53-27.78,7.07-41.67,10.6-.74.19-1.47.37-2.22.56-13.9,3.53-27.84,7.72-42,10.01-6.37,1.03-12.87,1.57-19.3.84-2.63-.3-5.27-.71-7.82-1.44-2.55-.73-5.07-1.79-7.15-3.48-1.23-1-2.02-2.16-2.59-3.64-.1-.99-.4-3.86-.45-4.35-.07-.76.02-1.46.24-2.11.46-1.4,1.53-2.55,2.9-3.49.28-.19.57-.37.88-.55-.33.63-1.05,1.78-1.3,2.37-1.5,3.47.31,7.58,3.44,9.52,5.46,3.35,12.97,3.82,19.21,3.69,13.56-.29,26.91-4.52,39.95-7.87,5.42-1.38,10.83-2.78,16.24-4.16,8.25-2.11,16.31-3.91,24.56-6.02,6.71-1.71,13.61-3.41,20.32-5.12,2.76-.71,7.38-1.64,9.65-3.5,1.41-1.16,1.84-2.51,1.47-3.82.01.02.04.05.05.07,1.12,1.67,1.55,3.63,1.2,5.56Z"/>
          <path class="cls-1" d="M110.04,155.83c-2.52-3.47.75-10.35,2.87-16.09,2.12-5.74,8.48-16.47,18.84-15.72,10.35.75,22.95,18.84,24.45,23.83s0,5.99-6.61,8.48c-6.61,2.49-17.34,4.49-21.83,4.74-4.49.25-13.1,1.12-17.71-5.24Z"/>
          <path class="cls-5" d="M130.96,152.19c.34.01.66-.06.95-.21.31-.1.57-.27.79-.51.24-.22.41-.49.51-.79.15-.29.23-.61.21-.95l-.09-.66c-.12-.42-.33-.78-.63-1.09-.17-.13-.33-.26-.5-.39-.38-.22-.8-.34-1.24-.34-.34-.01-.66.06-.95.21-.31.1-.57.27-.79.51-.24.22-.41.49-.51.79-.15.29-.23.61-.21.95.03.22.06.44.09.66.12.42.33.78.63,1.09l.5.39c.38.22.8.34,1.24.34h0Z"/>
          <path class="cls-5" d="M132,139.2c.1.25.21.5.31.74.22.37.52.67.9.9.39.23.81.34,1.26.34.45,0,.87-.11,1.26-.34.37-.22.67-.52.9-.9.11-.25.21-.49.31-.74.12-.45.12-.91,0-1.36-.12-.43-.34-.81-.66-1.13l-.52-.4c-.4-.23-.83-.35-1.29-.35-.35-.01-.68.06-.99.22-.32.1-.59.28-.82.53-.32.32-.54.7-.66,1.13-.12.45-.12.91,0,1.36h0Z"/>
          <path class="cls-5" d="M140.42,149.19c2.91,0,2.92-4.53,0-4.53s-2.92,4.53,0,4.53h0Z"/>
          <path class="cls-5" d="M107.38,153.21c4.39,9.46,19.24,8.84,27.8,7.5,5.05-.79,26.29-3.9,23.7-12.8-.55-1.89-2.97-1.29-3.19.43-.49,3.7-6.69,5.12-9.62,6.14-4.02,1.4-8.16,2.47-12.35,3.2-7.36,1.28-19.82,1.83-23.92-5.9-.86-1.62-3.18-.2-2.43,1.42h0Z"/>
        </g>
      </g>
    </g>
  </g>
</svg>