<?xml version="1.0" encoding="UTF-8"?>
<svg id="Capa_2" data-name="Capa 2" xmlns="http://www.w3.org/2000/svg" viewBox="0 0 200 200">
  <defs>
    <style>
      .cls-1 {
        fill: #80dce8;
      }

      .cls-1, .cls-2, .cls-3 {
        stroke-width: 0px;
      }

      .cls-2 {
        fill: none;
      }

      .cls-3 {
        fill: #593737;
      }
    </style>
  </defs>
  <g id="colorful_icons" data-name="colorful icons">
    <g>
      <g>
        <path class="cls-1" d="m171.13,94.82c.36-4.2-2.03-4.74-2.03-4.74,0,0-50.17,1.14-63.74,2.06-13.57.91-36.08,1.13-49.73,2.65-14.89,4.82-31.2,20.25-37.59,40.86-3.79,12.23-5.23,25.02-5.8,37.77,0,.13,0,.27-.01.4,1.42-.08,2.87-.04,4.27-.07,2.51-.04,5.03-.02,7.55-.02,4.86,0,9.73,0,14.59,0,2.87,0,5.73,0,8.6,0-9.3-31.3-6.14-51.37,2.98-65.57.87-1.35,1.65-2.6,2.49-3.65,6.2,2.75,15.22,2.52,15.22,2.52,0,0,11.49,1.94,14.88,4.28,3.39,2.35,9.42,8.49,14.21,12.18,10.82,8.34,21.4,21.52,31.57,21.65,10.18.13,13.28-6.06,22.41-17.67,9.13-11.61,19.45-24.78,20.13-32.64Z"/>
        <path class="cls-3" d="m156.83,36.65c-5.05-3.47-10.32-7.09-16.04-9.4-5.71-2.31-11.9-2.4-17.36.61-5.44,3-9.85,7.76-12.23,13.48-2.68-2.19-4.83-3.92-5.69-3.97-2.92-.16-5.32,3.73-6.91,5.71-1.19,1.49-2.39,2.99-3.58,4.48-1.9,2.27-27.62,33.39-31.8,38.59-2.69,3.35-5.48,6.61-8.02,10.08-1.31,1.78-6.12,7.11-4.9,9.55.9,1.8,5.29,2.49,7.05,2.84,2.73.54,5.52.7,8.29.89,2.63.18,5.27.2,7.9.44,2.94.28,5.22,1.07,7.56,2.86,3.86,3.66,7.9,7.16,11.88,10.67,6.35,5.59,12.75,11.15,19.45,16.32,5.35,4.13,11.96,9.84,19.25,7.94,3.48-.91,6.18-3.29,8.71-5.71,2.7-2.59,5.2-5.45,7.7-8.23,2.97-3.3,2.33-3.12,5.05-6.63,1.28-1.64,2.52-3.31,3.74-5,3.06-3.81,6-7.72,8.71-11.78,2.67-3.99,6.15-8.33,6.68-13.24.57-5.34-2.64-9.63-6.36-13.09-11.74-10.91-24.94-20.24-37.87-29.69.03-.05.05-.1.08-.15,1.25-2.2,2.56-4.45,4.26-6.35,1.3-1.45,2.69-2.93,4.23-4.13.97-.76,2.33-1.13,3.7-1.19,3.99.35,7.99,3.37,10.99,5.49,5.24,3.69,10.15,7.83,15.17,11.81,2.42,1.92,4.79,3.92,7.29,5.73,1.97,1.43,4.22,2.77,6.69,3.07.84.1,1.73.06,2.56-.15.33-.04.66-.12.99-.25,1.3-.5,1.94-1.44,2.13-2.54.19-.67.14-1.32-.06-1.95-.04-.18-.08-.36-.13-.54-.83-2.82-2.96-4.83-5.06-6.8-2.51-2.35-4.92-4.76-7.5-7.03-5.23-4.59-10.84-8.8-16.57-12.74Zm-49.83,5.29c.6.5,1.19,1,1.79,1.5,1.19,1,2.39,1.99,3.59,2.98,2.4,1.98,4.82,3.95,7.23,5.91,4.83,3.93,9.67,7.85,14.42,11.88,5.57,4.72,11.26,9.43,16.56,14.45,2.47,2.19,5.07,4.24,7.54,6.42,2.66,2.34,5.93,4.72,7.55,7.94,2.06,4.08-1.11,8.86-3.27,12.27-5.46,8.64-8.53,13.13-15.14,20.91-2.53,2.98-4.91,6.02-7.8,8.69-2.32,2.15-4.67,4.74-7.45,6.31-5.62,3.17-11.76-2.87-16.08-5.83-2-1.37-3.99-2.75-5.98-4.13-4.47-3.12-8.93-6.28-13.29-9.56-6.93-5.23-11.85-10.77-18.93-15.79-1.67-1.27-3.17-1.1-4.49-1.22-2.19-.2-15.3-.31-18.86-1.72,4.48-4.26,36.62-45.4,40.78-50.74,1.1-1.41,2.2-2.83,3.31-4.24,1.61-2.05,3.24-4.08,4.78-6.19.25-.34.5-.69.87-.9,1.18-.7,2.03.38,2.84,1.06Zm76.36,21.58c.56.75.99,1.48.31,2.31-.73.89-1.76.65-2.71.17-1.42-.71-2.62-1.94-3.85-2.94-2.53-2.05-5.02-4.09-7.43-6.27-4.82-4.38-9.76-8.48-15.05-12.29-4.53-3.26-9.03-6.98-14.94-6.5-1.24.1-2.36.39-3.4.83-1.06.33-2.08.81-3.03,1.38-4.19,2.5-7.61,6.33-10.24,10.47-1.55-1.14-3.1-2.28-4.66-3.41-.68-.54-1.35-1.08-2.02-1.63-1.23-.99-2.46-1.97-3.69-2.96.62-.68,1.14-1.47,1.68-2.18.9-1.21,1.84-2.4,2.83-3.53,1.9-2.15,3.99-4.14,6.47-5.61.04-.02.08-.05.12-.07.21-.12.42-.23.63-.34.13-.07.27-.14.4-.2.18-.09.36-.17.53-.25.13-.06.26-.12.4-.17.2-.08.39-.15.59-.23.11-.04.22-.08.32-.12.23-.08.46-.15.68-.21.07-.02.15-.04.22-.06.26-.07.53-.13.79-.19.04,0,.08-.02.12-.02.3-.06.6-.11.9-.15,0,0,.02,0,.02,0,3.18-.41,6.4.26,9.59,1.7,3.2,1.44,6.32,3.15,9.37,4.97,1.89,1.22,3.74,2.5,5.56,3.77,5.25,3.64,10.25,7.59,15.21,11.6,2.48,2.01,4.95,4.02,7.52,5.92,2.34,1.74,5.01,3.87,6.78,6.21Z"/>
      </g>
      <rect class="cls-2" width="200" height="200"/>
    </g>
  </g>
</svg>