<?xml version="1.0" encoding="UTF-8"?>
<svg id="Capa_2" data-name="Capa 2" xmlns="http://www.w3.org/2000/svg" viewBox="0 0 200 200">
  <defs>
    <style>
      .cls-1 {
        fill: #ac9b9b;
      }

      .cls-1, .cls-2, .cls-3, .cls-4 {
        stroke-width: 0px;
      }

      .cls-2 {
        fill: none;
      }

      .cls-3 {
        fill: #fff;
      }

      .cls-4 {
        fill: #593737;
      }
    </style>
  </defs>
  <g id="colorful_icons" data-name="colorful icons">
    <g>
      <g>
        <path class="cls-1" d="m82.6,109.79s7.28-1.17,10.14-3.77c2.86-2.6,27.16-46.26,31.84-54.97,4.68-8.71,13.78-17.54,20.92-14.43,7.15,3.12,7.54,12.74-2.08,24.95-9.62,12.22-23.52,24.43-31.32,33.66-7.8,9.23-12.48,14.17-13,18.06-.52,3.9,4.81,15.2-.52,26.64-4.35,9.33-17.8,22.22-27.94,24.69-10.14,2.47-18.06-1.82-19.1-8.97-1.04-7.15.26-20.92,7.54-32.23,7.28-11.31,23.52-13.65,23.52-13.65Z"/>
        <path class="cls-4" d="m89.72,133.38c2.92-6.53,2.83-11.5-.49-15.69-3.31-4.19-14.72-11.79-22.61-11.99-7.89-.19-13.94,6.14-15.3,20.37-1.36,14.23-.88,24.85,3.22,28.27,4.09,3.41,8.63,2.74,15.2-.39,8.38-4,17.06-14.04,19.98-20.57Z"/>
        <path class="cls-3" d="m79.44,127.85c.24,0,.47-.04.68-.15.22-.07.41-.19.56-.36.17-.16.29-.35.36-.56.11-.21.16-.43.15-.68-.02-.45-.17-.92-.51-1.24-.34-.31-.77-.51-1.24-.51-.24,0-.47.04-.68.15-.22.07-.41.19-.56.36-.17.16-.29.35-.36.56-.11.21-.16.43-.15.68.02.45.17.92.51,1.24.34.31.77.51,1.24.51h0Z"/>
        <path class="cls-3" d="m72.72,118.23c2.71,0,2.71-4.2,0-4.2s-2.71,4.2,0,4.2h0Z"/>
        <path class="cls-3" d="m63.94,125.45l.2-.03c.08-.03.16-.07.24-.1.12-.06.21-.15.28-.26.06-.06.11-.14.13-.22.06-.12.09-.25.09-.39-.01-.09-.02-.18-.04-.27-.03-.08-.07-.16-.1-.24-.06-.12-.15-.21-.26-.28-.1-.09-.21-.15-.35-.18l-.2-.03c-.19-.05-.37-.05-.56,0-.18.05-.33.14-.46.27-.05.07-.11.14-.16.21-.1.16-.14.34-.14.53,0,.14.02.28.09.41.04.13.11.24.22.34.13.13.29.22.46.27.19.05.37.05.56,0h0Z"/>
        <path class="cls-3" d="m70.96,132.79c.28.01.55-.05.8-.18.26-.08.48-.23.67-.43.2-.19.34-.41.43-.67.13-.25.19-.51.18-.8-.02-.18-.05-.37-.07-.55-.1-.35-.28-.65-.53-.91-.14-.11-.28-.22-.42-.32-.32-.19-.67-.28-1.04-.28-.28-.01-.55.05-.8.18-.26.08-.48.23-.67.43-.2.19-.34.41-.43.67-.13.25-.19.51-.18.8.02.18.05.37.07.55.1.35.28.65.53.91.14.11.28.22.42.32.32.19.67.28,1.04.28h0Z"/>
        <path class="cls-3" d="m62.4,114.75c.23,0,.44-.04.63-.14.2-.07.38-.18.53-.34.16-.15.27-.32.34-.53.1-.2.15-.41.14-.63-.02-.15-.04-.29-.06-.44-.08-.28-.22-.52-.42-.72-.11-.09-.22-.17-.33-.26-.26-.15-.53-.22-.83-.22-.23,0-.44.04-.63.14-.2.07-.38.18-.53.34-.16.15-.27.32-.34.53-.1.2-.15.41-.14.63l.06.44c.08.28.22.52.42.72.11.09.22.17.33.26.26.15.53.22.83.22h0Z"/>
        <path class="cls-3" d="m60.39,135.62c.19,0,.37-.03.53-.12.17-.06.32-.15.44-.28.13-.12.23-.27.28-.44.09-.16.13-.34.12-.53-.02-.12-.03-.24-.05-.36-.07-.23-.18-.43-.35-.61-.09-.07-.19-.14-.28-.21-.21-.12-.44-.19-.69-.19-.19,0-.37.03-.53.12-.17.06-.32.15-.44.28-.13.12-.23.27-.28.44-.09.16-.13.34-.12.53.02.12.03.24.05.36.07.23.18.43.35.61.09.07.19.14.28.21.21.12.44.19.69.19h0Z"/>
        <path class="cls-3" d="m70.11,144.09c2.3,0,2.3-3.57,0-3.57s-2.3,3.57,0,3.57h0Z"/>
        <path class="cls-3" d="m58.12,147c.2,0,.38-.03.55-.12.18-.06.33-.16.46-.29.14-.13.24-.28.29-.46.09-.17.13-.35.12-.55-.02-.13-.03-.25-.05-.38-.07-.24-.19-.45-.37-.63-.1-.07-.19-.15-.29-.22-.22-.13-.46-.19-.72-.19-.2,0-.38.03-.55.12-.18.06-.33.16-.46.29-.14.13-.24.28-.29.46-.09.17-.13.35-.12.55.02.13.03.25.05.38.07.24.19.45.37.63.1.07.19.15.29.22.22.13.46.19.72.19h0Z"/>
        <path class="cls-3" d="m82.03,135.83c.22,0,.42-.04.61-.14.2-.06.37-.17.51-.33.15-.14.26-.31.33-.51.1-.19.14-.39.14-.61-.02-.14-.04-.28-.06-.42-.08-.27-.21-.5-.41-.7-.11-.08-.21-.17-.32-.25-.25-.14-.51-.22-.8-.22-.22,0-.42.04-.61.14-.2.06-.37.17-.51.33-.15.14-.26.31-.33.51-.1.19-.14.39-.14.61.02.14.04.28.06.42.08.27.21.5.41.7.11.08.21.17.32.25.25.14.51.22.8.22h0Z"/>
      </g>
      <rect class="cls-2" width="200" height="200"/>
    </g>
  </g>
</svg>