<?xml version="1.0" encoding="UTF-8"?>
<svg id="Capa_2" xmlns="http://www.w3.org/2000/svg" viewBox="0 0 243.3 243.3">
  <defs>
    <style>
      .cls-1 {
        fill: #a36545;
      }

      .cls-2 {
        fill: #5a992f;
      }

      .cls-3 {
        fill: #fff;
      }

      .cls-4 {
        fill: none;
      }

      .cls-5 {
        fill: #e09d3e;
      }

      .cls-6 {
        fill: #fad380;
      }

      .cls-7 {
        fill: #4f3535;
      }

      .cls-8 {
        fill: #847272;
      }
    </style>
  </defs>
  <g id="grocery_icons">
    <g>
      <rect class="cls-4" width="243.3" height="243.3"/>
      <g>
        <path class="cls-5" d="M169.84,147.55c-2.64-13.85-16.7-25.49-16.7-25.49,0,0,3.32-2.94,3.17-8.2-.17-5.72-2.29-7.19-2.29-7.19,0,0,2.91-2.29,3.08-6.81.16-4.48-2.42-5.93-2.42-5.93,0,0,4.18-2.2,7.03-5.93,2.86-3.74,2.64-8.13,3.08-15.6.44-7.47.22-16.04-2.64-19.12-2.86-3.08-26.81-21.54-27.47-22.2s-.44-10.99-.44-10.99h-22.9s.22,10.33-.44,10.99-24.62,19.12-27.47,22.2c-2.86,3.08-3.08,11.65-2.64,19.12.44,7.47.22,11.87,3.08,15.6,2.86,3.74,7.03,5.93,7.03,5.93,0,0-2.58,1.45-2.42,5.93.16,4.52,3.08,6.81,3.08,6.81,0,0-2.12,1.47-2.29,7.19-.16,5.25,3.17,8.2,3.17,8.2,0,0-14.07,11.65-16.7,25.49-2.64,13.85-1.1,66.59,2.64,74.51,7.59,16.07,27.03,19.49,43.05,18.96s38.21-3.05,45.75-18.89l.03-.07c3.74-7.91,5.27-60.66,2.64-74.51Z"/>
        <g>
          <path class="cls-7" d="M122.77,3.45c-3.86-.07-9.71.28-12.9,1.97-3.26,1.72-1.89,12.48-1.61,13.1.62,1.37,3.49,4.11,14.87,4.12,12.54,0,14.15-3.22,14.51-4.12s.9-10.33-.71-12.13-7.51-2.82-14.16-2.94Z"/>
          <path class="cls-3" d="M109.05,8.14c3.26,1.39,6.92,1.86,10.37,2.08,3.95.25,7.93.05,11.84-.63,1.93-.34,3.88-.79,5.68-1.7.66-.33.09-1.44-.57-1.11-1.5.76-3.16,1.15-4.78,1.46-2.08.4-4.19.62-6.29.74-3.52.19-7.08.04-10.58-.46-1.84-.26-3.7-.62-5.46-1.29-.51-.19-.71.7-.22.9h0Z"/>
        </g>
        <path class="cls-3" d="M88.08,55.87c3.5,2.37,7.55,3.82,11.6,4.98,4.12,1.18,8.3,2.02,12.55,2.53,8.44,1.03,16.99.76,25.37-.66,2.29-.39,4.56-.87,6.81-1.45,2.38-.61,4.89-1.31,6.6-3.2.63-.7.47-2.09-.6-2.29-2.04-.36-4.01.04-5.99.59-1.96.54-3.94,1.01-5.93,1.41-3.93.78-7.9,1.26-11.9,1.45-8.07.39-16.18-.39-24.04-2.21-4.52-1.04-8.9-2.6-13.42-3.62-1.51-.34-2.3,1.6-1.04,2.46h0Z"/>
        <path class="cls-3" d="M154.51,56.99c.17.07.34.16.53.21s.38.07.57.08c.28.02.57-.02.84-.08.15-.03.29-.1.43-.17.04-.02.08-.04.12-.06.17-.1.32-.22.47-.34.07-.05.13-.11.19-.18.1-.11.19-.23.27-.35.08-.11.13-.2.17-.37.06-.25.06-.49,0-.75l-.14-.33c-.09-.16-.2-.29-.35-.38-.08-.08-.18-.14-.3-.18-.16-.09-.34-.12-.52-.12-.1,0-.28.03-.38.05-.18.04-.34.12-.47.25-.06.03-.11.07-.15.12-.02.03-.05.05-.07.08-.05.05-.1.1-.16.14l.28-.22c-.17.13-.36.23-.55.31l.33-.14c-.12.05-.25.09-.38.11l.35-.05c-.12.02-.25.02-.37,0l.34.05s-.03,0-.05,0c-.17-.05-.34-.06-.51-.02-.17,0-.33.06-.47.15l-.26.2c-.12.12-.21.25-.26.41-.06.1-.09.21-.09.32-.04.17-.03.34.02.51l.13.3c.11.19.27.34.46.46h0Z"/>
        <path class="cls-3" d="M86.79,74.44c.29.25.6.49.92.7s.71.37,1.08.52c.25.1.52.19.79.25.25.05.51.07.76.07.07,0,.15,0,.22,0,.09,0,.18-.02.27-.03.22-.03.4-.1.6-.2.45-.23.73-.78.73-1.27,0-.53-.29-.99-.73-1.27-.25-.16-.49-.18-.76-.25-.15-.04-.31-.07-.46-.11-.31-.06-.61-.16-.9-.28l.37.15c-.37-.16-.71-.36-1.03-.6l.3.23-.04-.03c-.14-.15-.3-.25-.48-.31-.18-.09-.37-.14-.58-.13-.37,0-.81.16-1.06.44s-.46.66-.44,1.06.14.8.44,1.06h0Z"/>
        <path class="cls-3" d="M90.75,84.41l1.59.47c.12.04.25.08.37.11.28.08.49.06.76.07.13,0,.27.03.4.04.22.01.45-.04.67-.07.21-.06.39-.16.54-.32.15-.15.26-.33.32-.54.12-.42,0-.88-.32-1.19-.16-.16-.32-.31-.52-.43-.12-.07-.24-.14-.35-.22l.3.23c-.16-.13-.31-.28-.48-.38-.19-.12-.42-.18-.62-.26l-.59-.22-1.19-.44c-.38-.14-.92-.03-1.26.16s-.66.59-.75.98c-.1.42-.07.89.16,1.26s.56.63.98.75h0Z"/>
        <path class="cls-3" d="M153.89,74.97l.51-.09c.17-.03.34-.05.51-.11s.33-.12.49-.18c.27-.1.5-.22.75-.37l.27-.21.21-.27.13-.32c.06-.18.06-.35.02-.53,0-.12-.03-.23-.09-.33-.03-.11-.09-.21-.17-.29-.16-.21-.41-.42-.69-.47s-.55-.12-.83-.13c-.18,0-.36,0-.53-.01-.3,0-.61.07-.9.12l-.53.09c-.21.05-.39.15-.54.29-.17.11-.31.26-.41.45-.12.18-.18.38-.19.6-.05.21-.04.43.03.64.13.39.37.76.74.96l.38.16c.28.08.57.08.85,0h0Z"/>
        <path class="cls-3" d="M83.57,143.98c-.19.22-.4.44-.54.69s-.24.57-.35.85c-.13.34-.19.71-.27,1.06s-.14.69-.2,1.04c-.05.32-.12.64-.11.96.04.66.16,1.15.65,1.65l-.44-.76c.06.44.25.75.54,1.09.2.24.54.36.83.4.33.04.62-.02.92-.17.39-.21.64-.52.86-.9l-.62.62c.68-.31,1.07-1.12,1.22-1.82.08-.36.15-.72.21-1.08.08-.49.2-.99.21-1.48,0-.17,0-.35,0-.52,0-.35-.09-.6-.19-.91-.19-.55-.56-.98-1.13-1.13-.52-.14-1.21-.01-1.58.42h0Z"/>
        <path class="cls-3" d="M81.11,156.59v1.02c0,.17,0,.34-.01.51,0,.08,0,.15,0,.23,0,.23.04.44.14.64.03.08.06.16.1.23.08.13.2.26.3.38l-.25-.32.02.04-.16-.37c.02.06.03.11.05.17.07.25.2.48.39.66.11.08.21.17.32.25.23.13.47.2.74.2.26,0,.51-.07.74-.2.11-.08.22-.16.32-.25.19-.19.31-.41.39-.66.02-.06.04-.11.05-.17l-.16.37.02-.04-.25.32c.11-.12.22-.24.3-.38.13-.22.18-.41.22-.65.02-.16.03-.3.03-.45v-.51c0-.34,0-.68-.01-1.02,0-.42-.18-.86-.48-1.17-.15-.16-.33-.27-.53-.34-.2-.1-.41-.15-.64-.14-.43.02-.87.16-1.17.48s-.48.72-.48,1.17h0Z"/>
        <path class="cls-3" d="M161.72,218.6c.29-.34.59-.69.88-1.03.12-.14.24-.28.32-.44l.07-.14.15-.3c.15-.3.26-.61.38-.92l.05-.35-.05-.35-.13-.32c-.08-.16-.2-.28-.34-.37-.08-.08-.18-.14-.29-.17-.1-.06-.22-.09-.34-.09-.12-.03-.24-.03-.35,0-.18,0-.34.06-.5.16-.18.1-.36.2-.53.32l-.26.19-.12.09c-.15.11-.32.21-.44.35-.29.34-.58.68-.86,1.02-.16.15-.28.33-.35.54-.11.2-.15.42-.14.65,0,.23.04.45.14.65.07.21.18.39.35.54.32.29.74.51,1.19.49.43-.02.9-.16,1.19-.49h0Z"/>
        <path class="cls-7" d="M89.49,94.85c7.47,3.79,15.97,5.19,24.25,5.9,9.29.8,18.77.48,27.92-1.36,2.32-.47,4.62-1.04,6.88-1.77,2.06-.66,4.49-1.32,6.1-2.81.76-.71-.06-1.75-.93-1.6-1.85.31-3.6,1.31-5.38,1.9-1.92.64-3.88,1.17-5.85,1.61-4.36.98-8.8,1.54-13.25,1.81-8.96.56-18.08.15-26.89-1.62-4.14-.83-8.33-1.89-12.23-3.53-.83-.35-1.41,1.05-.61,1.45h0Z"/>
        <path class="cls-7" d="M90.17,107.64c7.03,4.04,15.31,5.45,23.29,6.11,9.36.78,18.87.28,28.08-1.56,2.49-.5,4.95-1.1,7.38-1.85,2.15-.66,4.66-1.27,6.4-2.74.6-.51.14-1.74-.68-1.63-1.98.25-3.84,1.21-5.74,1.82-2.01.65-4.05,1.19-6.11,1.66-4.39.99-8.85,1.62-13.33,1.96-8.86.67-17.92.43-26.64-1.38-4.03-.84-8.14-1.95-11.86-3.75-.91-.44-1.7.85-.8,1.37h0Z"/>
        <path class="cls-7" d="M89.66,122.79c7.43,3.98,15.79,5.73,24.12,6.52,9.18.87,18.55.38,27.56-1.62,2.37-.53,4.71-1.17,7-1.95,2.16-.73,4.74-1.43,6.47-2.98.78-.7-.08-1.74-.93-1.6-1.95.31-3.82,1.4-5.68,2.05-1.99.7-4.02,1.29-6.07,1.79-4.29,1.05-8.67,1.72-13.08,2.05-8.68.66-17.52.23-26.03-1.65-4.26-.94-8.56-2.19-12.55-3.98-.91-.41-1.72.88-.8,1.37h0Z"/>
        <path class="cls-1" d="M91.23,226.89c15.14-8.73,33.89-10.15,50.28-4.21,2.26.82,4.47,1.78,6.61,2.85s4.24,2.74,6.53,3.51c1.45.48,2.26-1.39,1.39-2.39-1.44-1.65-3.82-2.7-5.74-3.69-2.04-1.05-4.14-1.97-6.29-2.76-4.23-1.55-8.63-2.6-13.09-3.2-8.96-1.2-18.2-.55-26.87,2.06-4.84,1.45-9.47,3.53-13.77,6.19-1.03.64-.1,2.24.95,1.63h0Z"/>
        <path class="cls-6" d="M91.85,145.64s12.62,4.41,32.15,4.31c20.54-.1,31.31-3.57,31.31-3.57l.17,59.94s-12.46,6.1-32.49,5.8c-20.03-.3-30.81-6.4-30.81-6.4l-.34-60.09Z"/>
        <g>
          <g>
            <path class="cls-8" d="M120.75,164.95s-3.1.84-10.34-2.18c-7.25-3.03-14.35-7.11-20.19-4.5-5.84,2.6-4.86,8.44,5.56,11.33,10.41,2.88,21.32-.49,23.22-1.48,1.9-.99,2.53-1.41,2.53-1.41l-.77-1.76Z"/>
            <path class="cls-8" d="M121.24,164.39s5.07-12.03,14-17.45c8.94-5.42,11.82-4.43,13.44-2.18s-2.32,8.23-10.62,11.54c-8.3,3.31-11.4,4.86-13.58,6.54-2.18,1.69-2.67,3.24-2.67,3.24l-.56-1.69Z"/>
            <path class="cls-2" d="M131.94,173.96s-2.18-6.33,5.7-9.71c7.88-3.38,17.45-.14,19.35,5.84,1.9,5.98-2.74,9.92-12.17,11.05-9.43,1.13-12.1-4.36-12.88-7.18Z"/>
            <path class="cls-2" d="M130.04,185.64s4.15-5.7,14.42-1.97c10.27,3.73,13.3,14.64,7.25,18.01-6.05,3.38-11.12,3.31-17.24-1.2-6.12-4.5-6.19-11.75-4.43-14.85Z"/>
            <path class="cls-7" d="M118.45,174.28c.53-2.01,1.26-4.01,2.66-5.56-.99-3.6-1.61-7.29-1.98-11-.24-2.39-.38-4.8-.42-7.21-.04-2.19-.16-4.61.27-6.77.2-1.04,1.66-.69,1.74.24.19,2.14-.05,4.38-.02,6.54.04,2.21.16,4.41.38,6.61.41,4.03,1.19,8.04,2.29,11.94.24.86.51,1.71.8,2.55.77.24,1.5.63,2.28.87,1.06.32,2.16.51,3.27.55,2.02.08,3.76-.45,5.64-.99-.12-.4-.29-.79-.47-1.15-.29-.57.38-1.03.85-.65,1.42,1.12,1.91,3.58.66,5.02-.31.36-.99.08-.96-.4.03-.48.11-.95.13-1.43-1.83.91-4.11,1.17-6.09,1.09-1.36-.06-3.08-.26-4.53-.83,2.13,5.43,5.24,10.43,9.45,14.55.21-.32.34-.69.35-1.13.03-.95,1.47-.95,1.47,0,0,1.77-1.36,3.66-3.29,3.45-.66-.07-.8-.92-.16-1.16.23-.09.44-.19.65-.3-5.85-4.82-9.56-11.51-11.8-18.66-.89,1.53-1.43,3.2-1.86,4.96-.61,2.54-.68,5.28-1.42,7.77-.24.83-1.45.65-1.48-.2-.11-2.82.88-5.97,1.6-8.68Z"/>
            <path class="cls-3" d="M141.39,167.18c3.11-1.66,9.51-2.77,11.47,1.24.38.78-.38,1.5-1.14,1.14-1.43-.66-2.73-1.37-4.34-1.47-1.88-.12-3.76.35-5.64.36-.67,0-.96-.96-.35-1.28h0Z"/>
            <path class="cls-3" d="M143.73,185.87c2.83.7,7.15,3.22,7.17,6.58,0,.8-.91,1.05-1.46.6-1.04-.84-1.64-2.11-2.62-3.03-1.04-.97-2.31-1.69-3.65-2.14-1.27-.42-.76-2.34.56-2.02h0Z"/>
            <path class="cls-3" d="M152.64,195.79c.06.32.12.63.16.95.06.48-.13,1.05-.66,1.17-.58.13-1.02-.27-1.18-.8-.08-.26-.13-.54-.18-.81-.1-.49.14-1.07.67-1.19.48-.11,1.09.14,1.19.67h0Z"/>
          </g>
          <path class="cls-2" d="M122.93,184.44c2.18,4.08,1.97,16.39-4.01,19.84-5.98,3.45-11.33,1.48-12.95-5.91-1.62-7.39.47-12.61,3.38-15.34,5.84-5.49,11.4-2.67,13.58,1.41Z"/>
          <path class="cls-3" d="M118.61,182.96c1.58,1.08,2.65,2.61,3.1,4.48s.81,4.49-.42,6.06c-.33.42-1.01.23-1.25-.16-.82-1.35-.32-3.14-.53-4.66-.23-1.62-.84-3.09-2.13-4.14-.89-.71.28-2.23,1.22-1.59h0Z"/>
          <path class="cls-3" d="M119.98,198.32l-.04.2-.05.13c-.03.06-.08.11-.14.15-.09.07-.21.12-.33.12-.1,0-.19-.03-.27-.07-.06-.03-.11-.08-.15-.14-.05-.05-.08-.11-.1-.18l-.04-.2c-.03-.1-.03-.21,0-.31.03-.1.08-.18.15-.26.11-.1.25-.17.41-.17.15,0,.31.06.41.17.07.07.12.16.15.26.03.1.03.21,0,.31h0Z"/>
        </g>
      </g>
    </g>
  </g>
</svg>