<?xml version="1.0" encoding="UTF-8"?>
<svg id="Capa_2" data-name="Capa 2" xmlns="http://www.w3.org/2000/svg" viewBox="0 0 200 200">
  <defs>
    <style>
      .cls-1 {
        fill: #ac9b9b;
      }

      .cls-1, .cls-2, .cls-3, .cls-4 {
        stroke-width: 0px;
      }

      .cls-2 {
        fill: none;
      }

      .cls-3 {
        fill: #fff;
      }

      .cls-4 {
        fill: #f3b200;
      }
    </style>
  </defs>
  <g id="colorful_icons" data-name="colorful icons">
    <g>
      <g>
        <path class="cls-1" d="m82.95,108.74s7.28-1.17,10.14-3.77c2.86-2.6,27.16-46.26,31.84-54.97,4.68-8.71,13.78-17.54,20.92-14.43,7.15,3.12,7.54,12.74-2.08,24.95-9.62,12.22-23.52,24.43-31.32,33.66-7.8,9.23-12.48,14.17-13,18.06-.52,3.9,4.81,15.2-.52,26.64-4.35,9.33-17.8,22.22-27.94,24.69-10.14,2.47-18.06-1.82-19.1-8.97-1.04-7.15.26-20.92,7.54-32.23,7.28-11.31,23.52-13.65,23.52-13.65Z"/>
        <path class="cls-4" d="m92.86,125.28c2.05-8.76-4.55-18.71-15.33-20.92s-24.17,4.94-26.9,21.18-1.44,30.56,9.36,30.67c12.48.13,28.98-14.3,32.88-30.93Z"/>
        <path class="cls-3" d="m72.86,113.84c-7.01-1.95-14.85,3.09-14.64,10.65.06,2.01,2.74,2.79,3.8,1.03,2.49-4.16,6.05-8.09,10.84-9.47,1.08-.31,1.1-1.9,0-2.21h0Z"/>
      </g>
      <rect class="cls-2" width="200" height="200"/>
    </g>
  </g>
</svg>