<?xml version="1.0" encoding="UTF-8"?>
<svg id="Capa_2" xmlns="http://www.w3.org/2000/svg" viewBox="0 0 243.3 243.3">
  <defs>
    <style>
      .cls-1 {
        fill: #fff;
      }

      .cls-2 {
        fill: none;
      }

      .cls-3 {
        fill: #e09d3e;
      }

      .cls-4 {
        fill: #4f3535;
      }

      .cls-5 {
        fill: #f9cb66;
      }
    </style>
  </defs>
  <g id="grocery_icons">
    <g>
      <rect class="cls-2" width="243.3" height="243.3"/>
      <g>
        <path class="cls-5" d="M105.47,18.61c0,.75-1.75,42.79-2.25,43.79-.5,1-13.09,13.96-14.97,19.83-2,6.24,3.24,148.2,3.24,150.94s-.75,7.48,4.24,7.73c4.99.25,50.15.25,52.64-.25,2.49-.5,5.99,0,6.99-6.99,1-6.99,4.24-146.2,2-152.19-3.27-8.72-15.22-17.09-15.47-19.09s-2-44.78-2.99-45.78c-1-1-33.43,2-33.43,2Z"/>
        <path class="cls-3" d="M99.35,232.63c1.94-.8,3.67-2.04,5.56-2.95,1.89-.91,3.86-1.65,5.88-2.24,4.04-1.18,8.22-1.73,12.42-1.76,4.2-.03,8.34.57,12.37,1.76,1.98.58,3.91,1.29,5.77,2.18,1.91.92,3.79,2.48,5.95,2.65,1.52.12,2.26-1.68,1.64-2.86-1.02-1.97-3.74-3.04-5.65-3.94-2.09-.98-4.26-1.84-6.48-2.48-4.39-1.27-9.04-1.83-13.6-1.74-4.57.1-9.14.95-13.45,2.47-2.14.76-4.24,1.67-6.25,2.74-1.91,1.02-4.1,2.17-5.54,3.82-.82.94-.05,2.93,1.37,2.35h0Z"/>
        <path class="cls-3" d="M146.49,97.87c.06.06.11.11.17.16-.17-.63-.33-1.26-.5-1.89v.04c-.04.19-.06.38-.09.57-.01.29.05.57.18.82.05.18.14.34.28.47.15.23.35.42.6.55.32.2.68.35,1.03.48.09.03.18.05.28.06.28.05.56.09.83.11.09,0,.19.01.29.01.05,0,.11,0,.16,0,.54-.03.69-.09,1.17-.31.08-.04.16-.08.24-.12.44-.25.6-.49.9-.89.18-.32.27-.66.28-1.02.01-.28-.05-.54-.17-.78-.08-.25-.22-.47-.42-.65-.25-.25-.55-.42-.89-.52-.25-.1-.51-.1-.78-.14l.57.08c-.08-.01-.16-.03-.24-.04-.34-.07-.53-.08-.82-.07-.18,0-.35,0-.53-.03l.59.08c-.3-.04-.61-.09-.91-.13l.59.08c-.18-.02-.35-.06-.52-.11-.38-.1-.76-.1-1.14,0-.36.1-.68.29-.94.55l-.04.05c.63-.17,1.26-.33,1.89-.5-.07-.02-.15-.05-.22-.08l-.5-.07c-.26,0-.5.04-.73.16-.16.04-.3.13-.42.24-.21.13-.37.31-.49.53-.16.3-.24.62-.26.95,0,.26.04.5.16.73.08.23.21.44.39.61h0Z"/>
        <path class="cls-3" d="M148.08,107.3l.47.26.12.07s.03.02.05.03c.12.07.25.12.39.17.07.03.15.04.23.03.11.01.21.03.31.04h.04c.21.01.4-.03.58-.13.07-.01.13-.04.19-.08.22-.13.4-.31.53-.53.14-.23.2-.49.2-.76,0-.27-.07-.52-.2-.76-.08-.11-.16-.22-.25-.32-.03-.03-.05-.06-.08-.08-.17-.19-.34-.26-.54-.36l-.49-.23c-.18-.11-.37-.17-.57-.18-.2-.05-.41-.04-.61.03-.2.05-.37.14-.52.27-.17.11-.3.25-.4.43l-.15.37c-.07.27-.07.54,0,.82l.15.37c.14.23.32.41.55.55h0Z"/>
        <g>
          <path class="cls-4" d="M122.37,1.74c-5.19-.1-13.08.38-17.37,2.65s-2.55,16.81-2.17,17.64c.83,1.85,4.7,5.54,20.03,5.55,16.89.01,19.06-4.34,19.55-5.55s1.22-13.92-.96-16.33-10.12-3.8-19.07-3.96Z"/>
          <path class="cls-1" d="M103.89,8.06c4.39,1.88,9.32,2.5,13.97,2.8,5.31.34,10.68.06,15.94-.85,2.6-.45,5.23-1.07,7.65-2.29.89-.45.12-1.93-.76-1.49-2.02,1.03-4.26,1.55-6.43,1.97-2.8.54-5.64.84-8.48.99-4.75.26-9.53.05-14.25-.61-2.48-.35-4.98-.83-7.36-1.73-.68-.26-.95.94-.29,1.22h0Z"/>
        </g>
        <path class="cls-1" d="M96.23,82.73c8.45.33,16.9.48,25.35.74,4.18.13,8.36.24,12.54.33l6.13.14c2.13.05,4.51.41,6.54-.35,1.48-.55,1.42-2.39,0-2.96-1.93-.77-4.21-.5-6.26-.51s-4.27-.02-6.41-.02c-4.18-.02-8.36-.02-12.54,0-8.45.05-16.9-.03-25.35.09-1.64.02-1.63,2.48,0,2.54h0Z"/>
        <path class="cls-1" d="M113.88,32.75l-.08-.06.53.53c-.53-.7-1.26-1.04-2.14-.81-.64.17-1.22.73-1.54,1.31-.29.52-.35,1.13-.43,1.71-.09.66-.18,1.33-.22,1.99-.07,1.03-.15,2.06-.13,3.09.01.66.05,1.32.18,1.97.02.12.05.23.08.35.04.14.3.91.22.57-.05-.2.1.32.1.31.11.26.27.45.44.66.55.68,1.74.58,2.31,0,.32-.33.42-.65.61-1.05-.06.19-.05.18.03-.02l.2-.49c.2-.53.28-1.11.34-1.66.11-.91.17-1.8.19-2.71.02-.88.04-1.74,0-2.62-.02-.45-.05-.9-.11-1.35-.05-.38-.05-.37.01.04,0-.21,0-.15-.04.18.06-.19.08-.38.06-.58-.05.35-.06.43-.01.24l-1.04,1.04.09-.02c.55-.12.96-.67,1.03-1.2.08-.6-.2-1.1-.69-1.44h0Z"/>
        <path class="cls-1" d="M111.53,53.69c.07.24.12.48.16.73l-.07-.51c.05.4.05.8.02,1.21-.01.19.02.39.03.58,0,.42.01.82.27,1.18.18.25.37.45.66.57.11.06.23.09.35.09.18.04.37.03.55-.02.63-.1,1.01-.64,1.33-1.14.22-.34.37-.71.45-1.11.13-.69.21-1.4.12-2.1,0-.36-.09-.69-.27-.99l-.31-.4c-.25-.24-.54-.41-.87-.51-.26-.08-.52-.09-.79-.04-.26.01-.51.09-.73.23-.23.12-.41.29-.55.51-.17.19-.29.41-.35.67-.09.35-.09.7,0,1.05h0Z"/>
        <path class="cls-1" d="M95.16,93.7l.1.49.18.43c.11.21.27.38.46.5.11.11.24.19.39.23.21.11.44.16.69.15l.47-.06.43-.18c.21-.11.38-.27.5-.46.16-.17.26-.37.32-.61l.1-.49c.09-.33.09-.67,0-1-.09-.32-.25-.6-.49-.83l-.38-.3c-.29-.17-.61-.26-.95-.26-.26,0-.5.04-.73.16-.23.08-.44.21-.61.39-.23.24-.4.51-.49.83-.09.33-.09.67,0,1h0Z"/>
        <path class="cls-1" d="M145.51,231.63c.15.04.3.1.45.13s.31.06.46.09c.46.09.92.17,1.39.2.26,0,.51-.04.73-.16.24-.08.44-.21.61-.39l.3-.39c.14-.22.21-.45.23-.71.05-.17.05-.34,0-.51-.01-.25-.09-.49-.23-.71-.27-.42-.65-.74-1.14-.88-.3-.09-.61-.13-.92-.18-.46-.07-.92-.14-1.39-.16-.26,0-.5.04-.72.16-.23.08-.43.2-.6.39l-.29.38c-.14.21-.21.44-.22.69-.04.17-.04.33,0,.5.01.25.08.48.22.69.27.41.64.72,1.11.86h0Z"/>
        <path class="cls-4" d="M93.74,114.91l4.24,80.83s7.6,2.75,29.55,2.5c13.22-.15,21.84-3,21.84-3l2.49-80.09s-13.9,1.54-28.51,1.54c-17.82,0-29.62-1.79-29.62-1.79Z"/>
        <path class="cls-1" d="M145.64,222.77h.51c.16.02.32,0,.48-.01.29-.03.58-.05.86-.14.3-.1.57-.22.8-.45.03-.04.07-.07.1-.11.15-.15.26-.34.32-.54.06-.22.06-.44,0-.66-.01-.04-.03-.07-.04-.11-.11-.3-.13-.34-.29-.55-.08-.1-.11-.14-.19-.21-.16-.13-.31-.28-.48-.38-.07-.04-.13-.08-.2-.11-.42-.24-.88-.4-1.34-.57-.35-.09-.69-.09-1.04,0l-.47.2c-.29.17-.53.41-.7.7-.14.22-.22.47-.23.73-.06.26-.05.52.03.78.06.25.18.48.35.67.14.21.32.38.55.5.31.18.63.27.99.27h0Z"/>
        <g>
          <path class="cls-5" d="M138.74,154.84c-1.36-5.03-3.31-9.93-5.71-14.56-1.18-2.27-2.48-4.47-3.9-6.6-1.44-2.16-2.93-4.49-4.88-6.22-1.48-1.31-13.11,16.24-15.73,24.5-2.58,8.13-4.12,18.31,2.79,24.75,5.58,5.19,15.01,7.31,21.66,2.83,8.15-5.49,8.08-16.21,5.77-24.71Z"/>
          <path class="cls-1" d="M111.66,153.82c-1.19,3.19-2.35,6.34-2.02,9.81.17,1.83.61,3.55,1.49,5.17.79,1.46,1.88,3.11,3.35,3.92.86.48,1.97.36,2.67-.34.75-.75.74-1.76.34-2.67-.55-1.28-1.53-2.11-2.18-3.36-.51-.97-.91-2.35-1-3.48-.22-2.85.09-5.82.47-8.64.1-.77-.68-1.48-1.38-1.56-.83-.1-1.46.38-1.74,1.14h0Z"/>
          <path class="cls-1" d="M120.21,176.94l.32.12.08.03c.1.04.15.04.29.06.12.02.19.03.29.03h.09c.14-.02.28-.04.42-.06.21-.05.39-.14.54-.28.12-.07.21-.17.29-.29.14-.15.24-.33.28-.54l.06-.42-.06-.42c-.05-.21-.14-.39-.28-.54-.11-.17-.26-.31-.45-.41-.04-.03-.09-.06-.13-.09-.2-.12-.35-.16-.55-.2l-.33-.07c-.21-.07-.43-.08-.64-.03-.21,0-.41.07-.6.19-.19.1-.34.24-.45.41-.14.15-.24.34-.29.54l-.06.43c0,.29.07.56.22.81l.25.32c.2.2.44.34.71.41h0Z"/>
        </g>
      </g>
    </g>
  </g>
</svg>