<?xml version="1.0" encoding="UTF-8"?>
<svg id="Capa_2" xmlns="http://www.w3.org/2000/svg" viewBox="0 0 243.3 243.3">
  <defs>
    <style>
      .cls-1 {
        fill: #a36545;
      }

      .cls-2 {
        fill: #fff;
      }

      .cls-3 {
        fill: none;
      }

      .cls-4 {
        fill: #4f3535;
      }
    </style>
  </defs>
  <g id="grocery_icons">
    <g>
      <rect class="cls-3" width="243.3" height="243.3"/>
      <g>
        <g>
          <path class="cls-4" d="M150.97,189.67c-.05-.99-.81-1.41-1.52-1.31-.03-.3-.06-.6-.1-.89-.21-1.72-54.58.38-54.66,2.2-.2,4.27-.85,8.56-.49,12.86.19,2.26,43.3,2.08,53.4.29.52,2.19,3.65,2.16,3.86-.29.36-4.3-.28-8.59-.49-12.86Z"/>
          <path class="cls-1" d="M154.45,136.91c-3.24-8.8-7.17-17.07-8.93-26.37-1.83-9.65-.95-18.74.93-28.29.21-1.07-1.07-1.95-1.86-1.43-4.73-1.02-45.62.21-45.38,1.43,1.88,9.54,2.76,18.64.93,28.29-1.76,9.3-5.7,17.57-8.93,26.37-.6,1.62,52.67,1.46,59.72.11.19.37.38.76.58,1.13.85,1.58,3.59.5,2.95-1.24Z"/>
          <path class="cls-1" d="M153.56,67.51c-.27-.74-1.01-1.05-1.64-.89-.02-.06-.03-.13-.05-.19-.4-1.29-58.57-.12-59.01,1.08-1.23,3.42-1.53,9.21.33,12.51,1.62,2.87,4.92,4.2,8.01,4.79,4.84.92,9.92,1.02,14.84,1.03,9.64.03,19.66.74,29.18-1.03,3.08-.57,6.4-1.92,8.01-4.79,1.85-3.31,1.56-9.1.33-12.51Z"/>
          <path class="cls-4" d="M131.02,16.21c-1.97-2.6-5.1-2.54-7.82-2.45-2.55.08-6.02.37-7.77,2.94-1.74,2.55-.74,8.12-.26,11.03.33,1.99,2.67,1.43,2.83-.4l11.03-.05c.42,1.47,2.71,1.61,3.1-.19.76-3.58,1.15-7.93-1.1-10.89Z"/>
          <path class="cls-1" d="M153.01,36.66c-7.72-8.11-19.17-11.41-30.13-10.8-10.05.55-20.36,3.88-27.67,11.06-4.1,4.02-6.67,9.3-7.83,14.89-.58,2.77-.81,5.62-.78,8.45.02,1.45.11,2.9.27,4.34.11.96.06,3.03.89,3.67,1.81,1.41,5.58.96,7.73,1.04,3.08.12,6.17.14,9.26.11,6.25-.04,12.49-.25,18.74-.14,6.27.11,12.54.3,18.82.5,3.21.1,6.42.2,9.63.28,2.19.06,6.34.26,8.08-1.51.94-.95.85-1.85,1.04-3.1.22-1.42.34-2.85.39-4.29.11-2.89-.11-5.8-.65-8.65-1.07-5.63-3.46-11.07-7.33-15.35-.15-.17-.31-.34-.47-.5Z"/>
          <path class="cls-1" d="M164.38,166.46c-.39-5.75-1.37-11.47-2.32-17.15-.68-4.04-1.18-9.59-4.89-12.19-3.8-2.66-10.56-1.31-14.9-1.2-6.48.17-32.42.18-38.89,0-4.34-.12-11.09-1.47-14.9,1.2-3.52,2.46-4.11,7.6-4.76,11.44-1,5.92-2.05,11.9-2.45,17.9-.63,9.44-1.61,22.36,9.92,25.25,5.51,1.38,11.49,1.95,17.14,2.51,4.61.46,24.39.45,28.99,0,5.66-.56,11.62-1.16,17.14-2.51,11.53-2.8,10.55-15.88,9.92-25.25Z"/>
          <path class="cls-1" d="M158.35,216.17c.02-6.13.92-15.07-6.89-14.85-13.66.4-48.67-.85-57-.03-7.96.78-7.17,8.67-7.15,14.88.01,2.88-.63,7.14,1.31,9.58,1.63,2.05,4.41,2.02,6.78,2.17,4.82.3,9.65.49,14.47.47,8.37-.05,16.74-.06,25.1,0,4.82.03,9.66-.1,14.47-.41,2.49-.16,5.62.01,7.44-2.04,2.1-2.37,1.44-6.93,1.46-9.77Z"/>
          <path class="cls-2" d="M109.82,36.43c-5.56,1.42-12.09,6.72-11.8,13.05.12,2.6,3.47,3.56,4.88,1.32,1.24-1.96,1.82-4.21,3.29-6.06,1.45-1.81,3.18-3.45,5.19-4.62,2-1.16.67-4.27-1.56-3.7h0Z"/>
          <path class="cls-2" d="M96.3,57.25s.01.06.02.09c.07.28.2.53.39.74.15.24.36.43.61.56l.52.22c.39.1.77.1,1.16,0,.03-.01.05-.02.08-.03l.54-.23c.15-.12.31-.24.46-.35.22-.21.38-.45.47-.73.1-.18.15-.37.15-.57.05-.2.05-.4,0-.6,0-.2-.05-.39-.15-.57-.05-.19-.15-.36-.29-.5-.16-.25-.37-.44-.64-.58-.18-.08-.36-.15-.54-.23l-.6-.08-.6.08c-.18.08-.36.15-.54.23l-.46.35c-.22.21-.38.45-.47.73-.1.18-.15.37-.15.57-.07.3-.05.6.04.9h0Z"/>
          <path class="cls-2" d="M102.67,78.06c-.56.25-.17.08-.03.04.13-.03.25-.06.38-.07-.19.03-.38.05-.58.08.28-.03.56-.07.83-.11l-.57.08c.38-.05.7-.1,1.05-.22.76-.27,1.31-.82,1.42-1.65.11-.8-.27-1.54-.95-1.98-1.18-.76-2.56-.45-3.73.12-1.01.5-1.37,2.02-.77,2.95.3.46.74.86,1.29.99.6.14,1.1.03,1.66-.22h0Z"/>
          <path class="cls-4" d="M104.48,130.42c.48,0,.97.01,1.45.01.88,0,1.5-.22,2.19-.77.75-.6.75-2.13,0-2.73-.7-.55-1.32-.77-2.19-.77-.48,0-.97,0-1.45.01-1.11,0-2.17.97-2.12,2.12s.93,2.11,2.12,2.12h0Z"/>
          <path class="cls-4" d="M104.3,123.31c1.45.08,3.02.17,3.94-1.19l-.59.59c.21-.14.41-.29.59-.46.52-.5.52-1.43,0-1.93-.18-.17-.38-.32-.59-.46.2.2.39.39.59.59-.92-1.37-2.48-1.27-3.94-1.19-1.06.05-2.08.89-2.03,2.03s.89,1.97,2.03,2.03h0Z"/>
          <path class="cls-2" d="M94.94,146.98c-3.61,3.39-3.86,8.32-4.07,13.03-.18,4.05-.72,10.9,3.42,13.24.65.37,1.46.26,2-.26,2.6-2.52,1.81-6.72,1.73-10.02-.08-3.51-1.06-9.83,1.07-12.79,1.81-2.51-2.04-5.18-4.15-3.2h0Z"/>
          <path class="cls-2" d="M94.12,213.24c.18,1.25.33,2.59,1.27,3.53.99.99,2.53.68,3.27-.42.73-1.09.57-2.54.5-3.79-.08-1.54-1.32-2.73-2.9-2.52-.7.09-1.24.41-1.67.96-.54.7-.58,1.39-.46,2.24h0Z"/>
          <path class="cls-4" d="M148.12,217.14l.49-.17c.38-.13.71-.48.69-.9,0-.17-.05-.33-.13-.47-.11-.21-.34-.35-.56-.43l-.49-.17c-.36-.12-.83.01-1.08.29-.2.22-.33.48-.33.78,0,.28.12.58.33.78.27.27.71.41,1.08.29h0Z"/>
          <path class="cls-4" d="M153.49,181.96h.47c.2,0,.45-.02.63-.07.3-.08.56-.24.78-.45.1-.12.2-.25.29-.38.33-.45.33-1.28,0-1.73-.09-.13-.19-.26-.29-.38-.22-.22-.48-.37-.78-.45-.18-.05-.42-.07-.63-.07h-.47c-.45,0-.93.2-1.25.52s-.54.81-.52,1.25c.02.46.17.93.52,1.25s.77.52,1.25.52h0Z"/>
          <path class="cls-4" d="M153.76,175.52c2.32,0,2.33-3.61,0-3.61s-2.33,3.61,0,3.61h0Z"/>
          <path class="cls-4" d="M143.62,77.04c.38.18.8.44,1.23.4.27,0,.52-.07.75-.2.22-.13.4-.31.53-.53.27-.45.27-1.04,0-1.5-.18-.29-.42-.49-.71-.65l-.26-.14c-.35-.19-.78-.26-1.17-.15-.35.1-.73.37-.91.7-.19.35-.28.78-.15,1.17.12.36.35.74.7.91h0Z"/>
          <path class="cls-4" d="M151.33,61.33c2.22,0,2.22-3.45,0-3.45s-2.22,3.45,0,3.45h0Z"/>
        </g>
        <path class="cls-4" d="M89.85,70.05c11.99.99,22.65.39,34.67.64,5.89.12,11.78.09,17.67.1,5.38.01,13.13.55,17.25-1,1.6-.6,2.52-2.3,1.33-2.61-4.98-1.29-12.65-.79-17.77-.78-6.16.01-12.32-.03-18.47.1-12.03.25-25.25.91-37.29.91-.62,0,.91,2.52,2.61,2.66h0Z"/>
        <path class="cls-4" d="M99.62,86.49c6.8,1.76,30.27.96,35.3.82,3.81-.11,7.28.11,11.01-.73,1.87-.42,3.87-2.88,2.07-2.97-8.67-.4-18.53.62-27.25.54-6.91-.07-16.33.29-23.2-.54-1.63-.2.53,2.48,2.07,2.88h0Z"/>
        <path class="cls-4" d="M89.03,136.89c4.62.82,11.63.67,16.3.7,5.48.04,10.96-.05,16.44-.1,10.57-.1,24.18-.24,34.74-.56,2.08-.06-1.32-3.1-3.4-3.01-10.57.48-20.76.51-31.34.36-5.48-.08-10.96-.22-16.44-.23-4.66,0-8.54-.46-13.14.42-1.31.25-3.16,2.41-3.16,2.41Z"/>
      </g>
    </g>
  </g>
</svg>