<?xml version="1.0" encoding="UTF-8"?>
<svg id="Capa_2" data-name="Capa 2" xmlns="http://www.w3.org/2000/svg" viewBox="0 0 200 200">
  <defs>
    <style>
      .cls-1 {
        fill: #80dce8;
      }

      .cls-1, .cls-2, .cls-3 {
        stroke-width: 0px;
      }

      .cls-2 {
        fill: none;
      }

      .cls-3 {
        fill: #593737;
      }
    </style>
  </defs>
  <g id="colorful_icons" data-name="colorful icons">
    <g>
      <g>
        <path class="cls-3" d="m146.67,76.47c-1.09-2.53-3.02-4.68-5.39-6.09-2.8-1.66-5.84-2.2-9.05-1.77-1.83.24-4.12.79-5.93,1.86-.13-2.63-.27-5.42-.4-7.62,0-.02,0-.04,0-.05-.05-.06-.11-.11-.2-.15-.15-.07-.43-.05-.61-.03-.03,0-.06.01-.09.02-1.2-.08-2.41-.09-3.6-.12-2.76-.06-5.53-.08-8.29-.07-4.93,0-9.86.03-14.79.04-9.88.03-19.76.06-29.64.24-5.05.09-10.21-.59-15.18.32-.27.05-.43.45-.42.8-.57,3.01-.54,6.15-.63,9.2-.12,3.72-.24,7.42-.25,11.14-.03,6.8.44,13.56,1.56,20.28,1.16,6.95,3.22,13.98,7.12,19.91,4.23,6.44,10.18,10.14,17.67,11.63,10.5,2.08,23.57,1.95,32.61-4.48,5.83-4.14,9.45-10.62,11.69-17.49,2.55,1.62,6.18,1.96,8.93,1.55,5.58-.84,9.79-4.03,12.57-8.87,3.39-5.89,3.16-13.48,3.4-20.07.13-3.45.32-6.93-1.08-10.17Zm-20.02,3.04c3.71-1.22,8.2-2.9,9.97,2.01,1.43,3.98,1.13,9.02,1.22,13.2.1,4.48.13,9.66-5.01,11.2-1.86.56-4.1.75-6,.33-.68-.15-1.3-.38-1.87-.73,1.61-8.54,1.9-17.27,1.68-26.01Zm-23.19,51.24c-7.06,2.58-14.97,2.3-22.29,1.19-3.37-.51-6.77-1.26-9.71-2.98-6.19-3.62-9.92-10.28-11.86-16.86-3.54-11.98-3.43-21.54-4-37.52-.1-2.97.04-6.15-.31-9.15,4.28.44,8.77-.05,13.04.03,4.94.1,9.91-.22,14.85-.18,9.89.09,19.79.06,29.68.08,2.38,0,4.76-.03,7.14-.06,1.43-.02,2.9.01,4.34-.06-.33,7.58-.87,16.15-1.68,23.49-.97,8.76-2,19.22-5.35,27.45-2.64,6.49-7.17,12.1-13.87,14.55Zm40.9-34.96c-.55,6.49-2.63,13.71-9.52,16.18-1.94.69-3.89,1.13-5.95.93-1.99-.19-3.6-.75-5.22-1.66.19-.7.37-1.4.54-2.1.12-.5.23-1.01.34-1.51.32.15.64.27.91.36,2.21.72,4.66.54,6.91.11,6.17-1.17,7.65-6.02,8.12-11.64.31-3.64.31-7.23-.06-10.87-.25-2.46-.59-5.05-2.03-7.14-2.77-4.02-8.25-3.48-11.8-.82-.03-1.01-.07-2.01-.11-3.02-.02-.46-.04-.94-.06-1.44,2.84-1.48,4.93-2.27,7.63-2.02,2.95.28,5.39,1.41,7.45,3.56,2.36,2.46,3.01,7.31,3.09,10.58.09,3.53.06,6.97-.23,10.49Z"/>
        <path class="cls-1" d="m90.95,128.53c-2.78,0-5.77-.25-9.16-.76-2.68-.4-5.76-1.01-8.21-2.45-4.44-2.6-7.97-7.71-9.95-14.41-2.58-8.74-3.13-17.16-3.5-27.64,2.99.05,5.99.05,8.91.06l22.81.05c8.02.02,16.03.02,24.05.02h2.95c-.13,1.37-.25,3.68-.39,4.88l-.14,1.29c-.92,8.32-1.96,17.75-4.92,25.04-1.75,4.29-5.14,9.89-11.41,12.17-3.21,1.17-6.83,1.75-11.06,1.75Z"/>
      </g>
      <rect class="cls-2" width="200" height="200"/>
    </g>
  </g>
</svg>