<?xml version="1.0" encoding="UTF-8"?>
<svg id="Capa_2" xmlns="http://www.w3.org/2000/svg" viewBox="0 0 243.3 243.3">
  <defs>
    <style>
      .cls-1 {
        fill: #fff;
      }

      .cls-2 {
        fill: none;
      }

      .cls-3 {
        fill: #d5e4f0;
      }

      .cls-4 {
        fill: #4f3535;
      }

      .cls-5 {
        fill: #a1c2de;
      }
    </style>
  </defs>
  <g id="grocery_icons">
    <g>
      <rect class="cls-2" width="243.3" height="243.3"/>
      <g>
        <g>
          <path class="cls-5" d="M215.16,208.31c-2-8.13-4.23-16.19-6.33-24.29-5.43-21.04-8.02-42.54-9.08-64.22-1.12-23.05-1.1-46.17-3.6-69.13-.27-2.44-3.77-2.72-4.17-.56-21.59.44-145.6,2.85-146.92,2.75-4.19,40.96-1.26,82.35-10.41,122.79-2.03,8.98-4.57,17.84-6.87,26.75-1.61,6.22-5.26,14.43.92,19.2,6.31,4.87,16.1,6.25,23.78,7.09,9.65,1.06,19.33.41,29.01.32,4.12-.04,8.24-.03,12.36-.02,12.1,1.04,24.44.77,36.73.43,5.46.05,10.92,0,16.31-.39,1.91-.03,3.81-.05,5.71-.04,18.14.01,37.65,2.48,54.87-4.65,3.06-1.27,6.52-2.73,8.04-5.9,1.55-3.23.46-6.86-.35-10.13Z"/>
          <path class="cls-5" d="M189.08,20.31c-13.83-.14-27.66-.38-41.49-.43-28.5-.11-57.23-1.02-85.47,3.57-5.93.97-11.96.85-17.5,3.5-5.62,2.69-3.75,8.14-.51,11.86-3.73,4.93-8.71,13.98-.66,15.77,5.54,1.23,11.7.1,17.25-.44,7.31-.7,14.64-1.25,21.98-1.65,27.29-1.49,54.63-.93,81.94-.57,7.01.09,14.02.16,21.03.14,3.87-.01,10.35,1.23,13.5-1.95,3.19-3.22-1.39-6.88.88-10.28,2.57-3.85,7.57-5.17,8.18-10.41,1.19-10.19-12.97-9.05-19.12-9.11Z"/>
          <path class="cls-4" d="M58.73,40.66c9.24-.76,18.48-1.5,27.73-2.12,8.51-.57,17.82.06,26.13-1.89,1.37-.32,1.49-2.66,0-2.9-8.38-1.31-17.69.18-26.13.71-9.27.59-18.5,1.38-27.73,2.4-2.38.26-2.46,4,0,3.79h0Z"/>
          <path class="cls-4" d="M132.55,37.46c2.61.03,5.37.3,7.96-.05,1.39-.19,1.39-2.62,0-2.82-2.59-.36-5.35-.08-7.96-.05-1.88.02-1.88,2.9,0,2.92h0Z"/>
          <path class="cls-4" d="M154.31,38.96c3.78.14,8.14.75,11.83-.31,1.68-.49,1.69-2.93,0-3.42-3.69-1.06-8.04-.45-11.83-.31-2.6.1-2.6,3.95,0,4.04h0Z"/>
          <path class="cls-4" d="M196.69,54.61c-.1-1.24-.13-1.72-.13-2.95-11.06.62-28.75-.73-35.48-.95-13.29-.42-26.49-1.43-39.8-1.5-12.58-.06-25.24.25-37.72,1.97-12.94,1.79-25.4,4.35-38.52,3.47-.13,0-.26,0-.38,0-.04.8-.15,1.61-.15,2.38,0,.4,0,.79-.01,1.19.11.03.22.06.33.08,12.95,1.96,25.6-.83,38.41-2.47,14.56-1.86,29.38-1.81,44.03-1.46,14.66.35,29.29,1.24,43.95,1.53,6.96.14,13.95.23,20.91-.01,1.56-.06,3.14-.11,4.63-.4-.03-.3-.05-.6-.08-.89Z"/>
          <path class="cls-1" d="M188.1,211.29c2.98.38,6.3.67,8.94-1.07,1.29-.85,1.62-3.12,0-3.89-2.58-1.22-5.31-1.06-8.07-1.47-1.93-.28-3.79.59-4.08,2.72-.29,2.12,1.26,3.46,3.21,3.7h0Z"/>
          <path class="cls-1" d="M192.37,193.29c.99.72,2.26.77,3.44.87,1.22.1,2.47.19,3.67-.11,2.87-.73,3.04-5.35,0-5.98-2.59-.54-6.19.21-7.85,2.38-.73.95-.07,2.26.75,2.85h0Z"/>
          <path class="cls-1" d="M60.1,83.17c1.2-.21,2.32-.54,3.26-1.36,1.1-.96.9-3.22-.49-3.84-.6-.26-.96-.41-1.62-.47-.19-.02-.38-.02-.57-.03-.45-.02-.89.04-1.34.09-.8.1-1.42.29-2.02.84-.66.61-.9,1.54-.78,2.4.1.77.45,1.38,1.07,1.86.76.59,1.56.67,2.49.51h0Z"/>
          <path class="cls-1" d="M63.64,68.9c.89.18,1.86.17,2.67-.31.41-.24.77-.64.98-1.07.25-.52.3-.76.36-1.34.05-.44-.25-1.07-.56-1.36-.36-.33-.85-.59-1.36-.56-.06,0-.12,0-.19,0,.18.02.37.05.55.07-.1-.01-.2-.04-.3-.08.19.08.37.16.56.24-.48-.23-.75-.33-1.3-.35-.1,0-.19,0-.28-.02.22.03.43.06.65.09-.11-.02-.21-.05-.31-.09l.6.25s-.1-.05-.14-.07c-1.32-.74-2.99-.19-3.57,1.21-.27.65-.27,1.29,0,1.94.29.68.88,1.3,1.63,1.46h0Z"/>
          <g>
            <path class="cls-4" d="M98.24,80.5c-.12.15-.33.26-.63.33-.31.07-.62,0-.94-.24-.23-.17-.51-.36-.83-.55-.32-.19-.67-.37-1.05-.55-.38-.18-.76-.32-1.14-.44-.38-.12-.74-.17-1.09-.17-.44,0-.9.1-1.38.31s-.9.5-1.25.88c-.67.73-.91,1.44-.72,2.12.19.69.69,1.32,1.51,1.9.53.38,1.09.77,1.71,1.16s1.22.78,1.82,1.16c.6.38,1.17.74,1.71,1.09.54.35,1.01.66,1.42.92.53.35,1.02.73,1.49,1.14.47.41.88.87,1.23,1.38.35.51.63,1.09.83,1.73s.31,1.37.31,2.19c-.2,1.6-.84,2.88-1.9,3.83-1.07.95-2.3,1.55-3.7,1.82-1.23.23-2.43.19-3.61-.13-1.18-.32-2.18-.93-3-1.84-.21-.23-.38-.55-.53-.96-.15-.41-.16-.7-.04-.88.17-.26.48-.44.92-.55.44-.1.77-.08,1.01.07.67.61,1.46,1.06,2.36,1.33.9.28,1.85.3,2.84.07.76-.17,1.37-.5,1.84-.98s.76-1.03.88-1.64c.15-.64.07-1.31-.24-1.99s-.85-1.31-1.64-1.86c-1.2-.9-2.47-1.75-3.83-2.54-1.36-.79-2.74-1.69-4.14-2.71-.67-.58-1.16-1.23-1.47-1.93s-.46-1.38-.46-2.06.15-1.36.44-1.99c.29-.63.7-1.2,1.23-1.71s1.14-.93,1.84-1.25c.7-.32,1.47-.51,2.32-.57,1.17-.06,2.29.18,3.37.72,1.08.54,1.95,1.2,2.62,1.99.15.17.21.39.2.66-.01.26-.11.51-.28.74Z"/>
            <path class="cls-4" d="M106.16,99.19c-.15.5-.34.94-.57,1.33s-.48.62-.74.68c-.55.15-.98.06-1.27-.26-.29-.32-.41-.73-.35-1.23.23-1.75.61-3.59,1.14-5.54.52-1.94,1.14-3.88,1.84-5.82s1.47-3.82,2.3-5.65c.83-1.82,1.69-3.48,2.56-4.97.15-.23.31-.37.5-.42.19-.04.36-.04.5.02.15-.12.32-.22.53-.31s.41-.13.61-.13c.09,0,.18.01.29.04.1.03.21.12.33.26.12.15.25.36.42.63.16.28.36.68.59,1.2.41,1.49.88,3.02,1.42,4.6.54,1.58,1.1,3.15,1.68,4.73.09-.03.17-.05.24-.07.07-.01.15-.04.24-.07.32-.03.69-.01,1.09.04s.69.26.83.61c.17.44.15.82-.09,1.14-.23.32-.66.64-1.27.96.38.93.76,1.85,1.14,2.73.38.89.77,1.76,1.18,2.6.03.15.07.37.13.68.06.31.09.61.11.92.01.31,0,.59-.07.85-.06.26-.17.44-.35.53-.2.09-.42.07-.63-.04-.22-.12-.43-.27-.63-.46-.21-.19-.39-.39-.55-.61-.16-.22-.29-.42-.37-.59-.5-.96-.97-1.93-1.42-2.91-.45-.98-.88-1.96-1.29-2.95-1.22.23-2.56.44-4,.61s-2.87.29-4.27.35c-.32,1.11-.63,2.2-.94,3.26-.31,1.07-.59,2.14-.85,3.22ZM112.37,80.81c-1.34,3-2.51,6.01-3.5,9.01,1.95-.06,4.04-.31,6.26-.74-1.05-2.65-1.97-5.41-2.76-8.27Z"/>
            <path class="cls-4" d="M128.52,81.55c-.15,1.02-.28,2.15-.39,3.39-.12,1.24-.23,2.5-.35,3.76-.12,1.27-.23,2.5-.33,3.7s-.18,2.25-.24,3.15c.99-.17,2.09-.38,3.3-.61,1.21-.23,2.44-.47,3.7-.72,1.25-.25,2.49-.47,3.7-.66,1.21-.19,2.31-.33,3.3-.42.09,0,.19.03.31.09.23.12.35.31.35.57,0,.38-.07.66-.22.85-.15.19-.32.33-.53.44-.21.1-.42.2-.63.28s-.42.22-.59.39c-.9.23-1.9.48-2.98.74-1.08.26-2.19.53-3.33.79-1.14.26-2.28.52-3.41.79s-2.2.53-3.19.79c-.9.23-1.59.07-2.06-.48-.47-.55-.66-1.46-.57-2.71.15-2.36.32-4.73.53-7.11s.45-4.75.74-7.11c.06-.5.23-.9.5-1.23.28-.32.62-.51,1.03-.57.67-.09,1.07.08,1.2.5.13.42.18.88.15,1.38Z"/>
            <path class="cls-4" d="M161.51,81.73c-3.01-.15-5.89.09-8.67.7-2.77.61-5.51,1.44-8.23,2.49-.7.26-1.23.23-1.6-.09-.37-.32-.55-.64-.55-.96.2-.55.57-1.01,1.09-1.36,5.98-2.92,11.96-4,17.94-3.24.29.09.53.3.72.63.19.34.25.62.2.85-.06.29-.15.53-.26.72-.12.19-.34.27-.66.24ZM155.3,97c0,.32-.11.61-.33.85s-.49.4-.81.46c-.58.09-.96-.01-1.14-.31s-.28-.63-.31-1.01c-.03-2.04-.07-4.08-.11-6.1-.04-2.03-.14-4.06-.29-6.1,0-.12-.01-.26-.04-.42s-.03-.32,0-.48c.03-.16.09-.3.2-.42.1-.12.27-.2.5-.26.67-.12,1.15,0,1.44.33.29.33.44.66.44.98.23,2.1.38,4.19.44,6.26s.06,4.14,0,6.21Z"/>
          </g>
        </g>
        <g>
          <path class="cls-1" d="M180.35,178.4c-5.23-10.36-12.71-19.74-20.48-28.31-7.37-8.14-15.97-17.49-25.86-22.6-9.38-4.86-20.05-2.34-28.61,3.03-10.16,6.38-18.24,16.55-25.54,25.92-6.57,8.44-12.07,17.37-17.97,26.24-4.59,6.91-.72,12.06,6.24,14.34,11.4,3.73,23.38,5.78,35.32,6.74,12.5,1.01,25.13.55,37.61-.65,10.52-1.01,22.88-1.7,32.64-6.03,8.14-3.62,10.67-10.68,6.64-18.67Z"/>
          <path class="cls-4" d="M99.26,146.37c-1.56,2.19-3.8,5.2-2.28,7.94.38.69,1.33,1.1,2.1.85,2.67-.88,3.37-3.99,4.58-6.23,1.58-2.93-2.51-5.2-4.39-2.57h0Z"/>
          <path class="cls-4" d="M118.62,147.85c.03.46.07.92.1,1.38.06.82.22,1.52.63,2.25.49.88,1.53,1.33,2.5,1.2,1.04-.14,1.72-.84,2.08-1.8.37-.98.2-2.02.12-3.04-.11-1.41-1.17-2.79-2.72-2.72-1.38.06-2.83,1.2-2.72,2.72h0Z"/>
          <path class="cls-4" d="M128.59,167.2c.08.09.16.17.24.26.01.01.35.44.16.18-.18-.24.05.09.08.13.16.23.32.47.51.67.15.17.3.32.45.49-.26-.3.11.17.26.3.16.14.34.27.52.4.66.49,1.87.15,2.21-.58.76-1.62.24-3.32-.61-4.8-.72-1.27-2.45-1.56-3.58-.68-1.16.89-1.26,2.58-.25,3.64h0Z"/>
          <path class="cls-3" d="M134.77,151.13c.22.3.45.61.65.93.04.06.23.49.28.5l-.19-.45c.07.27.17.52.29.77.61,1.45,1.56,2.61,3.17,3.05-.7-.54-1.39-1.07-2.09-1.61.35.5-.2-.67.06.12.38,1.12,1.32,1.89,2.52,1.92,1.15.03,2.1-.56,2.91-1.33-.51.3-1.03.6-1.54.9,2.81-.87,3.87-4.14,2.46-6.65-.79-1.4-2.16-2.35-3.51-3.16-1.34-.8-3.36-.61-4.44.57-1.02,1.11-1.55,3.11-.57,4.44h0Z"/>
          <path class="cls-3" d="M102.13,177.78l.19,1.47c.08.58.18,1.05.61,1.48.36.36.96.64,1.48.61.54-.02,1.1-.2,1.48-.61.11-.14.22-.28.33-.42.19-.33.28-.68.29-1.06.06-.49.13-.98.19-1.47.07-.54-.31-1.25-.67-1.62-.4-.4-1.05-.69-1.62-.67-.59.03-1.2.22-1.62.67-.38.41-.75,1.03-.67,1.62h0Z"/>
          <path class="cls-3" d="M79.45,174.51c0,.35,0,.69-.04,1.04-.01.16-.14.56-.08.71.09-.61.1-.74.03-.38-.04.17-.08.34-.12.51-.06.29-.12.58-.18.87-.66,3.02,1.07,6.46,4.52,6.44,1.72-.01,3.43-1.06,4.29-2.54.58-1,.83-2.35.89-3.49.11-1.88-.47-3.68-1.33-5.33-1.98-3.81-8.05-1.98-7.99,2.16h0Z"/>
          <path class="cls-3" d="M141.6,184.7c1.82,1.18,3.98,3.06,6.26,2.91,3.13-.21,4.81-3.2,3.44-6-.99-2.03-3.68-2.96-5.59-3.94-1.89-.97-4.51-.56-5.57,1.46s-.45,4.33,1.46,5.57h0Z"/>
        </g>
      </g>
    </g>
  </g>
</svg>