<?xml version="1.0" encoding="UTF-8"?>
<svg id="Capa_2" xmlns="http://www.w3.org/2000/svg" viewBox="0 0 243.3 243.3">
  <defs>
    <style>
      .cls-1 {
        fill: #a36545;
      }

      .cls-2 {
        fill: #fff;
      }

      .cls-3 {
        fill: none;
      }

      .cls-4 {
        fill: #4f3535;
      }

      .cls-5 {
        fill: #f7bc3b;
      }
    </style>
  </defs>
  <g id="grocery_icons">
    <g>
      <rect class="cls-3" width="243.3" height="243.3"/>
      <g>
        <path class="cls-5" d="M216.88,119.24c-2.61-17.37-10.44-36.8-23.04-49.34-.84-.83-7.91-11.1-7.38-12.27.19-.43-21.91,0-21.74.37.06.14-56.48-1.9-90.29,1.6-15.74,1.63-23.48,9.94-23.85,10.31-12.61,12.54-20.43,31.96-23.04,49.34-2.79,18.58,1.12,36.88,10.33,53.15,9.04,15.98,20.82,32.11,34.46,44.46,7.47,6.77,15.02,9.1,24.93,10.49,16.34,2.28,33.58,2.28,49.91,0,9.94-1.39,17.42-3.68,24.93-10.49,13.63-12.35,25.42-28.49,34.46-44.46,9.2-16.27,13.12-34.57,10.33-53.15Z"/>
        <path class="cls-1" d="M205.32,67.54c-.97-6.13-7.22-8.77-11.59-12.09-7.52-5.72-4.46-15.93-4.16-24.18,0-.08,0-.16-.01-.23,3.66-9.65-21.2-12.19-25.73-12.94-9.03-1.51-18.15-2.69-27.31-2.89-18.37-.39-36.73-.23-54.89,2.72-4.59.75-30.48,3.29-26.76,13.11,0,.08-.02.15-.01.24.31,8.26,3.38,18.45-4.15,24.18-4.4,3.34-10.57,5.96-11.59,12.09-.96,5.78,5.12,7.05,9.68,6.63,3.64-.33,6.96-1.86,10.21-3.41,3.55-1.7,7.25-3.9,11.29-4.05.34-.01.7,0,.98.17.44.27.58.84.67,1.35.5,2.62.89,5.06,2.2,7.41,1.61,2.87,4.18,5.12,7.53,5.53,7.68.96,11.8-5.36,17.73-8.66,2.73-1.52,4.86-2.63,7.41.13,1.2,1.3,1.73,3.26,2.93,4.63,1.83,2.1,4.24,3.65,6.87,4.55.55.19,1.12.35,1.7.48,1.31.35,2.69.5,4.07.47,1.25,0,2.49-.15,3.67-.46.59-.14,1.17-.3,1.73-.49,2.63-.89,5.05-2.45,6.87-4.55,3.53-4.06,3.96-8.37,10.34-4.76,5.88,3.33,10.11,9.61,17.73,8.66,3.27-.41,5.83-2.57,7.44-5.35.84-1.45,1.4-3.02,1.8-4.64.27-1.08.12-3.63,1.12-4.23.29-.17.64-.2.97-.2,4.08-.03,7.79,2.32,11.34,4.01,3.25,1.55,6.57,3.09,10.21,3.41,4.61.41,10.6-.83,9.68-6.63Z"/>
        <path class="cls-2" d="M173.55,131.27c-.71-4.32-2.1-8.46-4.35-12.17-9.63-15.83-31.22-22.05-48.77-20.7-17.31,1.33-33.26,9.6-41.23,25.64-9.29,18.7-7.57,45.17,8.88,59.33,15.86,13.65,43.65,16.99,61.46,5.21,10.71-7.09,18.02-18.38,21.67-30.57,2.45-8.2,3.81-17.85,2.34-26.74Z"/>
        <path class="cls-2" d="M66.66,32.97c19.01,2.58,39.56,5.72,58.64,2.3,1.91-.34,1.19-2.91-.42-3.1-9.57-1.16-19.32-.59-28.95-.95-9.61-.36-19.29-.5-28.87-1.23-1.68-.13-2.1,2.75-.4,2.98h0Z"/>
        <path class="cls-2" d="M138.42,35.49c5.62,1.15,11.13,1.06,16.83.51,4.95-.47,10.75-.69,14.97-3.46,1.14-.75,1.2-2.99-.42-3.24-4.81-.76-9.73.7-14.55,1.11-5.42.46-10.86.4-16.27.96-2.16.23-3.07,3.61-.56,4.12h0Z"/>
        <path class="cls-2" d="M178.68,32.7l.26-.18s.09-.06.13-.09l.07-.05c.3-.16.55-.39.73-.67.24-.32.2-.25.36-.62.05-.12.1-.24.15-.37.03-.06.05-.13.08-.19l.08-.58c.01-.3-.05-.58-.19-.83-.19-.44-.47-.77-.89-1.03-.3-.19-.57-.36-.94-.46-.41-.11-.82-.09-1.23-.09-.95.01-1.94.51-2.39,1.37-.35.66-.48,1.4-.28,2.13.18.67.67,1.3,1.27,1.65.43.25.9.38,1.4.38.5,0,.97-.13,1.4-.38h0Z"/>
        <path class="cls-4" d="M193.74,40.78c-22.51,4.83-44.59,9.45-67.7,10.41-22.86.94-45.52-1.19-67.83-6.23-1.29-.29-1.86,1.51-.76,2.02-2.13-.45-4.25-.9-6.37-1.4-1.54-.36-2.19,1.97-.66,2.38,23.17,6.21,47.23,8.69,71.18,8.83,23.88.14,49.57-1.25,72.32-9.12,1.15-.4.68-1.99-.49-1.79-12.21,2-24.23,4.63-36.55,5.98-6.09.67-12.21,1.12-18.33,1.4,18.86-1.45,38-4.5,55.9-9.94,1.63-.5.96-2.9-.7-2.54Z"/>
        <path class="cls-2" d="M65.32,85.43c-7.64,8.88-17.06,22.46-13.29,34.83.76,2.51,4.2,3.01,5.57.73,2.85-4.73,3.7-10.11,5.48-15.27,1.94-5.66,4.29-11.16,7.53-16.2,2.05-3.17-2.78-7.01-5.3-4.09h0Z"/>
        <path class="cls-2" d="M49.34,133.17c.05,2.33-.03,4.78,1.6,6.64.83.95,2.63.95,3.46,0,1.63-1.86,1.55-4.32,1.6-6.64.04-1.74-1.56-3.41-3.33-3.33-1.77.08-3.37,1.46-3.33,3.33h0Z"/>
        <path class="cls-2" d="M185.65,168.86c2.24-2.67,4.51-6.11,3.48-9.78-.48-1.72-2.67-2.28-3.94-1.04-1.81,1.76-2.6,4.26-4.16,6.2-1.11,1.37-1.34,3.28,0,4.62,1.16,1.16,3.48,1.36,4.62,0h0Z"/>
        <g>
          <path class="cls-4" d="M155.72,125.45c-.05-.12-.12-.23-.21-.35-.09-.12-.18-.23-.28-.31-4.6-5.48-11.72-1.57-16.22,2.27-2.78,2.36-6.29,7.61-7.97,10.85-1.21,2.34-2.86,3.83-1.38,6.4-.15,1.06.1,2.17.8,3.02,1.01,1.23,2.5,1.44,4,1.54,3.29.23,6.6-.29,9.7-1.38,5.81-2.04,10.64-6.56,12.47-12.51,1-3.26.92-6.63-.92-9.53ZM148.05,141.72c-2.44,1.86-5.39,3.02-8.39,3.56-1.55.28-3.12.4-4.69.3-.7-.04-2.41.1-1.97-1.04.28-.73.65.17.08-.31-.12-.11.05-1.43.08-1.64.07-.58.19-1.15.37-1.71.41-1.31,2.22-6.29,7.02-10.7,2.99-2.74,9.19-7.21,12.4-2.98,3.26,4.72-1.05,11.59-4.9,14.52Z"/>
          <path class="cls-4" d="M94.54,165.65c5.88,2.05,12.39.84,17.47-2.63,2.72-1.86,5.09-4.21,6.86-7,.8-1.27,1.52-2.59,1.13-4.13-.27-1.07-1.02-1.93-1.96-2.44-1.19-2.72-3.37-2.27-5.97-2.68-3.6-.57-9.91-.85-13.46,0-5.76,1.36-13.13,4.77-11.44,11.73.01.13.04.27.09.41.04.14.09.26.16.37,1.25,3.2,3.92,5.27,7.13,6.39ZM90.46,158.06c-1.5-5.09,5.77-7.44,9.75-8.22,6.4-1.26,11.48.24,12.78.68.56.19,1.09.43,1.6.72.18.1,1.35.75,1.36.91.06.75-.46-.09.3.12,1.18.33.05,1.62-.33,2.21-.85,1.32-1.88,2.52-3.02,3.6-2.22,2.1-4.9,3.78-7.84,4.65-4.63,1.36-12.73.76-14.6-4.66Z"/>
          <path class="cls-5" d="M137.47,153.07c-.1-1.34-.38-2.84-.82-4.42-.45-1.65-1.09-3.38-1.88-5.09-.85-1.86-1.87-3.68-3.04-5.34-2.54-3.65-5.77-6.53-9.35-7.31-3.44-.74-7.04.86-8.67,4-1.83,3.57-1.5,8.25-.6,12.35.22,1.07.5,2.11.77,3.07.13.45.28.91.44,1.35.81,2.29,1.95,4.47,3.39,6.39,1.11,1.5,2.42,2.86,3.9,4.02.42.33.85.64,1.29.94,7.15,4.74,14.13-.72,14.56-8.24.03-.56.03-1.15-.01-1.74Z"/>
          <path class="cls-4" d="M134.77,143.56c-2.15,1.8-4.86,3.17-7.04,4.25-4.22,2.07-8.72,3.56-13.4,3.88-.17-.44-.31-.9-.44-1.35-.28-.96-.55-2-.77-3.07,7.04-2.11,13.17-4.36,18.62-9.04,1.17,1.66,2.19,3.48,3.04,5.34Z"/>
          <path class="cls-4" d="M137.48,154.8c-4.1,3.88-10.18,6.22-15.85,7.3-1.48-1.16-2.8-2.52-3.9-4.02,3.45-.73,6.87-1.82,9.99-3.42,3.24-1.66,6.14-3.59,8.93-6.01.44,1.58.72,3.08.82,4.42.04.59.04,1.17.01,1.74Z"/>
        </g>
      </g>
    </g>
  </g>
</svg>