<?xml version="1.0" encoding="UTF-8"?>
<svg id="Capa_2" data-name="Capa 2" xmlns="http://www.w3.org/2000/svg" viewBox="0 0 200 200">
  <defs>
    <style>
      .cls-1 {
        fill: #80dce8;
      }

      .cls-1, .cls-2, .cls-3 {
        stroke-width: 0px;
      }

      .cls-2 {
        fill: none;
      }

      .cls-3 {
        fill: #593737;
      }
    </style>
  </defs>
  <g id="colorful_icons" data-name="colorful icons">
    <g>
      <g>
        <g>
          <path class="cls-3" d="m166.44,76.27c-1.09-2.54-3.02-4.69-5.4-6.1-2.81-1.66-5.85-2.21-9.07-1.78-1.83.25-4.13.79-5.94,1.86-.13-2.63-.27-5.43-.4-7.63,0-.02,0-.04,0-.05-.05-.06-.11-.11-.2-.15-.15-.07-.43-.05-.61-.03-.03,0-.06.01-.09.02-1.2-.08-2.41-.09-3.61-.12-2.77-.06-5.54-.08-8.31-.07-4.94,0-9.88.03-14.82.04-9.9.03-19.8.06-29.7.24-5.06.09-10.23-.59-15.21.32-.27.05-.43.45-.43.8-.58,3.01-.54,6.16-.64,9.22-.12,3.72-.24,7.43-.25,11.16-.03,6.82.44,13.59,1.56,20.32,1.16,6.96,3.22,14.01,7.13,19.95,4.24,6.46,10.2,10.16,17.71,11.65,10.52,2.09,23.61,1.96,32.68-4.49,5.84-4.15,9.47-10.64,11.72-17.53,2.56,1.63,6.19,1.97,8.95,1.55,5.6-.84,9.81-4.04,12.6-8.89,3.4-5.9,3.16-13.5,3.41-20.11.13-3.46.32-6.94-1.08-10.19Zm-20.06,3.04c3.72-1.22,8.21-2.91,9.99,2.01,1.44,3.99,1.13,9.04,1.22,13.22.1,4.48.13,9.68-5.02,11.23-1.86.56-4.11.76-6.01.33-.69-.15-1.3-.38-1.87-.73,1.61-8.56,1.9-17.3,1.69-26.06Zm-23.24,51.34c-7.07,2.58-15,2.3-22.33,1.2-3.37-.51-6.78-1.26-9.73-2.98-6.2-3.63-9.94-10.3-11.89-16.89-3.54-12-3.44-21.58-4-37.6-.1-2.97.04-6.16-.31-9.17,4.29.44,8.78-.05,13.07.03,4.95.1,9.93-.22,14.88-.18,9.91.09,19.82.06,29.74.08,2.39,0,4.77-.03,7.16-.06,1.43-.02,2.91.01,4.35-.06-.33,7.6-.87,16.18-1.68,23.53-.97,8.78-2,19.26-5.36,27.51-2.64,6.5-7.19,12.12-13.89,14.58Zm40.98-35.03c-.55,6.51-2.63,13.74-9.54,16.21-1.95.7-3.9,1.14-5.96.94-1.99-.19-3.6-.75-5.23-1.66.19-.7.37-1.4.54-2.11.12-.5.23-1.01.34-1.51.32.15.64.27.91.36,2.22.72,4.67.54,6.93.11,6.18-1.17,7.67-6.03,8.14-11.67.31-3.65.31-7.25-.06-10.89-.25-2.47-.6-5.06-2.04-7.15-2.78-4.03-8.27-3.49-11.83-.82-.03-1.01-.07-2.02-.11-3.03-.02-.46-.04-.94-.06-1.44,2.85-1.48,4.94-2.27,7.64-2.02,2.95.28,5.4,1.42,7.46,3.57,2.36,2.46,3.01,7.32,3.1,10.6.09,3.54.06,6.98-.23,10.51Z"/>
          <path class="cls-1" d="m110.62,128.44c-2.78,0-5.78-.25-9.18-.76-2.69-.41-5.77-1.01-8.22-2.45-4.45-2.6-7.99-7.73-9.97-14.44-2.59-8.76-3.13-17.2-3.51-27.7,3,.05,6,.05,8.93.06l22.85.05c8.03.02,16.07.02,24.1.02h2.96c-.13,1.37-.26,3.69-.39,4.89l-.14,1.29c-.92,8.34-1.96,17.79-4.93,25.09-1.75,4.3-5.15,9.91-11.43,12.2-3.22,1.18-6.84,1.75-11.08,1.75Z"/>
        </g>
        <path class="cls-3" d="m80.63,131.21c-6.63,1.97-13.88,1.66-20.64.64-3.37-.51-6.78-1.26-9.73-2.98-6.2-3.63-9.94-10.3-11.89-16.89-3.54-12-3.44-21.58-4-37.6-.1-2.97.04-6.16-.31-9.17,4.29.44,8.78-.05,13.07.03,4.95.1,9.93-.22,14.88-.18,2.05.02,4.1.02,6.16.03.08-.67.17-1.34.29-2.01.03-.27.07-.54.14-.8-7.04.03-14.09.08-21.13.2-5.06.09-10.23-.59-15.21.32-.27.05-.43.45-.43.8-.58,3.01-.54,6.16-.64,9.22-.12,3.72-.24,7.43-.25,11.16-.03,6.82.44,13.59,1.56,20.32,1.16,6.96,3.22,14.01,7.13,19.95,4.24,6.46,10.2,10.16,17.71,11.65,8.48,1.68,18.63,1.92,27-1.43-1.33-.98-2.57-2.07-3.72-3.27Z"/>
        <path class="cls-1" d="m76.93,126.58c-3.76-5.73-6.3-12.78-7.77-21.58-1.12-6.72-1.65-13.6-1.62-21.03,0-.26.01-.52.01-.78l-19.71-.04c-2.93,0-5.94-.01-8.93-.06.37,10.5.92,18.94,3.51,27.7,1.98,6.71,5.52,11.84,9.97,14.44,2.46,1.44,5.54,2.05,8.22,2.45,3.39.51,6.39.76,9.18.76s5.47-.29,7.85-.83c-.24-.34-.48-.68-.71-1.03Z"/>
      </g>
      <rect class="cls-2" width="200" height="200"/>
    </g>
  </g>
</svg>