<?xml version="1.0" encoding="UTF-8"?>
<svg id="Capa_2" data-name="Capa 2" xmlns="http://www.w3.org/2000/svg" viewBox="0 0 200 200">
  <defs>
    <style>
      .cls-1 {
        fill: #80dce8;
      }

      .cls-1, .cls-2, .cls-3 {
        stroke-width: 0px;
      }

      .cls-2 {
        fill: none;
      }

      .cls-3 {
        fill: #593737;
      }
    </style>
  </defs>
  <g id="colorful_icons" data-name="colorful icons">
    <g>
      <g>
        <g>
          <g>
            <path class="cls-3" d="m187.78,76.47c-1.09-2.53-3.02-4.68-5.39-6.09-2.8-1.66-5.84-2.2-9.05-1.77-1.83.24-4.13.79-5.93,1.86-.13-2.63-.27-5.42-.4-7.62,0-.02,0-.04,0-.05-.05-.06-.11-.11-.2-.15-.15-.07-.43-.05-.61-.03-.03,0-.06.01-.09.02-1.2-.08-2.41-.09-3.6-.12-2.76-.06-5.53-.08-8.3-.07-4.93,0-9.87.03-14.8.04-9.89.03-19.77.06-29.65.24-5.05.09-10.21-.59-15.18.32-.27.05-.43.45-.43.8-.58,3.01-.54,6.15-.63,9.21-.12,3.72-.24,7.42-.25,11.14-.03,6.8.44,13.57,1.56,20.29,1.16,6.95,3.22,13.98,7.12,19.92,4.23,6.45,10.18,10.15,17.68,11.64,10.5,2.08,23.57,1.95,32.63-4.48,5.83-4.15,9.45-10.62,11.7-17.5,2.55,1.62,6.18,1.96,8.93,1.55,5.59-.84,9.79-4.03,12.58-8.87,3.39-5.9,3.16-13.48,3.4-20.08.13-3.45.32-6.93-1.08-10.17Zm-20.03,3.04c3.71-1.22,8.2-2.9,9.97,2.01,1.43,3.98,1.13,9.03,1.22,13.2.1,4.48.13,9.67-5.01,11.21-1.86.56-4.1.75-6,.33-.68-.15-1.3-.38-1.87-.73,1.61-8.54,1.9-17.28,1.68-26.02Zm-23.2,51.26c-7.06,2.58-14.97,2.3-22.3,1.2-3.37-.51-6.77-1.26-9.71-2.98-6.19-3.62-9.92-10.28-11.87-16.86-3.54-11.98-3.44-21.55-4-37.54-.1-2.97.04-6.15-.31-9.15,4.29.44,8.77-.05,13.05.03,4.94.1,9.91-.22,14.85-.18,9.89.09,19.79.06,29.69.08,2.38,0,4.77-.03,7.15-.06,1.43-.02,2.9.01,4.35-.06-.33,7.58-.87,16.15-1.68,23.5-.97,8.77-2,19.23-5.35,27.46-2.64,6.49-7.17,12.11-13.87,14.55Zm40.91-34.98c-.55,6.5-2.63,13.72-9.52,16.19-1.94.7-3.89,1.13-5.95.94-1.99-.19-3.6-.75-5.22-1.66.19-.7.37-1.4.54-2.1.12-.5.23-1.01.34-1.51.32.15.64.27.91.36,2.21.72,4.67.54,6.91.11,6.17-1.17,7.65-6.02,8.13-11.65.31-3.64.31-7.23-.06-10.87-.25-2.46-.59-5.05-2.03-7.14-2.77-4.03-8.26-3.48-11.81-.82-.03-1.01-.07-2.01-.11-3.02-.02-.46-.04-.94-.06-1.44,2.84-1.48,4.93-2.27,7.63-2.02,2.95.28,5.39,1.41,7.45,3.56,2.36,2.46,3.01,7.31,3.09,10.59.09,3.53.06,6.97-.23,10.49Z"/>
            <path class="cls-1" d="m132.04,128.56c-2.78,0-5.77-.25-9.16-.76-2.68-.4-5.76-1.01-8.21-2.45-4.44-2.6-7.98-7.72-9.95-14.42-2.58-8.75-3.13-17.17-3.5-27.65,2.99.05,5.99.05,8.92.06l22.82.05c8.02.02,16.04.02,24.06.02h2.96c-.13,1.37-.25,3.69-.39,4.88l-.14,1.29c-.92,8.33-1.96,17.76-4.92,25.05-1.75,4.29-5.14,9.89-11.41,12.18-3.21,1.17-6.83,1.75-11.06,1.75Z"/>
          </g>
          <path class="cls-3" d="m102.1,131.32c-6.62,1.97-13.86,1.66-20.61.64-3.37-.51-6.77-1.26-9.71-2.98-6.19-3.62-9.92-10.28-11.87-16.86-3.54-11.98-3.44-21.55-4-37.54-.1-2.97.04-6.15-.31-9.15,4.29.44,8.77-.05,13.05.03,4.94.1,9.91-.22,14.85-.18,2.05.02,4.1.02,6.15.03.08-.67.17-1.33.29-2.01.03-.27.07-.54.14-.8-7.03.03-14.06.08-21.1.2-5.05.09-10.21-.59-15.18.32-.27.05-.43.45-.42.8-.58,3.01-.54,6.15-.63,9.21-.12,3.72-.24,7.42-.25,11.14-.03,6.8.44,13.57,1.56,20.29,1.16,6.95,3.22,13.98,7.12,19.92,4.23,6.45,10.18,10.15,17.68,11.64,8.47,1.68,18.6,1.92,26.96-1.43-1.33-.98-2.56-2.07-3.72-3.27Z"/>
          <path class="cls-1" d="m98.41,126.7c-3.76-5.72-6.29-12.76-7.75-21.54-1.12-6.71-1.65-13.58-1.62-20.99,0-.26.01-.52.01-.78l-19.67-.04c-2.92,0-5.93-.01-8.92-.06.37,10.49.92,18.91,3.5,27.65,1.98,6.7,5.51,11.82,9.95,14.42,2.45,1.44,5.53,2.04,8.21,2.45,3.39.51,6.38.76,9.16.76s5.46-.29,7.84-.83c-.24-.34-.48-.68-.71-1.03Z"/>
        </g>
        <path class="cls-3" d="m60.99,131.32c-6.62,1.97-13.86,1.66-20.61.64-3.37-.51-6.77-1.26-9.71-2.98-6.19-3.62-9.92-10.28-11.87-16.86-3.54-11.98-3.44-21.55-4-37.54-.1-2.97.04-6.15-.31-9.15,4.29.44,8.77-.05,13.05.03,4.94.1,9.91-.22,14.85-.18,2.05.02,4.1.02,6.15.03.08-.67.17-1.33.29-2.01.03-.27.07-.54.14-.8-7.03.03-14.06.08-21.1.2-5.05.09-10.21-.59-15.18.32-.27.05-.43.45-.42.8-.58,3.01-.54,6.15-.63,9.21-.12,3.72-.24,7.42-.25,11.14-.03,6.8.44,13.57,1.56,20.29,1.16,6.95,3.22,13.98,7.12,19.92,4.23,6.45,10.18,10.15,17.68,11.64,8.47,1.68,18.6,1.92,26.96-1.43-1.33-.98-2.56-2.07-3.72-3.27Z"/>
        <path class="cls-1" d="m57.3,126.7c-3.76-5.72-6.29-12.76-7.75-21.54-1.12-6.71-1.65-13.58-1.62-20.99,0-.26.01-.52.01-.78l-19.67-.04c-2.92,0-5.93-.01-8.92-.06.37,10.49.92,18.91,3.5,27.65,1.98,6.7,5.51,11.82,9.95,14.42,2.45,1.44,5.53,2.04,8.21,2.45,3.39.51,6.38.76,9.16.76s5.46-.29,7.84-.83c-.24-.34-.48-.68-.71-1.03Z"/>
      </g>
      <rect class="cls-2" width="200" height="200"/>
    </g>
  </g>
</svg>