<?xml version="1.0" encoding="UTF-8"?>
<svg id="Capa_2" xmlns="http://www.w3.org/2000/svg" viewBox="0 0 243.3 243.3">
  <defs>
    <style>
      .cls-1 {
        fill: #fff;
      }

      .cls-2 {
        fill: #fbdb97;
      }

      .cls-3 {
        fill: none;
      }

      .cls-4 {
        fill: #e58473;
      }

      .cls-5 {
        fill: #fad380;
      }

      .cls-6 {
        fill: #4f3535;
      }

      .cls-7 {
        fill: #f7bc3b;
      }

      .cls-8 {
        fill: #847272;
      }
    </style>
  </defs>
  <g id="grocery_icons">
    <g>
      <rect class="cls-3" width="243.3" height="243.3"/>
      <g>
        <path class="cls-8" d="M116.66,35.19s2.16,17.68.72,19.85-22.01,16.96-24.9,31.39c-2.89,14.43,1.08,102.84,2.53,112.58,1.44,9.74,10.82,16.77,40.05,17.68,27.06.84,32.6-2.53,39.33-5.05,5.66-2.12,8.3-3.97,9.38-16.6,1.08-12.63,3.97-86.6,2.89-101.75-1.08-15.15-9.02-21.29-16.96-28.87s-9.74-11.19-9.74-15.88,1.44-14.43,1.44-14.43l-44.74,1.08Z"/>
        <g>
          <path class="cls-6" d="M139.03,11.73c-7.77-.14-19.55.57-25.98,3.97-6.57,3.47-3.81,22.93-3.25,24.18,1.25,2.77,7.03,8.28,29.95,8.3,25.26.02,28.51-6.49,29.23-8.3s1.82-18.61-1.43-22.22c-3.25-3.61-15.13-5.68-28.52-5.93Z"/>
          <path class="cls-1" d="M111.39,20.83c6.56,2.45,13.94,3.27,20.89,3.66,7.95.44,15.97.08,23.84-1.12,3.89-.59,7.82-1.4,11.44-3,1.32-.58.18-2.53-1.14-1.95-3.03,1.34-6.37,2.02-9.62,2.58-4.19.71-8.43,1.09-12.68,1.3-7.1.34-14.25.06-21.31-.8-3.7-.45-7.45-1.09-11-2.27-1.02-.34-1.42,1.23-.44,1.59h0Z"/>
        </g>
        <path class="cls-7" d="M171.51,96.77s-.49,16.36-1.01,34.55c-.21,6.72-.4,13.69-.6,20.19-.44,15.33-.81,27.96-.81,28.24,0,.73-11.06,5.06-33.19,5.29-22.14.24-29.11-4.33-29.11-4.33l-1.93-82.75s8.53,4.06,26.35,3.97c1.57-.01,3.21-.05,4.93-.13,4.71-.22,9.07-.58,13.01-1.03,13.77-1.55,22.35-4.02,22.35-4.02Z"/>
        <path class="cls-1" d="M170.5,131.33c-.21,6.72-.4,13.69-.6,20.19-1-1.75-1.92-3.54-2.78-5.36-1.85-3.89-3.43-7.93-5.8-11.53-2.38-3.58-5.7-6.77-9.85-7.91-4.6-1.28-9.85,0-14.01-2.34-2.75-1.54-4.5-4.46-5.35-7.49-.83-3.04-.86-6.24-.87-9.37-.01-1.85-.02-3.71-.03-5.56,1.57-.01,3.21-.05,4.93-.13,4.71-.22,9.07-.58,13.01-1.03,2.88,12.41,10.57,23.75,21.35,30.54Z"/>
        <path class="cls-6" d="M165.49,74.87c.91.12,1.84.05,2.73-.18.47-.12.91-.29,1.35-.49.48-.22,1.01-.59,1.25-1.07.18-.34.17-.73-.07-1.04s-.6-.41-.98-.34c-.44.08-.87.35-1.25.57-.15.09-.36.24-.54.27.14-.06.15-.06.04-.02-.05.02-.09.04-.14.05-.08.03-.17.06-.25.09-.36.12-.75.24-1.13.27.28-.02-.06,0-.11,0-.1,0-.2.01-.3.02-.2,0-.4,0-.6,0-.49-.03-.96.45-.94.94.03.56.41.87.94.94h0Z"/>
        <path class="cls-6" d="M170.86,81.35c.7-.12,1.39-.32,2.05-.59.39-.16.82-.32,1.18-.56s.69-.5,1.01-.77c.18-.15.31-.49.3-.73s-.08-.44-.22-.62c-.32-.42-.87-.5-1.33-.27-.14.07-.28.14-.42.2-.06.03-.12.05-.18.08.31-.14.06-.03,0,0-.35.14-.69.31-1.04.45l.28-.12c-.72.3-1.47.52-2.24.65-.27.05-.57.31-.7.54-.15.25-.21.62-.12.91s.27.56.54.7c.29.16.58.18.91.12h0Z"/>
        <path class="cls-1" d="M112.16,71.29c-3.03,2.17-5.88,4.41-8.23,7.33-1.12,1.4-2.12,2.9-2.88,4.53-.75,1.6-2.12,4.35-.66,5.88.54.56,1.31.55,1.96.25.91-.41,1.17-1.54,1.47-2.4.23-.67.43-1.34.74-1.98.69-1.47,1.58-2.86,2.55-4.16s2.07-2.42,3.16-3.57c1.19-1.24,2.34-2.51,3.52-3.76,1.01-1.07-.34-3.06-1.64-2.13h0Z"/>
        <path class="cls-1" d="M97.93,98.45v1.93c0,.22,0,.44.05.66.11.39.37.7.72.9.38.23.89.23,1.27,0,.35-.21.61-.51.72-.9.06-.22.05-.44.05-.66v-1.93c0-.36-.16-.74-.41-.99s-.64-.43-.99-.41-.74.14-.99.41-.41.61-.41.99h0Z"/>
        <g>
          <path class="cls-5" d="M104.27,189.32l-.16.2c-.06.06-.11.13-.14.21-.04.08-.06.16-.06.25,0,.09.02.18.06.25.03.08.07.15.14.21l.13.1c.1.06.21.09.33.09l.17-.02c.11-.03.21-.09.29-.17l.2-.16c.07-.06.11-.13.14-.22.04-.08.06-.17.06-.26,0-.09-.02-.18-.06-.26-.03-.08-.07-.16-.14-.22l-.14-.11c-.11-.06-.22-.09-.34-.09l-.18.02c-.12.03-.22.09-.3.18h0Z"/>
          <path class="cls-6" d="M187.72,195.41c-2.28-1.66-6.03-.54-8.58-.2-6.35.84-12.65,2.05-19.02,2.77-6.02.69-12.07.92-18.12.59-10.39-.58-20.73-2.8-30.53-6.38-.18-.17-.37-.34-.56-.51,1.28-.5,2.55-1.03,3.8-1.57,4.32-1.84,8.51-4.02,12.53-6.46,8-4.84,15.35-10.76,21.76-17.56,3.22-3.42,6.2-7.06,8.93-10.88,1.23-1.73,2.76-4.08,1.34-6.15-1.09-1.58-3.36-1.83-5.01-1.08-2.04.93-3.52,3-4.99,4.62-1.57,1.73-3.12,3.49-4.66,5.26-3.08,3.54-6.16,7.09-9.4,10.5-13.82,12.7-22.3,21.12-41.66,17-3.4-.94-6.72-2.08-10.08-3.2-2.64-.88-5.25-1.89-7.77-3.04-4.78-2.19-9.35-5-13.24-8.55-3.63-3.31-6.62-7.35-8.6-11.86-1.02-2.33-1.61-4.77-2.17-7.24-.6-2.61-1.21-5.5-2.76-7.74-1.29-1.88-3.46-3.26-5.77-2.34-2.27.91-3.09,3.4-3.32,5.64-.56,5.39,1.61,10.9,4.13,15.56,4.51,8.36,11.75,15.23,19.91,19.97,4.67,2.72,9.77,4.78,15.02,6.07,2.64.65,5.33,1.09,8.03,1.36.26.03.52.05.78.07-8.9,1.38-17.83,2.71-26.85,2.53-5.88-.12-11.7-.73-17.48-1.83-2.96-.56-5.89-1.25-8.79-2.09-2.9-.84-5.74-1.87-8.67-2.59-2.36-.58-5.46-1.48-7.65.03-1.79,1.23-2.2,3.65-1.49,5.6.85,2.34,3.04,3.6,5.28,4.34,2.59.85,5.33,1.39,8,1.93,11.26,2.29,22.71,3.31,34.2,2.63,6.53-.38,13.01-1.28,19.4-2.66,3.18-.69,6.33-1.49,9.45-2.42,2.23-.66,4.5-1.31,6.63-2.26.2.65.73,1.18,1.46,1.09,1.27-.16,2.52-.41,3.77-.73,1.16.71,2.36,1.38,3.58,2,2.91,3.01,6.3,5.68,9.56,8.19,2.72,2.1,5.53,4.08,8.41,5.96,2.84,2.26,5.72,4.48,8.66,6.61,7.59,5.5,15.59,10.72,24.57,13.65,4.95,1.62,10.34,2.56,15.54,1.82.77-.11,1.44-1.08,1.4-1.83-.31-4.9-6.78-5.79-10.46-6.79-5.17-1.4-10.28-3.12-15.25-5.12-9.89-3.99-19.35-9.43-27.84-15.87-.5-.38-.99-.78-1.48-1.17,4.12,1.41,8.33,2.56,12.59,3.42,12.23,2.46,24.52,2.3,36.86.85,3.28-.38,6.54-.84,9.81-1.28,2.49-.33,5.44-.47,7.16-2.58,1.45-1.77,1.6-4.65-.39-6.1Z"/>
          <path class="cls-2" d="M150.74,177.71c-8.31-2.65-25.91,2.17-34.69,6.26,4.93-3.85,12.75-12.15,13.66-18.54.64-4.48-.14-9.41-1.28-13.79-1.24-4.77-3.35-9.45-6.22-13.46-.56-.78-1.41-.85-2.15-.28-7.95,6.15-17.83,16.6-18.62,38.59-.48-3.97-.9-11.29-3.67-15.86-2.34-3.86-5.36-6.61-9.5-8.35-4.54-1.91-9.43-3.66-14.32-4.29-.71-.09-1.3.56-1.51,1.15-3.13,8.81-5.13,18.89-1.45,27.86,1.49,3.63,3.72,6.07,6.82,8.52,1.77,1.4,5.89,3.73,11.55,2.89-2.43,1.12-10.48,3.6-12.5,5.36-3.54,3.09-6.2,7.18-8.73,11.1-2.81,4.35-5.33,8.88-7.57,13.55-.38.79-.1,1.81.83,2.04,4.78,1.22,9.7,2.36,14.67,2.2,4.69-.16,9.09-1.64,12.96-4.29,1.44-.98,5.48-6.33,8.06-12.41-.12,8.22,2.88,18.71,8.77,23.17,4.58,3.46,10.28,5.33,15.41,7.88,1.57.78,3.34-.82,2.44-2.44-1.99-3.61-1.36-7.65-.32-11.45,1.12-4.09,2.75-8.14,2.5-12.46-.44-7.34-8.69-13.16-11.02-16.72,2,.75,4.09,4.93,13.26,6.5,3.91.67,7.92.71,11.62-.93,3.21-1.43,5.76-4.07,7.58-7.03,2.38-3.87,3.55-8.38,4.57-12.77.2-.89-.27-1.73-1.14-2.01Z"/>
          <path class="cls-6" d="M106.06,183.1c-3.3.47-8.68,8.37-3.92,10.07,2.83,1.02,5.68-.94,7.08-3.28,1.57-2.63.77-7.35-3.15-6.8Z"/>
          <path class="cls-4" d="M106.47,186.11c-2.28-1.83-4.68-3.52-6.81-5.54-2.14-2.05-4.08-4.3-5.74-6.75s-3.01-4.96-4.03-7.66c-.52-1.38-.95-2.8-1.37-4.22s-.7-3.22-1.58-4.37-2.34-.94-2.88.38c-.62,1.52-.16,3.63.15,5.18s.79,2.98,1.34,4.43c1.17,3.07,2.67,6.02,4.53,8.73,3.58,5.23,8.74,10.4,14.83,12.5,1.46.5,2.8-1.67,1.55-2.67h0Z"/>
        </g>
      </g>
    </g>
  </g>
</svg>