<?xml version="1.0" encoding="UTF-8"?>
<svg id="Capa_2" xmlns="http://www.w3.org/2000/svg" viewBox="0 0 243.3 243.3">
  <defs>
    <style>
      .cls-1 {
        fill: #a36545;
      }

      .cls-2 {
        fill: #fff;
      }

      .cls-3 {
        fill: none;
      }

      .cls-4 {
        fill: #feb672;
      }

      .cls-5 {
        fill: #4f3535;
      }
    </style>
  </defs>
  <g id="grocery_icons">
    <g>
      <rect class="cls-3" width="243.3" height="243.3"/>
      <g>
        <path class="cls-1" d="M180.08,144.64c-.88-8.47-1.64-16.67-2.58-24.8-.14-1.27-.29-2.53-.46-3.81-1.15-9.37-2.61-18.68-4.85-28.27-.81-3.45-1.26-8.11-3.45-11-2.22-2.91-5.79-2.29-9.06-2.15-9.86.4-19.91,2.22-29.68,3.52,0-.08-.02-.16-.03-.25-.12-1.05-.26-2.22-.4-3.47-1.77-14.99-5.11-42.72-7.49-42.51-12.23,1.02-26.22,2.57-38.61,4.2-.85.11-1.69.22-2.53.33,0,0-.03,0-.04.01-5.78.76-11.53,1.61-17.3,2.43-5.91.83-13.38.68-18.7,3.48-.21.11-.36.26-.5.44-.51.33-.86.89-.86,1.67-.09,13.99,1.89,28.03,3.81,41.97.12.92.24,1.84.37,2.75.33,2.47.66,4.94.97,7.4,1.47,11.7,2.83,23.47,4.62,35.16.13.87.27,1.73.42,2.6.72,4.56,1.52,9.09,2.43,13.61,12.92-1.83,25.89-2.93,38.29-3.54.73-.04,1.46-.08,2.18-.11,35.1-1.63,65.22.4,75.84-.29.02.2.04.42.07.63.58,4.74,8.07,4.87,7.56,0Z"/>
        <path class="cls-1" d="M196.26,17.4c-1.82-2.09-5.43-3.09-7.91-4.16-5.02-2.17-9.94-4.59-15.13-6.34-2.71-.92-5.49-1.67-8.33-2.05-1.73-.23-5.8-1.08-7.18.35-.47.49-.73,1.14-.97,1.78-2.67,7.05-5.04,14.19-7.62,21.27-2.24,6.14-5.55,12.36-4.99,19.1.41,5.03,8.82,6.92,12.72,8.57,6.45,2.72,13.85,6.08,20.87,6.87,5.52.62,6.42-5.11,8.26-9.21,3.01-6.7,5.89-13.38,8.24-20.35,1.39-4.11,5.48-11.85,2.04-15.82Z"/>
        <path class="cls-5" d="M136.47,124.23c13.45-1.33,28.36-2.67,41.02-4.39-.14-1.27-.29-2.53-.46-3.81-12.74.9-27.58,2.82-41.04,4.46-.45-3.63-.9-7.26-1.37-10.89-1.38-10.6-2.76-21.2-4.79-31.7.04,0,.08-.01.11-.02-.12-1.05-.26-2.22-.4-3.47-11.93,1.63-25.74,3.79-37.38,5.43-.86.12-1.75.24-2.68.36-.88-7.58-1.79-15.16-2.88-22.99-.6-4.3-2.23-15.12-3.17-21.11-.85.11-1.69.22-2.53.33-.01,0-.03,0-.04.01,1.9,13.82,3.66,28.99,5.35,44.18-12.03,1.54-28.06,3.36-38.9,5.8.12.92.24,1.84.37,2.75,11.05-.62,27.24-3.43,38.9-5.19,1.61,14.45,3.19,28.83,4.84,41.98-13.29,1.8-26.76,3.82-38.15,5.77.13.87.27,1.73.42,2.6,11.47-1.45,24.92-3.22,38.19-4.91.69,4.75,1.89,10.45,2.53,14.98,0,.02.01.05.01.07.16,1.19,2.1.95,2.17-.18,0-.04,0-.07,0-.11-.17-5.06-.61-10.15-1.19-15.21,10.94-1.39,21.62-2.7,30.86-3.71,2.27-.25,4.64-.49,7.06-.74.17,1.42.36,2.83.53,4.25.55,4.55.35,10.08,2.1,14.35.37.91,1.98,1.24,2.2,0,.81-4.55-.58-9.8-1.13-14.35-.18-1.52-.39-3.04-.57-4.56ZM125.12,121.77c-9.01,1.01-19.43,2.29-30.1,3.72-.73-6.07-1.6-12.12-2.35-18.14-1.03-8.12-1.91-15.98-2.8-23.84.41-.05.81-.11,1.2-.16,11.53-1.59,24.39-3.37,36.21-5.08,1.47,10.91,2.94,21.83,4.36,32.75.43,3.28.83,6.57,1.24,9.85-2.66.32-5.27.63-7.76.91Z"/>
        <path class="cls-4" d="M189.77,181.85c-1.78-12.18-3.59-24.31-5.92-36.39-.1-.52-.39-.89-.78-1.12,0-.05-.02-.1-.03-.14-.43-1.98-132.64,2.24-132.55,4.28.62,13.95,2.98,28.99,5.44,42.73,2.5,13.91,4.69,28.54,9.34,41.92.15.44.36.79.6,1.08.09,1.21,1.17,2.4,2.76,2.15,20.36-3.26,41.05-5.02,61.53-7.39,12.09-1.4,24.19-2.76,36.28-4.16,7.87-.91,16.83-.89,24.37-3.44,1.22-.41,1.88-1.36,2.06-2.37.12-.22.22-.47.25-.76,1.43-11.77-1.66-24.77-3.36-36.38Z"/>
        <path class="cls-2" d="M175.13,202.73c-2.18-9.34-3.21-18.87-4.33-28.38-.5-4.21-1.22-10.87-1.71-15.08-.57.49-1.65,1.66-2.25,2.14-.4.32-.05,2.41-.44,2.74.48,4.16.96,8.31,1.46,12.47,1.02,8.45,2.03,17.03,3.85,25.37-6.81,1.67-13.93,2.52-20.83,3.64-10.24,1.66-20.48,3.27-30.76,4.62-8.22,1.08-16.44,2.16-24.66,3.24-2.06.27-10.55,2.47-11.84,1.61-2.02-1.35-2.37-7.47-2.96-10-3.77-15.97-6.88-32.04-9.97-48.15-.21-1.08-2.06-.85-1.94.26,1.81,17.03,5.12,34.03,9.47,50.6.61,2.34.89,7.13,2.69,8.89,1.84,1.82,4.24.74,6.67.46,8.88-1.05,17.76-2.08,26.64-3.17,11.48-1.42,22.92-2.92,34.34-4.76,8.44-1.36,17.21-2.32,25.48-4.53.86-.23,1.31-1.13,1.11-1.96Z"/>
        <path class="cls-2" d="M64.11,47.32c-3.24-.37-10.32-1.08-12.03,2.88-1.22,2.82.13,7.2.41,10.06.34,3.52.37,7.21,1.5,10.57.45,1.33,2.26,1.04,2.38-.32.38-4.27-.8-8.94-1.39-13.18-.29-2.08-.84-3.53.27-5.43,1.08-1.86,1.24-1.63,3.21-1.85,2.01-.23,3.93-.36,5.9-.87,1.1-.29.75-1.74-.25-1.86h0Z"/>
        <path class="cls-5" d="M55.24,79.82l.17.31c.03.05.05.11.08.15.09.14-.05-.15.02.03.13.3.37.57.73.56.37-.02.59-.23.73-.56.08-.2-.08.14.02-.03.03-.05.06-.1.08-.15l.17-.31c.42-.77-.1-1.76-1.01-1.76s-1.43.99-1.01,1.76h0Z"/>
        <path class="cls-2" d="M101.54,41.29c-3.76-.2-11.35-.73-12.5,4.25-.52,2.24.39,5.15.72,7.42.5,3.45.49,7.46,2.18,10.54.45.83,1.96.73,2.13-.28.63-3.6-.69-7.52-1.34-11.08-.45-2.43-1.59-5.51.6-7.53,1.21-1.11,6.8-1.28,8.21-1.38,1.24-.09,1.26-1.88,0-1.94h0Z"/>
        <path class="cls-5" d="M93.35,74.01c.03.62.03,1.32.53,1.76.35.31.81.31,1.16,0,.51-.44.5-1.14.53-1.76.03-.58-.54-1.14-1.11-1.11s-1.15.49-1.11,1.11h0Z"/>
        <path class="cls-2" d="M66.82,91.65c-4.35.32-10.29.63-11.37,5.81-.54,2.57.3,5.56.74,8.05.64,3.6.94,7.47,2.67,10.72.6,1.13,2.13.49,2.23-.6.38-4.17-1.2-8.67-2.15-12.73-.71-3.03-1.36-6.19,2.01-7.85,1.75-.86,4.25-.86,6.13-1.49.98-.33.89-1.99-.26-1.91h0Z"/>
        <path class="cls-5" d="M61.22,125.51c1.45,0,1.45-2.25,0-2.25s-1.45,2.25,0,2.25h0Z"/>
        <path class="cls-2" d="M105.83,87.64c-3.66-.08-8.65.51-9.17,4.94-.33,2.81.83,6.29,1.43,8.95.67,3.01.81,6.44,2.28,9.14.43.79,1.45.48,1.74-.23,1.27-3.09-.08-6.66-.88-9.78-.45-1.73-1.62-4.2-1.48-5.99.32-4.31,3.38-4.28,6.34-5.16,1.03-.31.83-1.85-.25-1.87h0Z"/>
        <path class="cls-2" d="M147.08,81.83c-3.62-.61-8.75.1-9.83,4.15-.95,3.59-.01,8.82.38,12.41s.77,6.81,2.15,9.97c.46,1.04,2.06.47,2.06-.56-.02-4.73-1.29-9.44-1.68-14.17-.14-1.65-.98-5.18-.31-6.68,1.25-2.81,4.74-2.77,7.22-3.28.89-.18.93-1.68,0-1.84h0Z"/>
        <path class="cls-2" d="M148.22,128.08c-1.99-1.43-4.24-.42-5.58,1.43-1.47,2.03-1.73,5.6-.18,7.63.48.62,1.39.57,1.66-.22.56-1.61-.06-3.23.42-4.85.4-1.35,1.79-2.38,3.22-2.3.98.05,1.13-1.21.46-1.7h0Z"/>
        <path class="cls-2" d="M108.8,130.79c-2.18-.72-5.66-.32-7.37,1.38-.9.89-.79,2.24-.69,3.4.12,1.44.23,3.07,1.44,4.04.54.43,1.28.29,1.51-.4.28-.85.17-1.56.03-2.43-.12-.73-.55-2.17-.06-2.81.41-.53,1.76-.73,2.38-.9.92-.26,1.84-.42,2.77-.64.87-.2.76-1.4,0-1.65h0Z"/>
        <path class="cls-2" d="M67.78,135.06c-2.33-.38-4.9.03-6.38,2.07-.64.88-.98,1.98-.79,3.06.16.92.82,2.44,1.53,3.06.3.26.84.43,1.2.15.65-.48.92-.95.74-1.78-.17-.76-.98-1.52-.81-2.33.38-1.76,3.15-1.87,4.51-2.29.88-.27,1.05-1.79,0-1.96h0Z"/>
        <path class="cls-2" d="M173.22,18.41c-4.27-1.75-9.57-3.2-12.27,1.44-1.25,2.15-1.96,4.78-2.67,7.14-.92,3.07-2.06,6.44-1.8,9.66.11,1.38,1.8,1.53,2.31.31,1.53-3.67,1.84-7.98,3-11.82.87-2.89,1.46-5.02,5.03-5.52,1.81-.25,4.18.83,6.12.84,1.26,0,1.31-1.63.28-2.05h0Z"/>
        <path class="cls-5" d="M172.57,51.08c1.07,0,1.07-1.66,0-1.66s-1.07,1.66,0,1.66h0Z"/>
        <path class="cls-5" d="M174.95,47.59c.55-.14,1.13.03,1.76,0,.84-.04,1.11-.93.64-1.54-.7-.9-1.99-.91-3.03-.76-.64.09-.99.91-.83,1.47.17.63.84.99,1.47.83h0Z"/>
        <path class="cls-5" d="M77.35,77.91c1.25-.32,2.85.03,3.69-1.18.26-.38.06-.92-.3-1.15-1.2-.75-2.69.25-3.91.44-1.22.19-.73,2.21.52,1.89h0Z"/>
        <path class="cls-5" d="M77.61,68.34c.46-.15.88-.32,1.31-.53.67-.33.34-1.42-.38-1.4-.48.02-.95.08-1.42.16s-.78.69-.64,1.13.64.8,1.13.64h0Z"/>
        <path class="cls-5" d="M121.81,73.08c.1-.07.21-.14.32-.19-.21.1.21-.08.23-.09.16-.06.17-.07.05-.02.06-.02.12-.04.18-.06.25-.09.4-.19.61-.36-.15.09-.29.17-.44.26.47-.17.9-.54.83-1.1-.03-.21-.13-.4-.28-.55-.1-.1-.21-.17-.34-.22-.08-.04-.16-.07-.25-.07-.16-.01-.17-.02-.04-.02-.79-.16-1.57.29-2.05.89-.31.38-.39.87-.08,1.28.28.36.85.53,1.25.25h0Z"/>
        <path class="cls-5" d="M120.39,64.02c.88-.13,1.78-.58,2.21-1.39.29-.54-.2-1.4-.88-1.14-.63.24-1.17.54-1.86.63-.53.07-.81.74-.69,1.21.16.56.68.76,1.21.69h0Z"/>
        <path class="cls-5" d="M82.93,121.09c.5-.05,1.02-.08,1.52-.18.58-.12.99-.37,1.35-.84.33-.43.03-1.02-.34-1.28-.8-.58-1.96-.21-2.85-.04-.58.11-.94.77-.86,1.31.08.53.57,1.1,1.17,1.04h0Z"/>
        <path class="cls-5" d="M83.81,112.01c.45-.27.89-.55,1.33-.84.35-.24.52-.66.35-1.06s-.57-.56-1-.49c-.52.09-1.04.19-1.55.31-.67.15-.99.94-.74,1.54s1.02.9,1.62.55h0Z"/>
        <path class="cls-5" d="M123.38,115.72c.11,0,.12,0,.02-.01l.25.03c.1,0,.21-.02.32-.03.28-.03.5-.1.76-.19.48-.17.86-.68.69-1.21s-.67-.79-1.21-.69c-.27.05-.49.09-.74.21-.08.04-.17.07-.25.12-.09.04-.17.09-.23.17.07-.05.06-.05-.03,0-.75.4-.41,1.62.43,1.6h0Z"/>
        <path class="cls-5" d="M122.2,108.57c.7-.23,1.26-.72,1.44-1.45.09-.36-.06-.8-.4-.98-.37-.2-.73-.11-1.05.14.2-.15.05-.05,0-.02-.15.09.21-.06.04-.02-.11.02-.21.06-.31.08l.29-.04c-.11.01-.21.01-.32,0-.3-.04-.61.15-.83.34-.27.25-.37.63-.32.98.09.66.78,1.2,1.46.97h0Z"/>
        <path class="cls-5" d="M167.09,112.43c.8-.35,1.95-.62,2.29-1.52.15-.4-.17-.76-.51-.9-.49-.21-1.03.05-1.48.24-.42.18-.84.36-1.26.53-.47.2-.58.9-.34,1.31.29.49.83.55,1.31.34h0Z"/>
        <path class="cls-5" d="M166.43,104.92c.34-.27.5-.39.85-.66.3-.23.46-.56.31-.94-.14-.34-.52-.53-.88-.43-.42.11-.83.23-1.25.34-.63.17-.93.92-.6,1.48.13.22.36.4.6.46.38.1.69-.03.98-.26h0Z"/>
        <path class="cls-2" d="M157.98,175.54c2.36-4.04,4.72-8.13,7.24-12.08,2.36-3.68,5.18-7.06,8.23-10.18,1.53-1.57,3.12-2.99,4.86-4.32,1.6-1.22,3.09-2.76,4.78-3.83.47-.3.93-.35,1.34-.25-.24-1.01-1.13-1.83-2.75-2.01-19.99-2.26-40.38-2.47-60.47-2.07-22.9.46-45.73,2.19-68.38,5.78-2.27.36-1.71,4.03.54,3.97l53.6,23.56,46.13,11.25c.14,0,.27-.03.41-.04.46-3.46,2.79-6.93,4.46-9.79Z"/>
        <path class="cls-5" d="M182.75,143.54c-7.9,2.72-12.77,8.99-17.49,15.62-3.66,5.14-11.1,17.39-11.35,24.46-9.01-2.65-18.32-4.06-27.38-6.55-8.88-2.44-17.62-5.45-26.19-8.84-14.74-5.83-33.53-14.58-47.88-21.25-1.61-.75-2.9,1.38-1.4,2.4,13.25,8.99,32.39,17.5,47.17,23.66,8.76,3.65,17.73,6.74,26.88,9.23,9.6,2.61,29.96,6.87,30.49,6.05,1.95-3,3.79-8.71,5.12-12.06,1.51-3.79,4.24-9.14,6.58-12.47,4.85-6.89,11.04-11.76,17.22-17.22,1.33-1.18-.07-3.59-1.76-3.01Z"/>
      </g>
    </g>
  </g>
</svg>