<?xml version="1.0" encoding="UTF-8"?>
<svg id="Capa_2" data-name="Capa 2" xmlns="http://www.w3.org/2000/svg" viewBox="0 0 200 200">
  <defs>
    <style>
      .cls-1 {
        fill: #80dce8;
      }

      .cls-1, .cls-2, .cls-3 {
        stroke-width: 0px;
      }

      .cls-2 {
        fill: none;
      }

      .cls-3 {
        fill: #593737;
      }
    </style>
  </defs>
  <g id="colorful_icons" data-name="colorful icons">
    <g>
      <g>
        <g>
          <g>
            <g>
              <path class="cls-3" d="m196.7,80.82c-.98-2.27-2.71-4.2-4.84-5.46-2.52-1.49-5.24-1.98-8.13-1.59-1.64.22-3.7.71-5.33,1.67-.11-2.36-.24-4.87-.36-6.84,0-.02,0-.03,0-.05-.05-.05-.1-.1-.18-.13-.14-.06-.39-.05-.54-.02-.03,0-.05.01-.08.02-1.08-.08-2.16-.09-3.23-.11-2.48-.05-4.97-.07-7.45-.07-4.43,0-8.85.02-13.28.04-8.87.02-17.74.06-26.61.21-4.53.08-9.17-.53-13.63.29-.24.04-.38.4-.38.72-.52,2.7-.48,5.52-.57,8.26-.11,3.34-.22,6.66-.23,10-.02,6.11.4,12.18,1.4,18.21,1.04,6.24,2.89,12.55,6.39,17.88,3.8,5.78,9.14,9.11,15.87,10.44,9.42,1.87,21.16,1.75,29.28-4.02,5.23-3.72,8.48-9.53,10.5-15.7,2.29,1.46,5.55,1.76,8.02,1.39,5.01-.75,8.79-3.62,11.29-7.96,3.05-5.29,2.83-12.1,3.05-18.02.12-3.1.29-6.22-.97-9.13Zm-17.97,2.73c3.33-1.09,7.36-2.6,8.95,1.8,1.29,3.57,1.01,8.1,1.1,11.85.09,4.02.12,8.68-4.49,10.06-1.67.5-3.68.68-5.39.3-.61-.14-1.16-.34-1.67-.65,1.45-7.67,1.7-15.5,1.51-23.35Zm-20.82,46.01c-6.34,2.32-13.44,2.06-20.01,1.07-3.02-.46-6.08-1.13-8.72-2.67-5.56-3.25-8.91-9.23-10.65-15.13-3.17-10.76-3.08-19.34-3.59-33.69-.09-2.66.04-5.52-.27-8.21,3.85.4,7.87-.05,11.71.03,4.44.09,8.89-.2,13.33-.16,8.88.08,17.76.06,26.64.07,2.14,0,4.28-.03,6.41-.05,1.28-.01,2.6.01,3.9-.06-.3,6.81-.78,14.5-1.51,21.09-.87,7.87-1.79,17.26-4.8,24.65-2.37,5.82-6.44,10.86-12.45,13.06Zm36.72-31.39c-.49,5.83-2.36,12.31-8.55,14.53-1.74.62-3.49,1.02-5.34.84-1.78-.17-3.23-.67-4.68-1.49.17-.63.33-1.26.48-1.89.11-.45.2-.9.3-1.36.29.13.57.24.82.32,1.99.65,4.19.48,6.21.1,5.54-1.05,6.87-5.4,7.29-10.45.27-3.27.28-6.49-.05-9.76-.22-2.21-.53-4.54-1.82-6.41-2.49-3.61-7.41-3.12-10.6-.73-.03-.9-.06-1.81-.1-2.71-.02-.41-.04-.84-.06-1.29,2.55-1.33,4.42-2.04,6.85-1.81,2.65.25,4.84,1.27,6.68,3.2,2.12,2.2,2.7,6.56,2.77,9.5.08,3.17.06,6.26-.21,9.42Z"/>
              <path class="cls-1" d="m146.67,127.56c-2.49,0-5.18-.22-8.22-.68-2.41-.36-5.17-.91-7.37-2.2-3.99-2.33-7.16-6.93-8.93-12.94-2.32-7.85-2.81-15.41-3.14-24.82,2.68.04,5.38.05,8,.05l20.48.05c7.2.02,14.4.02,21.59.02h2.65c-.11,1.23-.23,3.31-.35,4.38l-.13,1.16c-.82,7.47-1.76,15.94-4.42,22.48-1.57,3.85-4.62,8.88-10.24,10.93-2.88,1.05-6.13,1.57-9.93,1.57Z"/>
            </g>
            <path class="cls-3" d="m119.8,130.05c-5.94,1.77-12.44,1.49-18.49.58-3.02-.46-6.08-1.13-8.72-2.67-5.56-3.25-8.91-9.23-10.65-15.13-3.17-10.76-3.08-19.34-3.59-33.69-.09-2.66.04-5.52-.27-8.21,3.85.4,7.87-.05,11.71.03,4.44.09,8.89-.2,13.33-.16,1.84.02,3.68.02,5.52.02.07-.6.15-1.2.26-1.8.02-.25.07-.48.12-.72-6.31.03-12.62.07-18.93.18-4.53.08-9.17-.53-13.63.29-.24.04-.38.4-.38.72-.52,2.7-.48,5.52-.57,8.26-.11,3.34-.22,6.66-.23,10-.02,6.11.4,12.18,1.4,18.21,1.04,6.24,2.89,12.55,6.39,17.88,3.8,5.78,9.14,9.11,15.87,10.44,7.6,1.51,16.7,1.72,24.2-1.28-1.19-.88-2.3-1.86-3.34-2.93Z"/>
            <path class="cls-1" d="m116.49,125.9c-3.37-5.13-5.65-11.46-6.96-19.34-1-6.02-1.48-12.19-1.45-18.84,0-.23,0-.47.01-.7l-17.66-.04c-2.62,0-5.32-.01-8-.05.33,9.41.82,16.97,3.14,24.82,1.78,6.01,4.95,10.61,8.93,12.94,2.2,1.29,4.96,1.83,7.37,2.2,3.04.46,5.73.68,8.22.68s4.9-.26,7.03-.74c-.22-.3-.43-.61-.64-.92Z"/>
          </g>
          <path class="cls-3" d="m82.91,130.05c-5.94,1.77-12.44,1.49-18.49.58-3.02-.46-6.08-1.13-8.72-2.67-5.56-3.25-8.91-9.23-10.65-15.13-3.17-10.76-3.08-19.34-3.59-33.69-.09-2.66.04-5.52-.27-8.21,3.85.4,7.87-.05,11.71.03,4.44.09,8.89-.2,13.33-.16,1.84.02,3.68.02,5.52.02.07-.6.15-1.2.26-1.8.02-.25.07-.48.12-.72-6.31.03-12.62.07-18.93.18-4.53.08-9.17-.53-13.63.29-.24.04-.38.4-.38.72-.52,2.7-.48,5.52-.57,8.26-.11,3.34-.22,6.66-.23,10-.02,6.11.4,12.18,1.4,18.21,1.04,6.24,2.89,12.55,6.39,17.88,3.8,5.78,9.14,9.11,15.87,10.44,7.6,1.51,16.7,1.72,24.2-1.28-1.19-.88-2.3-1.86-3.34-2.93Z"/>
          <path class="cls-1" d="m79.6,125.9c-3.37-5.13-5.65-11.46-6.96-19.34-1-6.02-1.48-12.19-1.45-18.84,0-.23,0-.47.01-.7l-17.66-.04c-2.62,0-5.32-.01-8-.05.33,9.41.82,16.97,3.14,24.82,1.78,6.01,4.95,10.61,8.93,12.94,2.2,1.29,4.96,1.83,7.37,2.2,3.04.46,5.73.68,8.22.68s4.9-.26,7.03-.74c-.22-.3-.43-.61-.64-.92Z"/>
        </g>
        <path class="cls-3" d="m46.01,130.05c-5.94,1.77-12.44,1.49-18.49.58-3.02-.46-6.08-1.13-8.72-2.67-5.56-3.25-8.91-9.23-10.65-15.13-3.17-10.76-3.08-19.34-3.59-33.69-.09-2.66.04-5.52-.27-8.21,3.85.4,7.87-.05,11.71.03,4.44.09,8.89-.2,13.33-.16,1.84.02,3.68.02,5.52.02.07-.6.15-1.2.26-1.8.02-.25.07-.48.12-.72-6.31.03-12.62.07-18.93.18-4.53.08-9.17-.53-13.63.29-.24.04-.38.4-.38.72-.52,2.7-.48,5.52-.57,8.26-.11,3.34-.22,6.66-.23,10-.02,6.11.4,12.18,1.4,18.21,1.04,6.24,2.89,12.55,6.39,17.88,3.8,5.78,9.14,9.11,15.87,10.44,7.6,1.51,16.7,1.72,24.2-1.28-1.19-.88-2.3-1.86-3.34-2.93Z"/>
        <path class="cls-1" d="m42.7,125.9c-3.37-5.13-5.65-11.46-6.96-19.34-1-6.02-1.48-12.19-1.45-18.84,0-.23,0-.47.01-.7l-17.66-.04c-2.62,0-5.32-.01-8-.05.33,9.41.82,16.97,3.14,24.82,1.78,6.01,4.95,10.61,8.93,12.94,2.2,1.29,4.96,1.83,7.37,2.2,3.04.46,5.73.68,8.22.68s4.9-.26,7.03-.74c-.22-.3-.43-.61-.64-.92Z"/>
      </g>
      <rect class="cls-2" width="200" height="200"/>
    </g>
  </g>
</svg>