<?xml version="1.0" encoding="UTF-8"?>
<svg id="Capa_2" xmlns="http://www.w3.org/2000/svg" viewBox="0 0 243.3 243.3">
  <defs>
    <style>
      .cls-1 {
        fill: #fff;
      }

      .cls-2 {
        fill: #ba6347;
      }

      .cls-3 {
        fill: none;
      }

      .cls-4 {
        fill: #4f3535;
      }

      .cls-5 {
        fill: #d49d8c;
      }

      .cls-6 {
        fill: #b5593b;
      }
    </style>
  </defs>
  <g id="grocery_icons">
    <g>
      <rect class="cls-3" width="243.3" height="243.3"/>
      <g>
        <path class="cls-6" d="M59.37,60.16s0-18.67.44-21.33c.44-2.67,0-6.44,12.89-8.22,12.89-1.78,80.89-2.89,89.78-3.33,8.89-.44,20.22-.22,21.11,6,.89,6.22.44,20,.44,20,0,0,19.56,41.33,22.22,57.11,2.67,15.78,3.33,94.89-.67,97.33-4,2.44-114.89,16.67-119.56,16.67s-9.33-8.22-19.33-11.33-24.22-.67-25.33-4.67-3.33-92.67-.22-104.89c3.25-12.76,16.22-41.78,18.22-43.33Z"/>
        <path class="cls-1" d="M184.9,83.04c-4.12-4.79-11.37-5.22-16.52-5.71-19.24-1.83-39.14.87-58.15,3.69-7.15,1.06-16.26,2.44-20.32,10.73-1.2,2.44-.77,7.12,1.12,9.08,2.92,3.05,7.25,3.03,11.16,3.21,5.43.25,10.86.46,16.3.5,10.3.08,20.61-.3,30.88-1.12,9.42-.76,19.17-1.18,28.15-4.42,2.98-1.06,6.02-2.84,7.7-6.27,2.07-4.22,1.69-7.36-.31-9.68Z"/>
        <path class="cls-4" d="M60.92,60.94c6.36.29,12.82-.26,19.17-.52,8.71-.35,17.41-.85,26.12-1.28,18.53-.92,37.05-1.97,55.57-2.95,4.07-.22,8.15-.43,12.22-.64,3.23-.17,6.7,0,9.82-.87,1.5-.42,1.7-2.95,0-3.25-2.87-.49-5.82-.11-8.72.04-3.54.19-7.09.38-10.63.57-8.69.47-17.38.94-26.06,1.41-18.54,1.01-37.08,2.08-55.62,3.16-7.37.43-14.91.63-22.22,1.7-1.56.23-1.08,2.57.36,2.64h0Z"/>
        <path class="cls-4" d="M137.7,38.38c-2.82-1.08-10.94-.28-21.07-.01-1.98.23-4.06.56-5.77,1.65-1.81,1.15-2.97,3.57-1.9,5.62,1.31,2.5,4.94,2.06,7.31,2.14,6.08.21,12.31.11,18.34-.73,2.51-.35,4.9-1.48,5.62-4.11.59-2.18-.48-3.76-2.52-4.54Z"/>
        <path class="cls-4" d="M58.75,60.02c1.15,4.49,3.21,8.8,5.17,12.99,2.02,4.34,4.12,8.65,6.14,13,3.95,8.51,8.14,17.06,10.97,26.02,1.38,4.38,2.36,8.89,2.62,13.49.17,3.07.07,6.14,0,9.21-.06,2.58-.1,5.16-.15,7.74-.17,9.35-.18,18.69-.19,28.04,0,10.61-.05,21.22-.02,31.83,0,4.21.02,8.43,0,12.64,0,1.57-.02,3.14-.03,4.71,0,.59,0,1.18.04,1.77,0,.14,0,.28.02.43.02.27.04.73.02.35,0,.23.03.45.05.68.02.19.03.38.05.57,0,.08.01.15.02.23.06.6.02.38.02.23-.03,1.88,2.9,1.88,2.92,0,0,.45.01-.12.04-.43.02-.2.04-.4.06-.6s.05-.42.06-.63c.02-.27-.04.11-.04.14.01-.18.05-.36.06-.53.01-.14.02-.28.03-.43.08-1.35.06-2.69.07-4.04.01-3.93.02-7.85.06-11.78.09-10.52.09-21.05.13-31.57.03-9.74.09-19.47,0-29.21-.03-3-.06-6-.08-8.99-.04-6.18.05-12.3-1.28-18.38-1.96-9.02-6-17.46-9.83-25.79-4-8.7-8.41-17.22-12.26-25.99-.94-2.15-1.78-4.35-2.73-6.49-.49-1.11-2.21-.31-1.92.81h0Z"/>
        <path class="cls-4" d="M59.34,76.16c-.78,20.43.23,40.92.78,61.35.08,2.81.14,5.62.2,8.43.06,2.92.02,5.85.42,8.74.18,1.33,2.06.84,2.18-.29.52-5.05-.04-10.32-.23-15.39-.19-5.03-.41-10.05-.65-15.08-.49-10.12-.78-20.25-.9-30.38-.07-5.79-.11-11.58-.07-17.37,0-1.11-1.68-1.11-1.73,0h0Z"/>
        <path class="cls-4" d="M61.28,165.49c-.26,6.07-.12,12.17.01,18.24.07,2.98.16,5.96.25,8.94.05,1.46.08,2.92.12,4.39.04,1.55-.06,3.17.45,4.66.28.81,1.38.82,1.66,0,.48-1.42.38-2.94.37-4.42,0-1.46-.04-2.93-.07-4.39-.07-3.06-.2-6.12-.36-9.18-.32-6.08-.62-12.16-.92-18.24-.05-.97-1.47-.98-1.52,0h0Z"/>
        <g>
          <path class="cls-4" d="M102.64,86.06c.12.13.19.3.22.51.03.21,0,.39-.07.53-.12.32-.35.44-.69.38-.6-.1-1.21-.12-1.86-.05-.64.07-1.27.36-1.88.88-.61.52-1.07,1.24-1.37,2.17-.3.93-.43,1.89-.36,2.86.06.95.35,1.75.85,2.41.51.66,1.13,1.11,1.88,1.37.46.17.97.25,1.53.24.56,0,1.13-.07,1.69-.17.57-.11,1.13-.25,1.68-.45.55-.19,1.07-.4,1.56-.63.16-.07.33-.06.48.01.16.07.27.18.34.31.16.36.12.72-.14,1.1-.31.39-.74.74-1.28,1.05-.54.32-1.14.58-1.8.79-.66.21-1.34.35-2.04.41-.7.06-1.36.03-1.99-.1-.88-.17-1.64-.45-2.27-.84-.63-.39-1.16-.86-1.59-1.41-.43-.55-.76-1.14-1-1.79-.24-.64-.4-1.31-.47-2.01-.17-1.67.07-3.2.69-4.59s1.56-2.44,2.8-3.17c.92-.54,1.86-.79,2.84-.75s1.71.35,2.23.93Z"/>
          <path class="cls-4" d="M123.57,91.23c-.12.79-.37,1.56-.76,2.3-.39.74-.84,1.44-1.36,2.09s-1.09,1.22-1.72,1.71c-.63.49-1.27.88-1.92,1.18-1.2.53-2.41.75-3.64.68-1.23-.07-2.35-.56-3.36-1.44-.69-.74-1.21-1.59-1.54-2.55-.33-.96-.52-1.95-.57-2.97-.05-1.02.02-2.02.23-2.98.2-.97.49-1.84.86-2.62.45-.93,1-1.71,1.66-2.34.66-.63,1.41-1.03,2.24-1.2.22-.07.4-.03.56.13.15.16.23.35.25.57.26-.3.68-.53,1.26-.71.58-.18,1.23-.23,1.97-.17,1.35.08,2.44.42,3.27,1.01.82.59,1.45,1.3,1.89,2.13.43.83.69,1.71.76,2.65.07.94.05,1.79-.07,2.55ZM114.05,86.03c-.54.29-.99.69-1.33,1.2-.35.51-.62,1.09-.81,1.72-.2.63-.31,1.3-.33,2.02-.02.72.01,1.41.11,2.08.15.97.49,1.76,1.04,2.35.54.6,1.35.86,2.41.79.61-.04,1.21-.2,1.8-.48.58-.28,1.12-.63,1.59-1.05.48-.42.91-.92,1.29-1.49.38-.57.68-1.16.9-1.76.12-.32.21-.71.26-1.17.05-.47.05-.94,0-1.43-.06-.49-.2-.95-.43-1.38-.23-.43-.56-.79-1-1.07-.61-.38-1.33-.59-2.15-.62-.82-.03-1.66.21-2.52.71-.16.12-.35.16-.56.1-.21-.06-.3-.23-.26-.51Z"/>
          <path class="cls-4" d="M135.47,83.92c.12.13.2.3.22.51.03.21,0,.38-.07.53-.12.32-.35.44-.69.38-.6-.1-1.21-.12-1.86-.05-.64.07-1.27.36-1.88.88-.61.52-1.07,1.24-1.37,2.17-.3.93-.43,1.89-.36,2.86.06.95.35,1.75.85,2.41.51.66,1.13,1.11,1.88,1.37.46.17.97.25,1.53.24.56,0,1.13-.07,1.69-.17.57-.11,1.13-.25,1.68-.45.55-.19,1.07-.4,1.56-.63.16-.07.33-.06.48.01.16.07.27.18.34.31.16.36.12.72-.14,1.1-.31.38-.74.74-1.28,1.05-.54.32-1.14.58-1.8.79-.66.21-1.34.35-2.04.41-.7.06-1.36.02-1.99-.1-.88-.17-1.64-.45-2.27-.84-.63-.39-1.16-.86-1.59-1.41-.43-.55-.76-1.14-1-1.79-.24-.64-.4-1.31-.47-2.01-.16-1.67.07-3.21.69-4.59.63-1.39,1.56-2.44,2.8-3.17.92-.54,1.86-.79,2.84-.75s1.71.35,2.23.93Z"/>
          <path class="cls-4" d="M156.39,89.09c-.12.79-.37,1.56-.76,2.3-.39.74-.84,1.44-1.36,2.09-.52.65-1.09,1.22-1.72,1.71s-1.27.88-1.92,1.18c-1.2.53-2.41.75-3.64.68-1.23-.07-2.34-.56-3.36-1.44-.69-.74-1.21-1.59-1.53-2.55s-.52-1.95-.57-2.97c-.05-1.02.02-2.01.23-2.98.2-.97.49-1.84.86-2.62.45-.93,1-1.71,1.66-2.34.66-.63,1.41-1.03,2.24-1.2.22-.07.4-.03.56.13.15.16.23.35.25.57.26-.3.68-.53,1.26-.71.58-.18,1.23-.23,1.97-.17,1.35.08,2.44.42,3.27,1.01.82.59,1.45,1.3,1.89,2.13.43.83.69,1.71.76,2.65.07.94.05,1.79-.07,2.55ZM146.88,83.9c-.54.29-.99.69-1.33,1.2-.35.51-.62,1.08-.81,1.72s-.31,1.3-.33,2.02c-.02.72.01,1.41.11,2.08.15.97.49,1.76,1.04,2.35.54.6,1.35.86,2.41.79.61-.04,1.21-.2,1.8-.47s1.12-.63,1.6-1.05c.48-.42.91-.92,1.29-1.49.38-.57.68-1.16.9-1.76.12-.32.21-.71.26-1.17.05-.47.05-.94,0-1.43-.06-.49-.2-.95-.43-1.38-.23-.43-.56-.79-1-1.07-.61-.38-1.33-.59-2.15-.62-.82-.03-1.66.21-2.52.71-.16.12-.35.16-.56.1-.21-.06-.3-.23-.26-.51Z"/>
          <path class="cls-4" d="M162.46,97.62c-.11.48-.26.92-.46,1.31-.2.39-.42.62-.67.7-.52.17-.93.12-1.23-.17-.3-.29-.44-.67-.41-1.15.11-1.69.36-3.48.75-5.38.38-1.89.85-3.79,1.4-5.69.55-1.9,1.17-3.75,1.85-5.55.68-1.8,1.4-3.44,2.14-4.92.13-.23.28-.38.46-.43.18-.05.34-.06.48-.01.13-.12.29-.23.48-.33.19-.1.38-.15.58-.16.08,0,.18,0,.27.02.1.02.21.1.33.23.12.13.27.33.44.58.17.26.38.63.64,1.12.48,1.4,1.03,2.84,1.65,4.31.62,1.48,1.25,2.95,1.91,4.42.08-.03.16-.06.23-.08.07-.02.14-.04.23-.08.31-.05.66-.06,1.05-.03.4.03.67.21.83.53.19.41.19.77-.01,1.1-.2.32-.59.66-1.16,1,.42.87.84,1.72,1.26,2.55.42.83.85,1.64,1.29,2.42.04.14.09.35.17.64.08.29.13.58.16.87.03.29.03.57,0,.82-.04.25-.14.43-.3.52-.19.1-.39.1-.61,0-.22-.1-.43-.23-.64-.4-.21-.17-.4-.35-.56-.55-.17-.2-.3-.38-.39-.54-.54-.89-1.05-1.79-1.54-2.7-.49-.91-.97-1.82-1.42-2.75-1.16.3-2.43.58-3.8.84-1.37.26-2.73.46-4.07.6-.24,1.08-.47,2.14-.7,3.18-.23,1.04-.43,2.08-.62,3.13ZM167.27,79.63c-1.1,2.96-2.03,5.92-2.79,8.85,1.87-.18,3.85-.54,5.95-1.1-1.17-2.48-2.22-5.06-3.16-7.75Z"/>
        </g>
        <g>
          <path class="cls-5" d="M118.22,137.49c-1.8-1.22-3.27-2.56-4.43-4.43-1.29-2.08-1.94-4.43-2.36-6.83-.36-2.07-.32-4.4-1.24-6.33-.86-1.8-2.65-2.82-4.64-2.6-4.58.52-5.88,5.96-5.19,9.77.82,4.48,3.85,8,7.15,10.95,1.89,1.69,3.88,3.43,6.18,4.56,1.12.55,2.46.84,3.37-.26.64-.77.82-2.02,1.03-3.04.69-.24.93-1.25.13-1.79Z"/>
          <path class="cls-4" d="M100.63,121.99c1.49,1.18,3.66,1.62,5.53,1.49.97-.07,1.91-.36,2.74-.88.75-.47,1.74-1.32,1.61-2.31-.07-.52-.6-1.01-1.16-.77-.68.29-1.04.95-1.64,1.32-.51.32-1.2.52-1.84.59-1.44.17-3.11.05-4.36-.75-.76-.49-1.59.75-.89,1.31h0Z"/>
          <g>
            <path class="cls-4" d="M138.06,133.74c-2.52.42-4.63.44-10.17-.82-5.54-1.27-11.98-1.52-14.41,6.02-2.43,7.54-1.69,11.67,2.98,17.16,4.67,5.5,6.3,13.75,9.61,20.61,3.31,6.86,12.49,17.71,29.39,20.85s24.88-2.97,29.16-3.87c4.28-.9,6.51,1.37,10.41-.48,3.9-1.85,1.64-7.33.13-10.93-1.51-3.6-3.23-16.03-7.27-24.29-4.04-8.27-13.29-20.23-26.65-23.43-13.37-3.2-17.46-1.79-23.18-.83Z"/>
            <path class="cls-2" d="M120.12,149.61c3.32,3.66,6.68,7.19,10.39,10.47s7.57,6.18,11.62,8.91c8.06,5.45,16.67,9.93,25.74,13.43,2.5.96,5.02,1.87,7.56,2.7,1.35.44,2.71.85,4.09,1.23s2.79.45,4.21.69c.87.14,1.09-1.05.28-1.32-1.12-.37-2.17-.93-3.3-1.26-1.24-.36-2.49-.71-3.73-1.08-2.27-.68-4.52-1.41-6.74-2.24-4.5-1.68-8.83-3.66-13.09-5.86s-8.48-4.58-12.47-7.3c-3.96-2.69-7.76-5.59-11.45-8.65-4.16-3.45-8.24-7.14-11.89-11.11-.8-.88-2.01.51-1.22,1.38h0Z"/>
            <path class="cls-2" d="M189.21,182.99c-4.26-3.63-7.02-8.6-10.52-12.9-3.17-3.9-6.72-7.58-10.65-10.72-7.88-6.31-16.85-11.23-26.24-14.91-5.36-2.1-10.99-4.15-16.65-5.24-1.43-.28-1.8,1.75-.46,2.18,4.89,1.54,9.81,2.81,14.6,4.65,4.63,1.77,9.16,3.81,13.52,6.16,8.72,4.71,16.9,10.78,23.6,18.11,4.06,4.45,7.19,9.83,11.94,13.62.64.51,1.48-.42.85-.96h0Z"/>
            <path class="cls-2" d="M125.22,163.03c1.51,6.81,6.26,12.39,11.74,16.49,5.98,4.47,12.97,7.29,20.05,9.48,4.2,1.29,8.61,2.44,13.04,1.97,1.01-.11.91-1.55-.1-1.57-4.89-.08-9.63-1.06-14.18-2.88-4.13-1.66-8.24-3.38-12.08-5.65-7.42-4.39-13.48-10.42-17.16-18.29-.38-.81-1.51-.43-1.32.45h0Z"/>
            <path class="cls-2" d="M186.46,170.99c-3.96-15.38-17.07-27.51-32.18-31.63-2.22-.6-4.47-1.04-6.76-1.31-2.1-.25-4.81-.76-6.85-.06-1.01.34-.81,1.69.12,1.97,1.74.52,3.81.24,5.62.43,1.95.2,3.88.54,5.79.99,3.78.9,7.42,2.28,10.84,4.12,6.52,3.5,12.14,8.61,16.22,14.79,2.32,3.51,4.06,7.34,5.48,11.3.4,1.11,2.01.53,1.72-.59h0Z"/>
          </g>
        </g>
      </g>
    </g>
  </g>
</svg>