<?xml version="1.0" encoding="UTF-8"?>
<svg id="Capa_2" data-name="Capa 2" xmlns="http://www.w3.org/2000/svg" viewBox="0 0 200 200">
  <defs>
    <style>
      .cls-1 {
        fill: #80dce8;
      }

      .cls-1, .cls-2, .cls-3 {
        stroke-width: 0px;
      }

      .cls-2 {
        fill: none;
      }

      .cls-3 {
        fill: #593737;
      }
    </style>
  </defs>
  <g id="colorful_icons" data-name="colorful icons">
    <g>
      <g>
        <path class="cls-1" d="m46.13,94.04l86.24-.77s1.86,50.68-5.96,55.9c-7.83,5.22-54.41,4.1-63.16,3.54-8.76-.56-12.11-3.73-14.16-9.69-2.05-5.96-2.95-48.98-2.95-48.98Z"/>
        <path class="cls-3" d="m170.04,110.28c-.05-7.12-.13-14.25-.76-21.35-.55-6.24-1.25-12.81-3.54-18.69-2.42-6.2-7.22-11.08-13.49-13.35-3.27-1.18-6.82-1.57-10.28-1.57-2.64,0-5.38.17-8.03.66,0-.28,0-.55,0-.83.03-2.33.07-5.28-1.69-7.06-.57-.57-1.18-.84-1.85-.9-.09-.02-.17-.06-.28-.06-25.85,0-51.7-.13-77.55,0-3.53.02-7.07.04-10.6.06-1.86,0-4.35.01-6.21-.04-6.81-.2-5.98,1.31-5.64,2,2.35,4.78,5.46,9.15,8.42,13.57,1.28,1.91,2.74,3.72,3.84,5.74,1.21,2.21,1.68,4.69,1.85,7.19.73,10.71-.27,21.53-.57,32.24-.15,5.35-.11,14.08.04,19.43.14,5.15.15,10.6,1.3,15.65,2.43,10.65,14.4,11.72,23.42,12.3,5.88.38,11.77.54,17.66.63,8.06.12,16.13.04,24.17-.62,6.19-.51,14.15-.81,18.7-5.69,1.55-1.67,2.55-3.73,3.23-5.88,1.52-4.76,1.95-9.92,2.31-14.87.87-11.91.45-27.24.18-39.17-.08-3.45-.14-6.9-.2-10.34,5.44-.01,11.46-1.3,16.3,1.48,2.4,1.38,3.64,3.71,4.39,6.3.85,2.94,1.26,6.05,1.52,9.09.58,6.85-.09,13.78-.47,20.63-.19,3.34-.19,6.67.05,10.01.23,3.21.41,6.88,1.75,9.85,1.3,2.86,4.69,4.61,7.58,2.85,2.81-1.7,3.26-4.98,3.63-7.95.89-7.06.88-14.19.83-21.29Zm-39.46,14.81c-.24,5-.56,10.06-1.65,14.96-.55,2.47-1.07,4.23-2.45,6.19-.02,0-.46.55-.59.69-.26.26-.53.49-.81.73-.07.05-.13.1-.2.15-.18.11-.36.24-.54.35-.4.24-.81.45-1.23.66-.11.06-.23.1-.34.16-.25.1-.5.2-.76.29-.57.2-1.14.38-1.72.54-1.42.39-2.87.67-4.32.9-7.16,1.12-14.4,1.12-21.62.83-7.05-.28-14.12-.37-21.17-.7-4.83-.22-9.85-.29-14.58-1.41-2.11-.5-4.22-1.24-5.98-2.54-1.75-1.28-2.64-3.06-3.1-5.14-.5-2.26-.57-4.62-.73-6.93-.19-2.67-.37-5.34-.48-8.02-.23-5.27-.21-13.88-.3-19.15-.09-5.27-.23-10.54-.21-15.82.02-5.19.13-10.44-.24-15.62-.19-2.69-.62-5.37-1.72-7.85-1.02-2.3-2.63-4.23-4.07-6.28-2.99-4.24-5.75-8.65-9.1-12.6,3.32,0,14.41.31,17.67.33,6.42.03,12.83.04,19.25.04,12.93,0,25.85,0,38.78-.01,7.13,0,14.27,0,21.4,0,1.06,1.16.96,2.91.84,4.58-.24,3.31-.23,6.54-.16,9.86.16,7.91.22,15.82.34,23.72.18,11.27.34,25.88-.2,37.14Zm34.34,1.58c-.09,1.63-.22,3.27-.4,4.89-.13,1.14-.15,2.78-.94,3.7-1.84,2.14-2.69-3.97-2.81-4.82-1.89-12.73.32-25.68-.82-38.46-.52-5.84-2.41-12.23-7.73-15.46-5.41-3.28-11.81-2.18-17.86-2.21-.05-2.62-.1-5.25-.16-7.87-.06-2.61-.18-5.22-.24-7.83,2.22.01,4.45-.11,6.68-.05,2.96.08,5.84.47,8.68,1.33,5.26,1.6,9.41,4.92,11.43,10.12,2.09,5.37,3.03,11.01,3.59,16.72.66,6.73.79,13.49.81,20.24.02,6.55.16,13.14-.22,19.68Z"/>
      </g>
      <rect class="cls-2" width="200" height="200"/>
    </g>
  </g>
</svg>