<?xml version="1.0" encoding="UTF-8"?>
<svg id="Capa_2" data-name="Capa 2" xmlns="http://www.w3.org/2000/svg" viewBox="0 0 200 200">
  <defs>
    <style>
      .cls-1 {
        fill: none;
      }

      .cls-1, .cls-2, .cls-3 {
        stroke-width: 0px;
      }

      .cls-2 {
        fill: #593737;
      }

      .cls-3 {
        fill: #6bb262;
      }
    </style>
  </defs>
  <g id="colorful_icons" data-name="colorful icons">
    <g>
      <g>
        <path class="cls-3" d="m161.75,83.52c-3.74,0-115.25-1.25-122.53-.62-7.28.62-6.45.62-6.24,4.78.21,4.16,7.7,40.78,38.7,50.35.78.24,1.56.47,2.34.69-2.65,2.34-6.44,6.51-5.28,10.44,1.74,5.88,10.79,6.65,26.25,6.65s29.31,1.09,34.21-2.72c4.9-3.81,1.31-10.02-.98-13.29-.54-.77-1.02-1.47-1.45-2.1,5.88-2.26,10.88-5.17,14.81-8.39,13.68-11.23,21.11-26.52,23.3-37.03,1.61-7.75.62-8.74-3.12-8.74Z"/>
        <path class="cls-2" d="m71.46,140.6c7.02,3.67,18.09,4.16,26.76,4.37,10.05.24,20.75-1.17,30.19-5.3,1.16-.51.74-2.6-.56-2.48-4.85.45-9.59,1.97-14.42,2.72-5.25.81-8.66,1.01-16.24,1.01-8.55,0-16.71-.63-25.03-2.57-.69-.16-1.19,2.01-.7,2.26Z"/>
      </g>
      <rect class="cls-1" width="200" height="200"/>
    </g>
  </g>
</svg>