<?xml version="1.0" encoding="UTF-8"?>
<svg id="Capa_2" xmlns="http://www.w3.org/2000/svg" viewBox="0 0 243.23 243.23">
  <defs>
    <style>
      .cls-1 {
        fill: #a36545;
      }

      .cls-2 {
        fill: #fff;
      }

      .cls-3 {
        fill: none;
      }

      .cls-4 {
        fill: #fad380;
      }

      .cls-5 {
        fill: #fe9736;
      }

      .cls-6 {
        fill: #4f3535;
      }
    </style>
  </defs>
  <g id="grocery_icons">
    <g>
      <rect class="cls-3" width="243.23" height="243.23"/>
      <g>
        <path class="cls-5" d="M79.4,8.84c-20.59-3.5-44.81-1.08-51.58,0-6.77,1.08-10.94,1.62-10.94,1.62v15.08c0,3.77,6.25,22.09,7.29,28.01,1.04,5.93-1.26,133.48-1.04,143.3.26,11.85,1.56,18.32,1.56,18.32,0,0-6.51,12.66-5.47,16.97,1.04,4.31,199.81,4.58,199.29,1.35s-7.29-15.62-5.21-18.32c2.08-2.69,4.17-47.41-1.04-86.2-5.21-38.79-3.13-77.58-.52-82.97,2.61-5.39,9.9-20.47,10.94-23.7,1.04-3.23,2.08-12.93-.52-14.01s-23.33-2.56-48.46,1.62c-29.18,4.85-53.14,5.93-94.31-1.08Z"/>
        <path class="cls-6" d="M16.6,28.28c26.69-6.43,53.3,1.44,79.83,4.76,6.77.85,13.58,1.36,20.4,1.23s13.86-.86,20.75-1.72c13.08-1.62,26.12-3.64,39.21-5.18,14.58-1.72,29.27-2.92,43.95-2.17,2.75.14,2.74-4.28,0-4.42-26.34-1.33-52.54,3.38-78.58,6.79-6.88.9-13.77,1.76-20.7,2.14-6.94.38-13.88.15-20.8-.56-13.52-1.38-26.82-4.36-40.3-6.06-14.73-1.86-30.19-2.32-44.39,2.8-1.45.52-.88,2.77.64,2.4h0Z"/>
        <path class="cls-6" d="M23.05,222.97c12.19-.78,24.36-1.43,36.58-1.19,6.08.12,12.14.48,18.21.66,6.23.19,12.45.08,18.67-.14,24.61-.88,49.23-1.81,73.84-2.78,13.91-.54,27.82-1.09,41.73-1.63,2.73-.11,2.74-4.49,0-4.39-24.71.91-49.42,1.82-74.13,2.76-12.45.48-24.9.95-37.36,1.43-6.13.23-12.27.49-18.41.54-6.18.06-12.35-.19-18.53-.29-13.67-.22-27.43.3-40.97,2.32-1.48.22-1.13,2.79.35,2.7h0Z"/>
        <path class="cls-6" d="M31.09,10.04c-.07,2.27.04,4.53.05,6.8,0,1.13-.02,2.27-.02,3.4s-.1,2.27.27,3.3c.16.43.84.66,1.06.14.44-1.01.42-2.1.46-3.18.04-1.18.02-2.36,0-3.53-.02-2.32-.04-4.63-.33-6.93-.12-.97-1.48-1.04-1.51,0h0Z"/>
        <path class="cls-6" d="M43.26,8.03c-.11,2.56-.2,5.13-.14,7.69.03,1.28.07,2.56.13,3.85.05,1.19,0,2.58.34,3.72.18.59,1.13.69,1.25,0,.21-1.19.03-2.52,0-3.72-.04-1.28-.07-2.56-.08-3.85-.02-2.56-.08-5.13-.05-7.69.01-.98-1.42-.97-1.46,0h0Z"/>
        <path class="cls-6" d="M57.47,8.84c0,1.49,0,2.98,0,4.48,0,.73.02,1.47.05,2.2.02.4.05.81.12,1.2s.14.81.34,1.14c.29.48,1.05.55,1.32,0,.32-.65.33-1.54.31-2.26-.02-.76-.07-1.52-.13-2.28-.12-1.49-.24-2.98-.36-4.48-.08-1.07-1.64-1.11-1.64,0h0Z"/>
        <path class="cls-6" d="M70.27,9.38c-.22,2.75-.37,5.5-.41,8.26-.02,1.35-.02,2.7.03,4.05.04,1.2-.12,2.94.55,3.98.31.48,1,.52,1.3,0,.6-1.04.41-2.65.43-3.82.02-1.4.02-2.81.02-4.21,0-2.75,0-5.51,0-8.26,0-1.3-1.82-1.26-1.92,0h0Z"/>
        <path class="cls-6" d="M100.44,13.69c-.18,2.63-.2,5.23-.05,7.86s.38,5.24,1.14,7.71c.24.78,1.41.66,1.4-.2-.02-2.56-.36-5.11-.53-7.66s-.24-5.14-.24-7.71c0-1.16-1.65-1.13-1.73,0h0Z"/>
        <path class="cls-6" d="M123.03,15.84c-.28,2.55-.52,5.13-.53,7.7,0,1.26,0,2.52.09,3.78.09,1.28.14,2.55.77,3.69.3.55,1.02.37,1.22-.16.43-1.18.31-2.42.29-3.67s-.08-2.52-.09-3.78c-.03-2.52-.07-5.03.02-7.56.05-1.19-1.63-1.13-1.76,0h0Z"/>
        <path class="cls-6" d="M139.37,14.77c-.03,1.81-.07,3.61-.04,5.42.01.87,0,1.74.04,2.61.04.96.07,2.06.7,2.81.38.46,1.01.23,1.3-.17.51-.7.44-1.8.43-2.64-.02-.9-.09-1.81-.14-2.71-.09-1.78-.26-3.55-.4-5.32-.1-1.24-1.87-1.28-1.89,0h0Z"/>
        <path class="cls-6" d="M175.29,10.77c-.33,2.46-.53,4.95-.35,7.44.09,1.24.23,2.48.41,3.71.16,1.09.29,2.78,1.18,3.52.38.32,1.13.4,1.37-.18.47-1.12.03-2.44-.18-3.6-.21-1.14-.36-2.29-.46-3.44-.21-2.39-.34-4.79-.25-7.2.04-.99-1.57-1.26-1.71-.24h0Z"/>
        <path class="cls-6" d="M188.46,9.1c.02,2.43.1,4.85.21,7.29.06,1.19.09,2.38.18,3.57.08,1.18,0,2.6.66,3.63.34.54,1.23.66,1.55,0,.52-1.09.35-2.32.29-3.49-.06-1.24-.16-2.47-.25-3.71-.18-2.44-.39-4.86-.66-7.29-.14-1.27-1.99-1.35-1.97,0h0Z"/>
        <path class="cls-6" d="M202.77,8.3c-.24,2.33-.44,4.66-.49,7-.03,1.14-.07,2.29-.02,3.44s-.04,2.45.51,3.45c.27.5,1.09.55,1.35,0,.47-1.01.35-2.22.38-3.31.03-1.19-.02-2.38-.02-3.57,0-2.33-.05-4.67-.04-7,0-1.13-1.55-1.07-1.66,0h0Z"/>
        <path class="cls-6" d="M36.97,220.81c-.45.98-.42,2.15-.45,3.21-.03,1.09-.03,2.19-.05,3.28-.02,1.09-.02,2.19-.01,3.28,0,1.07-.09,2.31.37,3.3.23.49,1.03.49,1.26,0,.46-.99.36-2.22.37-3.3,0-1.09,0-2.19-.01-3.28-.02-1.09-.01-2.19-.05-3.28-.03-1.06,0-2.23-.45-3.21-.18-.38-.8-.38-.98,0h0Z"/>
        <path class="cls-6" d="M46.8,220.29c.03,2.16.11,4.32.31,6.47.1,1.08.2,2.17.36,3.24.15,1.01.2,2.3.82,3.14.44.59,1.25.52,1.5-.2.34-.97.06-2.14-.04-3.14-.11-1.06-.26-2.11-.38-3.16-.24-2.12-.5-4.23-.7-6.35-.12-1.22-1.89-1.27-1.87,0h0Z"/>
        <path class="cls-6" d="M65.58,219.76c.19,2.47.32,4.94.44,7.41.06,1.21.07,2.43.15,3.64.07,1.17-.06,2.7.55,3.74.38.64,1.32.67,1.69,0,.6-1.08.42-2.67.39-3.88s-.13-2.43-.23-3.64c-.2-2.53-.53-5.05-.92-7.56-.19-1.2-2.16-.93-2.07.29h0Z"/>
        <path class="cls-6" d="M99.28,220.84c-.05,1.24-.1,2.47-.15,3.71-.02.61-.04,1.21-.03,1.82.02.73.02,1.54.56,2.07.33.32.83.32,1.16,0,.53-.51.54-1.29.56-2,.01-.63,0-1.26-.03-1.89-.05-1.24-.1-2.47-.15-3.71s-1.87-1.28-1.92,0h0Z"/>
        <path class="cls-6" d="M125.99,218.95c0,2.62.06,5.22.21,7.84.08,1.28.16,2.56.25,3.84.09,1.21.09,2.81.72,3.88.44.75,1.43.53,1.7-.23.39-1.12.12-2.63.02-3.8-.11-1.28-.21-2.56-.31-3.84-.19-2.56-.4-5.13-.59-7.69-.1-1.31-2.01-1.35-2.01,0h0Z"/>
        <path class="cls-6" d="M157.52,220.03c-.28,2.53-.41,5.08-.18,7.63.12,1.28.3,2.56.53,3.83.22,1.19.42,2.61,1.19,3.57.44.54,1.52.28,1.62-.44.18-1.24-.29-2.56-.53-3.77-.23-1.14-.4-2.29-.53-3.45-.27-2.44-.42-4.9-.31-7.35.05-1.21-1.66-1.16-1.79,0h0Z"/>
        <path class="cls-6" d="M170.28,220.03c0,2.33,0,4.66.03,6.99.02,1.12,0,2.24.05,3.36.05,1.16.01,2.51.73,3.46.36.48,1.04.23,1.32-.18.6-.87.47-2.26.46-3.28,0-1.16-.08-2.33-.12-3.49-.08-2.29-.19-4.57-.31-6.86-.07-1.43-2.17-1.45-2.17,0h0Z"/>
        <path class="cls-6" d="M191.18,217.89c.35,2.5.59,5.01.78,7.53.09,1.24.16,2.48.21,3.72s-.1,2.7.71,3.7c.44.53,1.15.26,1.48-.2.74-1.01.39-2.75.3-3.93-.09-1.24-.19-2.48-.33-3.72-.29-2.57-.69-5.13-1.16-7.67-.11-.57-.76-.89-1.27-.75-.6.16-.8.75-.72,1.32h0Z"/>
        <path class="cls-6" d="M203.56,218.41c.11,2.62.21,5.23.38,7.84.08,1.28.14,2.57.26,3.85.12,1.25.09,2.79.66,3.91.41.8,1.51.53,1.76-.24.37-1.14.1-2.63.01-3.82-.09-1.28-.24-2.57-.36-3.85-.24-2.57-.55-5.13-.86-7.69-.14-1.19-1.91-1.27-1.86,0h0Z"/>
        <path class="cls-6" d="M196.64,206.97c2.06.32,4.14.52,6.23.55,1.02.01,2.04,0,3.05-.07s2.21-.13,3.1-.61c.6-.32.46-1.33-.19-1.49-.91-.22-1.99-.04-2.91,0-.98.05-1.96.1-2.94.1-1.95,0-3.9-.13-5.83-.41-.51-.07-1.03.13-1.18.69-.12.47.16,1.14.67,1.22h0Z"/>
        <path class="cls-6" d="M201.35,199.21c.73.14,1.46.28,2.19.41.37.07.74.11,1.11.16.42.06.82.12,1.24.11.38-.01.7-.29.75-.68.05-.42-.19-.71-.55-.87-.66-.28-1.4-.43-2.11-.56s-1.43-.27-2.15-.41c-.47-.09-1.02.13-1.13.66-.1.47.14,1.07.64,1.17h0Z"/>
        <path class="cls-6" d="M28.78,36.68c1.12-.2,2.16-.33,3.34-.4.59-.04,1.17-.07,1.76-.1.62-.04,1.27,0,1.86-.19.33-.11.59-.39.63-.76.04-.32-.1-.76-.42-.91-.38-.17-.71-.25-1.12-.29-.31-.04-.63-.05-.95-.07-.61-.04-1.22-.03-1.83.01-1.3.08-2.59.25-3.86.48-.58.11-.95.87-.78,1.42.2.64.76.92,1.38.81h0Z"/>
        <path class="cls-6" d="M32.38,43.31l1.39-.05.7-.02c.29-.01.56-.05.84-.12.31-.07.56-.42.55-.75s-.22-.67-.55-.75c-.28-.07-.55-.11-.84-.12l-.7-.02-1.39-.05c-.47-.02-.93.44-.9.93s.4.95.9.93h0Z"/>
        <path class="cls-2" d="M33.97,66.15c.05-.01.1-.02.16-.03l-.41.06c.19-.02.37-.02.56,0l-.43-.06c.22.03.43.09.66.1.09,0,.18.01.26.02l-.43-.06c.07.01.15.02.22.04.03,0,.06.02.09.02.37.1.51.05.88,0l-.41.06s.04,0,.06,0c.27,0,.52-.07.76-.21.23-.14.41-.32.54-.56.26-.46.29-1.11,0-1.57-.18-.29-.38-.54-.68-.69-.18-.09-.37-.17-.55-.24-.27-.11-.55-.17-.84-.16s-.57.05-.84.11-.53.19-.78.3c-.18.1-.32.23-.43.41-.13.15-.23.33-.27.54l-.05.42c0,.22.04.42.13.61.04.13.1.25.2.35.11.17.25.31.43.41l.36.16c.27.07.54.07.81,0h0Z"/>
        <path class="cls-2" d="M33.15,74.11c.47-.14.94-.29,1.42-.43.23-.07.47-.13.7-.21.2-.07.42-.18.6-.29.36-.22.5-.53.65-.9l.04-.31c0-.16-.03-.31-.1-.45-.1-.25-.25-.41-.46-.56-.66-.48-1.47-.18-2.17.03-.46.14-.93.28-1.39.42-.33.1-.64.34-.81.64s-.24.74-.14,1.08.31.67.62.84.69.25,1.05.14h0Z"/>
        <path class="cls-2" d="M201.58,181.9l.57.05.28.03s.09,0,.14.01c.23.02.53-.09.73-.21.11-.07.21-.16.31-.25.13-.13.22-.27.28-.44.08-.16.12-.34.12-.53l-.05-.37c-.06-.23-.18-.44-.34-.61-.1-.09-.19-.17-.3-.24-.22-.13-.33-.15-.55-.19-.12-.02-.15-.03-.24-.02h-.07c-.1.02-.19.02-.29.03l-.57.05c-.18,0-.34.03-.5.12-.16.05-.3.15-.42.28-.13.12-.21.26-.27.43-.08.16-.12.33-.11.51l.05.35c.06.23.17.42.33.59l.26.21c.2.12.42.18.65.18h0Z"/>
        <path class="cls-2" d="M174.42,58.38c-4.47-5.91-12.9-6.96-18.9-7.92-22.37-3.59-45.85-1.92-68.31-.05-8.44.7-19.2,1.63-24.57,11.03-1.59,2.77-1.43,8.27.63,10.71,3.19,3.79,8.26,4.09,12.81,4.59,6.34.7,12.67,1.36,19.04,1.81,12.05.86,24.13,1.2,36.21,1,11.08-.18,22.51.05,33.26-3.06,3.57-1.01,7.25-2.88,9.48-6.76,2.74-4.78,2.53-8.48.36-11.35Z"/>
        <g>
          <path class="cls-6" d="M85.16,55.27c.12.16.19.35.21.59.02.24-.02.43-.12.59-.16.34-.42.47-.8.38-.66-.16-1.34-.22-2.06-.19-.72.03-1.44.31-2.16.84-.72.53-1.28,1.31-1.69,2.32-.41,1.02-.61,2.07-.61,3.17s.26,1.98.77,2.74c.52.77,1.18,1.32,1.99,1.67.5.22,1.06.34,1.69.38.62.03,1.26,0,1.9-.07.64-.08,1.27-.2,1.9-.38.62-.17,1.22-.37,1.78-.59.19-.06.37-.05.54.05s.29.22.35.38c.16.41.08.81-.23,1.22-.38.41-.88.77-1.5,1.08-.63.31-1.31.56-2.06.75-.75.19-1.52.29-2.3.3-.78.02-1.52-.07-2.2-.26-.97-.25-1.79-.62-2.46-1.1-.67-.48-1.23-1.05-1.66-1.69-.44-.64-.77-1.33-.98-2.06-.22-.73-.34-1.49-.38-2.27-.06-1.88.3-3.56,1.1-5.06.8-1.5,1.91-2.61,3.35-3.33,1.06-.53,2.13-.74,3.21-.63s1.88.51,2.42,1.2Z"/>
          <path class="cls-6" d="M107.81,53.77c.44,2.53.77,5.06.98,7.57.22,2.52.39,5.03.52,7.53.03.28,0,.52-.09.73s-.21.38-.35.54-.28.28-.42.38-.26.14-.35.14c-.34,0-.68-.16-1.01-.49-.33-.33-.52-.76-.59-1.29-.09-1.19-.19-2.38-.28-3.56-.09-1.19-.2-2.38-.33-3.56-3.28.91-6.75,1.7-10.41,2.39.12.69.25,1.38.38,2.06.12.69.27,1.38.42,2.06.03.12.05.33.07.61.02.28,0,.58-.05.89s-.14.6-.28.87-.35.46-.63.59c-.25.03-.52-.05-.8-.23s-.47-.38-.56-.56c-.38-.97-.73-2.13-1.05-3.47-.33-1.34-.61-2.76-.84-4.24-.23-1.48-.4-2.99-.49-4.53-.09-1.53-.11-3-.05-4.41.06-.47.24-.8.54-1.01.3-.2.57-.3.82-.3.28,0,.52.09.73.28.2.19.37.42.49.7.12.28.22.56.28.84.06.28.09.52.09.7.03,1,.08,1.99.14,2.95.06.97.17,1.94.33,2.91,1.59-.22,3.33-.52,5.21-.91,1.88-.39,3.64-.84,5.3-1.34-.06-.72-.14-1.45-.23-2.18s-.19-1.46-.28-2.18c0-.53.16-1,.49-1.41.33-.41.66-.61,1.01-.61.25,0,.51.12.77.38.27.25.45.64.54,1.17Z"/>
          <path class="cls-6" d="M118.17,68.44c.03.13.05.3.05.54s-.05.47-.14.7c-.09.23-.23.44-.4.61-.17.17-.41.26-.73.26-.69-.44-1.27-1.02-1.74-1.74-.25-.94-.48-2.02-.68-3.24-.2-1.22-.37-2.49-.49-3.82s-.21-2.68-.26-4.06c-.05-1.38-.05-2.7-.02-3.99,0-.22.02-.5.07-.84.05-.34.13-.68.26-1.01s.28-.61.47-.84.45-.35.8-.35c.41,0,.73.13.98.38.25.25.38.66.38,1.22-.03,1.25-.02,2.59.02,4.01.05,1.42.13,2.85.26,4.29.12,1.44.29,2.84.49,4.2.2,1.36.43,2.59.68,3.68Z"/>
          <path class="cls-6" d="M130.36,72.52c-.03.34-.13.66-.3.96-.17.3-.43.43-.77.4-.53-.03-.99-.23-1.38-.61-.39-.38-.59-.69-.59-.94.03-2.72-.06-5.49-.26-8.32-.2-2.83-.52-5.65-.96-8.46,0-.12.03-.26.09-.42.06-.12.14-.27.23-.45s.25-.34.47-.49c.22-.09.46-.08.73.05.27.12.52.31.77.56.25.25.47.53.66.84.19.31.33.61.42.89.09.62.19,1.31.28,2.06.09.75.17,1.53.23,2.34.75-.41,1.47-.86,2.16-1.36.69-.5,1.29-1.05,1.81-1.64.52-.59.91-1.21,1.2-1.85s.38-1.31.28-1.99c-.06-.53-.3-1.02-.7-1.45-.41-.44-1.03-.77-1.88-.98-1.94-.44-3.67-.46-5.21-.07-1.53.39-3,1.04-4.41,1.95-.41.31-.78.5-1.13.56-.34.06-.64.05-.89-.05-.25-.09-.44-.23-.56-.42s-.19-.38-.19-.56c.06-.72.41-1.37,1.06-1.95.64-.58,1.32-1.07,2.04-1.48.94-.47,2.09-.86,3.47-1.17,1.38-.31,2.76-.43,4.15-.35,1.39.08,2.7.42,3.92,1.01s2.16,1.55,2.81,2.86c.59,1.56.73,2.97.4,4.22-.33,1.25-.91,2.39-1.76,3.42-.84,1.03-1.84,1.98-3,2.84-1.16.86-2.25,1.65-3.28,2.37.06,1.38.1,2.72.12,4.03.02,1.31,0,2.53-.02,3.66Z"/>
          <path class="cls-6" d="M153.95,52.45c-.13.16-.35.27-.68.35-.33.08-.66,0-1.01-.26-.25-.19-.55-.38-.89-.59-.34-.2-.72-.4-1.13-.59-.41-.19-.81-.34-1.22-.47-.41-.12-.8-.19-1.17-.19-.47,0-.96.11-1.48.33s-.96.53-1.34.94c-.72.78-.98,1.54-.77,2.27.2.73.74,1.42,1.62,2.04.56.41,1.17.82,1.83,1.24.66.42,1.31.84,1.95,1.24.64.41,1.25.8,1.83,1.17.58.38,1.09.7,1.52.98.56.38,1.09.78,1.59,1.22.5.44.94.93,1.31,1.48.38.55.67,1.17.89,1.85.22.69.33,1.47.33,2.34-.22,1.72-.9,3.09-2.04,4.1-1.14,1.02-2.46,1.66-3.96,1.95-1.31.25-2.6.2-3.87-.14-1.27-.34-2.34-1-3.21-1.97-.22-.25-.41-.59-.56-1.03-.16-.44-.17-.75-.05-.94.19-.28.52-.48.98-.59.47-.11.83-.09,1.08.07.72.66,1.56,1.13,2.53,1.43.97.3,1.98.32,3.05.07.81-.19,1.47-.54,1.97-1.05.5-.52.81-1.1.94-1.76.16-.69.07-1.4-.26-2.13-.33-.73-.91-1.4-1.76-1.99-1.28-.97-2.65-1.88-4.1-2.72-1.45-.84-2.93-1.81-4.43-2.91-.72-.62-1.24-1.31-1.57-2.06-.33-.75-.49-1.49-.49-2.2s.16-1.46.47-2.13c.31-.67.75-1.28,1.31-1.83.56-.55,1.22-.99,1.97-1.34.75-.34,1.58-.55,2.49-.61,1.25-.06,2.45.2,3.61.77,1.16.58,2.09,1.29,2.81,2.13.16.19.23.42.21.7-.02.28-.12.55-.3.8Z"/>
        </g>
        <g>
          <g>
            <path class="cls-4" d="M53.94,119.88c4.76-.82,8.34,2.87,10.16,6.51,1.82,3.65,2.87,5.34,2.87,5.34,0,0,7.95-1.17,11.2-8.08,3.26-6.9,4.04-22.01,8.6-25.66,4.56-3.65,13.55-7.42,22.93,1.04s11.33,22.01,5.6,35.17c-5.73,13.16-21.23,19.54-35.95,20.45s-27.22-8.21-30.87-15.63c-3.65-7.42-2.87-17.71,5.47-19.15Z"/>
            <path class="cls-1" d="M47.04,125.35c4.17-4.02,12.22-2.84,14.98.68,3.16,4.02,5.41,8.64,8.56,12.66,6.54,8.36,16.95,11.9,27.35,10.55,5.23-.68,9.48-3.58,13.97-9.34-3.85,3.15-10.33,5.26-15.33,5.71-5.03.46-10.31-.21-14.87-2.47-4.53-2.25-7.93-6.02-10.96-9.98-1.56-2.02-3.11-4.04-4.63-6.09-1.47-1.99-3-3.97-4.93-5.54-3.65-2.96-8.58-3.02-12.29.69-1.66,1.66-1.86,3.13-1.86,3.13Z"/>
            <path class="cls-1" d="M111.3,111.22l-.06.02c-.22.08-.44.16-.6.34-.12.11-.21.25-.26.4-.08.15-.11.31-.11.48l.04.33c.06.21.17.39.32.55.15.18.38.26.6.34l.06.02c.23.06.46.06.68,0,.22-.06.41-.17.57-.33l.2-.26c.12-.2.17-.42.18-.65,0-.18-.03-.34-.11-.5-.05-.16-.14-.3-.27-.41-.16-.16-.35-.27-.57-.33-.23-.06-.46-.06-.68,0h0Z"/>
            <path class="cls-1" d="M106.43,117.32c1.57,0,1.57-2.44,0-2.44s-1.57,2.44,0,2.44h0Z"/>
            <path class="cls-1" d="M110.86,124.22c1.73,0,1.73-2.68,0-2.68s-1.73,2.68,0,2.68h0Z"/>
            <path class="cls-1" d="M59.54,138.4c1.53,0,1.53-2.38,0-2.38s-1.53,2.38,0,2.38h0Z"/>
            <path class="cls-1" d="M54.33,130.35c1.57,0,1.57-2.44,0-2.44s-1.57,2.44,0,2.44h0Z"/>
            <path class="cls-1" d="M51.88,137.22h.02s0,.01,0,.01c0,0,0,0,0,0l.33.04c.12,0,.23,0,.33-.04,0,0,0,0,.01,0h.01s0,0,0,0c0,0,0,0,0,0,.18-.04.33-.12.47-.25.1-.06.18-.14.25-.25.12-.13.2-.29.25-.47l.05-.36-.05-.36c-.04-.18-.12-.33-.25-.47-.06-.1-.14-.18-.25-.25-.13-.12-.29-.2-.47-.25l-.36-.05-.36.05-.33.14c-.16.09-.29.2-.38.35-.08.09-.14.19-.18.3-.09.16-.13.34-.12.53l.05.36.14.33c.09.16.2.29.35.38.13.12.29.2.47.25h0Z"/>
          </g>
          <g>
            <path class="cls-4" d="M140.56,95.55c10.44-8.07,25.8-3.39,34.49,4.75,8.69,8.15,17.65,21.18,15.07,32.04-2.58,10.86-11.95,17.11-20.64,12.08-8.69-5.02-12.9-13.99-17.11-18.6-4.21-4.62-7.47-5.02-7.47-5.02,0,0-1.09,6.92-7.6,7.06s-11.68-20.77,3.26-32.31Z"/>
            <path class="cls-1" d="M142.87,127.05c1.57-1.18,2.87-2.88,3.67-4.69.87-1.98,1.14-4.12,1.69-6.2,1.15-4.34,2.93-8.61,6.6-11.41,3.29-2.51,7.49-3.66,11.6-3.38,2.44.17,4.9.39,7.07,1.52s4.67,2.55,6.72,3.87c1.31.85,1.72.31.81-1.02-2.27-3.34-6.33-5.86-10.12-6.87-3.98-1.06-8.2-1.06-12.12.25-3.97,1.32-7.4,3.81-9.8,7.25-2.61,3.74-3.44,7.83-4.28,12.21-.51,2.63-1.56,4.81-3.8,6.37-2.04,1.43-5.84,1.5-8.21-1.01,1.7,5.57,7.13,5.41,10.18,3.12Z"/>
            <path class="cls-1" d="M178.45,119.63c2.33,0,2.34-3.63,0-3.63s-2.34,3.63,0,3.63h0Z"/>
            <path class="cls-1" d="M185.24,130.16c2.26,0,2.26-3.51,0-3.51s-2.26,3.51,0,3.51h0Z"/>
            <path class="cls-1" d="M138.47,109.67v.09s0,.03-.01.04,0,.03,0,.04c0,.21.04.41.13.59.06.19.17.35.32.49l.31.24c.24.14.49.21.77.21.01,0,.03,0,.04,0h.04s.06,0,.09-.01l.45-.06.4-.17c.2-.11.35-.25.47-.43.1-.11.18-.23.22-.37.08-.13.11-.27.12-.43.04-.15.04-.3,0-.45,0-.15-.04-.29-.12-.43-.07-.21-.18-.39-.35-.54l-.34-.26-.4-.17-.45-.06-.45.06-.4.17c-.2.11-.35.25-.47.43-.1.11-.18.23-.22.37-.11.2-.15.42-.15.65h0Z"/>
          </g>
          <g>
            <path class="cls-4" d="M126.53,167.41s3.4-11,11.68-17.25,19.02-3.8,24.72,8.01c5.71,11.82-1.49,29.75-20.38,41.7-18.88,11.95-49.31,6.38-60.18-5.98-10.87-12.36.85-27.8,12.23-30.43,18.2-4.21,31.92,3.94,31.92,3.94Z"/>
            <path class="cls-1" d="M80.13,191.74c3.55,3.48,8.1,6.05,13,6.78,6.56.99,13.35-.97,18.63-4.92,11.81-8.82,13.06-24.16,20.67-35.84,2.1-3.22,4.77-6.05,8.11-7.99,3.49-2.03,7.22-2.58,11.19-2.26-5.03-3.53-12.65-1.6-17.18,2.45-5.08,4.54-8.02,10.91-10.49,17.12-2.55,6.42-4.7,13.1-8.71,18.81-3.91,5.56-10.09,9.55-16.92,10.22-7.25.72-15.61-3.82-19.92-9.68-.81-1.1-.54,3.19,1.62,5.31Z"/>
            <path class="cls-1" d="M138.89,165.96l.05.02c.12.05.28.14.38.16l.39.05c.2,0,.39-.03.57-.13.06-.03.12-.05.18-.08h.01s.04-.02.05-.03c.07-.03.05-.04.17-.13.18-.11.32-.27.42-.46l.16-.39c.07-.22.08-.43.03-.65,0-.22-.07-.42-.19-.61l-.25-.33c-.15-.16-.32-.27-.52-.34-.19-.1-.4-.15-.63-.14l-.43.06c-.28.08-.52.22-.72.42l-.25.33c-.12.19-.18.39-.19.61-.05.22-.04.43.03.65l.16.39c.14.24.34.44.58.58h0Z"/>
            <path class="cls-1" d="M152.21,156.72c2.15,0,2.15-3.34,0-3.34s-2.15,3.34,0,3.34h0Z"/>
            <path class="cls-1" d="M158.41,163.8h.04s.01.01.02.01c.18.05.36.05.53,0h.04c.2-.06.38-.17.53-.32.12-.11.2-.23.24-.38.07-.14.11-.29.1-.46,0-.21-.05-.41-.16-.6l-.19-.24c-.15-.15-.32-.25-.52-.3-.21-.06-.42-.06-.63,0l-.28.12c-.18.11-.32.25-.42.42-.09.14-.13.28-.14.44-.04.16-.03.31.02.47.11.4.43.72.83.83h0Z"/>
            <path class="cls-1" d="M90.27,182.04l.17-.25.12-.29c.05-.16.06-.32.02-.48,0-.11-.03-.21-.08-.31-.05-.15-.13-.28-.25-.39l-.25-.19-.29-.12c-.16-.05-.32-.06-.48-.02-.16,0-.31.06-.45.14l-.25.17c-.19.11-.34.26-.46.46-.11.2-.17.41-.17.64l.05.34c.06.22.17.4.33.56.12.12.25.21.41.26.15.08.31.12.49.11.23,0,.44-.06.64-.17.19-.11.34-.26.46-.46h0Z"/>
            <path class="cls-1" d="M94.61,173.92c1.91,0,1.91-2.97,0-2.97s-1.91,2.97,0,2.97h0Z"/>
          </g>
        </g>
      </g>
    </g>
  </g>
</svg>