<?xml version="1.0" encoding="UTF-8"?>
<svg id="Capa_2" data-name="Capa 2" xmlns="http://www.w3.org/2000/svg" viewBox="0 0 200 200">
  <defs>
    <style>
      .cls-1 {
        fill: #c46127;
      }

      .cls-1, .cls-2, .cls-3, .cls-4 {
        stroke-width: 0px;
      }

      .cls-2 {
        fill: none;
      }

      .cls-3 {
        fill: #d58d64;
      }

      .cls-4 {
        fill: #593737;
      }
    </style>
  </defs>
  <g id="colorful_icons" data-name="colorful icons">
    <g>
      <g>
        <path class="cls-3" d="m63.97,140.99s19.03-16.74,38.07-15.36c19.03,1.38,32.56,16.74,32.56,16.74l-70.63-1.38Z"/>
        <path class="cls-3" d="m73.29,69.75s8.71,3.67,22.93,1.22c14.22-2.45,17.58-2.6,21.25-1.38s5.5,3.06,5.5,3.06c0,0-18.35,29.97-20.33,29.97s-7.62-.15-7.62-.15l-21.73-32.72Z"/>
        <polygon class="cls-4" points="58.31 47.27 58.31 60.12 140.56 60.12 140.56 47.89 58.31 47.27"/>
        <polygon class="cls-4" points="58.31 139.16 58.31 152 140.56 152 140.56 139.77 58.31 139.16"/>
        <path class="cls-4" d="m63.95,57.13c2.23,4.48,4.47,8.95,7.16,13.17s5.45,8.12,8.32,12.09,5.87,7.84,8.77,11.78c1.42,1.92,2.84,3.84,4.29,5.74.21.28,1.07,1.1,1.09,1.46-.02-.4-.15-.04-.19.14-.09.4.19-.23-.18.23-2.53,3.16-5.24,6.16-7.78,9.32-3.99,4.96-7.92,9.96-11.94,14.89-2.19,2.68-4.39,5.34-6.6,8.01-1.8,2.17-4.32,4.43-5.26,7.11-.44,1.27,1.11,2.26,2.17,1.67,2.24-1.25,3.86-3.88,5.49-5.84,2.02-2.42,4.04-4.83,6.05-7.25,4.26-5.11,8.61-10.15,12.86-15.27,2.78-3.34,5.44-6.8,8.02-10.31.41-.56.83-1.13,1.04-1.8.72-2.37-1.79-4.47-3.11-6.11-3.18-3.96-6.28-7.95-9.2-12.1-3.25-4.63-6.43-9.3-9.72-13.89-3.34-4.67-6.89-9.15-10.43-13.68-.4-.51-1.1.14-.84.65h0Z"/>
        <path class="cls-4" d="m133.68,56.48c-3.13,4.01-6.35,7.94-9.29,12.08s-5.71,8.22-8.61,12.29c-3.07,4.32-6.13,8.6-9.42,12.75-1.44,1.82-3.02,3.57-4.37,5.45-1.08,1.51-1.11,2.95-.11,4.49,2.07,3.17,4.61,6.15,6.97,9.1,4.07,5.1,8.35,10.04,12.6,14.99,2.37,2.76,4.66,5.58,6.99,8.37,1.83,2.19,3.72,5.32,6.24,6.72,1.06.59,2.61-.4,2.17-1.67-.83-2.39-2.94-4.3-4.53-6.24-1.94-2.34-3.88-4.69-5.81-7.04-4.13-5.03-8.16-10.15-12.24-15.22-2.79-3.46-5.73-6.8-8.53-10.25-.16-.19-.31-.38-.46-.58-.38-.47-.05.12-.14-.17-.06-.18-.41.08-.27-.39-.2.71.84-.87.74-.74.78-1.04,1.57-2.08,2.35-3.12,3-4,5.96-8.03,8.97-12.02,3.27-4.33,6.47-8.77,9.4-13.33s5.69-9.74,8.21-14.82c.25-.51-.45-1.16-.84-.65h0Z"/>
        <path class="cls-1" d="m98.49,112.86c1.18.98,3.23.77,3.76-.83.26-.79.08-1.64-.26-2.4-.15-.34-.34-.66-.52-.96-.38-.59-.92-1.2-1.67-1.26-.66-.05-1.41.21-1.83.75-1.01,1.32-.76,3.63.52,4.7Z"/>
        <path class="cls-1" d="m100.73,117.58c-.38-.38-.81-.53-1.24-.51-1.03.05-2.01,1.08-2.1,2.23-.07.9.31,1.81.91,2.45.56.6,1.41,1,2.15.71.51-.2.88-.69,1.05-1.23.17-.54.16-1.13.08-1.7-.11-.72-.35-1.45-.85-1.95Z"/>
        <path class="cls-1" d="m104.8,89.47c.37.01.72-.06,1.04-.23.33-.11.62-.29.87-.56.26-.24.45-.53.56-.87.17-.32.25-.67.23-1.04-.03-.24-.06-.48-.1-.71-.13-.46-.36-.85-.69-1.19-.18-.14-.36-.28-.54-.42-.42-.24-.87-.37-1.36-.37-.37-.01-.72.06-1.04.23-.33.11-.62.29-.87.56-.26.24-.45.53-.56.87-.17.32-.25.67-.23,1.04.03.24.06.48.1.71.13.46.36.85.69,1.19.18.14.36.28.54.42.42.24.87.37,1.36.37h0Z"/>
        <path class="cls-1" d="m112.15,80.63c2.41,0,2.41-3.74,0-3.74s-2.41,3.74,0,3.74h0Z"/>
        <path class="cls-1" d="m105.21,77.39c.17,0,.33-.03.47-.11.15-.05.28-.13.4-.25.12-.11.2-.24.25-.4.08-.15.11-.3.11-.47-.01-.11-.03-.22-.04-.33-.06-.21-.16-.39-.32-.54-.08-.06-.17-.13-.25-.19-.19-.11-.4-.17-.62-.17-.17,0-.33.03-.47.11-.15.05-.28.13-.4.25-.12.11-.2.24-.25.4-.08.15-.11.3-.11.47.01.11.03.22.04.33.06.21.16.39.32.54.08.06.17.13.25.19.19.11.4.17.62.17h0Z"/>
        <path class="cls-1" d="m93.97,79.98c.25,0,.48-.04.7-.16.23-.07.42-.2.58-.38.18-.16.3-.36.38-.58.11-.22.17-.45.16-.7-.02-.16-.04-.32-.06-.48-.09-.31-.24-.58-.47-.8-.12-.09-.25-.19-.37-.28-.28-.16-.59-.25-.92-.25-.25,0-.48.04-.7.16-.23.07-.42.2-.58.38-.18.16-.3.36-.38.58-.11.22-.17.45-.16.7.02.16.04.32.06.48.09.31.24.58.47.8.12.09.25.19.37.28.28.16.59.25.92.25h0Z"/>
        <path class="cls-1" d="m94.45,84.19s-.03,0-.04,0c.32.04.65.08.97.13,0,0-.01,0-.02-.01-.11-.05-.22-.09-.32-.14-.12-.02-.24-.03-.36-.05-.12.02-.24.03-.36.05-.18.04-.33.12-.46.24-.1.06-.18.14-.24.24-.08.08-.14.18-.17.3-.06.11-.09.22-.09.34-.04.18-.03.36.02.54.02.06.04.11.07.17.05.17.15.31.28.43.09.07.18.14.27.21.1.06.21.1.33.14.12.02.24.03.36.05.12-.02.24-.03.36-.05.11-.05.22-.09.32-.14.16-.09.28-.2.38-.35.08-.08.14-.18.17-.3.06-.11.09-.22.09-.34.03-.12.03-.24,0-.36,0-.18-.06-.35-.16-.5,0,0,0-.01-.01-.02.04.32.08.65.13.97,0-.01,0-.03,0-.04.06-.22.06-.44,0-.65-.06-.21-.16-.39-.32-.54-.15-.15-.33-.26-.54-.32-.22-.06-.44-.06-.65,0h0Z"/>
        <path class="cls-1" d="m99.48,97.39c.25,0,.49-.04.7-.16.23-.07.42-.2.59-.38.18-.17.3-.36.38-.59.11-.22.17-.45.16-.7l-.07-.49c-.09-.31-.24-.58-.47-.81-.12-.1-.25-.19-.37-.29-.28-.17-.59-.25-.92-.25-.25,0-.49.04-.7.16-.23.07-.42.2-.59.38-.18.17-.3.36-.38.59-.11.22-.17.45-.16.7.02.16.04.32.07.49.09.31.24.58.47.81.12.1.25.19.37.29.28.17.59.25.92.25h0Z"/>
        <path class="cls-1" d="m84.55,79.06c.15,0,.29-.03.42-.09.14-.04.25-.12.35-.23.11-.1.18-.22.23-.35.07-.13.1-.27.09-.42l-.04-.29c-.05-.19-.15-.35-.28-.48-.07-.06-.15-.11-.22-.17-.17-.1-.36-.15-.55-.15-.15,0-.29.03-.42.09-.14.04-.25.12-.35.23-.11.1-.18.22-.23.35-.07.13-.1.27-.09.42.01.1.03.19.04.29.05.19.15.35.28.48.07.06.15.11.22.17.17.1.36.15.55.15h0Z"/>
        <path class="cls-1" d="m83.75,135.77c.26,0,.49-.04.71-.16.23-.07.43-.2.6-.38.18-.17.31-.37.38-.6.12-.22.17-.46.16-.71-.02-.16-.04-.33-.07-.49-.09-.31-.25-.59-.48-.82-.13-.1-.25-.19-.38-.29-.29-.17-.6-.25-.94-.25-.26,0-.49.04-.71.16-.23.07-.43.2-.6.38-.18.17-.31.37-.38.6-.12.22-.17.46-.16.71.02.16.04.33.07.49.09.31.25.59.48.82.13.1.25.19.38.29.29.17.6.25.94.25h0Z"/>
        <path class="cls-1" d="m96.18,130.62c1.44,0,1.44-2.23,0-2.23s-1.44,2.23,0,2.23h0Z"/>
        <path class="cls-1" d="m98.57,138.43c.23,0,.45-.04.66-.15.21-.07.39-.19.55-.35.17-.15.28-.34.35-.55.11-.2.16-.42.15-.66-.02-.15-.04-.3-.06-.45-.08-.29-.23-.54-.44-.75-.12-.09-.23-.18-.34-.27-.27-.15-.55-.23-.86-.23-.23,0-.45.04-.66.15-.21.07-.39.19-.55.35-.17.15-.28.34-.35.55-.11.2-.16.42-.15.66.02.15.04.3.06.45.08.29.23.54.44.75.12.09.23.18.34.27.27.15.55.23.86.23h0Z"/>
        <path class="cls-1" d="m108.41,133.01c.15,0,.29-.03.42-.09.14-.04.25-.12.35-.23.11-.1.18-.22.23-.35.07-.13.1-.27.09-.42-.01-.1-.03-.19-.04-.29-.05-.19-.15-.35-.28-.48-.07-.06-.15-.11-.22-.17-.17-.1-.36-.15-.55-.15-.15,0-.29.03-.42.09-.14.04-.25.12-.35.23-.11.1-.18.22-.23.35-.07.13-.1.27-.09.42l.04.29c.05.19.15.35.28.48.07.06.15.11.22.17.17.1.36.15.55.15h0Z"/>
        <path class="cls-1" d="m115.32,136.14c.07.21.15.44.28.62.13.18.26.37.44.51.11.08.21.16.32.25.18.11.37.18.58.19.14.04.28.04.42,0,.21,0,.4-.07.58-.19,0,0,.02-.01.03-.02-.25.07-.51.14-.76.21.28.01.59-.07.82-.21.27-.16.47-.4.59-.69.07-.11.1-.23.1-.36.04-.19.03-.38-.03-.57-.03-.16-.1-.3-.19-.43.05.39.1.77.15,1.16,0,0,0-.01,0-.02.02-.14.04-.28.06-.42,0-.22-.04-.42-.14-.61-.04-.13-.1-.25-.2-.35-.11-.17-.26-.31-.44-.4-.02-.01-.04-.03-.06-.04.11.08.21.16.32.25-.06-.05-.11-.1-.16-.16.08.11.16.21.24.32-.04-.06-.08-.12-.11-.19.05.12.1.25.16.37,0-.01,0-.02-.01-.03-.05-.2-.14-.38-.28-.53-.11-.17-.25-.3-.44-.4-.33-.19-.82-.28-1.2-.16-.38.12-.74.35-.93.71-.19.36-.29.8-.16,1.2h0Z"/>
      </g>
      <rect class="cls-2" width="200" height="200"/>
    </g>
  </g>
</svg>