<?xml version="1.0" encoding="UTF-8"?>
<svg id="Capa_2" xmlns="http://www.w3.org/2000/svg" viewBox="0 0 243.3 243.3">
  <defs>
    <style>
      .cls-1 {
        fill: #fff;
      }

      .cls-2 {
        fill: none;
      }

      .cls-3 {
        fill: #4f3535;
      }

      .cls-4 {
        fill: #c0a7c7;
      }

      .cls-5 {
        fill: #847272;
      }
    </style>
  </defs>
  <g id="grocery_icons">
    <g>
      <rect class="cls-2" width="243.3" height="243.3"/>
      <g>
        <path class="cls-4" d="M215.38,226.89c-.91-2.29-2.21-4.25-3.62-6.36-2.69-4.02-3.39-7.33-2.5-12.07,1.51-8.01,2.9-15.98,3.77-24.09,1.84-17.18,2.06-34.48,1.04-51.72-2.03-34.19-8.29-69.86-14.2-103.53,1.5-1.88,9.63-14.97,9.51-16.05-.12-1.12-.94-1.98-2.04-2.2-13.19-2.63-26.31-3.01-39.69-2.96-14.11.05-32.56-.42-46.67,0-28.16.84-90.1.18-86.97,5.94,1.52,2.79,9.35,15.01,10.84,16.89-5.92,33.66-12.7,67.73-14.71,101.92-1.02,17.24-.8,34.54,1.04,51.72.87,8.11,2.26,16.08,3.77,24.09.88,4.69.12,8.18-2.5,12.07-.98,1.45-1.96,2.91-2.76,4.47-.97,1.88-1.77,3.87-.86,5.94.37.85.95,1.44,1.91,1.47,35.22.95,70.59-1.12,105.83-.88,13.48.09,26.94.51,40.41.95,12.22.4,25.21,1.38,37.3-.97,2.18-.42,2.39-3.31,1.11-4.62Z"/>
        <path class="cls-1" d="M194.22,63.16c-5.85-5.65-16.91-6.64-24.77-7.56-29.31-3.42-60.08-1.84-89.5-.05-11.06.67-25.16,1.56-32.2,10.53-2.08,2.64-1.87,7.89.82,10.22,4.18,3.62,10.82,3.9,16.79,4.39,8.31.67,16.61,1.3,24.94,1.73,15.79.82,31.62,1.14,47.44.96,14.52-.17,29.5.05,43.58-2.92,4.68-.97,9.5-2.75,12.42-6.46,3.59-4.56,3.31-8.1.47-10.84Z"/>
        <g>
          <path class="cls-3" d="M187.51,203.04c.45-.78.71-1.71.38-2.6v1.52c.15-.52.18-1.11.04-1.63-.05-.21-.19-.51-.29-.7-.2-.37-.41-.54-.71-.78-.27-.21-.58-.39-.92-.48-.13-.04-.63-.1-.76-.1-.13,0-.26.02-.4.05-.25,0-.49.06-.71.19-.24.1-.29.11-.45.23.48-.13.96-.26,1.44-.39-.9,0-1.77.36-2.35,1.05-.37.37-.63.82-.77,1.33-.04.27-.07.53-.11.8,0,.54.14,1.05.41,1.52.19.35.45.63.77.84.29.27.63.44,1.02.54.4.13.8.14,1.2.05.4-.02.77-.14,1.12-.36.45-.27.81-.63,1.08-1.08h0Z"/>
          <path class="cls-3" d="M197.55,192.58s.06.02.08.03c.26.1.74.09,1,0,.01,0,.03-.01.04-.02,0,0,.01,0,.02,0,.28-.07.52-.19.73-.39.23-.15.42-.35.55-.6.16-.25.24-.51.26-.8.06-.29.05-.57-.04-.86-.1-.36-.29-.68-.55-.95-.15-.11-.29-.22-.44-.34-.34-.19-.7-.29-1.09-.29-.19.03-.38.05-.57.08-.36.1-.68.29-.95.55-.11.15-.22.29-.34.44-.19.34-.29.7-.29,1.09-.01.3.05.57.19.83.09.27.24.5.44.69.27.27.59.45.95.55h0Z"/>
        </g>
        <g>
          <path class="cls-3" d="M53.75,118.59c.03-.11.06-.23.09-.34.16-.62.1-1.25-.23-1.81-.2-.34-.49-.64-.83-.84s-.76-.3-1.17-.31c-.42,0-.81.11-1.17.32-.16.12-.31.24-.47.36-.08.09-.15.19-.23.29-.3.3-.5.65-.62,1.06-.11.42-.11.85,0,1.27.19.59.55,1.11,1.1,1.43.27.18.57.27.89.28.32.07.64.06.96-.04.8-.22,1.46-.87,1.67-1.67h0Z"/>
          <path class="cls-3" d="M66.31,104.05c1.7,0,1.7-2.64,0-2.64s-1.7,2.64,0,2.64h0Z"/>
        </g>
        <g>
          <path class="cls-1" d="M183.87,102.44c1.45,1.03,3.09,2.6,5.01,2.23,1.26-.25,2.04-1.43,1.87-2.69-.26-1.89-2.32-2.95-3.72-3.97-1.15-.84-3-.59-3.79.63-.8,1.23-.61,2.92.63,3.79h0Z"/>
          <path class="cls-1" d="M193.39,116.45c.03.24.06.48.1.71.07.4.23.78.39,1.15.66,1.55,2.98,1.76,3.91.36.22-.34.45-.68.59-1.06.08-.23.15-.45.23-.68.3-.9.2-1.97-.46-2.7-.49-.53-1.11-.9-1.84-.97-.69-.06-1.45.17-1.99.62-.76.64-1.08,1.6-.94,2.57h0Z"/>
        </g>
        <path class="cls-1" d="M45.52,195.83c1.11,2.16,2.14,4.49,4.28,5.82,1.44.9,2.97-.31,3.12-1.79.24-2.5-1.18-4.88-2.21-7.07-.69-1.47-2.8-1.84-4.11-1.08-1.46.86-1.82,2.66-1.08,4.11h0Z"/>
        <path class="cls-3" d="M50.79,11.4c1.11,2.87,2.44,5.61,4.05,8.23.79,1.28,1.62,2.54,2.51,3.76s1.71,2.58,3.02,3.28c.22.12.52-.08.43-.33-.44-1.36-1.51-2.45-2.33-3.6-.88-1.22-1.71-2.48-2.49-3.77-1.56-2.56-2.96-5.25-4.19-7.99-.25-.56-1.22-.16-1,.42h0Z"/>
        <path class="cls-3" d="M66.5,11.65c.67,2.01,1.32,4.04,1.93,6.07.6,1.99,1.07,4.05,2.04,5.89.15.27.61.15.59-.16-.1-2.09-.8-4.08-1.42-6.06-.64-2.03-1.32-4.04-2.02-6.05-.25-.7-1.36-.4-1.12.31h0Z"/>
        <path class="cls-3" d="M77.66,10.54c.53,2.81,1.08,5.61,1.69,8.4.29,1.34.59,2.68.91,4.02.28,1.17.39,3.02,1.4,3.8.22.17.61.21.76-.1.55-1.17-.08-2.69-.37-3.87-.34-1.39-.69-2.77-1.05-4.14-.73-2.81-1.52-5.6-2.33-8.39-.19-.66-1.14-.38-1.01.28h0Z"/>
        <path class="cls-3" d="M101.61,11.68c.13,2.45.35,4.9.66,7.34.15,1.19.31,2.38.53,3.56.2,1.1.31,2.49,1.11,3.34.33.35.86.15,1-.27.35-1.02-.07-2.28-.26-3.31-.22-1.19-.45-2.37-.65-3.56-.4-2.36-.71-4.73-.93-7.11-.09-.92-1.52-.95-1.46,0h0Z"/>
        <path class="cls-3" d="M122.64,25.49c.13-2.75-.05-5.51-.2-8.26-.16-2.92-.26-5.93-.74-8.82-.06-.36-.68-.37-.74,0-.46,2.87-.19,5.92-.03,8.82s.34,5.51.22,8.26c-.04.96,1.44.95,1.49,0h0Z"/>
        <path class="cls-3" d="M130.06,8.33c.25,2.91.12,5.87.08,8.79-.03,2.82-.31,5.93.44,8.69.15.54.91.4.94-.13.21-2.88.08-5.79.05-8.68-.03-2.88.03-5.81-.29-8.68-.08-.77-1.29-.79-1.22,0h0Z"/>
        <path class="cls-3" d="M153.62,9.44c-.08,2.69-.1,5.38-.13,8.08-.01,1.35-.04,2.7-.04,4.05,0,1.21-.15,2.71.3,3.85.12.31.63.49.8.1.51-1.14.42-2.58.45-3.81.02-1.35-.01-2.7-.02-4.05-.02-2.74-.05-5.48,0-8.22.01-.87-1.33-.87-1.36,0h0Z"/>
        <path class="cls-3" d="M166.54,8.88c-.79,3.17-1.44,6.37-1.96,9.59-.45,2.77-1.07,5.79-.55,8.58.04.23.42.28.52.07,1.19-2.55,1.33-5.59,1.72-8.35.45-3.19.97-6.36,1.65-9.51.19-.9-1.16-1.29-1.39-.38h0Z"/>
        <path class="cls-3" d="M185.91,9.99c-.59,2.65-1.28,5.27-1.86,7.92-.28,1.3-.59,2.6-.82,3.91-.19,1.09-.66,2.64-.12,3.67.15.28.49.26.7.09.47-.38.63-.98.82-1.54.22-.66.38-1.32.54-2,.29-1.25.52-2.52.77-3.77.52-2.62.93-5.26,1.44-7.88.19-.96-1.26-1.37-1.48-.41h0Z"/>
        <path class="cls-3" d="M198.1,11.12c-.86,2.13-1.78,4.24-2.65,6.36-.83,2.02-2.07,4.11-2.04,6.35,0,.35.41.48.65.27,1.74-1.47,2.43-3.93,3.21-5.99.83-2.18,1.47-4.4,2.07-6.65.22-.82-.94-1.09-1.24-.34h0Z"/>
        <path class="cls-3" d="M42.88,218.64c-.22.54-.34,1.11-.56,1.65s-.46,1.03-.73,1.53c-.55,1.04-1.11,2.07-1.68,3.1-.55.99-1.04,2.03-1.46,3.09-.37.92-.93,2.25-.53,3.24.09.22.38.36.57.15.7-.79.91-2.07,1.33-3.02.48-1.08,1.06-2.1,1.59-3.14.51-1.01,1.05-2.02,1.43-3.09s.82-2.27.77-3.4c-.02-.44-.57-.48-.73-.1h0Z"/>
        <path class="cls-3" d="M55.48,219.37c-.34,1.86-.69,3.71-1.03,5.57-.17.91-.31,1.83-.45,2.75-.13.88-.34,1.89-.02,2.76.1.26.48.45.69.18.55-.67.71-1.57.86-2.41.16-.95.32-1.9.45-2.86.26-1.88.52-3.76.78-5.64.05-.36-.09-.71-.47-.82-.32-.09-.75.11-.82.47h0Z"/>
        <path class="cls-3" d="M90.11,218.79c-.07,2.09-.16,4.18-.22,6.28-.03,1.05-.01,2.09-.02,3.14s-.01,2.06.36,3.04c.19.51.84.51,1.03,0,.37-.98.36-2,.36-3.04s.01-2.09-.02-3.14c-.06-2.09-.15-4.19-.22-6.28-.03-.82-1.24-.82-1.27,0h0Z"/>
        <path class="cls-3" d="M104.71,218.78c.07,2.22.06,4.44.07,6.66s-.28,4.48.36,6.55c.16.53.83.46,1.01,0,.81-2.01.59-4.42.53-6.55s-.32-4.45-.61-6.66c-.11-.84-1.39-.9-1.36,0h0Z"/>
        <path class="cls-3" d="M201.98,217.33c1.3,2.47,2.55,4.98,3.92,7.42.68,1.22,1.36,2.44,2.05,3.65.63,1.09,1.28,2.5,2.3,3.25.4.3,1.09-.1,1.04-.59-.14-1.27-1.03-2.54-1.66-3.64-.7-1.21-1.42-2.41-2.13-3.61-1.42-2.41-2.96-4.74-4.44-7.11-.43-.68-1.45-.08-1.08.63h0Z"/>
        <path class="cls-3" d="M193.83,219.71c.78,1.87,1.5,3.77,2.15,5.69.32.95.61,1.9.91,2.85.25.78.52,2.12,1.34,2.5.21.1.43.05.55-.15.5-.77,0-2-.25-2.8-.31-.98-.68-1.96-1.04-2.92-.73-1.93-1.52-3.83-2.38-5.71-.32-.71-1.58-.19-1.28.54h0Z"/>
        <path class="cls-3" d="M187.01,218.04c-.09,2.51-.07,5.03.21,7.53.25,2.28.3,5.11,1.85,6.93.21.25.65.11.73-.19.11-.45.23-1,.2-1.46-.03-.62-.15-1.28-.25-1.89-.2-1.17-.44-2.33-.6-3.51-.35-2.46-.61-4.93-.73-7.41-.04-.9-1.37-.9-1.4,0h0Z"/>
        <path class="cls-3" d="M174.6,219.39c.33,1.94.67,3.88,1,5.82.16.95.33,1.9.49,2.85.15.87.22,2.05.94,2.65.25.21.64.21.82-.11.49-.86.14-2-.03-2.91s-.36-1.89-.54-2.84c-.37-1.97-.74-3.93-1.11-5.9-.2-1.04-1.76-.59-1.58.44h0Z"/>
        <path class="cls-3" d="M154.99,220.28c.22,1.78.43,3.55.65,5.33.11.87.25,1.74.38,2.6.13.89.15,1.87.82,2.54.25.25.72.21.89-.12.23-.44.27-.78.23-1.27s-.13-.95-.21-1.42c-.14-.85-.26-1.71-.42-2.56-.33-1.76-.67-3.52-1-5.28-.14-.75-1.45-.59-1.35.18h0Z"/>
        <path class="cls-3" d="M136.37,219.71c.53,2.24.91,4.5,1.08,6.79.09,1.11.13,2.23.16,3.35.03,1-.17,2.27.57,3.06.17.18.47.17.65,0,.79-.75.61-2.08.58-3.06-.04-1.2-.16-2.39-.32-3.59-.32-2.34-.81-4.64-1.48-6.9-.24-.8-1.44-.47-1.24.34h0Z"/>
        <path class="cls-3" d="M123.62,219.53c-.08,1.75-.16,3.49-.23,5.24-.04.87-.04,1.75-.04,2.62,0,.86.03,1.76.46,2.52.22.39.81.39,1.04,0,.44-.76.47-1.66.46-2.52s0-1.75-.04-2.62c-.07-1.75-.15-3.49-.23-5.24-.04-.91-1.38-.92-1.42,0h0Z"/>
        <path class="cls-3" d="M43.88,33.13c9.98-1.2,19.95-2.48,29.97-3.39,10.09-.92,20.2-1.45,30.33-1.81,20.21-.71,40.47-.42,60.65.84,5.63.35,11.26.81,16.87,1.4,2.85.29,5.69.61,8.53.95,2.86.34,5.6.94,8.44.25,1.49-.37,1.76-2.53.43-3.27-2.3-1.29-4.7-1.46-7.27-1.78-2.57-.32-5.15-.62-7.72-.89-5.08-.55-10.16-1.02-15.25-1.46-10.12-.88-20.26-1.52-30.41-1.68-20.43-.33-40.79.62-61.12,2.74-11.35,1.18-22.69,2.62-33.88,4.88-1.79.36-1.42,3.46.44,3.24h0Z"/>
        <path class="cls-3" d="M208.54,212.29c-11.08.56-22.15,1.32-33.24,1.83-11.21.52-22.42.75-33.64.93-22.34.36-44.69.18-67.02-.5-6.32-.19-12.63-.46-18.95-.82-3.05-.17-6.11-.36-9.16-.55-3.23-.21-6.44-.72-9.6.14-1.36.37-1.9,2.64-.43,3.27,1.27.55,2.41.94,3.79,1.13,1.44.19,2.91.24,4.36.34,2.78.19,5.56.36,8.34.52,5.59.33,11.17.61,16.76.89,11.24.56,22.48,1.01,33.73,1.09,22.53.16,45-.48,67.49-1.82,12.54-.75,25.08-1.61,37.56-3.15,2.04-.25,2.17-3.41,0-3.3h0Z"/>
        <g>
          <path class="cls-3" d="M61.38,76.46c-.03.35-.14.68-.31.99-.18.3-.44.44-.79.41-.55-.03-1.02-.24-1.42-.62-.4-.39-.6-.71-.6-.96.03-2.79-.06-5.64-.26-8.54-.21-2.9-.54-5.8-.99-8.69,0-.13.03-.27.1-.43.06-.13.14-.28.24-.46.1-.18.26-.34.48-.5.22-.1.47-.08.75.05.27.13.54.32.79.58.26.26.48.55.67.87.19.32.34.62.43.91.1.64.19,1.35.29,2.12.1.77.18,1.57.24,2.41.77-.42,1.51-.88,2.21-1.4.71-.51,1.32-1.07,1.85-1.68.53-.61.94-1.24,1.23-1.9.29-.66.38-1.34.29-2.05-.06-.54-.31-1.04-.72-1.49-.42-.45-1.06-.79-1.93-1.01-1.99-.45-3.77-.47-5.34-.07s-3.08,1.07-4.52,2c-.42.32-.8.51-1.16.58-.35.06-.66.05-.92-.05-.26-.1-.45-.24-.58-.43s-.19-.38-.19-.58c.06-.74.42-1.4,1.08-2,.66-.59,1.36-1.1,2.09-1.52.96-.48,2.15-.88,3.56-1.2,1.41-.32,2.83-.44,4.26-.36,1.43.08,2.77.43,4.02,1.04,1.25.61,2.21,1.59,2.89,2.94.61,1.6.75,3.05.41,4.33-.34,1.28-.94,2.46-1.8,3.51-.87,1.06-1.89,2.03-3.08,2.91s-2.31,1.69-3.37,2.43c.06,1.41.1,2.79.12,4.14.02,1.35,0,2.6-.02,3.75Z"/>
          <path class="cls-3" d="M89.92,66.21c-.19.9-.54,1.76-1.04,2.58-.5.82-1.07,1.58-1.71,2.29-.64.71-1.34,1.32-2.09,1.83-.75.51-1.52.92-2.29,1.2-1.41.51-2.82.68-4.21.5-1.4-.18-2.64-.81-3.73-1.9-.74-.9-1.26-1.91-1.56-3.03s-.45-2.27-.43-3.44c.02-1.17.18-2.3.48-3.39.3-1.09.7-2.07,1.18-2.94.58-1.03,1.27-1.88,2.07-2.55.8-.67,1.68-1.08,2.65-1.2.26-.06.46,0,.63.19.16.19.24.42.24.67.32-.32.82-.56,1.49-.72.67-.16,1.43-.18,2.26-.05,1.54.19,2.76.66,3.66,1.4s1.56,1.6,2,2.58c.43.98.66,2.01.67,3.08.02,1.08-.07,2.05-.26,2.91ZM79.43,59.57c-.64.29-1.18.71-1.61,1.28s-.79,1.2-1.06,1.9-.45,1.47-.53,2.29-.09,1.61-.02,2.38c.1,1.12.43,2.05,1.01,2.77.58.72,1.48,1.08,2.7,1.08.71,0,1.4-.14,2.09-.41.69-.27,1.32-.63,1.9-1.08.58-.45,1.11-.99,1.59-1.61s.87-1.28,1.16-1.95c.16-.35.29-.79.38-1.32.1-.53.13-1.07.1-1.64-.03-.56-.16-1.1-.38-1.61-.23-.51-.58-.95-1.06-1.3-.67-.48-1.48-.77-2.41-.87-.93-.1-1.91.11-2.94.63-.19.13-.41.15-.65.07-.24-.08-.33-.28-.26-.6Z"/>
          <path class="cls-3" d="M102.06,76.46c-.03.35-.14.68-.31.99-.18.3-.44.44-.79.41-.55-.03-1.02-.24-1.42-.62-.4-.39-.6-.71-.6-.96.03-2.79-.06-5.64-.26-8.54-.21-2.9-.54-5.8-.99-8.69,0-.13.03-.27.1-.43.06-.13.14-.28.24-.46.1-.18.26-.34.48-.5.22-.1.47-.08.75.05.27.13.54.32.79.58.26.26.48.55.67.87.19.32.34.62.43.91.1.64.19,1.35.29,2.12.1.77.18,1.57.24,2.41.77-.42,1.51-.88,2.21-1.4.71-.51,1.32-1.07,1.85-1.68.53-.61.94-1.24,1.23-1.9.29-.66.38-1.34.29-2.05-.06-.54-.31-1.04-.72-1.49-.42-.45-1.06-.79-1.93-1.01-1.99-.45-3.77-.47-5.34-.07s-3.08,1.07-4.52,2c-.42.32-.8.51-1.16.58-.35.06-.66.05-.92-.05-.26-.1-.45-.24-.58-.43s-.19-.38-.19-.58c.06-.74.42-1.4,1.08-2,.66-.59,1.36-1.1,2.09-1.52.96-.48,2.15-.88,3.56-1.2,1.41-.32,2.83-.44,4.26-.36,1.43.08,2.77.43,4.02,1.04,1.25.61,2.21,1.59,2.89,2.94.61,1.6.75,3.05.41,4.33-.34,1.28-.94,2.46-1.8,3.51-.87,1.06-1.89,2.03-3.08,2.91s-2.31,1.69-3.37,2.43c.06,1.41.1,2.79.12,4.14.02,1.35,0,2.6-.02,3.75Z"/>
          <path class="cls-3" d="M123.62,58.75c.13.16.2.36.22.6.02.24-.02.44-.12.6-.16.35-.43.48-.82.38-.67-.16-1.38-.22-2.12-.19s-1.48.32-2.21.87c-.74.55-1.32,1.34-1.73,2.38-.42,1.04-.62,2.13-.62,3.25s.26,2.03.79,2.82c.53.79,1.21,1.36,2.05,1.71.51.22,1.09.35,1.73.38.64.03,1.29,0,1.95-.07.66-.08,1.31-.21,1.95-.38.64-.18,1.25-.38,1.83-.6.19-.06.38-.05.55.05.18.1.3.22.36.38.16.42.08.83-.24,1.25-.38.42-.9.79-1.54,1.11-.64.32-1.35.58-2.12.77-.77.19-1.56.3-2.36.31-.8.02-1.56-.07-2.26-.26-1-.26-1.84-.63-2.53-1.13-.69-.5-1.26-1.07-1.71-1.73-.45-.66-.79-1.36-1.01-2.12s-.35-1.53-.38-2.33c-.07-1.93.31-3.66,1.13-5.2.82-1.54,1.97-2.68,3.44-3.42,1.09-.55,2.19-.76,3.3-.65,1.11.11,1.93.52,2.48,1.23Z"/>
          <path class="cls-3" d="M147.16,66.21c-.19.9-.54,1.76-1.04,2.58-.5.82-1.07,1.58-1.71,2.29-.64.71-1.34,1.32-2.09,1.83-.75.51-1.52.92-2.29,1.2-1.41.51-2.82.68-4.21.5-1.4-.18-2.64-.81-3.73-1.9-.74-.9-1.26-1.91-1.56-3.03s-.45-2.27-.43-3.44c.02-1.17.18-2.3.48-3.39.3-1.09.7-2.07,1.18-2.94.58-1.03,1.27-1.88,2.07-2.55.8-.67,1.68-1.08,2.65-1.2.26-.06.46,0,.63.19.16.19.24.42.24.67.32-.32.82-.56,1.49-.72.67-.16,1.43-.18,2.26-.05,1.54.19,2.76.66,3.66,1.4s1.56,1.6,2,2.58c.43.98.66,2.01.67,3.08.02,1.08-.07,2.05-.26,2.91ZM136.67,59.57c-.64.29-1.18.71-1.61,1.28s-.79,1.2-1.06,1.9-.45,1.47-.53,2.29-.09,1.61-.02,2.38c.1,1.12.43,2.05,1.01,2.77.58.72,1.48,1.08,2.7,1.08.71,0,1.4-.14,2.09-.41.69-.27,1.32-.63,1.9-1.08.58-.45,1.11-.99,1.59-1.61s.87-1.28,1.16-1.95c.16-.35.29-.79.38-1.32.1-.53.13-1.07.1-1.64-.03-.56-.16-1.1-.38-1.61-.23-.51-.58-.95-1.06-1.3-.67-.48-1.48-.77-2.41-.87-.93-.1-1.91.11-2.94.63-.19.13-.41.15-.65.07-.24-.08-.33-.28-.26-.6Z"/>
          <path class="cls-3" d="M154.72,75.6c-.1-1.19-.17-2.54-.22-4.04-.05-1.51-.07-3.06-.07-4.65s0-3.15.02-4.69c.02-1.54.06-2.94.12-4.19,0-.32.15-.57.46-.75.3-.18.55-.25.75-.22.58.06.97.26,1.18.6.21.34.34.81.41,1.42-.03,1.03-.06,2.05-.07,3.08-.02,1.03,0,2.05.02,3.08,1.44-.26,2.66-.79,3.63-1.59.98-.8,1.68-1.72,2.09-2.74.16-.38.28-.85.36-1.4.08-.54.09-1.1.02-1.66-.06-.56-.22-1.09-.46-1.59-.24-.5-.6-.89-1.08-1.18-.71-.42-1.48-.64-2.31-.67-.83-.03-1.69.09-2.58.36-.88.27-1.75.7-2.6,1.28-.85.58-1.64,1.27-2.38,2.07.1.48.03.91-.19,1.28-.22.37-.55.63-.96.79-.26.06-.56-.07-.91-.41-.35-.34-.53-.68-.53-1.04,0-1.28.36-2.4,1.08-3.35.72-.95,1.63-1.74,2.72-2.38,1.09-.64,2.26-1.12,3.51-1.44,1.25-.32,2.41-.48,3.47-.48,1.57,0,2.89.46,3.95,1.37,1.06.91,1.78,2.06,2.17,3.44.67,2.41.51,4.57-.51,6.5-1.01,1.92-2.66,3.59-4.93,5.01,1.67,1.03,3.23,2.01,4.69,2.94,1.46.93,2.93,1.94,4.4,3.03.19.19.41.47.65.84.24.37.2.92-.12,1.66-.19.45-.52.7-.99.75-.47.05-.92-.09-1.37-.41-.71-.58-1.5-1.18-2.38-1.81s-1.8-1.25-2.77-1.88c-.96-.63-1.93-1.24-2.89-1.83s-1.88-1.15-2.74-1.66c.03,1.28.06,2.56.07,3.83.02,1.27.06,2.51.12,3.73,0,.45-.13.76-.39.94-.26.18-.58.26-.96.26-.19-.03-.37-.14-.53-.31-.16-.18-.31-.39-.46-.63s-.26-.48-.36-.72c-.1-.24-.14-.43-.14-.55Z"/>
          <path class="cls-3" d="M191.4,56.68c-.22,2.73-.49,5.51-.79,8.35-.31,2.84-.71,5.51-1.23,8.01-.13.61-.31,1.04-.53,1.3-.22.26-.55.43-.96.53-.35.07-.84-.05-1.47-.34-.63-.29-1.15-.71-1.56-1.25-.55-.74-1.13-1.55-1.76-2.43-.62-.88-1.3-1.78-2.02-2.7s-1.48-1.82-2.26-2.72-1.61-1.73-2.48-2.5c-.1,2.12-.18,4.21-.24,6.28-.06,2.07-.06,4.15,0,6.23,0,.29-.26.43-.77.43-.61,0-1.11-.31-1.49-.94-.39-.63-.61-1.26-.67-1.9-.1-.64-.14-1.56-.14-2.77s.02-2.46.07-3.78c.05-1.32.1-2.58.17-3.8.06-1.22.13-2.18.19-2.89.06-.77.25-1.33.55-1.68.3-.35.6-.51.89-.48.64.06,1.07.25,1.28.55.21.31.33.68.36,1.13,1.16.83,2.22,1.73,3.2,2.7.98.96,1.88,1.94,2.7,2.94.82,1,1.57,1.98,2.26,2.96.69.98,1.34,1.87,1.95,2.67.39-1.92.7-4.08.94-6.45.24-2.37.49-4.86.75-7.46-.03-.32.16-.63.58-.94s.8-.44,1.16-.41c.9.06,1.35.51,1.35,1.35Z"/>
        </g>
        <path class="cls-1" d="M95.99,158.36c-2.09-1.51-4.87-1.77-7.14-.49-.33.19-.64.41-.94.65-2.39-5.74-8.89-9.65-15.24-7.04-3.38,1.39-6.17,4.62-5.9,8.44.19,2.66,1.67,5.01,3.69,6.71-1.41.36-2.73,1.05-3.8,2.14-2.49,2.52-2.5,6.32-.39,9.08,2.27,2.98,6.05,4.18,9.65,3.35,2.32-.54,4.33-1.79,6.07-3.36.04,2.2.56,4.33,2.25,5.92,2.69,2.51,6.92,2.24,9.78.22,2.82-1.98,4.73-5.24,4.88-8.7.1-2.17-.59-4.34-2.14-5.7,2.98-3.2,3.12-8.42-.78-11.23Z"/>
        <path class="cls-1" d="M164.39,173.84c2.51.56,5.17-.29,6.75-2.36.23-.3.43-.63.6-.97,4.45,4.34,11.97,5.38,16.78.47,2.56-2.61,3.85-6.68,2.1-10.08-1.22-2.37-3.5-3.94-6.03-4.72,1.15-.89,2.09-2.04,2.65-3.46,1.3-3.3-.19-6.8-3.21-8.5-3.26-1.84-7.21-1.47-10.19.72-1.92,1.41-3.28,3.35-4.26,5.48-.9-2.01-2.22-3.76-4.4-4.55-3.46-1.25-7.24.66-9.08,3.64-1.81,2.93-2.29,6.68-1.07,9.92.77,2.03,2.25,3.76,4.21,4.39-1.48,4.12.44,8.97,5.14,10.02Z"/>
        <path class="cls-1" d="M79.23,123.18c1.03,3.06,3.86,5.22,7.05,5.58,2.33.26,4.54-.35,6.56-1.41.37,1.41,1.18,2.72,2.31,3.67,2.23,1.87,5.26,1.98,7.78.64,4.19-2.22,5.04-7.05,3.35-10.94,1.25-.38,2.39-1.15,3.18-2.22,1.92-2.58,1.15-6.1-.85-8.39-1.98-2.26-5.13-3.04-8.01-2.44-.96.2-1.93.56-2.81,1.07-1.06-1.91-2.45-3.54-4.53-4.56-2.46-1.2-5.24-2.19-7.98-1.45-3.54.96-5.45,4.45-4.4,7.97.42,1.43,1.18,2.57,2.12,3.51-.05.04-.1.07-.15.11-2.62,2.09-4.78,5.41-3.62,8.85Z"/>
        <path class="cls-1" d="M140.17,179.55c-.13-.24-.24-.52-.37-.89-1.01-2.99-1.18-5.68-4.24-7.11-2.07-.97-6.33-1.54-8.46-.17-2.12,1.37-2.9,5.23-2.86,7.56-2.19-1.09-4.23-1.99-6.76-1.59-3.27.54-5.88,3.22-6.76,6.35-.89,3.18.04,7.13,3.11,8.8.79.43,1.63.61,2.44.58.19,3.44,2.4,6.8,5.84,8.05,5.64,2.05,11.14-2.57,12.46-7.91,3.54.52,7.34-1.44,8.52-5.02.79-2.39.09-4.97-1.51-6.86-.71-.84-1.1-1.17-1.43-1.8Z"/>
        <g>
          <path class="cls-1" d="M168.26,106.49c-.78-.14-1.54-.12-2.26.02-.02-1.08-.27-2.14-.88-3.13-1.3-2.11-3.66-3.77-6.1-4.25-2.61-.51-5.27.08-7.13,2.07-.7.75-1.25,1.6-1.59,2.51-2.68.49-5.17,3.52-5.25,6.06-.09,2.64,1.97,3.89,4.22,4.34-1.17,1.98-2.18,4.1-2.06,6.45.17,3.03,2.03,5.32,4.96,6.12,4.46,1.22,9.62-1.32,11.32-5.58,4.83.55,9.81-3.45,9.47-8.56-.18-2.71-1.87-5.53-4.7-6.05Z"/>
          <path class="cls-1" d="M139.13,135.57c-1.75-1.31-3.81-1.37-5.49-.6-.6-1.44-1.61-2.72-2.85-3.57-2.7-1.85-6.49-1.54-9.05.39-2.4,1.81-3.58,4.91-3.12,7.85-.24.3-.47.61-.69.94-1.4,2.04-2.78,5.4-2.08,7.9.68,2.43,3.42,4.05,5.76,4.45,1.62.27,3.19.1,4.62-.5.27,1.61,1.16,3.08,2.62,4.03,2.41,1.57,5.72,1.27,8.06-.28,2.23-1.47,3.94-3.93,4.35-6.59.28-1.78,0-3.7-1.11-5.06,2.06-2.75,1.98-6.72-1.02-8.96Z"/>
        </g>
        <g>
          <path class="cls-5" d="M162.91,112.82c-1.31.16-2.63.73-3.68,1.57.2-1.91.02-4.27-1.36-5.52-1.64-1.49-4.66-.66-6.42.16-.4.18-.05.76.34.59,1.54-.68,4.65-1.54,5.84.16,1.05,1.5.89,3.89.69,5.61-.04.32.44.51.65.27,1.04-1.21,2.37-1.84,3.96-1.91.72-.03,1.42.02,2.11.23.7.2,1.27.64,1.97.83.33.09.68-.3.47-.61-.88-1.3-3.13-1.55-4.57-1.37Z"/>
          <path class="cls-5" d="M123.89,145.1c1.13-1.66,3.24-2.65,5.24-2.3.94.17,1.84.59,2.56,1.22.37.32.7.69.98,1.09.26.37.48.83.86,1.09.21.14.56,0,.61-.25.2-1.1-.94-2.25-1.72-2.87-.93-.74-2.03-1.24-3.22-1.39-2.41-.31-4.83.9-6.13,2.93-.33.51.48.97.81.47Z"/>
          <path class="cls-5" d="M97.51,114.6c-1.1.49-2.01,1.31-2.66,2.3-1.1-2.29-4.05-3.43-6.44-1.82-.54.37-.07,1.21.52.89,2.38-1.32,5.24.47,5.02,3.19-.06.75,1.14.9,1.31.18.35-1.5,1.35-2.8,2.77-3.45.79-.36,1.69-.5,2.55-.41.83.08,1.56.47,2.39.52.3.02.51-.36.35-.61-1.1-1.74-4.17-1.52-5.81-.79Z"/>
          <path class="cls-5" d="M87.38,171.85c-.26-.62-.42-1.3-.46-1.98-.02-.37-.01-.75.04-1.12.02-.1.12-.54.29-.8.25,0,.49.01.74.02.4,0,.62-.51.33-.8-.52-.52-1.18-.48-1.67-.12-1.34-.02-2.71-.16-3.91-.73-1.48-.71-2.58-2.1-2.51-3.79,0-.07-.1-.07-.11,0-.14,1.6.8,3.09,2.05,4.02,1.14.85,2.49,1.18,3.87,1.32-.39.94-.35,2.11-.19,3.08.33,2,1.63,4.36,3.69,4.98.47.14.83-.48.48-.82-1.03-1-2.07-1.89-2.64-3.25Z"/>
          <path class="cls-5" d="M134.6,178.3c-1.66.24-3.03,1.79-3.78,3.21-.53,1-.78,2.09-.81,3.2-2.62-1.97-6.55-2.01-9.16.06-.25.2.08.64.34.45,2.76-2.02,7.04-1.41,9.03,1.42.41.59,1.3.23,1.16-.49-.28-1.38,0-2.8.67-4.03.71-1.3,1.79-2.01,2.95-2.86.49-.36.19-1.04-.4-.96Z"/>
          <path class="cls-5" d="M180.15,152.52c-1.95.52-3.94,1.7-4.94,3.52-.69,1.24-.87,2.77-.33,4.06-1.58-.04-3.21.07-4.55.96-1.28.85-2.3,2.35-2.08,3.94.05.35.6.37.57,0-.13-1.53.98-2.77,2.37-3.27,1.56-.55,3.23-.44,4.85-.32.58.04.78-.7.44-1.07-.99-1.12-.74-2.85.04-4.01.94-1.4,2.59-2.13,3.95-3.03.38-.25.15-.88-.32-.76Z"/>
        </g>
      </g>
    </g>
  </g>
</svg>