<?xml version="1.0" encoding="UTF-8"?>
<svg id="Capa_2" xmlns="http://www.w3.org/2000/svg" viewBox="0 0 243.3 243.3">
  <defs>
    <style>
      .cls-1 {
        fill: #cb8a75;
      }

      .cls-2 {
        fill: #fff;
      }

      .cls-3 {
        fill: none;
      }

      .cls-4 {
        fill: #a83c19;
      }

      .cls-5 {
        fill: #fad380;
      }

      .cls-6 {
        fill: #4f3535;
      }

      .cls-7 {
        fill: #f7bc3b;
      }

      .cls-8 {
        fill: #c0c728;
      }
    </style>
  </defs>
  <g id="grocery_icons">
    <g>
      <rect class="cls-3" width="243.3" height="243.3"/>
      <g>
        <g>
          <path class="cls-1" d="M216.04,228.72c-.91-2.29-2.21-4.25-3.62-6.36-2.69-4.02-3.39-7.33-2.5-12.07,1.51-8.01,2.9-15.98,3.77-24.09,1.84-17.18,2.06-34.48,1.04-51.72-2.03-34.19-8.23-70.78-14.15-104.44,1.5-1.88,9.57-14.06,9.45-15.14-.12-1.12-.94-1.98-2.04-2.2-13.19-2.63-26.31-3.01-39.69-2.96-14.11.05-32.56-.42-46.67,0-28.16.84-90.1.18-86.97,5.94,1.52,2.79,9.83,15.2,11.32,17.07-5.92,33.66-13.18,67.54-15.19,101.73-1.02,17.24-.8,34.54,1.04,51.72.87,8.11,2.26,16.08,3.77,24.09.88,4.69.12,8.18-2.5,12.07-.98,1.45-1.96,2.91-2.76,4.47-.97,1.88-1.77,3.87-.86,5.94.37.85.95,1.44,1.91,1.47,35.22.95,70.59-1.12,105.83-.88,13.48.09,26.94.51,40.41.95,12.22.4,25.21,1.38,37.3-.97,2.18-.42,2.39-3.31,1.11-4.62Z"/>
          <g>
            <path class="cls-6" d="M188.17,204.88c.45-.78.71-1.71.38-2.6v1.52c.15-.52.18-1.11.04-1.63-.05-.21-.19-.51-.29-.7-.2-.37-.41-.54-.71-.78-.27-.21-.58-.39-.92-.48-.13-.04-.63-.1-.76-.1-.13,0-.26.02-.4.05-.25,0-.49.06-.71.19-.24.1-.29.11-.45.23.48-.13.96-.26,1.44-.39-.9,0-1.77.36-2.35,1.05-.37.37-.63.82-.77,1.33l-.11.8c0,.54.14,1.05.41,1.52.19.35.45.63.77.84.29.27.63.44,1.02.54.4.13.8.14,1.2.05.4-.02.77-.14,1.12-.36.45-.27.81-.63,1.08-1.08h0Z"/>
            <path class="cls-6" d="M198.21,194.41s.06.02.08.03c.26.1.74.09,1,0,.01,0,.03-.01.04-.02,0,0,.01,0,.02,0,.28-.07.52-.19.73-.39.23-.15.42-.35.55-.6.16-.25.24-.51.26-.8.06-.29.05-.57-.04-.86-.1-.36-.29-.68-.55-.95-.15-.11-.29-.22-.44-.34-.34-.19-.7-.29-1.09-.29l-.57.08c-.36.1-.68.29-.95.55-.11.15-.22.29-.34.44-.19.34-.29.7-.29,1.09-.01.3.05.57.19.83.09.27.24.5.44.69.27.27.59.45.95.55h0Z"/>
          </g>
          <g>
            <path class="cls-6" d="M54.41,120.42c.03-.11.06-.23.09-.34.16-.62.1-1.25-.23-1.81-.2-.34-.49-.64-.83-.84s-.76-.3-1.17-.31c-.42,0-.81.11-1.17.32-.16.12-.31.24-.47.36-.08.09-.15.19-.23.29-.3.3-.5.65-.62,1.06-.11.42-.11.85,0,1.27.19.59.55,1.11,1.1,1.43.27.18.57.27.89.28.32.07.64.06.96-.04.8-.22,1.46-.87,1.67-1.67h0Z"/>
            <path class="cls-6" d="M66.97,105.89c1.7,0,1.7-2.64,0-2.64s-1.7,2.64,0,2.64h0Z"/>
          </g>
          <g>
            <path class="cls-2" d="M184.52,104.27c1.45,1.03,3.09,2.6,5.01,2.23,1.26-.25,2.04-1.43,1.87-2.69-.26-1.89-2.32-2.95-3.72-3.97-1.15-.84-3-.59-3.79.63-.8,1.23-.61,2.92.63,3.79h0Z"/>
            <path class="cls-2" d="M194.05,118.29c.03.24.06.48.1.71.07.4.23.78.39,1.15.66,1.55,2.98,1.76,3.91.36.22-.34.45-.68.59-1.06.08-.23.15-.45.23-.68.3-.9.2-1.97-.46-2.7-.49-.53-1.11-.9-1.84-.97-.69-.06-1.45.17-1.99.62-.76.64-1.08,1.6-.94,2.57h0Z"/>
          </g>
          <path class="cls-2" d="M46.17,197.67c1.11,2.16,2.14,4.49,4.28,5.82,1.44.9,2.97-.31,3.12-1.79.24-2.5-1.18-4.88-2.21-7.07-.69-1.47-2.8-1.84-4.11-1.08-1.46.86-1.82,2.66-1.08,4.11h0Z"/>
          <path class="cls-2" d="M176.48,133.98c-8.84-35.76-52.59-47.59-82.53-30.19-21.58,12.54-32.71,40.03-24.79,63.94,6.8,20.52,26.62,33.16,47.46,35.6,23.17,2.72,46.02-7.17,55.78-29.11,5.54-12.45,7.36-26.93,4.07-40.24Z"/>
          <path class="cls-6" d="M51.51,13.22c1.11,2.86,2.45,5.59,4.06,8.21.79,1.28,1.62,2.54,2.51,3.76s1.7,2.54,2.98,3.29c.19.11.47-.08.39-.3-.5-1.34-1.53-2.42-2.36-3.58-.88-1.22-1.71-2.48-2.49-3.77-1.56-2.56-2.95-5.26-4.18-8-.22-.5-1.09-.14-.89.38h0Z"/>
          <path class="cls-6" d="M67.22,13.47c.68,2.01,1.32,4.04,1.93,6.07.6,1.99,1.08,4.03,2.01,5.89.12.25.55.13.53-.14-.15-2.08-.83-4.07-1.45-6.05s-1.31-4.04-2.02-6.05c-.22-.62-1.21-.36-1,.28h0Z"/>
          <path class="cls-6" d="M78.37,12.36c.54,2.81,1.11,5.6,1.73,8.39.3,1.34.6,2.68.91,4.02.28,1.19.4,2.92,1.35,3.79.25.23.6.12.72-.19.45-1.2-.25-2.84-.53-4.02-.32-1.33-.66-2.66-1.01-3.99-.71-2.76-1.47-5.5-2.26-8.24-.17-.59-1.02-.34-.9.25h0Z"/>
          <path class="cls-6" d="M102.35,13.52c.14,2.45.36,4.9.67,7.34.15,1.18.31,2.36.53,3.54.2,1.11.32,2.42,1.06,3.32.27.32.8.13.9-.24.29-1.04-.1-2.24-.29-3.26-.22-1.19-.45-2.37-.65-3.56-.4-2.37-.7-4.74-.92-7.13-.08-.83-1.36-.85-1.31,0h0Z"/>
          <path class="cls-6" d="M123.22,27.33c.13-2.75-.05-5.51-.2-8.26-.16-2.92-.27-5.91-.69-8.81-.05-.33-.61-.33-.66,0-.41,2.88-.15,5.91.01,8.81.15,2.75.34,5.51.22,8.26-.04.85,1.29.85,1.33,0h0Z"/>
          <path class="cls-6" d="M130.78,10.16c.25,2.91.13,5.87.09,8.79-.03,2.82-.29,5.91.41,8.67.12.48.82.36.84-.11.15-2.88.05-5.79.02-8.68-.03-2.88.03-5.81-.28-8.68-.07-.69-1.16-.71-1.09,0h0Z"/>
          <path class="cls-6" d="M154.35,11.28c-.08,2.69-.1,5.38-.12,8.08-.01,1.35-.04,2.7-.04,4.05,0,1.22-.14,2.67.26,3.84.13.38.61.36.75,0,.44-1.11.34-2.52.36-3.7.02-1.4,0-2.8-.02-4.19-.02-2.69-.04-5.38,0-8.08.01-.78-1.19-.78-1.21,0h0Z"/>
          <path class="cls-6" d="M167.28,10.73c-.79,3.17-1.42,6.37-1.94,9.6-.44,2.77-1.03,5.75-.61,8.55.03.21.38.26.46.06,1.1-2.6,1.27-5.59,1.66-8.36.45-3.18.98-6.36,1.67-9.5.18-.81-1.04-1.15-1.24-.34h0Z"/>
          <path class="cls-6" d="M186.64,11.84c-.58,2.6-1.24,5.18-1.81,7.78-.27,1.25-.57,2.5-.8,3.77-.12.66-.25,1.31-.32,1.97-.07.61-.19,1.26.05,1.85.11.27.43.4.67.18.85-.81,1.04-2.43,1.29-3.53.29-1.25.52-2.52.77-3.77.53-2.62.95-5.26,1.46-7.88.17-.86-1.13-1.23-1.32-.36h0Z"/>
          <path class="cls-6" d="M198.82,12.97c-.84,2.14-1.75,4.25-2.62,6.37s-2.02,4.09-2.1,6.32c-.01.31.38.44.58.24,1.66-1.55,2.36-3.93,3.14-5.99.83-2.17,1.49-4.39,2.11-6.64.2-.73-.85-.98-1.11-.31h0Z"/>
          <path class="cls-6" d="M43.58,220.49c-.42,1.09-.72,2.16-1.27,3.2s-1.1,2.08-1.67,3.11-1.03,2.02-1.46,3.07c-.38.93-.9,2.2-.57,3.21.09.27.4.28.55.07.33-.43.48-1,.67-1.5.19-.53.39-1.05.62-1.56.48-1.07,1.06-2.1,1.6-3.15s1.04-2.01,1.42-3.07c.37-1.02.79-2.19.76-3.29,0-.39-.52-.43-.65-.09h0Z"/>
          <path class="cls-6" d="M56.21,221.22c-.34,1.86-.68,3.71-1.02,5.57-.17.91-.31,1.83-.45,2.75s-.33,1.85-.06,2.72c.1.32.49.34.68.09.52-.72.64-1.68.78-2.53.16-.92.3-1.83.43-2.75.26-1.84.52-3.68.78-5.53.1-.74-1.01-1.08-1.15-.32h0Z"/>
          <path class="cls-6" d="M90.83,220.62c-.07,2.09-.14,4.19-.2,6.28-.03,1.05-.01,2.09-.02,3.14s-.01,2.04.32,3.02c.15.45.77.45.92,0,.33-.98.32-2,.32-3.02s.01-2.09-.02-3.14c-.05-2.09-.13-4.19-.2-6.28-.02-.73-1.11-.73-1.13,0h0Z"/>
          <path class="cls-6" d="M105.44,220.61c.09,2.22.08,4.44.09,6.66s-.25,4.44.31,6.53c.13.47.75.42.9,0,.73-2.04.54-4.4.48-6.53s-.3-4.45-.58-6.66c-.09-.75-1.24-.8-1.21,0h0Z"/>
          <path class="cls-6" d="M202.7,219.13c1.29,2.43,2.53,4.88,3.88,7.28.66,1.18,1.32,2.35,1.99,3.53.32.57.66,1.13,1,1.68.36.58.73,1.27,1.26,1.71.49.4,1.13.02,1.03-.6-.11-.68-.52-1.35-.85-1.95s-.62-1.15-.95-1.71c-.68-1.16-1.37-2.33-2.05-3.49-1.39-2.37-2.89-4.67-4.34-7.01-.38-.61-1.3-.07-.96.56h0Z"/>
          <path class="cls-6" d="M194.56,221.52c.78,1.87,1.5,3.77,2.16,5.69.32.95.61,1.9.92,2.85.26.81.5,2.01,1.27,2.48.16.1.41.04.49-.13.41-.83-.04-1.93-.3-2.76-.31-.98-.68-1.96-1.04-2.92-.72-1.92-1.51-3.82-2.36-5.69-.29-.64-1.42-.17-1.14.48h0Z"/>
          <path class="cls-6" d="M187.74,219.87c-.08,2.47-.05,4.94.22,7.4.13,1.17.28,2.34.47,3.5.2,1.25.48,2.43,1.26,3.45.18.24.64.27.71-.09.22-1.12.08-2.18-.11-3.3-.21-1.22-.45-2.44-.62-3.67-.33-2.42-.58-4.84-.68-7.28-.03-.8-1.22-.81-1.25,0h0Z"/>
          <path class="cls-6" d="M175.34,221.2c.34,1.94.67,3.88,1.01,5.81.16.95.33,1.9.49,2.85.15.88.22,1.98.89,2.64.2.2.61.19.74-.09.41-.89.1-1.94-.07-2.86l-.53-2.84c-.37-1.97-.74-3.93-1.11-5.9-.17-.93-1.57-.53-1.41.39h0Z"/>
          <path class="cls-6" d="M155.72,222.11c.22,1.78.44,3.55.67,5.33.11.86.25,1.72.38,2.58.07.46.12.93.22,1.38s.24.78.55,1.14c.28.32.72.09.85-.22.33-.79.06-1.7-.07-2.52-.14-.89-.27-1.78-.43-2.66-.32-1.73-.64-3.46-.96-5.19-.12-.67-1.3-.53-1.21.16h0Z"/>
          <path class="cls-6" d="M137.1,221.53c.53,2.2.91,4.43,1.1,6.69.09,1.07.14,2.15.17,3.23.03,1.01-.19,2.34.45,3.19.15.19.45.3.64.08.7-.82.55-2.02.52-3.03-.04-1.2-.15-2.39-.31-3.57-.31-2.33-.8-4.64-1.46-6.9-.21-.71-1.29-.42-1.11.31h0Z"/>
          <path class="cls-6" d="M124.35,221.37c-.07,1.75-.14,3.49-.2,5.24-.03.87-.03,1.75-.04,2.62s.03,1.71.41,2.49c.17.35.75.35.93,0,.38-.77.42-1.63.41-2.49s0-1.75-.04-2.62c-.07-1.75-.13-3.49-.2-5.24-.03-.82-1.24-.82-1.27,0h0Z"/>
          <path class="cls-6" d="M44.54,34.79c9.95-1.24,19.9-2.52,29.88-3.44,10.07-.93,20.15-1.48,30.25-1.85,20.24-.73,40.54-.45,60.76.83,5.6.35,11.19.81,16.77,1.39,2.86.3,5.72.61,8.58.96,2.87.34,5.63.92,8.5.34,1.33-.27,1.58-2.32.38-2.92-2.37-1.2-4.84-1.39-7.45-1.71-2.54-.31-5.08-.6-7.62-.88-5.02-.54-10.04-1.01-15.07-1.44-10.17-.87-20.36-1.5-30.57-1.67-20.36-.34-40.67.59-60.92,2.68-11.34,1.17-22.67,2.61-33.86,4.82-1.6.32-1.27,3.1.39,2.89h0Z"/>
          <path class="cls-6" d="M209.19,214.3c-11.09.6-22.16,1.36-33.26,1.89-11.13.52-22.27.79-33.42.97-22.45.36-44.92.2-67.37-.5-6.29-.2-12.57-.47-18.85-.82-3.05-.17-6.09-.35-9.14-.55-3.2-.21-6.37-.67-9.53.06-1.68.39-1.35,2.56,0,3.08,2.67,1.04,5.49,1.06,8.33,1.24s5.61.36,8.41.52c5.55.32,11.1.6,16.66.87,11.17.55,22.33.96,33.51,1.04,22.46.17,44.87-.46,67.29-1.78,12.48-.73,24.95-1.59,37.36-3.08,1.83-.22,1.93-3.05,0-2.95h0Z"/>
          <g>
            <path class="cls-6" d="M99.84,58.08c-.25,2.98-.54,6.02-.87,9.13-.33,3.1-.78,6.02-1.34,8.76-.14.67-.33,1.14-.58,1.42-.25.28-.6.47-1.05.58-.39.07-.92-.05-1.6-.37-.68-.32-1.25-.77-1.71-1.37-.6-.81-1.24-1.69-1.92-2.66-.68-.96-1.42-1.95-2.21-2.95s-1.61-1.99-2.47-2.97c-.86-.98-1.76-1.89-2.71-2.74-.1,2.32-.19,4.6-.26,6.87-.07,2.26-.07,4.53,0,6.81,0,.32-.28.47-.84.47-.67,0-1.21-.34-1.63-1.03-.42-.68-.67-1.38-.74-2.08-.1-.7-.16-1.71-.16-3.03s.03-2.69.08-4.13c.05-1.44.11-2.82.18-4.16s.14-2.38.21-3.16c.07-.84.27-1.46.6-1.84.33-.39.66-.56.97-.53.7.07,1.17.27,1.39.6.23.33.36.75.39,1.24,1.26.91,2.43,1.89,3.5,2.95,1.07,1.05,2.05,2.12,2.95,3.21.89,1.09,1.72,2.17,2.47,3.24.75,1.07,1.46,2.04,2.13,2.92.42-2.1.76-4.45,1.03-7.05.26-2.59.53-5.31.82-8.16-.04-.35.17-.69.63-1.03s.88-.48,1.26-.45c.98.07,1.47.56,1.47,1.47Z"/>
            <path class="cls-6" d="M121.78,59.87c.14.63.28,1.38.42,2.24.14.86.24,1.75.29,2.68s.06,1.89.03,2.87c-.04.98-.14,1.93-.32,2.84-.21,1.05-.63,2.02-1.26,2.89-.63.88-1.4,1.67-2.31,2.37-.88.7-1.85,1.27-2.92,1.71-1.07.44-2.14.75-3.21.95-1.07.19-2.12.23-3.16.11-1.04-.12-1.96-.41-2.76-.87-.91-.53-1.65-1.21-2.21-2.05-.56-.84-.81-1.88-.74-3.1.07-1.19.17-2.29.32-3.29.14-1,.32-1.96.55-2.87.23-.91.48-1.83.76-2.76.28-.93.58-1.9.89-2.92.17-.46.49-.72.95-.79.17-.03.38-.03.63,0,.11,0,.25.06.45.18.19.12.38.29.55.5.17.21.32.46.45.74.12.28.13.6.03.95-.32,1.12-.63,2.26-.95,3.42-.32,1.16-.59,2.26-.82,3.31-.23,1.05-.37,1.99-.42,2.81-.05.83.03,1.47.24,1.92.46.67,1.08,1.1,1.87,1.29.79.19,1.62.22,2.5.08.88-.14,1.73-.38,2.55-.71.82-.33,1.53-.69,2.13-1.08.95-.63,1.64-1.42,2.08-2.37.44-.95.71-1.98.82-3.1.11-1.12.1-2.3-.03-3.53-.12-1.23-.29-2.44-.5-3.63-.07-.32-.05-.72.05-1.21.1-.49.38-.88.84-1.16.49-.28.94-.25,1.34.1.4.35.69.84.87,1.47Z"/>
            <path class="cls-6" d="M148.3,58.66c-3.61-.17-7.09.11-10.42.84-3.33.74-6.63,1.74-9.89,3-.84.32-1.48.28-1.92-.11-.44-.39-.66-.77-.66-1.16.25-.67.68-1.21,1.32-1.63,7.19-3.51,14.38-4.81,21.57-3.89.35.1.64.36.87.76.23.4.31.75.24,1.03-.07.35-.18.64-.32.87-.14.23-.4.32-.79.29ZM140.83,77.02c0,.39-.13.73-.39,1.03s-.59.48-.97.55c-.7.1-1.16-.02-1.37-.37-.21-.35-.33-.75-.37-1.21-.04-2.46-.08-4.9-.13-7.34-.05-2.44-.17-4.88-.34-7.34,0-.14-.02-.31-.05-.5-.04-.19-.04-.38,0-.58.03-.19.11-.36.24-.5.12-.14.32-.25.61-.32.81-.14,1.38,0,1.74.39.35.4.53.8.53,1.18.28,2.53.46,5.03.53,7.52s.07,4.98,0,7.47Z"/>
            <path class="cls-6" d="M166.4,57.19c-.14.18-.39.31-.76.39-.37.09-.75,0-1.13-.29-.28-.21-.61-.43-1-.66-.39-.23-.81-.45-1.26-.66-.46-.21-.91-.39-1.37-.53-.46-.14-.89-.21-1.32-.21-.53,0-1.08.12-1.66.37-.58.25-1.08.6-1.5,1.05-.81.88-1.1,1.73-.87,2.55.23.82.83,1.59,1.82,2.29.63.46,1.32.92,2.05,1.39.74.47,1.46.94,2.18,1.39s1.4.89,2.05,1.32,1.22.79,1.71,1.1c.63.42,1.23.88,1.79,1.37.56.49,1.05,1.04,1.47,1.66.42.61.75,1.31,1,2.08.24.77.37,1.65.37,2.63-.25,1.93-1.01,3.46-2.29,4.6-1.28,1.14-2.76,1.87-4.45,2.18-1.47.28-2.92.23-4.34-.16-1.42-.39-2.62-1.12-3.6-2.21-.25-.28-.46-.67-.63-1.16s-.19-.84-.05-1.05c.21-.32.58-.53,1.11-.66s.93-.1,1.21.08c.81.74,1.75,1.27,2.84,1.61s2.23.36,3.42.08c.91-.21,1.65-.61,2.21-1.18.56-.58.91-1.24,1.05-1.97.17-.77.08-1.57-.29-2.39-.37-.82-1.03-1.57-1.97-2.24-1.44-1.09-2.97-2.11-4.6-3.05-1.63-.95-3.29-2.03-4.97-3.26-.81-.7-1.39-1.47-1.76-2.31-.37-.84-.55-1.67-.55-2.47s.17-1.64.53-2.39c.35-.75.84-1.44,1.47-2.05.63-.61,1.37-1.11,2.21-1.5.84-.39,1.77-.61,2.79-.68,1.4-.07,2.75.22,4.05.87s2.35,1.45,3.16,2.39c.17.21.25.47.24.79-.02.32-.13.61-.34.89Z"/>
          </g>
        </g>
        <g>
          <path class="cls-8" d="M90.24,127.33s25.16-5.93,26.87-2.63c1.71,3.29-2.5,10.67-3.56,12.78-1.05,2.11-22.92,9.09-25.69,5.8-2.77-3.29-4.61-5.14-3.43-8.56,1.19-3.43,5.8-7.38,5.8-7.38Z"/>
          <path class="cls-7" d="M116.23,130.23c-3.2,1.24-6.45,2.95-9.66,4.22-3.52,1.39-7.28,1.82-10.93,2.81-1.81.49-3.65.9-5.5,1.2-1.44.23-2.91.3-4.36.47,3.27-3.52,8.13-5.76,12.18-8.06,5.4-3.06,10.94-5.87,16.86-7.8.64-.21.74-.88.36-1.37-2.44-3.15-7.07-3.23-10.71-3.44-5.06-.3-9.78.83-14.41,2.84-3.62,1.57-6.78,4.19-8.28,7.92-1.13,2.82-1.33,6.73.24,9.53-.59.39-.8.85-.82,1.63-.01.4.37.81.78.78,2.33-.15,2.67,2.15,3.46,3.77.61,1.25,1.41,2.45,2.47,3.36,1.98,1.69,4.54,2.32,7.08,2.53,5.43.45,11.09-1.2,15.56-4.27,4.29-2.95,8.64-7.86,8.52-13.39-.04-2-.4-3.66-2.84-2.72Z"/>
          <path class="cls-6" d="M101.65,132.46c3.1-.88,7.55-1.85,9.74-4.41.37-.43.03-1.29-.61-1.05-1.46.55-2.75,1.52-4.16,2.2-1.71.82-3.48,1.56-5.23,2.3-.57.24-.37,1.14.26.96h0Z"/>
          <path class="cls-6" d="M114.22,127.48l.39-.2c.17-.09.32-.19.48-.31.25-.2.29-.67.12-.93-.18-.28-.53-.44-.86-.35s-.63.27-.93.42c-.38.18-.51.75-.29,1.09.24.38.69.49,1.09.29h0Z"/>
          <path class="cls-6" d="M93.52,144.71c.22-.27.47-.5.7-.76.31-.36.7-.99.26-1.41-.39-.37-.99-.2-1.39.07-.32.22-.6.52-.86.81-.32.36-.38.94,0,1.29.33.3.97.4,1.29,0h0Z"/>
          <path class="cls-6" d="M95.65,146.48c.79-.6,1.82-1.35,2.01-2.4.1-.54-.4-.93-.9-.69-.82.39-1.4,1.25-2.08,1.82-.69.58.25,1.82.97,1.26h0Z"/>
          <path class="cls-6" d="M101.27,125.18c.32-.29.76-.69.7-1.16-.02-.15-.05-.28-.14-.41s-.2-.19-.35-.24c-.46-.17-.92.16-1.29.41-.2.14-.33.3-.41.53-.09.27,0,.56.16.78.33.43.93.45,1.33.09h0Z"/>
          <g>
            <path class="cls-4" d="M152.04,115.5c-.34-.32-.7-.62-1.08-.88-2.45-1.68-4.79-.14-6.76,1.51-3.79,3.17-7.33,6.61-10.51,10.4-5.22,6.21-10.66,15.86-5.1,23.55,2.43,3.37,6.04,5.55,9.93,6.85,3.51,1.17,7.3,2.04,11.01,1.55,7.55-1,11.23-10.08,12.05-16.71.61-4.97-.26-9.96-2.22-14.56-.98-2.3-2.2-4.49-3.57-6.59-1.12-1.72-2.22-3.67-3.74-5.12Z"/>
            <path class="cls-6" d="M146.13,120.87c-3.87,3.29-6.96,7.11-9.1,11.74-1.96,4.25-4.01,9.98-3.14,14.72.11.59.96.4.99-.13.18-2.68.17-5.22.83-7.86.63-2.5,1.59-4.7,2.81-6.97,2.14-3.99,4.98-7.73,8.31-10.79.47-.43-.22-1.1-.7-.7h0Z"/>
            <path class="cls-6" d="M139.69,149.99c.06-1.2.16-2.45.33-3.64.09-.66-.81-.95-1.03-.28-.44,1.33-.61,2.51-.54,3.92.04.8,1.2.8,1.24,0h0Z"/>
            <path class="cls-6" d="M142.35,140.35c.67-2,1.3-4.01,2.06-5.97s1.88-3.8,2.48-5.78c.13-.43-.5-.85-.8-.46-1.19,1.53-1.89,3.48-2.6,5.27-.87,2.17-1.59,4.4-2.03,6.71-.11.58.69.81.88.24h0Z"/>
            <path class="cls-6" d="M150.96,130.66c.03,2.67.1,5.35-.19,8.01-.32,2.86-1.16,5.59-1.82,8.39-.09.38.47.66.66.28,2.51-4.91,3.35-11.42,2.58-16.84-.1-.71-1.24-.52-1.23.17h0Z"/>
            <path class="cls-6" d="M147.85,149.8c-.07.28-.15.57-.19.86-.04.32.03.57.15.86.12.31.45.41.71.19s.42-.39.54-.7c.1-.26.15-.54.22-.81.1-.39-.12-.8-.52-.91-.38-.1-.82.13-.91.52h0Z"/>
            <path class="cls-6" d="M152.43,126.34c-.1-.74.06-1.63-.49-2.23-.26-.28-.72-.19-.91.12-.41.67-.08,1.57-.03,2.3.07,1.05,1.58.87,1.44-.19h0Z"/>
          </g>
          <g>
            <path class="cls-5" d="M132,157.36c-5.02-3.22-11.06-4.69-16.97-4.93-3.62-.15-7.41.19-10.81,1.6-3.26,1.35-6.73,3.93-7.96,7.36-.47,1.32-.58,2.73-.3,4.1,1.06,5.16,6.68,5.83,11.1,5.71,3.11-.09,6.67-.52,9.48,1.11,2.96,1.71,3.35,4.52,2.32,7.54-.76,2.23-1.71,4.42-1.41,6.83.26,2.11,1.33,4.08,2.83,5.56,3.3,3.27,8.2,3.74,12.39,2.01,4.62-1.91,7.63-6.07,9.2-10.68,3.39-10-1.15-20.61-9.87-26.21Z"/>
            <path class="cls-6" d="M123.84,187.19c3.36-4.12,6.71-10.67,2.59-15.45-.33-.38-.97.03-.83.49,1.52,5.23,0,9.69-2.84,14.13-.41.64.58,1.44,1.07.83h0Z"/>
            <path class="cls-6" d="M123.97,166.28c-.59-.93-1.38-2.12-2.5-2.44-.46-.13-.82.38-.6.78.49.88,1.41,1.49,2.02,2.29.47.62,1.53.07,1.08-.63h0Z"/>
            <path class="cls-6" d="M118.03,163.06c.38,0,.38-.59,0-.59s-.38.59,0,.59h0Z"/>
            <path class="cls-6" d="M112.63,160.96c-.53.02-1.07.02-1.59.11-.5.09-.5.93,0,1.02s1.06.09,1.59.11c.8.03.8-1.27,0-1.24h0Z"/>
            <path class="cls-6" d="M136.33,176.55c.11-.79.12-1.66-.58-2.2-.35-.27-.77.05-.89.36-.17.43-.05.98-.1,1.4s.11.88.57,1.01c.38.1.95-.13,1.01-.57h0Z"/>
          </g>
          <path class="cls-6" d="M116.98,129.66c-5.46,2.91-11.76,4.67-17.73,6.28-3.9,1.05-7.84,1.74-11.8,2.35.78-.53,1.54-1.1,2.29-1.62,2.29-1.58,4.62-3.14,7.01-4.57,5.96-3.57,12.14-6.06,18.35-9.17,1.01-.5.65-1.69-.35-1.19-5.9,2.96-12.2,5.05-17.93,8.33-2.28,1.31-4.47,2.79-6.65,4.26-2.68,1.82-5.26,4.29-8.62,4.6-.47.04-.69.33-.67.6-.18.43.08,1.09.65,1.08,12.41-.38,26.04-4.05,36.82-10.18.93-.53-.42-1.29-1.36-.79Z"/>
        </g>
      </g>
    </g>
  </g>
</svg>