<?xml version="1.0" encoding="UTF-8"?>
<svg id="Capa_2" data-name="Capa 2" xmlns="http://www.w3.org/2000/svg" viewBox="0 0 200 200">
  <defs>
    <style>
      .cls-1 {
        fill: none;
      }

      .cls-1, .cls-2, .cls-3, .cls-4, .cls-5 {
        stroke-width: 0px;
      }

      .cls-2 {
        fill: #fff;
      }

      .cls-3 {
        fill: #593737;
      }

      .cls-4 {
        fill: #f28322;
      }

      .cls-5 {
        fill: #e34b4b;
      }
    </style>
  </defs>
  <g id="colorful_icons" data-name="colorful icons">
    <g>
      <g>
        <polygon class="cls-3" points="95.73 52.22 95.85 61.82 105.33 61.59 105.33 52.57 95.73 52.22"/>
        <path class="cls-5" d="m98.13,59.7c-13.28.91-26.19,6.58-35.37,16.74-11.41,12.61-16.16,31.37-11.93,47.88,4.19,16.37,15.42,31.04,32.75,37.33,15.49,5.62,33.12,2.47,46.51-6.83,27.82-19.33,30.48-67.47,1.09-86.7-9.86-6.45-21.59-9.2-33.05-8.41Z"/>
        <path class="cls-2" d="m98.62,70.18c-27.36.62-43.59,28.82-37.75,51.62,5.14,20.07,25.32,38.76,53.26,29,26.63-9.3,28.95-41.07,26.63-50.16-4.38-17.14-17.87-31.01-42.13-30.46Z"/>
        <g>
          <g>
            <path class="cls-3" d="m52.8,112.38c2.25.07,4.49.14,6.74.2s4.56.33,6.7-.38c.66-.22.66-1.12,0-1.34-2.13-.71-4.48-.44-6.7-.38s-4.49.12-6.74.2c-1.1.04-1.1,1.68,0,1.71h0Z"/>
            <path class="cls-3" d="m148.32,110.66c-2.25-.07-4.49-.14-6.74-.2s-4.56-.33-6.7.38c-.66.22-.66,1.12,0,1.34,2.13.71,4.48.44,6.7.38s4.49-.12,6.74-.2c1.1-.04,1.1-1.68,0-1.71h0Z"/>
          </g>
          <g>
            <path class="cls-3" d="m101.42,159.28c.07-2.25.14-4.49.2-6.74s.33-4.56-.38-6.7c-.22-.66-1.12-.66-1.34,0-.71,2.13-.44,4.48-.38,6.7s.12,4.49.2,6.74c.04,1.1,1.68,1.1,1.71,0h0Z"/>
            <path class="cls-3" d="m99.7,63.76c-.07,2.25-.14,4.49-.2,6.74s-.33,4.56.38,6.7c.22.66,1.12.66,1.34,0,.71-2.13.44-4.48.38-6.7s-.12-4.49-.2-6.74c-.04-1.1-1.68-1.1-1.71,0h0Z"/>
          </g>
        </g>
        <path class="cls-5" d="m79.27,38.87c-.22,4.38-.53,13.83.69,14.96,1.6,1.48,41.02.74,41.7-.95s2.06-14.75-.91-16.23c-2.49-1.23-29.8-.4-38.63-.1-1.72.06-2.79.97-2.86,2.31Z"/>
        <path class="cls-4" d="m102.59,106.38c.34,0,23.88,1.52,25.71,2.74,1.71,1.14,1.83,4.23-4.46,4.91-6.01.66-22.05,3.54-22.05,3.54l.8-11.2Z"/>
        <path class="cls-3" d="m100.24,104.9c-4.54.1-7.24,4.79-6.27,8.57.85,3.33,4.2,6.44,8.84,4.82s4.81-6.82,4.42-8.33c-.73-2.85-2.97-5.15-7-5.06Z"/>
      </g>
      <rect class="cls-1" width="200" height="200"/>
    </g>
  </g>
</svg>