<?xml version="1.0" encoding="UTF-8"?>
<svg id="Capa_2" xmlns="http://www.w3.org/2000/svg" viewBox="0 0 243.3 243.3">
  <defs>
    <style>
      .cls-1 {
        fill: #cb8a75;
      }

      .cls-2 {
        fill: #fff;
      }

      .cls-3 {
        fill: none;
      }

      .cls-4 {
        fill: #a83c19;
      }

      .cls-5 {
        fill: #feb672;
      }

      .cls-6 {
        fill: #fad380;
      }

      .cls-7 {
        fill: #4f3535;
      }
    </style>
  </defs>
  <g id="grocery_icons">
    <g>
      <rect class="cls-3" width="243.3" height="243.3"/>
      <g>
        <g>
          <g>
            <path class="cls-4" d="M123.33,26.24s-83.56-7.01-85.62-5.1c-2.06,1.91-2.24,16.55-2.13,17.74s4.75,15.9,5.78,19.59c1.03,3.69-5.89,58.69-8.25,75.76-2.37,17.08-3.37,41.42-3.49,41.95-.08.36-4.87,7.52-7.22,14.78-.46,4.34-.68,8.78-.8,9.88-.36,3.47,3.55,4.83,10.12,5.25,6.58.42,68.25,5.17,74.25,4.95,2.64-.09,3.59-8.99,2.37-15.19-1.55-7.88-5.81-13.57-6.05-15.09-.42-2.71,9.59-114.93,10.44-116.91.85-1.97,8.14-16.07,9.5-21.7.7-2.87,1.64-15.63,1.1-15.93Z"/>
            <g>
              <path class="cls-7" d="M36.17,37.16c10.1,1.11,20.3,1.59,30.44,2.34,12.71.93,25.42,1.87,38.14,2.64,5.46.33,10.93.68,16.4.62,1.18-.01,1.28-2.02.09-2.09-10.84-.68-21.69-1.19-32.53-1.91-12.53-.83-25.05-1.75-37.58-2.56-4.95-.32-9.92-.76-14.88-.74-.97,0-1.04,1.6-.07,1.71h0Z"/>
              <path class="cls-7" d="M43.1,21.83c-.2.7-.2,1.48-.26,2.2-.12,1.33-.24,2.67-.35,4.01-.12,1.52-.24,3.04-.35,4.56-.1,1.31-.31,2.67-.26,3.99.03.81,1.26.83,1.41.06.24-1.29.23-2.66.33-3.97.12-1.52.24-3.04.36-4.57.11-1.32.2-2.64.3-3.96.06-.75.17-1.51.13-2.26-.04-.8-1.12-.73-1.31-.05h0Z"/>
              <path class="cls-7" d="M51.51,22.78c-.35,2.32-.61,4.66-.92,6.99-.15,1.14-.3,2.29-.45,3.43-.15,1.11-.51,2.37-.32,3.49.11.61.92.8,1.22.21.49-.98.51-2.22.66-3.29.17-1.19.32-2.37.47-3.56.28-2.34.55-4.67.68-7.03.05-.85-1.2-1.12-1.34-.24h0Z"/>
              <path class="cls-7" d="M59.18,23.08c-.33,2.32-.51,4.65-.64,6.99-.06,1.11-.12,2.22-.16,3.33-.03,1.13-.25,2.47.06,3.56.21.75,1.17.45,1.35-.13.17-.54.11-1.19.13-1.76.01-.52.03-1.04.05-1.56.04-1.14.08-2.29.13-3.43.11-2.26.25-4.52.35-6.78.03-.8-1.16-1.08-1.27-.23h0Z"/>
              <path class="cls-7" d="M74.59,23.55c-.22,2.54-.46,5.09-.76,7.62-.14,1.22-.31,2.44-.49,3.66s-.54,2.56-.38,3.84c.07.58.83.7,1.1.19.59-1.14.68-2.49.87-3.75.19-1.26.36-2.53.51-3.8.3-2.56.48-5.12.55-7.7.02-.78-1.32-.84-1.39-.06h0Z"/>
              <path class="cls-7" d="M81.26,24.82c-.38,2.41-.57,4.84-.7,7.28-.06,1.19-.1,2.37-.15,3.56-.05,1.25-.33,2.65.01,3.87.15.55.98.53,1.19.04.48-1.08.36-2.41.41-3.58.05-1.23.08-2.47.11-3.7.05-2.42.16-4.83.46-7.23.11-.86-1.2-1.1-1.34-.24h0Z"/>
              <path class="cls-7" d="M91.34,26.45c-.25,2.41-.45,4.84-.5,7.26-.03,1.18-.04,2.36-.02,3.54.01,1.18-.14,2.58.23,3.72.23.72,1.24.52,1.39-.13.25-1.07.03-2.37.02-3.47-.01-1.18,0-2.36.02-3.54.06-2.38.14-4.75.31-7.13.07-.93-1.34-1.21-1.44-.26h0Z"/>
              <path class="cls-7" d="M101.65,26.89c-.43,2.32-.84,4.63-1.08,6.97-.11,1.14-.2,2.28-.24,3.42-.04,1.12-.19,2.42.21,3.49.25.67,1.14.49,1.3-.12.28-1.02.11-2.21.14-3.27.03-1.16.12-2.32.24-3.48.22-2.26.5-4.51.78-6.77.11-.87-1.19-1.11-1.35-.24h0Z"/>
              <path class="cls-7" d="M107.35,26.85c-.38,2.32-.67,4.65-.88,6.99-.1,1.15-.17,2.3-.22,3.45-.05,1.09-.28,2.41.06,3.46.17.53,1.07.61,1.26.05.36-1.05.19-2.33.24-3.44.04-1.13.11-2.25.19-3.37.16-2.3.42-4.6.75-6.88.13-.91-1.26-1.17-1.41-.25h0Z"/>
              <path class="cls-7" d="M114.26,27.27c-.16,2.52-.34,5.05-.59,7.57-.13,1.24-.27,2.47-.44,3.71-.15,1.14-.6,2.5-.3,3.63.11.42.8.54,1.04.17.63-.99.6-2.4.75-3.54.16-1.28.3-2.57.41-3.85.23-2.54.36-5.08.36-7.64,0-.69-1.18-.74-1.22-.05h0Z"/>
            </g>
            <g>
              <path class="cls-7" d="M108.58,195.37c-10.1-1.11-20.3-1.59-30.44-2.34-12.71-.93-25.42-1.87-38.14-2.64-5.46-.33-10.93-.68-16.4-.62-1.18.01-1.28,2.02-.09,2.09,10.84.68,21.69,1.19,32.53,1.91,12.53.83,25.05,1.75,37.58,2.56,4.95.32,9.92.76,14.88.74.97,0,1.04-1.6.07-1.71h0Z"/>
              <path class="cls-7" d="M101.65,210.7c.2-.7.2-1.48.26-2.2.12-1.33.24-2.67.35-4.01.12-1.52.24-3.04.35-4.56.1-1.31.31-2.67.26-3.99-.03-.81-1.26-.83-1.41-.06-.24,1.29-.23,2.66-.33,3.97-.12,1.52-.24,3.04-.36,4.57-.11,1.32-.2,2.64-.3,3.96-.06.75-.17,1.51-.13,2.26.04.8,1.12.73,1.31.05h0Z"/>
              <path class="cls-7" d="M93.24,209.75c.35-2.32.61-4.66.92-6.99.15-1.14.3-2.29.45-3.43s.51-2.37.32-3.49c-.11-.61-.92-.8-1.22-.21-.49.98-.51,2.22-.66,3.29-.17,1.19-.32,2.37-.47,3.56-.28,2.34-.55,4.67-.68,7.03-.05.85,1.2,1.12,1.34.24h0Z"/>
              <path class="cls-7" d="M85.57,209.45c.33-2.32.51-4.65.64-6.99.06-1.11.12-2.22.16-3.33.03-1.13.25-2.47-.06-3.56-.21-.75-1.17-.45-1.35.13-.17.54-.11,1.19-.13,1.76-.01.52-.03,1.04-.05,1.56-.04,1.14-.08,2.29-.13,3.43-.11,2.26-.25,4.52-.35,6.78-.03.8,1.16,1.08,1.27.23h0Z"/>
              <path class="cls-7" d="M70.15,208.99c.22-2.54.46-5.09.76-7.62.14-1.22.31-2.44.49-3.66.19-1.26.54-2.56.38-3.84-.07-.58-.83-.7-1.1-.19-.59,1.14-.68,2.49-.87,3.75-.19,1.26-.36,2.53-.51,3.8-.3,2.56-.48,5.12-.55,7.7-.02.78,1.32.84,1.39.06h0Z"/>
              <path class="cls-7" d="M63.48,207.71c.38-2.41.57-4.84.7-7.28.06-1.19.1-2.37.15-3.56.05-1.25.33-2.65-.01-3.87-.15-.55-.98-.53-1.19-.04-.48,1.08-.36,2.41-.41,3.58-.05,1.23-.08,2.47-.11,3.7-.05,2.42-.16,4.83-.46,7.23-.11.86,1.2,1.1,1.34.24h0Z"/>
              <path class="cls-7" d="M53.4,206.08c.25-2.41.45-4.84.5-7.26.03-1.18.04-2.36.02-3.54s.14-2.58-.23-3.72c-.23-.72-1.24-.52-1.39.13-.25,1.07-.03,2.37-.02,3.47.01,1.18,0,2.36-.02,3.54-.06,2.38-.14,4.75-.31,7.13-.07.93,1.34,1.21,1.44.26h0Z"/>
              <path class="cls-7" d="M43.09,205.65c.43-2.32.84-4.63,1.08-6.97.11-1.14.2-2.28.24-3.42.04-1.12.19-2.42-.21-3.49-.25-.67-1.14-.49-1.3.12-.28,1.02-.11,2.21-.14,3.27-.03,1.16-.12,2.32-.24,3.48-.22,2.26-.5,4.51-.78,6.77-.11.87,1.19,1.11,1.35.24h0Z"/>
              <path class="cls-7" d="M37.39,205.69c.38-2.32.67-4.65.88-6.99.1-1.15.17-2.3.22-3.45.05-1.09.28-2.41-.06-3.46-.17-.53-1.07-.61-1.26-.05-.36,1.05-.19,2.33-.24,3.44-.04,1.13-.11,2.25-.19,3.37-.16,2.3-.42,4.6-.75,6.88-.13.91,1.26,1.17,1.41.25h0Z"/>
              <path class="cls-7" d="M30.49,205.26c.16-2.52.34-5.05.59-7.57.13-1.24.27-2.47.44-3.71.15-1.14.6-2.5.3-3.63-.11-.42-.8-.54-1.04-.17-.63.99-.6,2.4-.75,3.54-.16,1.28-.3,2.57-.41,3.85-.23,2.54-.36,5.08-.36,7.64,0,.69,1.18.74,1.22.05h0Z"/>
            </g>
          </g>
          <path class="cls-5" d="M60.7,69.12c-1.82.17-3.89.13-5.09,6.9s-6.64,81.35-6.89,83.66c-.24,2.32-2.24,8.01,4.92,8.49,7.15.48,15.03,1.35,19.21,1.88,4.18.53,7.67-1.4,9.33-8.21,1.66-6.81,8.56-73.04,9.31-79.76.75-6.72.12-11.02-3.81-11.34-3.93-.32-25.16-1.78-26.98-1.62Z"/>
          <path class="cls-2" d="M58.23,118.1c1.89,4.74,3.86,9.45,6,14.08,1.04,2.24,2.11,4.47,3.2,6.68.57,1.15,1.13,2.31,1.73,3.44s1.17,2.41,2.02,3.37c1,1.12,2.63.24,2.27-1.21-.58-2.3-2.13-4.55-3.21-6.66-1.16-2.27-2.3-4.56-3.41-6.86-2.19-4.53-4.33-9.08-6.35-13.69-.61-1.4-2.82-.6-2.25.85h0Z"/>
          <path class="cls-2" d="M62.79,97.68c1.93,3.98,3.91,7.94,5.95,11.86.99,1.92,2,3.83,3.02,5.73,1.05,1.96,2.07,3.98,3.47,5.71.83,1.03,2.54.19,2.08-1.11-.71-2.02-1.8-3.88-2.83-5.75-1.06-1.93-2.11-3.87-3.14-5.82-2.04-3.84-4.02-7.72-5.95-11.61-.79-1.59-3.39-.64-2.61.99h0Z"/>
          <path class="cls-2" d="M75.12,84.52c.73,1.41,1.4,2.85,2.01,4.32s1.09,2.99,1.79,4.42c.24.5.72.82,1.29.68.5-.12.96-.63.86-1.18-.28-1.65-.9-3.2-1.55-4.74-.63-1.49-1.33-2.96-2.09-4.39-.31-.59-.91-.98-1.59-.72-.57.21-1.03,1-.72,1.59h0Z"/>
          <path class="cls-2" d="M45.77,47.37c.31.09.61.19.92.28.07.02.14.04.22.05l.24.02c.17.02.36.05.53.03.08,0,.15-.03.22-.04.19-.04.37-.08.53-.2l.2-.19c.1-.11.16-.23.19-.37.04-.09.06-.18.05-.28.02-.1,0-.2-.03-.29,0-.1-.04-.19-.1-.27-.06-.13-.14-.24-.26-.33-.05-.05-.1-.11-.16-.16-.13-.11-.29-.18-.44-.26l-.21-.11c-.16-.08-.34-.12-.52-.17l-.94-.27c-.18-.04-.35-.03-.52.02-.17.02-.33.09-.47.2-.14.1-.25.22-.33.37-.1.14-.17.29-.19.46-.04.34,0,.71.22.98l.23.24c.18.14.38.24.6.28h0Z"/>
          <path class="cls-2" d="M47.23,51.73c1.06-.1.91-1.75-.15-1.65-1.06.1-.91,1.75.15,1.65h0Z"/>
          <path class="cls-7" d="M104.14,69.71c.06-.02.13-.04.2-.06l-.33.08c.2-.05.4-.06.61-.06h-.34c.2,0,.4.03.6.09l-.31-.1s.06.02.08.03h.03c.15.09.31.12.48.11.2,0,.3.02.52-.07.11-.05.21-.11.31-.17l-.27.15s.08-.04.13-.06c.21-.09.38-.22.5-.42.11-.18.2-.42.16-.64-.02-.14-.06-.29-.1-.43,0,0,0-.02,0-.03l-.15-.28-.22-.23-.02-.02c-.08-.06-.2-.14-.3-.18-.02,0-.05-.02-.07-.03-.25-.09-.51-.17-.77-.21s-.54-.05-.8-.03-.55.09-.82.17c-.16.05-.3.14-.41.27-.13.1-.23.23-.29.39-.08.15-.11.32-.11.49-.02.17,0,.34.07.5.13.3.35.58.65.7.32.13.65.15.99.04h0Z"/>
          <path class="cls-7" d="M104.06,76.3c1.46-.14,1.25-2.41-.21-2.27s-1.25,2.41.21,2.27h0Z"/>
          <path class="cls-7" d="M101.91,94.78c.98-.09.84-1.62-.14-1.53s-.84,1.62.14,1.53h0Z"/>
          <path class="cls-2" d="M36.62,175.03l1.09-.1c.47-.04.94-.06,1.4-.21l.31-.17c.15-.1.27-.23.35-.38.15-.24.25-.55.21-.85-.03-.24-.12-.46-.25-.66-.17-.27-.55-.5-.87-.55-.48-.06-.94,0-1.41.05l-1.09.11c-.35.04-.71.22-.93.49s-.36.67-.31,1.01.2.71.49.93.64.34,1.01.31h0Z"/>
        </g>
        <g>
          <path class="cls-1" d="M179.94,66.5c-9.53,1.12-30.65,25.56-45.93,41.2-15.29,15.64-57.69,60.19-64.63,67.02s-14.13,15.76-12.73,20.91c1.4,5.14,26.51,31.02,36.06,37.47,9.54,6.45,12.66,2.95,26.4-9.57,13.74-12.52,67.09-65.19,80.79-78.16,13.7-12.97,29.61-26.84,28.85-35.02s-39.28-44.96-48.8-43.85Z"/>
          <g>
            <path class="cls-4" d="M110.87,188.72c-.19.23-.37.48-.52.74-.98,1.66.13,3.11,1.28,4.3,2.22,2.3,4.61,4.44,7.21,6.32,4.26,3.09,10.74,6.17,15.47,2.22,2.07-1.73,3.31-4.16,3.98-6.74.6-2.32.99-4.81.5-7.19-.99-4.84-7.04-6.8-11.36-7.03-3.25-.17-6.43.63-9.31,2.1-1.44.74-2.81,1.63-4.1,2.61-1.06.81-2.27,1.6-3.14,2.66Z"/>
            <path class="cls-7" d="M114.61,192.3c2.3,2.35,4.92,4.18,8.01,5.35,2.84,1.07,6.64,2.13,9.66,1.36.38-.1.22-.64-.13-.64-1.74,0-3.38.13-5.12-.18-1.65-.29-3.12-.81-4.64-1.5-2.68-1.2-5.22-2.87-7.36-4.88-.3-.29-.7.19-.42.48h0Z"/>
            <path class="cls-7" d="M133.74,195.13c-.78.02-1.59.01-2.37-.04-.43-.03-.58.57-.14.68.88.22,1.65.28,2.56.17.51-.06.46-.81-.06-.8h0Z"/>
            <path class="cls-7" d="M127.38,193.85c-1.32-.34-2.65-.66-3.96-1.06-1.29-.4-2.54-1.04-3.85-1.34-.28-.06-.53.36-.26.54,1.04.7,2.34,1.06,3.53,1.44,1.45.46,2.92.83,4.43,1.01.38.04.49-.49.12-.58h0Z"/>
            <path class="cls-7" d="M120.72,188.73c1.73-.14,3.46-.31,5.19-.24,1.87.07,3.67.5,5.51.79.25.04.4-.33.15-.44-3.29-1.4-7.54-1.65-11.01-.9-.45.1-.28.82.16.79h0Z"/>
            <path class="cls-7" d="M133.24,189.86c.19.03.37.07.56.08.21.01.37-.05.55-.14.19-.09.24-.31.09-.47s-.27-.25-.48-.32c-.17-.05-.35-.07-.53-.1-.26-.04-.51.12-.57.38s.12.52.38.57h0Z"/>
            <path class="cls-7" d="M117.86,187.97c-.48.1-1.06.04-1.42.42-.17.18-.09.48.12.58.45.23,1.02-.02,1.49-.09.67-.09.49-1.06-.19-.92h0Z"/>
          </g>
          <g>
            <path class="cls-4" d="M171.32,119.77c.22-.21.42-.43.6-.68,1.16-1.54.22-3.1-.79-4.42-1.95-2.54-4.08-4.93-6.45-7.09-3.88-3.55-9.98-7.34-15.12-3.95-2.25,1.48-3.76,3.76-4.71,6.25-.85,2.24-1.52,4.67-1.31,7.09.44,4.92,6.22,7.55,10.49,8.26,3.21.53,6.46.1,9.49-1.04,1.52-.57,2.97-1.31,4.37-2.13,1.15-.68,2.44-1.34,3.42-2.28Z"/>
            <path class="cls-7" d="M168,115.8c-2.02-2.6-4.41-4.7-7.36-6.21-2.7-1.39-6.35-2.87-9.45-2.44-.38.05-.29.61.06.65,1.73.19,3.38.25,5.07.75,1.6.47,3,1.16,4.44,2.01,2.52,1.5,4.87,3.44,6.76,5.68.27.32.72-.11.47-.43h0Z"/>
            <path class="cls-7" d="M149.32,110.83c.78.07,1.58.17,2.35.31.43.08.64-.5.21-.66-.85-.32-1.61-.47-2.52-.46-.52,0-.55.76-.03.8h0Z"/>
            <path class="cls-7" d="M155.49,112.82c1.28.49,2.56.95,3.81,1.5,1.24.54,2.41,1.32,3.68,1.77.27.1.56-.3.32-.5-.96-.81-2.2-1.32-3.34-1.83-1.38-.62-2.81-1.15-4.29-1.5-.37-.09-.54.43-.18.57h0Z"/>
            <path class="cls-7" d="M161.52,118.66c-1.73-.05-3.47-.08-5.19-.34-1.85-.28-3.59-.91-5.38-1.41-.24-.07-.44.28-.2.42,3.11,1.76,7.3,2.49,10.84,2.13.46-.05.37-.79-.07-.8h0Z"/>
            <path class="cls-7" d="M149.22,116.12c-.18-.05-.36-.11-.55-.15-.21-.03-.37,0-.56.07-.2.07-.28.28-.14.45s.24.28.44.37c.16.07.34.11.52.16.25.07.52-.06.61-.31s-.06-.53-.31-.61h0Z"/>
            <path class="cls-7" d="M164.28,119.73c.48-.04,1.05.08,1.46-.26.19-.16.14-.46-.05-.59-.42-.28-1.02-.09-1.49-.08-.68.01-.61,1,.09.93h0Z"/>
          </g>
          <g>
            <path class="cls-4" d="M141.88,133.38c-.19-.24-.39-.46-.61-.67-1.41-1.31-3.06-.55-4.48.32-2.73,1.67-5.33,3.54-7.74,5.66-3.94,3.49-8.36,9.15-5.53,14.62,1.24,2.39,3.34,4.14,5.71,5.35,2.14,1.09,4.48,2.01,6.91,2.05,4.94.08,8.17-5.39,9.33-9.56.87-3.13.79-6.41-.03-9.55-.41-1.57-.98-3.09-1.66-4.57-.56-1.21-1.07-2.57-1.91-3.64Z"/>
            <path class="cls-7" d="M137.58,136.26c-2.79,1.74-5.14,3.89-6.96,6.66-1.67,2.54-3.53,6.02-3.42,9.14.01.39.57.35.65,0,.37-1.7.61-3.33,1.28-4.96.64-1.54,1.47-2.87,2.47-4.2,1.75-2.35,3.93-4.48,6.36-6.12.34-.23-.03-.73-.38-.51h0Z"/>
            <path class="cls-7" d="M130.66,154.31c.15-.76.33-1.56.56-2.3.12-.42-.43-.69-.63-.28-.41.81-.63,1.55-.72,2.46-.05.52.69.63.8.12h0Z"/>
            <path class="cls-7" d="M133.29,148.38c.62-1.22,1.22-2.44,1.89-3.63.67-1.18,1.57-2.25,2.15-3.47.12-.26-.24-.59-.47-.37-.91.87-1.54,2.05-2.17,3.13-.77,1.31-1.44,2.67-1.94,4.11-.13.36.37.58.54.24h0Z"/>
            <path class="cls-7" d="M139.74,143c-.24,1.72-.45,3.44-.89,5.12-.48,1.81-1.28,3.48-1.97,5.2-.09.24.24.46.4.24,2.08-2.91,3.24-7,3.27-10.55,0-.46-.74-.45-.8-.01h0Z"/>
            <path class="cls-7" d="M135.91,154.97c-.07.18-.15.35-.2.53-.06.2-.03.37.01.57.05.21.25.3.44.19s.31-.21.42-.4c.09-.16.15-.33.22-.5.1-.24,0-.53-.24-.64s-.54,0-.64.24h0Z"/>
            <path class="cls-7" d="M141.1,140.36c0-.49.19-1.04-.1-1.47-.14-.2-.45-.19-.6-.01-.33.39-.2,1-.24,1.47-.06.68.93.71.94.01h0Z"/>
          </g>
          <g>
            <path class="cls-4" d="M72.28,203.08c.19.23.41.45.63.64,1.46,1.26,3.08.43,4.46-.49,2.67-1.78,5.19-3.74,7.51-5.96,3.8-3.64,7.99-9.47,4.95-14.82-1.33-2.34-3.5-4-5.92-5.12-2.18-1-4.56-1.83-6.98-1.78-4.94.11-7.95,5.71-8.94,9.92-.75,3.16-.53,6.44.4,9.54.47,1.55,1.1,3.05,1.84,4.5.6,1.19,1.17,2.52,2.05,3.57Z"/>
            <path class="cls-7" d="M76.47,200.04c2.72-1.85,4.99-4.09,6.69-6.92,1.56-2.6,3.29-6.15,3.06-9.26-.03-.39-.59-.33-.65.02-.3,1.71-.48,3.35-1.09,5.01-.58,1.57-1.35,2.92-2.3,4.3-1.66,2.42-3.75,4.63-6.12,6.37-.34.25.06.73.4.5h0Z"/>
            <path class="cls-7" d="M82.67,181.73c-.12.77-.27,1.57-.47,2.32-.11.42.45.67.64.26.38-.83.57-1.57.62-2.49.03-.52-.72-.6-.8-.09h0Z"/>
            <path class="cls-7" d="M80.28,187.76c-.57,1.24-1.12,2.49-1.75,3.7-.62,1.2-1.48,2.31-2.01,3.55-.11.27.26.58.48.35.87-.9,1.46-2.11,2.05-3.21.71-1.34,1.34-2.73,1.78-4.18.11-.36-.39-.57-.55-.22h0Z"/>
            <path class="cls-7" d="M74.05,193.39c.17-1.72.31-3.46.69-5.15.41-1.82,1.14-3.52,1.76-5.28.08-.24-.25-.46-.4-.23-1.96,2.99-2.97,7.12-2.85,10.67.01.46.76.43.8-.02h0Z"/>
            <path class="cls-7" d="M77.4,181.28c.06-.18.14-.35.18-.54.05-.2.02-.37-.04-.56-.06-.21-.26-.29-.44-.17s-.3.22-.4.41c-.08.16-.14.34-.2.5-.09.24.02.53.27.63s.54-.02.63-.27h0Z"/>
            <path class="cls-7" d="M72.79,196.07c.01.49-.15,1.05.16,1.47.15.2.45.17.6-.01.31-.4.16-1.01.18-1.48.03-.68-.96-.67-.94.02h0Z"/>
          </g>
          <g>
            <path class="cls-4" d="M212.94,122.72c.3.02.6.03.9,0,1.92-.15,2.48-1.88,2.8-3.51.62-3.14,1.01-6.32,1.08-9.52.11-5.26-1.07-12.34-7-13.97-2.6-.71-5.31-.35-7.8.58-2.25.84-4.51,1.94-6.19,3.69-3.41,3.57-1.57,9.66.71,13.34,1.71,2.76,4.19,4.92,7.04,6.45,1.43.76,2.94,1.37,4.48,1.87,1.27.41,2.61.95,3.97,1.06Z"/>
            <path class="cls-7" d="M213.74,117.61c.62-3.23.62-6.42-.18-9.63-.74-2.94-2.04-6.67-4.4-8.71-.29-.25-.65.19-.45.47,1,1.43,2.04,2.7,2.78,4.3.7,1.52,1.11,3.02,1.42,4.66.54,2.88.63,5.93.19,8.83-.06.41.56.47.64.07h0Z"/>
            <path class="cls-7" d="M205.15,100.28c.46.63.92,1.3,1.31,1.97.22.37.8.15.64-.28-.32-.85-.71-1.52-1.32-2.2-.35-.38-.93.08-.63.5h0Z"/>
            <path class="cls-7" d="M207.73,106.23c.47,1.28.97,2.55,1.39,3.85.41,1.29.6,2.68,1.1,3.93.11.27.6.23.59-.09-.02-1.26-.46-2.52-.83-3.72-.44-1.45-.99-2.87-1.7-4.21-.18-.34-.68-.13-.55.24h0Z"/>
            <path class="cls-7" d="M207.32,114.62c-1.1-1.34-2.23-2.66-3.16-4.12-1.01-1.57-1.69-3.3-2.49-4.97-.11-.23-.5-.14-.45.13.73,3.5,2.95,7.13,5.55,9.56.34.32.84-.24.55-.58h0Z"/>
            <path class="cls-7" d="M201.11,103.7c-.08-.17-.15-.35-.25-.51-.11-.18-.25-.27-.43-.37-.19-.1-.39-.02-.43.19s-.05.37.01.58c.05.17.14.33.22.5.11.24.39.36.63.25s.36-.4.25-.63h0Z"/>
            <path class="cls-7" d="M208.34,117.41c.35.33.64.85,1.15.92.24.04.44-.2.41-.43-.07-.51-.6-.83-.92-1.18-.46-.5-1.15.2-.65.68h0Z"/>
          </g>
          <g>
            <path class="cls-6" d="M99.07,211.96c-.57,3.07-.09,6.3.97,9.22.64,1.79,1.56,3.56,2.92,4.93,1.3,1.32,3.24,2.49,5.15,2.41.73-.03,1.44-.26,2.05-.67,2.3-1.54,1.51-4.4.57-6.52-.66-1.49-1.57-3.14-1.34-4.82.25-1.77,1.53-2.52,3.2-2.62,1.23-.07,2.49-.05,3.59-.67.97-.55,1.72-1.45,2.14-2.48.93-2.25.19-4.72-1.48-6.41-1.84-1.86-4.46-2.5-7.01-2.35-5.53.33-9.78,4.64-10.77,9.98Z"/>
            <path class="cls-7" d="M115.16,210.02c-2.67-.82-6.51-1.14-8.01,1.8-.12.24.2.46.4.31,2.24-1.78,4.7-1.92,7.42-1.42.39.07.58-.57.19-.69h0Z"/>
            <path class="cls-7" d="M104.99,214.1c-.34.47-.76,1.09-.69,1.7.03.25.35.32.5.14.33-.41.44-.98.71-1.43.21-.35-.27-.75-.52-.4h0Z"/>
            <path class="cls-7" d="M104.6,217.62c-.08-.19-.36-.07-.29.12s.36.07.29-.12h0Z"/>
            <path class="cls-7" d="M104.65,220.65c.12.25.22.51.37.75s.55.06.49-.2-.17-.53-.26-.79c-.14-.39-.78-.14-.6.25h0Z"/>
            <path class="cls-7" d="M107.53,206.06c-.41.11-.83.27-.95.72-.06.22.17.36.35.36.24,0,.48-.17.7-.23s.41-.22.37-.48c-.02-.21-.25-.43-.48-.37h0Z"/>
          </g>
          <g>
            <path class="cls-6" d="M100.17,182.79c3.27.77,6.77.42,9.96-.55,1.95-.6,3.91-1.49,5.45-2.87,1.48-1.33,2.84-3.35,2.86-5.41,0-.79-.2-1.56-.61-2.24-1.53-2.55-4.65-1.85-6.97-.96-1.64.63-3.45,1.52-5.26,1.18-1.89-.36-2.63-1.78-2.65-3.58-.01-1.33.08-2.67-.53-3.9-.54-1.08-1.47-1.92-2.55-2.43-2.37-1.12-5.07-.46-6.97,1.25-2.1,1.88-2.93,4.66-2.89,7.41.07,5.96,4.47,10.76,10.16,12.1Z"/>
            <path class="cls-7" d="M98.93,165.39c-1.02,2.82-1.57,6.94,1.51,8.71.25.14.51-.19.35-.41-1.79-2.5-1.82-5.16-1.14-8.05.1-.42-.58-.66-.73-.24h0Z"/>
            <path class="cls-7" d="M102.78,176.54c.49.39,1.13.87,1.79.83.27-.02.37-.36.17-.53-.42-.38-1.03-.53-1.5-.84-.37-.24-.82.25-.46.54h0Z"/>
            <path class="cls-7" d="M106.54,177.14c-.2.07-.09.39.11.32s.09-.39-.11-.32h0Z"/>
            <path class="cls-7" d="M109.81,177.24c.28-.11.56-.21.83-.36s.09-.59-.19-.54-.58.15-.87.24c-.43.13-.19.83.23.66h0Z"/>
            <path class="cls-7" d="M94.28,173.38c.09.44.25.91.72,1.06.23.08.4-.17.41-.36.01-.26-.16-.53-.21-.76s-.22-.45-.49-.43c-.22.02-.48.25-.43.49h0Z"/>
          </g>
          <g>
            <path class="cls-6" d="M148.07,161.45c.49,3.33,2.1,6.45,4.18,9.06,1.28,1.6,2.82,3.08,4.68,4.01,1.78.89,4.16,1.41,6.08.67.73-.29,1.38-.77,1.86-1.39,1.81-2.36.01-5-1.67-6.84-1.19-1.29-2.69-2.65-3.03-4.45-.36-1.89.68-3.1,2.35-3.78,1.23-.5,2.52-.91,3.43-1.92.8-.89,1.25-2.07,1.32-3.27.17-2.62-1.44-4.88-3.73-6.02-2.52-1.26-5.41-1.01-7.95.04-5.51,2.25-8.35,8.12-7.51,13.9Z"/>
            <path class="cls-7" d="M163.79,153.89c-3,.09-7.03,1.09-7.54,4.61-.04.28.37.4.52.18,1.66-2.58,4.13-3.59,7.07-4.02.43-.06.4-.78-.04-.76h0Z"/>
            <path class="cls-7" d="M154.84,161.57c-.18.6-.39,1.37-.12,1.97.11.24.47.21.56-.03.19-.53.11-1.15.23-1.71.09-.43-.54-.67-.67-.23h0Z"/>
            <path class="cls-7" d="M155.66,165.29c-.14-.16-.39.06-.25.22s.39-.06.25-.22h0Z"/>
            <path class="cls-7" d="M156.77,168.37c.21.22.4.45.64.64.22.18.58-.13.43-.38s-.35-.48-.54-.72c-.28-.35-.84.13-.53.46h0Z"/>
            <path class="cls-7" d="M154.64,152.5c-.38.25-.75.56-.72,1.06.02.25.3.31.49.25.25-.08.43-.34.63-.47s.33-.37.22-.62c-.1-.2-.41-.35-.62-.22h0Z"/>
          </g>
          <g>
            <path class="cls-6" d="M191.3,139.81c3.18-.8,6.05-2.66,8.38-4.94,1.43-1.39,2.72-3.04,3.44-4.93s.96-4.18.05-5.97c-.35-.69-.88-1.26-1.53-1.67-2.47-1.52-4.86.48-6.47,2.29-1.14,1.28-2.31,2.87-4.02,3.38-1.8.54-3.07-.36-3.9-1.92-.61-1.14-1.13-2.35-2.2-3.14-.95-.69-2.13-1.01-3.3-.96-2.56.09-4.59,1.87-5.48,4.21-.98,2.57-.45,5.35.81,7.72,2.73,5.13,8.7,7.32,14.23,5.93Z"/>
            <path class="cls-7" d="M182.42,125.29c.38,2.9,1.74,6.72,5.21,6.87.28.01.36-.4.12-.52-2.67-1.36-3.89-3.65-4.59-6.47-.1-.41-.79-.31-.74.12h0Z"/>
            <path class="cls-7" d="M190.76,133.23c.6.11,1.37.25,1.92-.08.23-.13.16-.48-.09-.54-.54-.14-1.13,0-1.68-.05-.43-.05-.6.59-.15.67h0Z"/>
            <path class="cls-7" d="M194.28,132.06c-.14.15.09.38.24.22s-.09-.38-.24-.22h0Z"/>
            <path class="cls-7" d="M197.16,130.69c.19-.22.4-.43.56-.68s-.18-.55-.41-.38-.44.39-.64.59c-.31.31.21.8.5.47h0Z"/>
            <path class="cls-7" d="M181.97,134.31c.28.34.62.68,1.1.6.24-.04.27-.32.19-.5-.11-.23-.37-.39-.52-.57s-.39-.29-.62-.15c-.19.11-.3.43-.15.62h0Z"/>
          </g>
          <g>
            <path class="cls-6" d="M178.77,76.53c-3.32.67-6.36,2.45-8.87,4.69-1.53,1.37-2.94,3-3.78,4.92s-1.19,4.26-.34,6.14c.33.72.84,1.34,1.5,1.79,2.47,1.69,5.03-.26,6.78-2.05,1.23-1.26,2.52-2.84,4.31-3.29,1.88-.47,3.15.52,3.92,2.16.57,1.21,1.05,2.48,2.12,3.34.94.76,2.15,1.14,3.35,1.15,2.64.03,4.82-1.71,5.85-4.07,1.13-2.6.72-5.49-.47-7.99-2.56-5.42-8.61-7.95-14.37-6.79Z"/>
            <path class="cls-7" d="M187.21,91.91c-.26-3.01-1.48-7-5.04-7.32-.29-.03-.38.39-.15.53,2.69,1.53,3.83,3.95,4.42,6.88.09.42.8.36.77-.09h0Z"/>
            <path class="cls-7" d="M179.01,83.34c-.61-.15-1.4-.32-1.98,0-.24.13-.18.48.06.56.55.17,1.16.05,1.73.14.44.07.65-.58.19-.68h0Z"/>
            <path class="cls-7" d="M175.32,84.37c.16-.15-.08-.39-.23-.24s.08.39.23.24h0Z"/>
            <path class="cls-7" d="M172.29,85.65c-.21.22-.43.43-.6.67s.16.58.4.42.47-.38.69-.58c.34-.3-.18-.83-.49-.51h0Z"/>
            <path class="cls-7" d="M188.11,82.65c-.27-.37-.61-.73-1.1-.67-.25.03-.29.32-.22.5.1.24.37.42.51.61s.39.32.63.18c.2-.11.33-.43.18-.63h0Z"/>
          </g>
          <g>
            <path class="cls-5" d="M173.78,98.66c-1.19.21-2.4.57-3.28,1.38-.9.83-1.36,2.03-1.62,3.22-.16.75-.26,1.53-.09,2.28.41,1.89,2.27,3.05,3.99,3.92,2.06,1.03,4.21,1.94,6.47,2.35,2.27.41,4.68.29,6.77-.69,1.3-.61,2.47-1.57,3.15-2.83s.82-2.85.2-4.14c-1.11-2.3-4.46-3.96-6.75-4.76-2.82-.98-5.89-1.25-8.83-.73Z"/>
            <path class="cls-7" d="M173.24,105.78c1.78.65,3.3,1.81,5.01,2.59.96.44,1.93.58,2.98.57.52,0,1.03-.05,1.54-.11.55-.07,1.26-.07,1.7-.45.39-.34.44-1.05-.12-1.28-.53-.22-1-.07-1.54.01-.51.08-1.02.14-1.54.17-.92.05-1.87-.07-2.76-.3-1.72-.44-3.18-1.55-4.87-2.08-.58-.18-1,.66-.41.87h0Z"/>
            <path class="cls-7" d="M186.83,107.46l.14-.16c.05-.06.09-.11.13-.19.06-.14.07-.23.06-.38v-.02s0-.04,0-.06l-.04-.16c-.03-.08-.07-.14-.13-.19-.03-.04-.07-.08-.12-.1-.06-.05-.13-.08-.21-.09l-.07-.02c-.13-.03-.28-.02-.41.03-.07.03-.14.07-.2.11l-.19.11c-.11.08-.19.18-.25.3l-.06.19c-.02.14-.01.27.04.4.03.1.09.18.16.25.06.08.14.14.23.18.09.05.19.07.29.06.1.01.2,0,.3-.04.13-.05.23-.12.32-.23h0Z"/>
          </g>
          <g>
            <path class="cls-5" d="M123.64,125.86c-.44,1.12-.76,2.34-.53,3.52.24,1.2,1.02,2.22,1.91,3.06.56.53,1.18,1.02,1.9,1.27,1.83.63,3.79-.35,5.42-1.38,1.95-1.23,3.85-2.58,5.38-4.31,1.53-1.72,2.68-3.85,2.93-6.14.16-1.43-.06-2.92-.78-4.16-.73-1.24-2.01-2.18-3.43-2.33-2.54-.25-5.7,1.75-7.57,3.29-2.3,1.9-4.13,4.38-5.22,7.16Z"/>
            <path class="cls-7" d="M129.44,130.02c1.48-1.18,3.26-1.88,4.82-2.94.87-.59,1.5-1.35,2.04-2.25.27-.44.5-.9.71-1.37.23-.51.6-1.12.49-1.69-.09-.51-.66-.92-1.15-.56-.46.34-.58.82-.79,1.32-.2.48-.41.95-.65,1.4-.44.81-1.03,1.56-1.69,2.2-1.27,1.24-2.97,1.91-4.31,3.08-.46.4.04,1.19.53.8h0Z"/>
            <path class="cls-7" d="M137.93,119.29l-.06-.2c-.02-.08-.05-.13-.09-.21-.08-.13-.16-.18-.29-.25h-.01s-.03-.03-.05-.04l-.15-.05c-.08-.02-.16-.02-.23,0-.05,0-.1.02-.14.05-.07.03-.14.07-.19.14l-.05.05c-.1.1-.16.23-.19.36-.01.07-.01.15-.01.23v.22c0,.13.05.25.12.37l.13.15c.11.09.23.15.36.18.1.02.2.02.29,0,.1-.01.19-.05.27-.11.09-.05.16-.13.21-.22.06-.08.11-.17.12-.28.02-.13.01-.26-.03-.39h0Z"/>
          </g>
          <g>
            <path class="cls-5" d="M128.88,165.78c-1.14.38-2.28.92-3.04,1.86-.77.95-1.04,2.21-1.12,3.43-.05.77-.02,1.55.25,2.27.69,1.8,2.7,2.68,4.54,3.27,2.19.71,4.45,1.29,6.76,1.35,2.3.06,4.67-.42,6.59-1.7,1.19-.8,2.2-1.92,2.69-3.27s.38-2.94-.42-4.13c-1.44-2.11-5.01-3.24-7.39-3.69-2.93-.55-6.01-.35-8.84.6Z"/>
            <path class="cls-7" d="M129.42,172.9c1.85.38,3.53,1.3,5.35,1.81,1.01.29,2,.28,3.03.12.51-.08,1.01-.2,1.51-.34.54-.15,1.24-.26,1.61-.7.33-.4.28-1.1-.31-1.24-.56-.13-1,.08-1.52.24-.49.16-.99.3-1.5.4-.9.18-1.85.21-2.77.12-1.76-.18-3.38-1.05-5.13-1.33-.6-.09-.89.8-.27.92h0Z"/>
            <path class="cls-7" d="M143.1,172.52l.12-.18c.04-.07.07-.12.1-.21.04-.15.03-.24,0-.38h0s0-.05,0-.07l-.06-.15c-.04-.07-.09-.13-.15-.17-.04-.04-.08-.06-.13-.08-.07-.04-.14-.06-.22-.06h-.07c-.14-.02-.28.02-.4.08-.07.04-.13.09-.19.14l-.17.14c-.09.09-.16.2-.2.33l-.03.2c0,.14.03.27.1.39.05.09.11.16.2.22.07.07.16.11.26.14.1.03.2.04.3.02.1,0,.2-.03.29-.09.12-.07.21-.16.28-.27h0Z"/>
          </g>
          <g>
            <path class="cls-5" d="M171.11,156.17c.39,1.14.94,2.28,1.88,3.03.96.76,2.22,1.03,3.44,1.1.77.04,1.56.01,2.27-.27,1.8-.7,2.66-2.72,3.24-4.56.69-2.2,1.26-4.46,1.31-6.76.05-2.3-.45-4.67-1.75-6.58-.81-1.19-1.93-2.19-3.29-2.66-1.36-.47-2.94-.36-4.12.45-2.1,1.46-3.21,5.03-3.64,7.42-.53,2.94-.31,6.01.67,8.84Z"/>
            <path class="cls-7" d="M178.23,155.58c.37-1.86,1.27-3.54,1.77-5.36.28-1.02.26-2,.09-3.04-.08-.51-.21-1.01-.35-1.51-.15-.54-.27-1.24-.72-1.6-.4-.33-1.1-.27-1.24.32-.13.56.09,1,.25,1.52.16.49.3.99.41,1.49.19.9.23,1.85.14,2.77-.17,1.77-1.03,3.38-1.29,5.14-.09.6.8.88.93.26h0Z"/>
            <path class="cls-7" d="M177.74,141.9l-.18-.12c-.07-.04-.12-.07-.21-.1-.15-.04-.24-.03-.38,0h-.01s-.04,0-.06.01l-.15.06c-.07.04-.13.09-.17.16-.04.04-.06.08-.08.13-.04.07-.05.14-.05.23v.07c-.02.14.02.28.09.4.04.07.09.12.14.18l.14.17c.09.09.21.16.33.2l.2.03c.14,0,.27-.03.39-.1.09-.05.16-.11.22-.2.07-.07.11-.16.14-.26.03-.1.04-.2.02-.3,0-.1-.03-.2-.09-.29-.07-.12-.16-.21-.27-.28h0Z"/>
          </g>
          <g>
            <path class="cls-5" d="M112.97,161.11c1.2-.06,2.45-.27,3.43-.97.99-.71,1.6-1.85,2-3,.25-.73.44-1.49.37-2.26-.18-1.92-1.88-3.3-3.5-4.37-1.92-1.27-3.94-2.43-6.15-3.11-2.2-.68-4.61-.85-6.8-.13-1.36.45-2.64,1.26-3.46,2.43s-1.16,2.73-.7,4.09c.82,2.42,3.95,4.47,6.13,5.53,2.68,1.31,5.7,1.95,8.68,1.79Z"/>
            <path class="cls-7" d="M114.36,154.11c-1.68-.86-3.06-2.19-4.67-3.17-.9-.55-1.85-.8-2.89-.92-.51-.06-1.03-.08-1.55-.08-.56,0-1.26-.08-1.74.25-.43.3-.57.99-.04,1.28.5.28.98.19,1.53.17.52-.02,1.03-.02,1.55.02.92.06,1.84.29,2.7.63,1.65.65,2.97,1.92,4.59,2.65.55.25,1.07-.53.51-.82h0Z"/>
            <path class="cls-7" d="M101.07,150.82l-.16.14c-.06.05-.1.1-.15.17-.08.13-.09.22-.11.37v.02s0,.04,0,.06l.02.16c.02.08.05.15.1.21.03.05.06.08.11.11.06.05.12.09.2.11l.07.03c.13.05.28.05.41.02.07-.02.14-.05.22-.08l.2-.08c.12-.06.21-.15.28-.27l.08-.18c.04-.13.04-.27.01-.41-.02-.1-.06-.19-.13-.26-.05-.08-.12-.15-.21-.2-.09-.06-.18-.09-.28-.1-.1-.03-.2-.02-.3,0-.13.03-.24.09-.34.19h0Z"/>
          </g>
          <g>
            <path class="cls-5" d="M96.45,205.02c.27-1.17.41-2.43,0-3.56-.41-1.15-1.34-2.05-2.34-2.75-.63-.44-1.31-.83-2.07-.98-1.9-.36-3.69.9-5.16,2.16-1.75,1.5-3.43,3.12-4.69,5.05-1.26,1.93-2.09,4.2-2,6.5.06,1.43.48,2.88,1.38,4s2.31,1.87,3.74,1.8c2.55-.12,5.38-2.57,7.01-4.37,2-2.21,3.44-4.94,4.11-7.85Z"/>
            <path class="cls-7" d="M90.09,201.76c-1.29,1.38-2.95,2.34-4.34,3.61-.77.71-1.28,1.56-1.69,2.53-.2.48-.36.97-.5,1.46-.15.53-.43,1.19-.24,1.74.17.49.79.82,1.22.39.41-.4.46-.89.59-1.43.12-.5.27-1,.44-1.49.32-.87.79-1.69,1.35-2.42,1.08-1.41,2.66-2.33,3.81-3.68.39-.46-.22-1.18-.65-.71h0Z"/>
            <path class="cls-7" d="M83.27,213.62l.09.19c.03.07.06.12.12.19.1.11.19.15.32.21h.01s.04.02.06.03l.16.03c.08,0,.16,0,.23-.04.05-.01.1-.04.14-.07.07-.04.12-.09.16-.16l.04-.06c.08-.11.13-.25.13-.39,0-.08-.01-.15-.02-.23l-.03-.22c-.03-.13-.09-.24-.18-.34l-.15-.13c-.12-.08-.25-.12-.39-.12-.1,0-.2,0-.29.05-.1.03-.18.07-.25.14-.08.07-.14.15-.17.24-.05.09-.08.19-.08.29,0,.13.02.26.09.38h0Z"/>
          </g>
          <path class="cls-7" d="M101.81,189.32c-.09-.23-.22-.42-.41-.57-.19-.15-.4-.25-.64-.3-.47-.04-.89,0-1.34.15-.21.08-.42.19-.61.31-1.48.91-1.87,3.79.09,4.31.18.05.39.05.58.04.18,0,.37-.06.55-.1.1-.02.19-.05.28-.1.38-.19.64-.37.94-.68.06-.06.12-.13.16-.21.11-.17.23-.34.31-.53.16-.38.23-.73.24-1.13,0-.17.01-.34,0-.51-.03-.23-.09-.46-.14-.68Z"/>
          <path class="cls-7" d="M146.16,181.49c-.14-.2-.32-.35-.54-.45-.22-.1-.45-.14-.69-.12-.46.08-.86.22-1.26.49-.19.13-.36.29-.51.46-1.2,1.26-.85,4.14,1.18,4.15.19,0,.39-.06.57-.11.18-.05.34-.15.5-.24.09-.05.17-.1.24-.16.32-.28.53-.52.73-.89.04-.08.08-.16.11-.24.07-.19.14-.39.16-.59.05-.41.03-.76-.05-1.16-.04-.17-.07-.33-.14-.49-.08-.22-.2-.42-.31-.62Z"/>
          <path class="cls-7" d="M124.94,161.03c-.08-.23-.2-.43-.38-.59-.18-.16-.39-.27-.62-.32-.47-.06-.89-.05-1.34.09-.22.07-.43.18-.62.28-1.52.84-2.04,3.7-.1,4.31.18.06.39.06.58.07.18,0,.37-.04.55-.08.1-.02.19-.05.28-.08.39-.17.66-.34.96-.64.06-.06.12-.13.17-.2.12-.16.25-.33.33-.52.17-.37.26-.72.29-1.12.01-.17.03-.34.02-.51-.02-.23-.07-.46-.11-.69Z"/>
          <path class="cls-7" d="M152.18,129.82c-.08-.23-.2-.43-.38-.59-.18-.16-.39-.27-.62-.32-.47-.06-.89-.05-1.34.09-.22.07-.43.18-.62.28-1.52.84-2.04,3.7-.1,4.31.18.06.39.06.58.07.18,0,.37-.04.55-.08.1-.02.19-.05.28-.08.39-.17.66-.34.96-.64.06-.06.12-.13.17-.2.12-.16.25-.33.33-.52.17-.37.26-.72.29-1.12.01-.17.03-.34.02-.51-.02-.23-.07-.46-.11-.69Z"/>
          <path class="cls-7" d="M170.05,128.65c-.15-.19-.34-.33-.57-.41-.23-.09-.46-.11-.7-.08-.46.11-.85.27-1.22.56-.18.14-.34.32-.48.49-1.12,1.33-.59,4.18,1.44,4.07.19-.01.39-.08.56-.14.17-.06.33-.17.49-.27.08-.05.16-.11.23-.18.3-.3.49-.55.68-.94.04-.08.07-.16.09-.25.05-.2.11-.4.13-.6.03-.41-.01-.76-.13-1.15-.05-.17-.09-.33-.17-.48-.1-.21-.23-.41-.35-.6Z"/>
          <path class="cls-7" d="M190.09,144.33c-.15-.19-.34-.33-.57-.41-.23-.09-.46-.11-.7-.08-.46.11-.85.27-1.22.56-.18.14-.34.32-.48.49-1.12,1.33-.59,4.18,1.44,4.07.19-.01.39-.08.56-.14.17-.06.33-.17.49-.27.08-.05.16-.11.23-.18.3-.3.49-.55.68-.94.04-.08.07-.16.09-.25.05-.2.11-.4.13-.6.03-.41-.01-.76-.13-1.15-.05-.17-.09-.33-.17-.48-.1-.21-.23-.41-.35-.6Z"/>
          <path class="cls-7" d="M84.51,168.78c-.15-.19-.34-.33-.57-.41-.23-.09-.46-.11-.7-.08-.46.11-.85.27-1.22.56-.18.14-.34.32-.48.49-1.12,1.33-.59,4.18,1.44,4.07.19-.01.39-.08.56-.14.17-.06.33-.17.49-.27.08-.05.16-.11.23-.18.3-.3.49-.55.68-.94.04-.08.07-.16.09-.25.05-.2.11-.4.13-.6.03-.41-.01-.76-.13-1.15-.05-.17-.09-.33-.17-.48-.1-.21-.23-.41-.35-.6Z"/>
          <path class="cls-7" d="M96.25,219.11c-.15-.19-.34-.33-.57-.41-.23-.09-.46-.11-.7-.08-.46.11-.85.27-1.22.56-.18.14-.34.32-.48.49-1.12,1.33-.59,4.18,1.44,4.07.19-.01.39-.08.56-.14.17-.06.33-.17.49-.27.08-.05.16-.11.23-.18.3-.3.49-.55.68-.94.04-.08.07-.16.09-.25.05-.2.11-.4.13-.6.03-.41-.01-.76-.13-1.15-.05-.17-.09-.33-.17-.48-.1-.21-.23-.41-.35-.6Z"/>
          <path class="cls-7" d="M162.11,95.16c-.15-.19-.34-.33-.57-.41-.23-.09-.46-.11-.7-.08-.46.11-.85.27-1.22.56-.18.14-.34.32-.48.49-1.12,1.33-.59,4.18,1.44,4.07.19-.01.39-.08.56-.14.17-.06.33-.17.49-.27.08-.05.16-.11.23-.18.3-.3.49-.55.68-.94.04-.08.07-.16.09-.25.05-.2.11-.4.13-.6.03-.41-.01-.76-.13-1.15-.05-.17-.09-.33-.17-.48-.1-.21-.23-.41-.35-.6Z"/>
          <path class="cls-7" d="M193.82,116.18c0-.24-.06-.47-.19-.68-.12-.21-.29-.37-.49-.5-.43-.2-.83-.32-1.31-.32-.23,0-.46.04-.68.08-1.7.34-3.06,2.91-1.41,4.08.16.11.35.18.53.24.18.06.37.07.55.09.1.01.19.01.29,0,.42-.04.73-.13,1.11-.31.08-.04.15-.09.23-.14.16-.12.34-.24.47-.39.28-.3.46-.61.62-.98.07-.16.13-.32.17-.48.05-.23.08-.46.1-.69Z"/>
          <path class="cls-7" d="M202.08,93.76c.18-.16.32-.35.4-.58.08-.23.1-.46.06-.7-.12-.45-.29-.84-.59-1.21-.14-.18-.32-.33-.5-.47-1.36-1.09-4.2-.48-4.03,1.54.02.19.09.39.16.56.07.17.18.33.28.48.05.08.11.16.18.23.3.29.57.48.95.65.08.04.17.06.25.08.2.05.4.1.61.11.41.02.76-.03,1.15-.16.16-.05.33-.1.48-.18.21-.1.4-.24.59-.37Z"/>
          <path class="cls-7" d="M119.03,140.72c1.36-.13,1.17-2.25-.2-2.12-1.36.13-1.17,2.25.2,2.12h0Z"/>
          <path class="cls-7" d="M156.61,142.06l.12-.03.25-.14c.12-.08.22-.18.28-.31.06-.07.1-.16.12-.26.06-.14.08-.28.06-.43l-.07-.29-.14-.25c-.08-.12-.18-.22-.31-.28-.12-.09-.25-.14-.39-.16h-.12c-.2-.04-.4-.02-.59.05-.18.07-.34.18-.47.33l-.15.24c-.08.18-.12.38-.1.58,0,.15.05.3.14.42.06.13.15.25.26.34.15.13.33.21.52.24.2.03.4.02.59-.06h0Z"/>
          <path class="cls-7" d="M158.39,131.2c1.13-.11.97-1.86-.16-1.76s-.97,1.86.16,1.76h0Z"/>
          <path class="cls-7" d="M208.43,129.22c1.7-.16,1.45-2.8-.25-2.64s-1.45,2.8.25,2.64h0Z"/>
          <path class="cls-7" d="M105.19,199c1.21-.11,1.04-1.99-.17-1.88-1.21.11-1.04,1.99.17,1.88h0Z"/>
          <path class="cls-7" d="M124.01,210.82c1.41-.13,1.21-2.33-.2-2.2-1.41.13-1.21,2.33.2,2.2h0Z"/>
          <path class="cls-2" d="M111.03,166.63l.06-.06c.09-.1.15-.21.18-.34.05-.12.07-.26.05-.39l-.06-.26c-.06-.16-.16-.3-.3-.42l-.07-.05-.23-.15-.27-.08c-.15-.03-.29-.02-.43.02-.1,0-.19.04-.27.1-.09.03-.16.09-.23.16-.08.06-.14.13-.18.21-.06.07-.1.16-.12.25-.06.13-.07.28-.05.42l.07.28.13.25.19.2.23.15.27.08c.15.03.29.02.43-.02.1,0,.19-.04.27-.1.13-.06.24-.14.33-.26h0Z"/>
          <path class="cls-2" d="M142.77,162.95c1.59-.15,1.37-2.63-.23-2.48s-1.37,2.63.23,2.48h0Z"/>
          <path class="cls-2" d="M123.95,178.84c1.21-.11,1.04-1.99-.17-1.88-1.21.11-1.04,1.99.17,1.88h0Z"/>
          <path class="cls-2" d="M167.8,163.92c.18,0,.34-.06.48-.16.15-.07.28-.17.39-.3.11-.13.19-.27.23-.44.07-.16.09-.33.06-.5l-.08-.34c-.08-.21-.21-.39-.38-.53l-.28-.18c-.21-.1-.43-.14-.66-.11-.18,0-.34.06-.48.16-.15.07-.28.17-.39.3-.11.13-.19.27-.23.44-.07.16-.09.33-.06.5l.08.34c.08.21.21.39.38.53l.28.18c.21.1.43.14.66.11h0Z"/>
          <path class="cls-2" d="M163.56,136.81c.15,0,.3-.05.42-.14.13-.06.25-.15.34-.26.1-.11.17-.24.2-.38.06-.14.08-.29.06-.44l-.07-.29c-.07-.18-.18-.34-.33-.47l-.24-.15c-.18-.08-.38-.12-.58-.1-.15,0-.3.05-.42.14-.13.06-.25.15-.34.26-.1.11-.17.24-.2.38-.06.14-.08.29-.06.44l.07.29c.07.18.18.34.33.47l.24.15c.18.08.38.12.58.1h0Z"/>
          <path class="cls-2" d="M178.14,117.98c1.98-.18,1.7-3.26-.29-3.08-1.98.18-1.7,3.26.29,3.08h0Z"/>
          <path class="cls-2" d="M192.94,99.49c1.21-.11,1.04-1.99-.17-1.88-1.21.11-1.04,1.99.17,1.88h0Z"/>
          <path class="cls-2" d="M139.56,113.73c.13,0,.24-.04.35-.11.11-.05.2-.12.28-.22.08-.09.14-.2.16-.31.05-.11.06-.24.05-.36l-.06-.24c-.06-.15-.15-.28-.27-.38l-.2-.13c-.15-.07-.31-.1-.48-.08-.13,0-.24.04-.35.11-.11.05-.2.12-.28.22-.08.09-.14.2-.16.31-.05.11-.06.24-.05.36l.06.24c.06.15.15.28.27.38l.2.13c.15.07.31.1.48.08h0Z"/>
          <path class="cls-2" d="M114.52,144.74l.04.05c.1.14.24.26.4.33.17.08.34.11.53.09.18-.02.35-.08.5-.19.14-.1.26-.24.33-.4l.03-.06c.08-.17.11-.36.09-.55-.02-.19-.08-.36-.19-.52-.11-.15-.25-.27-.42-.34-.17-.08-.36-.11-.55-.09-.19.02-.36.08-.52.19-.15.11-.27.25-.34.42-.08.17-.11.36-.09.55.02.19.08.36.19.52h0Z"/>
          <path class="cls-2" d="M63.79,194.07c1.41-.13,1.21-2.33-.2-2.2-1.41.13-1.21,2.33.2,2.2h0Z"/>
          <path class="cls-2" d="M106.24,188.95l.14-.03.22-.12c.11-.07.19-.16.25-.28.06-.07.09-.14.11-.23.05-.12.07-.25.05-.39l-.06-.26-.12-.22c-.07-.11-.16-.19-.28-.25-.1-.08-.22-.13-.35-.14h-.14c-.18-.04-.36-.02-.53.04-.16.06-.3.16-.42.3l-.14.22c-.08.16-.11.34-.09.52,0,.14.05.26.12.38.05.12.13.22.24.3.14.11.29.18.46.22.18.03.36.01.53-.05h0Z"/>
          <path class="cls-2" d="M94.85,217.23c1.52-.14,1.3-2.5-.22-2.36-1.52.14-1.3,2.5.22,2.36h0Z"/>
          <path class="cls-2" d="M128.73,207.93c1.36-.13,1.17-2.25-.2-2.12-1.36.13-1.17,2.25.2,2.12h0Z"/>
        </g>
      </g>
    </g>
  </g>
</svg>