<?xml version="1.0" encoding="UTF-8"?>
<svg id="Capa_2" data-name="Capa 2" xmlns="http://www.w3.org/2000/svg" viewBox="0 0 200 200">
  <defs>
    <style>
      .cls-1 {
        fill: none;
      }

      .cls-1, .cls-2, .cls-3, .cls-4, .cls-5 {
        stroke-width: 0px;
      }

      .cls-2 {
        fill: #fff;
      }

      .cls-3 {
        fill: #593737;
      }

      .cls-4 {
        fill: #facda7;
      }

      .cls-5 {
        fill: #e34b4b;
      }
    </style>
  </defs>
  <g id="colorful_icons" data-name="colorful icons">
    <g>
      <g>
        <polygon class="cls-3" points="93.65 48.53 93.77 58.71 103.83 58.47 103.83 48.9 93.65 48.53"/>
        <path class="cls-5" d="m96.2,56.46c-14.08.97-27.77,6.98-37.52,17.75-12.1,13.38-17.14,33.27-12.65,50.79,4.45,17.36,16.35,32.92,34.74,39.6,16.42,5.96,35.13,2.62,49.33-7.25,29.51-20.5,32.32-71.56,1.15-91.96-10.46-6.84-22.9-9.76-35.06-8.93Z"/>
        <path class="cls-2" d="m141.87,112.28c-1.31,13.95-8.22,33.64-28.72,40.8-29.62,10.35-51.03-9.47-56.49-30.76-6.19-24.18,11.02-54.09,40.04-54.74.52-.01,1.06-.01,1.57-.01,24.74.03,38.57,14.5,43.12,32.32.67,2.65.98,7.11.47,12.4Z"/>
        <path class="cls-4" d="m141.87,112.28h-43.84l.25-44.72c24.74.03,38.57,14.5,43.12,32.32.67,2.65.98,7.11.47,12.4Z"/>
        <g>
          <g>
            <path class="cls-3" d="m48.12,112.33c2.38.08,4.77.15,7.15.21s4.84.35,7.1-.41c.7-.23.7-1.19,0-1.42-2.26-.76-4.75-.47-7.1-.41s-4.77.13-7.15.21c-1.17.04-1.17,1.78,0,1.82h0Z"/>
            <path class="cls-3" d="m149.43,110.51c-2.38-.08-4.77-.15-7.15-.21s-4.84-.35-7.1.41c-.7.23-.7,1.19,0,1.42,2.26.76,4.75.47,7.1.41,2.38-.06,4.77-.13,7.15-.21,1.17-.04,1.17-1.78,0-1.82h0Z"/>
          </g>
          <g>
            <path class="cls-3" d="m99.68,162.08c.08-2.38.15-4.77.21-7.15s.35-4.84-.41-7.1c-.23-.7-1.19-.7-1.42,0-.76,2.26-.47,4.75-.41,7.1s.13,4.77.21,7.15c.04,1.17,1.78,1.17,1.82,0h0Z"/>
            <path class="cls-3" d="m97.86,60.77c-.08,2.38-.15,4.77-.21,7.15s-.35,4.84.41,7.1c.23.7,1.19.7,1.42,0,.76-2.26.47-4.75.41-7.1s-.13-4.77-.21-7.15c-.04-1.17-1.78-1.17-1.82,0h0Z"/>
          </g>
        </g>
        <path class="cls-5" d="m76.19,34.37c-.23,4.65-.56,14.67.74,15.87,1.7,1.56,43.5.78,44.23-1.01s2.18-15.65-.97-17.21c-2.64-1.31-31.61-.43-40.97-.1-1.82.06-2.96,1.02-3.03,2.45Z"/>
      </g>
      <rect class="cls-1" width="200" height="200"/>
    </g>
  </g>
</svg>