<?xml version="1.0" encoding="UTF-8"?>
<svg id="Capa_2" xmlns="http://www.w3.org/2000/svg" viewBox="0 0 243.3 243.3">
  <defs>
    <style>
      .cls-1 {
        fill: #fff;
      }

      .cls-2 {
        fill: none;
      }

      .cls-3 {
        fill: #feb672;
      }

      .cls-4 {
        fill: #e09d3e;
      }

      .cls-5 {
        fill: #4f3535;
      }
    </style>
  </defs>
  <g id="grocery_icons">
    <g>
      <rect class="cls-2" width="243.3" height="243.3"/>
      <g>
        <g>
          <path class="cls-4" d="M199.31,76.55c-1.61-4-5.02-6.06-8.81-6.59.48-1.11.85-2.23,1.12-3.24.88-3.3,1.13-6.79-.47-9.93-2.19-4.28-6.61-6.53-11.11-6.5.19-.53.35-1.05.47-1.57.71-3.26,0-7.12-1.72-9.96-1.73-2.86-4.79-4.04-8.03-3.89-3.4.16-6.5,1.76-8.76,4.27-1.47,1.63-2.46,3.6-2.94,5.71-.9-.36-1.84-.61-2.7-.74-2.84-.46-6.01-.16-8.6,1.13-3.53,1.76-5.55,5.04-6.75,8.64-3.76-2.64-9.29-3.07-13.26-.98-3.84,2.03-6.11,6.02-7.06,10.23-1.13-.74-2.37-1.33-3.56-1.73-2.66-.92-5.74-.95-8.34.2-2.67,1.18-4.32,3.54-5.41,6.17-.34.83-.65,1.68-.9,2.56-1.22-.7-2.53-1.25-3.71-1.6-2.44-.71-5.05-.38-7.28.81-2.7,1.44-4.5,3.79-5.49,6.49-.76-.26-1.53-.44-2.25-.54-2.81-.36-5.67.45-7.97,2.08-2.26,1.61-4.04,4.11-4.42,6.9-.44,3.32.86,6.89,3.14,9.3,1.64,1.74,3.74,2.87,6.01,3.36-.74,1.07-1.32,2.22-1.71,3.28-1.19,3.27-.96,6.96.56,10.09,1.57,3.21,4.26,5.5,7.57,6.78.43.17.88.31,1.34.42-2.23,3.5-2.92,8.09-.95,11.79,1.44,2.7,4.12,4.57,7.03,5.39.8.23,1.61.38,2.42.47-2.39,3.93-2.86,8.97-.9,13.3,1.32,2.92,3.69,5.43,6.45,7.05,1.12.66,2.32,1.16,3.57,1.52-2.17,3.59-2.39,8.19-.2,12.04,1.5,2.65,4,4.63,6.89,5.59.6.2,1.26.36,1.93.48-2.11,4.9-1.94,10.8,2.62,14.39,5.04,3.98,12.55,2.34,16.5-2.34,1.15-1.36,2.05-2.96,2.69-4.62.06-.16.13-.33.19-.51,3.2,1.57,7.07,1.88,10.35.55,2.69-1.08,4.96-3.16,6.45-5.63.64-1.05,1.29-2.38,1.73-3.75,3.77,1.85,8.22,2.21,12.29.7,3.11-1.16,5.73-3.44,7.38-6.32.6-1.04,1.13-2.25,1.56-3.52,3.42,1.69,7.32,2.31,10.8.34,2.28-1.3,3.96-3.54,4.88-5.97.26-.68.48-1.43.67-2.22,3.21,1.38,6.98,1.52,10.15.03,2.42-1.14,4.36-3.11,5.6-5.47.1-.19.21-.41.31-.63,4.28.87,8.91-.68,11.54-4.42,1.74-2.47,2.61-5.71,1.86-8.69-.77-3.01-3.37-5.28-6.24-6.28-.84-.3-1.72-.49-2.61-.6.71-.95,1.34-1.94,1.86-2.88,1.7-3.1,2.16-6.81,1.23-10.22-1.43-5.22-5.73-8.77-10.7-9.81.62-1.47,1.09-3,1.39-4.46.61-2.95.15-6.27-1.41-8.87-1.66-2.78-4.41-4.32-7.39-4.71,2.02-4.03,2.75-8.76,1.1-12.86Z"/>
          <path class="cls-5" d="M110.66,100.87c4.94-2.08,1.71-9.76-3.24-7.67-4.94,2.08-1.71,9.76,3.24,7.67h0Z"/>
          <path class="cls-5" d="M138.7,87.25l.14-.34c.22-.5.31-1.01.27-1.54.05-.55-.05-1.08-.29-1.59-.2-.53-.51-.96-.94-1.31-.35-.4-.78-.7-1.29-.88l-1.01-.27c-.73-.09-1.44,0-2.12.29l-.94.56c-.56.45-.98,1-1.25,1.67l-.14.34c-.22.5-.31,1.01-.27,1.54-.05.55.05,1.08.29,1.59.2.53.51.96.94,1.31.35.4.78.7,1.29.88l1.01.27c.73.09,1.44,0,2.12-.29l.94-.56c.56-.45.98-1,1.25-1.67h0Z"/>
          <path class="cls-5" d="M160.81,77.45s.08.04.11.05c.47.21.96.3,1.47.26.52.04,1.03-.05,1.52-.27l.9-.53c.54-.43.94-.96,1.2-1.59.02-.04.03-.08.04-.12.09-.33.18-.66.26-.99v-1.04c-.05-.56-.24-1.06-.56-1.51-.14-.33-.36-.61-.65-.83-.22-.28-.49-.48-.82-.62-.28-.21-.6-.34-.95-.38-.33-.13-.67-.18-1.02-.13-.54-.05-1.06.05-1.56.28l-.93.55-.73.75-.51.9-.26.99v1.04c.05.56.24,1.06.56,1.51.14.33.36.61.65.83.34.4.77.69,1.27.87h0Z"/>
          <path class="cls-5" d="M123.13,130.94c.54-.21,1-.53,1.36-.97.42-.36.72-.8.91-1.33.23-.51.32-1.04.28-1.59.05-.57-.05-1.11-.3-1.64l-.58-.98c-.46-.58-1.04-1.01-1.72-1.3l-1.04-.28c-.76-.1-1.48,0-2.19.3-.54.21-1,.53-1.36.97-.42.36-.72.8-.91,1.33-.23.51-.32,1.04-.28,1.59-.05.57.05,1.11.3,1.64l.58.98c.46.58,1.04,1.01,1.72,1.3l1.04.28c.76.1,1.48,0,2.19-.3h0Z"/>
          <path class="cls-5" d="M149.19,119.06c.55-.21,1.01-.53,1.37-.98.42-.36.73-.81.92-1.35.23-.52.33-1.05.28-1.61.05-.57-.05-1.12-.3-1.66l-.58-.99c-.47-.59-1.05-1.02-1.74-1.31l-1.05-.28c-.76-.1-1.5,0-2.21.3-.55.21-1.01.53-1.37.98-.42.36-.73.81-.92,1.35-.23.52-.33,1.05-.28,1.61-.05.57.05,1.12.3,1.66l.58.99c.47.59,1.05,1.02,1.74,1.31l1.05.28c.76.1,1.5,0,2.21-.3h0Z"/>
          <path class="cls-5" d="M176.78,107.5c.55-.21,1-.53,1.36-.97.42-.36.72-.81.92-1.34.23-.51.32-1.05.28-1.6.05-.57-.05-1.12-.3-1.65l-.58-.98c-.47-.58-1.04-1.02-1.73-1.3l-1.05-.28c-.76-.1-1.49,0-2.2.3-.55.21-1,.53-1.36.97-.42.36-.72.81-.92,1.34-.23.51-.32,1.05-.28,1.6-.05.57.05,1.12.3,1.65l.58.98c.47.58,1.04,1.02,1.73,1.3l1.05.28c.76.1,1.49,0,2.2-.3h0Z"/>
          <path class="cls-5" d="M136.06,160.61c.53-.2.96-.51,1.31-.94.4-.35.7-.78.88-1.29.22-.5.31-1.01.27-1.54.05-.55-.05-1.08-.29-1.59-.19-.31-.37-.63-.56-.94-.45-.56-1-.98-1.67-1.25l-1.01-.27c-.73-.09-1.44,0-2.12.29-.53.2-.96.51-1.31.94-.4.35-.7.78-.88,1.29-.22.5-.31,1.01-.27,1.54-.05.55.05,1.08.29,1.59l.56.94c.45.56,1,.98,1.67,1.25l1.01.27c.73.09,1.44,0,2.12-.29h0Z"/>
          <path class="cls-5" d="M161.61,148.52c5.24-2.21,1.82-10.37-3.44-8.15-5.24,2.21-1.82,10.37,3.44,8.15h0Z"/>
          <path class="cls-5" d="M189.28,137.14c.55-.21,1.02-.54,1.38-.99.42-.37.73-.82.93-1.36.24-.52.33-1.06.28-1.62.05-.58-.05-1.13-.3-1.67l-.59-.99c-.47-.59-1.06-1.03-1.76-1.32l-1.06-.28c-.77-.1-1.51,0-2.23.3-.55.21-1.02.54-1.38.99-.42.37-.73.82-.93,1.36-.24.52-.33,1.06-.28,1.62-.05.58.05,1.13.3,1.67l.59.99c.47.59,1.06,1.03,1.76,1.32l1.06.28c.77.1,1.51,0,2.23-.3h0Z"/>
          <path class="cls-5" d="M169.98,52.85c.3-.06.58-.12.87-.2.18-.05.37-.08.53-.15l.21-.09c.17-.08.35-.15.49-.26.03-.02.05-.04.08-.07.18-.14.32-.32.4-.54.04-.11.07-.23.09-.34.08-.43-.14-.95-.51-1.2-.1-.07-.2-.13-.31-.18-.16-.07-.33-.1-.5-.09-.09,0-.18,0-.27,0-.17.02-.35.09-.51.16l-.23.09c-.17.07-.32.18-.48.28-.26.16-.51.32-.75.49l-.21.22c-.1.12-.16.26-.19.41-.04.1-.05.2-.04.3-.01.16.01.31.08.46.09.19.22.35.38.49.12.1.26.16.41.19.15.05.3.06.45.04h0Z"/>
          <path class="cls-5" d="M174.05,57.19l1.13-.33c.19-.06.35-.14.53-.23.09-.04.17-.08.26-.12.1-.05.2-.11.29-.17l.2-.2s.07-.07.1-.1c.23-.25.25-.7.12-1-.07-.17-.18-.31-.32-.42-.14-.1-.3-.17-.47-.19-.18-.04-.34-.05-.53-.03-.09.01-.17.02-.26.03-.1.01-.2.03-.3.04-.19.03-.37.09-.55.14l-1.13.33c-.28.08-.55.41-.66.66-.11.28-.12.66,0,.93s.36.55.66.66l.3.08c.22.03.43,0,.63-.09h0Z"/>
          <path class="cls-5" d="M124.73,175.16l.91-.82c.15-.13.3-.27.45-.41.08-.07.15-.15.22-.22.13-.09.22-.21.29-.35.03-.06.06-.11.09-.17.02-.05.04-.1.06-.15.17-.4.05-.89-.25-1.18-.14-.14-.29-.22-.48-.27-.09-.04-.18-.05-.28-.04-.15-.01-.29.01-.42.08-.2.06-.33.12-.51.25-.08.06-.17.12-.25.19-.15.12-.3.25-.45.37l-.93.77c-.25.2-.42.5-.46.82s.05.7.26.93.49.44.82.46.69-.03.93-.26h0Z"/>
          <path class="cls-5" d="M120.42,170.38l.51-.12c.17-.04.34-.08.51-.15l.24-.09.24-.14c.11-.08.19-.18.25-.3.05-.07.09-.15.1-.24.04-.13.06-.26.03-.39l-.07-.26-.14-.24c-.08-.11-.18-.19-.3-.25-.11-.07-.23-.12-.37-.13-.26-.01-.52-.03-.77,0l-.52.05c-.16.02-.3.07-.43.16-.14.07-.25.16-.34.29-.09.12-.15.25-.18.4-.05.14-.06.29-.04.44l.08.3c.08.19.2.35.37.47l.25.14c.19.07.38.1.58.07h0Z"/>
          <path class="cls-1" d="M86.58,90.01c1.74-.73.6-3.44-1.14-2.71s-.6,3.44,1.14,2.71h0Z"/>
          <path class="cls-1" d="M92.12,108.93c2.18-.92.75-4.31-1.43-3.39-2.18.92-.75,4.31,1.43,3.39h0Z"/>
          <path class="cls-1" d="M133.31,106.4c2.12-.89.73-4.19-1.39-3.29-2.12.89-.73,4.19,1.39,3.29h0Z"/>
          <path class="cls-1" d="M171.88,127.2c1.77-.75.61-3.51-1.16-2.76-1.77.75-.61,3.51,1.16,2.76h0Z"/>
          <path class="cls-1" d="M210.41,143.41l1.07-.54c.29-.14.58-.29.85-.47.16-.11.31-.22.47-.33.4-.28.61-.84.54-1.32-.04-.27-.13-.49-.3-.71-.29-.38-.84-.63-1.32-.54-.19.04-.38.07-.57.11-.32.06-.62.17-.93.28l-1.13.4c-.22.08-.4.21-.54.39-.17.14-.29.32-.37.53-.16.38-.17.91,0,1.3s.5.76.92.91.89.19,1.3,0h0Z"/>
          <path class="cls-1" d="M207.13,131.36l.14-.24c.05-.08.09-.16.15-.24l.18-.21s.06-.07.08-.1c.15-.18.2-.4.24-.63.06-.37-.12-.81-.43-1.02-.19-.13-.38-.24-.62-.27-.04,0-.09,0-.13,0l-.28-.02c-.09,0-.18-.03-.28-.06l-.27-.07c-.32-.04-.63,0-.93.13-.3.13-.55.32-.74.58-.38.51-.46,1.19-.22,1.78s.8,1,1.42,1.09c.32.04.63,0,.93-.13.3-.13.55-.32.74-.58h0Z"/>
          <path class="cls-3" d="M182.08,85.51c2.02-.85.7-4-1.33-3.15-2.02.85-.7,4,1.33,3.15h0Z"/>
          <path class="cls-3" d="M193.54,102.91c.95-.4.33-1.87-.62-1.47s-.33,1.87.62,1.47h0Z"/>
          <path class="cls-3" d="M161.16,112.35c.25-.09.45-.24.61-.44.19-.16.32-.36.41-.6.1-.23.15-.47.12-.72.02-.26-.02-.5-.13-.74l-.26-.44c-.21-.26-.47-.46-.78-.58l-.47-.12c-.34-.04-.67,0-.99.13-.25.09-.45.24-.61.44-.19.16-.32.36-.41.6-.1.23-.15.47-.12.72-.02.26.02.5.13.74l.26.44c.21.26.47.46.78.58l.47.12c.34.04.67,0,.99-.13h0Z"/>
          <path class="cls-4" d="M141.99,136.62c1.91-.81.66-3.78-1.25-2.98-1.91.81-.66,3.78,1.25,2.98h0Z"/>
          <path class="cls-4" d="M111.28,144.5c2.29-.97.79-4.52-1.5-3.56s-.79,4.52,1.5,3.56h0Z"/>
          <path class="cls-3" d="M123,76.29l.08-.03h.04s.01-.02.02-.02c.15-.06.24-.1.4-.24.06-.05.11-.1.16-.16.17-.15.29-.32.37-.54l.11-.42c.01-.15.01-.3,0-.44l-.12-.44h0s0-.02,0-.02l-.02-.04-.03-.07-.25-.43-.34-.34c-.19-.15-.4-.25-.64-.29-.15-.06-.31-.08-.47-.06-.17-.02-.33,0-.48.07-.17.02-.32.09-.45.19-.15.07-.28.16-.38.3-.18.16-.32.35-.4.58l-.12.46v.48c.04.16.09.32.13.48l.25.43.34.34c.19.15.4.25.64.29.15.06.31.08.47.06.25.02.49-.02.72-.13h0Z"/>
          <path class="cls-3" d="M147.38,63.81c.26-.1.47-.25.64-.46.2-.17.34-.38.43-.63.11-.24.15-.49.13-.75.02-.27-.02-.53-.14-.78l-.27-.46c-.22-.27-.49-.48-.82-.61l-.49-.13c-.36-.05-.7,0-1.03.14-.26.1-.47.25-.64.46-.2.17-.34.38-.43.63-.11.24-.15.49-.13.75-.02.27.02.53.14.78l.27.46c.22.27.49.48.82.61l.49.13c.36.05.7,0,1.03-.14h0Z"/>
          <path class="cls-3" d="M179.36,151.21c1.82-.77.63-3.6-1.19-2.83-1.82.77-.63,3.6,1.19,2.83h0Z"/>
          <path class="cls-3" d="M154.38,167.82c1.42-.6.49-2.8-.93-2.2s-.49,2.8.93,2.2h0Z"/>
          <path class="cls-3" d="M156.11,93.66c.25-.1.47-.25.63-.45.19-.17.34-.38.43-.62.11-.24.15-.49.13-.74.02-.26-.02-.52-.14-.77l-.27-.46c-.22-.27-.48-.47-.8-.6l-.49-.13c-.35-.04-.69,0-1.02.14-.25.1-.47.25-.63.45-.19.17-.34.38-.43.62-.11.24-.15.49-.13.74-.02.26.02.52.14.77l.27.46c.22.27.48.47.8.6l.49.13c.35.04.69,0,1.02-.14h0Z"/>
          <path class="cls-4" d="M118.72,112.62c.2-.08.37-.2.51-.36.16-.14.27-.3.34-.5.09-.19.12-.39.1-.6.02-.21-.02-.42-.11-.62l-.22-.37c-.17-.22-.39-.38-.65-.49l-.39-.1c-.28-.04-.56,0-.82.11-.2.08-.37.2-.51.36-.16.14-.27.3-.34.5-.09.19-.12.39-.1.6-.02.21.02.42.11.62l.22.37c.17.22.39.38.65.49l.39.1c.28.04.56,0,.82-.11h0Z"/>
        </g>
        <g>
          <path class="cls-3" d="M155.15,134.4c.07-4.31-2.27-7.53-5.56-9.49.87-.83,1.65-1.72,2.29-2.55,2.1-2.7,3.68-5.82,3.42-9.33-.35-4.79-3.55-8.58-7.71-10.3.38-.41.74-.83,1.04-1.26,1.92-2.72,2.76-6.56,2.29-9.84-.48-3.31-2.84-5.58-5.89-6.71-3.2-1.18-6.67-.91-9.73.53-1.99.93-3.67,2.36-4.93,4.11-.69-.68-1.46-1.27-2.2-1.73-2.43-1.52-5.47-2.48-8.36-2.3-3.94.25-7.07,2.49-9.57,5.33-2.44-3.9-7.36-6.44-11.84-6.05-4.33.38-7.97,3.18-10.48,6.68-.76-1.12-1.67-2.14-2.6-2.98-2.1-1.88-4.92-3.11-7.76-3.05-2.92.05-5.35,1.59-7.38,3.59-.64.63-1.26,1.3-1.83,2.01-.85-1.12-1.84-2.13-2.8-2.91-1.97-1.6-4.5-2.31-7.02-2.08-3.05.28-5.61,1.74-7.58,3.84-.6-.54-1.24-1-1.86-1.37-2.44-1.42-5.4-1.79-8.15-1.18-2.71.6-5.32,2.22-6.75,4.64-1.7,2.89-1.88,6.68-.72,9.79.84,2.24,2.33,4.09,4.24,5.43-1.1.7-2.08,1.53-2.85,2.36-2.36,2.55-3.59,6.04-3.4,9.51.2,3.57,1.79,6.72,4.34,9.19.34.32.7.63,1.07.91-3.42,2.36-5.83,6.32-5.46,10.49.28,3.04,2.02,5.81,4.38,7.7.65.52,1.33.97,2.05,1.38-3.73,2.69-6.12,7.15-6,11.91.08,3.2,1.29,6.44,3.2,9,.78,1.04,1.69,1.97,2.7,2.79-3.39,2.46-5.38,6.62-4.87,11.02.35,3.03,1.89,5.82,4.18,7.83.48.42,1.02.82,1.59,1.2-3.84,3.69-5.98,9.2-3.18,14.28,3.1,5.62,10.66,7.04,16.11,4.26,1.59-.81,3.04-1.93,4.27-3.22.12-.12.25-.26.37-.39,2.33,2.69,5.78,4.48,9.32,4.53,2.9.04,5.8-.99,8.13-2.69,1-.73,2.12-1.69,3.06-2.78,2.75,3.17,6.71,5.23,11.05,5.42,3.32.14,6.62-.94,9.25-2.95.95-.73,1.92-1.63,2.8-2.64,2.49,2.89,5.85,4.97,9.82,4.51,2.61-.31,5.02-1.73,6.82-3.61.5-.53,1-1.13,1.47-1.78,2.42,2.52,5.84,4.12,9.34,3.97,2.68-.11,5.23-1.17,7.28-2.87.17-.14.35-.3.53-.46,3.6,2.46,8.47,2.84,12.35.41,2.56-1.6,4.63-4.25,5.09-7.28.46-3.07-1.06-6.17-3.31-8.21-.66-.6-1.39-1.12-2.17-1.57,1.02-.6,1.99-1.27,2.83-1.93,2.77-2.19,4.64-5.43,5.1-8.94.71-5.36-1.87-10.31-6.04-13.2,1.14-1.11,2.17-2.34,3.01-3.57,1.71-2.49,2.57-5.72,2.15-8.72-.45-3.2-2.39-5.7-4.98-7.21,3.43-2.93,5.94-7,6.01-11.42Z"/>
          <path class="cls-5" d="M64.01,122.37c5.36,0,5.37-8.33,0-8.33s-5.37,8.33,0,8.33h0Z"/>
          <path class="cls-5" d="M95.14,120.71l.26-.26c.4-.37.68-.81.84-1.31.26-.49.37-1.01.35-1.57.02-.56-.1-1.09-.35-1.57-.16-.51-.45-.94-.84-1.31l-.83-.64c-.64-.37-1.32-.56-2.06-.56l-1.09.15c-.69.19-1.29.54-1.8,1.05l-.26.26c-.4.37-.68.81-.84,1.31-.26.49-.37,1.01-.35,1.57-.02.56.1,1.09.35,1.57.16.51.45.94.84,1.31l.83.64c.64.37,1.32.56,2.06.56l1.09-.15c.69-.19,1.29-.54,1.8-1.05h0Z"/>
          <path class="cls-5" d="M119.32,120.28s.06.06.09.09c.35.38.77.65,1.26.81.47.24.97.36,1.5.34l1.04-.14c.66-.19,1.24-.52,1.72-1,.03-.03.06-.06.09-.09l.63-.81.41-.96c.17-.53.19-1.07.07-1.6,0-.36-.09-.7-.27-1.02-.1-.34-.27-.64-.52-.89-.18-.3-.42-.54-.72-.72-.25-.25-.55-.42-.89-.52-.48-.25-1-.37-1.55-.35l-1.07.14-.96.41-.81.63-.63.81-.41.96c-.17.53-.19,1.07-.07,1.6,0,.36.09.7.27,1.02.16.5.44.93.83,1.29h0Z"/>
          <path class="cls-5" d="M63.82,154.92c.58.02,1.12-.1,1.63-.36.52-.17.98-.46,1.36-.87.41-.38.7-.84.87-1.36.26-.5.39-1.05.36-1.63-.05-.37-.1-.75-.15-1.12-.2-.72-.56-1.34-1.09-1.86l-.85-.66c-.66-.38-1.37-.57-2.13-.58-.58-.02-1.12.1-1.63.36-.52.17-.98.46-1.36.87-.41.38-.7.84-.87,1.36-.26.5-.39,1.05-.36,1.63l.15,1.12c.2.72.56,1.34,1.09,1.86l.85.66c.66.38,1.37.57,2.13.58h0Z"/>
          <path class="cls-5" d="M92.44,154.09c.59.02,1.13-.1,1.64-.37.53-.17.99-.47,1.37-.88.42-.39.71-.84.88-1.37.27-.51.39-1.06.37-1.64l-.15-1.13c-.2-.72-.57-1.35-1.1-1.88l-.86-.67c-.66-.39-1.38-.58-2.15-.58-.59-.02-1.13.1-1.64.37-.53.17-.99.47-1.37.88-.42.39-.71.84-.88,1.37-.27.51-.39,1.06-.37,1.64l.15,1.13c.2.72.57,1.35,1.1,1.88.29.22.58.44.86.67.66.39,1.38.58,2.15.58h0Z"/>
          <path class="cls-5" d="M122.36,154.17c.58.02,1.13-.1,1.63-.37.53-.17.98-.46,1.37-.88.41-.38.71-.84.88-1.37.27-.51.39-1.05.37-1.63l-.15-1.13c-.2-.72-.57-1.34-1.09-1.87l-.86-.66c-.66-.38-1.38-.58-2.14-.58-.58-.02-1.13.1-1.63.37-.53.17-.98.46-1.37.88-.41.38-.71.84-.88,1.37-.27.51-.39,1.05-.37,1.63l.15,1.13c.2.72.57,1.34,1.09,1.87l.86.66c.66.38,1.38.58,2.14.58h0Z"/>
          <path class="cls-5" d="M64.2,187.28c.56.02,1.09-.1,1.57-.35.51-.16.94-.45,1.31-.84.4-.37.68-.81.84-1.31.26-.49.37-1.01.35-1.57l-.15-1.09c-.19-.69-.54-1.29-1.05-1.8l-.83-.64c-.64-.37-1.32-.56-2.06-.56-.56-.02-1.09.1-1.57.35-.51.16-.94.45-1.31.84-.4.37-.68.81-.84,1.31-.26.49-.37,1.01-.35,1.57l.15,1.09c.19.69.54,1.29,1.05,1.8l.83.64c.64.37,1.32.56,2.06.56h0Z"/>
          <path class="cls-5" d="M92.44,186.07c5.69,0,5.7-8.85,0-8.85s-5.7,8.85,0,8.85h0Z"/>
          <path class="cls-5" d="M122.36,186.34c.59.02,1.15-.1,1.66-.37.53-.17,1-.47,1.38-.89.42-.39.72-.85.89-1.38.27-.51.39-1.07.37-1.66l-.15-1.14c-.2-.73-.57-1.36-1.11-1.9l-.87-.67c-.67-.39-1.4-.59-2.17-.59-.59-.02-1.15.1-1.66.37-.53.17-1,.47-1.38.89-.42.39-.72.85-.89,1.38-.27.51-.39,1.07-.37,1.66l.15,1.14c.2.73.57,1.36,1.11,1.9l.87.67c.67.39,1.4.59,2.17.59h0Z"/>
          <path class="cls-5" d="M137.33,101.17c.29.06.59.11.88.16.18.03.37.07.55.07h.23c.18-.01.38,0,.55-.06.03,0,.06-.02.1-.03.22-.06.42-.18.58-.34.08-.09.15-.18.22-.28.24-.37.24-.93,0-1.3-.06-.1-.14-.19-.22-.28-.12-.13-.26-.22-.42-.27-.08-.04-.17-.07-.25-.1-.17-.05-.36-.05-.53-.05h-.24c-.18-.01-.37.03-.55.06-.3.04-.59.09-.88.16l-.28.12c-.14.07-.25.18-.33.3-.07.07-.12.16-.15.26-.07.14-.11.29-.1.45,0,.21.06.41.16.6.07.14.18.25.3.33.11.1.25.17.4.21h0Z"/>
          <path class="cls-5" d="M139.39,106.75l1.17.13c.19.02.38,0,.57,0,.1,0,.19,0,.29-.01.11,0,.22-.02.34-.04l.26-.11s.09-.04.13-.06c.31-.14.5-.55.5-.87,0-.18-.05-.35-.14-.51-.09-.15-.21-.27-.36-.36-.15-.11-.3-.18-.48-.23-.08-.02-.17-.05-.25-.07-.1-.03-.2-.05-.3-.08-.18-.05-.37-.06-.56-.08l-1.17-.13c-.29-.03-.66.16-.86.36-.21.21-.37.56-.36.86s.12.64.36.86l.25.19c.19.11.4.17.62.17h0Z"/>
          <path class="cls-5" d="M48.1,196.29l1.16-.4c.19-.07.38-.13.57-.2.1-.04.19-.08.29-.12.15-.04.29-.11.4-.21.05-.04.1-.08.15-.12.04-.04.08-.07.12-.11.32-.3.39-.8.22-1.19-.08-.18-.18-.32-.34-.44-.07-.07-.15-.11-.24-.14-.13-.07-.27-.1-.42-.09-.2-.03-.35-.02-.57.03-.1.02-.2.05-.3.07-.19.05-.37.11-.56.17-.38.12-.77.23-1.15.35-.3.09-.58.3-.74.57s-.22.66-.13.96.28.59.57.74.64.24.96.13h0Z"/>
          <path class="cls-5" d="M46,190.2l.52.09c.17.03.35.06.53.06h.26c.09,0,.18-.02.27-.03.13-.03.25-.09.35-.18.08-.05.14-.11.18-.18.09-.1.15-.21.18-.35l.04-.27-.04-.27c-.03-.13-.09-.25-.18-.35-.07-.11-.17-.2-.29-.26-.23-.11-.46-.23-.71-.3l-.5-.15c-.15-.05-.3-.05-.45-.02-.15,0-.29.05-.42.14-.13.07-.24.17-.32.29-.1.11-.17.24-.2.39l-.04.3c0,.21.05.4.16.58l.18.23c.14.14.31.24.5.29h0Z"/>
          <path class="cls-1" d="M46.04,103c1.89,0,1.89-2.94,0-2.94s-1.89,2.94,0,2.94h0Z"/>
          <path class="cls-1" d="M43.79,122.59c2.37,0,2.37-3.68,0-3.68s-2.37,3.68,0,3.68h0Z"/>
          <path class="cls-1" d="M82.73,136.26c2.3,0,2.3-3.57,0-3.57s-2.3,3.57,0,3.57h0Z"/>
          <path class="cls-1" d="M110.19,170.42c1.93,0,1.93-2.99,0-2.99s-1.93,2.99,0,2.99h0Z"/>
          <path class="cls-1" d="M139.39,200.32l1.2-.08c.32-.02.65-.04.97-.1.19-.04.38-.08.56-.12.48-.11.89-.54,1.01-1.01.07-.26.07-.5,0-.77-.12-.47-.53-.9-1.01-1.01-.19-.04-.38-.09-.56-.12-.32-.07-.64-.08-.97-.1l-1.2-.08c-.23,0-.45.04-.65.15-.21.07-.39.19-.55.35-.29.29-.51.78-.5,1.2s.16.89.5,1.2.75.52,1.2.5h0Z"/>
          <path class="cls-1" d="M141.05,187.95l.23-.17c.08-.06.15-.12.23-.16l.25-.13s.08-.04.12-.06c.21-.11.34-.29.47-.49.2-.32.2-.79,0-1.11-.12-.19-.26-.37-.47-.49-.04-.02-.08-.04-.12-.06l-.25-.13c-.08-.04-.16-.1-.23-.16l-.23-.17c-.28-.16-.58-.24-.91-.25-.32,0-.63.08-.91.25-.55.32-.89.92-.89,1.55s.34,1.23.89,1.55c.28.16.58.24.91.25.32,0,.63-.08.91-.25h0Z"/>
          <path class="cls-4" d="M135.78,135.97c2.2,0,2.2-3.41,0-3.41s-2.2,3.41,0,3.41h0Z"/>
          <path class="cls-4" d="M139.59,156.45c1.03,0,1.03-1.6,0-1.6s-1.03,1.6,0,1.6h0Z"/>
          <path class="cls-4" d="M106.08,152.56c.26,0,.51-.04.73-.16.24-.08.44-.21.61-.39.19-.17.32-.38.39-.61.12-.23.17-.47.16-.73l-.07-.51c-.09-.32-.25-.6-.49-.84l-.39-.3c-.3-.17-.62-.26-.96-.26-.26,0-.51.04-.73.16-.24.08-.44.21-.61.39-.19.17-.32.38-.39.61-.12.23-.17.47-.16.73l.07.51c.09.32.25.6.49.84l.39.3c.3.17.62.26.96.26h0Z"/>
          <path class="cls-4" d="M78.99,167.48c2.08,0,2.08-3.23,0-3.23s-2.08,3.23,0,3.23h0Z"/>
          <path class="cls-4" d="M47.62,162.81c2.48,0,2.49-3.86,0-3.86s-2.49,3.86,0,3.86h0Z"/>
          <path class="cls-4" d="M84.93,104.51h.08s.03,0,.04,0h.02c.16,0,.26,0,.46-.06.07-.02.14-.05.21-.09.21-.07.39-.19.55-.35l.27-.35c.07-.13.12-.27.17-.41l.06-.45h0s0-.02,0-.03v-.04s0-.05,0-.08l-.07-.49-.19-.44c-.12-.22-.28-.39-.48-.52-.12-.11-.25-.19-.41-.24-.14-.08-.3-.13-.47-.13-.16-.04-.33-.04-.49,0-.17,0-.32.04-.47.13-.23.07-.43.2-.6.38l-.29.37-.19.44-.07.49.07.49.19.44c.12.22.28.39.48.52.12.11.25.19.41.24.22.12.46.17.71.16h0Z"/>
          <path class="cls-4" d="M112.24,102.49c.27.01.53-.05.77-.17.25-.08.46-.22.64-.41.19-.18.33-.39.41-.64.12-.24.18-.49.17-.77l-.07-.53c-.09-.34-.27-.63-.51-.88l-.4-.31c-.31-.18-.65-.27-1.01-.27-.27-.01-.53.05-.77.17-.25.08-.46.22-.64.41-.19.18-.33.39-.41.64-.12.24-.18.49-.17.77l.07.53c.09.34.27.63.51.88l.4.31c.31.18.65.27,1.01.27h0Z"/>
          <path class="cls-4" d="M107.74,195.45c1.98,0,1.98-3.07,0-3.07s-1.98,3.07,0,3.07h0Z"/>
          <path class="cls-4" d="M78.28,201.04c1.54,0,1.54-2.39,0-2.39s-1.54,2.39,0,2.39h0Z"/>
          <path class="cls-4" d="M108.69,133.38c.27.01.52-.05.76-.17.24-.08.46-.22.63-.41.19-.18.33-.39.41-.63.12-.23.18-.49.17-.76l-.07-.52c-.09-.33-.26-.62-.51-.87l-.4-.31c-.31-.18-.64-.27-.99-.27-.27-.01-.52.05-.76.17-.24.08-.46.22-.63.41-.19.18-.33.39-.41.63-.12.23-.18.49-.17.76l.07.52c.09.33.26.62.51.87l.4.31c.31.18.64.27.99.27h0Z"/>
          <path class="cls-4" d="M66.87,136.33c.22,0,.42-.04.61-.14.2-.06.37-.17.51-.33.15-.14.26-.31.33-.51.1-.19.15-.39.14-.61l-.06-.42c-.08-.27-.21-.5-.41-.7l-.32-.25c-.25-.14-.51-.22-.8-.22-.22,0-.42.04-.61.14-.2.06-.37.17-.51.33-.15.14-.26.31-.33.51-.1.19-.15.39-.14.61l.06.42c.08.27.21.5.41.7l.32.25c.25.14.51.22.8.22h0Z"/>
        </g>
      </g>
    </g>
  </g>
</svg>