<?xml version="1.0" encoding="UTF-8"?>
<svg id="Capa_2" xmlns="http://www.w3.org/2000/svg" viewBox="0 0 243.23 243.23">
  <defs>
    <style>
      .cls-1 {
        fill: #a36545;
      }

      .cls-2 {
        fill: none;
      }

      .cls-3 {
        fill: #e09d3e;
      }

      .cls-4 {
        fill: #4f3535;
      }
    </style>
  </defs>
  <g id="grocery_icons">
    <g>
      <rect class="cls-2" width="243.23" height="243.23"/>
      <g>
        <g>
          <path class="cls-3" d="M238.47,87.1c-4.05-37.7-36.43-59.97-66.55-58.45-26.21,1.33-48.98,18.76-54.92,24.25-.88.82-1.39,1.37-1.49,1.56,0,0-.9-.92-2.62-2.33-5.95-4.84-21.76-15.43-44.7-13.86C38.59,40.3,3.42,68.89,5.2,111.39c1.5,36.19,20.07,64.68,25.55,72.34.65.91,1.13,1.53,1.36,1.83.1.14.16.21.16.21,0,0-5.26,4.32-6.83,7.84-1.83,4.11-1.51,12.91,11.13,13.91,8.4.67,15.13-1.22,18.71-2.56.39-.15.77-.31,1.16-.47.13-.05.25-.1.38-.16.83-.36,1.26-.6,1.26-.6,0,0,.02.02.07.06.23.18,1.04.82,2.41,1.75,6.27,4.25,24.3,14.58,52.17,15.39,23.23.67,42.91-6.39,53.61-11.26,5.51-2.51,8.63-4.43,8.63-4.43,0,0,1.18,0,4.69-.48,1.62-.23,3.72-.56,6.44-1.04,8.6-1.51,18.22-7.84,18.72-13.66.19-2.25-.44-3.55-1.3-4.3-1.35-1.21-3.26-1.01-3.26-1.01,0,0,1.61-1.09,4.17-3.45,2.19-2.01,5.08-4.95,8.23-8.94,6.83-8.61,29.85-47.57,25.81-85.27ZM76.29,157.43c-6.32,5.07-19.23,13.41-19.23,13.41h-.01c-.1-.13-.99-1.09-2.36-2.81-4.2-5.27-12.92-17.61-17.61-34.12-3.53-12.41-2.03-41.75,17.2-53.9,10.2-6.44,19.62-6.33,26.21-4.8.01,0,.02,0,.03.01,5.82,1.34,9.43,3.79,9.43,3.79,0,0-.11.2-.33.58-1.72,3.09-9.6,18.13-9.79,34.58-.14,11.58,1.48,20.36,3.05,26.07,1.4,5.16,2.77,7.83,2.77,7.83,0,0-.11.16-.33.44-.39.49-1.1,1.39-2.16,2.54-.06.06-.11.13-.17.18-1.54,1.66-3.77,3.86-6.69,6.19ZM121,194.07c-1.97.34-5.4.53-11.32.06-7.74-.63-15.02-2.95-19.49-4.66-2.4-.92-4.01-1.66-4.43-1.87-.08-.03-.11-.06-.11-.06,0,0,.22-.13.58-.33.01,0,.03-.01.05-.02.59-.35,5.01-4,6.11-4.98.79-.71,3.28-3.14,5.21-5.06,1.39-1.34,2.48-2.44,2.48-2.44,1.7,2.91,6.13,7.32,7.97,8.8,3.02,2.43,6.35,4.57,9.17,6.19,3.64,2.12,6.39,3.39,6.39,3.39,0,0-.35.58-2.61.96ZM200.76,132.38c-8.17,26.41-26.43,41.37-32.44,45.72-1.25.9-1.97,1.34-1.97,1.34,0,0-8.35-1.16-21.26-8.58-.58-.33-1.17-.67-1.76-1.04-13.17-7.9-18.64-22.37-19.18-23.9-.03-.09-.05-.14-.05-.14,0,0,.42-.66,1.12-1.86,3.36-5.76,13.18-23.8,13.81-38.88.52-12.47-3.46-22.21-6.03-27.11-1.18-2.27-2.06-3.5-2.06-3.5,0,0,.92-.82,2.47-2.07,3.73-3.05,11.08-8.65,17.52-11.34,9.11-3.8,25.55-8.61,39.72,2.28,14.16,10.87,19.98,37.18,10.11,69.06Z"/>
          <path class="cls-4" d="M130.94,74.45s-1.51-2.57-2.13-3.63c-1.34-2.31-2.89-4.52-4.52-6.65-3.12-4.1-8.78-9.71-8.78-9.71.1-.19.61-.74,1.49-1.56,3.59,2.64,6.8,5.76,9.68,9.18,1.87,2.21,3.55,4.55,5.01,7.06.61,1.05,1.2,2.13,1.72,3.24-1.55,1.25-2.47,2.07-2.47,2.07Z"/>
          <path class="cls-4" d="M124.11,145.79s.01.05.05.14c-.14-.08-.27-.19-.41-.35-10.9-12.55-12.49-21.21-13.09-23.8-1.95-8.38-3.02-16.98-6.27-25.08-3.37-8.41-9.54-13.82-14.76-17.11-4.68-2.95-8.61-4.19-9.1-4.37-.01-.01-.02-.01-.03-.01h-.01c5.93.41,14.01,1.89,21.35,9.67,8.35,8.85,9.17,21.3,11.48,32.61.77,3.79,1.73,7.56,3.02,11.21,1.15,3.26,2.62,6.38,4.45,9.31.9,1.45,3.15,4.25,4.24,5.58.09.11.17.23.22.35-.69,1.2-1.12,1.86-1.12,1.86Z"/>
          <path class="cls-4" d="M90.19,189.47c-.79.87-1.75,1.57-2.7,2.3-1.43,1.1-2.88,2.16-4.38,3.15-2.97,1.98-6.07,3.72-9.29,5.27-4.3,2.07-8.74,3.8-13.26,5.35-1.38-.93-2.24-1.61-2.47-1.79,4.74-1.99,9.4-4.22,13.84-6.79,2.94-1.71,5.83-3.54,8.62-5.48,1.47-1.02,4.82-3.71,5.12-3.95.42.21,2.13,1.01,4.53,1.93Z"/>
          <path class="cls-4" d="M57.05,170.83c-2.29,1.12-8.35,5.04-11.09,6.75-4.5,2.82-8.41,4.97-13.79,8.13-.23-.31-.78-1.07-1.42-1.98,4.76-2.52,9.29-5.42,13.79-8.41,2.7-1.79,5.34-3.65,7.92-5.6.74-.56,1.49-1.12,2.23-1.69,1.37,1.72,2.25,2.69,2.36,2.8Z"/>
          <path class="cls-4" d="M174.96,205.25s-3.12,1.92-8.63,4.43c-.19,0-.39-.01-.58-.02-9.65-.57-19.13-3.18-28.04-6.85-3.89-1.61-7.74-3.34-11.39-5.45-1.75-1.02-3.6-2.08-5.33-3.28,2.25-.38,2.61-.96,2.61-.96,0,0,2.05.76,5.78,2.36,3.86,1.65,7.82,3.16,11.83,4.41,4.63,1.45,9.01,2.96,13.79,3.83,13.44,2.44,19.96,1.54,19.96,1.54Z"/>
          <path class="cls-4" d="M194.54,184.39c-17.04-.67-28.18-4.94-28.18-4.94,0,0,.72-.44,1.97-1.34,5.82.96,11.7,1.31,17.67,1.54,4.41.16,8.88.02,13.28.48,1.79.18,3.6.49,5.16,1.18-2.56,2.36-4.17,3.47-4.17,3.47,0,0-2.53-.26-5.72-.38Z"/>
          <path class="cls-4" d="M92.2,163.29c-2.7-4.28-5.6-10.63-6.54-15.21-.6.72-1.44,1.83-2.5,2.98-.06.06-.11.13-.17.18,1.63,4.63,3.93,10.28,6.65,14.32,3.28,4.85,5.69,8.55,7.97,11.6,1.3-1.25,2.32-2.28,2.46-2.41-2.24-3.03-4.73-6.5-7.86-11.47Z"/>
        </g>
        <path class="cls-1" d="M80.46,61.36c1.32,1.63,2.76,3.03,4.31,4.42.92.82,2.58-.38,1.75-1.43-1.23-1.55-2.4-3.17-3.57-4.77-1-1.37-2.09-3.11-3.68-3.84-.57-.26-1.22.11-1.21.76.02,1.83,1.31,3.5,2.41,4.86Z"/>
        <path class="cls-1" d="M111.3,75.59c.88-.71,1.76-1.42,2.64-2.13.9-.73,1.63-1.38,1.95-2.52.17-.61-.38-1.21-.99-1.19-1.1.05-1.87.57-2.72,1.24-.84.66-1.68,1.33-2.52,1.99-.65.51-.96,1.36-.49,2.12.4.64,1.47,1.01,2.12.49Z"/>
        <path class="cls-1" d="M98.99,103.72c-1.39.77-2.78,1.54-4.17,2.3-1.17.65-2.71,1.31-3.25,2.62-.16.37-.03.93.45,1,1.44.2,2.72-.68,3.91-1.39,1.43-.85,2.86-1.71,4.3-2.56,1.29-.77.07-2.68-1.23-1.97Z"/>
        <path class="cls-1" d="M101.58,137.72c-.08,1.49-.34,2.95-.76,4.37-.35,1.18-.86,2.4-.42,3.62.17.47.71.83,1.21.64,2.93-1.1,3.15-6.14,3.26-8.77.09-2.12-3.18-1.96-3.29.14Z"/>
        <path class="cls-1" d="M130.51,172.18c.32-1.79-2.25-2.38-2.74-.63-.48,1.67-.98,3.34-1.43,5.02-.37,1.37-.82,2.82.08,4.06.32.45.85.57,1.34.31,1.36-.72,1.58-2.22,1.85-3.62.33-1.71.6-3.43.91-5.14Z"/>
        <path class="cls-1" d="M149.16,183.5c-.64-1.02-2.25,0-1.58.99,1.14,1.69,1.82,3.71,2.6,5.59.65,1.57.98,3.54,2.71,4.24.44.18,1.01.12,1.24-.37.86-1.86-.32-3.5-1.25-5.11-1.09-1.9-2.55-3.5-3.72-5.34Z"/>
        <path class="cls-1" d="M177.56,193.14c-.86-.81-2-1.2-2.99-1.83-1.04-.66-1.96-1.45-2.83-2.32-1.43-1.43-3.49.81-2.13,2.26,1.76,1.88,4.33,4.21,7.01,4.42.49.04,1.01-.36,1.23-.77.06-.11.1-.24.14-.37.14-.49-.06-1.06-.42-1.4Z"/>
        <path class="cls-1" d="M198.14,169.43c-2.09-.39-4.55.25-6.66.48-2.01.22-1.99,3.34.07,3.18,1.13-.09,2.26-.17,3.4-.26,1.08-.08,2.26-.05,3.28-.44,1.31-.51,1.53-2.66-.08-2.96Z"/>
        <path class="cls-1" d="M204.97,152.28c-.9-.77-2.23.49-1.33,1.31,1.2,1.09,2.33,2.44,3.94,2.88.5.14.79-.39.62-.8-.62-1.47-2.04-2.38-3.23-3.38Z"/>
        <path class="cls-1" d="M137.56,52.61c-1.73,2.02-2.1,4.83-3.43,7.1-.67,1.15,1.04,2.42,1.91,1.38,1.85-2.2,3.98-5.15,2.93-8.15-.2-.57-.99-.82-1.42-.33Z"/>
        <path class="cls-1" d="M160.75,44.45c-1.43-.42-2.97.74-3.93,1.69-1.1,1.09-1.97,2.48-2.62,3.88-.9,1.93,1.91,3.48,2.93,1.58.62-1.15,1.37-2.09,2.29-3.01.8-.8,1.93-1.67,2.14-2.85.1-.6-.22-1.12-.81-1.29Z"/>
        <path class="cls-1" d="M193.73,44.23c-1.37-.3-2.79.32-4.06.8-1.41.54-2.78,1.17-4.11,1.87-1.13.59-.07,2.26,1.05,1.67,1.33-.69,2.7-1.3,4.11-1.8,1.16-.41,2.4-.66,3.34-1.49.37-.33.12-.96-.32-1.06Z"/>
        <path class="cls-1" d="M204.23,53.9c.32,1.51.4,3.03.21,4.56-.15,1.23-.33,2.36.11,3.55.15.41.73.75,1.14.42,2.61-2.09,1.6-6.47.67-9.2-.47-1.38-2.42-.72-2.13.66Z"/>
        <path class="cls-1" d="M218.08,77c-.6-.68-1.57-.73-2.42-.93-1-.23-2-.47-3-.7-1.12-.26-1.53,1.49-.4,1.75,1,.23,2.01.45,3.01.68.85.19,1.75.57,2.58.22.44-.18.55-.66.23-1.02Z"/>
        <path class="cls-1" d="M221.01,96.52c3.4-1.97,3.95-5.86,3.99-9.49.02-1.36-1.92-1.4-2.27-.21-.92,3.14-2.62,5.82-2.78,9.14-.03.55.65.8,1.06.56Z"/>
        <path class="cls-1" d="M221.56,113.6c-1.31-.75-2.62-1.49-3.93-2.24-1.51-.86-2.7,1.44-1.27,2.35,1.28.81,2.55,1.62,3.83,2.43,1.07.68,2.06,1.45,3.32.79.29-.15.42-.49.42-.8,0-1.39-1.32-1.94-2.36-2.53Z"/>
        <path class="cls-1" d="M214.81,130.16c-.92-1.31-2.91-.07-2.11,1.32.45.77.87,1.56,1.23,2.38.37.84.63,1.71,1.17,2.46.69.96,2.54.63,2.38-.74-.24-1.97-1.56-3.83-2.67-5.42Z"/>
        <path class="cls-1" d="M61.7,56.94c1.49-.87,2.97-1.73,4.46-2.6,1.36-.79,2.92-1.48,3.91-2.75.29-.38.11-1.13-.48-1.05-1.58.23-2.91,1.16-4.27,1.94-1.57.9-3.14,1.81-4.71,2.71-1.14.66-.05,2.4,1.09,1.74Z"/>
        <path class="cls-1" d="M43.4,59.38c2.11,1.76,5.7,4.98,8.65,4.22.42-.11.69-.72.4-1.09-.92-1.17-2.28-1.48-3.61-2.07-1.56-.69-3.05-1.45-4.48-2.39-.78-.51-1.67.73-.96,1.32Z"/>
        <path class="cls-1" d="M32.36,74.03c-.99-.95-2.08-1.78-3.23-2.52-1-.64-2.21,1-1.23,1.71,1.03.75,2,1.58,2.87,2.51.8.86,1.42,1.8,2.56,2.21.49.17.95-.33.94-.78-.03-1.31-1.02-2.27-1.91-3.13Z"/>
        <path class="cls-1" d="M26.61,90.7c-1.37.99-2.73,1.98-4.1,2.97-1.24.9-2.34,1.6-2.69,3.16-.1.47.26.87.73.87,1.6,0,2.52-.95,3.66-1.97,1.26-1.12,2.52-2.24,3.78-3.35.93-.82-.37-2.41-1.38-1.68Z"/>
        <path class="cls-1" d="M25.14,114.47c-.59-1.35-1.19-2.69-1.78-4.04-.5-1.14-2.35-.62-1.89.59.56,1.45,1.13,2.89,1.69,4.34.52,1.32.91,2.52,2,3.48.43.38,1.01.05,1.05-.48.09-1.46-.5-2.58-1.08-3.89Z"/>
        <path class="cls-1" d="M20.45,129.91c-.28,1.02-.65,1.99-1.14,2.93-.44.83-.93,1.66-.6,2.61.12.36.5.67.89.63,2.25-.24,2.93-3.81,3.28-5.62.3-1.57-2-2.11-2.42-.56Z"/>
        <path class="cls-1" d="M31.41,149.64c-1.34-.72-2.75-1.34-4.11-2.01-1.6-.78-2.92,1.63-1.32,2.45,1.29.66,2.57,1.33,3.87,1.97.79.39,2.22.86,2.79-.18.51-.92-.53-1.85-1.23-2.23Z"/>
        <path class="cls-1" d="M35.31,168.84c.07-1.44.39-2.84.84-4.21.53-1.64-2.06-2.21-2.6-.6-.71,2.15-1.95,6.18.02,7.95.26.23.75.28.98-.03.77-1.02.71-1.88.77-3.12Z"/>
        <path class="cls-1" d="M49.04,191.5c-1.5-.26-3.01-.49-4.51-.74-1.9-.31-2.59,2.58-.68,2.93,1.5.28,2.99.57,4.49.84,1.24.22,2.55.52,3.65-.25.39-.27.58-.83.29-1.26-.78-1.11-1.96-1.3-3.24-1.52Z"/>
        <path class="cls-1" d="M82.88,173.28c2.95-1.74,3.26-6.67,3.45-9.73.07-1.21-1.92-1.39-2.13-.2-.31,1.78-.79,3.49-1.47,5.17-.55,1.35-1.2,2.6-1.11,4.1.04.63.72.98,1.26.66Z"/>
        <path class="cls-1" d="M69.13,186.67c.29.27.66.26,1,.1.91-.45,1.08-1.52,1.2-2.43.15-1.09.29-2.19.44-3.28.22-1.68-2.33-2.31-2.6-.6-.18,1.15-.37,2.31-.55,3.46-.15.96-.27,2.03.51,2.75Z"/>
        <path class="cls-1" d="M87.4,199.48c-2.22-.31-3.91,2.21-5.25,3.62-1.36,1.43.75,3.27,2.18,2.06.82-.7,1.69-1.36,2.47-2.1.69-.65,1.41-1.72,1.32-2.7-.03-.38-.31-.81-.72-.87Z"/>
        <path class="cls-1" d="M110.95,206.53c-1.2-.94-2.39-1.88-3.59-2.82-1.19-.93-2.73.63-1.63,1.73,1.07,1.07,2.14,2.14,3.21,3.21,1,1,1.81,1.83,3.3,1.66.39-.05.68-.33.68-.74,0-1.51-.85-2.16-1.98-3.04Z"/>
        <path class="cls-1" d="M129.44,206.36l-2.76-3.96c-.9-1.29-2.89-.06-2.08,1.3.82,1.38,1.64,2.76,2.46,4.14.7,1.17,1.35,2.53,2.88,2.58.23,0,.54-.17.63-.39.57-1.42-.34-2.54-1.14-3.67Z"/>
        <path class="cls-1" d="M119.84,93.91c1.65.74,3.29,1.52,4.93,2.3,1.35.64,2.62,1.56,4.13,1.11.64-.19.74-.93.46-1.44-.74-1.33-2.46-1.54-3.81-2.01-1.62-.56-3.25-1.12-4.86-1.71-1.15-.42-2.01,1.22-.85,1.74Z"/>
        <path class="cls-1" d="M128.23,114.88c-.61,1.45-1.37,2.83-2.35,4.07-.81,1.02-1.71,1.87-1.82,3.24-.03.43.45.79.84.77,3-.18,4.65-4.92,5.4-7.3.38-1.19-1.58-1.94-2.07-.78Z"/>
        <path class="cls-1" d="M101.28,64.37c.33-2.31,1.5-5.71-.17-7.68-.34-.4-.93-.24-1.27.04-1.83,1.54-1.25,5.26-1.31,7.39-.04,1.55,2.52,1.81,2.74.25Z"/>
        <path class="cls-1" d="M114.09,164.42c-1.07-.7-2.33-.86-3.56-1.13-1.36-.3-2.69-.66-4.02-1.07-.74-.23-1.22,1-.49,1.29,2.37.93,5.37,2.44,7.96,1.91.51-.1.45-.78.1-1.01Z"/>
        <path class="cls-1" d="M95.56,126.5c-.58-.18-1.19-.29-1.78-.42-1.38-.32-1.87,1.82-.49,2.14.59.14,1.19.3,1.78.4.66.1,1.14.12,1.74-.2.32-.17.44-.69.23-.98-.4-.55-.84-.74-1.47-.94Z"/>
        <path class="cls-1" d="M118.52,155.15c-.58-.18-1.19-.29-1.78-.42-1.38-.32-1.87,1.82-.49,2.14.59.14,1.19.3,1.78.4.66.1,1.14.12,1.74-.2.32-.17.44-.69.23-.98-.4-.55-.84-.74-1.47-.94Z"/>
        <path class="cls-1" d="M174.98,36.18c-.4.45-.76.96-1.13,1.44-.86,1.12.87,2.46,1.74,1.34.37-.48.77-.95,1.11-1.45.37-.55.59-.98.55-1.66-.02-.37-.44-.69-.8-.62-.66.13-1.02.45-1.47.95Z"/>
      </g>
    </g>
  </g>
</svg>