<?xml version="1.0" encoding="UTF-8"?>
<svg id="Capa_2" data-name="Capa 2" xmlns="http://www.w3.org/2000/svg" viewBox="0 0 200 200">
  <defs>
    <style>
      .cls-1 {
        fill: none;
      }

      .cls-1, .cls-2, .cls-3, .cls-4, .cls-5 {
        stroke-width: 0px;
      }

      .cls-2 {
        fill: #fff;
      }

      .cls-3 {
        fill: #593737;
      }

      .cls-4 {
        fill: #facda7;
      }

      .cls-5 {
        fill: #e34b4b;
      }
    </style>
  </defs>
  <g id="colorful_icons" data-name="colorful icons">
    <g>
      <g>
        <polygon class="cls-3" points="94.1 48.77 94.22 58.95 104.28 58.71 104.28 49.13 94.1 48.77"/>
        <path class="cls-5" d="m96.65,56.7c-14.08.97-27.77,6.98-37.52,17.75-12.1,13.38-17.14,33.27-12.65,50.79,4.45,17.36,16.35,32.92,34.74,39.6,16.42,5.96,35.13,2.62,49.33-7.25,29.51-20.5,32.32-71.56,1.15-91.96-10.46-6.84-22.9-9.76-35.06-8.93Z"/>
        <path class="cls-2" d="m142.32,112.52c-1.31,13.95-8.22,33.64-28.72,40.8-.66.23-1.32.45-1.98.65-4.59,1.42-8.98,2.12-13.13,2.17-21.68.37-36.9-16.11-41.38-33.58-.96-3.77-1.36-7.67-1.22-11.57.69-21.21,16.77-42.61,41.27-43.16.52-.01,1.06-.01,1.57-.01,24.74.03,38.57,14.5,43.12,32.32.67,2.65.98,7.11.47,12.4Z"/>
        <path class="cls-4" d="m142.32,112.52c-1.31,13.95-8.22,33.64-28.72,40.8-.66.23-1.32.45-1.98.65-4.59,1.42-8.98,2.12-13.13,2.17-21.68.37-36.9-16.11-41.38-33.58-.96-3.77-1.36-7.67-1.22-11.57h42.72l.11-43.18c24.74.03,38.57,14.5,43.12,32.32.67,2.65.98,7.11.47,12.4Z"/>
        <g>
          <g>
            <path class="cls-3" d="m48.57,112.57c2.38.08,4.77.15,7.15.21s4.84.35,7.1-.41c.7-.23.7-1.19,0-1.42-2.26-.76-4.75-.47-7.1-.41s-4.77.13-7.15.21c-1.17.04-1.17,1.78,0,1.82h0Z"/>
            <path class="cls-3" d="m149.88,110.75c-2.38-.08-4.77-.15-7.15-.21s-4.84-.35-7.1.41c-.7.23-.7,1.19,0,1.42,2.26.76,4.75.47,7.1.41s4.77-.13,7.15-.21c1.17-.04,1.17-1.78,0-1.82h0Z"/>
          </g>
          <g>
            <path class="cls-3" d="m100.13,162.31c.08-2.38.15-4.77.21-7.15s.35-4.84-.41-7.1c-.23-.7-1.19-.7-1.42,0-.76,2.26-.47,4.75-.41,7.1s.13,4.77.21,7.15c.04,1.17,1.78,1.17,1.82,0h0Z"/>
            <path class="cls-3" d="m98.31,61.01c-.08,2.38-.15,4.77-.21,7.15-.06,2.35-.35,4.84.41,7.1.23.7,1.19.7,1.42,0,.76-2.26.47-4.75.41-7.1s-.13-4.77-.21-7.15c-.04-1.17-1.78-1.17-1.82,0h0Z"/>
          </g>
        </g>
        <path class="cls-5" d="m76.64,34.6c-.23,4.65-.56,14.67.74,15.87,1.7,1.56,43.5.78,44.23-1.01s2.18-15.65-.97-17.21c-2.64-1.31-31.61-.43-40.97-.1-1.82.06-2.96,1.02-3.03,2.45Z"/>
      </g>
      <rect class="cls-1" width="200" height="200"/>
    </g>
  </g>
</svg>