<?xml version="1.0" encoding="UTF-8"?>
<svg id="Capa_2" xmlns="http://www.w3.org/2000/svg" viewBox="0 0 243.3 243.3">
  <defs>
    <style>
      .cls-1 {
        fill: #a36545;
      }

      .cls-2 {
        fill: none;
      }

      .cls-3 {
        fill: #e09d3e;
      }

      .cls-4 {
        fill: #4f3535;
      }
    </style>
  </defs>
  <g id="grocery_icons">
    <g>
      <rect class="cls-2" width="243.3" height="243.3"/>
      <g>
        <g>
          <path class="cls-3" d="M121.39,193.62c-19.57,9.92-49.07,8.85-72.94,4.02-23.87-4.83-36.47-18.76-37.81-33.79-.48-5.33.8-9.82,2.7-13.39,3.42-6.5,8.85-10.03,9.36-10.2,0,0,95.73.53,107.8,2.41,8.07,1.25,10.98,4.55,12.26,9.8.64,2.61.87,5.68,1.15,9.24.81,10.73-2.94,21.99-22.53,31.91Z"/>
          <path class="cls-1" d="M29.95,158.03c-3.68-1.1-8.21-.86-10.83,2.1-2.46,2.64-1.59,6.97,1.61,8.57,4.2,2.23,11.36,2.23,14.68-1.8,2.76-3.85-1.47-7.85-5.22-8.8l-.24-.07ZM32.31,164.58c.02-.05.05-.11.05-.11.02.03,0,.07-.05.11Z"/>
          <path class="cls-1" d="M73.98,180.19c-6.85-1.7-13.1,6.36-8.35,12.1,2.94,3.66,10.29,4.38,13.65,1.04,4.57-4.37.57-12.11-5.07-13.09l-.23-.05ZM74.02,184.94c-.18-.06-.09-.04,0,0h0Z"/>
          <path class="cls-1" d="M134.26,167.11c-6.32-7.97-19.73,2.62-17.25,11.01,4.71,9.34,21.83-2.73,17.36-10.83l-.11-.18Z"/>
          <path class="cls-4" d="M142.77,152.47c-1.92,5.31-4.91,9.9-9.04,12.19-9.65,5.37-50.15,19.85-82.06,9.12-20.19-6.78-32.22-14.98-38.33-23.33,3.42-6.5,8.85-10.03,9.36-10.2,0,0,95.73.53,107.8,2.41,8.07,1.25,10.98,4.55,12.26,9.8Z"/>
          <path class="cls-3" d="M133.73,159.02c-9.65,5.37-50.15,19.85-82.06,9.12-31.92-10.73-43.44-24.94-43.44-37.81,0-4.54,2.3-8.48,5.32-11.72,5.55-5.95,13.5-9.46,13.99-9.74,6.43-3.75,80.18-3.22,94.13.81,13.94,4.02,20.91,5.62,23.06,15.82.31,1.54.52,3.26.58,5.09.36,10.24-3.38,23.87-11.57,28.42Z"/>
          <path class="cls-4" d="M145.31,130.6c-3.62,2.9-8.71,5.64-15.87,8.05-20.65,6.96-61.68,8.3-89.56-2.15-13.88-5.2-22.05-11.42-26.32-17.88,5.55-5.95,13.5-9.46,13.99-9.74,6.43-3.75,80.18-3.22,94.13.81,13.94,4.02,20.91,5.62,23.06,15.82.31,1.54.52,3.26.58,5.09Z"/>
          <path class="cls-3" d="M148.48,88.5s-17.16-22.53-66.5-22.53S14.66,80.99,11.18,93.59s1.34,27.08,29.23,37.54c27.89,10.46,68.92,9.12,89.57,2.15,20.65-6.97,24.13-16.63,24.67-25.21.54-8.58-1.34-15.82-6.17-19.58Z"/>
          <path class="cls-1" d="M88.71,88.38c-7.26-1.07-16.34,1.09-20.57,7.34-4.48,6.35.15,14.69,7.04,16.75,19.99,7.15,37.13-19.35,13.77-24.04l-.24-.04Z"/>
          <path class="cls-1" d="M56.78,93.32c1.8-6.24-4.51-11.83-10.29-12.94-8.34-2.08-16.36,6.29-15.19,14.43,2.11,13.44,22.16,9,25.41-1.29l.06-.21Z"/>
          <path class="cls-1" d="M116.05,119.46c5.35.92,11.71-1.24,15.17-5.46,3.89-4.45,2-10.5-3.4-12.47-5.8-2.35-13.51-.85-17.4,4.21-4.44,5.33-1.44,12.62,5.39,13.68l.24.05Z"/>
          <path class="cls-1" d="M116.22,88.43c3.57,2.47,8.78,2.41,11.98-.63,6-5.53,4.9-20.6-4.1-22.96-10.86-1.48-17.28,17.59-8.07,23.46l.19.13Z"/>
          <path class="cls-1" d="M75.01,76.27c6.49,2.45,14.6-2.57,12.39-9.89-1.5-5.45-8.11-9.51-13.59-8.23-9.93,2.54-8.05,15.45.96,18.05l.24.08Z"/>
          <path class="cls-1" d="M66.02,147.74c-3.69-7.23-25.02-9.45-22.12,2.49,3.22,6.6,14.27,9.38,20.21,5.29,2.42-1.69,3.49-4.94,2.01-7.6l-.1-.19Z"/>
          <path class="cls-1" d="M123.87,156.64c3.68-9.98-14.86-13.12-19.27-6.02-2.9,4.78,2.01,9.97,6.74,10.9,4.36,1.11,10.33-.69,12.43-4.69l.1-.19Z"/>
          <path class="cls-4" d="M26.99,105.29c1.36,1.1,2.71,2.19,4.07,3.29,1.36,1.1,2.8,2.16,4.32,3.02.57.32,1.11-.41.69-.89-2.28-2.54-5.14-4.56-7.8-6.68-.38-.3-.9-.37-1.27,0-.31.31-.38.96,0,1.27h0Z"/>
          <path class="cls-4" d="M67.65,123.56c2.81.88,5.68,1.55,8.6,1.98,1.44.21,2.89.37,4.34.47,1.28.09,2.98.24,4.16-.32.47-.22.49-1.04,0-1.26-1.2-.54-2.85-.42-4.16-.48s-2.73-.17-4.09-.33c-2.84-.34-5.65-.92-8.41-1.7-1.06-.3-1.49,1.31-.45,1.64h0Z"/>
          <path class="cls-4" d="M96.86,127c5.23.4,10.43.29,15.63-.4,2.49-.33,4.96-.77,7.41-1.34,2.37-.54,5.02-.99,7.08-2.31.52-.33.36-1.27-.33-1.23-2.46.14-4.86,1.13-7.26,1.68s-4.95,1.02-7.45,1.34c-4.99.64-10.05.87-15.08.66-1.04-.04-1.02,1.52,0,1.6h0Z"/>
          <path class="cls-4" d="M36.5,182.95c2.75,1.55,5.67,2.81,8.69,3.72,1.48.44,2.98.8,4.5,1.07s3.2.6,4.69.14c.42-.13.6-.82.14-1.03-1.34-.61-2.88-.67-4.33-.9s-2.94-.55-4.38-.94c-2.97-.81-5.82-1.95-8.52-3.41-.88-.47-1.66.85-.79,1.34h0Z"/>
          <path class="cls-4" d="M89.22,192.04c1.47.16,2.94.2,4.42.1.77-.05,1.55-.11,2.3-.29s1.54-.34,2.18-.82c.73-.55.46-1.57-.45-1.67-.74-.08-1.45.12-2.19.22-.67.09-1.33.23-2,.32-1.41.18-2.84.22-4.26.15-.53-.03-.99.47-.99.99,0,.58.46.93.99.99h0Z"/>
          <path class="cls-4" d="M108.74,188.25l1.23-.41c.2-.07.4-.13.59-.2.16-.06.3-.12.44-.22l.27-.18c.24-.16.41-.47.31-.77-.09-.28-.35-.52-.66-.5-.27.01-.56,0-.81.09-.2.06-.39.13-.59.2l-1.23.41c-.2.07-.38.19-.49.38-.1.18-.15.44-.08.64.13.41.58.72,1.01.58h0Z"/>
          <path class="cls-4" d="M23.3,143.16l3.04,2.56,1.49,1.26c.24.2.48.41.72.61s.46.36.77.41c.16.03.33.05.49.07.3.04.58.02.8-.21.19-.19.31-.54.21-.8-.16-.41-.28-.87-.64-1.15-.29-.22-.58-.44-.87-.66l-1.61-1.22-3.21-2.43c-.39-.3-1.01-.1-1.28.25s-.3.98.08,1.3h0Z"/>
          <path class="cls-4" d="M81.17,160.34c1.12.11,2.24.15,3.36.11,1.18-.04,2.5-.05,3.53-.68.61-.37.55-1.44-.21-1.59-.58-.12-1.12-.12-1.71-.06s-1.12.11-1.68.13c-1.1.05-2.2.02-3.3-.08-.57-.05-1.11.54-1.08,1.08.03.64.48,1.02,1.08,1.08h0Z"/>
          <path class="cls-4" d="M118.37,116.04c2.07-.22,4.12-.74,5.97-1.71.87-.46,1.7-.99,2.48-1.58.9-.68,1.57-1.52,2.03-2.55.26-.58-.28-1.24-.9-.9-.84.46-1.65.94-2.4,1.55-.71.57-1.48,1.07-2.27,1.52-1.63.91-3.31,1.61-5.14,2.01-.92.2-.74,1.77.23,1.67h0Z"/>
          <path class="cls-4" d="M121.63,87.77c.44-.06.87-.16,1.29-.3.3-.1.61-.21.89-.35.19-.1.37-.24.54-.37.97-.74,2.14-1.71,2.01-3.06-.03-.37-.15-.66-.45-.89-.26-.2-.67-.34-.99-.2-.08.03-.17.07-.25.1-.24.1-.41.18-.61.37-.04.04-.09.08-.13.12-.08.07-.17.14-.25.22-.16.15-.27.36-.41.53l.23-.29c-.2.25-.41.49-.63.72s-.49.41-.71.64-.44.44-.68.64c-.06.05-.29.21,0,0-.07.05-.13.1-.19.14-.13.09-.26.18-.4.26-.4.25-.57.74-.39,1.18.08.18.21.36.39.45.24.13.46.13.73.1h0Z"/>
          <path class="cls-4" d="M77.64,107.72c2.1.31,4.23.65,6.34.24,1.7-.33,3.99-1.15,4.57-2.96.23-.73-.52-1.47-1.25-1.25-.78.24-1.4.74-2.13,1.08-.52.24-1.31.45-1.97.57-.19.03-.77.09-1.12.12-.44.04-.88.06-1.32.07-.94.01-1.88-.04-2.82-.1-.56-.03-1.05.45-1.11.98s.25,1.16.81,1.24h0Z"/>
          <path class="cls-4" d="M44.36,97.69c1.66.19,3.37-.1,4.9-.75.78-.33,1.51-.75,2.17-1.3.35-.3.68-.61.96-.98.33-.43.44-.82.46-1.36s-.59-.81-1.03-.59c-.39.19-.65.38-.94.71-.25.28-.48.58-.73.85-.5.52-1.01,1.02-1.61,1.42-1.25.86-2.66,1.35-4.18,1.43-.37.02-.36.53,0,.57h0Z"/>
          <path class="cls-4" d="M80.47,74.12c.44-.18.87-.37,1.27-.62.16-.1.31-.2.46-.32s.3-.23.45-.35.24-.27.35-.41.2-.28.25-.46c.11-.38,0-.83-.29-1.11-.13-.13-.31-.23-.48-.28-.78-.22-1.34.45-1.89.88l.24-.19c-.38.3-.8.55-1.24.75-.24.11-.47.44-.53.69s-.05.51.06.75c.09.22.25.44.47.55.26.14.61.23.89.12h0Z"/>
          <path class="cls-4" d="M53.27,153.01c1.46.7,2.93,1.37,4.56,1.5,1.53.12,3.47-.38,3.97-2.01.22-.72-.49-1.36-1.19-1.19-.13.03-.26.06-.39.1-.13.05-.26.1-.38.17.12-.05.12-.05-.01,0-.19.08-.36.16-.55.25-.05.03-.1.05-.15.07.13-.05.12-.05-.01,0-.29.08-.57.19-.86.27-.11.03-.22.05-.33.07-.07.01-.15.03-.22.04.11-.02.1-.01-.04,0-1.33.08-2.58-.2-3.86-.52-.72-.18-1.25.9-.53,1.25h0Z"/>
          <path class="cls-4" d="M25.66,167.93c.54.02,1.07.05,1.61.07.26.01.57-.13.75-.31s.32-.49.31-.75-.1-.56-.31-.75-.47-.32-.75-.31c-.54.02-1.07.05-1.61.07-.26.01-.51.1-.7.29-.17.17-.3.45-.29.7s.1.52.29.7.43.28.7.29h0Z"/>
          <path class="cls-4" d="M71.12,191.97c.94.3,1.94.43,2.93.36.52-.03,1.05-.11,1.57-.24.29-.07.57-.2.84-.33.34-.16.56-.44.75-.75.39-.64-.12-1.38-.81-1.42-.3-.02-.56,0-.85.11-.25.1-.5.21-.76.3.29-.11-.08.03-.13.05-.08.03-.16.06-.25.09-.21.07-.41.13-.62.18s-.42.09-.63.12c.22-.03-.06,0-.09,0-.12.01-.23.02-.35.03-.2,0-.4.01-.6,0-.11,0-.23-.01-.34-.02-.06,0-.11-.01-.17-.02-.1-.01-.11-.01-.04,0-.41-.06-.88.1-.99.56s.13.85.56.99h0Z"/>
          <path class="cls-4" d="M110.71,158.33c2.01.35,4.08.24,6.04-.36.97-.3,1.9-.71,2.77-1.24.44-.27.85-.56,1.25-.88.45-.35.74-.77,1.03-1.27.39-.68-.39-1.45-1.06-1.06-.42.24-.83.44-1.21.76-.32.27-.67.5-1.02.73-.73.46-1.52.86-2.34,1.15-1.69.61-3.46.81-5.24.6-.89-.11-1.1,1.42-.21,1.57h0Z"/>
          <path class="cls-4" d="M124.81,177.17c1.05-.06,2.03-.31,2.99-.74.5-.22.97-.56,1.31-.99.29-.37.52-.77.72-1.19.17-.36.17-.82-.14-1.11-.3-.27-.76-.36-1.11-.14-.23.14-.47.27-.72.39-.09.04-.34.1.02,0-.14.04-.32.12-.42.18-.12.06-.24.13-.36.19-.5.26-.96.59-1.48.81l.3-.13c-.46.19-.93.34-1.42.43-.26.05-.58.31-.7.54s-.18.48-.14.75c.07.55.57,1.05,1.16,1.02h0Z"/>
          <path class="cls-4" d="M99.67,84.74h.07s.05,0,.07,0c.18,0,.34-.03.49-.11.16-.05.29-.14.41-.26.12-.12.21-.25.26-.41.08-.15.12-.32.11-.49l-.05-.34c-.06-.22-.17-.4-.33-.56l-.26-.2c-.2-.12-.41-.17-.64-.17-.02,0-.05,0-.07,0h-.07c-.18,0-.34.03-.49.11-.16.05-.29.14-.41.26-.12.12-.21.25-.26.41-.08.15-.12.32-.11.49l.05.34c.06.22.17.4.33.56l.26.2c.2.12.41.17.64.17h0Z"/>
          <path class="cls-4" d="M138.49,95.55c.19,0,.38-.03.54-.12.18-.06.33-.15.46-.29.14-.13.24-.28.29-.46.09-.17.13-.35.12-.54l-.05-.38c-.07-.24-.19-.45-.36-.62l-.29-.22c-.22-.13-.46-.19-.71-.19-.19,0-.38.03-.54.12-.18.06-.33.15-.46.29-.14.13-.24.28-.29.46-.09.17-.13.35-.12.54l.05.38c.07.24.19.45.36.62l.29.22c.22.13.46.19.71.19h0Z"/>
          <path class="cls-4" d="M66.29,87.61c1.7,0,1.7-2.64,0-2.64s-1.7,2.64,0,2.64h0Z"/>
          <path class="cls-4" d="M57.64,109.95c2.24,0,2.25-3.49,0-3.49s-2.25,3.49,0,3.49h0Z"/>
          <path class="cls-4" d="M25.06,92.39c1.64,0,1.64-2.55,0-2.55s-1.64,2.55,0,2.55h0Z"/>
          <path class="cls-4" d="M35.51,143.71s0,.02,0,.03c-.07.24-.09.48-.03.71,0,.08.01.16.03.24,0,0,0,0,0,0,0,0,0,0,0,.01.04.16.02.19.19.45l.29.38c.24.23.51.4.83.48l.5.07c.34,0,.66-.09.95-.26l.38-.29c.23-.24.4-.51.48-.83l.07-.5c0-.34-.09-.66-.26-.95l-.29-.38c-.17-.18-.37-.31-.61-.39-.22-.12-.47-.17-.73-.16-.26,0-.5.04-.73.16-.23.08-.44.21-.61.39-.23.24-.4.51-.48.83h0Z"/>
          <path class="cls-4" d="M94.64,151.71c.08,0,.08-.12,0-.12s-.08.12,0,.12h0Z"/>
          <path class="cls-4" d="M129.44,146.62c1.55,0,1.55-2.4,0-2.4s-1.55,2.4,0,2.4h0Z"/>
          <path class="cls-4" d="M45.77,180.08c2.15,0,2.16-3.35,0-3.35s-2.16,3.35,0,3.35h0Z"/>
        </g>
        <g>
          <path class="cls-3" d="M178.51,69.8c-32.38-8.25-36.2,5.03-37.21,25.74-1.01,20.72,4.42,45.86,18.91,68.38,14.48,22.53,34.19,39.42,51.49,36.81,17.3-2.61,26.95-26.15,22.73-51.89-4.22-25.74-23.53-70.8-55.91-79.04Z"/>
          <path class="cls-4" d="M146.48,73.16c-.63,1.1-1.49,2.07-2.04,3.2s-1.03,2.17-1.42,3.3c-.85,2.46-1.55,4.97-2.09,7.52-1.02,4.89-1.28,10.02-1.17,15,.22,10.32,2.29,20.57,5.46,30.37,6.56,20.31,17.02,39.93,32.69,54.67,4.04,3.8,8.45,7.27,13.26,10.06,2.43,1.41,5.03,2.79,7.72,3.62,2.46.76,5.32,1.52,7.77.5.56-.23.71-.93.17-1.29-1.85-1.21-3.99-1.63-6.03-2.46-2.25-.91-4.46-1.86-6.59-3.03-4.2-2.31-8.11-5.14-11.69-8.32-7.77-6.9-14.39-14.99-19.69-23.92-10.15-17.07-18.22-36.39-19.61-56.38-.38-5.4-.28-10.86.52-16.22.41-2.75.86-5.48,1.54-8.18.33-1.31.67-2.61,1-3.92.36-1.41.47-2.83.91-4.22.13-.41-.48-.66-.69-.29h0Z"/>
          <path class="cls-4" d="M155.5,86.3c-.27,2.67-.66,5.32-.92,7.99-.23,2.39-.06,4.91.27,7.29s.8,4.92,1.4,7.33,1.07,5.08,2.77,6.87c.55.58,1.44.1,1.49-.62.16-2.36-.96-4.74-1.53-7.01s-1.04-4.74-1.37-7.15c-.67-4.86-1.69-9.81-1.35-14.72.03-.49-.71-.48-.75,0h0Z"/>
          <path class="cls-4" d="M164.68,131.81l.5,1.95c.08.32.15.65.25.98.08.25.2.44.35.64.08.11.16.22.26.31.11.1.23.17.35.25.51.33,1.14-.01,1.32-.54.07-.21.11-.42.11-.65,0-.09,0-.18,0-.27-.02-.26-.09-.43-.19-.67-.13-.3-.27-.61-.4-.91l-.8-1.82c-.09-.19-.36-.39-.56-.43-.21-.05-.41-.04-.61.05-.43.18-.66.65-.55,1.11h0Z"/>
          <path class="cls-4" d="M176.83,158.48c3,5.36,6.54,10.41,10.58,15.04,1.99,2.28,4.09,4.46,6.31,6.52s4.53,4.36,7.4,5.46c1.08.41,1.58-1.03,1.01-1.73-1.82-2.28-4.46-3.89-6.66-5.79-2.24-1.93-4.37-3.97-6.4-6.12-4.1-4.34-7.73-9.1-10.85-14.19-.54-.88-1.89-.09-1.38.81h0Z"/>
          <g>
            <path class="cls-1" d="M177.76,93.69c2.43-.58,4.75-2,5.4-4.49,1.32-5.1-4.23-9.68-8.31-11.52-3.97-1.79-9.42-1.97-12.27,1.91-2.58,3.52-1.32,8.35,1.82,11.05,2.91,2.49,7.23,3.48,10.99,3.37.76-.02,1.57-.12,2.36-.32Z"/>
            <path class="cls-1" d="M207.98,109.3c.87,2.15,2.15,4.12,3.72,5.82,1.54,1.66,3.59,3.44,5.79,4.12,2.26.69,4.71-.12,6.47-1.59,2.07-1.74,3.02-4.4,3.08-7.04.12-5.12-2.47-10.7-6.35-14.01-2.17-1.85-4.84-3.04-7.73-2.62-7.15,1.03-7.1,10.1-4.98,15.33Z"/>
            <path class="cls-1" d="M182.8,122.64c5.23-.35,11.66-2,14.13-7.14,2.32-4.82-.43-8.64-4.95-10.53-5.69-2.38-15.24-3.36-19.51,2.22-1.63,2.12-2.73,5.2-2.28,7.89.96,5.81,7.51,7.91,12.62,7.57Z"/>
            <path class="cls-1" d="M198.08,138.5c-2.78-2.56-7.45-4.93-11.23-3.01-4.24,2.15-5.55,8.52-4.9,12.81.79,5.23,4.21,9.77,9.21,11.61,2.49.91,5.61,1.12,7.93-.33,2.21-1.38,3.72-3.9,4.24-6.43,1.07-5.26-1.36-11.07-5.24-14.65Z"/>
            <path class="cls-1" d="M221.48,129.95c-2.26-1.23-5.11-1.16-6.97.76-3.04,3.13-2.25,9.11-.73,12.78,1.36,3.3,4.47,6.79,8.4,6.35,4.45-.5,6.07-5.91,5.66-9.73-.43-3.95-2.77-8.21-6.35-10.16Z"/>
            <path class="cls-1" d="M218.43,133.95h0s-.08.02-.12.03c.02,0,.07-.02.12-.03Z"/>
            <path class="cls-1" d="M218.41,161.9c-3.15-.34-6.63,1.2-8.69,3.55-2.03,2.31-3.48,6.42-2.09,9.4.77,1.66,2.67,2.9,4.27,3.67,1.85.89,4.03,1.53,6.1,1.29,2.16-.25,3.84-1.8,5.18-3.42,2.57-3.11,3.42-7.79.88-11.21-1.36-1.84-3.36-3.04-5.64-3.29Z"/>
          </g>
          <path class="cls-4" d="M194,90.65c1.73,0,1.73-2.69,0-2.69s-1.73,2.69,0,2.69h0Z"/>
          <path class="cls-4" d="M206.67,124.41c2.21,0,2.22-3.44,0-3.44s-2.22,3.44,0,3.44h0Z"/>
          <path class="cls-4" d="M183.54,129.83c1.94,0,1.94-3.02,0-3.02s-1.94,3.02,0,3.02h0Z"/>
          <path class="cls-4" d="M210.29,155.34c2.15,0,2.16-3.35,0-3.35s-2.16,3.35,0,3.35h0Z"/>
          <path class="cls-4" d="M227.59,158.71c1.06,0,1.06-1.65,0-1.65s-1.06,1.65,0,1.65h0Z"/>
          <path class="cls-4" d="M218.71,187.84c.22,0,.42-.04.61-.14.2-.06.37-.17.51-.33.15-.14.26-.31.33-.51.1-.19.14-.39.14-.61l-.06-.42c-.08-.27-.21-.5-.41-.7l-.32-.25c-.25-.14-.51-.21-.8-.22-.22,0-.42.04-.61.14-.2.06-.37.17-.51.33-.15.14-.26.31-.33.51-.1.19-.14.39-.14.61l.06.42c.08.27.21.5.41.7l.32.25c.25.14.51.21.8.22h0Z"/>
          <path class="cls-4" d="M165.05,85.56c1.1,1.52,2.52,2.83,4.08,3.88.81.54,1.75.83,2.7,1.03s2.46.59,3.34-.07c.7-.53.75-1.44,0-1.96-.46-.32-1-.35-1.53-.37-.22,0-.44-.02-.66-.04-.1,0-.2-.02-.29-.03.13.02-.06-.01-.09-.02-.85-.15-1.67-.41-2.51-.6-1.67-.37-3.08-1.19-4.29-2.39-.37-.37-1.06.13-.74.57h0Z"/>
          <path class="cls-4" d="M177.84,89.23c.08,0,.08-.12,0-.12s-.08.12,0,.12h0Z"/>
          <path class="cls-4" d="M208.98,99.98c-.17.84-.27,1.7-.28,2.55s.15,1.73.37,2.57.52,1.59.87,2.35c.17.36.34.72.56,1.05.2.31.42.55.76.71.21.1.43.11.65.17.48.14.85-.24.9-.68.02-.19.12-.37.12-.59,0-.32-.13-.59-.26-.87-.08-.17-.17-.33-.25-.5-.04-.08-.08-.17-.12-.25-.06-.14-.08-.17-.04-.08-.27-.65-.47-1.32-.62-2-.04-.18-.08-.37-.11-.55-.02-.09-.03-.18-.04-.28.02.13.01.11,0-.06-.01-.14-.03-.28-.04-.42-.02-.17-.04-.33-.07-.5-.02-.16-.03-.18,0-.06-.09-.74-.11-1.49-.06-2.24.08-1.31-2.05-1.62-2.31-.31h0Z"/>
          <path class="cls-4" d="M214.45,112.02c.08,0,.08-.12,0-.12s-.08.12,0,.12h0Z"/>
          <path class="cls-4" d="M215.05,113.54l.18.13.09.06c.11.08.22.12.35.16.13.04.26.08.4.12l.28.04.28-.04.25-.1c.12-.07.22-.15.29-.27.06-.06.11-.14.13-.23.05-.08.07-.17.07-.26.02-.09.02-.18,0-.28,0-.14-.05-.27-.12-.39-.08-.11-.16-.21-.25-.32-.05-.1-.12-.18-.2-.25l-.24-.18s-.03-.02-.05-.04l-.09-.06-.18-.13c-.14-.09-.28-.13-.44-.14-.16-.04-.31-.03-.47.02-.15.04-.29.11-.4.21-.13.08-.23.19-.3.33l-.12.28c-.06.21-.06.42,0,.63l.12.28c.1.18.25.32.42.42h0Z"/>
          <path class="cls-4" d="M175.14,116.02c1.29,1.11,2.78,2,4.43,2.42.82.21,1.67.33,2.52.38.4.02.8.02,1.2,0,.54-.03.98-.14,1.44-.42.66-.4.55-1.47-.22-1.67-.42-.11-.79-.15-1.22-.12-.37.02-.75.02-1.13,0-.7-.03-1.31-.12-2-.3-1.4-.36-2.73-.88-3.93-1.69-.84-.56-1.86.74-1.09,1.41h0Z"/>
          <path class="cls-4" d="M189.2,117.74c.07-.03.14-.06.21-.09l-.3.13c.37-.16.75-.3,1.13-.42.19-.06.38-.11.57-.17.28-.09.49-.23.67-.45.03-.03.05-.06.08-.09.15-.18.21-.29.3-.5.13-.31-.02-.75-.26-.97-.19-.18-.41-.26-.64-.35-.29-.11-.58-.11-.88-.03-.21.05-.41.11-.61.17-.42.13-.83.28-1.24.45-.22.06-.4.17-.56.33l-.2.26c-.22.34-.22.77-.06,1.13.13.32.35.54.67.67.15.08.32.12.49.11.23,0,.44-.06.64-.17h0Z"/>
          <path class="cls-4" d="M186.07,140.01c-.71,1.58-1.07,3.31-.98,5.05s.45,3.54,1.17,5.15c.38.85.9,1.94,1.8,2.32.58.25,1.35.16,1.7-.43.37-.63.12-1.38-.31-1.91-1-1.24-2.05-2.47-2.4-4.08-.4-1.81-.19-3.77.48-5.49.33-.84-1.09-1.45-1.46-.62h0Z"/>
          <path class="cls-4" d="M191.79,154.66c.76,0,.76-1.18,0-1.18s-.76,1.18,0,1.18h0Z"/>
          <path class="cls-4" d="M214.22,135.11c-.23,1.29-.29,2.74.09,4.01.19.64.45,1.27.76,1.87.18.34.37.67.62.96s.56.44.9.59c.61.28,1.3-.18,1.14-.88-.08-.33-.13-.63-.28-.94-.13-.26-.3-.5-.44-.75s-.28-.51-.4-.77c-.03-.07-.06-.13-.09-.2.04.09.03.08-.02-.04-.05-.14-.1-.27-.15-.41-.37-1.09-.68-2.11-.71-3.25,0-.36-.27-.67-.63-.72-.33-.04-.74.16-.8.52h0Z"/>
          <path class="cls-4" d="M219.36,146.48l.31.21s.05.03.07.05c.13.08.21.1.33.12l.17.03c.16.04.32.04.48,0,.15-.04.28-.12.4-.23.11-.11.19-.24.23-.4.04-.16.04-.32,0-.48l-.03-.17v-.04s0-.01,0-.02h0c-.04-.1-.07-.18-.11-.27-.02-.03-.03-.05-.05-.08l-.21-.31c-.1-.17-.24-.31-.41-.41-.18-.1-.37-.16-.58-.16l-.31.04c-.2.05-.37.15-.51.3-.11.1-.19.23-.24.37-.07.14-.11.29-.1.44,0,.21.05.4.16.58.1.17.24.31.41.41h0Z"/>
          <path class="cls-4" d="M210.11,171.77c.45,1.79,1.17,3.59,2.93,4.45.83.41,1.76.74,2.65.97.62.16,1.34.33,1.97.17.58-.15,1.09-.42,1.55-.78.72-.57.31-1.9-.55-2.08-.36-.07-.71-.18-1.07-.26-.27-.06-.55-.06-.83-.08-.42-.03.2.05-.04,0-.09-.02-.18-.03-.26-.05-.75-.15-1.5-.36-2.21-.63-.07-.03-.15-.06-.22-.09-.03-.01-.28-.09-.1-.03.19.07-.11-.05-.15-.07-.07-.04-.14-.07-.21-.11-.03-.02-.3-.19-.16-.09.12.09-.07-.06-.09-.08-.13-.12-.25-.24-.37-.37-.06-.07-.1-.12-.02-.02-.06-.08-.12-.16-.17-.24-.09-.13-.17-.27-.25-.4-.19-.32-.36-.66-.52-.99-.23-.46-.85-.62-1.3-.42-.48.21-.73.71-.6,1.22h0Z"/>
          <path class="cls-4" d="M221.88,174.62l.24-.1s.05-.02.07-.03c.11-.07.21-.15.31-.23l.22-.29s.04-.06.06-.1l.21-.37c.09-.16.14-.34.14-.52,0-.14-.02-.28-.09-.4-.04-.13-.11-.24-.21-.33-.13-.13-.28-.22-.46-.27l-.41-.1s-.07-.02-.1-.02c-.25-.07-.51-.07-.76,0-.13.03-.25.08-.36.15-.02,0-.03.01-.05.02l-.26.11c-.17.09-.3.21-.4.37-.13.14-.21.3-.26.49-.06.19-.07.38-.03.57,0,.19.07.37.17.53l.22.29c.18.18.39.3.63.37l.38.05c.26,0,.5-.07.73-.2h0Z"/>
        </g>
      </g>
    </g>
  </g>
</svg>