<?xml version="1.0" encoding="UTF-8"?>
<svg id="Capa_2" xmlns="http://www.w3.org/2000/svg" viewBox="0 0 243.3 243.3">
  <defs>
    <style>
      .cls-1 {
        fill: #5a992f;
      }

      .cls-2 {
        fill: #fff;
      }

      .cls-3 {
        fill: none;
      }

      .cls-4 {
        fill: #4f3535;
      }

      .cls-5 {
        fill: #c0c728;
      }
    </style>
  </defs>
  <g id="grocery_icons">
    <g>
      <rect class="cls-3" width="243.3" height="243.3"/>
      <g>
        <path class="cls-5" d="M225.47,227.79c-.9-2.27-2.19-4.21-3.59-6.31-2.67-3.99-1.14-7.27-.26-11.98,1.5-7.94,2.88-15.86,3.74-23.9,1.83-17.04,2.04-34.21,1.03-51.31-2.01-33.92-8.57-72.34-14.44-105.73,1.48-1.86,7.67-11.82,7.56-12.89-.12-1.11-.93-1.97-2.03-2.18-13.08-2.61-38.32-2.99-51.59-2.94-14,.05-33.77-2.01-47.76-1.59-27.94.84-103.46,1.77-100.35,7.48,1.51,2.76,6.32,12.5,7.8,14.36-5.87,33.39-9.64,69.58-11.64,103.49-1.01,17.11-.79,34.26,1.03,51.31.86,8.04,2.25,15.96,3.74,23.9.87,4.65.12,8.11-2.48,11.98-.97,1.44-1.94,2.89-2.74,4.44-.97,1.86-1.75,3.84-.85,5.89.37.85.94,1.43,1.9,1.46,34.94.95,85.57-1.11,120.53-.88,13.37.09,26.72.51,40.08.94,12.12.39,37.23,1.37,49.21-.96,2.16-.42,2.37-3.28,1.1-4.59Z"/>
        <path class="cls-2" d="M203.47,130.88c-13.7-35.48-81.49-47.21-127.88-29.95-33.43,12.44-50.69,39.71-38.41,63.42,10.54,20.36,41.26,32.89,73.54,35.32,35.9,2.7,71.3-7.11,86.44-28.88,8.59-12.35,11.41-26.71,6.31-39.92Z"/>
        <path class="cls-4" d="M49.98,14.03c1.1,2.85,2.42,5.56,4.02,8.17.78,1.27,1.61,2.52,2.49,3.73s1.7,2.56,3,3.26c.21.11.51-.08.43-.33-.44-1.35-1.49-2.43-2.32-3.58-.87-1.21-1.7-2.46-2.47-3.74-1.54-2.54-2.93-5.21-4.16-7.93-.25-.55-1.21-.16-.99.42h0Z"/>
        <path class="cls-4" d="M65.56,14.27c.67,2,1.31,4,1.91,6.02s1.06,4.02,2.03,5.84c.14.27.6.15.59-.16-.1-2.07-.79-4.05-1.41-6.01-.64-2.01-1.3-4.01-2-6-.24-.69-1.35-.4-1.11.31h0Z"/>
        <path class="cls-4" d="M76.62,13.17c.52,2.79,1.08,5.56,1.68,8.33.29,1.33.59,2.66.9,3.99.27,1.16.39,2.99,1.39,3.77.22.17.6.21.75-.1.55-1.16-.08-2.67-.37-3.84-.33-1.37-.68-2.74-1.04-4.11-.73-2.79-1.5-5.56-2.31-8.32-.19-.65-1.13-.38-1,.28h0Z"/>
        <path class="cls-4" d="M100.39,14.31c.13,2.43.35,4.86.65,7.28.15,1.18.31,2.36.52,3.53.2,1.09.31,2.47,1.1,3.31.33.34.86.14,1-.26.35-1.01-.07-2.27-.25-3.28-.22-1.18-.45-2.35-.65-3.53-.4-2.34-.7-4.69-.92-7.05-.09-.92-1.5-.95-1.45,0h0Z"/>
        <path class="cls-4" d="M121.25,28c.12-2.73-.05-5.47-.2-8.2-.16-2.9-.26-5.88-.73-8.75-.06-.36-.67-.36-.73,0-.46,2.85-.19,5.88-.03,8.75s.33,5.47.21,8.2c-.04.95,1.43.95,1.47,0h0Z"/>
        <path class="cls-4" d="M128.61,10.98c.25,2.89.12,5.83.08,8.72s-.31,5.89.43,8.62c.15.54.9.4.94-.13.2-2.86.08-5.75.05-8.61s.03-5.76-.29-8.61c-.08-.76-1.28-.79-1.21,0h0Z"/>
        <path class="cls-4" d="M151.98,12.09c-.08,2.67-.1,5.34-.12,8.01-.01,1.34-.04,2.68-.04,4.02,0,1.2-.15,2.69.3,3.82.12.3.62.48.79.1.51-1.13.42-2.56.44-3.78.02-1.34,0-2.68-.02-4.01-.02-2.72-.05-5.44,0-8.16.01-.87-1.32-.86-1.34,0h0Z"/>
        <path class="cls-4" d="M164.8,11.53c-.79,3.14-1.42,6.32-1.94,9.52-.44,2.74-1.06,5.75-.54,8.51.04.23.41.28.52.07,1.18-2.53,1.32-5.54,1.71-8.28.45-3.16.96-6.31,1.64-9.43.19-.9-1.15-1.28-1.38-.38h0Z"/>
        <path class="cls-4" d="M196.23,12.63c-.59,2.63-1.27,5.23-1.85,7.86-.28,1.29-.59,2.58-.82,3.88-.19,1.08-.66,2.62-.11,3.64.15.28.49.26.7.09.47-.38.62-.98.81-1.53.22-.65.38-1.31.54-1.98.29-1.24.52-2.5.77-3.74.52-2.6.92-5.22,1.43-7.82.19-.95-1.25-1.36-1.46-.4h0Z"/>
        <path class="cls-4" d="M208.32,13.75c-.85,2.12-1.76,4.2-2.63,6.31-.82,2-2.06,4.08-2.03,6.3,0,.35.4.48.65.27,1.72-1.46,2.41-3.9,3.19-5.94.82-2.16,1.46-4.36,2.06-6.59.22-.82-.93-1.09-1.23-.34h0Z"/>
        <path class="cls-4" d="M27.45,217.64c-.46,1.21-.84,2.38-1.44,3.54-.65,1.25-1.3,2.49-1.96,3.74s-1.2,2.41-1.71,3.66c-.43,1.04-1.03,2.41-.67,3.55.09.3.45.31.61.08.7-.95.98-2.31,1.46-3.38.58-1.28,1.25-2.51,1.87-3.77s1.2-2.41,1.67-3.68c.41-1.13.91-2.41.9-3.63,0-.44-.58-.48-.72-.1h0Z"/>
        <path class="cls-4" d="M54.63,220.33c-.39,2.12-.75,4.25-1.11,6.37-.19,1.1-.35,2.2-.51,3.3-.14.98-.34,2.05-.05,3.02.11.36.55.38.75.1.55-.8.7-1.85.85-2.79.18-1.1.35-2.2.49-3.31.28-2.11.56-4.22.86-6.33.12-.82-1.12-1.2-1.28-.35h0Z"/>
        <path class="cls-4" d="M88.98,219.75c-.07,2.08-.16,4.15-.22,6.23-.03,1.04-.01,2.08-.02,3.11s-.01,2.05.35,3.02c.19.5.83.5,1.02,0,.37-.97.36-1.99.35-3.02s.01-2.08-.02-3.11c-.06-2.08-.15-4.15-.22-6.23-.03-.81-1.23-.81-1.26,0h0Z"/>
        <path class="cls-4" d="M103.46,219.75c.07,2.2.05,4.4.06,6.6s-.27,4.44.36,6.5c.16.52.82.46,1,0,.8-2,.59-4.38.52-6.5s-.32-4.41-.6-6.6c-.11-.83-1.37-.89-1.34,0h0Z"/>
        <path class="cls-4" d="M212.17,218.31c1.29,2.45,2.53,4.94,3.89,7.36.68,1.21,1.34,2.42,2.03,3.62.62,1.08,1.27,2.48,2.28,3.23.4.29,1.08-.1,1.03-.59-.14-1.26-1.02-2.52-1.65-3.61-.69-1.2-1.41-2.39-2.11-3.58-1.41-2.39-2.93-4.71-4.41-7.05-.42-.68-1.44-.08-1.07.62h0Z"/>
        <path class="cls-4" d="M204.09,220.67c.77,1.86,1.49,3.74,2.13,5.65.32.94.6,1.89.9,2.83.25.78.52,2.1,1.33,2.48.2.09.42.05.55-.14.49-.77,0-1.99-.25-2.78-.31-.98-.67-1.94-1.03-2.9-.72-1.91-1.51-3.8-2.36-5.66-.32-.71-1.57-.19-1.27.53h0Z"/>
        <path class="cls-4" d="M185.1,219.01c-.09,2.49-.06,4.99.21,7.47.25,2.27.3,5.07,1.83,6.87.21.25.65.11.73-.19.11-.45.22-.99.2-1.44-.03-.62-.15-1.27-.25-1.87-.2-1.16-.43-2.32-.6-3.48-.34-2.44-.61-4.89-.72-7.35-.04-.89-1.35-.9-1.39,0h0Z"/>
        <path class="cls-4" d="M172.79,220.35l.99,5.77.49,2.83c.15.86.22,2.03.94,2.63.25.21.64.21.82-.11.49-.85.14-1.99-.03-2.89l-.53-2.82c-.37-1.95-.74-3.9-1.11-5.85-.19-1.03-1.74-.59-1.57.43h0Z"/>
        <path class="cls-4" d="M153.34,221.23c.22,1.76.43,3.52.65,5.29.11.86.25,1.72.38,2.58s.15,1.86.81,2.52c.25.25.72.21.89-.11.23-.44.27-.77.23-1.26s-.13-.94-.2-1.41c-.13-.85-.26-1.7-.41-2.54-.33-1.75-.66-3.49-.99-5.24-.14-.75-1.44-.59-1.34.18h0Z"/>
        <path class="cls-4" d="M134.87,220.67c.53,2.22.9,4.47,1.07,6.74.09,1.11.13,2.22.16,3.33.03,1-.17,2.25.57,3.04.17.18.47.17.64,0,.78-.75.61-2.06.58-3.04-.04-1.19-.16-2.38-.32-3.56-.31-2.32-.81-4.6-1.47-6.85-.23-.79-1.43-.46-1.23.34h0Z"/>
        <path class="cls-4" d="M122.22,220.49c-.08,1.73-.15,3.46-.23,5.2-.04.87-.04,1.73-.04,2.6s.03,1.75.46,2.5c.22.39.81.39,1.03,0,.43-.75.46-1.64.46-2.5s0-1.73-.04-2.6c-.07-1.73-.15-3.46-.23-5.2-.04-.91-1.37-.91-1.41,0h0Z"/>
        <path class="cls-4" d="M27.57,35.58c22.94-2.89,45.96-4.64,69.07-5.17,25.08-.57,50.18-.5,75.24.82,6.44.34,12.86.81,19.28,1.41,3.01.28,6.03.59,9.03.93,1.39.16,2.77.35,4.16.5,1.58.17,2.96.04,4.52-.24,1.47-.27,1.76-2.6.42-3.25-1.25-.6-2.38-1.07-3.75-1.31-1.4-.25-2.84-.37-4.26-.53-2.61-.3-5.22-.58-7.83-.84-5.67-.56-11.35-1-17.04-1.42-12.29-.91-24.6-1.53-36.92-1.68-25.17-.31-50.32.54-75.4,2.75-12.39,1.09-24.76,2.43-36.97,4.82-1.78.35-1.4,3.44.43,3.21h0Z"/>
        <path class="cls-4" d="M218.67,213.3c-25.21,1.4-50.39,2.54-75.64,2.75-27.22.22-54.44.22-81.66-.5-7.02-.18-14.03-.46-21.04-.82-3.31-.17-6.61-.35-9.92-.56-3.31-.2-6.46-.57-9.73.14-1.86.41-1.5,2.86,0,3.43,2.78,1.05,5.64,1.14,8.59,1.32s5.92.36,8.88.52c6.11.33,12.23.58,18.35.84,13.37.58,26.75,1.01,40.14,1.08,27.22.14,54.41-.46,81.6-1.85,13.5-.69,27-1.5,40.43-3.09,2.03-.24,2.15-3.39,0-3.27h0Z"/>
        <g>
          <path class="cls-4" d="M72.72,62.75c-1.06,2.83-2.22,5.47-3.47,7.93-1.26,2.46-2.64,4.7-4.13,6.72-.44.62-.96.9-1.59.84-.5-.06-.89-.26-1.17-.61-.28-.34-.5-.67-.65-.98-.37-.78-.79-1.76-1.24-2.94-.45-1.18-.88-2.37-1.28-3.57-.4-1.2-.76-2.29-1.07-3.27-.31-.98-.53-1.64-.65-1.98-.19-.16-.4-.37-.65-.65-.25-.28-.45-.58-.61-.91-.16-.33-.23-.65-.23-.96s.14-.59.42-.84c.4-.19.79-.25,1.17-.19s.71.2,1.03.42c.31.22.59.48.84.79.25.31.45.61.61.89.25.72.53,1.53.84,2.45.31.92.63,1.87.96,2.85s.65,1.94.96,2.87c.31.93.61,1.77.89,2.52.56-.71,1.14-1.59,1.75-2.63s1.21-2.14,1.82-3.29c.61-1.15,1.19-2.32,1.75-3.52.56-1.2,1.07-2.32,1.54-3.38.19-.44.45-.81.79-1.12.34-.31.68-.44,1.03-.37.44.16.68.5.72,1.03.05.53-.07,1.17-.35,1.91Z"/>
          <path class="cls-4" d="M89.7,67.88c.12.31,0,.61-.37.91-.37.3-.96.49-1.77.58-1.4.19-2.83.38-4.29.58-1.46.2-2.95.41-4.48.63-.06,1.59-.06,3.17,0,4.76.71,0,1.58-.07,2.59-.21,1.01-.14,2.04-.32,3.1-.54,1.06-.22,2.08-.44,3.06-.68s1.81-.43,2.5-.58c.34-.09.7-.16,1.07-.21.37-.05.71-.05,1,0,.3.05.54.16.72.35.19.19.28.45.28.79,0,.09-.11.23-.33.42-.22.19-.49.38-.82.58-.33.2-.67.39-1.03.56-.36.17-.68.3-.96.4-1.93.62-3.82,1.16-5.69,1.61-1.87.45-3.68.69-5.46.72-1.03.03-1.8-.24-2.33-.82-.53-.58-.81-1.41-.84-2.5-.06-1.52-.06-3.06,0-4.62-.53-.31-.79-.75-.79-1.31.06-.59.34-1,.84-1.21.06-.9.11-1.81.14-2.73.03-.92.08-1.83.14-2.73-.34-.06-.65-.23-.91-.51-.26-.28-.4-.59-.4-.93,0-.28.06-.54.19-.77.12-.23.36-.41.7-.54.56-.12,1.24-.26,2.05-.42.81-.16,1.64-.29,2.5-.42.85-.12,1.68-.23,2.47-.33.79-.09,1.47-.16,2.03-.19.65-.06,1.28,0,1.89.19.61.19,1.17.54,1.7,1.07.12.44.04.76-.26.98-.3.22-.68.36-1.14.42-.47.06-1.03.13-1.68.21-.65.08-1.33.16-2.03.26-.7.09-1.4.18-2.1.26-.7.08-1.36.16-1.98.26,0,.06,0,.13.02.21.02.08.02.15.02.21-.06.81-.11,1.62-.14,2.43-.03.81-.06,1.62-.09,2.42,1.31-.22,2.64-.41,4.01-.58,1.37-.17,2.46-.29,3.27-.35.65-.06,1.29.02,1.91.23.62.22,1.18.59,1.68,1.12Z"/>
          <path class="cls-4" d="M103.13,67.13c-.16,0-.35-.02-.58-.07-.23-.05-.45-.12-.65-.23-.2-.11-.38-.25-.54-.42-.16-.17-.23-.35-.23-.54,0-.25.15-.55.44-.91.3-.36.79-.63,1.47-.82.93-.22,1.91-.35,2.94-.4,1.03-.05,2.05-.05,3.08,0,1.03.05,2.04.11,3.03.19.99.08,1.93.13,2.8.16.5,0,.82.09.98.28.16.19.23.4.23.65,0,.56-.25,1-.75,1.31-.5.31-1,.45-1.49.42-.53-.03-1.08-.05-1.66-.05h-1.8c0,.87.04,1.84.12,2.92.08,1.07.16,2.15.26,3.24s.19,2.13.3,3.12.21,1.83.3,2.52c.06.25,0,.47-.16.68-.17.2-.43.3-.77.3-.65,0-1.14-.4-1.45-1.21-.59-1.52-1.01-3.26-1.26-5.22-1.68,1.03-3.33,1.66-4.94,1.91-1.62.25-3.07.19-4.36-.16-1.29-.36-2.33-.98-3.12-1.87-.79-.89-1.19-1.97-1.19-3.24s.22-2.52.65-3.92c.44-1.4,1.06-2.75,1.87-4.06.81-1.31,1.76-2.5,2.87-3.57,1.1-1.07,2.34-1.89,3.71-2.45.47-.12.91-.15,1.33-.07.42.08.81.23,1.17.47.36.23.68.51.98.84.3.33.55.65.77.96.15.22.25.45.28.7.03.25-.06.48-.28.7-.47.34-.87.31-1.21-.09-.53-.65-.97-1.05-1.33-1.19-.36-.14-.85,0-1.47.4-.62.44-1.31,1.1-2.05,1.98-.75.89-1.44,1.87-2.08,2.94-.64,1.07-1.14,2.18-1.52,3.31-.37,1.13-.5,2.18-.37,3.15.09.84.56,1.44,1.4,1.8.84.36,1.8.52,2.87.49s2.15-.23,3.22-.61,1.9-.87,2.5-1.49c-.03-.53-.06-1.06-.09-1.61-.03-.54-.05-1.08-.05-1.61-.68.06-1.37.12-2.05.16-.68.05-1.38.12-2.1.21Z"/>
          <path class="cls-4" d="M126.4,67.13c-.16,0-.35-.02-.58-.07-.23-.05-.45-.12-.65-.23-.2-.11-.38-.25-.54-.42-.16-.17-.23-.35-.23-.54,0-.25.15-.55.44-.91.3-.36.79-.63,1.47-.82.93-.22,1.91-.35,2.94-.4,1.03-.05,2.05-.05,3.08,0,1.03.05,2.04.11,3.03.19.99.08,1.93.13,2.8.16.5,0,.82.09.98.28.16.19.23.4.23.65,0,.56-.25,1-.75,1.31-.5.31-1,.45-1.49.42-.53-.03-1.08-.05-1.66-.05h-1.8c0,.87.04,1.84.12,2.92.08,1.07.16,2.15.26,3.24s.19,2.13.3,3.12.21,1.83.3,2.52c.06.25,0,.47-.16.68-.17.2-.43.3-.77.3-.65,0-1.14-.4-1.45-1.21-.59-1.52-1.01-3.26-1.26-5.22-1.68,1.03-3.33,1.66-4.94,1.91-1.62.25-3.07.19-4.36-.16-1.29-.36-2.33-.98-3.12-1.87-.79-.89-1.19-1.97-1.19-3.24s.22-2.52.65-3.92c.44-1.4,1.06-2.75,1.87-4.06.81-1.31,1.76-2.5,2.87-3.57,1.1-1.07,2.34-1.89,3.71-2.45.47-.12.91-.15,1.33-.07.42.08.81.23,1.17.47.36.23.68.51.98.84.3.33.55.65.77.96.15.22.25.45.28.7.03.25-.06.48-.28.7-.47.34-.87.31-1.21-.09-.53-.65-.97-1.05-1.33-1.19-.36-.14-.85,0-1.47.4-.62.44-1.31,1.1-2.05,1.98-.75.89-1.44,1.87-2.08,2.94-.64,1.07-1.14,2.18-1.52,3.31-.37,1.13-.5,2.18-.37,3.15.09.84.56,1.44,1.4,1.8.84.36,1.8.52,2.87.49s2.15-.23,3.22-.61,1.9-.87,2.5-1.49c-.03-.53-.06-1.06-.09-1.61-.03-.54-.05-1.08-.05-1.61-.68.06-1.37.12-2.05.16-.68.05-1.38.12-2.1.21Z"/>
          <path class="cls-4" d="M147.11,75.48c.03.12.05.3.05.54s-.05.47-.14.7-.23.44-.4.61-.41.26-.72.26c-.68-.43-1.26-1.01-1.73-1.73-.25-.93-.47-2-.68-3.22s-.37-2.48-.49-3.8c-.12-1.32-.21-2.67-.26-4.03-.05-1.37-.05-2.69-.02-3.96,0-.22.02-.5.07-.84.05-.34.13-.68.26-1,.12-.33.28-.61.47-.84s.45-.35.79-.35c.4,0,.73.12.98.37.25.25.37.65.37,1.21-.03,1.24-.02,2.57.02,3.99.05,1.42.13,2.84.26,4.27.12,1.43.29,2.82.49,4.17.2,1.35.43,2.57.68,3.66Z"/>
          <path class="cls-4" d="M165.16,67.88c.12.31,0,.61-.37.91-.37.3-.96.49-1.77.58-1.4.19-2.83.38-4.29.58-1.46.2-2.95.41-4.48.63-.06,1.59-.06,3.17,0,4.76.71,0,1.58-.07,2.59-.21,1.01-.14,2.04-.32,3.1-.54,1.06-.22,2.08-.44,3.06-.68s1.81-.43,2.5-.58c.34-.09.7-.16,1.07-.21.37-.05.71-.05,1,0,.3.05.54.16.72.35.19.19.28.45.28.79,0,.09-.11.23-.33.42-.22.19-.49.38-.82.58-.33.2-.67.39-1.03.56-.36.17-.68.3-.96.4-1.93.62-3.82,1.16-5.69,1.61-1.87.45-3.68.69-5.46.72-1.03.03-1.8-.24-2.33-.82-.53-.58-.81-1.41-.84-2.5-.06-1.52-.06-3.06,0-4.62-.53-.31-.79-.75-.79-1.31.06-.59.34-1,.84-1.21.06-.9.11-1.81.14-2.73.03-.92.08-1.83.14-2.73-.34-.06-.65-.23-.91-.51-.26-.28-.4-.59-.4-.93,0-.28.06-.54.19-.77.12-.23.36-.41.7-.54.56-.12,1.24-.26,2.05-.42.81-.16,1.64-.29,2.5-.42.85-.12,1.68-.23,2.47-.33.79-.09,1.47-.16,2.03-.19.65-.06,1.28,0,1.89.19.61.19,1.17.54,1.7,1.07.12.44.04.76-.26.98-.3.22-.68.36-1.14.42-.47.06-1.03.13-1.68.21-.65.08-1.33.16-2.03.26-.7.09-1.4.18-2.1.26-.7.08-1.36.16-1.98.26,0,.06,0,.13.02.21.02.08.02.15.02.21-.06.81-.11,1.62-.14,2.43-.03.81-.06,1.62-.09,2.42,1.31-.22,2.64-.41,4.01-.58,1.37-.17,2.46-.29,3.27-.35.65-.06,1.29.02,1.91.23.62.22,1.18.59,1.68,1.12Z"/>
          <path class="cls-4" d="M182.89,59.58c-.12.16-.35.27-.68.35-.33.08-.66,0-1-.26-.25-.19-.54-.38-.89-.58-.34-.2-.72-.4-1.12-.58-.4-.19-.81-.34-1.21-.47-.4-.12-.79-.19-1.17-.19-.47,0-.96.11-1.47.33-.51.22-.96.53-1.33.93-.72.78-.97,1.53-.77,2.26.2.73.74,1.41,1.61,2.03.56.4,1.17.82,1.82,1.24.65.42,1.3.83,1.94,1.24.64.4,1.24.79,1.82,1.17.58.37,1.08.7,1.52.98.56.37,1.09.78,1.59,1.21.5.44.93.93,1.31,1.47s.67,1.16.89,1.84c.22.68.33,1.46.33,2.33-.22,1.71-.89,3.07-2.03,4.08-1.14,1.01-2.45,1.66-3.94,1.94-1.31.25-2.59.2-3.85-.14-1.26-.34-2.32-.99-3.19-1.96-.22-.25-.4-.59-.56-1.03-.16-.44-.17-.75-.05-.93.19-.28.51-.47.98-.58.47-.11.82-.08,1.07.07.71.65,1.55,1.13,2.52,1.42.96.3,1.97.32,3.03.07.81-.19,1.46-.54,1.96-1.05.5-.51.81-1.1.93-1.75.15-.68.07-1.39-.26-2.12-.33-.73-.91-1.39-1.75-1.98-1.28-.96-2.64-1.87-4.08-2.71-1.45-.84-2.92-1.8-4.41-2.89-.72-.62-1.24-1.31-1.56-2.05-.33-.75-.49-1.48-.49-2.19s.16-1.45.47-2.12c.31-.67.75-1.27,1.31-1.82.56-.54,1.21-.99,1.96-1.33.75-.34,1.57-.54,2.47-.61,1.24-.06,2.44.2,3.59.77,1.15.58,2.08,1.28,2.8,2.12.16.19.23.42.21.7-.02.28-.12.54-.3.79Z"/>
        </g>
        <path class="cls-4" d="M33.92,14.67c1.22,3.08,2.75,6.02,4.11,9.04.68,1.51,1.34,3.04,1.99,4.56.58,1.37,1.08,3.36,2.25,4.33.31.26.72.08.76-.31.15-1.47-.89-3.19-1.47-4.52-.66-1.52-1.35-3.03-2.05-4.53-1.42-3.04-2.81-6.15-4.62-8.98-.31-.48-1.2-.18-.97.41h0Z"/>
        <path class="cls-4" d="M42.02,219.43c-.58,2.15-1.21,4.29-1.78,6.45-.26,1-.54,2-.83,2.99-.32,1.08-.85,2.29-.58,3.43.08.36.55.45.8.21.83-.77,1.05-2.06,1.34-3.11s.56-2.06.82-3.1c.54-2.17.87-4.39,1.25-6.6.11-.65-.83-.94-1-.28h0Z"/>
        <path class="cls-4" d="M29.3,82.9c.98-.3,1.98-.55,3-.71.13-.02.26-.04.39-.06.09-.01.43-.11.04,0,.24-.06.53-.06.78-.08.35-.04.72-.11,1.06-.21.37-.11.7-.39.97-.66.26-.26.36-.6.31-.95-.05-.38-.25-.6-.54-.83-.34-.26-.7-.42-1.13-.45-.37-.03-.72-.01-1.08.04-.52.08-1.03.17-1.54.28-1.02.22-2.02.52-3.01.89-.7.26-1.25.98-1,1.76.23.72,1,1.24,1.76,1h0Z"/>
        <path class="cls-4" d="M29.9,92.39c.3-.1.61-.19.92-.26.16-.03.31-.07.47-.09.07-.01.13-.03.2-.03-.25.02,0,0,.06,0,.31-.03.61-.03.92-.05.16-.01.32,0,.48-.02.2-.01.4-.07.59-.11.58-.13.68-.99.17-1.27-.18-.1-.37-.21-.57-.25-.22-.05-.44-.07-.66-.1-.31-.04-.64-.03-.96,0-.72.04-1.44.16-2.12.36-.48.14-.83.68-.67,1.17.15.47.67.84,1.17.67h0Z"/>
        <path class="cls-4" d="M201.41,53.75c1.24-.03,2.47-.16,3.7-.33.55-.08,1.06-.24,1.58-.42.21-.07.42-.14.61-.24.21-.11.39-.29.57-.44.24-.19.49-.36.62-.64.28-.57.11-1.11-.39-1.48-.24-.17-.54-.21-.82-.29-.34-.09-.68-.15-1.03-.14-.65.03-1.28.06-1.92.15l.48-.06c-1.13.15-2.26.24-3.4.26-.95.02-1.87.83-1.82,1.82s.8,1.85,1.82,1.82h0Z"/>
        <path class="cls-4" d="M205.86,67.84c.48-.01.95,0,1.43.03.19.01.53-.01.71.07-.22-.03-.25-.03-.09-.01.05,0,.1.02.15.02.12.02.23.04.35.06.56.11,1.09.26,1.67.27.45,0,.89.07,1.34.04.81-.05,1.17-.95.64-1.56-.36-.41-.84-.72-1.3-1.02-.5-.32-1.06-.45-1.63-.57-1.08-.22-2.18-.34-3.28-.33-.78,0-1.53.68-1.5,1.5s.66,1.52,1.5,1.5h0Z"/>
        <g>
          <path class="cls-5" d="M81.46,162.63s5.67,2.91,9.27,5.36c3.6,2.46,5.49,5.86,5.49,5.86,0,0-.75-4.11-.03-9.19s.79-7.76.79-7.76c0,0,10.28-2.94,10.07-2.63s.22,9.11,2.24,17.22c2.02,8.12,5.06,12.92,4.94,14.19s-17.89,8.73-19.11,8.47c-1.22-.26-4.54-10.15-10.11-15.42-5.57-5.27-16.47-12.38-16.46-13.94s12.93-2.18,12.93-2.18Z"/>
          <path class="cls-1" d="M74.61,114.01s2.71-15.23,12.35-16.01c10-.81,12.53,13.28,12.53,13.28,0,0,5.86-6.52,11.49-2.68,6.4,4.37.51,11.86.51,11.86,0,0,10.71-7.11,16.38,2.55,4.7,8.02-6.96,14.38-6.96,14.38,0,0,10.05,5.48,5.15,13.66-6.16,10.27-15.9,3-15.9,3,0,0-.9,7.26-9.07,8.63s-16.77-7.38-21.09-12.3c-4.31-4.92-5.41-36.38-5.41-36.38Z"/>
          <path class="cls-1" d="M101.69,121.9c-2.28-3.06-6.36-3.74-11.57-2.19.99-3.72.9-9.34-2.76-11.09-3.2-1.53-6.65,1.78-7.81,4.73-3.89-6.12-13.55-9.36-19.86-5.74-6.71,3.84-8.01,13.1-5.22,19.97-5.03-.78-11.22.29-14.19,4.64-2.61,3.81-1.61,10.48,1.57,14.15-4.88,2.01-9.62,6.85-8.12,12.31,1.19,4.32,6.86,5.7,10.85,5.04-1.93,3.49-3.17,9-.12,12.1,3.61,3.67,9.81,1.51,13.17-2.02,1.7,3.81,5.49,8.73,9.7,7.4,2.31-.73,4-2.07,4.71-5.17s-1.23-5.38-1.8-7.49c4.27,2.05,11.18,2.09,14.34-1.41,2.81-3.11,2.29-10.14.03-14.02,4.44.51,10.81.24,13.19-3.74,2.39-3.99,1.16-9.14-2.87-12.63,5.99-1.55,10.51-9.8,6.76-14.83Z"/>
          <path class="cls-2" d="M53.86,143.76c-2.69.23-5.06,2.31-5.3,5.07-.2,2.26,1.43,5.66,4.01,5.73.43.01.67-.49.31-.78-1.59-1.29-3.31-2.25-3.19-4.64.11-2.34,2.06-4.05,4.32-4.24.73-.06.58-1.19-.15-1.13h0Z"/>
          <path class="cls-2" d="M62.42,164.13c-1.17-.9-1.12-2.2-.73-3.48.16-.52-.44-.85-.81-.45-1.26,1.38-.4,3.75,1.01,4.64.48.3.99-.36.53-.71h0Z"/>
          <path class="cls-2" d="M69.81,138.79c-.25-.96.68-1.58,1.49-1.72.82-.14.96.06,1.76.05.49,0,.65-.7.22-.93-1.17-.62-2.23-.61-3.4.12-.98.61-1.52,1.71-1.2,2.84.21.74,1.34.39,1.14-.35h0Z"/>
          <path class="cls-2" d="M68.11,125.31c1.3-3.44,4.76-3.56,7.45-1.74.4.27.86-.21.58-.6-2.52-3.52-7.74-1.67-8.97,1.96-.21.61.71.99.94.38h0Z"/>
          <path class="cls-2" d="M107.38,144.1c1.39-1.88,3.72-1.31,5.53-.18.39.24.65-.32.44-.64-1.68-2.56-5.26-1.75-6.73.21-.36.48.41,1.1.76.62h0Z"/>
          <path class="cls-2" d="M111.86,127.31c.69-.27,1.42-.16,2.04.22.58.36.92.9,1.31,1.45.27.38.77.06.76-.33-.04-2.12-2.87-2.87-4.51-2.28-.61.22-.21,1.17.4.93h0Z"/>
          <path class="cls-2" d="M78.96,151.51c.08-1.31,1.44-1.86,2.53-1.31.42.21.74-.42.39-.7-1.68-1.34-3.88-.17-4.13,1.85-.09.78,1.16.93,1.2.15h0Z"/>
          <g>
            <path class="cls-4" d="M79.04,113.97c.24.4.86.22,1.01-.15,1.07-2.56,4.77-6.42,7.81-4.08,2.41,1.85,2.12,5.59,2.05,8.23-.01.47.61.71.85.22,1.62-3.24,1.38-9.03-2.75-10.69-3.35-1.35-7.42,1.65-8.59,4.9-1.31-1.93-2.94-3.61-4.98-4.8-.48-.28-.98.34-.53.71,2.04,1.65,3.76,3.41,5.12,5.66Z"/>
            <path class="cls-4" d="M90.55,119.23c0-.05-.01-.1-.02-.15-.05-.39-.62-.38-.68,0-.04.23-.07.47-.11.7-.04.28.23.55.51.5,4.46-.81,10.65-.32,11.7,5.19.9,4.67-2.85,8.31-6.45,10.54-.42.26-.29.86.02,1.12,3.48,2.95,4.4,8,1.53,11.73-2.65,3.44-8.15,4.14-12.22,3.99-.62-.02-1.06.63-.66,1.17,1.75,2.33,2.47,5.28,1.79,8.14-.46,1.95-1.46,3.32-2.7,4.62-1.12,1-2.48,1.75-3.96,2.18-2.78.81-6.67.94-8.99-1.04-.53-.45-1.35.37-.86.89,4.92,5.16,14.22,2.61,17.41-3.12,2.72-4.88-.07-11.23-.73-11.27,4.76.72,10.77-.79,13.21-4.87,2.43-4.06,1.53-10.05-2.24-12.89,4.05-2.67,8.25-6.47,6.7-12.34-1.43-5.45-8.44-6.68-13.24-5.11Z"/>
          </g>
          <path class="cls-4" d="M92.73,161.82c3.82,1.75,7.87,2.82,11.82.96,3.18-1.49,5.81-4.98,6.37-8.52.1-.64-.87-.89-1.1-.29-1.23,3.22-3.06,5.79-6.38,7.12-3.15,1.27-7.23,1.11-10.24-.46-.72-.38-1.23.84-.48,1.18h0Z"/>
        </g>
        <g>
          <path class="cls-1" d="M144.97,189.67s-1.29-6.67-1.22-13.88c.06-7.22.13-14.43,1.83-17.6s7.71-5.06,12.23-10.07,5.6-7.11,3.07-15.49c-2.53-8.38-5.76-22.72-12.3-23.54-6.54-.82-17.39,12.7-17.4,22.15,0,9.45,3.94,17.19,6.31,19.83,2.37,2.64,5.06,3.87,5.18,6.01.12,2.14-2.37,10.65-2.69,17.27s.87,13.22,1.81,14.99,3.86,2.47,3.18.34Z"/>
          <path class="cls-1" d="M165.49,162.35s1.46-4.17.27-15.98c-1.19-11.81.77-22.47,9.95-28.82,9.17-6.35,20.99-5.62,26.36,3.96s-1.69,22.22-9.88,30.65c-8.18,8.43-14.67,8.88-20.28,13.11-5.61,4.23-12.55,12.45-17.82,17.74-5.27,5.29-9.17,8.27-10.05,7.78s-1.07-2.54-.11-3.5c.96-.96,6.7-5.37,13.73-13.52,7.03-8.15,7.84-11.41,7.84-11.41Z"/>
          <g>
            <path class="cls-4" d="M145.77,154.53c.19-.98.3-2.51.41-3.51.11-5.47.06-10.41.25-15.87.1-3.02.28-6.03.61-9.03.33-2.99,1.12-5.94,1.36-8.92.06-.68-.92-.9-1.16-.26-2.01,5.22-2.04,11.68-2.27,17.22-.26,6.21-.18,12.42-.26,18.64-.05,3.48.83,2.94,1.06,1.74Z"/>
            <path class="cls-4" d="M142.11,117.19c-.25,2.66.83,5.43,2.33,7.6.26.37.79-.01.64-.4-.93-2.39-2.27-4.45-2.11-7.13.03-.56-.81-.64-.86-.08h0Z"/>
            <path class="cls-4" d="M153.92,125.83c-.81,1.88-1.85,3.67-3.1,5.3-1.12,1.46-2.62,2.47-3.85,3.81-.25.27.14.68.44.54,3.54-1.69,6.06-5.77,7.44-9.31.23-.59-.68-.92-.93-.34h0Z"/>
            <path class="cls-4" d="M138.11,129.58c1.13,3.46,4.12,7.28,6.96,9.51.26.2.71-.13.52-.43-1.99-3.27-5.3-5.81-6.65-9.46-.21-.56-1.01-.17-.84.38h0Z"/>
            <path class="cls-4" d="M156.62,136.15c-2.81,3.85-6.05,7.01-9.59,10.17-.3.27,0,.86.39.63,4.11-2.47,7.52-6.15,10.1-10.16.39-.6-.48-1.22-.91-.64h0Z"/>
            <path class="cls-4" d="M138.5,143.1c.33,1.25,1.47,2.6,2.85,2.67.46.02.8-.65.34-.92-.99-.57-1.72-.96-2.26-2.03-.24-.47-1.07-.28-.92.28h0Z"/>
            <path class="cls-4" d="M189.45,119.45c-2.65,8.03-5.12,16.07-8.78,23.72-1.88,3.92-3.96,7.76-6.38,11.38-2.38,3.55-5.2,6.7-7.88,10.02-.33.41.28.98.68.63,6.29-5.43,11.01-13.28,14.62-20.68,3.84-7.87,6.87-16.29,8.66-24.86.11-.53-.75-.71-.92-.2h0Z"/>
            <path class="cls-4" d="M184.39,137.93c4.41-1.86,9.97-4.52,12.31-8.95.22-.41-.28-1.06-.68-.63-1.63,1.73-3.19,3.41-5.19,4.74-2.2,1.47-4.59,2.54-6.93,3.78-.66.35-.22,1.36.48,1.07h0Z"/>
            <path class="cls-4" d="M178.99,122.03c1.33,3.1,2.33,6.34,2.75,9.69.43,3.42-.09,6.67-.07,10.07,0,.46.66.67.83.19,2.27-6.44.3-14.46-2.55-20.38-.29-.61-1.23-.19-.96.43h0Z"/>
            <path class="cls-4" d="M177.25,154.96c5.31-2.08,11.36-5.4,14.66-10.22.26-.38-.23-.86-.6-.56-2.18,1.8-4.09,3.86-6.39,5.55-2.49,1.83-5.18,3.28-8.02,4.46-.51.21-.16.97.35.77h0Z"/>
            <path class="cls-4" d="M170.69,133.41c1.47,2.8,2.96,5.62,4.09,8.58,1.25,3.25,1.46,6.31,1.93,9.7.09.64.94.52,1.05-.04,1.26-6.31-2.99-13.53-6.15-18.65-.33-.54-1.23-.18-.92.42h0Z"/>
          </g>
        </g>
      </g>
    </g>
  </g>
</svg>