<?xml version="1.0" encoding="UTF-8"?>
<svg id="Capa_2" data-name="Capa 2" xmlns="http://www.w3.org/2000/svg" viewBox="0 0 200 200">
  <defs>
    <style>
      .cls-1 {
        fill: none;
      }

      .cls-1, .cls-2, .cls-3, .cls-4, .cls-5, .cls-6, .cls-7, .cls-8 {
        stroke-width: 0px;
      }

      .cls-2 {
        fill: #fff;
      }

      .cls-3 {
        fill: #f38c31;
      }

      .cls-4 {
        fill: #593737;
      }

      .cls-5 {
        fill: #8b7373;
      }

      .cls-6 {
        fill: #f7ae6f;
      }

      .cls-7 {
        fill: #b4a5a5;
      }

      .cls-8 {
        fill: #f9db87;
      }
    </style>
  </defs>
  <g id="colorful_icons" data-name="colorful icons">
    <g>
      <g>
        <path class="cls-8" d="m37.88,124.29s7.16-6.71,13.65-4.7c6.49,2.01,15.89,9.62,24.39,8.5,8.5-1.12,16.56-11.63,28.64-11.19,12.08.45,27.52,12.08,34.9,11.63,7.38-.45,12.53-6.71,16.11-7.38s4.92,0,4.92,0c0,0,2.46,35.13-.67,41.84-3.13,6.71-5.82,10.74-17.9,12.08s-88.6,2.68-95.09-2.46-7.16-7.16-8.5-17.45c-1.34-10.29-.45-30.88-.45-30.88Z"/>
        <g>
          <g>
            <path class="cls-4" d="m62.37,36.61l5,10.3,10-4.86-5-10.3s-10.12,4.82-10,4.86Z"/>
            <path class="cls-5" d="m71.93,22.12c-5.94,2.01-11.62,4.76-16.87,8.2-4.73,3.09-5.29,4.36-4.51,5.77.78,1.41,2.65,5.87,6.04,6.12,2.91.21,22.11-9.12,23.75-11.54,1.9-2.81-.45-7.04-1.08-8.52s-1.97-1.82-7.33-.02Z"/>
          </g>
          <g>
            <path class="cls-7" d="m128.99,34.76s-10.82-4.68-27.73-1.94c-6.25,1.02-12.37,2.84-18.33,4.94-12.04,4.25-23.4,10.67-33.41,18.68-1.42,1.14-2.81,2.31-4.14,3.54-12.61,11.6-15.61,23-15.61,23,3.43-1.74,6.87-3.49,10.3-5.23,6.94-3.52,77.21-37.55,84.6-40.98,1.44-.67,2.89-1.34,4.33-2.01Z"/>
            <path class="cls-4" d="m130.72,31.83c-2.59.16-9.31,4.03-9.31,4.03l-40.13,19.5-5.85,2.84-40.13,19.5s-7.19,2.9-8.92,4.83c-1.73,1.93-.53,6.23,2.9,5.15,2.95-.92,101.16-48.65,103.71-50.4,2.96-2.04.33-5.63-2.26-5.46Z"/>
          </g>
          <path class="cls-2" d="m55.44,36.37l.38-.25.19-.12s.06-.04.09-.06c.09-.06.19-.12.28-.18.12-.1.2-.21.26-.35.04-.05.06-.1.07-.15.06-.19.08-.38.04-.57-.02-.16-.08-.29-.18-.41-.07-.13-.17-.24-.3-.32-.16-.11-.34-.17-.54-.19-.18-.03-.3,0-.46.06-.1.02-.19.06-.27.13-.05.03-.09.06-.14.09-.03.02-.06.04-.09.07l-.19.14-.36.27c-.11.09-.2.21-.25.34-.07.12-.11.26-.12.41l.02.29c.02.15.08.29.18.41.04.09.11.16.19.22.1.1.22.18.36.22l.28.06c.2.02.39-.02.57-.11h0Z"/>
          <path class="cls-2" d="m59.67,33.24l.19-.13c.06-.04.12-.08.18-.12.08-.07.15-.18.22-.27l.12-.16c.2-.28-.01-.72-.36-.73h-.2c-.11-.01-.24-.03-.35,0-.07.02-.14.04-.21.07l-.21.07c-.13.03-.25.08-.35.17-.1.09-.17.19-.21.31-.06.19-.05.38.03.56.08.17.24.31.42.38.12.04.25.05.37.03.13-.03.25-.08.35-.17h0Z"/>
        </g>
        <g>
          <path class="cls-4" d="m160.69,102.93c.25-.08,9.15-5.12,16.03-3.52s9.96,7.66,6.29,14.1-9.06,8.14-13.17,9.73-9.15,3.52-9.15,3.52l.08-10.99s9.15-2.27,13.93-5.79c4.18-3.08,1.76-5.45-1.59-5.29s-12.42,4.11-12.42,4.11v-5.87Z"/>
          <path class="cls-4" d="m37.57,102.93c-.25-.08-9.15-5.12-16.03-3.52-6.88,1.59-9.96,7.66-6.29,14.1s9.06,8.14,13.17,9.73,9.15,3.52,9.15,3.52l-.08-10.99s-9.15-2.27-13.93-5.79c-4.18-3.08-1.76-5.45,1.59-5.29s12.42,4.11,12.42,4.11v-5.87Z"/>
          <path class="cls-4" d="m162.69,125.29c-.1-4.65-.33-9.3-.48-13.95s-.62-16.17-.83-16.57c0-.01,0-.02-.02-.04-.01-.02-.03-.03-.04-.04-.13-.2-123.75-.9-123.84-.2-1.75,13.4-1.36,52.28-1.23,58.15.1,4.36.28,9.1,1.82,13.24,1.76,4.71,5.26,8.41,9.96,10.25,4.27,1.67,9.13,1.97,13.66,2.29,4.98.35,9.95.34,14.94.32,7.86-.03,38.41-.05,43.06-.02,9.25.07,18.76.33,27.85-1.65,4.45-.97,9.03-3.53,11.38-7.57,2.52-4.33,3.24-9.3,3.46-14.23.44-9.97.52-19.99.31-29.99Zm-4.55,33.1c-1.43,5.86-5.34,10.18-10.79,12.65-1.91.87-3.9,1.37-5.94,1.66-1.62.1-3.25.13-4.85.16-5.13.1-10.28.06-15.41.07-10.22.01-20.43,0-30.65.02-10.19.01-20.4.15-30.59-.18-1.31-.04-2.64-.11-3.96-.23-.24-.05-.48-.1-.71-.15-5.27-1.23-10.35-4.61-12.95-9.42-1.97-3.65-2.49-7.78-2.54-11.87-.05-4.12.03-8.24.03-12.37.01-6.42,0-12.85,0-19.27,0-3.91-.06-7.82-.1-11.73-.03-3.45.3-7.22.02-10.9,7.9.35,15.52.48,23.43.5,5.97.02,68.51.18,72.18.18h20.63c.78,0,1.83.04,2.75,0-.19,4.68.3,15.97.27,19.03-.08,9.14-.29,18.42.09,27.58.2,4.77.24,9.62-.92,14.28Z"/>
        </g>
        <path class="cls-4" d="m177.12,58.62c-6.19-1.61-12.52-2.59-18.89-3.1-1.87-.15-3.75-.29-5.62-.29-9.68-.28-19.42.61-28.76,2.47-2.64.53-8.71,2.16-7.25,6.14.67,1.83,2.86,3.31,4.48,4.19,1.88,1.03,4,1.74,6.14,1.37.66-.11.51-1,0-1.19-1.72-.64-3.5-1-5.12-1.93-1.17-.67-4.18-2.51-3.22-4.11.73-1.2,2.73-1.67,4-1.94,2-.42,4.02-.76,6.04-1.05,6.38-.91,12.86-1.08,19.29-.75,6.38.33,12.77,1.11,19.06,2.2,2.05.35,4.09.75,6.13,1.2,2.24.49,4.5,1.05,6.62,1.94,1.58.66,3.78,1.65,4.39,3.42.86,2.52-7.13,4.19-8.86,4.63-2.37.6-4.75.96-7.14,1.11-.02-1.49.11-2.98.34-4.41.1-.63-.24-1.63-1.21-1-3.19,2.06-6.16,3-9.28,4.32-.48.2-.69,1.03-.38,1.44,2.59,3.39,6.66,6.05,11,6.39.61.05.77-.31.55-.89-.42-1.11-.7-2.28-.86-3.48,2.59-.09,5.17-.37,7.7-.85,2.32-.44,4.61-1.13,6.83-1.94,1.75-.64,3.58-1.41,4.53-3.13,3.4-6.16-6.34-9.67-10.51-10.76Z"/>
        <g>
          <path class="cls-6" d="m162.77,36.79c-6.29,2.01-13.17,12-16.78,19.22-3.6,7.21-10.98,24.75-15.01,31.88-4.03,7.14-9.82,14.77-14.35,17.29s-14.6,7.13-19.05,11.83c-.33.35-.68.75-1.06,1.18-4.41,5.16-10.42,14.99-12.2,20.89-1.92,6.37-.58,9.22,3.19,14.35,3.78,5.11,9.23,10.9,15.53,8.56,6.29-2.36,13.01-11.41,16.11-19.22,1.92-4.85,4.1-11.98,6.21-18.97,1.94-6.41,3.84-12.73,5.45-17.03,3.35-8.97,8.62-18.39,11.83-22.15,12.84-15.01,26.93-29.11,27.18-41.03.13-6.37-2.57-8.23-7.05-6.8Zm-51.58,99.09c-.59,1.34-1.54,2.65-2.84,3.38-2.15,1.21-4.94.6-6.48-1.31-.86-1.07-1.28-2.39-1.22-3.77.07-1.56.67-2.91,1.65-4.12.76-.94,1.69-1.92,2.8-2.47.48-.43,1.28-.62,1.87-.64.78-.03,1.61.24,2.3.59,1.33.68,2.32,2.03,2.6,3.49.31,1.64,0,3.32-.67,4.83Zm52.98-89.71s-.04.08-.06.12c0,.41-.23.76-.48,1.07-.21.27-.48.49-.76.69-.27.2-.58.37-.92.44-.05.02-.1.02-.15.02-.1.04-.2.08-.31.1-.27.06-.53.06-.79-.01-.03,0-.07-.01-.11-.01-.04-.01-.08-.01-.13-.03h-.01c-.14-.04-.28-.12-.36-.21-.09-.1-.16-.22-.21-.36-.03-.1-.03-.22-.01-.34-.07-.14-.11-.29-.12-.45-.02-.26.05-.55.13-.81.12-.36.34-.69.57-1,.29-.38.59-.77.97-1.08.4-.33.89-.67,1.43-.66.04,0,.07.02.11.02.24-.01.49.03.69.15.3.18.48.45.6.77.19.49.1,1.11-.09,1.58Z"/>
          <path class="cls-3" d="m104.56,116.91c-2.89-.11-5.55.41-8.03,1.28-4.41,5.16-10.42,14.99-12.2,20.89-1.92,6.37-.58,9.22,3.19,14.35,3.78,5.11,9.23,10.9,15.53,8.56,6.29-2.36,13.01-11.41,16.11-19.22,1.92-4.85,4.1-11.98,6.21-18.97-6.71-3.11-14.25-6.64-20.8-6.89Zm6.63,18.98c-.59,1.34-1.54,2.65-2.84,3.38-2.15,1.21-4.94.6-6.48-1.31-.86-1.07-1.28-2.39-1.22-3.77.07-1.56.67-2.91,1.65-4.12.76-.94,1.69-1.92,2.8-2.47.48-.43,1.28-.62,1.87-.64.78-.03,1.61.24,2.3.59,1.33.68,2.32,2.03,2.6,3.49.31,1.64,0,3.32-.67,4.83Z"/>
          <path class="cls-4" d="m104.93,125.97c-2.47,1.2-4.74,3.65-5.65,6.26-.89,2.53-.37,5.67,1.75,7.31,1.63,1.26,4.04,1.45,5.99.95,3.43-.89,6.23-4.39,6.62-7.87.18-1.54-.15-3.12-1.2-4.59-1.67-2.35-4.89-3.31-7.51-2.04Zm6.05,7.97c-.13.9-.4,1.77-.82,2.57-.89,1.71-2.13,2.75-4.11,2.85-2.06.11-3.83-1.09-4.66-2.95-.73-1.63-.69-3.59.39-5.05.82-1.11,2.01-2.17,3.28-2.74,1.61-.72,3.35-.43,4.56.87,1.13,1.22,1.6,2.81,1.36,4.45Z"/>
          <path class="cls-4" d="m162.55,42.19c-1.41-.2-2.78.85-3.56,1.93-.87,1.2-1.17,3.1.06,4.19,1.11.99,2.89.81,4.05.02,1.06-.73,1.9-2.01,1.88-3.34-.02-1.38-1.06-2.61-2.43-2.8Zm1.14,4.44c-.44.96-1.27,1.82-2.38,1.88-.19.01-.36-.02-.52-.06-.11-.29-.33-.56-.39-.9-.13-.79.22-1.74.75-2.33.55-.62,1.32-.98,2.14-1.05.16-.01.32-.02.47-.01.44.76.27,1.72-.07,2.48Z"/>
        </g>
        <path class="cls-2" d="m136.14,140.57c-.57-.05-1.17.13-1.54.59-.56.7-.92,1.93-.53,2.77.52,1.11,2.06,1.6,3.11.94,1.14-.72,1.21-2.23.51-3.26-.39-.58-.84-.99-1.57-1.05Zm.44,3.26c-.5.36-1.28.19-1.59-.34-.19-.32-.23-.8.09-1.05.49-.39,1.75-.41,1.92.35.08.38-.11.82-.42,1.04Z"/>
        <path class="cls-2" d="m73.5,144.24c-.93.17-1.95.99-1.84,2.04.11,1.02,1.08,2.05,2.11,2.15,1.24.13,2.15-1.01,2.16-2.18.01-1.33-1.15-2.24-2.44-2.01Zm.4,3.01c-.47.06-1.06-.29-.85-.83.22-.57,1.29-1.03,1.45-.18.08.42-.14.95-.6,1.01Z"/>
        <path class="cls-2" d="m79.83,137.36c.22.11.46.21.71.23.33.03.62-.12.86-.34.42-.4.64-1.02.64-1.59.02-1.13-1.01-1.89-2.09-1.51-.59.21-1.02.75-1.14,1.37-.07.38-.07.8.12,1.14.19.33.56.55.89.71Zm.62-1.77c.2-.23.29.08.3.25,0,.19-.05.43-.2.57-.19.17-.31.04-.32-.17-.01-.23.06-.47.22-.65Z"/>
        <path class="cls-2" d="m82.1,159.53c-.7-.51-1.76-.46-2.4.13-.75.69-1.22,1.75-1.01,2.77.14.7.56,1.34,1.18,1.71,1.18.71,3,.14,3.53-1.15.51-1.27-.27-2.71-1.29-3.45Zm-.15,3c-.37.31-.89.37-1.32.18-.31-.14-.7-.54-.77-.88-.08-.34.23-.63.5-.79.42-.24,1.26-.55,1.7-.19.63.52.46,1.21-.1,1.68Z"/>
        <path class="cls-2" d="m119.35,149.61c-.46.7-.51,1.64.07,2.29.71.78,2.08,1.06,2.88.27.78-.78.65-2.02-.14-2.74-.79-.73-2.17-.78-2.8.19Zm.92,1.99s-.02-.02-.03-.03c-.5-.52.36-1.64.99-1.19.76.54-.42,1.7-.96,1.22Z"/>
        <path class="cls-2" d="m129.17,159.11c.06.53.31,1.05.69,1.42.93.92,2.62,1.04,3.61.18,1.11-.97,1.15-2.76.1-3.78-1.66-1.62-4.68-.15-4.4,2.18Zm3.32.73c-.51.58-1.49.64-1.96-.01-.49-.68-.4-1.8.51-2.05.47-.13,1.13-.08,1.45.34.36.47.4,1.27,0,1.72Z"/>
        <path class="cls-2" d="m120.67,164.49c-.03-.1-.08-.19-.16-.27-.05-.09-.13-.16-.22-.22-.08-.08-.17-.13-.27-.16-.14-.08-.3-.11-.47-.1-.11.01-.22.03-.32.04-.1.04-.19.08-.29.12-.08.06-.16.13-.25.19-.06.08-.13.16-.19.25-.04.1-.08.19-.12.29-.05.16-.06.32-.02.48,0,.11.03.21.08.31.05.15.13.28.25.39.02.02.04.05.07.07.1.11.22.19.36.23.13.07.28.1.43.1.1-.01.2-.03.3-.04.19-.05.35-.15.49-.29.02-.02.04-.05.07-.07.06-.08.13-.16.19-.25.04-.1.08-.19.12-.29.05-.16.06-.32.02-.48,0-.11-.03-.21-.08-.31Z"/>
        <path class="cls-2" d="m148.7,146.02c-1.13,0-1.13,1.75,0,1.75s1.13-1.75,0-1.75Z"/>
        <path class="cls-2" d="m66.73,153.79c-.06-.05-.12-.09-.18-.14-.14-.08-.28-.12-.44-.12-.12,0-.23.02-.34.08-.11.04-.2.1-.28.18-.09.08-.15.17-.18.28-.05.1-.08.22-.08.34.01.08.02.16.03.23.04.15.12.28.23.39.06.05.12.09.18.14.14.08.28.12.44.12.12,0,.23-.02.34-.08.11-.04.2-.1.28-.18.09-.08.15-.17.18-.28.05-.1.08-.22.08-.34-.01-.08-.02-.16-.03-.23-.04-.15-.12-.28-.23-.39Z"/>
        <path class="cls-2" d="m61.25,138.53c-.06-.05-.13-.1-.19-.15-.15-.09-.31-.13-.49-.13-.13,0-.26.02-.37.08-.12.04-.22.11-.31.2-.09.09-.16.19-.2.31-.06.11-.09.24-.08.37.01.09.02.17.03.26.05.16.13.3.25.42.06.05.13.1.19.15.15.09.31.13.49.13.13,0,.26-.02.37-.08.12-.04.22-.11.31-.2.09-.09.16-.19.2-.31.06-.11.09-.24.08-.37-.01-.09-.02-.17-.03-.26-.05-.16-.13-.3-.25-.42Z"/>
        <path class="cls-2" d="m53.24,147.43c-.1-.08-.2-.16-.31-.24-.24-.14-.49-.21-.77-.21-.21,0-.4.04-.59.13-.19.06-.35.17-.49.31-.15.14-.25.3-.31.49-.1.18-.14.38-.13.59.02.13.04.27.05.4.07.26.2.48.39.67.1.08.2.16.31.24.24.14.49.21.77.21.21,0,.4-.04.59-.13.19-.06.35-.17.49-.31.15-.14.25-.3.31-.49.1-.18.14-.38.13-.59-.02-.13-.04-.27-.05-.4-.07-.26-.2-.48-.39-.67Z"/>
      </g>
      <rect class="cls-1" width="200" height="200"/>
    </g>
  </g>
</svg>