<?xml version="1.0" encoding="UTF-8"?>
<svg id="Capa_2" xmlns="http://www.w3.org/2000/svg" viewBox="0 0 243.3 243.3">
  <defs>
    <style>
      .cls-1 {
        fill: #a36545;
      }

      .cls-2 {
        fill: #5a992f;
      }

      .cls-3 {
        fill: #fff;
      }

      .cls-4 {
        fill: none;
      }

      .cls-5 {
        fill: #a83c19;
      }

      .cls-6 {
        fill: #feb672;
      }

      .cls-7 {
        fill: #fad380;
      }

      .cls-8 {
        fill: #4f3535;
      }

      .cls-9 {
        fill: #d9472e;
      }
    </style>
  </defs>
  <g id="grocery_icons">
    <g>
      <rect class="cls-4" width="243.3" height="243.3"/>
      <g>
        <g>
          <path class="cls-5" d="M227.14,13.9H16.73l-8.44,10.77s-.69,201.68,3.44,203.75c2.9,1.45,70.29,1.54,110.2,1.47,39.92.07,107.3-.02,110.2-1.47,4.13-2.07,3.44-203.75,3.44-203.75l-8.44-10.77Z"/>
          <path class="cls-8" d="M8.97,26.64c7.35.99,14.69,1.01,22.09,1.05,7.28.04,14.56.09,21.84.13,14.76.08,29.53.18,44.29.29,29.58.21,59.16.56,88.74.65,8.29.03,16.58.05,24.87.06,4,0,8,.01,12.01.02,4.22,0,8.29.21,12.37-.99,1.44-.42,1.44-2.5,0-2.92-3.51-1.03-6.87-.99-10.5-1s-7.5,0-11.25-.01c-7.28-.01-14.56-.03-21.83-.05-14.76-.04-29.52-.08-44.29-.08-29.58,0-59.16-.06-88.74-.07-8.29,0-16.58,0-24.87.02s-16.51-.08-24.72,1.02c-1.2.16-1.21,1.72,0,1.88h0Z"/>
        </g>
        <g>
          <path class="cls-6" d="M49.27,63.06c-32.16,24.4-35.07,63.64-29.87,92.22,5.2,28.58,37.67,64.51,93.52,67.97,55.85,3.46,100.45-22.08,112.14-79.66,11.69-57.58-33.34-87.89-52.82-96.55-19.48-8.66-72.74-22.08-122.96,16.02Z"/>
          <path class="cls-9" d="M142.83,48.2c-10.53,1.15-22.23,9.81-32.33,9.24-10.1-.58-28.58-4.04-39.83,1.44s-10.39,24.25-15.59,30.88c-5.2,6.64-25.11,13.28-25.69,34.06-.58,20.78,8.66,26.55,15.59,34.35,6.93,7.79,8.08,26.27,17.61,31.75,9.53,5.48,32.62,2.6,41.28,10.1,8.66,7.5,33.77,15.01,49.65,6.93,15.88-8.08,20.99-28.5,35.03-34.6,14.04-6.1,13.46-13.6,13.17-26.3s3.18-14.14,8.08-23.96,2.31-30.02-4.04-38.68c-6.35-8.66-20.49-9.24-27.71-14.14-7.22-4.91-16.74-23.09-35.21-21.07Z"/>
          <path class="cls-1" d="M105.29,154.36c-4.97-.42-10.42.47-13.95,4.26-2.02,2.17-3.21,5.08-3.93,8.06-1.15,4.78-1.1,10.09,1.15,14.38,2.5,4.78,7.5,7.71,12.58,8.17,5.08.46,10.18-1.33,14.5-4.24,3.41-2.29,6.5-5.44,7.88-9.5,4.08-11.98-9.01-20.35-18.24-21.13Z"/>
          <path class="cls-1" d="M186.28,143.2c-3.94-4.46-9.98-6.71-15.6-5.61s-10.6,5.62-12.36,11.47c-1.76,5.85-.11,12.77,4.19,16.82,3.27,3.09,7.82,4.41,12.16,3.95,5.93-.62,13.67-4.74,15.89-11.1,1.89-5.41-.8-11.6-4.27-15.53Z"/>
          <path class="cls-3" d="M100.86,165.93c-1.36-2.01-4.03-.73-5.27.76-.97,1.17-1.73,2.97-1.29,4.56.47,1.7,2.14,2.33,3.63,1.89,1.4-.42,2.33-1.8,3.02-3.09.64-1.2.7-2.95-.09-4.11Z"/>
          <path class="cls-3" d="M111.11,167.15c.26-.25.47-.57.6-.94.33-.97.09-2.34-.87-2.77-.6-.27-1.26-.08-1.72.39-.74.76-1.41,2.13-.68,3.13.73,1,1.91.92,2.67.2Z"/>
          <path class="cls-3" d="M106.34,173.73c-1.81,0-1.81,3.02,0,3.02s1.81-3.02,0-3.02Z"/>
          <path class="cls-3" d="M114.93,172.26c-1.01-.05-1.95.51-2.63,1.29-.64.74-1.31,1.72-1.51,2.72-.24,1.21.38,2.35,1.43,2.8,2.2.93,4.43-1.88,4.65-4.03.14-1.37-.54-2.71-1.94-2.78Z"/>
          <path class="cls-3" d="M103.88,178.94c-3.15-2.54-5.06,4.66-2.57,4.84.92.07,2.03-.72,2.55-1.49.59-.87.96-2.61.02-3.36Z"/>
          <path class="cls-3" d="M168.49,148.62c-.1-.02-.2-.04-.3-.06-2.85-.4-5.22,4.66-2.23,6.18.91.46,2.01.29,2.82-.32,1.65-1.26,2.18-5.19-.28-5.8Z"/>
          <path class="cls-3" d="M174.19,146.69s0,.02,0,.03c.03.11.11.3.16.4.07.14.17.27.27.38,0,.01.02.02.03.03.07.08.23.2.32.26.05.03.29.15.42.18.13.02.27.04.4.06,0,0,.02,0,.02,0,.13,0,.55-.09.42-.06.01,0,.02,0,.03,0,.07-.02.13-.05.19-.09.06-.03.13-.05.19-.09.1-.06.24-.18.33-.27.01,0,.02-.02.03-.03.03-.04.22-.3.24-.34,0,0,0-.01,0-.02.05-.13.1-.26.15-.39.02-.08.03-.19.03-.24.02-.19.03-.15.03-.24,0-.08-.04-.38-.06-.45-.02-.08-.12-.34-.16-.41-.07-.14-.17-.28-.27-.38-.21-.21-.43-.34-.7-.44-.01,0-.02,0-.03-.01,0,0-.01,0-.02,0-.13-.02-.27-.04-.4-.06-.27-.02-.61.08-.84.23-.1.08-.2.17-.3.25,0,0-.02.02-.03.03-.04.03-.08.06-.12.1-.14.14-.23.3-.29.49-.09.18-.13.38-.12.58,0,.01,0,.03,0,.04,0,.11.03.33.06.43Z"/>
          <path class="cls-3" d="M177.47,154.79c-.01-.09-.04-.17-.08-.25-.01-.07-.04-.13-.08-.19-.04-.05-.07-.11-.11-.16-.1-.16-.23-.29-.39-.39-.11-.05-.22-.1-.33-.15-.12-.02-.25-.04-.37-.05-.07,0-.32.03-.39.05-.06.03-.12.05-.18.08-.19.05-.35.15-.49.29-.12.07-.21.18-.28.3-.14.16-.23.35-.28.57,0,.03-.01.06-.02.1-.02.15-.04.29-.06.44,0,.23.04.44.13.64.04.14.1.26.2.37.11.18.25.32.43.43.12.06.25.11.37.17.14.02.27.04.41.06.21,0,.41-.04.59-.14.19-.07.36-.18.5-.34.02-.02.04-.05.06-.07.08-.11.16-.23.24-.34.11-.19.18-.4.19-.63.04-.15.04-.3,0-.45,0-.11-.02-.22-.06-.33Z"/>
          <path class="cls-3" d="M184.7,151.75c-2.78-.7-5,3.77-2.98,5.9.61.65,1.52,1.03,2.38.77.89-.28,1.59-1.19,2.03-2.03.86-1.62.5-4.16-1.43-4.64Z"/>
          <path class="cls-3" d="M173.88,161.98c-2.41,0-2.42,4.03,0,4.03s2.42-4.03,0-4.03Z"/>
          <path class="cls-8" d="M74.68,84.45c-1.83-2.6-5.62-3.16-7.98-1.08-2.05,1.8-2.5,5.55-.32,7.33,1.38,1.58,3.62,2.29,5.68,1.68,3.24-.96,4.68-5.01,2.62-7.92Z"/>
          <path class="cls-8" d="M145.69,61.07c-1.83-2.6-5.62-3.16-7.98-1.08-2.05,1.8-2.5,5.55-.32,7.33,1.38,1.58,3.62,2.29,5.68,1.68,3.24-.96,4.68-5.01,2.62-7.92Z"/>
          <path class="cls-8" d="M87.94,83.23c-4.02.53-7.37,5.31-5.48,9.52,2.42,5.38,9.91,3.95,11.52-1.32,1.33-4.35-1.74-8.75-6.04-8.19Z"/>
          <path class="cls-8" d="M122.36,119.38c-4.02.53-7.37,5.31-5.48,9.52,2.42,5.38,9.91,3.95,11.52-1.32,1.33-4.35-1.74-8.75-6.04-8.19Z"/>
          <path class="cls-8" d="M78.17,174.45c-1.55.19-3.05,1.4-3.99,2.95-1.62,1.97-1.57,5.15.57,7.06,2.75,2.44,7.08.71,8.22-2.78,1.16-3.56-1.06-7.7-4.8-7.23Z"/>
          <path class="cls-8" d="M155.89,71.84c-1.55.19-3.05,1.4-3.99,2.95-1.62,1.97-1.57,5.15.57,7.06,2.75,2.44,7.08.71,8.22-2.78,1.16-3.56-1.06-7.7-4.8-7.23Z"/>
          <path class="cls-8" d="M68.36,166.89c-2.43-1.38-4.9,1.79-5.42,4.17-.73,3.31,2.76,5.1,5.31,4.15,2.45-.91,3.89-4.17,2.39-6.65-.51-.85-1.36-1.46-2.29-1.67Z"/>
          <path class="cls-8" d="M43.99,117.31c-2.12,1.06-3.05,3.93-2.26,6.25,1.78,5.2,8.79,3.39,8.53-1.98-.16-3.38-3.3-5.76-6.27-4.27Z"/>
          <path class="cls-8" d="M154.67,170.6c-1.01,1.18-1.39,2.86-.87,4.37.27.79.78,1.52,1.43,1.92,1.18,1.09,2.99,1.6,4.44,1.41,3.11-.41,4.19-4.27,2.91-7.09-1.37-3.01-6.01-2.82-7.9-.62Z"/>
          <path class="cls-8" d="M158.57,123.84c-1.01,1.18-1.39,2.86-.87,4.37.27.79.78,1.52,1.43,1.92,1.18,1.09,2.99,1.6,4.44,1.41,3.11-.41,4.19-4.27,2.91-7.09-1.37-3.01-6.01-2.82-7.9-.62Z"/>
          <path class="cls-3" d="M89.97,143.26c-.59-6.63-7.24-11.22-12.92-11.94-6.61-.83-13.88,2.85-17.32,9.02-3.42,6.13-1.39,13.41,4.59,16.54,6.07,3.17,14.9,1.01,20.33-2.86,3.47-2.47,5.7-6.58,5.33-10.76Z"/>
          <path class="cls-3" d="M136.85,140c-.13.1-.25.2-.37.31-5.9,5.2,1.44,13.13,7.28,12.41,4.7-.57,8.17-5.83,5.36-10.45-2.4-3.94-8.64-5.04-12.26-2.28Z"/>
          <path class="cls-2" d="M134.57,160.4s-8.57,13.95-5.65,24.29c2.93,10.35,14.22,11.92,15.47,11.92s8.36-6.3,4.39-17.09c-3.97-10.8-14.22-19.12-14.22-19.12Z"/>
          <g>
            <path class="cls-2" d="M95.05,117.43c.58-.62-7.63-7.72-8.18-8.12-5.69-4.07-12.16-5.22-18.87-4.72-2.99.23-11.21.71-11.21,5.64,0,3.6,8.78,13.27,21.33,12.82,12.55-.45,15.26-3.82,16.94-5.62Z"/>
            <g>
              <path class="cls-8" d="M94.1,117.2c-5.66-1.4-11.43-2.23-17.09-3.64-.72-1.29-1.41-2.59-2.06-3.93-.7-1.45-1.21-3.04-2-4.42-.31-.53-1.07-.19-.93.42.57,2.62,2.02,5.21,3.45,7.53-5.32-1.37-10.59-2.94-15.83-4.61-.63-.2-.88.83-.27,1.04,5.75,2.05,11.59,3.79,17.48,5.27,2.7.68,5.44,1.39,8.19,2.01-2.79,1.29-5.64,2.77-7.92,4.89-.42.39.12,1.04.57.79,2.88-1.54,6.51-3.74,9.57-5.21,2.23.45,4.46.82,6.69,1.03.63.06.76-1.03.15-1.18Z"/>
              <path class="cls-8" d="M72.95,114.2c-2.92.58-6.4,1.66-8.56,3.99-.31.33,0,1.04.46.85,2.85-1.24,5.36-2.88,8.42-3.61.75-.18.43-1.37-.31-1.23Z"/>
            </g>
          </g>
          <g>
            <path class="cls-2" d="M141.18,123.98c.3.79,10.32-3.37,10.92-3.69,6.18-3.28,10.1-8.54,12.65-14.77,1.14-2.78,4.38-10.35-.03-12.55-3.22-1.61-15.8,1.92-21,13.35-5.21,11.42-3.4,15.36-2.54,17.67Z"/>
            <g>
              <path class="cls-8" d="M141.81,123.23c3.78-4.43,7.11-9.22,10.9-13.66,1.47-.07,2.95-.1,4.43-.08,1.61.02,3.26.28,4.85.18.62-.04.64-.87.04-1.02-2.6-.67-5.56-.52-8.28-.27,3.6-4.14,7.36-8.16,11.2-12.1.46-.47-.35-1.16-.81-.71-4.41,4.22-8.57,8.67-12.53,13.28-1.81,2.11-3.67,4.24-5.46,6.43.1-3.07.04-6.28-.83-9.27-.16-.56-.98-.36-.97.15.09,3.27.44,7.5.39,10.89-1.4,1.79-2.73,3.62-3.91,5.52-.33.54.58,1.14.99.66Z"/>
              <path class="cls-8" d="M153.94,105.65c.79-2.87,1.38-6.47.26-9.44-.16-.42-.93-.46-.96.03-.17,3.1.18,6.08-.53,9.14-.18.75,1.04.99,1.24.27Z"/>
            </g>
          </g>
          <path class="cls-8" d="M145.36,196.55c-.66-2.19-1.49-4.31-2.38-6.41.97-4.53,2.46-11.33,2.31-15.8-.02-.57-.87-.76-.97-.14-.66,4.02-1.32,9.78-2.05,14.26-1.17-2.73-2.36-5.44-3.31-8.25-1.94-5.78-3.22-11.72-3.68-17.85-.06-.82-1.25-.84-1.21,0,.35,6.09,1.77,12,3.61,17.75.19.6.39,1.21.59,1.83-.78-.86-1.61-1.69-2.36-2.55-1.52-1.73-3.02-3.48-4.48-5.26-.51-.62-1.32.28-.84.9,1.41,1.84,2.85,3.64,4.37,5.39,1.34,1.54,2.66,3.28,4.28,4.47.48,1.45.99,2.9,1.53,4.33-1.82-.5-4.55-.98-6-.96-.54,0-.68.9-.13,1.04,1.57.41,5.09.96,6.71,1.42.88,2.2,1.84,4.33,2.96,6.31.33.59,1.26.21,1.05-.48Z"/>
          <path class="cls-8" d="M86.75,177.88c1.97,8.82,10.77,13.65,18.76,12.28,4.42-.76,8.58-3.04,11.94-6.19,3.21-3.01,6.58-7.5,6.42-12.33-.02-.65-1.02-.87-1.11-.16-1.08,8.56-8.9,15.34-16.54,16.97-7.68,1.64-16.04-2.52-18.43-10.87-.2-.7-1.19-.41-1.03.3h0Z"/>
          <path class="cls-1" d="M121.5,70.38c-5.62-.47-11.78.53-15.77,4.82-2.28,2.45-3.63,5.75-4.44,9.11-1.3,5.4-1.24,11.4,1.3,16.27,2.83,5.4,8.48,8.72,14.22,9.24,5.74.52,11.51-1.51,16.4-4.8,3.85-2.59,7.35-6.15,8.91-10.74,4.61-13.55-10.19-23.01-20.63-23.89Z"/>
          <path class="cls-3" d="M116.49,83.46c-1.54-2.28-4.56-.83-5.96.86-1.1,1.32-1.95,3.36-1.46,5.15.53,1.92,2.42,2.64,4.1,2.14,1.59-.47,2.63-2.03,3.42-3.5.73-1.36.79-3.34-.1-4.65Z"/>
          <path class="cls-3" d="M128.08,84.84c.29-.28.53-.64.68-1.07.37-1.1.1-2.64-.98-3.13-.68-.31-1.42-.09-1.95.44-.84.85-1.59,2.4-.77,3.53.83,1.13,2.16,1.04,3.02.23Z"/>
          <path class="cls-3" d="M122.69,92.28c-2.04,0-2.05,3.42,0,3.42s2.05-3.42,0-3.42Z"/>
          <path class="cls-3" d="M132.4,90.62c-1.15-.06-2.21.58-2.98,1.46-.72.83-1.48,1.95-1.7,3.08-.27,1.37.42,2.66,1.61,3.16,2.48,1.05,5.01-2.13,5.26-4.56.16-1.55-.61-3.06-2.19-3.14Z"/>
          <path class="cls-3" d="M119.9,98.17c-3.57-2.87-5.72,5.27-2.91,5.48,1.04.08,2.29-.81,2.88-1.68.66-.98,1.08-2.95.02-3.8Z"/>
          <path class="cls-8" d="M100.53,96.98c2.23,9.97,12.18,15.43,21.21,13.88,5-.86,9.7-3.44,13.5-7,3.62-3.4,7.44-8.48,7.26-13.94-.02-.73-1.16-.99-1.26-.18-1.22,9.68-10.06,17.35-18.7,19.19-8.69,1.86-18.14-2.85-20.84-12.29-.23-.8-1.34-.47-1.16.34h0Z"/>
          <path class="cls-8" d="M160.14,164.44c3.04,5.93,11.13,6.84,16.73,5.93,6.28-1.02,12.78-5.65,14.17-12.71.17-.86-.94-1.18-1.21-.36-2.06,6.18-6.48,10.32-12.53,11.58-5.37,1.12-13.03.4-16.31-4.98-.35-.57-1.16-.07-.85.53h0Z"/>
          <path class="cls-8" d="M100.84,130.95c-.02,1.01.78,1.77,1.71,1.75s1.98-.74,2.51-1.57c1.13-1.77-.06-4.2-2.01-4.35-1.96-.15-3.49,2.12-2.58,4.05.79,1.68,3.24,1.69,3.97-.08.37-.89,0-2.13-.86-2.51-1.03-.46-1.98.58-1.77,1.68.11.59.87.77,1.24.35.66-.76.05-2.05-.94-1.84-1.25.26-.9,1.77-.67,2.68.17.65,1.08.67,1.24,0,.06-.27.08-.48.05-.75-.01-.11-.03-.23-.05-.34-.02-.4-.29-.53-.81-.4l.22-.56-.09.09c.41.12.83.23,1.24.35.06.28-.2.71-.42.84s-.53.17-.74.03c-.62-.38-.3-1.49.19-1.82.76-.51,1.83,0,1.91.98.04.52-.22.94-.58,1.26-.28.25-1.61,1.14-1.63.15-.02-.78-1.12-.78-1.13,0h0Z"/>
          <path class="cls-8" d="M114.68,148.01c.1,1.33,1.49,2.26,2.59,1.46,1.01-.74,1.05-2.5-.08-3.14s-2.55.08-2.47,1.52c.04.65.37,1.29.94,1.55s1.22.07,1.64-.4c.46-.51.66-1.4.22-2-.56-.76-1.58-.02-1.79.69-.15.51.47.85.8.5.08-.09.16-.11.29-.08l-.4-.33c.08.17-.16.33-.27.15-.14-.25.03-.46.3-.41.36.06.38.54.14.77-.32.33-.75-.07-.81-.44-.11-.67-1.16-.52-1.11.16h0Z"/>
          <path class="cls-8" d="M98.5,146.74c.06.08.11.17.17.24l-.18-.74c-.05.23-.05.46.07.68.07.13.2.27.32.34.26.17.59.22.86.03l-.36.11h.02c.22,0,.41-.11.55-.3.06-.07.1-.16.13-.26.03-.13.03-.27,0-.4v-.02c0,.14,0,.27,0,.41.11-.32-.03-.67-.24-.89-.1-.11-.25-.2-.39-.25-.14-.04-.28-.04-.41,0-.07.03-.14.06-.21.1h.71c-.06-.04-.14-.08-.21-.1l.16.07-.05-.03c-.14-.07-.27-.11-.43-.09-.14.02-.29.08-.39.2-.08.09-.14.2-.17.32-.05.15-.03.43.07.56h0Z"/>
          <path class="cls-8" d="M122.91,195.27c-.37.63-.15,1.4.37,1.84.55.46,1.28.39,1.81-.07,1.12-.97,1.08-3.35-.48-3.81-.36-.11-.74-.08-1.08.08-.38.18-.54.48-.71.88-.32.76-.42,1.64.11,2.33.48.64,1.35.77,1.93.21.72-.68.62-1.7.39-2.6-.1-.39-.45-.56-.8-.49-1.16.23-2.06,2.08-.93,2.94.34.26.74-.09.76-.47.03-.47-.02-1.01.51-1.12-.27-.16-.53-.33-.8-.49.08.29.24.73.11,1.03-.09.21-.18.21-.27,0-.14-.35.12-1.33.58-1.02.38.25.33.95.13,1.31-.09.17-.28.42-.49.38-.12-.02-.28-.19-.21-.32.34-.66-.57-1.23-.94-.59h0Z"/>
          <path class="cls-7" d="M63.73,153.35c4.83,3.69,13.56,4.68,18.07-.24.53-.58,0-1.79-.79-1.45-2.68,1.14-4.98,2.41-7.94,2.46s-5.8-.92-8.32-2.65c-1.11-.77-2.07,1.08-1.02,1.88h0Z"/>
          <path class="cls-3" d="M202.54,107.11c-.59-6.63-7.24-11.22-12.92-11.94-6.61-.83-13.88,2.85-17.32,9.02-3.42,6.13-1.39,13.41,4.59,16.54,6.07,3.17,14.9,1.01,20.33-2.86,3.47-2.47,5.7-6.58,5.33-10.76Z"/>
          <path class="cls-7" d="M176.29,117.2c4.83,3.69,13.56,4.68,18.07-.24.53-.58,0-1.79-.79-1.45-2.68,1.14-4.98,2.41-7.94,2.46s-5.8-.92-8.32-2.65c-1.11-.77-2.07,1.08-1.02,1.88h0Z"/>
          <path class="cls-7" d="M140.7,150.85c2.13.98,5.13,1.28,6.86-.75.66-.77-.01-1.78-.89-1.64-1.81.28-3.3.83-5.14.25-1.15-.36-1.99,1.61-.84,2.14h0Z"/>
          <path class="cls-8" d="M49.76,139.86c.16-.28.32-.55.41-.87.04-.14.06-.28.08-.43.07-.57-.13-1.09-.55-1.44-.53-.44-1.25-.41-1.78.01-.17.14-.33.26-.46.44l-.17.24c-.19.21-.33.46-.4.75l-.06.45c-.02.53.24,1.02.62,1.33.74.62,1.83.4,2.31-.47h0Z"/>
          <path class="cls-8" d="M57.63,125.96c1.83,0,1.83-3.05,0-3.05s-1.83,3.05,0,3.05h0Z"/>
          <path class="cls-8" d="M102.72,139.01c-.06.07-.11.14-.17.22-.1.11-.18.24-.21.4-.04.09-.07.18-.1.27l.68-.96c-.44.27-.78.82-.76,1.38.01.27.06.57.2.8s.32.44.56.58l-.68-.96.02.05c.05.23.15.44.3.61.06.09.1.15.17.22l.35.29.41.19c.23.08.46.09.69.03.16,0,.3-.04.44-.13.15-.04.27-.12.38-.24.13-.08.23-.19.31-.33.11-.12.18-.25.22-.41.11-.22.16-.46.15-.72l-.06-.49-.17-.44-.27-.38-.35-.29-.41-.19c-.23-.08-.46-.09-.69-.03-.16,0-.3.04-.44.13-.21.07-.4.2-.56.38h0Z"/>
          <path class="cls-8" d="M148.15,161.06c-.29-.19-.61-.29-.96-.3l1.13.5-.13-.13-.31-.26-.37-.17-.41-.06c-.21,0-.41.04-.59.14-.13.04-.24.11-.34.21-.12.07-.21.17-.28.3-.1.1-.16.22-.2.36-.1.2-.14.41-.13.64l.02.18.22-.87c-.2.31-.23.68-.26,1.05,0,.34.08.65.24.94.15.28.36.5.62.67.53.34,1.21.34,1.74,0s.86-.95.86-1.6-.33-1.26-.86-1.6h0Z"/>
          <path class="cls-8" d="M73.54,97.69s.01-.03.02-.04c.02-.06.04-.11.07-.17.08-.16.11-.32.1-.5l-.04-.35c-.02-.08-.09-.24-.13-.32,0,0,0-.02,0-.02,0,0,0-.01,0-.02-.02-.06-.06-.11-.1-.15-.09-.15-.22-.28-.37-.36l-.31-.14-.35-.05-.35.05-.31.14c-.15.09-.28.21-.37.36-.08.09-.14.19-.17.31-.06.11-.09.23-.09.36-.03.13-.03.25,0,.38,0,.19.06.36.16.53l.21.29.27.22.31.14.35.05c.18,0,.35-.03.51-.12.11-.03.21-.09.29-.18.14-.1.26-.23.34-.4h0Z"/>
          <path class="cls-8" d="M98.48,108.16c-.18-.1-.37-.19-.56-.27-.04-.02-.07-.03-.11-.04-.29-.07-.56-.06-.84.07-.22.1-.36.23-.5.42-.12.17-.2.34-.26.56-.02.09-.04.19-.05.28l-.06.45.06.45.16.41.25.34.32.27.38.17.42.06c.22,0,.42-.04.61-.15.13-.04.25-.11.35-.22.12-.08.21-.18.28-.3.1-.11.17-.23.2-.38.07-.13.11-.28.11-.43.04-.15.04-.3,0-.45,0-.15-.04-.3-.11-.43-.04-.14-.11-.27-.2-.38-.11-.19-.26-.33-.44-.44h0Z"/>
          <path class="cls-8" d="M89.43,78.78c2.08,0,2.08-3.48,0-3.48s-2.08,3.48,0,3.48h0Z"/>
          <path class="cls-3" d="M124.22,145.43c1.92,0,1.92-3.21,0-3.21s-1.92,3.21,0,3.21h0Z"/>
          <path class="cls-3" d="M125.22,161.44c1.75,0,1.75-2.93,0-2.93s-1.75,2.93,0,2.93h0Z"/>
          <path class="cls-3" d="M132.93,203.62c.1.18.21.37.35.52.24.27.6.49.96.47s.69-.17.95-.46c.14-.16.25-.35.36-.53.28-.5.27-1.15,0-1.64s-.77-.81-1.31-.81-1.04.31-1.31.81-.28,1.15,0,1.64h0Z"/>
          <path class="cls-3" d="M76.91,166.69c1.9,0,1.9-3.18,0-3.18s-1.9,3.18,0,3.18h0Z"/>
          <path class="cls-3" d="M51.37,156.02c2.02,0,2.03-3.38,0-3.38s-2.03,3.38,0,3.38h0Z"/>
          <path class="cls-3" d="M49.98,106.89c-.21-.3-.4-.6-.71-.8-.39-.25-.91-.25-1.3,0-.31.2-.5.49-.71.8-.14.26-.21.55-.21.85,0,.31.07.59.21.85.28.51.8.84,1.36.84s1.08-.32,1.36-.84c.14-.26.21-.55.21-.85,0-.31-.07-.59-.21-.85h0Z"/>
          <path class="cls-3" d="M80.41,70.95l-.06-.17-.15-.38c-.09-.19-.22-.34-.38-.45-.09-.1-.2-.17-.33-.21-.18-.1-.37-.15-.57-.14l-.4.06-.36.16c-.17.1-.31.24-.42.41-.13.15-.22.34-.27.54l-.06.17c-.07.3-.07.59,0,.89.07.28.21.53.4.74l.31.26c.24.15.5.23.78.23.21,0,.41-.04.6-.14.19-.07.36-.18.5-.34.19-.21.33-.45.4-.74.07-.3.07-.59,0-.89h0Z"/>
          <path class="cls-3" d="M99.19,69.63c2.08,0,2.08-3.48,0-3.48s-2.08,3.48,0,3.48h0Z"/>
          <path class="cls-8" d="M150.59,133.33c1.83,0,1.84-2.85,0-2.85s-1.84,2.85,0,2.85h0Z"/>
          <path class="cls-8" d="M181.76,130.99c.2,0,.39-.03.56-.13.18-.06.34-.16.47-.3.14-.13.24-.29.3-.47.09-.17.13-.36.13-.56l-.05-.39c-.07-.25-.2-.46-.38-.65l-.3-.23c-.23-.13-.47-.2-.74-.2-.2,0-.39.03-.56.13-.18.06-.34.16-.47.3-.14.13-.24.29-.3.47-.09.17-.13.36-.13.56l.05.39c.07.25.2.46.38.65l.3.23c.23.13.47.2.74.2h0Z"/>
          <path class="cls-8" d="M177.27,86.36l.12-.07c.2-.12.36-.28.48-.48.12-.21.18-.43.18-.67,0-.24-.06-.46-.18-.67-.12-.2-.28-.36-.48-.48l-.12-.07c-.22-.13-.46-.19-.71-.19-.25,0-.49.06-.71.19-.21.13-.38.29-.5.5-.13.22-.19.46-.19.71,0,.25.06.49.19.71.13.21.29.38.5.5.22.13.46.19.71.19.25,0,.49-.06.71-.19h0Z"/>
          <path class="cls-8" d="M188.69,86.69c2.26,0,2.27-3.52,0-3.52s-2.27,3.52,0,3.52h0Z"/>
          <path class="cls-8" d="M193.66,132.32c2.21,0,2.22-3.44,0-3.44s-2.22,3.44,0,3.44h0Z"/>
        </g>
      </g>
    </g>
  </g>
</svg>