<?xml version="1.0" encoding="UTF-8"?>
<svg id="Capa_2" data-name="Capa 2" xmlns="http://www.w3.org/2000/svg" viewBox="0 0 200 200">
  <defs>
    <style>
      .cls-1 {
        fill: none;
      }

      .cls-1, .cls-2, .cls-3, .cls-4, .cls-5 {
        stroke-width: 0px;
      }

      .cls-2 {
        fill: #fff;
      }

      .cls-3 {
        fill: #593737;
      }

      .cls-4 {
        fill: #8b7373;
      }

      .cls-5 {
        fill: #b4a5a5;
      }
    </style>
  </defs>
  <g id="colorful_icons" data-name="colorful icons">
    <g>
      <g>
        <g>
          <g>
            <path class="cls-3" d="m161.56,102.25c.25-.08,9.24-5.08,16.19-3.5s10.06,7.61,6.36,14-9.16,8.08-13.31,9.67-9.24,3.5-9.24,3.5l.08-10.92s9.24-2.25,14.07-5.75c4.22-3.06,1.78-5.42-1.61-5.25s-12.55,4.08-12.55,4.08v-5.83Z"/>
            <path class="cls-3" d="m37.15,102.25c-.25-.08-9.24-5.08-16.19-3.5s-10.06,7.61-6.36,14,9.16,8.08,13.31,9.67,9.24,3.5,9.24,3.5l-.08-10.92s-9.24-2.25-14.07-5.75c-4.22-3.06-1.78-5.42,1.61-5.25s12.55,4.08,12.55,4.08v-5.83Z"/>
            <path class="cls-5" d="m163.58,124.45c-.1-4.62-.34-9.24-.49-13.86s-.63-17.06-.84-17.46c.03-.19-125.11-.96-125.2-.27-1.77,13.31-1.38,52.93-1.24,58.75.1,4.33.28,9.04,1.84,13.15,1.78,4.68,5.31,8.36,10.07,10.18,4.32,1.66,9.22,1.95,13.81,2.27,5.03.35,10.05.33,15.1.32,7.94-.03,38.81-.05,43.52-.02,9.34.07,18.95.33,28.14-1.64,4.49-.96,9.13-3.51,11.5-7.52,2.55-4.3,3.27-9.24,3.49-14.13.44-9.91.53-19.86.31-29.79Z"/>
          </g>
          <path class="cls-2" d="m47.12,143.89c-.18,2.23-.43,4.51-.35,6.75s.64,4.65,1.58,6.78c.75,1.69,1.9,3.27,3.29,4.49,1.72,1.51,4.14,3.13,6.46,1.95,1.04-.53,1.34-1.99.78-2.96-.46-.79-1.31-1.39-2.11-1.8-.35-.18-.68-.39-1.01-.6-.11-.07-.32-.23-.1-.06-.17-.13-.34-.28-.5-.43-1.14-1.05-1.73-1.93-2.47-3.44-.08-.16-.15-.32-.22-.48.12.29-.04-.13-.07-.2-.17-.48-.32-.95-.45-1.44-.25-.91-.4-1.85-.57-2.78-.35-1.92-.38-3.85-.39-5.79-.01-2.52-3.66-2.45-3.87,0h0Z"/>
          <path class="cls-2" d="m63.47,164.43l.96-.07.47-.04s.07,0,.1,0c.3-.03.57-.09.79-.32.08-.08.16-.2.23-.3.17-.24.17-.66,0-.91-.07-.1-.14-.22-.23-.3-.13-.13-.29-.22-.47-.28-.06-.01-.12-.02-.18-.02-.08-.01-.16-.02-.25-.03l-.47-.04-.96-.07c-.16,0-.32.03-.46.1-.15.05-.28.13-.38.25-.21.21-.36.55-.35.84s.12.63.35.84.53.37.84.35h0Z"/>
        </g>
        <g>
          <path class="cls-3" d="m93.22,61.79l-.11,12.63,12.1.11.11-12.63s-12.19-.21-12.1-.11Z"/>
          <g>
            <g>
              <path class="cls-5" d="m35.47,88.02c-.11.32,20.55-7.44,29.22-10.67,9.56-3.56,16.67-6.67,35-6.78s32.44,6,43.67,10.56c9.39,3.81,22.22,6.56,22.22,6.56,0,0-129.89-.33-130.11.33Z"/>
              <path class="cls-4" d="m111.57,52.14c-6.77-.9-17.63-.96-24.41-.18-6.1.7-7.27,1.63-7.19,3.33.08,1.7-.26,6.79,2.92,8.61,2.74,1.57,29.97,1.78,32.74.26,3.21-1.76,2.97-6.86,3.08-8.55s-1.04-2.65-7.13-3.46Z"/>
              <path class="cls-2" d="m84.58,58.15l.49-.05.24-.03s.08,0,.12-.01c.12-.01.24-.02.36-.05.16-.04.3-.11.42-.22.06-.03.1-.07.14-.12.15-.15.26-.34.32-.55.05-.17.06-.33.03-.5,0-.17-.05-.32-.14-.47-.11-.19-.25-.34-.43-.45-.16-.11-.3-.14-.48-.17-.11-.03-.22-.03-.33,0-.06,0-.12.01-.18.02-.04,0-.08.01-.12.02l-.25.05-.49.09c-.16.04-.3.11-.41.22-.13.09-.24.2-.31.34l-.12.29c-.05.16-.06.33-.03.49,0,.11.03.22.08.31.05.15.13.29.25.4l.24.19c.19.11.39.17.61.17h0Z"/>
              <path class="cls-2" d="m90.22,57.14l.24-.03c.08-.01.16-.02.23-.03.12-.03.24-.11.35-.16l.19-.1c.33-.18.34-.72,0-.9l-.19-.11c-.11-.06-.23-.14-.34-.17-.08-.02-.16-.02-.23-.04l-.24-.04c-.14-.04-.28-.04-.43,0-.14.04-.25.11-.35.21-.15.16-.24.35-.24.57,0,.21.09.43.23.58.1.1.22.17.35.21.14.04.28.04.43,0h0Z"/>
              <path class="cls-3" d="m64.41,67.85c-2.08-.46-3.62-.38-4.83-.38-1.63,0-5.25-.12-6.33,1.54-.96,1.48-.04,2.95,2.76,3.5l.11,8.42s.38,2.17,3.75,1.96,3.33-2.71,3.33-2.71l.04-7.7c1.36-.28,2.43-.75,2.92-1.47.96-1.42.33-2.71-1.75-3.17Z"/>
            </g>
            <path class="cls-3" d="m48.79,53.64c-2.69,3.09-7.01,6.87-6.42,11.43.48,3.79,4.59,6.4,8.11,6.97.43.07.76-.51.32-.76-1.77-.99-3.67-1.63-5.08-3.19-1.8-1.98-1.26-4.37.14-6.4,2.66-3.85,6.39-6.9,9.06-10.77,1.95-2.83,3.13-6.92.66-9.84-1.38-1.62-3.33-2.57-4.34-4.52-1.02-1.97-.79-4.19-.67-6.32.02-.3-.43-.51-.62-.26-2.29,2.95-1.03,7.33,1.32,9.88.81.88,1.88,1.58,2.53,2.6.91,1.43.82,3.15.15,4.67-1.09,2.48-3.4,4.49-5.15,6.5Z"/>
            <path class="cls-3" d="m61.14,49.73c-2.13,1.62-4.09,3.87-4.6,6.58-.4,2.15.19,5.03,2.3,6.07.19.09.49-.07.4-.31-1.26-3.21-1.3-6.07,1.05-8.85,1.68-1.99,4.04-3.24,5.74-5.18,1.61-1.83,1.92-3.95.97-6.21-.54-1.29-1.46-2.28-2.36-3.33-1.4-1.63-2.21-3.33-2.33-5.52-.02-.3-.4-.41-.56-.15-1.64,2.48.33,5.32,1.59,7.53,1.04,1.83,2.56,3.87,1.47,6.04-.74,1.47-2.41,2.36-3.67,3.32Z"/>
            <path class="cls-3" d="m168.79,87.76c-2.89-1.11-12.23-.6-12.23-.6l-53.85-.49-7.85-.07-53.85-.49s-9.33-.68-12.24.38c-2.91,1.06-3.92,5.89.37,6.52,3.69.54,135.47,1.74,139.17,1.26,4.3-.55,3.38-5.4.49-6.51Z"/>
          </g>
        </g>
      </g>
      <rect class="cls-1" width="200" height="200"/>
    </g>
  </g>
</svg>