<?xml version="1.0" encoding="UTF-8"?>
<svg id="Capa_2" data-name="Capa 2" xmlns="http://www.w3.org/2000/svg" viewBox="0 0 200 200">
  <defs>
    <style>
      .cls-1 {
        fill: none;
      }

      .cls-1, .cls-2, .cls-3, .cls-4 {
        stroke-width: 0px;
      }

      .cls-2 {
        fill: #fff;
      }

      .cls-3 {
        fill: #593737;
      }

      .cls-4 {
        fill: #6bb262;
      }
    </style>
  </defs>
  <g id="colorful_icons" data-name="colorful icons">
    <g>
      <g>
        <g>
          <g>
            <path class="cls-3" d="m164.38,99.05c.26-.09,9.51-5.23,16.67-3.6,7.15,1.63,10.36,7.83,6.54,14.41s-9.42,8.32-13.7,9.95c-4.28,1.63-9.51,3.6-9.51,3.6l.09-11.24s9.51-2.32,14.48-5.92c4.34-3.15,1.83-5.57-1.66-5.4s-12.91,4.2-12.91,4.2v-6Z"/>
            <path class="cls-3" d="m36.34,99.05c-.26-.09-9.51-5.23-16.67-3.6-7.15,1.63-10.36,7.83-6.54,14.41,3.77,6.5,9.42,8.32,13.7,9.95s9.51,3.6,9.51,3.6l-.09-11.24s-9.51-2.32-14.48-5.92c-4.34-3.15-1.83-5.57,1.66-5.4,3.49.17,12.91,4.2,12.91,4.2v-6Z"/>
            <path class="cls-4" d="m166.46,121.9c-.11-4.76-.35-9.51-.5-14.26s-.64-17.56-.87-17.97c.03-.2-128.76-.99-128.85-.27-1.82,13.7-1.42,54.48-1.27,60.47.11,4.46.29,9.3,1.89,13.53,1.83,4.82,5.47,8.6,10.36,10.48,4.44,1.71,9.49,2.01,14.21,2.34,5.18.36,10.35.34,15.54.32,8.17-.03,39.95-.05,44.79-.02,9.62.07,19.51.34,28.96-1.69,4.63-.99,9.39-3.61,11.84-7.74,2.62-4.42,3.37-9.51,3.6-14.55.46-10.2.54-20.44.32-30.66Z"/>
          </g>
          <path class="cls-2" d="m46.6,141.91c-.19,2.3-.44,4.64-.36,6.95s.66,4.78,1.63,6.98c.77,1.74,1.96,3.37,3.39,4.62,1.77,1.56,4.26,3.22,6.65,2,1.07-.55,1.38-2.05.8-3.04-.47-.81-1.35-1.43-2.17-1.85-.36-.18-.7-.4-1.04-.61-.11-.07-.33-.23-.1-.06-.18-.14-.35-.29-.51-.44-1.18-1.08-1.78-1.98-2.55-3.54-.08-.16-.16-.33-.23-.5.13.3-.04-.13-.07-.2-.17-.49-.33-.98-.47-1.48-.25-.94-.42-1.9-.59-2.86-.36-1.97-.39-3.96-.4-5.96-.01-2.59-3.77-2.52-3.98,0h0Z"/>
          <path class="cls-2" d="m63.42,163.05l.99-.07.48-.04s.07,0,.11,0c.31-.03.58-.1.82-.33.09-.09.16-.21.23-.31.17-.25.17-.68,0-.93-.07-.1-.15-.23-.23-.31-.14-.14-.3-.23-.49-.28-.06-.01-.12-.02-.18-.03-.09-.01-.17-.02-.25-.03l-.48-.04-.99-.07c-.17,0-.33.03-.47.11-.15.05-.28.13-.39.25-.21.21-.37.56-.36.87s.12.65.36.87.54.38.87.36h0Z"/>
        </g>
        <path class="cls-3" d="m100.71,65.76c1.99,2.38,3.27,5.25,2.85,8.4-.46,3.48-2.52,6.47-4.68,9.13-.39.48.23,1.15.69.69,3.92-3.85,7.63-8.84,6.68-14.66-.93-5.65-5.73-9.3-9.86-12.72-2.26-1.87-4.6-3.84-6.08-6.41-1.58-2.74-1.9-6-1.46-9.1.95-6.56,4.82-11.98,8.07-17.58.33-.57-.43-1.14-.9-.69-8.25,7.73-15.99,20.55-7.86,31.23,3.51,4.61,8.85,7.27,12.55,11.71Z"/>
        <path class="cls-3" d="m75.15,69.59c2.15,1.39,4.9,2.89,5.01,5.8.11,2.89-2.06,5.78-3.67,8.01-.31.44.36.9.72.56,3.2-3.03,6.64-7.55,3.94-12.04-2.44-4.05-9.49-5.33-8.83-11.05.06-.49-.67-.77-.98-.41-2.92,3.43.96,7.28,3.81,9.12Z"/>
        <path class="cls-3" d="m129.1,69.83c-.12,5.05-2.76,9.12-4.34,13.75-.07.21.24.4.38.22,4.95-5.97,9-15.71,5.28-23.19-1.81-3.64-5.17-6.45-6.37-10.41-1.36-4.47.94-8,2.48-12,.22-.57-.53-1.08-1.01-.78-3.09,1.93-4.73,5.97-5.2,9.45-.58,4.32.88,7.78,3.43,11.18,2.69,3.58,5.47,7.03,5.36,11.78Z"/>
      </g>
      <rect class="cls-1" width="200" height="200"/>
    </g>
  </g>
</svg>