<?xml version="1.0" encoding="UTF-8"?>
<svg id="Capa_2" xmlns="http://www.w3.org/2000/svg" viewBox="0 0 243.3 243.3">
  <defs>
    <style>
      .cls-1 {
        fill: #a36545;
      }

      .cls-2 {
        fill: #fff;
      }

      .cls-3 {
        fill: none;
      }

      .cls-4 {
        fill: #e09d3e;
      }

      .cls-5 {
        fill: #4f3535;
      }

      .cls-6 {
        fill: #f7bc3b;
      }

      .cls-7 {
        fill: #fce1a9;
      }
    </style>
  </defs>
  <g id="grocery_icons">
    <g>
      <rect class="cls-3" width="243.3" height="243.3"/>
      <g>
        <path class="cls-6" d="M230.85,229.65c-.92-2.32-2.24-4.31-3.67-6.45-2.73-4.07-1.17-7.44-.27-12.24,1.53-8.12,2.94-16.21,3.82-24.43,1.87-17.42,2.09-34.97,1.05-52.45-2.06-34.67-8.76-73.95-14.76-108.08,1.52-1.9,7.84-12.08,7.72-13.17-.13-1.14-.95-2.01-2.07-2.23-13.38-2.66-39.17-3.05-52.74-3.01-14.31.05-34.52-2.05-48.82-1.63-28.56.85-105.76,1.81-102.58,7.65,1.54,2.83,6.46,12.77,7.98,14.68-6,34.13-9.86,71.12-11.9,105.79-1.03,17.49-.81,35.02,1.05,52.45.88,8.22,2.3,16.31,3.82,24.43.89,4.75.12,8.29-2.54,12.24-.99,1.47-1.98,2.96-2.8,4.54-.99,1.91-1.79,3.93-.87,6.03.38.86.96,1.46,1.94,1.49,35.72.97,87.47-1.14,123.21-.9,13.67.09,27.31.52,40.97.96,12.39.4,38.06,1.4,50.31-.98,2.21-.43,2.42-3.35,1.12-4.69Z"/>
        <path class="cls-2" d="M208.37,130.59c-14-36.27-83.3-48.26-130.72-30.61-34.18,12.71-51.81,40.59-39.26,64.83,10.77,20.81,42.17,33.63,75.17,36.1,36.69,2.76,72.89-7.27,88.36-29.52,8.78-12.63,11.66-27.31,6.45-40.8Z"/>
        <path class="cls-5" d="M51.46,11.14c1.12,2.91,2.48,5.68,4.11,8.35.8,1.3,1.65,2.57,2.54,3.81s1.73,2.62,3.07,3.33c.22.12.52-.08.44-.34-.45-1.38-1.53-2.49-2.37-3.65-.89-1.24-1.73-2.51-2.53-3.82-1.58-2.6-3-5.33-4.25-8.1-.26-.57-1.24-.16-1.01.43h0Z"/>
        <path class="cls-5" d="M67.39,11.39c.68,2.04,1.34,4.09,1.95,6.16s1.08,4.1,2.07,5.97c.15.28.61.15.6-.16-.1-2.11-.81-4.14-1.44-6.15-.65-2.05-1.33-4.1-2.05-6.13-.25-.71-1.38-.41-1.13.31h0Z"/>
        <path class="cls-5" d="M78.7,10.27c.53,2.85,1.1,5.69,1.72,8.52.3,1.36.6,2.72.92,4.08.28,1.18.4,3.06,1.42,3.85.22.17.62.22.77-.1.56-1.18-.08-2.73-.37-3.92-.34-1.4-.7-2.8-1.06-4.2-.74-2.85-1.54-5.68-2.36-8.51-.19-.67-1.15-.38-1.03.28h0Z"/>
        <path class="cls-5" d="M103,11.43c.13,2.49.35,4.97.67,7.44.15,1.21.31,2.42.53,3.61.2,1.12.31,2.52,1.13,3.38.33.35.88.15,1.02-.27.36-1.03-.07-2.32-.26-3.35-.22-1.2-.46-2.41-.66-3.61-.41-2.39-.71-4.79-.94-7.21-.09-.94-1.54-.97-1.49,0h0Z"/>
        <path class="cls-5" d="M124.32,25.43c.13-2.79-.05-5.59-.2-8.38-.16-2.96-.26-6.01-.75-8.94-.06-.37-.69-.37-.75,0-.47,2.91-.2,6.01-.03,8.94.16,2.79.34,5.59.22,8.38-.04.97,1.46.97,1.51,0h0Z"/>
        <path class="cls-5" d="M131.84,8.02c.25,2.95.12,5.96.08,8.92s-.32,6.02.44,8.81c.15.55.92.4.96-.13.21-2.92.08-5.87.05-8.8s.03-5.89-.29-8.8c-.09-.78-1.31-.8-1.24,0h0Z"/>
        <path class="cls-5" d="M155.73,9.16c-.08,2.73-.1,5.46-.13,8.19-.01,1.37-.04,2.74-.04,4.11,0,1.23-.15,2.75.31,3.91.12.31.64.49.81.11.52-1.16.43-2.62.45-3.87.02-1.37-.01-2.74-.02-4.1-.02-2.78-.05-5.56,0-8.34.01-.89-1.35-.88-1.37,0h0Z"/>
        <path class="cls-5" d="M168.84,8.59c-.81,3.21-1.46,6.46-1.98,9.73-.45,2.8-1.08,5.87-.56,8.7.04.24.42.29.53.07,1.21-2.59,1.35-5.67,1.75-8.47.46-3.23.99-6.45,1.67-9.64.2-.92-1.18-1.31-1.41-.39h0Z"/>
        <path class="cls-5" d="M200.96,9.71c-.6,2.69-1.3,5.34-1.89,8.03-.29,1.32-.6,2.64-.84,3.97-.2,1.11-.67,2.68-.12,3.73.15.28.5.27.71.09.48-.39.64-1,.83-1.56.22-.67.39-1.34.55-2.03.3-1.27.53-2.55.78-3.83.53-2.66.94-5.33,1.46-7.99.19-.97-1.28-1.39-1.5-.41h0Z"/>
        <path class="cls-5" d="M213.32,10.86c-.87,2.16-1.8,4.3-2.69,6.45-.84,2.04-2.1,4.17-2.07,6.44,0,.36.41.49.66.27,1.76-1.49,2.46-3.99,3.26-6.08.84-2.21,1.49-4.46,2.1-6.74.22-.83-.96-1.11-1.26-.35h0Z"/>
        <path class="cls-5" d="M28.43,219.27c-.47,1.23-.85,2.44-1.47,3.62-.67,1.27-1.33,2.55-2.01,3.82-.64,1.21-1.23,2.47-1.75,3.74-.44,1.06-1.05,2.47-.69,3.63.09.3.46.31.63.08.72-.97,1-2.36,1.49-3.46.59-1.31,1.28-2.57,1.91-3.86s1.23-2.46,1.7-3.76c.42-1.16.93-2.46.92-3.71,0-.45-.59-.49-.74-.1h0Z"/>
        <path class="cls-5" d="M56.22,222.03c-.39,2.17-.77,4.34-1.14,6.51-.19,1.12-.36,2.24-.53,3.37-.15,1-.35,2.1-.06,3.09.11.37.57.39.77.1.57-.82.72-1.89.87-2.85.18-1.13.36-2.25.51-3.39.29-2.16.57-4.32.87-6.47.12-.84-1.15-1.23-1.3-.36h0Z"/>
        <path class="cls-5" d="M91.33,221.44c-.07,2.12-.16,4.24-.22,6.37-.03,1.06-.01,2.12-.02,3.18,0,1.05-.01,2.09.36,3.08.19.51.85.51,1.05,0,.38-.99.36-2.03.36-3.08,0-1.06.01-2.12-.02-3.18-.06-2.12-.15-4.24-.22-6.37-.03-.83-1.26-.83-1.29,0h0Z"/>
        <path class="cls-5" d="M106.13,221.43c.08,2.25.06,4.5.07,6.75s-.28,4.54.36,6.64c.16.54.84.47,1.03,0,.82-2.04.6-4.48.53-6.64s-.32-4.51-.62-6.75c-.11-.85-1.41-.91-1.37,0h0Z"/>
        <path class="cls-5" d="M217.26,219.96c1.32,2.51,2.59,5.05,3.97,7.52.69,1.23,1.37,2.48,2.08,3.7.64,1.11,1.29,2.53,2.33,3.3.41.3,1.11-.1,1.05-.6-.14-1.28-1.05-2.58-1.68-3.69-.71-1.23-1.44-2.44-2.16-3.66-1.44-2.44-3-4.81-4.5-7.21-.43-.69-1.47-.08-1.09.64h0Z"/>
        <path class="cls-5" d="M209,222.37c.79,1.9,1.52,3.82,2.18,5.77.32.96.61,1.93.92,2.89.26.8.53,2.15,1.35,2.53.21.1.43.05.56-.15.51-.78,0-2.03-.25-2.84-.32-1-.69-1.98-1.06-2.96-.74-1.96-1.54-3.89-2.41-5.79-.33-.72-1.61-.2-1.3.55h0Z"/>
        <path class="cls-5" d="M189.59,220.68c-.1,2.55-.07,5.1.21,7.64.25,2.32.31,5.18,1.87,7.03.22.26.66.11.74-.2.11-.46.23-1.01.2-1.48-.03-.63-.15-1.29-.26-1.92-.21-1.19-.44-2.37-.61-3.56-.35-2.49-.62-5-.74-7.52-.04-.91-1.38-.92-1.42,0h0Z"/>
        <path class="cls-5" d="M177.01,222.05c.34,1.97.68,3.93,1.01,5.9l.5,2.89c.15.88.23,2.08.96,2.69.26.22.65.21.84-.11.5-.87.15-2.03-.03-2.95s-.36-1.92-.54-2.88c-.38-1.99-.75-3.99-1.13-5.98-.2-1.06-1.78-.6-1.6.44h0Z"/>
        <path class="cls-5" d="M157.13,222.95c.22,1.8.44,3.6.66,5.4.11.88.25,1.76.39,2.64.14.9.16,1.9.83,2.57.25.25.73.22.91-.12.23-.45.27-.79.23-1.29s-.13-.96-.21-1.44c-.14-.87-.26-1.73-.42-2.6-.33-1.79-.67-3.57-1.01-5.36-.14-.76-1.47-.6-1.37.19h0Z"/>
        <path class="cls-5" d="M138.25,222.37c.54,2.27.92,4.57,1.1,6.89.09,1.13.14,2.27.16,3.4.03,1.02-.17,2.3.58,3.11.17.19.48.17.66,0,.8-.76.62-2.11.59-3.11-.04-1.22-.16-2.43-.32-3.64-.32-2.37-.82-4.71-1.51-7-.24-.81-1.46-.47-1.26.35h0Z"/>
        <path class="cls-5" d="M125.31,222.2c-.08,1.77-.16,3.54-.23,5.31-.04.89-.04,1.77-.04,2.66,0,.88.03,1.79.47,2.56.23.4.83.4,1.05,0,.44-.77.47-1.68.47-2.56s0-1.77-.04-2.66c-.07-1.77-.15-3.54-.23-5.31-.04-.93-1.4-.93-1.44,0h0Z"/>
        <path class="cls-5" d="M28.56,33.17c23.45-2.95,46.98-4.75,70.61-5.28,25.63-.58,51.3-.51,76.91.84,6.58.35,13.15.83,19.71,1.44,3.08.29,6.16.61,9.24.96,1.42.16,2.83.36,4.25.51,1.62.17,3.02.04,4.62-.25,1.5-.27,1.8-2.66.43-3.32-1.27-.62-2.43-1.09-3.83-1.34s-2.91-.37-4.35-.54c-2.67-.31-5.33-.6-8-.86-5.8-.57-11.61-1.02-17.41-1.45-12.56-.93-25.15-1.57-37.74-1.72-25.73-.32-51.44.56-77.08,2.81-12.66,1.11-25.32,2.48-37.79,4.93-1.82.36-1.44,3.52.44,3.28h0Z"/>
        <path class="cls-5" d="M223.91,214.85c-25.77,1.43-51.51,2.6-77.33,2.81-27.82.23-55.65.22-83.47-.51-7.17-.19-14.34-.47-21.51-.84-3.38-.17-6.76-.36-10.14-.57-3.38-.21-6.61-.58-9.94.15-1.9.42-1.54,2.92,0,3.5,2.85,1.08,5.77,1.16,8.78,1.35,3.02.19,6.05.37,9.07.53,6.25.33,12.51.59,18.76.86,13.67.59,27.35,1.03,41.03,1.1,27.83.15,55.62-.47,83.41-1.89,13.8-.71,27.6-1.53,41.33-3.16,2.08-.25,2.19-3.47,0-3.34h0Z"/>
        <g>
          <path class="cls-5" d="M65.96,58.51c-.22,2.7-.48,5.46-.79,8.27-.3,2.81-.71,5.46-1.22,7.94-.13.6-.3,1.03-.52,1.29-.22.25-.54.43-.95.52-.35.06-.83-.05-1.45-.33-.62-.29-1.14-.7-1.55-1.24-.54-.73-1.12-1.53-1.74-2.41-.62-.87-1.29-1.76-2-2.67s-1.46-1.8-2.24-2.69c-.78-.89-1.6-1.72-2.46-2.48-.1,2.1-.17,4.17-.24,6.22-.06,2.05-.06,4.11,0,6.17,0,.29-.25.43-.76.43-.6,0-1.1-.31-1.48-.93s-.6-1.25-.67-1.88c-.1-.64-.14-1.55-.14-2.74s.02-2.44.07-3.74c.05-1.3.1-2.56.17-3.77.06-1.21.13-2.16.19-2.86.06-.76.25-1.32.55-1.67.3-.35.6-.51.88-.48.64.06,1.06.25,1.26.55.21.3.33.68.36,1.12,1.14.83,2.2,1.72,3.17,2.67.97.95,1.86,1.92,2.67,2.91.81.99,1.56,1.96,2.24,2.93s1.33,1.85,1.93,2.65c.38-1.91.69-4.04.93-6.39.24-2.35.48-4.82.74-7.39-.03-.32.16-.63.57-.93.41-.3.79-.44,1.14-.41.89.06,1.33.51,1.33,1.33Z"/>
          <path class="cls-5" d="M85.84,60.13c.13.57.25,1.25.38,2.03.13.78.21,1.59.26,2.43.05.84.06,1.71.02,2.6-.03.89-.13,1.75-.29,2.57-.19.95-.57,1.83-1.14,2.62-.57.79-1.27,1.51-2.1,2.15-.79.64-1.68,1.15-2.65,1.55-.97.4-1.94.68-2.91.86-.97.17-1.92.21-2.86.09-.94-.11-1.77-.37-2.5-.79-.83-.48-1.49-1.1-2-1.86-.51-.76-.73-1.7-.67-2.81.06-1.08.16-2.07.29-2.98.13-.91.29-1.77.5-2.6.21-.83.44-1.66.69-2.5.25-.84.52-1.72.81-2.65.16-.41.44-.65.86-.71.16-.03.35-.03.57,0,.1,0,.23.06.41.17.17.11.34.26.5.45.16.19.29.41.41.67.11.25.12.54.02.86-.29,1.02-.57,2.05-.86,3.1s-.53,2.05-.74,3c-.21.95-.33,1.8-.38,2.55-.05.75.02,1.33.21,1.74.41.6.98.99,1.69,1.17.72.18,1.47.2,2.26.07.79-.13,1.57-.34,2.31-.64.75-.3,1.39-.63,1.93-.98.86-.57,1.49-1.29,1.88-2.15.4-.86.64-1.8.74-2.81.1-1.02.09-2.08-.02-3.19-.11-1.11-.26-2.21-.45-3.29-.06-.29-.05-.65.05-1.1.1-.44.35-.79.76-1.05.44-.25.85-.22,1.22.1.37.32.63.76.79,1.33Z"/>
          <path class="cls-5" d="M98.38,65.43c-.16,0-.36-.02-.6-.07-.24-.05-.46-.13-.67-.24-.21-.11-.39-.25-.55-.43-.16-.17-.24-.36-.24-.55,0-.25.15-.56.45-.93.3-.37.8-.64,1.5-.83.95-.22,1.95-.36,3-.41,1.05-.05,2.1-.05,3.15,0,1.05.05,2.08.11,3.1.19,1.02.08,1.97.14,2.86.17.51,0,.84.09,1,.29.16.19.24.41.24.67,0,.57-.25,1.02-.76,1.33-.51.32-1.02.46-1.53.43-.54-.03-1.1-.05-1.69-.05h-1.84c0,.89.04,1.88.12,2.98.08,1.1.17,2.2.26,3.31.1,1.11.2,2.18.31,3.19.11,1.02.21,1.88.31,2.58.06.25,0,.48-.17.69-.17.21-.44.31-.79.31-.67,0-1.16-.41-1.48-1.24-.6-1.56-1.03-3.34-1.29-5.34-1.72,1.05-3.4,1.7-5.05,1.95-1.65.25-3.14.2-4.46-.17-1.32-.36-2.38-1-3.19-1.91-.81-.91-1.22-2.01-1.22-3.31s.22-2.57.67-4c.44-1.43,1.08-2.81,1.91-4.15.83-1.33,1.8-2.55,2.93-3.65,1.13-1.1,2.39-1.93,3.79-2.5.48-.13.93-.15,1.36-.07s.83.24,1.19.48c.37.24.7.52,1,.86.3.33.56.66.79.98.16.22.25.46.29.72.03.25-.06.49-.29.71-.48.35-.89.32-1.24-.1-.54-.67-.99-1.07-1.36-1.22-.37-.14-.87,0-1.5.41-.64.45-1.33,1.12-2.1,2.03-.76.91-1.47,1.91-2.12,3-.65,1.1-1.17,2.23-1.55,3.39-.38,1.16-.51,2.23-.38,3.22.1.86.57,1.47,1.43,1.84.86.37,1.84.53,2.93.5,1.1-.03,2.19-.24,3.29-.62,1.1-.38,1.95-.89,2.55-1.53-.03-.54-.06-1.09-.1-1.64-.03-.56-.05-1.1-.05-1.64-.7.06-1.4.12-2.1.17-.7.05-1.41.12-2.15.21Z"/>
          <path class="cls-5" d="M122.17,65.43c-.16,0-.36-.02-.6-.07-.24-.05-.46-.13-.67-.24-.21-.11-.39-.25-.55-.43-.16-.17-.24-.36-.24-.55,0-.25.15-.56.45-.93.3-.37.8-.64,1.5-.83.95-.22,1.95-.36,3-.41,1.05-.05,2.1-.05,3.15,0,1.05.05,2.08.11,3.1.19,1.02.08,1.97.14,2.86.17.51,0,.84.09,1,.29.16.19.24.41.24.67,0,.57-.25,1.02-.76,1.33-.51.32-1.02.46-1.53.43-.54-.03-1.1-.05-1.69-.05h-1.84c0,.89.04,1.88.12,2.98.08,1.1.17,2.2.26,3.31.1,1.11.2,2.18.31,3.19.11,1.02.21,1.88.31,2.58.06.25,0,.48-.17.69-.17.21-.44.31-.79.31-.67,0-1.16-.41-1.48-1.24-.6-1.56-1.03-3.34-1.29-5.34-1.72,1.05-3.4,1.7-5.05,1.95-1.65.25-3.14.2-4.46-.17-1.32-.36-2.38-1-3.19-1.91-.81-.91-1.22-2.01-1.22-3.31s.22-2.57.67-4c.44-1.43,1.08-2.81,1.91-4.15.83-1.33,1.8-2.55,2.93-3.65,1.13-1.1,2.39-1.93,3.79-2.5.48-.13.93-.15,1.36-.07s.83.24,1.19.48c.37.24.7.52,1,.86.3.33.56.66.79.98.16.22.25.46.29.72.03.25-.06.49-.29.71-.48.35-.89.32-1.24-.1-.54-.67-.99-1.07-1.36-1.22-.37-.14-.87,0-1.5.41-.64.45-1.33,1.12-2.1,2.03-.76.91-1.47,1.91-2.12,3-.65,1.1-1.17,2.23-1.55,3.39-.38,1.16-.51,2.23-.38,3.22.1.86.57,1.47,1.43,1.84.86.37,1.84.53,2.93.5,1.1-.03,2.19-.24,3.29-.62,1.1-.38,1.95-.89,2.55-1.53-.03-.54-.06-1.09-.1-1.64-.03-.56-.05-1.1-.05-1.64-.7.06-1.4.12-2.1.17-.7.05-1.41.12-2.15.21Z"/>
          <path class="cls-5" d="M151.78,66.19c.13.32,0,.63-.38.93-.38.3-.99.5-1.81.6-1.43.19-2.89.39-4.39.6-1.49.21-3.02.42-4.58.64-.06,1.62-.06,3.24,0,4.86.73,0,1.61-.07,2.65-.21,1.03-.14,2.09-.33,3.17-.55s2.12-.45,3.12-.69c1-.24,1.85-.44,2.55-.6.35-.1.72-.17,1.1-.21s.72-.05,1.02,0c.3.05.55.17.74.36.19.19.29.46.29.81,0,.1-.11.24-.33.43-.22.19-.5.39-.83.6-.33.21-.68.4-1.05.57-.37.17-.69.31-.98.41-1.97.64-3.91,1.18-5.82,1.64s-3.77.71-5.58.74c-1.05.03-1.84-.25-2.38-.83-.54-.59-.83-1.44-.86-2.55-.06-1.56-.06-3.13,0-4.72-.54-.32-.81-.76-.81-1.33.06-.6.35-1.02.86-1.24.06-.92.11-1.85.14-2.79.03-.94.08-1.87.14-2.79-.35-.06-.66-.24-.93-.52-.27-.29-.41-.6-.41-.95,0-.29.06-.55.19-.79.13-.24.36-.42.71-.55.57-.13,1.27-.27,2.1-.43.83-.16,1.68-.3,2.55-.43.87-.13,1.72-.24,2.53-.33.81-.09,1.5-.16,2.07-.19.67-.06,1.31,0,1.93.19s1.2.56,1.74,1.1c.13.45.04.78-.26,1-.3.22-.69.37-1.17.43-.48.06-1.05.14-1.72.21-.67.08-1.36.17-2.07.26s-1.43.18-2.15.26-1.39.17-2.03.26c0,.06,0,.14.02.21.02.08.02.15.02.21-.06.83-.11,1.65-.14,2.48-.03.83-.06,1.65-.1,2.48,1.33-.22,2.7-.42,4.1-.6,1.4-.17,2.51-.29,3.34-.36.67-.06,1.32.02,1.95.24.64.22,1.21.6,1.72,1.14Z"/>
          <path class="cls-5" d="M177,59.04c-3.27-.16-6.42.1-9.44.76-3.02.67-6.01,1.57-8.96,2.72-.76.29-1.34.25-1.74-.1-.4-.35-.6-.7-.6-1.05.22-.6.62-1.1,1.19-1.48,6.52-3.18,13.03-4.35,19.55-3.53.32.1.58.33.79.69.21.37.28.68.21.93-.06.32-.16.58-.29.79-.13.21-.37.29-.72.26ZM170.23,75.68c0,.35-.12.66-.36.93-.24.27-.53.44-.88.5-.64.09-1.05-.02-1.24-.33-.19-.32-.3-.68-.33-1.1-.03-2.22-.07-4.44-.12-6.65-.05-2.21-.15-4.43-.31-6.65,0-.13-.02-.28-.05-.45-.03-.17-.03-.35,0-.52.03-.17.1-.33.21-.45.11-.13.29-.22.55-.29.73-.13,1.25,0,1.57.36.32.37.48.72.48,1.07.25,2.29.41,4.56.48,6.82.06,2.26.06,4.51,0,6.77Z"/>
          <path class="cls-5" d="M193.4,57.7c-.13.16-.36.28-.69.36-.33.08-.68,0-1.02-.26-.25-.19-.56-.39-.91-.6-.35-.21-.73-.41-1.14-.6s-.83-.35-1.24-.48c-.41-.13-.81-.19-1.19-.19-.48,0-.98.11-1.5.33-.52.22-.98.54-1.36.95-.73.79-.99,1.57-.79,2.31.21.75.75,1.44,1.64,2.07.57.41,1.19.83,1.86,1.26.67.43,1.33.85,1.98,1.26.65.41,1.27.81,1.86,1.19.59.38,1.1.71,1.55,1,.57.38,1.11.79,1.62,1.24.51.45.95.95,1.33,1.5.38.56.68,1.18.91,1.88.22.7.33,1.49.33,2.38-.22,1.75-.91,3.14-2.07,4.17-1.16,1.03-2.5,1.69-4.03,1.98-1.33.25-2.65.21-3.93-.14-1.29-.35-2.38-1.02-3.27-2-.22-.25-.41-.6-.57-1.05-.16-.45-.18-.76-.05-.95.19-.29.52-.48,1-.6.48-.11.84-.09,1.1.07.73.67,1.59,1.15,2.57,1.45.98.3,2.02.33,3.1.07.83-.19,1.49-.55,2-1.07.51-.52.83-1.12.95-1.79.16-.7.07-1.42-.26-2.17-.33-.75-.93-1.42-1.79-2.03-1.3-.99-2.69-1.91-4.17-2.77s-2.98-1.84-4.51-2.96c-.73-.64-1.26-1.33-1.6-2.1-.33-.76-.5-1.51-.5-2.24s.16-1.49.48-2.17c.32-.68.76-1.3,1.33-1.86.57-.56,1.24-1.01,2-1.36.76-.35,1.6-.56,2.53-.62,1.27-.06,2.5.2,3.67.79,1.18.59,2.13,1.31,2.86,2.17.16.19.23.43.21.71-.02.29-.12.56-.31.81Z"/>
        </g>
        <path class="cls-5" d="M35.05,11.8c1.25,3.14,2.81,6.16,4.2,9.24.7,1.55,1.37,3.1,2.04,4.66.6,1.4,1.11,3.44,2.3,4.43.32.26.74.08.78-.32.15-1.51-.91-3.27-1.5-4.62-.67-1.55-1.38-3.09-2.1-4.63-1.45-3.11-2.88-6.28-4.72-9.18-.31-.49-1.23-.18-.99.42h0Z"/>
        <path class="cls-5" d="M43.33,221.11c-.59,2.2-1.24,4.39-1.82,6.59-.27,1.02-.55,2.04-.85,3.05-.32,1.11-.86,2.34-.6,3.51.09.37.56.46.82.22.85-.79,1.08-2.1,1.37-3.18s.57-2.11.83-3.17c.55-2.22.89-4.49,1.27-6.75.11-.66-.84-.96-1.03-.28h0Z"/>
        <path class="cls-5" d="M30.33,81.55c1-.31,2.03-.56,3.06-.73.13-.02.26-.04.4-.06.1-.01.44-.11.04,0,.25-.07.54-.06.79-.09.36-.04.74-.11,1.08-.21.38-.11.72-.4.99-.68.26-.26.37-.61.32-.98-.05-.39-.25-.62-.55-.85-.34-.26-.72-.43-1.16-.46-.38-.03-.73-.01-1.11.04-.53.08-1.05.17-1.57.29-1.04.23-2.07.54-3.07.91-.72.27-1.28,1-1.02,1.8.24.73,1.02,1.27,1.8,1.02h0Z"/>
        <path class="cls-5" d="M30.94,91.25c.31-.11.62-.2.94-.27.16-.04.32-.07.48-.09.07-.01.14-.03.21-.03-.26.02,0,0,.06,0,.31-.03.63-.03.94-.05.16-.01.33,0,.49-.02.21-.01.4-.07.6-.11.59-.13.7-1.02.17-1.3-.19-.1-.38-.21-.58-.26-.22-.05-.45-.08-.68-.1-.32-.04-.65-.03-.98,0-.73.04-1.47.16-2.17.37-.49.14-.85.69-.68,1.2.15.48.68.86,1.2.68h0Z"/>
        <path class="cls-5" d="M206.27,51.75c1.27-.04,2.53-.16,3.78-.34.56-.08,1.08-.25,1.62-.43.21-.07.43-.14.63-.25.21-.11.39-.3.58-.45.24-.19.5-.37.64-.66.28-.58.11-1.13-.4-1.51-.24-.18-.56-.22-.84-.29-.35-.09-.69-.16-1.06-.14-.66.03-1.3.06-1.97.15l.49-.07c-1.15.15-2.31.24-3.48.26-.97.02-1.91.85-1.86,1.86s.82,1.89,1.86,1.86h0Z"/>
        <path class="cls-5" d="M210.81,66.15c.49-.01.97,0,1.46.03.2.01.54-.01.73.07-.23-.03-.26-.03-.09-.01.05,0,.1.02.15.02.12.02.24.04.36.06.58.11,1.12.27,1.71.28.46,0,.91.07,1.37.04.83-.05,1.19-.97.66-1.59-.37-.42-.86-.74-1.33-1.04-.51-.33-1.08-.46-1.67-.58-1.1-.23-2.23-.35-3.35-.34-.8,0-1.57.7-1.53,1.53s.67,1.56,1.53,1.53h0Z"/>
        <g>
          <path class="cls-2" d="M75.68,130.79l.1-.14s.03-.04.05-.07c.01-.02.02-.05.03-.07.01-.02.02-.05.03-.07,0,0,0,0,0,0v-.02s.01-.01.01-.02c0,0,0,0,0,0,.01-.02.01-.05.01-.08,0-.03.01-.05,0-.08,0-.08-.01-.15-.05-.22-.02-.07-.06-.13-.12-.18l-.12-.09c-.09-.05-.18-.08-.29-.08h0c-.05,0-.1.01-.15.02l-.14.06h0s-.01,0-.02.01c-.01,0-.03.01-.04.02s-.02.02-.03.02l-.04.03-.14.1c-.1.06-.17.13-.23.23-.06.1-.09.21-.09.32l.02.17c.03.11.09.2.17.28.06.06.13.11.21.13.08.04.16.06.25.06.12,0,.22-.03.32-.09.1-.06.17-.13.23-.23h0Z"/>
          <g>
            <g>
              <path class="cls-4" d="M158.2,126.9c-2.5-3.93-6.16-5.32-10.42-6.64-4.68-1.45-7.22-5.68-11.58-7.74-4.41-2.09-9.3-2.86-14.12-3.31-11.03-1.03-22.01.6-32.94,1.88-4.95.58-9.94,1.19-14.71,2.7-4.93,1.56-9.32,4.27-13.36,7.44-7.1,5.56-15.84,12.73-17.35,22.17-.66,4.16.03,9.34,3.69,11.99,1.7,1.23,3.58,1.37,5.52,1.96,2.31.71,3.85,2.52,5.62,4.07,7.26,6.35,16.87,5.92,25.85,4.71,6.16-.83,12.33-2.04,18.56-1.99,6.08.05,12.13,1.38,18.22.66,5.83-.69,11.18-3.35,16.48-5.71,4.03-1.8,7.97-3.78,11.93-5.74,9.53-4.72,14.79-16.77,8.62-26.45Z"/>
              <path class="cls-1" d="M55.32,147.78c5.11,4.29,11.48,7.11,18.07,8.09,3.26.48,6.56.45,9.82,0s6.95-1.18,9.67-3c.61-.41.25-1.45-.52-1.23-1.57.44-3.05,1.14-4.61,1.61-1.44.43-2.92.76-4.4,1-3.16.5-6.38.49-9.56.18-6.52-.64-12.74-3.11-17.81-7.29-.46-.38-1.11.27-.65.65h0Z"/>
              <path class="cls-1" d="M65.67,131.16l.13-.52c.02-.08.04-.17.06-.25.04-.16.03-.3.02-.46,0-.12-.03-.25-.1-.35l-.11-.14c-.06-.07-.14-.12-.23-.14-.05-.03-.11-.05-.18-.05-.06-.02-.12-.02-.19,0-.06,0-.12.02-.18.05-.09.03-.16.08-.23.14-.09.11-.2.22-.27.34-.05.09-.09.2-.13.3l-.05.12-.21.51c-.04.11-.04.23-.02.34,0,.11.04.22.1.32.05.1.13.18.22.24.08.07.18.13.29.15.22.05.46.04.65-.09s.33-.29.39-.51h0Z"/>
              <path class="cls-1" d="M75.86,122.93c.86,0,.86-1.33,0-1.33s-.86,1.33,0,1.33h0Z"/>
              <path class="cls-1" d="M84.87,137.04c.98,0,.98-1.52,0-1.52s-.98,1.52,0,1.52h0Z"/>
              <path class="cls-1" d="M100.88,117.67c.34,0,.68,0,1.02-.03.21-.02.44-.03.65-.07.16-.03.32-.07.48-.11.22-.05.41-.29.4-.52s-.16-.47-.4-.52c-.16-.04-.32-.08-.48-.11-.21-.04-.43-.05-.65-.07-.34-.04-.68-.03-1.02-.03-.39,0-.76.35-.74.74s.33.75.74.74h0Z"/>
              <path class="cls-1" d="M97.55,128.05c1,0,1-1.55,0-1.55s-1,1.55,0,1.55h0Z"/>
              <path class="cls-1" d="M116.56,132.9c.8,0,.81-1.25,0-1.25s-.81,1.25,0,1.25h0Z"/>
              <path class="cls-1" d="M121.9,119.8c1.13,0,1.13-1.75,0-1.75s-1.13,1.75,0,1.75h0Z"/>
              <path class="cls-1" d="M133.08,126.21l.32-.06.14-.06c.07-.04.12-.09.16-.15.04-.04.06-.08.07-.13.04-.07.05-.14.05-.22l-.02-.15-.06-.14c-.04-.07-.09-.12-.15-.16-.06-.05-.12-.08-.19-.1l-.32-.06c-.11-.03-.22-.03-.34,0-.11.03-.2.08-.28.16l-.1.13c-.06.1-.09.2-.09.32,0,.09.01.17.05.24.03.08.07.15.13.2.08.08.17.13.28.16.11.03.22.03.34,0h0Z"/>
              <path class="cls-1" d="M54.84,159.88c4.07,2.83,6.92,6.55,12.01,7.67,5.09,1.12,10.46.38,15.56-.21,3.08-.36,8.06-2.21,11.14-2.56s5.28-.29,8.12-1.17c1.06-.33-.15-.47-1.24-.53-2.56-.15-5.27.44-7.81.76-2.6.33-5.21.66-7.81,1-4.85.62-9.85,1.49-14.75,1.1-5.33-.42-8.59-3.15-12.58-6.34-1.42-1.14-2.9-2.12-4.59-2.8-2.61-1.06-7.59-3.36-8.75-6.34-.38-.98.21,2.09.88,2.94,2,2.51,6.22,4,9.82,6.51Z"/>
              <path class="cls-5" d="M158.2,126.9c-.04-.06-.08-.1-.12-.16-2.37.35-8.33,1.47-11.49,4.37-4,3.67-8.34,4.17-15.51,4.84-7.17.67-17.02,4-21.19,7.84-4.17,3.84-12.18,9.51-12.85,12.34-.36,1.54-.77,5.29-1.07,8.4,2.32-.25,4.65-.41,6.98-.39,6.08.05,12.13,1.38,18.22.66,5.83-.69,11.18-3.35,16.48-5.71,4.03-1.8,7.97-3.78,11.93-5.74,9.53-4.72,14.79-16.77,8.62-26.45Z"/>
            </g>
            <g>
              <g>
                <path class="cls-4" d="M199.82,147.17c-3.19-8.44-10.76-13.75-19.3-15.96-4.85-1.26-9.89-1.68-14.88-1.98-4.62-.28-9.64-.59-13.68,2.1-1.98,1.32-3.39,3.54-5.53,4.59-2.11,1.04-4.57,1.01-6.87,1.11-5.6.25-10.96,1.61-16.29,3.28-4.86,1.52-9.1,3.81-12.72,7.42-3.12,3.11-10.31,8-11.21,12.4-.63,3.07.55,7.13.61,10.33.07,3.83.48,7.59,2.3,11.02,4.13,7.82,11.65,14.04,18.58,19.3,7.5,5.7,16.78,8.45,25.64,4.19,3.89-1.87,7.13-4.8,10.71-7.17,3.95-2.61,8.53-3.89,12.4-6.64,8.03-5.7,15.98-11.97,22.98-18.9,3.3-3.27,6.86-6.82,8.5-11.25,1.64-4.44.38-9.57-1.24-13.85Z"/>
                <path class="cls-7" d="M121.2,161.86c-6.14-.75-13.49.96-15.94,6.64-1.24,2.88-.91,6.25.28,9.14,1.2,2.89,3.2,5.38,5.31,7.69,3.43,3.76,7.26,7.2,11.58,9.9,3.27,2.04,6.88,3.67,10.71,4.14s7.91-.34,10.94-2.73c3.47-2.74,5.21-7.41,4.72-11.8-1.37-12.25-16.5-21.62-27.6-22.98Z"/>
              </g>
              <path class="cls-1" d="M155.94,186.26c5.98-.27,11.64-2.95,16.6-6.15,4.84-3.13,9.6-7.03,12.98-11.74.4-.56-.47-1.2-.93-.72-3.95,4.05-7.85,7.95-12.59,11.1-4.82,3.2-10.18,6.11-16.05,6.55-.61.05-.62.99,0,.96h0Z"/>
              <path class="cls-1" d="M188.58,166.14c.92-.63,1.81-1.32,2.66-2.05.41-.35.81-.72,1.19-1.1.19-.19.4-.37.57-.57.2-.23.37-.49.55-.74.17-.23.06-.59-.15-.74-.24-.18-.54-.15-.76.05-.19.17-.4.33-.58.5-.2.19-.37.39-.56.59-.37.37-.75.74-1.14,1.09-.76.69-1.56,1.34-2.4,1.94-.26.19-.39.53-.22.83.16.27.56.4.83.22h0Z"/>
              <path class="cls-1" d="M130.3,154.63c.22-.12.44-.24.66-.37.11-.06.22-.12.32-.19.14-.09.28-.22.41-.33l.1-.13c.05-.07.07-.15.08-.24.02-.14,0-.29-.08-.41-.16-.24-.44-.36-.72-.29-.12.03-.24.05-.35.09-.12.04-.24.1-.35.15-.29.12-.57.24-.85.37-.17.07-.31.3-.36.46-.05.19-.03.43.08.6s.27.31.46.36.41.03.6-.08h0Z"/>
              <path class="cls-1" d="M151.74,142.98c.42.11.84.11,1.27.03.2-.04.39-.12.58-.21.19-.09.36-.22.49-.38l.1-.13c.05-.07.07-.15.08-.24.02-.14,0-.29-.08-.41-.15-.24-.44-.38-.73-.3-.05.01-.1.03-.15.04-.1.02-.2.07-.3.11l.17-.07c-.19.08-.4.13-.61.16l.2-.03c-.18.02-.36.03-.55,0l.2.03c-.09-.01-.18-.03-.27-.05-.19-.05-.41-.02-.58.08-.16.09-.3.27-.34.45-.04.19-.03.41.08.58s.26.29.45.34h0Z"/>
              <path class="cls-1" d="M173.62,141.38c.99,0,.99-1.54,0-1.54s-.99,1.54,0,1.54h0Z"/>
              <path class="cls-1" d="M154.31,163.95c.3-.16.61-.33.91-.49.12-.07.24-.22.27-.36l.02-.16c0-.08-.01-.16-.05-.23-.05-.11-.13-.23-.24-.28l-.14-.06c-.11-.03-.21-.03-.32,0-.35.06-.7.11-1.05.17-.13.04-.24.1-.34.2l-.12.16c-.07.12-.1.25-.11.39,0,.11.02.21.07.3.03.1.08.18.16.25.07.08.15.13.25.16.09.05.19.07.3.07.14,0,.27-.04.39-.11h0Z"/>
              <path class="cls-1" d="M167.61,154.75c1.02,0,1.02-1.58,0-1.58s-1.02,1.58,0,1.58h0Z"/>
              <path class="cls-1" d="M171.61,167.3c.85,0,.85-1.32,0-1.32s-.85,1.32,0,1.32h0Z"/>
              <path class="cls-1" d="M186.96,152.05c.98,0,.98-1.52,0-1.52s-.98,1.52,0,1.52h0Z"/>
            </g>
            <path class="cls-2" d="M78.07,143.53c.02-.09.03-.19.04-.28v-.02c0-.12-.03-.23-.09-.33-.03-.05-.06-.09-.1-.13s-.08-.07-.13-.1c-.1-.06-.22-.09-.33-.09h-.02c-.09,0-.19.02-.28.04-.13.04-.23.1-.33.19-.09.09-.16.2-.19.33-.04.13-.04.26,0,.39.04.13.1.23.19.33.09.09.2.16.33.19.13.04.26.04.39,0,.13-.04.23-.1.33-.19.09-.09.16-.2.19-.33h0Z"/>
            <path class="cls-2" d="M89.7,123.53c.39,0,.39-.61,0-.61s-.39.61,0,.61h0Z"/>
            <path class="cls-2" d="M113.29,123.91c.68,0,.68-1.05,0-1.05s-.68,1.05,0,1.05h0Z"/>
            <path class="cls-2" d="M133.71,117.74c.89,0,.89-1.38,0-1.38s-.89,1.38,0,1.38h0Z"/>
            <path class="cls-2" d="M144.47,125.49c.88,0,.88-1.37,0-1.37s-.88,1.37,0,1.37h0Z"/>
            <path class="cls-2" d="M147.8,153.2c.89,0,.89-1.38,0-1.38s-.89,1.38,0,1.38h0Z"/>
            <path class="cls-2" d="M128.98,146.36l.65-.61.08-.1c.04-.06.06-.12.06-.19.01-.04.01-.09,0-.13,0-.07-.02-.13-.06-.19-.05-.07-.11-.13-.18-.18-.06-.04-.12-.06-.19-.06-.07-.02-.13-.01-.2,0l-.84.29c-.12.03-.22.09-.31.18-.09.09-.15.19-.18.31-.04.18-.03.37.07.54.04.08.1.15.18.2.07.06.15.1.24.13.25.07.5,0,.68-.18h0Z"/>
            <path class="cls-2" d="M163.63,135.46c.88,0,.88-1.37,0-1.37s-.88,1.37,0,1.37h0Z"/>
            <path class="cls-2" d="M178.82,156.43c.56,0,.56-.88,0-.88s-.56.88,0,.88h0Z"/>
            <path class="cls-2" d="M159.99,172.64c.84,0,.84-1.31,0-1.31s-.84,1.31,0,1.31h0Z"/>
            <path class="cls-1" d="M115.51,197.71c3.22,2.62,6.52,5.44,10.12,7.52,7.16,4.15,14.89,4.22,21.8-.39,3.61-2.41,6.89-5.01,10.96-6.61,4.03-1.58,8.04-2.89,11.78-5.15,5.58-3.38,10.58-7.78,15.63-11.9,6.43-5.25,10.28-9.8,14.42-17.04.77-1.35,1.77-5.25,1.23-4.35-6.66,10.98-18.21,21.06-28.53,28.52-3.34,2.41-6.85,4.42-10.69,5.9-3.53,1.36-7.07,2.53-10.26,4.6-3.01,1.95-5.73,4.36-8.93,6.01-4.17,2.15-8.58,1.87-12.85.13-4.49-1.83-8.42-4.87-12.2-7.84-3.76-2.96-10.78-9.9-14.55-13.56,3.53,7.46,8.82,11.47,12.09,14.14Z"/>
          </g>
        </g>
      </g>
    </g>
  </g>
</svg>