<?xml version="1.0" encoding="UTF-8"?>
<svg id="Capa_2" xmlns="http://www.w3.org/2000/svg" viewBox="0 0 243.3 243.3">
  <defs>
    <style>
      .cls-1 {
        fill: #a36545;
      }

      .cls-2 {
        fill: #fff;
      }

      .cls-3 {
        fill: none;
      }

      .cls-4 {
        fill: #e09d3e;
      }

      .cls-5 {
        fill: #e58473;
      }

      .cls-6 {
        fill: #4f3535;
      }

      .cls-7 {
        fill: #d9472e;
      }
    </style>
  </defs>
  <g id="grocery_icons">
    <g>
      <rect class="cls-3" width="243.3" height="243.3"/>
      <g>
        <g>
          <path class="cls-4" d="M163.25,164.24s-4.99,56.43.38,64.87,18.42,8.06,19.96-3.84c1.54-11.9-3.07-59.88-3.07-59.88l-17.27-1.15Z"/>
          <path class="cls-6" d="M171.85,182.5c2.47-.06,4.87-.46,7.22-1.22.94-.31,1.85-.71,2.74-1.12-.69-8.53-1.29-14.76-1.29-14.76l-17.27-1.15s-.64,7.19-1.21,16.83c3.22.74,6.43,1.51,9.81,1.43Z"/>
        </g>
        <path class="cls-1" d="M175.91,20.4c-34.95-4.31-54.71,54.46-53.19,95.49,1.52,41.03,19,61.29,48.88,61.55,29.89.25,49.6-19.04,51.42-47.62,3.04-47.87-12.16-105.11-47.11-109.42Z"/>
        <path class="cls-6" d="M203.17,154.47c1.1-.1,2.19-.25,3.27-.47.57-.12,1.17-.22,1.7-.46.45-.21.89-.44,1.32-.67.39-.21.61-.74.48-1.17-.13-.4-.54-.81-1-.76-.49.05-.98.07-1.47.12-.55.05-1.09.22-1.63.32-.23.04-.46.09-.7.12-.13.02-.25.04-.38.06-.05,0-.42.07-.07.01-.5.08-1.01.11-1.52.15-.71.05-1.41.59-1.37,1.37.03.69.61,1.44,1.37,1.37h0Z"/>
        <path class="cls-6" d="M207.34,146.64c.46-.13.91-.27,1.37-.4l.66-.19c.32-.09.61-.26.9-.41.21-.11.37-.33.46-.54s.13-.5.06-.74c-.06-.19-.16-.35-.29-.5-.18-.19-.54-.35-.8-.33-.33.03-.67.04-.99.12l-.66.18c-.46.13-.91.26-1.37.38-.3.08-.59.3-.75.57s-.22.66-.13.96.29.59.57.75.64.22.96.13h0Z"/>
        <path class="cls-2" d="M159.78,31.82c-7.92,5.59-13.57,16.19-17.21,24.96-2,4.82-3.58,9.81-4.64,14.92-1,4.79-2.47,10.43-.53,15.1.98,2.35,4.45,3.46,5.89.77,2.24-4.19,1.99-9,2.92-13.59.87-4.32,2.08-8.57,3.62-12.69,1.64-4.38,3.62-8.63,5.96-12.68,2.51-4.34,5.96-8.11,8.31-12.49,1.37-2.57-1.57-6.22-4.3-4.3h0Z"/>
        <path class="cls-2" d="M134.01,104.75c.21,1.72.2,3.65,1.11,5.16,1.47,2.43,5.07,1.87,5.9-.77.45-1.44.12-2.93-.06-4.39-.11-.95-.31-1.75-1.02-2.46-.6-.6-1.59-1.06-2.46-1.02-1.7.08-3.71,1.54-3.48,3.48h0Z"/>
        <g>
          <g>
            <path class="cls-4" d="M56.92,164.24s-4.99,56.43.38,64.87,18.42,8.06,19.96-3.84c1.54-11.9-3.07-59.88-3.07-59.88l-17.27-1.15Z"/>
            <path class="cls-6" d="M65.53,182.5c2.47-.06,4.87-.46,7.22-1.22.94-.31,1.85-.71,2.74-1.12-.69-8.53-1.29-14.76-1.29-14.76l-17.27-1.15s-.64,7.19-1.21,16.83c3.22.74,6.43,1.51,9.81,1.43Z"/>
          </g>
          <path class="cls-7" d="M90.91,111.36c0,8.35-.01,16.51-.03,23.99-.06,20.22-.2,35.39-.2,35.39,0,0-9.14,5.35-23.64,5.53-13.99.16-25.41-5.53-25.41-5.53,0,0-.05-3.44-.13-9.22-.06-4.13-.13-9.47-.2-15.59-.09-7.61-.18-16.43-.28-25.68-.05-5.71-.09-11.6-.14-17.43-.06-8.45-.1-16.84-.12-24.59-.01-6.36,0-12.3.03-17.49.06-6.98.15-12.63.31-16.2,1.01-22.39,7.62-30.87,25.16-30.62,11.96.18,17.3,2.27,20.21,9.21,1.37,3.24,2.2,7.53,2.92,13.17.31,2.43.56,6.69.77,12.26.18,5.24.32,11.63.43,18.71.13,7.87.21,16.59.24,25.54.03,6.15.05,12.4.06,18.55Z"/>
          <path class="cls-5" d="M90.18,48.56c-5.27,4.78-10.91,9.18-16.77,13.2-10.18,6.98-21.1,12.55-32.65,16.47-.01-6.36,0-12.3.03-17.49,7.97-4.12,15.6-8.91,22.59-14.35,6.4-4.97,12.34-10.61,17.77-16.63,1.83-2.03,3.55-4.34,5.32-6.63,1.37,3.24,2.2,7.53,2.92,13.17.31,2.43.56,6.69.77,12.26Z"/>
          <path class="cls-5" d="M90.85,92.81c-4.51,3.44-9.15,6.7-13.92,9.75-11.27,7.23-23.32,13.2-35.9,17.68-.05-5.71-.09-11.6-.14-17.43,8.97-4.64,17.69-9.81,25.99-15.57,6.67-4.63,12.9-9.75,18.92-15.18,1.61-1.45,3.19-3.11,4.81-4.79.13,7.87.21,16.59.24,25.54Z"/>
          <path class="cls-5" d="M90.91,111.36c0,8.35-.01,16.51-.03,23.99-4.74,3.58-9.65,6.96-14.72,10.05-10.94,6.67-22.55,12.11-34.66,16.11-.06-4.13-.13-9.47-.2-15.59,8.95-4.05,17.55-8.83,25.69-14.36,6.54-4.45,12.69-9.37,18.45-14.8,1.87-1.75,3.7-3.56,5.47-5.4Z"/>
          <path class="cls-6" d="M82.15,162.49c.62-.16,1.25-.32,1.87-.48.3-.08.6-.16.89-.26.26-.09.5-.2.74-.33.22-.12.41-.29.59-.46.69-.63.37-1.97-.57-2.16-.25-.05-.5-.11-.76-.09-.28.01-.55.04-.82.1-.31.06-.6.15-.9.24-.62.19-1.23.37-1.85.56-.37.11-.7.35-.89.69s-.27.79-.15,1.15c.25.78,1.03,1.25,1.84,1.04h0Z"/>
          <path class="cls-6" d="M81.66,154.15c.57-.19,1.14-.37,1.72-.56.39-.13.77-.27,1.15-.44.14-.06.28-.11.41-.18.2-.11.4-.32.58-.46l.21-.28.14-.33c.08-.3.05-.61-.07-.89-.1-.23-.23-.4-.42-.55-.26-.2-.51-.26-.83-.29-.15-.01-.29-.03-.44-.03-.26,0-.54.08-.79.14-.28.06-.55.14-.82.23l-1.7.51c-.4.12-.76.39-.97.75s-.29.86-.16,1.25.37.77.75.97c.38.2.84.3,1.25.16h0Z"/>
          <path class="cls-2" d="M61.5,19.25c-12.35,6.29-17.36,26.33-12.66,38.68,1.45,3.8,6.8,3.23,7.1-.96.47-6.49-1.09-12.53.66-19.04,1.5-5.59,4.73-9.68,8.7-13.74,2.56-2.61-.67-6.53-3.81-4.93h0Z"/>
          <path class="cls-2" d="M48.14,73.91c-.02,1.84-.08,3.88,1.4,5.25,1.4,1.3,3.45,1.3,4.86,0,1.49-1.37,1.42-3.41,1.4-5.25-.02-2-1.75-3.93-3.83-3.83-2.1.09-3.81,1.68-3.83,3.83h0Z"/>
        </g>
      </g>
    </g>
  </g>
</svg>