<?xml version="1.0" encoding="UTF-8"?>
<svg id="Capa_2" data-name="Capa 2" xmlns="http://www.w3.org/2000/svg" viewBox="0 0 200 200">
  <defs>
    <style>
      .cls-1 {
        fill: none;
      }

      .cls-1, .cls-2, .cls-3, .cls-4 {
        stroke-width: 0px;
      }

      .cls-2 {
        fill: #fff;
      }

      .cls-3 {
        fill: #593737;
      }

      .cls-4 {
        fill: #e34b4b;
      }
    </style>
  </defs>
  <g id="colorful_icons" data-name="colorful icons">
    <g>
      <g>
        <g>
          <g>
            <path class="cls-3" d="m162.86,94.9c.26-.08,9.32-5.13,16.33-3.53s10.15,7.67,6.41,14.12-9.23,8.15-13.42,9.75-9.32,3.53-9.32,3.53l.09-11.01s9.32-2.27,14.19-5.8c4.26-3.08,1.8-5.46-1.62-5.29s-12.65,4.12-12.65,4.12v-5.88Z"/>
            <path class="cls-3" d="m37.41,94.9c-.26-.08-9.32-5.13-16.33-3.53s-10.15,7.67-6.41,14.12c3.69,6.37,9.23,8.15,13.42,9.75s9.32,3.53,9.32,3.53l-.09-11.01s-9.32-2.27-14.19-5.8c-4.26-3.08-1.8-5.46,1.62-5.29s12.65,4.12,12.65,4.12v-5.88Z"/>
            <path class="cls-4" d="m164.9,117.29c-.1-4.66-.34-9.31-.49-13.97s-.63-17.2-.85-17.6c.03-.19-126.15-.97-126.25-.27-1.79,13.43-1.39,53.37-1.25,59.25.1,4.37.28,9.12,1.85,13.26,1.8,4.72,5.36,8.43,10.15,10.27,4.35,1.67,9.3,1.97,13.92,2.29,5.08.35,10.14.34,15.22.32,8.01-.03,39.14-.05,43.88-.02,9.42.07,19.11.33,28.37-1.65,4.53-.97,9.2-3.54,11.6-7.58,2.57-4.34,3.3-9.31,3.52-14.25.45-9.99.53-20.02.31-30.04Z"/>
          </g>
          <path class="cls-2" d="m47.47,136.89c-.19,2.25-.43,4.55-.35,6.81s.64,4.69,1.59,6.84c.75,1.7,1.92,3.3,3.32,4.53,1.73,1.53,4.18,3.16,6.51,1.96,1.05-.54,1.35-2.01.78-2.98-.46-.79-1.32-1.4-2.13-1.81-.35-.18-.68-.39-1.02-.6-.11-.07-.32-.23-.1-.06-.17-.14-.34-.28-.5-.43-1.15-1.06-1.75-1.94-2.49-3.47-.08-.16-.16-.32-.23-.49.12.29-.04-.13-.07-.2-.17-.48-.33-.96-.46-1.45-.25-.92-.41-1.86-.58-2.8-.35-1.93-.38-3.88-.39-5.84-.01-2.54-3.69-2.47-3.9,0h0Z"/>
          <path class="cls-2" d="m63.95,157.6l.97-.07.47-.04s.07,0,.11,0c.31-.03.57-.09.8-.32.08-.08.16-.2.23-.31.17-.25.17-.67,0-.91-.07-.1-.15-.22-.23-.31-.13-.13-.29-.23-.48-.28-.06-.01-.12-.02-.18-.02-.08-.01-.17-.02-.25-.03l-.47-.04-.97-.07c-.17,0-.32.03-.46.1-.15.05-.28.13-.39.25-.21.21-.37.55-.35.85s.12.63.35.85.53.38.85.35h0Z"/>
        </g>
        <g>
          <g>
            <path class="cls-3" d="m94.24,36.58l-.12,12.74,12.37.11.12-12.74s-12.47-.21-12.37-.11Z"/>
            <path class="cls-4" d="m110.95,26.87c-6.92-.95-13.94-1.01-20.87-.19-6.24.74-7.44,1.72-7.35,3.52.08,1.79-.26,7.16,2.99,9.09,2.8,1.65,26.55,1.87,29.38.27,3.28-1.86,3.03-7.24,3.15-9.03s-1.06-2.8-7.29-3.65Z"/>
          </g>
          <g>
            <path class="cls-4" d="m161.54,67.74s-8.46-10.03-26.68-15.67c-6.73-2.09-13.73-3.3-20.71-4.16-14.1-1.73-28.61-.96-42.55,2.05-1.98.43-3.94.91-5.89,1.48-18.32,5.31-26.96,15.18-26.96,15.18,4.29-.04,8.57-.07,12.86-.11,8.66-.07,95.54.84,104.61,1.08,1.77.05,3.54.09,5.32.14Z"/>
            <path class="cls-3" d="m164.73,65.68c-2.66-1.12-11.28-.6-11.28-.6l-49.66-.45-7.24-.07-49.66-.45s-8.6-.68-11.28.4c-2.68,1.07-3.62,5.94.34,6.57,3.4.54,124.92,1.64,128.32,1.16,3.96-.56,3.12-5.45.46-6.57Z"/>
          </g>
          <path class="cls-2" d="m87.46,32.9l.5-.06.24-.03s.08,0,.12-.01c.12-.01.25-.02.36-.05.17-.04.31-.11.43-.22.06-.03.11-.07.14-.12.16-.16.27-.34.33-.55.05-.17.06-.33.03-.5,0-.17-.05-.32-.14-.47-.11-.19-.26-.34-.44-.46-.17-.11-.3-.14-.49-.17-.11-.03-.22-.03-.34,0-.06,0-.12.01-.18.02-.04,0-.08.02-.12.02l-.26.05-.5.09c-.16.04-.3.11-.42.22-.14.09-.24.2-.32.35l-.13.3c-.05.16-.06.33-.03.5,0,.11.03.22.08.31.05.15.13.29.25.4l.25.2c.19.11.4.17.62.18h0Z"/>
          <path class="cls-2" d="m93.23,31.88l.25-.03c.08-.01.16-.02.24-.03.12-.03.24-.11.35-.16l.2-.1c.34-.18.35-.72,0-.91l-.2-.11c-.11-.06-.23-.14-.35-.17-.08-.02-.16-.03-.24-.04l-.25-.04c-.14-.04-.29-.04-.43,0-.14.04-.26.11-.36.21-.15.16-.24.36-.24.58,0,.21.09.43.23.58.1.1.22.17.36.21.14.04.29.04.43,0h0Z"/>
        </g>
      </g>
      <rect class="cls-1" width="200" height="200"/>
    </g>
  </g>
</svg>