<?xml version="1.0" encoding="UTF-8"?>
<svg id="Capa_2" xmlns="http://www.w3.org/2000/svg" viewBox="0 0 243.3 243.3">
  <defs>
    <style>
      .cls-1 {
        fill: #a36545;
      }

      .cls-2 {
        fill: #fff;
      }

      .cls-3 {
        fill: none;
      }

      .cls-4 {
        fill: #e09d3e;
      }

      .cls-5 {
        fill: #4f3535;
      }

      .cls-6 {
        fill: #a1c2de;
      }
    </style>
  </defs>
  <g id="grocery_icons">
    <g>
      <rect class="cls-3" width="243.3" height="243.3"/>
      <g>
        <g>
          <path class="cls-6" d="M230.65,229.68c-.92-2.31-2.23-4.29-3.66-6.42-2.71-4.06-1.17-7.4-.26-12.19,1.52-8.08,2.93-16.14,3.81-24.32,1.86-17.35,2.08-34.81,1.05-52.22-2.05-34.52-8.72-73.62-14.69-107.61,1.51-1.89,7.81-12.03,7.69-13.12-.13-1.13-.95-2-2.06-2.22-13.32-2.65-39-3.04-52.51-2.99-14.25.05-34.37-2.04-48.61-1.62-28.43.85-105.3,1.8-102.13,7.62,1.53,2.81,6.43,12.72,7.94,14.61-5.97,33.99-9.81,70.81-11.85,105.33-1.03,17.41-.81,34.87,1.05,52.22.88,8.19,2.29,16.24,3.81,24.32.89,4.73.12,8.26-2.52,12.19-.99,1.47-1.98,2.94-2.79,4.52-.98,1.9-1.79,3.91-.87,6,.38.86.96,1.46,1.93,1.49,35.56.96,87.09-1.13,122.68-.89,13.61.09,27.2.52,40.79.96,12.34.4,37.89,1.39,50.09-.98,2.2-.43,2.41-3.34,1.12-4.67Z"/>
          <path class="cls-2" d="M208.26,131.05c-13.94-36.11-82.94-48.05-130.15-30.48-34.03,12.66-51.59,40.42-39.09,64.55,10.73,20.72,41.99,33.48,74.84,35.95,36.53,2.74,72.57-7.24,87.98-29.39,8.74-12.57,11.61-27.19,6.42-40.63Z"/>
          <path class="cls-5" d="M52.04,12.12c1.12,2.9,2.47,5.66,4.09,8.31.79,1.3,1.64,2.56,2.53,3.79.87,1.2,1.73,2.61,3.05,3.31.22.12.52-.08.44-.34-.44-1.38-1.52-2.47-2.36-3.64-.89-1.23-1.73-2.5-2.52-3.8-1.57-2.59-2.98-5.31-4.23-8.07-.25-.56-1.23-.16-1.01.43h0Z"/>
          <path class="cls-5" d="M67.9,12.37c.68,2.03,1.33,4.08,1.95,6.13s1.08,4.09,2.06,5.95c.15.28.61.15.6-.16-.1-2.11-.8-4.12-1.44-6.12-.65-2.05-1.33-4.08-2.04-6.1-.25-.7-1.37-.41-1.13.31h0Z"/>
          <path class="cls-5" d="M79.16,11.25c.53,2.84,1.1,5.66,1.71,8.48.3,1.36.6,2.71.91,4.06.28,1.18.4,3.04,1.42,3.84.22.17.61.21.76-.1.56-1.18-.08-2.72-.37-3.91-.34-1.4-.69-2.79-1.06-4.18-.74-2.84-1.53-5.65-2.35-8.47-.19-.66-1.15-.38-1.02.28h0Z"/>
          <path class="cls-5" d="M103.35,12.4c.13,2.48.35,4.95.66,7.41.15,1.2.31,2.4.53,3.6.2,1.11.31,2.51,1.12,3.37.33.35.87.15,1.01-.27.36-1.03-.07-2.31-.26-3.34-.22-1.2-.45-2.39-.66-3.6-.4-2.38-.71-4.77-.94-7.17-.09-.93-1.53-.96-1.48,0h0Z"/>
          <path class="cls-5" d="M124.58,26.34c.13-2.78-.05-5.57-.2-8.34-.16-2.95-.26-5.99-.74-8.9-.06-.37-.69-.37-.75,0-.46,2.9-.2,5.98-.03,8.9s.34,5.56.22,8.34c-.04.97,1.46.96,1.5,0h0Z"/>
          <path class="cls-5" d="M132.07,9.01c.25,2.94.12,5.93.08,8.88-.03,2.85-.31,5.99.44,8.77.15.55.92.4.95-.13.21-2.91.08-5.85.05-8.76-.03-2.91.03-5.86-.29-8.76-.08-.78-1.3-.8-1.24,0h0Z"/>
          <path class="cls-5" d="M155.86,10.14c-.08,2.72-.1,5.44-.13,8.15-.01,1.36-.04,2.73-.04,4.09,0,1.22-.15,2.74.31,3.89.12.31.63.49.81.11.52-1.15.43-2.61.45-3.85.02-1.36-.01-2.72-.02-4.08-.02-2.77-.05-5.53,0-8.3.01-.88-1.34-.88-1.37,0h0Z"/>
          <path class="cls-5" d="M168.9,9.57c-.8,3.2-1.45,6.43-1.97,9.69-.45,2.79-1.08,5.85-.55,8.66.04.23.42.29.52.07,1.2-2.58,1.35-5.64,1.74-8.43.46-3.22.98-6.42,1.67-9.6.2-.91-1.18-1.3-1.4-.39h0Z"/>
          <path class="cls-5" d="M200.89,10.69c-.6,2.67-1.3,5.32-1.88,8-.29,1.31-.6,2.63-.83,3.95-.2,1.1-.67,2.67-.12,3.71.15.28.5.26.71.09.48-.38.64-.99.82-1.55.22-.66.39-1.33.55-2.02.3-1.26.53-2.54.78-3.81.53-2.64.94-5.31,1.46-7.96.19-.97-1.27-1.39-1.49-.41h0Z"/>
          <path class="cls-5" d="M213.19,11.84c-.86,2.15-1.8,4.28-2.68,6.43-.84,2.04-2.09,4.15-2.06,6.41,0,.35.41.48.66.27,1.76-1.49,2.45-3.97,3.25-6.05.84-2.2,1.49-4.44,2.09-6.71.22-.83-.95-1.11-1.26-.35h0Z"/>
          <path class="cls-5" d="M29.11,219.35c-.47,1.23-.85,2.43-1.46,3.6-.66,1.27-1.33,2.54-2,3.8-.64,1.21-1.22,2.46-1.74,3.72-.43,1.06-1.04,2.46-.68,3.61.09.3.45.31.63.08.72-.97,1-2.35,1.49-3.44.59-1.3,1.27-2.56,1.91-3.84.61-1.23,1.22-2.45,1.69-3.74.42-1.15.93-2.45.91-3.69,0-.44-.59-.48-.74-.1h0Z"/>
          <path class="cls-5" d="M56.77,222.09c-.39,2.16-.76,4.32-1.13,6.49-.19,1.12-.36,2.23-.52,3.36-.15,1-.35,2.09-.06,3.07.11.36.56.39.77.1.56-.82.71-1.88.87-2.84.18-1.12.35-2.24.5-3.37.28-2.15.57-4.3.87-6.44.12-.84-1.14-1.22-1.3-.36h0Z"/>
          <path class="cls-5" d="M91.73,221.5c-.07,2.11-.16,4.23-.22,6.34-.03,1.06-.01,2.11-.02,3.17,0,1.04-.01,2.08.36,3.07.19.51.85.51,1.04,0,.37-.99.36-2.02.36-3.07s.01-2.11-.02-3.17c-.06-2.11-.15-4.23-.22-6.34-.03-.82-1.25-.82-1.28,0h0Z"/>
          <path class="cls-5" d="M106.47,221.49c.08,2.24.06,4.48.07,6.72s-.28,4.52.36,6.61c.16.53.83.47,1.02,0,.82-2.03.6-4.46.53-6.61-.07-2.25-.32-4.49-.61-6.72-.11-.84-1.4-.91-1.37,0h0Z"/>
          <path class="cls-5" d="M217.12,220.03c1.31,2.5,2.57,5.03,3.95,7.49.69,1.23,1.37,2.47,2.07,3.69.63,1.1,1.29,2.52,2.32,3.28.41.3,1.1-.1,1.05-.6-.14-1.28-1.04-2.57-1.68-3.67-.7-1.22-1.43-2.43-2.15-3.64-1.43-2.43-2.98-4.79-4.48-7.18-.43-.69-1.46-.08-1.09.64h0Z"/>
          <path class="cls-5" d="M208.89,222.43c.79,1.89,1.51,3.81,2.17,5.75.32.95.61,1.92.92,2.88.26.79.53,2.14,1.35,2.52.21.1.43.05.56-.15.5-.78,0-2.02-.25-2.83-.31-.99-.69-1.98-1.05-2.95-.73-1.95-1.54-3.87-2.4-5.76-.33-.72-1.6-.2-1.29.54h0Z"/>
          <path class="cls-5" d="M189.56,220.75c-.1,2.54-.07,5.08.21,7.61.25,2.31.31,5.16,1.86,7,.22.26.66.11.74-.19.11-.45.23-1.01.2-1.47-.03-.63-.15-1.29-.26-1.91-.21-1.18-.44-2.36-.61-3.55-.35-2.48-.62-4.98-.74-7.48-.04-.91-1.38-.91-1.41,0h0Z"/>
          <path class="cls-5" d="M177.04,222.11c.34,1.96.67,3.91,1.01,5.87.17.96.33,1.92.5,2.88.15.88.22,2.07.95,2.68.26.21.65.21.83-.11.49-.87.15-2.02-.03-2.94l-.54-2.87c-.37-1.99-.75-3.97-1.12-5.96-.2-1.05-1.78-.6-1.6.44h0Z"/>
          <path class="cls-5" d="M157.24,223.01c.22,1.79.44,3.59.66,5.38.11.88.25,1.75.39,2.63s.16,1.89.82,2.56c.25.25.73.22.9-.12.23-.45.27-.79.23-1.29-.04-.48-.13-.96-.21-1.43-.14-.86-.26-1.73-.42-2.59-.33-1.78-.67-3.55-1.01-5.33-.14-.76-1.46-.6-1.37.18h0Z"/>
          <path class="cls-5" d="M138.44,222.43c.54,2.26.91,4.55,1.09,6.86.09,1.13.14,2.26.16,3.38.03,1.01-.17,2.29.58,3.09.17.19.48.17.66,0,.8-.76.62-2.1.59-3.09-.04-1.21-.16-2.42-.32-3.62-.32-2.36-.82-4.69-1.5-6.97-.24-.8-1.45-.47-1.26.35h0Z"/>
          <path class="cls-5" d="M125.56,222.25c-.08,1.76-.16,3.53-.23,5.29-.04.88-.04,1.76-.04,2.64s.03,1.78.47,2.54c.23.39.82.39,1.05,0,.44-.77.47-1.67.47-2.54s0-1.76-.04-2.64c-.07-1.76-.15-3.53-.23-5.29-.04-.92-1.39-.92-1.43,0h0Z"/>
          <path class="cls-5" d="M29.24,34.05c23.35-2.94,46.77-4.73,70.3-5.26,25.52-.58,51.08-.51,76.58.84,6.55.34,13.09.82,19.62,1.43,3.07.29,6.13.6,9.19.95,1.41.16,2.82.36,4.24.5,1.61.17,3.01.04,4.6-.25,1.49-.27,1.79-2.65.43-3.3-1.27-.61-2.42-1.09-3.82-1.34s-2.89-.37-4.33-.54c-2.65-.31-5.31-.59-7.97-.86-5.77-.57-11.55-1.02-17.34-1.44-12.5-.92-25.04-1.56-37.57-1.71-25.62-.32-51.21.55-76.74,2.8-12.61,1.11-25.21,2.47-37.63,4.91-1.81.36-1.43,3.51.44,3.27h0Z"/>
          <path class="cls-5" d="M223.73,214.94c-25.66,1.42-51.29,2.59-76.99,2.8-27.7.23-55.41.22-83.11-.51-7.14-.19-14.28-.47-21.42-.83-3.37-.17-6.73-.36-10.09-.57-3.37-.21-6.58-.58-9.9.15-1.89.41-1.53,2.91,0,3.49,2.83,1.07,5.74,1.16,8.74,1.35,3.01.19,6.02.36,9.03.52,6.22.33,12.45.59,18.68.86,13.61.59,27.23,1.03,40.85,1.1,27.71.15,55.38-.47,83.05-1.88,13.74-.7,27.48-1.52,41.15-3.14,2.07-.25,2.18-3.45,0-3.33h0Z"/>
          <g>
            <path class="cls-5" d="M54.2,58.56c-.06.17-.26.37-.6.6-.34.23-.63.34-.85.34-1.22-.11-2.44-.21-3.65-.3-1.21-.09-2.44-.14-3.69-.17.17,1,.33,1.99.49,2.98.16,1,.31,1.99.45,2.99,2.42-.08,4.8-.21,7.16-.38.4,0,.8.13,1.19.38.4.26.6.5.6.72,0,.31-.13.59-.38.83s-.57.39-.94.45c-1.19.2-2.4.35-3.6.45-1.21.1-2.44.18-3.69.23.14,1,.26,1.98.36,2.96.1.98.19,1.96.28,2.92.06.4.02.82-.11,1.26s-.33.66-.62.66c-.26,0-.5-.07-.73-.21-.23-.14-.43-.3-.62-.49-.18-.18-.33-.39-.45-.62-.11-.23-.19-.43-.21-.6-.28-2.44-.59-4.88-.92-7.29-.33-2.42-.69-4.85-1.09-7.29h-1.41c-.4,0-.77-.04-1.11-.13-.34-.08-.6-.3-.77-.64-.06-.08-.09-.23-.11-.43-.01-.2,0-.4.04-.6.04-.2.12-.38.24-.55.11-.17.27-.28.47-.34,1.11-.17,2.29-.24,3.56-.21,1.26.03,2.5.11,3.71.23,1.21.13,2.34.31,3.41.53s1.98.47,2.75.72c.48.29.75.61.81.98Z"/>
            <path class="cls-5" d="M62.05,73.31c.03.11.04.28.04.49s-.04.43-.13.64c-.08.21-.21.4-.36.55-.16.16-.38.23-.66.23-.62-.4-1.15-.92-1.58-1.58-.23-.85-.43-1.83-.62-2.94-.19-1.11-.33-2.27-.45-3.48-.11-1.21-.19-2.44-.23-3.69-.04-1.25-.05-2.46-.02-3.62,0-.2.02-.45.06-.77.04-.31.12-.62.23-.92.11-.3.26-.55.43-.77.17-.21.41-.32.73-.32.37,0,.67.11.9.34.23.23.34.6.34,1.11-.03,1.14-.02,2.35.02,3.65.04,1.29.12,2.59.23,3.9.11,1.31.26,2.58.45,3.82.18,1.24.39,2.35.62,3.35Z"/>
            <path class="cls-5" d="M76.84,58.77c-.11.14-.32.25-.62.32-.3.07-.6,0-.92-.23-.23-.17-.5-.35-.81-.53-.31-.18-.65-.36-1.02-.53-.37-.17-.74-.31-1.11-.43-.37-.11-.73-.17-1.07-.17-.43,0-.87.1-1.34.3-.47.2-.88.48-1.22.85-.65.71-.89,1.4-.7,2.07.18.67.67,1.29,1.47,1.85.51.37,1.07.75,1.66,1.13s1.19.76,1.77,1.13c.58.37,1.14.72,1.66,1.07.53.34.99.64,1.39.9.51.34,1,.71,1.45,1.11.45.4.85.85,1.19,1.34.34.5.61,1.06.81,1.68.2.62.3,1.34.3,2.13-.2,1.56-.82,2.81-1.86,3.73-1.04.92-2.24,1.51-3.6,1.77-1.19.23-2.37.18-3.52-.13s-2.12-.91-2.92-1.79c-.2-.23-.37-.54-.51-.94-.14-.4-.16-.68-.04-.85.17-.26.47-.43.9-.53.43-.1.75-.08.98.06.65.6,1.42,1.03,2.3,1.3.88.27,1.8.29,2.77.06.74-.17,1.34-.49,1.79-.96.45-.47.74-1,.85-1.6.14-.62.06-1.27-.23-1.94-.3-.67-.83-1.27-1.6-1.81-1.17-.88-2.41-1.71-3.73-2.47-1.32-.77-2.67-1.65-4.03-2.64-.65-.57-1.13-1.19-1.43-1.88-.3-.68-.45-1.35-.45-2s.14-1.33.43-1.94c.28-.61.68-1.17,1.19-1.66.51-.5,1.11-.9,1.79-1.21.68-.31,1.44-.5,2.26-.55,1.14-.06,2.23.18,3.28.7,1.05.53,1.9,1.17,2.56,1.94.14.17.21.38.19.64-.01.26-.11.5-.28.72Z"/>
            <path class="cls-5" d="M97.01,59.96c.4,2.3.7,4.6.9,6.89.2,2.29.36,4.57.47,6.84.03.26,0,.48-.08.66-.08.19-.19.35-.32.49-.13.14-.26.26-.38.34-.13.08-.24.13-.32.13-.31,0-.62-.15-.92-.45s-.48-.69-.53-1.17c-.09-1.08-.17-2.16-.26-3.24-.09-1.08-.19-2.16-.3-3.24-2.99.83-6.14,1.55-9.47,2.17.11.63.23,1.25.34,1.88.11.62.24,1.25.38,1.88.03.11.05.3.06.55s0,.53-.04.81c-.04.28-.13.55-.26.79-.13.24-.32.42-.58.53-.23.03-.47-.04-.72-.21-.26-.17-.43-.34-.51-.51-.34-.88-.66-1.93-.96-3.16-.3-1.22-.55-2.51-.77-3.86-.21-1.35-.36-2.72-.45-4.12-.08-1.39-.1-2.73-.04-4.01.06-.43.22-.73.49-.92s.52-.28.75-.28c.25,0,.48.08.66.26s.33.38.45.64c.11.26.2.51.26.77.06.26.08.47.08.64.03.91.07,1.81.13,2.69.06.88.16,1.76.3,2.64,1.45-.2,3.03-.48,4.73-.83,1.71-.35,3.31-.76,4.82-1.21-.06-.65-.13-1.31-.21-1.98-.08-.67-.17-1.33-.26-1.98,0-.48.15-.91.45-1.28.3-.37.6-.55.92-.55.23,0,.46.11.7.34.24.23.41.58.49,1.07Z"/>
            <path class="cls-5" d="M123.79,58.77c-.11.14-.32.25-.62.32-.3.07-.6,0-.92-.23-.23-.17-.5-.35-.81-.53-.31-.18-.65-.36-1.02-.53-.37-.17-.74-.31-1.11-.43-.37-.11-.73-.17-1.07-.17-.43,0-.87.1-1.34.3-.47.2-.88.48-1.22.85-.65.71-.89,1.4-.7,2.07.18.67.67,1.29,1.47,1.85.51.37,1.07.75,1.66,1.13s1.19.76,1.77,1.13c.58.37,1.14.72,1.66,1.07.53.34.99.64,1.39.9.51.34,1,.71,1.45,1.11.45.4.85.85,1.19,1.34.34.5.61,1.06.81,1.68.2.62.3,1.34.3,2.13-.2,1.56-.82,2.81-1.86,3.73-1.04.92-2.24,1.51-3.6,1.77-1.19.23-2.37.18-3.52-.13s-2.12-.91-2.92-1.79c-.2-.23-.37-.54-.51-.94-.14-.4-.16-.68-.04-.85.17-.26.47-.43.9-.53.43-.1.75-.08.98.06.65.6,1.42,1.03,2.3,1.3.88.27,1.8.29,2.77.06.74-.17,1.34-.49,1.79-.96.45-.47.74-1,.85-1.6.14-.62.06-1.27-.23-1.94-.3-.67-.83-1.27-1.6-1.81-1.17-.88-2.41-1.71-3.73-2.47-1.32-.77-2.67-1.65-4.03-2.64-.65-.57-1.13-1.19-1.43-1.88-.3-.68-.45-1.35-.45-2s.14-1.33.43-1.94c.28-.61.68-1.17,1.19-1.66.51-.5,1.11-.9,1.79-1.21.68-.31,1.44-.5,2.26-.55,1.14-.06,2.23.18,3.28.7,1.05.53,1.9,1.17,2.56,1.94.14.17.21.38.19.64-.01.26-.11.5-.28.72Z"/>
            <path class="cls-5" d="M146.73,59.96c-2.93-.14-5.74.09-8.44.68-2.7.6-5.37,1.41-8.02,2.43-.68.26-1.2.23-1.56-.08s-.53-.62-.53-.94c.2-.54.55-.98,1.07-1.32,5.83-2.84,11.66-3.89,17.48-3.16.28.09.52.29.7.62.18.33.25.6.19.83-.06.28-.14.52-.26.7-.11.19-.33.26-.64.23ZM140.68,74.84c0,.31-.11.59-.32.83-.21.24-.48.39-.79.45-.57.09-.94-.01-1.11-.3-.17-.28-.27-.61-.3-.98-.03-1.99-.06-3.97-.11-5.95-.04-1.98-.14-3.96-.28-5.95,0-.11-.01-.25-.04-.41-.03-.16-.03-.31,0-.47s.09-.29.19-.41c.1-.11.26-.2.49-.26.65-.11,1.12,0,1.41.32.28.33.43.65.43.96.23,2.05.37,4.08.43,6.1.06,2.02.06,4.04,0,6.05Z"/>
            <path class="cls-5" d="M154.71,73.31c.03.11.04.28.04.49s-.04.43-.13.64c-.08.21-.21.4-.36.55-.16.16-.38.23-.66.23-.62-.4-1.15-.92-1.58-1.58-.23-.85-.43-1.83-.62-2.94-.19-1.11-.33-2.27-.45-3.48-.11-1.21-.19-2.44-.23-3.69-.04-1.25-.05-2.46-.02-3.62,0-.2.02-.45.06-.77.04-.31.12-.62.23-.92.11-.3.26-.55.43-.77.17-.21.41-.32.73-.32.37,0,.67.11.9.34.23.23.34.6.34,1.11-.03,1.14-.02,2.35.02,3.65.04,1.29.12,2.59.23,3.9.11,1.31.26,2.58.45,3.82.18,1.24.39,2.35.62,3.35Z"/>
            <path class="cls-5" d="M167.16,61.33c.11.14.18.32.19.53.01.21-.02.39-.11.53-.14.31-.38.43-.72.34-.6-.14-1.22-.2-1.88-.17-.65.03-1.31.28-1.96.77-.65.48-1.17,1.19-1.54,2.11-.37.92-.55,1.88-.55,2.88s.24,1.8.7,2.49c.47.7,1.07,1.2,1.81,1.51.45.2.97.31,1.54.34.57.03,1.14,0,1.73-.06.58-.07,1.16-.18,1.73-.34s1.11-.33,1.62-.53c.17-.06.33-.04.49.04.16.08.26.2.32.34.14.37.07.74-.21,1.11-.34.37-.8.7-1.36.98-.57.29-1.19.51-1.88.68-.68.17-1.38.26-2.09.28-.71.01-1.38-.06-2-.23-.88-.23-1.63-.56-2.24-1s-1.12-.95-1.51-1.54-.7-1.21-.9-1.88c-.2-.67-.31-1.36-.34-2.07-.06-1.71.28-3.24,1-4.61s1.74-2.37,3.05-3.03c.97-.48,1.94-.67,2.92-.58.98.1,1.71.46,2.2,1.09Z"/>
            <path class="cls-5" d="M174.87,58.81c.14.97.3,1.97.47,3.01.17,1.04.34,2.15.51,3.35,1.31-.82,2.68-1.66,4.12-2.5,1.44-.84,2.78-1.51,4.03-2.03.11-.03.26-.04.45-.02.18.01.38.06.58.13.2.07.37.16.51.28.14.11.24.26.3.43.06.2.01.46-.13.79-.14.33-.3.52-.47.58-.34.2-.79.46-1.34.79-.55.33-1.14.68-1.75,1.04s-1.21.74-1.79,1.11c-.58.37-1.07.68-1.47.94,1.62.88,3.2,1.64,4.75,2.26,1.55.62,3.19,1.14,4.92,1.54.17.03.35.13.53.32.18.19.33.41.45.66.11.26.18.51.19.77s-.05.48-.19.68c-.17.23-.41.36-.7.41-.3.04-.6.04-.92-.02-2.16-.51-4.14-1.14-5.93-1.9-1.79-.75-3.67-1.67-5.63-2.75.14,1.22.28,2.49.41,3.79.13,1.31.25,2.69.36,4.14,0,.31-.13.49-.38.53-.26.04-.54.04-.85-.02-.31-.06-.6-.16-.85-.3-.26-.14-.41-.28-.47-.43-.17-1.31-.35-2.69-.53-4.14-.19-1.45-.39-2.92-.62-4.41-.23-1.49-.47-2.97-.73-4.44-.26-1.46-.51-2.86-.77-4.2-.06-.31.01-.68.21-1.09.2-.41.57-.65,1.11-.7.2,0,.39.05.58.15.18.1.36.23.51.38.16.16.28.31.36.47.09.16.14.29.17.41Z"/>
            <path class="cls-5" d="M202.25,58.77c-.11.14-.32.25-.62.32-.3.07-.6,0-.92-.23-.23-.17-.5-.35-.81-.53-.31-.18-.65-.36-1.02-.53-.37-.17-.74-.31-1.11-.43-.37-.11-.73-.17-1.07-.17-.43,0-.87.1-1.34.3-.47.2-.88.48-1.22.85-.65.71-.89,1.4-.7,2.07.18.67.67,1.29,1.47,1.85.51.37,1.07.75,1.66,1.13s1.19.76,1.77,1.13c.58.37,1.14.72,1.66,1.07.53.34.99.64,1.39.9.51.34,1,.71,1.45,1.11.45.4.85.85,1.19,1.34.34.5.61,1.06.81,1.68.2.62.3,1.34.3,2.13-.2,1.56-.82,2.81-1.86,3.73-1.04.92-2.24,1.51-3.6,1.77-1.19.23-2.37.18-3.52-.13s-2.12-.91-2.92-1.79c-.2-.23-.37-.54-.51-.94-.14-.4-.16-.68-.04-.85.17-.26.47-.43.9-.53.43-.1.75-.08.98.06.65.6,1.42,1.03,2.3,1.3.88.27,1.8.29,2.77.06.74-.17,1.34-.49,1.79-.96.45-.47.74-1,.85-1.6.14-.62.06-1.27-.23-1.94-.3-.67-.83-1.27-1.6-1.81-1.17-.88-2.41-1.71-3.73-2.47-1.32-.77-2.67-1.65-4.03-2.64-.65-.57-1.13-1.19-1.43-1.88-.3-.68-.45-1.35-.45-2s.14-1.33.43-1.94c.28-.61.68-1.17,1.19-1.66.51-.5,1.11-.9,1.79-1.21.68-.31,1.44-.5,2.26-.55,1.14-.06,2.23.18,3.28.7,1.05.53,1.9,1.17,2.56,1.94.14.17.21.38.19.64-.01.26-.11.5-.28.72Z"/>
          </g>
          <path class="cls-5" d="M35.69,12.77c1.24,3.13,2.8,6.13,4.18,9.2.69,1.54,1.36,3.09,2.03,4.64.59,1.39,1.1,3.42,2.29,4.41.31.26.73.08.77-.32.15-1.5-.91-3.25-1.49-4.6-.67-1.55-1.37-3.08-2.09-4.61-1.44-3.1-2.86-6.26-4.7-9.14-.31-.49-1.23-.18-.99.42h0Z"/>
          <path class="cls-5" d="M43.94,221.17c-.59,2.19-1.24,4.37-1.82,6.57-.27,1.02-.55,2.03-.85,3.04-.32,1.1-.86,2.33-.59,3.49.09.37.56.45.81.21.84-.79,1.07-2.1,1.37-3.16.29-1.05.57-2.1.83-3.15.55-2.21.89-4.47,1.27-6.72.11-.66-.84-.95-1.02-.28h0Z"/>
          <path class="cls-5" d="M30.99,82.22c1-.31,2.02-.55,3.05-.73.13-.02.26-.04.4-.06.1-.01.44-.11.04,0,.25-.06.53-.06.79-.09.35-.04.74-.11,1.08-.21.38-.11.71-.39.99-.67.26-.26.37-.61.32-.97-.05-.39-.25-.61-.55-.85-.34-.26-.72-.43-1.15-.46-.38-.03-.73-.01-1.1.04-.52.08-1.05.17-1.57.29-1.04.23-2.06.53-3.06.9-.71.26-1.27,1-1.02,1.79.24.73,1.01,1.26,1.79,1.02h0Z"/>
          <path class="cls-5" d="M31.6,91.88c.31-.11.62-.2.93-.27.16-.04.32-.07.48-.09.07-.01.14-.03.21-.03-.26.02,0,0,.06,0,.31-.03.62-.03.94-.05.16-.01.32,0,.49-.02.21-.01.4-.07.6-.11.59-.13.69-1.01.17-1.29-.18-.1-.38-.21-.58-.26-.22-.05-.45-.08-.68-.1-.32-.04-.65-.03-.97,0-.73.04-1.46.16-2.16.37-.49.14-.84.69-.68,1.19.15.47.68.86,1.19.68h0Z"/>
          <path class="cls-5" d="M206.17,52.55c1.26-.04,2.52-.16,3.77-.34.56-.08,1.08-.25,1.61-.43.21-.07.43-.14.63-.25.21-.11.39-.3.58-.45.24-.19.49-.37.63-.66.28-.58.11-1.13-.39-1.5-.24-.18-.55-.22-.84-.29-.35-.09-.69-.16-1.05-.14-.66.03-1.3.06-1.96.15l.49-.07c-1.15.15-2.3.24-3.46.26-.97.02-1.9.84-1.85,1.85.04.98.82,1.88,1.85,1.85h0Z"/>
          <path class="cls-5" d="M210.69,66.89c.48-.01.97,0,1.45.03.2.01.54-.01.72.07-.23-.03-.26-.03-.09-.01.05,0,.1.02.15.02.12.02.24.04.36.06.57.11,1.11.26,1.7.28.46,0,.91.07,1.36.04.83-.05,1.19-.97.66-1.58-.36-.42-.85-.74-1.32-1.04-.51-.33-1.08-.46-1.66-.58-1.09-.23-2.22-.35-3.34-.34-.8,0-1.56.7-1.52,1.52s.67,1.55,1.52,1.52h0Z"/>
        </g>
        <g>
          <path class="cls-4" d="M174.38,140.75c-1.5-2.5-4.28-3.26-6.8-4.29-2.92-1.19-4.8-3.9-7.71-5.09-2.93-1.2-6.23-.92-9.2-.01-3.69,1.13-6.94,3.34-10.71,4.29-2.14.54-4.02.29-6.16-.07-1.94-.32-3.55-.05-5.19,1.04-1.74,1.16-3.27,1.48-5.34,1.59-1.99.11-3.93.32-5.87.74-7.44,1.61-13.22,6.77-20.34,8.98-2.32.72-4.65,1.06-7.06,1.29-1.11.1-2.26.25-3.31.64-1.05.39-1.96,1.06-2.95,1.56-2.25,1.12-4.89,1.28-7.31,1.87-2.61.64-5.22,1.29-7.82,1.94-3.6.89-7.88,1.52-10.63,4.25-1.57,1.56-2.1,3.62-1.88,5.79.29,2.99.87,5.97,1.3,8.94.08.6.46.99,1.03,1.15,1.46.4,2.48,1.67,3.46,2.72,1.09,1.17,2.26,2.23,3.58,3.13,2.53,1.74,5.39,2.99,8.41,3.55,3.24.6,6.42.3,9.61-.43,3.76-.86,7.49-1.9,11.23-2.87,7.39-1.91,14.86-3.68,22.1-6.12,6.95-2.34,13.39-6.03,20.42-8.13,3.51-1.05,7.12-1.74,10.64-2.77,3.53-1.03,7.01-2.28,10.39-3.73,5.83-2.5,12.42-5.52,15.67-11.3,1.46-2.59,2.05-6.02.45-8.68Z"/>
          <path class="cls-1" d="M64.26,167.95c1.5,1.55,3.14,2.96,4.94,4.15,1.65,1.09,3.61,2.39,5.62,2.59,2.12.21,4.4-.88,6.38-1.49,2.37-.74,4.77-1.41,7.16-2.07,1.32-.37,2.64-.74,4.01-.85,1.25-.09,2.48.17,3.72.1,2.29-.13,3.75-2,5.93-2.39,2.28-.4,4.44-.39,6.67-1.17,2.3-.81,4.54-1.84,6.8-2.74,2.61-1.04,5.24-2.02,7.94-2.8,1.33-.38,2.67-.71,4.03-.96,1.36-.25,2.79-.3,4.09-.8.79-.31.69-1.45-.13-1.63-2.07-.45-4.45.25-6.47.73-2.3.54-4.55,1.27-6.77,2.08-2.23.81-4.43,1.72-6.63,2.62s-4.44,1.99-6.8,2.36c-1.95.3-3.8.26-5.56,1.29-.94.55-1.76,1.27-2.87,1.45-1.26.21-2.56-.09-3.84,0-2.33.16-4.56,1.01-6.76,1.74s-4.53,1.49-6.82,2.19c-1.34.41-2.83,1.07-4.25.81-1.19-.22-2.34-.93-3.37-1.53-2.25-1.31-4.29-2.9-6.13-4.74-.64-.64-1.53.43-.91,1.07h0Z"/>
          <path class="cls-1" d="M75.36,160.89c.1-.07.18-.13.27-.22.09-.09.16-.17.24-.27l.25-.33c.14-.19.26-.39.38-.59.08-.14.14-.28.17-.45.03-.15.02-.33.02-.49l-.02.3c.02-.08.05-.17.08-.25s.03-.17.04-.26c.02-.16.02-.33-.04-.49-.07-.19-.2-.34-.37-.45-.06-.05-.13-.09-.21-.1-.08-.04-.15-.05-.24-.04-.08-.02-.17,0-.25.02-.12.02-.23.06-.33.14-.08.04-.16.08-.23.14s-.13.12-.21.16l.26-.14c-.1.04-.19.09-.29.14-.17.09-.29.17-.43.33-.02.03-.04.05-.06.08-.15.19-.28.38-.4.58l-.21.35c-.03.06-.07.11-.1.17-.07.13-.11.33-.14.48l-.02.31.07.31.14.27c.08.13.19.23.33.3.08.07.17.11.27.13.1.05.2.06.3.06.11.02.21.01.31-.02.15-.02.3-.08.42-.17h0Z"/>
          <path class="cls-1" d="M83.88,163.28l.53.37.26.18c.12.08.23.17.36.22l.16.06.15.06c.06.02.12.04.18.06l.13.04h.27c.09,0,.18-.02.27-.04l.24-.12c.06-.04.46-.52.2-.18l.07-.11c.06-.07.09-.14.11-.23-.02.05.04-.09.04-.13v-.14c.02-.09.02-.18-.01-.27l-.03-.13-.12-.24c-.04-.06-.13-.15-.18-.2-.02-.02-.04-.05-.07-.07-.07-.08-.14-.16-.21-.23s-.18-.13-.27-.19l-.61-.4c-.11-.1-.24-.17-.38-.2-.14-.06-.29-.08-.44-.06-.15,0-.3.05-.42.13-.14.06-.25.14-.34.26-.18.23-.3.52-.26.82l.06.29c.07.19.18.34.33.47h0Z"/>
          <path class="cls-1" d="M95.4,160.46c1.49-.12,1.31-2.44-.19-2.32s-1.31,2.44.19,2.32h0Z"/>
          <path class="cls-1" d="M99.3,153.44c1.49-.12,1.31-2.44-.19-2.32s-1.31,2.44.19,2.32h0Z"/>
          <path class="cls-1" d="M111.72,158.27l.47-.24c.12-.06.27-.12.37-.19.03-.02.07-.05.1-.07l.2-.16.2-.18c.1-.11.16-.23.19-.36.04-.09.06-.18.05-.28.02-.14,0-.29-.05-.43l-.13-.25-.18-.2c-.11-.1-.23-.16-.36-.19-.13-.06-.27-.08-.42-.06h-.25s-.08,0-.12,0-.08.01-.12.02l-.49.09c-.23.02-.45.1-.64.23l-.25.22c-.15.17-.24.37-.29.6-.04.18-.03.35.02.52.02.17.09.33.19.47.09.14.21.26.36.34.13.1.29.17.46.2.23.04.46.02.69-.06h0Z"/>
          <path class="cls-1" d="M115.36,170.87c1.6-.13,1.41-2.62-.2-2.49-1.6.13-1.41,2.62.2,2.49h0Z"/>
          <path class="cls-1" d="M89.25,179.79c1.75-.14,1.54-2.87-.22-2.73-1.75.14-1.54,2.87.22,2.73h0Z"/>
          <path class="cls-1" d="M73.08,179.52c1.65-.13,1.45-2.7-.21-2.57s-1.45,2.7.21,2.57h0Z"/>
          <path class="cls-1" d="M62.89,173.22c1.77-.14,1.55-2.89-.22-2.75-1.77.14-1.55,2.89.22,2.75h0Z"/>
          <path class="cls-1" d="M57.66,175.49c5.26,5.02,11.2,9.61,18.7,10.21,7.81.62,15.45-2.11,22.78-4.42,8.41-2.65,16.81-5.31,25.21-7.98,8.42-2.68,16.72-5.68,25.01-8.73,4.52-1.66,9.07-3.28,13.57-5,3.59-1.37,7.35-3.04,9.71-6.2.8-1.07-.62-2.24-1.56-1.33-2.57,2.49-5.62,4.11-8.92,5.42-3.79,1.5-7.64,2.86-11.46,4.28-7.85,2.91-15.7,5.85-23.65,8.49-7.93,2.63-15.9,5.15-23.86,7.69-7.35,2.35-14.88,5.45-22.65,5.97-4.22.28-8.34-.42-12.09-2.41s-6.6-4.68-9.69-7.27c-.83-.7-1.86.54-1.09,1.28h0Z"/>
          <path class="cls-1" d="M119.56,145.94l.39.3c.06.05.12.1.19.14l.3.2h.01s.02.01.03.01l.06.02.05.02c.06.02.12.04.18.06.11.05.22.07.34.06.06.02.13.02.19,0,.18,0,.35-.06.5-.15.16-.07.29-.17.4-.31l.18-.28c.1-.21.14-.44.13-.68h0c-.03-.13-.05-.24-.08-.36l-.16-.31h0s-.02-.05-.03-.06l-.03-.06c-.04-.07-.07-.09-.15-.18-.07-.08-.13-.14-.2-.21l-.09-.08-.36-.33c-.14-.13-.3-.21-.48-.26-.18-.08-.36-.1-.56-.08-.2,0-.38.06-.54.17-.17.07-.32.18-.43.33l-.2.31c-.11.23-.16.48-.14.73l.08.37c.09.24.23.43.42.6h0Z"/>
          <path class="cls-1" d="M131.07,151.8l.25-.25s.08-.08.11-.13l.11-.14c.14-.16.23-.35.27-.56.04-.22.02-.44-.05-.65-.07-.2-.19-.37-.36-.51-.16-.14-.35-.23-.56-.27-.23-.03-.46-.06-.69-.04l-.38.02c-.28.02-.53.11-.76.27-.22.16-.39.35-.51.6-.12.25-.17.52-.15.79,0,.21.07.41.18.58.08.19.2.34.36.47.21.18.44.29.71.34.28.05.55.03.82-.07.25-.09.47-.24.65-.45h0Z"/>
          <path class="cls-1" d="M138.89,142.12c1.88-.15,1.65-3.07-.23-2.92-1.88.15-1.65,3.07.23,2.92h0Z"/>
          <path class="cls-1" d="M155.09,145.87c1.67-.13,1.46-2.72-.21-2.59s-1.46,2.72.21,2.59h0Z"/>
          <path class="cls-1" d="M161.06,142.92c1.37-.11,1.2-2.23-.17-2.12-1.37.11-1.2,2.23.17,2.12h0Z"/>
          <path class="cls-1" d="M153.42,137.68l.07.19c.02.06.05.13.08.19.05.15.13.28.25.39.09.12.22.22.36.28l.3.1c.22.04.43.02.64-.05.06-.02.12-.05.17-.07l.17-.08.36-.19.3-.27c.14-.16.24-.33.29-.53.06-.13.09-.26.08-.41.03-.14.02-.28-.03-.42-.01-.14-.06-.27-.14-.39-.05-.13-.13-.24-.23-.33-.13-.16-.28-.29-.48-.37l-.39-.13-.42-.02-.42.09-.36.19-.3.27c-.14.16-.24.33-.29.53-.06.13-.09.26-.08.41-.03.21,0,.42.08.63h0Z"/>
          <path class="cls-1" d="M146.24,153.24c1.93-.16,1.69-3.16-.24-3-1.93.16-1.69,3.16.24,3h0Z"/>
        </g>
        <path class="cls-5" d="M174.38,140.75c-1.5-2.5-4.28-3.26-6.8-4.29-2.92-1.19-4.8-3.9-7.71-5.09-2.93-1.2-6.23-.92-9.2-.01-3.69,1.13-6.94,3.34-10.71,4.29-2.14.54-4.02.29-6.16-.07-1.94-.32-3.55-.05-5.19,1.04-1.74,1.16-3.27,1.48-5.34,1.59-1.99.11-3.93.32-5.87.74-2.29.49-4.43,1.33-6.49,2.31,3.43,2.53,18.58,13.17,21.9,16.28,2.11,1.97,1.53,6.56,1.92,8.44.2.94.15,2.42.05,3.67,2.42-.87,12.16-4.21,14.58-5.1,4.52-1.66,9.07-3.28,13.57-5,3.59-1.37,7.35-3.04,9.71-6.2.48-.64.16-1.3-.37-1.55.62-.74,1.18-1.54,1.67-2.39,1.46-2.59,2.05-6.02.45-8.68Z"/>
        <g>
          <g>
            <g>
              <path class="cls-4" d="M196.67,153.39c-.94-.59-1.98-1.01-2.98-1.5-1.23-.6-2.15-1.44-3.05-2.46-1.54-1.75-3.15-3.36-5.03-4.75-3.93-2.9-8.41-4.71-12.69-6.98-4.92-2.62-9.79-5.34-14.69-8-4.47-2.43-9.53-4.59-12.73-8.69-1.48-1.9-2.91-3.72-4.81-5.23-2.06-1.63-4.35-2.98-6.57-4.39-4.5-2.86-8.98-5.79-13.68-8.31-1.9-1.02-3.86-1.93-5.85-2.77-1.53-1.25-3.17-2.35-5.08-2.97-2.33-.75-4.41-.5-6.7.24-2.36.76-4.76.91-6.92,2.22-1.87,1.12-3.71,2.35-5.41,3.72-3.28,2.63-6.01,6.16-6.15,10.53-.14,4.37,1.94,8.31,5.54,10.76,4.11,2.81,6.73,3.37,10.32,6.96,3.78,3.77,10.59,7.16,15.03,10.07,9.2,6.02,18.39,12.05,27.61,18.04,4.7,3.06,9.4,6.12,14.1,9.17,2.21,1.43,4.46,2.82,6.62,4.33,1.95,1.37,3.68,2.96,5.43,4.57,3.15,2.9,6.88,5.66,11.42,4.91,4.45-.74,8.37-4.18,11.79-6.91,3.73-2.98,7.13-6.57,8.3-11.34.99-4.08-.09-8.86-3.82-11.21Z"/>
              <path class="cls-1" d="M92.93,111.49c3.43,2,6.92,3.81,9.9,6.47,1.25,1.12,2.43,2.31,3.76,3.34,1.46,1.13,3.07,1.91,4.78,2.58s3.5,1.4,5.03,2.58c1.31,1.01,2.48,2.18,3.76,3.24,1.09.91,2.27,1.75,3.57,2.32,1.65.72,3.89.46,5.01,2.02.92,1.28,1.68,2.45,2.93,3.44,1.6,1.27,3.43,2.23,5.18,3.26,3.57,2.1,7.15,4.18,10.73,6.26,1.5.87,3.03,1.71,4.41,2.77,1.67,1.3,2.42,3,3.66,4.63.97,1.27,2.3,2.01,3.7,2.74,1.94,1.02,3.87,2.05,5.76,3.15,3.95,2.3,7.81,4.78,11.51,7.46,1.77,1.28,3.05,2.6,3.25,4.85.18,1.96-.35,4-.66,5.92-.19,1.2,1.69,1.69,2.08.53,1.04-3.07,1.67-6.78.05-9.78-.87-1.6-2.31-2.66-3.77-3.68-1.73-1.21-3.48-2.39-5.26-3.53-3.64-2.33-7.38-4.51-11.2-6.53-1.67-.89-3.15-1.63-4.18-3.27-1.04-1.65-2.03-3.11-3.58-4.33-3.3-2.59-7.3-4.5-10.92-6.6-3.34-1.94-7.21-3.62-10.1-6.21-1.24-1.11-1.92-2.81-3.39-3.65s-3.29-.74-4.83-1.51c-3.09-1.56-5.2-4.55-8.2-6.27-1.78-1.02-3.77-1.53-5.63-2.39-2.04-.94-3.68-2.44-5.32-3.93-3.38-3.07-7.16-5.32-11.33-7.17-.76-.34-1.47.86-.73,1.3h0Z"/>
            </g>
            <path class="cls-1" d="M103.05,107.25c.08-.04.15-.08.23-.12.14-.08.22-.12.32-.2l.04-.04s.03-.03.05-.04c.04-.03.08-.07.11-.12.12-.1.21-.23.26-.38.03-.1.06-.21.08-.32.02-.16,0-.32-.05-.47-.03-.15-.1-.29-.2-.41-.07-.08-.14-.15-.22-.22l-.27-.15c-.1-.05-.21-.08-.32-.08-.02,0-.04,0-.06,0-.15,0-.31-.01-.45,0-.08.01-.17.03-.25.05-.23.04-.43.13-.61.27l-.23.24c-.14.19-.22.4-.25.64-.03.18,0,.35.06.51.03.17.11.32.22.45.1.14.23.25.39.32.15.1.31.16.49.17.23.03.46,0,.68-.1h0Z"/>
            <path class="cls-1" d="M109.74,103.86c1.55.18,1.82-2.23.27-2.41s-1.82,2.23-.27,2.41h0Z"/>
            <path class="cls-1" d="M112.89,115.64c1.5.17,1.77-2.16.26-2.33-1.5-.17-1.77,2.16-.26,2.33h0Z"/>
            <path class="cls-1" d="M101.33,125.25c.15.02.3,0,.44-.05.14-.03.27-.09.39-.19.12-.09.21-.2.27-.34.09-.13.13-.27.15-.42v-.3c-.04-.2-.12-.37-.24-.53l-.21-.2c-.16-.12-.35-.19-.55-.22-.15-.02-.3,0-.44.05-.14.03-.27.09-.39.19-.12.09-.21.2-.27.34-.09.13-.13.27-.15.42v.3c.04.2.12.37.24.53l.21.2c.16.12.35.19.55.22h0Z"/>
            <path class="cls-1" d="M92.19,120.2c1.1.12,1.29-1.58.19-1.71s-1.29,1.58-.19,1.71h0Z"/>
            <path class="cls-1" d="M113.71,132.53c1.62.18,1.91-2.34.29-2.52s-1.91,2.34-.29,2.52h0Z"/>
            <path class="cls-1" d="M123.57,144.29c.24.09.45.11.71.08.02,0,.03,0,.05,0,.1-.02.2-.05.3-.09.11-.04.21-.1.3-.18.04-.03.07-.07.1-.11s.07-.07.1-.11c.01-.01.02-.02.03-.04.07-.1.13-.2.17-.31,0-.01.01-.03.02-.04.03-.1.06-.19.07-.29.03-.19-.02-.4-.09-.57-.13-.3-.43-.52-.75-.55-.17-.02-.33,0-.48.07-.15.07-.27.17-.37.3,0,.01-.02.02-.03.03l.17-.18s-.07.07-.1.1c-.11.12-.07.06-.15.2-.02.04-.05.08-.07.12l.12-.22s-.04.06-.06.09l.18-.18s-.06.05-.1.08l.22-.13s-.04.02-.06.03c-.1.04-.19.11-.28.17l.22-.14s-.06.03-.1.04l.25-.07s-.07.02-.11.02h.27s-.03,0-.05,0c-.13-.02-.26,0-.39.04-.13.03-.24.08-.34.17l-.18.18c-.08.1-.14.22-.16.35-.03.08-.04.17-.03.26,0,.13.02.26.07.38l.13.22c.11.14.24.24.4.3h0Z"/>
            <path class="cls-1" d="M125.17,139.11c1.36.15,1.6-1.96.24-2.11s-1.6,1.96-.24,2.11h0Z"/>
            <path class="cls-1" d="M138.19,147.4c1.46.17,1.72-2.1.26-2.27-1.46-.17-1.72,2.1-.26,2.27h0Z"/>
            <path class="cls-1" d="M145.18,158.2c.16.02.32,0,.46-.05.15-.03.29-.1.41-.2.13-.09.22-.21.29-.35.09-.13.14-.28.15-.44v-.32c-.04-.21-.12-.39-.25-.55l-.22-.21c-.17-.13-.36-.2-.57-.23-.16-.02-.32,0-.46.05-.15.03-.29.1-.41.2-.13.09-.22.21-.29.35-.09.13-.14.28-.15.44v.32c.04.21.12.39.25.55l.22.21c.17.13.36.2.57.23h0Z"/>
            <path class="cls-1" d="M160.46,164.15c.16.02.31,0,.46-.05.15-.03.28-.1.4-.2.12-.09.22-.21.28-.34.09-.13.14-.27.15-.43v-.31c-.04-.2-.12-.38-.25-.54l-.21-.21c-.17-.12-.36-.2-.56-.22-.16-.02-.31,0-.46.05-.15.03-.28.1-.4.2-.12.09-.22.21-.28.34-.09.13-.14.27-.15.43v.31c.04.2.12.38.25.54l.21.21c.17.12.36.2.56.22h0Z"/>
            <path class="cls-1" d="M168.25,172.82l.09-.1.12-.21c.05-.12.07-.23.06-.36,0-.08,0-.16-.04-.23-.02-.12-.07-.22-.15-.31l-.17-.16-.21-.12c-.12-.05-.23-.07-.36-.06-.12,0-.24.01-.35.07l-.12.07c-.15.07-.27.16-.37.29-.1.13-.16.28-.18.45v.25c.03.16.09.31.2.43.07.1.16.17.27.22.1.07.22.11.35.12.17.02.33,0,.48-.07.15-.07.27-.16.37-.29h0Z"/>
            <path class="cls-1" d="M175.61,171.12l-.26.38c-.09.12-.14.26-.16.41-.02.11,0,.22.04.33.02.11.07.2.14.29.09.12.21.2.34.26l.4.11.3.08h.31c.1-.03.19-.06.29-.09l.25-.15.21-.21.15-.26.08-.3c.02-.16,0-.31-.05-.46-.02-.1-.06-.19-.12-.27-.04-.09-.1-.17-.18-.23-.06-.08-.14-.14-.24-.18-.08-.06-.18-.1-.28-.11-.1-.04-.2-.05-.31-.03-.1-.01-.2,0-.3.05-.1.02-.19.06-.27.12-.13.07-.25.16-.33.29h0Z"/>
            <path class="cls-1" d="M167.56,156.44c1.42.16,1.68-2.05.25-2.21-1.42-.16-1.68,2.05-.25,2.21h0Z"/>
            <path class="cls-1" d="M174.04,146.72l.06-.05c.12-.09.22-.21.28-.34.09-.13.14-.27.15-.43v-.31c-.04-.2-.12-.38-.25-.54l-.05-.06-.23-.22-.28-.16c-.16-.07-.32-.1-.49-.08-.11-.01-.22,0-.32.05-.11.02-.2.06-.29.13-.1.04-.18.11-.25.2-.09.07-.15.15-.19.25-.09.14-.15.29-.16.46v.33c.04.1.07.21.1.31l.16.27.23.22.28.16c.16.07.32.1.49.08.11.01.22,0,.32-.05.16-.03.3-.1.43-.21h0Z"/>
            <path class="cls-1" d="M156.55,141.19l.05-.12s.02-.04.02-.06h0c.01-.05.03-.1.04-.15.04-.17.08-.25.03-.46,0,0,0,0,0,0v-.02s0-.02-.01-.03l-.04-.13c-.03-.13-.08-.25-.17-.35l-.09-.09c-.06-.07-.13-.12-.21-.16-.04-.02-.08-.05-.12-.07h-.02s-.02-.02-.03-.02c0,0-.29-.08-.3-.08h-.15c-.05,0-.1,0-.16,0,0,0,0,0-.01,0h-.03s-.09.02-.14.03c-.22.04-.41.12-.58.26-.17.14-.3.31-.38.51-.08.21-.11.43-.08.66.04.22.12.41.26.58.14.17.31.3.51.38.21.08.43.11.66.08.22-.04.41-.12.58-.26.17-.14.3-.31.38-.51h0Z"/>
            <path class="cls-1" d="M129.73,116.55l.46.06.23.03c.18.02.33.04.53.02l.29-.09c.14-.06.27-.15.36-.26.08-.06.14-.15.18-.24.09-.13.14-.28.15-.44v-.32c-.04-.1-.06-.2-.09-.29-.06-.14-.15-.27-.26-.36-.1-.12-.23-.2-.37-.25-.19-.06-.34-.08-.52-.1l-.23-.02-.46-.04c-.16-.02-.31,0-.46.05-.15.03-.28.1-.4.2-.12.09-.22.21-.28.34-.09.13-.14.27-.15.43v.31c.04.2.12.38.25.54l.21.21c.17.12.36.2.56.22h0Z"/>
            <path class="cls-1" d="M124.56,122.85l.02.27s.01.09.03.13l.02.07s0,.02,0,.03c.01.05.03.1.04.15,0,.05.02.1.05.15.08.18.19.32.35.44.16.12.34.19.53.21.2.02.39,0,.57-.09.18-.08.32-.19.44-.35.03-.04.06-.08.08-.13.03-.04.05-.09.07-.13,0-.01.01-.02.02-.03l.03-.06s.04-.08.05-.12l.08-.26c.08-.21.11-.43.08-.66-.04-.22-.12-.41-.26-.58l-.23-.22c-.18-.13-.38-.21-.61-.24-.17-.03-.33,0-.49.05-.16.03-.3.1-.43.21-.17.14-.3.31-.38.51-.08.21-.11.43-.08.66h0Z"/>
            <path class="cls-1" d="M140.75,126.43l.06-.14c.02-.06.03-.1.05-.18.04-.09.05-.19.03-.29,0-.05,0-.1,0-.15,0,0,0,0,0,0h0s0-.04,0-.06c-.03-.17-.1-.33-.2-.47-.11-.14-.25-.24-.41-.3h-.04s0-.02-.01-.02c0,0,0,0,0,0-.02,0-.27-.07-.29-.07-.12-.02-.22,0-.33.01l-.15.03c-.21.03-.4.12-.57.25-.17.13-.29.3-.37.5-.08.21-.11.42-.07.64.03.21.12.4.25.57.13.17.3.29.5.37.21.08.42.11.64.07.21-.03.4-.12.57-.25.17-.13.29-.3.37-.5h0Z"/>
            <path class="cls-1" d="M183.66,152.95l.43.04.21.02s.03,0,.05,0c0,0,.02,0,.03,0h.34s.07-.02.11-.02l.31-.09c.15-.06.28-.15.38-.28.08-.07.15-.15.19-.25.09-.14.15-.29.16-.46v-.33c-.04-.1-.07-.2-.1-.31-.06-.15-.15-.28-.28-.38-.11-.12-.24-.21-.39-.27-.17-.06-.34-.11-.51-.13l-.21-.03-.42-.05c-.17-.03-.34,0-.5.05-.16.03-.31.1-.44.21-.14.1-.24.23-.31.38-.1.14-.15.3-.16.47v.34c.04.22.13.42.27.59l.23.23c.18.14.39.22.62.24h0Z"/>
            <path class="cls-1" d="M177.3,162.05l.11.21c.08.16.17.31.27.46l.22.22c.13.1.27.17.43.2.1.04.21.05.32.04.16.01.32-.02.47-.09l.27-.16.22-.22c.1-.13.17-.27.2-.43.05-.16.07-.32.03-.49,0-.04-.02-.07-.02-.11l-.02-.11-.05-.22c-.04-.22-.12-.42-.26-.6l-.23-.23c-.19-.14-.39-.22-.62-.25-.17-.03-.34,0-.5.05-.16.03-.31.11-.44.22-.14.1-.24.23-.31.38-.1.14-.15.3-.17.48-.03.23,0,.45.1.66h0Z"/>
            <path class="cls-1" d="M192.72,163.14c1.55.18,1.82-2.23.27-2.41-1.55-.18-1.82,2.23-.27,2.41h0Z"/>
            <path class="cls-1" d="M189.52,173.72c1.52.17,1.8-2.19.27-2.37-1.52-.17-1.8,2.19-.27,2.37h0Z"/>
            <path class="cls-1" d="M146.13,136.12l-.06.05c-.11.08-.2.19-.26.32-.08.12-.13.25-.14.4v.29c.04.19.11.35.22.5l.05.06.21.2.26.15c.15.06.3.09.45.07.1.01.2,0,.3-.04.1-.02.19-.06.27-.12.09-.04.17-.1.23-.18.08-.06.14-.14.17-.23.09-.13.14-.27.15-.43v-.31c-.03-.09-.06-.19-.09-.28l-.15-.25-.21-.2-.26-.15c-.15-.06-.3-.09-.45-.07-.1-.01-.2,0-.3.04-.15.03-.28.09-.39.19h0Z"/>
            <path class="cls-1" d="M162.93,138.03c1.5.17,1.77-2.16.26-2.33s-1.77,2.16-.26,2.33h0Z"/>
          </g>
          <path class="cls-1" d="M85.99,121.47c5.24,6.15,11.98,10.06,18.8,14.12,7.73,4.6,15.21,9.59,22.75,14.5,7.74,5.04,15.49,10.08,23.21,15.15,7.59,4.97,15.13,10.04,22.22,15.71,1.66,1.33,3.32,3.11,5.46,3.62,2.11.5,4.18-.42,5.99-1.44,4-2.26,8.16-6.7,11.45-9.93.89-.87-.41-.61-1.41.21-3.23,2.64-6.42,5.22-10.02,7.35-1.51.89-3.34,2.11-5.18,1.88-2.12-.26-4.08-2.56-5.68-3.83-6.77-5.37-13.94-10.19-21.17-14.91-7.27-4.75-14.56-9.47-21.83-14.21-7.34-4.78-14.59-9.76-22.18-14.13-3.72-2.14-7.14-4.62-10.86-6.76-3.85-2.23-7.7-4.16-10.62-7.53-.7-.82-1.63-.63-.92.2h0Z"/>
        </g>
      </g>
    </g>
  </g>
</svg>