<?xml version="1.0" encoding="UTF-8"?>
<svg id="Capa_2" data-name="Capa 2" xmlns="http://www.w3.org/2000/svg" viewBox="0 0 200 200">
  <defs>
    <style>
      .cls-1 {
        fill: #ac9b9b;
      }

      .cls-1, .cls-2, .cls-3, .cls-4, .cls-5 {
        stroke-width: 0px;
      }

      .cls-2 {
        fill: none;
      }

      .cls-3 {
        fill: #fff;
      }

      .cls-4 {
        fill: #593737;
      }

      .cls-5 {
        fill: #f28322;
      }
    </style>
  </defs>
  <g id="colorful_icons" data-name="colorful icons">
    <g>
      <g>
        <g>
          <g>
            <path class="cls-4" d="m130.02,143.31c-.01.44-.05.88-.1,1.32l20.74-3.99-.88-6.75-20.63,4.77c.74,1.38.92,3.18.88,4.64Z"/>
            <path class="cls-4" d="m26.21,166.91c-1.17,1.76-.08,2.64,1.08,2.93,5.04,1.3,9.58.99,14.77.99.37,0,.75,0,1.12,0,.08,0,.17,0,.25,0,4.68,0,9.36,0,14.04,0,3.69,0,7.38,0,11.07,0,7.2,0,14.26,0,21.46,0,1.6.01,3.19.03,4.79.01,5.24.05,9.89-.11,14.78-.7,1.03-.12,2.84-2.05.88-3.42-2.19,0-78.28.48-84.23.2Z"/>
            <path class="cls-1" d="m149.91,143.13c5.87.88,40.06-5.58,44.46-7.92,4.4-2.35,5.72-6.46,3.52-11.59s-7.63-2.35-12.33-1.47c-4.7.88-38.15,9.32-40.28,11.08-1.04.86-1.25,9.02,4.62,9.91Z"/>
          </g>
          <path class="cls-5" d="m8.11,137.46h119.55s3.52,0,3.52,3.13-1.96,18.98-11.15,23.28c-9.2,4.3-19.76,3.33-35.61,3.52-15.85.2-54.95-.45-55.76-.39-5.14.39-12.2-2.38-16.22-6.32-4.63-4.53-6.47-11.42-6.47-17.75,0-5.28.98-5.48,2.15-5.48Z"/>
        </g>
        <g>
          <g>
            <path class="cls-4" d="m62.55,104.11v12.57h12.28v-12.57s-12.38-.1-12.28,0Z"/>
            <path class="cls-5" d="m79.05,94.39c-6.88-.87-13.85-.87-20.72,0-6.19.79-7.37,1.77-7.27,3.54.1,1.77-.2,7.07,3.05,8.94,2.79,1.61,26.38,1.61,29.17,0,3.24-1.87,2.95-7.17,3.04-8.94s-1.08-2.75-7.27-3.54Z"/>
          </g>
          <g>
            <path class="cls-5" d="m129.64,134.27s-8.49-9.82-26.62-15.23c-6.7-2-13.66-3.13-20.6-3.92-14.01-1.58-28.41-.69-42.22,2.41-1.96.44-3.91.94-5.83,1.51-18.13,5.41-26.62,15.23-26.62,15.23,4.25-.07,8.51-.15,12.76-.22,8.6-.15,94.84-.03,103.85.13,1.76.03,3.52.06,5.28.09Z"/>
            <path class="cls-4" d="m132.78,132.2c-2.65-1.08-11.2-.49-11.2-.49H15.8s-8.55-.59-11.2.49c-2.65,1.08-3.54,5.89.39,6.48,3.38.51,124.01.51,127.39,0,3.93-.59,3.04-5.4.39-6.48Z"/>
          </g>
          <path class="cls-3" d="m55.79,100.55l.5-.06.24-.03s.08,0,.12-.01c.12-.01.25-.02.36-.05.16-.04.31-.11.43-.23.06-.03.1-.07.14-.12.15-.15.26-.34.32-.55.05-.16.06-.33.02-.49,0-.17-.06-.32-.15-.46-.11-.19-.26-.33-.45-.45-.17-.11-.3-.14-.49-.16-.11-.03-.22-.03-.33,0-.06,0-.12.01-.18.03-.04,0-.08.02-.12.02l-.25.05-.49.1c-.16.04-.3.11-.42.22-.13.09-.24.2-.32.34l-.12.29c-.05.16-.06.33-.02.49,0,.11.03.21.08.31.05.15.13.28.25.39l.25.19c.19.11.4.17.62.17h0Z"/>
          <path class="cls-3" d="m61.5,99.49l.25-.03c.08-.01.16-.02.24-.03.12-.03.24-.11.35-.16l.2-.1c.34-.18.34-.72,0-.89l-.2-.1c-.11-.06-.23-.14-.35-.16-.08-.02-.16-.02-.24-.03l-.25-.03c-.14-.04-.29-.04-.43,0-.14.04-.26.11-.36.21-.15.16-.24.35-.24.57,0,.21.09.43.24.57.1.1.22.17.36.21.14.04.29.04.43,0h0Z"/>
        </g>
        <path class="cls-4" d="m23.52,91.19c-2.45,3.28-6.38,7.29-5.85,12.12.44,4.02,4.18,6.79,7.38,7.39.4.07.69-.54.29-.8-1.61-1.05-3.34-1.73-4.62-3.38-1.64-2.1-1.15-4.63.13-6.79,2.42-4.08,5.82-7.32,8.25-11.42,1.78-3.01,2.85-7.34.6-10.44-1.25-1.72-3.03-2.73-3.95-4.8-.93-2.09-.72-4.44-.61-6.71.01-.31-.39-.54-.57-.27-2.08,3.13-.93,7.78,1.2,10.47.74.93,1.71,1.68,2.3,2.76.83,1.52.74,3.34.14,4.95-.99,2.63-3.09,4.76-4.69,6.9Z"/>
        <path class="cls-4" d="m34.77,87.05c-1.94,1.72-3.73,4.1-4.19,6.98-.37,2.28.17,5.34,2.09,6.44.17.1.45-.07.36-.32-1.14-3.4-1.19-6.43.96-9.39,1.53-2.11,3.68-3.43,5.23-5.5,1.46-1.94,1.75-4.18.88-6.58-.49-1.37-1.33-2.42-2.15-3.53-1.28-1.73-2.01-3.53-2.12-5.85-.02-.32-.36-.43-.51-.16-1.5,2.63.3,5.64,1.45,7.99.95,1.94,2.33,4.11,1.34,6.41-.67,1.56-2.19,2.5-3.34,3.52Z"/>
      </g>
      <rect class="cls-2" width="200" height="200"/>
    </g>
  </g>
</svg>