<?xml version="1.0" encoding="UTF-8"?>
<svg id="Capa_2" xmlns="http://www.w3.org/2000/svg" viewBox="0 0 243.3 243.3">
  <defs>
    <style>
      .cls-1 {
        fill: #fff;
      }

      .cls-2 {
        fill: none;
      }

      .cls-3 {
        fill: #4f3535;
      }

      .cls-4 {
        fill: #d9472e;
      }
    </style>
  </defs>
  <g id="grocery_icons">
    <g>
      <rect class="cls-2" width="243.3" height="243.3"/>
      <g>
        <g>
          <path class="cls-4" d="M172.23,123.24c-.05-2.01-.05-4.04-.04-6.22.02-6.08.03-12.38-1.39-18.11-1.42-5.74-6.01-9.29-10.45-12.74-.8-.62-1.6-1.24-2.37-1.86-1.02-.83-2.08-1.63-3.23-2.49-2.53-1.9-5.14-3.86-7.11-6.09-1.8-2.04-1.63-4.69-1.45-7.5,0-.09,0-.19.01-.28.05,0,.12,0,.17-.01,6.03-.6,8.8-3.69,8.98-10.01,0-.34.02-.7.04-1.17.19-4.76.48-11.95-5.08-13.24-2.54-.59-5.47-.64-8.25-.64h-1.06c-1.53-2.53-3.3-4.88-5.04-7.16l-1.04-1.37c-.41-.54-.87-1.07-1.35-1.63-.91-1.05-1.85-2.13-2.4-3.26-1.02-2.08-.99-4.19-.96-6.42,0-.58.02-1.17,0-1.76-.01-.91,0-1.88.01-2.91.08-5.27.16-11.25-3.72-14.22-.38-.29-1.77-1.25-3.57-1.25-1.2,0-2.33.42-3.35,1.26-3.82,3.12-3.76,9.08-3.7,14.37.01.95.02,1.87,0,2.75,0,.6,0,1.18,0,1.76.03,2.23.06,4.34-.96,6.42-.55,1.13-1.49,2.21-2.4,3.26-.49.56-.94,1.08-1.35,1.63l-.99,1.3c-1.75,2.3-3.54,4.68-5.09,7.24h-1.15c-2.78,0-5.7.05-8.25.64-5.56,1.29-5.27,8.48-5.08,13.32.02.38.03.74.04,1.08.19,6.32,2.96,9.41,8.98,10.01.06,0,.13.01.19.02,0,.07,0,.15,0,.22.17,2.81.33,5.46-1.48,7.49-1.99,2.22-4.61,4.17-7.14,6.05-1.14.84-2.21,1.64-3.24,2.47-.78.62-1.58,1.24-2.39,1.86-4.45,3.42-9.05,6.95-10.5,12.68-1.45,5.73-1.46,12.01-1.48,18.1,0,2.15,0,4.19-.07,6.22-.33,10.19-.52,19.29-.59,27.82-.16,19.6.23,37.45,1.18,54.57.05.92.09,1.89.13,2.89.35,8.67.79,19.47,9.34,23.59,5.03,2.43,10.61,3.78,16.01,5.1l1.06.26c7.13,1.74,14.54,2.62,22,2.62s14.75-.86,21.89-2.57l1.07-.26c5.4-1.28,10.98-2.61,16.02-5.02,8.56-4.08,9.06-14.88,9.45-23.56.05-.99.09-1.96.14-2.87,1.04-17.12,1.51-34.97,1.44-54.56-.03-8.51-.18-17.61-.46-27.82Z"/>
          <path class="cls-1" d="M149.53,144.85c-4.01-8.56-13.52-13.86-23.6-14.22-14.41-.52-31.25,11.81-32.99,26.04-1.74,14.24,5.38,31.6,27.09,35.07,21.7,3.47,32.4-12.35,33.09-22.25.51-7.32.26-16.43-3.59-24.64Z"/>
          <path class="cls-1" d="M86.8,98.07c8.23,1.93,16.65,3.22,25.09,3.69,7.22.4,16.87,1.46,23.57-1.62.92-.42.7-2.02-.29-2.2-3.43-.66-6.81.06-10.28.29-3.99.27-8,.34-12,.26-8.58-.16-17.01-1.15-25.42-2.85-1.58-.32-2.26,2.05-.67,2.43h0Z"/>
          <path class="cls-1" d="M143.65,99.42c.8-.11,1.6-.21,2.4-.32.83-.11,1.65-.17,2.38-.61.92-.55.73-1.95-.29-2.25-1.37-.4-3.1.09-4.49.26-.78.1-1.46.6-1.46,1.46,0,.71.67,1.56,1.46,1.46h0Z"/>
          <path class="cls-3" d="M121.07,6.29c-.05.07-.08.18-.11.25-.03.08-.08.17-.1.25-.06.18-.07.38-.07.57,0,.41.11.7.29,1.06.09.19.23.35.37.5.14.11.29.22.43.33.25.16.51.24.79.25.19.05.38.05.57,0,.19,0,.37-.05.54-.15.26-.09.49-.23.69-.44.11-.14.22-.29.33-.43l.22-.51c.09-.28.1-.57.04-.85,0-.19-.05-.37-.15-.54-.05-.18-.14-.34-.27-.47-.15-.23-.35-.42-.6-.55l-.51-.22c-.19-.03-.38-.05-.57-.08-.19.03-.38.05-.57.08-.28.07-.52.19-.73.38-.23.15-.42.35-.55.6,0,0,0,.01-.01.02l.33-.43s-.02.03-.04.04c.14-.11.27-.21.41-.32-.02.01-.03.02-.05.03.16-.07.31-.13.47-.2-.02,0-.03.01-.05.01.17-.02.33-.04.5-.07-.01,0-.03,0-.04,0l.49.07s-.04,0-.05-.01l-.47-.06c-.24,0-.47.04-.68.15-.15.04-.28.12-.39.23-.19.12-.34.29-.45.49h0Z"/>
          <path class="cls-3" d="M104.64,43.43c6.04.98,12.13,1.4,18.24,1.39,5.95-.01,12.52-.2,18.29-1.74,1.45-.39.06-1.82-1.25-1.81-5.69.07-11.19.36-17.08.42-5.99.06-10.55-.28-16.66-.42-1.34-.03-3.05,1.89-1.46,2.15h-.07Z"/>
          <path class="cls-3" d="M118.97,71.25c9.8.24,19.5-.45,29.07-2.75,1.8-.43,1.36-2.12-.56-1.94-9.86.92-17.55,1.91-27.5,1.67-7.92-.19-17.08-.83-24.78-1.91-1.25-.18.77,2.19,2.01,2.47,5.34,1.22,13.84,2.28,21.76,2.47Z"/>
          <path class="cls-1" d="M99.03,55.44c.62-.08,1.27-.11,1.86-.32,1.18-.43,2.22-1.01,2.84-2.15.63-1.16.56-2.87-.49-3.79-1-.88-2.11-1.28-3.45-1.26-.91.01-1.82.27-2.71.46-1.88.4-3.15,2.7-2.56,4.51.29.89.84,1.74,1.69,2.19.93.49,1.79.51,2.83.37h0Z"/>
          <path class="cls-1" d="M112.39,54.55c4.06,0,4.07-6.32,0-6.32s-4.07,6.32,0,6.32h0Z"/>
        </g>
        <path class="cls-3" d="M136.26,174.89c-1.18-1.35-3.22-3.12-7.01-6.08-1.62-1.25-4.73-3.89-6.82-5.77-2.26-1.93-3.98-3.42-4.64-4.04.78-.75,2.97-2.58,5.09-4.35,1.88-1.52,4.77-3.98,5.62-4.7,1.76-1.56,2.9-2.53,3.1-2.67.98-.61,2.78-2.42,2.78-3.38,0-1.07-.61-1.42-1.29-1.71-.32-.11-.56-.19-.94-.19h0c-1.3-.09-2.66,1.01-6.37,4.48-4.71,4.31-8.84,7.66-10.35,8.6-.14-1.37-.33-4.49-.33-6.34,0-1.03.15-2.34.29-2.93.32-1.1.39-1.54-.03-2.18-.3-.67-1.02-1.43-2.71-1.26-1.62.08-2.15,1.12-2.45,2.65-.28,1.26-.59,17.36-.71,28.39-.07,3.36.06,4.77,1.65,5.23.26.1.61.15.98.15.66,0,1.38-.15,1.78-.43,1.13-.76,1.3-2.07,1.13-8.74-.03-2.66-.06-5.4.15-6.03,0,0,0,0,.01,0,.13.05.84.43,1.64.92,1.49,1.06,8.56,7.13,10.64,9.13,1.37,1.45,4.41,3.91,5.62,4.55,1,.5,2.62.55,3.44-.16,1.26-1.19.68-2.05-.27-3.14Z"/>
      </g>
    </g>
  </g>
</svg>