<?xml version="1.0" encoding="UTF-8"?>
<svg id="Capa_2" data-name="Capa 2" xmlns="http://www.w3.org/2000/svg" viewBox="0 0 200 200">
  <defs>
    <style>
      .cls-1 {
        fill: #ac9b9b;
      }

      .cls-1, .cls-2, .cls-3, .cls-4, .cls-5 {
        stroke-width: 0px;
      }

      .cls-2 {
        fill: none;
      }

      .cls-3 {
        fill: #593737;
      }

      .cls-4 {
        fill: #6bb262;
      }

      .cls-5 {
        fill: #f3b200;
      }
    </style>
  </defs>
  <g id="colorful_icons" data-name="colorful icons">
    <g>
      <g>
        <g>
          <g>
            <path class="cls-3" d="m128.24,142.86c-.01.45-.05.9-.11,1.34l21.07-4.05-.89-6.86-20.96,4.85c.75,1.4.94,3.23.89,4.72Z"/>
            <path class="cls-3" d="m22.76,166.84c-1.19,1.79-.08,2.68,1.09,2.98,5.12,1.32,9.73,1,15.01,1,.38,0,.76,0,1.14,0,.08,0,.17,0,.25,0,4.75,0,9.51,0,14.26,0,3.75,0,7.5,0,11.25,0,7.31,0,14.49,0,21.8,0,1.62.01,3.25.03,4.87.01,5.32.05,10.05-.11,15.02-.71,1.04-.13,2.88-2.09.89-3.48-2.23,0-79.54.49-85.59.2Z"/>
            <path class="cls-1" d="m148.46,142.69c5.96.89,40.71-5.67,45.18-8.05s5.82-6.56,3.58-11.78c-2.24-5.22-7.75-2.39-12.52-1.49s-38.77,9.47-40.93,11.26c-1.06.88-1.27,9.17,4.7,10.06Z"/>
          </g>
          <path class="cls-4" d="m4.37,136.92h121.47s3.58,0,3.58,3.18-1.99,19.28-11.33,23.66c-9.34,4.37-20.08,3.38-36.18,3.58-16.1.2-55.84-.46-56.66-.4-5.22.4-12.4-2.42-16.49-6.42-4.7-4.6-6.58-11.6-6.58-18.03,0-5.37.99-5.57,2.19-5.57Z"/>
        </g>
        <path class="cls-3" d="m67.45,112.79c1.91,2.3,3.15,5.05,2.74,8.08-.45,3.35-2.42,6.23-4.51,8.79-.38.46.22,1.11.67.67,3.78-3.71,7.35-8.51,6.43-14.11-.9-5.44-5.52-8.95-9.49-12.24-2.18-1.8-4.43-3.69-5.86-6.17-1.53-2.64-1.83-5.78-1.4-8.76.91-6.32,4.64-11.54,7.78-16.93.32-.55-.41-1.1-.87-.67-7.94,7.44-15.4,19.79-7.57,30.07,3.38,4.44,8.52,7.01,12.08,11.28Z"/>
        <path class="cls-3" d="m42.84,116.48c2.07,1.34,4.72,2.78,4.82,5.59.11,2.78-1.99,5.57-3.54,7.72-.3.42.34.87.69.54,3.08-2.92,6.4-7.27,3.79-11.59-2.35-3.9-9.14-5.14-8.5-10.64.05-.47-.65-.74-.94-.39-2.81,3.3.93,7.01,3.67,8.79Z"/>
        <path class="cls-3" d="m94.79,116.71c-.11,4.86-2.65,8.78-4.18,13.24-.07.2.23.38.37.21,4.77-5.75,8.67-15.13,5.09-22.33-1.74-3.5-4.98-6.21-6.14-10.03-1.31-4.3.91-7.71,2.39-11.56.21-.55-.51-1.04-.97-.75-2.98,1.86-4.55,5.75-5.01,9.1-.56,4.16.84,7.5,3.3,10.77,2.59,3.45,5.27,6.77,5.16,11.34Z"/>
        <path class="cls-5" d="m26.8,133.1c.47,0,1.07-.36,1.14-.87.08-.58.12-1.27-.05-1.85-.15-.51-.48-1.16-1.09-1.16-1.31,0-1.26,2.16-1.14,3.01.07.5.67.87,1.14.87Z"/>
        <path class="cls-5" d="m116.56,132.32c.37-.42.64-.86.83-1.38.1-.28.14-.57.1-.87-.03-.2-.09-.39-.2-.56-.06-.08-.13-.16-.19-.24.1.1.1.09,0-.02-.42-.6-1.32-.69-1.72,0-.07.11-.07.12,0,.02-.09.11-.18.22-.26.33-.07.14-.13.28-.16.42-.05.36-.06.46-.04.3.02-.11-.07.26-.09.31.05-.1.04-.08-.02.05-.04.07-.08.14-.13.21-.7,1.13.95,2.45,1.86,1.43Z"/>
        <path class="cls-5" d="m83.34,131.16c.15-1.14.31-2.24.14-3.38-.07-.45-.75-.5-.95-.12-.51.96-.71,1.97-.92,3.03-.23,1.15,1.58,1.6,1.73.48Z"/>
        <path class="cls-5" d="m54.88,129.42s0-.01,0-.02c0-.02,0-.03,0-.05,0,.03,0,.05,0,.07Z"/>
        <path class="cls-5" d="m54.88,129.42s0,.01,0,.02c0,.05,0,.1,0-.02Z"/>
        <path class="cls-5" d="m54.95,130.67c.06.28.29.5.55.61.49.21,1.17-.05,1.28-.61.09-.45.04-.89-.2-1.28-.27-.43-1-.72-1.44-.39-.14.11-.22.23-.25.4-.01.13-.01.25.03.39,0,.02.01.03.01.04,0,.1.02.19.05.28,0,.01,0,.01,0,.02,0,0,0,.01,0,.02-.05.17-.07.33-.03.52Zm.04-.56s0,0,0-.01c0,0,0-.02,0-.03,0-.02.02-.06.05-.12-.02.06-.03.11-.05.17Z"/>
      </g>
      <rect class="cls-2" width="200" height="200"/>
    </g>
  </g>
</svg>