<?xml version="1.0" encoding="UTF-8"?>
<svg id="Capa_2" xmlns="http://www.w3.org/2000/svg" viewBox="0 0 243.3 243.3">
  <defs>
    <style>
      .cls-1 {
        fill: #fff;
      }

      .cls-2 {
        fill: none;
      }

      .cls-3 {
        fill: #4f3535;
      }

      .cls-4 {
        fill: #f7bc3b;
      }
    </style>
  </defs>
  <g id="grocery_icons">
    <g>
      <rect class="cls-2" width="243.3" height="243.3"/>
      <g>
        <path class="cls-4" d="M175.84,123.75c-.06-2.02-.05-4.05-.04-6.24.02-6.11.03-12.43-1.4-18.19-1.43-5.76-6.03-9.33-10.5-12.79-.8-.62-1.6-1.24-2.38-1.87-1.02-.83-2.09-1.63-3.24-2.5-2.54-1.9-5.16-3.87-7.14-6.11-1.81-2.04-1.64-4.71-1.45-7.53,0-.09,0-.19.01-.28.05,0,.12,0,.17-.01,6.05-.61,8.83-3.71,9.02-10.05,0-.34.02-.7.04-1.17.19-4.78.48-12-5.1-13.29-2.55-.59-5.49-.64-8.28-.64h-1.06c-1.54-2.54-3.31-4.9-5.06-7.19l-1.05-1.38c-.41-.55-.87-1.07-1.36-1.63-.91-1.05-1.86-2.14-2.41-3.27-1.02-2.09-.99-4.21-.96-6.45,0-.58.02-1.17,0-1.77-.01-.92,0-1.88.01-2.93.08-5.3.17-11.3-3.73-14.28-.38-.29-1.78-1.25-3.59-1.25-1.21,0-2.34.43-3.36,1.26-3.84,3.14-3.77,9.12-3.71,14.43.01.95.02,1.88,0,2.76,0,.6,0,1.19,0,1.77.03,2.24.06,4.36-.96,6.45-.56,1.14-1.5,2.22-2.41,3.27-.49.56-.95,1.09-1.36,1.63l-.99,1.3c-1.76,2.31-3.56,4.7-5.11,7.27h-1.16c-2.79,0-5.73.05-8.28.64-5.59,1.29-5.3,8.51-5.1,13.38.02.38.03.74.04,1.08.19,6.35,2.97,9.45,9.02,10.05.06,0,.13.01.19.02,0,.07,0,.15,0,.22.17,2.82.33,5.49-1.49,7.52-1.99,2.23-4.63,4.19-7.17,6.08-1.14.85-2.22,1.65-3.25,2.48-.78.63-1.59,1.25-2.4,1.87-4.47,3.43-9.09,6.98-10.55,12.73-1.46,5.75-1.47,12.07-1.48,18.18,0,2.16,0,4.21-.08,6.25-.33,10.24-.52,19.37-.59,27.94-.16,19.68.23,37.61,1.18,54.8.05.92.09,1.9.13,2.9.36,8.71.8,19.55,9.37,23.69,5.05,2.44,10.65,3.8,16.08,5.12l1.07.26c7.16,1.75,14.6,2.63,22.1,2.63s14.81-.87,21.98-2.58l1.08-.26c5.42-1.29,11.03-2.62,16.09-5.04,8.6-4.1,9.09-14.94,9.49-23.66.05-1,.09-1.96.15-2.88,1.04-17.19,1.51-35.12,1.45-54.79-.03-8.55-.18-17.69-.46-27.94Z"/>
        <path class="cls-1" d="M152.04,145.68c-4.31-8.45-12.56-14.16-22.68-14.52-14.47-.52-31.39,11.86-33.13,26.15-1.74,14.3,5.41,31.73,27.2,35.22,21.8,3.49,31.56-13.25,32.26-23.19.52-7.36-.04-16.59-3.65-23.66Z"/>
        <path class="cls-1" d="M90.06,98.48c8.26,1.94,16.72,3.24,25.2,3.7,7.25.4,16.94,1.47,23.66-1.63.93-.43.7-2.02-.29-2.21-3.45-.66-6.84.06-10.32.3-4.01.27-8.03.34-12.05.27-8.62-.16-17.09-1.15-25.53-2.86-1.58-.32-2.27,2.06-.67,2.44h0Z"/>
        <path class="cls-1" d="M147.15,99.83c.8-.11,1.61-.21,2.41-.32s1.66-.17,2.39-.61c.92-.55.73-1.96-.3-2.26-1.38-.4-3.11.09-4.5.27-.78.1-1.46.6-1.46,1.46,0,.71.67,1.57,1.46,1.46h0Z"/>
        <path class="cls-3" d="M137.96,153.87c-.11-2.73-.36-6.1-.61-6.99-.19-.54-.68-.99-1.35-1.22-.76-.26-1.6-.2-2.2.18-.21.14-.6.55-2.07,2.62-2.51,3.71-4.95,6.99-5.79,7.91-.78-.89-3.06-3.93-5.89-8.04-.75-1.09-1.62-2.21-1.88-2.45l-.1-.07c-.44-.24-1-.32-1.34-.32-.62,0-1.47.26-1.82.8-.69.84-.99,3.79-1.28,18.66h0q-.07,10.76.69,11.2c.62.28,1.66,0,2.22-.42,1.01-.84,1.02-1.2,1.21-10.47v-.33c.13-8.14.3-11.26.41-12.46.03.04.06.07.08.1.22.27.48.65.75,1.03.29.42.59.85.83,1.15,1.13,1.74,3.88,5.44,4.56,6.05.52.4.89.54,1.41.54.58,0,1.05-.1,1.53-.54.77-.58,3.53-4.2,4.75-6.05.49-.72,1.17-1.67,1.59-2.2.02-.03.05-.07.08-.1.11,1.16.27,4.25.4,12.5.06,9.13.1,9.84,1.19,10.74.39.37.91.57,1.42.57.11,0,.22-.01.32-.03.49-.09.88-.37,1.11-.85.2-.62-.02-17.18-.23-21.52Z"/>
        <path class="cls-3" d="M124.46,6.3c-.05.07-.08.18-.11.25-.03.08-.08.17-.1.25-.06.18-.07.38-.07.58,0,.41.11.7.29,1.06.09.19.24.35.38.5.14.11.29.22.43.34.25.16.51.24.8.25.19.05.38.05.57,0,.19,0,.37-.05.54-.15.27-.09.5-.23.69-.44l.34-.43c.07-.17.14-.34.22-.51.09-.29.1-.57.04-.86,0-.19-.05-.37-.15-.54-.05-.18-.14-.34-.28-.47-.15-.23-.35-.42-.6-.55-.17-.07-.34-.14-.51-.22l-.57-.08-.57.08c-.28.07-.52.19-.73.38-.23.15-.42.35-.55.6,0,0,0,.01-.01.02.11-.14.22-.28.33-.43-.01.01-.02.03-.04.04l.41-.32s-.03.02-.05.03l.47-.2s-.03.01-.05.01l.5-.07s-.03,0-.04,0c.16.02.33.04.49.07-.02,0-.04,0-.05-.01-.16-.02-.31-.04-.47-.06-.24,0-.47.04-.68.15-.15.04-.28.12-.39.23-.19.12-.34.29-.45.49h0Z"/>
        <path class="cls-3" d="M107.97,43.6c6.07.99,12.18,1.41,18.31,1.4,5.97-.01,12.57-.2,18.36-1.75,1.46-.39.06-1.83-1.26-1.81-5.72.07-11.24.36-17.15.42-6.02.06-10.6-.28-16.73-.42-1.35-.03-3.07,1.9-1.46,2.16h-.07Z"/>
        <path class="cls-3" d="M122.36,71.53c9.84.24,19.58-.45,29.19-2.76,1.81-.44,1.37-2.13-.56-1.95-9.91.93-17.62,1.91-27.61,1.67-7.96-.19-17.15-.84-24.89-1.92-1.26-.18.78,2.19,2.02,2.48,5.36,1.23,13.9,2.29,21.85,2.48Z"/>
        <path class="cls-1" d="M102.33,55.67c.62-.08,1.28-.11,1.87-.33,1.18-.43,2.23-1.01,2.86-2.16.63-1.17.57-2.88-.49-3.81-1.01-.89-2.12-1.29-3.47-1.27-.91.01-1.83.27-2.72.47-1.89.41-3.16,2.71-2.57,4.53.29.89.84,1.75,1.69,2.2.94.5,1.8.51,2.84.37h0Z"/>
        <path class="cls-1" d="M115.76,54.76c4.08,0,4.09-6.34,0-6.34s-4.09,6.34,0,6.34h0Z"/>
      </g>
    </g>
  </g>
</svg>