<?xml version="1.0" encoding="UTF-8"?>
<svg id="Capa_2" data-name="Capa 2" xmlns="http://www.w3.org/2000/svg" viewBox="0 0 200 200">
  <defs>
    <style>
      .cls-1 {
        fill: #c46127;
      }

      .cls-1, .cls-2, .cls-3, .cls-4, .cls-5, .cls-6 {
        stroke-width: 0px;
      }

      .cls-2 {
        fill: #ac9b9b;
      }

      .cls-3 {
        fill: none;
      }

      .cls-4 {
        fill: #593737;
      }

      .cls-5 {
        fill: #f3b200;
      }

      .cls-6 {
        fill: #f7ae6f;
      }
    </style>
  </defs>
  <g id="colorful_icons" data-name="colorful icons">
    <g>
      <g>
        <g>
          <path class="cls-4" d="m156.37,50.5c-5.19-1.35-10.51-2.17-15.86-2.6-1.57-.13-3.14-.25-4.72-.25-8.13-.23-16.3.51-24.15,2.07-2.22.44-7.31,1.81-6.08,5.15.56,1.53,2.4,2.78,3.76,3.52,1.58.86,3.36,1.46,5.15,1.15.55-.1.43-.84,0-1-1.45-.54-2.94-.84-4.3-1.62-.98-.56-3.51-2.11-2.7-3.45.61-1.01,2.29-1.4,3.36-1.63,1.68-.35,3.37-.64,5.07-.88,5.36-.76,10.79-.9,16.19-.63,5.35.27,10.72.94,16,1.85,1.72.3,3.44.63,5.14,1.01,1.88.41,3.78.88,5.56,1.63,1.33.55,3.17,1.39,3.68,2.87.72,2.11-5.99,3.52-7.44,3.88-1.99.5-3.98.81-5.99.93-.02-1.25.09-2.5.29-3.71.08-.53-.2-1.36-1.02-.84-2.68,1.73-5.18,2.52-7.79,3.63-.4.17-.58.86-.32,1.2,2.17,2.85,5.59,5.08,9.23,5.36.51.04.64-.26.46-.75-.36-.93-.59-1.92-.72-2.92,2.17-.07,4.34-.31,6.46-.71,1.95-.37,3.87-.95,5.73-1.63,1.47-.54,3.01-1.19,3.8-2.63,2.86-5.17-5.32-8.12-8.82-9.03Z"/>
          <g>
            <path class="cls-6" d="m149.63,23.59c-5.28,1.69-11.06,10.07-14.09,16.13-3.03,6.06-8.87,21.25-12.21,27.26-4.45,8.02-10.8,15.76-19.18,19.86-2.53,1.24-5.3,2.46-7.3,4.51-2.82,2.89-8.8,11.06-11.83,16.9-3.03,5.85-4.01,8.81-4.3,11.55-.21,2.04,1.9,3.24,3.87,1.83,1.97-1.41,9.65-15.71,10.56-16.97.92-1.27,2.68-2.54,3.66-.99s-1.2,5-2.96,8.1c-1.76,3.1-6.83,10.21-7.04,13.1-.21,2.89,2.54,3.31,4.51,1.76,1.97-1.55,9.37-15.71,10.64-16.9,1.27-1.2,3.38-1.62,3.66,0,.28,1.62-.85,4.01-2.54,6.9-1.69,2.89-8.1,11.48-7.96,13.73.14,2.25,1.76,2.96,4.72,1.34,2.96-1.62,12.18-17.26,14.51-21.9,2.32-4.65,2.11-10.07,2.11-12.04,0-4.78.91-9.65,2.72-14.12,1.85-4.59,4.63-8.73,7.47-12.75,1.52-2.16,3.13-4.26,4.81-6.3,10.87-13.24,21.86-25.28,22.07-35.29.11-5.35-2.15-6.91-5.92-5.7Zm1.08,7.79c-.13.45-.36.87-.66,1.23-.23.27-.54.51-.83.7-.4.26-.93.46-1.41.33-.58-.17-.87-.68-.91-1.25-.02-.31.05-.63.11-.93.18-.85.65-1.58,1.42-2,.33-.18.7-.26,1.08-.3.23-.02.46.03.66.15.09.05.17.11.24.19.04.05.07.1.1.15,0,0,0,0,0-.01,0,.01,0,.02.01.04.02.03.04.06.05.1,0,.01,0,.03,0,.04,0,.04.02.07.01.11.28.42.26,1.02.12,1.47Z"/>
            <path class="cls-4" d="m149.73,33.38c.92-.63,1.64-1.73,1.62-2.87-.02-1.19-.91-2.24-2.09-2.41-1.21-.17-2.39.73-3.06,1.66-.75,1.03-1,2.66.05,3.6.96.85,2.49.7,3.48.02Zm-2.32-.67c-.11-.68.19-1.5.65-2.01.47-.53,1.14-.84,1.84-.91.14-.01.27-.01.4-.01.37.65.23,1.48-.06,2.14-.38.82-1.1,1.56-2.05,1.62-.16,0-.31-.01-.45-.05-.1-.25-.28-.48-.33-.78Z"/>
            <path class="cls-4" d="m115.34,91.09s.06-.03.03-.05c-.03-.02-.06.03-.03.05Z"/>
          </g>
        </g>
        <g>
          <g>
            <path class="cls-4" d="m128.19,142.84c-.01.45-.05.9-.11,1.34l21.09-4.06-.9-6.86-20.98,4.85c.75,1.4.94,3.23.89,4.72Z"/>
            <path class="cls-4" d="m22.63,166.84c-1.19,1.79-.08,2.68,1.09,2.98,5.12,1.32,9.74,1,15.02,1,.38,0,.76,0,1.14,0,.08,0,.17,0,.25,0,4.76,0,9.52,0,14.28,0,3.75,0,7.5,0,11.26,0,7.32,0,14.5,0,21.82,0,1.62.01,3.25.03,4.87.01,5.33.05,10.05-.11,15.03-.71,1.04-.13,2.88-2.09.9-3.48-2.23,0-79.6.49-85.65.2Z"/>
            <path class="cls-2" d="m148.42,142.67c5.97.9,40.74-5.67,45.21-8.06s5.82-6.57,3.58-11.79-7.76-2.39-12.53-1.49c-4.78.9-38.8,9.48-40.96,11.27-1.06.88-1.27,9.18,4.7,10.07Z"/>
          </g>
          <path class="cls-1" d="m4.22,136.9h121.56s3.58,0,3.58,3.18-1.99,19.3-11.34,23.68c-9.35,4.38-20.09,3.38-36.21,3.58-16.11.2-55.88-.46-56.7-.4-5.22.4-12.41-2.42-16.5-6.42-4.7-4.61-6.58-11.61-6.58-18.05,0-5.37.99-5.57,2.19-5.57Z"/>
        </g>
        <path class="cls-4" d="m67.5,112.75c1.91,2.3,3.15,5.06,2.74,8.09-.45,3.35-2.43,6.23-4.51,8.8-.38.46.23,1.11.67.67,3.78-3.71,7.36-8.52,6.43-14.12-.9-5.44-5.52-8.96-9.5-12.25-2.18-1.8-4.43-3.7-5.86-6.18-1.53-2.64-1.83-5.78-1.4-8.77.91-6.33,4.64-11.55,7.78-16.95.32-.55-.41-1.1-.87-.67-7.95,7.45-15.41,19.81-7.58,30.09,3.38,4.44,8.53,7.01,12.09,11.29Z"/>
        <path class="cls-4" d="m42.86,116.44c2.07,1.34,4.72,2.78,4.83,5.59.11,2.78-1.99,5.57-3.54,7.72-.3.42.34.87.69.54,3.09-2.92,6.4-7.28,3.8-11.6-2.35-3.9-9.15-5.14-8.51-10.65.05-.47-.65-.74-.94-.39-2.81,3.31.93,7.01,3.67,8.79Z"/>
        <path class="cls-5" d="m26.82,133.08c.47,0,1.07-.36,1.14-.87.08-.59.12-1.27-.05-1.85-.15-.51-.48-1.16-1.1-1.16-1.31,0-1.26,2.16-1.14,3.02.07.51.67.87,1.14.87Z"/>
        <path class="cls-5" d="m54.92,129.39s0-.01,0-.02c0-.02,0-.03,0-.05,0,.03,0,.05,0,.07Z"/>
        <path class="cls-5" d="m54.92,129.39s0,.01,0,.02c0,.05,0,.1,0-.02Z"/>
        <path class="cls-5" d="m54.99,130.64c.06.28.29.5.55.61.49.21,1.17-.05,1.28-.61.09-.45.04-.89-.2-1.29-.27-.43-1-.72-1.44-.39-.14.11-.22.23-.25.4-.01.13-.01.25.03.39,0,.02.01.03.01.04,0,.1.02.19.05.29,0,.01,0,.01,0,.02,0,0,0,.01,0,.02-.05.17-.07.33-.03.52Zm.04-.56s0,0,0-.01c0,0,0-.02,0-.03,0-.02.03-.06.05-.12-.02.06-.03.11-.05.17Z"/>
      </g>
      <rect class="cls-3" width="200" height="200"/>
    </g>
  </g>
</svg>