<?xml version="1.0" encoding="UTF-8"?>
<svg id="Capa_2" xmlns="http://www.w3.org/2000/svg" viewBox="0 0 243.3 243.3">
  <defs>
    <style>
      .cls-1 {
        fill: #a36545;
      }

      .cls-2 {
        fill: #fff;
      }

      .cls-3 {
        fill: none;
      }

      .cls-4 {
        fill: #fad380;
      }

      .cls-5 {
        fill: #4f3535;
      }
    </style>
  </defs>
  <g id="grocery_icons">
    <g>
      <rect class="cls-3" width="243.3" height="243.3"/>
      <g>
        <g>
          <path class="cls-4" d="M67.15,50.45s.72,8.89,0,9.61-14.17,11.77-16.09,27.86c-1.92,16.09-1.68,76.14,0,95.84,1.68,19.7-1.2,31.71,16.09,43.47,17.29,11.77,46.6,11.29,72.06,10.09,25.46-1.2,42.27-8.17,49.48-20.18,7.21-12.01,6-102.08,6-113.37s0-21.38-8.41-32.43c-5.96-7.84-8.41-10.57-8.41-10.57l-.48-9.61-110.25-.72Z"/>
          <path class="cls-1" d="M128.4,10.93s-12.25-.36-34.11,1.32c-19.9,1.53-28.58,6-29.54,8.89-.96,2.88,0,29.78.24,31.71.24,1.92,26.66,11.77,64.13,9.85,37.47-1.92,48.76-7.93,49.96-9.13,1.2-1.2,2.67-29.21.96-31.95-4.8-7.69-21.38-9.73-51.64-10.69Z"/>
          <path class="cls-2" d="M61.86,83.2c8.33,5.14,17.64,8.64,27.25,10.44,8.94,1.67,19.48,3.13,28.28.22,3.34-1.11,2.53-5.56-.8-5.9-8.87-.92-17.6.16-26.49-1.45-8.83-1.6-17.29-4.4-25.5-7.98-3.12-1.36-5.78,2.8-2.73,4.68h0Z"/>
          <path class="cls-2" d="M146.91,92.51c6.9.78,16.15.61,22.08-3.51,2.51-1.74.93-5.31-2.03-4.81-3.23.54-6.3,1.9-9.56,2.46-3.48.6-6.99.6-10.49.3-3.6-.31-3.5,5.17,0,5.56h0Z"/>
          <path class="cls-2" d="M178.92,85.82l1.07-.86.42-.54c.09-.21.18-.43.27-.64.16-.58.1-1.19-.13-1.74-.42-.98-1.36-1.62-2.44-1.64-.48-.01-.96-.02-1.44-.03-1.12-.02-2.2.63-2.75,1.58-.52.88-.55,1.91-.16,2.84s1.1,1.58,2.07,1.85c.57.15,1.13.15,1.7,0,.54-.15,1.01-.43,1.41-.82h0Z"/>
          <path class="cls-2" d="M63.95,120.1s29.16,9.33,61.6,9.09c31.77-.24,55.25-9.09,55.25-9.09l-1.06,69.7s-20.49,12.17-58.06,11.46c-37.57-.71-56.37-12.41-56.37-12.41l-1.36-68.75Z"/>
          <path class="cls-5" d="M179.45,218.43l3.01-1.34c.49-.22.98-.45,1.47-.68.56-.27,1.06-.63,1.54-1.02.38-.31.44-1.01.18-1.41-.29-.44-.79-.66-1.31-.53-1.14.27-2.16.85-3.18,1.41-.96.52-1.91,1.05-2.87,1.57-.53.29-.75,1.07-.42,1.59.37.58.99.68,1.59.42h0Z"/>
          <path class="cls-5" d="M182.42,210.64c.43-.25.85-.49,1.28-.74.21-.12.4-.27.6-.42.16-.12.33-.24.48-.38.09-.09.19-.18.28-.27.35-.33.44-.95.18-1.36s-.77-.65-1.27-.52c-.55.15-1.12.35-1.62.63l-1.29.72c-.29.16-.53.49-.62.81s-.05.75.14,1.04.46.54.81.62.72.05,1.04-.14h0Z"/>
          <path class="cls-5" d="M58.86,99.69c.48.05.96.11,1.44.16.13,0,.26-.02.37-.08.12-.04.22-.11.31-.2l.15-.2c.07-.11.11-.23.12-.36.02-.09.02-.17,0-.26,0-.13-.04-.25-.12-.36l-.15-.2c-.12-.12-.26-.2-.43-.25-.46-.19-.92-.37-1.39-.56-.21-.06-.42-.06-.62,0l-.28.12c-.18.1-.32.24-.42.42-.09.13-.13.28-.14.44-.03.16-.03.31.02.47.04.15.11.29.21.4.08.13.19.23.33.3.18.11.38.16.59.16h0Z"/>
          <path class="cls-5" d="M58.14,110.17c1.59,0,1.59-2.47,0-2.47s-1.59,2.47,0,2.47h0Z"/>
          <path class="cls-5" d="M63.85,23.06c4.31,4.72,10.9,7.1,16.95,8.63,8.23,2.07,16.7,3.33,25.15,4.13,16.75,1.58,33.68.48,50.19-2.62,4.57-.86,9.16-1.78,13.6-3.15,2.07-.64,4.1-1.39,6.08-2.26,1.97-.86,3.86-1.76,5.34-3.35,1.35-1.44.03-3.95-1.97-3.38-1.78.51-3.34,1.4-5.01,2.18-1.58.73-3.21,1.33-4.86,1.87-3.71,1.21-7.53,2.06-11.36,2.85-8.04,1.66-16.17,2.85-24.36,3.47-16.11,1.21-32.3.16-48.22-2.48-3.67-.61-7.3-1.33-10.83-2.53-3.26-1.11-6.67-2.46-9.16-4.91-1.01-1-2.5.51-1.55,1.55h0Z"/>
          <path class="cls-5" d="M63.85,53.2c4.31,4.72,10.9,7.1,16.95,8.63,8.23,2.07,16.7,3.33,25.15,4.13,16.75,1.58,33.68.48,50.19-2.62,4.57-.86,9.16-1.78,13.6-3.15,2.07-.64,4.1-1.39,6.08-2.26,1.97-.86,3.86-1.76,5.34-3.35,1.35-1.44.03-3.95-1.97-3.38-1.78.51-3.34,1.4-5.01,2.18-1.58.73-3.21,1.33-4.86,1.87-3.71,1.21-7.53,2.06-11.36,2.85-8.04,1.66-16.17,2.85-24.36,3.47-16.11,1.21-32.3.16-48.22-2.48-3.67-.61-7.3-1.33-10.83-2.53-3.26-1.11-6.67-2.46-9.16-4.91-1.01-1-2.5.51-1.55,1.55h0Z"/>
          <path class="cls-5" d="M69.85,27.33c.15,9.06.65,18.15.98,27.2.02.6.93.6.93,0,.09-9.04-.03-18.18-.85-27.2-.06-.67-1.07-.69-1.06,0h0Z"/>
          <path class="cls-5" d="M81.3,30.75c.06,4.62.15,9.25.25,13.87.05,2.31.1,4.62.16,6.93.05,2.09-.21,4.49.33,6.52.11.41.77.44.86,0,.44-2.06.08-4.42.02-6.52l-.17-6.93c-.11-4.62-.25-9.25-.4-13.87-.02-.67-1.06-.68-1.05,0h0Z"/>
          <path class="cls-5" d="M97.53,33.27c-.06,4.62,0,9.24,0,13.87,0,2.31-.02,4.62-.05,6.93-.02,1.07-.04,2.13-.06,3.2-.02,1.11-.21,2.3.21,3.34.15.38.76.59.98.13.83-1.75.46-4.23.49-6.14.05-2.4.07-4.8.08-7.2.02-4.72-.03-9.43-.35-14.13-.06-.83-1.29-.85-1.3,0h0Z"/>
          <path class="cls-5" d="M118.22,34.53c0,4.59,0,9.18.04,13.78.02,2.3.04,4.59.06,6.89.02,2.11-.16,4.45.41,6.5.14.5.9.52,1.03,0,.53-2.07.32-4.39.3-6.5-.02-2.3-.04-4.59-.06-6.89-.04-4.59-.11-9.18-.2-13.78-.02-1.01-1.58-1.02-1.58,0h0Z"/>
          <path class="cls-5" d="M133.33,34.35c.15,4.77.19,9.54.17,14.32-.01,2.3-.04,4.6-.05,6.89,0,2.04-.27,4.55.42,6.5.18.5.9.54,1.06,0,.6-1.99.3-4.43.3-6.5,0-2.3.02-4.6.03-6.89.01-4.79-.08-9.55-.62-14.32-.09-.82-1.34-.86-1.31,0h0Z"/>
          <path class="cls-5" d="M150.37,33.63c-.02,4.41-.09,8.82-.05,13.22.02,2.2.05,4.41.07,6.61.02,2.09-.07,4.23.31,6.29.12.67,1.27.69,1.38,0,.33-2.08.19-4.2.17-6.29-.03-2.2-.05-4.41-.08-6.61-.06-4.41-.23-8.82-.36-13.22-.03-.92-1.43-.93-1.44,0h0Z"/>
          <path class="cls-5" d="M166.37,29.31c-.15,4.8-.3,9.61-.46,14.41-.08,2.31-.16,4.62-.27,6.93-.1,2.31-.48,4.81-.02,7.1.13.64,1.03.55,1.21,0,.69-2.22.54-4.79.63-7.1.09-2.31.17-4.62.23-6.93.13-4.8.16-9.6.08-14.41-.01-.9-1.37-.9-1.4,0h0Z"/>
          <path class="cls-5" d="M176.5,26.22c-.32,4.47-.51,8.96-.73,13.44-.11,2.2-.19,4.39-.27,6.59-.08,2.25-.37,4.62-.14,6.85.07.64,1.11.92,1.23.17.34-2.12.22-4.35.28-6.49.06-2.28.13-4.57.18-6.85.09-4.57.27-9.14.33-13.7,0-.57-.83-.55-.87,0h0Z"/>
        </g>
        <g>
          <path class="cls-5" d="M102.3,178.56c-.46-.06-.89-.41-1.29-1.05-.4-.64-.58-1.24-.55-1.79-.06-2.03-.13-4.39-.21-7.1-.08-2.71-.21-5.92-.36-9.64-1.41,1.77-2.84,3.51-4.29,5.21-1.45,1.71-2.93,3.4-4.45,5.06-.94,1.04-1.81,1.48-2.57,1.32-1.12-.24-1.89-.92-2.3-2.04-.99-2.03-2.02-3.97-3.07-5.81-1.05-1.85-2.12-3.71-3.18-5.59-.7,2.2-1.3,4.39-1.77,6.56-.47,2.18-.81,4.33-1.01,6.45-.02.39-.16.7-.42.93-.26.23-.5.35-.72.36-.61,0-1.15-.26-1.6-.78-.46-.53-.68-1.03-.67-1.49,0-1.3.14-2.69.43-4.19.29-1.5.63-3,1.03-4.5.4-1.5.82-2.97,1.27-4.42.45-1.45.87-2.76,1.27-3.94.41-1.32,1.07-1.83,1.99-1.56.56.17.99.5,1.27.99.28.49.35,1.09.18,1.8,1.33,2.17,2.62,4.33,3.86,6.5,1.23,2.17,2.48,4.34,3.72,6.51,1.82-1.83,3.62-3.75,5.39-5.74,1.78-2,3.65-3.93,5.62-5.82.13-.36.39-.72.77-1.06.38-.34.78-.55,1.19-.63.41-.08.8.13,1.17.64.37.5.59,1.06.66,1.65.16,3.53.27,7.06.33,10.57.06,3.52.14,7.03.24,10.54,0,.66-.2,1.18-.62,1.57-.42.38-.87.55-1.33.49Z"/>
          <path class="cls-5" d="M110.4,177.51c-.25.57-.57,1.07-.94,1.51-.37.44-.75.67-1.13.71-.81.1-1.41-.06-1.79-.48-.38-.42-.5-.91-.35-1.49.54-2.02,1.29-4.14,2.22-6.35.93-2.22,1.95-4.42,3.05-6.64,1.1-2.21,2.24-4.36,3.42-6.45,1.18-2.09,2.33-3.99,3.46-5.7.19-.27.4-.43.63-.47.23-.04.44-.03.61.05.18-.13.4-.25.65-.34.25-.1.5-.14.74-.14.11,0,.22.02.34.06.12.04.25.14.39.32.14.18.3.43.49.76.19.33.43.81.71,1.43.49,1.76,1.07,3.57,1.77,5.43.69,1.86,1.44,3.71,2.24,5.56.11-.04.22-.06.32-.08.1-.02.2-.05.32-.08.42-.04.9-.04,1.44.02.54.05.91.28,1.12.69.25.51.23.96-.07,1.35-.3.39-.85.79-1.66,1.19.53,1.09,1.08,2.15,1.64,3.18.56,1.03,1.14,2.04,1.75,3.01.05.17.12.43.22.79.1.36.16.72.2,1.08.04.36.02.69-.05,1.01-.07.31-.22.53-.47.64-.29.11-.59.11-.9-.02-.32-.13-.62-.3-.92-.51-.3-.21-.56-.45-.8-.7-.23-.25-.41-.48-.54-.68-.73-1.12-1.41-2.25-2.05-3.4-.64-1.15-1.24-2.3-1.79-3.47-1.66.28-3.46.5-5.43.65-1.97.15-3.91.2-5.81.14-.52,1.28-1.04,2.53-1.55,3.76-.51,1.22-1.01,2.46-1.48,3.7ZM119.84,156.27c-1.77,3.5-3.44,6.98-4.96,10.45,2.61.08,5.4-.12,8.34-.62-1.37-3.14-2.49-6.42-3.38-9.83Z"/>
          <path class="cls-5" d="M144.46,165.22c-.09.57-.13,1.38-.14,2.44-.01,1.06,0,2.17.04,3.33.04,1.16.09,2.27.15,3.34.06,1.07.13,1.9.2,2.48.12.99-.49,1.57-1.82,1.71-.46.05-.9,0-1.31-.18-.42-.17-.65-.54-.71-1.13-.14-1.44-.22-3.01-.26-4.7-.04-1.69-.05-3.44-.03-5.24-1.58-2.06-3.02-4.12-4.32-6.16-1.3-2.04-2.38-3.95-3.24-5.69-.16-.3-.3-.63-.41-.99-.11-.36-.16-.69-.16-1,0-.31.07-.58.2-.81.13-.23.37-.39.72-.48.39-.06.77-.05,1.15,0,.38.06.72.27,1.03.63.34.7.76,1.5,1.27,2.39.51.89,1.05,1.8,1.61,2.71.57.92,1.13,1.79,1.71,2.62.57.83,1.09,1.53,1.53,2.1,1.49-2.24,2.81-4.54,3.98-6.9,1.17-2.36,2.19-4.61,3.09-6.75.34-.76.74-1.21,1.21-1.36.47-.15.88-.12,1.24.09.31.15.54.46.68.92.14.47.16.9.05,1.3-.41,1.13-.9,2.36-1.5,3.71-.6,1.34-1.24,2.7-1.91,4.06-.67,1.36-1.36,2.7-2.07,4.01-.7,1.32-1.37,2.5-1.98,3.54Z"/>
          <path class="cls-5" d="M172.63,159.85c.06.99-.08,2-.43,3.02-.34,1.02-.8,2.01-1.37,2.96-.57.95-1.26,1.82-2.04,2.6-.79.78-1.63,1.44-2.51,1.98-1.63.97-3.35,1.56-5.15,1.75-1.8.2-3.5-.16-5.07-1.06-1.1-.77-1.94-1.73-2.52-2.85-.58-1.12-.97-2.31-1.16-3.55-.2-1.24-.21-2.47-.06-3.69.15-1.22.42-2.33.81-3.35.46-1.21,1.07-2.25,1.84-3.14.76-.89,1.66-1.52,2.7-1.89.27-.13.52-.12.74.05.22.16.37.38.43.65.28-.42.78-.8,1.49-1.14.71-.35,1.54-.57,2.5-.67,1.76-.24,3.23-.13,4.45.34,1.22.48,2.22,1.14,3.02,2,.79.86,1.37,1.83,1.73,2.93.36,1.1.56,2.12.61,3.08ZM158.68,156.16c-.66.47-1.18,1.04-1.56,1.74-.37.7-.65,1.45-.82,2.25-.17.81-.22,1.65-.14,2.53.07.88.23,1.72.47,2.52.35,1.16.95,2.05,1.82,2.67.86.61,2.05.76,3.55.42.87-.2,1.69-.54,2.47-1.03.77-.49,1.45-1.06,2.03-1.71.58-.65,1.07-1.38,1.47-2.18.4-.8.67-1.6.82-2.4.09-.42.11-.92.07-1.5-.04-.58-.17-1.15-.37-1.72-.2-.57-.51-1.08-.91-1.54-.4-.46-.93-.79-1.58-1.01-.9-.29-1.89-.35-2.96-.18-1.08.17-2.13.65-3.18,1.46-.19.19-.43.27-.73.24-.29-.02-.44-.21-.44-.56Z"/>
        </g>
      </g>
    </g>
  </g>
</svg>