<?xml version="1.0" encoding="UTF-8"?>
<svg id="Capa_2" data-name="Capa 2" xmlns="http://www.w3.org/2000/svg" viewBox="0 0 200 200">
  <defs>
    <style>
      .cls-1 {
        fill: #836969;
      }

      .cls-1, .cls-2, .cls-3, .cls-4, .cls-5 {
        stroke-width: 0px;
      }

      .cls-2 {
        fill: #ac9b9b;
      }

      .cls-3 {
        fill: none;
      }

      .cls-4 {
        fill: #fff;
      }

      .cls-5 {
        fill: #593737;
      }
    </style>
  </defs>
  <g id="colorful_icons" data-name="colorful icons">
    <g>
      <g>
        <g>
          <g>
            <path class="cls-5" d="m60.87,63.14l-.11,12.42,11.89.11.11-12.42s-11.99-.21-11.89-.11Z"/>
            <path class="cls-1" d="m76.93,53.68c-6.65-.92-13.4-.98-20.07-.18-6,.72-7.15,1.68-7.07,3.43.08,1.75-.25,6.98,2.87,8.86,2.69,1.61,25.53,1.82,28.25.26,3.16-1.82,2.92-7.06,3.03-8.8s-1.02-2.73-7.01-3.56Z"/>
          </g>
          <g>
            <path class="cls-2" d="m125.57,93.52s-8.13-9.77-25.65-15.27c-6.47-2.03-13.2-3.22-19.91-4.05-13.56-1.68-27.51-.93-40.91,2.01-1.9.42-3.79.89-5.66,1.44-17.61,5.18-25.92,14.81-25.92,14.81,4.12-.03,8.24-.07,12.36-.1,8.33-.07,91.86.81,100.57,1.04,1.7.05,3.41.09,5.11.14Z"/>
            <path class="cls-5" d="m128.63,91.51c-2.56-1.09-10.84-.58-10.84-.58l-47.74-.43-6.96-.06-47.74-.43s-8.27-.66-10.85.39c-2.58,1.04-3.48,5.79.32,6.41,3.27.53,120.1,1.59,123.37,1.12,3.81-.55,3-5.31.44-6.4Z"/>
          </g>
          <path class="cls-4" d="m54.35,59.56l.48-.05.23-.03s.08,0,.12-.01c.11-.01.24-.02.35-.04.16-.04.3-.11.42-.22.06-.03.1-.07.14-.11.15-.15.26-.33.31-.54.05-.16.06-.33.03-.49,0-.16-.05-.32-.14-.46-.11-.19-.25-.33-.43-.44-.16-.11-.29-.14-.47-.16-.11-.03-.22-.03-.32,0-.06,0-.12.01-.18.02-.04,0-.08.01-.12.02l-.25.05-.48.09c-.15.04-.29.11-.41.21-.13.08-.23.2-.31.34l-.12.29c-.05.16-.06.32-.03.48,0,.11.03.21.08.31.05.15.13.28.24.39l.24.19c.18.11.38.17.6.17h0Z"/>
          <path class="cls-4" d="m59.89,58.57l.24-.03c.08,0,.15-.02.23-.03.11-.03.23-.1.34-.16l.19-.1c.33-.17.33-.71,0-.88l-.19-.1c-.11-.06-.22-.14-.34-.17-.07-.02-.15-.02-.23-.04l-.24-.04c-.14-.04-.28-.04-.42,0-.13.04-.25.1-.35.2-.14.16-.23.35-.24.56,0,.21.08.42.23.57.1.1.21.17.34.21.14.04.28.04.42,0h0Z"/>
        </g>
        <g>
          <g>
            <path class="cls-5" d="m127.9,119.3c-.01.45-.06.9-.11,1.35l21.13-4.06-.9-6.88-21.02,4.86c.75,1.4.94,3.24.9,4.73Z"/>
            <path class="cls-5" d="m22.13,143.35c-1.2,1.79-.08,2.69,1.1,2.99,5.13,1.33,9.76,1.01,15.05,1,.38,0,.76,0,1.14,0,.08,0,.17,0,.25,0,4.77,0,9.54,0,14.3,0,3.76,0,7.52,0,11.28,0,7.33,0,14.53,0,21.86,0,1.63.01,3.25.03,4.88.01,5.34.05,10.07-.11,15.06-.71,1.05-.13,2.89-2.09.9-3.49-2.24,0-79.76.49-85.82.2Z"/>
            <path class="cls-1" d="m148.18,119.13c5.98.9,40.82-5.68,45.3-8.07s5.83-6.58,3.59-11.81-7.77-2.39-12.56-1.5c-4.78.9-38.87,9.49-41.04,11.29-1.06.88-1.27,9.2,4.71,10.09Z"/>
          </g>
          <path class="cls-2" d="m3.69,113.34h121.81s3.59,0,3.59,3.19-1.99,19.34-11.36,23.72c-9.37,4.39-20.14,3.39-36.28,3.59-16.15.2-55.99-.46-56.82-.4-5.23.4-12.43-2.43-16.53-6.44-4.71-4.62-6.59-11.63-6.59-18.08,0-5.38,1-5.58,2.19-5.58Z"/>
        </g>
      </g>
      <rect class="cls-3" width="200" height="200"/>
    </g>
  </g>
</svg>