<?xml version="1.0" encoding="UTF-8"?>
<svg id="Capa_2" data-name="Capa 2" xmlns="http://www.w3.org/2000/svg" viewBox="0 0 200 200">
  <defs>
    <style>
      .cls-1 {
        fill: #684949;
      }

      .cls-1, .cls-2, .cls-3, .cls-4, .cls-5, .cls-6 {
        stroke-width: 0px;
      }

      .cls-2 {
        fill: none;
      }

      .cls-3 {
        fill: #7f6565;
      }

      .cls-4 {
        fill: #fff;
      }

      .cls-5 {
        fill: #593737;
      }

      .cls-6 {
        fill: #bdafaf;
      }
    </style>
  </defs>
  <g id="colorful_icons" data-name="colorful icons">
    <g>
      <rect class="cls-2" width="200" height="200"/>
      <g>
        <g>
          <g>
            <path class="cls-6" d="m10.94,50.46s.33,128,.67,130,.33,4,8.33,4h162.67s3.67,1.33,4.67-5.67-.33-129-.33-129c0,0-176,0-176,.67Z"/>
            <path class="cls-3" d="m17.27,58.46v92.67h162.67V58.46s-163.17-.5-162.67,0Z"/>
            <path class="cls-5" d="m186.94,49.79s-176,0-176,.67c0,0,.01,3.9.03,10.33h176.08c-.07-6.83-.11-11-.11-11Z"/>
            <path class="cls-6" d="m3.27,15.46v40.33h193V16.46S2.77,14.96,3.27,15.46Z"/>
            <path class="cls-1" d="m175.58,70.17c-.08-.3-.31-.54-.62-.62-9.85-1.16-19.72-.91-29.65-.92-9.93-.02-19.76,0-29.65,0l-59.31.1c-5.48,0-10.97,0-16.46.08-5.75.11-11.57,0-17.29.63-.5,0-.91.41-.91.91,0,.35.15,10.35.23,10.66.08.3.31.54.62.62,9.85,1.16,19.72.9,29.65.92,9.93.02,19.76,0,29.65,0l59.31-.1c5.49,0,11.01,0,16.47-.07,5.75-.11,11.57,0,17.28-.63.5,0,.91-.41.91-.91,0-.34-.15-10.35-.23-10.66Z"/>
            <path class="cls-5" d="m58.32,44.43c.95-.1,1.87-.37,2.73-.8,4.79-2.36,6.46-8.85,3.11-13.08-2.19-2.66-5.82-3.65-9.06-2.49-3.8,1.38-6.14,5.21-5.65,9.22.48,4.42,4.45,7.63,8.87,7.15Zm-2.22-13.98c1.93-.22,4.52.5,5.63,2.19,1.39,2.18,1.18,5.01-.51,6.96-1.92,2.14-5.2,2.32-7.35.41-.57-.51-1.01-1.13-1.31-1.83-1.58-3.31-.52-7.24,3.53-7.73Z"/>
            <path class="cls-5" d="m26.49,44.42c.94-.1,1.86-.37,2.71-.79,4.79-2.36,6.46-8.85,3.1-13.07-2.19-2.66-5.81-3.65-9.05-2.49-3.8,1.38-6.14,5.2-5.66,9.22.48,4.43,4.47,7.63,8.9,7.14Zm-2.23-13.97c1.93-.22,4.52.5,5.63,2.19,1.39,2.18,1.18,5.01-.51,6.96-1.92,2.14-5.22,2.32-7.36.4-.56-.51-1.01-1.13-1.31-1.82-1.57-3.31-.52-7.24,3.54-7.73Z"/>
            <path class="cls-5" d="m135.21,43.63c3.99,1.97,8.83.33,10.8-3.66.42-.85.68-1.76.79-2.7.49-4.02-1.86-7.84-5.66-9.23-3.24-1.16-6.86-.17-9.05,2.49-3.34,4.24-1.67,10.73,3.12,13.09Zm-.69-11v-.02c1.12-1.69,3.7-2.41,5.63-2.19,4.06.48,5.08,4.41,3.54,7.73-1.14,2.64-4.2,3.87-6.84,2.73-.7-.3-1.32-.75-1.82-1.31-1.68-1.95-1.89-4.77-.51-6.95Z"/>
            <path class="cls-5" d="m167.06,43.63c3.98,1.98,8.82.36,10.8-3.63.43-.85.69-1.78.8-2.73.49-4.02-1.85-7.84-5.65-9.23-3.24-1.16-6.87-.17-9.06,2.49-3.36,4.24-1.68,10.73,3.11,13.09Zm-.69-11v-.02c1.12-1.69,3.7-2.41,5.63-2.19,4.05.48,5.08,4.41,3.53,7.73-1.14,2.64-4.2,3.87-6.84,2.73-.7-.3-1.32-.75-1.82-1.31-1.68-1.95-1.88-4.77-.5-6.95Z"/>
            <path class="cls-5" d="m78.75,43.64c.06.2.14.39.24.57,1.18,2.01,4.35,1.4,6.24,1.4,2.87,0,5.73,0,8.6-.01,4.53-.02,9.06-.05,13.6-.1,3.5-.04,6.98.3,10.47-.26.63-.1,1.28-.24,1.79-.62,1.76-1.32.84-6.34.8-8.25-.05-2.39.23-5.03-.18-7.38-.65-3.72-5.93-2.64-8.56-2.61-5.44.07-11.06.08-16.56.13-4.85.05-12.35-.49-15.65.77-.27.1-.54.26-.67.52-.36.71-.17,2-.21,2.77-.07,1.28-.14,2.55-.19,3.83-.09,2.64-.1,5.29.09,7.93.03.44.07.9.2,1.32Z"/>
            <g>
              <path class="cls-4" d="m99.35,34.05c.07.06.14.11.21.17.16.1.34.14.53.14.15,0,.28-.02.41-.09.13-.04.24-.12.34-.22.1-.1.18-.21.22-.34.07-.13.1-.26.09-.41-.01-.09-.03-.19-.04-.28-.05-.18-.14-.33-.27-.47-.07-.05-.14-.11-.21-.17-.16-.1-.34-.14-.53-.14-.15,0-.28.02-.41.09-.13.04-.24.12-.34.22-.1.1-.18.21-.22.34-.07.13-.1.26-.09.41.01.09.03.19.04.28.05.18.14.33.27.47Z"/>
              <path class="cls-4" d="m100.7,37.66c-.11-.07-.23-.11-.37-.12-.13-.03-.26-.02-.39.02-.17.05-.31.13-.43.25,0,0,0,0,0,0-.1.09-.16.19-.2.32-.06.12-.09.24-.08.38.01.09.02.17.03.26.03.13.09.24.18.33.04.07.1.13.18.18.09.09.21.15.33.18.09.01.17.02.26.03.18,0,.34-.05.5-.13,0,0,0,0,0,0,.15-.09.27-.21.35-.35.03-.08.07-.16.1-.23.05-.17.05-.35,0-.52-.03-.13-.09-.24-.18-.33-.07-.11-.16-.19-.28-.25Z"/>
              <g>
                <path class="cls-4" d="m102.33,40.75c-.01.35.29.6.61.61,1.34.08,4.89.78,5.32-1.04.28-1.2-.1-2.76-.17-3.99-.1-1.77.01-3.9-.21-5.65-.07-.53-3.5-.45-4.39,0-.38.19-.67.49-.77.94-.3,1.26-.13,2.92-.18,4.21-.07,1.63-.14,3.27-.21,4.9Zm1.39-8.29c.44-1.16,1.66-1.24,2.76-1.27-.31,1.93.03,3.98.23,5.91.08.8.59,2.42-.23,2.97-.51.34-1.94.2-2.9.11.03-1.7.06-3.39.1-5.09.01-.73-.2-1.96.05-2.64Z"/>
                <path class="cls-4" d="m110.18,41.72c1.34-.15,2.66-.2,4.01-.15.37.01.72-.33.7-.7-.14-3.18.42-6.34.34-9.51,0-.36-.24-.91-.86-.98-1.31-.14-4.02-.71-4.52.96-.39,1.3-.23,3.14-.27,4.49-.06,1.73-.1,3.47-.12,5.2,0,.35.33.75.71.71Zm1.54-10.15c.46-.28,1.52-.14,2.28-.2-.02.05-.15,5.85-.44,8.78-.89-.01-1.77.02-2.65.09.03-1.88.09-3.75.16-5.62.04-.92-.28-2.47.65-3.04Z"/>
                <path class="cls-4" d="m91.12,40.75c-.01.35.29.6.61.61,1.34.08,4.89.78,5.32-1.04.28-1.2-.1-2.76-.17-3.99-.1-1.77.01-3.9-.21-5.65-.07-.53-3.5-.45-4.39,0-.38.19-.67.49-.77.94-.3,1.26-.13,2.92-.18,4.21-.07,1.63-.14,3.27-.21,4.9Zm1.39-8.29c.44-1.16,1.66-1.24,2.76-1.27-.31,1.93.03,3.98.23,5.91.08.8.59,2.42-.23,2.97-.51.34-1.94.2-2.9.11.03-1.7.06-3.39.1-5.09.01-.73-.2-1.96.05-2.64Z"/>
              </g>
            </g>
            <path class="cls-5" d="m160.84,80.14c-23.73-.06-47.47-.02-71.2-.03-11.96,0-23.91-.03-35.87-.05-5.97-.01-11.95-.04-17.92-.06-4.66-.02-9.33.05-13.98-.09.02.62.04,1.03.05,1.09.08.3.31.54.62.62,9.85,1.16,19.72.9,29.65.92,9.93.02,19.76,0,29.65,0l59.31-.1c5.49,0,11.01,0,16.47-.07,5.75-.11,11.57,0,17.28-.63.5,0,.91-.41.91-.91,0-.05,0-.29,0-.66-4.99-.01-9.97-.02-14.96-.04Z"/>
            <path class="cls-5" d="m181.28,57.87c-.16-.89-1.65-.9-1.81,0-.53,3.02-.3,6.15-.3,9.21,0,2.99,0,5.97,0,8.96,0,6.14,0,12.28,0,18.41,0,12.28-.01,24.55.13,36.83.04,3.48-.2,15.42-.22,19.07-4.98-.53-148.37.19-160.06.46.11-5.91.22-10.86.22-16.63,0-6.08,0-12.15,0-18.23,0-12.15,0-24.3,0-36.46v-9.99c0-3.45.24-7.06-.19-10.49-.14-1.15-1.64-1.15-1.79,0-.38,3.02-.19,6.2-.19,9.24,0,3,0,5.99,0,8.99,0,6.08,0,12.15,0,18.23,0,12.15,0,24.3,0,36.46,0,6.58-.77,21.13.02,21.14,21.11.51,43.33.3,64.45.32,10.64,0,21.29.02,31.93.03,10.55,0,21.23-.17,31.78-.17,6.2,0,32.57-.03,35.58-.37.64-.07.52-7.17.54-10.15.02-2.99.02-5.97.05-8.96.07-6.14.15-12.27.15-18.41v-36.83c0-3.48.01-6.97.01-10.45,0-3.37.28-6.87-.3-10.2Z"/>
          </g>
          <path class="cls-5" d="m14.05,185.17c5.55.7,11.14.66,16.72.68s11.15.04,16.72.03c11.15-.02,22.3-.03,33.44-.03,22.21,0,44.43.04,66.64.1,6.24.02,12.48.02,18.72.02,3.18,0,6.32-.23,9.48-.44s6.11-.11,9.15-.56c.58-.09.58-1.08,0-1.17-2.7-.4-5.42-.39-8.15-.51s-5.49-.49-8.24-.49c-5.57,0-11.15,0-16.72,0-11.15.03-22.3.06-33.44.09-22.21.06-44.43.04-66.64,0-6.24,0-12.48-.02-18.72.01-6.33.03-12.68-.1-18.97.69-1,.13-1,1.44,0,1.56h0Z"/>
        </g>
        <path class="cls-4" d="m77.15,100.16c-3.94,5.26-7.55,10.75-11.51,15.99-.78,1.03.97,2.05,1.74,1.02,3.97-5.28,7.67-10.6,10.51-16.58.24-.51-.41-.87-.74-.43Z"/>
        <path class="cls-4" d="m113.76,95.33c-11.69,12.36-20.42,27.4-29.75,41.54-.51.77.7,1.44,1.22.72,9.92-13.69,20.64-27.12,29.36-41.61.31-.52-.42-1.1-.84-.65Z"/>
        <path class="cls-4" d="m137.63,103.91c-4.96,6.33-9.16,13.31-13.47,20.09-.7,1.1,1.05,2.12,1.75,1.02,4.25-6.74,9.09-13.25,12.67-20.39.29-.57-.5-1.3-.94-.73Z"/>
      </g>
    </g>
  </g>
</svg>