<?xml version="1.0" encoding="UTF-8"?>
<svg id="Capa_2" xmlns="http://www.w3.org/2000/svg" viewBox="0 0 243.3 243.3">
  <defs>
    <style>
      .cls-1 {
        fill: #695353;
      }

      .cls-2 {
        fill: #fff;
      }

      .cls-3 {
        fill: none;
      }

      .cls-4 {
        fill: #4f3535;
      }

      .cls-5 {
        fill: #d9472e;
      }

      .cls-6 {
        fill: #f0b5ab;
      }
    </style>
  </defs>
  <g id="grocery_icons">
    <g>
      <rect class="cls-3" width="243.3" height="243.3"/>
      <g>
        <g>
          <path class="cls-1" d="M90.9,38.82s10.18,39.62,9.81,42.16c-.36,2.54-28.01,45.35-34.53,92.31-6.04,43.54-7.27,45.43,2.54,53.43,9.81,8,45.43,12.36,73.78,9.09s38.89-10.54,40.34-21.81c1.45-11.27-10.9-73.41-23.26-100.31-12.36-26.89-16.35-33.44-16.35-33.44,0,0,9.81-39.98,9.81-41.07s-62.15-.36-62.15-.36Z"/>
          <path class="cls-4" d="M164.92,214.35c1.2.01,2.42-.2,3.53-.65.59-.24,1.15-.51,1.67-.87.58-.4,1.14-.84,1.49-1.47.5-.9-.5-1.89-1.39-1.39-.11.06-.22.11-.32.18s-.2.16-.3.23c.18-.14,0,0-.03.02-.08.06-.15.11-.23.17.04-.03-.29.22-.15.12.11-.08-.05.04-.07.05-.05.04-.1.07-.15.11-.44.3-.9.57-1.38.79-.06.03-.11.05-.17.08-.15.07.16-.06,0,0-.12.05-.23.09-.35.13-.25.09-.51.17-.76.23-.24.06-.49.11-.73.15-.2.04.08,0-.05,0-.06,0-.12.01-.19.02-.14.01-.28.02-.42.03-.54.03-1.06.46-1.03,1.03s.45,1.03,1.03,1.03h0Z"/>
          <path class="cls-4" d="M167.75,203.97c.49-.25.98-.5,1.47-.75.3-.15.63-.33.88-.56.2-.18.39-.38.59-.56.29-.28.37-.81.15-1.16-.09-.14-.2-.25-.34-.34-.22-.14-.49-.14-.74-.1-.27.05-.56.08-.83.15-.21.05-.41.17-.61.25-.12.05-.24.11-.36.17l-1.47.75c-.27.14-.5.46-.57.75-.08.3-.05.7.13.96s.43.5.75.57c.34.08.65.03.96-.13h0Z"/>
          <path class="cls-2" d="M106.06,82.38c2.47,1.19,5.23,1.7,7.92,2.12s5.51.65,8.29.65c2.7,0,5.39-.22,8.06-.61s5.76-.86,8.23-2.18c.86-.46.52-2.07-.53-1.94-2.57.3-5.07,1.14-7.63,1.58-2.69.46-5.41.7-8.13.74-2.73.04-5.47-.12-8.18-.49-2.56-.35-5.06-1.04-7.62-1.37-.8-.1-1.11,1.18-.41,1.52h0Z"/>
          <path class="cls-5" d="M89.33,45.12s-7.27-19.14-6.06-23.99c1.21-4.85,10.9-12.11,40.95-11.15s36.34,5.57,36.83,11.15c.48,5.57-5.57,22.78-6.54,23.99s-15.26,5.57-34.16,5.33c-18.9-.24-31.01-5.33-31.01-5.33Z"/>
          <path class="cls-4" d="M84.26,22.6c8.68,3.22,17.91,4.73,27.14,5.26,10.43.59,20.94.25,31.31-1.03,2.87-.35,5.73-.77,8.57-1.28,2.76-.49,5.69-.9,8.34-1.84,2.38-.85,1.4-4.06-1.02-3.71-2.44.35-4.85,1.05-7.28,1.52s-4.87.87-7.32,1.21c-5.06.71-10.17,1.16-15.28,1.4-9.78.47-19.64.14-29.37-.93-4.9-.54-9.81-1.17-14.64-2.18-1.05-.22-1.43,1.23-.44,1.59h0Z"/>
          <path class="cls-4" d="M88.51,45.86c7.74,3.22,15.96,4.73,24.18,5.26,9.3.59,18.66.25,27.9-1.03,2.55-.35,5.1-.77,7.63-1.28,2.46-.49,5.07-.9,7.43-1.84,2.12-.85,1.24-4.06-.91-3.71-2.18.35-4.32,1.05-6.48,1.52-2.17.46-4.34.87-6.52,1.21-4.51.71-9.06,1.16-13.61,1.4-8.72.47-17.5.14-26.17-.93-4.37-.54-8.74-1.17-13.05-2.18-.94-.22-1.28,1.23-.39,1.59h0Z"/>
        </g>
        <path class="cls-6" d="M87.48,135.62s16.38,5.31,36.57,5.16c19.78-.15,29.72-4.83,29.72-4.83l12.23,41.72s-21.17,8.85-44.56,8.39-42.66-8.39-42.66-8.39l8.69-42.05Z"/>
        <g>
          <path class="cls-4" d="M110.26,154.9c-.11.13-.29.23-.57.29s-.56,0-.84-.22c-.21-.16-.46-.32-.75-.49-.29-.17-.6-.33-.94-.49s-.68-.29-1.02-.39-.67-.16-.98-.16c-.39,0-.8.09-1.24.28-.43.18-.8.44-1.12.78-.6.65-.82,1.29-.65,1.9.17.62.62,1.18,1.35,1.71.47.34.98.69,1.53,1.04.55.35,1.09.7,1.63,1.04.54.34,1.05.67,1.53.98.48.31.91.59,1.28.82.47.31.92.65,1.33,1.02.42.37.79.78,1.1,1.24.31.46.56.98.75,1.55.18.58.28,1.23.28,1.96-.18,1.44-.75,2.58-1.71,3.43s-2.06,1.39-3.32,1.63c-1.1.21-2.18.17-3.24-.12-1.06-.29-1.96-.84-2.69-1.65-.18-.21-.34-.5-.47-.86s-.14-.63-.04-.79c.16-.24.43-.4.82-.49s.69-.07.9.06c.6.55,1.31.95,2.12,1.2s1.66.27,2.55.06c.68-.16,1.23-.45,1.65-.88.42-.43.68-.92.79-1.47.13-.58.06-1.17-.22-1.79-.28-.62-.77-1.17-1.47-1.67-1.07-.81-2.22-1.57-3.43-2.28-1.22-.71-2.45-1.52-3.71-2.43-.6-.52-1.04-1.1-1.31-1.73-.28-.63-.41-1.24-.41-1.84s.13-1.22.39-1.79c.26-.56.63-1.07,1.1-1.53.47-.46,1.02-.83,1.65-1.12s1.32-.46,2.08-.51c1.05-.05,2.05.16,3.02.65.97.48,1.75,1.08,2.36,1.79.13.16.19.35.18.59-.01.24-.1.46-.25.67Z"/>
          <path class="cls-4" d="M129.06,163.33c-.16.73-.44,1.43-.84,2.1-.41.67-.87,1.29-1.39,1.86-.52.58-1.09,1.07-1.71,1.49-.62.42-1.24.75-1.87.98-1.15.42-2.3.56-3.43.41-1.14-.14-2.15-.66-3.04-1.55-.6-.73-1.03-1.56-1.28-2.47s-.37-1.85-.35-2.81c.01-.96.14-1.88.39-2.77.25-.89.57-1.69.96-2.39.47-.84,1.03-1.53,1.69-2.08.65-.55,1.37-.88,2.16-.98.21-.05.38,0,.51.16.13.16.2.34.2.55.26-.26.67-.46,1.22-.59.55-.13,1.16-.14,1.84-.04,1.26.16,2.25.54,2.98,1.14.73.6,1.28,1.3,1.63,2.1.35.8.54,1.64.55,2.51.01.88-.06,1.67-.22,2.38ZM120.5,157.92c-.52.24-.96.58-1.32,1.04-.35.46-.64.98-.86,1.55-.22.58-.37,1.2-.43,1.86s-.07,1.32-.02,1.94c.08.92.35,1.67.82,2.26s1.2.88,2.2.88c.58,0,1.14-.11,1.71-.33s1.08-.52,1.55-.88c.47-.37.9-.8,1.29-1.31.39-.51.71-1.04.94-1.59.13-.29.24-.65.31-1.08.08-.43.1-.88.08-1.33-.03-.46-.13-.9-.31-1.31-.18-.42-.47-.77-.86-1.06-.55-.39-1.2-.63-1.96-.71-.76-.08-1.56.09-2.39.51-.16.11-.33.12-.53.06s-.27-.23-.22-.49Z"/>
          <path class="cls-4" d="M139.15,162.86c-.11.42-.2,1.03-.29,1.83s-.17,1.64-.24,2.51c-.07.88-.12,1.72-.16,2.53-.04.81-.06,1.44-.06,1.88,0,.76-.42,1.14-1.26,1.14-.29,0-.56-.08-.8-.24-.25-.16-.37-.46-.37-.9,0-1.1.04-2.29.12-3.57.08-1.28.18-2.6.31-3.96-.92-1.67-1.77-3.32-2.57-4.95-.8-1.62-1.47-3.11-2.02-4.47-.11-.24-.19-.49-.26-.77-.07-.27-.09-.53-.08-.76.01-.24.07-.44.18-.61.1-.17.29-.28.55-.33.29-.03.57,0,.84.06.27.07.52.24.73.53.21.55.47,1.18.79,1.88.31.71.64,1.43.98,2.16.34.73.68,1.43,1.02,2.1.34.67.64,1.24.9,1.71,1.18-1.57,2.3-3.18,3.36-4.83s2.05-3.22,2.96-4.71c.34-.52.69-.81,1.06-.86.37-.05.67.03.9.24.21.16.33.42.37.79.04.37,0,.69-.14.98-.44.79-.96,1.64-1.55,2.57s-1.19,1.86-1.81,2.81c-.62.94-1.22,1.87-1.83,2.79-.6.92-1.15,1.74-1.65,2.47Z"/>
        </g>
      </g>
      <path class="cls-2" d="M100.65,98.71l-.4.31,1.67-.98c-1.17.18-2.33,1.29-3.16,2.14-.41.43-.72.89-.95,1.43s-.45,1.22-.4,1.8c.03.36.03.01.09-.15-.14.37-.16.91-.15,1.3.03,1.01.44,1.85,1.24,2.47.86.66,1.7.71,2.74.56.51-.07.99-.3,1.43-.57l-1.77.48c.59-.04,1.2-.07,1.76-.25,1.22-.4,2.01-1.18,2.71-2.22s1.29-2.05,1.27-3.33l-.52,1.91.24-.43c.89-1.62.52-3.63-.95-4.76-.62-.48-1.43-.83-2.24-.79-1.04.05-1.8.44-2.61,1.08h0Z"/>
      <path class="cls-2" d="M93.17,124.7c4.46,0,4.47-6.93,0-6.93s-4.47,6.93,0,6.93h0Z"/>
    </g>
  </g>
</svg>