<?xml version="1.0" encoding="UTF-8"?>
<svg id="Capa_2" xmlns="http://www.w3.org/2000/svg" viewBox="0 0 243.3 243.3">
  <defs>
    <style>
      .cls-1 {
        fill: #5a992f;
      }

      .cls-2 {
        fill: #fff;
      }

      .cls-3 {
        fill: none;
      }

      .cls-4 {
        fill: #a83c19;
      }

      .cls-5 {
        fill: #4f3535;
      }

      .cls-6 {
        fill: #f7bc3b;
      }

      .cls-7 {
        fill: #d9472e;
      }
    </style>
  </defs>
  <g id="grocery_icons">
    <g>
      <rect class="cls-3" width="243.3" height="243.3"/>
      <g>
        <path class="cls-7" d="M90.77,28.42s-1.45,62.81-1.45,65.47-5.83,9.05-8.7,11.84c-2.5,2.43-5.31,6.76-5.8,14.74-.48,7.97-.72,82.62.72,94.46,1.45,11.84.48,15.46,13.29,20.29,12.8,4.83,26.56,4.74,38.41.48,11.21-4.02,12.6-7.58,13.77-15.7s.72-59.67.97-75.86.59-29.08-2.66-34.06c-2.63-4.05-10.87-8.7-12.08-14.98-1.21-6.28-2.66-64.98-2.66-64.98l-33.82-1.69Z"/>
        <path class="cls-4" d="M95.3,77.89c5.13,1.42,10.77,2.3,16.11,2.29,3.63,0,7.23-.61,10.65-1.85,1.39-.51,2.73-1.16,4.01-1.9-.81-19.34-1.47-46.32-1.47-46.32l-33.82-1.69s-.63,27.51-1.06,46.88c1.64,1.26,3.5,2.01,5.59,2.59Z"/>
        <path class="cls-4" d="M74.61,129.49c-.24,17.59-.27,54.7.33,74.28,6.36,3.32,17.41,7.67,32.07,8,17.36.39,29.46-5.32,34.8-8.48.31-18.97,0-47.76.17-59.16.08-5.17.13-10.11.07-14.57-4.94,2.2-16.01,7.57-32.68,7.2-16.31-.35-28.67-4.06-34.76-7.28Z"/>
        <g>
          <path class="cls-7" d="M212.32,218.33c-5.26-3.57-22.53-16.82-27.97-25.59-5.44-8.77-4.08-43.99-4.08-52.91,0-1.99.46-3.76.06-5.24-1.89-.22-4.5-1.02-6.02-2.05-1.12-.76-2.04-1.81-3.07-2.69-.04.72-.11,1.45-.25,2.17-.27,1.41-.78,2.8-1.34,4.11-.66,1.57-1.51,3.49-2.78,4.66-.76.69-1.84.71-2.54-.09-.67-.76-.62-1.81-.75-2.75-.21-1.48-.45-2.99-.48-4.49-.01-.7.05-1.39.12-2.09-1.16.69-2.37,1.29-3.62,1.89-1.62.77-3.34,1.53-5.13,1.61-1.52,6.63-5.6,26.07-3.99,36.86,1.97,13.15,10.13,31.9,28.57,45.2,18.44,13.3,34.32,17.99,40.22,15.57,5.9-2.42-.94-10.09-6.95-14.17Z"/>
          <path class="cls-5" d="M185.83,133.94c-1.4-3.08-3.88-5.09-6.7-6.93-1.27-.83-2.83-1.72-4.05-2.54-1.89-1.27-1.48-3.68-1.75-5.67-.87-6.46-3.29-15.24-9.55-18.56-4.51-2.39-10.56.89-6.66,5.97,2.26,2.95,5.04,4.83,6.45,8.48,1.15,2.98,1.33,6.17.73,9.26-.16,0-.34.02-.52.07-6.41,1.87-11.17,5.7-15.07,11.03-.74,1.01.28,2.22,1.32,2.29,4.4.31,8.89-.86,12.67-3.15-.08,2.74.26,5.45,1.03,8.18.24.86,1.26,1.28,2.03.83,3.88-2.29,5.98-6.39,6.49-10.73,3.55,2.46,7.63,3.77,12.1,4.04,1.41.09,1.97-1.49,1.48-2.57ZM170.02,129.35c.83,3.81-.94,8.69-4.5,11.41-.6-2.38-.94-4.57-.34-9.11.23-1.7-.27-2.76-1.55-1.59-3.11,2.85-8.44,4.49-12.32,4.91,2.97-3.22,8.48-7.03,12.78-7.82,1.02-.19,1.66-.89,1.93-1.55,1.94-4.76,1.62-8.74-.36-13.48-.91-2.18-2.25-4.1-3.97-5.71-.97-.91-3.54-3.85-1.13-4.03,1.97-.15,3.93,2.33,4.85,3.77,1.72,2.69,2.77,5.88,3.51,8.97.75,3.1.36,4.52,1.33,7.5.83,2.54,3.69,4.28,5.82,5.29,2.07.99,6.5,3.86,7.26,6.27-5.86-.76-9.3-3.4-11.83-5.9-1.28-1.27-1.84-.61-1.47,1.06Z"/>
          <path class="cls-2" d="M154.69,157.38c1.01.26,2.26.51,3.28.22.73-.21,1.36-.95,1.32-1.74s-.53-1.57-1.32-1.74c-.5-.11-.97-.09-1.47-.12-.09,0-.18-.01-.27-.02.16.03.17.03.04,0-.21-.04-.41-.08-.62-.12-.93-.21-2.02.28-2.24,1.27-.22.95.28,1.99,1.27,2.24h0Z"/>
          <path class="cls-2" d="M155.22,164.26c.62-.16,1.26-.27,1.81-.59.93-.55.93-1.93,0-2.48-.55-.33-1.19-.44-1.81-.59-1.2-.3-2.41.59-2.41,1.83s1.21,2.14,2.41,1.83h0Z"/>
          <path class="cls-5" d="M194.86,221.18c1.78,0,1.78-2.77,0-2.77s-1.78,2.77,0,2.77h0Z"/>
          <path class="cls-5" d="M201.43,225.92c.88,0,.88-1.36,0-1.36s-.88,1.36,0,1.36h0Z"/>
          <path class="cls-7" d="M204.61,221.16c.88,0,.88-1.36,0-1.36s-.88,1.36,0,1.36h0Z"/>
        </g>
        <g>
          <path class="cls-6" d="M128.53,197.24c-3.62,2.49-8.68,2.95-12.97,3.17-.3.01-.61.03-.91.04-4.14.18-8.31.04-12.44-.27-.47-.03-.95-.07-1.41-.11-3.72-.3-7.78-1.45-10.89-3.85-3.63-2.83-6.14-7.7-7.06-13.55-1.5-9.65,3.19-18.33,4.04-19.05.86-.73.67.91,1.9,3.86,1.23,2.94,3.74,5.6,6.12,7.57,1.15.97.57-.48-1.08-3.86-1.64-3.38-3.04-9.85.49-17.56,3.53-7.72,14.45-11.7,15.89-11.12s-1.69,6.07-2.14,11.51c-.47,5.45,1.12,11.15,4.24,11.72,3.11.58,4.55-7.58,5.07-8.4.51-.83,2.53.16,5.76,7.48,3.23,7.32.29,12.94.29,12.94,0,0,1.43-1.21,3.26-3.91,1.82-2.71,2.38-7.64,3.85-7.78,1.48-.14,4.21,2.83,4.96,14.6.36,5.79-2.23,13.3-6.98,16.57Z"/>
          <path class="cls-7" d="M116.96,196.96c-.39,1.16-.83,2.37-1.39,3.46-.3.01-.61.03-.91.04-4.14.18-8.31.04-12.44-.27-1.15-2.09-2.07-4.33-2.64-6.69-.97-3.95-.9-8.29.58-12.06,2.22,2.85,4.44,5.7,6.65,8.53-.52-6.06-1.24-12.1-2.12-18.1,4.38,4.65,7.46,10.82,8.69,17.42,1.63-2.33,3.07-4.82,4.27-7.43,2.26,4.55.95,10.21-.68,15.09Z"/>
        </g>
        <path class="cls-1" d="M108.16,5.88c-5.07-.13-12.76.5-16.96,3.48-4.29,3.04-2.49,27.46-2.12,28.54.81,2.42,4.59,7.25,19.55,7.27,16.49.02,18.61-5.69,19.08-7.27s1.19-23.67-.93-26.83-9.88-4.97-18.62-5.19Z"/>
        <path class="cls-5" d="M89.97,12.94c2.56,1.91,6.07,2.84,9.15,3.51,3.15.69,6.39,1.03,9.61,1,3.23-.03,6.46-.43,9.59-1.19,1.61-.39,3.2-.88,4.74-1.46s3.11-1.1,4.33-2.11c1.19-.97-.11-2.73-1.41-2.42-1.43.34-2.79,1.18-4.18,1.68-1.42.51-2.86.94-4.33,1.29-2.94.7-5.96,1.06-8.99,1.09-2.95.03-5.9-.25-8.79-.88-3.03-.66-5.84-1.94-8.82-2.7-1.39-.35-1.96,1.4-.92,2.18h0Z"/>
        <path class="cls-5" d="M88.21,39.31c2.14,2.98,5.36,4.52,8.76,5.65s7.07,1.75,10.71,1.85c3.64.09,7.31-.35,10.81-1.39,1.75-.52,3.45-1.19,5.1-1.97s3.79-1.71,4.8-3.37c.66-1.09-.43-2.09-1.49-1.94-1.64.23-3.15,1.44-4.63,2.13-1.52.71-3.11,1.28-4.72,1.74-3.06.87-6.24,1.29-9.43,1.28-3.18-.01-6.34-.47-9.43-1.2-3.13-.74-6.59-1.64-8.93-3.98-.77-.77-2.23.26-1.55,1.2h0Z"/>
        <path class="cls-5" d="M94.28,13.8c-.44,9.37-.83,18.89-.25,28.26.04.72,1.12.73,1.13,0,.07-9.43-.15-18.83.24-28.26.03-.72-1.08-.72-1.12,0h0Z"/>
        <path class="cls-5" d="M104.93,16.46c-.45,4.8-.5,9.61-.49,14.43s-.01,9.65.43,14.43c.07.75,1.2.78,1.19,0-.02-4.81-.3-9.62-.32-14.43-.01-4.81.15-9.62.12-14.43,0-.61-.88-.59-.94,0h0Z"/>
        <path class="cls-5" d="M114.25,16.22c-.1,4.75-.05,9.5-.16,14.26-.05,2.33-.1,4.66-.19,6.99s-.29,4.84-.1,7.25c.04.47.76.64.87.12.93-4.55.81-9.46.89-14.09.08-4.84.1-9.7-.23-14.53-.05-.69-1.08-.71-1.09,0h0Z"/>
        <path class="cls-5" d="M122.17,13.69c.11,4.82.42,9.63.59,14.45.08,2.32.13,4.64.19,6.96s-.18,4.83.19,7.12c.09.57,1.06.57,1.15,0,.37-2.29.11-4.8.1-7.12s-.06-4.64-.13-6.96c-.14-4.82-.29-9.65-.8-14.45-.09-.8-1.3-.84-1.28,0h0Z"/>
        <path class="cls-5" d="M132.51,124.81c.84-.02,1.68-.17,2.47-.46.42-.16.84-.34,1.24-.57.16-.09.32-.19.47-.3.29-.21.47-.41.6-.75.03-.08.06-.17.08-.25.18-.59-.32-1.32-.97-1.27-.32.02-.63.02-.92.21-.13.08-.25.17-.38.26-.28.17-.58.32-.88.45l.28-.12c-.53.22-1.08.37-1.65.45l.31-.04c-.22.03-.44.05-.66.06-.61.02-1.2.52-1.17,1.17s.51,1.19,1.17,1.17h0Z"/>
        <path class="cls-5" d="M132.83,120.07c.64-.18,1.26-.46,1.82-.83.16-.1.3-.22.45-.33.09-.07.18-.14.27-.22.13-.11.21-.23.31-.37.08-.11.16-.23.23-.34.06-.1.11-.19.15-.29.08-.18.09-.36.11-.55.03-.3-.17-.61-.39-.79-.24-.19-.57-.27-.87-.18-.18.05-.34.12-.49.23-.09.06-.18.13-.27.18-.27.17-.5.38-.75.58l.25-.19c-.37.29-.78.53-1.21.71l.29-.12c-.17.07-.34.14-.52.19-.3.09-.56.28-.72.55s-.22.64-.12.93.28.57.55.72.61.21.93.12h0Z"/>
        <path class="cls-5" d="M133.41,225.63c.55-.3,1.11-.6,1.66-.89.27-.14.54-.28.78-.46.18-.13.38-.26.54-.42.12-.12.23-.24.35-.36.29-.3.39-.82.15-1.18-.25-.38-.66-.54-1.1-.45l-.47.09c-.16.03-.3.1-.45.15-.37.14-.7.32-1.04.5-.55.3-1.1.61-1.65.91s-.79,1.12-.44,1.67c.37.57,1.07.76,1.67.44h0Z"/>
        <path class="cls-5" d="M79.78,201.19l.62.09c.2.03.39.06.59.07h.31c.09,0,.19-.02.28-.03.14-.03.26-.1.36-.19.08-.05.14-.11.19-.19.09-.1.16-.22.19-.36l.04-.28-.04-.28c-.03-.14-.1-.26-.19-.36-.08-.12-.17-.21-.3-.27l-.26-.13c-.18-.09-.36-.17-.54-.23l-.59-.21c-.17-.05-.33-.06-.5-.02-.17,0-.32.06-.46.15-.14.08-.26.19-.35.32-.11.12-.18.26-.22.42l-.04.33c0,.22.06.43.17.63l.19.25c.16.15.34.26.55.32h0Z"/>
        <path class="cls-5" d="M76.78,191c.41.14.81.29,1.22.39l.61.16c.11.03.21.06.32.08.22.05.38.04.59.03.45-.03.84-.26,1.02-.69s.09-.9-.23-1.22c-.13-.13-.27-.28-.43-.37-.09-.05-.19-.1-.29-.15l-.58-.29c-.48-.24-.99-.43-1.49-.64-.19-.06-.37-.07-.56-.02-.19,0-.36.06-.52.17-.29.17-.57.5-.64.83-.08.36-.06.76.14,1.08s.48.52.83.64h0Z"/>
        <path class="cls-2" d="M87.99,105.47c-5.42,4.91-9.64,13.63-7.74,21.06.75,2.96,5.15,2.91,5.94,0s.42-6.02,1.22-8.98,2.5-5.82,4.51-8.16c2.32-2.7-1.26-6.35-3.93-3.93h0Z"/>
        <path class="cls-5" d="M119.52,54.26l.81-.36.2-.09c.16-.07.3-.19.42-.33l.27-.31c.13-.15.24-.31.29-.5l.04-.3c0-.16-.03-.3-.1-.44-.03-.1-.08-.18-.15-.25-.05-.08-.12-.15-.2-.2-.07-.07-.15-.12-.25-.15-.13-.07-.28-.1-.44-.1l-.41-.03s-.08,0-.12,0l-.37.05-.06.02-.21.08-.84.31c-.24.07-.45.19-.63.37l-.22.29c-.13.22-.19.46-.19.72,0,.2.03.38.12.55.06.18.16.33.29.46.13.14.28.24.46.29.17.09.35.13.55.12.26,0,.5-.07.72-.19h0Z"/>
        <path class="cls-5" d="M120.47,62.64l.42-.19s.07-.03.1-.04c.04-.02.07-.04.1-.07l.19-.13.24-.19c.12-.11.2-.24.25-.39.05-.09.08-.2.08-.3.04-.16.03-.32-.02-.48l-.12-.29-.19-.24c-.11-.12-.24-.2-.39-.25-.14-.08-.3-.11-.46-.1l-.23-.03s-.08-.01-.12-.01-.08,0-.12,0l-.46.02c-.26,0-.51.07-.73.2-.22.13-.39.3-.52.52l-.15.35c-.07.26-.07.51,0,.77.04.19.13.35.26.49.1.16.24.28.41.37.23.13.47.2.73.2.26,0,.51-.07.73-.2h0Z"/>
      </g>
    </g>
  </g>
</svg>