<?xml version="1.0" encoding="UTF-8"?>
<svg id="Capa_2" data-name="Capa 2" xmlns="http://www.w3.org/2000/svg" viewBox="0 0 200 200">
  <defs>
    <style>
      .cls-1 {
        fill: #927b7b;
      }

      .cls-1, .cls-2, .cls-3, .cls-4, .cls-5, .cls-6 {
        stroke-width: 0px;
      }

      .cls-2 {
        fill: none;
      }

      .cls-3 {
        fill: #7f6565;
      }

      .cls-4 {
        fill: #fff;
      }

      .cls-5 {
        fill: #593737;
      }

      .cls-6 {
        fill: #bdafaf;
      }
    </style>
  </defs>
  <g id="colorful_icons" data-name="colorful icons">
    <g>
      <g>
        <g>
          <path class="cls-5" d="m177.17,150.75c0,.45-1.35,10.48.6,11.38s7.04,1.35,8.53-.15,1.05-11.38,1.05-11.38l-10.18.15Z"/>
          <path class="cls-5" d="m11.98,150.75c0,.45-1.35,10.48.6,11.38s7.04,1.35,8.53-.15,1.05-11.38,1.05-11.38l-10.18.15Z"/>
          <path class="cls-6" d="m184.8,152.91H13.64c-12.05,0-10.65-10.25-10.65-10.25V46.05c0-12.25,13.01-10.84,16.87-10.84h158.71c3.86,0,16.87-1.4,16.87,10.84v96.6s1.41,10.25-10.65,10.25Z"/>
          <path class="cls-3" d="m15.42,48.19v89.84h117.54V48.64s-117.69-.6-117.54-.45Z"/>
          <path class="cls-1" d="m15.42,130.54v7.48h117.54v-7.45s-117.69-.05-117.54-.04Z"/>
          <path class="cls-5" d="m133.11,47.05c-.06-.41-19.23-.6-23.01-.58-7.64.03-15.28.07-22.92.12-15.29.09-30.58.19-45.87.26-4.22.02-8.44.03-12.66.04-4.33.01-8.75.13-13.08.19-.75.01-1.02.64-1.04.97-.21,5.81-.16,11.64-.21,17.46-.06,5.89-.08,11.79-.08,17.68-.01,11.71-.02,23.43-.03,35.14,0,3.21,0,6.42,0,9.63,0,3.3-.01,6.95.49,10.22.06.41,4.19.43,5.9.42,1.92,0,3.84,0,5.77-.01,3.78,0,7.55-.02,11.33-.04,7.64-.03,15.28-.07,22.92-.12,15.29-.09,30.58-.19,45.87-.26,4.22-.02,8.44-.03,12.66-.04,4.33-.01,9.6.42,13.91-.02.28-.03.19-.81.21-1.14.21-5.81.16-11.64.21-17.46.06-5.89.08-11.79.08-17.68.01-11.71.02-23.43.03-35.14,0-3.21,0-6.42,0-9.63,0-3.3.03-6.75-.48-10.02Zm-12.43,89.11c-3.78,0-7.55.02-11.33.03-7.64.03-15.28.06-22.92.1-15.29.08-30.58.17-45.86.23-4.22.01-8.44.03-12.66.03-2.14,0-4.29,0-6.43,0-1.87,0-3.43.02-5.48,0,.72-5.39.35-10.56.34-15.98,0-5.89-.01-11.79-.02-17.68-.01-11.71.04-23.43-.08-35.14-.06-6.33,0-12.55-.22-18.87,3.66.32,7.4,0,11.07,0,3.78,0,7.55-.02,11.33-.03,7.64-.02,15.28-.06,22.92-.1,15.29-.08,30.58-.17,45.86-.23,4.22-.01,22.72.43,24.55.2-.24,5.41-.32,10.32-.32,15.74,0,5.89.01,11.79.02,17.68.01,11.71-.04,23.43.08,35.14.06,6.33,0,12.55.22,18.87-3.77.06-7.4,0-11.07,0Z"/>
          <path class="cls-5" d="m150.76,67.29v.03c4.97.65,10.06.64,15.09.86,6.87.31,13.72.5,20.57-.22.52-.05,1.05-.42,1.01-1.01-.35-5.6.03-11.48-.07-17.08,0-.36-.3-.68-.68-.68-1.87.03-3.75,0-5.63,0-3.41,0-6.82-.01-10.23-.02-3.59,0-7.18-.02-10.77-.03-1.52,0-3.03,0-4.55-.01-1.47,0-2.98-.11-4.45.08-.34.04-.68.2-.69.59-.03,2.85-.09,6.01-.2,8.86-.1,2.61-.55,5.45-.14,8.03.06.38.39.57.73.59Z"/>
          <path class="cls-4" d="m167.95,57.1c.06.05.13.1.19.15.15.09.31.13.48.13.13,0,.25-.02.37-.08.12-.04.22-.1.31-.2.09-.09.16-.19.2-.31.06-.11.09-.24.08-.37-.01-.08-.02-.17-.03-.25-.05-.16-.13-.3-.24-.42-.06-.05-.13-.1-.19-.15-.15-.09-.31-.13-.48-.13-.13,0-.25.02-.37.08-.12.04-.22.1-.31.2-.09.09-.16.19-.2.31-.06.11-.09.23-.08.37.01.08.02.17.03.25.05.16.13.3.24.42Z"/>
          <path class="cls-4" d="m169.17,60.34c-.1-.06-.21-.1-.33-.1-.12-.03-.23-.02-.35.02-.15.04-.28.12-.39.23,0,0,0,0,0,0-.09.08-.15.17-.18.28-.06.11-.08.22-.08.34.01.08.02.16.03.23.03.11.08.21.16.3.04.07.09.12.16.16.09.08.19.13.3.16.08.01.16.02.23.03.16,0,.31-.04.44-.12,0,0,0,0,0,0,.13-.08.24-.18.32-.32.03-.07.06-.14.09-.21.04-.16.04-.31,0-.47-.03-.11-.08-.21-.16-.3-.06-.1-.14-.17-.25-.23Z"/>
          <path class="cls-4" d="m171.04,63.42c-.01.31.26.54.55.55,1.2.07,4.39.7,4.78-.93.25-1.08-.09-2.48-.15-3.58-.09-1.59.01-3.51-.19-5.08-.06-.47-3.14-.41-3.94,0-.34.18-.6.44-.7.85-.27,1.13-.12,2.62-.16,3.79-.06,1.47-.12,2.93-.18,4.4Zm1.25-7.45c.39-1.04,1.49-1.12,2.48-1.14-.28,1.73.02,3.58.21,5.31.08.72.53,2.18-.21,2.67-.46.3-1.75.18-2.61.1.03-1.52.06-3.05.09-4.57.01-.66-.18-1.76.05-2.37Z"/>
          <path class="cls-4" d="m178.08,64.22c1.2-.13,2.39-.18,3.6-.14.33.01.65-.3.63-.63-.12-2.86.38-5.7.31-8.55,0-.32-.21-.82-.77-.88-1.18-.13-3.62-.63-4.06.86-.35,1.17-.2,2.82-.25,4.03-.06,1.56-.09,3.11-.1,4.67,0,.32.3.68.64.64Zm1.38-9.12c.42-.26,1.37-.13,2.05-.18-.02.05-.14,5.26-.4,7.89-.8-.01-1.59.02-2.38.08.03-1.68.08-3.37.15-5.05.03-.83-.25-2.22.58-2.73Z"/>
          <path class="cls-5" d="m151.65,85.86c1.49,1.29,3.62,1.75,5.47.98,1.81-.76,3.19-2.48,3.5-4.43.55-3.51-2.73-5.8-5.87-5.84-1.36-.02-2.73.59-3.67,1.66-1.25,1.42-1.5,3.49-.89,5.25.21.9.7,1.74,1.46,2.4Zm-.03-5.61c.87-2.08,3.33-2.77,5.13-2.04,1.08.43,1.92,1.37,2.04,2.82.21,2.53-1.99,4.61-4.48,4.55-.55-.01-1.02-.17-1.42-.43-.03-.02-.06-.04-.09-.06,0,0,0,0-.01,0-.1-.07-.19-.15-.28-.23-1.18-1.08-1.51-3.13-.89-4.61Z"/>
          <path class="cls-5" d="m164.62,78.3c-1.22,1.39-1.46,3.4-.87,5.12.21.88.68,1.69,1.43,2.34,1.46,1.26,3.54,1.71,5.34.95,1.77-.74,3.12-2.42,3.41-4.33.77-4.94-6.13-7.69-9.31-4.09Zm3.16,7.18c-.53-.01-1-.17-1.39-.42-.03-.02-.06-.04-.09-.06,0,0,0,0-.01,0-.1-.07-.19-.14-.27-.22-2-1.83-1.3-5.43,1.12-6.51,1.01-.45,2.11-.41,3.02,0,1.07.48,1.88,1.46,1.99,2.78.21,2.47-1.94,4.5-4.37,4.44Z"/>
          <path class="cls-5" d="m185.47,77.97c-1.08-.81-2.47-1.29-3.82-1.31-1.33-.02-2.67.58-3.59,1.62-1.22,1.39-1.47,3.41-.87,5.14.21.88.68,1.7,1.43,2.35,1.46,1.26,3.55,1.71,5.36.96,1.78-.74,3.13-2.43,3.43-4.34.29-1.85-.58-3.4-1.93-4.42Zm-4.24,7.52c-.54-.01-1-.17-1.39-.42-.03-.02-.06-.04-.09-.06,0,0,0,0-.01,0-.1-.07-.19-.14-.28-.22-1.15-1.05-1.48-3.06-.87-4.51.77-1.84,3.18-2.69,5.04-2.02.34.12.67.3.96.53,2.94,2.32-.25,6.79-3.35,6.71Z"/>
          <path class="cls-5" d="m151.59,99.59c1.49,1.29,3.62,1.75,5.47.98,1.81-.76,3.19-2.48,3.5-4.43.55-3.51-2.73-5.8-5.87-5.84-1.36-.02-2.73.59-3.67,1.66-1.25,1.42-1.5,3.49-.89,5.25.21.9.7,1.74,1.46,2.4Zm-.03-5.61c.87-2.08,3.33-2.77,5.13-2.04,1.08.43,1.92,1.37,2.04,2.82.21,2.53-1.99,4.61-4.48,4.55-.55-.01-1.02-.17-1.42-.43-.03-.02-.06-.04-.09-.06,0,0,0,0-.01,0-.1-.07-.19-.15-.28-.23-1.18-1.08-1.51-3.13-.89-4.61Z"/>
          <path class="cls-5" d="m164.51,92.04c-1.22,1.39-1.46,3.4-.87,5.12.21.88.68,1.69,1.43,2.34,1.46,1.26,3.54,1.71,5.34.95,1.77-.74,3.12-2.42,3.41-4.33.77-4.94-6.13-7.69-9.31-4.09Zm3.16,7.18c-.53-.01-1-.17-1.39-.42-.03-.02-.06-.04-.09-.06,0,0,0,0-.01,0-.1-.07-.19-.14-.27-.22-2-1.83-1.3-5.43,1.12-6.51,1.01-.45,2.11-.41,3.02,0,1.07.48,1.88,1.46,1.99,2.78.21,2.46-1.94,4.5-4.37,4.44Z"/>
          <path class="cls-5" d="m185.36,91.71c-1.08-.81-2.47-1.29-3.82-1.31-1.33-.02-2.67.58-3.59,1.62-1.22,1.39-1.47,3.41-.87,5.14.21.88.68,1.7,1.43,2.35,1.46,1.26,3.55,1.71,5.36.96,1.78-.74,3.13-2.43,3.43-4.34.29-1.85-.58-3.4-1.93-4.42Zm-4.24,7.52c-.54-.01-1-.17-1.39-.42-.03-.02-.06-.04-.09-.06,0,0,0,0-.01,0-.1-.07-.19-.14-.28-.22-1.15-1.05-1.48-3.06-.87-4.51.77-1.84,3.18-2.69,5.04-2.02.34.12.67.3.96.53,2.94,2.31-.25,6.79-3.35,6.71Z"/>
          <path class="cls-5" d="m151.54,113.33c1.49,1.29,3.62,1.75,5.47.98,1.81-.76,3.19-2.48,3.5-4.43.55-3.51-2.73-5.8-5.87-5.84-1.36-.02-2.73.59-3.67,1.66-1.25,1.42-1.5,3.49-.89,5.25.21.9.7,1.74,1.46,2.4Zm-.03-5.61c.87-2.08,3.33-2.77,5.13-2.04,1.08.43,1.92,1.37,2.04,2.82.21,2.53-1.99,4.61-4.48,4.55-.55-.01-1.02-.17-1.42-.43-.03-.02-.06-.04-.09-.06,0,0,0,0-.01,0-.1-.07-.19-.15-.28-.23-1.18-1.08-1.51-3.13-.89-4.61Z"/>
          <path class="cls-5" d="m164.51,105.77c-1.22,1.39-1.46,3.4-.87,5.12.21.88.68,1.69,1.43,2.34,1.46,1.26,3.54,1.71,5.34.95,1.77-.74,3.12-2.42,3.41-4.33.77-4.94-6.13-7.69-9.31-4.09Zm3.16,7.18c-.53-.01-1-.17-1.39-.42-.03-.02-.06-.04-.09-.06,0,0,0,0-.01,0-.1-.07-.19-.14-.27-.22-2-1.83-1.3-5.43,1.12-6.51,1.01-.45,2.11-.41,3.02,0,1.07.48,1.88,1.46,1.99,2.78.21,2.46-1.94,4.5-4.37,4.44Z"/>
          <path class="cls-5" d="m185.36,105.44c-1.08-.81-2.47-1.29-3.82-1.31-1.33-.02-2.67.58-3.59,1.62-1.22,1.39-1.47,3.41-.87,5.14.21.88.68,1.7,1.43,2.35,1.46,1.26,3.55,1.71,5.36.96,1.78-.74,3.13-2.43,3.43-4.34.29-1.85-.58-3.4-1.93-4.42Zm-4.24,7.52c-.54-.01-1-.17-1.39-.42-.03-.02-.06-.04-.09-.06,0,0,0,0-.01,0-.1-.07-.19-.14-.28-.22-1.15-1.05-1.48-3.06-.87-4.51.77-1.84,3.18-2.69,5.04-2.02.34.12.67.3.96.53,2.94,2.31-.25,6.79-3.35,6.71Z"/>
          <path class="cls-5" d="m182.49,122.2c-3.5-.54-7.16-.32-10.69-.32-4.88,0-9.84-.31-14.69.23-2.24.25-4.59.97-5.82,3.02-1.26,2.11-1.09,4.94-.86,7.28.21,2.15.77,4.43,2.39,5.97,1.53,1.46,3.7,1.81,5.71,2.05,3.27.4,6.57.65,9.86.72,2.69.06,5.46.02,8.17-.2,2.43-.2,5.01-.28,7.32-1.24,2.47-1.03,3.89-3.05,4.39-5.65.47-2.43.73-5.48-.12-7.84-.91-2.5-3.16-3.63-5.66-4.02Zm.88,15.19c-3.4,1.44-7,1.24-10.78,1.3-5.07.07-10.62.3-15.58-.92-2.14-.53-3.61-1.86-3.96-4.09-.42-2.65-.7-7.29,2.3-8.41,1.72-.64,3.77-.61,5.59-.67,2.15-.07,4.29-.09,6.44-.12,1.06-.01,2.12-.04,3.18-.09,2.52.08,5.04.1,7.56.2,1.31.05,2.63.1,3.92.3,1.39.22,2.8.6,3.47,1.94.6,1.18.55,2.68.57,3.97.04,2.48-.07,5.46-2.7,6.57Z"/>
          <path class="cls-5" d="m144.18,152.91h-1.98c-.52-3.76-.3-7.62-.29-11.43v-13.43c0-15.9,0-31.8.03-47.7,0-7.99,0-15.97.06-23.97.06-7.04.05-14.12.38-21.17h1.63c.39,8.09.33,16.22.4,24.3.14,15.9.06,31.81.06,47.7v23.97c0,3.95,0,7.91,0,11.87,0,3.31.14,6.59-.31,9.86Z"/>
        </g>
        <path class="cls-4" d="m161.46,63.42c-.01.31.26.54.55.55,1.2.07,4.39.7,4.78-.93.25-1.08-.09-2.48-.15-3.58-.09-1.59.01-3.51-.19-5.08-.06-.47-3.14-.41-3.94,0-.34.18-.6.44-.7.85-.27,1.13-.12,2.62-.16,3.79-.06,1.47-.12,2.93-.18,4.4Zm1.25-7.45c.39-1.04,1.49-1.12,2.48-1.14-.28,1.73.02,3.58.21,5.31.08.72.53,2.18-.21,2.67-.46.3-1.75.18-2.61.1.03-1.52.06-3.05.09-4.57.01-.66-.18-1.76.05-2.37Z"/>
      </g>
      <rect class="cls-2" width="200" height="200"/>
      <path class="cls-4" d="m59.28,115.73c9.69-13.37,20.16-26.48,28.68-40.63.3-.51-.41-1.07-.82-.63-11.41,12.07-19.94,26.75-29.05,40.57-.5.75.68,1.41,1.19.7Z"/>
      <path class="cls-4" d="m98.99,103.46c4.15-6.58,8.88-12.94,12.37-19.91.28-.56-.49-1.27-.92-.71-4.84,6.18-8.94,13-13.16,19.62-.69,1.08,1.03,2.07,1.71,1Z"/>
    </g>
  </g>
</svg>