<?xml version="1.0" encoding="UTF-8"?>
<svg id="Capa_2" xmlns="http://www.w3.org/2000/svg" viewBox="0 0 243.3 243.3">
  <defs>
    <style>
      .cls-1 {
        fill: #5a992f;
      }

      .cls-2 {
        fill: #accc97;
      }

      .cls-3 {
        fill: #fff;
      }

      .cls-4 {
        fill: none;
      }

      .cls-5 {
        fill: #4f3535;
      }

      .cls-6 {
        fill: #c0c728;
      }
    </style>
  </defs>
  <g id="grocery_icons">
    <g>
      <rect class="cls-4" width="243.3" height="243.3"/>
      <g>
        <g>
          <g>
            <path class="cls-6" d="M35.44,87.82c.15-.09.28-.23.35-.43,1.89-4.93,1.11-11.35-.63-16.21-1.2-3.36-3.75-9.07-8.15-9.08-7.61,0,4.43,21.35,6.76,25.61-1.99-1.35-4.92-2.59-7.16-3.37-3-1.04-6.63-2.32-9.81-2.54-2.96-.21-7.78.47-6.47,4.49,1.17,3.61,6.03,4.78,9.26,5.45,5.18,1.09,10.6.36,15.17-2.37.65-.39.81-1.01.68-1.56Z"/>
            <path class="cls-6" d="M46.33,102.02c.36-.53.31-.62-.4-.97-5.16-2.6-11.48-4.68-17.27-4.09-2.71.28-10.07,1.56-9.76,5.52.34,4.25,6.55,4.28,9.5,4.38,5.73.19,12.35-1.99,17.5-4.61.72-.37.53.35.43-.22Z"/>
            <path class="cls-6" d="M42.95,80.86c-1.23,5.68-1.1,11.69.58,17.26.21.71.48,1.64,1.05,1.55.19.47.18.73.69.27,3.65-3.38,6.03-8.26,6.82-13.09.63-3.87,1-9.8-2.69-12.45-4.18-3-5.85,3.73-6.45,6.46Z"/>
            <path class="cls-6" d="M58.48,120.11c.15.03.31.04.47.01-.22,1.07.25,1.72,1,.71,3.24-4.36,5.69-9.03,6.35-14.35.45-3.63.69-9.18-3.67-10.66-7.14-2.42-4.98,18.01-4.42,23.23-5.16-2.6-11.58-4.64-17.32-5.1-2.61-.21-7.16-.16-7.46,3.4-.35,4.13,5.75,5.65,8.73,6.09,4.94.74,11.56-.82,15.98-3.3.44-.25.4.36.34-.03Z"/>
            <path class="cls-6" d="M66.77,137.25c-3.31-3.32-9.62-4.59-14.02-4.99-2.73-.25-10.59-.4-9.08,4.25,1.2,3.68,6.34,4.21,9.54,4.57,4.41.49,10.19.28,13.75-2.74.71-.61.63-.95-.19-1.08Z"/>
            <path class="cls-6" d="M69.69,141.3c2.62-4.78,6.06-9.91,6.7-15.39.31-2.66-.2-7.15-2.58-8.86-3.26-2.35-5.06,3.54-5.47,5.66-1.05,5.44-.32,13.88.51,18.37.04.2-.57-.49-.44-.38-.54,1.1.67,1.71,1.28.6Z"/>
          </g>
          <path class="cls-5" d="M23.11,79.04c6.92,5.18,12.83,11.85,18.21,18.59,5.31,6.65,10.29,13.54,14.68,20.83,4.24,7.05,7.99,14.43,10.88,22.15,1.4,3.73,2.57,7.54,3.54,11.4,1.06,4.18,1.52,8.53,2.71,12.67.47,1.63,3,1.46,3.03-.33.14-8.02-3.14-16.58-6.06-23.94-3.27-8.24-7.45-16.1-12.16-23.6-9.18-14.61-19.69-29.19-33.91-39.24-.92-.65-1.79.81-.91,1.47h0Z"/>
        </g>
        <g>
          <path class="cls-3" d="M93.14,82.19s-2.67,23.67-4,42.33c-1.33,18.67-.67,52,0,58.67s1.67,13.33,1.67,13.33c0,0-11.13,11.78-9.23,14.06,1.9,2.28,17.57,7.28,40.57,7.28s41.67-5,42.67-7.67-6.33-11.67-6.33-15.33,1.33-55,.67-73-4.67-38.33-4.67-38.33l-61.33-1.33Z"/>
          <g>
            <path class="cls-5" d="M165.7,204.22c-1.19-2.83-2.61-5.62-4.76-7.8,2.96-18.12,2.45-37.13,1.86-55.41-.31-9.36-.91-18.72-1.94-28.03-.99-9.05-1.53-18.83-4.04-27.59-.62-2.16-3.96-1.76-3.95.53.02,8.96,1.7,18.1,2.3,27.05.63,9.34,1.15,18.68,1.46,28.03.6,18.46-.88,36.85-.59,55.29,0,.49.16.92.41,1.28.06.17.14.35.26.52,1.6,2.33,3.53,4.41,4.8,6.95.41.82,1.7,3.06,1.57,3.9-.12.81-.09.55-.98.98-2.9,1.4-7.76,1.32-10.89,1.75-9.49,1.29-19.08,1.65-28.65,1.53-8.96-.11-18.07-.08-26.93-1.59-2.66-.45-6.68-.57-9.12-1.83-.45-.23-1.05-.44-.97-.24-.27-.68,1.52-4.31,1.62-4.51,1.26-2.55,3.2-4.62,4.8-6.95.12-.17.19-.34.25-.5.25-.36.41-.79.42-1.3.29-18.43-1.2-36.83-.59-55.29.3-9.07.79-18.13,1.4-27.19.62-9.23,2.33-18.67,2.35-27.9,0-2.28-3.33-2.72-3.95-.53-2.43,8.5-2.94,17.96-3.94,26.74-1.09,9.59-1.72,19.24-2.03,28.88-.6,18.28-1.1,37.3,1.86,55.41-2.15,2.18-3.57,4.98-4.76,7.81-.72,1.72-2.04,4.39-1.42,6.36.83,2.67,5.59,4.52,7.9,5.46,5.03,2.07,10.56,2.97,15.94,3.59,9.1,1.06,18.3,1.15,27.44.5,8.43-.6,17.91-1.14,25.82-4.19,2.31-.89,7.76-2.66,8.55-5.34.58-1.94-.81-4.73-1.51-6.39Z"/>
            <g>
              <path class="cls-1" d="M164.96,45.24c.99-3.22,2.17-5.16-.09-8.04-2.83-3.6-6.1-7.56-9.74-10.36-7.18-5.52-18.7-3.7-27.18-3.68-5.37.01-10.74-.01-16.11.09-4.7.09-10-.29-14.54,1.19-3.47,1.13-6.36,3.81-8.66,6.55-1.97,2.35-6.78,6.19-6.95,9.45-.08,1.51.92,3.24,1.38,4.63.81,2.49,1.45,5.06,1.9,7.64,1.04,5.91,1.12,11.96.11,17.88-.65,3.83-3.26,8.88-1.67,12.73,1.59,3.83,6.96,4.5,10.5,5.01,19.04,2.7,38.63,3.69,57.76,1.33,7.37-.91,15.3-2.79,13.32-11.89-2.41-11.12-3.47-21.42-.05-32.53Z"/>
              <path class="cls-5" d="M94.83,198.86c5.35,1.34,10.76,2.18,16.27,2.5,14.16.83,28.93.97,42.77-2.5.9-.23.74-1.79-.23-1.67-13.67,1.65-27.95,1.88-41.7,1.42-5.65-.19-11.28-.74-16.89-1.42-.96-.12-1.14,1.44-.23,1.67Z"/>
              <path class="cls-3" d="M150.5,42.34c.75.26,1.56.24,2.34.16.82-.09,1.64-.24,2.1-.99.3-.48.06-1.04-.35-1.34-.58-.43-1.33-.29-2.01-.25s-1.4.04-2.08.19c-1.19.26-1,1.88,0,2.23h0Z"/>
              <path class="cls-3" d="M89.99,41.41c7.89,1.03,15.81,1.68,23.76,1.93,5.11.16,10.22.19,15.33.06s11.39.23,16.56-1.27c1.08-.31.74-1.7-.25-1.83-5.51-.69-11.52.38-17.08.52-5.08.12-10.16.14-15.23.03-7.7-.17-15.41-.54-23.08-1.24-1.17-.11-1.12,1.65,0,1.8h0Z"/>
              <path class="cls-2" d="M144.67,120.32c-.44-7.15-6.86-8.1-13-8.44-6.38-.35-12.75.39-19.09.95-1.25.11-2.66.11-3.88.45-4.16,1.16-4.63,4.14-4.83,7.9-.25,4.83-.37,9.66-.37,14.5,0,10.26.57,20.46,1.39,30.68.17,2.16-.2,5.44.69,7.46,1.37,3.12,4.71,3.49,7.71,3.86,6.92.86,14.27.89,21.19.09,2.69-.31,4.93-.37,6.95-2.19,2.04-1.84,1.75-4.06,1.96-6.66.74-9.09,1.39-18.13,1.6-27.25.11-4.83.09-9.67-.04-14.51-.06-2.27-.14-4.55-.28-6.82Z"/>
              <path class="cls-3" d="M110.64,117.69c-2.5,1.17-4.87,4.64-3.88,7.45.37,1.05,1.16,1.85,2.3,1.98,1.19.14,2.06-.39,2.76-1.32.36-.48.57-1.02.76-1.58.02-.05.19-.59.09-.32-.06.14-.06.13.02-.04.12-.29.25-.57.36-.86-.15.29-.03.09.07-.07s.19-.33.3-.5c.26-.39.51-.79.79-1.17.67-.93.35-2.4-.41-3.16-.87-.87-2.1-.9-3.16-.41h0Z"/>
              <path class="cls-3" d="M136.3,170.14l.11-.24c.11-.24.25-.49.3-.74.03-.16.04-.33.07-.49.05-.19.05-.38,0-.57,0-.1,0-.2-.04-.3-.03-.09-.07-.18-.11-.26-.08-.26-.23-.48-.43-.67-.43-.39-.93-.59-1.51-.62-.2,0-.51.07-.75.1-.26.03-.51.18-.74.29-.09.04-.18.08-.27.12-.37.22-.67.52-.89.89-.22.39-.34.8-.34,1.25.03.66.25,1.27.72,1.75.45.45,1.11.72,1.75.72.45,0,.86-.11,1.25-.34.37-.22.67-.52.89-.89h0Z"/>
              <path class="cls-5" d="M148.89,123.72c-.29-4.04.09-9.5-3.61-12.16-3.43-2.47-8.65-2.25-12.67-2.53-8.12-.56-16.18-.47-24.23.76-4.36.67-7.3,2.38-8.13,6.96-1.16,6.39-1.08,13.29-1.22,19.76-.14,6.83.07,13.66.52,20.47.38,5.76.49,12.31,2.4,17.81,1.41,4.07,4.6,5.29,8.57,5.97,6.41,1.09,12.95,1.42,19.44.95,5.07-.37,13.2-.27,16.04-5.4,2.33-4.21,2.29-10.42,2.68-15.07.53-6.23.85-12.5.87-18.75.02-6.26-.22-12.52-.67-18.77ZM145,141.64c-.21,9.12-.85,18.16-1.6,27.25-.21,2.61.08,4.83-1.96,6.66-2.03,1.82-4.27,1.88-6.95,2.19-6.92.8-14.27.77-21.19-.09-2.99-.37-6.33-.74-7.71-3.86-.89-2.02-.51-5.3-.69-7.46-.81-10.22-1.39-20.42-1.39-30.68,0-4.83.12-9.67.37-14.5.19-3.76.67-6.73,4.83-7.9,1.21-.34,2.62-.34,3.88-.45,6.34-.56,12.71-1.3,19.09-.95,6.14.34,12.56,1.3,13,8.44.14,2.27.22,4.55.28,6.82.14,4.83.15,9.67.04,14.51Z"/>
            </g>
          </g>
        </g>
        <g>
          <path class="cls-1" d="M35.15,195.72c.14,7.85,8.48,8.13,14.13,6.01,5.97-2.23,11.37-6.94,16.04-11.34-2.7,11.53-4.63,32.92,8.9,33.87,6.81.48,9.49-6.68,8.39-12.34-1.35-6.94-7-16.63-11.79-22.27,4.89,2.18,12.34,4.14,17.66,3.33,5.75-.88,12.59-4.56,12.74-11.19.16-7.26-9.41-7.8-14.59-6.98-5.72.9-11.3,5.25-15.99,8.45,1.58-11.59-4.97-31.15-18.03-26.35-7.14,2.63-6.14,11.21-2.61,16.42,3.51,5.19,8.11,7.86,11.18,10.36-4.31-1.02-11.96-1.44-15.5-.15-5.1,1.86-10.63,6.29-10.53,12.18Z"/>
          <path class="cls-5" d="M67.88,186.49c1.75.31,3.45.59,5.24.71,1.82.12,3.64.09,5.45,0,1.81-.09,3.63-.25,5.42-.54.86-.14,1.71-.3,2.56-.5.77-.18,1.52-.29,2.12-.84.31-.29.05-.72-.27-.83-.79-.26-1.69.02-2.49.12-.79.1-1.57.22-2.36.32-1.75.22-3.49.42-5.25.53-3.41.21-6.93.27-10.35.15-.5-.02-.54.79-.06.87h0Z"/>
          <path class="cls-5" d="M68.09,185.19c-1.48-2.88-2.74-5.94-3.94-8.95-.58-1.46-1.12-2.93-1.68-4.39s-.96-3.2-1.93-4.45c-.24-.31-.86-.3-.91.17-.16,1.54.44,3.16.89,4.63.5,1.64,1.13,3.22,1.82,4.79,1.37,3.1,3.02,5.94,4.85,8.78.38.59,1.2.01.9-.59h0Z"/>
          <path class="cls-5" d="M67.65,185.27c-3.2,1.9-6.82,3.02-10.46,3.72-1.78.34-3.58.58-5.38.76s-3.59.32-5.32.88c-.3.1-.29.58.04.63,1.85.29,3.68.12,5.53-.1,1.91-.23,3.81-.52,5.69-.92,3.7-.78,7.24-2.12,10.35-4.3.43-.3,0-.95-.45-.68h0Z"/>
          <path class="cls-5" d="M72.55,205.24c-.92-3.15-1.61-6.39-2.21-9.62-.29-1.56-.5-3.14-.76-4.7-.13-.8-.25-1.59-.36-2.39s-.11-1.7-.45-2.44c-.28-.61-1.18-.64-1.35.08-.2.8-.02,1.67.05,2.48.08.85.16,1.71.26,2.56.19,1.6.49,3.2.81,4.78.66,3.32,1.67,6.5,2.9,9.64.28.7,1.33.35,1.12-.38h0Z"/>
        </g>
        <g>
          <path class="cls-1" d="M183.84,125.84c4.34,1.77,6.46-2.73,6.63-6.34.18-3.8-1.13-7.87-2.44-11.47,5.69,4.2,16.97,10.3,20.67,3.1,1.87-3.62-1.43-6.78-4.79-7.51-4.13-.9-10.77-.08-15,1.22,2.35-2.17,5.18-5.79,5.99-8.9.87-3.36.47-7.98-3.14-9.62-3.95-1.8-6.49,3.32-7.27,6.36-.85,3.35.21,7.44.87,10.76-5.98-3.6-18.26-4.62-18.7,3.68-.24,4.53,4.7,6.01,8.39,5.3,3.67-.7,6.22-2.59,8.32-3.69-1.58,2.13-3.61,6.22-3.74,8.47-.18,3.23.94,7.31,4.2,8.65Z"/>
          <path class="cls-5" d="M186.49,105.71c.58-.89,1.14-1.75,1.62-2.71.49-.97.9-1.97,1.28-2.99s.72-2.05.98-3.1c.13-.5.24-1.01.33-1.52.08-.46.2-.9.04-1.36-.08-.24-.38-.2-.52-.05-.33.37-.39.93-.52,1.4s-.25.91-.38,1.37c-.29,1.01-.59,2.02-.95,3.01-.69,1.92-1.48,3.87-2.36,5.71-.13.27.3.48.46.24h0Z"/>
          <path class="cls-5" d="M185.83,105.29c-1.93.13-3.91.1-5.84.05-.94-.03-1.87-.08-2.8-.11s-1.98-.23-2.89,0c-.22.06-.37.4-.12.54.81.45,1.84.5,2.75.6,1.02.11,2.04.14,3.06.13,2.02-.02,3.97-.26,5.96-.59.42-.07.29-.66-.11-.63h0Z"/>
          <path class="cls-5" d="M185.77,105.55c.29,2.2.05,4.45-.43,6.61-.23,1.06-.53,2.1-.85,3.13s-.67,2.05-.77,3.13c-.02.19.25.3.36.13.6-.95.93-1.99,1.25-3.06s.61-2.21.84-3.34c.44-2.22.54-4.47.08-6.69-.06-.31-.52-.22-.48.08h0Z"/>
          <path class="cls-5" d="M197.88,107.57c-1.95-.24-3.88-.63-5.8-1.06-.93-.21-1.84-.46-2.76-.69-.47-.12-.93-.24-1.4-.37s-.96-.34-1.45-.33c-.4.01-.63.49-.27.76.39.3.91.4,1.37.56.49.16.97.32,1.47.46.92.27,1.87.48,2.81.68,1.97.42,3.96.62,5.97.68.45.02.51-.65.06-.7h0Z"/>
        </g>
        <g>
          <g>
            <path class="cls-6" d="M189.15,163.35c.55,3.57.97,7.16.98,10.78,0,3.42-.58,6.72-.92,10.1-.03.28.09.45.27.53-.44,1.11,1.12,1.96,2.05,1.21,5.6-4.54,10.36-10.37,15.23-15.67,4.34-4.73,8.96-9.34,12.51-14.71,2.59-3.91,5.96-10.48,2.52-14.93-1.47-1.9-4.17-.97-6.06-.28-1.84.67-3.55,1.6-5.21,2.63.96-4.91,1.62-12.94-3.96-10.78-4.1,1.59-6.32,6.42-7.91,10.96-.73-3.42-2.22-6.76-5.36-7.82-5.49-1.86-6.58,4.34-6.51,8.25.13,6.63,1.36,13.18,2.37,19.72Z"/>
            <path class="cls-6" d="M222.01,194.92c-1.65-1.56-3.64-2.44-5.74-3.08,3.29-1.21,6.62-3.05,8.58-5.65.91-1.2,1.11-2.71.24-3.99-1.22-1.81-3.43-1.96-5.4-1.75-10.72,1.17-21.36,4.42-31.21,8.76.22-4.89-.46-9.86-1.33-14.65-1.04-5.71-2.64-11.45-5.05-16.74-1.37-3.01-4.58-7.77-8.52-5.36-2.45,1.5-2.9,4.75-2.65,7.72-1.7-1.38-3.63-2.52-5.74-2.83-2.94-.43-5.45,1.34-6.18,4.19-.81,3.2.97,6.53,2.81,9.04.63.86,1.32,1.68,2.07,2.45-.39-.04-.77-.08-1.13-.11-2.7-.27-5.94-.46-8.57.35-5.42,1.67-2.82,7.01-.22,10.01,7.69,8.87,21.17,10.91,32.28,9.65.4,4.39,3.35,8.66,6.18,11.89,3.14,3.59,7.22,6.62,11.72,8.25,3.14,1.14,9.32,2.4,10.19-2.22.37-1.95-.43-4.19-1.03-6-.28-.85-.63-1.65-1.03-2.42,1.69.81,3.49,1.38,5.45,1.64,2.16.29,5.97.69,6.9-1.89.92-2.54-.84-5.58-2.63-7.27Z"/>
          </g>
          <path class="cls-5" d="M166.88,220.04c4.72-3.72,8.67-8.71,12.28-13.47s7.14-10.26,9.9-15.84c2.64-5.35,5.04-10.81,6.95-16.47.97-2.89,1.87-5.82,2.53-8.8.66-2.99,1.61-6.18,1.55-9.26-.02-.86-1.15-.95-1.44-.19-1.08,2.82-1.45,5.94-2.29,8.85-.78,2.69-1.56,5.38-2.46,8.03-1.97,5.79-4.35,11.47-7.3,16.84-2.82,5.14-5.87,10.12-9.28,14.88-3.6,5.02-7.84,9.39-11.71,14.16-.73.91.36,1.98,1.27,1.27h0Z"/>
          <path class="cls-5" d="M174.52,178.63c2.21,2.32,4.27,4.79,6.27,7.28.98,1.22,1.93,2.47,2.89,3.71.48.62.95,1.24,1.46,1.83.45.52.98,1.31,1.67,1.52.18.05.36-.09.36-.27-.01-.69-.59-1.39-.95-1.95-.45-.68-.94-1.34-1.43-1.99-.96-1.27-1.96-2.51-2.97-3.74-2.07-2.5-4.29-4.83-6.76-6.95-.37-.32-.89.18-.54.54h0Z"/>
          <path class="cls-5" d="M187.78,191.78c2.95.28,5.91.55,8.86.85,1.32.13,2.65.25,3.95.52,1.25.26,2.46.66,3.68,1.04.24.08.37-.23.23-.39-1.67-2.07-4.97-2.09-7.4-2.32-3.1-.3-6.2-.45-9.32-.41-.47,0-.46.68,0,.72h0Z"/>
        </g>
      </g>
    </g>
  </g>
</svg>