<?xml version="1.0" encoding="UTF-8"?>
<svg id="Capa_2" data-name="Capa 2" xmlns="http://www.w3.org/2000/svg" viewBox="0 0 200 200">
  <defs>
    <style>
      .cls-1 {
        fill: #c46127;
      }

      .cls-1, .cls-2, .cls-3 {
        stroke-width: 0px;
      }

      .cls-2 {
        fill: none;
      }

      .cls-3 {
        fill: #593737;
      }
    </style>
  </defs>
  <g id="colorful_icons" data-name="colorful icons">
    <g>
      <g>
        <g>
          <path class="cls-1" d="m84.01,97.51c-4.7,1.05-7.23,7.49-10.28,14.9s-6.61,19.55-3.48,21.08c4.09,2,9.58-9.84,11.33-12.89s3.48-7.06,3.48-7.06c0,0-1.22,18.03-.17,20.13s30.41.87,31.36.26-.26-21.08-.26-21.08c0,0,8.63,21.61,13.68,20.91s-.26-15.16-2.44-21.61-4.44-12.98-9.93-14.64-28.58-1.05-33.28,0Z"/>
          <path class="cls-1" d="m94.53,90.86c7.16,3.04,15.54-.86,18.64-7.93,3.36-7.68-2.06-16.27-9.83-17.95-7.55-1.63-15.77,3.25-16.9,11.13-.51,3.56.29,7.2,2.41,10.08,1.39,2.02,3.34,3.68,5.68,4.67Z"/>
        </g>
        <path class="cls-3" d="m88.43,134.7c4.22.12,8,.18,12.09.3,2.59.07,14.39.02,15.6-.25.78-.17,1.09-1.03.23-1.45-1.36-.67-26.02-.4-31.5-.03-.73.05-.73.74-.33,1.05s2.73.35,3.91.39Z"/>
      </g>
      <rect class="cls-2" width="200" height="200"/>
    </g>
  </g>
</svg>