<?xml version="1.0" encoding="UTF-8"?>
<svg id="Capa_2" xmlns="http://www.w3.org/2000/svg" viewBox="0 0 243.3 243.3">
  <defs>
    <style>
      .cls-1 {
        fill: #a36545;
      }

      .cls-2 {
        fill: #fff;
      }

      .cls-3 {
        fill: none;
      }

      .cls-4 {
        fill: #4f3535;
      }
    </style>
  </defs>
  <g id="grocery_icons">
    <g>
      <rect class="cls-3" width="243.3" height="243.3"/>
      <g>
        <g>
          <path class="cls-1" d="M56.72,59.83s0-18.67.44-21.33,0-6.44,12.89-8.22,80.89-2.89,89.78-3.33c8.89-.44,20.22-.22,21.11,6s.44,20,.44,20c0,0,19.56,41.33,22.22,57.11,2.67,15.78,3.33,94.89-.67,97.33-4,2.44-114.89,16.67-119.56,16.67s-9.33-8.22-19.33-11.33c-10-3.11-24.22-.67-25.33-4.67s-3.33-92.67-.22-104.89c3.25-12.76,16.22-41.78,18.22-43.33Z"/>
          <path class="cls-2" d="M182.26,84.71c-4.12-4.79-11.37-5.22-16.52-5.71-19.24-1.83-39.14.87-58.15,3.69-7.15,1.06-16.26,2.44-20.32,10.73-1.2,2.44-.77,7.12,1.12,9.08,2.92,3.05,7.25,3.03,11.16,3.21,5.43.25,10.86.46,16.3.5,10.3.08,20.61-.3,30.88-1.12,9.42-.76,19.17-1.18,28.15-4.42,2.98-1.06,6.02-2.84,7.7-6.27,2.07-4.22,1.69-7.36-.31-9.68Z"/>
          <path class="cls-4" d="M58.27,60.61c6.36.29,12.82-.26,19.17-.52,8.71-.35,17.41-.85,26.12-1.28,18.53-.92,37.05-1.97,55.57-2.95,4.07-.22,8.15-.43,12.22-.64,3.23-.17,6.7,0,9.82-.87,1.5-.42,1.7-2.95,0-3.25-2.87-.49-5.82-.11-8.72.04-3.54.19-7.09.38-10.63.57-8.69.47-17.38.94-26.06,1.41-18.54,1.01-37.08,2.08-55.62,3.16-7.37.43-14.91.63-22.22,1.7-1.56.23-1.08,2.57.36,2.64h0Z"/>
          <path class="cls-4" d="M135.06,38.05c-2.82-1.08-10.94-.28-21.07-.01-1.98.23-4.06.56-5.77,1.65-1.81,1.15-2.97,3.57-1.9,5.62,1.31,2.5,4.94,2.06,7.31,2.14,6.08.21,12.31.11,18.34-.73,2.51-.35,4.9-1.48,5.62-4.11.59-2.18-.48-3.76-2.52-4.54Z"/>
          <path class="cls-4" d="M56.11,59.69c1.15,4.49,3.21,8.8,5.17,12.99,2.02,4.34,4.12,8.65,6.14,13,3.95,8.51,8.14,17.06,10.97,26.02,1.38,4.38,2.36,8.89,2.62,13.49.17,3.07.07,6.14,0,9.21-.06,2.58-.1,5.16-.15,7.74-.17,9.35-.18,18.69-.19,28.04,0,10.61-.05,21.22-.02,31.83,0,4.21.02,8.43,0,12.64,0,1.57-.02,3.14-.03,4.71,0,.59,0,1.18.04,1.77,0,.14,0,.28.02.43.02.27.04.73.02.35,0,.23.03.45.05.68.02.19.03.38.05.57,0,.08.01.15.02.23.06.6.02.38.02.23-.03,1.88,2.9,1.88,2.92,0,0,.45.01-.12.04-.43.02-.2.04-.4.06-.6s.05-.42.06-.63c.02-.27-.04.11-.04.14.01-.18.05-.36.06-.53.01-.14.02-.28.03-.43.08-1.35.06-2.69.07-4.04.01-3.93.02-7.85.06-11.78.09-10.52.09-21.05.13-31.57.03-9.74.09-19.47,0-29.21-.03-3-.06-6-.08-8.99-.04-6.18.05-12.3-1.28-18.38-1.96-9.02-6-17.46-9.83-25.79-4-8.7-8.41-17.22-12.26-25.99-.94-2.15-1.78-4.35-2.73-6.49-.49-1.11-2.21-.31-1.92.81h0Z"/>
          <path class="cls-4" d="M56.7,75.83c-.78,20.43.23,40.92.78,61.35.08,2.81.14,5.62.2,8.43s.02,5.85.42,8.74c.18,1.33,2.06.84,2.18-.29.52-5.05-.04-10.32-.23-15.39s-.41-10.05-.65-15.08c-.49-10.12-.78-20.25-.9-30.38-.07-5.79-.11-11.58-.07-17.37,0-1.11-1.68-1.11-1.73,0h0Z"/>
          <path class="cls-4" d="M58.63,165.16c-.26,6.07-.12,12.17.01,18.24.07,2.98.16,5.96.25,8.94.05,1.46.08,2.92.12,4.39.04,1.55-.06,3.17.45,4.66.28.81,1.38.82,1.66,0,.48-1.42.38-2.94.37-4.42s-.04-2.93-.07-4.39c-.07-3.06-.2-6.12-.36-9.18-.32-6.08-.62-12.16-.92-18.24-.05-.97-1.47-.98-1.52,0h0Z"/>
          <g>
            <path class="cls-4" d="M98.75,88.83c.11.12.17.27.19.45.02.18,0,.34-.06.46-.1.28-.31.39-.6.33-.52-.09-1.06-.1-1.62-.04-.56.06-1.11.32-1.64.77-.53.45-.93,1.08-1.2,1.9-.27.81-.37,1.65-.32,2.5.05.83.3,1.53.74,2.1.44.57.99.97,1.64,1.2.4.14.85.21,1.34.21.49,0,.98-.06,1.48-.15.5-.09.98-.22,1.46-.39.48-.17.93-.35,1.36-.55.14-.06.28-.06.42,0,.14.07.24.16.29.28.14.31.1.63-.12.96-.27.34-.64.64-1.12.92-.47.28-1,.5-1.57.69-.58.18-1.17.3-1.78.35-.61.05-1.19.02-1.73-.09-.77-.15-1.43-.39-1.98-.74-.55-.34-1.01-.75-1.39-1.23-.37-.48-.67-1-.87-1.56-.21-.56-.34-1.15-.41-1.76-.14-1.46.06-2.8.6-4.01.55-1.21,1.36-2.13,2.45-2.77.8-.47,1.63-.69,2.48-.66s1.5.3,1.95.81Z"/>
            <path class="cls-4" d="M117.02,93.34c-.1.69-.32,1.36-.66,2.01-.34.65-.73,1.25-1.19,1.82-.45.57-.95,1.07-1.5,1.49-.55.43-1.11.77-1.68,1.03-1.05.46-2.11.66-3.18.59-1.07-.07-2.05-.49-2.93-1.26-.61-.65-1.05-1.39-1.34-2.23-.29-.84-.45-1.7-.5-2.6-.05-.89.02-1.76.2-2.61.18-.84.43-1.61.75-2.29.39-.81.87-1.49,1.45-2.04.58-.55,1.23-.9,1.95-1.05.19-.06.35-.02.49.12.13.14.2.31.22.5.23-.26.59-.47,1.1-.62.5-.16,1.08-.21,1.72-.15,1.18.07,2.13.36,2.85.88.72.52,1.27,1.14,1.65,1.86.38.72.6,1.49.67,2.31.07.82.05,1.56-.06,2.23ZM108.71,88.81c-.47.25-.86.6-1.16,1.05-.3.45-.54.95-.71,1.5-.17.55-.27,1.14-.29,1.76-.02.63.01,1.23.1,1.81.13.85.43,1.53.91,2.05.48.52,1.18.75,2.1.69.54-.04,1.06-.17,1.57-.42.51-.24.98-.55,1.39-.92.42-.37.79-.8,1.13-1.3s.6-1.01.78-1.54c.1-.28.18-.62.23-1.03.05-.41.04-.82,0-1.25s-.18-.83-.37-1.21c-.2-.38-.49-.69-.87-.94-.54-.33-1.16-.51-1.87-.54-.71-.03-1.45.18-2.2.62-.14.11-.3.14-.49.09-.19-.05-.26-.2-.23-.45Z"/>
            <path class="cls-4" d="M131.06,84.34c-.04.15-.2.33-.48.55s-.52.33-.71.34c-1.06-.03-2.1-.05-3.15-.05-1.04,0-2.1.01-3.18.06.2.85.4,1.69.59,2.54.19.85.37,1.69.55,2.54,2.07-.21,4.11-.45,6.13-.73.34-.02.69.06,1.05.26.36.2.54.39.55.59.02.27-.08.51-.28.74-.21.22-.47.37-.78.44-1.01.24-2.04.43-3.07.59-1.03.15-2.08.29-3.15.41.18.85.34,1.69.48,2.52.14.84.27,1.67.4,2.49.07.34.06.7-.02,1.09-.08.39-.25.59-.49.6-.22.01-.43-.03-.63-.14-.2-.11-.39-.24-.56-.39-.17-.15-.31-.32-.42-.51-.11-.19-.18-.36-.22-.5-.38-2.08-.78-4.15-1.19-6.21-.42-2.06-.86-4.12-1.34-6.2l-1.21.08c-.34.02-.66,0-.96-.05-.3-.05-.53-.22-.7-.51-.05-.07-.09-.19-.11-.36-.02-.17-.02-.34,0-.51.02-.17.08-.34.17-.49.09-.15.22-.26.38-.32.94-.21,1.96-.33,3.04-.38,1.09-.05,2.15-.05,3.2,0,1.04.04,2.03.13,2.96.27.93.14,1.73.29,2.4.47.43.22.68.48.75.8Z"/>
            <path class="cls-4" d="M145.34,83.41c-.04.15-.2.33-.48.55-.28.21-.52.33-.71.34-1.06-.03-2.1-.05-3.15-.05-1.04,0-2.1.01-3.18.06.2.85.4,1.69.59,2.54.19.85.37,1.69.55,2.54,2.07-.21,4.11-.45,6.13-.73.34-.02.69.07,1.05.26.36.2.54.39.55.59.02.27-.08.51-.28.74-.21.22-.47.37-.78.44-1.01.24-2.04.43-3.07.59-1.03.15-2.08.29-3.15.41.18.85.34,1.69.48,2.52.14.84.27,1.67.4,2.49.07.34.06.7-.02,1.09-.08.39-.25.59-.49.6-.22.01-.43-.03-.63-.14-.2-.11-.39-.24-.56-.39-.17-.15-.31-.32-.42-.51-.11-.19-.18-.36-.22-.5-.38-2.08-.78-4.15-1.19-6.21-.42-2.06-.86-4.12-1.34-6.2l-1.21.08c-.34.02-.66,0-.96-.05-.3-.05-.53-.22-.7-.51-.05-.07-.09-.19-.11-.36-.02-.17-.02-.34,0-.52.03-.17.08-.33.17-.49.09-.15.22-.26.38-.32.94-.21,1.96-.33,3.04-.38,1.09-.05,2.15-.05,3.2,0s2.03.13,2.96.27c.93.14,1.73.29,2.4.47.43.22.68.48.75.8Z"/>
            <path class="cls-4" d="M159.36,89.23c.11.24.03.48-.25.73-.28.25-.73.43-1.36.55-1.09.22-2.2.44-3.34.68-1.14.24-2.3.48-3.48.72.03,1.25.11,2.49.24,3.73.56-.04,1.23-.13,2.02-.3.79-.16,1.59-.35,2.41-.58.82-.22,1.61-.45,2.36-.69.76-.23,1.4-.43,1.93-.58.26-.09.54-.16.83-.22.29-.06.55-.07.79-.05.23.02.43.1.59.24.16.14.24.34.26.61,0,.07-.07.19-.23.35-.16.16-.36.33-.61.5-.25.18-.51.34-.78.49-.27.15-.52.27-.73.36-1.48.59-2.94,1.1-4.38,1.55-1.44.45-2.86.73-4.25.85-.8.08-1.43-.1-1.87-.52-.44-.43-.71-1.06-.79-1.92-.13-1.19-.21-2.4-.24-3.62-.43-.22-.66-.55-.69-.99.02-.47.22-.8.6-.99,0-.71,0-1.43-.03-2.15-.02-.72-.03-1.44-.03-2.15-.27-.03-.52-.15-.74-.36-.22-.21-.34-.44-.36-.71-.01-.22.02-.42.11-.61.08-.19.26-.34.52-.46.43-.13.96-.27,1.59-.44.63-.16,1.27-.31,1.94-.46.66-.14,1.31-.27,1.92-.38s1.15-.2,1.58-.25c.51-.08,1.01-.07,1.49.05.49.12.95.37,1.39.75.12.34.07.6-.15.78-.22.19-.51.32-.88.39-.36.07-.8.16-1.31.25-.51.09-1.03.2-1.58.3s-1.09.21-1.63.31c-.55.1-1.06.2-1.54.3,0,.05.01.1.03.16.02.06.02.12.03.16,0,.64,0,1.27.01,1.91.02.64.03,1.27.05,1.91,1.01-.24,2.05-.46,3.12-.66,1.06-.2,1.91-.35,2.54-.44.51-.08,1.01-.05,1.51.08.5.14.96.4,1.37.79Z"/>
            <path class="cls-4" d="M174.36,88.25c.11.24.03.48-.25.73-.28.25-.73.43-1.36.55-1.09.22-2.2.44-3.34.68-1.14.24-2.3.48-3.48.72.03,1.25.11,2.49.24,3.73.56-.04,1.23-.13,2.02-.3.79-.16,1.59-.35,2.41-.58.82-.22,1.61-.45,2.36-.69.76-.23,1.4-.43,1.93-.58.26-.09.54-.16.83-.22.29-.06.55-.07.79-.05s.43.1.59.24c.16.14.24.34.26.61,0,.07-.07.19-.23.35-.16.16-.36.33-.61.5-.25.18-.51.34-.78.49-.27.15-.52.27-.73.36-1.48.59-2.94,1.1-4.38,1.55-1.44.45-2.86.73-4.25.85-.8.08-1.43-.1-1.87-.52-.44-.43-.71-1.06-.79-1.92-.13-1.19-.21-2.4-.24-3.62-.43-.22-.66-.54-.69-.98.02-.47.22-.8.6-.99,0-.71,0-1.43-.03-2.15-.02-.72-.03-1.44-.03-2.15-.27-.03-.52-.15-.74-.36-.22-.21-.34-.44-.36-.71-.01-.22.02-.42.11-.61.08-.19.26-.34.52-.46.43-.12.96-.27,1.59-.43.63-.16,1.27-.31,1.94-.46.66-.14,1.31-.27,1.92-.38s1.15-.2,1.58-.25c.51-.08,1.01-.07,1.49.05.49.12.95.37,1.39.75.12.34.07.6-.15.78-.22.19-.51.32-.88.39-.36.07-.8.16-1.31.25-.51.09-1.03.2-1.58.3-.54.11-1.09.21-1.63.31s-1.06.2-1.54.3c0,.05.01.1.03.16.02.06.02.12.03.16,0,.64,0,1.27.01,1.91.02.64.03,1.27.05,1.91,1.01-.24,2.05-.46,3.12-.66,1.06-.2,1.91-.35,2.54-.44.51-.08,1.01-.05,1.51.08.5.14.96.4,1.37.79Z"/>
          </g>
        </g>
        <g>
          <path class="cls-4" d="M112.8,182.47c4.22-.55,6.1-.96,9.11-1.82,2.93-.84,5.64-2.19,8.13-3.94,4.56-3.2,8.28-8.33,10.04-13.59,2.14-6.38,3.23-13.04,5.98-19.22,2.44-5.47,6.38-10.32,11.28-13.77,1.96-1.38,4.06-2.51,6.25-3.46-7.61-3.38-16.46-5.4-24.37-2.22-8.03,3.23-14.65,10.36-19.57,17.27-4.91,6.89-8.18,14.88-9.16,23.3-.68,5.83-.09,12.05,2.3,17.45Z"/>
          <path class="cls-4" d="M143.29,173.32c-2.81,5.34-8,9.79-13.32,12.5-3.45,1.77-8.1,3.6-12.43,3.69,5.98,6.07,15.05,8.06,23.26,6.53,10.07-1.87,18.49-8.8,24.61-16.7,3.23-4.17,6.09-8.67,8.47-13.38,1.23-2.43,2.44-5.04,3.26-7.74,1.21-2.86,2.1-5.77,2.28-9.02.24-4.33-.69-8.9-2.98-12.63-1.75-2.85-4.27-5.12-7.09-6.91-1.45.58-2.9,1.18-4.26,1.98-2.78,1.65-5.21,3.73-7.44,6.05-9.39,9.76-8.33,24.15-14.38,35.63Z"/>
        </g>
      </g>
    </g>
  </g>
</svg>