<?xml version="1.0" encoding="UTF-8"?>
<svg id="Capa_2" data-name="Capa 2" xmlns="http://www.w3.org/2000/svg" viewBox="0 0 200 200">
  <defs>
    <style>
      .cls-1 {
        fill: #c46127;
      }

      .cls-1, .cls-2, .cls-3 {
        stroke-width: 0px;
      }

      .cls-2 {
        fill: none;
      }

      .cls-3 {
        fill: #593737;
      }
    </style>
  </defs>
  <g id="colorful_icons" data-name="colorful icons">
    <g>
      <g>
        <g>
          <g>
            <path class="cls-1" d="m105.58,97.58c-4.71,1.05-7.25,7.51-10.3,14.93s-6.62,19.59-3.49,21.12c4.1,2.01,9.6-9.86,11.35-12.92s3.49-7.07,3.49-7.07c0,0-1.22,18.07-.17,20.16s30.46.87,31.42.26-.26-21.12-.26-21.12c0,0,8.64,21.65,13.7,20.95,5.06-.7-.26-15.19-2.44-21.65s-4.45-13.01-9.95-14.66-28.63-1.05-33.34,0Z"/>
            <path class="cls-1" d="m116.13,90.91c7.18,3.05,15.57-.86,18.67-7.95,3.37-7.7-2.07-16.31-9.85-17.99-7.56-1.63-15.8,3.26-16.93,11.15-.51,3.57.29,7.21,2.41,10.1,1.4,2.02,3.35,3.69,5.69,4.68Z"/>
          </g>
          <path class="cls-3" d="m110.02,134.83c4.23.12,8.01.18,12.12.3,2.6.07,14.42.02,15.63-.25.79-.17,1.1-1.03.23-1.45-1.37-.67-26.07-.4-31.56-.03-.73.05-.73.74-.33,1.05s2.73.35,3.92.39Z"/>
        </g>
        <g>
          <path class="cls-1" d="m72.83,90.91c7.18,3.05,15.57-.86,18.67-7.95,3.37-7.7-2.07-16.31-9.85-17.99-7.56-1.63-15.8,3.26-16.93,11.15-.51,3.57.29,7.21,2.41,10.1,1.4,2.02,3.35,3.69,5.69,4.68Z"/>
          <path class="cls-1" d="m91.41,110.91l.26-.63c1.81-4.4,3.56-8.66,5.93-11.83-.61-.36-1.26-.66-1.97-.88-5.5-1.66-28.63-1.05-33.34,0-4.71,1.05-7.25,7.51-10.3,14.93-3.06,7.42-6.62,19.59-3.49,21.12,4.1,2.01,9.6-9.86,11.35-12.92,1.75-3.06,3.49-7.07,3.49-7.07,0,0-1.22,18.07-.17,20.16.73,1.45,15.1,1.31,24.16.88-2.48-5.2.62-15.37,4.08-23.78Z"/>
          <path class="cls-3" d="m86.76,133.03c-8.13-.08-20.01.12-23.62.36-.73.05-.73.74-.33,1.05.4.31,2.73.35,3.92.39,4.23.12,8.01.18,12.12.3,1.35.04,5.18.04,8.72,0-.36-.62-.62-1.33-.8-2.1Z"/>
        </g>
      </g>
      <rect class="cls-2" width="200" height="200"/>
    </g>
  </g>
</svg>