<?xml version="1.0" encoding="UTF-8"?>
<svg id="Capa_2" xmlns="http://www.w3.org/2000/svg" viewBox="0 0 243.3 243.3">
  <defs>
    <style>
      .cls-1 {
        fill: #5a992f;
      }

      .cls-2 {
        fill: #fff;
      }

      .cls-3 {
        fill: none;
      }

      .cls-4 {
        fill: #4f3535;
      }

      .cls-5 {
        fill: #c0c728;
      }
    </style>
  </defs>
  <g id="grocery_icons">
    <g>
      <rect class="cls-3" width="243.3" height="243.3"/>
      <g>
        <g>
          <g>
            <g>
              <path class="cls-5" d="M230.36,124.08c1.97-1.86,1.44-6.26,1.43-8.63,0-3.61-.07-7.29-.48-10.88-.38-3.28-1.71-4.33-4.4-5.99-4.85-3-10.62-7.7-16.53-5.64-4.62.88-8.55,5-12.08,8-2.4,2.04-3.59,3.28-3.48,6.55.13,3.83.64,7.69,1.23,11.47.37,2.39.53,6.05,2.57,7.72,1.55,1.27,3.73,1.08,5.57.83,1.91-.26,3.83-.42,5.75-.56,5.07-.36,10.11-1.08,15.18-1.43,1.63-.12,3.98-.23,5.24-1.42Z"/>
              <path class="cls-4" d="M216.77,149.73c-3.78-4.95-9.32-9.18-14-13.28-2.04-1.78-4.61-2.56-7.28-2.88-1.23-.15-7.3-.29-8.01-.21-.22.02-9.22-.18-12.96,3.09-4.69,4.1-10.22,8.32-14,13.28-7.23,9.47-5.89,20.8-5.51,32.07.22,6.59.36,13.18.65,19.77.12,2.86.33,5.72.58,8.57.17,1.97.09,4.31,1.35,5.96,1.34,1.77,3.42,1.99,5.47,2.24,3.02.37,6.05.73,9.08.9,5.49.32,11.01.26,16.51.11,5.5.15,11.02.2,16.51-.11,3.03-.18,6.06-.53,9.08-.9,2.05-.25,4.13-.47,5.47-2.24,1.26-1.65,1.18-3.99,1.35-5.96.25-2.85.46-5.71.58-8.57.28-6.58.43-13.18.65-19.77.38-11.28,1.72-22.59-5.51-32.07ZM218.92,167.41c-.18,5.01-.58,10.01-.8,15.02-.23,5.11-.45,10.23-.68,15.34-.12,2.72-.23,5.43-.27,8.15-.02,1.86.69,5.7,0,7.4-.95,2.32-6.09,1.62-8.2,1.69-2.52.08-5.03.2-7.55.28-2.78.09-5.56.15-8.34.17-.15-.03-.31-.05-.48-.05-1.32.02-2.63.04-3.95.05-1.31,0-2.62-.02-3.93-.05-.17,0-.33.02-.48.05-2.78-.02-5.56-.08-8.35-.17-2.52-.09-5.03-.2-7.55-.28-2.16-.07-7.22.71-8.2-1.69-.67-1.63.02-5.03,0-6.78-.03-2.71-.13-5.42-.25-8.13-.24-5.32-.47-10.65-.71-15.97-.21-4.81-.59-9.62-.78-14.43-.24-5.73-.3-12.13,3.85-16.55,3.48-3.71,7.56-6.99,11.26-10.49,2.21-2.09,4.49-4.11,7.64-4.36,2.42-.19,12.73-.06,13.69-.07,4.03-.07,6.15,1.78,8.96,4.43,3.71,3.51,7.72,6.81,11.26,10.49,4.05,4.21,4.06,10.44,3.87,15.96Z"/>
              <path class="cls-5" d="M209.31,178.53c-3.3-3.73-8.06-2.91-12.36-1.86-3.27.79-6.84,1.52-10.2.89-2.92-.55-4.75-2.72-7.18-4.21-2.24-1.38-4.85-2.09-7.48-2.05-2.11.04-4.39.4-6.25,1.44-1.47.82-1.83,2.77-1.84,4.31-.01,1.78-.08,2.95-.15,4.73-.15,3.67-.06,7.34.08,11,.17,4.25.42,9.57,3.21,13.05,2.67,3.32,7.12,3.9,11.05,4.55,6.02.99,12.12,1.52,18.22,1.02,4.4-.36,9.42-.73,12.25-4.57,3.05-4.14,3.69-10.55,3.78-15.54.07-4.11-.24-9.5-3.12-12.76Z"/>
              <path class="cls-4" d="M170.86,187.5l.13.09.51.21c.28.09.57.1.85.03.19,0,.37-.05.54-.15.26-.09.49-.24.68-.45l.33-.43.21-.51c.09-.28.1-.57.03-.85-.01-.28-.1-.55-.26-.79l-.09-.13c-.19-.32-.45-.58-.78-.77-.34-.19-.7-.29-1.09-.29l-.57.08c-.37.11-.68.29-.95.56-.21.2-.36.43-.44.7-.13.26-.19.54-.18.83,0,.39.1.75.3,1.09.19.32.45.58.78.77h0Z"/>
              <path class="cls-4" d="M176.28,200.13s0,0,0,0l.35-.46c-.3.37-.44.52-.57.99-.16.59-.07,1.23.24,1.75.41.69,1.17,1.12,1.97,1.11s1.56-.44,1.96-1.14.4-1.6-.01-2.3c-.41-.69-1.17-1.12-1.97-1.11-.41,0-.79.11-1.15.32-.34.2-.61.48-.81.82h0Z"/>
              <path class="cls-4" d="M184.5,193.66c.35.01.67-.06.97-.22.31-.1.58-.28.81-.53.25-.23.42-.5.52-.82.16-.3.23-.63.21-.98l-.09-.67c-.12-.43-.34-.8-.66-1.11-.17-.13-.34-.26-.51-.39-.4-.23-.82-.34-1.28-.34-.35-.01-.67.06-.97.22-.31.1-.58.28-.81.53-.25.23-.42.5-.52.82-.16.3-.23.63-.21.98l.09.67c.12.43.34.8.66,1.11l.51.39c.4.23.82.34,1.28.34h0Z"/>
              <path class="cls-4" d="M204.47,110.08c2.98-.14,5.97-.57,8.92-.98,2.84-.4,6.14-.54,8.72-1.8.93-.45.55-1.66-.34-1.83-2.68-.51-5.72.25-8.39.61-3.01.41-6.1.94-9.04,1.75-1.14.32-1.25,2.31.13,2.24h0Z"/>
              <path class="cls-4" d="M205.32,116.98c5.37.14,10.74-.86,16.08-1.06,1.64-.06,1.9-2.43.19-2.59-5.42-.54-11.04.93-16.39,1.64-1.14.15-1.04,1.99.11,2.02h0Z"/>
            </g>
            <path class="cls-2" d="M200.42,190.31c3.25,0,3.26-5.06,0-5.06s-3.26,5.06,0,5.06h0Z"/>
            <path class="cls-2" d="M201.15,201.68c2.4,0,2.4-3.73,0-3.73s-2.4,3.73,0,3.73h0Z"/>
          </g>
          <path class="cls-4" d="M190.51,144.54c.98-6.14-.14-12.13-2.08-17.97-1.97-5.92-4.31-11.73-6.72-17.47-2.47-5.88-5.13-11.68-7.7-17.51-2.18-4.93-3.93-10.07-3.47-15.53.77-9.1,7.12-17.99,15.88-20.92,8.67-2.9,18.69-.29,25.01,6.27,1.91,1.99,3.49,4.43,4.33,7.06,1.03,3.22.61,6.49-.18,9.71-.87,3.5-1.98,6.95-2.77,10.47-.8,3.56-2.03,7.06-2.53,10.68-.11.76.12,1.47.88,1.79.63.26,1.6.07,1.9-.62,1.35-3.12,2.05-6.44,3.13-9.65s2.03-6.48,2.9-9.75,1.58-6.44,1.32-9.7c-.25-3.13-1.37-5.99-3.16-8.56-5.68-8.19-15.9-12.73-25.8-11.79-10.2.97-18.7,7.94-22.46,17.36-1.91,4.79-2.39,10.05-1.38,15.11,1.26,6.33,4.52,12.16,7.13,18.01,3.14,7.03,6.12,14.13,9,21.27,2.73,6.77,5.49,14.06,4.74,21.48-.12,1.15,1.86,1.43,2.04.28h0Z"/>
        </g>
        <g>
          <g>
            <path class="cls-1" d="M37.73,62.39s0-18.67.44-21.33c.44-2.67,0-6.44,12.89-8.22,12.89-1.78,42.75-1.75,51.64-2.19,8.89-.44,20.22-.22,21.11,6s.44,20,.44,20c0,0,19.56,41.33,22.22,57.11,2.67,15.78,2.33,97.56-1.67,100-4,2.44-75.75,12.86-80.42,12.86s-9.33-8.22-19.33-11.33-24.22-.67-25.33-4.67-3.33-92.67-.22-104.89c3.25-12.76,16.22-41.78,18.22-43.33Z"/>
            <path class="cls-2" d="M128.93,86.6c-2.69-4.79-7.42-5.22-10.78-5.71-12.56-1.83-25.54.87-37.96,3.69-4.67,1.06-10.61,2.44-13.26,10.73-.79,2.44-.5,7.12.73,9.08,1.91,3.05,4.73,3.03,7.28,3.21,3.55.25,7.09.46,10.64.5,6.72.08,13.45-.3,20.15-1.12,6.15-.76,12.51-1.18,18.37-4.42,1.95-1.06,3.93-2.84,5.02-6.27,1.35-4.22,1.1-7.36-.2-9.68Z"/>
            <path class="cls-4" d="M39.28,63.17c6.36.29,44.2-2.63,62.72-3.61,4.07-.22,8.15-.43,12.22-.64,3.23-.17,6.7,0,9.82-.87,1.5-.42,1.7-2.95,0-3.25-2.87-.49-5.82-.11-8.72.04-3.54.19-69.08,4.62-76.4,5.69-1.56.23-1.08,2.57.36,2.64h0Z"/>
            <path class="cls-4" d="M93.35,40.13c-2.35-.9-9.13-.23-17.58,0-1.65.19-3.39.47-4.81,1.38-1.51.96-2.48,2.98-1.58,4.69,1.1,2.08,4.12,1.72,6.1,1.79,5.07.18,10.27.09,15.31-.61,2.09-.29,4.09-1.24,4.69-3.43.49-1.82-.4-3.14-2.11-3.79Z"/>
            <path class="cls-4" d="M37.11,62.24c1.15,4.49,3.21,8.8,5.17,12.99,2.02,4.34,4.12,8.65,6.14,13,3.95,8.51,8.14,17.06,10.97,26.02,1.38,4.38,2.36,8.89,2.62,13.49.17,3.07.07,6.14,0,9.21-.06,2.58-.1,5.16-.15,7.74-.17,9.35-.18,18.69-.19,28.04,0,10.61-.05,21.22-.02,31.83,0,4.21.02,8.43,0,12.64,0,1.57-.02,3.14-.03,4.71,0,.59,0,1.18.04,1.77,0,.14,0,.28.02.43.02.27.04.73.02.35,0,.23.03.45.05.68.02.19.03.38.05.57,0,.08.01.15.02.23.06.6.02.38.02.23-.03,1.88,2.9,1.88,2.92,0,0,.45.01-.12.04-.43.02-.2.04-.4.06-.6s.05-.42.06-.63c.02-.27-.04.11-.04.14.01-.18.05-.36.06-.53.01-.14.02-.28.03-.43.08-1.35.06-2.69.07-4.04.01-3.93.02-7.85.06-11.78.09-10.52.09-21.05.13-31.57.03-9.74.09-19.47,0-29.21-.03-3-.06-6-.08-8.99-.04-6.18.05-12.3-1.28-18.38-1.96-9.02-6-17.46-9.83-25.79-4-8.7-8.41-17.22-12.26-25.99-.94-2.15-1.78-4.35-2.73-6.49-.49-1.11-2.21-.31-1.92.81h0Z"/>
            <path class="cls-4" d="M37.71,78.38c-.78,20.43.23,40.92.78,61.35.08,2.81.14,5.62.2,8.43s.02,5.85.42,8.74c.18,1.33,2.06.84,2.18-.29.52-5.05-.04-10.32-.23-15.39-.19-5.03-.41-10.05-.65-15.08-.49-10.12-.78-20.25-.9-30.38-.07-5.79-.11-11.58-.07-17.37,0-1.11-1.68-1.11-1.73,0h0Z"/>
            <path class="cls-4" d="M39.64,167.72c-.26,6.07-.12,12.17.01,18.24.07,2.98.16,5.96.25,8.94.05,1.46.08,2.92.12,4.39.04,1.55-.06,3.17.45,4.66.28.81,1.38.82,1.66,0,.48-1.42.38-2.94.37-4.42s-.04-2.93-.07-4.39c-.07-3.06-.2-6.12-.36-9.18-.32-6.08-.62-12.16-.92-18.24-.05-.97-1.47-.98-1.52,0h0Z"/>
            <g>
              <path class="cls-4" d="M87.47,89.99c-2.52,0-4.93.32-7.23.95-2.3.63-4.56,1.44-6.78,2.43-.57.25-1.02.25-1.34,0-.32-.25-.48-.51-.5-.78.15-.47.43-.87.86-1.18,4.89-2.69,9.85-3.84,14.89-3.46.25.06.46.23.63.5.17.27.24.51.2.71-.04.25-.1.45-.19.62s-.27.24-.54.23ZM82.9,103.04c.01.27-.07.51-.24.73-.17.22-.39.36-.66.42-.48.1-.81.03-.96-.21-.16-.24-.26-.51-.3-.83-.11-1.71-.22-3.41-.34-5.11-.12-1.7-.29-3.4-.49-5.1,0-.1-.02-.21-.05-.35-.03-.13-.04-.27-.02-.4.02-.14.07-.25.15-.36.08-.1.22-.18.41-.24.56-.13.96-.05,1.22.21.26.27.39.54.41.81.28,1.75.49,3.49.63,5.22.14,1.73.22,3.47.26,5.2Z"/>
              <path class="cls-4" d="M101.44,94.81c.11.24.02.48-.26.73-.28.25-.74.42-1.37.53-1.09.2-2.21.41-3.35.62-1.14.22-2.3.44-3.49.67.01,1.25.07,2.49.19,3.74.56-.03,1.24-.12,2.02-.27.79-.15,1.59-.33,2.42-.54.82-.21,1.61-.43,2.37-.65.76-.22,1.41-.41,1.94-.56.26-.09.54-.16.83-.21.29-.05.55-.06.79-.04.23.02.43.11.58.25.15.14.24.34.25.61,0,.07-.08.19-.24.34-.16.16-.37.32-.62.49s-.51.33-.78.48c-.27.15-.52.26-.74.35-1.49.56-2.96,1.06-4.41,1.49-1.45.43-2.87.69-4.26.78-.81.06-1.43-.12-1.86-.55-.44-.43-.69-1.07-.76-1.93-.11-1.19-.17-2.4-.18-3.63-.43-.22-.65-.56-.67-1,.03-.46.23-.79.61-.98.01-.71.01-1.43,0-2.15-.01-.72-.01-1.44,0-2.15-.27-.04-.52-.16-.73-.37-.22-.21-.33-.45-.35-.72-.01-.22.03-.42.12-.61.09-.19.26-.34.53-.45.43-.12.97-.25,1.6-.41.63-.15,1.28-.29,1.94-.43.67-.13,1.31-.25,1.93-.35.62-.1,1.15-.18,1.59-.23.51-.07,1.01-.05,1.49.07.48.12.94.38,1.38.78.11.34.06.6-.16.78-.22.18-.52.31-.88.37-.36.07-.8.14-1.31.23-.51.09-1.04.18-1.58.28s-1.09.19-1.64.28c-.55.09-1.06.18-1.55.28,0,.05.01.1.03.16.02.06.02.12.03.16-.02.64-.02,1.27-.01,1.91,0,.64.01,1.27.02,1.91,1.02-.22,2.06-.43,3.13-.61,1.07-.19,1.92-.32,2.55-.4.51-.07,1.01-.04,1.51.11.5.15.95.42,1.36.81Z"/>
              <path class="cls-4" d="M107.83,103.63c-.1.42-.24.8-.42,1.14-.18.34-.38.54-.59.6-.46.15-.82.09-1.07-.17-.26-.26-.37-.59-.34-1.01.12-1.48.36-3.04.72-4.68.36-1.65.79-3.3,1.3-4.95.51-1.65,1.07-3.26,1.69-4.82.62-1.56,1.27-2.98,1.94-4.26.11-.2.25-.32.4-.37.16-.04.3-.04.42,0,.12-.1.26-.2.43-.28.17-.08.34-.13.51-.13.07,0,.15,0,.24.02.09.02.18.09.29.21.1.12.23.29.37.51.15.22.33.55.54.98.4,1.23.86,2.49,1.38,3.79.52,1.3,1.05,2.59,1.61,3.89.07-.03.14-.05.2-.06.06-.02.13-.04.2-.07.27-.04.57-.04.92,0,.34.03.58.19.72.48.16.36.16.68-.03.96-.18.28-.52.57-1.02.86.36.77.71,1.51,1.07,2.24.35.73.72,1.44,1.1,2.13.03.12.08.31.14.56.06.25.1.51.13.76.02.26.02.5-.02.72-.04.22-.13.37-.27.46-.17.08-.34.08-.53-.01-.19-.09-.37-.21-.55-.36-.18-.15-.34-.31-.48-.49-.14-.18-.25-.34-.34-.48-.46-.79-.89-1.58-1.31-2.38-.42-.8-.82-1.61-1.2-2.42-1.02.25-2.12.47-3.33.68-1.2.21-2.39.36-3.56.47-.22.94-.44,1.86-.65,2.77-.21.91-.41,1.81-.58,2.73ZM112.27,87.99c-1,2.57-1.85,5.14-2.56,7.69,1.63-.13,3.37-.42,5.21-.88-.99-2.18-1.87-4.45-2.65-6.81Z"/>
            </g>
          </g>
          <g>
            <g>
              <path class="cls-5" d="M137.57,148.5c-.41-2.2-2.47-3.69-4.46-4.39-4.44-1.57-9.33.22-13.4,2.04-2.5,1.11-4.99,2.41-7.34,3.91.37-.56.73-1.12,1.1-1.66,1.78-2.69,3.47-5.45,5-8.29,1.57-2.91,2.99-5.9,4.28-8.94,1.18-2.79,2.68-5.84,3-8.89.25-2.45-.51-5.12-2.69-6.51-2.37-1.51-5.01-.46-6.93,1.27-4.33,3.9-6.39,9.63-7.84,15.12-1.03,3.89-1.83,7.85-2.41,11.83-.55,3.83-1.18,7.88-.99,11.76,0,.18.07.33.16.46,0,.04,0,.07,0,.11-.02.26.09.52.29.7.09.11.19.21.31.29,2,1.29,5.21,1.34,7.54,1.44,2.61.11,5.22-.03,7.79-.43,2.58-.41,5.16-1.04,7.64-1.87,2.16-.73,4.59-1.51,6.47-2.84,1.64-1.16,2.86-3.04,2.47-5.11Z"/>
              <path class="cls-5" d="M92.57,161.11c.91,3.08,1.88,6.34,3.3,9.23.62,1.26,2.19,1.07,2.65.09,2.64-4.25,4.01-9.22,4.48-14.19.43-4.6.42-9.84-1.26-14.21-1.28-3.33-5.93-8.18-9.49-4.57-1.59,1.61-1.91,4.14-2.05,6.29-.18,2.7-.06,5.45.31,8.13.44,3.12,1.18,6.22,2.07,9.24Z"/>
              <path class="cls-5" d="M93.11,185.89c.44.2,1.1.01,1.23-.56,1.58-7.14-.41-14.77-4.63-20.66-.97-1.35-2.16-2.89-3.89-3.24-1.68-.33-3.19.63-3.87,2.15-1.42,3.16.2,7.52,1.7,10.36,1.03,1.96,2.33,3.78,3.57,5.62,1.4,2.08,2.78,4.16,4.19,6.23.46.68,1.25.55,1.71.1Z"/>
              <path class="cls-5" d="M114.64,173.22c-4.05-.37-8.01,1.95-11.12,4.27-3.8,2.84-7.09,6.19-9.8,10.09-.23.34-.22.69-.09.99-.9.47-.71,1.98.49,1.91,7.82-.47,15.6-3.97,21.4-9.23,1.36-1.23,2.92-2.76,2.78-4.76-.14-1.96-1.83-3.11-3.66-3.28Z"/>
              <path class="cls-5" d="M108.65,189.32c-1.97-.04-3.95.14-5.88.52-4.21.84-8.16,2.59-11.52,5.27-.07.06-.12.13-.17.2-.01.01-.02.03-.04.04-.04.05-.06.11-.08.16-.03.05-.06.1-.08.16.1-.36-.1.23-.14.34-.13.36-.27.71-.4,1.07-.18.47-.34.95-.54,1.41-.28.65-.02,1.27.57,1.62,2.85,1.73,6.67,1.75,9.89,1.42,3.39-.35,6.69-1.51,9.58-3.31,2.31-1.43,6.51-5.14,3.22-7.82-1.23-1-2.91-1.06-4.42-1.09Z"/>
            </g>
            <path class="cls-4" d="M121.13,138.17c-.98.95-2.17,1.67-3.18,2.59s-1.89,1.93-2.79,2.93c-1.87,2.08-3.68,4.21-5.44,6.38-3.34,4.16-6.45,8.5-9.26,13.04-5.73,9.24-10.18,19.65-12.12,30.38-.56,3.1-.93,6.23-1.11,9.37s-.51,6.2.29,9.12c.45,1.64,2.93,1.29,3.22-.26.47-2.55.19-5.21.4-7.8.21-2.61.57-5.2,1.05-7.78.97-5.18,2.36-10.31,4.21-15.24,3.7-9.85,9.04-19.09,15.32-27.51,1.73-2.32,3.54-4.6,5.4-6.82.93-1.11,1.92-2.18,2.82-3.31.97-1.22,1.69-2.63,2.72-3.8.87-.99-.62-2.19-1.53-1.31h0Z"/>
          </g>
        </g>
      </g>
    </g>
  </g>
</svg>