<?xml version="1.0" encoding="UTF-8"?>
<svg id="Capa_2" data-name="Capa 2" xmlns="http://www.w3.org/2000/svg" viewBox="0 0 200 200">
  <defs>
    <style>
      .cls-1 {
        fill: #c46127;
      }

      .cls-1, .cls-2, .cls-3 {
        stroke-width: 0px;
      }

      .cls-2 {
        fill: none;
      }

      .cls-3 {
        fill: #593737;
      }
    </style>
  </defs>
  <g id="colorful_icons" data-name="colorful icons">
    <g>
      <g>
        <g>
          <g>
            <path class="cls-1" d="m126.48,97.76c-4.7,1.04-7.22,7.48-10.26,14.87s-6.6,19.52-3.48,21.05c4.09,2,9.57-9.83,11.31-12.87s3.48-7.05,3.48-7.05c0,0-1.22,18-.17,20.09s30.36.87,31.31.26-.26-21.05-.26-21.05c0,0,8.61,21.57,13.66,20.88s-.26-15.13-2.44-21.57-4.44-12.96-9.92-14.61-28.53-1.04-33.23,0Z"/>
            <path class="cls-1" d="m136.99,91.13c7.15,3.03,15.52-.86,18.61-7.92,3.36-7.67-2.06-16.25-9.82-17.92-7.53-1.63-15.75,3.24-16.87,11.11-.51,3.56.29,7.19,2.41,10.06,1.39,2.02,3.34,3.67,5.67,4.67Z"/>
          </g>
          <path class="cls-3" d="m130.9,134.89c4.22.12,7.98.18,12.07.3,2.59.07,14.36.02,15.57-.25.78-.17,1.09-1.03.23-1.45-1.36-.67-25.97-.4-31.45-.03-.73.05-.73.74-.33,1.05s2.72.35,3.9.39Z"/>
        </g>
        <g>
          <path class="cls-1" d="m93.85,91.13c7.15,3.03,15.52-.86,18.61-7.92,3.36-7.67-2.06-16.25-9.82-17.92-7.53-1.63-15.75,3.24-16.87,11.11-.51,3.56.29,7.19,2.41,10.06,1.39,2.02,3.34,3.67,5.67,4.67Z"/>
          <path class="cls-1" d="m112.35,111.05l.26-.63c1.8-4.38,3.55-8.63,5.91-11.78-.61-.36-1.26-.66-1.96-.87-5.48-1.65-28.53-1.04-33.23,0-4.7,1.04-7.22,7.48-10.26,14.87-3.04,7.39-6.6,19.52-3.48,21.05,4.09,2,9.57-9.83,11.31-12.87,1.74-3.04,3.48-7.05,3.48-7.05,0,0-1.22,18-.17,20.09.72,1.45,15.05,1.31,24.08.88-2.47-5.18.62-15.31,4.07-23.69Z"/>
          <path class="cls-3" d="m107.72,133.09c-8.1-.08-19.94.12-23.54.36-.73.05-.73.74-.33,1.05.4.31,2.72.35,3.9.39,4.22.12,7.98.18,12.07.3,1.34.04,5.16.04,8.69,0-.35-.62-.61-1.32-.8-2.09Z"/>
        </g>
        <g>
          <path class="cls-1" d="m51.05,91.13c7.15,3.03,15.52-.86,18.61-7.92,3.36-7.67-2.06-16.25-9.82-17.92-7.53-1.63-15.75,3.24-16.87,11.11-.51,3.56.29,7.19,2.41,10.06,1.39,2.02,3.34,3.67,5.67,4.67Z"/>
          <path class="cls-1" d="m69.56,111.05l.26-.63c1.8-4.38,3.55-8.63,5.91-11.78-.61-.36-1.26-.66-1.96-.87-5.48-1.65-28.53-1.04-33.23,0-4.7,1.04-7.22,7.48-10.26,14.87-3.04,7.39-6.6,19.52-3.48,21.05,4.09,2,9.57-9.83,11.31-12.87,1.74-3.04,3.48-7.05,3.48-7.05,0,0-1.22,18-.17,20.09.72,1.45,15.05,1.31,24.08.88-2.47-5.18.62-15.31,4.07-23.69Z"/>
          <path class="cls-3" d="m64.93,133.09c-8.1-.08-19.94.12-23.54.36-.73.05-.73.74-.33,1.05.4.31,2.72.35,3.9.39,4.22.12,7.98.18,12.07.3,1.34.04,5.16.04,8.69,0-.35-.62-.61-1.32-.8-2.09Z"/>
        </g>
      </g>
      <rect class="cls-2" width="200" height="200"/>
    </g>
  </g>
</svg>