<?xml version="1.0" encoding="UTF-8"?>
<svg id="Capa_2" data-name="Capa 2" xmlns="http://www.w3.org/2000/svg" viewBox="0 0 200 200">
  <defs>
    <style>
      .cls-1 {
        fill: #c46127;
      }

      .cls-1, .cls-2, .cls-3 {
        stroke-width: 0px;
      }

      .cls-2 {
        fill: none;
      }

      .cls-3 {
        fill: #593737;
      }
    </style>
  </defs>
  <g id="colorful_icons" data-name="colorful icons">
    <g>
      <g>
        <g>
          <g>
            <g>
              <path class="cls-1" d="m147.97,97.91c-4.68,1.04-7.2,7.46-10.23,14.82-3.03,7.37-6.58,19.46-3.47,20.98,4.07,1.99,9.54-9.8,11.27-12.83,1.73-3.03,3.47-7.02,3.47-7.02,0,0-1.21,17.94-.17,20.02s30.25.87,31.21.26-.26-20.98-.26-20.98c0,0,8.58,21.5,13.61,20.8s-.26-15.08-2.43-21.5c-2.17-6.41-4.42-12.92-9.88-14.56s-28.43-1.04-33.11,0Z"/>
              <path class="cls-1" d="m158.45,91.3c7.13,3.02,15.47-.86,18.54-7.89,3.34-7.65-2.05-16.19-9.78-17.86-7.51-1.62-15.69,3.23-16.81,11.07-.51,3.54.29,7.16,2.4,10.03,1.39,2.01,3.33,3.66,5.65,4.65Z"/>
            </g>
            <path class="cls-3" d="m152.38,134.91c4.2.12,7.96.18,12.03.29,2.58.07,14.32.02,15.52-.25.78-.17,1.09-1.03.23-1.44-1.36-.66-25.89-.4-31.35-.03-.73.05-.73.73-.33,1.05s2.71.35,3.89.39Z"/>
          </g>
          <g>
            <path class="cls-1" d="m115.45,91.3c7.13,3.02,15.47-.86,18.54-7.89,3.34-7.65-2.05-16.19-9.78-17.86-7.51-1.62-15.69,3.23-16.81,11.07-.51,3.54.29,7.16,2.4,10.03,1.39,2.01,3.33,3.66,5.65,4.65Z"/>
            <path class="cls-1" d="m133.9,111.15l.26-.63c1.8-4.37,3.54-8.6,5.89-11.74-.6-.36-1.25-.66-1.95-.87-5.46-1.65-28.43-1.04-33.11,0-4.68,1.04-7.2,7.46-10.23,14.82-3.03,7.37-6.58,19.46-3.47,20.98,4.07,1.99,9.54-9.8,11.27-12.83,1.73-3.03,3.47-7.02,3.47-7.02,0,0-1.21,17.94-.17,20.02.72,1.44,15,1.3,24,.88-2.46-5.17.62-15.26,4.05-23.61Z"/>
            <path class="cls-3" d="m129.28,133.12c-8.07-.08-19.88.11-23.46.36-.73.05-.73.73-.33,1.05.4.31,2.71.35,3.89.39,4.2.12,7.96.18,12.03.29,1.34.04,5.14.04,8.66,0-.35-.62-.61-1.32-.79-2.08Z"/>
          </g>
          <g>
            <path class="cls-1" d="m72.8,91.3c7.13,3.02,15.47-.86,18.54-7.89,3.34-7.65-2.05-16.19-9.78-17.86-7.51-1.62-15.69,3.23-16.81,11.07-.51,3.54.29,7.16,2.4,10.03,1.39,2.01,3.33,3.66,5.65,4.65Z"/>
            <path class="cls-1" d="m91.25,111.15l.26-.63c1.8-4.37,3.54-8.6,5.89-11.74-.6-.36-1.25-.66-1.95-.87-5.46-1.65-28.43-1.04-33.11,0-4.68,1.04-7.2,7.46-10.23,14.82-3.03,7.37-6.58,19.46-3.47,20.98,4.07,1.99,9.54-9.8,11.27-12.83,1.73-3.03,3.47-7.02,3.47-7.02,0,0-1.21,17.94-.17,20.02.72,1.44,15,1.3,24,.88-2.46-5.17.62-15.26,4.05-23.61Z"/>
            <path class="cls-3" d="m86.63,133.12c-8.07-.08-19.88.11-23.46.36-.73.05-.73.73-.33,1.05.4.31,2.71.35,3.89.39,4.2.12,7.96.18,12.03.29,1.34.04,5.14.04,8.66,0-.35-.62-.61-1.32-.79-2.08Z"/>
          </g>
        </g>
        <g>
          <path class="cls-1" d="m30.15,91.3c7.13,3.02,15.47-.86,18.54-7.89,3.34-7.65-2.05-16.19-9.78-17.86-7.51-1.62-15.69,3.23-16.81,11.07-.51,3.54.29,7.16,2.4,10.03,1.39,2.01,3.33,3.66,5.65,4.65Z"/>
          <path class="cls-1" d="m48.6,111.15l.26-.63c1.8-4.37,3.54-8.6,5.89-11.74-.6-.36-1.25-.66-1.95-.87-5.46-1.65-28.43-1.04-33.11,0-4.68,1.04-7.2,7.46-10.23,14.82-3.03,7.37-6.58,19.46-3.47,20.98,4.07,1.99,9.54-9.8,11.27-12.83,1.73-3.03,3.47-7.02,3.47-7.02,0,0-1.21,17.94-.17,20.02.72,1.44,15,1.3,24,.88-2.46-5.17.62-15.26,4.05-23.61Z"/>
          <path class="cls-3" d="m43.98,133.12c-8.07-.08-19.88.11-23.46.36-.73.05-.73.73-.33,1.05.4.31,2.71.35,3.89.39,4.2.12,7.96.18,12.03.29,1.34.04,5.14.04,8.66,0-.35-.62-.61-1.32-.79-2.08Z"/>
        </g>
      </g>
      <rect class="cls-2" width="200" height="200"/>
    </g>
  </g>
</svg>