<?xml version="1.0" encoding="UTF-8"?>
<svg id="Capa_2" xmlns="http://www.w3.org/2000/svg" viewBox="0 0 243.3 243.3">
  <defs>
    <style>
      .cls-1 {
        fill: #5a992f;
      }

      .cls-2 {
        fill: #fff;
      }

      .cls-3 {
        fill: none;
      }

      .cls-4 {
        fill: #fbe0a5;
      }

      .cls-5 {
        fill: #fe9736;
      }

      .cls-6 {
        fill: #4f3535;
      }
    </style>
  </defs>
  <g id="grocery_icons">
    <g>
      <rect class="cls-3" width="243.3" height="243.3"/>
      <g>
        <g>
          <path class="cls-5" d="M191.11,97.3c-.33,21.04-.96,53.22-1.61,77.85-.52,19.59-1.07,34.4-1.5,35.03-1.31,1.87-34.82,8.89-37.82,9.26-3,.38-93.14-3.27-93.52-4.77,0,0-.06-15.01-.1-35.04-.03-23.66-.04-54.35.08-75.61.09-14.22.24-24.23.49-25.07.93-3.18,17.33-26.19,17.84-28.07s-4.25-19.17,11.7-22.32c15.96-3.15,78.67-2.4,82.79,2.84,4.12,5.24,3.42,20.71,3.42,20.71,0,0,18.31,18.8,18.49,23.47.04,1.14-.06,9.58-.24,21.73Z"/>
          <path class="cls-1" d="M130.94,58.25c.14-.42.56-10.39-3.37-12.64-3.93-2.25-16.57-2.95-23.17-1.12-6.6,1.83-8.85,6.74-9.55,11.93-.7,5.2,1.54,12.64,4.77,14.32,3.23,1.68,17.13,1.68,22.89,0,5.76-1.68,7.16-3.37,7.86-6.04.7-2.67.56-6.46.56-6.46Z"/>
        </g>
        <path class="cls-4" d="M191.11,97.3c-.33,21.04-.96,53.22-1.61,77.85l-37.88,9.19-95.05-4.72c-.03-23.66-.04-54.35.08-75.61l96.45,2.62,38.02-9.33Z"/>
        <path class="cls-2" d="M107.12,68.31c-.16-1.58-.59-3.12-.84-4.69-.24-1.49-.29-3.09-1.22-4.34-.55-.74-1.64-1.08-2.36-.3-2.58,2.77-1.03,8.1,1.04,10.74,1.03,1.32,3.54.24,3.38-1.4h0Z"/>
        <path class="cls-2" d="M113.62,67.61c-.43-2.03-.97-4-1.94-5.85-.87-1.66-3.07-.69-3.23.87-.21,2.11.1,4.19.46,6.27.22,1.3,1.82,2.03,3,1.7,1.33-.37,1.98-1.71,1.7-3h0Z"/>
        <path class="cls-2" d="M118.66,52.86c.19-.12.41-.23.55-.41.19-.18.33-.4.41-.64.13-.24.18-.49.17-.77l-.07-.53c-.09-.34-.27-.63-.51-.88-.14-.18-.36-.29-.55-.41-.64-.39-1.49-.38-2.13,0-.64.38-1.04,1.08-1.04,1.82s.4,1.45,1.04,1.82c.64.38,1.49.39,2.13,0h0Z"/>
        <path class="cls-2" d="M60.5,142.64c-.61,3.38.11,6.87.07,10.27-.02,1.66,2.31,2.29,3.13.85,1.95-3.42,3-8.13.5-11.6-.91-1.26-3.37-1.4-3.71.48h0Z"/>
        <path class="cls-2" d="M60.18,162.05c.14.79.34,1.72.79,2.4.59.9,1.83.9,2.42,0,.45-.68.65-1.61.79-2.4.13-.72.04-1.49-.53-2.02-.41-.37-.91-.61-1.47-.61-.53,0-1.09.23-1.47.61-.56.56-.67,1.27-.53,2.02h0Z"/>
        <path class="cls-2" d="M157.94,166.72c.42,2.1.44,4.2.54,6.33.07,1.52,2.26,1.51,2.78.31.99-2.29,1.01-4.84.55-7.25-.47-2.48-4.37-1.86-3.87.62h0Z"/>
        <path class="cls-6" d="M190.73,74.08c-4.95-.88-11.4,1.66-16.23,2.73-5.87,1.3-11.78,2.56-17.61,4.09.76-1.31,1.4-2.71,2.13-4.05,1.5-2.77,3.01-5.54,4.57-8.28,3.09-5.44,6.82-10.71,9.27-16.48.44-1.03-.43-2.24-1.38-2.12-.12-.75-.66-1.43-1.65-1.46-12.83-.28-25.69-.11-38.54-.1-.08-.2-.14-.4-.24-.61-1.53-3.24-5.63-4.26-8.84-4.8-6.73-1.15-20.77-1.24-26.21,5.19-6.36-.15-12.92-.52-19.13.48-1.04.17-1.04,1.93,0,2.1,5.65.91,11.59.69,17.39.61-.08.25-.19.48-.25.75-.11.49-.15.95-.15,1.39-.1.14-.18.31-.19.53-.15,4.6-.03,12.65,3.24,16.43,3.27,3.79,11.16,3.44,15.69,3.47,5.73.04,12.21-.91,16.83-4.59,1.82-1.45,2.35-2.88,2.58-5.17.38-3.69.62-7.91.13-11.57-.05-.35-.23-.65-.46-.89,12.56.23,25.15.58,37.69.32-3.58,4.44-6.37,9.61-9.17,14.53-2.43,4.27-6.36,9.46-7.56,14.47-.19.14-.36.32-.45.56-15.36-.88-30.74-1.2-46.12-1.68-9.39-.29-18.77-.59-28.16-.82-6.46-.16-13.04-.62-19.49-.08-1.78.15-1.78,2.62,0,2.77,15.77,1.35,31.83,1.05,47.65,1.53,15.31.47,30.77,1.49,46.09.74.13,4.26-.24,8.63-.37,12.86-.31,10.44-.55,20.87-.83,31.31-.63,23.43-1.31,46.86-1.71,70.29-.1,5.86-.01,14.74.06,20.6.02,1.63,2.56,1.64,2.54,0-.06-4.86.38-12.8.65-17.65.58-10.42.74-20.88,1.03-31.31.65-23.42,1.42-46.86,1.72-70.29.07-5.02.43-10.21.2-15.28,6.44-1.26,12.8-2.95,19.19-4.42,2.85-.66,5.71-1.3,8.57-1.92,2.57-.55,5.52-.73,7.79-2.11.78-.47.74-1.92-.27-2.1ZM99.67,49.29c6.11-4.61,17.23-4.4,24.31-2.62,1.16.29,3.29.67,4.03,1.79,2.56,3.94-2.11,5.78-4.51,6.61-3.43,1.19-7.09,1.9-10.7,2.13-3.2.21-6.42.05-9.6-.41-1.1-.16-2.68-.21-3.68-.76-4.09-2.26-2.15-5,.15-6.74ZM127.37,65.81c-3.22,4.08-9.86,4.76-14.77,4.82-4.25.05-12.89.51-14.58-4.06-1.02-2.78-1.2-5.83-1.64-8.81,4.51,2.93,13.76,2.67,17.15,2.39,3.39-.28,11.31-1.52,15.51-4.74-.06,3.69.43,7.74-1.67,10.4Z"/>
        <g>
          <g>
            <path class="cls-5" d="M80.99,150.85c-.38-8.06,3.48-15.03,10.09-19.54,4.49-3.07,9.59-4.85,14.84-6.13,7.18-1.75,15.52.41,20.78,5.61,9.06,8.97,13.61,27.82-5.78,39.42-19.34,11.57-39.35-7.13-39.92-19.37Z"/>
            <path class="cls-6" d="M118.01,129.66h.05c.2,0,.38.05.56.14.18.1.32.24.43.42l.12.28c.05.19.05.39,0,.58-.03.15-.1.28-.2.39-.08.13-.19.23-.33.31-.18.1-.37.16-.57.16-.2,0-.38-.05-.56-.14l-.04-.02-.23-.17c-.12-.1-.2-.23-.25-.38-.05-.09-.08-.18-.08-.28-.03-.14-.03-.29.02-.43l.11-.27.17-.23c.1-.12.23-.2.38-.25.13-.07.28-.1.43-.1h0Z"/>
            <path class="cls-6" d="M113.75,132.99c-.08.05-.17.08-.27.09-.09.02-.18.02-.27-.01-.09-.02-.18-.06-.25-.12-.08-.05-.15-.12-.19-.21l-.08-.18c-.03-.12-.03-.24,0-.37l.07-.17c.06-.11.15-.2.26-.27.08-.05.17-.08.27-.09.09-.02.18-.02.27.01.09.02.18.06.25.12.08.05.15.12.19.21l.08.18c.03.12.03.24,0,.37l-.07.17c-.06.11-.15.2-.26.27h0Z"/>
            <path class="cls-6" d="M118.76,136.15c.01.06.02.1.03.17.03.13.02.25-.01.38-.02.09-.06.18-.11.26l.08-.68c.02.09.03.18.04.27l-.03-.22c.02.17.05.26,0,.44-.04.14-.11.27-.21.38-.06.06-.13.11-.2.16-.17.1-.28.11-.47.13l.46-.13h-.02c-.08.04-.16.08-.24.11-.13.04-.25.05-.38.02-.09,0-.17-.02-.24-.06-.12-.04-.23-.1-.32-.2-.01,0-.02-.02-.03-.03-.13-.13-.22-.28-.27-.46-.05-.17-.05-.34,0-.51.08-.25.23-.47.46-.61.12-.07.24-.11.37-.12.13-.03.25-.02.38.01.17.04.32.13.44.25.13.13.22.28.27.46h0Z"/>
          </g>
          <g>
            <path class="cls-2" d="M100.84,133.63s-2.53-9.79-2.58-14.05c-.06-4.27,1.59-7.43,3.16-7.6,1.57-.17,3-.24,2.31,1.69-.69,1.93-2.77,5.3-2.73,8.06.04,2.76.63,7.66,1.07,8.87s.9,2.4.9,2.4c0,0-1.61,1.29-2.13.63Z"/>
            <g>
              <path class="cls-1" d="M99.04,126.04s-.04-.1-.08-.15c-.03-.06-.07-.11-.11-.15-5.68-7.85-15.31-12.17-24.97-11.09-.49.05-.88.43-.74.96,1.49,5.9,3.22,11.84,9.19,14.53,5.46,2.46,11.95,1.46,16.9-1.72.34-.22.56-.65.44-1.06-.14-.46-.39-.89-.62-1.32Z"/>
              <path class="cls-6" d="M75.97,116.88c3.46,1.62,6.94,3.17,10.39,4.8-2.14,1-4.2,2.47-6.25,3.56-.5.27-.06,1.01.44.75,2.21-1.14,4.87-2.24,6.85-3.82,1.89.9,3.76,1.83,5.61,2.82-2.44,1.26-4.74,2.88-6.93,4.51-.39.29-.02.95.38.66,2.37-1.69,4.92-3.11,7.32-4.75.78.42,1.56.85,2.33,1.29.83.48,1.65.97,2.47,1.47.42,1.73.96,3.42,1.56,5.11-.47-.06-.93-.21-1.37-.46-.88-.5-1.63.81-.79,1.36,2.74,1.78,7.72.24,7.25-3.62-.1-.83-1.13-1.01-1.45-.2-.15.37-.3.73-.48,1.08-1.07-2.65-1.26-5.78-1.3-8.49-.03-1.8.12-3.45.7-5.17.47-1.4,1.54-2.41,2.03-3.79.53-1.47-.48-2.68-1.9-2.96-1.64-.31-3.19.7-4.05,2.03-1.81,2.78-1.25,6.99-1.02,10.11.09,1.31.3,2.6.57,3.88-.74-.47-1.48-.94-2.23-1.39-1.66-1.01-3.35-1.97-5.07-2.89-.83-2.01-1.86-4.09-3.13-5.83-.24-.33-.9-.15-.72.3.69,1.72,1.75,3.31,2.69,4.93-4.43-2.29-9.02-4.29-13.63-5.91-.35-.12-.6.45-.26.61ZM99.28,124.32c-.4-2.4-.61-6.21.1-8.93.36-1.37,1.28-2.97,2.9-2.96,1.93,0,.94,1.52.35,2.43-1.68,2.59-2.27,5.51-2.18,8.57.05,1.76.3,3.5.55,5.24.22,1.5.44,2.88,1.21,4.12-.07.05-.12.11-.21.15-.17.1-.35.17-.53.23-.91-2.92-1.69-5.8-2.19-8.84Z"/>
            </g>
          </g>
        </g>
        <path class="cls-5" d="M163.77,116.77c3.46-1.05,6.89-2.17,10.35-3.21,1.7-.51,3.41-1,5.12-1.46.89-.24,1.78-.46,2.66-.75.79-.26,1.67-.45,2.37-.9.53-.35.29-1.08-.31-1.14-.83-.09-1.72.16-2.54.32-.9.17-1.8.41-2.68.65-1.78.48-3.55.99-5.31,1.52-3.47,1.05-6.88,2.24-10.21,3.67-.74.32-.21,1.53.55,1.3h0Z"/>
        <path class="cls-5" d="M163.84,124.75c3.55-1.19,7.13-2.26,10.71-3.31,1.8-.53,3.61-1,5.41-1.51,1.45-.41,3.58-.68,4.72-1.74.23-.21.11-.6-.18-.68-1.5-.41-3.53.39-4.99.76-1.81.47-3.6,1.02-5.39,1.57-3.58,1.1-7.1,2.4-10.59,3.76-.7.27-.42,1.39.31,1.14h0Z"/>
        <path class="cls-5" d="M163.47,133.36c3.55-1.19,7.13-2.26,10.71-3.31,1.8-.53,3.61-1,5.41-1.51,1.45-.41,3.58-.68,4.72-1.74.23-.21.11-.6-.18-.68-1.5-.41-3.53.39-4.99.76-1.81.47-3.6,1.02-5.39,1.57-3.58,1.1-7.1,2.4-10.59,3.76-.7.27-.42,1.39.31,1.14h0Z"/>
        <path class="cls-5" d="M163.47,141.6c2.28-.73,4.58-1.4,6.86-2.11,1.12-.35,2.26-.66,3.38-1.03.54-.18,1.09-.35,1.62-.58.47-.2,1.06-.36,1.29-.86.09-.21.05-.42-.15-.55-.42-.29-.9-.16-1.37-.08-.58.09-1.15.25-1.72.4-1.18.32-2.33.73-3.49,1.11-2.28.76-4.51,1.65-6.74,2.56-.69.28-.43,1.38.31,1.14h0Z"/>
      </g>
    </g>
  </g>
</svg>