<?xml version="1.0" encoding="UTF-8"?>
<svg id="Capa_2" xmlns="http://www.w3.org/2000/svg" viewBox="0 0 243.3 243.3">
  <defs>
    <style>
      .cls-1 {
        fill: #fff;
      }

      .cls-2 {
        fill: none;
      }

      .cls-3 {
        fill: #a83c19;
      }

      .cls-4 {
        fill: #fbe0a5;
      }

      .cls-5 {
        fill: #b65b3e;
      }

      .cls-6 {
        fill: #fe9736;
      }

      .cls-7 {
        fill: #d8a797;
      }

      .cls-8 {
        fill: #4f3535;
      }
    </style>
  </defs>
  <g id="grocery_icons">
    <g>
      <rect class="cls-2" width="243.3" height="243.3"/>
      <g>
        <path class="cls-5" d="M164.57,187.53c.22,5.11.44,33.11-8.45,41.11-8.89,8-24,10-36.44,10.22-12.45.22-26.23-1.33-36.45-9.78-10.22-8.44-9.33-37.33-8.44-44.66.89-7.34,11.38-14.2,11.55-21.78.23-10-8.22-14.45-9.55-21.56-.11-.59-.21-1.47-.31-2.6-.92-10.96-1.02-45,.64-58.01.23-1.78.49-3.17.78-4.05,2.67-8,19.2-26.63,23.55-35.34,4.89-9.78,5.34-23.11,5.34-23.11,0,0,26.44-2.22,26.44,0s.45,15.33,6,25.33c5.56,10,20.67,28.45,23.78,36.45.14.37.28.82.41,1.34,2.37,9.68,1.7,43.63.76,55.79-.09,1.17-.19,2.14-.28,2.87-1.11,8.67-6.67,12.22-8.67,18-2,5.78.67,10.89,3.11,15.33,2.45,4.45,6,9.34,6.23,14.45Z"/>
        <g>
          <path class="cls-8" d="M119.55,6.05c-4.03-.07-10.14.3-13.47,2.06-3.41,1.8-1.97,11.89-1.68,12.54.65,1.44,3.65,4.3,15.53,4.3,13.1,0,14.78-3.37,15.16-4.3s.94-9.65-.74-11.52-7.85-2.95-14.79-3.07Z"/>
          <path class="cls-1" d="M105.6,10.54c2,1.3,4.72,1.89,7.04,2.34,2.45.47,4.94.69,7.43.64,2.42-.05,4.84-.36,7.2-.91,1.24-.29,2.47-.65,3.67-1.1,1.09-.41,2.36-.8,3.24-1.57.64-.55-.07-1.4-.75-1.29-1.09.19-2.13.81-3.18,1.17-1.07.37-2.16.7-3.26.97-2.34.57-4.73.88-7.13.93-2.33.05-4.67-.14-6.96-.59-2.32-.45-4.45-1.41-6.73-1.95-.83-.2-1.28.9-.57,1.36h0Z"/>
        </g>
        <path class="cls-6" d="M165,115.2c-.12,8.73-.45,16.89-.82,21.68-7.23,2.32-23.69,6.36-50.37,6.2-16.82-.1-29.17-2.36-37.33-4.6-.23-2.76-.41-6.96-.52-11.93-.18-7.95-.19-17.83.03-26.79.19-7.73.55-14.78,1.13-19.29,7.25,2.01,21.8,5.06,42.47,5.06,20.06-.01,36.59-2.93,43.83-4.44.19.78.36,1.71.52,2.78.99,6.98,1.21,19.66,1.06,31.33Z"/>
        <path class="cls-4" d="M165,115.2c-5.86,7.96-13.4,15.37-22.3,18.1-17.16,5.27-24.89-10.44-40.89-13.77-9.23-1.93-19.13,2.74-25.85,7.02-.18-7.95-.19-17.83.03-26.79,5.81-3.96,13.46-7.41,21.16-5.79,15.77,3.33,26.44,29.11,41.77,21.33,10.25-5.19,19.81-21.31,25.02-31.43.99,6.98,1.21,19.66,1.06,31.33Z"/>
        <path class="cls-8" d="M127.78,39.14c1.06.19,2.1.21,3.16.05s2.43-.49,2.81-1.62c.15-.43-.17-.9-.58-1.02-.15-.04-.29-.08-.45-.07-.3.04-.35.05-.16.02-.05,0-.1.01-.16.02-.29.03-.51.1-.78.19-.41.14-.81.27-1.23.36-.11.02-.22.05-.34.06-.04,0-.33.07-.05.01-.22.04-.46.05-.68.06-.43.02-.86,0-1.28-.05-.5-.06-.94.43-1,.88s.23,1.02.73,1.11h0Z"/>
        <path class="cls-8" d="M129.88,35.07l1.02-.55c.17-.09.32-.19.48-.3.21-.15.44-.3.6-.5.09-.11.17-.23.21-.37.05-.18.03-.37-.04-.54-.06-.14-.14-.24-.26-.33-.13-.1-.33-.2-.5-.18s-.33.03-.49.09l-.26.09c-.25.09-.49.19-.72.32l-1.04.56c-.21.11-.39.36-.45.59s-.04.55.1.76c.3.46.86.61,1.34.35h0Z"/>
        <path class="cls-8" d="M137.36,156.64c3.04.07,6.13,0,9.11-.66,2.88-.65,5.86-1.76,8.03-3.82.83-.79-.25-2.22-1.23-1.6-2.38,1.51-4.77,2.66-7.53,3.28s-5.56.89-8.38.98c-1.17.04-1.17,1.79,0,1.82h0Z"/>
        <path class="cls-8" d="M154.78,147.53l1.13-.68c.25-.15.46-.35.67-.53l.48-.42c.13-.12.2-.3.22-.47s0-.37-.1-.52c-.08-.12-.17-.22-.29-.29-.16-.1-.45-.15-.63-.08l-.6.23c-.27.1-.55.19-.79.34-.38.23-.75.45-1.13.68-.22.13-.4.36-.47.61s-.04.57.1.78.35.41.61.47.54.04.78-.1h0Z"/>
        <path class="cls-8" d="M147.15,228.34c1.51-.13,2.99-.44,4.39-1.01.72-.29,1.43-.62,2.11-1.01.37-.22.71-.46,1.04-.73s.6-.59.87-.94c.3-.39.16-1.1-.18-1.42-.41-.37-.92-.41-1.42-.18-.61.28-1.15.65-1.72.99-.28.17-.57.34-.87.49-.15.08-.3.15-.45.22-.08.04-.15.07-.23.1-.13.06-.15.07-.07.03.08-.03.06-.02-.07.03-.08.03-.15.06-.23.09-.16.06-.31.12-.47.17-.31.11-.63.2-.96.29s-.65.16-.97.22c-.16.03-.33.06-.49.08.26-.04-.23.03-.28.03-.66.07-1.31.54-1.27,1.27.03.64.56,1.33,1.27,1.27h0Z"/>
        <path class="cls-8" d="M150.77,221.47c.77-.22,1.51-.5,2.24-.82s1.43-.69,1.97-1.28c.29-.32.41-.84.16-1.23-.24-.36-.71-.61-1.15-.47-.98.33-1.86.91-2.81,1.32l.27-.11c-.42.17-.84.33-1.27.46-.55.17-.96.78-.77,1.36s.77.94,1.36.77h0Z"/>
        <path class="cls-3" d="M93.73,222.88c8.05-3.23,16.7-4.97,25.38-5.18,4.28-.1,8.57.17,12.79.85,2.17.35,4.33.79,6.46,1.32,2.11.53,4.21,1.39,6.37,1.7,1.13.16,1.93-1.27.82-1.94-1.93-1.17-4.33-1.71-6.49-2.28s-4.28-1.01-6.45-1.35c-4.46-.7-8.98-1.01-13.5-.88-9.05.25-17.88,2.26-26.19,5.85-1.08.47-.3,2.36.81,1.92h0Z"/>
        <path class="cls-7" d="M101.25,188.06c-.71,1.08-1.31,2.45-.83,3.74.21.57.59,1.09,1.13,1.4s1.18.36,1.79.22c1.2-.27,2.15-1.26,2.56-2.39.44-1.22-.06-2.55-1.11-3.28-1.16-.81-2.93-.51-3.61.78-.26.5.35.97.77.59.13-.11.3-.22.47-.31.13-.07.07-.04.21-.08.1-.03.2-.07.31-.09.06-.02.12-.03.19-.04.02,0,.12-.02.02,0,.11-.01.21-.02.32-.01.04,0,.09,0,.13,0-.13-.01.08.02.08.02.04,0,.08.02.12.03,0,0,.18.06.09.03.38.16.6.41.79.77,0,.02.06.14.03.06.02.04.03.08.04.12.03.1.06.21.07.31-.01-.1,0,.03,0,.06,0,.05,0,.11,0,.16,0,.12-.02.18-.05.31-.11.44-.35.8-.62,1.08-.07.07-.14.13-.21.2-.15.13.09-.05-.08.06-.04.02-.07.05-.11.07-.09.06-.18.11-.28.16-.04.02-.08.04-.11.06.1-.05-.09.03-.11.04-.09.03-.18.05-.27.07-.02,0-.21.03-.07.02-.04,0-.08,0-.12,0-.05,0-.1,0-.15,0-.03,0-.16-.01-.04,0-.11-.02-.22-.04-.32-.08s.12.07-.04-.02c-.04-.02-.07-.04-.11-.06,0,0-.17-.13-.07-.05-.03-.03-.06-.06-.09-.09-.04-.04-.07-.08-.11-.12-.07-.09.07.12-.03-.04-.03-.05-.06-.09-.08-.14-.01-.02-.1-.21-.06-.1-.19-.44-.23-.82-.13-1.27.13-.58.37-1.09.66-1.61.15-.27.06-.63-.21-.78s-.61-.05-.78.21h0Z"/>
        <path class="cls-7" d="M114.08,168.72c-.12.47.05.9.34,1.24.34.41.89.56,1.4.47.97-.18,1.64-1.15,1.9-2.04s.09-2.14-.89-2.59c-.88-.4-1.98-.11-2.59.63-.4.49-.59,1.09-.64,1.71-.03.31,0,.62.08.93.03.12.08.25.12.37.07.19.15.31.29.44.15.15.46.14.56-.07.04-.09.09-.18.12-.27.03-.12.03-.25.04-.37.02-.2.03-.41.05-.61,0-.09,0-.18.02-.27,0-.05,0-.09.01-.14-.02.16,0-.02,0-.04.02-.09.04-.18.06-.26,0-.03.02-.07.03-.1.01-.03.02-.07.04-.1-.03.06-.03.07-.01.03.04-.09.09-.18.14-.26,0,0,.04-.07.05-.07l-.05.06s.04-.04.06-.07c.05-.05.1-.1.16-.15.09-.09-.03.02-.03.02,0-.03.12-.08.14-.1.06-.04.13-.07.19-.11.11-.06-.04.02-.04.01,0-.01.11-.04.12-.04.07-.02.14-.04.21-.05.12-.03-.04.01-.05,0,.01.01.14,0,.17,0,.03,0,.05,0,.08,0,.14,0-.15-.04,0,0,.03,0,.05.01.08.02.14.04,0,.02,0,0,0,.03.18.07.18.1,0-.01-.1-.09-.01,0,.03.03.09.07.11.12-.06-.13-.03-.03,0,0,.02.03.04.07.05.1.07.12-.02-.09,0,0,0,.04.02.07.03.11s.02.07.03.11c.01.07.05.09,0,0,.03.06,0,.22,0,.28,0,.04,0,.08,0,.12,0,.1.03-.15,0,0-.02.08-.03.16-.05.24s-.04.15-.07.23c-.02.04-.03.09-.05.13.04-.1,0,0-.02.04-.07.15-.16.29-.25.43s.08-.08-.03.04c-.02.02-.04.05-.06.07-.03.04-.07.07-.1.1-.01.01-.13.11-.03.03-.08.06-.16.1-.24.15-.13.07.1-.02-.04.02-.05.01-.09.03-.14.04-.11.03.05.02,0,0-.04-.01-.11,0-.15,0,0,0-.15-.01-.06,0,.07,0-.09-.02-.1-.03-.03,0-.06-.02-.08-.03.1.03-.07-.03-.08-.04-.03-.01-.05-.03-.08-.04-.04-.03-.05-.03-.02,0-.02-.02-.04-.04-.06-.06-.06-.06-.09-.16-.07-.25.04-.19-.05-.4-.26-.45-.19-.05-.4.06-.45.26h0Z"/>
        <path class="cls-7" d="M96.28,175.77c.94.24,1.93-.2,2.46-1,.57-.85.36-1.94-.29-2.67-.69-.77-1.8-.95-2.7-.46-.87.47-1.37,1.55-1.13,2.52.14.54.49.99.93,1.31s1.09.55,1.6.24c.23-.14.28-.56,0-.68-.09-.04-.17-.08-.27-.11l-.04-.02c.08.03.05.02-.09-.04-.04-.01-.08-.01-.12-.02-.08-.02-.15-.04-.23-.07-.08-.03.1.06-.03-.01-.04-.02-.08-.04-.13-.07s-.08-.05-.12-.08c-.08-.05-.03-.02,0,0-.07-.06-.13-.12-.19-.18-.03-.03-.05-.06-.08-.09.06.07,0,0-.02-.03-.05-.07-.09-.15-.13-.23-.07-.13.02.09-.02-.05,0-.03-.02-.06-.03-.09-.01-.05-.02-.09-.03-.14-.03-.14,0,.06,0-.02,0-.08,0-.16,0-.24,0-.08-.03.11,0-.02.01-.05.02-.09.04-.14,0-.02.06-.16.01-.05.01-.03.03-.06.04-.09.04-.08.09-.15.14-.22s-.08.09.01-.02c.03-.03.05-.06.08-.09s.06-.06.09-.08.11-.09.03-.03c.07-.05.14-.1.22-.14.03-.02.07-.04.1-.06.13-.07-.07.02.01,0,.07-.03.15-.05.23-.07.04,0,.08-.02.12-.02-.14.02,0,0,.04,0,.05,0,.1,0,.14,0,.15,0-.07-.02.01,0,.08.02.15.03.23.06.03.01.12.05.01,0,.04.02.07.03.1.05.08.04.15.09.22.14-.11-.08.01.02.03.03.03.03.06.05.08.08s.05.06.08.09c.1.11-.03-.06.01.02.04.07.09.13.12.2.02.03.04.07.05.1-.06-.12.01.03.02.06.02.07.04.15.06.23.02.09,0-.13,0,.01,0,.04,0,.08,0,.12s0,.08,0,.12c0,.15.02-.07,0,.01s-.06.18-.07.27c-.02.08.06-.1,0,.02-.02.04-.04.08-.07.12s-.05.08-.08.11c.06-.09-.02.02-.03.04-.06.07-.13.13-.2.19-.11.1.08-.05-.04.03-.04.02-.08.05-.12.07-.03.02-.07.04-.1.06-.02.01-.04.02-.06.03.05-.02.05-.02,0,0-.09.03-.18.05-.26.08-.02,0-.1.02,0,0-.06,0-.12.01-.18.01-.03,0-.06,0-.09,0-.06,0-.06,0,0,0-.03,0-.06-.01-.09-.02-.26-.05-.52.07-.6.34-.07.25.08.53.34.6h0Z"/>
        <path class="cls-7" d="M131.57,60.56c-.15.99.2,2.03,1.07,2.58.79.5,1.99.39,2.63-.32.74-.82.76-2.24.18-3.16s-1.7-1.32-2.68-.97c-.59.21-1.07.67-1.27,1.27-.09.26-.15.51-.16.79,0,.15,0,.31.04.45s.11.26.22.35c0,0,.08.07.1.07.03,0-.08-.06,0,0,.27.21.6.13.73-.19,0,.01-.09.16-.05.08l.09-.12c.05-.09.08-.19.08-.3,0-.07,0-.15,0-.22v-.04c.01-.07,0-.06,0,.03,0-.01.02-.08.02-.09.02-.07.03-.2.08-.26l-.03.07s.03-.05.04-.08c.02-.03.11-.16,0,0,.04-.06.1-.12.13-.17l.03-.04c.04-.06.03-.05-.02.03,0-.02.14-.15.15-.16l.03-.03c.06-.05.05-.04-.03.02,0-.01.09-.06.11-.07.04-.02.08-.04.12-.06l.04-.02c.07-.03.05-.03-.04.02,0-.01.2-.06.21-.07h.04c.06-.02.06-.02,0-.01h-.05s.06,0,.09,0c.09,0,.18,0,.27,0,.15,0-.15-.04,0,0,.04.01.09.02.13.03.03,0,.06.02.09.03h.04c.07.04.06.04-.03,0,.04,0,.16.09.2.11l.04.02c.06.04.05.03-.02-.02,0,.02.09.08.1.09.03.03.07.07.1.1-.09-.11.01.03.03.04.05.07.09.15.12.23-.05-.11,0,0,0,.03.01.04.03.08.04.13.01.05.03.1.04.16,0,.02.03.19.01.05.03.19.03.39,0,.59.01-.12,0,0,0,.03,0,.04-.02.09-.03.13-.01.05-.03.1-.05.15-.05.15.05-.08-.03.05-.03.05-.05.09-.08.14-.08.14.08-.07-.02.03-.03.03-.19.17-.07.08-.06.04-.12.08-.18.11-.03.01-.16.06-.02.01-.04.01-.08.03-.12.04s-.08.02-.13.03c0,0-.15.02-.05.01s-.05,0-.06,0c-.04,0-.09,0-.13,0-.04,0-.07,0-.11,0-.09,0,.13.03,0,0-.09-.02-.17-.04-.25-.07-.13-.04.09.06-.03-.01-.04-.02-.08-.04-.11-.06-.04-.02-.08-.05-.12-.08.09.07-.05-.05-.07-.07-.02-.02-.04-.04-.07-.07-.01-.02-.13-.16-.07-.07-.05-.08-.1-.16-.15-.24-.02-.03-.04-.07-.05-.11-.01-.03-.01-.03,0,.01-.01-.03-.02-.06-.03-.09-.03-.09-.06-.18-.07-.27,0,0-.02-.16-.01-.06,0-.05,0-.09-.01-.14,0-.11,0-.22.01-.33.02-.23-.2-.44-.41-.47s-.49.1-.53.34h0Z"/>
        <path class="cls-7" d="M141.45,68.13c-.1.45-.04.89.17,1.3s.58.71,1.01.87c.4.15.88.15,1.29.03.46-.14.83-.43,1.12-.82.55-.73.56-1.74.13-2.52-.25-.45-.64-.77-1.12-.96s-1.01-.13-1.48.07-.82.61-.92,1.12l-.02.15c0-.09,0-.1,0-.04-.02.05-.03.1-.03.15-.02.12-.04.25-.03.38,0,.15.02.33.1.46.07.12.18.2.3.28.23.15.52,0,.6-.24.01-.04.02-.12,0,0,0-.05.05-.1.06-.15.03-.1,0-.19.01-.29,0-.03,0-.05,0-.08,0-.13-.02.08,0,0,.02-.07.05-.14.06-.21-.04.16-.13.19-.05.1.02-.02.04-.05.07-.07.02-.02.04-.03.06-.05.1-.09-.1.07-.02.02.06-.04.13-.09.18-.14.09-.07-.04.03-.04.03.02,0,.08-.05.1-.06l.04-.02c.07-.03.05-.03-.05.02.04,0,.14-.04.18-.05.07-.01.13,0-.05,0,.03,0,.06,0,.08,0,.07,0,.14,0,.21,0l-.12-.02.2.03c.15.02-.19-.04-.01,0,.06.01.12.03.19.05.15.04-.15-.09-.02,0,.02.01.05.03.07.04s.05.03.07.05l.03.02c-.13-.1-.11-.09.07.05-.01,0-.13-.12-.05-.03.03.03.06.06.09.09.02.02.06.08.08.1-.01,0-.1-.14-.03-.04.04.06.07.12.11.18.05.08-.04,0-.02-.05,0,.01.03.08.04.1.02.07.03.15.06.23-.05-.14-.01-.1,0-.03,0,.04,0,.07,0,.11,0,.03,0,.06,0,.09v.04c0,.06,0,.06,0,0v-.04s0,.06,0,.08c0,.03-.01.06-.02.08-.01.04-.02.08-.04.12v.04c-.04.06-.03.05,0-.03.01.03-.07.14-.09.17-.02.03-.04.06-.06.09-.07.1.02-.02.02-.02,0,.06-.14.1-.15.15,0-.04.09-.06.02-.02-.04.03-.08.05-.13.08-.02.01-.07.05-.1.05.06,0,.09-.03.03-.01s-.14.04-.21.06c-.12.03.03,0,.03,0-.02.02-.1,0-.13,0-.05,0-.17.02-.21,0h.08s-.06,0-.08,0c-.04-.01-.08-.02-.12-.04-.07-.02-.04.01.03.01-.03,0-.08-.04-.11-.06-.02-.01-.1-.05-.1-.07l.06.04s-.04-.04-.06-.05c-.03-.03-.14-.11-.14-.15l.04.06s-.03-.04-.05-.07c-.02-.03-.04-.07-.06-.1,0,0-.04-.06-.04-.07.03.08.04.08.01.02,0-.02-.01-.04-.02-.06,0-.03-.02-.07-.03-.1-.03-.11,0,.11,0,0,0-.03,0-.05,0-.08,0-.03.02-.21,0-.05.04-.28-.07-.6-.38-.68-.28-.06-.61.08-.68.38h0Z"/>
        <path class="cls-7" d="M131.94,73.94c-.36.97.4,1.96,1.26,2.32,1.01.41,2.2.11,2.84-.78.28-.4.43-.91.38-1.4-.06-.56-.32-1.06-.69-1.49-.32-.38-.76-.69-1.25-.81s-1.04-.09-1.52.12c-.52.23-.91.68-1.12,1.2-.12.29-.16.6-.13.91.02.19.06.35.13.52.05.11.08.23.13.34.07.16.19.27.38.25.15-.02.32-.17.3-.34,0-.09-.03-.2-.02-.29,0-.08.05-.16.06-.24.03-.16.07-.35.13-.54.02-.05.03-.1.04-.14,0,0,.04-.1.01-.03.04-.08.08-.15.13-.23.02-.03.13-.17.06-.1.06-.07.13-.14.2-.2s-.11.06.03-.02c.03-.02.06-.04.09-.06.04-.02.08-.04.11-.06.08-.04-.12.03.03-.01.03,0,.07-.02.1-.03,0,0,.16-.03.08-.02s.1,0,.09,0h.05c-.06-.01-.05-.01.01,0,.07.01.14.04.2.06.15.05-.08-.05.06.02.03.02.06.03.1.05.07.04.14.08.21.12.04.02.08.05.12.07.14.09-.08-.07.05.04s.24.22.35.35c-.06-.08.01.02.03.04.03.04.05.08.08.12.02.03.04.07.06.1,0,0,.08.17.04.07.04.09.06.18.08.27,0,.02.02.11,0,.01,0,.04,0,.07,0,.11,0,.04,0,.09,0,.13,0,.09.03-.13,0,.03-.02.09-.04.17-.07.25.04-.1,0,0-.02.03-.02.04-.04.08-.07.12-.02.03-.04.06-.06.09.06-.09,0,0-.03.03-.05.06-.11.11-.17.17.07-.06,0,0,0,0-.05.04-.11.07-.16.1-.23.13-.57.18-.81.14-.11-.02-.21-.04-.31-.08-.03-.01-.07-.02-.1-.04.09.04-.04-.02-.06-.03-.04-.02-.07-.04-.11-.07-.02-.01-.04-.03-.06-.04.04.03.03.02-.02-.01-.06-.06-.12-.12-.18-.18-.18-.2-.26-.45-.18-.7.07-.24-.09-.5-.32-.57-.26-.07-.48.09-.57.32h0Z"/>
        <path class="cls-1" d="M101.92,53.5c-2.7,1.21-4.79,3.81-6.58,6.09-1.68,2.14-3.77,4.57-3.85,7.41-.03,1.2,1.43,2.1,2.47,1.42,2.17-1.44,3.34-4.08,4.85-6.15,1.65-2.25,3.85-4.25,5.17-6.71.75-1.4-.72-2.65-2.05-2.05h0Z"/>
        <path class="cls-1" d="M87.64,74.77c-.46,1.16-1,2.36-.97,3.63.03,1.18,1.5,1.84,2.36.98,1-1,1.46-2.4,1.97-3.68.35-.87-.38-1.91-1.22-2.14-.99-.27-1.79.34-2.14,1.22h0Z"/>
        <path class="cls-1" d="M86.62,147.95c.05.15.1.3.16.44.06.17.13.36.23.52.05.07.1.14.15.21.2.28.41.49.74.63.31.13.68.18,1.01.08.25-.08.48-.22.68-.4.15-.14.26-.31.32-.5.1-.18.14-.38.13-.6.01-.09.03-.17.03-.26.02-.19-.04-.38-.06-.57-.02-.16-.05-.31-.07-.47-.06-.4-.46-.83-.79-1.03-.37-.22-.91-.31-1.32-.17s-.82.39-1.03.79-.33.89-.17,1.32h0Z"/>
        <path class="cls-1" d="M82.96,185.06c-1.8,2.55-2.38,5.43-2.36,8.52.02,3.4.24,7.41,1.24,10.65.55,1.79,3.07,1.78,3.63,0,.91-2.91.06-5.9-.25-8.87-.32-3.1-.21-6.02,1.01-8.92.83-1.98-2.18-2.91-3.26-1.38h0Z"/>
        <path class="cls-1" d="M82.84,212.87c.06.26.1.5.21.75.06.13.11.27.18.4.09.18.24.32.36.48.22.27.73.46,1.07.44.38-.02.83-.14,1.07-.44.13-.16.27-.3.36-.48.07-.13.12-.27.18-.4.1-.25.15-.49.21-.75.14-.65.03-1.37-.49-1.84-.37-.34-.82-.55-1.34-.55-.48,0-.99.21-1.34.55-.5.5-.63,1.17-.49,1.84h0Z"/>
        <path class="cls-1" d="M156.1,190.27c.07-.02.13-.03.2-.04-.26.03-.3.04-.12.03.07,0,.14,0,.2,0,.14.01.14.01,0,0-.14-.02-.15-.02-.01,0,.17.04.34.06.52.08.33,0,.65-.06.93-.24.56-.36.83-1,.67-1.66-.34-1.4-2.09-1.51-3.24-1.26-.82.18-1.38,1.18-1.12,1.97.27.84,1.1,1.34,1.97,1.12h0Z"/>
        <path class="cls-1" d="M156.08,197.53c.28-.02.56-.05.85-.05.57-.01,1.17-.41,1.31-1s-.09-1.23-.62-1.53c-.24-.14-.48-.29-.71-.44-.88-.58-2.12,0-2.38.97-.11.41-.05.89.16,1.25.27.46.85.85,1.4.8h0Z"/>
        <path class="cls-1" d="M158.28,93.08c.22-.17.45-.34.68-.49.28-.19.49-.41.62-.73s.18-.67.08-.99c-.08-.25-.21-.48-.39-.67-.28-.31-.68-.4-1.07-.44-.11-.01-.22-.02-.33-.04l.43.06-.46-.07c-.33-.09-.65-.09-.98,0-.31.09-.58.25-.81.47-.42.42-.58.97-.51,1.55s.38,1.05.88,1.35c.29.17.6.25.93.25.33,0,.64-.09.93-.25h0Z"/>
        <path class="cls-1" d="M159.26,103.4c1.99,0,1.99-3.09,0-3.09s-1.99,3.09,0,3.09h0Z"/>
        <path class="cls-8" d="M157.87,131.11l.41-.32c.14-.1.28-.2.42-.29l.22-.17c.1-.1.18-.21.22-.34.05-.08.07-.17.07-.27.03-.14.03-.28-.02-.42l-.11-.25-.17-.22c-.1-.1-.21-.18-.34-.22-.13-.07-.26-.1-.41-.09-.17,0-.33.02-.5.01h-.5c-.25-.01-.48.05-.7.18-.21.12-.38.29-.5.5l-.14.33c-.07.25-.07.49,0,.74.04.18.13.34.25.47.1.15.23.27.39.36.22.13.45.19.7.19.25,0,.48-.06.7-.19h0Z"/>
        <path class="cls-8" d="M80.82,129.24h2.19c.17,0,.34,0,.51-.02.19-.03.34-.08.51-.15.26-.1.47-.22.65-.45.16-.21.28-.48.27-.76,0-.22-.07-.43-.17-.63-.16-.3-.45-.46-.75-.57-.11-.04-.22-.09-.33-.12-.21-.07-.45-.05-.67-.05h-2.22c-.35,0-.72.15-.98.4s-.42.63-.4.98.13.73.4.98.6.4.98.4h0Z"/>
        <path class="cls-8" d="M80.82,118.92c1.79,0,1.79-2.78,0-2.78s-1.79,2.78,0,2.78h0Z"/>
        <path class="cls-8" d="M81.15,101.57c1.77,0,1.78-2.76,0-2.76s-1.78,2.76,0,2.76h0Z"/>
      </g>
    </g>
  </g>
</svg>