<?xml version="1.0" encoding="UTF-8"?>
<svg id="Capa_2" xmlns="http://www.w3.org/2000/svg" viewBox="0 0 243.3 243.3">
  <defs>
    <style>
      .cls-1 {
        fill: #fff;
      }

      .cls-2 {
        fill: #4286bd;
      }

      .cls-3 {
        fill: none;
      }

      .cls-4 {
        fill: #d5e4f0;
      }

      .cls-5 {
        fill: #4f3535;
      }

      .cls-6 {
        fill: #a1c2de;
      }
    </style>
  </defs>
  <g id="grocery_icons">
    <g>
      <rect class="cls-3" width="243.3" height="243.3"/>
      <g>
        <g>
          <path class="cls-6" d="M165.56,178.71c.98-1.06,1.86-2.22,2.58-3.46,1.24-2.15,2.08-4.64,2.05-7.15-.02-2.58-1.04-5.14-2.5-7.24-1.05-1.52-2.51-3.15-4.16-4.37.75-.61,1.44-1.36,2.03-2.01.98-1.05,1.86-2.21,2.58-3.45,1.24-2.15,2.08-4.64,2.05-7.15-.02-2.58-1.04-5.14-2.5-7.24-1.35-1.95-3.36-4.08-5.6-5.28,2.21-2.94,4.57-5.81,5.72-9.37.34-1.06.61-2.14.83-3.23h0c.3-1.58.49-3.18.6-4.79.02-.31.05-.62.06-.93.1-1.44.15-2.89.19-4.31.28-9.71.09-19.43.03-29.15-.02-4.96-.01-9.91.11-14.86.08-2.9.14-5.8-.02-8.69-.08-1.48-.22-2.95-.44-4.42-.04-.22-.07-.45-.11-.67-.66-3.9-2.06-7.76-4.44-10.94-2.47-3.32-5.69-5.28-9.48-6.8-4.47-1.81-8.72-3.85-12.53-6.85-3.01-2.37-8.5-6.61-6.92-11.05.32-.88-.5-1.8-1.37-1.8-6.26,0-12.52,0-18.78-.01-.88,0-1.7.93-1.39,1.82,1.42,3.98-2.94,7.64-5.62,9.92-3.21,2.73-6.86,4.97-10.74,6.62-3.85,1.65-7.78,2.86-10.82,5.89-2.7,2.68-4.51,6.16-5.59,9.78-.46,1.54-.78,3.12-1.01,4.71-.12.88-.21,1.78-.28,2.67-.17,2.14-.2,4.31-.19,6.45v.03c.02,4.75.1,9.49.09,14.23-.01,9.83-.32,19.66-.1,29.48.05,2.19.09,4.41.22,6.62.06,1.19.16,2.39.29,3.57.17,1.59.42,3.17.78,4.73.02.11.04.21.07.32,1.04,4.33,3.62,7.71,6.12,11.25-2.03,1.2-3.84,3.14-5.1,4.91-1.52,2.13-2.58,4.75-2.61,7.39-.02,2.45.78,4.88,1.97,7,.71,1.24,1.58,2.41,2.53,3.46.62.69,1.36,1.5,2.17,2.15-1.61,1.18-3.02,2.76-4.06,4.22-1.52,2.13-2.58,4.75-2.61,7.39-.02,2.45.78,4.89,1.97,7,.71,1.25,1.58,2.41,2.53,3.47.59.64,1.27,1.4,2.03,2.03-1.55,1.17-2.91,2.69-3.92,4.11-1.52,2.13-2.58,4.75-2.61,7.39-.02,2.45.78,4.89,1.97,7,.71,1.25,1.58,2.41,2.53,3.47.22.23.44.48.68.74-.99.93-1.87,1.97-2.57,2.96-1.52,2.13-2.58,4.75-2.61,7.39-.17,16.23,23.65,21.39,35.69,22.71,12.28,1.34,25.01-.04,36.66-4.15,7.91-2.79,18.29-8.76,18.18-18.57-.02-2.57-1.04-5.14-2.5-7.24-.72-1.04-1.64-2.13-2.68-3.11.19-.2.38-.4.55-.59.98-1.06,1.86-2.22,2.58-3.46,1.24-2.15,2.08-4.64,2.05-7.15-.02-2.58-1.04-5.14-2.5-7.24-1.02-1.47-2.42-3.06-4.02-4.27.7-.59,1.34-1.28,1.89-1.88Z"/>
          <g>
            <path class="cls-5" d="M124.43,3.62c-3.77-.07-9.5.28-12.62,1.93-3.19,1.69-1.85,11.14-1.58,11.75.61,1.35,3.42,4.02,14.55,4.03,12.27,0,13.85-3.16,14.2-4.03s.88-9.04-.69-10.8-7.35-2.76-13.86-2.88Z"/>
            <path class="cls-1" d="M111.36,7.83c1.87,1.22,4.43,1.77,6.59,2.19,2.29.44,4.63.65,6.96.6s4.54-.34,6.74-.85c1.17-.27,2.31-.61,3.43-1.03,1.02-.38,2.21-.75,3.04-1.47.6-.52-.06-1.32-.7-1.21-1.02.17-2,.76-2.98,1.1s-2.02.66-3.05.91c-2.19.54-4.43.83-6.68.87-2.19.05-4.37-.13-6.52-.55s-4.17-1.32-6.3-1.83c-.78-.19-1.2.84-.54,1.27h0Z"/>
          </g>
          <path class="cls-4" d="M87.19,205.09c9.03,4.68,19.14,7.13,29.22,8.19,10.09,1.07,20.49.26,30.34-2.13,2.85-.69,5.67-1.52,8.44-2.47s5.63-1.89,8.04-3.5c1.09-.73.41-2.41-.89-2.11-2.44.55-4.77,1.57-7.13,2.38s-4.75,1.54-7.16,2.18c-4.79,1.26-9.66,2.24-14.59,2.78-9.7,1.05-19.61.68-29.11-1.6-5.53-1.33-10.89-3.28-16.11-5.52-1.19-.51-2.26,1.16-1.05,1.79h0Z"/>
          <path class="cls-4" d="M87.19,182.2c9.03,4.68,19.14,7.13,29.22,8.19,10.09,1.07,20.49.26,30.34-2.13,2.85-.69,5.67-1.52,8.44-2.47,2.73-.93,5.63-1.89,8.04-3.5,1.09-.73.41-2.41-.89-2.11-2.44.55-4.77,1.57-7.13,2.38s-4.75,1.54-7.16,2.18c-4.79,1.26-9.66,2.24-14.59,2.78-9.7,1.05-19.61.68-29.11-1.6-5.53-1.33-10.89-3.28-16.11-5.52-1.19-.51-2.26,1.16-1.05,1.79h0Z"/>
          <path class="cls-4" d="M87.19,157.98c9.03,4.68,19.14,7.13,29.22,8.19,10.09,1.07,20.49.26,30.34-2.13,2.85-.69,5.67-1.52,8.44-2.47s5.63-1.89,8.04-3.5c1.09-.73.41-2.41-.89-2.11-2.44.55-4.77,1.57-7.13,2.38-2.36.82-4.75,1.54-7.16,2.18-4.79,1.26-9.66,2.24-14.59,2.78-9.7,1.05-19.61.68-29.11-1.6-5.53-1.33-10.89-3.28-16.11-5.52-1.19-.51-2.26,1.16-1.05,1.79h0Z"/>
          <path class="cls-4" d="M87.19,132.87c9.03,4.68,19.14,7.13,29.22,8.19,10.09,1.07,20.49.26,30.34-2.13,2.85-.69,5.67-1.52,8.44-2.47s5.63-1.89,8.04-3.5c1.09-.73.41-2.41-.89-2.11-2.44.55-4.77,1.57-7.13,2.38-2.36.82-4.75,1.54-7.16,2.18-4.79,1.26-9.66,2.24-14.59,2.78-9.7,1.05-19.61.68-29.11-1.6-5.53-1.33-10.89-3.28-16.11-5.52-1.19-.51-2.26,1.16-1.05,1.79h0Z"/>
          <path class="cls-1" d="M90.47,43.42c7.19,3.96,15.18,6.63,23.32,7.75,4.1.56,8.25.75,12.38.53s8.41-.5,12.07-2.33c1.21-.6.61-2.53-.68-2.5-3.96.08-7.86,1.14-11.82,1.42s-7.7.18-11.53-.22c-7.87-.82-15.47-3.1-22.49-6.77-1.41-.74-2.65,1.37-1.25,2.14h0Z"/>
          <path class="cls-1" d="M152.18,46.28c.98-.19,1.94-.48,2.86-.86.53-.22,1.1-.44,1.59-.76.27-.18.57-.36.8-.58.17-.17.33-.37.48-.55.3-.36.44-.88.17-1.3-.25-.39-.74-.63-1.21-.49-.23.07-.46.12-.69.19-.31.09-.6.32-.91.39.26-.11.21-.09-.17.07-.06.03-.11.05-.17.08-.08.04-.17.08-.25.12-.11.05-.23.11-.34.16-.08.04-.44.25-.1.05-.21.12-.47.19-.7.27-.21.07-.41.14-.62.21-.48.15-.96.27-1.45.37-.7.14-1.17,1.01-.95,1.68.24.75.93,1.1,1.68.95h0Z"/>
          <path class="cls-2" d="M169.52,79.58c.06,9.72.25,19.44-.03,29.15-.04,1.42-.09,2.87-.19,4.31-7.9,3.42-24.14,10.06-46.95,9.55-19.85-.44-33.63-6.74-42.24-10.88-.13-2.21-.17-4.43-.22-6.62-.22-9.82.09-19.65.1-29.48.01-4.74-.07-9.48-.09-14.23v-.03c-.01-2.14.02-4.31.19-6.45.07-.89.16-1.79.28-2.67,7.54,4.3,22.67,10.45,46.64,9.56,23.95-.89,36.43-6.47,42.16-10.18.22,1.47.36,2.94.44,4.42.16,2.89.1,5.79.02,8.69-.12,4.95-.13,9.9-.11,14.86Z"/>
        </g>
        <g>
          <path class="cls-4" d="M137.71,92.1c-1.17-4.3-2.83-8.49-4.88-12.45-1.01-1.94-2.12-3.82-3.33-5.64-1.23-1.85-2.51-3.84-4.18-5.32-1.27-1.12-11.21,13.89-13.45,20.95-2.2,6.95-3.53,15.66,2.39,21.16,4.77,4.44,12.84,6.25,18.52,2.42,6.97-4.7,6.91-13.86,4.94-21.13Z"/>
          <path class="cls-1" d="M114.55,91.23c-1.02,2.72-2.01,5.42-1.73,8.39.15,1.56.52,3.03,1.27,4.42.67,1.25,1.61,2.66,2.87,3.35.73.41,1.68.31,2.28-.29.64-.64.63-1.5.29-2.28-.47-1.09-1.31-1.81-1.87-2.87-.43-.83-.78-2.01-.85-2.97-.19-2.43.08-4.98.4-7.39.09-.66-.58-1.26-1.18-1.33-.71-.08-1.25.32-1.49.97h0Z"/>
          <path class="cls-1" d="M121.86,110.99l.27.1.07.02c.09.03.13.03.25.05.1.01.16.03.25.02h.07c.12-.02.24-.03.36-.05.18-.04.33-.12.46-.24.1-.06.18-.14.24-.24.12-.13.2-.29.24-.46l.05-.36-.05-.36c-.04-.18-.12-.33-.24-.46-.1-.15-.22-.26-.38-.35-.04-.03-.08-.05-.11-.08-.18-.11-.3-.13-.47-.17l-.28-.06c-.18-.06-.36-.07-.55-.02-.18,0-.35.06-.51.16-.16.09-.29.2-.38.35-.12.13-.2.29-.24.47l-.05.36c0,.25.06.48.19.69l.21.28c.17.17.37.29.6.35h0Z"/>
        </g>
      </g>
    </g>
  </g>
</svg>