<?xml version="1.0" encoding="UTF-8"?>
<svg id="Capa_2" xmlns="http://www.w3.org/2000/svg" viewBox="0 0 243.3 243.3">
  <defs>
    <style>
      .cls-1 {
        fill: #a36545;
      }

      .cls-2 {
        fill: #fff;
      }

      .cls-3 {
        fill: none;
      }

      .cls-4 {
        fill: #a83c19;
      }

      .cls-5 {
        fill: #e09d3e;
      }

      .cls-6 {
        fill: #4f3535;
      }

      .cls-7 {
        fill: #eaba78;
      }

      .cls-8 {
        fill: #847272;
      }
    </style>
  </defs>
  <g id="grocery_icons">
    <g>
      <rect class="cls-3" width="243.3" height="243.3"/>
      <g>
        <g>
          <path class="cls-5" d="M165.91,213.31c-.04.43-.1.85-.16,1.27-1.87,10.7-13.44,17.16-23.41,18.18-14.16,1.44-30.5,3.3-43.82-2.89-6.5-3.03-12.68-9.04-13.29-16.56-.65-7.96,7.54-24.32,8.61-27.33.03-.08.06-.19.09-.34.94-4.94,1.31-46.88-.32-57.77-.13-.85-.26-1.51-.42-1.95-2.15-6.24-4.74-12.91-2.58-21.31,2.15-8.39,7.96-14.42,8.18-16.79.07-.71,1.27-6.74,2.94-14.91,2.21-10.8,5.24-25.32,7.54-36.1,1.38-6.44,2.48-11.55,2.99-13.72,2.37.31,4.79.24,7.18.27,2.9.04,5.78.07,8.68.11,2.81.04,5.62.09,8.43.11h2.44c.54,2.34,1.56,7.02,2.8,12.83,2.29,10.77,5.36,25.42,7.59,36.34,1.69,8.24,2.91,14.36,2.97,15.06.21,2.36,6.03,8.4,8.18,16.79,2.15,8.4-.43,15.07-2.59,21.31-.15.46-.3,1.15-.44,2.05-1.59,10.94-1.23,51.93-.31,57.51h0c.03.22.07.39.11.49,1.08,3.01,9.25,19.37,8.61,27.33Z"/>
          <path class="cls-1" d="M95.4,218.83c7.11-5.37,15.77-7.35,24.51-7.97,8.78-.62,18.13-.74,26.63,1.84,2.06.62,4.06,1.41,5.97,2.42.96.51,1.88,1.07,2.78,1.68.93.62,1.73,1.42,2.87,1.58.99.14,1.93-.57,1.65-1.65-.49-1.9-2.72-3.09-4.32-4.03-1.88-1.1-3.89-1.98-5.93-2.72-4.05-1.46-8.27-2.21-12.56-2.39-5.14-.22-10.29-.07-15.41.4-4.76.44-9.55,1.05-14.15,2.41-4.83,1.43-9.36,3.66-13.32,6.79-.93.73.32,2.37,1.27,1.65h0Z"/>
          <path class="cls-6" d="M147.59,27.15c-1.58-2.06-2.92-4.28-4.13-6.6-.81-1.56-1.49-3.2-2.3-4.77-.78-1.52-1.99-2.52-3.58-3.14-2.29-.89-4.85-.89-7.27-1-4.18-.19-8.54-.22-12.69.42-3.66.55-6.57,2.24-8.31,5.58-.89,1.7-1.54,3.5-2.53,5.15-.52.87-1.09,1.72-1.72,2.52-.59.74-1.37,1.41-1.75,2.29-.62,1.46.16,2.88,1.49,3.57,1.36.7,2.91.61,4.38.4,2.67-.37,5.32-2.27,7.37-4.01.12.53.55,1.74.86,2.21.88,1.31,2.25,1.97,3.76,2.08,2.61.18,4.34-1.33,5.54-3.3,1.26,1.81,3.49,2.89,5.76,2.12,2-.68,2.37-2.29,2.8-3.74.43.49,1.78,3.17,6.5,4.17,1.35.29,3.01.13,4.27-.41.94-.4,1.88-1.22,1.96-2.4.03-.45-.17-.78-.43-1.13Z"/>
          <path class="cls-8" d="M113.37,16.17c3.6,1.89,8.36,2.39,12.37,2.39,2.06,0,4.11-.2,6.14-.57s4.51-.8,6.29-1.9c.83-.51.27-1.7-.64-1.52-1.92.38-3.76,1.23-5.7,1.63-2,.41-4.04.63-6.08.67-2.05.04-4.1-.1-6.12-.44s-3.82-1-5.75-1.44c-.68-.15-1.17.82-.5,1.18h0Z"/>
          <path class="cls-4" d="M149.38,72.76c-4.7,1.36-14.66,3.79-24.95,3.65-11.04-.15-18.86-2.21-22.69-3.5,2.21-10.8,5.24-25.32,7.54-36.1,3.32.68,7.62,2.14,16.66,1.93s12.7-1.51,15.85-2.33c2.29,10.77,5.36,25.42,7.59,36.34Z"/>
          <path class="cls-4" d="M157.5,127.98c-5.85,1.7-17.12,4.29-30.93,4.29-15.12,0-27.53-2.89-32.97-4.4,1.63,10.89,1.26,52.83.32,57.77,6.85,1.94,18.98,4.72,32.65,4.85,13.89.14,24.8-2.91,30.62-5h0s.31-57.52.31-57.52Z"/>
          <path class="cls-6" d="M148.82,97.02l1.02-.35c.17-.06.34-.12.51-.17.16-.05.3-.12.44-.21.03-.02.06-.04.1-.06.14-.08.25-.19.33-.33.03-.08.07-.16.1-.24l.03-.24c0-.12-.02-.24-.08-.35-.08-.18-.2-.33-.37-.43-.2-.12-.41-.15-.64-.13-.16.02-.33.03-.48.08l-.49.17-1,.35c-.24.09-.45.22-.59.45-.12.21-.18.52-.1.76s.22.47.45.59.51.18.76.1h0Z"/>
          <path class="cls-6" d="M149.82,104.24c.5,0,1.02-.05,1.49-.22.17-.06.35-.14.51-.21s.3-.19.44-.3c.16-.12.31-.26.44-.4.26-.28.36-.74.14-1.08-.08-.13-.19-.24-.32-.32-.18-.11-.49-.16-.69-.09-.22.08-.45.13-.69.17s-.47.12-.71.16l.3-.04c-.18.02-.36.05-.53.07l.3-.04c-.23.03-.47.04-.7.03-.28-.01-.61.14-.81.33s-.35.52-.33.81c.03.63.5,1.13,1.14,1.14h0Z"/>
          <path class="cls-6" d="M154,217.85c.8-.13,1.56-.41,2.28-.78.32-.16.62-.35.91-.57.2-.15.41-.31.59-.49.24-.24.34-.59.44-.91.2-.71-.49-1.43-1.21-1.21-.12.04-.25.07-.37.1-.31.1-.53.3-.78.5l.24-.19c-.16.12-.32.24-.47.36l.24-.19c-.46.35-.96.64-1.5.87l.28-.12c-.41.17-.84.3-1.27.39-.59.12-.99.85-.81,1.42.09.28.26.55.53.69.29.15.57.17.89.12h0Z"/>
          <path class="cls-6" d="M154.35,210.13c.27-.16.56-.31.82-.5.13-.1.26-.19.39-.29.14-.11.26-.19.38-.32l.17-.18.17-.22c.08-.13.12-.26.13-.41.03-.1.03-.19,0-.29,0-.15-.05-.28-.13-.41-.1-.16-.23-.29-.39-.39-.24-.15-.58-.18-.85-.11l-.24.06c-.17.04-.31.1-.47.18-.15.07-.29.13-.44.2-.29.13-.56.32-.83.48s-.5.45-.59.76c-.05.17-.06.34-.02.51,0,.17.06.33.15.48.18.27.44.51.76.59s.68.05.99-.13h0Z"/>
          <path class="cls-7" d="M128.11,211.19l.19-.2c.23-.24.44-.51.52-.84l.06-.46h0s0-.03,0-.04c0-.02,0-.04,0-.05l-.22.82.06-.12.03-.06s.01-.02.02-.03l.16-.37c.02-.14.04-.28.06-.42,0-.21-.04-.41-.13-.6-.06-.19-.17-.36-.32-.5l-.31-.24c-.24-.14-.5-.21-.78-.21-.07,0-.14.02-.22.03-.21,0-.4.07-.58.18,0,0-.02,0-.03.01l-.06.03-.12.06.82-.22s-.03,0-.05,0c-.17,0-.31,0-.5.06l-.41.17c-.06.05-.12.09-.18.14-.07.06-.13.1-.19.15l-.05.05-.2.19c-.17.16-.29.34-.36.56-.11.21-.16.43-.15.67,0,.24.04.46.15.67.07.21.19.4.36.56l.35.27c.27.16.56.24.87.24l.46-.06c.29-.08.55-.23.76-.45h0Z"/>
          <path class="cls-7" d="M138.85,203.47c2.01,0,2.01-3.13,0-3.13s-2.01,3.13,0,3.13h0Z"/>
          <path class="cls-7" d="M142.4,217.85c.99,0,.99-1.54,0-1.54s-.99,1.54,0,1.54h0Z"/>
          <path class="cls-7" d="M130.77,226.82c2.14,0,2.15-3.33,0-3.33s-2.15,3.33,0,3.33h0Z"/>
          <path class="cls-2" d="M100.1,125.84c2.24,0,2.25-3.49,0-3.49s-2.25,3.49,0,3.49h0Z"/>
          <path class="cls-2" d="M98.88,198.04c-1.72,2.55-3.01,5.27-3.59,8.3-.51,2.65-1.21,6.11.49,8.42,1.01,1.38,3.32,1.79,4.25,0,1.11-2.16.64-4.4.98-6.75.37-2.54,1.14-5.11,2.25-7.43,1.4-2.93-2.53-5.26-4.36-2.55h0Z"/>
          <path class="cls-2" d="M100.75,221.11c2.69,0,2.7-4.19,0-4.19s-2.7,4.19,0,4.19h0Z"/>
          <path class="cls-6" d="M119.46,142.46c-4.78,2.99-8.01,8.1-9.44,13.56-1.28,4.87-1.19,10.17.73,14.82,1.93,4.65,5.8,8.57,10.6,10.08,6.04,1.9,12.98-.27,17.36-4.84,4.38-4.57,6.28-11.21,5.68-17.51-1.23-13.02-11.61-24.45-24.94-16.11Z"/>
          <path class="cls-2" d="M111.16,44.69c.08.05.15.11.23.15.07.04.15.06.22.1l.48.21.48.21c.23.1.45.22.71.22.17,0,.36-.02.53-.06l.25-.11.21-.16c.16-.16.26-.37.29-.6.03-.19,0-.36-.07-.54-.09-.22-.23-.36-.43-.5-.13-.09-.35-.2-.48-.23-.17-.04-.34-.04-.5-.04h-.54c-.18,0-.36,0-.54,0-.23,0-.45.03-.68.07-.27.05-.47.33-.5.58-.04.29.1.53.33.7h0Z"/>
          <path class="cls-2" d="M110.86,53.88l.68-.02c.11,0,.22-.01.33-.02.24-.02.38-.04.59-.16.09-.06.18-.12.25-.2l.08-.09c.16-.17.28-.41.27-.65s-.1-.46-.27-.65l-.08-.09c-.07-.07-.16-.14-.24-.2-.19-.13-.37-.14-.6-.16-.11-.01-.22-.02-.33-.02l-.68-.02c-.16,0-.3.03-.44.1-.14.05-.26.12-.37.24-.11.1-.19.23-.24.37-.07.14-.1.28-.1.44.01.3.11.6.33.81s.5.34.81.33h0Z"/>
          <path class="cls-2" d="M98.81,143.35c.23-.03.47-.03.7,0l-.34-.05c.09.01.18.03.27.05.04,0,.08.02.12.03.15.04.31.05.46.07l-.34-.05s.06,0,.09.01c.29.05.42.07.7,0,.21-.06.39-.17.55-.32.12-.11.21-.25.26-.4.08-.15.11-.31.11-.48,0-.22-.06-.43-.17-.63-.15-.21-.26-.35-.49-.48-.02-.01-.05-.03-.07-.04-.14-.07-.3-.15-.46-.18-.22-.05-.45-.08-.67-.1-.36-.04-.7,0-1.05.06-.17.04-.31.12-.43.23-.14.09-.25.21-.33.36l-.13.31c-.05.17-.06.34-.02.51,0,.12.03.22.09.32.05.16.14.3.26.41l.26.2c.2.12.41.17.65.17h0Z"/>
          <path class="cls-2" d="M98.93,151.24l.26-.04c.08-.01.17-.02.26-.04s.16-.06.23-.09l.25-.1.23-.1c.11-.06.2-.14.27-.25.06-.06.1-.13.13-.21.06-.12.09-.24.08-.37l-.03-.26-.1-.23c-.06-.11-.14-.2-.25-.27-.09-.09-.2-.14-.33-.17l-.24-.09c-.08-.03-.16-.07-.24-.09s-.17-.03-.25-.04l-.27-.04c-.22-.06-.45-.06-.67,0-.21.06-.4.17-.55.32l-.2.25c-.11.2-.17.41-.17.63,0,.17.03.33.11.48.05.16.14.29.26.4.16.16.34.26.55.32.22.06.45.06.67,0h0Z"/>
          <path class="cls-2" d="M100.96,169.39c1.37,0,1.37-2.13,0-2.13s-1.37,2.13,0,2.13h0Z"/>
          <path class="cls-7" d="M118.26,91.92v.05s0,.02,0,.02c-.03.26.09.52.2.74.01.03.02.05.04.08.12.21.29.38.5.5.22.13.45.19.7.19.25,0,.49-.06.7-.19.21-.12.38-.29.5-.5.01-.03.02-.05.04-.08.05-.11.1-.23.15-.35l.05-.38s0,0,0-.01v-.03s0-.03,0-.05c0-.2-.03-.38-.12-.55-.06-.18-.16-.33-.29-.46-.13-.14-.28-.24-.46-.29-.17-.09-.35-.13-.55-.12l-.38.05c-.24.07-.45.19-.63.37l-.22.29c-.13.22-.19.46-.19.72h0Z"/>
          <path class="cls-7" d="M122.49,108.65c1.31,0,1.31-2.04,0-2.04s-1.31,2.04,0,2.04h0Z"/>
          <path class="cls-7" d="M132.6,110.86c1.66,0,1.66-2.58,0-2.58s-1.66,2.58,0,2.58h0Z"/>
          <path class="cls-2" d="M100.37,96.58c-3.61,4.4-7.07,13.11-4.35,18.6.91,1.83,3.91,1.82,4.82,0,1.23-2.44,1.03-5.21,1.65-7.85s1.79-5.29,2.71-7.93c.93-2.65-3.01-5.04-4.83-2.81h0Z"/>
          <path class="cls-2" d="M153.93,123.34c1.33-1.65,2.4-3.54,2.89-5.61.24-1.02.45-2.12.4-3.17s-.13-2.36-.78-3.24c-.52-.7-1.62-.67-1.9.25s-.17,1.96-.24,2.9-.1,1.67-.27,2.49c-.36,1.78-.93,3.46-1.88,5-.66,1.07.96,2.39,1.78,1.37h0Z"/>
        </g>
        <path class="cls-6" d="M137.12,38.23c.27-.01.54-.05.8-.1.17-.03.33-.08.49-.14.24-.09.49-.19.72-.32.08-.04.15-.09.22-.14.17-.12.33-.26.44-.44v-.02c.05-.1.1-.19.14-.29l.04-.32s0-.02,0-.03c0-.01,0-.03,0-.04l-.04-.3c-.03-.15-.1-.27-.2-.38-.05-.08-.12-.15-.2-.2-.11-.1-.24-.17-.38-.2-.01,0-.02,0-.03-.01l.28.12c-.24-.1-.36-.18-.64-.18-.22,0-.49.07-.67.19-.06.04-.13.09-.19.13-.13.08-.27.15-.41.21l.29-.12c-.25.1-.51.18-.78.22l.32-.04c-.06,0-.12.01-.17.02-.17,0-.32.03-.46.1-.15.05-.28.13-.39.25-.12.11-.2.24-.25.39-.08.14-.11.3-.1.46.01.31.12.63.35.85s.53.37.85.35h0Z"/>
        <path class="cls-6" d="M137.99,45.42c.21,0,.42-.03.63-.06.12-.02.25-.05.37-.1.14-.05.27-.11.41-.17.06-.03.11-.06.16-.09.02-.02.05-.03.07-.05.01-.01.03-.02.04-.03.07-.05.16-.11.23-.18.15-.16.24-.36.3-.57.17-.59-.3-1.21-.92-1.2-.03,0-.05,0-.08,0-.2,0-.39.05-.57.14-.06.03-.12.06-.18.08l.25-.11c-.13.05-.26.11-.39.17l.25-.11c-.17.07-.34.12-.52.14l.28-.04c-.11.02-.23.02-.35.02-.15,0-.29.03-.41.09-.13.04-.25.12-.35.22-.1.1-.18.21-.22.35-.07.13-.1.27-.09.41.01.28.1.57.31.76s.47.31.76.31h0Z"/>
        <path class="cls-6" d="M140.03,50.64l.54-.23.26-.11c.16-.07.28-.2.41-.32l.15-.19.09-.22.03-.25c0-.13-.02-.25-.08-.36-.02-.08-.06-.15-.12-.21-.04-.07-.1-.13-.17-.17-.06-.06-.13-.1-.21-.12-.11-.06-.23-.09-.36-.08h-.14c-.07,0-.12,0-.2.02-.09.01-.13.01-.2.04l-.27.1-.56.19c-.18.05-.33.14-.46.27l-.16.21c-.1.16-.14.34-.14.53,0,.14.02.28.09.41.04.13.11.24.22.34.1.1.21.18.34.22.13.07.26.1.41.09.19,0,.37-.05.53-.14h0Z"/>
      </g>
    </g>
  </g>
</svg>