<?xml version="1.0" encoding="UTF-8"?>
<svg id="Capa_2" xmlns="http://www.w3.org/2000/svg" viewBox="0 0 243.3 243.3">
  <defs>
    <style>
      .cls-1 {
        fill: #eca396;
      }

      .cls-2 {
        fill: #fff;
      }

      .cls-3 {
        fill: none;
      }

      .cls-4 {
        fill: #a83c19;
      }

      .cls-5 {
        fill: #e58473;
      }

      .cls-6 {
        fill: #4f3535;
      }

      .cls-7 {
        fill: #847272;
      }
    </style>
  </defs>
  <g id="grocery_icons">
    <g>
      <rect class="cls-3" width="243.3" height="243.3"/>
      <g>
        <g>
          <path class="cls-4" d="M159.35,186.65c0,.19,0,.37,0,.54-.05,2.35-.07,4.72-.1,7.11,0,.34-.01.68-.01,1.02-.09,7.36-.29,14.82-1.54,21.96-1.24,7.05-4.82,14.1-11.86,16.76-7.01,2.66-15.41,3.04-22.83,2.76-6.83-.25-15.64-.52-21.42-4.7-6.66-4.81-8.32-13.34-8.89-21.02-.81-10.88-.99-21.84-1.13-32.75-.25-20.25.74-72.88,1.19-78.76.51-6.74,4.34-12.35,9.8-16.14,4.05-2.82,7.8-5.02,9.66-9.86,1.93-5,1.42-10.97,1.66-16.27.47-10.6.08-34.64.02-35.59-.58-.28-1.06-.66-1.34-1.19-.56-1.01-.37-2.32.02-3.32.41-1.04,1.15-1.46,1.1-2.67-.01-.28-.35-1.07-.51-1.56-.69-2.15-.84-3.66,1.26-5.22,2.7-2.01,7.58-1.44,10.72-1.47,3.25-.02,7.93-.58,10.76,1.41,2.2,1.55,1.67,3.82,1.29,6.05-.27,1.64.12,1.29.89,3.09.5,1.18.33,2.19-.23,3.36-.26.56-.86,1.28-1.46,1.55-.11,1.88.26,25.76.7,35.65.25,5.69-.36,12.29,2.15,17.53,1.97,4.11,5.63,6.19,9.22,8.7,5.36,3.76,9.14,9.3,9.6,15.95.12,1.84.29,7.24.46,13.98.32,12.28.65,28.95.8,36.4.24,12.23.29,24.47.03,36.7Z"/>
          <path class="cls-6" d="M105.89,225.06c6.17-2.77,12.75-3.89,19.48-4.16,3.4-.13,6.88,0,10.2.8,3.16.75,5.68,2.41,8.61,3.69,1.12.49,2.14-.72,1.31-1.7-4.34-5.13-13.1-5.95-19.33-5.72-7.26.26-15.15,1.24-21.45,5.07-1.32.8-.17,2.63,1.18,2.03h0Z"/>
          <path class="cls-6" d="M114.73,15.57c6.22,3.85,14.27,3.48,20.5-.14.5-.29.06-1.01-.45-.76-6.86,3.33-12.85,3.08-19.79.28-.37-.15-.58.43-.26.62h0Z"/>
          <path class="cls-6" d="M114.13,22.21c5.31,3.54,17.18,4.43,22.26-.04.28-.24-.02-.78-.37-.64-6.92,2.75-14.64,3.51-21.53.06-.42-.21-.75.36-.36.62h0Z"/>
          <path class="cls-6" d="M133.47,7.87c-.23-.14-.51-.19-.78-.22-2.31-.31-4.55-.1-6.88-.12-2.95-.02-4.81-.03-7.21.14-.7.05-1.43.13-2,.51s-.91,1.17-.55,1.74c.16.26.44.43.7.58,4.68,2.7,10.89,2.64,15.64.07.53-.28,1.06-.62,1.34-1.13.28-.51.23-1.23-.28-1.55Z"/>
          <path class="cls-2" d="M103.96,97.9c-2.44,3.93-2.82,8.89-3.21,13.41-.52,5.96-.46,12-.62,17.98-.17,6.26-.26,12.52-.32,18.78-.06,5.93-.61,11.87,1.64,17.49.59,1.47,2.4,1.46,2.99,0,2.07-5.11,1.76-10.36,1.72-15.78-.04-5.98-.1-11.95-.2-17.93-.1-5.65-.23-11.29-.39-16.94-.15-5.51.33-10.35,1.38-15.75.35-1.78-1.98-2.9-2.99-1.26h0Z"/>
          <path class="cls-2" d="M102.07,180.29c-1.13,1.55-1.43,4.54-.76,6.3.86,2.26,3.75,2.26,4.61,0,.67-1.76.37-4.75-.76-6.3-.83-1.14-2.26-1.14-3.09,0h0Z"/>
        </g>
        <path class="cls-5" d="M159.33,149.95c-.11-5.53-.32-16.12-.55-26.24-.08-3.52-.17-6.99-.25-10.16-9.58,2.67-19.42,2.68-29.15,2.23-1.28-.06-1.13,19.47-1.21,28.84-.12,12.42-.24,24.84-.15,37.26.01,2.64.04,5.28.09,7.92.04,1.69-.55,6.05,1.34,6.34,9.76,1.48,20.34,1.51,29.8-1.84.03-2.39.05-4.76.1-7.11v-.19c0-.11,0-.23,0-.35.26-12.23.21-24.47-.03-36.7Z"/>
        <path class="cls-6" d="M116.55,5.23c-3.86,1.43-4.72,2.72-5.01,6.72s.57,43.49.57,44.64,1.72,3.58,8.15,5.01c6.44,1.43,14.74-.29,17.45-2.43,2.72-2.15,1.14-35.19,1.14-37.05s1.28-12.67-1.14-15.02c-4.43-4.29-17.31-3.29-21.17-1.86Z"/>
        <path class="cls-7" d="M112.24,52.4c4.25,2.08,8.99,2.98,13.71,2.82,2.33-.08,4.66-.42,6.91-1.02,1.99-.54,4.8-1.26,6.32-2.73.47-.46-.02-1.19-.61-1.05-1.04.23-2.01.87-3,1.27-1.02.41-2.05.76-3.11,1.06-2.19.61-4.44.96-6.71,1.04-4.49.16-8.9-.75-13.03-2.49-.64-.27-1.09.82-.47,1.12h0Z"/>
        <path class="cls-7" d="M111.71,45.33c4.28,2.38,9.18,3.43,14.07,3.32,4.63-.11,10.08-1.16,13.91-3.91.78-.56.12-1.64-.74-1.27-2.13.91-4.14,1.92-6.39,2.52s-4.49.91-6.78.95c-4.6.08-9.14-.98-13.31-2.92-.86-.4-1.62.82-.76,1.3h0Z"/>
        <path class="cls-7" d="M112.19,23.9c3.03,3.4,8.51,3.92,12.77,3.98,2.39.03,4.86-.01,7.19-.58,2.04-.49,5.01-1.2,6.4-2.89.36-.44.04-1.22-.6-1.02-1.02.32-1.91.97-2.92,1.35-1.02.39-2.08.66-3.16.82-2.23.32-4.47.48-6.72.47-2.15,0-4.3-.15-6.4-.66s-3.88-1.47-5.71-2.56c-.71-.42-1.38.53-.86,1.11h0Z"/>
        <path class="cls-2" d="M112.82,8.82c3.77,2.82,8.49,3.71,13.11,3.57,2.17-.07,4.41-.28,6.52-.84,1.88-.5,4.2-1.45,5.19-3.24.34-.63-.39-1.53-1.05-1.05-.75.54-1.4,1.17-2.21,1.61-.86.47-1.81.76-2.76,1-1.98.49-4.04.68-6.07.73-4.2.1-8.45-.66-12.01-3-.78-.51-1.43.69-.72,1.22h0Z"/>
        <path class="cls-6" d="M151.05,97.18c.51.07,1.03.08,1.54.03.65-.06,1.33-.14,1.93-.43.24-.11.44-.25.59-.48.17-.27.19-.64.07-.93s-.39-.52-.69-.6c-.27-.07-.53,0-.79.05s-.5.15-.76.21-.51.11-.77.14l.28-.04c-.46.06-.92.07-1.39.05-.52-.03-1.02.48-.99.99.01.26.1.52.29.7.21.19.42.26.7.29h0Z"/>
        <path class="cls-6" d="M153.72,102.18c1.13,0,1.13-1.75,0-1.75s-1.13,1.75,0,1.75h0Z"/>
        <path class="cls-1" d="M159.35,186.65c0,.12,0,.24,0,.35-6.83,1.44-13.96,1.48-20.74-.14-.76-21.21-.05-40.77,0-62,8.22.44,10.29-.25,16.89-.67,1-.06,2.11-.23,3.28-.48.23,10.12.44,20.71.55,26.24.24,12.23.29,24.47.03,36.7Z"/>
        <path class="cls-6" d="M150.1,210.17c.21.12.44.21.67.3s.52.09.78.11c.45.02.91-.03,1.35-.16s.85-.29,1.21-.56c.22-.17.41-.32.59-.53.11-.13.23-.27.31-.42s.13-.3.19-.45c.14-.34-.03-.8-.28-1.05s-.7-.41-1.05-.28c-.27.11-.54.23-.81.34l.3-.13c-.25.11-.5.23-.75.33l.32-.13c-.26.11-.51.23-.76.35l.32-.13c-.45.19-.94.33-1.42.4l.32-.04c-.22.03-.45.04-.66.1-.12.03-.25.06-.37.08-.15.03-.34.15-.45.26-.16.16-.25.36-.28.58-.05.39.13.82.48,1.01h0Z"/>
        <path class="cls-6" d="M152.38,204.55c.43.03.85-.01,1.28-.07.17-.02.34-.06.5-.1.24-.06.47-.15.67-.3.16-.12.29-.24.37-.43.08-.18.11-.4.05-.58-.12-.37-.46-.67-.87-.66-.2,0-.39.02-.59.06-.13.03-.25.05-.38.07l.26-.04c-.43.06-.86.06-1.29,0-.24-.03-.56.14-.73.3-.18.18-.31.47-.3.73s.1.54.3.73.44.28.73.3h0Z"/>
      </g>
    </g>
  </g>
</svg>