<?xml version="1.0" encoding="UTF-8"?>
<svg id="Capa_2" xmlns="http://www.w3.org/2000/svg" viewBox="0 0 243.3 243.3">
  <defs>
    <style>
      .cls-1 {
        fill: #a783b0;
      }

      .cls-2 {
        fill: #fff;
      }

      .cls-3 {
        fill: #c4d9ea;
      }

      .cls-4 {
        fill: none;
      }

      .cls-5 {
        fill: #4f3535;
      }
    </style>
  </defs>
  <g id="grocery_icons">
    <g>
      <rect class="cls-4" width="243.3" height="243.3"/>
      <g>
        <path class="cls-1" d="M65.61,107.75s-20,9.11-33.56,23.33c-13.56,14.22-14,26.89-10.67,39.33,3.33,12.44,14.22,38,16.67,40.22s155.33-1.33,159.33-1.33,25.11-38.67,19.56-58.44c-4.39-15.62-34.67-40.89-44.67-43.11-10-2.22-106.67,0-106.67,0Z"/>
        <path class="cls-5" d="M179.84,129.75c.16,6.92-12.02,9.83-25.43,10.95-4.49.37-9.11.54-13.46.6-12.88.17-36.43.71-53.61-.22-5.95-.32-11.13-.81-14.84-1.55-13-2.6-19.33-7.34-14.89-14.45,1.24-1.98,4.72-4.55,15.12-5.33,1.15-.09,2.33-.17,3.55-.24,25.39-1.48,65.17.19,77.66.43.94.02,1.73.03,2.34.03,12.67,0,23.33.67,23.56,9.78Z"/>
        <path class="cls-3" d="M172.27,37.53c-12-1.11-29.33,4.89-50.44,9.11-21.1,4.22-40.44-7.33-40.45-7.34.31,2.12,1.27,4.27,1.52,5.01.99,2.86,2.16,5.6,3.58,8.27,2.74,5.13,5.89,10.97,5.77,17.08-.17,9.13-4.9,15.84-8.93,23.61-4.15,7.99-7.88,17.08-7.05,26.27.58,6.37,3.59,12.06,6.82,16.47.38.06.76.11,1.14.15,3.09.36,6.17.66,9.28.85,11.37.7,22.81.83,34.19.3,5.58-.26,11.14-.83,16.71-1.2,2.33-.15,4.67-.31,6.97-.73.95-.17,1.89-.4,2.82-.67,1.19-.38-1.26-15.62-.15-25.4.89-7.8,3.61-15.39,7-22.46,4.76-9.93,10.01-19.88,16.73-28.64,4.24-5.5,8.7-10.87,13.39-16,0,0-6.89-3.55-18.89-4.66Z"/>
        <path class="cls-2" d="M107.25,137.56c.83.02,1.65.03,2.48.04-.41-.68-.81-1.36-1.19-2.04-2.45-4.34-4.55-8.87-6.06-13.62-2.88-9-3.59-18.68-1.17-27.88,1.34-5.07,3.72-9.64,6.72-13.93.34-.49-.42-1.06-.83-.63-6.42,6.88-9.1,16.92-9.23,26.14-.14,10.12,2.92,20.03,7.6,28.92.54,1.01,1.1,2.01,1.68,3Z"/>
        <path class="cls-2" d="M127.04,137.33c.22,0,.44-.02.66-.03.56-.03,1.11-.07,1.67-.1-.63-1.47-1.23-2.95-1.74-4.46-2.45-7.24-3.97-14.93-1.65-22.38,1.31-4.2,3.16-8.13,5.13-12.05.35-.71-.67-1.32-1.08-.63-4.03,6.95-7.93,14.09-7.29,22.39.45,5.86,2.05,11.74,4.3,17.25Z"/>
        <path class="cls-5" d="M33.28,150.2c18.73,2.53,37.78,3.55,56.67,4.02,24.79.61,49.6.46,74.38-.48,6.77-.26,13.53-.58,20.29-.98,3.15-.19,6.31-.4,9.46-.63s6.38-.33,9.48-1c1.93-.42,1.4-3.26-.45-3.33-2.78-.1-5.57.26-8.34.46s-5.57.39-8.36.57c-5.97.37-11.95.67-17.93.92-12.44.52-24.88.79-37.32.95-23.23.29-46.5.03-69.72-.75-9.3-.31-18.62-.72-27.87-1.74-1.13-.12-1.4,1.84-.27,1.99h0Z"/>
        <path class="cls-5" d="M187.58,200.65c2.62.25,5.46.24,7.89-.87.77-.35.37-1.59-.42-1.57-1.26.05-2.48.23-3.71.34s-2.5.11-3.76.02c-.56-.04-1.04.51-1.04,1.04,0,.61.48.99,1.04,1.04h0Z"/>
        <path class="cls-5" d="M190.57,194.32c1.33-.03,2.66-.19,3.95-.48s2.51-.76,3.67-1.48c.8-.49.29-1.92-.67-1.58-.57.2-1.15.36-1.73.55s-1.16.38-1.75.54c-1.15.3-2.29.45-3.48.48-.53.01-.98.44-.98.98s.45.99.98.98h0Z"/>
        <path class="cls-5" d="M29.65,163.49c.78.05,1.57.33,2.34.47.81.14,1.63.25,2.46.3.77.05,1.55.07,2.33.05.87-.02,1.92-.09,2.7-.5.86-.45.61-1.75-.26-2.01-.74-.22-1.66-.13-2.44-.11s-1.55.05-2.33.02-1.55-.04-2.32-.08c-.72-.04-1.51-.03-2.19-.26-.62-.2-1.26.29-1.34.89-.09.67.41,1.17,1.06,1.22h0Z"/>
        <path class="cls-5" d="M33.55,173.23l2.43.18c.41.03.81.07,1.22.02.43-.05.9-.06,1.33-.18.31-.09.57-.4.56-.73-.02-.36-.23-.6-.56-.73-.36-.15-.77-.21-1.15-.3-.46-.11-.92-.12-1.39-.14l-2.43-.13c-.53-.03-1.03.48-1,1,.03.58.44.96,1,1h0Z"/>
      </g>
    </g>
  </g>
</svg>