<?xml version="1.0" encoding="UTF-8"?>
<svg id="Capa_2" xmlns="http://www.w3.org/2000/svg" viewBox="0 0 243.3 243.3">
  <defs>
    <style>
      .cls-1 {
        fill: #fff;
      }

      .cls-2 {
        fill: none;
      }

      .cls-3 {
        fill: #d5e4f0;
      }

      .cls-4 {
        fill: #bdd4e8;
      }

      .cls-5 {
        fill: #4f3535;
      }
    </style>
  </defs>
  <g id="grocery_icons">
    <g>
      <rect class="cls-2" width="243.3" height="243.3"/>
      <g>
        <g>
          <g>
            <g>
              <path class="cls-4" d="M121.38,130.63l-90.63,2.15-.15,58.22s-.45,14.09-.27,15.44.64,2.73,1.43,4.13c3.91,6.91,12.77,9.8,20.07,11.31,10.1,2.09,20.31,3.13,30.63,2.62,4.38-.22,8.74-.68,13.07-1.33,5.5-.83,11.14-2.1,16.08-4.74,5.28-2.83,8.44-7.08,9.3-11.59.31-1.64.1-19.23.1-19.23l.37-56.97Z"/>
              <path class="cls-3" d="M113.02,118.33c-1.37-.88-2.84-1.61-4.38-2.17-13.98-5.08-31.58-5.05-46.17-3.65-7.39.7-14.26,2.1-21.03,5.6-7.07,3.67-14.46,11.27-9.68,19.72,3.91,6.91,12.77,9.8,20.07,11.31,10.1,2.09,20.31,3.13,30.63,2.62,4.38-.22,8.74-.68,13.07-1.33,5.5-.83,11.14-2.1,16.08-4.74,11.86-6.35,13.04-19.9,1.41-27.35Z"/>
              <path class="cls-5" d="M86.72,126.74c-.4-.26-.84-.48-1.29-.64-4.13-1.5-9.33-1.49-13.63-1.08-2.18.21-4.21.62-6.21,1.65-2.09,1.08-4.27,3.33-2.86,5.82,1.15,2.04,3.77,2.89,5.93,3.34,2.98.62,6,.92,9.04.77,1.29-.06,2.58-.2,3.86-.39,1.62-.25,3.29-.62,4.75-1.4,3.5-1.88,3.85-5.88.42-8.08Z"/>
              <path class="cls-1" d="M30.81,137.06c.72,1.5,1.58,2.72,2.74,3.9,2.45,2.5,5.51,4.27,8.71,5.63,7.41,3.15,15.44,4.53,23.42,5.29,8.1.77,16.26.79,24.37.06,7.26-.65,15.03-1.48,21.59-4.89,5.93-3.09,11.54-9.91,9.93-17.11-.3-1.33-.91-1.51-.93-.19-.04,3.04-1.52,6.1-3.17,8.7-1.62,2.55-3.92,4.55-6.54,6.01-5.95,3.31-13.17,4.12-19.83,4.78-7.23.71-14.52.83-21.78.34-7.24-.48-14.61-1.31-21.56-3.52-3.62-1.15-7.36-2.61-10.57-4.69-2.91-1.88-6.53-7.54-6.62-11.17-.02-.84-1.41,3.39.25,6.84Z"/>
            </g>
            <g>
              <path class="cls-1" d="M104.46,218.4c.1-.24.24-.49.3-.74.07-.27.1-.6.12-.88.02-.44.02-.88.04-1.32s.04-.88,0-1.32c-.02-.29-.03-.61-.11-.89-.09-.32-.27-.56-.48-.81-.3-.37-1.01-.3-1.3.04-.21.25-.38.52-.46.84-.07.29-.07.6-.09.9-.03.42,0,.84,0,1.27s.02.84.04,1.27c.01.23.06.45.09.68.05.3.14.53.26.8.14.32.36.55.73.59.31.03.71-.13.84-.44h0Z"/>
              <path class="cls-1" d="M104.85,206.15c.05-.84.12-1.68.17-2.52.03-.4.06-.81.1-1.21.01-.11.02-.22.03-.32.02-.17-.02-.33-.05-.5.05.31-.08-.41-.04-.26-.05-.21-.14-.37-.31-.52-.29-.26-.7-.29-1.03-.1-.55.32-.64,1.1-.68,1.68-.03.42-.05.83-.07,1.25-.04.85,0,1.7.05,2.55.03.48.44.92.94.89.53-.04.86-.43.89-.94h0Z"/>
              <path class="cls-1" d="M105.31,194.34c.02-.64.05-1.29.06-1.93,0-.31-.02-.63-.03-.94,0-.16,0-.31-.01-.47-.02-.42-.13-.72-.42-1.04l.3.47c-.13-.47-.54-.97-1.08-.93s-.91.47-1.02.99l.27-.49c-.26.31-.36.61-.36,1.02,0,.16,0,.31.01.47.01.33,0,.66.03.98.05.64.12,1.28.18,1.92.05.54.49,1.05,1.07,1.01s.99-.49,1.01-1.07h0Z"/>
              <path class="cls-1" d="M105.43,182.25c.03-.37.08-.74.09-1.1,0-.34-.02-.68-.03-1.02,0-.17,0-.34-.03-.51-.01-.09-.02-.18-.04-.27,0-.16-.04-.31-.12-.45q-.08-.18,0,0s-.11-.48-.12-.52c-.08-.26-.22-.5-.43-.67-.35-.28-.78-.27-1.12.04-.2.19-.33.43-.39.7-.01.05-.09.52-.09.52l.06-.14c-.1.19-.15.39-.14.6,0,.08-.01.16-.02.24-.01.18,0,.37,0,.55.01.34.01.68.04,1.02.03.37.11.73.16,1.1.04.3.12.55.34.76.19.18.51.31.78.29s.57-.12.76-.34c.2-.23.27-.47.29-.78h0Z"/>
              <path class="cls-1" d="M105.44,170.38c.01-.13.01-.11,0,.07,0-.05.01-.1.02-.15,0-.08.02-.16.03-.23.04-.28.06-.55.06-.83,0-.36.02-.71.02-1.07s.05-.71.02-1.06c-.01-.19-.02-.38-.03-.57,0-.36-.1-.64-.27-.95-.33-.65-1.28-.65-1.74-.17-.38.4-.49.9-.61,1.42-.11.46-.11.95-.12,1.42,0,.39.02.76.07,1.15.06.48.18.91.34,1.36.19.54.71.87,1.27.77.24-.04.48-.14.64-.33.21-.24.28-.49.31-.81h0Z"/>
              <path class="cls-1" d="M104.94,158.51c-.07-.2,0,.26,0,.06,0-.07,0-.14,0-.21,0-.09,0-.17.01-.26,0-.19-.06.26,0,.07.04-.12.04-.27.05-.4.02-.24.03-.47.05-.71,0-.07.02-.14.02-.21-.01.15-.02.22,0,.03.02-.22.05-.44.06-.66.04-.58.09-1.16.12-1.74s.06-1.23-.18-1.76c-.18-.4-.45-.69-.92-.74-.41-.04-.86.16-1.06.55-.15.3-.24.58-.28.91-.05.37-.08.75-.1,1.12-.03.6-.04,1.21-.03,1.81s.02,1.25.17,1.82c.1.35.18.79.41,1.09.28.37.73.55,1.18.35.41-.19.66-.68.51-1.12h0Z"/>
            </g>
          </g>
          <path class="cls-5" d="M30.81,210.04c.72,1.5,1.58,2.72,2.74,3.9,2.45,2.5,5.51,4.27,8.71,5.63,7.41,3.15,15.44,4.53,23.42,5.29,8.1.77,16.26.79,24.37.06,7.26-.65,15.03-1.48,21.59-4.89,5.93-3.09,11.54-9.91,9.93-17.11-.3-1.33-.91-1.51-.93-.19-.04,3.04-1.52,6.1-3.17,8.7-1.62,2.55-3.92,4.55-6.54,6.01-5.95,3.31-13.17,4.12-19.83,4.78-7.23.71-14.52.83-21.78.34-7.24-.48-14.61-1.31-21.56-3.52-3.62-1.15-7.36-2.61-10.57-4.69-2.91-1.88-6.53-7.54-6.62-11.17-.02-.84-1.41,3.39.25,6.84Z"/>
        </g>
        <g>
          <g>
            <g>
              <path class="cls-4" d="M220.35,130.63l-90.63,2.15-.15,58.22s-.45,14.09-.27,15.44.64,2.73,1.43,4.13c3.91,6.91,12.77,9.8,20.07,11.31,10.1,2.09,20.31,3.13,30.63,2.62,4.38-.22,8.74-.68,13.07-1.33,5.5-.83,11.14-2.1,16.08-4.74,5.28-2.83,8.44-7.08,9.3-11.59.31-1.64.1-19.23.1-19.23l.37-56.97Z"/>
              <path class="cls-3" d="M212,118.33c-1.37-.88-2.84-1.61-4.38-2.17-13.98-5.08-31.58-5.05-46.17-3.65-7.39.7-14.26,2.1-21.03,5.6-7.07,3.67-14.46,11.27-9.68,19.72,3.91,6.91,12.77,9.8,20.07,11.31,10.1,2.09,20.31,3.13,30.63,2.62,4.38-.22,8.74-.68,13.07-1.33,5.5-.83,11.14-2.1,16.08-4.74,11.86-6.35,13.04-19.9,1.41-27.35Z"/>
              <path class="cls-5" d="M185.69,126.74c-.4-.26-.84-.48-1.29-.64-4.13-1.5-9.33-1.49-13.63-1.08-2.18.21-4.21.62-6.21,1.65-2.09,1.08-4.27,3.33-2.86,5.82,1.15,2.04,3.77,2.89,5.93,3.34,2.98.62,6,.92,9.04.77,1.29-.06,2.58-.2,3.86-.39,1.62-.25,3.29-.62,4.75-1.4,3.5-1.88,3.85-5.88.42-8.08Z"/>
              <path class="cls-1" d="M129.78,137.06c.72,1.5,1.58,2.72,2.74,3.9,2.45,2.5,5.51,4.27,8.71,5.63,7.41,3.15,15.44,4.53,23.42,5.29,8.1.77,16.26.79,24.37.06,7.26-.65,15.03-1.48,21.59-4.89,5.93-3.09,11.54-9.91,9.93-17.11-.3-1.33-.91-1.51-.93-.19-.04,3.04-1.52,6.1-3.17,8.7-1.62,2.55-3.92,4.55-6.54,6.01-5.95,3.31-13.17,4.12-19.83,4.78-7.23.71-14.52.83-21.78.34-7.24-.48-14.61-1.31-21.56-3.52-3.62-1.15-7.36-2.61-10.57-4.69-2.91-1.88-6.53-7.54-6.62-11.17-.02-.84-1.41,3.39.25,6.84Z"/>
            </g>
            <g>
              <path class="cls-1" d="M203.43,218.4c.1-.24.24-.49.3-.74.07-.27.1-.6.12-.88.02-.44.02-.88.04-1.32s.04-.88,0-1.32c-.02-.29-.03-.61-.11-.89-.09-.32-.27-.56-.48-.81-.3-.37-1.01-.3-1.3.04-.21.25-.38.52-.46.84-.07.29-.07.6-.09.9-.03.42,0,.84,0,1.27s.02.84.04,1.27c.01.23.06.45.09.68.05.3.14.53.26.8.14.32.36.55.73.59.31.03.71-.13.84-.44h0Z"/>
              <path class="cls-1" d="M203.82,206.15c.05-.84.12-1.68.17-2.52.03-.4.06-.81.1-1.21.01-.11.02-.22.03-.32.02-.17-.02-.33-.05-.5.05.31-.08-.41-.04-.26-.05-.21-.14-.37-.31-.52-.29-.26-.7-.29-1.03-.1-.55.32-.64,1.1-.68,1.68-.03.42-.05.83-.07,1.25-.04.85,0,1.7.05,2.55.03.48.44.92.94.89.53-.04.86-.43.89-.94h0Z"/>
              <path class="cls-1" d="M204.29,194.34c.02-.64.05-1.29.06-1.93,0-.31-.02-.63-.03-.94,0-.16,0-.31-.01-.47-.02-.42-.13-.72-.42-1.04l.3.47c-.13-.47-.54-.97-1.08-.93s-.91.47-1.02.99l.27-.49c-.26.31-.36.61-.36,1.02,0,.16,0,.31.01.47.01.33,0,.66.03.98.05.64.12,1.28.18,1.92.05.54.49,1.05,1.07,1.01s.99-.49,1.01-1.07h0Z"/>
              <path class="cls-1" d="M204.41,182.25c.03-.37.08-.74.09-1.1,0-.34-.02-.68-.03-1.02,0-.17,0-.34-.03-.51-.01-.09-.02-.18-.04-.27,0-.16-.04-.31-.12-.45q-.08-.18,0,0s-.11-.48-.12-.52c-.08-.26-.22-.5-.43-.67-.35-.28-.78-.27-1.12.04-.2.19-.33.43-.39.7-.01.05-.09.52-.09.52l.06-.14c-.1.19-.15.39-.14.6,0,.08-.01.16-.02.24-.01.18,0,.37,0,.55.01.34.01.68.04,1.02.03.37.11.73.16,1.1.04.3.12.55.34.76.19.18.51.31.78.29s.57-.12.76-.34c.2-.23.27-.47.29-.78h0Z"/>
              <path class="cls-1" d="M204.41,170.38c.01-.13.01-.11,0,.07,0-.05.01-.1.02-.15,0-.08.02-.16.03-.23.04-.28.06-.55.06-.83,0-.36.02-.71.02-1.07s.05-.71.02-1.06c-.01-.19-.02-.38-.03-.57,0-.36-.1-.64-.27-.95-.33-.65-1.28-.65-1.74-.17-.38.4-.49.9-.61,1.42-.11.46-.11.95-.12,1.42,0,.39.02.76.07,1.15.06.48.18.91.34,1.36.19.54.71.87,1.27.77.24-.04.48-.14.64-.33.21-.24.28-.49.31-.81h0Z"/>
              <path class="cls-1" d="M203.92,158.51c-.07-.2,0,.26,0,.06,0-.07,0-.14,0-.21,0-.09,0-.17.01-.26,0-.19-.06.26,0,.07.04-.12.04-.27.05-.4.02-.24.03-.47.05-.71,0-.07.02-.14.02-.21-.01.15-.02.22,0,.03.02-.22.05-.44.06-.66.04-.58.09-1.16.12-1.74s.06-1.23-.18-1.76c-.18-.4-.45-.69-.92-.74-.41-.04-.86.16-1.06.55-.15.3-.24.58-.28.91-.05.37-.08.75-.1,1.12-.03.6-.04,1.21-.03,1.81s.02,1.25.17,1.82c.1.35.18.79.41,1.09.28.37.73.55,1.18.35.41-.19.66-.68.51-1.12h0Z"/>
            </g>
          </g>
          <path class="cls-5" d="M129.78,210.04c.72,1.5,1.58,2.72,2.74,3.9,2.45,2.5,5.51,4.27,8.71,5.63,7.41,3.15,15.44,4.53,23.42,5.29,8.1.77,16.26.79,24.37.06,7.26-.65,15.03-1.48,21.59-4.89,5.93-3.09,11.54-9.91,9.93-17.11-.3-1.33-.91-1.51-.93-.19-.04,3.04-1.52,6.1-3.17,8.7-1.62,2.55-3.92,4.55-6.54,6.01-5.95,3.31-13.17,4.12-19.83,4.78-7.23.71-14.52.83-21.78.34-7.24-.48-14.61-1.31-21.56-3.52-3.62-1.15-7.36-2.61-10.57-4.69-2.91-1.88-6.53-7.54-6.62-11.17-.02-.84-1.41,3.39.25,6.84Z"/>
        </g>
        <g>
          <g>
            <g>
              <path class="cls-4" d="M174.32,42.39l-90.63,2.15-.15,58.22s-.45,14.09-.27,15.44.64,2.73,1.43,4.13c3.91,6.91,12.77,9.8,20.07,11.31,10.1,2.09,20.31,3.13,30.63,2.62,4.38-.22,8.74-.68,13.07-1.33,5.5-.83,11.14-2.1,16.08-4.74,5.28-2.83,8.44-7.08,9.3-11.59.31-1.64.1-19.23.1-19.23l.37-56.97Z"/>
              <path class="cls-3" d="M165.97,30.08c-1.37-.88-2.84-1.61-4.38-2.17-13.98-5.08-31.58-5.05-46.17-3.65-7.39.7-14.26,2.1-21.03,5.6s-14.46,11.27-9.68,19.72c3.91,6.91,12.77,9.8,20.07,11.31,10.1,2.09,20.31,3.13,30.63,2.62,4.38-.22,8.74-.68,13.07-1.33,5.5-.83,11.14-2.1,16.08-4.74,11.86-6.35,13.04-19.9,1.41-27.35Z"/>
              <path class="cls-5" d="M139.66,38.5c-.4-.26-.84-.48-1.29-.64-4.13-1.5-9.33-1.49-13.63-1.08-2.18.21-4.21.62-6.21,1.65-2.09,1.08-4.27,3.33-2.86,5.82,1.15,2.04,3.77,2.89,5.93,3.34,2.98.62,6,.92,9.04.77,1.29-.06,2.58-.2,3.86-.39,1.62-.25,3.29-.62,4.75-1.4,3.5-1.88,3.85-5.88.42-8.08Z"/>
              <path class="cls-1" d="M83.76,48.82c.72,1.5,1.58,2.72,2.74,3.9,2.45,2.5,5.51,4.27,8.71,5.63,7.41,3.15,15.44,4.53,23.42,5.29,8.1.77,16.26.79,24.37.06,7.26-.65,15.03-1.48,21.59-4.89,5.93-3.09,11.54-9.91,9.93-17.11-.3-1.33-.91-1.51-.93-.19-.04,3.04-1.52,6.1-3.17,8.7-1.62,2.55-3.92,4.55-6.54,6.01-5.95,3.31-13.17,4.12-19.83,4.78-7.23.71-14.52.83-21.78.34-7.24-.48-14.61-1.31-21.56-3.52-3.62-1.15-7.36-2.61-10.57-4.69-2.91-1.88-6.53-7.54-6.62-11.17-.02-.84-1.41,3.39.25,6.84Z"/>
            </g>
            <g>
              <path class="cls-1" d="M157.41,130.16c.1-.24.24-.49.3-.74.07-.27.1-.6.12-.88.02-.44.02-.88.04-1.32s.04-.88,0-1.32c-.02-.29-.03-.61-.11-.89-.09-.32-.27-.56-.48-.81-.3-.37-1.01-.3-1.3.04-.21.25-.38.52-.46.84-.07.29-.07.6-.09.9-.03.42,0,.84,0,1.27s.02.84.04,1.27c.01.23.06.45.09.68.05.3.14.53.26.8.14.32.36.55.73.59.31.03.71-.13.84-.44h0Z"/>
              <path class="cls-1" d="M157.79,117.91c.05-.84.12-1.68.17-2.52.03-.4.06-.81.1-1.21.01-.11.02-.22.03-.32.02-.17-.02-.33-.05-.5.05.31-.08-.41-.04-.26-.05-.21-.14-.37-.31-.52-.29-.26-.7-.29-1.03-.1-.55.32-.64,1.1-.68,1.68-.03.42-.05.83-.07,1.25-.04.85,0,1.7.05,2.55.03.48.44.92.94.89.53-.04.86-.43.89-.94h0Z"/>
              <path class="cls-1" d="M158.26,106.1c.02-.64.05-1.29.06-1.93,0-.31-.02-.63-.03-.94,0-.16,0-.31-.01-.47-.02-.42-.13-.72-.42-1.04l.3.47c-.13-.47-.54-.97-1.08-.93s-.91.47-1.02.99l.27-.49c-.26.31-.36.61-.36,1.02,0,.16,0,.31.01.47.01.33,0,.66.03.98.05.64.12,1.28.18,1.92.05.54.49,1.05,1.07,1.01s.99-.49,1.01-1.07h0Z"/>
              <path class="cls-1" d="M158.38,94.01c.03-.37.08-.74.09-1.1,0-.34-.02-.68-.03-1.02,0-.17,0-.34-.03-.51-.01-.09-.02-.18-.04-.27,0-.16-.04-.31-.12-.45q-.08-.18,0,0s-.11-.48-.12-.52c-.08-.26-.22-.5-.43-.67-.35-.28-.78-.27-1.12.04-.2.19-.33.43-.39.7-.01.05-.09.52-.09.52l.06-.14c-.1.19-.15.39-.14.6,0,.08-.01.16-.02.24-.01.18,0,.37,0,.55.01.34.01.68.04,1.02.03.37.11.73.16,1.1.04.3.12.55.34.76.19.18.51.31.78.29s.57-.12.76-.34c.2-.23.27-.47.29-.78h0Z"/>
              <path class="cls-1" d="M158.38,82.14c.01-.13.01-.11,0,.07,0-.05.01-.1.02-.15,0-.08.02-.16.03-.23.04-.28.06-.55.06-.83,0-.36.02-.71.02-1.07s.05-.71.02-1.06c-.01-.19-.02-.38-.03-.57,0-.36-.1-.64-.27-.95-.33-.65-1.28-.65-1.74-.17-.38.4-.49.9-.61,1.42-.11.46-.11.95-.12,1.42,0,.39.02.76.07,1.15.06.48.18.91.34,1.36.19.54.71.87,1.27.77.24-.04.48-.14.64-.33.21-.24.28-.49.31-.81h0Z"/>
              <path class="cls-1" d="M157.89,70.27c-.07-.2,0,.26,0,.06,0-.07,0-.14,0-.21,0-.09,0-.17.01-.26,0-.19-.06.26,0,.07.04-.12.04-.27.05-.4.02-.24.03-.47.05-.71,0-.07.02-.14.02-.21-.01.15-.02.22,0,.03.02-.22.05-.44.06-.66.04-.58.09-1.16.12-1.74s.06-1.23-.18-1.76c-.18-.4-.45-.69-.92-.74-.41-.04-.86.16-1.06.55-.15.3-.24.58-.28.91-.05.37-.08.75-.1,1.12-.03.6-.04,1.21-.03,1.81s.02,1.25.17,1.82c.1.35.18.79.41,1.09.28.37.73.55,1.18.35.41-.19.66-.68.51-1.12h0Z"/>
            </g>
          </g>
          <path class="cls-5" d="M83.76,121.8c.72,1.5,1.58,2.72,2.74,3.9,2.45,2.5,5.51,4.27,8.71,5.63,7.41,3.15,15.44,4.53,23.42,5.29,8.1.77,16.26.79,24.37.06,7.26-.65,15.03-1.48,21.59-4.89,5.93-3.09,11.54-9.91,9.93-17.11-.3-1.33-.91-1.51-.93-.19-.04,3.04-1.52,6.1-3.17,8.7-1.62,2.55-3.92,4.55-6.54,6.01-5.95,3.31-13.17,4.12-19.83,4.78-7.23.71-14.52.83-21.78.34-7.24-.48-14.61-1.31-21.56-3.52-3.62-1.15-7.36-2.61-10.57-4.69-2.91-1.88-6.53-7.54-6.62-11.17-.02-.84-1.41,3.39.25,6.84Z"/>
        </g>
      </g>
    </g>
  </g>
</svg>