<?xml version="1.0" encoding="UTF-8"?>
<svg id="Capa_2" xmlns="http://www.w3.org/2000/svg" viewBox="0 0 243.3 243.3">
  <defs>
    <style>
      .cls-1 {
        fill: #aac8e1;
      }

      .cls-2 {
        fill: #fff;
      }

      .cls-3 {
        fill: #4286bd;
      }

      .cls-4 {
        fill: none;
      }

      .cls-5 {
        fill: #bdd4e8;
      }

      .cls-6 {
        fill: #95bbda;
      }

      .cls-7 {
        fill: #4f3535;
      }

      .cls-8 {
        fill: #7dabd1;
      }

      .cls-9 {
        fill: #c6dbeb;
      }

      .cls-10 {
        fill: #f7bc3b;
      }
    </style>
  </defs>
  <g id="grocery_icons">
    <g>
      <rect class="cls-4" width="243.3" height="243.3"/>
      <g>
        <g>
          <path class="cls-1" d="M147.29,72.41c-27.06-26.74-88.47-35.75-122.77,19.14-34.3,54.89,4.33,108.69,48.75,117.71,44.41,9.03,76.55-22.39,88.11-42.61,11.55-20.22,16.97-63.55-14.08-94.24Z"/>
          <path class="cls-7" d="M128.22,92.29c-6.06-5.97-13.91-10.05-22.09-12.22-9.04-2.4-18.73-2.47-27.75.07-10.36,2.92-19.43,9.25-26.24,17.52-8.41,10.22-14.08,23.07-13.86,36.47.2,11.74,4.89,22.98,12.57,31.79,7.23,8.29,17.16,14.49,27.96,16.78,12.12,2.57,24.63.6,35.46-5.38,8.57-4.73,16.07-11.69,21.5-19.83,4.97-7.44,7.32-16.36,7.73-25.24.53-11.45-2.47-23.06-9.03-32.51-1.85-2.67-3.95-5.16-6.26-7.45-1.33-1.32-3.39.74-2.06,2.06,8.22,8.17,13.28,18.98,14.29,30.5.43,4.91.2,9.93-.68,14.66-.41,2.22-.96,4.42-1.66,6.58-.32,1-.68,1.98-1.07,2.95-.05.11-.26.63-.18.45-.09.22-.19.43-.28.65-.2.44-.4.87-.61,1.31-1.72,3.48-4.01,6.69-6.4,9.52-3.02,3.58-6.47,6.87-10.21,9.65-8.91,6.62-19.62,10.58-30.79,10.34-11.03-.24-21.62-4.4-30.01-11.52-8.3-7.05-14.33-16.66-16.49-27.38-2.5-12.42.78-25.06,7.41-35.67,5.71-9.15,13.68-16.85,23.6-21.24,4.05-1.8,8.91-3.1,13.21-3.61,2.21-.26,4.43-.38,6.66-.35,1.12.01,2.25.07,3.36.15,1.06.08,2.24.21,3.09.34,8.3,1.21,16.03,4.21,22.76,9.22.47.35.47.35.92.71.36.29.71.58,1.06.88.7.6,1.39,1.23,2.05,1.89,1.34,1.32,3.39-.74,2.06-2.06Z"/>
        </g>
        <path class="cls-2" d="M74.01,106.29c-.02-.08-.04-.17-.07-.25-.78-2.7-2.56-5.19-5.51-5.63-3.12-.46-5.97,1.63-6.45,4.76-.46,3.01,1.16,6.21,3.81,7.71,2.6,1.47,6.24.88,7.76-1.85.81-1.45.87-3.16.47-4.74Z"/>
        <path class="cls-2" d="M42.53,127.71c-2.53-.39-4.91.66-6.54,2.59-1.9,2.25-1.68,5.76.32,7.88,2.41,2.54,6.51,2.9,9.4.98,2.84-1.88,3.84-5.7,1.95-8.63-1.16-1.81-3.09-2.51-5.14-2.82Z"/>
        <path class="cls-10" d="M42.92,51.58s.11,9.35-5.46,14.36c-5.01,4.5-10.66,5.09-10.66,5.09,0,0,7.36,2.65,11,7.2,3.4,4.25,5.12,12.17,5.12,12.17,0,0,.63-8.3,5.92-13.43,4.31-4.18,9.54-6.54,9.54-6.54,0,0-6.12-.41-10.33-4.84-3.63-3.82-5.12-14.01-5.12-14.01Z"/>
        <path class="cls-10" d="M109.78,19.7s.11,9.35-5.46,14.36c-5.01,4.5-10.66,5.09-10.66,5.09,0,0,7.36,2.65,11,7.2,3.4,4.25,5.12,12.17,5.12,12.17,0,0,.63-8.3,5.92-13.43,4.31-4.18,9.54-6.54,9.54-6.54,0,0-6.12-.41-10.33-4.84-3.63-3.82-5.12-14.01-5.12-14.01Z"/>
        <path class="cls-10" d="M96.24,125.28s.09,7.62-4.45,11.7c-4.08,3.66-8.68,4.14-8.68,4.14,0,0,5.87,2.66,9.33,6.12,2.5,2.5,3.81,9.67,3.81,9.67,0,0,.3-6.63,4.61-10.81,3.64-3.53,7.98-5.46,7.98-5.46,0,0-4.99-.33-8.42-3.95-2.96-3.12-4.17-11.42-4.17-11.42Z"/>
        <g>
          <path class="cls-2" d="M65.95,162.7c-2.2-1.12-5.66-.87-8.11-.68-2.41.19-3.5,1.39-5.46,2.9-1.36,1.04-3.55,3.42-4.44,4.95-1.83-4.69-4.59-11.51-9.39-13.14-4.22-1.44-12.16-.36-15.1,3.27-2.59,3.19-3.35,7.54-2.52,11.51.2.96,1.61,3.01,2,3.91-.77.53-1.16,1.11-1.79,1.79-2.63,2.85-3.36,6.17-2.85,9.95.52,3.83,2.12,7.48,5.27,9.85,2.81,2.11,6.64,4,10.12,3.59.57-.07,1.13-.17,1.69-.3.21,1.46.57,1.93,1.35,3.19,2.08,3.35,5.49,6.27,9.33,6.66,8.45.85,16.59-6.25,17.75-14.34.33-2.32.21-6.01-.52-8.23-.15-.44-.31-.91-.51-1.37.87-.35,2.89-.44,3.67-.97,3.64-2.48,6.08-7.25,5.97-11.69-.1-4.21-2.68-8.91-6.49-10.84Z"/>
          <path class="cls-9" d="M48.74,173.99c.04-3.52,1.19-6.65,4.12-8.75,2.87-2.06,6.47-2.95,9.92-2.12,7.87,1.88,11.3,10.82,6.83,17.55-2.37,3.57-7.16,5.53-11.35,5.7-1,.04-1.16.21-1.16-.84,0-1.21,1.14-.88,2.07-.48.95.4,1.74,1.69,2.22,2.54,1.12,2.01,1.67,4.23,1.68,6.53.02,8.53-6.9,14.23-14.97,15.03-4.84.48-8.96-1.48-10.34-6.38-.99-3.49-.66-9.11,2.67-11.37,1.47-.99,3.44-.47,3.55,1.61.06,1.1-.52,2.17-1.26,2.96-1.35,1.46-3.31,2.48-5.17,3.1-3.67,1.22-7.93,1.02-11.4-.75-7.01-3.59-9.65-13.14-4.67-19.45,2.18-2.76,5.71-4.87,9.33-4.74,2.28.09,5.95,2.17,3.21,4.71-2.26,2.1-5.76.31-7.69-1.33-3.47-2.95-5.77-7.52-4.24-12.07s5.88-7.72,10.48-8.25c9.31-1.07,14.21,8.85,14.17,16.72,0,1.61,2.26,1.52,2.44,0,1.36-11.23-8.69-22.53-20.25-18.1-4.99,1.91-9.15,6.35-9.54,11.85-.39,5.54,3.64,10.77,8.38,13.22,2.19,1.13,4.83,1.52,6.98.11,1.76-1.15,2.87-3.32,2.16-5.4-1.54-4.51-7.88-4-11.32-2.51-10.6,4.6-11.39,18.85-2.47,25.58,4.4,3.32,10.51,3.94,15.62,2.02,3.72-1.4,9.1-5.3,6.54-9.9-2.58-4.62-7.51-.31-8.9,2.89-2.11,4.84-1.31,11.65,2.88,15.18s10.95,2.54,15.64.5c4.84-2.1,8.42-6.19,9.55-11.38,1-4.63.18-11.79-4.38-14.47-1.66-.97-4.46-1.1-5.62.73-.92,1.46-.03,3.01,1.4,3.69,2.64,1.26,6.85-.16,9.33-1.21,2.75-1.17,5.08-3.02,6.61-5.6,2.88-4.87,2.62-11.35-1.2-15.64-7.73-8.69-24.33-3.94-23.42,8.5.07,1,1.57,1.03,1.58,0h0Z"/>
        </g>
        <g>
          <path class="cls-3" d="M128.14,71.35c-8.33,15-2.67,27.33,2.67,33.33s9.33,8.33,6,16.33c-3.74,8.98-9.12,17.28-13.07,26.19-5.6,12.59-8.06,25.74-8.92,39.42-.52,8.3-3,20.91,5.99,25.73,20.85,11.17,45.52,12.07,68.5,8.98,11.99-1.61,35.37-2.37,38.53-17.78.15-.73.24-1.47.3-2.21,1-12.33-4-45-13-63.33-9-18.33-12.33-23-10-28s18.33-12.33,13.67-28.33-21.23-26.64-32.33-29.67c-22-6-50,4.33-58.33,19.33Z"/>
          <path class="cls-6" d="M192.16,39.34c-.26-2.43-.9-4.22-3.27-5.24-1.73-.75-3.64-1.14-5.48-1.5-7.71-1.54-15.49-1.65-23.15.21-1.89.46-4.12.88-5.71,2.07-1.89,1.42-1.9,3.76-2.11,5.91-.47,4.83-.96,6.87-.62,11.72.16,2.26,1.42,3.55,3.29,4.65,4.11,2.4,8.83,3.36,13.54,3.62,4.68.26,9.62.33,14.18-.84,2.31-.59,4.55-1.49,6.62-2.67,2.15-1.23,3.4-2.61,3.5-5.16.21-5.23-.23-7.56-.79-12.76Z"/>
          <path class="cls-2" d="M154.32,37.49c2.5,1.79,5.67,2.91,8.62,3.68s6.2,1.22,9.34,1.22c3.07,0,6.17-.39,9.14-1.17,1.58-.41,3.12-.93,4.63-1.55,1.33-.55,2.97-1.03,3.82-2.22.49-.69-.17-1.69-.96-1.67-1.38.03-2.7,1.04-3.97,1.55-1.37.55-2.79,1.02-4.22,1.4-2.83.75-5.74,1.14-8.67,1.15-2.93,0-5.85-.37-8.68-1.11s-5.52-2-8.27-3.13c-1.14-.47-1.65,1.24-.78,1.86h0Z"/>
          <path class="cls-3" d="M177.03,21.71c-.18-.59-1.19-1.78-4.47-1.89-2.24-.08-4.46.53-4.78,1.44-.78,2.22-.42,12.6.03,14.08.19.63,2.28,1.92,4.72,1.92,2.03,0,3.72-.81,4.42-1.67.59-.74.36-12.97.08-13.89Z"/>
          <path class="cls-7" d="M168.45,22.42c1.1.89,2.68,1.02,4.04,1.06s2.66-.14,3.71-1c.28-.23.24-.71,0-.94-.28-.28-.66-.23-.94,0-.77.62-1.89.62-2.83.6-.55,0-1.1-.04-1.64-.14-.57-.11-1.06-.32-1.59-.55-.28-.12-.6-.11-.8.16-.17.23-.19.62.05.81h0Z"/>
          <path class="cls-8" d="M213.05,184.09c-1.01-7.65-2.99-15.15-5.76-22.35-2.78-7.21-6.57-13.84-10.35-20.56-3.48-6.18-7.25-12.69-7.91-19.89-.3-3.29-.02-6.71,1.35-9.75,1.22-2.72,3.23-4.94,5.24-7.09,3.95-4.24,8.34-8.91,7.56-15.19-.86-6.85-6.8-12.18-12.38-15.58-8.74-5.31-20.28-6.93-30.27-4.02-6.53,1.9-12.93,5.6-17.37,10.81-2.2,2.58-3.92,5.6-4.3,9.01-.33,2.95.56,5.86,2.11,8.35,3.09,4.97,8.41,8.37,10.76,13.84,2.73,6.35,1.1,13.83-1.69,19.86-3.19,6.88-7.33,13.27-10.8,20-3.52,6.81-6.28,14.04-8.2,21.46-.96,3.72-1.69,7.5-2.19,11.31-.47,3.62-1.07,7.52-.47,11.15,1.12,6.75,8.35,10.17,14.19,12.05,11.12,3.58,23.04,3.79,34.6,2.99,10.18-.7,22.01-1.22,30.7-7.23,2.83-1.95,5.08-4.59,5.63-8.07.58-3.63.03-7.51-.45-11.13Z"/>
          <g>
            <path class="cls-5" d="M164.48,94.11c-2.42-1.47-5.58-.63-7.45,1.34-2.42,2.55-2.94,8.16-.01,10.54,1.75,1.42,4.39,1.38,6.41.57,3.25-1.31,4.89-4.9,4-8.26-.44-1.65-1.46-3.28-2.94-4.18Z"/>
            <path class="cls-5" d="M181.84,91.77c1.8-.46,3.32-1.87,3.18-3.91-.15-2.26-2.22-4.04-4.46-3.92-2.25.13-4.09,1.81-4.32,4.07-.21,2.08,1.52,3.48,3.42,3.84.72.13,1.47.1,2.18-.08Z"/>
            <path class="cls-5" d="M196.42,165.16c1.32-2.4,1.34-5.44-.98-7.36-2.57-2.12-6.57-1.69-8.7.84-2.14,2.54-2.18,6.22.01,8.73,2.02,2.32,5.27,1.88,7.56.21.86-.63,1.59-1.48,2.11-2.42Z"/>
            <path class="cls-2" d="M183.75,101.85c.06-.08.1-.16,0,0h0Z"/>
            <path class="cls-5" d="M180.04,123.64c-.81-.63-1.9-.89-2.91-.66-2.66.62-4.02,4.65-1.92,6.57,1.64,1.5,4.22.72,5.31-1.03.92-1.48,1-3.74-.48-4.89Z"/>
          </g>
          <path class="cls-2" d="M158.83,100.79h.1s.03,0,.05,0h.02s0,0,.01,0c.05,0,.1,0,.15-.02.05,0,.1,0,.15-.02l.26-.11c.13-.07.23-.16.31-.28.07-.07.11-.15.14-.24.07-.13.1-.27.09-.42l-.04-.29-.11-.26c-.07-.13-.16-.23-.28-.31-.11-.1-.23-.16-.37-.2h0c-.1-.01-.19-.03-.29-.04,0,0,0,0-.01,0h-.02s-.03,0-.05,0h-.1c-.15,0-.29.03-.42.1-.13.04-.25.12-.35.22-.11.1-.18.21-.22.35-.07.13-.1.27-.09.42l.04.29c.05.18.14.34.28.48l.22.17c.17.1.35.15.55.15h0Z"/>
          <path class="cls-2" d="M179.75,88.68h.13s.04-.02.06-.02c.01,0,.02,0,.03,0,.27-.03.47-.04.71-.19l.28-.22c.08-.09.15-.18.22-.28.13-.22.19-.45.19-.7,0-.25-.06-.48-.19-.7-.03-.05-.07-.1-.11-.14-.1-.15-.23-.27-.39-.36-.16-.1-.33-.16-.52-.17-.06-.01-.13-.02-.19-.03-.01,0-.02,0-.03,0h-.06s-.09-.02-.13-.02c-.19,0-.38.03-.54.12-.18.06-.33.15-.46.29-.14.13-.24.28-.29.46-.09.17-.13.35-.12.54l.05.38c.07.24.19.45.36.62l.29.22c.22.13.46.19.71.19h0Z"/>
          <path class="cls-2" d="M176.63,126.41l.13.11.07.05c.1.08.2.18.3.23l.28.12c.16.05.31.06.47.02.11,0,.21-.03.3-.08.15-.05.27-.13.38-.24l.18-.24.12-.28c.05-.16.06-.31.02-.47,0-.16-.05-.3-.14-.44-.05-.1-.16-.2-.23-.3l-.05-.07-.11-.13c-.11-.12-.24-.2-.39-.25-.14-.08-.3-.11-.47-.1-.17,0-.32.03-.47.1-.15.05-.28.13-.39.25l-.19.25c-.11.19-.17.39-.17.61l.04.32c.06.21.16.38.31.54h0Z"/>
          <path class="cls-2" d="M189.65,161.56c.18,0,.35-.03.51-.11.17-.05.31-.15.43-.28.13-.12.22-.26.28-.43.08-.16.12-.33.11-.51l-.05-.35c-.06-.23-.18-.42-.34-.59l-.27-.21c-.21-.12-.43-.18-.67-.18-.18,0-.35.03-.51.11-.17.05-.31.15-.43.28-.13.12-.22.26-.28.43-.08.16-.12.33-.11.51l.05.35c.06.23.18.42.34.59l.27.21c.21.12.43.18.67.18h0Z"/>
          <path class="cls-7" d="M202.54,70.46l1.9-.53.93-.26c.52-.15,1.25-.44,1.5-.96.32-.64.17-1.4-.47-1.79-.5-.31-1.26-.21-1.8-.05l-.93.28c-.63.19-1.26.38-1.89.57-.35.1-.66.34-.85.65s-.25.75-.14,1.09c.24.73.98,1.2,1.74.99h0Z"/>
          <path class="cls-7" d="M205.48,74.58l.42-.1.21-.05c.16-.04.31-.11.46-.18l.75-.34.21-.16c.1-.09.17-.2.21-.33.09-.2.12-.45.05-.66-.05-.17-.14-.32-.26-.45-.18-.19-.46-.29-.72-.3l-.85-.03c-.24,0-.49.05-.73.09l-.43.07c-.17.04-.31.12-.43.23-.14.09-.25.21-.33.36-.09.15-.14.3-.15.47-.04.17-.03.34.02.51.1.31.29.61.59.76s.64.21.98.13h0Z"/>
          <path class="cls-7" d="M214.81,161.9c.32-.09.65-.18.97-.28.24-.08.53-.15.74-.28.17-.1.26-.2.38-.34.11-.12.22-.24.3-.38.17-.3.19-.64.05-.96-.04-.13-.12-.25-.22-.35-.13-.13-.29-.23-.47-.28-.06-.03-.14-.04-.21-.05-.17-.03-.34-.08-.51-.07-.27,0-.53.1-.78.19-.31.11-.62.24-.93.36-.16.04-.31.11-.43.23-.14.09-.25.21-.32.35-.16.27-.23.67-.13.97s.29.6.58.75.64.22.97.13h0Z"/>
          <path class="cls-7" d="M217.14,170.09c1.38,0,1.38-2.15,0-2.15s-1.38,2.15,0,2.15h0Z"/>
          <path class="cls-2" d="M142.99,65.7c-2.16.65-4.33,1.39-6.11,2.8s-3.24,3.03-4.47,4.87-2.13,3.81-2.74,5.88-1.39,5.11.02,6.98c.75.99,2.02,1.05,2.76,0,.57-.82.76-1.93.91-2.9.12-.77.27-1.72.53-2.64.5-1.81,1.22-3.37,2.27-4.98.97-1.5,2.14-2.83,3.53-4.02,1.43-1.22,2.72-2.46,4.45-3.27,1.53-.72.45-3.19-1.14-2.71h0Z"/>
          <path class="cls-2" d="M131.45,93.35c0,.34.05.67.1,1s.21.64.34.92c0,.02.02.04.03.06l.02.03.26.33s.07.06.1.09c.15.13.32.26.48.38.3.22.67.33,1.03.29l.29-.04c.14-.03.27-.1.38-.2.08-.05.15-.12.2-.2.1-.11.16-.23.2-.38,0-.03.02-.05.03-.08l-.12.29c.05-.12.12-.25.16-.37.04-.15.06-.32.05-.47,0-.1-.01-.21,0-.31,0-.05,0-.1,0-.16,0-.08,0-.16-.03-.23,0-.09-.02-.17-.04-.25,0-.03-.01-.05-.02-.08-.03-.11-.05-.23-.07-.35l.06.45c-.03-.24-.07-.48-.1-.72l.06.45c-.02-.16-.03-.31-.02-.47,0-.23-.04-.45-.15-.65-.07-.21-.19-.39-.35-.55-.15-.17-.34-.28-.55-.35-.2-.11-.42-.15-.65-.15-.44.02-.89.16-1.2.5s-.49.74-.5,1.2h0Z"/>
          <path class="cls-2" d="M203.57,129.23c.11-.04.23-.07.35-.08l-.41.06c.24-.03.5-.02.75,0l-.41-.05c.11.02.22.04.33.07.27.07.53.07.8,0l.36-.15s.03-.02.04-.03c.02-.02.05-.03.07-.05.39-.26.64-.66.64-1.14,0-.02,0-.05,0-.07-.02-.28-.06-.52-.21-.77-.09-.18-.22-.32-.39-.42-.06-.05-.11-.09-.17-.13-.05-.03-.1-.05-.15-.07-.21-.09-.43-.19-.66-.25s-.48-.09-.72-.08-.47.04-.71.08c-.11.02-.23.05-.33.09-.2.05-.38.14-.53.28-.17.11-.3.26-.4.44-.11.18-.18.37-.18.58-.05.21-.04.41.03.62.12.38.35.74.71.93s.8.29,1.2.16h0Z"/>
          <path class="cls-2" d="M204.8,134.31h.31c.05,0,.1,0,.16,0,.13,0,.24-.01.37-.03.17-.02.34-.05.5-.07.09-.01.15-.05.25-.09.2-.09.37-.16.52-.34.03-.03.05-.06.08-.09.14-.13.23-.28.29-.45.09-.17.13-.35.12-.54l-.05-.37c-.07-.24-.19-.44-.36-.62-.02-.03-.05-.06-.07-.09l-.02-.03-.32-.24c-.1-.07-.28-.14-.42-.17-.17-.03-.35-.05-.52-.08-.13-.02-.23-.03-.36-.03h-.16c-.11,0-.22,0-.33,0-.22,0-.43.04-.63.14-.2.07-.38.18-.52.34-.16.15-.27.32-.34.52-.1.19-.15.4-.14.63l.06.43c.08.28.22.51.42.72l.33.25c.25.15.53.22.82.22h0Z"/>
        </g>
        <g>
          <path class="cls-2" d="M116.95,183.93s-5.69-18.4,14.23-31.62c19.93-13.22,34.91-1.36,36.74,12.07,1.71,12.51,1.63,17.9,1.63,17.9,0,0,14.4-.37,20.3,15.9,5.9,16.27-3.76,31.22-17.39,35.49-15.49,4.85-22.67-7.22-22.67-7.22,0,0-6.54,11.15-20.64,8.71-14.33-2.48-12.47-13.56-12.47-13.56,0,0-14.37,5.97-22.5-8.47-7.86-13.95,1.64-26.13,8.95-29.69,7.52-3.66,13.83.51,13.83.51Z"/>
          <path class="cls-9" d="M117.26,181.81c-5.11-2.21-11.53-1.68-16.27,1.24-5.67,3.49-9.09,10.45-9.92,16.87-.83,6.46.58,13.22,5.39,17.85,4.76,4.59,11.19,6.29,17.65,5.03,5.71-1.11,14.04-5.16,15.65-11.32.59-2.27-.09-4.87-1.97-6.37-2.15-1.71-4.62-1.03-6.72.35-5.1,3.34-7.67,9.93-6.83,15.87.87,6.13,5.35,11.3,10.96,13.71,6.91,2.97,14.95,1.38,20.78-3.17,2.76-2.16,5.3-5.1,6.19-8.56.53-2.05-.35-5.87-3.22-4.7-.78.32-1.17.93-1.01,1.79.82,4.68,1.92,9.92,5.8,13.09,3.68,3,8.92,3.4,13.47,2.85,9.29-1.12,18.03-7.02,22.48-15.27s3.89-18.15-.37-26.3c-4.38-8.37-13.52-15.54-23.41-14.19-7.42,1.01-20.51,8.11-17.47,17.57,1.39,4.31,5.87,4.01,9.27,2.35,4.22-2.07,7.57-5.75,9.65-9.92,4.79-9.6,4.66-23.46.25-33.18-4.62-10.18-14.41-13.8-25.03-12.27-11.13,1.61-21.57,8.8-26.05,19.26-4.32,10.09-2.71,22.07,4.26,30.54,1.25,1.52,3.41-.65,2.16-2.16-5.19-6.32-6.72-14.97-4.75-22.83,2.01-8.01,7.58-14.31,14.84-18.06,6.77-3.5,16.65-5.52,23.74-1.82,8.57,4.48,10.63,15.06,10.78,23.85.15,8.7-1.77,19.02-9.92,23.84-1.88,1.11-5.53,2.73-6.65-.3-.67-1.81.42-4.02,1.39-5.48,2.52-3.81,6.95-6.38,11.26-7.6,16.79-4.75,28.95,16.25,24.96,30.6-2.37,8.53-9.5,15.27-17.97,17.65-4.29,1.21-9.92,1.67-13.92-.69-4.22-2.49-5.16-7.87-5.98-12.29-.34.6-.68,1.19-1.01,1.79-.39.16-1.18,3.34-1.53,3.93-.69,1.15-1.57,2.18-2.52,3.12-1.8,1.76-3.99,3.18-6.34,4.12-4.46,1.77-9.57,1.83-13.91-.33-8.72-4.35-11.92-16.28-4.32-23.33.8-.74,2.07-1.94,3.19-2.11,2.28-.33,3.46,2.14,3.1,4.02-.53,2.76-3.47,5.04-5.63,6.55-4.15,2.9-9.4,4.41-14.44,3.81-5.03-.6-9.82-3.27-12.49-7.65-2.73-4.48-2.32-10.3-1.13-15.22,1.27-5.27,3.91-10.77,8.85-13.49,4.07-2.24,9.52-2.71,13.83-.89,1.21.51,2.11-1.61.9-2.13h0Z"/>
        </g>
      </g>
    </g>
  </g>
</svg>