<?xml version="1.0" encoding="UTF-8"?>
<svg id="Capa_2" xmlns="http://www.w3.org/2000/svg" viewBox="0 0 243.3 243.3">
  <defs>
    <style>
      .cls-1 {
        fill: #5a992f;
      }

      .cls-2 {
        fill: #fff;
      }

      .cls-3 {
        fill: none;
      }

      .cls-4 {
        fill: #4f3535;
      }

      .cls-5 {
        fill: #a4c78d;
      }

      .cls-6 {
        fill: #83b263;
      }

      .cls-7 {
        fill: #bfd7ae;
      }

      .cls-8 {
        fill: #6aa344;
      }

      .cls-9 {
        fill: #847272;
      }

      .cls-10 {
        fill: #c0c728;
      }
    </style>
  </defs>
  <g id="grocery_icons">
    <g>
      <rect class="cls-3" width="243.3" height="243.3"/>
      <g>
        <g>
          <g>
            <path class="cls-1" d="M148.94,34.02l-16.93-21.59s-39.68-.63-52.91-.63-52.91.63-52.91.63l-16.93,21.59s-.42,162.99,2.12,164.26c1.78.89,43.19.95,67.72.9,24.53.05,65.94-.01,67.72-.9,2.54-1.27,2.12-164.26,2.12-164.26Z"/>
            <path class="cls-4" d="M9.68,35.23c4.51.61,9.03.62,13.58.65,4.47.03,8.95.05,13.42.08,9.07.05,18.15.11,27.22.18,18.18.13,36.35.34,54.53.4,5.09.02,10.19.03,15.28.04,2.46,0,4.92,0,7.38.01,2.59,0,5.09.13,7.6-.61.88-.26.88-1.53,0-1.79-2.15-.63-4.22-.61-6.45-.61-2.3,0-4.61,0-6.91,0-4.47,0-8.94-.02-13.42-.03-9.07-.03-18.14-.05-27.22-.05-18.18,0-36.36-.04-54.53-.04-5.09,0-10.19,0-15.28.01-5.08.01-10.15-.05-15.19.63-.74.1-.74,1.05,0,1.15h0Z"/>
            <path class="cls-4" d="M9.51,34.37c2.82-.56,5.51-1.25,8.24-2.15,2.96-.98,5.91-1.97,8.82-3.06s5.9-2.26,8.82-3.47c1.29-.53,2.59-1.05,3.84-1.69,1.42-.72,2.93-1.09,4.38-1.69.76-.31,1.12-1.44.25-1.9-2.83-1.49-5.61-3.07-8.43-4.58-1.42-.76-2.86-1.49-4.32-2.17-1.53-.71-3.2-1.66-4.93-1.63-.85.01-1.4,1.13-.72,1.75,1.24,1.13,2.97,1.61,4.48,2.3,1.52.7,3.02,1.44,4.51,2.2,2.84,1.44,5.63,2.89,8.6,4.04l-.25-1.9c-1.34.72-2.54,1.6-3.99,2.13-1.43.53-2.83,1.13-4.25,1.71-2.93,1.19-5.88,2.32-8.85,3.41-2.92,1.08-5.83,2.18-8.75,3.25-2.61.95-5.08,2.01-7.58,3.19-.16.08-.04.3.11.27h0Z"/>
            <path class="cls-4" d="M148.41,34.31c-2.52-1.19-5.01-2.26-7.62-3.22-2.95-1.08-5.88-2.22-8.82-3.32-2.93-1.09-5.84-2.22-8.73-3.41-1.46-.6-2.89-1.23-4.37-1.77-1.47-.54-2.71-1.44-4.08-2.18l-.25,1.91c2.97-1.16,5.76-2.6,8.6-4.05,1.43-.73,2.87-1.44,4.33-2.11,1.56-.72,3.38-1.21,4.67-2.39.67-.61.13-1.73-.72-1.75-1.66-.02-3.26.87-4.74,1.54-1.53.7-3.02,1.47-4.51,2.26-2.82,1.5-5.6,3.08-8.43,4.57-.88.46-.52,1.6.25,1.91,1.43.58,2.92.94,4.3,1.64,1.29.66,2.62,1.2,3.95,1.76,2.94,1.23,5.91,2.4,8.89,3.54,2.88,1.1,5.79,2.09,8.71,3.07s5.56,1.66,8.46,2.24c.15.03.28-.2.11-.27h0Z"/>
            <path class="cls-4" d="M115.43,22.06c-.19-.44-.18-1,.03-1.46-.26,0-.52,0-.78,0-2.78,0-5.56,0-8.33.01-5.94,0-11.87.02-17.81.03-12.2.02-24.4,0-36.6.09-3.44.02-6.88.04-10.32.1.08.44.01.91-.18,1.28-.07.13-.16.25-.26.35,8.83.21,17.67.13,26.5.14,12.19.02,24.39.04,36.58.06,3.15,0,6.31.01,9.46.02.72,0,1.43,0,2.15,0-.19-.18-.34-.39-.44-.62Z"/>
          </g>
          <path class="cls-2" d="M131.56,61.1c-4.33-4.79-12.5-5.63-18.31-6.41-21.67-2.9-44.42-1.56-66.17-.04-8.18.57-18.6,1.32-23.81,8.93-1.54,2.24-1.39,6.69.61,8.67,3.09,3.07,8,3.31,12.41,3.72,6.14.57,12.28,1.1,18.44,1.47,11.67.7,23.38.97,35.07.81,10.73-.15,21.81.04,32.22-2.48,3.46-.82,7.02-2.33,9.18-5.48,2.65-3.87,2.45-6.87.35-9.19Z"/>
          <g>
            <path class="cls-4" d="M35.9,59.93c-.11.73-.2,1.55-.28,2.44-.08.89-.17,1.79-.25,2.71-.08.91-.16,1.8-.24,2.66-.07.86-.13,1.62-.17,2.27.71-.13,1.51-.27,2.38-.44.87-.17,1.76-.34,2.66-.52.9-.18,1.79-.33,2.66-.47.87-.14,1.66-.24,2.38-.3.06,0,.14.02.22.06.17.08.25.22.25.41,0,.27-.05.48-.16.61-.11.14-.23.24-.38.32-.15.07-.3.14-.46.2-.16.06-.3.16-.43.28-.65.17-1.36.35-2.14.54-.78.19-1.57.38-2.39.57-.82.19-1.64.38-2.46.57-.82.19-1.58.38-2.3.57-.65.17-1.14.05-1.48-.35-.34-.4-.47-1.05-.41-1.95.1-1.7.23-3.4.38-5.12.15-1.71.32-3.42.53-5.11.04-.36.16-.65.36-.88.2-.23.45-.37.74-.41.48-.06.77.06.87.36.09.3.13.63.11.99Z"/>
            <path class="cls-4" d="M48.08,72.62c-.1.36-.24.68-.41.96s-.35.45-.54.49c-.4.11-.7.04-.91-.19-.21-.23-.29-.52-.25-.88.17-1.26.44-2.59.82-3.98.38-1.4.82-2.79,1.32-4.19.5-1.4,1.05-2.75,1.65-4.06s1.21-2.5,1.84-3.57c.1-.17.23-.27.36-.3.14-.03.26-.03.36.02.1-.08.23-.16.38-.22.15-.06.29-.09.44-.09.06,0,.13.01.2.03.07.02.15.08.24.19.08.11.18.26.3.46.11.2.26.49.42.87.29,1.07.63,2.17,1.02,3.3.39,1.13.79,2.27,1.21,3.4.06-.02.12-.04.17-.05s.11-.03.17-.05c.23-.02.49,0,.79.03.29.04.49.19.6.44.13.31.1.59-.06.82-.17.23-.47.46-.91.69.27.67.55,1.33.82,1.97.27.64.56,1.26.85,1.87.02.11.05.27.09.49.04.22.07.44.08.66.01.22,0,.42-.05.61-.04.19-.13.32-.25.38-.15.06-.3.05-.46-.03s-.31-.19-.46-.33c-.15-.14-.28-.28-.39-.44s-.2-.3-.27-.42c-.36-.69-.7-1.39-1.02-2.09-.33-.7-.64-1.41-.93-2.12-.88.17-1.84.31-2.88.44-1.04.13-2.06.21-3.07.25-.23.8-.46,1.58-.68,2.34-.22.77-.42,1.54-.61,2.31ZM52.55,59.4c-.97,2.16-1.8,4.32-2.52,6.48,1.41-.04,2.91-.22,4.5-.54-.76-1.91-1.42-3.89-1.98-5.95Z"/>
            <path class="cls-4" d="M71.87,60.78c.08.38.17.82.25,1.34.08.51.14,1.05.17,1.61.03.56.04,1.13.02,1.72-.02.59-.08,1.15-.19,1.7-.13.63-.38,1.21-.76,1.73s-.84,1-1.38,1.42c-.52.42-1.11.76-1.75,1.02-.64.26-1.28.45-1.92.57-.64.12-1.27.14-1.89.06-.62-.07-1.17-.25-1.65-.52-.55-.31-.99-.72-1.32-1.23-.34-.5-.48-1.12-.44-1.86.04-.71.1-1.37.19-1.97.08-.6.19-1.17.33-1.71.14-.55.29-1.1.46-1.65.17-.56.35-1.14.54-1.75.1-.27.29-.43.57-.47.1-.02.23-.02.38,0,.06,0,.15.04.27.11.11.07.23.17.33.3.1.13.19.27.27.44.07.17.08.36.02.57-.19.67-.38,1.35-.57,2.05-.19.69-.35,1.35-.49,1.98-.14.63-.22,1.19-.25,1.68-.03.49.02.88.14,1.15.27.4.65.66,1.12.77s.97.13,1.5.05c.52-.08,1.03-.23,1.53-.42.49-.2.92-.41,1.27-.65.57-.38.98-.85,1.24-1.42.26-.57.42-1.19.49-1.86.06-.67.06-1.37-.02-2.11s-.17-1.46-.3-2.17c-.04-.19-.03-.43.03-.72.06-.29.23-.52.5-.69.29-.17.56-.15.8.06.24.21.41.5.52.88Z"/>
            <path class="cls-4" d="M86.89,59.71c-.15,1.78-.32,3.6-.52,5.46-.2,1.86-.47,3.6-.8,5.24-.08.4-.2.68-.35.85-.15.17-.36.28-.63.35-.23.04-.55-.03-.96-.22-.41-.19-.75-.46-1.02-.82-.36-.48-.74-1.01-1.15-1.59s-.85-1.17-1.32-1.76c-.47-.6-.97-1.19-1.48-1.78-.51-.59-1.05-1.13-1.62-1.64-.06,1.39-.12,2.75-.16,4.11-.04,1.35-.04,2.71,0,4.08,0,.19-.17.28-.5.28-.4,0-.72-.21-.98-.61-.25-.41-.4-.82-.44-1.24-.06-.42-.09-1.02-.09-1.81s.02-1.61.05-2.47c.03-.86.07-1.69.11-2.49.04-.8.08-1.43.13-1.89.04-.5.16-.87.36-1.1.2-.23.39-.33.58-.31.42.04.7.16.83.36.14.2.21.45.24.74.76.55,1.45,1.13,2.09,1.76.64.63,1.23,1.27,1.76,1.92.54.65,1.03,1.3,1.48,1.94.45.64.88,1.22,1.27,1.75.25-1.26.46-2.66.61-4.22.16-1.55.32-3.18.49-4.88-.02-.21.1-.41.38-.61.27-.2.52-.29.76-.27.59.04.88.34.88.88Z"/>
            <path class="cls-4" d="M89.44,60.15c-.31.13-.59.14-.82.03-.23-.1-.4-.24-.5-.41-.15-.21-.19-.43-.13-.66.06-.23.24-.43.53-.6.48-.27,1.09-.5,1.83-.68.73-.18,1.52-.23,2.36-.14.84.08,1.61.31,2.31.68.7.37,1.3.83,1.79,1.4s.87,1.21,1.13,1.94c.26.72.38,1.48.36,2.28-.04.84-.2,1.68-.49,2.52-.28.84-.67,1.63-1.16,2.36-.49.73-1.08,1.4-1.76,2-.68.6-1.43,1.07-2.25,1.4-.57.15-1,.17-1.29.06-.29-.1-.49-.23-.6-.38-.04-.1-.06-.25-.05-.42.01-.18.12-.36.33-.55-.25-2.04-.4-4-.46-5.9-.05-1.9-.08-3.64-.08-5.21-.36.06-.71.16-1.07.28ZM92.87,59.74c-.13-.02-.26-.04-.39-.05-.14,0-.27-.02-.39-.02.13.17.23.37.31.61s.13.48.13.71c0,1.28.02,2.65.05,4.12.03,1.47.13,3.05.3,4.75.92-.67,1.72-1.52,2.38-2.53.66-1.02,1.01-2.09,1.05-3.23.02-1.05-.24-1.98-.79-2.79-.55-.81-1.43-1.34-2.64-1.59Z"/>
            <path class="cls-4" d="M102.91,72.08c-.06-.78-.11-1.66-.14-2.64-.03-.99-.05-2-.05-3.04s0-2.06.02-3.07c.01-1.01.04-1.92.08-2.74,0-.21.1-.37.3-.49.2-.12.36-.16.49-.14.38.04.63.17.77.39.14.22.23.53.27.93-.02.67-.04,1.34-.05,2.01-.01.67,0,1.34.02,2.01.94-.17,1.74-.51,2.38-1.04s1.1-1.12,1.37-1.79c.1-.25.18-.56.24-.91.05-.36.06-.72.02-1.09s-.14-.71-.3-1.04c-.16-.32-.39-.58-.71-.77-.46-.27-.97-.42-1.51-.44-.55-.02-1.11.06-1.68.24-.58.18-1.14.46-1.7.83-.56.38-1.08.83-1.56,1.35.06.32.02.59-.13.83-.15.24-.36.42-.63.52-.17.04-.37-.05-.6-.27-.23-.22-.35-.45-.35-.68,0-.84.24-1.57.71-2.19.47-.62,1.06-1.14,1.78-1.56s1.48-.73,2.3-.94c.82-.21,1.57-.31,2.27-.31,1.03,0,1.89.3,2.58.9.69.6,1.16,1.35,1.42,2.25.44,1.57.33,2.99-.33,4.25s-1.74,2.35-3.23,3.27c1.09.67,2.11,1.31,3.07,1.92.95.61,1.91,1.27,2.88,1.98.13.13.27.31.42.55.16.24.13.6-.08,1.09-.13.29-.34.46-.65.49-.3.03-.6-.06-.9-.27-.46-.38-.98-.77-1.56-1.18-.58-.41-1.18-.82-1.81-1.23s-1.26-.81-1.89-1.2c-.63-.39-1.23-.75-1.79-1.09.02.84.04,1.67.05,2.5.01.83.04,1.64.08,2.44,0,.29-.08.5-.25.61-.17.12-.38.17-.63.17-.13-.02-.24-.09-.35-.2-.11-.12-.2-.25-.3-.41-.09-.16-.17-.31-.24-.47s-.09-.28-.09-.36Z"/>
            <path class="cls-4" d="M120.47,65.56c-.08.34-.16.82-.24,1.46-.07.64-.14,1.31-.19,2.01-.05.7-.09,1.38-.13,2.03-.03.65-.05,1.15-.05,1.51,0,.61-.34.91-1.01.91-.23,0-.45-.06-.65-.19-.2-.13-.3-.37-.3-.72,0-.88.03-1.84.09-2.86s.15-2.09.25-3.18c-.73-1.34-1.42-2.67-2.06-3.97-.64-1.3-1.18-2.5-1.62-3.59-.08-.19-.15-.39-.2-.61-.05-.22-.07-.43-.06-.61.01-.19.06-.35.14-.49.08-.14.23-.22.44-.27.23-.02.46,0,.68.05.22.05.41.19.58.42.17.44.38.94.63,1.51.25.57.51,1.14.79,1.73.27.59.55,1.15.82,1.68.27.54.51.99.72,1.37.94-1.26,1.84-2.55,2.69-3.87.85-1.32,1.64-2.58,2.38-3.78.27-.42.56-.65.85-.69s.54.02.72.19c.17.13.27.34.3.63.03.29,0,.56-.11.79-.36.63-.77,1.32-1.24,2.06s-.96,1.5-1.45,2.25c-.49.76-.98,1.5-1.46,2.24-.48.73-.92,1.4-1.32,1.98Z"/>
          </g>
          <g>
            <path class="cls-6" d="M59.33,97.74s3.74,10.74,16.48,8.24,10.49-15.73,10.49-15.73c0,0,8.24-7.16,11.32-7.24,3.74-.1,9.49,3.41,19.47,4.66s15.47-.06,16.14,1.83c.83,2.33-2.16,20.31-7.49,25.47-4.83,2.5-24.97-5.74-24.97-5.74,0,0,6.24,11.48,13.48,20.47s17.73,15.23,17.73,16.98-11.29,20.22-27.55,27.21c-16.64,7.16-28.13,5.49-30.62,4.74s-10.98-16.23-14.98-27.71c-3.99-11.48-4.99-19.72-4.99-19.72,0,0-12.4,18.14-14.15,19.39s-12.23-6.07-15.48-10.32c-3.25-4.24-4.99-9.32-4.99-9.32,0,0,8.9-7.41,13.65-13.15s10.65-16.14,15.15-19.14c2.89-1.93,11.32-.92,11.32-.92Z"/>
            <path class="cls-5" d="M21.5,130.06c1.79,3.94,4.37,7.6,7.53,10.57,3.05,2.87,6.99,5.56,11.06,6.73.88.25,1.51-1.11.64-1.52-1.88-.89-3.77-1.69-5.56-2.77-1.79-1.09-3.44-2.37-5.01-3.76-3.14-2.8-5.69-6.13-7.53-9.91-.37-.76-1.48-.1-1.13.66h0Z"/>
            <path class="cls-5" d="M74.89,175.81c1.05.17,2.1.27,3.17.26.5,0,1-.03,1.5-.08.55-.05,1.13-.09,1.66-.27.63-.22.57-1.25-.16-1.22-.5.02-.99.13-1.49.19-.48.06-.96.09-1.45.11-.97.03-1.94-.01-2.9-.15-.32-.05-.65.08-.74.42-.08.29.1.69.42.74h0Z"/>
            <path class="cls-5" d="M85.6,175.88c8.87-1.31,17.33-4.73,24.76-9.74,3.63-2.44,7.02-5.25,10.06-8.4,1.52-1.57,2.96-3.22,4.27-4.97,1.22-1.63,2.81-3.51,3.42-5.47.24-.77-.74-1.25-1.29-.75-1.49,1.37-2.53,3.35-3.82,4.92s-2.69,3.2-4.15,4.7c-3.06,3.14-6.42,5.96-10.07,8.38-7.15,4.75-15.24,7.92-23.68,9.46-1.24.23-.7,2.05.52,1.87h0Z"/>
            <path class="cls-5" d="M57.88,102.36c2.16,5.69,9.44,7.5,14.92,7.08,5.55-.43,12.08-3.14,15.04-8.11.28-.47-.36-.96-.75-.58-1.87,1.8-3.67,3.54-5.96,4.81-2.37,1.32-5.01,2.18-7.71,2.48-5.02.57-12.49-.58-14.6-5.94-.23-.58-1.17-.33-.94.26h0Z"/>
            <path class="cls-5" d="M89.47,94l-.02-.89c0-.15-.01-.3-.02-.45,0-.13-.01-.27-.05-.4-.02-.07-.05-.15-.07-.22-.1-.32-.41-.6-.77-.58s-.66.24-.77.58c-.02.07-.05.15-.07.22-.04.13-.04.27-.05.4,0,.15-.02.3-.02.45l-.02.89c0,.23.11.49.27.66s.42.28.66.27.49-.09.66-.27.28-.41.27-.66h0Z"/>
            <path class="cls-5" d="M123.24,113.16c2.31-3.22,3.71-7.22,4.76-11.01.53-1.93.95-3.89,1.23-5.88.14-.98.25-1.95.33-2.94.08-.92.21-1.8-.19-2.65-.21-.46-.9-.4-1.13,0-.46.8-.4,1.75-.48,2.65-.09.95-.2,1.89-.35,2.84-.3,1.91-.7,3.81-1.22,5.68-1.04,3.76-2.72,7.2-4.2,10.79-.32.76.83,1.1,1.25.53h0Z"/>
            <path class="cls-8" d="M90.13,128.7c.73.53,1.59.86,2.29,1.43,2.8,2.33,1.55,7.32,4.14,9.89,1.57,1.55,4.11,1.68,6.21,1.01,3.74-1.19,6.69-5,6.22-8.89-.31-2.63-2.01-4.86-3.63-6.95-2.61-3.35-7.56-9.89-12.58-8.02-4.31,1.61-6.83,8.48-2.64,11.53Z"/>
            <path class="cls-8" d="M42.04,125.98c.09,1.4.54,3.02,1.85,3.51,1.27.48,2.65-.38,3.6-1.35s1.81-2.15,3.11-2.56c1.87-.6,4.26.55,5.72-.77.41-.37.67-.9.83-1.43.66-2.24-.44-4.88-2.5-5.98-6.82-3.66-13.05,1.45-12.61,8.58Z"/>
            <path class="cls-8" d="M71.74,163.93c.2,1.99.87,4.14,2.59,5.16,1.13.67,2.6.73,3.77.14s2.01-1.8,2.15-3.1c.15-1.41-.47-2.8-.44-4.22.02-.92.31-1.81.38-2.72.15-1.94-.67-3.8-1.48-5.56-.42-.91-.89-1.88-1.78-2.34-5.37-2.75-5.43,10.3-5.2,12.64Z"/>
          </g>
        </g>
        <path class="cls-4" d="M139.49,45.4c.64.03,1.28.06,1.92.09l.46.02c.24.01.48-.03.72-.06.15-.02.3-.04.44-.09.46-.16.84-.55.84-1.07s-.38-.91-.84-1.07c-.14-.05-.29-.07-.44-.09-.24-.03-.47-.08-.72-.06l-.46.02c-.64.03-1.28.06-1.92.09-.58.03-1.14.49-1.11,1.11s.49,1.08,1.11,1.11h0Z"/>
        <path class="cls-4" d="M140.84,50.31c.34,0,.69-.01,1.03-.02.17,0,.34,0,.52-.02.08,0,.16,0,.24-.02.2-.02.31-.05.49-.11.2-.07.36-.17.48-.33.12-.16.21-.36.2-.57,0-.17-.05-.32-.13-.47-.11-.22-.34-.35-.56-.43-.17-.06-.29-.1-.49-.11-.08,0-.16-.01-.24-.02-.17-.01-.34-.01-.52-.02l-1.03-.02c-.27,0-.56.12-.75.31s-.32.49-.31.75.1.56.31.75.47.32.75.31h0Z"/>
        <path class="cls-4" d="M16.75,190.37c.8.01,1.59-.05,2.39-.11l1.15-.08c.68-.05,1.48-.07,1.85-.75.26-.47.15-.97-.18-1.36-.43-.52-1.17-.41-1.77-.34l-1.15.13c-.87.1-1.73.2-2.59.37-.53.11-.84.69-.78,1.19.07.53.52.93,1.07.94h0Z"/>
        <path class="cls-4" d="M16.98,185.33l1.31-.1.63-.05c.57-.04,1.12-.09,1.44-.65.12-.22.16-.46.13-.71s-.14-.44-.3-.64c-.32-.38-.82-.38-1.27-.34l-.66.06-1.29.12c-.31.03-.58.11-.81.34-.2.2-.35.52-.34.81s.11.6.34.81.51.36.81.34h0Z"/>
        <path class="cls-4" d="M15.96,180.41l.49-.12c.15-.04.29-.09.44-.15l.43-.18c.15-.06.33-.11.47-.2.12-.07.25-.2.37-.29.13-.13.22-.28.26-.45.05-.18.05-.36,0-.55-.09-.32-.37-.65-.72-.72-.15-.03-.34-.08-.48-.07-.08,0-.16.01-.24.02l-.45.04c-.25.02-.5.05-.75.11l-.49.12c-.3.08-.6.31-.75.58-.09.14-.14.3-.15.47-.04.17-.03.34.02.5.1.31.29.6.58.75s.63.21.97.13h0Z"/>
      </g>
      <g>
        <g>
          <path class="cls-10" d="M233.32,130.99c-2.48-12.13-21.3-35.17-30.21-45.07-8.92-9.91-17.33-19.81-17.33-19.81l-25.26,1.49s-33.18,50.02-35.91,57.7c-2.72,7.68-5.2,21.05-4.71,44.82.5,23.77.99,49.78,5.2,54.48,4.21,4.71,21.79,12.38,56.46,12.13,34.67-.25,48.29-9.41,49.78-14.86,1.49-5.45,4.46-78.75,1.98-90.88ZM221.23,150.12c-.12,2.59-.4,5.17-.77,7.74-.35,2.42-.69,4.93-1.52,7.24-1.6,4.48-5.35,7.47-10.12,7.84-4.49.35-8.64-2.24-11.06-5.9-2.73-4.13-2.74-9.35-3.2-14.1-.57-5.9-1.11-11.8-1.34-17.72-.17-4.48-.12-8.95.11-13.43.17-3.35-.16-7.46,1.74-10.4,3.9-6.05,12.71,4.57,15.32,7.29,4.52,4.72,7.99,10.44,9.55,16.7,1.19,4.8,1.53,9.81,1.3,14.74Z"/>
          <path class="cls-4" d="M194.03,67.9c-.02-.54-.06-1.06-.08-1.55-.17-3.6-.23-7.38-.86-10.93-.76-4.21-5.86-5.01-9.4-5.09-.72-.02-1.07.49-1.08,1.03-6.61-.56-17.45-1.04-18.24-1.03-3,.07-7.4.59-8.93,3.63-2.15,4.29-2.16,12.04-1.26,16.69.9,4.65,7.92,5.04,11.57,5.47,4.37.51,8.79.71,13.18.32,3.78-.33,8.72-.85,12.12-2.64,2.47-1.3,3.09-3.31,2.99-5.9Z"/>
          <path class="cls-1" d="M161.05,57.42s3.63,2.6,13.27,2.79c8.73.17,12.57-2.36,12.92-3.4s3.67-21.56-6.89-24.26c-10.64-2.73-16.84.26-18.59,7.59s-.7,17.28-.7,17.28Z"/>
          <path class="cls-2" d="M170.2,36.6c-.57-.43-1.55-.13-2.1.2-.44.26-.86.62-1.21.99-.79.85-1.26,1.96-1.53,3.08-.15.63-.22,1.28-.27,1.92-.07.91-.02,1.86.77,2.47.54.42,1.29.48,1.88.13.51-.3.81-.84.95-1.39.16-.63.12-1.35.2-1.99l-.07.49c.04-.32.09-.65.13-.97l-.07.49c.07-.49.17-.97.33-1.43.03-.09.08-.18.1-.28-.12.27-.14.32-.06.15.02-.05.04-.09.06-.13.02-.04.04-.09.07-.13.21-.5.23-.56.08-.18.06-.07.09-.18.13-.27.09-.17.2-.33.3-.5.16-.26-.23.28.02-.03.13-.16.25-.34.38-.49l-.11.14s.08-.1.12-.15c.11-.13.23-.26.32-.41.37-.63.13-1.31-.42-1.73h0Z"/>
          <path class="cls-2" d="M167.16,50.61c2.02,0,2.02-3.13,0-3.13s-2.02,3.13,0,3.13h0Z"/>
          <path class="cls-9" d="M156.05,59.11c.33.53.75.95,1.25,1.31.2.14.41.27.63.37.06.03.11.05.17.07.13.06.24.08.39.09.06,0,.11,0,.17,0,.23,0,.48,0,.67-.14.13-.1.23-.19.3-.35.06-.14.09-.33.04-.47s-.12-.29-.23-.4c-.08-.08-.18-.14-.27-.2l.17.13c-.13-.1-.26-.24-.41-.32-.09-.05-.19-.09-.28-.14-.19-.1-.37-.22-.54-.35l.19.14c-.23-.18-.44-.38-.62-.61l.14.19c-.06-.08-.13-.17-.18-.26-.13-.2-.32-.36-.55-.42s-.51-.03-.71.09-.37.31-.42.55-.04.5.09.71h0Z"/>
          <path class="cls-9" d="M165.63,63.34c4.79,1.2,9.54,1.84,14.46,1.07,2.13-.33,4.2-.92,6.19-1.74,1.84-.76,3.97-1.78,5.32-3.28.62-.69-.1-1.91-1-1.39-1.64.95-3.08,2.08-4.84,2.85-1.88.83-3.88,1.37-5.9,1.71-4.51.74-9.39.48-13.85-.42-.78-.16-1.18,1.01-.38,1.21h0Z"/>
          <path class="cls-1" d="M185.69,114.96s-.48-4.82-6.92-6.5c-6.44-1.69-24.57-3.13-33.88,5.3-9.31,8.43-11.45,16.86-13.36,37.58s-2.15,50.35,6.2,60.71,27.92,11.8,52.97,10.36c25.05-1.45,29.82-13.49,28.87-20.48-.95-6.99-4.77-13.73-13.12-18.55-8.35-4.82-18.85-11.8-19.56-26.26s1.43-36.86-1.19-42.16Z"/>
          <g>
            <g>
              <path class="cls-6" d="M209.67,200.86c-1.22-1.54-2.99-2.18-4.15-3.71-.72-.95-1.03-2.12-1.84-3.03-1.45-1.62-3.63-2.35-5.73-2.68-2.9-.46-5.86-.58-8.79-.73-6.36-.33-12.72-.59-19.08-.79-5.87-.19-11.83-.54-17.67.21-5,.65-11.13,2.12-14.49,6.21-1.56,1.9-2.4,4.52-1.71,6.94.64,2.27,2.53,3.85,4.61,4.82,11.13,5.19,23.96,2.32,35.72,2.46,6.84.08,13.64,1.78,20.48,1.46,3.18-.15,6.49-1.06,9.13-2.88,2.03-1.41,5.53-5.17,3.87-7.78-.11-.18-.23-.34-.35-.49Z"/>
              <path class="cls-5" d="M210.92,201.74c-.43-1.26-1.67-2.36-2.86-2.89-.38-.17-.75-.28-1.14-.38.66-2.95-2.11-6.08-4.72-7.22-4.03-1.77-9.43-1.5-13.42.22-3.81,1.64-6.95,5.07-7.65,9.23-.56,3.3.35,6.8,2.69,9.24,3.94,4.12,10.54,3.28,15.62,2.55,2.99-.42,6.03-1.18,8.52-2.97,1.14-.82,2.18-1.82,2.83-3.09.76-1.48.67-3.16.13-4.71ZM209.81,203.49c-.19.76-.63,1.61-1.06,2.27-1.64,2.5-5.01,3.69-7.78,4.34-2.47.57-5.03.81-7.56.69-2.34-.11-5.02-.32-6.98-1.73-1.71-1.23-2.81-3.47-3-5.53-.3-3.41,1.43-6.61,4.26-8.46,3.1-2.03,6.82-2.39,10.44-2.08,1.94.17,4.02.48,5.48,1.9.99.96,1.48,2.11,1.6,3.37-.82-.03-1.65.02-2.49.08-2.19.16-4.36.23-6.54.43-1.07.1-2.14.19-3.21.29-1.02.09-2.15.06-3.04.62-.87.54-.6,1.68.26,2.03.94.37,2,.12,2.97,0,.94-.11,1.88-.23,2.81-.35,2-.25,3.99-.63,5.99-.87,1.97-.23,4.28-.71,6.15.14,1.03.47,2.01,1.63,1.71,2.86Z"/>
              <path class="cls-5" d="M142.03,201.06c1.72.11,3.44.27,5.16.42.83.07,1.65.11,2.48.18,1.07.09,2.24.13,3.08-.68.42-.41.55-1.18.22-1.68-.7-1.06-1.93-1.26-3.1-1.34-.89-.06-1.78-.12-2.67-.1-1.86.05-3.68.28-5.51.61-.64.12-1.04.85-.95,1.45.1.67.63,1.1,1.3,1.15h0Z"/>
              <path class="cls-5" d="M157.41,202.45l1.15.18c.19.03.37.06.56.09.16.02.33.06.5.06.14,0,.33-.04.49-.07l.3-.05.34-.14c.17-.09.3-.21.4-.37.19-.24.32-.55.31-.86-.01-.25-.08-.49-.19-.72-.17-.32-.51-.54-.85-.65-.31-.1-.57-.19-.9-.19h-.57c-.38-.02-.76-.02-1.14-.03-.34,0-.76.16-.99.41l-.22.28c-.1.16-.16.34-.17.52-.03.12-.03.25,0,.37,0,.19.06.36.17.52.18.29.49.59.84.65h0Z"/>
            </g>
            <g>
              <path class="cls-5" d="M195.37,184.64c-.96-1.21-2.34-1.71-3.26-2.91-.57-.75-.81-1.67-1.45-2.38-1.14-1.27-2.85-1.85-4.49-2.1-2.28-.36-4.6-.45-6.9-.57-4.99-.26-9.98-.46-14.98-.62-4.61-.15-9.28-.42-13.87.17-3.93.51-8.73,1.66-11.37,4.87-1.23,1.49-1.88,3.55-1.34,5.45.51,1.79,1.99,3.02,3.62,3.78,8.74,4.07,18.8,1.82,28.03,1.93,5.37.06,10.71,1.39,16.08,1.14,2.5-.12,5.1-.83,7.17-2.26,1.59-1.1,4.34-4.06,3.04-6.11-.09-.14-.18-.27-.28-.39Z"/>
              <path class="cls-6" d="M196.35,185.32c-.34-.99-1.31-1.85-2.25-2.27-.29-.13-.59-.22-.89-.3.52-2.31-1.66-4.77-3.7-5.67-3.16-1.39-7.4-1.18-10.53.17-2.99,1.29-5.45,3.98-6.01,7.24-.44,2.59.28,5.34,2.11,7.26,3.09,3.23,8.27,2.57,12.26,2,2.35-.33,4.73-.93,6.69-2.33.9-.64,1.71-1.43,2.22-2.42.6-1.16.52-2.48.1-3.7ZM195.48,186.7c-.15.6-.5,1.26-.83,1.78-1.29,1.96-3.93,2.9-6.11,3.4-1.94.45-3.94.63-5.94.54-1.84-.09-3.94-.25-5.48-1.36-1.34-.96-2.21-2.72-2.35-4.34-.24-2.68,1.12-5.19,3.34-6.64,2.43-1.59,5.35-1.88,8.19-1.63,1.53.13,3.15.38,4.3,1.49.77.75,1.16,1.66,1.26,2.64-.64-.03-1.3.01-1.96.06-1.72.12-3.42.18-5.14.34-.84.08-1.68.15-2.52.22-.8.07-1.69.05-2.39.49-.68.43-.47,1.32.21,1.59.74.29,1.57.1,2.33,0,.74-.09,1.47-.18,2.21-.27,1.57-.2,3.13-.49,4.7-.68,1.55-.18,3.36-.56,4.83.11.81.37,1.58,1.28,1.34,2.24Z"/>
              <path class="cls-6" d="M142.28,185.07c.38.04.75.08,1.12.12.07,0,.59.08.25.03.29.04.58.09.88.12.7.08,1.4.13,2.1.19.69.06,1.4.13,2.1.16.57.02,1.1-.06,1.61-.32.56-.29.97-.79.97-1.44s-.51-1.3-1.08-1.6c-.5-.26-1.1-.34-1.65-.39-.69-.05-1.4-.1-2.1-.08-1.55.05-3.04.27-4.55.6-.64.14-1.03.84-.95,1.45.09.69.63,1.08,1.3,1.15h0Z"/>
              <path class="cls-6" d="M154.27,186.17l.89.15c.15.03.29.05.44.08.15.03.32.05.48.06s.32-.03.47-.07l.23-.05.34-.14c.17-.09.3-.21.4-.37.09-.09.15-.19.18-.31.09-.17.13-.35.12-.55l-.05-.38-.14-.34c-.09-.17-.21-.3-.37-.4-.14-.13-.3-.21-.48-.25l-.21-.09c-.18-.07-.38-.1-.58-.1h-.45c-.3,0-.6,0-.9,0-.19,0-.37.03-.54.12-.17.06-.32.15-.45.29l-.22.28c-.1.16-.16.34-.17.52-.03.12-.03.25,0,.37,0,.19.06.36.17.52.19.29.48.58.84.65h0Z"/>
            </g>
          </g>
        </g>
        <path class="cls-7" d="M152.25,124.34s.07,5.72-3.34,8.78c-3.06,2.75-6.52,3.11-6.52,3.11,0,0,4.5,1.62,6.73,4.4,2.08,2.6,3.13,7.45,3.13,7.45,0,0,.39-5.08,3.62-8.21,2.64-2.55,5.83-4,5.83-4,0,0-3.75-.25-6.32-2.96-2.22-2.34-3.13-8.57-3.13-8.57Z"/>
        <path class="cls-7" d="M169.35,148.16s.04,3.27-1.91,5.03c-1.75,1.57-3.73,1.78-3.73,1.78,0,0,2.58.93,3.85,2.52,1.19,1.49,1.79,4.26,1.79,4.26,0,0,.22-2.91,2.07-4.7,1.51-1.46,3.34-2.29,3.34-2.29,0,0-2.14-.14-3.62-1.7-1.27-1.34-1.79-4.91-1.79-4.91Z"/>
        <path class="cls-4" d="M222.42,219.36c1.07.15,2.13.13,3.17-.16,1.15-.32,2.26-.96,2.69-2.13.12-.32-.02-.71-.25-.94-.26-.26-.59-.31-.94-.25-.18.04-.35.12-.53.18-.27.09-.52.18-.78.31-.09.04-.19.08-.27.13l.17-.07-.31.13s-.09.05-.13.07c-.09.04-.19.08-.27.13.04-.03.26-.1.1-.04-.06.02-.12.05-.18.07-.38.14-.77.22-1.16.3-.16.03.26-.03.1-.01-.05,0-.1.01-.15.02-.1,0-.2.02-.3.02-.21,0-.43,0-.64,0-.57-.03-1.06.46-1.13,1-.07.51.26,1.18.82,1.26h0Z"/>
        <path class="cls-4" d="M222.62,213.51c.54-.07,1.09-.14,1.63-.24.26-.05.54-.07.79-.16.26-.1.52-.19.78-.29.48-.18.81-.59.74-1.13s-.49-.85-1.01-.89c-.28-.02-.55-.05-.83-.07s-.56.04-.83.06c-.65.07-1.29.17-1.94.26-.29.04-.62.34-.76.58-.16.27-.23.67-.13.98s.29.6.58.76l.3.13c.23.06.45.06.68,0h0Z"/>
        <path class="cls-4" d="M225.29,133.8c.16-.11.32-.2.49-.27l-.34.14c.23-.1.48-.16.73-.2l-.38.05c.18-.02.36,0,.55-.03.09,0,.17-.01.26-.01.42,0,.81-.1,1.12-.41s.5-.85.34-1.3c-.03-.09-.09-.26-.14-.34-.12-.2-.3-.37-.49-.49-.11-.07-.31-.13-.45-.18-.1-.03-.2-.06-.31-.08-.46-.08-.88-.04-1.33.05-.26.05-.5.14-.75.24-.26.11-.5.22-.73.39-.17.09-.3.21-.4.37-.13.14-.21.3-.25.48-.09.34-.05.79.14,1.09s.49.57.85.65.78.07,1.09-.14h0Z"/>
        <path class="cls-4" d="M226.45,139.37c1.53,0,1.53-2.37,0-2.37s-1.53,2.37,0,2.37h0Z"/>
        <path class="cls-2" d="M130.56,124.41l1.6.04c.66.02,1.31.07,1.96-.07l.39-.16c.19-.1.34-.24.45-.42.21-.27.36-.63.35-.98-.01-.29-.09-.56-.22-.82-.18-.33-.6-.67-.97-.74-.65-.14-1.31-.09-1.96-.07l-1.6.04c-.41.01-.83.17-1.13.47-.28.28-.48.73-.47,1.13s.15.84.47,1.13.69.45,1.13.47h0Z"/>
        <path class="cls-2" d="M128.24,132.89c2.17,0,2.18-3.38,0-3.38s-2.18,3.38,0,3.38h0Z"/>
        <path class="cls-2" d="M157.1,94.57c1.98,0,1.99-3.08,0-3.08s-1.99,3.08,0,3.08h0Z"/>
        <path class="cls-2" d="M129.17,219.79l1.42.02c.24,0,.48-.03.71-.05l.33-.03c.05,0,.11,0,.16-.01.27,0,.51-.07.74-.2.11-.08.22-.17.33-.25.14-.13.24-.28.3-.46.09-.17.13-.36.12-.55-.02-.35-.13-.79-.42-1.02-.11-.09-.22-.17-.33-.25-.17-.11-.35-.17-.55-.17-.12-.02-.24-.03-.36-.04l-.33-.03c-.24-.02-.47-.05-.71-.05l-1.42.02c-.4,0-.81.17-1.09.45-.27.27-.47.71-.45,1.09s.15.81.45,1.09.67.45,1.09.45h0Z"/>
        <path class="cls-2" d="M135.22,225.62c2.3,0,2.3-3.58,0-3.58s-2.3,3.58,0,3.58h0Z"/>
        <path class="cls-4" d="M222.08,148.23c-.42-10.91-4.17-22.2-10.95-30.87-2.88-3.69-6.55-8.11-11.6-8.72-3.62-.43-5.69,2.14-6.55,5.36-1.01,3.8-.97,8.03-1.24,11.92-.7,10.09-1.08,20.3.39,30.34.76,5.18,2.59,10.57,6.66,14.1,3.45,3,8.49,4.84,12.98,3.24,4.62-1.64,7.19-6.04,8.55-10.51,1.45-4.77,1.95-9.9,1.76-14.87ZM219.11,155.86c-.51,4.12-1.57,8.63-4.21,11.95-2.7,3.4-6.95,4.41-10.91,2.65-4.31-1.92-6.72-5.89-7.99-10.27-1.43-4.96-1.62-10.23-1.77-15.36-.16-5.71,0-11.43.32-17.14.17-3.11.39-6.23.62-9.34.15-1.98.16-4.72,1.71-6.21,1.83-1.77,4.58-.14,6.3.95,4.37,2.77,7.08,7.1,9.51,11.56,2.53,4.65,4.47,9.64,5.61,14.81.22,1,.41,2,.57,3.01.7,4.41.8,8.95.25,13.38Z"/>
      </g>
    </g>
  </g>
</svg>