<?xml version="1.0" encoding="UTF-8"?>
<svg id="Capa_2" xmlns="http://www.w3.org/2000/svg" viewBox="0 0 243.3 243.3">
  <defs>
    <style>
      .cls-1 {
        fill: #f1bdb4;
      }

      .cls-2 {
        fill: #c1a9c8;
      }

      .cls-3 {
        fill: #a783b0;
      }

      .cls-4 {
        fill: #fff;
      }

      .cls-5 {
        fill: #9a72a5;
      }

      .cls-6 {
        fill: none;
      }

      .cls-7 {
        fill: #e58473;
      }

      .cls-8 {
        fill: #814f8f;
      }

      .cls-9 {
        fill: #4f3535;
      }

      .cls-10 {
        fill: #c6dbeb;
      }

      .cls-11 {
        fill: #986ea3;
      }
    </style>
  </defs>
  <g id="grocery_icons">
    <g>
      <rect class="cls-6" width="243.3" height="243.3"/>
      <g>
        <g>
          <g>
            <path class="cls-11" d="M224.97,173.41c-.11.64-.21,1.27-.32,1.89-1.18,6.59-2.97,12.55-5.48,17.43-12.06,23.41-30.14,28.73-64.19,22.34-33.82-6.34-37.95-57.82-38.3-58.88-.36-1.06-1.43-26.95,7.09-52.49,8.51-25.54,31.22-39.37,31.22-39.37,0,0,31.92-1.42,37.94,3.19,6.03,4.61,18.09,15.25,25.9,34.05.19.45.37.91.55,1.4.27.71.53,1.46.79,2.23,5.26,15.8,8.49,45.26,4.81,68.19Z"/>
            <path class="cls-8" d="M189.86,41.05c-8.75-5.44-25.77-5.2-34.99-.47s-8.04,21.75-7.33,26.01c.71,4.26,4.26,10.64,17.26,13.48,13,2.84,21.9-1.77,26.25-5.2,8.98-7.09,7.57-28.37-1.18-33.81Z"/>
            <path class="cls-9" d="M186.02,48.2c1.77-5.5-3.72-7.63-12.95-7.98s-16.02,3.04-14.54,7.27c2.48,7.09,25.71,6.21,27.49.71Z"/>
            <path class="cls-5" d="M152.31,51.99c1.72,3.37,5.81,5.45,9.23,6.54,6.48,2.06,14.15,1.67,20.68.02,3.75-.95,7.3-2.58,10.16-5.22,1.19-1.1-.53-2.71-1.74-1.74-6.29,5.03-15.43,6.14-23.23,5.42-3.28-.3-6.51-1.18-9.45-2.67-1.54-.78-3.26-1.68-4.26-3.16-.58-.86-1.87-.12-1.39.81h0Z"/>
            <path class="cls-5" d="M154.76,54.07c-.12.76-.33,1.48-.39,2.25-.06.82-.02,1.67-.02,2.49,0,1.75.09,3.51.19,5.26s.21,3.38.34,5.07c.12,1.5.01,3.35.71,4.72.26.51,1,.34,1.16-.15.45-1.45.03-3.25-.07-4.75-.1-1.63-.19-3.26-.26-4.89-.07-1.63-.09-3.27-.14-4.9-.02-.83-.02-1.67-.05-2.5s-.22-1.63-.3-2.45c-.07-.6-1.05-.88-1.17-.16h0Z"/>
            <path class="cls-5" d="M165.39,58.31c-.17,3.55-.05,7.12-.03,10.67,0,1.78.03,3.56.05,5.33s-.06,3.43.22,5.11c.11.66,1.25.67,1.35,0,.25-1.69.14-3.41.14-5.11,0-1.78-.02-3.56-.04-5.33-.04-3.55.01-7.12-.21-10.67-.06-.94-1.43-.95-1.47,0h0Z"/>
            <path class="cls-5" d="M175.98,59.2c-.21,3.37-.2,6.74-.24,10.12-.02,1.69-.05,3.38-.02,5.06.03,1.52-.18,3.39.31,4.84.2.59,1.03.61,1.22,0,.45-1.48.21-3.31.24-4.84.03-1.69,0-3.38.01-5.06.02-3.38.15-6.75.13-10.12,0-1.08-1.59-1.06-1.66,0h0Z"/>
            <path class="cls-5" d="M186.28,56c-.08,3.29.02,6.57.04,9.86s-.04,6.43.41,9.61c.07.47.85.45.93,0,.6-3.15.6-6.41.6-9.61,0-3.29-.02-6.58-.3-9.86-.09-1.06-1.65-1.1-1.68,0h0Z"/>
            <path class="cls-11" d="M165.03,26.62l-.24,21.75s4.44,1.99,8.28,1.66c3.82-.34,5.2-1.89,5.2-1.89l-.24-22.46-13,.95Z"/>
            <path class="cls-9" d="M166.78,35.63c1.49.05,2.99.04,4.48.02,1.8-.02,3.44-.04,5.1-.51.39-.11.78-.24,1.16-.38.33-.13.38-.15.15-.06.16-.07.31-.15.46-.23l-.09-8.79-13,.95-.1,8.93c.61.04,1.23.06,1.85.08Z"/>
            <path class="cls-3" d="M166.92,32.77c10.64,0,19.86-1.18,21.52-8.04,1.66-6.86-2.6-12.3-13.24-11.11-10.64,1.18-44.45,3.78-56.75,6.86-6.98,1.74-8.75,6.86-3.78,9.46s41.61,2.84,52.25,2.84Z"/>
            <path class="cls-2" d="M224.97,173.41c-.11.64-.21,1.27-.32,1.89-14.63,5.47-33.26,7.45-34.56,5.36-1.78-2.83-1.15-67.37-1.15-67.37,0,0,7.3-.24,17.93-2.73,6.97-1.62,9.7-3.6,13.29-5.34,5.26,15.8,8.49,45.26,4.81,68.19Z"/>
          </g>
          <path class="cls-9" d="M146.97,69.56c.62,3.67,4,6.3,7.01,8.09,3.52,2.1,7.35,3.95,11.39,4.81,7.24,1.54,14.86.26,21.42-3.09,1.87-.96,3.64-2.1,5.3-3.39s3.46-2.71,4.59-4.48c.83-1.31-.95-2.42-2.01-1.55-1.27,1.04-2.32,2.33-3.59,3.39s-2.65,2.01-4.09,2.86c-2.86,1.68-5.96,2.9-9.19,3.62-7.1,1.58-13.91.26-20.29-3.09-3.51-1.84-6.95-3.9-8.52-7.72-.51-1.23-2.24-.79-2.01.55h0Z"/>
          <path class="cls-9" d="M199.32,201.12c1.2.07,2.4.04,3.59-.09.67-.07,1.34-.17,2-.29.29-.06.59-.12.88-.19.45-.1.76-.32,1.12-.6.67-.54.33-1.88-.53-2.01-.47-.07-.84-.08-1.3.03-.29.07-.58.14-.88.2-.25.05-.5.1-.76.14-.17.03-.34.05-.51.08.24-.03-.1.01-.16.02-1.15.13-2.31.17-3.46.12-.68-.03-1.34.62-1.31,1.31.03.74.57,1.26,1.31,1.31h0Z"/>
          <path class="cls-9" d="M203.55,194.42c.46.06.91.12,1.38.11s.92-.07,1.37-.15.86-.26,1.28-.44c.38-.17.72-.49,1.02-.78.33-.32.42-.92.17-1.31-.27-.42-.74-.61-1.22-.5-.19.04-.39.08-.59.11l.33-.04c-.22.03-.45.04-.66.1-.13.03-.26.07-.39.09-.26.05-.53.1-.8.14l.37-.05c-.54.07-1.08.07-1.61,0l.37.05c-.09-.01-.18-.03-.27-.04-.38-.07-.74-.06-1.08.14-.29.17-.57.5-.65.84-.08.36-.06.76.14,1.08.18.28.49.6.84.65h0Z"/>
          <path class="cls-9" d="M214.92,129.46l.53-.21c.09-.04.18-.08.28-.11s.14-.05.21-.1l.05-.04.24-.17.24-.19c.12-.11.2-.24.25-.38.05-.09.08-.19.08-.3.04-.16.03-.32-.02-.48l-.12-.28-.19-.24c-.11-.12-.24-.2-.38-.25-.14-.07-.3-.11-.46-.1h-.28c-.2.01-.4.04-.59.09l-.55.16c-.18.04-.33.12-.46.24-.15.1-.26.22-.35.38-.1.16-.15.32-.16.5-.04.18-.03.36.02.54l.14.32c.12.2.28.37.49.49l.32.14c.24.06.48.06.72,0h0Z"/>
          <path class="cls-9" d="M215.63,137.91h.92c.08,0,.15.01.23.01.03,0,.07,0,.1,0,.02,0,.05,0,.07,0,.17,0,.33-.03.47-.11.17-.07.33-.15.5-.23.32-.15.51-.55.51-.89s-.19-.74-.51-.89c-.12-.06-.24-.11-.35-.17-.19-.11-.4-.17-.62-.17-.02,0-.05,0-.07,0-.03,0-.07,0-.1,0h-.23c-.31,0-.61,0-.92.01s-.64.13-.86.36c-.21.21-.37.56-.36.86s.12.64.36.86.53.35.86.36h0Z"/>
          <path class="cls-9" d="M214.92,149.99c.68,0,.69-1.06,0-1.06s-.69,1.06,0,1.06h0Z"/>
          <path class="cls-4" d="M144.54,81.23c-2.35,2.97-4.63,5.96-6.45,9.3-1.64,3.01-3.92,6.77-3.61,10.29.22,2.46,3.15,4.06,5.08,2.1,2.32-2.35,3.16-5.91,4.61-8.84,1.55-3.14,3.24-6.22,5.21-9.11,1.95-2.85-2.66-6.5-4.85-3.74h0Z"/>
          <path class="cls-4" d="M130.99,114.47c-.03.22-.06.44-.09.66-.13.9-.13,1.26.04,2.18.11.6.38,1.14.64,1.68.82,1.68,3.27,1.8,4.5.58.92-.92,1.5-1.93,1.75-3.21.18-.95.14-1.87-.36-2.73-.43-.73-1.27-1.44-2.12-1.63-.91-.21-1.92-.16-2.73.36-.72.46-1.5,1.23-1.63,2.12h0Z"/>
        </g>
        <g>
          <path class="cls-7" d="M42.89,138.51c9.38-11.49,45.3-9.31,67.33-9.31s36.92.31,41.58,12.1c4.65,11.79,5.27,51.82,0,64.85-5.27,13.03-11.79,12.41-31.96,13.03s-64.23,1.55-73.85-1.24c-9.62-2.79-12.72-67.64-3.1-79.43Z"/>
          <path class="cls-9" d="M53.01,144.12c8.29-.38,16.55-1.08,24.85-1.38,9.46-.34,18.95-.45,28.41.08,7.65.42,15.62,1.03,22.9,3.62.33.12.66.24.98.37.09.04.55.23.3.12.17.07.35.15.52.23.61.28,1.21.58,1.78.91,1.42.82,2.61,1.88,3.52,3.26,2.58,3.94,3.24,8.99,3.47,13.59.29,5.84.28,11.75.19,17.6-.1,6.52-.47,13.07-1.51,19.51-.28,1.74-.63,3.43-.72,5.19-.04.72.58,1.35,1.27,1.44.77.09,1.34-.35,1.6-1.05.65-1.68.91-3.41,1.19-5.19.28-1.76.51-3.53.7-5.3.37-3.37.59-6.75.68-10.14.19-6.32.01-12.65-.1-18.97-.09-4.98-.46-10.16-2.32-14.82-.9-2.26-2.13-4.46-3.97-6.1-1.14-1.01-2.46-1.81-3.83-2.46-6.82-3.22-14.78-3.97-22.2-4.48-9.59-.66-19.26-.48-28.85,0-4.69.23-9.38.55-14.06.92-4.12.32-8.27.59-12.37,1.14-.88.12-1.75.23-2.63.35s-.67,1.59.21,1.55h0Z"/>
          <g>
            <path class="cls-4" d="M98.85,117.59c-6.05,2.46-13.23.49-17.18-4.69-3.81-5-4.06-12.21.7-16.67,4.37-4.1,11.5-5.7,17.01-2.99,9.33,4.59,9.31,20.35-.52,24.35Z"/>
            <path class="cls-10" d="M108.36,103.62c-.43-4.32-2.38-8.49-5.95-11.23-5.84-4.49-14.09-3.91-19.93.31-3.07,2.22-5.25,5.18-5.96,8.95-.67,3.58-.08,7.27,1.62,10.48,3.53,6.69,11.27,10.31,18.67,8.89,8.3-1.59,12.32-9.74,11.55-17.41ZM98.6,117.11c-5.81,2.36-12.71.47-16.51-4.51-3.66-4.8-3.9-11.73.67-16.01,4.2-3.94,11.05-5.47,16.34-2.87,8.96,4.41,8.94,19.55-.5,23.39Z"/>
            <path class="cls-10" d="M90.38,95.73c-.64,0-1.23,0-1.86.12s-1.21.39-1.75.66c-1.15.58-2.13,1.59-2.87,2.63s-1.25,2.25-1.51,3.47c-.14.67-.23,1.37-.24,2.05-.02.87.24,1.55.62,2.31.22.44.73.68,1.2.69.43,0,.83-.21,1.09-.55.21-.27.23-.52.3-.84-.05.22.05-.22.05-.22.11-.66.09-1.3.14-1.96,0-.12.04-.36,0-.11.02-.16.05-.32.09-.48.05-.26.12-.53.2-.78.05-.15.1-.31.16-.46.1-.28-.03.04.05-.12.12-.27.26-.53.41-.79.13-.22.28-.43.43-.65-.19.28.09-.11.11-.13.08-.1.16-.2.24-.29.34-.4.73-.76,1.14-1.09.12-.09.23-.18.34-.28.19-.17-.02,0,.1-.09.22-.17.45-.31.68-.47.43-.31.87-.65,1.36-.87.88-.41.41-1.76-.48-1.76h0Z"/>
          </g>
          <g>
            <path class="cls-4" d="M56.81,107.84c-.26,3.08-2.85,5.48-5.79,6.07-3.17.64-6.56-1.28-7.86-4.19-1.35-3.03-.51-6.88,2.14-8.92,5.02-3.86,12.01,1.12,11.51,7.04Z"/>
            <path class="cls-10" d="M55.58,99.26c-1.12-1.03-2.42-1.82-3.82-2.26-2.09-.66-4.36-.3-6.28.68-4.05,2.07-6.07,6.84-5.1,11.22.93,4.18,4.76,7.25,8.98,7.55,4.25.3,8.45-2.65,9.62-6.73,1.06-3.69-.56-7.83-3.4-10.45ZM56.5,107.79c-.25,2.95-2.72,5.24-5.54,5.8-3.03.61-6.28-1.22-7.52-4.01-1.29-2.89-.49-6.58,2.05-8.53,4.8-3.69,11.48,1.07,11.01,6.73Z"/>
            <path class="cls-10" d="M47.45,101.81c-1.22.79-2.06,1.91-2.48,3.3-.2.65-.3,1.34-.25,2.02.03.38.06.78.2,1.14.07.17.13.32.24.47.04.07.08.12.15.16l-.06-.1c.23.19.13.26.41.41.1.05.21.09.32.13.38.12.73-.08.94-.38.05-.07.08-.12.11-.21.04-.09.08-.42.1-.46l-.09.33.12-.27c.05-.16.04-.28.03-.43,0-.07,0-.14-.01-.21l-.04-.32c.02.16.03.2.02.11,0-.13-.02-.25-.03-.38,0-.28,0-.56.03-.84,0-.06,0-.11.01-.17.02-.28-.03.19,0,.02.03-.14.05-.28.08-.41.06-.26.14-.51.24-.76.07-.18-.01.04-.02.04,0,0,.08-.17.09-.19.06-.13.12-.25.19-.38.12-.24.26-.46.41-.68.1-.16-.06.06.02-.03.05-.05.09-.11.14-.16.09-.1.19-.2.29-.3.75-.73-.23-2.05-1.13-1.46h0Z"/>
          </g>
          <g>
            <path class="cls-4" d="M73.76,71.17c-.35,3.25-3.23,5.99-6.35,6.66-3.38.72-7.66-.84-9.46-3.89-4.05-6.87,4.73-13.19,10.98-10.51,2.95,1.27,5.18,4.48,4.83,7.74Z"/>
            <path class="cls-10" d="M71.38,62.34c-1.93-1.35-4.42-1.94-6.76-1.75-2.49.21-5.28,1-6.82,3.12-1.69,2.32-2.46,6.38-1.85,9.14.94,4.27,5.98,6.8,10.03,6.85,4.21.05,8.02-2.53,9.4-6.53,1.4-4.05-.61-8.45-4-10.82ZM73.12,71.11c-.32,3-2.98,5.53-5.86,6.14-3.12.67-7.07-.77-8.73-3.59-3.74-6.34,4.37-12.18,10.13-9.7,2.72,1.17,4.78,4.13,4.46,7.14Z"/>
            <path class="cls-10" d="M63.78,65.54c-.67.23-1.24.55-1.79.99-.46.37-.85.89-1.14,1.39-.35.61-.62,1.29-.69,1.99-.03.34,0,.66.06,1,.08.49.32.86.76,1.12.4.23.87.14,1.21-.16.25-.22.41-.49.48-.81.04-.18.1-.36.14-.54.09-.37.19-.74.33-1.09l-.14.33c.16-.37.36-.72.6-1.04l-.21.28c.21-.27.45-.53.71-.77.06-.06.13-.11.19-.16.11-.1-.24.17-.11.09.03-.02.07-.05.1-.07.15-.1.3-.19.46-.28.55-.28.74-1.01.51-1.55s-.87-.92-1.46-.72h0Z"/>
          </g>
          <g>
            <path class="cls-4" d="M31.96,186.17s-9.4-15.04,8.68-29.05c18.08-14.01,35.12-3.13,37.81,9.55,2.51,11.81,3.57,14.23,3.57,14.23,0,0,13.72-1.37,20.48,13.74,6.77,15.11-1.4,30.04-14.1,35.07-14.43,5.72-22.14-5.29-22.14-5.29,0,0-5.46,11.1-19.08,9.76-13.84-1.36-12.85-12.06-12.85-12.06,0,0-13.29,6.7-22.06-6.5-8.48-12.75-.27-25.05,6.45-28.95,6.92-4.02,13.23-.49,13.23-.49Z"/>
            <path class="cls-10" d="M32.11,184.12c-5.03-1.75-11.11-.79-15.43,2.33-5.17,3.73-7.94,10.61-8.28,16.79-.34,6.23,1.49,12.57,6.39,16.65s11.12,5.21,17.19,3.56c5.37-1.46,13.03-5.91,14.13-11.89.41-2.21-.43-4.64-2.32-5.94-2.17-1.48-4.48-.66-6.39.8-4.63,3.55-6.62,10.01-5.4,15.62,1.26,5.79,5.89,10.4,11.41,12.31,6.8,2.35,14.36.27,19.6-4.49,2.48-2.25,4.7-5.24,5.31-8.61.36-1.99-.75-5.58-3.4-4.26-.72.36-1.05.97-.84,1.78,1.12,4.41,2.53,9.33,6.46,12.08,3.72,2.6,8.75,2.62,13.05,1.78,8.79-1.72,16.7-7.96,20.37-16.15,3.64-8.13,2.44-17.59-2.2-25.06-4.77-7.68-13.99-13.88-23.33-11.9-7.01,1.49-19,9.18-15.43,17.99,1.63,4.02,5.88,3.42,9.01,1.59,3.88-2.27,6.82-6.01,8.51-10.14,3.9-9.49,2.04-19.98-2.85-28.94-5.13-9.39-14.71-12.16-24.74-9.95-10.51,2.32-19.2,7.17-22.74,17.47-3.42,9.93-1.03,21.24,6.21,28.84,1.3,1.36,3.2-.86,1.91-2.22-5.4-5.66-7.47-13.81-6.14-21.45,1.35-7.78,4.82-12.19,11.48-16.28,6.21-3.81,16.15-5.7,23.17-2.67,8.49,3.67,11.2,13.62,11.96,22,.76,8.29.41,15.53-7.03,20.71-1.71,1.19-5.08,3-6.36.18-.76-1.68.12-3.87.94-5.33,2.14-3.81,6.18-6.57,10.21-8.04,15.68-5.71,28.76,13.47,25.96,27.44-1.66,8.3-7.99,15.24-15.9,18.1-4.01,1.45-9.35,2.29-13.33.32-4.2-2.08-5.48-7.15-6.57-11.3l-.84,1.78c-.36.18-.89,3.27-1.19,3.86-.58,1.14-1.34,2.19-2.19,3.15-1.6,1.81-3.58,3.32-5.76,4.37-4.13,2-9,2.42-13.29.66-8.62-3.54-12.51-14.69-5.76-21.96.71-.76,1.83-2,2.89-2.23,2.15-.47,3.45,1.8,3.24,3.62-.31,2.67-2.96,5.06-4.91,6.64-3.75,3.06-8.66,4.87-13.51,4.65-4.84-.22-9.6-2.43-12.46-6.42-2.92-4.08-2.93-9.67-2.15-14.44.84-5.12,2.98-10.55,7.5-13.49,3.72-2.42,8.89-3.25,13.13-1.82,1.19.4,1.9-1.68.71-2.1h0Z"/>
          </g>
        </g>
        <path class="cls-1" d="M103.76,161.99c3.24,2.52,6.5,5,9.73,7.52,1.6,1.25,3.2,2.48,4.78,3.74s3.19,2.61,4.95,3.68c.95.58,1.83-.7,1.14-1.48-1.33-1.52-2.9-2.81-4.46-4.09-1.6-1.32-3.21-2.64-4.85-3.91-3.24-2.51-6.53-4.95-9.95-7.22-1.04-.69-2.36.97-1.35,1.76h0Z"/>
        <path class="cls-1" d="M109.2,186.72c1.52,1.3,3.04,2.61,4.56,3.91s3.08,2.82,4.9,3.76c.55.28,1.22.19,1.6-.32s.3-1.13-.1-1.63c-1.22-1.54-2.9-2.71-4.42-3.92l-4.65-3.7c-.57-.45-1.34-.55-1.9,0-.48.48-.55,1.42,0,1.9h0Z"/>
      </g>
    </g>
  </g>
</svg>