<?xml version="1.0" encoding="UTF-8"?>
<svg id="Capa_2" xmlns="http://www.w3.org/2000/svg" viewBox="0 0 243.3 243.3">
  <defs>
    <style>
      .cls-1 {
        fill: #fff;
      }

      .cls-2 {
        fill: none;
      }

      .cls-3 {
        fill: #4f3535;
      }

      .cls-4 {
        fill: #847272;
      }
    </style>
  </defs>
  <g id="grocery_icons">
    <g>
      <rect class="cls-2" width="243.3" height="243.3"/>
      <g>
        <path class="cls-3" d="M162.26,22.35s-3.11-3.56-13.11-4.33c-10-.78-40.21,3.28-44.83,5.86-4.41,2.46-8.06,7.03-6.17,9.36s12.56.89,16-.44c3.44-1.33,7.11,1.11,12.33,1.56,5.22.44,10.44-1.44,14.22-3.22s7.33-.56,11.33-.78,9.78-.67,10.89-2.33c1.11-1.67-.67-5.67-.67-5.67Z"/>
        <path class="cls-4" d="M211.98,199.62c-3.04-3.67-6.29-7.12-9.59-10.55-1.88-1.95-3.75-3.91-5.67-5.82.09-.79.18-1.59.27-2.38.35-3.06.69-6.12,1.04-9.19.67-5.95,1.24-11.92,1.83-17.87.58-5.83,1.36-11.71,1.6-17.57.09-2.28-.14-4.78-1.48-6.7-1.26-1.81-3.91-2.51-4.65-4.66-.74-2.15-.33-4.72-.26-6.94.08-3.04.08-6.07.02-9.11-.11-5.62-.08-11.43-1.04-16.99-.43-2.5-1.21-5.03-2.59-7.18-1.43-2.24-3.35-4.03-5.45-5.64-4.24-3.24-8.91-5.9-13.58-8.47-9.95-5.48-20.77-10.41-31.98-12.68,1.38-2.79,3.48-5.05,5.53-7.39,2.51-2.86,5.28-5.52,8.01-8.18,2.38-2.33,4.73-4.68,7.13-6.99.86-.83,1.69-1.73,2.6-2.51,1.33-1.15,2.57-2.31,2.71-4.18.17-2.33-1.47-4.4-3.2-5.77-1.88-1.49-4.67-3.31-7.05-3.54.62,1.24,3.06,5.21-.96,7.74-2.13,1.34-7.86.22-10.28-.29-2.27-.48-4.53-.82-6.74.07-1.99.79-3.59,2.22-5.42,3.29-1.98,1.15-4.34,1.62-6.6,1.2-2.29-.42-4.37-1.51-6.69-1.81-4.84-.62-9.47,1.23-14.04,2.53-1.04.3-2.63.98-3.64.27-.72-.51-1.4-1.34-.45-3.73,1.43-3.58,3.36-4.85,3.31-4.83-.23-.1-5.09,1.74-6.97,3.82-3,2.89-3.32,3.81-1.33,7.78,5,10,14.46,15.96,16,16.38,1.68.45,3.74.75,5.08,1.96,2.95,2.64-1.49,4.55-3.54,5.48-6.51,2.95-13.53,4.57-20.08,7.42-5.77,2.51-11.24,6.05-14.8,11.35-1.87,2.78-3.13,5.91-4.45,8.97-1.36,3.16-2.88,6.22-4.83,9.06-1.91,2.79-4.18,5.35-6.67,7.64-2.22,2.05-4.66,3.82-7.01,5.72-2.41,1.95-4.68,4.06-6.46,6.61-1.95,2.8-3.04,6.09-3.59,9.43-.64,3.92-.78,7.93-.89,11.89-.12,4.38-.06,8.77.1,13.15.16,4.21.47,8.42.92,12.62.4,3.65.71,7.48,1.7,11.05.16,5.1-.13,10.27-.89,15.27-.48,3.17-.77,6.16.15,9.29.06.22.14.43.21.65-1.81,1.23-3.57,2.54-5.31,3.87-1.39,1.06-2.76,2.15-4.1,3.27-1.16.97-2.67,1.94-3.45,3.28-1.73,2.95,1.69,4.75,3.83,5.84,3.34,1.69,6.61,3.5,9.98,5.12,6.75,3.24,13.62,6.15,21.07,7.32,7.27,1.15,14.61.91,21.66-1.3,6.48-2.03,12.65-5.2,19.39-6.34,3.3-.56,6.62-.38,9.81.63,3.24,1.03,6.27,2.65,9.59,3.44,3.66.87,6.92.18,10.5-.71,1.66-.41,3.31-.85,5.03-1.01,2.06-.19,4.12-.05,6.17.12,6.81.56,13.54.35,20.27-.92,14.88-2.82,28.62-10.2,40.2-19.82.76-.64.55-1.78,0-2.45Z"/>
        <path class="cls-3" d="M116.61,55.98c3.99,3.07,9.19,4.47,14.15,4.86,5.16.41,10.3-.65,14.84-3.13.58-.32,1.11-1.11,1.03-1.8l-.02-.19-1.72,1.72h.09c-.47-.46-.93-.92-1.4-1.39.09.95-2.22,1.8-2.96,2.16-1.2.57-2.43,1.07-3.7,1.47-2.56.81-5.22,1.29-7.89,1.49-2.28.17-4.6.1-6.83-.45s-4.17-1.68-5.98-3.16c-1.09-.9-3.15.31-2.15,1.66,3.52,4.73,10.4,5.61,15.89,5.09,3.29-.31,6.57-1.09,9.63-2.35,2.6-1.07,6.43-2.73,6.78-5.91l-.69,1.21.07-.05c.82-.58,1.27-1.93.35-2.69l-.08-.07c-.76-.62-1.64-.78-2.52-.33-3.91,2.02-8.34,3.12-12.74,3.15s-8.84-1.37-12.9-3.42c-1.46-.74-2.49,1.19-1.25,2.14h0Z"/>
        <path class="cls-3" d="M118.48,37.96c2.08,2.26,3.83,4.75,5.35,7.42.74,1.31,1.42,2.66,1.99,4.05s.99,2.88,1.6,4.27c.38.89,1.57.2,1.45-.61-.24-1.54-.88-3.04-1.49-4.46-.62-1.46-1.33-2.88-2.12-4.24-1.58-2.71-3.59-5.19-5.81-7.4-.63-.63-1.57.32-.97.97h0Z"/>
        <path class="cls-3" d="M128.5,56.8l.24,1c.08.33.14.68.27.99.07.16.14.31.31.4.13.07.27.1.42.08.3-.04.6-.32.58-.65-.02-.22-.05-.43-.1-.65l-.13-.52-.25-1.02c-.09-.35-.5-.59-.85-.48-.37.12-.57.47-.48.85h0Z"/>
        <path class="cls-3" d="M134.51,57.13c.23-3.85,1.12-7.47,2.43-11.08.64-1.76,1.42-3.48,2.32-5.12s2.12-3.18,2.96-4.88c.47-.96-.69-1.94-1.5-1.16-1.42,1.34-2.4,3.25-3.3,4.96-.93,1.77-1.72,3.61-2.38,5.49-1.32,3.75-1.92,7.84-2.06,11.8-.04.99,1.48.98,1.54,0h0Z"/>
        <path class="cls-3" d="M96.7,148.02c6.57,1.05,13.18,1.62,19.82,1.84,6.66.22,13.38.26,20.03-.3,12.51-1.05,24.5-4.14,35.86-9.5,3.03-1.43,6-3.01,8.89-4.71s5.8-3.51,8.09-5.99c1.26-1.36-.31-3.09-1.87-2.42-2.68,1.15-5.13,2.77-7.63,4.27-2.5,1.51-5.06,2.92-7.67,4.22-5.19,2.59-10.58,4.72-16.12,6.42-12.02,3.69-24.63,4.65-37.14,4.92-7.34.16-14.7,0-22.01-.73-1.11-.11-1.39,1.79-.27,1.97h0Z"/>
        <path class="cls-3" d="M126.96,165.67c9.27-1.39,18.53-3.05,27.41-6.11,4-1.38,7.9-3.09,11.59-5.15,1.87-1.04,3.68-2.18,5.42-3.43,1.61-1.15,3.83-2.48,4.71-4.32.52-1.09-.36-2.71-1.72-2.23-1.92.68-3.55,2.44-5.2,3.63s-3.31,2.24-5.05,3.23c-3.6,2.05-7.4,3.74-11.29,5.17-8.59,3.17-17.6,4.97-26.5,6.98-1.48.34-.82,2.45.61,2.23h0Z"/>
        <path class="cls-3" d="M46.18,192.61c-.2,3.84.9,7.58,3.22,10.64,1.12,1.47,2.4,2.76,3.85,3.9,1.45,1.14,3.2,2.58,5.08,2.85,1.22.18,2.17-1.12,1.24-2.13-1.13-1.23-2.77-1.96-4.08-2.97-1.28-.97-2.44-2.11-3.48-3.33-2.13-2.48-3.86-5.69-4.19-8.97-.1-1.03-1.58-1.07-1.63,0h0Z"/>
        <path class="cls-3" d="M188.02,201.67c4.95-5.56,9.12-12.83,9.7-20.37.09-1.17-1.68-1.34-1.99-.27-1.01,3.4-1.97,6.87-3.47,10.1s-3.43,6.3-5.73,9.05c-.86,1.02.58,2.51,1.49,1.49h0Z"/>
        <path class="cls-3" d="M89.15,82.57c.65.01,1.29.02,1.94.04l.93.02c.28,0,.55-.03.81-.11.07-.02.13-.04.2-.06.39-.13.61-.33.84-.66.25-.35.25-.98,0-1.33-.24-.33-.46-.53-.84-.66-.07-.02-.13-.04-.2-.06-.27-.08-.54-.12-.81-.11l-.93.02-1.94.04c-.38,0-.76.16-1.02.42-.25.25-.44.66-.42,1.02.04.8.64,1.43,1.45,1.45h0Z"/>
        <path class="cls-3" d="M85.06,90.67c.85.35,1.77.58,2.69.64.19.01.39.02.58.02.1,0,.2,0,.31,0,.35-.02.64-.11.92-.33.18-.14.3-.23.41-.45.32-.61.25-1.33-.26-1.82-.19-.18-.43-.31-.67-.39-.14-.04-.33-.05-.5-.06-.11-.01-.22-.02-.34-.04l.41.06c-.87-.12-1.72-.32-2.53-.66l.38.16c-.06-.02-.11-.05-.17-.07-.25-.15-.52-.22-.81-.22l-.43.06c-.49.11-.86.49-1.05.93-.18.42-.18.83,0,1.24.07.2.18.37.33.52.2.2.44.34.71.41h0Z"/>
        <path class="cls-3" d="M177.39,191.67c.95.22,1.87.22,2.82.04.34-.06.67-.16.98-.29.19-.08.38-.14.55-.26s.33-.25.49-.38c.32-.25.44-.61.59-.97.17-.4,0-.9-.25-1.22-.28-.36-.65-.53-1.1-.55-.27-.01-.52,0-.79.07s-.52.17-.8.29l.4-.17c-.39.16-.8.27-1.22.34l.44-.06c-.44.06-.88.06-1.32,0l.44.06c-.12-.02-.24-.04-.36-.06-.43-.09-.87-.06-1.26.16-.34.2-.66.59-.75.98-.1.42-.07.89.16,1.26.23.35.56.66.98.75h0Z"/>
        <path class="cls-3" d="M181.55,182.93l.65-.26c.21-.08.42-.16.62-.28l.29-.18.26-.2c.12-.11.21-.25.26-.41.06-.1.09-.2.09-.32.04-.17.03-.34-.02-.5l-.13-.3-.2-.26c-.11-.12-.25-.21-.41-.26-.15-.08-.31-.12-.49-.11l-.33-.02c-.06,0-.11-.01-.17,0s-.11.01-.17.02l-.67.07c-.28,0-.53.07-.77.21l-.31.24c-.19.19-.32.42-.39.68-.06.2-.07.41-.03.61,0,.2.07.39.18.57.1.18.23.32.39.43.15.14.32.23.52.27.27.07.54.07.81,0h0Z"/>
        <path class="cls-3" d="M188.48,172.35c2,0,2-3.11,0-3.11s-2,3.11,0,3.11h0Z"/>
        <path class="cls-3" d="M61.03,166.64h.02c-.14.05-.27.11-.41.16.1-.04.19-.07.3-.08l-.45.06c.08-.01.17,0,.25-.01s.17,0,.25,0l-.44-.06c.11.01.21.04.31.08l-.39-.16s.02.01.04.02h.02c.13.06.26.12.38.17h.02c.14.02.28.04.42.06l.42-.06s.01,0,.02,0c.03,0,.06-.02.09-.02l-.38.05h.01c.13-.02.25-.04.38-.05.19-.04.35-.13.48-.26.11-.06.19-.15.26-.26.13-.14.21-.3.26-.48.03-.16.06-.33.06-.5,0,0,0-.01,0-.02l-.06-.42c-.05-.24-.25-.55-.42-.72-.02-.02-.05-.04-.07-.06-.14-.12-.31-.26-.48-.36s-.37-.17-.56-.25c-.26-.1-.55-.14-.82-.12-.21.02-.43.04-.63.09s-.41.16-.59.24c-.2.11-.36.25-.48.44-.15.16-.25.36-.31.58-.07.23-.08.45-.03.68.01.23.08.44.2.63l.27.35c.21.21.46.36.75.44l.45.06c.31,0,.6-.08.86-.23h0Z"/>
        <path class="cls-3" d="M60.81,177.88c1.83,0,1.84-2.85,0-2.85s-1.84,2.85,0,2.85h0Z"/>
        <path class="cls-1" d="M58.21,118.38c-.56.78-1.04,1.62-1.43,2.5-.23.53-.47,1.06-.59,1.62-.15.69-.22,1.67.19,2.27.36.53,1.15.88,1.74.46.26-.19.51-.38.66-.67.07-.13.12-.28.19-.42.18-.39.35-.78.48-1.19.19-.61.37-1.22.61-1.82l-.16.37c.24-.57.51-1.11.82-1.64.39-.66.17-1.63-.52-2-.76-.4-1.52-.14-2,.52h0Z"/>
        <path class="cls-1" d="M56.67,136.38c-.04.28-.09.56-.07.84.01.2.04.4.08.6s.12.37.2.56c.06.14.13.27.22.39.1.15.21.29.34.41s.27.22.41.32l.29.12.32.04.32-.04c.16-.04.29-.11.41-.22.09-.05.16-.13.22-.22.07-.08.13-.16.15-.27.05-.09.08-.2.08-.3.04-.16.03-.32-.02-.48-.02-.07-.03-.14-.04-.21l.05.34c-.03-.2-.05-.41-.08-.61l.05.36c-.02-.14-.02-.28-.01-.42s0-.29.02-.44l-.05.4c.02-.13.05-.25.09-.37.06-.21.07-.41.03-.62,0-.21-.07-.4-.18-.57-.1-.18-.23-.32-.4-.43-.15-.14-.32-.23-.52-.28l-.41-.06c-.28,0-.54.07-.78.21l-.31.24c-.19.19-.32.42-.4.68h0Z"/>
        <path class="cls-1" d="M182.24,87.7c.35.36.68.73.98,1.13l-.2-.26c.27.35.52.71.75,1.09.11.18.23.35.35.53.17.26.36.5.59.72.34.34.94.44,1.36.18.16-.1.3-.24.4-.4.17-.27.15-.57.11-.86-.01-.08-.02-.17-.04-.25-.03-.17-.11-.33-.18-.49s-.14-.32-.22-.47c-.16-.31-.38-.61-.58-.89-.46-.64-.96-1.26-1.52-1.82-.47-.47-1.34-.51-1.8,0s-.5,1.29,0,1.8h0Z"/>
        <path class="cls-1" d="M184.75,102.8l-.08.67c-.01.11-.02.22-.02.33v.33c.02.11.04.22.05.32.04.16.11.3.22.41.05.09.13.16.22.22.12.11.26.18.41.22l.32.04.32-.04c.16-.04.3-.11.41-.22.13-.09.24-.2.31-.34l.16-.29c.11-.2.19-.41.27-.62l.25-.66c.07-.26.07-.51,0-.77l-.15-.35c-.13-.22-.3-.39-.52-.52-.17-.11-.35-.16-.54-.17-.19-.04-.39-.03-.58.03-.19.04-.35.13-.49.26-.16.1-.28.24-.37.41-.13.23-.2.47-.2.73h0Z"/>
        <path class="cls-1" d="M202.26,203.41c.31-.05.62-.19.9-.33.07-.04.15-.08.21-.13.17-.11.31-.21.43-.35s.23-.29.33-.43c.03-.04.05-.07.07-.11.04-.07.07-.14.09-.21.03-.07.06-.14.09-.21,0-.02.01-.04.02-.06.02-.08.04-.16.05-.24.03-.18.09-.43.06-.63s-.04-.4-.1-.59c-.13-.44-.47-.8-.92-.92-.23-.06-.47-.06-.7,0-.22.06-.42.18-.58.34-.06.06-.12.12-.18.18-.07.06-.13.12-.21.18l.32-.24s-.1.07-.15.1c-.17.1-.32.24-.48.37l.34-.26c-.05.04-.11.08-.16.11-.18.11-.33.25-.49.38l.35-.27c-.12.09-.24.16-.38.22l.4-.17c-.07.03-.13.05-.2.07-.22.05-.41.15-.57.3-.18.12-.33.27-.43.47-.12.19-.19.4-.2.62-.05.22-.04.44.03.67l.17.4c.15.25.35.45.6.6l.4.17c.3.08.59.08.89,0h0Z"/>
      </g>
    </g>
  </g>
</svg>