<?xml version="1.0" encoding="UTF-8"?>
<svg id="Capa_2" xmlns="http://www.w3.org/2000/svg" viewBox="0 0 243.3 243.3">
  <defs>
    <style>
      .cls-1 {
        fill: #958686;
      }

      .cls-2 {
        fill: none;
      }

      .cls-3 {
        fill: #c1b8b8;
      }

      .cls-4 {
        fill: #4f3535;
      }

      .cls-5 {
        fill: #e5e1e1;
      }
    </style>
  </defs>
  <g id="grocery_icons">
    <g>
      <rect class="cls-2" width="243.3" height="243.3"/>
      <g>
        <path class="cls-3" d="M158.48,75.79c1.33,0,23,12.67,39.67,24,16.67,11.33,30.33,28.67,30.33,28.67,0,0-67.33,61-77.33,69s-27,23.67-32,23.33c-5-.33-35.67-28.33-46.67-36.67-11-8.33-30-22-30-22,0,0,56.67-48.67,67.67-59,11-10.33,48.33-27.33,48.33-27.33Z"/>
        <path class="cls-3" d="M34.59,109.92s86.62-59.89,95.07-65.61c9.42-6.38,27.49-19.85,30.49-19.52,3,.33,19,4,23.67,16,4.67,12,1,24-1,27.67s-119.33,92-123,94.33c-3.67,2.33-14.13,4.56-19.33,1.78-19.56-10.44-21.01-44.98-5.9-54.65Z"/>
        <path class="cls-4" d="M66.82,116.11c-7.22-8.93-20.24-13.1-30.82-7.86-11.11,5.5-14.19,19.63-12.56,30.99,1.02,7.12,3.78,14.29,8.25,19.95,3.82,4.84,8.68,7.66,14.87,8.03,11.1.67,20.97-6.44,25.11-16.54,4.57-11.16,2.76-25.15-4.84-34.56ZM69.75,145.54c-3.43,14.87-22.12,25.97-34.16,12.73-3.76-4.14-6.11-9.42-7.58-14.77-1.57-5.73-1.77-11.66-.48-17.47,1.09-4.93,3.1-9.59,7.21-12.72,8.19-6.23,19.59-4.26,26.77,2.52,7.85,7.41,10.62,19.36,8.23,29.72Z"/>
        <path class="cls-4" d="M55.19,130.54c-.05-.11-.1-.22-.16-.33-1.59-3.18-5.01-5.58-8.56-5.25-7.18.68-9.78,10.35-7.41,16.12,2.22,5.4,8.94,9.1,13.88,4.49,3.89-3.63,4.38-10.37,2.25-15.03Z"/>
        <path class="cls-4" d="M182.48,69.04c-1.11.87-42.34,32.49-51.85,40.19-10.15,8.23-20.37,16.38-30.76,24.31-9.28,7.08-18.66,14.09-28.4,20.54-2,1.33-4.03,2.62-6.08,3.88-.43.71-.89,1.4-1.39,2.06-.83,1.09-1.74,2.09-2.69,3.06,2.79-1.46,5.53-3.05,8.21-4.7,9.67-5.95,18.94-12.56,28.04-19.35,10.56-7.88,20.93-16.01,31.22-24.24,9.8-7.83,19.85-15.71,29.54-23.67,7.35-6.04,25.83-18.25,24.17-22.08Z"/>
        <path class="cls-4" d="M121.08,222.53c7.52-5.15,14.57-11.03,21.58-16.84,7.1-5.89,14.01-12.02,20.8-18.25,13.62-12.49,27-25.25,41.01-37.3,7.85-6.76,15.9-13.28,24.29-19.36,1.66-1.21.06-4.01-1.63-2.79-14.95,10.82-28.87,22.97-42.48,35.41s-27.18,25.26-41.07,37.57c-7.75,6.87-15.85,13.25-23.99,19.64-1.09.86.34,2.71,1.49,1.93h0Z"/>
        <path class="cls-5" d="M65.14,104.68c.92-.51,1.77-1.14,2.56-1.83.43-.38.83-.78,1.17-1.24.14-.19.27-.38.39-.58.06-.09.12-.19.18-.28.17-.29.19-.61.22-.94.04-.4-.21-.79-.51-1.02s-.76-.38-1.13-.23c-.07.03-.13.05-.2.08-.28.11-.47.22-.68.42-.11.11-.22.22-.33.33-.23.22-.46.42-.68.65-.44.45-.9.87-1.4,1.25l.31-.24c-.46.36-.95.68-1.45.97-.7.4-1,1.41-.55,2.11s1.36.98,2.11.55h0Z"/>
        <path class="cls-5" d="M71.43,109.52l1.5-.96c.25-.16.49-.31.74-.47.32-.21.6-.49.88-.75.2-.18.35-.54.34-.82s-.09-.49-.25-.7c-.15-.19-.36-.36-.6-.41l-.31-.04c-.21,0-.4.05-.58.16-.27.11-.56.21-.8.36s-.49.31-.74.47c-.49.31-.99.63-1.48.94-.28.18-.5.44-.59.77s-.05.72.13.99.44.52.77.59.7.06.99-.13h0Z"/>
        <path class="cls-5" d="M76.61,168.51c1.67-1.44,3.39-2.84,5.15-4.17,1.84-1.38,3.83-2.67,5.43-4.34.37-.39.47-1,.19-1.47-.25-.42-.88-.76-1.37-.56-2.26.94-4.19,2.47-6.08,4-1.81,1.46-3.58,2.99-5.29,4.57-.55.51-.52,1.45,0,1.97.56.56,1.4.49,1.97,0h0Z"/>
        <path class="cls-5" d="M86.6,174.2c.4-.37.8-.74,1.2-1.12l.58-.54c.1-.09.21-.18.3-.28.13-.16.25-.33.38-.5l.09-.22c.04-.12.04-.25.02-.37-.03-.19-.11-.39-.25-.53-.3-.28-.75-.36-1.12-.14-.12.07-.23.13-.35.2-.17.11-.32.26-.48.39l-.63.53-1.25,1.07c-.2.17-.31.5-.31.75s.12.57.31.75c.44.4,1.07.4,1.5,0h0Z"/>
        <path class="cls-5" d="M212.48,131.41c.19-.28.38-.55.58-.81l-.21.28c.27-.35.56-.7.85-1.04.34-.4.61-.85.93-1.27l.11-.25c.04-.14.05-.28.02-.42-.03-.22-.12-.45-.29-.61-.35-.32-.86-.4-1.29-.17-.26.15-.52.3-.78.47-.34.22-.64.48-.93.77-.51.5-.95,1.1-1.37,1.67-.2.27-.22.75-.14,1.06s.34.67.63.82c.32.17.71.25,1.06.14s.62-.32.82-.63h0Z"/>
        <path class="cls-5" d="M202.03,121.93l.82-.61c.34-.26.72-.5,1.02-.81.48-.48.98-.93,1.49-1.38.19-.17.33-.52.32-.78s-.08-.47-.24-.67c-.32-.42-.95-.58-1.42-.28-.57.36-1.13.71-1.72,1.03-.29.16-.55.36-.81.56l-.82.61c-.29.22-.52.44-.62.8-.09.32-.05.75.14,1.04s.46.54.8.62.75.08,1.04-.14h0Z"/>
        <path class="cls-1" d="M75.25,126.05c.4-.46.85-.89,1.34-1.26l-.21.16c.32-.25.69-.52.87-.89.14-.3.17-.61,0-.91-.16-.27-.46-.45-.78-.44-.13,0-.25.01-.38.04s-.24.1-.36.15c-.1.05-.2.09-.3.15-.16.09-.31.23-.45.34-.09.07-.18.14-.27.22-.35.29-.67.61-.97.95-.19.21-.31.46-.31.75,0,.26.12.57.31.75s.47.32.75.31.57-.1.75-.31h0Z"/>
        <path class="cls-1" d="M84.63,118.27l.84-.66.41-.32c.07-.05.15-.1.2-.17.06-.07.11-.15.17-.22.08-.08.14-.17.18-.28.05-.1.08-.21.07-.33,0-.19-.07-.37-.19-.52-.11-.14-.27-.27-.45-.31l-.23-.03c-.16,0-.3.04-.44.12-.08.04-.16.07-.24.11-.14.07-.26.19-.38.29l-.42.34-.84.69c-.17.14-.27.43-.27.64,0,.22.1.49.27.64s.4.28.64.27l.24-.03c.15-.04.29-.12.4-.23h0Z"/>
        <path class="cls-1" d="M92.07,112.51l.86-.6.43-.3c.07-.05.14-.1.22-.15.16-.11.26-.19.36-.35.02-.03.04-.07.06-.1.17-.29.14-.65-.06-.91-.09-.12-.19-.19-.33-.25-.18-.07-.34-.08-.53-.04-.15.03-.29.08-.41.17l-.21.16-.41.3-.84.61c-.1.05-.18.13-.24.22-.08.08-.13.18-.15.29-.06.2-.03.48.09.66s.29.34.51.39.47.04.66-.09h0Z"/>
        <path class="cls-1" d="M101.52,105.87c.37-.29.75-.57,1.12-.86.24-.18.5-.35.7-.57s.42-.43.58-.69c.18-.3.14-.69-.07-.96s-.57-.41-.91-.31c-.28.08-.53.22-.78.36-.21.11-.39.26-.57.41l-1.1.85c-.12.06-.22.15-.29.26-.09.1-.15.22-.18.35-.07.25-.04.57.1.79s.35.41.61.47.58.06.79-.1h0Z"/>
        <path class="cls-1" d="M111.51,97.57l1.06-.57c.09-.05.17-.09.26-.14s.16-.11.24-.17c.08-.06.17-.13.25-.19.1-.08.19-.14.27-.24.07-.1.13-.2.16-.32.03-.1.04-.21.03-.31-.02-.18-.06-.33-.17-.47-.03-.06-.08-.11-.14-.14-.08-.07-.16-.12-.27-.14-.25-.11-.58-.06-.81.08-.09.06-.17.12-.25.18-.13.09-.27.18-.39.29-.07.07-.15.14-.22.21l-.86.82c-.25.24-.26.65-.05.92s.59.35.9.18h0Z"/>
        <path class="cls-1" d="M121.69,90.32l.62-.49c.1-.08.21-.15.29-.25.05-.05.09-.09.14-.14.15-.16.27-.35.3-.58.04-.17.04-.33,0-.5-.03-.12-.08-.23-.17-.32-.07-.1-.15-.18-.26-.24-.15-.08-.3-.13-.47-.13-.03,0-.05,0-.08,0-.05,0-.1,0-.14.02-.09,0-.18.02-.26.07-.05.02-.1.04-.15.07-.06.03-.11.07-.16.11-.18.12-.34.26-.51.41l-.6.53c-.1.09-.17.2-.21.33-.06.12-.09.25-.09.39,0,.14.02.27.09.39.04.13.11.23.21.33.19.18.45.31.72.3l.27-.04c.17-.05.32-.14.45-.26h0Z"/>
        <path class="cls-1" d="M129.93,84.05l.94-.68.46-.33s.08-.05.11-.08c.11-.08.2-.15.29-.26.04-.05.07-.09.1-.14l.15-.23c.07-.11.11-.28.11-.41,0-.18-.07-.35-.18-.49-.09-.12-.19-.19-.33-.25-.16-.07-.36-.1-.53-.04l-.25.09s-.04.01-.06.02c-.2.07-.21.08-.35.19-.06.05-.13.1-.19.15l-.45.37-.89.75c-.15.13-.26.41-.25.61s.07.37.19.52c.11.14.27.27.45.31.21.05.48.05.67-.09h0Z"/>
        <path class="cls-1" d="M138.16,77.49c.27-.18.53-.38.78-.58.19-.15.37-.31.53-.49.14-.16.26-.32.37-.5.12-.21.21-.42.22-.67,0-.23-.07-.41-.17-.61-.11-.23-.36-.38-.6-.46-.06-.02-.21-.03-.31-.04-.31-.03-.64.16-.85.37-.04.04-.09.09-.13.13-.11.1-.19.23-.29.35l.18-.23c-.18.23-.35.46-.53.68l.17-.23c-.19.24-.39.47-.6.69-.17.18-.31.46-.3.72l.04.27c.03.13.09.25.18.35.05.08.11.14.18.18.1.09.21.15.35.18.26.06.56.05.78-.1h0Z"/>
        <path class="cls-1" d="M147.66,70.65c.4-.22.77-.49,1.13-.77.15-.12.29-.24.43-.37.12-.12.23-.26.33-.4.05-.07.09-.18.12-.26.06-.18.04-.26.02-.41,0-.07-.02-.14-.03-.2l-.09-.2c-.05-.1-.13-.18-.22-.24-.05-.05-.12-.09-.19-.11-.1-.05-.21-.08-.33-.07-.09-.01-.15,0-.25,0-.13,0-.26.05-.37.12-.07.05-.14.11-.21.16-.03.02-.05.04-.08.06l.2-.16c-.12.1-.24.19-.35.3-.06.06-.12.11-.18.17-.12.11-.24.21-.37.31l.2-.16c-.25.19-.5.36-.77.51-.22.12-.4.36-.46.6s-.04.56.1.77.34.4.6.46.53.03.77-.1h0Z"/>
        <path class="cls-1" d="M154.45,65.26l.79-.6.39-.3c.12-.09.24-.17.35-.28.08-.08.16-.17.21-.26s.09-.2.12-.3c.04-.15.04-.31,0-.46-.03-.11-.08-.21-.15-.29-.06-.09-.14-.17-.24-.22-.13-.08-.28-.12-.44-.12-.1.01-.21.02-.31.04-.11.03-.21.08-.31.14-.13.07-.24.17-.36.27l-.4.31-.78.62c-.09.08-.16.18-.19.3-.06.11-.09.23-.08.36l.03.25c.03.12.08.23.17.32.12.15.29.29.48.33l.25.03c.17,0,.33-.04.47-.13h0Z"/>
        <path class="cls-1" d="M162.47,59.28l.93-.67c.21-.15.43-.3.63-.46.07-.06.14-.12.2-.18.09-.08.17-.17.23-.28.06-.11.08-.21.13-.32l-.09.22.15-.25c.16-.27.13-.63-.06-.88s-.53-.38-.83-.28c-.1.03-.21.07-.31.09l.25-.03c-.25.02-.46.06-.67.2-.14.1-.28.19-.41.3-.14.12-.28.23-.42.35l-.87.72c-.17.14-.29.45-.28.67s.07.4.2.57c.12.16.29.29.49.34.23.05.53.05.73-.1h0Z"/>
        <path class="cls-1" d="M170.06,53.32c.4-.15.79-.33,1.14-.59.13-.1.27-.19.38-.31.06-.07.12-.13.18-.2.01-.02.03-.03.04-.05.09-.09.16-.19.2-.31.02-.05.04-.09.06-.14.01-.04.02-.08.04-.12.04-.15.07-.3.07-.45-.01-.26-.11-.47-.32-.63-.08-.07-.17-.12-.27-.14-.14-.04-.29-.04-.43,0-.11.05-.23.09-.33.15-.05.03-.1.06-.15.1-.12.07-.22.16-.32.27-.04.05-.09.09-.14.14-.19.18-.36.37-.57.53l.19-.15c-.14.11-.29.21-.45.29-.18.1-.36.32-.41.53l-.03.24c0,.12.02.24.08.34.07.17.19.34.36.42.2.11.46.17.68.09h0Z"/>
        <path class="cls-1" d="M178.38,46.85l.57-.48.28-.24c.11-.09.19-.21.27-.33l.11-.15c.09-.16.14-.33.14-.51,0-.18-.05-.35-.14-.51-.09-.17-.21-.25-.36-.36-.16-.09-.33-.14-.51-.14-.18,0-.35.05-.51.14l-.16.09c-.13.07-.24.16-.34.26l-.28.25-.56.49c-.1.1-.17.21-.22.34-.07.13-.1.26-.09.4,0,.14.02.28.09.4.04.13.11.24.22.34.2.18.46.32.74.31l.28-.04c.18-.05.33-.14.46-.27h0Z"/>
        <path class="cls-1" d="M42.19,114.96c-4.53.62-8.2,3.72-10.32,7.68-2.64,4.91-2.74,10.41-2.47,15.83.03.55.87.56.86,0-.05-4.93.31-10.39,2.64-14.84,1.94-3.71,5.34-6.88,9.58-7.59.72-.12.4-1.18-.3-1.08h0Z"/>
        <path class="cls-1" d="M31.76,144.29c.06.72.25,1.46.7,2.04.13.17.31.26.52.17.18-.08.3-.29.24-.49-.14-.44-.27-.88-.34-1.34l.02.14c-.02-.17-.04-.35-.04-.53,0-.29-.25-.56-.55-.55-.28.01-.58.24-.55.55h0Z"/>
        <path class="cls-1" d="M42.38,156.39c5.03,4.31,12.37,2.76,16.82-1.59,2.43-2.38,4.08-5.47,5.14-8.68,1.2-3.63,1.99-7.65,1.7-11.48-.32-4.25-2.33-8.29-5-11.56-.34-.41-.98.12-.72.56,1.07,1.84,2.25,3.59,3.13,5.54,1.01,2.26,1.48,4.64,1.51,7.11.06,4.26-.85,8.73-2.71,12.57-1.74,3.6-4.46,6.7-8.3,8.06-3.61,1.28-7.77,1.26-10.88-1.22-.48-.38-1.17.27-.69.69h0Z"/>
        <path class="cls-1" d="M35.11,133.92c.41-.97.53-2.12.77-3.15s.51-2.1.83-3.13c.65-2.07,1.9-4.03,3.6-5.4,1.58-1.27,3.66-2.04,5.67-2.22.96-.09,1.93-.05,2.88.12s1.86.69,2.81.78c.42.04.59-.53.33-.8-.7-.71-2-.95-2.95-1.11-1.1-.19-2.21-.21-3.31-.08-2.1.25-4.05,1.04-5.7,2.36-1.81,1.45-3,3.43-3.92,5.54-.49,1.11-.92,2.22-1.23,3.4s-.71,2.41-.71,3.58c0,.58.74.6.94.13h0Z"/>
        <path class="cls-1" d="M37.24,145.54c2.83,6.43,10.72,9.23,16.95,5.99,3.29-1.71,5.35-4.75,6.33-8.27,1.02-3.7,1.65-8.35-.04-11.93-.28-.59-1.26-.17-1.06.45,1.13,3.5.88,7.22-.03,10.76-.85,3.31-2.62,6.17-5.68,7.83-5.85,3.18-12.77.47-15.81-5.22-.24-.45-.86-.05-.66.39h0Z"/>
        <path class="cls-1" d="M52.58,116.71c.54.29,1.08.63,1.57.99.03.02.05.04.08.06.08.06-.1-.08.03.02.06.05.12.1.18.14.12.1.23.2.34.3.25.23.52.44.8.64.17.12.47.07.61-.08.15-.16.2-.41.08-.61-.37-.61-.94-1.05-1.53-1.44s-1.16-.66-1.81-.87c-.49-.16-.81.59-.35.83h0Z"/>
        <path class="cls-5" d="M155.7,113.22c-1.38,8.06-2.43,16.16-3,24.31-.29,4.07-.47,8.14-.57,12.22s-.23,8.34.18,12.48c.11,1.07,1.61,1.09,1.68,0,.28-4.07.18-8.16.31-12.23.13-3.99.34-7.99.64-11.97.6-8.12,1.45-16.23,2.67-24.27.19-1.24-1.7-1.79-1.91-.53h0Z"/>
        <path class="cls-5" d="M171.96,118.64c-.73,8.73-1.47,17.46-2.01,26.2-.09,1.39,1.97,1.33,2.12,0,1.03-8.72,1.85-17.46,2.69-26.2.17-1.79-2.65-1.79-2.8,0h0Z"/>
        <path class="cls-5" d="M146.77,40.81c1.99-1.73,4.09-3.31,6.17-4.94,1.02-.79,2.08-1.54,3.08-2.35s2.03-1.67,3.07-2.48c.84-.66-.23-1.85-1.09-1.41-1.19.61-2.36,1.22-3.5,1.92s-2.2,1.51-3.26,2.31c-2.15,1.63-4.15,3.46-6.1,5.32-1.09,1.04.52,2.6,1.64,1.64h0Z"/>
        <path class="cls-5" d="M163.25,38.17l1.3-1.08c.1-.08.21-.17.31-.25.1-.09.2-.2.29-.3l.29-.31c.14-.15.27-.31.36-.51.05-.11.08-.2.1-.31.09-.35.02-.69-.2-.98-.2-.26-.53-.46-.88-.44-.11,0-.21.02-.32.03-.21.03-.39.1-.56.21l-.35.23c-.33.21-.63.44-.93.69-.44.37-.88.73-1.32,1.1-.25.21-.4.64-.4.96,0,.33.15.73.4.96s.6.41.96.4l.36-.05c.23-.06.43-.18.6-.35h0Z"/>
        <path class="cls-5" d="M176.38,65.37l.62-.55c.1-.09.21-.18.31-.27l.19-.24v-.02s.03-.03.04-.04l.05-.08.12-.17.11-.26c.05-.15.05-.29.02-.44,0-.1-.03-.19-.07-.28-.04-.14-.12-.25-.23-.35l-.22-.17-.26-.11c-.15-.05-.29-.05-.44-.02-.15,0-.28.05-.41.13l-.19.09-.09.04c-.08.04-.12.07-.2.13-.15.12-.3.23-.44.35l-.66.52c-.12.11-.21.24-.26.4-.08.15-.11.31-.11.48,0,.17.03.33.11.48.05.15.14.29.26.4.24.22.55.38.88.36l.33-.04c.21-.06.39-.16.55-.32h0Z"/>
        <path class="cls-5" d="M129.97,62.59c.14.17.28.33.41.5.06.08.13.16.19.24.03.04.06.08.09.12.02.03.13.17.03.04s0,0,.03.04c.04.05.08.1.12.15.06.08.12.16.18.25.13.18.25.35.38.53.53.76,1.02,1.52,1.63,2.22.28.32.86.38,1.22.16s.62-.71.46-1.13c-.17-.47-.37-.92-.62-1.36-.22-.39-.49-.75-.75-1.11-.55-.78-1.14-1.53-1.76-2.25-.39-.46-1.22-.43-1.62,0-.45.49-.41,1.13,0,1.62h0Z"/>
        <path class="cls-5" d="M137.18,53.66c.36.2.71.41,1.04.64.08.05.15.11.23.16.02.02.22.16.08.06.15.11.29.23.43.35.31.27.61.55.89.85.13.14.25.27.37.41.07.08.14.17.21.26.02.02.19.24.12.15-.07-.09.11.16.11.15.05.08.11.15.16.23.12.17.23.34.33.51.2.33.39.68.56,1.03.35.71.69,1.42,1.05,2.12.43.84,1.83.45,1.78-.48-.04-1.01-.28-1.89-.75-2.79-.41-.8-.92-1.54-1.49-2.24-1.09-1.36-2.49-2.5-4.04-3.29-.53-.27-1.19-.14-1.5.39-.29.5-.13,1.22.39,1.5h0Z"/>
        <path class="cls-5" d="M125.65,101.15l.45,1.41c.1.32.24.6.41.89.16.27.35.5.55.73.24.27.67.32.98.19.15-.06.26-.15.36-.28.13-.17.17-.33.19-.54.01-.12.04-.24.04-.36s-.02-.24-.03-.36c-.03-.32-.06-.63-.15-.94l-.44-1.39c-.1-.3-.29-.57-.56-.73s-.65-.22-.95-.12-.58.28-.73.56-.22.63-.12.95h0Z"/>
        <path class="cls-5" d="M112.56,109.62l.54,1.17.27.59c.08.18.17.31.31.47.06.08.13.15.19.23l.21.16c.12.08.25.12.39.12.22.03.47,0,.66-.12.15-.1.28-.22.37-.37.08-.12.12-.25.12-.39.03-.14.02-.28-.02-.41-.02-.11-.03-.21-.05-.32-.03-.19-.14-.36-.21-.53l-.26-.59-.51-1.19c-.11-.25-.45-.47-.7-.54-.28-.08-.65-.04-.9.12s-.47.4-.54.7l-.04.31c0,.21.05.41.16.59h0Z"/>
      </g>
    </g>
  </g>
</svg>