<?xml version="1.0" encoding="UTF-8"?>
<svg id="Capa_2" xmlns="http://www.w3.org/2000/svg" viewBox="0 0 243.3 243.3">
  <defs>
    <style>
      .cls-1 {
        fill: #4286bd;
      }

      .cls-2 {
        fill: none;
      }

      .cls-3 {
        fill: #4f3535;
      }

      .cls-4 {
        fill: #f7bc3b;
      }

      .cls-5 {
        fill: #a1c2de;
      }
    </style>
  </defs>
  <g id="grocery_icons">
    <g>
      <rect class="cls-2" width="243.3" height="243.3"/>
      <g>
        <path class="cls-1" d="M92.28,48.95s2.15,12.11-3.77,21.27c-5.92,9.15-17.5,16.42-14,21.81,3.5,5.38,14,2.69,23.69-7.54,9.69-10.23,16.96-21.81,17.23-27.73.27-5.92-23.15-7.81-23.15-7.81Z"/>
        <path class="cls-3" d="M92.22,60.04c.62.32,1.22.67,1.79,1.02,4.76,2.9,8.97,6.61,11.69,11.52.34.61.65,1.23.95,1.85,5.2-7.04,8.6-13.66,8.79-17.68.27-5.92-23.15-7.81-23.15-7.81,0,0,.9,5.05-.06,11.1Z"/>
        <path class="cls-5" d="M112.2,89.59s-2.15,17.23-7.27,28c-5.11,10.77-18.04,24.23-21.81,35.27-3.77,11.04-1.62,64.34,2.42,69.45,4.04,5.11,32.3,11.04,57.34,7.27,25.04-3.77,23.69-9.15,24.5-14,.81-4.85,2.42-54.65-1.35-62.72-3.77-8.08-12.65-15.88-20.73-33.65-8.08-17.77-8.35-28.8-8.35-28.8l-24.77-.81Z"/>
        <path class="cls-4" d="M56.09,136.17s.12,10.05-5.87,15.43c-5.38,4.83-11.46,5.47-11.46,5.47,0,0,7.91,2.85,11.83,7.74,3.65,4.57,5.51,13.09,5.51,13.09,0,0,.68-8.93,6.36-14.44,4.63-4.49,10.26-7.03,10.26-7.03,0,0-6.58-.44-11.11-5.21-3.9-4.11-5.51-15.07-5.51-15.07Z"/>
        <path class="cls-4" d="M181.23,63.48s.18,14.68-8.58,22.55c-7.87,7.06-16.74,7.99-16.74,7.99,0,0,11.56,4.16,17.28,11.31,5.34,6.67,8.04,19.12,8.04,19.12,0,0,.99-13.04,9.29-21.09,6.77-6.56,14.98-10.27,14.98-10.27,0,0-9.62-.64-16.23-7.61-5.7-6.01-8.04-22.01-8.04-22.01Z"/>
        <path class="cls-3" d="M143.52,149.17c-3.63-1.29-7.89-.04-11.61.33-4.17.41-8.36.63-12.55.59-8.6-.09-17.07-1.15-25.51-2.78-2.15-.41-3.03,2.61-.91,3.3,8.49,2.77,17.49,4.18,26.42,4.4,4.56.11,9.15-.04,13.69-.53,3.74-.41,8.1-.63,11.01-3.27.72-.66.27-1.75-.54-2.03Z"/>
        <path class="cls-3" d="M154.9,148.41c.13-.59-.09-1.09-.58-1.42-1.39-.95-3.73.27-5.18.62-.94.22-1.5,1.29-1.25,2.19.27.98,1.25,1.44,2.19,1.25,1.55-.32,4.41-.77,4.81-2.63Z"/>
        <path class="cls-3" d="M47.89,33.15c4.56,1.85,9.19,3.89,14.02,4.88,1.7.35,2.71-1.86,1.19-2.82-3.99-2.54-8.52-4.25-12.9-6.01-4.17-1.68-8.75-4.12-13.33-4.12-1,0-1.57,1.29-.83,2,3.15,3.04,7.86,4.44,11.84,6.06Z"/>
        <path class="cls-3" d="M62.03,44.8c1.82-.29,1.38-3.25-.43-3.2-4.77.13-23.71-.84-27.83.63-1.06.38-1.48,1.97-.33,2.56,4.06,2.11,23.7.79,28.6,0Z"/>
        <path class="cls-3" d="M60.49,49.07c-4.43,2-8.85,4.02-13.23,6.12-4.02,1.93-8.63,3.64-11.94,6.69-1.06.98.09,2.43,1.29,2.22,4.43-.76,8.71-3.45,12.67-5.45,4.33-2.17,8.61-4.42,12.89-6.7,1.93-1.03.24-3.75-1.69-2.88Z"/>
        <path class="cls-3" d="M100.03,161.66c-.7-.5-1.58-.43-2.41-.46-.76-.03-1.52-.05-2.27-.13-1.52-.15-3.01-.48-4.46-.93-.39-.12-.83.14-.93.53-.12.43.15.78.53.93,1.51.62,3.08,1.09,4.69,1.41.81.16,1.63.29,2.45.35.4.03.79.06,1.18.01.56-.06.93-.2,1.37-.55.41-.32.2-.93-.15-1.18Z"/>
        <path class="cls-3" d="M97.93,166.82c-.67-.2-1.38-.11-2.07-.14-.31-.01-.62-.03-.93-.06-.08,0-.15-.02-.23-.03-.02,0-.1-.01-.15-.02-.05,0-.13-.02-.14-.02-.09-.01-.18-.03-.27-.04-.47-.08-1.02.13-1.13.64-.11.47.14,1.02.64,1.14.7.16,1.42.27,2.14.34.7.07,1.48.16,2.14-.12.35-.15.66-.43.64-.85-.02-.39-.26-.73-.64-.85Z"/>
        <path class="cls-3" d="M97.74,173.11c-.22-.15-.41-.26-.69-.28-.1,0-.2,0-.29,0,.04,0,.08,0,.13,0-.04-.02-.09-.03-.13-.04-.39-.1-.85,0-1.26,0-.17,0-.35,0-.52-.02-.07,0-.15-.01-.22-.02-.03,0-.07,0-.1-.01-.16-.04-.33-.05-.49-.09-.17-.04-.34-.08-.51-.13-.54-.15-1.18.19-1.31.74-.13.58.17,1.13.74,1.31.78.24,1.6.37,2.41.4.48.01,1.09.03,1.52-.2.04-.01.08-.04.11-.06.06-.02.13-.05.17-.07.26-.1.43-.22.58-.46.04-.06.07-.12.1-.17.18-.32.06-.69-.23-.89Z"/>
        <path class="cls-3" d="M157.11,214.79s0,.02,0,.03c0,.02,0,0,.01-.04,0,0,0,0,0,0,0,0,0,0,0,0Z"/>
        <path class="cls-3" d="M155.44,214.33s-.03,0-.06.04c0,0,0,0,0,0,.01-.01.04-.02.06-.03Z"/>
        <path class="cls-3" d="M157.08,213.91c-.17-.1-.35-.05-.53,0-.03,0-.06.02-.09.03,0,0-.02,0-.03,0-.03,0-.07,0-.08,0-.25.01-.44.14-.65.26-.05.03-.11.06-.17.09-.02.01-.06.03-.1.04,0,0,0,.01-.04.02,0,0-.02,0-.02,0,0,0,0,0-.01,0,0,0,0,0,0,0-.02,0-.05.02-.07.03-.07.02-.14.05-.2.07-.15.04-.29.08-.44.11-.02,0-.05,0-.07.01-.08,0-.15.01-.23.02-.14,0-.29,0-.43,0-.04,0-.07,0-.11,0,0,0-.03,0-.05,0,0,0-.01,0-.01,0-.05,0-.11-.02-.16-.03-.39-.08-.85.11-.95.54-.09.38.12.86.54.95.64.13,1.26.13,1.9,0,.56-.11,1.14-.34,1.61-.67.19-.14.35-.31.41-.54,0,0,0-.02,0-.03,0,0,0-.02,0-.02,0,0,0,0,0,.01.01-.03.03-.06.04-.09.04-.08.08-.17.11-.25.05-.19,0-.42-.18-.53Z"/>
        <path class="cls-3" d="M154.61,209.7c.32-.04.63-.08.91-.27.29-.19.45-.5.41-.85-.05-.34-.28-.61-.61-.71-.38-.12-.76-.04-1.14.02-.26.04-.53.08-.79.12-.53.08-1.06.16-1.58.24-.21.03-.44.24-.54.42-.11.2-.16.48-.09.7.07.22.21.43.42.54.23.12.44.13.7.09.52-.07,1.04-.14,1.56-.21.25-.03.51-.07.76-.1Z"/>
        <path class="cls-3" d="M154.2,203.5c-.29.01-.58.01-.86.06-.24.04-.48.1-.72.15-.22.05-.4.22-.52.4-.08.14-.12.28-.12.44,0,.12.02.23.08.34.04.11.1.2.18.28.08.09.17.15.28.18.1.05.22.08.34.08.16,0,.31-.04.44-.12.21-.12.42-.24.63-.37.14-.09.26-.21.39-.31.09-.07.18-.15.27-.22.03-.04.06-.07.08-.11.02-.04.04-.08.05-.13.03-.12.02-.24-.03-.35-.08-.19-.28-.34-.49-.33Z"/>
        <path class="cls-1" d="M138.04,82.6s.54-14.27,2.69-16.42c2.15-2.15,17.77-7.81,12.92-25.3-4.85-17.5-78.88-12.38-82.91-9.15-4.04,3.23-.27,23.15,1.08,23.15s26.38-5.11,34.46,4.04,5.92,23.42,5.92,23.42l25.84.27Z"/>
        <path class="cls-3" d="M81.77,28.76c-.47,4.33-.81,8.74-.61,13.1.09,1.98.29,3.93.53,5.89.14,1.15.16,2.32.24,3.47.04.64.07,1.29.13,1.93.05.56.05,1.09.47,1.5.16.16.5.2.65,0,.69-.86.29-2.4.25-3.44-.05-1.15-.15-2.32-.11-3.47.06-1.97.14-3.93.18-5.89.08-4.36.04-8.74-.1-13.1-.03-1.07-1.52-1.03-1.63,0h0Z"/>
        <path class="cls-3" d="M141,75.75c-3.77-1.52-31.5-2.53-32.84.25-1.35,2.78-1.62,18.22,1.08,18.72,2.69.51,29.88.25,32.57-.51,2.69-.76,2.96-16.95-.81-18.47Z"/>
      </g>
    </g>
  </g>
</svg>