<?xml version="1.0" encoding="UTF-8"?>
<svg id="Capa_2" xmlns="http://www.w3.org/2000/svg" viewBox="0 0 243.3 243.3">
  <defs>
    <style>
      .cls-1 {
        fill: #5a992f;
      }

      .cls-2 {
        fill: #fff;
      }

      .cls-3 {
        fill: none;
      }

      .cls-4 {
        fill: #4f3535;
      }

      .cls-5 {
        fill: #c0c728;
      }
    </style>
  </defs>
  <g id="grocery_icons">
    <g>
      <rect class="cls-3" width="243.3" height="243.3"/>
      <g>
        <path class="cls-5" d="M84.27,62.12s16.44,9.33,40,9.11c23.56-.22,41.33-8.67,41.33-8.67,0,0,11.11,26.44,11.33,77.78.22,51.33-6.88,73.85-13.33,83.33-3.78,5.56-14,14.22-44.22,12.44-30.22-1.78-36.78-15.11-39.89-28-3.11-12.89-10.56-51.33-7-87.33,3.56-36,11.78-58.67,11.78-58.67Z"/>
        <path class="cls-2" d="M148.09,136.51c-5.6-27.88-32.18-38.51-45.2-8.85-6.76,19.25-7.7,40.9-.57,60.2,7.33,24.49,32.32,24.79,42.17,1.91,7.19-16.63,7.99-35.78,3.61-53.25Z"/>
        <path class="cls-1" d="M170.93,80.79s-14.44,9.78-42.67,10.45c-29.4.69-48.66-13.56-48.66-13.56,0,0,6.13-23,12.51-41.28.36-1.01.71-2.01,1.06-2.99,3.23-8.9,6.43-16.21,8.87-18.39,8.45-7.56,39.15-6.95,47.17-1.31,2.97,2.09,5.47,9.86,8.53,18.48.42,1.17.83,2.38,1.24,3.6,6.51,19.51,11.95,45,11.95,45Z"/>
        <path class="cls-1" d="M144.74,157.06c-.01-.46-.52-.78-.93-.53-8.39,5.11-15.06,12.4-19.02,21.36-.75-4.49-2.15-9.01-4.96-12.64-1.57-2.03-3.51-3.53-5.69-4.87-2.69-1.64-5.42-3.29-8.21-4.76-.58-.3-1.15.08-1.21.7-.33,3.24-.46,6.38.1,9.61.5,2.91,1.32,6.17,3.09,8.59,3.76,5.13,10.78,3.83,16.21,4.99-.01.03-.03.07-.04.1,0,0,0,0,0,0-.85.1-.9,1.39,0,1.37,5.79-.13,11.65-2.88,15.56-7.15,4.18-4.57,5.29-10.76,5.12-16.77Z"/>
        <path class="cls-4" d="M123.5,151.88c-.66,3.62-.36,7.47-.37,11.16-.01,3.8-.03,7.61-.04,11.41l-.04,11.41c-.01,3.72-.22,7.5.35,11.19.15.98,1.82.98,1.97,0,.57-3.69.36-7.47.35-11.19-.01-3.8-.03-7.61-.04-11.41-.01-3.8-.03-7.61-.04-11.41-.01-3.69.29-7.54-.37-11.16-.16-.87-1.6-.87-1.75,0h0Z"/>
        <path class="cls-1" d="M124.73,156.38c2.41-1.5,4.87-3.47,6.08-5.89,1.41-2.83,1.73-5.96,1.36-9.08-.87-7.23-5.22-13.25-8.34-19.63-.28-.57-1.05-.33-1.24.16-2.64,7.09-7.2,13.74-7.15,21.57.02,3.08.87,6.12,2.73,8.61,1.36,1.81,5.48,4.93,6.55,4.26Z"/>
        <path class="cls-4" d="M158.98,35.79c-.65.41-1.32.8-1.96,1.17-2.26,1.29-4.66,2.37-7.12,3.25-4.67,1.69-9.68,2.55-14.63,3.02-.31,2.61-.8,5.25-2.35,7.41-1.55,2.16-4.03,3.82-6.78,3.64-5.52-.36-8.41-5.87-8.87-10.9-2.33.05-4.72-.22-6.99-.53-2.98-.41-5.9-1.06-8.75-2.02-3.26-1.11-6.45-2.6-9.42-4.43.36-1.01.71-2.01,1.06-2.99,2.98,1.53,6.09,2.78,9.37,3.76,2.69.8,5.48,1.43,8.26,1.81,2.8.38,5.56.23,8.35.41,1.26.08,2.2,1.17,1.87,2.45-.88,3.39,1.2,8.9,5.3,9.02,4.45.13,5.28-6.08,5.62-9.24.11-1.01.73-1.67,1.75-1.75,5.16-.4,10.17-1.35,15.06-3.08,2.3-.81,4.51-1.82,6.62-3.04.82-.48,1.6-1.01,2.37-1.56.42,1.17.83,2.38,1.24,3.6Z"/>
        <path class="cls-4" d="M151.68,15.87c-1.86-4.29-6.58-5.39-10.64-6.33-6.34-1.48-13.58-1.66-20.07-1.25-6.39.4-13.73.95-19,4.95-3.15,2.39-5.57,7.45-2.41,10.8,1.49,1.58,3.73,2.27,5.75,2.88,2.63.78,5.32,1.31,8.03,1.72,5.31.81,10.73,1.17,16.1,1.06,5.28-.12,10.64-.76,15.52-2.9,4.14-1.81,8.9-5.88,6.72-10.92ZM145.46,22.17c-2.93,1.92-7.21,2.68-10.1,3.08-5.34.73-10.74.41-16.1.29-4.73-.11-9.25-.77-13.84-1.98-1.68-.44-3.91-1.03-4.54-2.87-.65-1.89.49-3.43,1.89-4.55,3.23-2.58,7.46-3.65,11.51-4.05,7.22-.7,14.49-.67,21.72-.13,3.59.27,6.99.92,10.17,2.71.93.52,1.88,1.19,2.22,2.2.28.82.09,1.74-.29,2.51-.57,1.13-1.5,2.05-2.63,2.79Z"/>
        <path class="cls-4" d="M78.81,80.06c.12.15.25.29.38.4,3.49,2.98,7.64,5.23,11.82,7.09,5.31,2.36,10.9,4.02,16.61,5.06,13.51,2.47,27.67,2.26,40.95-1.35,3.79-1.03,7.51-2.33,11.14-3.83,4.01-1.66,8.43-3.28,11.81-6.06,1.41-1.16-.11-3.41-1.72-2.95-3.73,1.05-7.16,3.19-10.72,4.7-3.05,1.29-6.16,2.43-9.33,3.39-5.96,1.81-12.09,2.92-18.3,3.33-12.53.82-25.5.09-37.29-4.5-3.49-1.36-6.76-3.18-10-5.03-1.14-.65-3.39-2.56-4.7-2.54-1.74.03-1.33,1.42-.64,2.3Z"/>
        <path class="cls-2" d="M85.35,96.31c-1.43,3.55-2.56,7.04-3.25,10.82-.6,3.23-1.5,6.89.56,9.75,1.06,1.47,3.02,1.92,4.42.57,2.46-2.38,2.4-5.63,2.93-8.83.58-3.5,1.21-7.02,1.97-10.48.96-4.41-5-5.86-6.62-1.83h0Z"/>
        <path class="cls-2" d="M84.71,129.71c4.04,0,4.05-6.28,0-6.28s-4.05,6.28,0,6.28h0Z"/>
        <path class="cls-4" d="M156.47,217.42c.53.09,1.04.14,1.57.07.67-.08,1.23-.22,1.84-.52.48-.23.93-.54,1.29-.93.29-.31.59-.65.72-1.07.09-.28.11-.58.14-.88.07-.93-1.1-1.54-1.86-1.06-.27.17-.55.28-.79.51-.16.16-.32.31-.5.45l.31-.24c-.21.16-.42.33-.63.49l.31-.24c-.36.27-.76.49-1.17.67l.35-.15c-.34.14-.7.25-1.07.3l.36-.05c-.18.02-.35.04-.53.04-.66,0-1.21.49-1.29,1.14-.08.59.3,1.34.94,1.45h0Z"/>
        <path class="cls-4" d="M157.87,209.35c.56-.34,1.13-.68,1.69-1.02.28-.17.55-.36.83-.54.19-.13.42-.26.57-.43.11-.13.22-.27.33-.4.16-.19.26-.37.3-.62.03-.23,0-.49-.13-.69-.27-.42-.73-.59-1.22-.5-.17.03-.33.06-.5.1-.23.06-.45.19-.66.3-.29.15-.58.31-.86.48l-1.69,1.02c-.29.17-.52.47-.61.8s-.05.74.13,1.03c.39.6,1.18.86,1.82.48h0Z"/>
      </g>
    </g>
  </g>
</svg>