<?xml version="1.0" encoding="UTF-8"?>
<svg id="Capa_2" xmlns="http://www.w3.org/2000/svg" viewBox="0 0 243.3 243.3">
  <defs>
    <style>
      .cls-1 {
        fill: #fff;
      }

      .cls-2 {
        fill: none;
      }

      .cls-3 {
        fill: #e58473;
      }

      .cls-4 {
        fill: #4f3535;
      }

      .cls-5 {
        fill: #f7bc3b;
      }

      .cls-6 {
        fill: #d9472e;
      }

      .cls-7 {
        fill: #f0b5ab;
      }
    </style>
  </defs>
  <g id="grocery_icons">
    <g>
      <rect class="cls-2" width="243.3" height="243.3"/>
      <g>
        <path class="cls-5" d="M39.28,93.35s.12,9.58-5.6,14.71c-5.13,4.61-10.92,5.21-10.92,5.21,0,0,7.54,2.72,11.27,7.38,3.48,4.35,5.25,12.48,5.25,12.48,0,0,.65-8.51,6.06-13.76,4.41-4.28,9.77-6.7,9.77-6.7,0,0-6.28-.42-10.59-4.96-3.72-3.92-5.25-14.36-5.25-14.36Z"/>
        <path class="cls-5" d="M190.49,145.57s.07,5.99-3.5,9.2c-3.21,2.88-6.83,3.26-6.83,3.26,0,0,4.72,1.7,7.05,4.62,2.18,2.72,3.28,7.81,3.28,7.81,0,0,.4-5.32,3.79-8.61,2.76-2.68,6.12-4.19,6.12-4.19,0,0-3.93-.26-6.63-3.1-2.33-2.45-3.28-8.99-3.28-8.99Z"/>
        <path class="cls-5" d="M201.11,13.68s.14,11.13-6.5,17.09c-5.96,5.35-12.69,6.06-12.69,6.06,0,0,8.76,3.16,13.1,8.58,4.05,5.06,6.1,14.5,6.1,14.5,0,0,.75-9.88,7.05-15.99,5.13-4.97,11.36-7.78,11.36-7.78,0,0-7.29-.48-12.31-5.77-4.32-4.55-6.1-16.69-6.1-16.69Z"/>
        <g>
          <g>
            <path class="cls-6" d="M95.11,34.19s-16.14,11.19-20.04,18.73c-3.37,6.52-6.37,168.69-3.85,171.99,2.53,3.29,65.64.78,67.47-.91,1.83-1.68-5.05-167.93-8.61-175.05-3.56-7.13-22.05-17.63-22.05-17.63l-12.93,2.87Z"/>
            <path class="cls-7" d="M99.01,189.9c1.32,5.76,8.53,7.34,12.36,2.73,2.11-2.54,2.11-6.18,2.14-9.3,0-.76.01-1.53.02-2.29.17-21.65-.57-43.29-1.54-64.91-.34-7.57-.62-15.13-.87-22.7-.22-6.68.33-13.91-1.17-20.45-1.32-5.76-8.53-7.34-12.36-2.73-2.48,2.99-2.09,7.93-2.15,11.6-.31,16.85.26,33.67.85,50.51.51,14.6,1.24,29.19,1.78,43.78.17,4.46-.08,9.4.93,13.77Z"/>
            <path class="cls-4" d="M113.51,34.83s-.32-14.37-2.37-17.92-14.16-2.13-16.65-.78c-2.49,1.36-3.16,5.7-2.85,10.09s.61,9.38.61,9.38c0,0,2.59,4.4,10.91,3.89,8.32-.51,10.35-4.66,10.35-4.66Z"/>
            <path class="cls-4" d="M78.7,51.87c5.49,5.17,12.89,7.49,20.3,8.13,6.65.57,13.53-.54,19.6-3.34,3.43-1.58,6.58-3.74,9.24-6.41.94-.95-.43-2.52-1.38-1.57-5.71,5.75-13.59,8.79-21.61,9.35-9.09.63-17.97-1.74-25.48-6.93-.47-.32-1.1.36-.67.77h0Z"/>
            <path class="cls-1" d="M93.99,18.69c1.15,1.05,2.72,1.73,4.18,2.2,1.49.49,3.08.75,4.65.68,1.44-.06,2.85-.35,4.18-.9.63-.26,1.23-.58,1.79-.95.6-.4,1.3-.84,1.64-1.5.3-.61-.23-1.4-.93-1.05-.58.29-1.02.78-1.55,1.14-.5.34-1.04.61-1.59.85-1.14.48-2.4.75-3.64.78-1.37.04-2.74-.17-4.05-.56-1.41-.42-2.66-1.16-4.02-1.69-.55-.21-1.11.58-.66,1h0Z"/>
            <path class="cls-4" d="M71.79,214.71c17.27,1.08,34.64.06,51.91-.56,5.07-.18,10.13-.34,15.2-.43,1.45-.03,1.13-2.27-.32-2.24-17.33.36-34.64,1.59-51.98,1.57-4.86,0-9.73-.12-14.59-.29-1.24-.04-1.5,1.87-.23,1.95h0Z"/>
            <path class="cls-4" d="M77.91,213.65c-.23.94-.16,1.99-.2,2.96-.05,1.06-.08,2.12-.12,3.18-.04,1.03-.09,2.06-.14,3.09-.03.5-.05,1-.08,1.5s-.12,1.04-.02,1.54c.11.59,1.02.79,1.24.15.31-.92.22-2.06.27-3.03.06-1.06.1-2.12.15-3.18.04-1.03.08-2.06.1-3.09s.16-2.13-.02-3.13c-.13-.7-1.02-.62-1.17.01h0Z"/>
            <path class="cls-4" d="M97.68,214.14c-.23.93-.16,1.97-.2,2.93-.05,1.04-.07,2.08-.11,3.12s-.08,2.02-.13,3.03c-.02.48-.05.96-.08,1.44-.03.51-.12,1.07-.02,1.58.11.59,1.02.79,1.24.15.16-.48.16-.98.19-1.47s.06-1.02.08-1.53c.05-1.04.1-2.08.14-3.12.04-1.01.08-2.02.09-3.03.02-1.01.16-2.11-.03-3.1-.13-.7-1.02-.62-1.17.01h0Z"/>
            <path class="cls-4" d="M103.54,213.97c-.23.92-.17,1.95-.22,2.89-.06,1.02-.11,2.03-.17,3.05-.06.98-.12,1.97-.18,2.95-.03.49-.06.97-.09,1.46s-.12,1.03-.03,1.52c.12.59,1.02.79,1.24.15.16-.46.16-.94.19-1.41.04-.52.07-1.03.1-1.55.07-1.02.13-2.03.19-3.05.06-.99.11-1.97.14-2.96.03-.99.18-2.09,0-3.07-.13-.7-1.01-.62-1.17.01h0Z"/>
            <path class="cls-4" d="M121.28,213.76c-.19.91-.07,1.93-.07,2.86,0,.99.01,1.98.01,2.97s0,1.92,0,2.88c0,.48,0,.96-.02,1.44s-.08,1.04.04,1.52c.14.55,1.03.83,1.24.15.14-.46.12-.93.13-1.41,0-.51.02-1.02.02-1.53,0-.99.01-1.98,0-2.97,0-.96,0-1.92-.03-2.88s.08-2.08-.15-3.03c-.16-.66-1.03-.66-1.17.01h0Z"/>
            <path class="cls-4" d="M127.79,213.44c-.19.92-.08,1.95-.09,2.89-.02,1.02-.02,2.03-.03,3.05-.01.99-.03,1.97-.05,2.96,0,.47-.02.95-.03,1.42-.01.51-.09,1.07.03,1.57.13.56,1.04.83,1.24.15.27-.92.15-2.02.17-2.97.02-1.02.04-2.03.05-3.05s.03-1.97.01-2.96.1-2.1-.13-3.07c-.16-.66-1.04-.66-1.17.01h0Z"/>
            <path class="cls-4" d="M134.35,212.76c-.19.92-.08,1.95-.09,2.89-.02,1.02-.02,2.03-.03,3.05s-.03,1.97-.05,2.96c0,.47-.02.95-.03,1.42-.01.51-.09,1.07.03,1.57.13.56,1.04.83,1.24.15.27-.92.15-2.02.17-2.97.02-1.02.04-2.03.05-3.05s.03-1.97.01-2.96c-.01-.99.1-2.1-.13-3.07-.16-.66-1.04-.66-1.17.01h0Z"/>
            <path class="cls-4" d="M110.49,213.89c-.23.92-.16,1.97-.21,2.92-.05,1.03-.09,2.07-.14,3.1s-.09,2.01-.15,3.01c-.03.48-.05.96-.08,1.43-.03.51-.13,1.07-.03,1.58.11.59,1.02.79,1.24.15.16-.47.16-.97.19-1.47s.06-1.01.09-1.52c.06-1.03.11-2.07.16-3.1.05-1,.09-2.01.12-3.01s.17-2.11-.02-3.1c-.13-.7-1.02-.62-1.17.01h0Z"/>
            <path class="cls-4" d="M116.13,213.79c-.24.93-.19,1.93-.25,2.88-.06,1.02-.11,2.04-.17,3.05-.06.99-.12,1.97-.19,2.96-.03.49-.07.98-.1,1.47s-.13,1.04-.03,1.54c.12.59,1.02.79,1.24.15.16-.46.16-.95.19-1.43s.07-.98.1-1.47c.07-1.02.14-2.03.2-3.05s.12-1.97.15-2.96.18-2.05,0-3.01c-.1-.52-.98-.75-1.14-.14h0Z"/>
            <path class="cls-4" d="M85.87,214.03c-.14,1.04-.3,2.05-.38,3.1-.07.99-.15,1.97-.21,2.96s-.14,1.9-.19,2.85c-.05,1.03-.19,2.14-.05,3.16.12.89,1.44.86,1.55-.02.12-.97.04-1.99.07-2.96s.08-1.96.16-2.94c.08-.96.17-1.91.26-2.86.1-1.05.1-2.08.11-3.13,0-.83-1.19-1.02-1.31-.15h0Z"/>
            <path class="cls-4" d="M91.75,214.39c-.14,1.02-.29,2.02-.35,3.06-.06.95-.11,1.91-.14,2.86s-.09,1.84-.12,2.76c-.04,1.02-.16,2.11-.02,3.12.12.88,1.44.86,1.55-.02.12-.95.02-1.96.04-2.92s.04-1.9.09-2.84.12-1.85.19-2.78c.08-1.04.08-2.05.08-3.09,0-.83-1.19-1.02-1.31-.15h0Z"/>
          </g>
          <path class="cls-1" d="M99.73,79.33c1.21.8,2.45,1.57,3.7,2.3.61.35,1.22.69,1.83,1.02.67.36,1.51.96,2.3.83.54-.09.85-.75.6-1.23-.34-.65-1.19-.93-1.82-1.25s-1.29-.67-1.93-1.02c-1.25-.69-2.48-1.42-3.68-2.18-1-.63-2,.88-1.01,1.54h0Z"/>
          <path class="cls-1" d="M101.95,88.89c.49.22.97.44,1.46.65.24.11.49.22.73.32l.34.15c.17.07.35.1.54.13.28.04.57-.18.68-.41s.11-.6-.1-.78c-.14-.12-.27-.25-.44-.34l-.33-.16c-.24-.12-.48-.24-.72-.35l-1.44-.69c-.21-.1-.39-.16-.63-.12-.26.04-.47.23-.58.46-.1.21-.11.41-.04.63.09.27.27.41.52.52h0Z"/>
          <path class="cls-1" d="M101.25,127.96l2.59,1.73c.43.29.86.58,1.3.87.49.33,1,.67,1.6.67s.96-.56.73-1.11-.76-.89-1.25-1.21c-.44-.28-.87-.57-1.31-.85-.87-.57-1.75-1.13-2.62-1.7-.42-.27-1.06-.17-1.32.27s-.17,1.03.27,1.32h0Z"/>
          <path class="cls-1" d="M100.82,139.52c.64.38,1.28.77,1.92,1.15.31.18.61.38.92.55.44.24.94.48,1.45.38.35-.07.68-.48.56-.85-.11-.34-.23-.53-.51-.75-.15-.12-.3-.24-.47-.35-.3-.19-.63-.36-.94-.54l-1.94-1.11c-.41-.23-.99-.18-1.25.26-.24.41-.18.99.26,1.25h0Z"/>
          <path class="cls-1" d="M100.17,148.28c.39.17.77.34,1.16.51.19.08.39.17.58.25.09.04.18.08.27.11.15.05.35.06.51.08.36.04.77-.25.86-.59.04-.14.05-.29.02-.44-.04-.24-.2-.39-.37-.54-.08-.07-.17-.16-.26-.21-.08-.05-.17-.09-.26-.13-.25-.12-.51-.24-.76-.36l-1.16-.52c-.21-.09-.54-.04-.73.05-.22.11-.43.34-.49.57s-.07.51.05.73c.13.24.32.38.57.49h0Z"/>
          <path class="cls-1" d="M101.57,156.29c.29.03.58.06.87.09l.2-.02c.1-.02.19-.06.27-.12.06-.03.11-.08.15-.14.08-.07.13-.16.16-.27l.04-.2-.02-.2c-.02-.1-.06-.19-.12-.27-.05-.09-.12-.17-.21-.22-.25-.16-.49-.33-.74-.49-.28-.19-.69-.23-.99-.06l-.22.14c-.14.12-.23.27-.29.44-.05.13-.06.25-.04.38,0,.13.03.25.09.37.08.16.2.29.35.39.15.1.32.15.5.16h0Z"/>
          <path class="cls-1" d="M103.54,183.91c.62.4,1.25.77,1.91,1.11.38.19.76.37,1.17.51s.84.19,1.26.24c.35.05.76-.25.85-.59.1-.37-.02-.75-.34-.97-.29-.2-.56-.41-.87-.58-.18-.1-.37-.21-.56-.31-.17-.08-.18-.09-.01,0-.05-.02-.1-.05-.15-.07-.07-.04-.15-.07-.22-.11-.63-.32-1.24-.68-1.84-1.07-.48-.32-1.22-.2-1.53.32-.31.51-.2,1.19.32,1.53h0Z"/>
        </g>
        <g>
          <path class="cls-4" d="M163.08,50.19c-3.97-.04-7.89.19-11.85-.28-1.87-.22-3.8-.54-4.53-2.51-.14-.38-.25-.79-.34-1.19,2.74-.2,5.48-.39,8.23-.51,1.51-.06,3.02-.11,4.54-.15.74-.02,1.48-.04,2.23-.05.79-.02,1.61.03,2.38-.15.54-.13.47-.83-.05-.92-.78-.15-1.6-.06-2.39-.04-.79.02-1.58.04-2.36.06-1.56.04-3.11.1-4.67.17-2.7.12-5.4.29-8.09.56-.16-1.13-.21-2.3-.33-3.39-.06-.58-.12-1.17-.18-1.76,2.53-.18,5.05-.36,7.58-.46,1.51-.06,3.02-.11,4.54-.15.74-.02,1.48-.04,2.23-.05.79-.02,1.61.03,2.38-.15.54-.13.47-.83-.05-.93-.78-.15-1.6-.06-2.39-.04-.79.02-1.58.04-2.36.06-1.56.04-3.11.1-4.67.17-2.46.11-4.91.27-7.36.49-.15-1.65-.27-3.32-.32-4.98,2.76-.2,5.51-.4,8.27-.51,1.51-.06,3.02-.11,4.54-.15.74-.02,1.48-.04,2.23-.05.79-.02,1.61.03,2.38-.15.54-.13.47-.83-.05-.92-.78-.15-1.6-.06-2.39-.04-.79.02-1.58.04-2.36.06-1.56.04-3.11.1-4.67.17-2.66.12-5.32.28-7.97.55,0-1.03.02-2.06.09-3.08.04-.53.07-1.12.13-1.71,2.76-.2,5.52-.4,8.29-.51,1.51-.06,3.02-.11,4.54-.15.74-.02,1.48-.04,2.23-.05.79-.02,1.61.03,2.38-.15.54-.13.47-.83-.05-.92-.78-.15-1.6-.06-2.39-.04-.79.02-1.58.04-2.36.06-1.56.04-3.11.1-4.67.17-2.6.12-5.2.28-7.8.53.24-1.11.72-2.12,1.77-2.63,1.53-.76,3.28-1.08,4.96-1.29,3.88-.49,7.82.07,11.67.57,1.41.18,1.56-1.98.17-2.19-3.98-.6-8.03-1.13-12.06-.68-1.93.21-3.93.7-5.69,1.54-1.99.94-2.7,2.58-3.09,4.65-.85,4.54-.39,9.22-.15,13.79.21,4.08.05,9.38,4.5,11.22,2.26.93,4.97,1.01,7.37,1.12,2.7.12,5.44.12,8.13-.06,1.65-.11,1.51-2.88-.14-2.89Z"/>
          <path class="cls-3" d="M162.24,228.12c-8.09,6.64-13.02-.84-15.06-12.3-.38-2.13-.72-6.58-1.01-12.51-.81-16.35-1.24-43.89-1.11-64.79.07-12.17.33-22.1.82-26.25,1.64-13.81,13.74-31.38,13.74-31.38,0,0,.38-37.79.26-48.51-.13-10.72,2.07-15.91,8.13-11.14,8.23,6.48,1.71,138.91,1.8,156.54.11,17.63.52,43.7-7.58,50.34Z"/>
          <path class="cls-1" d="M157.28,96.83c-1.3,1.21-2.57,2.46-3.57,3.94-1.03,1.52-1.8,3.18-2.4,4.92s-.95,3.44-1.17,5.21c-.11.89-.2,1.8-.14,2.7.06.95.29,2.2,1,2.88.75.72,1.68.61,2.34-.16.52-.61.7-1.72.8-2.5s.1-1.6.19-2.4c.16-1.51.49-3,.92-4.46.87-2.94,2.09-6.05,3.77-8.62.7-1.08-.76-2.41-1.73-1.51h0Z"/>
          <path class="cls-1" d="M149.69,123.69c.08.26.13.52.15.79l-.03-.37c.02.24,0,.47.05.71.02.12.04.24.04.35l-.03-.37c.01.15.01.3,0,.45,0,.26.03.49.14.72.17.33.46.6.82.71,0,0,.01,0,.02,0,.46.14.96.02,1.32-.29.41-.36.46-.81.55-1.3.07-.39.07-.79-.03-1.18s-.23-.77-.41-1.13c-.08-.17-.19-.31-.34-.42-.13-.14-.29-.23-.48-.28l-.35-.07c-.18-.02-.36.01-.52.08-.12.03-.23.08-.32.16-.16.09-.3.22-.39.38l-.16.34c-.07.23-.09.47-.04.71h0Z"/>
          <path class="cls-7" d="M146.17,203.31c-.81-16.35-1.24-43.89-1.11-64.79,2.73,1.21,5.29,2.81,7.5,4.81,9.5,8.59,11.12,23.4,7.3,35.63-2.79,8.95-7.95,16.85-13.69,24.35Z"/>
        </g>
      </g>
    </g>
  </g>
</svg>