<?xml version="1.0" encoding="UTF-8"?>
<svg id="Capa_2" data-name="Capa 2" xmlns="http://www.w3.org/2000/svg" viewBox="0 0 200 200">
  <defs>
    <style>
      .cls-1 {
        fill: #00b9d1;
      }

      .cls-1, .cls-2, .cls-3, .cls-4, .cls-5, .cls-6, .cls-7 {
        stroke-width: 0px;
      }

      .cls-2 {
        fill: none;
      }

      .cls-3 {
        fill: #b5d9b1;
      }

      .cls-4 {
        fill: #fff;
      }

      .cls-5 {
        fill: #593737;
      }

      .cls-6 {
        fill: #6bb262;
      }

      .cls-7 {
        fill: #bdafaf;
      }
    </style>
  </defs>
  <g id="colorful_icons" data-name="colorful icons">
    <g>
      <g>
        <g>
          <path class="cls-7" d="m58.28,138.53s-2.7-41.36.34-71.25,19.87-42.2,36.47-41.7c16.88.51,20.82,11.05,22.79,15.87,1.52,3.71,2.19,11.99,2.19,11.99,0,0,10.4-.36,10.64-1.01.13-.36.34-22.29-18.06-33.26-11-6.56-24.92-6.03-36.36-.9-26.78,12-30.19,46.25-31,71.81-.84,26.51,1.35,48.45,1.35,48.45h11.65Z"/>
          <g>
            <path class="cls-5" d="m141.44,58.45c0,.47-.01.93-.04,1.38-.11,2.11-.41,3.97-.69,4.98-.01.04-.02.07-.03.11-.1.34-.24.66-.41.95-1.25,2.26-4.21,2.9-9.9,3.26-6.41.43-16.29.17-17.65-1.68-.2-.28-.43-.78-.63-1.44h0c-.13-.4-.25-.84-.37-1.33-.33-1.39-.62-3.11-.74-4.9-.04-.44-.06-.87-.07-1.31-.05-1.82.08-3.64.51-5.15.07-.28.16-.57.27-.82.27-.74.65-1.38,1.12-1.86,3.5-3.6,20.17-3.2,24.98-1.93,1.51.4,2.44,1.83,2.99,3.72.09.31.17.64.24.97.32,1.57.44,3.35.41,5.04Z"/>
            <g>
              <path class="cls-4" d="m141.03,53.41c-9.75.69-19.85.24-29.61-.07.07-.28.16-.57.27-.82,9.59-.29,19.5-.74,29.09-.08.09.31.17.64.24.97Z"/>
              <path class="cls-4" d="m141.44,58.45c0,.47-.01.93-.04,1.38-6.28.4-12.68.06-18.95.03-3.82-.02-7.64-.01-11.46-.07-.04-.44-.06-.87-.07-1.31,3.84-.06,7.69-.05,11.53-.07,6.28-.03,12.69-.35,18.99.04Z"/>
              <path class="cls-4" d="m140.71,64.81s-.02.07-.03.11c-.1.34-.24.66-.41.95-3.66.02-7.3-.01-10.95,0-5.67.02-11.51.41-17.22.14h0c-.13-.4-.25-.84-.37-1.33,5.82-.3,11.8.1,17.6.12,3.79.01,7.59-.03,11.39,0Z"/>
            </g>
          </g>
          <path class="cls-5" d="m34.81,135.89c.33-.08,16.78-.57,22.89-.81,6.11-.24,11-.33,10.92,1.14-.08,1.47-7.09,20.04-7.09,21.02s10.92,20.69,9.86,22.89c-1.06,2.2-33.48,1.71-36.01,1.3-2.53-.41-1.55-5.21-.81-6.92.73-1.71,9.29-16.29,9.45-17.03.16-.73-9.37-16.78-9.78-18.41-.41-1.63.57-3.18.57-3.18Z"/>
          <path class="cls-7" d="m21.12,133.53c-2.28,1.47-13.52,10.43-14.66,12.87-1.14,2.44-1.47,15.97-.9,18.17.57,2.2,8.88,12.06,12.79,12.95,3.91.9,16.21,1.55,19.31-.08,3.1-1.63,10.18-9.78,11.08-12.38.9-2.61,1.14-16.37.33-18.41-.81-2.04-11.49-12.06-14.01-13.36-2.53-1.3-11.65-1.22-13.93.24Z"/>
          <path class="cls-1" d="m118.4,72.89c-4.16,6.7-7.41,14.25-10.55,21.47-2.53,5.83-6.62,13.1-6.74,19.51-.01.57.82,1.01,1.22.5,3.99-5.11,5.68-12.93,8.09-18.93,2.97-7.38,6.51-14.56,9.34-21.98.31-.82-.94-1.27-1.37-.58h0Z"/>
          <path class="cls-1" d="m133.86,73.47c1.64,4.53,3.75,8.94,5.62,13.38,1.6,3.81,2.91,8.53,5.75,11.57.42.45,1.23.11,1.22-.5-.11-3.92-2.47-7.99-4.1-11.49-2.13-4.57-4.38-9.29-7.12-13.53-.44-.68-1.67-.26-1.37.58h0Z"/>
          <path class="cls-1" d="m125.96,73.72c-1.02,5.45-.44,11.49-.45,17.03-.01,5.61-.53,11.48.5,17.02.09.48.87.48.96,0,1.04-5.54.51-11.4.5-17.02-.01-5.53.57-11.58-.45-17.03-.1-.53-.97-.53-1.06,0h0Z"/>
          <g>
            <path class="cls-3" d="m140.11,153.64s5.2,4.72,7.9,6.17c2.7,1.45,3.57,1.35,3.76.48s-4.82-12.05-4.91-12.43c-.1-.39,6.26-4.14,6.26-4.14,0,0,5.97,15.03,7.13,15.52,1.16.48,2.02-17.35,2.02-17.35l8,3.95s-3.95,12.82-2.02,18.5c1.93,5.69,7.81,12.24,8.1,15.13s-5.78,8.67-10.31,8.87c-4.53.19-10.31-11.56-11.95-14.46s-6.51-7.2-9.69-9.03-7.08-3.41-7.08-3.41l-2.6-4.34,5.4-3.47Z"/>
            <path class="cls-6" d="m128.38,113.97s4.94-12.79,17.05-11.54c12.11,1.25,13.97,13.57,13.97,13.57,0,0,11.58-5.41,20.98,1.02,10.15,6.95,10.56,25.92,1.62,31.06-11.82,6.8-19.7-2.13-19.7-2.13,0,0-2.62,4.54-8.79,6.09-5.4,1.35-8.68-2.86-8.68-2.86,0,0,1.28,3.42-2.98,6.15-3.5,2.24-5.37.83-5.37.83,0,0,6.38,14.67-6.78,17.32-12.91,2.6-14.87-10.83-14.87-10.83,0,0-7.05.98-10.61-4.9-5.01-8.27,2.39-15.05,2.39-15.05,0,0-7.5-1.56-5.91-9.58,1.59-8.02,8.53-7.44,8.53-7.44,0,0,.66-9.35,8.77-12.32,5.02-1.84,10.38.61,10.38.61Z"/>
            <g>
              <path class="cls-5" d="m135.79,141.82c-2.19,2.98-4.61,2.95-7.25-.11-.22-.46-.79-.4-1.12-.14-2.06,1.61-2.76,4.05-6.15,3.33-3.38-.72-4.56-4.42-4.15-7.41.14-.99-1.15-1.38-1.51-.42-1.61,4.31.29,9.04,5,10.22,2.88.72,7.13-.72,7.93-3.65,2.54,1.95,5.8,1.6,7.45-1.7.07-.14-.12-.25-.21-.12Z"/>
              <path class="cls-5" d="m148.89,117.56c-1.49,1.58-2.67,3.72-4.95,4.25-3.04.7-4.93-1.66-5.92-4.18-.18-.45-1.01-.45-.93.13.44,3.48,2.05,6.26,5.92,6.4,3.36.11,7.11-2.64,6.73-6.24-.04-.4-.53-.69-.85-.35Z"/>
              <path class="cls-5" d="m170.04,122.7c-.33-.04-.56.35-.48.63.28.96.73,1.58,1.33,2.38.81,1.09.91.95.82,2.51-.13,2.29-2.62,4.05-4.98,2.81-.55-.29-1.07.08-1.13.65-.46,3.87-3.51,6.27-7.37,5.37-.8-.19-1.4,1.01-.59,1.39,4.71,2.2,9.76-.95,9.54-5.97,2.46-.08,5.09-1.72,6.19-3.9,1.3-2.59-.59-5.54-3.32-5.88Z"/>
            </g>
            <path class="cls-5" d="m125.57,165.42c.78.53,2.44.95,2.89-.21.05-.14,0-.34-.12-.44-.49-.42-1.22-.3-1.71-.73-.39-.35-.98-.34-1.31.09-.34.43-.19.99.25,1.29h0Z"/>
          </g>
        </g>
        <path class="cls-5" d="m29.32,145.13c-1.46-.19-3.23-.23-4.77.22-2.19.46-4.23,1.68-5.68,3.54-3.11,4.02-3.59,10.83.47,14.43,1.94,1.72,5.45,3.17,8.02,3.48,3.03.36,5.42-1.05,7.43-3.2,3.72-3.96,4.86-9.62,1.53-14.24-1.64-2.27-4.21-3.86-7-4.23Zm5.24,13.86c-1.15,2.17-3.54,4.92-6.13,5.13-2.62.21-6.19-.68-7.97-2.68-1.92-2.16-2.2-5.47-1.43-8.15.77-2.7,2.71-4.79,5.07-5.82.77-.24,1.54-.49,2.35-.57,1.31-.13,2.55.11,3.76.61,2.22.9,4,2.68,4.76,4.96.7,2.09.62,4.58-.42,6.54Z"/>
      </g>
      <rect class="cls-2" width="200" height="200"/>
    </g>
  </g>
</svg>