<?xml version="1.0" encoding="UTF-8"?>
<svg id="Capa_2" data-name="Capa 2" xmlns="http://www.w3.org/2000/svg" viewBox="0 0 200 200">
  <defs>
    <style>
      .cls-1 {
        fill: #90c689;
      }

      .cls-1, .cls-2, .cls-3, .cls-4, .cls-5, .cls-6 {
        stroke-width: 0px;
      }

      .cls-2 {
        fill: #cbe4c8;
      }

      .cls-3 {
        fill: none;
      }

      .cls-4 {
        fill: #593737;
      }

      .cls-5 {
        fill: #6bb262;
      }

      .cls-6 {
        fill: #f3b200;
      }
    </style>
  </defs>
  <g id="colorful_icons" data-name="colorful icons">
    <g>
      <g>
        <g>
          <path class="cls-2" d="m56.82,127.07s-1.36-11.13,5.45-25.43c6.81-14.31,13.85-19.76,17.03-22.93,3.18-3.18,20.89-4.31,27.25-1.82,6.36,2.5,16.12,19.3,19.98,29.29,3.86,9.99,3.86,19.98,3.86,19.98l-73.57.91Z"/>
          <path class="cls-4" d="m101.75,114c.29,2.62.56,5.23.81,7.85.04.45.07.92.11,1.39.56,0,1.13,0,1.69,0-.09-.72-.19-1.44-.26-2.14-.27-2.62-1.69-15.16-1.9-17.17-.58-5.61-1.95-11.46-3.21-16.94l-1.64.19c.87,3.64,1.82,7.47,2.44,11.19.87,5.24,1.38,10.34,1.96,15.63Z"/>
          <path class="cls-4" d="m115.4,102.51c.87,2.86,1.6,5.76,2.27,8.65.92,3.96,1.31,8.06,2.01,12.08.79,0,1.04,0,1.82,0-.21-4.16-1.15-8.39-2.06-12.32-1.35-5.88-3.51-11.46-6.11-16.9-1.1-2.32-2.32-4.6-3.64-6.83-.59,0-.64,0-1.22,0,.49.87.98,1.74,1.44,2.62,2.16,4.09,3.98,8.34,5.48,12.7Z"/>
          <path class="cls-4" d="m85.31,123.24c.03-.53.05-1.07.09-1.59.19-2.71.43-5.42.73-8.13.21-1.89.4-3.78.62-5.67.12-.93.24-1.86.37-2.79.82-6.01,1.87-11.99,3.24-17.89-.42,0-.84,0-1.25,0-.79,3.2-1.51,6.42-2.18,9.66-1.07,5.16-2.12,10.3-2.76,15.54-.35,2.83-.61,5.67-.83,8.51-.06.77-.14,1.57-.2,2.37.73,0,1.46,0,2.19,0Z"/>
          <path class="cls-4" d="m66.26,119.19c-.21,1.36-.43,2.72-.57,4.07.74,0,1.47,0,2.21-.01.18-1.41.32-2.83.54-4.23.46-2.94,1.01-5.87,1.63-8.78.02-.08.04-.16.06-.25,2.15-7.98,5.24-15.68,9.38-22.84-.56,0-1.11,0-1.67,0-1.16,1.93-2.24,3.91-3.22,5.94-2.6,5.34-4.66,10.96-6.3,16.66-.89,3.1-1.56,6.24-2.06,9.42Z"/>
          <path class="cls-6" d="m64.75,88.35c12.97.02,47.82-.09,58.71-.19,1.95-.02,3.97-.04,5.04-1.51,1.36-1.87,2.49-5.76.84-12.12-2.48-9.56-11.57-18.18-16.41-20.78-4.84-2.6-8.86-6.73-9.92-8.62-1.06-1.89-3.07-9.92-7.08-9.8s-5.27,8.83-7.2,10.39c-4.37,3.54-17.24,6.49-23.62,15.82-4.63,6.78-6.34,16.93-6.11,22.56.09,2.12,2.65,4.24,5.75,4.25Z"/>
          <g>
            <path class="cls-1" d="m147.56,122.67s4.09-1.19,8.52-1.36c4.43-.17,14.56.68,17.37,8.26,2.81,7.58-1.19,17.37-12.86,23.5-11.67,6.13-22.65,2.9-22.65,2.9l1.45-8.17s10.9,2.21,19.24-3.41c4.28-2.88,8.91-9.3,3.23-13.46-3.38-2.48-8.54-2.23-12.34-1.01-1.87.6-4.6,1.96-4.6,1.96l2.64-9.2Z"/>
            <path class="cls-1" d="m39.16,122.19s-13.37-.54-14.39.65c-1.02,1.19,14.65,18.82,18.9,20.52,4.26,1.7-4.51-21.17-4.51-21.17Z"/>
            <path class="cls-5" d="m65.21,121.85c-8.62.11-17.23.22-25.85.32-.35,0-.7,0-1.05.01,0,0,4.65,24.3,7.83,32.24,3.18,7.95,8.3,9.29,18.05,9.99,17.13,1.24,34.28,1.06,51.43.41,2.69-.1,5.38-.22,8.06-.41,9.75-.7,14.87-2.04,18.05-9.99s7.83-32.24,7.83-32.24c-6.95-.09-13.89-.17-20.84-.26-9.06-.11-60.8-.11-63.53-.08Z"/>
          </g>
          <path class="cls-4" d="m79.49,61.36c.81-.46,1.61-1.05,2.07-1.88.52-.96.43-2.03-.37-2.8-1.82-1.77-4.19.04-4.72,2.03-.22.82-.13,1.82.38,2.52.61.84,1.5.7,2.31.31.11-.05.22-.11.33-.17Zm-1.85-1.5c-.01-.36.1-.73.27-1.05.37-.67,1.11-1.12,1.85-.74.88.45.03,1.38-.43,1.79-.28.25-.61.54-.96.7-.5.23-.72-.26-.74-.7Z"/>
          <path class="cls-4" d="m87.46,57.03c1.27-.3,2.02-1.85,1.26-2.97-.39-.58-1.13-.77-1.79-.65-.79.14-1.37.7-1.64,1.45-.47,1.3.92,2.47,2.17,2.17Zm-.22-1.13c-.35.54-1.05.24-1.33-.27-.81-1.47,2.66-1.82,1.33.27Z"/>
          <path class="cls-4" d="m86.11,65.32c1.26-.86,2.36-3.15.8-4.29-.68-.5-1.55-.53-2.32-.22-1.37.55-2.7,2.42-2.4,3.93.35,1.77,2.85,1.31,3.92.58Zm-.56-3.2c1.26.02.47,1.58-.02,2.08-.55.56-2.36,1.47-2.52.06-.16-1.36,1.37-2.16,2.54-2.14Z"/>
          <path class="cls-4" d="m158.69,97.85c-.47-1.44-1.27-2.52-2.27-3.38-.52-.47-1.11-.86-1.76-1.19-1.59-.86-3.42-1.41-5.18-1.96-2.42-.75-4.88-1.34-7.38-1.76-2.14-.36-5.03-1.21-7.03-.1-.56.31-.46,1.04,0,1.36,1.42,1.02,3.41.86,5.08,1.1,1.88.27,3.74.64,5.58,1.1,1.84.46,3.66,1.01,5.44,1.65,1.47.53,3.63,1.23,4.22,2.84,1.23,3.36-4.64,3.64-6.75,3.74-1.85.08-3.7.17-5.55.23-.21,0-.41.02-.61.03-.13-1.18-.32-2.35-.61-3.48-.19-.75-.99-.83-1.49-.45-.05.01-.1.03-.15.05-3.12,1.57-6.63,3.64-8.89,6.36-.35.42-.38,1.13.18,1.41,3.12,1.58,6.27,3.05,9.68,3.9.45.11,1.09-.14,1.16-.66.14-1,.22-2.01.26-3.04.58.08,1.17.16,1.75.24,2.41.33,4.83.46,7.26.19,4.45-.49,8.68-3.2,7.07-8.19Z"/>
          <path class="cls-4" d="m32.34,104.73c.52.47,1.11.86,1.76,1.19,1.59.86,3.42,1.41,5.18,1.96,2.42.75,4.88,1.34,7.38,1.76,2.14.36,5.03,1.21,7.03.1.56-.31.46-1.04,0-1.36-1.42-1.02-3.41-.86-5.08-1.1-1.88-.27-3.74-.64-5.58-1.1-1.84-.46-3.66-1.01-5.44-1.65-1.47-.53-3.63-1.23-4.22-2.84-1.23-3.36,4.64-3.64,6.75-3.74,1.85-.08,3.7-.17,5.55-.23.21,0,.41-.02.61-.03.13,1.18.32,2.35.61,3.48.19.75.99.83,1.49.45.05-.01.1-.03.15-.05,3.12-1.57,6.63-3.64,8.89-6.36.35-.42.38-1.13-.18-1.41-3.12-1.58-6.27-3.05-9.68-3.9-.45-.11-1.09.14-1.16.66-.14,1-.22,2.01-.26,3.04-.58-.08-1.17-.16-1.75-.24-2.41-.33-4.83-.46-7.26-.19-4.45.49-8.68,3.2-7.07,8.19.47,1.44,1.27,2.52,2.27,3.38Z"/>
        </g>
        <path class="cls-4" d="m25.25,123.31c10.45.7,21.09.17,31.57.19,10.62.02,21.25.04,31.87.06,10.62.02,21.24.03,31.86-.15,9.69-.17,20.15,1.14,29.72-.39.48-.08.48-.89,0-.97-9.57-1.53-20.02-.25-29.72-.45-10.62-.22-21.24-.27-31.86-.31-10.62-.04-21.25-.07-31.87-.1-10.47-.03-21.12-.59-31.57.11-1.29.09-1.3,1.92,0,2.01h0Z"/>
      </g>
      <rect class="cls-3" width="200" height="200"/>
    </g>
  </g>
</svg>