<?xml version="1.0" encoding="UTF-8"?>
<svg id="Capa_2" data-name="Capa 2" xmlns="http://www.w3.org/2000/svg" viewBox="0 0 200 200">
  <defs>
    <style>
      .cls-1 {
        fill: #f1a5a5;
      }

      .cls-1, .cls-2, .cls-3, .cls-4, .cls-5, .cls-6 {
        stroke-width: 0px;
      }

      .cls-2 {
        fill: #c46127;
      }

      .cls-3 {
        fill: none;
      }

      .cls-4 {
        fill: #fff;
      }

      .cls-5 {
        fill: #593737;
      }

      .cls-6 {
        fill: #e34b4b;
      }
    </style>
  </defs>
  <g id="colorful_icons" data-name="colorful icons">
    <g>
      <g>
        <g>
          <g>
            <path class="cls-5" d="m86.15,67.83c-.13,4.7-.56,10.94.26,15.45.08.44.81.44.85,0,.27-2.84.34-12.7.26-15.45-.03-.88-1.35-.88-1.37,0h0Z"/>
            <path class="cls-5" d="m90.41,67.81c-.82,4.51-.64,10.41.1,15.46.06.38.69.38.75,0,.79-5.08.92-10.95.1-15.46-.09-.47-.86-.47-.95,0h0Z"/>
          </g>
          <g>
            <path class="cls-5" d="m109.93,67.83c-.13,4.7-.56,10.94.26,15.45.08.44.81.44.85,0,.27-2.84.34-12.7.26-15.45-.03-.88-1.35-.88-1.37,0h0Z"/>
            <path class="cls-5" d="m114.19,67.81c-.82,4.51-.64,10.41.1,15.46.06.38.69.38.75,0,.79-5.08.92-10.95.1-15.46-.09-.47-.86-.47-.95,0h0Z"/>
          </g>
          <path class="cls-2" d="m50.06,59.56s-7.33-21.22,8.22-30.56c15.56-9.33,23-2.67,26.89.78,5.35,4.74,5.67,13.56,5.67,13.56,0,0,6.22-7.22,13.78-5,7.56,2.22,9.11,9.89,9.11,9.89,0,0,3.33-1.78,8-.44,4.36,1.25,5.33,3.89,5.33,3.89,0,0,2.78-11.33,12.22-10.33,9.44,1,11.33,9.33,12,12,.67,2.67.33,6.22.33,6.22H50.06Z"/>
          <path class="cls-6" d="m38.78,159.67s2.5-41.67,22-63.17,43.33-24.33,63.5-13.17c20.17,11.17,30.5,40.33,33,51.67s3.5,24.5,3.5,24.5c0,0,11.22-.11,12.67,6.17,1,4.33,0,7.5-9.83,8.5-9.83,1-110,.33-119.33,0-9.33-.33-18.77.33-18.5-6.33.33-8.33,13-8.17,13-8.17Z"/>
          <path class="cls-4" d="m135.97,123.91c0-.05,0-.11,0-.16-.01-.86-.06-1.71-.13-2.56-.62-7.51-3.39-15.08-8.16-20.95-2.48-3.05-5.66-5.53-9.12-7.37-7.52-4.01-15.76-4.48-24-3.28-5.48.8-10.77,2.98-15.26,6.21-6.47,4.65-11.17,11.6-13.7,19.11-4.8,14.28-.6,31.27,11.85,40.21,2.91,2.38,6.27,4.2,9.88,5.44,6.73,2.31,14.01,2.43,20.95,1.05,3.55-.7,7.13-1.73,10.27-3.59,2.56-1.52,4.88-3.46,6.9-5.64,3.65-3.92,6.75-8.86,8.49-13.95,1.05-3.08,1.7-6.29,1.95-9.53.13-1.66.15-3.33.08-4.99Z"/>
          <path class="cls-5" d="m124.02,103.46c-4.16-5.11-10.81-8.74-17.37-9.54-.72-.21-1.46-.27-2.21-.35-1.17-.12-2.35-.17-3.53-.14-2.09.05-4.12.32-6.14.81-4.61.77-9.04,2.63-12.83,5.36-5.59,4.03-9.68,10.05-11.87,16.55-4.29,12.71-.41,27.97,11.06,35.58,9.74,6.47,23.26,6.8,33.6,1.55,11.43-5.81,17.38-19.01,16.39-31.51-.52-6.55-2.93-13.2-7.09-18.31Zm-6.56,46.59c-9.06,6.34-21.85,7.28-31.87,2.69-5.54-2.54-9.99-6.81-12.78-12.24-3.02-5.88-4-12.75-2.86-19.26,1.15-6.54,4.29-12.78,8.9-17.56,4.62-4.78,10.89-7.7,17.41-8.76.51-.08,1.01-.16,1.52-.23.96-.04,1.93-.05,2.89-.03,1.21.02,2.42.1,3.63.18,5.6.9,10.97,2.57,15.47,6.29,5.01,4.14,8.01,10.31,9.34,16.58,2.48,11.64-1.7,25.37-11.67,32.34Z"/>
          <path class="cls-5" d="m85.51,147.31c-.07-.06-.15-.11-.22-.17-.17-.1-.36-.15-.56-.15-.15,0-.3.03-.43.09-.14.04-.26.12-.36.22-.11.1-.18.21-.23.35-.07.13-.1.27-.1.41.01.1.03.19.04.29.05.18.15.34.29.48.07.06.15.11.22.17.17.1.36.15.56.15.15,0,.3-.03.43-.09.14-.04.26-.12.36-.22.11-.1.18-.21.23-.35.07-.13.1-.27.1-.42-.01-.1-.03-.19-.04-.29-.05-.18-.15-.34-.28-.48Z"/>
          <path class="cls-5" d="m92.13,150.33s-.1-.07-.14-.11c-.11-.06-.23-.09-.36-.09-.1,0-.19.02-.27.06-.09.03-.16.07-.23.14-.07.06-.12.14-.15.22-.04.08-.06.17-.06.26,0,.06.02.12.03.18.03.12.09.22.18.3l.14.11c.11.06.23.09.36.09.1,0,.19-.02.27-.06.09-.03.16-.07.23-.14.07-.06.12-.14.15-.22.04-.08.06-.17.06-.26,0-.06-.02-.12-.03-.18-.03-.12-.09-.22-.18-.3Z"/>
          <path class="cls-5" d="m79.97,142.88s-.1-.07-.14-.11c-.11-.06-.23-.09-.36-.09-.1,0-.19.02-.27.06-.09.03-.16.07-.23.14-.07.06-.12.14-.15.22-.04.08-.06.17-.06.26,0,.06.02.12.03.18.03.12.09.22.18.3.05.04.1.07.14.11.11.06.23.09.36.09.1,0,.19-.02.27-.06.09-.03.16-.07.23-.14.07-.06.12-.14.15-.22.04-.08.06-.17.06-.26,0-.06-.02-.12-.03-.18-.03-.12-.09-.22-.18-.3Z"/>
          <path class="cls-5" d="m74.73,131.41s-.09-.07-.14-.11c-.11-.06-.23-.09-.36-.09-.1,0-.19.02-.27.06-.09.03-.16.07-.23.14-.07.06-.12.14-.15.22-.04.08-.06.17-.06.26,0,.06.02.12.03.18.03.12.09.22.18.3.05.04.1.07.14.11.11.06.23.09.36.09.1,0,.19-.02.27-.06.09-.03.16-.07.23-.14.07-.06.12-.14.15-.22.04-.08.06-.17.06-.26,0-.06-.02-.12-.03-.18-.03-.12-.09-.22-.18-.3Z"/>
          <path class="cls-5" d="m77.23,137.6c-.08-.06-.15-.11-.22-.17-.17-.1-.36-.15-.56-.15-.15,0-.29.03-.43.09-.14.04-.26.12-.36.22-.11.1-.18.21-.23.35-.07.13-.1.27-.1.42.01.1.03.19.04.29.05.18.15.34.29.48.07.06.15.11.22.17.17.1.36.15.56.15.15,0,.3-.03.43-.09.14-.04.26-.12.36-.22.11-.1.18-.21.23-.35.07-.13.1-.27.1-.42-.01-.1-.03-.19-.04-.29-.05-.18-.15-.34-.28-.48Z"/>
          <path class="cls-5" d="m85.51,101.27c-.1-.1-.22-.18-.36-.22-.13-.07-.27-.1-.43-.09-.2,0-.39.05-.56.15-.07.06-.15.11-.22.17-.14.13-.23.29-.29.48-.01.1-.03.19-.04.29,0,.15.03.29.1.42.04.13.12.25.23.35.1.1.22.18.36.22.13.07.27.1.43.09.2,0,.39-.05.56-.15.07-.06.15-.11.22-.17.14-.13.23-.29.28-.48.01-.1.03-.19.04-.29,0-.15-.03-.29-.1-.42-.04-.13-.12-.25-.23-.35Z"/>
          <path class="cls-5" d="m91.14,99.78c.06.07.14.11.23.14.08.04.17.06.27.06.13,0,.25-.03.36-.09.05-.04.1-.07.14-.11.09-.09.15-.19.18-.3,0-.06.02-.12.03-.18,0-.09-.02-.18-.06-.26-.03-.09-.08-.16-.15-.22-.06-.07-.14-.11-.23-.14-.08-.04-.17-.06-.27-.06-.13,0-.25.03-.36.09-.05.04-.1.07-.14.11-.09.09-.15.19-.18.3,0,.06-.02.12-.03.18,0,.09.02.18.06.26.03.08.08.16.15.22Z"/>
          <path class="cls-5" d="m79.97,106.26c-.06-.07-.14-.11-.23-.14-.08-.04-.17-.06-.27-.06-.13,0-.25.03-.36.09-.05.04-.1.07-.14.11-.09.09-.15.19-.18.3,0,.06-.02.12-.03.18,0,.09.02.18.06.26.03.09.08.16.15.22.06.07.14.11.23.14.08.04.17.06.27.06.13,0,.25-.03.36-.09.05-.04.1-.07.14-.11.09-.09.15-.19.18-.3,0-.06.02-.12.03-.18,0-.09-.02-.18-.06-.26-.03-.09-.08-.16-.15-.22Z"/>
          <path class="cls-5" d="m73.73,118.7c.06.07.14.11.23.14.08.04.17.06.27.06.13,0,.25-.03.36-.09.05-.04.1-.07.14-.11.09-.09.15-.19.18-.3,0-.06.02-.12.03-.18,0-.09-.02-.18-.06-.26-.03-.09-.08-.16-.15-.22-.06-.07-.14-.11-.23-.14-.08-.04-.17-.06-.27-.06-.13,0-.25.03-.36.09-.05.04-.1.07-.14.11-.09.09-.15.19-.18.3,0,.06-.02.12-.03.18,0,.09.02.18.06.26.03.08.08.16.15.22Z"/>
          <path class="cls-5" d="m77.23,110.98c-.1-.11-.22-.18-.36-.22-.13-.07-.27-.1-.43-.09-.2,0-.39.05-.56.15-.07.06-.15.11-.22.17-.14.13-.23.29-.29.48-.01.1-.03.19-.04.29,0,.15.03.29.1.42.04.13.12.25.23.35.1.1.22.18.36.22.13.07.27.1.43.09.2,0,.39-.05.56-.15.07-.06.15-.11.22-.17.14-.13.23-.29.28-.48.01-.1.03-.19.04-.29,0-.15-.03-.29-.1-.42-.04-.13-.12-.25-.23-.35Z"/>
          <path class="cls-5" d="m115.62,147.31c-.1-.11-.22-.18-.36-.22-.13-.07-.27-.1-.43-.09-.2,0-.39.05-.56.15-.07.06-.15.11-.22.17-.14.13-.23.29-.28.48-.01.1-.03.19-.04.29,0,.15.03.29.1.42.04.13.12.25.23.35.1.11.22.18.36.22.13.07.27.1.43.09.2,0,.39-.05.56-.15.07-.06.15-.11.22-.17.14-.13.23-.29.29-.48.01-.1.03-.19.04-.29,0-.15-.03-.29-.1-.41-.04-.13-.12-.25-.23-.35Z"/>
          <path class="cls-5" d="m108.42,150.33c-.06-.07-.14-.11-.23-.14-.08-.04-.17-.06-.27-.06-.13,0-.25.03-.36.09-.05.04-.1.07-.14.11-.09.09-.15.19-.18.3,0,.06-.02.12-.03.18,0,.09.02.18.06.26.03.09.08.16.15.22.06.07.14.11.23.14.08.04.17.06.27.06.13,0,.25-.03.36-.09.05-.04.1-.07.14-.11.09-.09.15-.19.18-.3,0-.06.02-.12.03-.18,0-.09-.02-.18-.06-.26-.03-.09-.08-.16-.15-.22Z"/>
          <path class="cls-5" d="m120.58,142.88c-.06-.07-.14-.11-.23-.14-.08-.04-.17-.06-.27-.06-.13,0-.25.03-.36.09-.05.04-.09.07-.14.11-.09.09-.15.19-.18.3,0,.06-.02.12-.03.18,0,.09.02.18.06.26.03.08.08.16.15.22.06.07.14.11.23.14.08.04.17.06.27.06.13,0,.25-.03.36-.09.05-.04.1-.07.14-.11.09-.09.15-.19.18-.3,0-.06.02-.12.03-.18,0-.09-.02-.18-.06-.26-.03-.08-.08-.16-.15-.22Z"/>
          <path class="cls-5" d="m125.83,131.41c-.06-.07-.14-.11-.23-.14-.08-.04-.17-.06-.27-.06-.13,0-.25.03-.36.09-.05.04-.1.07-.14.11-.09.09-.15.19-.18.3,0,.06-.02.12-.03.18,0,.09.02.18.06.26.03.08.08.16.15.22.06.07.14.11.23.14.08.04.17.06.27.06.13,0,.25-.03.36-.09.05-.04.1-.07.14-.11.09-.09.15-.19.18-.3,0-.06.02-.12.03-.18,0-.09-.02-.18-.06-.26-.03-.08-.08-.16-.15-.22Z"/>
          <path class="cls-5" d="m123.89,137.6c-.1-.11-.22-.18-.36-.22-.13-.07-.27-.1-.43-.09-.2,0-.39.05-.56.15-.07.06-.15.11-.22.17-.14.13-.23.29-.28.48-.01.1-.03.19-.04.29,0,.15.03.29.1.42.04.13.12.25.23.35.1.1.22.18.36.22.13.07.27.1.43.09.2,0,.39-.05.56-.15.07-.06.15-.11.22-.17.14-.13.23-.29.29-.48.01-.1.03-.19.04-.29,0-.15-.03-.29-.1-.42-.04-.13-.12-.25-.23-.35Z"/>
          <path class="cls-5" d="m114.05,102.8c.07.06.15.11.22.17.17.1.36.15.56.15.15,0,.3-.03.43-.09.14-.04.26-.12.36-.22.11-.1.18-.21.23-.35.07-.13.1-.27.1-.42-.01-.1-.03-.19-.04-.29-.05-.18-.15-.34-.29-.48-.07-.06-.15-.11-.22-.17-.17-.1-.36-.15-.56-.15-.15,0-.3.03-.43.09-.14.04-.26.12-.36.22-.11.1-.18.21-.23.35-.07.13-.1.27-.1.42.01.1.03.19.04.29.05.18.15.34.28.48Z"/>
          <path class="cls-5" d="m107.42,99.78s.1.07.14.11c.11.06.23.09.36.09.1,0,.19-.02.27-.06.09-.03.16-.07.23-.14.07-.06.12-.14.15-.22.04-.08.06-.17.06-.26,0-.06-.02-.12-.03-.18-.03-.12-.09-.22-.18-.3-.05-.04-.1-.07-.14-.11-.11-.06-.23-.09-.36-.09-.1,0-.19.02-.27.06-.09.03-.16.07-.23.14-.07.06-.12.14-.15.22-.04.08-.06.17-.06.26,0,.06.02.12.03.18.03.12.09.22.18.3Z"/>
          <path class="cls-5" d="m119.58,107.23s.1.07.14.11c.11.06.23.09.36.09.1,0,.19-.02.27-.06.09-.03.16-.07.23-.14.07-.06.12-.14.15-.22.04-.08.06-.17.06-.26,0-.06-.02-.12-.03-.18-.03-.12-.09-.22-.18-.3-.05-.04-.1-.07-.14-.11-.11-.06-.23-.09-.36-.09-.1,0-.19.02-.27.06-.09.03-.16.07-.23.14-.07.06-.12.14-.15.22-.04.08-.06.17-.06.26,0,.06.02.12.03.18.03.12.09.22.18.3Z"/>
          <path class="cls-5" d="m124.68,117.95c-.04.08-.06.17-.06.26,0,.06.02.12.03.18.03.12.09.22.18.3l.14.11c.11.06.23.09.36.09.1,0,.19-.02.27-.06.09-.03.16-.07.23-.14.07-.06.12-.14.15-.22.04-.08.06-.17.06-.26,0-.06-.02-.12-.03-.18-.03-.12-.09-.22-.18-.3-.05-.04-.1-.07-.14-.11-.11-.06-.23-.09-.36-.09-.1,0-.19.02-.27.06-.09.03-.16.07-.23.14-.07.06-.12.14-.15.22Z"/>
          <path class="cls-5" d="m76.87,126.14c.18-.35.27-.72.25-1.12-.03-.26-.07-.52-.1-.77-.14-.49-.39-.92-.75-1.29-.2-.15-.39-.3-.59-.46-.45-.26-.94-.4-1.47-.4-.4-.02-.78.07-1.12.25-.36.12-.67.32-.94.6-.28.26-.49.58-.6.94-.18.35-.27.72-.25,1.12.03.26.07.52.1.77.14.49.39.92.75,1.29.2.15.39.3.59.46.45.26.94.4,1.47.4.4.02.78-.07,1.12-.25.36-.12.67-.32.94-.6.28-.26.48-.58.6-.94Z"/>
          <path class="cls-5" d="m127.92,122.96c-.2-.15-.39-.3-.59-.46-.45-.26-.94-.4-1.47-.4-.4-.02-.78.07-1.12.25-.36.12-.67.32-.94.6-.28.26-.48.58-.6.94-.18.35-.27.72-.25,1.12.03.26.07.52.1.77.14.49.39.92.75,1.29.2.15.39.3.59.46.45.26.94.4,1.47.4.4.02.78-.07,1.12-.25.36-.12.67-.32.94-.6.28-.26.48-.58.6-.94.18-.35.27-.72.25-1.12-.03-.26-.07-.52-.1-.77-.14-.49-.39-.92-.75-1.29Z"/>
          <path class="cls-5" d="m102.1,148.78c-.26-.28-.58-.48-.94-.6-.35-.18-.72-.27-1.12-.25-.26.03-.52.07-.77.1-.49.14-.92.39-1.29.75-.15.2-.3.39-.46.59-.26.45-.4.94-.4,1.47-.02.4.07.78.25,1.12.12.36.32.67.6.94.07.08.15.14.22.21.06.08.12.15.19.22.13.1.26.2.39.29.3.17.63.26.98.26.27,0,.52-.04.75-.16.03,0,.05-.03.08-.04.07,0,.15-.02.22-.03.49-.14.92-.39,1.29-.75.15-.2.3-.39.46-.59.26-.45.4-.94.4-1.47.02-.4-.07-.78-.25-1.12-.12-.36-.32-.67-.6-.94Z"/>
          <path class="cls-5" d="m97.94,100.58c.25.26.55.47.88.62,2.14.94,4.52-1.02,4-3.3-.3-1.31-1.5-2.27-2.84-2.28-1.47-.06-2.79,1.25-2.9,2.69-.06.83.27,1.68.85,2.27Z"/>
          <path class="cls-2" d="m92.37,133.89c.95.98,2.08,1.78,3.33,2.33,8.09,3.54,17.04-3.85,15.09-12.46-1.12-4.94-5.64-8.57-10.7-8.59-5.56-.21-10.52,4.72-10.94,10.14-.24,3.14,1.02,6.32,3.21,8.57Z"/>
          <path class="cls-5" d="m103.94,127.94c-1.06.76-2.56,1.13-3.85,1.01-.75-.07-1.5-.39-1.97-.98-1.35-1.73-.03-4.51,1.32-5.8,1.65-1.59,19.28-11.39,25.02-13.92.01,0,.02.02.03.03-.39,1.33-8.72,11.22-20.56,19.66Z"/>
          <path class="cls-5" d="m60.92,49.74c.08.33.53.36.71.15.16-.03.3-.12.34-.3.92-3.77,4.92-2,7.42-1.25,1.32.4,2-1.22,1.25-2.14-1.4-1.7-1.13-4.19.54-5.6.85-.71,2.03-.79,2.83-1.46.09-.02.18-.04.28-.06.25-.06.31-.44.07-.56-.02,0-.03-.01-.05-.02-.03-.06-.07-.11-.14-.15-1.56-.76-3.78.79-4.72,2.03-1.02,1.35-1.36,3.11-1.28,4.82-1.48-.16-2.96.1-4.37.75-1.48.69-3.35,1.93-2.88,3.78Z"/>
          <path class="cls-5" d="m80.26,50.61c.13-.08.27-.15.42-.21,1.19-.12,2.34.14,3.27.97.73.65.94,1.66,1.78,2.2.35.22.97.18,1.25-.16,1.28-1.61-.25-3.7-1.87-4.37-.84-.35-1.69-.37-2.51-.19-1.01.06-1.97.48-2.78,1.19-.32.28.09.77.44.57Z"/>
          <path class="cls-5" d="m100.92,47.51s0-.02,0-.02c0,0,0,0,0,0,0,0,0,.01,0,.02Z"/>
          <path class="cls-5" d="m101.04,47.82c.11.19.26.34.45.45.1.04.2.08.3.13.22.06.45.06.67,0,.16-.04.31-.11.43-.23.14-.09.25-.21.32-.35.11-.2.17-.41.17-.64,0-.23-.06-.44-.17-.64-.16-.22-.24-.33-.47-.47-.1-.06-.22-.12-.34-.14-.11-.01-.22-.03-.33-.04-.17,0-.33.03-.47.11-.1.03-.19.08-.27.16-.13.09-.24.2-.32.35-.04.1-.08.2-.12.29-.01.11-.03.22-.04.33,0,.11.02.22.05.33.03.13.07.25.14.37Zm0-.05s0,0,0-.01c0-.02-.02-.04-.03-.06.01.03.02.05.04.07Z"/>
          <path class="cls-5" d="m99.81,52.32s.1.01.15.02c.11.01.21.04.32.03.03,0,.06,0,.09,0,.19,0,.36-.05.53-.14.16-.09.28-.22.37-.37.19-.32.19-.73,0-1.05-.19-.32-.53-.52-.9-.52s-.72.2-.9.52c-.09.17-.17.34-.22.53-.06.19-.03.45.08.62.11.16.28.34.48.37Z"/>
          <path class="cls-5" d="m61.06,40.55c.1.08.2.15.3.23.23.13.47.2.74.2.2,0,.39-.03.56-.13.18-.06.34-.16.47-.3.14-.13.24-.29.3-.47.09-.17.13-.36.13-.56-.02-.13-.03-.26-.05-.39-.07-.25-.19-.46-.38-.65-.1-.08-.2-.15-.3-.23-.23-.13-.47-.2-.74-.2-.2,0-.39.03-.56.13-.18.06-.34.16-.47.3-.14.13-.24.29-.3.47-.09.17-.13.36-.13.56.02.13.03.26.05.39.07.25.19.46.38.65Z"/>
          <path class="cls-5" d="m57.26,53.19c.26,0,.53-.11.72-.3.1-.09.17-.2.21-.33.06-.12.09-.25.09-.39-.01-.26-.1-.53-.3-.72-.2-.18-.44-.3-.72-.3-.26,0-.53.11-.72.3-.1.09-.17.2-.21.33-.06.12-.09.25-.09.39.01.26.1.53.3.72.2.18.44.3.72.3Z"/>
          <path class="cls-5" d="m76.45,46.12c.1.07.19.15.29.22.22.13.46.19.72.19h.05c.2,0,.38-.03.55-.12.18-.06.33-.16.46-.29.14-.13.24-.28.29-.46.09-.17.13-.35.12-.55-.02-.13-.03-.25-.05-.38-.07-.24-.19-.45-.36-.63-.1-.07-.19-.15-.29-.22-.22-.13-.46-.19-.72-.19h-.05c-.2,0-.38.03-.55.12-.18.06-.33.16-.46.29-.14.13-.24.28-.29.46-.09.17-.13.35-.12.55.02.13.03.25.05.38.07.24.19.45.37.63Z"/>
          <path class="cls-5" d="m117.63,55.1s.02.02.03.03c.1.11.23.19.37.24.14.07.28.1.44.1.16,0,.3-.03.44-.1.14-.05.26-.12.37-.24.06-.08.12-.15.18-.23.1-.18.16-.37.16-.58-.01-.1-.03-.2-.04-.3-.05-.19-.15-.36-.29-.5-.01,0-.02-.02-.03-.03-.1-.11-.23-.19-.37-.24-.14-.07-.28-.1-.44-.1-.16,0-.3.03-.44.1-.14.05-.26.12-.37.24-.06.08-.12.15-.18.23-.1.18-.16.37-.16.58.01.1.03.2.04.3.05.19.15.36.29.5Z"/>
          <path class="cls-5" d="m138.36,50.77c.09.07.19.14.28.22.21.12.45.19.69.19.19,0,.37-.03.53-.12.17-.06.32-.15.44-.28.13-.12.23-.27.28-.44.09-.16.13-.34.12-.53-.02-.12-.03-.24-.05-.37-.07-.23-.18-.44-.35-.61-.09-.07-.19-.14-.28-.22-.21-.12-.45-.19-.69-.19-.19,0-.37.03-.53.12-.17.06-.32.15-.44.28-.13.12-.23.27-.28.44-.09.16-.13.34-.12.53.02.12.03.24.05.37.07.23.18.44.35.61Z"/>
          <path class="cls-5" d="m142.69,54.57c.19.05.39.05.58,0,.19-.05.35-.15.48-.28.09-.07.15-.17.2-.26.2-.33.21-.8,0-1.12-.06-.08-.12-.15-.17-.23-.14-.14-.3-.23-.49-.29-.15-.05-.3-.05-.44-.02-.15,0-.29.05-.41.13-.17.1-.3.23-.4.4-.1.17-.15.36-.15.56-.01.11.01.23.04.34.1.37.4.66.77.77Z"/>
          <path class="cls-5" d="m133.17,53.64c.64.06,1.21.38,1.72.75.48.35.7,1.01,1.3,1.16.22.05.54-.03.64-.26.4-.92-.47-1.7-1.21-2.15-.77-.47-1.71-.49-2.55-.21-.4.13-.31.68.1.71Z"/>
          <path class="cls-1" d="m37.06,57.33l127.78-.33s2.11-.22,1.56,1.67c-.56,1.89-3.67,11.22-6,12.11-2.33.89-116.33,1.22-118.11.67-1.78-.56-5.77-10.57-6.44-12.35-.67-1.78,1.22-1.77,1.22-1.77Z"/>
        </g>
        <path class="cls-5" d="m42.39,72.32c9.89.82,20.05.21,29.97.23,9.99.02,19.98.06,29.97.12,9.99.05,19.98.09,29.97.11,4.66.01,9.32.02,13.99.03,4.61.01,9.83.8,14.24-.66.91-.3.91-1.55,0-1.85-4.41-1.46-9.63-.67-14.24-.66-4.66.01-9.32.02-13.99.03-9.99.02-19.98.06-29.97.11-9.99.05-19.98.1-29.97.12-9.93.02-20.08-.59-29.97.23-1.42.12-1.42,2.09,0,2.2h0Z"/>
        <path class="cls-5" d="m30.28,174.62c11.43,1.25,23.35.36,34.83.33,11.94-.02,23.89-.26,35.83-.24,11.61.02,23.22.04,34.83.06,5.64,0,11.28.02,16.92.1,5.41.08,12.05,1.26,17.2-.53,1-.35,1-1.69,0-2.03-4.86-1.69-11.1-.62-16.2-.54-5.64.08-11.28.1-16.92.11-11.94.02-23.89.04-35.83.06-11.61.02-23.22-.21-34.83-.23-11.81-.02-24.08-.95-35.83.33-1.65.18-1.66,2.4,0,2.58h0Z"/>
      </g>
      <rect class="cls-3" width="200" height="200"/>
    </g>
  </g>
</svg>