<?xml version="1.0" encoding="UTF-8"?>
<svg id="Capa_2" data-name="Capa 2" xmlns="http://www.w3.org/2000/svg" viewBox="0 0 200 200">
  <defs>
    <style>
      .cls-1 {
        fill: #80dce8;
      }

      .cls-1, .cls-2, .cls-3 {
        stroke-width: 0px;
      }

      .cls-2 {
        fill: none;
      }

      .cls-3 {
        fill: #593737;
      }
    </style>
  </defs>
  <g id="colorful_icons" data-name="colorful icons">
    <g>
      <g>
        <g>
          <path class="cls-1" d="m175.18,41.44s-22.55-.24-34.89.59c-12.34.83-29.79,2.25-43.08,7.36-13.29,5.1-28.72,19.46-34.53,38.21-5.81,18.75-4.51,36.31-5.58,44.26-1.07,7.95-3.92,12.93-9.14,14.12-5.22,1.19-12.93-1.42-14-2.49s-.71,24.09,2.02,31.21c2.73,7.12,19.46,8.9,26.58,8.43,7.12-.47,44.14-.12,47.82-3.68,3.68-3.56,5.58-31.21,5.1-34.65-.47-3.44-2.37-2.49-5.34-3.09-2.97-.59-1.66-1.9-5.81-2.25-3.44-.3-7.36,2.49-9.02.83-1.66-1.66-6.88-13.88-6.65-34.06.24-20.17-.38-30.45,4.99-43.86,2.09-5.22,5.94-8.05,5.94-8.05,0,0,18.02,4.21,21.11,6.35s7.36,8.19,8.66,13.53c1.31,5.34,15.55,21.48,24.8,21.6,9.26.12,15.43-7.48,23.73-18.04,8.31-10.56,9.95-17.88,7.71-23.61-2.83-7.27-10.44-12.7-10.44-12.7Z"/>
          <g>
            <path class="cls-3" d="m79.67,99.33c-3.59-.63-7.17-.32-10.78.02-.53.05-.53.77,0,.82,3.61.34,7.19.65,10.78.02.43-.08.43-.79,0-.86Z"/>
            <path class="cls-3" d="m79.67,107.22c-3.59-.63-7.17-.32-10.78.02-.53.05-.53.77,0,.82,3.61.34,7.19.65,10.78.02.43-.08.43-.79,0-.86Z"/>
            <path class="cls-3" d="m79.67,115.11c-3.59-.63-7.17-.32-10.78.02-.53.05-.53.77,0,.82,3.61.34,7.19.65,10.78.02.43-.08.43-.79,0-.86Z"/>
            <path class="cls-3" d="m79.67,123c-3.59-.63-7.17-.32-10.78.02-.53.05-.53.77,0,.82,3.61.34,7.19.65,10.78.02.43-.08.43-.79,0-.86Z"/>
            <path class="cls-3" d="m79.67,130.89c-3.59-.63-7.17-.32-10.78.02-.53.05-.53.77,0,.82,3.61.34,7.19.65,10.78.02.43-.08.43-.79,0-.86Z"/>
            <path class="cls-3" d="m79.67,138.78c-3.59-.63-7.17-.32-10.78.02-.53.05-.53.77,0,.82,3.61.34,7.19.65,10.78.02.43-.07.43-.79,0-.86Z"/>
            <path class="cls-3" d="m79.67,146.67c-3.59-.63-7.17-.32-10.78.02-.53.05-.53.77,0,.82,3.61.34,7.19.65,10.78.02.43-.08.43-.79,0-.86Z"/>
            <path class="cls-3" d="m79.67,154.56c-3.59-.63-7.17-.32-10.78.02-.53.05-.53.77,0,.82,3.61.34,7.19.65,10.78.02.43-.08.43-.79,0-.86Z"/>
            <path class="cls-3" d="m79.67,162.45c-3.59-.63-7.17-.32-10.78.02-.53.05-.53.77,0,.82,3.61.34,7.19.65,10.78.02.43-.08.43-.79,0-.86Z"/>
            <path class="cls-3" d="m79.67,170.34c-3.59-.63-7.17-.32-10.78.02-.53.05-.53.77,0,.82,3.61.34,7.19.65,10.78.02.43-.08.43-.79,0-.86Z"/>
          </g>
        </g>
        <path class="cls-3" d="m151.62,145.94c-.04-6.8-.13-13.62-.73-20.4-.53-5.96-1.19-12.24-3.39-17.85-2.31-5.92-6.9-10.58-12.89-12.75-3.12-1.13-6.51-1.5-9.82-1.5-2.52,0-5.14.16-7.67.63,0-.26,0-.53,0-.79.03-2.23.07-5.04-1.62-6.75-.54-.55-1.12-.8-1.77-.86-.09-.02-.16-.05-.27-.05-24.69,0-49.39-.12-74.09,0-3.38.02-6.75.04-10.13.05-1.78,0-4.16.01-5.93-.04-6.5-.19-5.71,1.25-5.39,1.91,2.25,4.56,5.21,8.74,8.05,12.97,1.22,1.82,2.61,3.56,3.67,5.48,1.16,2.11,1.61,4.48,1.77,6.87.7,10.24-.25,20.57-.54,30.8-.14,5.11-.1,10.24.04,15.36.14,4.92.14,10.12,1.24,14.95,2.32,10.18,13.75,11.19,22.37,11.75,5.62.36,11.24.52,16.87.6,7.7.12,15.41.04,23.09-.6,5.91-.49,13.52-.77,17.86-5.44,1.48-1.59,2.43-3.56,3.09-5.62,1.45-4.55,1.86-9.48,2.2-14.21.83-11.38.43-22.82.17-34.22-.07-3.29-.13-6.59-.19-9.88,5.2-.01,10.95-1.25,15.57,1.41,2.3,1.32,3.48,3.55,4.2,6.02.81,2.81,1.21,5.78,1.45,8.69.55,6.54-.08,13.17-.45,19.7-.18,3.19-.18,6.37.05,9.56.22,3.07.39,6.57,1.68,9.41,1.24,2.73,4.48,4.4,7.25,2.73,2.69-1.63,3.11-4.75,3.47-7.6.85-6.74.84-13.55.79-20.34Zm-37.7,10.95c-.23,4.77-.53,9.61-1.57,14.29-.53,2.36-1.03,4.04-2.34,5.91-.02,0-.44.52-.57.66-.24.25-.51.47-.77.7-.06.05-.13.1-.2.14-.17.11-.34.23-.51.33-.38.23-.77.43-1.17.63-.11.05-.22.1-.33.15-.24.09-.48.19-.72.28-.54.19-1.09.36-1.65.51-1.35.37-2.74.64-4.12.86-6.84,1.07-13.75,1.07-20.65.79-6.74-.27-13.49-.36-20.22-.67-4.61-.21-9.41-.28-13.93-1.35-2.01-.48-4.03-1.19-5.71-2.42-1.67-1.23-2.52-2.93-2.96-4.91-.48-2.16-.54-4.42-.7-6.62-.18-2.55-.35-5.11-.46-7.66-.22-5.03-.2-10.06-.28-15.09-.09-5.04-.22-10.07-.21-15.11.01-4.96.13-9.97-.23-14.92-.18-2.57-.59-5.13-1.65-7.5-.98-2.19-2.52-4.05-3.89-6-2.85-4.05-5.5-8.27-8.7-12.04,3.18,0,13.77.3,16.88.31,6.13.03,12.26.04,18.39.04,12.35,0,24.7,0,37.04-.01,6.81,0,13.63,0,20.44,0,1.01,1.11.92,2.78.8,4.37-.23,3.16-.22,6.25-.15,9.42.16,7.55.21,15.11.33,22.66.17,10.76.32,21.52-.19,32.27Zm32.81,4.72c-.09,1.56-.21,3.12-.39,4.67-.12,1.09-.14,2.66-.89,3.53-1.75,2.04-2.57-3.79-2.69-4.61-1.81-12.16.3-24.54-.78-36.74-.5-5.58-2.3-11.69-7.38-14.76-5.17-3.13-11.28-2.08-17.06-2.11-.05-2.51-.09-5.01-.15-7.52-.06-2.49-.18-4.99-.23-7.48,2.12.01,4.26-.11,6.38-.05,2.82.08,5.58.45,8.29,1.27,5.02,1.53,8.99,4.7,10.91,9.67,1.99,5.13,2.89,10.52,3.43,15.98.63,6.43.75,12.89.78,19.34.02,6.26.15,12.55-.21,18.8Z"/>
        <path class="cls-3" d="m189.14,57.03c-.24-3.09-1.26-5.75-3.05-8.27-2.58-3.64-5.92-7.01-9.72-9.55.31-1.97.39-3.98.33-5.98-.16-5.03-1.4-9.87-4.7-13.78-1.53-1.81-3.36-3.32-5.2-4.79-1.85-1.49-3.83-2.93-6.01-3.89-2.13-.94-4.45-1.57-6.79-1.4-2.35.17-4.66.69-6.83,1.6-2.81,1.17-5.19,2.91-7.33,4.93-.55-1.38-1.07-2.77-1.54-4.19-.13-.41-.36-.7-.64-.9-.38-.45-1.59-.76-2.14-.4-.93.62-1.61,1.54-2.35,2.37-.81.91-1.63,1.83-2.44,2.74-1.62,1.83-3.26,3.66-4.87,5.5-3.2,3.64-6.39,7.29-9.56,10.95-2.98,3.44-5.73,7.05-8.4,10.73-1.37,1.89-7.62,9.69-9.04,12.24-.41.29-.45,1.04.16,1.17.03,0,.05,0,.08.01.18.07.39.11.62.11,3.48.65,7,.94,10.45,1.78,3.32.81,6.59,1.93,9.49,3.77,2.9,1.83,5.12,4.3,6.66,7.35,1.55,3.05,2.66,6.3,4.11,9.4,2.64,5.64,6.56,11.2,12.04,14.37,4.89,2.83,11.02,4.74,16.71,3.79,3.29-.55,6.03-1.97,8.64-4.03,2.76-2.18,5.24-4.76,7.57-7.39,4.75-5.35,9.38-11.18,12-17.9,1.27-3.26,2.01-6.83,1.74-10.34Zm-31.25-43.91c3.55,1.81,6.89,4.5,9.77,7.24,3.11,2.95,4.78,6.55,5.22,10.8.2,1.99.25,4.05.03,6.05-.31-.15-.61-.32-.92-.46-1.09-.49-2.21-.89-3.34-1.24.43-2.23.66-4.51.16-6.75-1.04-4.58-5.48-7.34-9.56-8.97-4.07-1.63-8.85-3.46-12.86-.69-1.31.9-2.49,2.02-3.63,3.16-.83-1.58-1.6-3.18-2.3-4.81,5.02-4.29,10.86-7.69,17.43-4.33Zm8.03,21.67c-1.64-.37-3.31-.64-4.99-.87-3.44-.46-7.16-.83-10.32-2.37-3.21-1.57-5.16-4.41-6.86-7.42.83-.81,1.67-1.6,2.54-2.35,1.68-1.44,3.51-2.31,5.75-1.8,1.99.46,3.82,1.51,5.6,2.47,3.28,1.76,7.29,3.66,8.46,7.53.5,1.64.31,3.25-.19,4.82Zm19.35,25.86c-.79,6.79-4.8,13.04-8.8,18.4-2.14,2.87-4.58,5.54-7.13,8.05-2.41,2.37-5.01,4.69-8.1,6.12-1.27.59-2.31,1.07-3.72,1.13-1.52.06-2.96-.19-4.42-.58-2.76-.74-5.52-1.77-8.04-3.12-5.5-2.93-9.28-7.63-11.97-13.17-1.62-3.33-2.72-6.92-4.61-10.12-1.8-3.06-4.18-5.63-7.17-7.55-5.63-3.62-12.77-4.93-19.48-5.01,1.22-1.44,2.23-3.18,3.31-4.66,1.44-1.98,2.87-3.97,4.31-5.95,2.71-3.74,5.49-7.4,8.51-10.89,2.42-2.8,12.71-13.92,17.43-19.24,1.06,3.03,2.3,6,3.75,8.86,1.49,2.93,3.11,5.95,5.36,8.38,4.49,4.85,10.95,5.13,17.02,6.27,6.19,1.16,11.79,3.62,16.45,7.88,2.21,2.02,4.34,4.26,5.86,6.86,1.5,2.55,1.79,5.45,1.46,8.36Z"/>
      </g>
      <rect class="cls-2" width="200" height="200"/>
    </g>
  </g>
</svg>