<?xml version="1.0" encoding="UTF-8"?>
<svg id="Capa_2" data-name="Capa 2" xmlns="http://www.w3.org/2000/svg" viewBox="0 0 200 200">
  <defs>
    <style>
      .cls-1 {
        fill: #f8d166;
      }

      .cls-1, .cls-2, .cls-3, .cls-4 {
        stroke-width: 0px;
      }

      .cls-2 {
        fill: none;
      }

      .cls-3 {
        fill: #fff;
      }

      .cls-4 {
        fill: #593737;
      }
    </style>
  </defs>
  <g id="colorful_icons" data-name="colorful icons">
    <g>
      <g>
        <path class="cls-1" d="m72.03,118.99s1.11-57.81,5.73-60.95c4.62-3.14,69.82,5.17,71.3,7.57,1.48,2.4-11.82,56.15-8.5,57.07,3.32.92,31.77-1.48,37.31,3.14,5.54,4.62,4.62,9.24-.92,11.45s-12.56-2.77-16.81,1.85c-4.25,4.62-3.69,12.01-15.52,13.11-11.82,1.11-26.78-6.46-35.65-3.88s-21.61,9.42-37.31,9.05c-12.26-.29-17.73-5.17-18.1-9.6-.37-4.43.55-9.24-4.43-10.34s-24.01-.74-28.26-6.65c-5.74-7.99,6.46-11.08,17.18-11.45,10.71-.37,33.99-.37,33.99-.37Z"/>
        <path class="cls-4" d="m24.65,135.25c4.25,3.11,9.93,3.36,15.36,3.69,2.81.17,7.07-.14,9.49,1.75,2.65,2.06,1.7,4.05,1.63,6.52-.08,2.94.56,5.33,2.66,7.47,4.42,4.53,12.11,5.36,18.08,5.72,9.01.54,18.25-1.25,26.72-4.29,4.12-1.48,7.94-3.67,12.05-5.13,6.1-2.16,12.02-1.11,18.13.37,6.87,1.67,13.79,3.48,20.87,1.87,7.97-1.81,9.28-8.35,14.9-13.05,4.12-3.45,9.09-.72,13.04-2.24,3.32-1.28,4.96-6.46,3.76-5.32-5.74,5.45-13.34.14-19.58,3.95-2.54,1.55-3.82,4.04-5.41,6.46-2.29,3.49-5.09,5.9-9.22,6.82-8.39,1.88-16.97-2.55-25.18-3.59-7.27-.92-12.95,1.44-19.45,4.3-8.5,3.75-17.47,6.38-26.83,6.52-4.26.06-8.61-.28-12.73-1.41-2.09-.57-4.16-1.24-5.87-2.62-2.78-2.25-2.56-4.18-2.56-7.38,0-5.68-2.59-8.32-8.3-9.35-8.46-1.53-18.71.68-25.6-5.89-.54-.51.26,2.06,4.04,4.82Z"/>
        <path class="cls-4" d="m78.67,146.22c-2.4-.39-14.36.97-14.18-3.14.03-.71-1.09-.97-1.27-.24-1.78,7.03,12.2,6.01,15.65,4.29.46-.23.24-.84-.2-.91Z"/>
        <path class="cls-4" d="m145.63,140.93c-.79.29-1.55.52-2.39.61-.67.07-.58,1.19.1,1.19.8,0,3.91-.09,3.68-1.45-.11-.67-.94-.52-1.39-.35Z"/>
        <path class="cls-4" d="m129.06,128.29c-3.19,1.19-6.06,3.27-9.61,3.1-2.96-.14-5.89-1.01-8.84-1.33-2.41-.27-5.47-.45-7.38,1.32-.03.03-.05.06-.06.09-.13.07-.26.15-.39.23-.36.23-.18.77.26.71,2.91-.46,5.53-.09,8.4.43,1.76.32,3.48.45,5.22.44.92.1,1.86.13,2.82.05.82-.07,1.59-.22,2.34-.43,1.38-.18,2.73-.51,3.91-1.24.29-.18.55-.38.81-.58.09-.04.17-.08.26-.11,1.67-.72,3.27-1.29,5.1-1.37,1.19-.05,2.28.4,3.37-.14.22-.11.27-.37.18-.58-.97-2.29-4.64-1.24-6.39-.59Z"/>
        <path class="cls-4" d="m127.47,95.3c2.77.49,6.66,1.56,9.23.05.4-.24.46-.93,0-1.14-1.31-.62-2.57-.57-3.99-.58-1.67,0-3.31-.11-4.96-.32-1.12-.14-1.39,1.79-.27,1.99h0Z"/>
        <path class="cls-4" d="m129.96,105.94c1.05,0,2.2.14,3.17-.29.58-.26.58-1.27,0-1.53-.97-.43-2.13-.28-3.17-.29-1.35-.01-1.36,2.12,0,2.1h0Z"/>
        <path class="cls-3" d="m85.28,64.97c-2.35,5.84-4.06,11.06-4.82,17.34-.65,5.38-1.66,10.36.54,15.46.29.67,1.14.55,1.59.21,8.89-6.93,4.15-22.5,6-32.09.43-2.2-2.49-2.94-3.31-.91h0Z"/>
        <path class="cls-3" d="m78.44,107.84c.02.45.04.91.07,1.36.07,1.08.26,1.88,1.03,2.69,1.32,1.4,3.47.89,4.45-.57.72-1.07.45-2.29.32-3.48-.09-.8-.27-1.48-.86-2.08-.51-.51-1.34-.89-2.08-.86-1.52.07-3.02,1.29-2.94,2.94h0Z"/>
      </g>
      <rect class="cls-2" width="200" height="200"/>
    </g>
  </g>
</svg>