<?xml version="1.0" encoding="UTF-8"?>
<svg id="Capa_2" data-name="Capa 2" xmlns="http://www.w3.org/2000/svg" viewBox="0 0 200 200">
  <defs>
    <style>
      .cls-1 {
        fill: #00b9d1;
      }

      .cls-1, .cls-2, .cls-3, .cls-4, .cls-5, .cls-6 {
        stroke-width: 0px;
      }

      .cls-2 {
        fill: #80dce8;
      }

      .cls-3 {
        fill: none;
      }

      .cls-4 {
        fill: #fff;
      }

      .cls-5 {
        fill: #bfeef3;
      }

      .cls-6 {
        fill: #593737;
      }
    </style>
  </defs>
  <g id="colorful_icons" data-name="colorful icons">
    <g>
      <g>
        <g>
          <path class="cls-2" d="m30.05,132.56c-7.36,5.98-6.94,11.51,1.35,13.71,8.29,2.2,18.28-1.18,23.69,2.2s7.11,8.97,23.52,8.63c16.41-.34,27.75-1.02,36.72-.17,8.97.85,36.89,1.02,46.54-4.57s7.95-10.66,5.08-15.4c-2.88-4.74-.34-5.42,3.22-7.11,3.55-1.69,7.28-5.75-2.37-9.31-9.65-3.55-29.78-3.55-41.12-3.38-11.34.17-84.95,5.92-96.62,15.4Z"/>
          <g>
            <path class="cls-5" d="m148.7,62.94c-.02.22-.04.45-.06.68-.87,8.06-3.69,23.69-3.69,28.16,0,5.59,2.37,21.32,3.21,29.45.85,8.12,0,9.97-4.06,12.85-4.06,2.88-28.94,7.96-39.43,9.15-.06.01-.12.01-.18.02-.18.02-.37.03-.55.05-.84.09-1.67.14-2.48.17-.18.01-.37.02-.55.02-8.72.27-16.14-2.01-27.71-3.48-13.19-1.69-17.08-4.91-20.47-12.52-3.39-7.62,2.2-21.15,3.39-27.92,1.18-6.78-4.07-23.02-4.41-30.81-.04-1-.06-1.91-.04-2.72,0-.2,0-.39.01-.57.04-.88.13-1.66.28-2.35.04-.18.08-.36.15-.53.85-2.92,3.15-4.42,8.58-6.85,8.29-3.73,35.53-14.48,46.36-14.72,14.2-.33,38.86,13.04,41.56,17.66.12.18.19.35.22.51.01.04.02.07.02.11.08.69.03,1.98-.14,3.65Z"/>
            <g>
              <path class="cls-4" d="m65.13,92.59c1.53-2.95,3.74-5.28,5.93-7.73.35-.4-.11-1.11-.6-.78-2.77,1.91-4.83,4.95-6.26,7.96-.29.61.6,1.16.92.54Z"/>
              <path class="cls-4" d="m90.65,132.66c3.23-2.67,6.51-6.37,8.14-10.26.17-.42-.49-.66-.71-.3-2.25,3.62-6.29,6.2-8.08,10.06-.2.43.28.81.65.5Z"/>
              <path class="cls-4" d="m116.53,86.32c-2.22,1.4-3.89,3.72-5.62,5.65-.43.47.23,1.13.7.7,1.94-1.74,4.14-3.48,5.65-5.62.31-.44-.3-1.01-.73-.73Z"/>
            </g>
          </g>
          <path class="cls-6" d="m29.54,146.04c4.84,2.24,9.89,2.4,15.41,2.3,5.33-.1,7.71,3.16,11.83,6.52,1.82,1.48,3.52,2.94,5.69,3.91,6.55,2.92,15.21,1.67,22.1,1.21,8.29-.55,13.63-3.01,25.04-2.2,15.28,1.08,32.02,4.3,46.66-1.16,9.28-3.46,11.33-6.99,12.79-11.33,1.8-5.33-3.41-11.65-3.3-10.96.58,3.79,2.48,7.48.22,11.27-1.86,3.12-5.52,5.04-8.79,6.28-6.41,2.43-13.43,3.34-20.24,3.66-12.97.61-25.93-1.15-38.91-.53-6.71.32-13.39,1.09-20.1,1.37-7.65.32-13.43-.47-19.48-5.48-3.35-2.77-6.51-4.27-10.92-4.4-7.4-.21-14.18.58-21.14-2.68-.78-.36.85,1.17,3.13,2.22Z"/>
          <path class="cls-1" d="m128.53,102.27s-13.88,23.18-14.38,39.94c-.51,16.75,6.94,24.88,20.64,22.34,13.71-2.54,15.06-18.11,11.17-30.8-3.89-12.69-15.06-33.84-17.43-31.47Z"/>
          <path class="cls-4" d="m137.29,156.03c2.33-1.43,4.12-3.02,4.99-5.72.7-2.19.62-5.29-1.32-6.84-.49-.39-1.17-.38-1.53.2-1.86,3.05-1.6,7.17-3.96,10.02-1.02,1.23.27,3.29,1.81,2.35h0Z"/>
        </g>
        <path class="cls-4" d="m148.7,62.94c-.02.22-.04.45-.06.68-.86.58-1.81,1.24-2.8,1.93-3.08,2.11-6.55,4.5-8.94,5.92-3.04,1.8-7.08,3.6-11.99,5.36-6.25,2.23-12.69,3.41-19.17,3.49.24,3.29.23,6.63.22,9.87-.01,2.43-.02,4.95.09,7.4.1,2.21.22,4.45.34,6.69.22,3.98.46,8.11.51,12.12.07,5-.21,12.07-.7,17.18-.21,2.06-1.12,6.92-1.69,9.66-.18.02-.37.03-.55.05-.84.09-1.67.14-2.48.17-.18.01-.37.02-.55.02l.04-.17c2.28-8.09,3.25-22.29,3.19-29.33-.06-5.57-.29-11.23-.5-16.7l-.04-1.01c-.07-1.78-.2-3.6-.34-5.35-.25-3.48-.52-7.07-.33-10.62-1.25-.04-2.49-.12-3.66-.22-7.94-.74-15.6-3.02-23.02-5.22l-2.37-.7c-3.72-1.08-17.36-5.92-22.21-8.13,0-.2,0-.39.01-.57.04-.88.13-1.66.28-2.35.04-.18.08-.36.15-.53l.13.07c1.26.75,2.93,1.33,4.14,1.74l.49.17c6.6,2.31,13.92,4.47,20.37,6.37,1.67.5,3.26.97,4.75,1.41,9.06,2.71,16.52,4.06,22.79,4.13h.55c8.03,0,15.37-2.25,20.86-4.22,6.01-2.15,17.45-9.06,22.24-13.46l.17-.15c.12.18.19.35.22.51.01.04.02.07.02.11.08.69.03,1.98-.14,3.65Z"/>
      </g>
      <rect class="cls-3" width="200" height="200"/>
    </g>
  </g>
</svg>