<?xml version="1.0" encoding="UTF-8"?>
<svg id="Capa_2" data-name="Capa 2" xmlns="http://www.w3.org/2000/svg" viewBox="0 0 200 200">
  <defs>
    <style>
      .cls-1 {
        fill: #f8d166;
      }

      .cls-1, .cls-2, .cls-3, .cls-4, .cls-5, .cls-6 {
        stroke-width: 0px;
      }

      .cls-2 {
        fill: #c46127;
      }

      .cls-3 {
        fill: none;
      }

      .cls-4 {
        fill: #fff;
      }

      .cls-5 {
        fill: #d69068;
      }

      .cls-6 {
        fill: #593737;
      }
    </style>
  </defs>
  <g id="colorful_icons" data-name="colorful icons">
    <g>
      <rect class="cls-3" width="200" height="200"/>
      <g>
        <g>
          <g>
            <path class="cls-1" d="m133.86,146c-1.61-7.7-5.93-14.9-10.65-21.3-3.78-5.12-7.8-10.07-11.42-15.32-2.8-4.06-5.6-8.31-8.91-12.01-6.9-7.7-17.1-10.51-27.12-10.7-5.97-.11-12.45,1.29-17.02,5.49-5.12,4.71-6.34,12.1-2.55,18.03,3.17,4.96,10.36,6.29,12.69,11.91,3.81,9.19-10.78,12.32-16.59,15.07-4.72,2.24-8.22,6.21-8.42,11.68-.27,7.04,5.64,11.54,11.54,13.89,6.66,2.66,12.89,5.68,18.98,9.46.38.28.75.58,1.12.88,5.53,4.51,12.48,3.71,19.17,4.09,11.02.62,27.98-.52,34.94-10.54,1.77-1.94,3.14-4.2,3.87-6.8,1.33-4.74,1.3-9.37.36-13.84Z"/>
            <path class="cls-6" d="m68.98,94.41c-.94-.24-1.6.32-2.56.19-.2-.03-.33-.06-.48-.26-.02-.02-.07-.07-.09-.21-.03-.25.01-.48-.05-.73-.08-.32-.42-.4-.68-.28-.62.28-.92,1.13-.89,1.77.04.77.66,1.31,1.33,1.6,1.15.5,3.65.54,4.01-1.05.1-.44-.13-.92-.59-1.04Z"/>
            <path class="cls-6" d="m54.83,149.56c-.04-.36.13-.75.29-1.07.52-1.05-.94-1.91-1.57-.92-.83,1.29-1.23,3.61.63,4.23.83.28,1.53-.74,1.11-1.45-.17-.28-.43-.47-.46-.8Z"/>
            <path class="cls-6" d="m60.65,151.15c-1.93,0-1.93,2.99,0,2.99s1.93-2.99,0-2.99Z"/>
            <path class="cls-4" d="m119.14,161.57c-1.32,1.1-2.03,2.56-3.72,3.25-1.74.7-3.54.34-5.22-.34-.67-.27-1.12.83-.49,1.16,1.96,1.05,4.15,1.61,6.35,1.02,1.97-.53,4.16-2.15,4.52-4.25.14-.86-.76-1.4-1.44-.84Z"/>
            <path class="cls-1" d="m49.86,131.36c2.15.33,4.41.08,6.13-.74,7.51-3.54,1.81-13.52-4.9-13.45-5.09.05-9.65,4.36-7.74,9.6.96,2.64,3.64,4.14,6.51,4.59Z"/>
          </g>
          <g>
            <path class="cls-2" d="m173.61,9.44c-3.78-4.78-10.22-.33-15.33,7.22-5.11,7.56-8.56,26.78-13.67,39.78-5.11,13-11.56,27.11-11.56,27.11l11.67,3.67s1.44-5.78,4.33-12.78c5.69-13.74,12.27-21.96,19.71-35.85,7.44-13.89,8.62-24.38,4.84-29.15Zm-5.5,10.66c-.27.75-.72,1.45-1.24,2.08-.15.26-.3.53-.49.77-.15.19-.34.4-.56.58-.02.09-.05.17-.11.25-.31.41-.69.71-1.23.72-.38,0-.75-.15-1.02-.43-.45-.46-.59-1.15-.67-1.77-.06-.52-.01-1.04.03-1.56.07-.79.19-1.58.48-2.31.6-1.48,2.4-3.42,4.11-2.25.69.47.95,1.25.96,2.06,0,.61-.07,1.29-.28,1.87Z"/>
            <path class="cls-5" d="m139.39,115.44c-2.06,6-6.03,13.31-11.19,18.81-5.17,5.5-12.92,11.75-20.5,8.33-.47-.21-.95-.46-1.44-.75-.29-.18-.59-.36-.89-.56-2.03-1.34-4.16-3.22-6.17-5.27-.24-.26-.49-.51-.73-.77-1.7-1.79-3.28-3.68-4.6-5.42-.23-.29-.43-.57-.63-.84-2.09-2.85-3.39-5.19-3.21-5.89.5-1.92,10.58-7.67,17.75-13.92s10.25-15.25,10.25-15.25c0,0,24.78,5.67,25.03,5.75.25.09-1.11,8.34-3.67,15.78Z"/>
            <path class="cls-6" d="m117.78,94.65c2.59.85,12.7,4.13,17.72,5.58,5.78,1.67,7.22,3,10,1.44,2.78-1.56,7.11-10.33,2.89-15.22-3.7-4.29-11.11-5.56-18.11-4.56s-10.11,4.22-11.67,7.89c-.53,1.25-1.02,3.03-1.27,3.99-.11.42.05.75.45.88Z"/>
            <path class="cls-6" d="m131.29,97.66c-.63,1.44-2.73,5.34-3.44,6.68-1.2,2.25-2.53,4.41-3.99,6.5-2.37,3.38-4.92,6.64-7.53,9.84-3.91,4.79-11.23,11.96-17.13,15.32-.24-.26-.49-.51-.73-.77,5.76-3.65,13.25-10.45,17.13-15.28,2.69-3.36,5.31-6.78,7.64-10.4,1.23-1.91,2.45-3.83,3.63-5.78.75-1.23,2.61-5.1,3.3-6.38.37.09.75.19,1.12.27Z"/>
            <path class="cls-6" d="m137.95,99.77c-.49,1.61-2.29,6.01-2.98,7.46-1.01,2.13-2.1,4.22-3.27,6.27-2.17,3.79-4.73,7.35-7.4,10.81-4.23,5.45-11.99,13.49-18.04,17.52-.29-.18-.59-.36-.89-.56,6.08-4.24,13.9-12.61,18.06-18.12,2.67-3.55,5.19-7.23,7.49-11.02,1.08-1.79,2.1-3.62,3.02-5.5.72-1.5,2.29-5.93,3.03-7.44.32.21.64.41.98.58Z"/>
            <path class="cls-6" d="m124.81,96.04c-1.06,2.64-3.97,7.22-5.59,9.45-1.97,2.7-4.36,5.88-6.66,8.28-4.58,4.78-13.16,11.43-18.69,16.04-.23-.29-.43-.57-.63-.84,5.26-4.48,13.79-11.11,18.16-15.67,2.52-2.61,4.83-5.36,6.9-8.34,2.37-3.41,3.95-7,5.48-9.41.35.15.69.31,1.03.49Z"/>
          </g>
        </g>
        <path class="cls-6" d="m168.67,15.23c-4.25-3.65-6.66,4.98-6.64,6.89.02,2.05,1.21,3.56,3.44,2.68,1.74-.69,3.16-3.37,3.84-5.7.37-1.28.32-3.05-.64-3.87Zm-1.23,4.67c-.34,1.4-1.23,2.99-2.5,3.73-1.7.99-1.99-1.21-1.79-2.46.2-1.27.65-3.39,1.92-4.06.8-.42,1.76,0,2.18.75.34.61.36,1.36.2,2.04Z"/>
      </g>
    </g>
  </g>
</svg>