<?xml version="1.0" encoding="UTF-8"?>
<svg id="Capa_2" data-name="Capa 2" xmlns="http://www.w3.org/2000/svg" viewBox="0 0 200 200">
  <defs>
    <style>
      .cls-1 {
        fill: #dfa888;
      }

      .cls-1, .cls-2, .cls-3, .cls-4, .cls-5 {
        stroke-width: 0px;
      }

      .cls-2 {
        fill: none;
      }

      .cls-3 {
        fill: #fff;
      }

      .cls-4 {
        fill: #593737;
      }

      .cls-5 {
        fill: #f28322;
      }
    </style>
  </defs>
  <g id="colorful_icons" data-name="colorful icons">
    <g>
      <g>
        <path class="cls-3" d="m112.9,70.22s-3.92,2.3-5.87,4c-1.96,1.7-4.34,2.81-5.79,2.55-1.45-.26-5.7-.34-7.58,0-1.87.34-4,.68-2.55,2.13,1.45,1.45,10.64,2.72,11.07,5.45.43,2.72.09,25.12-.68,28.86-.77,3.75-5.7,17.88-11.07,23.75s-21.71,17.03-24.78,19.33-3.75,3.83-2.47,7.58,4.6,8.34,11.75,8.77c7.15.43,17.03.68,20.6,1.96s15.58,7.41,24.86,5.45c9.28-1.96,18.48-9.54,22.22-10.05,3.75-.51,9.88-2.47,10.64-7.92s.09-9.79-6.9-15.75c-6.98-5.96-20.35-17.62-25.46-26.73-5.11-9.11-7.75-23.16-8.6-28.27-.85-5.11-.51-12.69.26-13.54.77-.85,6.56-2.64,7.66-4.85,1.11-2.21-.09-3.66-1.36-3.92s-5.02-.17-5.96,1.19Z"/>
        <g>
          <g>
            <path class="cls-4" d="m96.82,75.2c-1.05.1-3.65.85-4.49,1.41,0,.02-.01.04-.02.06,0,.03-.04.28-.03.13,0,.06-.02.13-.02.19,0,.08,0,.16,0,.24,0,.02,0,.11.01.14.02.1.04.19.07.29,0,0,0,0,0,0,0,.02.02.03.02.05.03.06.06.11.1.16,0,.01.01.02.02.03,0,0,0,0,0,0,0,0,.01.02.02.02,1.99-.2,5.42-.7,7.5-.35,1.82.31,3.35.39,4.97-.65,1.75-1.12,3.79-3.04,5.61-4.08,1.21-.69,3.68-1.96,6.9-1.75.3.02.17.3.45.32,0-.04,0-.09,0-.13,0-.05,0-.11,0-.16,0-.02,0-.02,0-.03,0,0,0,0,0-.02-.02-.11-.04-.21-.07-.31-.02-.06-.04-.12-.06-.18,0-.02,0-.02,0-.02,0,0,0,0,0,0-.1-.21-.21-.41-.34-.61-.14-.21-.28-.41-.42-.61-.06-.09-.12-.17-.19-.25-.02-.02-.07-.09-.07-.09-.05-.06-.09-.11-.14-.17-.06-.08-.11-.18-.17-.27-.61.1-3.13.38-4.88,1.24-2.35,1.15-4.06,2.88-6.17,4.31-2.74,1.85-5.57.82-8.59,1.1Z"/>
            <path class="cls-4" d="m156.48,156.35c-3.38-8.36-11.33-12.36-17.93-17.79-5.89-5.87-11.42-12.19-15.72-19.3-1.57-2.86-2.94-5.82-4.09-8.89-3.5-9.31-4.55-21.71-4.53-31.55-.06-.02-.13-.05-.19-.07-1.1-.39-2.17-.89-3.3-1.15.35,9.89,1.27,23.35,4.66,32.68,3.04,8.36,8.01,15.79,13.8,22.48,2.88,3.33,5.96,6.48,9.13,9.53,3.42,3.29,7.12,6.34,10.11,10.04,1.48,1.83,3.02,3.98,3.57,6.3.68,2.89-1.08,5.25-3.44,6.72-.5.31-1.02.59-1.55.84-.12.04-.23.08-.35.12-.88.32-1.74.67-2.6,1.04-2.77.94-5.67,1.64-8.22,3.15-4.13,2.44-7.92,4.85-12.63,6.05-4.46,1.13-9.26,1.38-13.85.59-4.83-.82-8.99-3.12-13.53-4.83-3.79-1.42-7.78-2.49-11.83-2.79-4.44-.33-9.05.69-13.45-.23-5.11-1.07-8.28-8.06-3.99-11.96,2.44-2.22,5.31-4.07,8.13-5.9.22-.12.43-.24.64-.36,3.04-1.77,5.89-3.87,8.52-6.22,1.69-1.37,3.33-2.8,4.86-4.35,7.04-7.1,11.33-16.5,13.57-26.15,2.1-9.02,2.28-21.64.58-30.93-.05-.4-.1-.81-.15-1.21-.44.47-.89.93-1.33,1.39-.15.16-.29.32-.43.48.82,9.5.92,21.76-1.45,30.96-.71,2.77-1.57,5.47-2.6,8.07-2.12,4.98-4.87,9.68-8.36,13.98-.96,1.09-1.98,2.15-3.07,3.16-3.75,3.46-7.98,6.36-12.19,9.22-1.17.79-2.34,1.58-3.5,2.38-3.47,1.95-6.86,4.3-8.41,8.12-1.61,3.98-.28,8.35,2.87,11.16,3.98,3.53,9.18,3.85,14.24,3.85,5.69,0,11.48.79,16.9,2.5,5.45,1.71,10.84,3.72,16.51,4.58,5.51.84,10.84.34,16.04-1.71,5.19-2.05,10.01-4.94,14.99-7.45,3.7-1.87,8.02-2.94,11.29-5.56,3.44-2.76,3.87-7.06,2.28-10.99Z"/>
            <path class="cls-5" d="m95.48,144.16c7.03-4.09,14.94-5.11,22.87-3.58,6.55,1.26,16.37,4.53,16.79,12.65-1.17,11.31-33.99,8.11-40.74,7.34-.07-.01-.14-.03-.22-.04-.55-.11-1.13-.22-1.71-.34-3.36-.97-5.76-3.46-4.8-7.5.87-3.68,4.69-6.71,7.8-8.53Z"/>
            <path class="cls-3" d="m97.02,152.37c1.34-1.42,2.97-2.63,4.72-3.49,1.47-.72,3.19-.87,4.16-2.31.14-.21.09-.54-.09-.71-1.59-1.47-3.92-.47-5.58.44-2.1,1.15-3.6,2.84-4.61,4.99-.41.87.66,1.87,1.4,1.08Z"/>
          </g>
          <path class="cls-1" d="m85.65,26.97c.16.3-7.15,10.64-6.73,10.81.43.17,10.39,1.02,10.39,1.87s-8.68,11.58-8.09,11.75c.6.17,11.75-.34,11.49.68s-6.98,12.18-6.39,12.35c.6.17,11.49-.51,11.83.34.34.85-5.87,11.15-5.02,12.69.85,1.53,9.79,4,10.05,5.02s-12.09,10.3-30.23,11.49c-18.14,1.19-30.31-12.35-29.37-27.25.94-14.9,13.45-27.25,21.54-31.84,8.09-4.6,19.92-9.03,20.52-7.92Z"/>
          <path class="cls-1" d="m121.07,24.92s5.53,8.34,4.77,8.68c-.77.34-8.85,1.02-9.11,1.62-.26.6,6.64,9.62,6.3,10.05-.34.43-10.13,2.55-10.13,3.07s8,9.88,7.75,10.13-10.13,3.24-10.13,3.83,7.32,8.6,6.73,9.03c-.6.43-9.28,4.77-9.28,5.28s8.6,6.97,25.12,4.77c17.28-2.3,24.44-13.71,24.69-23.67.22-8.49-6.13-19.5-15.84-26.82-6.96-5.25-15.84-6.98-20.86-5.96Z"/>
        </g>
      </g>
      <rect class="cls-2" width="200" height="200"/>
    </g>
  </g>
</svg>