<?xml version="1.0" encoding="UTF-8"?>
<svg id="Capa_2" data-name="Capa 2" xmlns="http://www.w3.org/2000/svg" viewBox="0 0 200 200">
  <defs>
    <style>
      .cls-1 {
        fill: #dfa888;
      }

      .cls-1, .cls-2, .cls-3, .cls-4, .cls-5, .cls-6 {
        stroke-width: 0px;
      }

      .cls-2 {
        fill: none;
      }

      .cls-3 {
        fill: #fff;
      }

      .cls-4 {
        fill: #593737;
      }

      .cls-5 {
        fill: #f28322;
      }

      .cls-6 {
        fill: #f3dfd4;
      }
    </style>
  </defs>
  <g id="colorful_icons" data-name="colorful icons">
    <g>
      <g>
        <path class="cls-6" d="m71.97,15.84s1.12,0,2.02.62c.9.62,3.7,3.7,3.7,4.2s-2.41,4.48-2.07,4.99c.34.5,4.32,1.85,4.2,2.52-.11.67-4.26,4.09-3.76,4.48s6.11,3.36,5.61,4.09c-.5.73-3.7,3.25-3.08,3.98.62.73,4.65,2.75,4.65,3.31s-4.2,8.8-4.15,9.47c.06.67-13.62.73-16.15-.62-2.52-1.35-6.17-15.14-6.33-20.29-.17-5.16,4.09-17.49,15.36-16.76Z"/>
        <path class="cls-3" d="m69.22,43.37s7.74,1.01,14.13,7.4c6.39,6.39,12.45,19.85,14.3,25.06,1.85,5.21,5.38,18.67,5.72,20.52,1.41,7.73.77,11.28,1.18,13.12h-19.85c.13-19.68,1.14-22.94-.17-35.32-.67-6.39-.84-10.09-3.36-12.45-2.52-2.35-8.78-4.08-8.78-4.08,0,0-4-2.48-4.5-6.68-.5-4.2,1.35-7.57,1.35-7.57Z"/>
        <g>
          <path class="cls-6" d="m141.87,26.13s-.76-.93-2.44.67c-1.68,1.6-2.94,4.29-3.62,4.29s-5.89-2.86-6.05-1.09c-.17,1.77,1.77,6.56.17,6.64-1.6.08-6.81-1.26-6.56-.17.25,1.09,2.52,2.77,1.51,3.36-1.01.59-6.39,2.69-6.39,3.7s1.68,12.78,2.27,13.29c.59.5,15.47,5.21,21.61-.84,6.14-6.05-.5-29.85-.5-29.85Z"/>
          <path class="cls-5" d="m137.16,44.46s-6.31-5.05-16.82-.25-9.92,13.2-8.75,17.24c1.18,4.04,3.53,6.31,5.97,7.9,2.44,1.6,15.39-2.02,18.58-5.8,3.2-3.78,6.64-7.99,5.89-11.44-.76-3.45-4.88-7.65-4.88-7.65Z"/>
          <path class="cls-1" d="m141.28,25.79s.59,14.8.17,15.22c-.42.42-6.73,1.35-6.64,1.77.08.42,1.68,12.19.5,12.28-1.18.08-10.76,1.01-10.76,1.01,0,0,.92,7.23.08,7.65-.84.42-10.51,1.77-10.93,2.52-.42.76,13.2,18.25,32.88,9.75,20.38-8.8,16.23-27.75,12.45-35.07-3.08-5.95-8.49-10.18-11.35-12.19-2.86-2.02-6.39-2.94-6.39-2.94Z"/>
        </g>
        <path class="cls-4" d="m141.63,26.04c-.03-.56-.88-.57-.88,0,.03,2.57-.3,11.74-.59,13.7,0,0-1.61.47-2.33.68-1.34.39-3.03.81-4.29,1.43-.26.13-.39.43-.41.71-.11,2.48,1.8,10.68,1.33,10.98-1.18.76-8.61,1.33-10.22,1.47-.34.03-.73.29-.69.69.17,1.77.31,6.86.27,7.51-.12,0-7.29,1.27-10.52,2.7-.3.13.3.91.6.91,3.79-.05,7.58-.99,11.24-1.9.26-.07.44-.32.44-.58.06-1.7-.53-5.34-.49-6.99.03-1.15,8.54-1.05,10.97-1.37.48-.06.82-.57.75-1.05-.32-2.13-1-4.84-1.18-6.99-.06-.73-.6-3.11-.49-4.29.02-.22.03-.44.45-.52,1.17-.21,5.36-.98,6.3-1.25.34-.1.59-.42.59-.78.05-4.9-.63-10.17-.87-15.05Z"/>
        <g>
          <path class="cls-4" d="m83.6,53.12c2.96,3.4,5.29,7.36,7.27,11.39,5.01,10.2,7.67,21.11,10.24,32.11.68,2.9,1.39,11.84,2.13,14.72,1.13-.01,2.27-.02,3.41-.03-1.2-5.13-2.49-16.3-3.9-21.37-2.6-9.36-5.24-19.01-9.62-27.72-2.25-4.48-5.06-8.69-8.74-12.12-2.42-2.26-5.21-4.2-8.3-5.42-.17-.07-3.3-1.29-3.39-1.18-.01.01-.02.03-.03.04-.01.02-.04.05-.06.07-.13.19-.24.39-.34.6,0,.02-.01.02-.02.04-.02.05-.04.1-.05.14-.04.12-.08.23-.12.35-.06.18-.1.37-.15.56,2.2,1.01,5.95,2.81,7.8,4.18,1.36,1.08,2.66,2.26,3.86,3.63Z"/>
          <path class="cls-4" d="m87.01,110.9c.09-8.54-.08-23.15-.63-31.67-.19-2.91-.22-7.04-1.06-10.76-.46-2.05-1.06-4.25-2.27-5.98-.89-1.27-2.3-2.46-3.62-3.26-.66-.4-1.35-.73-2.04-1.09-.74-.39-3.01-1.24-3.9-1.66-.03-.01-.05-.05-.08-.05-.03,0-.06.02-.09.03-.08.05-.52.29-.52.38-.17.15-.36.33-.44.55-.02.06-.02.16.01.23.22.45,2.75,1.83,3.17,2.05,2.28,1.23,4.56,2.17,6,4.47,1.28,2.05,1.46,4.6,1.51,6.96.05,2.05-.09,4.1-.05,6.15.08,4.75.23,9.5.39,14.25.16,4.66.39,15.4.46,20.08,1.04-.08,2.09-.11,3.14-.12,0-.19,0-.37,0-.56Z"/>
        </g>
        <path class="cls-1" d="m72.75,15.87s-4.12,1.93-4.04,2.27c.08.34,1.85,2.27,1.68,2.52s-3.53,1.35-3.36,1.6c.17.25,5.13,5.63,5.38,7.15s-7.4,8.49-6.81,8.91c.59.42,8.41,3.03,8.49,3.87.08.84-4.46,7.82-3.62,8.24.84.42,5.47,1.93,5.3,2.52-.17.59-2.44,3.45-1.85,4.2s5.55,3.7,4.88,4.2c-.67.5-27.75,4.2-36.58-10.93-8.83-15.14,4.12-27.08,10.09-30.69,3.71-2.25,8.54-3.87,13.08-4.46,4.06-.53,7.36.59,7.36.59Z"/>
        <path class="cls-5" d="m167.88,107.05c-4.04,0-124.23-1.35-132.08-.67-7.85.67-6.95.67-6.73,5.16.22,4.48,8.3,43.95,41.71,54.27.85.26,1.69.5,2.52.74-2.85,2.52-6.94,7.02-5.69,11.25,1.88,6.34,11.63,7.16,28.3,7.16s31.59,1.17,36.87-2.94c5.28-4.11,1.41-10.8-1.06-14.33-.58-.83-1.1-1.59-1.56-2.27,6.34-2.44,11.73-5.57,15.96-9.05,14.74-12.11,22.76-28.58,25.11-39.91,1.74-8.35.67-9.42-3.36-9.42Z"/>
        <path class="cls-4" d="m70.56,168.58c7.57,3.95,19.49,4.49,28.84,4.71,10.84.26,22.37-1.26,32.54-5.72,1.25-.55.8-2.81-.61-2.68-5.23.48-10.34,2.12-15.54,2.93-5.65.87-9.33,1.09-17.5,1.09-9.22,0-18.01-.68-26.98-2.77-.74-.17-1.28,2.17-.76,2.44Z"/>
      </g>
      <rect class="cls-2" width="200" height="200"/>
    </g>
  </g>
</svg>