<?xml version="1.0" encoding="UTF-8"?>
<svg id="Capa_2" data-name="Capa 2" xmlns="http://www.w3.org/2000/svg" viewBox="0 0 200 200">
  <defs>
    <style>
      .cls-1 {
        fill: #c46127;
      }

      .cls-1, .cls-2, .cls-3, .cls-4, .cls-5, .cls-6 {
        stroke-width: 0px;
      }

      .cls-2 {
        fill: none;
      }

      .cls-3 {
        fill: #abe8f0;
      }

      .cls-4 {
        fill: #59d2e1;
      }

      .cls-5 {
        fill: #fff;
      }

      .cls-6 {
        fill: #593737;
      }
    </style>
  </defs>
  <g id="colorful_icons" data-name="colorful icons">
    <g>
      <g>
        <g>
          <g>
            <g>
              <path class="cls-5" d="m68.02,89.68s-16.7,9.32-16.47,10.84c.23,1.52,2.29,9.1,3.89,10.44,1.6,1.34,3.67,1.52,5.31.08,1.64-1.44,30.33-16.66,30.56-19.08.24-2.43-5.61-10.82-6.97-11.14s-16.34,8.87-16.34,8.87Z"/>
              <g>
                <path class="cls-1" d="m55.29,98.16s-4.24-7.45-7.22-10.34c-2.98-2.89-19.01-16.38-23.51-20.03-4.5-3.65-7.79-6.95-6.26-12.51,1.53-5.57,12.07-11.17,19.16-15.46,7.09-4.29,20.02-12.37,25.53-12.26,5.52.11,7.49,3.25,9,8.57,1.51,5.32,3.34,31.44,3.49,34.43.15,2.99,5.14,12.46,5.14,12.46l-25.34,15.15Z"/>
                <path class="cls-1" d="m60.33,111.33s7.02,8.97,18.32,2.61c11.63-6.55,9.55-19.53,9.55-19.53l-27.87,16.91Z"/>
                <path class="cls-6" d="m85.1,79.57c-.69-.23-1.4-.25-2.1-.14-.7.11-30.1,17.47-30.24,17.58-1.13.92-2.2,2.05-2.55,3.55-.42,1.79.35,3.47,1.09,5.01.88,1.83,1.4,3.95,2.66,5.53.01.01.02.03.03.04.86,1.07,2.16,2.67,3.53,2.38,3.62-.76,9.32-4.62,10.92-5.59,2.16-1.3,21.23-11.76,22.99-14.82,1.88-3.27-1.34-7.21-2.9-9.93-.84-1.48-1.77-3.06-3.42-3.6Zm2.6,7.75c.63,1.15,2.12,3.29,1.89,4.62-.18,1.02-1.68,1.59-2.56,2.13-2.11,1.3-4.25,2.57-6.38,3.83-2.25,1.33-11.29,6.77-13.53,8.14-2.12,1.29-4.24,2.58-6.37,3.84-.89.52-2.13,1.6-3.03,1.23-1.17-.48-2.11-2.96-2.69-4.13-.7-1.4-2.54-4.3-1.44-5.69.63-.79,1.66-1.28,2.48-1.82,8.18-5.37,16.56-10.41,25.09-15.1.86-.47,1.79-1.16,2.74-1.32,1.68-.29,3.04,2.92,3.79,4.28Z"/>
                <path class="cls-6" d="m76.89,106.9c-.25,0-.49.07-.72.2-.17.1-.31.23-.42.4-.13.14-.21.31-.26.51-.06.19-.07.38-.04.57,0,.2.05.39.15.56.07.11.15.21.22.32.17.18.38.31.62.38.12.02.24.03.36.05.25,0,.49-.07.72-.2.17-.1.31-.23.42-.4.13-.14.21-.31.26-.51.06-.19.07-.38.04-.57,0-.2-.05-.39-.15-.56-.07-.11-.15-.21-.22-.32-.17-.18-.38-.31-.62-.38-.12-.02-.24-.03-.36-.05Z"/>
                <path class="cls-6" d="m81.99,102.55c-.3,0-.58.08-.84.24-.2.11-.37.27-.49.47-.15.17-.25.37-.31.59-.07.22-.09.44-.05.67,0,.23.06.45.18.66.09.12.18.25.26.37.2.21.44.36.72.44.14.02.28.04.42.06.3,0,.58-.08.84-.24.2-.11.37-.27.49-.47.15-.17.25-.37.3-.59.07-.22.09-.45.05-.67,0-.23-.06-.45-.18-.66-.09-.12-.18-.25-.26-.37-.2-.21-.44-.36-.72-.44-.14-.02-.28-.04-.42-.06Z"/>
                <path class="cls-6" d="m70.91,109.08c-.25,0-.48.07-.7.2-.17.09-.31.22-.41.39-.12.14-.21.31-.25.5-.06.19-.07.37-.04.56,0,.2.05.38.15.55.07.1.15.21.22.31.17.18.37.3.6.37.12.02.23.03.35.05.25,0,.48-.07.7-.2.17-.09.31-.22.41-.39.12-.14.21-.31.25-.5.06-.19.07-.37.04-.56,0-.2-.05-.38-.15-.55-.07-.1-.15-.21-.22-.31-.17-.18-.37-.3-.6-.37-.12-.02-.23-.03-.35-.05Z"/>
              </g>
            </g>
            <path class="cls-6" d="m57.6,80.08c.45-.21.76-.29.94-.23l1.75-.68,2.98-1.92,2.22-1.67c1.17-.94,1.86-1.81,2.1-2.61.44-.77.64-1.21.61-1.34.13-.71.17-1.19.1-1.46-.08-.55-.58-1.05-1.49-1.48-.2-.3-.53-.49-.99-.58-1-.05-1.64.04-1.94.25-.29.22-.76.86-1.41,1.93-.53-.42-1.36-1.65-2.48-3.69l-.28-.41-.45-.82-.68-1.03-.14-.26c-.23-.28-.4-.56-.52-.84l-.35-.54-.43-.78-1.17-1.71c-.19-.34-.33-.53-.42-.56l.9-.5c.98-.54,1.49-1.17,1.53-1.91l-.09-.68c.08-.27-.18-.59-.76-.98-.91-.84-2.17-.75-3.77.28l-.8-1.35-2.55-3.93c-.43-.51-.81-.83-1.14-.95-.5-.36-.73-.59-.71-.68l-1.02-1.24c-.43-.17-.91-.22-1.42-.14-.52.08-.85.19-.99.35-.62.38-1.01.71-1.18,1.01-.17.3-.22.65-.16,1.04.07.39.36,1.06.88,2.01.12.08.52.61,1.21,1.58,1.86,2.9,3.02,4.77,3.48,5.61l-1.44,1.35-.84.91c-.1.09-.17.17-.21.23-1.15,1.45-1.92,3.04-2.32,4.75l-.28.82-.19,1.9v1.34c-.15.94.06,2.16.61,3.65.26.68.41,1.02.46,1.04.07.26.35.67.84,1.22.49.55.84.85,1.05.88.03.13.41.41,1.13.84.27.15.38.24.32.27.37.2.69.4.94.58.25.18.42.28.51.31l2.73,1.08c.39.16.78.2,1.19.13,1.94.2,3.32.06,4.14-.43Zm-5.21-4.26c-.76-.03-1.23-.05-1.39-.08-.71-.47-1.08-.74-1.11-.79-.24-.02-.58-.45-1.04-1.28-.16-.43-.31-1.01-.45-1.74-.14-.73-.17-1.13-.1-1.21l.52-2.42c.19-.74.52-1.71.99-2.9.11-.62.32-1.08.65-1.37.26-.14.46-.36.59-.66.04-.13.17-.3.4-.5,2.51,4.15,4.31,6.94,5.39,8.37l1.73,2.53c-2.15,1.18-3.72,1.77-4.71,1.75l-1.46.3Z"/>
          </g>
          <path class="cls-6" d="m81.66,118.76c-1.67-.57-3.8,1.59-2.62,3.16.8,1.07,2.49,1.08,3.32.04.81-1.02.66-2.73-.69-3.2Z"/>
          <path class="cls-6" d="m82.52,161.2c-1.67-.57-3.8,1.59-2.62,3.16.8,1.07,2.49,1.08,3.32.04.81-1.02.67-2.73-.69-3.2Z"/>
          <path class="cls-6" d="m90.74,168.48c-1.67-.57-3.8,1.59-2.62,3.16.8,1.07,2.49,1.08,3.32.04.81-1.02.67-2.73-.69-3.2Z"/>
          <path class="cls-6" d="m70.97,133.49c-1.67-.57-3.8,1.59-2.62,3.16.8,1.07,2.49,1.08,3.32.04.81-1.02.67-2.73-.69-3.2Z"/>
          <path class="cls-6" d="m78.97,149.03c-1.67-.57-3.8,1.59-2.62,3.16.8,1.07,2.49,1.08,3.32.04.81-1.02.67-2.73-.69-3.2Z"/>
          <path class="cls-6" d="m86.59,144.2c.8,1.07,2.49,1.08,3.32.04.81-1.02.66-2.73-.69-3.2-1.67-.57-3.8,1.59-2.62,3.16Z"/>
          <path class="cls-6" d="m91.24,163.3c.81-1.02.66-2.73-.69-3.2-1.67-.57-3.8,1.59-2.62,3.16.8,1.07,2.49,1.08,3.32.04Z"/>
          <path class="cls-6" d="m84.18,125.77c.8,1.07,2.49,1.08,3.32.04.81-1.02.67-2.73-.69-3.2-1.67-.57-3.8,1.59-2.62,3.16Z"/>
          <path class="cls-6" d="m73.96,119.46c-1.67-.57-3.8,1.59-2.62,3.16.8,1.07,2.49,1.08,3.32.04.81-1.02.66-2.73-.69-3.2Z"/>
          <path class="cls-6" d="m90.2,152.2c.37-1.72-2.01-3.6-3.44-2.25-.97.92-.79,2.6.34,3.3,1.1.69,2.79.35,3.1-1.05Z"/>
          <path class="cls-6" d="m87.4,134.05c.37-1.72-2.01-3.6-3.44-2.25-.97.92-.79,2.6.34,3.3,1.1.69,2.79.35,3.1-1.05Z"/>
          <path class="cls-6" d="m76.19,129.65c0,.16.04.3.08.44.05.26.14.49.24.64.56.81,1.71,1.1,2.53.53.86-.59,1.17-2,.54-2.86-1.02-1.4-3.5-.47-3.4,1.25Z"/>
          <path class="cls-6" d="m85.39,113.3c0,.16.04.3.08.44.05.26.14.49.24.64.56.81,1.71,1.1,2.53.53.86-.59,1.17-2,.54-2.86-1.02-1.4-3.5-.47-3.4,1.25Z"/>
          <path class="cls-6" d="m79.22,142.67c.13.09.26.16.39.22.23.12.46.21.65.22.97.09,1.94-.61,2.03-1.6.1-1.04-.78-2.18-1.85-2.25-1.73-.11-2.61,2.39-1.22,3.41Z"/>
        </g>
        <g>
          <path class="cls-5" d="m128.01,113.93s-15.96-10.53-17.21-9.62-7.02,6.23-7.47,8.26c-.45,2.04.34,3.96,2.38,4.75,2.04.79,28.75,19.24,31.02,18.34,2.26-.91,7.02-9.96,6.68-11.32-.34-1.36-15.4-10.41-15.4-10.41Z"/>
          <path class="cls-4" d="m114.77,106.34s4.75-7.13,6-11.09,6.11-24.34,7.36-30c1.25-5.66,2.72-10.07,8.38-11.21,5.66-1.13,15.4,5.77,22.41,10.19,7.02,4.41,20.04,12.34,22.41,17.32,2.38,4.98.45,8.15-3.62,11.89-4.08,3.74-26.6,17.09-29.21,18.56-2.6,1.47-8.83,10.19-8.83,10.19l-24.9-15.85Z"/>
          <path class="cls-4" d="m105.26,116.76s-4.87,10.3,5.89,17.55c11.07,7.46,21.73-.23,21.73-.23l-27.62-17.32Z"/>
          <path class="cls-6" d="m144.76,124.65c-.11-.72-.41-1.36-.82-1.94-.41-.58-29.12-19.07-29.27-19.14-1.33-.6-2.82-1.05-4.31-.69-1.79.43-2.94,1.87-3.99,3.22-1.25,1.61-2.9,3.02-3.75,4.85,0,.01-.01.03-.02.04-.57,1.25-1.41,3.13-.54,4.22,2.31,2.9,8.31,6.26,9.89,7.25,2.13,1.35,20.04,13.7,23.56,13.89,3.77.21,5.84-4.43,7.57-7.04.94-1.42,1.93-2.96,1.68-4.68Zm-5.76,5.8c-.74,1.08-1.99,3.37-3.28,3.76-.99.3-2.18-.79-3.05-1.33-2.11-1.31-4.2-2.64-6.29-3.98-2.2-1.41-11.12-7.05-13.34-8.44-2.1-1.31-4.21-2.63-6.29-3.97-.86-.56-2.38-1.18-2.46-2.16-.1-1.26,1.7-3.21,2.49-4.26.94-1.25,2.7-4.2,4.44-3.84.99.21,1.89.91,2.74,1.4,8.47,4.9,16.73,10.13,24.75,15.65.81.56,1.83,1.08,2.41,1.86,1.01,1.37-1.24,4.02-2.13,5.3Z"/>
          <path class="cls-6" d="m116.64,129.57c-.11-.23-.28-.41-.5-.55-.16-.11-.35-.18-.54-.2-.19-.05-.38-.05-.57,0-.2.03-.37.1-.53.22-.18.09-.32.22-.43.39-.06.11-.12.23-.18.34-.09.24-.11.48-.06.72.04.11.08.23.12.34.11.23.28.41.5.55.16.11.35.18.54.2.19.05.38.05.57,0,.2-.03.37-.1.53-.22.18-.09.32-.22.43-.39.06-.11.12-.23.18-.34.09-.24.11-.48.06-.72-.04-.11-.08-.23-.11-.34Z"/>
          <path class="cls-6" d="m122.82,132.18c-.13-.27-.33-.48-.59-.65-.19-.13-.41-.21-.64-.23-.22-.06-.44-.06-.67,0-.23.04-.44.12-.62.26-.21.11-.38.26-.51.46-.07.13-.14.27-.21.4-.1.28-.12.56-.07.85.05.13.09.27.14.4.13.27.33.48.59.65.19.13.41.21.64.23.22.06.44.06.67,0,.23-.04.44-.12.62-.26.21-.11.38-.26.51-.46.07-.13.14-.27.21-.4.1-.28.12-.56.07-.85-.05-.13-.09-.27-.14-.4Z"/>
          <path class="cls-6" d="m112.01,125.2c-.11-.22-.28-.4-.49-.54-.16-.11-.34-.17-.53-.19-.18-.05-.37-.05-.56,0-.19.03-.36.1-.52.22-.17.09-.32.22-.42.38-.06.11-.12.22-.18.33-.08.23-.1.47-.06.71.04.11.08.22.11.33.11.22.28.4.49.54.16.11.34.17.53.19.18.05.37.05.56,0,.19-.03.36-.1.52-.22.17-.09.32-.22.42-.38.06-.11.12-.22.18-.33.08-.23.1-.47.06-.71-.04-.11-.08-.22-.11-.33Z"/>
          <path class="cls-6" d="m157.72,80.46c-.05-.15-.1-.23-.14-.23-.04,0-.11-.04-.22-.11l-.86-1.43-.68-.84c-.7-.95-1.44-1.58-2.24-1.88-1-.64-1.67-.92-2-.86-.45-.33-.81-.53-1.07-.62-1.26-.33-2.55-.44-3.85-.32-.9.06-1.43.13-1.61.21-.81.51-1.22.77-1.24.8-.46.3-.8.47-1.04.52l-.88.8-1.13,1.57c-.59,1.39-.89,2.26-.9,2.6.02,1.62.16,2.8.43,3.56.19.59.44,1.12.75,1.59l.45.99.22,1.14.86,2.36.15.98c.18.7.26,1.24.24,1.62.08.05.12.39.12,1.02-.11,1.57-.55,2.69-1.31,3.34-.75.93-1.91,1.47-3.48,1.62-.25-.04-.46-.11-.61-.21-.15-.1-.25-.59-.3-1.48.13-.58.2-.89.19-.94-.15-.29-.01-.77.42-1.44.33-.69.44-1.17.31-1.45-.25-1.29-.78-2.28-1.6-2.95l-1.02-.7c-1.01-.17-1.56-.2-1.64-.1-1.54,1.3-2.57,2.78-3.08,4.45-.49.9-.49,2.27-.02,4.1.46,1.23.75,1.95.89,2.15.11.3.57.75,1.4,1.36.83.6,1.48,1.01,1.95,1.23.47.22.84.39,1.11.53l.87.14,1.94.17c2.04-.35,3.12-.61,3.23-.77,1.69-.66,2.63-1.21,2.84-1.67.52-.38.89-.61,1.11-.7.31-.31.63-.88.96-1.68l.92-.94.75-1.81c.22-1.27.35-1.93.39-1.98-.13-1.34-.27-2.09-.39-2.25-.06-.2-.16-.48-.31-.84-.22-1.04-.48-1.73-.77-2.07l-.29-1.12-.48-.95c-.95-1.62-1.45-2.56-1.5-2.83-.04-.57-.02-1.07.04-1.5-.11-.58-.15-.92-.12-1.02.28-.61.46-.97.56-1.08.1-.11.28-.34.53-.69.41-.29.66-.44.76-.46l1.05-.28c.29-.01.65-.06,1.08-.14.51.09,1.09.24,1.74.46.44.4.7.66.78.78.11.07.2.17.28.29l.34,1.22.14.91c.12.39.22.77.29,1.12l.13,2.61c.06.31.25.59.56.83.84.53,1.77.65,2.79.35.49-.12.78-.23.85-.34.66-.92,1.03-2.34,1.13-4.28,0-.44-.16-1.02-.45-1.75-.17-.22-.28-.45-.35-.69Z"/>
          <path class="cls-3" d="m102.27,164.61c-1.67-.56-3.8,1.59-2.62,3.16.8,1.07,2.49,1.08,3.32.04.81-1.02.67-2.73-.69-3.2Z"/>
          <path class="cls-3" d="m102.65,151.01c.8,1.07,2.49,1.08,3.32.04.81-1.02.67-2.73-.69-3.2-1.67-.57-3.8,1.59-2.62,3.16Z"/>
          <path class="cls-3" d="m113.26,143.75c-.97.92-.79,2.6.34,3.3,1.1.69,2.79.35,3.09-1.05.37-1.72-2.01-3.6-3.44-2.25Z"/>
          <path class="cls-3" d="m99.8,156.47c.37-1.72-2.01-3.6-3.44-2.25-.97.92-.79,2.6.34,3.3,1.1.69,2.79.35,3.1-1.05Z"/>
          <path class="cls-3" d="m103.71,158.77c-1.02.81-1.27,2.51-.05,3.27,1.49.93,4.06-.68,3.27-2.48-.54-1.22-2.18-1.61-3.22-.79Z"/>
          <path class="cls-3" d="m108.73,141.79c-1.02-1.4-3.5-.47-3.4,1.25,0,.16.04.3.08.44.05.26.14.49.24.64.56.81,1.71,1.1,2.53.53.86-.59,1.17-2,.54-2.86Z"/>
          <path class="cls-3" d="m100.59,136.01c.56.81,1.71,1.1,2.53.53.86-.59,1.17-2,.54-2.86-1.02-1.4-3.5-.47-3.4,1.25,0,.16.04.3.08.44.05.26.14.49.24.64Z"/>
          <path class="cls-3" d="m109.5,153c-1.73-.11-2.61,2.39-1.22,3.41.13.09.26.16.39.22.23.12.46.21.65.22.97.09,1.94-.61,2.03-1.6.1-1.04-.78-2.18-1.85-2.25Z"/>
          <path class="cls-3" d="m97.46,146.28c.13.09.26.16.39.22.23.12.46.21.65.22.97.09,1.94-.61,2.03-1.6.1-1.04-.78-2.18-1.85-2.25-1.73-.11-2.61,2.39-1.22,3.41Z"/>
        </g>
      </g>
      <rect class="cls-2" width="200" height="200"/>
    </g>
  </g>
</svg>