<?xml version="1.0" encoding="UTF-8"?>
<svg id="Capa_2" data-name="Capa 2" xmlns="http://www.w3.org/2000/svg" viewBox="0 0 200 200">
  <defs>
    <style>
      .cls-1 {
        fill: #c46127;
      }

      .cls-1, .cls-2, .cls-3, .cls-4 {
        stroke-width: 0px;
      }

      .cls-2 {
        fill: #f4b7b7;
      }

      .cls-3 {
        fill: none;
      }

      .cls-4 {
        fill: #593737;
      }
    </style>
  </defs>
  <g id="colorful_icons" data-name="colorful icons">
    <g>
      <g>
        <g>
          <path class="cls-2" d="m50.05,71.66s3.45,2.23,4.23,4.23c.78,2,2.23,14.81,10.25,20.94,8.02,6.13,17.15,4.68,26.29,7.46s12.57,6.47,14.26,8.69c2.12,2.78,5.9,11.69,13.59,11.25,7.69-.45,6.35-7.91,2.45-12.59-2.87-3.45-13.25-13.14-16.26-15.7-3.01-2.56-6.91-7.57-4.34-10.69,2.56-3.12,15.15-.78,21.27,6.46,6.13,7.24,6.07,18.1,5.98,21.34-.08,3.24-1.23,5.92.58,8,1.82,2.07,7.9.42,10.92-8.92,3.01-9.34.23-17.63-3-23.31-3.23-5.68-11.14-11.58-13.14-12.81-2-1.23-4.12-2.12-4.12-2.12,0,0,9.63,1.57,22.88,8.81,10.21,5.58,15.38,16.47,22.52,16.27,6.13-.17,5.84-7.14-.07-13.6-5.9-6.46-14.92-13.48-20.83-16.6-5.9-3.12-19.71-6.01-19.71-6.01,0,0,15.62,1.73,27.32,5.07,7.53,2.15,15.79,4.55,17.76,3.47,3.27-1.79,1.66-6.86-5.36-10.32-7.02-3.45-14.54-6.35-20.56-7.24-5.32-.79-16.6-1.89-16.6-1.89,0,0,17.24-2.79,25.28-7.57,8.24-4.9,6.92-8.38,3.56-9.91-2.31-1.05-16.89,4.3-23.39,6.01-5.26,1.38-16.32,4.24-25.14,4.24-8.28,0-14.84-2.91-21.75-2.24-6.91.67-18.38,1.67-18.38,1.67l-16.48,27.62Z"/>
          <path class="cls-1" d="m54.5,68.98c-3.45,6.57-7.02,13.81-8.58,13.7s-15.93-8.35-16.37-9.91c-.45-1.56,9.47-19.05,14.15-26.4,4.68-7.35,10.14-16.82,12.7-16.93,1.89-.08,10.22,4.29,14.48,6.9,3.45,2.12.56,5.12-.78,7.13-4.4,6.59-12.67,19.94-15.59,25.51Z"/>
          <path class="cls-1" d="m130.05,133.1c1-1.26.82-3.37-.86-3.94-2.06-.7-4.69,1.96-3.24,3.9.99,1.32,3.08,1.33,4.09.04Z"/>
          <path class="cls-1" d="m127.92,165.99c-2.06-.7-4.69,1.96-3.24,3.9.99,1.32,3.08,1.33,4.09.04,1-1.26.82-3.37-.86-3.94Z"/>
          <path class="cls-1" d="m132.34,158.51c-2.06-.7-4.69,1.96-3.24,3.9.99,1.32,3.08,1.33,4.09.04,1-1.26.82-3.37-.86-3.94Z"/>
          <path class="cls-1" d="m121.48,149.69c1-1.26.82-3.37-.86-3.94-2.06-.7-4.69,1.96-3.24,3.9.99,1.32,3.08,1.33,4.09.04Z"/>
          <path class="cls-1" d="m129.64,142.35c-1.2,1.14-.97,3.21.42,4.07,1.36.85,3.45.43,3.82-1.3.46-2.12-2.48-4.44-4.24-2.77Z"/>
          <path class="cls-1" d="m119.1,158.4c-1.25,1-1.57,3.1-.06,4.04,1.84,1.15,5.01-.85,4.04-3.06-.67-1.51-2.69-1.99-3.98-.97Z"/>
          <path class="cls-1" d="m124.88,138.28c-1.26-1.73-4.32-.58-4.19,1.54.01.19.05.37.1.54.06.32.17.6.3.79.69.99,2.12,1.35,3.13.66,1.06-.73,1.44-2.46.67-3.53Z"/>
          <path class="cls-1" d="m125.57,154.66c.16.11.32.2.48.27.28.15.57.26.8.28,1.2.11,2.39-.76,2.51-1.98.12-1.28-.97-2.69-2.28-2.77-2.14-.14-3.22,2.95-1.5,4.21Z"/>
        </g>
        <path class="cls-4" d="m48.24,83.05c4.86-6.67,8.82-14.08,13.1-21.13,4.27-7.03,9.18-13.91,12.86-21.27,1.02-2.03-1.7-3.55-3-1.76-4.84,6.65-8.67,14.19-12.89,21.25-4.23,7.07-8.9,14.07-12.46,21.5-.78,1.63,1.35,2.84,2.39,1.4h0Z"/>
      </g>
      <rect class="cls-3" width="200" height="200"/>
    </g>
  </g>
</svg>