<?xml version="1.0" encoding="UTF-8"?>
<svg id="Capa_2" data-name="Capa 2" xmlns="http://www.w3.org/2000/svg" viewBox="0 0 200 200">
  <defs>
    <style>
      .cls-1 {
        fill: #00b9d1;
      }

      .cls-1, .cls-2, .cls-3, .cls-4, .cls-5, .cls-6, .cls-7 {
        stroke-width: 0px;
      }

      .cls-2 {
        fill: none;
      }

      .cls-3 {
        fill: #fff;
      }

      .cls-4 {
        fill: #593737;
      }

      .cls-5 {
        fill: #6bb262;
      }

      .cls-6 {
        fill: #f3b200;
      }

      .cls-7 {
        fill: #bdafaf;
      }
    </style>
  </defs>
  <g id="colorful_icons" data-name="colorful icons">
    <g>
      <g>
        <path class="cls-5" d="m182.64,93.23c-.07-1.28-.19-2.6-.78-3.74-.59-1.14-1.78-2.06-3.06-1.96-1.38.11-2.41,1.31-3.14,2.49-1.72,2.81-2.7,6.07-2.81,9.36-.18-3.27-.39-6.65-1.87-9.57-1.48-2.92-4.6-5.27-7.84-4.81-3.65.52-5.96,4.19-7.11,7.69-2.01,6.12-2.03,12.88-.03,19-.91-1.56-1.86-3.17-3.34-4.21-2.19-1.54-5.64-1.13-6.37,1.77-.35,1.38-.04,2.84.34,4.21.57,2.04,1.32,4.02,2.2,5.94-.82-1.37-1.72-2.7-2.74-3.93-2.16-2.59-4.95-4.76-8.2-5.64s-7-.29-9.49,1.98c-1.69,1.55-2.71,3.81-2.74,6.11-.02,1.39.33,2.78.97,4.01-1.4-1.74-2.99-3.32-4.75-4.69-2.93-2.29-6.46-4.04-10.17-4.03-3.72.01-7.57,2.13-8.8,5.64-1.25,3.57.44,7.6,3.06,10.32,2.94,3.04,7.06,4.88,11.27,5.12-2.34.05-4.68.29-6.92.98-2.93.9-5.69,2.65-7.3,5.26-1.48,2.4-1.87,5.44-1.05,8.13,1.55,5.08,6.18,7.47,11.12,5.69,6.44-2.33,12.65-5.27,18.76-8.38,16.9-8.59,33.31-18.63,46.61-32.14,1.07-1.09,2.14-2.22,2.77-3.61.5-1.11.7-2.32.87-3.53.61-4.47.79-8.99.54-13.49Z"/>
        <g>
          <path class="cls-6" d="m184.13,151.67c-.66-.29-1.25-.55-1.77-.78,2.91-3.8,4.98-7.66,6.24-11.3,4.38-12.69,3.12-25.52.36-33.19-2.03-5.65-3.07-5.9-5.49-4.41-2.42,1.49-74.99,44.95-79.45,48.24-4.46,3.29-3.92,2.96-2.13,5.57,1.79,2.61,21.16,23.3,45,17.18.6-.16,1.2-.32,1.79-.49-.78,2.56-1.58,6.76.73,8.84,3.46,3.11,9.61.01,19.61-6.13,10-6.14,19.37-10.93,21.03-15.34,1.66-4.41-3.13-7-5.91-8.2Z"/>
          <path class="cls-4" d="m147.77,174.73c5.99-.42,13.34-4.49,19.03-7.8,6.59-3.84,12.95-9,17.41-15.42.55-.79-.56-1.98-1.35-1.38-2.96,2.22-5.42,5.08-8.24,7.48-3.07,2.61-5.19,4.09-10.09,7.1-5.53,3.39-11.05,6.23-17.2,8.27-.51.17.03,1.77.44,1.74Z"/>
        </g>
        <g>
          <path class="cls-7" d="m62.03,139.28s-2.67-40.83.33-70.33,19.62-41.66,36-41.17c16.67.5,20.55,10.9,22.5,15.67,1.5,3.67,2.17,11.83,2.17,11.83,0,0,10.27-.35,10.5-1,.13-.35.33-22-17.83-32.83-10.85-6.47-24.6-5.95-35.9-.89-26.43,11.84-29.8,45.66-30.6,70.89-.83,26.17,1.33,47.83,1.33,47.83h11.5Z"/>
          <g>
            <path class="cls-4" d="m144.12,60.23c0,.46-.01.92-.04,1.36-.11,2.08-.4,3.92-.68,4.92-.01.04-.02.07-.03.11-.1.34-.24.65-.4.94-1.23,2.23-4.16,2.86-9.77,3.22-6.33.42-16.08.17-17.42-1.66-.2-.28-.42-.77-.62-1.42h0c-.13-.39-.25-.83-.37-1.31-.33-1.37-.61-3.07-.73-4.84-.04-.43-.06-.86-.07-1.29-.05-1.8.08-3.59.5-5.08.07-.28.16-.56.27-.81.27-.73.64-1.36,1.11-1.84,3.46-3.55,19.91-3.16,24.66-1.91,1.49.39,2.41,1.81,2.95,3.67.09.31.17.63.24.96.32,1.55.43,3.31.4,4.98Z"/>
            <g>
              <path class="cls-3" d="m143.72,55.25c-9.63.68-19.6.24-29.23-.07.07-.28.16-.56.27-.81,9.47-.29,19.25-.73,28.72-.08.09.31.17.63.24.96Z"/>
              <path class="cls-3" d="m144.12,60.23c0,.46-.01.92-.04,1.36-6.2.39-12.52.06-18.71.03-3.77-.02-7.54,0-11.31-.07-.04-.43-.06-.86-.07-1.29,3.79-.06,7.59-.05,11.38-.07,6.2-.03,12.53-.35,18.75.04Z"/>
              <path class="cls-3" d="m143.4,66.51s-.02.07-.03.11c-.1.34-.24.65-.4.94-3.61.02-7.21,0-10.81,0-5.6.02-11.36.4-17,.14h0c-.13-.39-.25-.83-.37-1.31,5.75-.3,11.65.1,17.37.12,3.74,0,7.49-.03,11.24,0Z"/>
            </g>
          </g>
          <path class="cls-4" d="m38.85,136.68c.32-.08,16.57-.56,22.6-.8,6.03-.24,10.86-.32,10.78,1.13-.08,1.45-7,19.78-7,20.75s10.78,20.43,9.73,22.6c-1.05,2.17-33.05,1.69-35.55,1.29-2.49-.4-1.53-5.15-.8-6.84.72-1.69,9.17-16.08,9.33-16.81.16-.72-9.25-16.57-9.65-18.18-.4-1.61.56-3.14.56-3.14Z"/>
          <path class="cls-7" d="m25.34,134.35c-2.25,1.45-13.35,10.29-14.48,12.71-1.13,2.41-1.45,15.76-.88,17.93.56,2.17,8.77,11.9,12.63,12.79,3.86.88,16,1.53,19.06-.08,3.06-1.61,10.05-9.65,10.94-12.22.88-2.57,1.13-16.17.32-18.18-.8-2.01-11.34-11.9-13.83-13.19-2.49-1.29-11.5-1.21-13.75.24Z"/>
          <path class="cls-1" d="m138,74.49c4.11,6.62,4.19,7.27,7.29,14.4,2.5,5.76,5.83,11.83,5.75,15.5-.01.56-.69.86-1.2.5-1.63-1.16-4.7-9.01-7.09-14.93-2.93-7.28-3.3-7.58-6.1-14.9-.31-.8.92-1.25,1.35-.57h0Z"/>
          <path class="cls-1" d="m122.74,75.06c-1.62,4.48-3.7,8.82-5.55,13.21-1.58,3.76-7.74,17.88-10.24,21.96-.32.52-1.35.09-1.2-.5,1.03-4,7-18.43,8.61-21.89,2.1-4.52,4.32-9.17,7.03-13.35.43-.67,1.65-.26,1.35.57h0Z"/>
          <path class="cls-1" d="m128.84,75.31c-1.01,5.38-.43,11.35-.44,16.81-.01,5.54-.53,11.33.49,16.8.09.47.86.47.95,0,1.02-5.47.51-11.25.49-16.8-.01-5.46.57-11.43-.44-16.81-.1-.52-.95-.52-1.05,0h0Z"/>
          <path class="cls-4" d="m33.44,145.8c-1.44-.19-3.19-.23-4.71.21-2.16.45-4.18,1.66-5.61,3.5-3.07,3.96-3.54,10.69.47,14.24,1.92,1.7,5.38,3.13,7.92,3.43,2.99.36,5.35-1.04,7.33-3.16,3.67-3.91,4.8-9.49,1.51-14.05-1.62-2.24-4.16-3.81-6.91-4.18Zm5.17,13.69c-1.14,2.14-3.5,4.85-6.05,5.06-2.59.21-6.11-.67-7.87-2.65-1.89-2.13-2.17-5.4-1.41-8.05.76-2.66,2.67-4.73,5.01-5.75.76-.23,1.52-.49,2.32-.56,1.29-.13,2.51.11,3.71.6,2.19.89,3.95,2.65,4.7,4.9.69,2.06.61,4.52-.41,6.45Z"/>
        </g>
      </g>
      <rect class="cls-2" width="200" height="200"/>
    </g>
  </g>
</svg>