<?xml version="1.0" encoding="UTF-8"?>
<svg id="Capa_2" data-name="Capa 2" xmlns="http://www.w3.org/2000/svg" viewBox="0 0 200 200">
  <defs>
    <style>
      .cls-1 {
        fill: #80dce8;
      }

      .cls-1, .cls-2, .cls-3, .cls-4 {
        stroke-width: 0px;
      }

      .cls-2 {
        fill: none;
      }

      .cls-3 {
        fill: #593737;
      }

      .cls-4 {
        fill: #bdafaf;
      }
    </style>
  </defs>
  <g id="colorful_icons" data-name="colorful icons">
    <g>
      <g>
        <path class="cls-1" d="m53.42,136.46c.54,5.27,4.1,6.06,6.67,4.19,2.87-2.09,2.02-6.36.85-9.85s-3.26-9.69-4.03-9.62c-.85.08-3.96,10.73-3.49,15.28Z"/>
        <path class="cls-3" d="m39.97,69.01s-16.86-.93-26.16,1.34c-8.97,2.19-12.82,7.24-8.79,12.41,4.39,5.63,20.17,6.41,25.13,6.41s10.55-.1,10.55-.1l-.72-7.55s-17.99.21-24.3-1.03c-6.31-1.24-5.11-4.02-.41-5.07,5.58-1.24,25.54-.93,25.54-.93l-.83-5.48Z"/>
        <path class="cls-3" d="m156.37,69.01s16.86-.93,26.16,1.34c8.97,2.19,12.82,7.24,8.79,12.41-4.39,5.63-20.17,6.41-25.13,6.41s-10.55-.1-10.55-.1l.72-7.55s17.99.21,24.3-1.03c6.31-1.24,5.11-4.02.41-5.07-5.58-1.24-25.54-.93-25.54-.93l.83-5.48Z"/>
        <path class="cls-4" d="m157.09,68.19c-10.84-.13-21.68-.26-32.51-.39-16.58-.2-33.12-.24-49.7-.04-11.58.14-23.16.28-34.74.42-.3,0-.59,0-.89.01,0,0-2.38,12,1.34,26.89,3.37,13.5,15.19,28.48,32.67,35.52-1.46,1.79-3.75,4.86-5.68,8.53-2.53,4.81-3.41,6.62-2.28,7.55,1.14.93,11.38,4.34,21.41,4.96,6.17.38,9.67.41,11.46.38,1.79.03,5.29,0,11.46-.38,10.03-.62,20.27-4.03,21.41-4.96,1.14-.93.26-2.74-2.28-7.55-1.93-3.67-4.23-6.74-5.68-8.53,17.48-7.04,29.3-22.02,32.67-35.52,3.72-14.89,1.34-26.89,1.34-26.89Z"/>
        <path class="cls-4" d="m154.82,63.43c-3.66,0-43.45.16-52.61.2-10.68-.04-57.02-.2-60.68-.2-4.14,0-8.69-.21-9,3.52-.31,3.72,6.51,2.9,10.55,2.9,3.38,0,44.09.07,57.24.1h0s.68,0,1.88,0c1.4,0,2.2,0,2.2,0h0c11.83-.03,45.55-.1,48.87-.1,4.03,0,10.86.83,10.55-2.9-.31-3.72-4.86-3.52-9-3.52Z"/>
        <path class="cls-3" d="m161.11,72.7c.48-.39.96-.79,1.41-1.21.66-.6,3.1-1.35,3.67-2.04-5.35-.31-12.72.03-17.81.01-7.4-.02-14.8-.02-22.19-.02-7.13,0-14.26,0-21.39,0-12.52,0-25.04,0-37.55,0-6.15,0-12.29,0-18.44.02-5.72.02-17.87-.4-23.84.69-1,.18,5.11,1.54,6.1,1.77,5.6,1.33,11.67.68,17.39.65,26.72-.15,53.44-.05,80.16-.06,6.32,0,12.65,0,18.97-.02,4.27-.01,9.03.44,13.54.21Z"/>
        <path class="cls-3" d="m124.49,130.08c-.39-.01-.76.11-1.14.26-8.21,3.05-15.88,4.68-24.64,4.65-4.14-.01-7.99-.23-13.54-1.19-4.54-.78-8.86-2.59-13.31-3.72-.74-.19-1.52.88-.81,1.39,7.73,5.47,18.43,7.41,27.04,7.48,1.7.02,3.4-.02,5.09-.13,1.72-.11,3.43-.29,5.13-.55,1.7-.26,3.38-.6,5.04-1.05,1.65-.44,3.27-.98,4.85-1.64,1.57-.66,3.09-1.43,4.54-2.32.46-.28.91-.58,1.35-.89.42-.29.98-.6,1.28-1.03.48-.68-.23-1.24-.89-1.27Z"/>
        <path class="cls-3" d="m77.22,105.64c-1.17.03-1.63,1.09-1.49,2.08-.07,1.05.56,2.2,1.36,2.78,1.37.99,2.65-.23,2.49-1.71-.12-1.16-.95-3.19-2.36-3.15Z"/>
        <path class="cls-3" d="m59.85,106.53c-1.15.22-1.43,1.34-1.13,2.29.1,1.05.92,2.08,1.8,2.52,1.51.76,2.57-.66,2.18-2.09-.31-1.12-1.45-2.99-2.84-2.72Z"/>
        <path class="cls-3" d="m135.01,106.53c-1.39-.26-2.54,1.6-2.84,2.72-.39,1.43.66,2.85,2.18,2.09.88-.44,1.7-1.48,1.8-2.52.3-.95.02-2.08-1.13-2.29Z"/>
        <path class="cls-3" d="m71.02,118.16c-.77.78-.67,1.98-.03,2.73.51,1.03,1.58,1.76,2.75,1.72,1.8-.05,1.56-2.32.87-3.39-.7-1.08-2.46-2.22-3.6-1.06Z"/>
        <path class="cls-3" d="m117.53,105.48c1.17.03,1.63,1.09,1.49,2.08.07,1.05-.56,2.2-1.36,2.78-1.37.99-2.65-.23-2.49-1.71.12-1.16.95-3.19,2.36-3.15Z"/>
        <path class="cls-3" d="m124.8,117.89c.85.69.89,1.89.34,2.71-.39,1.08-1.37,1.93-2.54,2.03-1.8.16-1.82-2.12-1.25-3.27.57-1.15,2.19-2.49,3.45-1.47Z"/>
        <path class="cls-3" d="m107.19,119.88c-1.35.5-2.09,2.51-1.94,3.86.16,1.49,1.73,2.04,2.84,1.09.93-.8,1.63-3.39.96-4.55-.3-.52-.89-.75-1.85-.4Z"/>
        <path class="cls-3" d="m96.99,106.41c-.86-.45-1.74-.04-2.12.81-.49,1.09-.53,2.76.25,3.74.91,1.14,2.39.42,2.8-.76.43-1.24.39-3.1-.92-3.79Z"/>
        <path class="cls-3" d="m50.37,95.33c-1.15.22-1.43,1.34-1.13,2.29.1,1.05.92,2.08,1.8,2.52,1.51.76,2.57-.66,2.18-2.09-.31-1.12-1.45-2.99-2.84-2.72Z"/>
        <path class="cls-3" d="m147.22,95.25c1.15.22,1.43,1.34,1.13,2.29-.1,1.05-.92,2.08-1.8,2.52-1.51.76-2.57-.66-2.18-2.09.31-1.12,1.45-2.99,2.84-2.72Z"/>
        <path class="cls-3" d="m129.83,94.44c-1.41-.03-2.24,2-2.36,3.15-.15,1.48,1.12,2.7,2.49,1.71,1.3-.94,2.43-4.8-.13-4.86Z"/>
        <path class="cls-3" d="m87.11,93.91c-.54-.27-1.24-.24-1.7.18-.49.45-.54,1.15-.64,1.77-.01.07,0,.13.01.19-.09.91.13,1.91.63,2.49,1,1.14,2.48.26,2.79-.99.31-1.25.2-2.99-1.1-3.63Z"/>
        <path class="cls-3" d="m68.69,94.49c-.56-.21-1.26-.11-1.67.36-.44.5-.41,1.2-.45,1.82,0,.07,0,.13.03.19.01.91.33,1.88.9,2.4,1.11,1.02,2.49,0,2.67-1.29.17-1.28-.13-2.99-1.48-3.49Z"/>
        <path class="cls-3" d="m88.83,119.71c-.62-.23-1.38-.11-1.82.4-.48.55-.45,1.32-.49,1.99,0,.08.01.14.03.2.01.99.37,2.06.98,2.63,1.22,1.12,2.73,0,2.92-1.41.19-1.39-.14-3.27-1.62-3.81Z"/>
        <path class="cls-3" d="m109.73,93.96c-.53-.3-1.22-.31-1.7.09-.5.42-.61,1.09-.77,1.69-.02.06-.01.12,0,.18-.17.89-.06,1.89.41,2.53.88,1.21,2.42.46,2.85-.73.44-1.22.5-3.04-.79-3.77Z"/>
        <path class="cls-1" d="m142.92,112.58c.31,5.2,3.63,6.06,6.2,4.19,2.87-2.09,2.17-6.2,1.01-9.69-1.16-3.49-3.26-9.69-4.03-9.62-.85.08-3.45,10.56-3.18,15.12Z"/>
        <path class="cls-1" d="m134.62,139.95c.54,5.27,4.1,6.06,6.67,4.19,2.87-2.09,2.02-6.36.85-9.85s-3.26-9.69-4.03-9.62c-.85.08-3.96,10.73-3.49,15.28Z"/>
        <path class="cls-1" d="m113.45,123.2c.54,5.27,4.1,6.06,6.67,4.19,2.87-2.09,2.02-6.36.85-9.85s-3.26-9.69-4.03-9.62c-.85.08-3.96,10.73-3.49,15.28Z"/>
        <path class="cls-1" d="m84.9,136.31c.54,5.27,4.1,6.06,6.67,4.19,2.87-2.09,2.02-6.36.85-9.85s-3.26-9.69-4.03-9.62c-.85.08-3.96,10.73-3.49,15.28Z"/>
        <path class="cls-1" d="m64.74,112.58c.54,5.27,4.1,6.06,6.67,4.19,2.87-2.09,2.02-6.36.85-9.85s-3.26-9.69-4.03-9.62c-.85.08-3.96,10.73-3.49,15.28Z"/>
        <path class="cls-1" d="m98.79,157.48c.54,5.27,4.1,6.06,6.67,4.19,2.87-2.09,2.02-6.36.85-9.85-1.16-3.49-3.26-9.69-4.03-9.62-.85.08-3.96,10.73-3.49,15.28Z"/>
        <path class="cls-1" d="m81.03,167.87c.54,5.27,4.1,6.06,6.67,4.19,2.87-2.09,2.02-6.36.85-9.85-1.16-3.49-3.26-9.69-4.03-9.62-.85.08-3.96,10.73-3.49,15.28Z"/>
        <path class="cls-1" d="m114.76,170.67c.54,5.27,4.1,6.06,6.67,4.19,2.87-2.09,2.02-6.36.85-9.85s-3.26-9.69-4.03-9.62c-.85.08-3.96,10.73-3.49,15.28Z"/>
      </g>
      <rect class="cls-2" width="200" height="200"/>
    </g>
  </g>
</svg>