<?xml version="1.0" encoding="UTF-8"?>
<svg id="Capa_2" data-name="Capa 2" xmlns="http://www.w3.org/2000/svg" viewBox="0 0 200 200">
  <defs>
    <style>
      .cls-1 {
        fill: none;
      }

      .cls-1, .cls-2, .cls-3, .cls-4 {
        stroke-width: 0px;
      }

      .cls-2 {
        fill: #cd7948;
      }

      .cls-3 {
        fill: #593737;
      }

      .cls-4 {
        fill: #f3b200;
      }
    </style>
  </defs>
  <g id="colorful_icons" data-name="colorful icons">
    <g>
      <g>
        <path class="cls-2" d="m162.34,74.79c-.72,1.36-48.8,50.88-49.07,50.88s-3.34-4.16-3.7-4.34c-.37-.18-7.69,1.63-8.32,1.53-.63-.09-3.34-4.07-3.61-4.34s-3.52,3.25-3.98,3.52-3.88-4.34-4.15-4.78c-.27-.46-4.16,3.34-4.44,3.43-.18.07-2.7-.81-4.24-1.37-.69-.25-1.18-.43-1.18-.43,0,0-.1.72-.23,1.62-.22,1.34-.51,3.08-.67,3.35-.27.46-3.98,1.27-4.25,1.27s-.17,5.42-.54,5.42-3.25.27-3.88.36-4.25,8.86-4.25,8.86c0-.1-26.47-29.11-26.57-30.91-.09-1.72,3.28-22.31,3.98-25.04.03-.14.07-.23.09-.27.03-.05.33-.37.86-.91,7.56-7.74,62.86-61.54,64.13-61.62,1.36-.1,54.77,52.41,54.04,53.77Z"/>
        <path class="cls-4" d="m75.4,78.73s32-33.12,32.4-33.04c.4.08,28.86,28.78,28.78,29.02-.08.24-32.56,33.61-32.96,33.61s-28.38-29.26-28.22-29.59Z"/>
        <g>
          <path class="cls-3" d="m80.83,119.33c-.69-.25-1.18-.43-1.18-.43,0,0-.1.72-.23,1.62-3.29-3.42-11.92-12.37-14.8-15.51-5.47-5.93-15.24-14.94-21.39-21.18.03-.14.07-.23.09-.27.03-.05.33-.37.86-.91,7.72,7.19,29.39,29.24,36.66,36.69Z"/>
          <path class="cls-3" d="m103.57,134.32c-.34-1.73-1.41-3.59-3.18-4.23-1.78-.64-3.95.31-4.91,1.88-1.55,2.53-.63,6.8,2.43,7.73,3.48,1.07,6.33-1.96,5.66-5.38Z"/>
          <path class="cls-3" d="m87.15,134.68c-2.08-3.96-8.43-.89-7.83,3.16.41,2.75,3.07,4.79,5.85,3.89,2.83-.91,3.19-4.76,1.98-7.05Z"/>
          <path class="cls-3" d="m90.73,149.91c-.21.04-.41.08-.6.15-1.95.63-2.93,2.54-2.8,4.62.18,2.86,2.83,4.9,5.62,3.76,2.33-.95,3.37-3.89,2.33-6.14-.8-1.72-2.64-2.72-4.55-2.4Z"/>
          <path class="cls-3" d="m102.29,159.39c-1.21,1.26-1.79,3.09-.84,4.75,1.26,2.2,4.34,2.74,6.29,1.1,1.86-1.56,2.07-4.47.41-6.25-1.74-1.86-4.31-1.2-5.85.4Z"/>
          <path class="cls-3" d="m90.79,169.82c-.56-.21-1.18-.33-1.83-.36-2.9-.13-4.04,2.42-3.92,4.98.14,3.04,4.58,5.2,7.06,3.26,1.41-1.11,1.83-3.08,1.44-4.77-.36-1.57-1.38-2.61-2.73-3.11Z"/>
        </g>
      </g>
      <rect class="cls-1" width="200" height="200"/>
    </g>
  </g>
</svg>