<?xml version="1.0" encoding="UTF-8"?>
<svg id="Capa_2" data-name="Capa 2" xmlns="http://www.w3.org/2000/svg" viewBox="0 0 200 200">
  <defs>
    <style>
      .cls-1 {
        fill: #c46127;
      }

      .cls-1, .cls-2, .cls-3, .cls-4, .cls-5, .cls-6 {
        stroke-width: 0px;
      }

      .cls-2 {
        fill: #ac9b9b;
      }

      .cls-3 {
        fill: none;
      }

      .cls-4 {
        fill: #fff;
      }

      .cls-5 {
        fill: #593737;
      }

      .cls-6 {
        fill: #f3b200;
      }
    </style>
  </defs>
  <g id="colorful_icons" data-name="colorful icons">
    <g>
      <g>
        <g>
          <path class="cls-1" d="m66.19,169.22s4.22-24.09,26.2-27.42,30.75,14.1,32.31,18.32c1.55,4.22,1.89,9.44,1.89,9.44l-60.39-.33Z"/>
          <path class="cls-2" d="m120.48,70.75s6.22-1,8.66-3.22c2.44-2.22,23.2-39.52,27.2-46.96,4-7.44,11.77-14.99,17.87-12.32,6.11,2.66,6.44,10.88-1.78,21.31-8.22,10.44-20.09,20.87-26.75,28.75-6.66,7.88-10.66,12.1-11.1,15.43-.44,3.33,4.11,12.99-.44,22.76-3.71,7.97-15.21,18.98-23.87,21.09-8.66,2.11-15.43-1.55-16.32-7.66-.89-6.11.22-17.87,6.44-27.53,6.22-9.66,20.09-11.66,20.09-11.66Z"/>
          <path class="cls-5" d="m126.56,90.9c2.5-5.58,2.41-9.82-.42-13.4-2.83-3.58-12.57-10.07-19.32-10.24s-11.91,5.25-13.07,17.4c-1.17,12.16-.75,21.23,2.75,24.15,3.5,2.91,7.37,2.34,12.99-.33,7.16-3.41,14.57-11.99,17.07-17.57Z"/>
          <g>
            <g>
              <path class="cls-5" d="m89.27,150.85c.77-.97.63-2.61-.66-3.05-1.59-.54-3.63,1.52-2.5,3.01.77,1.02,2.38,1.03,3.16.03Z"/>
              <path class="cls-5" d="m94.27,160.18c.77,1.02,2.38,1.03,3.16.03.77-.97.63-2.61-.66-3.05-1.59-.54-3.63,1.52-2.5,3.01Z"/>
              <path class="cls-5" d="m79.44,159.24c.77-.97.63-2.61-.66-3.05-1.59-.54-3.63,1.52-2.5,3.01.77,1.02,2.38,1.03,3.16.03Z"/>
              <path class="cls-5" d="m111.2,159.16c.77,1.02,2.38,1.03,3.17.03.77-.97.63-2.61-.66-3.05-1.59-.54-3.63,1.52-2.5,3.01Z"/>
              <path class="cls-5" d="m110.53,154.59c.77-.97.63-2.61-.66-3.05-1.59-.54-3.63,1.52-2.5,3.01.77,1.02,2.38,1.03,3.17.03Z"/>
              <path class="cls-5" d="m96.77,149.49c.77-.97.63-2.61-.66-3.05-1.59-.54-3.63,1.52-2.5,3.01.77,1.02,2.38,1.03,3.17.03Z"/>
              <path class="cls-5" d="m89.06,159.72c.77-.97.63-2.61-.66-3.05-1.59-.54-3.63,1.52-2.5,3.01.77,1.02,2.38,1.03,3.17.03Z"/>
              <path class="cls-5" d="m103.59,157.11c-.93.88-.75,2.48.33,3.15,1.05.65,2.66.33,2.95-1.01.35-1.64-1.92-3.43-3.28-2.14Z"/>
              <path class="cls-5" d="m97.34,139.26c1.05.65,2.66.33,2.95-1.01.35-1.64-1.92-3.43-3.28-2.14-.93.88-.75,2.48.33,3.15Z"/>
              <path class="cls-5" d="m102.63,149.94c1.05.65,2.66.33,2.95-1.01.35-1.64-1.92-3.43-3.28-2.14-.93.88-.75,2.48.33,3.15Z"/>
              <path class="cls-5" d="m99.43,155.38c1.43.89,3.88-.65,3.12-2.37-.51-1.17-2.08-1.54-3.07-.75-.97.77-1.21,2.4-.05,3.12Z"/>
              <path class="cls-5" d="m112.81,128.65c-.98-1.34-3.34-.45-3.24,1.19,0,.15.04.29.08.42.05.24.13.47.23.61.53.77,1.63,1.05,2.42.51.82-.56,1.12-1.9.51-2.73Z"/>
              <path class="cls-5" d="m114.23,122.67c.82-.56,1.12-1.9.51-2.73-.98-1.34-3.34-.45-3.24,1.19,0,.15.04.29.08.42.05.25.13.47.23.61.53.77,1.63,1.05,2.42.51Z"/>
              <path class="cls-5" d="m116.02,135.81c0,.15.04.29.08.42.05.24.13.47.23.61.53.77,1.63,1.05,2.42.51.82-.56,1.12-1.9.51-2.73-.98-1.34-3.34-.45-3.24,1.19Z"/>
              <path class="cls-5" d="m80.7,136.03c.53.77,1.63,1.05,2.42.51.82-.56,1.12-1.9.51-2.73-.98-1.34-3.34-.45-3.24,1.19,0,.15.04.29.08.42.05.24.13.47.23.61Z"/>
              <path class="cls-5" d="m80.79,154.2c.12.09.25.16.37.21.22.12.44.2.62.21.93.08,1.85-.59,1.94-1.53.09-.99-.75-2.08-1.77-2.14-1.65-.11-2.49,2.28-1.16,3.25Z"/>
              <path class="cls-5" d="m91.75,155.82c.12.09.25.16.37.21.22.12.44.2.62.21.93.08,1.85-.59,1.94-1.53.09-.99-.75-2.08-1.77-2.14-1.65-.11-2.49,2.28-1.16,3.25Z"/>
              <path class="cls-5" d="m88.69,126.1c.12.09.25.16.37.21.22.12.44.2.62.21.93.08,1.85-.59,1.94-1.53.09-.99-.75-2.08-1.77-2.14-1.65-.11-2.49,2.28-1.16,3.25Z"/>
              <path class="cls-5" d="m103.51,134.7c.12.09.25.16.37.21.22.12.44.2.62.21.93.08,1.85-.59,1.94-1.53.09-.99-.75-2.08-1.77-2.14-1.65-.11-2.49,2.28-1.16,3.25Z"/>
              <path class="cls-5" d="m105.53,124.04c.09-.99-.75-2.08-1.77-2.14-1.65-.11-2.49,2.28-1.16,3.25.12.09.25.16.37.21.22.12.44.2.62.21.93.08,1.85-.59,1.94-1.53Z"/>
              <path class="cls-5" d="m110.86,138.3c-1.65-.11-2.49,2.28-1.16,3.25.12.09.25.16.37.21.22.12.44.2.62.21.93.08,1.85-.59,1.94-1.53.09-.99-.75-2.08-1.77-2.14Z"/>
              <path class="cls-5" d="m94.32,132.12c.12.09.25.16.37.21.22.12.44.2.62.21.93.08,1.85-.59,1.94-1.53.09-.99-.75-2.08-1.77-2.14-1.65-.11-2.49,2.28-1.16,3.25Z"/>
              <path class="cls-5" d="m95.75,122.91c.22.12.44.2.62.21.93.08,1.85-.59,1.94-1.53.09-.99-.75-2.08-1.77-2.14-1.65-.11-2.49,2.28-1.16,3.25.12.09.25.16.37.21Z"/>
              <path class="cls-5" d="m90.16,134.83c-1.65-.11-2.49,2.28-1.16,3.25.12.09.25.16.37.21.22.12.44.2.62.21.93.08,1.85-.59,1.94-1.53.09-.99-.75-2.08-1.77-2.14Z"/>
            </g>
            <path class="cls-4" d="m117.78,86.18c.21,0,.4-.04.58-.13.19-.06.35-.16.48-.31.15-.14.25-.3.31-.48.09-.18.14-.37.13-.58-.02-.39-.14-.79-.44-1.06-.29-.27-.65-.44-1.06-.44-.21,0-.4.04-.58.13-.19.06-.35.16-.48.31-.15.14-.25.3-.31.48-.09.18-.14.37-.13.58.02.39.14.79.44,1.06.29.27.65.44,1.06.44h0Z"/>
            <path class="cls-4" d="m112.04,77.96c2.31,0,2.31-3.59,0-3.59s-2.31,3.59,0,3.59h0Z"/>
            <path class="cls-4" d="m104.54,84.13l.17-.03c.07-.03.14-.06.21-.09.1-.05.18-.13.24-.22.05-.05.09-.12.11-.19.05-.1.08-.21.07-.33-.01-.08-.02-.15-.03-.23-.03-.07-.06-.14-.09-.21-.05-.1-.13-.18-.22-.24-.08-.08-.18-.13-.3-.16l-.17-.03c-.16-.04-.32-.04-.48,0-.15.04-.28.12-.4.23-.05.06-.09.12-.14.18-.08.14-.12.29-.12.45,0,.12.02.24.08.35.04.11.1.21.19.29.11.11.24.19.4.23.16.04.32.04.48,0h0Z"/>
            <path class="cls-4" d="m110.53,90.4c.24,0,.47-.04.68-.15.22-.07.41-.19.57-.36.17-.16.29-.35.36-.57.11-.21.16-.44.15-.68-.02-.16-.04-.31-.06-.47-.08-.3-.24-.56-.45-.78-.12-.09-.24-.18-.36-.28-.28-.16-.57-.24-.89-.24-.24,0-.47.04-.68.15-.22.07-.41.19-.57.36-.17.16-.29.35-.36.57-.11.21-.16.44-.15.68.02.16.04.31.06.47.08.3.24.56.45.78.12.09.24.18.36.28.28.16.57.24.89.24h0Z"/>
            <path class="cls-4" d="m103.23,74.99c.19,0,.37-.03.54-.12.17-.06.32-.15.45-.29.14-.13.23-.28.29-.45.09-.17.13-.35.12-.54-.02-.12-.03-.25-.05-.37-.07-.24-.19-.44-.36-.62-.09-.07-.19-.15-.28-.22-.22-.13-.45-.19-.71-.19-.19,0-.37.03-.54.12-.17.06-.32.15-.45.29-.14.13-.23.28-.29.45-.09.17-.13.35-.12.54l.05.37c.07.24.19.44.36.62.09.07.19.15.28.22.22.13.45.19.71.19h0Z"/>
            <path class="cls-4" d="m101.51,92.82c.16,0,.31-.03.45-.1.15-.05.27-.13.38-.24.11-.11.2-.23.24-.38.07-.14.11-.29.1-.45-.01-.1-.03-.21-.04-.31-.06-.2-.16-.37-.3-.52-.08-.06-.16-.12-.24-.18-.18-.11-.38-.16-.59-.16-.16,0-.31.03-.45.1-.15.05-.27.13-.38.24-.11.11-.2.23-.24.38-.07.14-.11.29-.1.45.01.1.03.21.04.31.06.2.16.37.3.52.08.06.16.12.24.18.18.11.38.16.59.16h0Z"/>
            <path class="cls-4" d="m109.81,100.05c1.96,0,1.97-3.05,0-3.05s-1.97,3.05,0,3.05h0Z"/>
            <path class="cls-4" d="m99.57,102.53c.17,0,.32-.03.47-.1.15-.05.28-.13.39-.25.12-.11.2-.24.25-.39.08-.15.11-.3.1-.47-.01-.11-.03-.22-.04-.32-.06-.21-.16-.39-.31-.54-.08-.06-.16-.13-.25-.19-.19-.11-.39-.17-.61-.17-.17,0-.32.03-.47.1-.15.05-.28.13-.39.25-.12.11-.2.24-.25.39-.08.15-.11.3-.1.47.01.11.03.22.04.32.06.21.16.39.31.54.08.06.16.13.25.19.19.11.39.17.61.17h0Z"/>
            <path class="cls-4" d="m119.99,93c.19,0,.36-.03.52-.12.17-.05.31-.15.44-.28.13-.12.23-.27.28-.44.08-.16.12-.34.12-.52-.02-.12-.03-.24-.05-.36-.06-.23-.18-.43-.35-.6-.09-.07-.18-.14-.27-.21-.21-.12-.44-.18-.68-.18-.19,0-.36.03-.52.12-.17.05-.31.15-.44.28-.13.12-.23.27-.28.44-.08.16-.12.34-.12.52.02.12.03.24.05.36.06.23.18.43.35.6.09.07.18.14.27.21.21.12.44.18.68.18h0Z"/>
          </g>
          <path class="cls-6" d="m184.55,167.09c-.88-.38-2.16-.16-3.1-.16-2.49,0-4.99.01-7.48.01-2.1,0-4.2,0-6.31,0-2.5,0-5.01,0-7.51,0-2.85,0-5.7,0-8.54,0-3.13,0-6.27,0-9.4,0-3.36,0-6.73,0-10.09.01-3.54,0-7.07,0-10.61.01-3.65,0-7.3,0-10.95.02-3.71,0-7.42.01-11.13.02-3.71,0-7.42.01-11.13.02-3.65,0-7.3.01-10.95.02-3.54,0-7.07.01-10.61.02-3.36,0-6.73.01-10.09.02-3.14,0-6.27.01-9.41.02-2.85,0-5.7.01-8.55.02-2.5,0-5.01.01-7.51.02-2.1,0-4.21.01-6.31.02-1.64,0-3.29.01-4.93.02-1.13,0-2.26,0-3.39.02-.56,0-1.11,0-1.67.01-.02,0-.05,0-.07,0-1.34.03-6.48.38-5.06,3.09.28.55.62,1.03.99,1.47,1.31,3.14,5.78,5.31,8.64,6.01,3.09.75,6.3.57,9.45.7,2.25.09,4.75.44,6.84,1.32,1.12.48,2.2,1.31,3.24,1.94,2.5,1.52,4.97,3.14,7.88,3.78,1.88.4,3.85.46,5.81.42.47.55,5.06,6.7,14.46,6.9,6.33.14,12.7-.09,19.03-.11,13.4-.04,26.78-.19,40.18-.04,3.37.04,6.79.29,10.01-.99,2.81-1.11,5.54-4.83,5.89-5.76,1.5.03,3,.02,4.49-.09,1.9-.14,3.74-.66,5.46-1.47,1.7-.79,3.31-1.73,4.9-2.73,2.21-1.38,4.43-2.57,7.04-2.93,3.45-.47,6.96-.11,10.42-.57,2.76-.37,5.6-1.45,7.86-3.07.89-.64,1.73-1.41,2.32-2.34.65-1.02,1.19-2.67,1.02-3.87-.09-.64-.36-1.35-.95-1.69-.05-.03-.11-.06-.16-.08Z"/>
        </g>
        <path class="cls-5" d="m52.87,186.62c1.28.48,2.66.38,4.01.43,1.47.05,2.93.1,4.4.14,2.94.07,5.87.14,8.81.14,5.82,0,11.63.06,17.45.05,11.65-.02,23.29-.03,34.94-.07,3.27-.01,6.53-.02,9.8-.03s6.58.24,9.77-.4c.89-.18.89-1.63,0-1.81-2.81-.56-5.7-.39-8.54-.38-2.94,0-5.88,0-8.81,0-5.82,0-11.63.03-17.45.07-11.65.06-23.29.18-34.94.26-3.27.02-6.53.07-9.8.16-1.63.04-3.26.09-4.89.15s-3.26-.1-4.75.46c-.41.15-.41.68,0,.83h0Z"/>
      </g>
      <rect class="cls-3" width="200" height="200"/>
    </g>
  </g>
</svg>