<?xml version="1.0" encoding="UTF-8"?>
<svg id="Capa_2" data-name="Capa 2" xmlns="http://www.w3.org/2000/svg" viewBox="0 0 200 200">
  <defs>
    <style>
      .cls-1 {
        fill: #403434;
      }

      .cls-1, .cls-2, .cls-3, .cls-4, .cls-5, .cls-6, .cls-7 {
        stroke-width: 0px;
      }

      .cls-2 {
        fill: #d99873;
      }

      .cls-3 {
        fill: none;
      }

      .cls-4 {
        fill: #fff;
      }

      .cls-5 {
        fill: #fadc8c;
      }

      .cls-6 {
        fill: #593737;
      }

      .cls-7 {
        fill: #e34b4b;
      }
    </style>
  </defs>
  <g id="colorful_icons" data-name="colorful icons">
    <g>
      <g>
        <path class="cls-2" d="m127.91,129.96c-2.2,11.39-11.68,31.04-37.91,32.3-26.22,1.26-47.53-8.36-56-21.76-8.47-13.4-6.44-26.13-1.26-36.08,5.83-11.22,9.52-17.6,15.11-35.05,6.41-20.05,13.51-29.1,26.69-32.19,8.78-2.06,22.48.81,33.5,7.75,5.51,3.46,10.36,7.95,13.58,13.33,1.52,2.54,2.79,6.24,3.86,10.68,4.31,18.03,4.93,48.15,2.44,61.01Z"/>
        <path class="cls-5" d="m125.47,68.95c-6.68,3.17-29.06,10.97-29.06,10.97,0,0-2.29-7.57-11.23-10.19-8.93-2.64-18.43-6.18-16.95-17.3,1.48-11.11,9.97-13.51,21.99-12.82,6.29.35,12.67,2.74,17.81,5.34,5.51,3.46,10.36,7.95,13.58,13.33,1.52,2.54,2.79,6.24,3.86,10.68Z"/>
        <path class="cls-7" d="m143.15,108.09l-11.57,5.27s10.81,37.06,20.73,47.99c9.05,9.96,20.16,4.47,20.73-.8.57-5.27-.26-8.65-10.54-24.97-9.16-14.55-19.36-27.49-19.36-27.49Z"/>
        <path class="cls-6" d="m95.39,79.23s-6.99,3.21-8.36,7.33c-1.37,4.12,6.41,19.47,9.85,23.71,3.44,4.24,9.05,2.29,12.6.23s13.74-9.51,16.61-8.7,3.09,11.45,4.81,12.25c1.72.8,14.89-5.61,14.89-5.61,0,0-8.02-9.85-5.73-11.34,2.29-1.49,18.55-14.2,17.98-19.13-.57-4.92-11.45-20.27-14.2-22.22-2.75-1.95-6.41-.57-9.28.92-2.86,1.49-3.89.92-2.98,2.63.92,1.72,1.49,3.32,2.63,2.86,1.15-.46,4.7-2.98,6.53-1.15s10.31,17.18,9.74,18.21c-.57,1.03-40.2,20.27-42.72,21.3-2.52,1.03-3.78,2.06-6.41-.11-2.63-2.18-6.99-9.28-7.56-11.45-.57-2.18.57-3.78,1.37-4.24.8-.46,2.86-1.26,2.86-1.26l-2.63-4.24Z"/>
        <path class="cls-4" d="m132.32,64.97c.23,0,2.86-1.15,3.38-2.75.52-1.6-.92-5.33-3.26-5.27s-21.53,9.28-26.97,12.83c-5.44,3.55-11.74,7.44-11.57,8.76.17,1.32,2.52,6.01,3.66,6.53,1.15.52,18.32-8.7,20.56-10.08s14.2-10.02,14.2-10.02Z"/>
        <g>
          <path class="cls-6" d="m113.26,76.2c-.07,0-.13,0-.2,0-.97.07-5.77,2.66-6.65,3.09-2.79,1.39-5.58,2.79-8.37,4.18-.85-1.24-1.63-2.52-2.33-3.85-.21-.4-.42-.85-.31-1.29.1-.39.43-.68.75-.93,2.57-2.04,5.32-3.88,8.13-5.57,1.42-.86,2.86-1.67,4.33-2.44.7-.37,1.4-.76,2.1-1.13.38-.2.75-.39,1.13-.59.12-.06,1.09-.47,1.09-.56,2.92-1.49,5.86-2.94,8.78-4.43,1.88-.96,3.75-1.94,5.6-2.96,1.38-.76,2.84-1.57,4.42-1.54,1.58.03,3.25,1.29,3.1,2.86-.14,1.47-1.64,2.35-2.97,2.99.84.41,1.69.82,2.53,1.23.39-1.05,1.78-1.33,2.43-2.23.85-1.17.16-2.79-.53-4.05-.53-.97-1.1-1.98-2.05-2.54-1.69-1.01-3.85-.24-5.64.56-3.15,1.41-6.27,2.89-9.36,4.42-3.09,1.54-6.14,3.14-9.16,4.81-3.03,1.67-6.02,3.4-8.97,5.19-2.21,1.35-4.55,2.64-6.52,4.34-.56.49-1.1,1.04-1.45,1.7-.41.8-.34,1.48-.13,2.33.33,1.31.83,2.57,1.51,3.73.34.58.72,1.14,1.15,1.66.39.48.83,1.05,1.43,1.27.76.28,1.59-.04,2.32-.36,4.39-1.92,12.56-6.26,16.68-8.72-.72-.76-1.78-1.2-2.82-1.18Z"/>
          <path class="cls-6" d="m130.42,62.14c.47-.76-.26-1.72-1.23-1.54-2.65.5-5.27,2.58-7.57,3.94-2.5,1.48-5,2.95-7.5,4.44-5.11,3.03-10.33,5.67-15.21,9.06-.6.42-.11,1.5.62,1.48,1.71-.05,5.85-2.69,6.74-3.09.2-.09.14-.28.34-.37-.07,0-.15.01-.23.02,3.04-1.57,6.05-3.19,9.05-4.84,2.55-1.4,5.09-2.81,7.62-4.22,1.56-.87,6.78-3.95,7.35-4.89Z"/>
          <path class="cls-1" d="m134.23,112.28s0-.02-.01-.03c.1-.05.19-.1.29-.15-.09.06-.19.12-.28.18Z"/>
          <path class="cls-6" d="m51.75,119.63c.44-1.24.43-2.8-.27-3.94-.83-1.38-2.24-1.27-3.54-.77-.18.07-.36.14-.53.22-1.31.61-2.63,1.42-3.44,2.65-.93,1.41-.92,3.09.22,4.38,2.6,2.96,6.48.47,7.55-2.54Zm-2.21-.34c-.66.99-1.85,1.59-2.96.91-1.3-.8.14-2.14.89-2.72.46-.35,1.01-.76,1.57-.96.81-.29,1.08.49,1.05,1.17-.02.57-.24,1.12-.55,1.59Z"/>
          <path class="cls-6" d="m59.25,116.47c-1.25.05-2.25.79-2.83,1.88-1.01,1.9.89,3.99,2.87,3.8,2.01-.2,3.5-2.41,2.57-4.3-.48-.97-1.57-1.43-2.61-1.39Zm-.05,3.9c-.65.76-1.66.14-1.98-.7-.93-2.44,4.48-2.22,1.98.7Z"/>
          <path class="cls-6" d="m52.51,128.06c-2.06,1.19-4.02,4.6-1.73,6.55,1,.85,2.35,1,3.57.61,2.18-.69,4.45-3.44,4.17-5.81-.34-2.78-4.27-2.35-6.01-1.35Zm.5,5.02c-1.94-.18-.54-2.5.27-3.21.92-.81,3.82-2,3.91.19.09,2.12-2.37,3.19-4.18,3.02Z"/>
        </g>
        <path class="cls-5" d="m100.54,78.2l26.91-15.58s10.94.87,15.58,4.92c5.5,4.81,6.53,9.73,11.91,11.57s14.02,1.37,16.26,6.64c2.63,6.18.69,18.55-12.48,24.28s-21.53-2.63-24.05-6.18c-2.52-3.55-6.87-15.92-11.57-20.16-4.7-4.24-9.96-6.07-13.51-6.3-3.55-.23-9.05.8-9.05.8Z"/>
      </g>
      <rect class="cls-3" width="200" height="200"/>
    </g>
  </g>
</svg>