<?xml version="1.0" encoding="UTF-8"?>
<svg id="Capa_2" data-name="Capa 2" xmlns="http://www.w3.org/2000/svg" viewBox="0 0 200 200">
  <defs>
    <style>
      .cls-1 {
        fill: #f9d980;
      }

      .cls-1, .cls-2, .cls-3, .cls-4 {
        stroke-width: 0px;
      }

      .cls-2 {
        fill: none;
      }

      .cls-3 {
        fill: #593737;
      }

      .cls-4 {
        fill: #bdafaf;
      }
    </style>
  </defs>
  <g id="colorful_icons" data-name="colorful icons">
    <g>
      <g>
        <g>
          <g>
            <path class="cls-4" d="m64.54,43.3s-10.9,92.49-10.59,96.65c.31,4.15,74.54.62,74.74.21s-11.83-98.83-11.83-98.83l-52.32,1.97Z"/>
            <path class="cls-4" d="m65.88,36.03s-.42-21.7-.1-24.81c.31-3.11,1.87-5.09,7.58-5.5,5.71-.42,27.72-.31,34.15.1,6.44.42,9.34,2.08,9.65,5.19.31,3.11.1,24.71.1,24.71l-7.37.21s.1-17.02-.31-20.14c-.42-3.11-1.66-4.36-6.44-4.78-4.78-.42-21.9.21-24.71.31s-6.64,1.25-6.64,7.06.52,17.44.52,17.44l-6.44.21Z"/>
            <path class="cls-3" d="m63.7,32.5c-2.28.21-4.78.73-4.88,3.01s0,6.75.93,8.3,7.06,2.08,16.51,1.76c9.45-.31,36.96-.21,40.07-.31,3.11-.1,5.71,0,6.54-3.22.83-3.22,1.56-8.62-3.11-9.97-3.7-1.07-53.77.21-56.06.42Z"/>
            <path class="cls-3" d="m55.5,137.56c-2.28.21-4.37.78-4.88,3.01-.93,4.05-.31,8.41.62,9.97s7.06,1.6,16.51,1.76c12.04.21,55.64-.1,58.76-.21,3.11-.1,5.71,0,6.54-3.22.83-3.22,1.76-9.97-2.91-11.32-3.7-1.07-72.36-.21-74.64,0Z"/>
          </g>
          <path class="cls-3" d="m80.15,55.05c.04-.62-.17-1.25-.55-1.73-.59-.77-1.58-1.16-2.57-.6-.66.38-.98,1.1-1.04,1.83-.22,2.75,3.96,3.3,4.16.5Z"/>
          <path class="cls-3" d="m93.82,55.67c.04-.62-.17-1.25-.55-1.73-.59-.77-1.58-1.16-2.57-.6-.66.38-.98,1.1-1.04,1.83-.22,2.75,3.96,3.3,4.16.5Z"/>
          <path class="cls-3" d="m107.71,55.25c.04-.62-.17-1.25-.55-1.73-.59-.77-1.58-1.16-2.57-.6-.66.38-.98,1.1-1.04,1.83-.22,2.75,3.96,3.3,4.16.5Z"/>
          <path class="cls-3" d="m74.71,65.16c.04-.62-.17-1.25-.55-1.73-.59-.77-1.58-1.16-2.57-.6-.66.38-.98,1.1-1.04,1.83-.22,2.75,3.96,3.3,4.16.5Z"/>
          <path class="cls-3" d="m87.33,65.16c.04-.62-.17-1.25-.55-1.73-.59-.77-1.58-1.16-2.57-.6-.66.38-.98,1.1-1.04,1.83-.22,2.75,3.96,3.3,4.16.5Z"/>
          <path class="cls-3" d="m99.95,65.16c.04-.62-.17-1.25-.55-1.73-.59-.77-1.58-1.16-2.57-.6-.66.38-.98,1.1-1.04,1.83-.22,2.75,3.96,3.3,4.16.5Z"/>
          <path class="cls-3" d="m112.57,65.16c.04-.62-.17-1.25-.55-1.73-.59-.77-1.58-1.16-2.57-.6-.66.38-.98,1.1-1.04,1.83-.22,2.75,3.96,3.3,4.16.5Z"/>
          <path class="cls-3" d="m75.02,87.73c.04-.62-.17-1.25-.55-1.73-.59-.77-1.58-1.16-2.57-.6-.66.38-.98,1.1-1.04,1.83-.22,2.75,3.96,3.3,4.16.5Z"/>
          <path class="cls-3" d="m87.64,87.73c.04-.62-.17-1.25-.55-1.73-.59-.77-1.58-1.16-2.57-.6-.66.38-.98,1.1-1.04,1.83-.22,2.75,3.96,3.3,4.16.5Z"/>
          <path class="cls-3" d="m100.26,87.73c.04-.62-.17-1.25-.55-1.73-.59-.77-1.58-1.16-2.57-.6-.66.38-.98,1.1-1.04,1.83-.22,2.75,3.96,3.3,4.16.5Z"/>
          <path class="cls-3" d="m112.88,87.73c.04-.62-.17-1.25-.55-1.73-.59-.77-1.58-1.16-2.57-.6-.66.38-.98,1.1-1.04,1.83-.22,2.75,3.96,3.3,4.16.5Z"/>
          <path class="cls-3" d="m67.09,74.65c-.66.38-.98,1.1-1.04,1.83-.22,2.75,3.96,3.3,4.16.5.04-.62-.17-1.25-.55-1.73-.59-.77-1.58-1.16-2.57-.59Z"/>
          <path class="cls-3" d="m78.36,73.82c-.66.38-.98,1.1-1.04,1.83-.22,2.75,3.96,3.3,4.16.5.04-.62-.17-1.25-.55-1.73-.59-.77-1.58-1.16-2.57-.6Z"/>
          <path class="cls-3" d="m93.51,76.15c.04-.62-.17-1.25-.55-1.73-.59-.77-1.58-1.16-2.57-.6-.66.38-.98,1.1-1.04,1.83-.22,2.75,3.96,3.3,4.16.5Z"/>
          <path class="cls-3" d="m105.56,76.15c.04-.62-.17-1.25-.55-1.73-.59-.77-1.58-1.16-2.57-.6-.66.38-.98,1.1-1.04,1.83-.22,2.75,3.96,3.3,4.16.5Z"/>
          <path class="cls-3" d="m116.04,76.15c.04-.62-.17-1.25-.55-1.73-.59-.77-1.58-1.16-2.57-.6-.66.38-.98,1.1-1.04,1.83-.22,2.75,3.96,3.3,4.16.5Z"/>
          <path class="cls-3" d="m65.92,117.86c-.66.38-.98,1.1-1.04,1.83-.22,2.75,3.96,3.3,4.16.5.04-.62-.17-1.25-.55-1.73-.59-.77-1.58-1.16-2.57-.6Z"/>
          <path class="cls-3" d="m78.54,117.86c-.66.38-.98,1.1-1.04,1.83-.22,2.75,3.96,3.3,4.16.5.04-.62-.17-1.25-.55-1.73-.59-.77-1.58-1.16-2.57-.6Z"/>
          <path class="cls-3" d="m91.16,117.86c-.66.38-.98,1.1-1.04,1.83-.22,2.75,3.96,3.3,4.16.5.04-.62-.17-1.25-.55-1.73-.59-.77-1.58-1.16-2.57-.6Z"/>
          <path class="cls-3" d="m106.35,118.45c-.59-.77-1.58-1.16-2.57-.6-.66.38-.98,1.1-1.04,1.83-.22,2.75,3.96,3.3,4.16.5.04-.62-.17-1.25-.55-1.73Z"/>
          <path class="cls-3" d="m73.52,128.32c-.66.38-.98,1.1-1.04,1.83-.22,2.75,3.96,3.3,4.16.5.04-.62-.17-1.25-.55-1.73-.59-.77-1.58-1.16-2.57-.6Z"/>
          <path class="cls-3" d="m84.94,128.32c-.66.38-.98,1.1-1.04,1.83-.22,2.75,3.96,3.3,4.16.5.04-.62-.17-1.25-.55-1.73-.59-.77-1.58-1.16-2.57-.6Z"/>
          <path class="cls-3" d="m96.36,128.32c-.66.38-.98,1.1-1.04,1.83-.22,2.75,3.96,3.3,4.16.5.04-.62-.17-1.25-.55-1.73-.59-.77-1.58-1.16-2.57-.6Z"/>
          <path class="cls-3" d="m107.78,128.32c-.66.38-.98,1.1-1.04,1.83-.22,2.75,3.96,3.3,4.16.5.04-.62-.17-1.25-.55-1.73-.59-.77-1.58-1.16-2.57-.6Z"/>
          <path class="cls-3" d="m119.2,128.32c-.66.38-.98,1.1-1.04,1.83-.22,2.75,3.96,3.3,4.16.5.04-.62-.17-1.25-.55-1.73-.59-.77-1.58-1.16-2.57-.6Z"/>
          <path class="cls-3" d="m62.1,128.32c-.66.38-.98,1.1-1.04,1.83-.22,2.75,3.96,3.3,4.16.5.04-.62-.17-1.25-.55-1.73-.59-.77-1.58-1.16-2.57-.6Z"/>
          <path class="cls-1" d="m93.25,164.6c.52-.25.58-.92.36-1.38-1.01-2.12-4.4-2.68-6.44-3.33-2.36-.76-4.73-1.51-6.49-3.34-.77-.79-2.02.22-1.5,1.16,1.32,2.4,3.39,3.96,5.83,5.12,2.26,1.07,5.84,2.95,8.24,1.77Z"/>
          <path class="cls-1" d="m104.74,159.14c.17-.67-.81-1.14-1.15-.49-.88,1.68-1.96,3.22-3.1,4.73-.98,1.3-2.61,2.61-3.03,4.23-.14.56.34.94.86.86,1.78-.29,3.14-2.24,4.08-3.64,1.16-1.73,1.85-3.68,2.34-5.69Z"/>
          <path class="cls-1" d="m93.18,182.19c-2.1-2.2-3.98-4.51-5.54-7.12-.44-.73-1.79-.24-1.44.6,1.18,2.86,2.63,5.63,4.59,8.05,1.69,2.1,4.06,5.13,6.99,5.21.44.01.85-.47.69-.91-.87-2.44-3.55-4.03-5.29-5.84Z"/>
          <path class="cls-1" d="m111.88,179.77c.2-.2.25-.54.1-.79-.79-1.35-2.65-1.5-4.04-1.84-2.03-.5-4.05-1.11-5.96-1.97-.74-.33-1.71.63-.95,1.23,1.71,1.35,3.49,2.5,5.53,3.28,1.56.6,3.95,1.44,5.32.08Z"/>
          <path class="cls-1" d="m68.84,185.15c-2.03-.5-4.05-1.11-5.96-1.97-.74-.33-1.71.63-.95,1.23,1.71,1.35,3.49,2.5,5.53,3.28,1.56.6,3.95,1.44,5.32.08.2-.2.25-.54.1-.79-.79-1.35-2.65-1.5-4.04-1.84Z"/>
          <path class="cls-1" d="m115.97,163.25c-.05,3.27-.6,7.69,1.46,10.48.35.47,1.06.43,1.25-.16,1.01-3.16-.43-7.14-.83-10.32-.15-1.16-1.86-1.24-1.88,0Z"/>
          <path class="cls-1" d="m79.89,170.49c.57-.85-.74-1.86-1.42-1.1-1.31,1.47-2.64,2.91-3.86,4.45-1.04,1.3-2.27,2.66-2.58,4.34-.11.58.43.98.95.73,1.54-.72,2.56-2.26,3.56-3.58,1.19-1.57,2.26-3.21,3.35-4.84Z"/>
          <path class="cls-1" d="m83.36,187.53c-1.36,1.69-2.83,3.28-4.43,4.75-1.37,1.25-2.97,2.26-3.22,4.21-.04.35.32.59.61.61,2.07.15,3.47-1.71,4.69-3.15,1.41-1.67,2.66-3.45,3.78-5.33.51-.86-.76-1.91-1.42-1.1Z"/>
          <path class="cls-1" d="m114.27,185.58c-1.74.36-2.76,1.94-3.96,3.12-1.43,1.41-2.89,2.73-4.56,3.85-1.07.72-.15,2.24,1,1.71,1.93-.88,3.8-1.95,5.4-3.35,1.38-1.21,3.1-2.73,2.9-4.74-.04-.41-.36-.68-.78-.59Z"/>
          <path class="cls-1" d="m66.93,163.76c1.97.8,3.86,1.73,5.64,2.91.94.62,2.02-.79,1.2-1.55-1.63-1.51-3.43-2.92-5.45-3.87-1.7-.79-3.58-1.66-5.38-.74-.28.14-.41.58-.22.84,1.02,1.43,2.66,1.79,4.21,2.42Z"/>
          <path class="cls-3" d="m118.94,118.45c-.59-.77-1.58-1.16-2.57-.6-.66.38-.98,1.1-1.04,1.83-.22,2.75,3.96,3.3,4.16.5.04-.62-.17-1.25-.55-1.73Z"/>
          <g>
            <path class="cls-3" d="m74.24,109.38c.04-.62-.17-1.25-.55-1.73-.59-.77-1.58-1.16-2.57-.6-.66.38-.98,1.1-1.04,1.83-.22,2.75,3.96,3.3,4.16.5Z"/>
            <path class="cls-3" d="m86.86,109.38c.04-.62-.17-1.25-.55-1.73-.59-.77-1.58-1.16-2.57-.6-.66.38-.98,1.1-1.04,1.83-.22,2.75,3.96,3.3,4.16.5Z"/>
            <path class="cls-3" d="m99.49,109.38c.04-.62-.17-1.25-.55-1.73-.59-.77-1.58-1.16-2.57-.6-.66.38-.98,1.1-1.04,1.83-.22,2.75,3.96,3.3,4.16.5Z"/>
            <path class="cls-3" d="m112.11,109.38c.04-.62-.17-1.25-.55-1.73-.59-.77-1.58-1.16-2.57-.6-.66.38-.98,1.1-1.04,1.83-.22,2.75,3.96,3.3,4.16.5Z"/>
            <path class="cls-3" d="m66.31,96.3c-.66.38-.98,1.1-1.04,1.83-.22,2.75,3.96,3.3,4.16.5.04-.62-.17-1.25-.55-1.73-.59-.77-1.58-1.16-2.57-.59Z"/>
            <path class="cls-3" d="m77.58,95.47c-.66.38-.98,1.1-1.04,1.83-.22,2.75,3.96,3.3,4.16.5.04-.62-.17-1.25-.55-1.73-.59-.77-1.58-1.16-2.57-.6Z"/>
            <path class="cls-3" d="m92.74,97.8c.04-.62-.17-1.25-.55-1.73-.59-.77-1.58-1.16-2.57-.6-.66.38-.98,1.1-1.04,1.83-.22,2.75,3.96,3.3,4.16.5Z"/>
            <path class="cls-3" d="m104.78,97.8c.04-.62-.17-1.25-.55-1.73-.59-.77-1.58-1.16-2.57-.6-.66.38-.98,1.1-1.04,1.83-.22,2.75,3.96,3.3,4.16.5Z"/>
            <path class="cls-3" d="m115.26,97.8c.04-.62-.17-1.25-.55-1.73-.59-.77-1.58-1.16-2.57-.6-.66.38-.98,1.1-1.04,1.83-.22,2.75,3.96,3.3,4.16.5Z"/>
          </g>
        </g>
        <g>
          <path class="cls-1" d="m166.58,108.23c-3.13,10.15-10.18,14.78-14.47,15.98-.19.06-.37.1-.55.14-.19.04-.46.06-.82.04-7.92-.35-56.52-13.75-57.5-14.13-1.01-.39-1.64-.86-2.41-5.91-.69-4.53-1.14-11.44-.78-15.85.03-.29.06-.57.08-.84.02-.21.05-.4.07-.6.63-4.2,5.06-9.81,7.01-10.2,1.95-.39,63.77-.63,63.77-.63,0,0,.04,0,.09.04.26.12,1.04.58,2.01,2.04,1.02,1.52,2.25,4.11,3.35,8.52,1.06,4.23,3.42,10.82.15,21.4Z"/>
          <path class="cls-3" d="m150.32,98.58s-.01,0-.02,0c0,0,0,0,.02,0Zm10.74-22.31c.02,2.11.12,5.35-1.26,10.18-1.49,5.19-4.4,9.86-9.42,12.1-18.45-4.62-41.18-9-60.26-10.89-.03.27-.06.55-.08.84,18.77,2.99,41.71,6.89,59.99,11.45.07,1.3.11,2.71.32,4.06.2,2.52.52,5.05.64,7.54,0,.09,0,.2.02.29.08,2.02.12,4.03.08,6.04,0,.62-.24,4.46-.36,6.51.36.02.64,0,.82-.04.18-.04.36-.08.55-.14.09-1.72.28-5.07.28-5.33,0-.21,0-.4,0-.6.08-2.27.09-4.56-.02-6.84-.1-2.14-.32-4.28-.59-6.41-.11-.88-.2-1.8-.35-2.72-.14-.97-.28-1.78-.52-2.71,2-.48,3.7-1.65,5.07-2.75,1.95-1.55,3.44-3.58,4.48-5.84,1.09-2.39,2.58-9.5,2.61-12.71-.97-1.46-1.75-1.92-2.01-2.04Z"/>
          <path class="cls-3" d="m101.52,95.81c-.11-.04-.22-.07-.33-.09-2.56-.55-4.95,1.73-4.55,4.32.31,1.99,2.47,3.08,4.34,2.56,1.65-.45,2.79-2.05,2.69-3.76-.08-1.33-.85-2.6-2.15-3.04Z"/>
          <path class="cls-3" d="m115.84,99.78c-1.79,2.54-1.26,6.41,1.14,8.26,2.34,1.8,5.74.88,7.33-1.63.19-.3.34-.61.47-.95.67-1.86.39-4.01-.7-5.61-1.97-2.9-6.21-2.95-8.23-.07Z"/>
          <path class="cls-3" d="m109.14,107.52c-.93-.34-2.05-.02-2.4.96-.9,2.5,3.51,3.24,3.61.65.03-.78-.52-1.35-1.21-1.61Z"/>
          <path class="cls-3" d="m141.79,108.29c-3.21-.25-5.99,2.32-5.85,5.57.11,2.78,2.66,5.39,5.5,5.34,2.88-.05,5.19-2.41,5.25-5.28.05-2.77-2.08-5.41-4.89-5.63Z"/>
          <path class="cls-3" d="m138.13,102.86c.09-.75-.27-2.07-1.27-2.77-1.24-.87-3.18-1.28-4.34-.29-1.76,1.5-1.46,4.38.5,5.56,2.15,1.3,4.79.02,5.11-2.5Z"/>
          <path class="cls-3" d="m94.24,92.94c-.04-.16-.13-.3-.24-.42-.06-.05-.13-.1-.19-.15-.15-.09-.31-.13-.48-.13-.13,0-.25.02-.37.08-.12.04-.22.1-.31.2-.09.09-.16.19-.2.31-.06.11-.09.24-.08.37.01.08.02.17.03.25.05.16.13.3.24.42.06.05.13.1.19.15.15.09.31.13.48.13.13,0,.25-.02.37-.08.12-.04.22-.1.31-.2.09-.09.16-.19.2-.31.06-.11.09-.24.08-.37-.01-.08-.02-.17-.03-.25Z"/>
        </g>
      </g>
      <rect class="cls-2" width="200" height="200"/>
    </g>
  </g>
</svg>