<?xml version="1.0" encoding="UTF-8"?>
<svg id="Capa_2" data-name="Capa 2" xmlns="http://www.w3.org/2000/svg" viewBox="0 0 200 200">
  <defs>
    <style>
      .cls-1 {
        fill: #c46127;
      }

      .cls-1, .cls-2, .cls-3, .cls-4, .cls-5, .cls-6, .cls-7, .cls-8, .cls-9 {
        stroke-width: 0px;
      }

      .cls-2 {
        fill: #9c8787;
      }

      .cls-3 {
        fill: none;
      }

      .cls-4 {
        fill: #fff;
      }

      .cls-5 {
        fill: #fdf1f1;
      }

      .cls-6 {
        fill: #593737;
      }

      .cls-7 {
        fill: #ccc1c1;
      }

      .cls-8 {
        fill: #e34b4b;
      }

      .cls-9 {
        fill: #f7ae6f;
      }
    </style>
  </defs>
  <g id="colorful_icons" data-name="colorful icons">
    <g>
      <g>
        <g>
          <g>
            <path class="cls-9" d="m139.7,75.35c-.62-6.33-3.42-12.55-9.13-14.11-5.7-1.56-18.46.21-23.54-2.59-5.08-2.8-7.05-7.68-6.64-13.9.42-6.22,2.55-10.57,3.32-13.79,1.66-6.95,1.04-13.48-4.25-17.63-5.29-4.15-10.37-4.36-16.28-.83s-7.05,9.96-5.6,16.8c1.45,6.85,6.02,13.07,3.84,20.23-2.18,7.16-5.6,9.23-12.34,10.37-6.74,1.14-16.6-1.97-22.3,3.11-5.7,5.08-6.43,12.14-6.64,21.68s0,44.5-.42,52.48c-.41,7.99.42,35.78,1.24,41.9.83,6.12,6.33,9.33,14.31,9.85,7.99.52,55.28-.1,64.72-.1s15.66-.21,18.77-5.5c3.11-5.29,2.9-42.42,3.22-53.1.31-10.68-1.66-48.54-2.28-54.87Zm-43.44-48.91c-.53,1.27-1.51,2.16-2.83,2.57-1.53.47-3.17.37-4.63-.29-1.42-.64-2.57-1.95-2.73-3.52-.16-1.53.61-3.08,1.73-4.09,1.22-1.1,2.77-1.53,4.39-1.35,1.16.13,2.97.58,3.25,1.9,0,0,0,.02,0,.03.3.28.57.61.75.98.59,1.19.57,2.57.06,3.78Z"/>
            <path class="cls-6" d="m87.11,29.48c.21.13.43.26.66.37,2.26,1.1,5.12.96,7.19-.5,1.84-1.3,2.84-3.78,2.69-5.98-.27-4.03-4.33-6.12-8.07-5.55-2.74.42-5,3.01-5.53,5.64-.5,2.47,1.04,4.74,3.06,6.02Zm2.58-8.94c.09-.02.17-.04.26-.06,3.3-.69,6.53,2.69,5.28,5.94-1.52,3.96-7.72,3.3-8.79-.63-.46-2.3.99-4.63,3.25-5.25Z"/>
          </g>
          <g>
            <path class="cls-8" d="m104.42,84.6c-1.58-3.95-4.06-7.88-7.68-10.24-4.1-2.68-9.41-3.39-14.11-2.13-4.91,1.31-9.11,4.47-12.71,7.95-3.55,3.43-7.01,7-9.9,11.01-2.84,3.95-5.14,8.35-6.01,13.17-.96,5.37.22,10.91,2.24,15.9,2,4.93,4.75,9.4,8.94,12.75,2.46,1.96,5.2,3.51,7.87,5.17,6.56-4.62,26.95-21.51,33.29-26.79.14-.51.28-1.02.41-1.53.81-3.16,1.14-6.42,1.08-9.68-.09-5.23-1.49-10.72-3.43-15.57Z"/>
            <path class="cls-5" d="m108.69,84.58c-3.74-10.05-15.56-18.46-28.94-14.21-13.38,4.25-29.15,20.02-29.77,39.72-.62,19.71,18.67,29.87,21.16,29.25.47-.12,2.07-1.23,4.36-2.97-3.2-1.03-10.06-4.02-14.32-11.45-5.7-9.96-6.74-22.3,3.94-36.51,10.68-14.21,22.92-16.8,29.66-12.86,6.74,3.94,9.13,10.89,9.13,20.43,0,6.31-.09,13.44-.15,17.54,2.75-2.28,4.51-3.75,4.51-3.75,0,0,6.33-9.33.41-25.2Z"/>
          </g>
          <g>
            <path class="cls-8" d="m77.76,150.56c-.56,4.03-2.14,7.69-3.28,11.57-.58,1.97-1.04,4.05-.75,6.12.28,2,1.29,3.77,2.53,5.34,1.84,2.35,4.34,4.02,7.25,4.73,5.66,1.37,11.7-.98,16.44-3.96,5.57-3.5,10.18-8.44,12.67-14.59,1.3-3.21,2.04-6.66,2.07-10.12.02-1.78-.13-3.56-.48-5.3,0-.03-.02-.07-.02-.1-2.58.02-8.03,1.51-14.51,1.43-7.36-.09-17.83-2.47-22.12-1.48.67,2,.48,4.47.21,6.37Z"/>
            <path class="cls-5" d="m115.64,144.64c-.48-.63-2.2-.42-4.73-.03.19,2.44.45,6.94.16,10.2-.42,4.67-1.04,12.03-12.34,17.22-11.31,5.19-19.5,1.35-21.57-3.42-2.07-4.77,1.76-11.51,2.9-17.43.62-3.21.08-5.64-.55-7.21-1.48.05-2.63.28-3.29.77-2.16,1.62-.42,4.05-.52,5.81s-3.11,7.78-4.36,11.51c-1.24,3.73-.93,11.82,6.22,16.91,7.16,5.08,16.18,4.67,29.35-4.98,13.17-9.65,9.75-28,8.71-29.35Z"/>
          </g>
          <path class="cls-4" d="m77.24,106.11c1.71-2.04,2.45-4.71,1.93-7.19-.34-2.91-2.77-5.22-5.73-5.28-4.03-.08-6.64,3.97-7.16,7.56-.43,2.95.23,5.68,3.22,6.9,2.87,1.17,5.76.37,7.74-1.99Z"/>
          <path class="cls-6" d="m74.84,104.73c.88-1.05,1.25-2.41.99-3.68-.18-1.49-1.42-2.67-2.93-2.7-2.06-.04-3.4,2.03-3.66,3.87-.22,1.51.12,2.91,1.65,3.53,1.47.6,2.95.19,3.96-1.02Z"/>
          <g>
            <g>
              <g>
                <path class="cls-2" d="m157.55,105.64c.51.73-38.8,41.48-54.77,53.52-5.78,4.36-10.99,6.06-15.28,6.46-.43.05-.86.07-1.27.08-6.83.26-11.04-2.71-11.04-2.71l68.26-74.99,7.15,5.29s-4.77,4.67-5.08,5.18c-.02.03,0,.07.05.12.08.11.32.3.66.52,2.53,1.67,10.88,5.91,11.32,6.52Z"/>
                <path class="cls-7" d="m146.22,99.12c-10.78,9.91-20.99,20.48-30.9,31.26-5.28,5.75-10.5,11.57-15.63,17.46-3.82,4.39-11.26,11.31-12.2,17.77-.43.05-.86.07-1.27.08.26-3.27,2.28-6.39,4.47-9.14,5.56-6.96,12.04-13.87,17.94-20.56,11.63-13.15,23.99-25.54,36.92-37.4.08.11.32.3.66.52Z"/>
              </g>
              <path class="cls-6" d="m144.17,96.75c.62.38,1.25.75,1.88,1.11,1.32-1.41,4.54-4.56,4.54-4.56l-7.16-5.29-4.44,4.88c1.58,1.47,3.39,2.75,5.17,3.86Z"/>
              <path class="cls-1" d="m140.12,89.35s3.5,3.42,5.76,5.29c2.26,1.87,3.5,3.34,4.28,3.03s11.9-13.38,17.11-16.41c6.82-3.97,17.76-2.65,20.35-11.96.97-3.49.42-7.48-2.03-10.24-3.06-3.44-8.41-4.83-12.72-3.14-4.21,1.65-7.7,5.08-10.75,8.31-2.69,2.85-5.09,5.93-7.69,8.86-4.36,4.9-14.31,16.26-14.31,16.26Z"/>
              <path class="cls-6" d="m174.33,63.61c-.65-.35-1.45-.46-2.21-.3-.61.13-1.18.41-1.65.82-1.13.98-1.61,2.89-.81,4.21.07.11.15.22.24.32,1.23,1.41,3.83,1.45,5.06.01,1.25-1.47,1.21-4.07-.62-5.06Zm-.02,3.27c-.05.17-.12.32-.21.46-.63,1.01-2.11,1.39-3.14.71-.58-.38-.89-1.11-.8-1.79.08-.68.55-1.3,1.17-1.61.68-.34,1.56-.32,2.23.05.76.43,1.01,1.39.76,2.19Z"/>
              <path class="cls-6" d="m153.4,82.69c-.65-.35-1.45-.46-2.21-.3-.61.13-1.18.41-1.65.82-1.13.98-1.61,2.89-.81,4.21.07.11.15.22.24.32,1.23,1.41,3.83,1.45,5.06.01,1.25-1.47,1.21-4.07-.62-5.06Zm-.02,3.27c-.05.17-.12.32-.21.46-.63,1.01-2.11,1.39-3.14.71-.58-.38-.89-1.11-.8-1.79.08-.68.55-1.3,1.17-1.61.68-.34,1.56-.32,2.23.05.76.43,1.01,1.39.76,2.19Z"/>
            </g>
            <path class="cls-6" d="m156.15,104.76c-11.83,12.17-24.11,23.89-36.12,35.88-5.8,5.8-11.38,12.4-18.01,17.28-3.33,2.45-7.1,4.67-11.09,5.84-5.44,1.6-9.98.78-15.2-1.01-.99-.34-1.52,1.11-.69,1.64,15.02,9.56,31.48-6.92,41.42-16.48,14.11-13.57,27.87-27.51,42.16-40.88.13-.12.38-.39.46-.52-.35-.23-1.9-1.32-2.95-1.76Z"/>
          </g>
        </g>
        <path class="cls-6" d="m71.98,139.76c6.21-4.83,12.32-9.81,18.51-14.67,6.19-4.86,12.5-9.6,18.55-14.63,1.08-.9-.47-2.44-1.55-1.55-6.05,5.02-12.08,10.05-18.23,14.96-6.14,4.9-12.39,9.7-18.27,14.91-.68.6.3,1.51.98.98h0Z"/>
      </g>
      <rect class="cls-3" width="200" height="200"/>
    </g>
  </g>
</svg>