<?xml version="1.0" encoding="UTF-8"?>
<svg id="Capa_2" data-name="Capa 2" xmlns="http://www.w3.org/2000/svg" viewBox="0 0 200 200">
  <defs>
    <style>
      .cls-1 {
        fill: #c46127;
      }

      .cls-1, .cls-2, .cls-3, .cls-4, .cls-5, .cls-6, .cls-7 {
        stroke-width: 0px;
      }

      .cls-2 {
        fill: #9c8787;
      }

      .cls-3 {
        fill: none;
      }

      .cls-4 {
        fill: #fcecbf;
      }

      .cls-5 {
        fill: #593737;
      }

      .cls-6 {
        fill: #ccc1c1;
      }

      .cls-7 {
        fill: #f7ae6f;
      }
    </style>
  </defs>
  <g id="colorful_icons" data-name="colorful icons">
    <g>
      <g>
        <g>
          <path class="cls-7" d="m135.41,75.91c-.62-6.33-3.42-12.55-9.13-14.11-5.7-1.56-18.46.21-23.54-2.59-5.08-2.8-7.05-7.68-6.64-13.9.42-6.22,2.55-10.57,3.32-13.79,1.66-6.95,1.04-13.48-4.25-17.63-5.29-4.15-10.37-4.36-16.28-.83-5.91,3.53-7.05,9.96-5.6,16.8,1.45,6.85,6.02,13.07,3.84,20.23-2.18,7.16-5.6,9.23-12.34,10.37-6.74,1.14-16.6-1.97-22.3,3.11-5.7,5.08-6.43,12.14-6.64,21.68s0,44.5-.42,52.48c-.41,7.99.42,35.78,1.24,41.9.83,6.12,6.33,9.33,14.31,9.85,7.99.52,55.28-.1,64.72-.1s15.66-.21,18.77-5.5c3.11-5.29,2.9-42.42,3.22-53.1.31-10.68-1.66-48.54-2.28-54.87Zm-43.44-48.91c-.53,1.27-1.51,2.16-2.83,2.57-1.53.47-3.17.37-4.63-.29-1.42-.64-2.57-1.95-2.73-3.52-.16-1.53.61-3.08,1.73-4.09,1.22-1.1,2.77-1.53,4.39-1.35,1.16.13,2.97.58,3.25,1.9,0,0,0,.02,0,.03.3.28.57.61.75.98.59,1.19.57,2.57.06,3.78Z"/>
          <path class="cls-5" d="m82.82,30.03c.21.13.43.26.66.37,2.26,1.1,5.12.96,7.19-.5,1.84-1.3,2.84-3.78,2.69-5.98-.27-4.03-4.33-6.12-8.07-5.55-2.74.42-5,3.01-5.53,5.64-.5,2.47,1.04,4.74,3.06,6.02Zm2.58-8.94c.09-.02.17-.04.26-.06,3.3-.69,6.53,2.69,5.28,5.94-1.52,3.96-7.72,3.3-8.79-.63-.46-2.3.99-4.63,3.25-5.25Z"/>
        </g>
        <g>
          <path class="cls-1" d="m91.03,85.77c.07,4.87-.97,12.32-9.09,16.59-4.92,2.59-10.26,2.22-14.69,0-6.25-3.13-10.72-9.96-9.68-17.43,1.76-12.75,11.2-19.08,20.75-17.11,9.54,1.97,12.24,10.79,12.55,14.73.07.82.16,1.93.17,3.22Z"/>
          <path class="cls-4" d="m91.03,85.77c.07,4.87-.97,12.32-9.09,16.59-4.92,2.59-10.26,2.22-14.69,0-3.15-3.46-5.2-8.61-5.42-14.31-.49-12.1,9.25-17.19,17.9-15.33,8.08,1.73,10.74,9.07,11.3,13.05Z"/>
        </g>
        <g>
          <path class="cls-1" d="m96.94,100.86c.07,4.87-.97,12.32-9.09,16.59-4.92,2.59-10.26,2.22-14.69,0-6.25-3.13-10.72-9.96-9.68-17.43,1.76-12.75,11.2-19.08,20.75-17.11,9.54,1.97,12.24,10.79,12.55,14.73.07.82.16,1.93.17,3.22Z"/>
          <path class="cls-4" d="m96.94,100.86c.07,4.87-.97,12.32-9.09,16.59-4.92,2.59-10.26,2.22-14.69,0-3.15-3.46-5.2-8.61-5.42-14.31-.49-12.1,9.25-17.19,17.9-15.33,8.08,1.73,10.74,9.07,11.3,13.05Z"/>
        </g>
        <g>
          <path class="cls-1" d="m103.58,116.99c.07,4.87-.97,12.32-9.09,16.59-4.92,2.59-10.26,2.22-14.69,0-6.25-3.13-10.72-9.96-9.68-17.43,1.76-12.75,11.2-19.08,20.75-17.11,9.54,1.97,12.24,10.79,12.55,14.73.07.82.16,1.93.17,3.22Z"/>
          <path class="cls-4" d="m103.58,116.99c.07,4.87-.97,12.32-9.09,16.59-4.92,2.59-10.26,2.22-14.69,0-3.15-3.46-5.2-8.61-5.42-14.31-.49-12.1,9.25-17.19,17.9-15.33,8.08,1.73,10.74,9.07,11.3,13.05Z"/>
        </g>
        <g>
          <path class="cls-1" d="m108.51,135.03c.07,4.87-.97,12.32-9.09,16.59-4.92,2.59-10.26,2.22-14.69,0-6.25-3.13-10.72-9.96-9.68-17.43,1.76-12.75,11.2-19.08,20.75-17.11,9.54,1.97,12.24,10.79,12.55,14.73.07.82.16,1.93.17,3.22Z"/>
          <path class="cls-4" d="m108.51,135.03c.07,4.87-.97,12.32-9.09,16.59-4.92,2.59-10.26,2.22-14.69,0-3.15-3.46-5.2-8.61-5.42-14.31-.49-12.1,9.25-17.19,17.9-15.33,8.08,1.73,10.74,9.07,11.3,13.05Z"/>
        </g>
        <g>
          <g>
            <g>
              <path class="cls-2" d="m154.39,106.19c.51.73-38.8,41.48-54.77,53.52-5.78,4.36-10.99,6.06-15.28,6.46-.43.05-.86.07-1.27.08-6.83.26-11.04-2.71-11.04-2.71l68.26-74.99,7.15,5.29s-4.77,4.67-5.08,5.18c-.02.03,0,.07.05.12.08.11.32.3.66.52,2.53,1.67,10.88,5.91,11.32,6.52Z"/>
              <path class="cls-6" d="m143.07,99.68c-10.78,9.91-20.99,20.48-30.9,31.26-5.28,5.75-10.5,11.57-15.63,17.46-3.82,4.39-11.26,11.31-12.2,17.77-.43.05-.86.07-1.27.08.26-3.27,2.28-6.39,4.47-9.14,5.56-6.96,12.04-13.87,17.94-20.56,11.63-13.15,23.99-25.54,36.92-37.4.08.11.32.3.66.52Z"/>
            </g>
            <path class="cls-5" d="m141.02,97.3c.62.38,1.25.75,1.88,1.11,1.32-1.41,4.54-4.56,4.54-4.56l-7.16-5.29-4.44,4.88c1.58,1.47,3.39,2.75,5.17,3.86Z"/>
            <path class="cls-1" d="m136.97,89.91s3.5,3.42,5.76,5.29c2.26,1.87,3.5,3.34,4.28,3.03s11.9-13.38,17.11-16.41c6.82-3.97,17.76-2.65,20.35-11.96.97-3.49.42-7.48-2.03-10.24-3.06-3.44-8.41-4.83-12.72-3.14-4.21,1.65-7.7,5.08-10.75,8.31-2.69,2.85-5.09,5.93-7.69,8.86-4.36,4.9-14.31,16.26-14.31,16.26Z"/>
            <path class="cls-5" d="m171.18,64.17c-.65-.35-1.45-.46-2.21-.3-.61.13-1.18.41-1.65.82-1.13.98-1.61,2.89-.81,4.21.07.11.15.22.24.32,1.23,1.41,3.83,1.45,5.06.01,1.25-1.47,1.21-4.07-.62-5.06Zm-.02,3.27c-.05.17-.12.32-.21.46-.63,1.01-2.11,1.39-3.14.71-.58-.38-.89-1.11-.8-1.79.08-.68.55-1.3,1.17-1.61.68-.34,1.56-.32,2.23.05.76.43,1.01,1.39.76,2.19Z"/>
            <path class="cls-5" d="m150.25,83.25c-.65-.35-1.45-.46-2.21-.3-.61.13-1.18.41-1.65.82-1.13.98-1.61,2.89-.81,4.21.07.11.15.22.24.32,1.23,1.41,3.83,1.45,5.06.01,1.25-1.47,1.21-4.07-.62-5.06Zm-.02,3.27c-.05.17-.12.32-.21.46-.63,1.01-2.11,1.39-3.14.71-.58-.38-.89-1.11-.8-1.79.08-.68.55-1.3,1.17-1.61.68-.34,1.56-.32,2.23.05.76.43,1.01,1.39.76,2.19Z"/>
          </g>
          <path class="cls-5" d="m152.99,105.31c-11.83,12.17-24.11,23.89-36.12,35.88-5.8,5.8-11.38,12.4-18.01,17.28-3.33,2.45-7.1,4.67-11.09,5.84-5.44,1.6-9.98.78-15.2-1.01-.99-.34-1.52,1.11-.69,1.64,15.02,9.56,31.48-6.92,41.42-16.48,14.11-13.57,27.87-27.51,42.16-40.88.13-.12.38-.39.46-.52-.35-.23-1.9-1.32-2.95-1.76Z"/>
        </g>
      </g>
      <rect class="cls-3" width="200" height="200"/>
    </g>
  </g>
</svg>