<?xml version="1.0" encoding="UTF-8"?>
<svg id="Capa_2" data-name="Capa 2" xmlns="http://www.w3.org/2000/svg" viewBox="0 0 200 200">
  <defs>
    <style>
      .cls-1 {
        fill: #c46127;
      }

      .cls-1, .cls-2, .cls-3, .cls-4, .cls-5, .cls-6, .cls-7 {
        stroke-width: 0px;
      }

      .cls-2 {
        fill: #9c8787;
      }

      .cls-3 {
        fill: none;
      }

      .cls-4 {
        fill: #593737;
      }

      .cls-5 {
        fill: #ccc1c1;
      }

      .cls-6 {
        fill: #e34b4b;
      }

      .cls-7 {
        fill: #f7ae6f;
      }
    </style>
  </defs>
  <g id="colorful_icons" data-name="colorful icons">
    <g>
      <g>
        <g>
          <path class="cls-7" d="m136.88,76c-.62-6.33-3.42-12.55-9.13-14.11-5.7-1.56-18.46.21-23.54-2.59-5.08-2.8-7.05-7.68-6.64-13.9.42-6.22,2.55-10.57,3.32-13.79,1.66-6.95,1.04-13.48-4.25-17.63-5.29-4.15-10.37-4.36-16.28-.83s-7.05,9.96-5.6,16.8c1.45,6.85,6.02,13.07,3.84,20.23-2.18,7.16-5.6,9.23-12.34,10.37-6.74,1.14-16.6-1.97-22.3,3.11-5.7,5.08-6.43,12.14-6.64,21.68s0,44.5-.42,52.48c-.41,7.99.42,35.78,1.24,41.9.83,6.12,6.33,9.33,14.31,9.85,7.99.52,55.28-.1,64.72-.1s15.66-.21,18.77-5.5c3.11-5.29,2.9-42.42,3.22-53.1.31-10.68-1.66-48.54-2.28-54.87Zm-43.44-48.91c-.53,1.27-1.51,2.16-2.83,2.57-1.53.47-3.17.37-4.63-.29-1.42-.64-2.57-1.95-2.73-3.52-.16-1.53.61-3.08,1.73-4.09,1.22-1.1,2.77-1.53,4.39-1.35,1.16.13,2.97.58,3.25,1.9,0,0,0,.02,0,.03.3.28.57.61.75.98.59,1.19.57,2.57.06,3.78Z"/>
          <path class="cls-4" d="m84.29,30.12c.21.13.43.26.66.37,2.26,1.1,5.12.96,7.19-.5,1.84-1.3,2.84-3.78,2.69-5.98-.27-4.03-4.33-6.12-8.07-5.55-2.74.42-5,3.01-5.53,5.64-.5,2.47,1.04,4.74,3.06,6.02Zm2.58-8.94c.09-.02.17-.04.26-.06,3.3-.69,6.53,2.69,5.28,5.94-1.52,3.96-7.72,3.3-8.79-.63-.46-2.3.99-4.63,3.25-5.25Z"/>
        </g>
        <path class="cls-6" d="m75.56,133.48c-.02-.32-.24-.52-.55-.55-2.29-.25-5.27-.46-7.58-.37-.68.03-.91,5.09-.1,5.21.87.27,6.61.04,7.95.04.27,0,.54-.24.52-.52-.08-1.13-.16-2.68-.24-3.82Z"/>
        <path class="cls-6" d="m70.8,126.27c.79-.81,1.84-1.72,2.63-2.53.23-.23.23-.52.04-.78-1.34-1.87-3.23-4.59-4.84-6.25-.48-.49-4.35,2.52-3.9,3.21.38.82,4.44,5.31,5.32,6.31.18.2.54.24.74.04Z"/>
        <path class="cls-6" d="m84.15,121.54c-.34-.32-6.47,3.44-6.54,4.67-.01.22,1.58,3.58,2.82,3.39,1.2-.19,2.55-1.73,3.46-2.46.63-.51,2.01-1.42,2.32-2.22.35-.9-1.45-2.81-2.06-3.37Z"/>
        <path class="cls-6" d="m85.85,117.01c.17-.13,1.54-3.7.6-4.52-.92-.8-3.2-.91-4.34-1.13-.8-.16-2.38-.62-3.19-.35-.92.31-1.04,3.11-1.08,3.93-.02.47,7.03,2.81,8.01,2.08Z"/>
        <path class="cls-6" d="m80.94,107.18c2.15-.82,4.8-1.91,6.81-3.05.59-.34-1.43-5.02-2.21-4.77-.89.16-5.8,2.9-6.99,3.5-.24.12-.37.46-.23.71.58.97,1.29,2.4,1.87,3.37.17.28.45.35.74.24Z"/>
        <path class="cls-6" d="m63.6,113.87c.24-.11.39-.45.26-.7-.55-.99-1.2-2.39-1.75-3.38-.16-.28-.43-.37-.73-.27-2.18.74-5.08,2.04-7.13,3.1-.61.31,1.24,5.02,2.03,4.79.9-.12,6.11-2.99,7.32-3.54Z"/>
        <path class="cls-6" d="m58.82,99.84c.2.25.49.3.77.15,2.03-1.08,4.68-2.73,6.53-4.11.55-.41-2.03-4.67-2.77-4.31-.87.27-5.54,3.83-6.65,4.58-.22.15-.31.51-.14.73.7.89,1.56,2.08,2.27,2.97Z"/>
        <path class="cls-6" d="m63.68,125.76c-.9.09-6.14,2.53-7.38,3.04-.25.1-.41.43-.28.69.51,1.01,1.08,2.34,1.59,3.35.15.29.42.38.72.29,2.21-.66,5.08-1.61,7.17-2.6.62-.29-1.03-4.97-1.82-4.77Z"/>
        <path class="cls-6" d="m65.33,102.22c-.93.26-1.3,3.07-1.39,3.89-.05.47,6.81,3.17,7.83,2.49.18-.12,1.84-3.64.94-4.51-.88-.85-3.08-1.07-4.21-1.36-.79-.2-2.34-.75-3.17-.51Z"/>
        <path class="cls-6" d="m94.21,101.81c-.5.76-2.04,6.5-2.43,7.78-.08.26.08.59.35.65,1.11.25,2.32.65,3.42.9.32.07.56-.08.69-.37.89-2.12,2.07-5.1,2.63-7.34.17-.66-4.31-2.36-4.67-1.62Z"/>
        <path class="cls-6" d="m108.3,105.92c-.21-.07-3.75.89-3.9,2.13-.14,1.21.98,2.92,1.44,3.99.32.75.96,2.67,1.65,3.19.78.58,2.98-.97,3.68-1.4.4-.25-1.72-7.52-2.88-7.91Z"/>
        <path class="cls-6" d="m87.92,129.49c-.8.92-.84,2.96-1.06,4.11-.16.8-.7,2.63-.42,3.44.31.92,2.87,1.12,3.7,1.16.47.02,2.81-7.05,2.07-8.03-.13-.17-3.47-1.62-4.29-.68Z"/>
        <path class="cls-6" d="m82.12,139.49c-1.22.04-2.74,1.41-3.73,2.03-.69.43-2.16,1.17-2.57,1.93-.46.85,1.17,2.9,1.7,3.53.3.36,6.84-2.65,7.05-3.85.04-.21-1.21-3.68-2.46-3.64Z"/>
        <path class="cls-6" d="m77.58,97.14c.2-.08,2.42-3.17,1.72-4.21-.68-1.01-2.64-1.59-3.69-2.1-.73-.36-2.13-1.22-2.99-1.17-.97.06-1.78,2.73-2.03,3.51-.15.45,5.85,4.42,6.98,3.97Z"/>
        <path class="cls-6" d="m82.11,87.29c.35.31,6.42-3.55,6.46-4.77,0-.22-1.7-3.66-2.94-3.45-1.2.21-2.52,1.77-3.42,2.51-.63.52-2.11,1.64-2.41,2.44-.34.91,1.69,2.71,2.3,3.27Z"/>
        <path class="cls-6" d="m104.88,98.11c-.12.45,6.12,4.21,7.24,3.7.2-.09,2.43-3.4,1.68-4.41-.73-.98-2.77-1.55-3.84-2.01-.75-.32-2.19-1.11-3.05-1.01-.96.11-1.82,2.93-2.03,3.73Z"/>
        <path class="cls-6" d="m99.62,89.15c1.01.51,2.46,1.15,3.47,1.66.29.14.57.06.76-.2,1.38-1.84,3.08-4.4,4.17-6.44.32-.6-3.9-3.34-4.42-2.7-.67.61-3.48,5.81-4.16,6.96-.14.23-.07.59.19.72Z"/>
        <path class="cls-6" d="m69.04,143.55c-.84.34-5.04,4.08-6.08,4.92-.21.17-.27.53-.07.74.78.82,1.7,2.23,2.48,3.05.22.24.65.01.91-.16,1.93-1.26,4.14-2.66,5.86-4.2.51-.46-2.39-4.77-3.1-4.35Z"/>
        <path class="cls-6" d="m92.76,88.55c-.84-.47-3.06,1.2-3.7,1.72-.36.3,2.62,7.2,3.82,7.43.21.04,3.84-1.22,3.82-2.48-.02-1.22-1.46-3.08-2.06-4.08-.42-.7-1.13-2.18-1.88-2.6Z"/>
        <path class="cls-6" d="m92.39,119.19c-.1.19.22,4.07,1.43,4.37,1.18.3,3.02-.6,4.14-.91.78-.22,2.4-.52,3-1.14.67-.69-.4-3.31-.73-4.06-.19-.43-7.3.65-7.84,1.74Z"/>
        <g>
          <g>
            <g>
              <path class="cls-2" d="m156.7,105.46c.51.73-38.8,41.48-54.77,53.52-5.78,4.36-10.99,6.06-15.28,6.46-.43.05-.86.07-1.27.08-6.83.26-11.04-2.71-11.04-2.71l68.26-74.99,7.15,5.29s-4.77,4.67-5.08,5.18c-.02.03,0,.07.05.12.08.11.32.3.66.52,2.53,1.67,10.88,5.91,11.32,6.52Z"/>
              <path class="cls-5" d="m145.38,98.94c-10.78,9.91-20.99,20.48-30.9,31.26-5.28,5.75-10.5,11.57-15.63,17.46-3.82,4.39-11.26,11.31-12.2,17.77-.43.05-.86.07-1.27.08.26-3.27,2.28-6.39,4.47-9.14,5.56-6.96,12.04-13.87,17.94-20.56,11.63-13.15,23.99-25.54,36.92-37.4.08.11.32.3.66.52Z"/>
            </g>
            <path class="cls-4" d="m143.32,96.56c.62.38,1.25.75,1.88,1.11,1.32-1.41,4.54-4.56,4.54-4.56l-7.16-5.29-4.44,4.88c1.58,1.47,3.39,2.75,5.17,3.86Z"/>
            <path class="cls-1" d="m139.27,89.17s3.5,3.42,5.76,5.29c2.26,1.87,3.5,3.34,4.28,3.03s11.9-13.38,17.11-16.41c6.82-3.97,17.76-2.65,20.35-11.96.97-3.49.42-7.48-2.03-10.24-3.06-3.44-8.41-4.83-12.72-3.14-4.21,1.65-7.7,5.08-10.75,8.31-2.69,2.85-5.09,5.93-7.69,8.86-4.36,4.9-14.31,16.26-14.31,16.26Z"/>
            <path class="cls-4" d="m173.48,63.43c-.65-.35-1.45-.46-2.21-.3-.61.13-1.18.41-1.65.82-1.13.98-1.61,2.89-.81,4.21.07.11.15.22.24.32,1.23,1.41,3.83,1.45,5.06.01,1.25-1.47,1.21-4.07-.62-5.06Zm-.02,3.27c-.05.17-.12.32-.21.46-.63,1.01-2.11,1.39-3.14.71-.58-.38-.89-1.11-.8-1.79.08-.68.55-1.3,1.17-1.61.68-.34,1.56-.32,2.23.05.76.43,1.01,1.39.76,2.19Z"/>
            <path class="cls-4" d="m152.55,82.51c-.65-.35-1.45-.46-2.21-.3-.61.13-1.18.41-1.65.82-1.13.98-1.61,2.89-.81,4.21.07.11.15.22.24.32,1.23,1.41,3.83,1.45,5.06.01,1.25-1.47,1.21-4.07-.62-5.06Zm-.02,3.27c-.05.17-.12.32-.21.46-.63,1.01-2.11,1.39-3.14.71-.58-.38-.89-1.11-.8-1.79.08-.68.55-1.3,1.17-1.61.68-.34,1.56-.32,2.23.05.76.43,1.01,1.39.76,2.19Z"/>
          </g>
          <path class="cls-4" d="m155.3,104.57c-11.83,12.17-24.11,23.89-36.12,35.88-5.8,5.8-11.38,12.4-18.01,17.28-3.33,2.45-7.1,4.67-11.09,5.84-5.44,1.6-9.98.78-15.2-1.01-.99-.34-1.52,1.11-.69,1.64,15.02,9.56,31.48-6.92,41.42-16.48,14.11-13.57,27.87-27.51,42.16-40.88.13-.12.38-.39.46-.52-.35-.23-1.9-1.32-2.95-1.76Z"/>
        </g>
      </g>
      <rect class="cls-3" width="200" height="200"/>
    </g>
  </g>
</svg>