<?xml version="1.0" encoding="UTF-8"?>
<svg id="Capa_2" data-name="Capa 2" xmlns="http://www.w3.org/2000/svg" viewBox="0 0 200 200">
  <defs>
    <style>
      .cls-1 {
        fill: none;
      }

      .cls-1, .cls-2, .cls-3, .cls-4 {
        stroke-width: 0px;
      }

      .cls-2 {
        fill: #fadc8c;
      }

      .cls-3 {
        fill: #593737;
      }

      .cls-4 {
        fill: #f5a259;
      }
    </style>
  </defs>
  <g id="colorful_icons" data-name="colorful icons">
    <g>
      <g>
        <path class="cls-2" d="m70.38,40.57c4.33-1.44,9.83-3.28,15.08-10.27,5.24-6.99,11.8-17.48,23.16-18.57,11.36-1.09,18.14,5.03,22.29,15.73,4.15,10.71,8.08,46.98,10.05,57.25,1.97,10.27,12.02,31.47,10.71,45.67-1.31,14.2-6.77,39.55-18.79,46.54-12.02,6.99-38.02,7.87-49.16,5.46-11.14-2.4-15.73-9.4-17.7-14.86s-2.62-27.97-3.06-35.84c-.44-7.87-3.71-22.07-8.96-29.28-5.24-7.21-11.8-20.54-7.65-34.09,4.15-13.55,11.58-23.6,24.04-27.75Z"/>
        <g>
          <path class="cls-4" d="m43.94,145.56s-2.29,7.65-11.36,13.11c-9.07,5.46-16.93,3.82-20.98,12.78-4.04,8.96.22,16.39,9.29,17.7,9.07,1.31,13.98-4.81,16.83-10.27,2.84-5.46,2.95-10.49,6.56-14.64,3.61-4.15,10.16-9.4,10.16-9.4l-10.49-9.29Z"/>
          <path class="cls-3" d="m46.53,159.5c.42.38.86.74,1.3,1.1,3.23-3.05,6.59-5.74,6.59-5.74l-10.49-9.29s-.83,2.72-3.41,6.08c1.49,2.96,3.56,5.65,6.01,7.86Z"/>
          <path class="cls-4" d="m146.99,44.36s9.34-7.7,11.8-12.21c2.46-4.51,6.8-17.62,15.08-20.32,8.28-2.7,15.49,2.7,15.16,10.9s-7.37,12.95-13.11,15.57c-5.74,2.62-7.7,1.72-12.21,5.98-4.51,4.26-9.26,10.49-9.26,10.49l-7.46-10.41Z"/>
          <path class="cls-3" d="m157.24,45.19c-1.23-.95-2.56-1.82-3.9-2.6-.69-.4-1.4-.81-2.14-1.11-.2-.08-.4-.17-.62-.26-2.02,1.84-3.6,3.14-3.6,3.14l7.46,10.41s2.51-3.28,5.6-6.71c-.76-1.11-1.75-2.05-2.8-2.87Z"/>
          <path class="cls-4" d="m130.93,47.31s6.39-6.88,7.7-7.21c1.31-.33,8.6.08,14.83,6.96,6.23,6.88,8.52,12.13,8.03,13.93-.49,1.8-97.35,98.49-99.15,99.48-1.8.98-11.96-2.13-16.72-8.03-4.75-5.9-6.72-11.96-5.41-13.93,1.31-1.97,90.71-91.2,90.71-91.2Z"/>
        </g>
        <path class="cls-3" d="m63.22,160.95c4.93-4.32,9.42-9.17,14.08-13.78,7.22-7.15,14.48-14.25,21.67-21.43,8.1-8.08,16.21-16.16,24.31-24.24,7.38-7.36,14.78-14.71,22.11-22.12,2.88-2.91,5.75-5.83,8.62-8.75,2.09-2.13,4.48-4.45,6.33-6.79s1.28-4.26,1.01-4.02c-.46.42-6.41,5.93-7.48,7.02-2.69,2.74-5.4,5.47-8.11,8.2-7.14,7.19-14.28,14.4-21.42,21.59-8.06,8.12-16.13,16.23-24.2,24.35-7.36,7.41-14.67,14.87-21.95,22.36-2.87,2.95-5.73,5.9-8.58,8.86-2.09,2.17-4.33,4.28-6.21,6.63-.34.43-.68.85-1.02,1.28-.47.59.25,1.36.84.84h0Z"/>
        <path class="cls-3" d="m110.13,53.76c-.02,2.24-.54,5.16.38,7.24.09.2.43.19.52,0,.93-1.97.47-4.71.44-6.85-.04-2.76-.11-5.51-.19-8.27-.17-5.52-.49-11.02-.88-16.53-.03-.38-.62-.39-.6,0,.19,5.51.29,11.02.33,16.53.02,2.63.02,5.25,0,7.88Z"/>
        <path class="cls-3" d="m83.35,76.43c.02,2.92-.47,6.01,0,8.89.06.4.62.31.73,0,.92-2.63.68-5.76.67-8.51,0-3.07-.2-6.13-.37-9.2-.34-6.1-.59-12.25-.18-18.35.01-.21-.34-.26-.37-.05-.87,6-.76,11.98-.62,18.02.07,3.07.12,6.13.14,9.2Z"/>
        <path class="cls-3" d="m74.34,92.92c-3.03-4.83-3.51-10.8-3.09-16.35.24-3.2.69-6.38.9-9.58.2-2.95.55-6.18-.51-9.01-.11-.3-.52-.25-.55.08-.36,3.66-.2,7.29-.74,10.95-.46,3.13-.95,6.26-1.07,9.44-.19,5.39.74,10.83,4.62,14.82.22.23.62-.07.44-.34Z"/>
        <path class="cls-3" d="m128.38,155.53c2.31-5.7,2.16-12.17,1.99-18.21-.17-6.34-.58-12.76.24-19.07.1-.75-1.2-.93-1.33-.18-1.08,6.03-.89,12.05-.69,18.15.21,6.46-.06,12.69-1.08,19.07-.09.58.65.78.87.24Z"/>
        <path class="cls-3" d="m107.86,154.04c.03,4.48.06,8.97.05,13.45,0,.56.83.55.87,0,.29-4.48.52-8.96.6-13.45.04-2.11.06-4.22.06-6.33,0-2.08.2-4.46-.5-6.45-.15-.41-.74-.44-.87,0-.58,1.91-.34,4.08-.3,6.05.04,2.24.08,4.48.1,6.73Z"/>
        <path class="cls-3" d="m95.19,157.02c.75-4.79.49-9.65-.09-14.44-.07-.59-.93-.62-.94,0-.12,4.78-.23,9.6.37,14.35.04.34.6.51.67.09Z"/>
      </g>
      <rect class="cls-1" width="200" height="200"/>
    </g>
  </g>
</svg>