<?xml version="1.0" encoding="UTF-8"?>
<svg id="Capa_2" data-name="Capa 2" xmlns="http://www.w3.org/2000/svg" viewBox="0 0 200 200">
  <defs>
    <style>
      .cls-1 {
        fill: #c46127;
      }

      .cls-1, .cls-2, .cls-3, .cls-4, .cls-5 {
        stroke-width: 0px;
      }

      .cls-2 {
        fill: #f4b7b7;
      }

      .cls-3 {
        fill: none;
      }

      .cls-4 {
        fill: #fadc8c;
      }

      .cls-5 {
        fill: #593737;
      }
    </style>
  </defs>
  <g id="colorful_icons" data-name="colorful icons">
    <g>
      <g>
        <path class="cls-4" d="m28.38,152.63c-5.43-5.06-2.33-9.67,1.5-12.34s5.67-2.83,7.34-8.67,2.5-9.5,7.34-11,24.51-9.67,28.01-16.5,24.51-13.34,38.84-13.84,31.17,3,37.68,9.5c6.5,6.5,13,17.34,20.17,21,7.17,3.67,15.17,5.67,15.67,15.84s-6.33,18.34-22.84,21.34c-16.5,3-42.84-1-60.51-1-19.67,0-65.85,2.5-73.18-4.33Z"/>
        <path class="cls-2" d="m48.78,83.73s7.78,8.89,9.11,8.89,27.34-16.34,41.57-17.78c14.23-1.44,31.12,6.11,36.68,8.56s7.89,4.22,7.34,6.56-5.22,2.56-6.33,2.33-1.89-.44-1.89-.44c0,0,4.22,2.45,2.89,5s-6.67,2.67-14.11,1.67-18.34-3.22-28.67-1.33-15.56,7.89-17.23,10.11-1.89,3.78-1.89,3.78c0,0,9.78.56,17.78-.78s12.34-1.44,12.89,2.22-3.22,8.56-17.34,14.89c-14.11,6.33-22.56,6.56-31.01,3.78-8.45-2.78-17.23-15-21.56-18.67-4.33-3.67-6.67-4.78-6.67-4.78l18.45-24.01Z"/>
        <path class="cls-1" d="m30.44,122.07c-1.22-.11-16.45-7.78-16.56-9.89s24.78-43.79,27.12-43.9,16.89,8.22,17,9.22-26.34,44.68-27.56,44.57Z"/>
        <path class="cls-5" d="m30.56,122.79c1.81-.08,2.86-2.11,3.74-3.47,1.24-1.92,2.4-3.9,3.58-5.85,2.3-3.79,4.6-7.58,6.9-11.37,4.66-7.72,9.29-15.47,13.75-23.31,1.04-1.84-1.8-3.5-2.83-1.66-4.28,7.66-8.71,15.23-13.21,22.77-2.23,3.74-4.47,7.47-6.71,11.2-1.09,1.82-2.2,3.64-3.28,5.47-.52.89-.99,1.81-1.55,2.67-.49.74-1.2,1.34-1.39,2.23-.14.64.3,1.37,1.02,1.34h0Z"/>
        <g>
          <path class="cls-5" d="m124.42,109.59c3.37-.57,7.14,1.14,10.1,2.6,3.51,1.74,6.62,4.16,9.08,7.23,2.64,3.3,4.58,7.07,5.63,11.16.9,3.5,1.98,9.09-.66,12.09-.32.36-.86.2-1.1-.14-.95-1.35-1.06-3.08-1.35-4.67-.33-1.82-.5-3.65-.86-5.47-.75-3.75-2-7.51-4-10.78-1.82-2.96-4.25-5.59-7.09-7.59-1.45-1.02-3.07-1.8-4.74-2.39-1.64-.58-3.38-.75-5.01-1.33-.31-.11-.39-.64,0-.71Z"/>
          <path class="cls-5" d="m116.4,126.26c4.11,2.12,8.44,7.7,6.27,12.53-.19.42-.78.24-.9-.12-.76-2.11-.84-4.36-1.81-6.41-.96-2.03-2.29-3.96-3.98-5.45-.31-.27.08-.73.43-.55Z"/>
          <path class="cls-5" d="m94.62,145.67c-2.46.7-5.1.89-7.65.75-1.93-.1-4.58-.17-5.88-1.8-.29-.37-.09-.81.36-.87,1.78-.23,3.71-.03,5.52-.14,2.06-.13,4.13-.18,6.16-.59,3.47-.71,6.88-2.61,8.57-5.83.38-.73,1.45-.21,1.28.54-.95,4.19-4.37,6.82-8.36,7.95Z"/>
          <path class="cls-5" d="m59.53,144.26c-2.14.62-4.3.19-5.94-1.35-1.3-1.23-2.75-3.89-1.53-5.58.18-.25.61-.33.77,0,.71,1.45.52,3.05,1.71,4.33,1.21,1.32,3.13,1.86,4.87,1.69.53-.05.61.77.12.91Z"/>
        </g>
        <path class="cls-5" d="m45.52,122.25c2.01,1.9,3.9,3.77,6.16,5.37,2.21,1.56,4.6,2.91,7.17,3.79s6.28,1.64,9.04,1.68c9.64.15,18.49-2.85,26.94-7.47,2.38-1.3,4.67-2.76,6.8-4.44,6.11-4.84,5.84-8.51,5.23-7.84-1.79,1.96-4.02,3.91-5.73,5.31s-3.66,2.74-5.61,3.91c-4.01,2.41-8.06,4.48-12.54,5.83s-8.83,2.34-13.46,2.46c-2.51.06-5.99-.51-8.46-1.04-2.64-.57-8.86-3.6-14.29-8.22-2.18-1.86-3.8-3.22-6.36-5.63-.44-.41,3.97,5.23,5.1,6.31Z"/>
        <path class="cls-5" d="m76.92,111.19c4.29-6.92,10.6-12.34,18.77-13.73,5.99-1.01,12.31-.22,14.82-.02,5.07.41,10.12,1.05,15.18,1.59,2.79.3,5.61.63,8.42.63,1.98,0,4.09-1.21,4.41-3.54-2.39,2.78-4.61,2.11-7.11,1.94s-17.7-2.68-22.86-2.98c-4.74-.28-9.42-.26-14.07.83-3.73.87-7.3,2.52-10.4,4.77-3.47,2.52-6.63,5.83-8.5,9.73-.43.89.81,1.64,1.34.78h0Z"/>
        <path class="cls-5" d="m86.77,84.51c5.85-1.01,8.81-1.5,13.31-1.75s9.14.09,13.64.99c3.8.75,7.91,1.97,11.34,3.76,2.79,1.46,5.36,2.6,8.28,3.78,1.63.66,7.06,2.33,9,.06-4,.78-11.02-2.82-16.89-5.78-3.69-1.86-7.88-3.11-11.67-3.78-4.35-.76-8.35-.97-12.76-.76-4.8.23-9.8,1.15-14.45,2.78-.35.12-.18.74.19.71h0Z"/>
      </g>
      <rect class="cls-3" width="200" height="200"/>
    </g>
  </g>
</svg>