<?xml version="1.0" encoding="UTF-8"?>
<svg id="Capa_2" data-name="Capa 2" xmlns="http://www.w3.org/2000/svg" viewBox="0 0 200 200">
  <defs>
    <style>
      .cls-1 {
        fill: #c46127;
      }

      .cls-1, .cls-2, .cls-3, .cls-4, .cls-5, .cls-6 {
        stroke-width: 0px;
      }

      .cls-2 {
        fill: #f4b7b7;
      }

      .cls-3 {
        fill: #f8bd8a;
      }

      .cls-4 {
        fill: none;
      }

      .cls-5 {
        fill: #cb723f;
      }

      .cls-6 {
        fill: #593737;
      }
    </style>
  </defs>
  <g id="colorful_icons" data-name="colorful icons">
    <g>
      <g>
        <path class="cls-5" d="m126.95,66.12c-11.93-4.77-21.04,5.86-23.1,16.59-1.1,5.71.38,11.86,2.54,17.14,2.35,5.75,6.09,11.75,11.14,15.49,2.86,2.11,6.56,3.81,9.9,4.99,3.71,1.31,7.78,1.86,11.59.87,4.34-1.13,7.39-4.21,8.97-8.32,2.58-6.71,2.53-14.32.24-21.11s-5.84-13.47-10.69-18.48c-2.99-3.1-6.59-5.55-10.59-7.15Z"/>
        <path class="cls-3" d="m145.58,85.27c-.59-.16-1.19-.3-1.82-.39-2.15-.3-4.47-.26-6.53.48-3.26,1.17-5.76,4.2-8.45,6.26-2.66,2.03-5.72,3.44-9.13,2.77-3.46-.68-6.44-3.17-9.69-4.45-1.63-.64-3.41-1.23-5.18-1.16-.42.02-.81.08-1.19.18-.05,4.59,1.42,8.39,2.8,11.77,2.35,5.75,6.24,11.22,11.17,15.13,10.07,7.98,18.05,6.89,21.86,5.89,4.34-1.13,7.92-5.01,9.5-9.12,2.58-6.71,1.85-14.31-.45-21.1-.73-2.16-1.58-4.73-2.88-6.28Z"/>
        <path class="cls-3" d="m71.3,147.33c4.03,4.21,7.99,8.63,12.88,11.86,4.27,2.82,8.99,4.81,13.85,6.35,5.01,1.59,10.15,2.9,15.35,3.72,10.78,1.7,22.08,1.43,32.61-1.57,5.31-1.51,10.19-3.82,14.89-6.71,5.23-3.22,10.33-6.83,14.93-10.92,4.22-3.75,7.07-8.53,10.23-13.14.74-1.09,1.48-2.19,2.18-3.3-.92-.74-1.89-1.44-2.88-2.06-1.72-1.06-3.53-1.88-5.34-2.22-5.16-.95-7.38-.21-16.92,2.61-9.54,2.82-14.96-4.77-23.2-6.3-8.25-1.51-11,4.88-23.65,6.08-11.49,1.08-11.71-6.08-24.28-6.95-8.19-.56-20.16,4.85-27.51,8.7-.79.41-1.51.8-2.19,1.17,1.92,4.81,5.56,9.01,9.06,12.67Z"/>
        <path class="cls-6" d="m192.96,110.99c-4.28-.61-8.63-.34-12.94-.34h-107.76c-4.91,0-10.01-.34-14.88.34-.72.11-.6,4.57-.52,6.05.33,6.21,2.02,12.34,4.64,18.03,2.04,4.44,4.63,8.63,7.57,12.38,7.5,9.54,17.72,16.51,29.1,20.58l-.18.18c-1.42,1.41-2.85,2.8-4.06,4.41-2.11,2.81-3.71,7.62.45,9.44,1.7.75,3.68.85,5.5,1.21,2.08.41,4.17.75,6.28,1.04,12.44,1.71,25.09,1.59,37.55.16,2.13-.25,4.26-.56,6.36-.96,1.87-.36,3.85-.57,5.68-1.08,1.68-.47,3.17-1.51,3.57-3.29.42-1.83-.4-3.84-1.34-5.38-1.12-1.84-2.66-3.4-4.19-4.91-.41-.41-.83-.84-1.25-1.26,8.62-3.19,16.68-7.97,23.03-14.54,5.41-5.6,9.59-12.24,12.68-19.38,2.17-4.96,3.79-10.16,4.93-15.41.34-1.56.72-3.12.88-4.71.22-2.3-.65-2.47-1.09-2.54Zm-37.36,64.85c.38.73,1.07,2.14.51,2.93-1.18,1.66-3.94,1.75-5.76,1.89-2.71.2-5.4.52-8.11.79-6.85.68-13.75.93-20.63.76-4.71-.11-9.42-.41-14.09-.89-3.65-.37-8.94-.2-12.12-2.28-1.35-.89.12-3.25.76-4.23,1.43-2.17,3.49-3.87,5.34-5.71,12.6,3.84,26.2,4.44,39.1,1.85,2.91-.59,5.81-1.34,8.67-2.25,2.23,2.28,4.87,4.27,6.34,7.13Zm29.73-44.27c-2.28,5.46-5.26,10.61-8.98,15.21-8.04,9.94-19.44,16.19-31.67,19.48-12.36,3.33-25.74,3.74-38.19.65-12.02-2.98-22.95-9.09-31.5-18.1-4.26-4.48-7.87-9.68-10.56-15.32-2.49-5.18-4.18-10.75-4.85-16.43-.16-1.32-.26-2.64-.37-3.95,3.67.32,7.45.14,11.12.14h107.75c4.12,0,8.32.23,12.43-.09-1,6.28-2.68,12.52-5.17,18.41Z"/>
        <path class="cls-2" d="m35.42,24.97c.98-.16,45.22-.65,53.36,2.11,8.13,2.77,31.72,38.39,34.32,43.27s4.13,8.97-1.06,10.66c-3.25,1.06-8.62-3.99-11.71-8.38s-16.51-19.93-16.51-19.93c0,0,8.29,10.9,10.09,15.45,1.38,3.5-.73,5.54-2.85,6.43-6.02,2.52-18.71-12.69-18.71-12.69,0,0,13.66,13.1,7.97,17.41-5.23,3.96-16.19-5.29-16.19-5.29,0,0,3.25,9.19-5.86,9.35s-27.33-12.53-34.65-18.06c-7.32-5.53-12.36-12.53-12.36-12.53l14.15-27.82Z"/>
        <path class="cls-1" d="m43.12,21.77c-.54-.98-14.21-8.68-15.83-7.7S3.54,51.48,4.4,53.11c.87,1.63,12.91,9.33,14.64,8.57s24.62-38.93,24.08-39.91Z"/>
        <path class="cls-6" d="m19.05,62.11c1.6-.69,2.42-2.62,3.38-4.02,1.07-1.57,2.09-3.16,3.11-4.77,2.07-3.29,4.14-6.58,6.19-9.89,2.04-3.29,4.05-6.59,6.11-9.87,1.09-1.73,2.06-3.54,3.17-5.26s2.52-3.37,2.98-5.31c.3-1.28-1.26-2.25-2.23-1.3-1.43,1.4-2.14,3.52-3.05,5.27s-1.94,3.43-2.9,5.15c-1.93,3.45-3.93,6.84-5.97,10.22s-3.98,6.5-6.02,9.72c-1.05,1.67-2.1,3.34-3.11,5.03-.47.78-.93,1.56-1.4,2.34-.54.9-.82,1.32-.8,2.38,0,.3.3.42.55.31h0Z"/>
        <path class="cls-6" d="m159.74,147.7c-.18-.19-.39-.33-.63-.4-.23-.12-.48-.18-.75-.17-.35,0-.68.09-.99.27-.45.26-.74.68-.9,1.17-.21.63.01,1.45.5,1.9.38.35.85.57,1.38.57.67,0,1.36-.37,1.69-.97.08-.15.16-.3.19-.46.08-.34.1-.71,0-1.05-.09-.33-.26-.62-.5-.86Z"/>
        <path class="cls-6" d="m166.54,140.66c-.36,0-.73.15-.98.41s-.42.64-.41.98c.02.36.13.73.41.98.27.25.61.41.98.41.36,0,.73-.15.98-.41.24-.24.42-.64.41-.98-.02-.36-.13-.73-.41-.98-.27-.25-.61-.41-.98-.41Z"/>
        <path class="cls-6" d="m165.98,147.88c-1.21,0-1.22,1.89,0,1.89s1.22-1.89,0-1.89Z"/>
        <path class="cls-6" d="m85.43,140.05c-.28-.78-1.29-1.18-2.06-1.13-.47.03-.89.23-1.14.65-.22.38-.26.95,0,1.33.25.35.52.65.89.87.36.21.79.28,1.2.21.22,0,.47-.06.68-.17.48-.16.7-.7.63-1.17-.02-.21-.09-.41-.2-.59Z"/>
        <path class="cls-6" d="m92.61,136.92c.14-.05.26-.12.37-.24.11-.1.19-.23.24-.37.07-.14.1-.28.1-.44-.01-.1-.03-.2-.04-.3-.05-.19-.15-.36-.29-.5-.22-.2-.5-.33-.8-.33-.16,0-.3.03-.44.1-.14.05-.26.12-.37.24-.11.1-.19.23-.24.37-.07.14-.1.28-.1.44.01.1.03.2.04.3.05.19.15.36.29.5.22.2.5.33.8.33.16,0,.3-.03.44-.1Z"/>
        <path class="cls-6" d="m92.46,148.4c-.14,0-.27.02-.39.09-.13.04-.23.11-.33.21-.1.09-.17.2-.21.33-.06.12-.09.25-.09.39.01.26.1.53.3.72.2.18.44.3.72.3.14,0,.27-.02.39-.09.13-.04.23-.11.33-.21.1-.09.17-.2.21-.33.06-.12.09-.25.09-.39-.01-.26-.1-.53-.3-.72-.2-.18-.44-.3-.72-.3Z"/>
        <path class="cls-6" d="m135.85,98.14c-.1-.16-.24-.29-.41-.38,0,0,0,0,0,0,0,0-.01-.01-.02-.01-.01,0-.04-.02-.06-.03-.06-.03-.13-.06-.2-.08-.13-.05-.22-.08-.43-.07,0,0,0,0-.01,0,0,0,0,0-.01,0-.13,0-.27.01-.4.05-.12.05-.23.1-.35.15-.22.13-.4.31-.53.53-.05.12-.1.23-.15.35-.07.26-.07.52,0,.78.05.12.1.23.15.35.13.22.31.4.53.53.17.11.35.16.54.17.19.04.39.03.58-.03.19-.05.36-.13.5-.26.16-.1.29-.24.38-.41.11-.17.17-.35.17-.54.04-.19.03-.39-.03-.58-.05-.19-.13-.36-.26-.5Z"/>
        <path class="cls-6" d="m141.85,92.34s.05-.07.08-.1c.4-.49.4-1.04,0-1.53l-.08-.1c-.7-.86-2.09-.12-2.09.86s1.39,1.71,2.09.86Z"/>
        <path class="cls-6" d="m143.82,98.97c-.05-.14-.13-.27-.24-.38-.08-.06-.16-.12-.24-.18-.09-.04-.19-.08-.28-.12-.1-.01-.21-.03-.31-.04-.1.01-.21.03-.31.04-.09.04-.19.08-.28.12-.14.07-.24.17-.33.3-.07.07-.12.16-.15.26-.07.14-.11.29-.1.45,0,.02,0,.04,0,.07.02.3.1.56.32.78.22.22.48.3.78.32.02,0,.04,0,.07,0,.1-.01.21-.03.31-.04.09-.04.19-.08.28-.12.14-.07.24-.17.33-.3.07-.07.12-.16.15-.26.05-.09.08-.19.08-.29.03-.1.03-.21,0-.31,0-.11-.03-.2-.08-.29Z"/>
      </g>
      <rect class="cls-4" width="200" height="200"/>
    </g>
  </g>
</svg>