<?xml version="1.0" encoding="UTF-8"?>
<svg id="Capa_2" data-name="Capa 2" xmlns="http://www.w3.org/2000/svg" viewBox="0 0 200 200">
  <defs>
    <style>
      .cls-1 {
        fill: #c46127;
      }

      .cls-1, .cls-2, .cls-3, .cls-4, .cls-5, .cls-6, .cls-7 {
        stroke-width: 0px;
      }

      .cls-2 {
        fill: #ebad57;
      }

      .cls-3 {
        fill: none;
      }

      .cls-4 {
        fill: #593737;
      }

      .cls-5 {
        fill: #f9c79c;
      }

      .cls-6 {
        fill: #f9d678;
      }

      .cls-7 {
        fill: #bd5519;
      }
    </style>
  </defs>
  <g id="colorful_icons" data-name="colorful icons">
    <g>
      <g>
        <path class="cls-6" d="m29.88,121.4h139.17s-7.33,27.17-30.67,38.67c-17.45,8.6-52.63,14.95-72.67,2.5-23.33-14.5-29.67-27-31.83-32.17s-4-9-4-9Z"/>
        <path class="cls-4" d="m173.1,105.39c-4.59-.65-9.28-.37-13.91-.37H43.32c-5.28,0-10.77-.37-16.01.37-.77.11-.64,4.91-.55,6.5.64,11.87,5.89,23.48,13.13,32.69,8.06,10.26,19.06,17.76,31.28,22.13-.06.06-.12.12-.18.18-1.53,1.51-3.07,3.02-4.37,4.75-2.27,3.03-3.99,8.2.48,10.15,1.83.8,3.96.91,5.91,1.29,2.24.45,4.49.81,6.75,1.13,13.37,1.83,26.99,1.71,40.38.17,2.29-.26,4.57-.6,6.84-1.03,2.01-.38,4.14-.61,6.11-1.16,1.81-.51,3.41-1.63,3.84-3.55.45-1.96-.43-4.12-1.44-5.77-1.2-1.99-2.87-3.66-4.51-5.29-.44-.44-.88-.9-1.33-1.35,9.26-3.43,17.94-8.57,24.76-15.64,9.86-10.21,15.95-23.65,18.93-37.41.36-1.68.78-3.36.95-5.08.24-2.47-.7-2.66-1.18-2.73Zm-40.18,69.73c.41.79,1.16,2.3.55,3.15-1.27,1.78-4.24,1.88-6.2,2.03-2.91.23-5.8.56-8.71.85-7.37.74-14.79,1-22.2.82-5.06-.12-10.12-.44-15.16-.95-3.93-.4-9.61-.22-13.03-2.46-1.45-.95.12-3.49.81-4.54,1.54-2.33,3.76-4.15,5.74-6.14,13.55,4.12,28.17,4.78,42.04,1.99,3.12-.63,6.25-1.44,9.32-2.42,2.39,2.46,5.23,4.59,6.82,7.67Zm-11.74-10.3c-13.28,3.57-27.68,4.02-41.06.7-12.93-3.2-24.68-9.78-33.87-19.46-8.79-9.25-15.06-21.41-16.57-34.15-.17-1.41-.29-2.83-.4-4.25,3.95.35,8.01.15,11.95.15h115.87c4.43,0,8.94.25,13.37-.09-2.06,12.98-6.89,25.86-15.22,36.15-8.65,10.68-20.91,17.41-34.06,20.95Z"/>
        <g>
          <path class="cls-1" d="m152.46,130.11c.05.18.1.36.14.54-.04-.18-.09-.36-.14-.54Z"/>
          <path class="cls-1" d="m151.83,128.65c.27.49.48.97.62,1.45-.15-.48-.35-.96-.62-1.45Z"/>
          <path class="cls-1" d="m150.51,126.82c.07.08.13.15.2.23-.07-.08-.13-.15-.2-.23Z"/>
          <path class="cls-1" d="m151.05,127.46c.07.09.14.19.21.28-.07-.09-.14-.19-.21-.28Z"/>
          <path class="cls-1" d="m151.49,128.08c.07.11.14.21.2.32-.06-.11-.13-.21-.2-.32Z"/>
          <path class="cls-5" d="m149.88,126.18c.23.22.44.43.63.65-.2-.21-.4-.43-.63-.65Z"/>
          <path class="cls-5" d="m150.71,127.05c.12.14.23.27.34.41-.11-.13-.22-.27-.34-.41Z"/>
          <path class="cls-5" d="m144.43,122.83c.93.41,1.79.84,2.57,1.29-.77-.44-1.63-.87-2.57-1.29Z"/>
          <path class="cls-5" d="m151.26,127.74c.08.11.16.22.23.34-.07-.11-.15-.22-.23-.34Z"/>
          <path class="cls-5" d="m151.69,128.4c.05.08.09.17.14.25-.05-.08-.09-.16-.14-.25Z"/>
          <polygon class="cls-5" points="152.6 130.65 152.6 130.65 152.6 130.65 152.6 130.65"/>
          <path class="cls-5" d="m152.45,130.1s0,0,0,.01c0,0,0,0,0-.01Z"/>
        </g>
        <g>
          <path class="cls-1" d="m50.35,133.67s0,8.43,2.88,11.52c2.88,3.09,10.3,7.35,30.98,1.89s17.01-15.38,16.38-18.47c-.63-3.08-.76-6.82-6.02-8.92s-16.62-1.48-28.35,1.88c-11.73,3.36-16.26,8.69-15.88,12.1Z"/>
          <path class="cls-5" d="m55.65,135.87c7.15.45,18.25-.19,29.25-3.16,10.49-2.83,13.1-6.11,13.91-9.81-.82-1.24-1.45-2.85-3.58-3.7-5.26-2.1-16.62-1.48-28.35,1.88-11.13,3.19-16.41,8.64-16.54,12.05.86,1.37,2.43,2.56,5.31,2.74Z"/>
        </g>
        <g>
          <path class="cls-1" d="m75.49,146.81s-1.07,8.36,1.39,11.79c2.46,3.43,9.28,8.6,30.49,5.82,21.38-2.8,18.84-13.09,18.6-16.23-.23-3.14.12-6.86-4.83-9.61-4.95-2.75-16.3-3.58-28.36-1.75-12.06,1.83-17.23,6.54-17.29,9.98Z"/>
          <path class="cls-5" d="m80.46,149.67c7.03,1.36,18.13,2.14,29.42.6,10.76-1.47,13.77-4.39,15.05-7.95-.66-1.33-1.78-2.61-3.79-3.73-4.95-2.75-16.3-3.58-28.36-1.75-11.44,1.74-16.67,6.06-17.23,9.43.67,1.47,2.09,2.85,4.91,3.4Z"/>
        </g>
        <g>
          <path class="cls-1" d="m105.88,124.07s-3.44,10.33-1.89,14.22,6.78,10.44,27,12.44c20.39,2.02,20.89-11,21.33-14.11s1.56-6.67-2.44-10.44-14.33-7.11-25.89-8c-11.56-.89-17.33,2.56-18.11,5.89Z"/>
          <path class="cls-5" d="m109.88,127.96c6.22,2.89,16.33,6.11,27.11,7.11,10.27.95,13.68-1.23,15.61-4.42-.33-1.44-1.1-2.94-2.72-4.47-4-3.78-14.44-7.72-26-8.61-10.96-.84-16.6,2.82-17.83,5.99.31,1.58,1.33,3.24,3.83,4.4Z"/>
        </g>
        <path class="cls-7" d="m152.6,130.65c-1.93,3.19-5.34,5.37-15.61,4.42-10.78-1-20.89-4.22-27.11-7.11-2.5-1.16-3.52-2.82-3.83-4.4.07-.18.16-.36.26-.53-.19.35-.34.7-.42,1.05,0,0-2.39,7.17-2.29,11.81.02.93.14,1.76.4,2.41,1.15,2.88,4.33,7.23,14.13,10.1-2.07.76-4.74,1.39-8.24,1.87-11.29,1.54-22.39.77-29.42-.6-1.19-.23-2.12-.62-2.86-1.09-1.01-.65-1.66-1.46-2.05-2.31.03-.19.08-.38.14-.58,0-.03.01-.05.02-.08.06-.18.14-.36.22-.54.02-.05.04-.09.06-.14.08-.17.18-.34.29-.51.04-.06.08-.12.12-.19.11-.16.23-.32.35-.48.06-.08.12-.15.18-.23.13-.15.26-.3.41-.45.08-.09.17-.17.26-.26.14-.14.3-.28.46-.42.11-.1.22-.19.34-.28.16-.13.33-.26.5-.39.14-.1.28-.2.43-.3.18-.12.36-.24.55-.36.17-.11.34-.21.52-.31.19-.11.39-.23.59-.34.2-.11.4-.21.61-.32.21-.1.42-.21.64-.31.23-.11.47-.21.71-.31.22-.1.44-.19.68-.28.26-.11.54-.21.82-.31.24-.09.47-.17.71-.26.3-.1.63-.2.94-.3.24-.08.48-.15.74-.23.35-.1.72-.19,1.09-.29.25-.06.48-.13.74-.19.42-.1.87-.19,1.31-.28.22-.05.44-.1.67-.14.68-.13,1.39-.26,2.13-.37,1.51-.23,3-.42,4.48-.56,1.2-.12,2.38-.21,3.55-.27,1.02-3.17.07-5.99-.21-7.39-.38-1.83-.58-3.89-1.78-5.71-.81,3.7-3.43,6.98-13.91,9.81-11,2.97-22.11,3.62-29.25,3.16-2.87-.18-4.45-1.37-5.31-2.74,0-.19.03-.39.07-.59-.07.4-.1.78-.06,1.14,0,0,0,8.43,2.88,11.52,2.42,2.6,8.05,6.02,22.08,3.8-.14,2.72-.1,7.3,1.57,9.62,2.46,3.43,9.28,8.6,30.49,5.82,18.06-2.36,19.05-10.07,18.78-14.3,1.51.23,3.12.44,4.84.61,20.39,2.02,20.89-11,21.33-14.11.26-1.85.76-3.86.28-5.97Zm-27.67,11.66s0,0,0,0c0,0,0,0,0,0h0Z"/>
        <path class="cls-2" d="m103.99,138.29c-.26-.65-.38-1.48-.4-2.41-.65.02-1.31.04-1.98.07-.26.01-.53.03-.8.05-1.17.07-2.35.15-3.55.27-1.47.15-2.97.33-4.48.56-.74.11-1.44.24-2.13.37-.23.04-.44.1-.67.14-.44.09-.89.18-1.31.28-.25.06-.49.13-.74.19-.37.09-.74.19-1.09.29-.25.07-.49.15-.74.23-.32.1-.64.2-.94.3-.24.08-.48.17-.71.26-.28.1-.56.2-.82.31-.23.09-.45.19-.68.28-.24.1-.48.21-.71.31-.22.1-.43.21-.64.31-.21.1-.42.21-.61.32-.2.11-.4.22-.59.34-.18.1-.35.21-.52.31-.19.12-.37.24-.55.36-.15.1-.29.2-.43.3-.18.13-.34.26-.5.39-.12.09-.23.19-.34.28-.16.14-.31.28-.46.42-.09.09-.17.17-.26.26-.14.15-.28.3-.41.45-.06.08-.12.15-.18.23-.13.16-.25.32-.35.48-.04.06-.08.12-.12.19-.11.17-.21.34-.29.51-.02.05-.04.09-.06.14-.08.18-.16.36-.22.54,0,.03-.01.05-.02.08-.06.2-.11.39-.14.58.39.85,1.04,1.66,2.05,2.31q2.04-.39,0,0c.74.47,1.67.86,2.86,1.09,7.03,1.36,18.13,2.14,29.42.6,3.5-.48,6.17-1.11,8.24-1.87-9.8-2.87-12.98-7.22-14.13-10.1Z"/>
        <g>
          <path class="cls-2" d="m64.16,122.2c-.22.07-.42.15-.64.22-.43.15-.86.3-1.27.45-.24.09-.47.19-.71.28-.35.14-.71.28-1.04.42-.24.1-.47.21-.7.32-.3.14-.61.28-.9.42-.23.11-.45.23-.67.34-.26.14-.53.27-.78.41-.22.12-.42.24-.63.37-.23.13-.46.27-.67.4-.2.13-.4.26-.59.39-.19.13-.39.26-.57.39-.19.14-.37.27-.54.41-.16.13-.32.25-.47.38-.17.14-.34.29-.5.43-.13.12-.26.24-.38.35-.16.15-.31.3-.45.45-.1.11-.2.22-.3.33-.14.16-.27.31-.4.47-.08.1-.15.19-.22.29-.12.17-.24.33-.35.49-.05.08-.1.17-.15.25-.1.17-.2.35-.29.52-.03.07-.06.13-.09.2-.08.18-.16.36-.22.54-.02.05-.03.1-.05.15-.06.19-.12.38-.15.56,0,.03,0,.05-.01.08-.04.2-.06.4-.07.59.86,1.37,2.43,2.56,5.31,2.74,7.15.45,18.25-.19,29.25-3.16,10.49-2.83,13.1-6.11,13.91-9.81,0,0,0,0,0,0-.1-.15-.21-.3-.33-.45,0,0,0,0,0-.01-.28-.36-.62-.7-1-1.03h-30.65c-.2.06-.4.11-.61.17-.72.2-1.4.42-2.06.64Z"/>
          <path class="cls-2" d="m107.13,121.92c-.13.14-.26.28-.38.43-.03.04-.06.08-.09.12-.12.16-.23.32-.32.48-.01.02-.02.05-.04.07-.1.18-.19.36-.26.53.31,1.58,1.33,3.24,3.83,4.4,6.22,2.89,16.33,6.11,27.11,7.11,10.27.95,13.68-1.23,15.61-4.42,0,0,0,0,0,0-.04-.18-.09-.36-.14-.54,0,0,0,0,0-.01-.15-.48-.35-.96-.62-1.45-.05-.08-.09-.16-.14-.25-.06-.11-.13-.21-.2-.32-.07-.11-.15-.22-.23-.34-.07-.09-.14-.19-.21-.28-.11-.13-.22-.27-.34-.41-.07-.08-.13-.15-.2-.23-.2-.21-.4-.43-.63-.65-.75-.71-1.72-1.4-2.88-2.06-.77-.44-1.63-.87-2.57-1.29-1.14-.5-2.4-.98-3.74-1.43h-33.02c-.14.12-.28.24-.4.36-.05.05-.1.1-.15.16Z"/>
        </g>
        <path class="cls-4" d="m142.31,131.76c.28.16.58.25.91.25.33,0,.63-.08.91-.25.04-.03.08-.06.12-.09.26-.15.46-.35.61-.61.15-.27.23-.55.23-.86,0-.31-.08-.59-.23-.86-.15-.26-.35-.46-.61-.61-.04-.03-.08-.06-.12-.09-.28-.16-.58-.25-.91-.25-.33,0-.63.08-.91.25-.55.32-.89.92-.89,1.56s.34,1.24.89,1.56Z"/>
        <path class="cls-4" d="m159.55,125.56c-.12-.1-.25-.19-.37-.29-.29-.17-.6-.25-.93-.25-.25,0-.49.04-.71.16-.23.07-.43.2-.59.38-.18.17-.31.37-.38.59-.12.22-.17.46-.16.71.02.16.04.33.07.49.09.31.25.58.48.82.12.1.25.19.37.29.29.17.6.25.93.25.25,0,.49-.04.71-.16.23-.07.43-.2.59-.38.18-.17.31-.37.38-.59.12-.22.17-.46.16-.71-.02-.16-.04-.33-.07-.49-.09-.31-.25-.58-.48-.82Z"/>
        <path class="cls-4" d="m154.7,137.16c-2.05,0-2.06,3.19,0,3.19s2.06-3.19,0-3.19Z"/>
        <path class="cls-4" d="m76.84,127.91c-2.42,0-2.42,3.75,0,3.75s2.42-3.75,0-3.75Z"/>
        <path class="cls-4" d="m99.8,149.96c2.32,0,2.32-3.61,0-3.61s-2.32,3.61,0,3.61Z"/>
        <path class="cls-4" d="m46.61,129.36c-.07-.2-.18-.38-.34-.53-.07-.07-.14-.15-.21-.22-.49-.52-1.41-.52-1.9,0-.07.07-.14.15-.21.22-.19.2-.34.46-.42.72-.07.22-.08.44-.03.65,0,.15.04.29.11.41.04.14.11.26.21.36.07.12.17.22.29.29.1.1.22.17.36.21.2.1.41.15.63.14.28-.01.58-.08.83-.22.23-.14.45-.36.59-.59.06-.13.11-.26.17-.39.07-.22.08-.44.03-.65,0-.15-.04-.29-.11-.41Z"/>
        <path class="cls-4" d="m65.36,142c-.67,0-.67,1.03,0,1.03s.67-1.03,0-1.03Z"/>
        <path class="cls-4" d="m68.98,153.5l-.38-.29c-.29-.17-.61-.26-.95-.26-.26,0-.5.04-.72.16-.23.08-.43.21-.6.39-.18.17-.31.37-.39.6-.12.22-.17.46-.16.72.02.17.04.33.07.5.09.32.25.59.48.83.13.1.25.2.38.29.29.17.61.26.95.26.26,0,.5-.04.72-.16.23-.08.43-.2.6-.39.18-.17.31-.37.39-.6.12-.22.17-.46.16-.72l-.07-.5c-.09-.32-.25-.59-.48-.83Z"/>
        <path class="cls-4" d="m129.41,139.84c.08.06.17.13.25.19.19.11.4.17.62.17.17,0,.33-.03.47-.11.15-.05.28-.13.39-.25.12-.11.2-.24.25-.39.08-.15.11-.3.11-.47-.01-.11-.03-.22-.04-.33-.06-.21-.16-.39-.32-.54-.08-.06-.17-.13-.25-.19-.19-.11-.4-.17-.62-.17-.17,0-.33.03-.47.11-.15.05-.28.13-.39.25-.12.11-.2.24-.25.39-.08.15-.11.3-.11.47.01.11.03.22.04.33.06.21.16.39.32.54Z"/>
        <path class="cls-4" d="m137.16,146c1.26,0,1.26-1.95,0-1.95s-1.26,1.95,0,1.95Z"/>
      </g>
      <rect class="cls-3" width="200" height="200"/>
    </g>
  </g>
</svg>