<?xml version="1.0" encoding="UTF-8"?>
<svg id="Capa_2" data-name="Capa 2" xmlns="http://www.w3.org/2000/svg" viewBox="0 0 200 200">
  <defs>
    <style>
      .cls-1 {
        fill: #f2aeae;
      }

      .cls-1, .cls-2, .cls-3, .cls-4 {
        stroke-width: 0px;
      }

      .cls-2 {
        fill: none;
      }

      .cls-3 {
        fill: #593737;
      }

      .cls-4 {
        fill: #6bb262;
      }
    </style>
  </defs>
  <g id="colorful_icons" data-name="colorful icons">
    <g>
      <g>
        <path class="cls-1" d="m63.81,53.32s6.35-7.74,13.72-5.34c7.37,2.39,8.29,12.16,15.38,18.33,8.53,7.42,11.42,3.5,13.45-.55s1.93-10.68,6.63-12.06c3.71-1.09,7.09,4.05,10.41.92s3.78-8.66,7.46-9.39c3.68-.74,4.97,1.66,4.97,1.66,0,0-.74,54.15-2.76,59.68s-3.5,6.08-20.08,8.29c-16.58,2.21-41.44-1.29-44.2-3.5-2.76-2.21-2.76-13.45-3.87-22.65-1.11-9.21-1.11-35.36-1.11-35.36Z"/>
        <path class="cls-3" d="m136.53,31.22c-.76,0-1.38-.05-2.13-.05.01,3.26-.92,61.84-1.98,72.25-.18,1.81-1.03,4.79-2.45,6.06-.76.69-1.69,1.15-2.64,1.54-5.46,2.24-11.67,2.57-17.5,2.78-7.47.28-14.93.4-22.39-.21-2.89-.23-5.76-.6-8.64-.93-2.55-.29-5.22-.78-7.54-1.93-1.57-.74-2.76-1.78-3.28-3.43-.58-1.81-.79-4.91-.9-6.78-.69-11.79-1.78-56.63-1.89-59.63-.06-1.69-.12-6.7-.18-8.4-.02-.44-.02-.89-.03-1.35-.77-.01-1.55-.02-2.32-.04-.11,2.74.08,8.86.09,11.55.01,3.94,0,7.88,0,11.82-.01,8.06.09,16.12.15,24.18.06,7.75.24,15.5,1.3,23.19.42,3.07.79,6.46,2.88,8.91,2,2.35,7.56,3.33,10.48,3.96.1.02.2.04.3.06-.14,5.09-.48,10.38-.41,13.35.93-.05,33.88-.19,43.58-.23,0,0,0,0,0,.01,1.07,0-.35,0,.71,0,.08-2.92.19-10.24-.41-13.13.1-.02.2-.04.3-.06,2.91-.63,8.48-1.62,10.48-3.96,2.09-2.46,2.46-5.84,2.88-8.91,1.06-7.69,1.25-15.44,1.3-23.19.06-8.06.16-16.12.15-24.18,0-3.94-.01-7.88,0-11.82,0-2.65.19-8.72.09-11.42Z"/>
        <path class="cls-4" d="m138.36,182.02s-.97-19.2-4.14-35.36c-3.18-16.16-8.56-19.06-12.02-20.17-2.39-.77-42.64-.77-45.03,0-3.45,1.11-8.84,4.01-12.02,20.17-3.18,16.16-4.14,35.36-4.14,35.36,0,0-6.35.96-6.35,5.25,0,4.56,2.35,5.66,11.19,5.94,6.38.2,24.34.11,33.84.05,9.51.06,27.46.15,33.84-.05,8.84-.28,11.19-1.38,11.19-5.94,0-4.28-6.35-5.25-6.35-5.25Z"/>
        <path class="cls-3" d="m88.95,17.5s-.28-8.1-.09-9.12,1.2-2.3,2.95-2.49,16.52-.38,17.68.46c2.3,1.66,1.29,9.95,1.2,11.14s-21.73,0-21.73,0Z"/>
        <path class="cls-3" d="m91.01,82.3c.93.33,1.98-.29,2.17-1.25.17-.87-.33-1.85-1.27-1.96-1.66-.2-2.6,2.62-.9,3.21Zm.06-1.98c.35-.45,1.16-.45,1.09.45-.03.39-.29.67-.69.69-.6.02-.69-.76-.4-1.13Z"/>
        <path class="cls-3" d="m103.38,102.56c.93.33,1.98-.29,2.17-1.25.17-.88-.33-1.85-1.27-1.96-1.66-.2-2.6,2.62-.9,3.21Zm.06-1.98c.35-.45,1.16-.45,1.09.45-.03.39-.29.67-.69.69-.6.02-.69-.76-.4-1.13Z"/>
        <path class="cls-3" d="m105.14,85.05c1.09.29,2.1-.45,2.3-1.53.02-.1.03-.2.03-.3.04-1.23-1.11-2.25-2.38-1.81-1.61.56-1.7,3.18.05,3.64Zm-.06-2.12s.02-.05.04-.08c.85-1.53,2.44.54,1.15,1.28-.85.48-1.54-.42-1.18-1.21Z"/>
        <path class="cls-3" d="m114.5,73.33c.4-.96-.05-2.19-1.13-2.41-1.54-.31-2.79,1.79-1.59,2.93.85.8,2.26.56,2.72-.52Zm-2.13-1.34c.73-.42,1.61-.04,1.4.86-.36,1.59-2.58-.17-1.4-.86Z"/>
        <path class="cls-3" d="m84.05,70.13c.4-.96-.05-2.19-1.13-2.41-1.54-.31-2.79,1.79-1.59,2.93.85.8,2.26.56,2.72-.52Zm-2.13-1.34c.73-.42,1.61-.04,1.4.86-.36,1.59-2.58-.17-1.4-.86Z"/>
        <path class="cls-3" d="m109.81,88.82c.28-.66-.03-1.5-.78-1.65-1.06-.21-1.92,1.23-1.09,2.01.58.55,1.55.38,1.86-.36Zm-1.46-.92c.5-.29,1.1-.02.96.59-.25,1.09-1.77-.12-.96-.59Z"/>
        <path class="cls-3" d="m84.92,65.41c.28-.66-.03-1.5-.78-1.65-1.06-.21-1.92,1.23-1.09,2.01.58.55,1.55.38,1.86-.36Zm-1.46-.92c.5-.29,1.1-.02.96.59-.25,1.09-1.77-.12-.96-.59Z"/>
        <path class="cls-3" d="m116.7,67.66c.28-.66-.03-1.5-.78-1.65-1.06-.21-1.92,1.23-1.09,2.01.58.55,1.55.38,1.86-.36Zm-1.46-.92c.5-.29,1.1-.02.96.59-.25,1.09-1.77-.12-.96-.59Z"/>
        <path class="cls-3" d="m95.9,100.74c.28-.66-.03-1.5-.78-1.65-1.06-.21-1.92,1.23-1.09,2.01.58.55,1.55.38,1.86-.36Zm-1.46-.92c.5-.29,1.1-.02.96.59-.25,1.09-1.77-.12-.96-.59Z"/>
        <path class="cls-3" d="m122.77,80.11c.28-.66-.03-1.5-.78-1.65-1.06-.21-1.92,1.23-1.09,2.01.58.55,1.55.38,1.86-.36Zm-1.46-.92c.5-.29,1.1-.02.96.59-.25,1.09-1.77-.12-.96-.59Z"/>
        <path class="cls-3" d="m88.71,92.49c.4-.96-.05-2.19-1.13-2.41-1.54-.31-2.79,1.79-1.59,2.93.85.8,2.26.56,2.72-.52Zm-2.13-1.34c.73-.42,1.61-.04,1.4.86-.36,1.59-2.58-.17-1.4-.86Z"/>
        <path class="cls-3" d="m83.34,158.67c-2.02-.68-4.44-.24-5.9,1.37-1.32,1.46-1.59,3.62-.98,5.46.22.96.73,1.85,1.55,2.54,1.51,1.29,3.64,1.76,5.5,1,1.86-.76,3.3-2.52,3.64-4.53.44-2.61-1.42-5.03-3.81-5.84Zm-4.32,7.68c-.8-.69-1.19-1.76-1.13-2.79.03-.53.15-1.02.36-1.46.61-1.31,1.93-2.18,3.55-2.12,1.76.07,3.17,1.28,3.27,3.01.15,2.77-3.61,5.46-6.04,3.36Z"/>
        <path class="cls-3" d="m120.65,152.44c-1.12-1.28-2.5-2.39-4.11-3.01-6.36-2.43-14.08.68-16.93,6.75-1.58,3.37-1.4,7.31-.03,10.72.11.27.22.54.35.8,1.83,3.91,5.16,6.28,9.46,7.07.24.05.49.08.74.12,3.08.41,6.21-.28,8.7-2.13,6.52-4.85,7.03-14.35,1.83-20.3Zm-20.02,6.36c1.2-6.32,7.7-9.67,13.98-8.68,1.04.24,2.04.64,2.97,1.21-2.97,1.74-5.6,4.23-8.15,6.51-1.38,1.24-2.76,2.48-4.19,3.66-1.33,1.1-2.9,2.07-4.11,3.29-.69-1.92-.88-4-.5-6Zm.67,6.46s0,0,0,0c0,0,0,0,0,0,0,0,0,0,0,0Zm2.28,3.57c-.7-.74-1.29-1.57-1.76-2.46,1.2-.82,2.27-1.79,3.38-2.75,1.52-1.31,3.06-2.59,4.61-3.87,1.52-1.25,3.03-2.49,4.55-3.74,1.51-1.24,3.05-2.45,4.45-3.8.05.04.09.08.14.12.76.77,1.37,1.65,1.86,2.61-.72.47-1.4.94-2.09,1.48-.81.64-1.61,1.29-2.41,1.95-1.56,1.28-3.11,2.56-4.67,3.84-1.56,1.28-3.11,2.56-4.67,3.84-.76.62-1.52,1.25-2.28,1.87-.38.31-.77.59-1.12.91Zm11.54,2.66c-3.29,1.1-6.86.75-9.68-1.1,5.71-3.89,11.05-8.45,16.32-12.92.49,1.89.6,3.89.36,5.73-.5,3.92-3.16,7-7,8.29Z"/>
        <path class="cls-3" d="m120.95,116.12s.08-.02.11-.03c0,0,0,0,0-.01-.02,0-.04,0-.06.01-.04.02-.07.03-.05.02Z"/>
        <path class="cls-3" d="m132.45,140.52c-.1-.34-.2-.68-.3-1.02-2.35-.13-9.7-.04-12.03-.06-3.15-.02-6.3-.02-9.44-.02-3.72,0-7.44.02-11.16.04-6.29-.03-12.58-.06-18.87-.03-3.08.02-10.41-.15-13.5.11-.06.3-.11.61-.16.91,2.66.23,9.52.11,12.18.13,3.15.02,6.3.02,9.44.02,3.72,0,7.44-.02,11.16-.04,6.29.03,12.58.06,18.87.03,2.91-.02,10.88.13,13.81-.08Z"/>
        <path class="cls-4" d="m61.14,31.68h76.9s1.57-10.31,1.29-12.52-21.83-4.7-36.56-4.79-24.5.83-31.4,1.84-11.21,2.03-11.33,3.13c-.46,4.24,1.11,12.34,1.11,12.34Z"/>
        <path class="cls-3" d="m61.6,32.19c2.45.31,5.03.19,7.5.19s5.02,0,7.53,0h15.11c9.95,0,19.9.01,29.85.01,2.85,0,5.7.04,8.55.06,1.35.01,2.71.03,4.06,0s2.67.09,3.88-.58c.29-.16.29-.62,0-.78-.99-.55-1.95-.55-3.06-.57-1.29-.02-2.57-.02-3.86-.01l-7.53.06c-5.04.04-10.07.01-15.11.01-9.95,0-19.9,0-29.85,0-2.85,0-5.7,0-8.55,0-2.8,0-5.74-.16-8.52.19-.89.11-.89,1.28,0,1.39h0Z"/>
        <path class="cls-3" d="m61.28,182.69c2.55,0,5.08-.07,7.64-.01s4.96.02,7.43.03c5.02.01,10.05.02,15.07.02,10.05,0,20.1,0,30.14,0,5.62,0,11.33.3,16.93-.21.44-.04.44-.64,0-.68-4.99-.45-10.06-.21-15.07-.21s-10.05,0-15.07,0c-10.05,0-20.1-.02-30.14,0l-8.26.02c-1.38,0-2.75.09-4.13.11-1.52.02-3.03-.11-4.54-.11-.68,0-.68,1.05,0,1.05h0Z"/>
      </g>
      <rect class="cls-2" width="200" height="200"/>
    </g>
  </g>
</svg>