<?xml version="1.0" encoding="UTF-8"?>
<svg id="Capa_2" data-name="Capa 2" xmlns="http://www.w3.org/2000/svg" viewBox="0 0 200 200">
  <defs>
    <style>
      .cls-1 {
        fill: #f1a5a5;
      }

      .cls-1, .cls-2, .cls-3, .cls-4, .cls-5, .cls-6 {
        stroke-width: 0px;
      }

      .cls-2 {
        fill: none;
      }

      .cls-3 {
        fill: #593737;
      }

      .cls-4 {
        fill: #e34b4b;
      }

      .cls-5 {
        fill: #f6ac6b;
      }

      .cls-6 {
        fill: #f3b200;
      }
    </style>
  </defs>
  <g id="colorful_icons" data-name="colorful icons">
    <g>
      <g>
        <path class="cls-5" d="m51.95,174.63c2.14.58,4.04,1.5,6.01,2.51,2.09,1.06,4.25,1.9,6.47,2.63,4.54,1.5,9.24,2.38,13.99,2.89,15.44,1.67,31.34.42,45.23-7.08,6.81-3.68,13.35-8.67,18.22-14.73,1.35-1.69,2.72-3.44,4-5.27,1.66-2.89,3.11-5.91,4.33-9.02-1.11.19-2.36.33-3.74.4-.17.02-.34.02-.51.03-5.91.22-7.18-4.43-12.46-6.12-5.28-1.69-7.81,2.96-16.47,5.49-8.66,2.53-10.14-6.98-21.55-8.66-11.41-1.69-17.53,13.94-28.94,13.94s-11.83-13.1-23.03-13.73c-5.31-.3-9.44,2.98-12.33,6.56-.8.99-1.5,2.01-2.11,2.98h0c2.03,5.19,4.9,10.06,8.27,14.33,4.02,5.12,8.87,9.45,14.29,12.93.1-.07.22-.1.35-.06Z"/>
        <g>
          <g>
            <g>
              <path class="cls-3" d="m86.72,149.55c-.17-2.23-.42-4.46-.75-6.68-.57-3.78-1.48-7.5-2.38-11.23-.83-3.41-1.86-6.79-2.65-10.2-.9-3.92-1.38-7.85-1.8-11.81-.12-1.13-.21-2.25-.27-3.38-.02-.35-.67-.37-.67-.02,0,.06,0,.12,0,.18-.2-.05-.46.03-.46.25.03,2.11-.11,4.22-.14,6.32-.04,2.21.06,4.42.12,6.62.12,4.4.29,8.81.49,13.21.2,4.44.4,8.88.57,13.32.17,4.42.42,8.84.49,13.26.03,2.17,0,4.35-.1,6.52-.03.7-.09,1.4-.15,2.1-.35.12-.72.22-1.11.29-.76.13-1.53.13-2.29.03-.32-.96-.57-1.93-.75-2.91-.39-2.13-.45-4.28-.46-6.43-.02-4.41.34-8.81.68-13.2.34-4.38.53-8.77.79-13.16.26-4.43.57-8.85,1.01-13.27.17-1.71.37-3.41.4-5.13.02-1.51-.01-3.03,0-4.54,0-.98.01-1.96-.02-2.94,0-.1-.18-.1-.19,0-.05.35-.08.7-.12,1.06,0-.45,0-.89-.02-1.33,0-.06-.06-.08-.12-.08-.08-.16-.41-.15-.42.06-.05,2.65-.32,5.29-.82,7.91-.51,2.67-1.28,5.29-2.06,7.91-1.54,5.14-3.35,10.23-4.76,15.4-1.32,4.86-2.36,9.79-2.79,14.77-.35,4.04-.27,8.69,2.5,12.24.58.74,1.24,1.43,1.99,2.03.91,1.65,2.29,3.04,4.49,3.66.3.08.6.14.9.18.32.42.77.82,1.32.98.77.22,1.47-.17,1.85-.71.19-.27.3-.57.37-.89.35-.19.69-.41.99-.67.91-.78,1.56-1.74,2.05-2.75,1.1-1.06,1.94-2.31,2.62-3.57,1.06-1.95,1.61-4.04,1.8-6.16.21-2.4.03-4.83-.16-7.22Zm-7.02,1.59c-.19-4.64-.35-9.27-.56-13.91-.28-6.18-.64-12.38-.76-18.57.53,4.74,1.45,9.47,2.29,14.15,1.57,8.73,3.2,17.55,2.71,26.4-.12,2.16-.37,4.33-1.19,6.39-.06.15-.12.3-.19.46-.67.68-1.46,1.28-2.37,1.7.08-.97.15-1.95.2-2.92.23-4.57.06-9.14-.13-13.7Zm-.73,17.49c-.02.21-.04.41-.07.62-.02.13-.03.27-.05.41-.24.11-.5.21-.77.29-.56.16-1.13.2-1.68.17-.24-.37-.4-.78-.55-1.18,1.06.1,2.13,0,3.12-.3Zm-2.2-56.27c-.04,1.44-.08,2.89-.22,4.33-.45,4.54-.89,9.07-1.2,13.61-.31,4.58-.49,9.16-.84,13.74-.35,4.54-.8,9.08-.86,13.64-.03,2.22.01,4.45.31,6.65.14,1.06.35,2.12.64,3.16.06.22.13.45.19.68-1.51-.37-2.9-1.13-3.98-2.04-.63-1.27-.97-2.65-1.26-3.97-1.96-8.86-.05-17.92,2.38-26.56,2.16-7.65,4.15-15.38,4.82-23.23Zm-9.39,48.1c-.58-2.03-.7-4.12-.62-6.19.18-4.73,1.12-9.46,2.26-14.09,1.25-5.05,2.89-10.03,4.46-15.02.86-2.73,1.65-5.49,2.25-8.27-.93,5.66-2.36,11.26-3.88,16.84-2.4,8.8-4.63,17.8-3.15,26.86.23,1.38.51,2.97,1.06,4.48-1.17-1.37-1.94-3.03-2.39-4.62Zm4.6,7.43c-.1-.12-.19-.23-.28-.35.71.43,1.5.79,2.35,1.05.32.1.64.17.97.23.14.41.31.8.52,1.18-1.42-.31-2.71-1.14-3.55-2.11Zm6.47,2.78c-.4.47-.97.49-1.46.1-.07-.05-.13-.11-.19-.17.66-.01,1.3-.13,1.91-.35-.06.15-.14.29-.25.41Zm1.07-1.38c.03-.29.04-.58.06-.86.39-.15.76-.34,1.12-.55.17-.1.33-.21.5-.32-.44.66-.99,1.27-1.68,1.73Zm6.44-11.04c-.36,2.17-1.23,4.24-2.56,6.13-.08.11-.16.22-.24.33.05-.17.11-.34.15-.52.6-2.13.77-4.33.83-6.51.06-2.26,0-4.52-.16-6.78-.31-4.5-.99-8.97-1.75-13.43-1.27-7.42-2.78-14.84-3.3-22.32.16,1.08.34,2.16.56,3.23.67,3.37,1.53,6.71,2.43,10.05.92,3.4,1.84,6.78,2.54,10.22.87,4.27,1.4,8.59,1.65,12.91.12,2.23.22,4.47-.15,6.68Z"/>
              <path class="cls-3" d="m74.23,101.11c.65-.95,3.05-1.53,4.74-.89s2.05,2.32,1.82,4.83c-.18,1.89-.3,4.27-1.13,5.89-.61,1.19-2.5,1.37-3.43.74s-1.23-1.19-1.52-2.36-1.55-6.64-.48-8.21Z"/>
            </g>
            <path class="cls-3" d="m74.59,51.6c0,.39,1.21,54.04,1.21,54.04l2.43-.65-.13-52.88-3.51-.52Z"/>
          </g>
          <g>
            <g>
              <path class="cls-3" d="m112.61,149.55c-.17-2.23-.42-4.46-.75-6.68-.57-3.78-1.48-7.5-2.38-11.23-.83-3.41-1.86-6.79-2.65-10.2-.9-3.92-1.38-7.85-1.8-11.81-.12-1.13-.21-2.25-.27-3.38-.02-.35-.67-.37-.67-.02,0,.06,0,.12,0,.18-.2-.05-.46.03-.46.25.03,2.11-.11,4.22-.14,6.32-.04,2.21.06,4.42.12,6.62.12,4.4.29,8.81.49,13.21.2,4.44.4,8.88.57,13.32.17,4.42.42,8.84.49,13.26.03,2.17,0,4.35-.1,6.52-.03.7-.09,1.4-.15,2.1-.35.12-.72.22-1.11.29-.76.13-1.53.13-2.29.03-.32-.96-.57-1.93-.75-2.91-.39-2.13-.45-4.28-.46-6.43-.02-4.41.34-8.81.68-13.2.34-4.38.53-8.77.79-13.16.26-4.43.57-8.85,1.01-13.27.17-1.71.37-3.41.4-5.13.02-1.51-.01-3.03,0-4.54,0-.98.01-1.96-.02-2.94,0-.1-.18-.1-.19,0-.05.35-.08.7-.12,1.06,0-.45,0-.89-.02-1.33,0-.06-.06-.08-.12-.08-.08-.16-.41-.15-.42.06-.05,2.65-.32,5.29-.82,7.91-.51,2.67-1.28,5.29-2.06,7.91-1.54,5.14-3.35,10.23-4.76,15.4-1.32,4.86-2.36,9.79-2.79,14.77-.35,4.04-.27,8.69,2.5,12.24.58.74,1.24,1.43,1.99,2.03.91,1.65,2.29,3.04,4.49,3.66.3.08.6.14.9.18.32.42.77.82,1.32.98.77.22,1.47-.17,1.85-.71.19-.27.3-.57.37-.89.35-.19.69-.41.99-.67.91-.78,1.56-1.74,2.05-2.75,1.1-1.06,1.94-2.31,2.62-3.57,1.06-1.95,1.61-4.04,1.8-6.16.21-2.4.03-4.83-.16-7.22Zm-7.02,1.59c-.19-4.64-.35-9.27-.56-13.91-.28-6.18-.64-12.38-.76-18.57.53,4.74,1.45,9.47,2.29,14.15,1.57,8.73,3.2,17.55,2.71,26.4-.12,2.16-.37,4.33-1.19,6.39-.06.15-.12.3-.19.46-.67.68-1.46,1.28-2.37,1.7.08-.97.15-1.95.2-2.92.23-4.57.06-9.14-.13-13.7Zm-.73,17.49c-.02.21-.04.41-.07.62-.02.13-.03.27-.05.41-.24.11-.5.21-.77.29-.56.16-1.13.2-1.68.17-.24-.37-.4-.78-.55-1.18,1.06.1,2.13,0,3.12-.3Zm-2.2-56.27c-.04,1.44-.08,2.89-.22,4.33-.45,4.54-.89,9.07-1.2,13.61-.31,4.58-.49,9.16-.84,13.74-.35,4.54-.8,9.08-.86,13.64-.03,2.22.01,4.45.31,6.65.14,1.06.35,2.12.64,3.16.06.22.13.45.19.68-1.51-.37-2.9-1.13-3.98-2.04-.63-1.27-.97-2.65-1.26-3.97-1.96-8.86-.05-17.92,2.38-26.56,2.16-7.65,4.15-15.38,4.82-23.23Zm-9.39,48.1c-.58-2.03-.7-4.12-.62-6.19.18-4.73,1.12-9.46,2.26-14.09,1.25-5.05,2.89-10.03,4.46-15.02.86-2.73,1.65-5.49,2.25-8.27-.93,5.66-2.36,11.26-3.88,16.84-2.4,8.8-4.63,17.8-3.15,26.86.23,1.38.51,2.97,1.06,4.48-1.17-1.37-1.94-3.03-2.39-4.62Zm4.6,7.43c-.1-.12-.19-.23-.28-.35.71.43,1.5.79,2.35,1.05.32.1.64.17.97.23.14.41.31.8.52,1.18-1.42-.31-2.71-1.14-3.55-2.11Zm6.47,2.78c-.4.47-.97.49-1.46.1-.07-.05-.13-.11-.19-.17.66-.01,1.3-.13,1.91-.35-.06.15-.14.29-.25.41Zm1.07-1.38c.03-.29.04-.58.06-.86.39-.15.76-.34,1.12-.55.17-.1.33-.21.5-.32-.44.66-.99,1.27-1.68,1.73Zm6.44-11.04c-.36,2.17-1.23,4.24-2.56,6.13-.08.11-.16.22-.24.33.05-.17.11-.34.15-.52.6-2.13.77-4.33.83-6.51.06-2.26,0-4.52-.16-6.78-.31-4.5-.99-8.97-1.75-13.43-1.27-7.42-2.78-14.84-3.3-22.32.16,1.08.34,2.16.56,3.23.67,3.37,1.53,6.71,2.43,10.05.92,3.4,1.84,6.78,2.54,10.22.87,4.27,1.4,8.59,1.65,12.91.12,2.23.22,4.47-.15,6.68Z"/>
              <path class="cls-3" d="m100.12,101.11c.65-.95,3.05-1.53,4.74-.89s2.05,2.32,1.82,4.83c-.18,1.89-.3,4.27-1.13,5.89-.61,1.19-2.5,1.37-3.43.74s-1.23-1.19-1.52-2.36-1.55-6.64-.48-8.21Z"/>
            </g>
            <path class="cls-3" d="m100.48,51.6c0,.39,1.21,54.04,1.21,54.04l2.43-.65-.13-52.88-3.51-.52Z"/>
          </g>
          <g>
            <g>
              <path class="cls-3" d="m87.92,15.54s-6.7-6.43-8.89-5.33-9.98,10.39-8.48,13.4,6.43,4.65,6.43,4.65l10.94-12.71Z"/>
              <path class="cls-4" d="m175.71,57.16c-1.3-10.16-6.79-25.91-18.59-37.44C140.09,3.09,114.05-2.79,89.97,11.11c-11.27,6.49-17.3,17.28-20.52,27.72-3.67,11.89-2.5,23.07-2.39,27.24.2,7.83,1.18,14.88,6.07,14.49,0,0,32.3,1.81,37.39.63,5.09-1.17,2.4-5.42,5.34-9.15,2.94-3.72,13.02-3.47,27.9-3.67,14.88-.19,28.34,2.05,31.28-2.64.91-1.44,1.26-4.07.68-8.58Zm-42.28-39.97c15.27,1.56,33.67,31.52,30.15,34.46-3.52,2.93-19.77,1.96-32.3,2.15-12.54.19-18.41-1.17-19.38-11.74-.98-10.57,6.26-26.43,21.53-24.86Z"/>
              <path class="cls-1" d="m175.13,66.52c-2.93,4.7-16.44,3.13-31.32,3.32-14.88.2-23.1-.98-26.04,2.74-2.93,3.73-2.15,7.44-7.24,8.62-5.09,1.18-38.27-.08-38.27-.08-4.12.33-5.76-4.94-6.2-11.2-.09-1.16-.13-2.37-.17-3.6-.02-.82-.04-1.91-.02-3.23,0-1.22.05-2.64.14-4.22.11-2.04.31-4.33.63-6.8.53-4.08,1.4-8.63,2.82-13.23,6.06-.34,18.04-.55,25.41,2.43,10.18,4.11,14.49,9.4,15.86,12.93,1.37,3.52,2.94,5.48,7.25,5.67,3.14.14,38.76-1.7,57.74-2.7.58,4.51.33,7.92-.58,9.37Z"/>
              <path class="cls-4" d="m96.43,56.53c0,1.96-1.37,2.35-7.34,2.55-4.45.14-16.97-.09-23.08-.21.11-2.04.31-4.33.63-6.8,6.2.26,20.42.9,23.04,1.14,4.21.4,6.76,1.37,6.76,3.33Z"/>
              <path class="cls-4" d="m96.43,67.6c0,1.96-1.37,2.34-7.34,2.55-4.43.14-16.91-.09-23.04-.22-.09-1.16-.13-2.37-.17-3.6-.02-.82-.04-1.91-.02-3.23,5.7.25,21.08.93,23.81,1.18,4.21.39,6.76,1.37,6.76,3.33Z"/>
              <path class="cls-6" d="m83.47,34.02c3.58-.3,3.49-6.29-.23-6.1-.75.04-1.5.34-2,.87-.78.83-.87,2.08-.65,3.15.24,1.24,1.66,2.18,2.89,2.08Z"/>
              <path class="cls-3" d="m94.56,34.08c3.58-.3,3.49-6.29-.23-6.1-.75.04-1.5.34-2,.87-.78.83-.87,2.08-.65,3.15.24,1.24,1.66,2.18,2.89,2.08Z"/>
            </g>
            <path class="cls-3" d="m113.95,48.5c.21-1.46-.06-2.88-.23-4.34-.19-1.68-.34-3.36-.36-5.05-.05-3.05.25-6.11,1.17-9.02,1.57-4.99,4.94-9.7,10.14-11.31,11.42-3.54,21.26,5.61,27.28,14.19,3.83,5.45,8.35,11.24,10.63,17.52.49,1.36,2.56.83,2.19-.6-1.64-6.34-5.94-11.96-9.57-17.34-3.39-5.03-7.37-9.88-12.65-13.03-4.98-2.97-11.19-4.41-16.9-3.03s-9.85,5.43-12.14,10.61c-1.38,3.12-1.99,6.51-2.12,9.91-.07,2.04.04,4.08.25,6.11.2,1.85.33,3.89,1.21,5.54.23.43,1.03.38,1.11-.14h0Z"/>
          </g>
          <path class="cls-3" d="m68.14,79.31c.92,3.44,5.86,3.05,8.58,3.13,4.84.14,9.69.2,14.53.18s10-.13,14.99-.33c2.07-.08,4.31-.01,6.28-.75,1.7-.63,2.94-1.85,3.94-3.33s1.65-2.99,2.58-4.42c1.06-1.63,2.99-2.53,4.82-2.96,2.94-.69,6.08-.58,9.09-.6,6.49-.06,12.98.12,19.48.04,6.99-.08,14.06-.11,21-1,1.49-.19,1.51-2.56,0-2.37-5.89.77-11.88.86-17.81.98-6.56.12-13.12.21-19.68.31-2.49.04-4.98.04-7.47.15-3.52.16-7.38.6-10.09,3.09-1.23,1.13-2.11,2.48-2.93,3.92s-1.73,3.03-3.3,3.82c-1.95.98-4.49.82-6.62.94-2.42.14-4.84.25-7.26.35-5.31.21-10.62.32-15.93.34-2.73,0-5.47,0-8.2-.05-1.78-.03-5.44-1.25-6.43-3-.31-.55.26.97.42,1.58h0Z"/>
        </g>
        <path class="cls-3" d="m153.66,127.53c-4.01-.57-8.11-.32-12.15-.32H40.3c-4.62,0-9.41-.32-13.98.32-.67.1-.56,4.29-.48,5.68.26,4.86,1.4,9.66,3.2,14.22h0c2.03,5.19,4.9,10.06,8.27,14.33,7.03,8.96,16.64,15.51,27.32,19.33-.06.05-.1.1-.16.16-1.33,1.32-2.68,2.63-3.81,4.14-.7.94-1.35,2.12-1.71,3.33-.66,2.18-.38,4.44,2.13,5.54,1.6.7,3.46.79,5.16,1.13,1.96.39,3.92.7,5.89.98,11.68,1.61,23.57,1.49,35.27.14,2.01-.23,4-.52,5.98-.89,1.75-.33,3.61-.53,5.33-1.02,1.58-.44,2.98-1.42,3.36-3.09.39-1.72-.38-3.6-1.25-5.05-.82-1.34-1.86-2.52-2.97-3.64-.31-.32-.65-.66-.97-.98-.39-.38-.78-.78-1.17-1.18,8.09-2.99,15.67-7.49,21.63-13.66,5.65-5.85,9.89-12.91,12.85-20.47,1.57-3.96,2.79-8.07,3.68-12.21.32-1.47.68-2.94.84-4.44.21-2.16-.62-2.32-1.04-2.38Zm-35.1,60.9c.36.68,1.02,2.01.48,2.76-1.11,1.55-3.71,1.64-5.42,1.77-2.54.2-5.07.48-7.6.74-6.44.65-12.92.87-19.39.72-4.42-.1-8.84-.38-13.23-.84-3.43-.35-8.39-.19-11.39-2.15-.63-.41-.61-1.17-.34-1.93.26-.78.76-1.57,1.06-2.03,1.34-2.04,3.28-3.63,5.02-5.36,11.83,3.59,24.61,4.17,36.72,1.74,2.73-.55,5.46-1.26,8.15-2.12.71.74,1.48,1.44,2.23,2.16,1.44,1.37,2.81,2.78,3.72,4.54Zm27.88-41.48c-2.14,5.1-4.91,9.9-8.38,14.18-7.55,9.33-18.26,15.21-29.75,18.3-11.6,3.13-24.17,3.51-35.87.62-11.29-2.79-21.56-8.54-29.58-17-5.04-5.29-9.13-11.68-11.71-18.59-1.36-3.62-2.31-7.4-2.77-11.24-.14-1.24-.25-2.47-.35-3.71,3.45.3,7,.12,10.44.12h101.21c3.87,0,7.8.23,11.67-.08-.94,5.92-2.54,11.83-4.9,17.39Z"/>
      </g>
      <rect class="cls-2" width="200" height="200"/>
    </g>
  </g>
</svg>