<?xml version="1.0" encoding="UTF-8"?>
<svg id="Capa_2" data-name="Capa 2" xmlns="http://www.w3.org/2000/svg" viewBox="0 0 200 200">
  <defs>
    <style>
      .cls-1 {
        fill: #403434;
      }

      .cls-1, .cls-2, .cls-3, .cls-4, .cls-5 {
        stroke-width: 0px;
      }

      .cls-2 {
        fill: none;
      }

      .cls-3 {
        fill: #593737;
      }

      .cls-4 {
        fill: #dea686;
      }

      .cls-5 {
        fill: #bdafaf;
      }
    </style>
  </defs>
  <g id="colorful_icons" data-name="colorful icons">
    <g>
      <g>
        <path class="cls-3" d="m164.27,51.14c-6.47-1.69-13.1-2.71-19.76-3.24-1.96-.16-3.92-.31-5.88-.31-10.13-.29-20.32.63-30.1,2.58-2.76.55-9.12,2.26-7.58,6.43.7,1.91,3,3.46,4.69,4.38,1.97,1.07,4.19,1.82,6.42,1.43.69-.12.53-1.05,0-1.25-1.8-.67-3.66-1.04-5.36-2.02-1.22-.7-4.37-2.63-3.37-4.3.76-1.26,2.86-1.75,4.19-2.03,2.09-.44,4.21-.8,6.32-1.1,6.68-.95,13.45-1.13,20.18-.78,6.67.34,13.37,1.17,19.95,2.3,2.15.37,4.28.79,6.41,1.25,2.34.51,4.71,1.1,6.93,2.03,1.66.69,3.96,1.73,4.59,3.58.9,2.63-7.46,4.38-9.27,4.84-2.48.63-4.97,1.01-7.47,1.16-.02-1.56.12-3.12.36-4.62.11-.66-.25-1.7-1.27-1.05-3.34,2.15-6.45,3.14-9.71,4.53-.5.21-.72,1.07-.39,1.5,2.71,3.55,6.97,6.33,11.51,6.69.64.05.8-.33.57-.93-.44-1.16-.73-2.39-.9-3.64,2.71-.09,5.41-.38,8.05-.89,2.43-.46,4.82-1.18,7.15-2.03,1.83-.67,3.75-1.48,4.74-3.27,3.56-6.45-6.63-10.12-11-11.26Z"/>
        <path class="cls-4" d="m27.36,114.24s7.33-6.22,19.33-3.11,22.89,8,36,4.67c13.11-3.33,30.67-7.78,41.56-5.11,10.89,2.67,19.11,6.89,27.78,5.78,8.67-1.11,12-3.11,12-3.11,0,0-8.44,26-29.33,37.56s-49.56,10-62.89,6.22-27.33-14.44-34-23.33c-6.67-8.89-10.44-19.56-10.44-19.56Z"/>
        <path class="cls-3" d="m113.29,130.4c1.43-3.2,2.75-6.44,3.96-9.73,2.06-5.6,3.67-11.34,5.29-17.09,1.48-5.26,2.67-10.6,4.2-15.85,1.76-6.01,4.04-11.76,6.43-17.52.68-1.64,1.39-3.25,2.15-4.86.23-.49-.56-.95-.81-.46-.04.09-.09.17-.13.26-.21-.21-.59-.26-.75.05-1.51,2.94-3.22,5.76-4.81,8.65-1.66,3.03-3.16,6.15-4.7,9.24-3.08,6.17-6.09,12.37-9.07,18.59-3.01,6.27-6,12.54-9.04,18.79-3.03,6.22-5.95,12.5-9.1,18.66-1.55,3.03-3.18,6.01-4.9,8.95-.55.95-1.13,1.88-1.72,2.8-.53-.06-1.06-.16-1.59-.32-1.04-.31-1.99-.82-2.84-1.46.3-1.54.71-3.04,1.21-4.52,1.08-3.19,2.58-6.22,4.14-9.19,3.21-6.11,6.87-11.96,10.51-17.82,3.63-5.84,7.08-11.79,10.62-17.69,3.56-5.95,7.19-11.86,10.96-17.69,1.46-2.26,2.96-4.48,4.25-6.84,1.14-2.08,2.2-4.19,3.33-6.28.73-1.35,1.45-2.7,2.13-4.08.07-.14-.14-.26-.23-.13-.32.46-.62.92-.92,1.38.32-.62.64-1.24.95-1.86.04-.08-.02-.16-.09-.18.02-.27-.4-.47-.56-.19-2.01,3.64-4.27,7.11-6.81,10.41-2.58,3.36-5.45,6.48-8.34,9.59-5.67,6.1-11.63,11.95-17.15,18.18-5.19,5.86-10.08,12-14.25,18.6-3.39,5.37-6.7,11.85-5.88,18.56.17,1.4.48,2.78.97,4.11-.09,2.88.6,5.7,2.86,8,.31.31.63.59.98.84.09.79.34,1.63.91,2.22.79.8,1.94.73,2.8.23.43-.25.79-.6,1.11-.99.57-.03,1.15-.12,1.72-.28,1.7-.48,3.2-1.38,4.54-2.47,2.13-.75,4.08-1.94,5.84-3.22,2.73-2,4.95-4.53,6.74-7.35,2.02-3.18,3.57-6.66,5.1-10.09Zm-9.83-2.39c3.16-6.54,6.35-13.05,9.49-19.6,4.19-8.73,8.27-17.54,12.66-26.18-2.82,6.91-5.15,14.05-7.54,21.06-4.46,13.1-8.9,26.37-15.99,38.28-1.73,2.9-3.63,5.75-6.15,8.07-.18.17-.37.34-.57.51-1.33.5-2.74.82-4.17.8.81-1.29,1.62-2.59,2.39-3.91,3.62-6.17,6.77-12.59,9.88-19.03Zm-13.72,23.71c-.18.27-.36.54-.54.82-.12.18-.24.36-.37.53-.38,0-.77-.04-1.17-.11-.8-.15-1.54-.45-2.2-.87-.03-.67.07-1.34.19-1.99,1.24.83,2.63,1.38,4.08,1.62Zm38.5-79.27c-1.1,1.97-2.21,3.95-3.44,5.84-3.88,5.98-7.74,11.96-11.45,18.04-3.74,6.13-7.32,12.35-11.1,18.45-3.76,6.05-7.64,12.04-11.05,18.3-1.66,3.05-3.24,6.16-4.49,9.4-.6,1.56-1.12,3.16-1.52,4.8-.09.35-.17.7-.26,1.06-1.59-1.49-2.75-3.46-3.42-5.42.16-2.16.75-4.29,1.36-6.32,4.07-13.53,13.06-24.82,22.4-35.18,8.26-9.17,16.38-18.56,22.96-28.98Zm-46.81,60.38c.77-3.18,2.16-6.15,3.77-8.97,3.69-6.42,8.31-12.35,13.11-18,5.24-6.18,10.91-11.98,16.5-17.85,3.06-3.21,6.05-6.51,8.83-9.97-5.29,7.22-11.16,14.04-17.12,20.75-9.41,10.6-18.76,21.6-23.55,35.1-.73,2.06-1.55,4.45-1.97,6.89-.44-2.66-.17-5.46.43-7.95Zm.23,13.28c-.04-.22-.07-.45-.09-.67.57,1.06,1.27,2.07,2.14,2.99.32.34.67.66,1.02.96-.12.65-.21,1.31-.22,1.97-1.53-1.36-2.52-3.34-2.84-5.24Zm5.95,8.07c-.84.38-1.55.04-1.88-.81-.05-.12-.08-.24-.12-.36.82.42,1.71.67,2.61.76-.18.16-.38.31-.61.41Zm2.34-1.21c.25-.38.47-.78.7-1.15.59.04,1.19.03,1.79-.03.29-.03.57-.07.85-.12-1.03.63-2.15,1.11-3.34,1.3Zm16.03-11.07c-2.03,2.76-4.62,5.06-7.65,6.81-.17.1-.35.2-.53.3.19-.2.38-.41.57-.61,2.31-2.55,4.12-5.48,5.79-8.46,1.73-3.08,3.31-6.25,4.77-9.48,2.91-6.42,5.35-13.05,7.67-19.72,3.86-11.09,7.44-22.34,12.27-33.03-.59,1.59-1.16,3.2-1.68,4.83-1.65,5.1-3.03,10.28-4.36,15.48-1.36,5.3-2.7,10.58-4.35,15.79-2.06,6.48-4.56,12.79-7.43,18.94-1.48,3.16-3,6.32-5.08,9.14Z"/>
        <path class="cls-3" d="m149.41,35.4c1.4-2.55,2.23-5.44,2.42-8.34.1-1.54.29-2.87,1-4.26.51-1,1.19-2.22,2.29-2.65,2.66-1.04,4.23,2.08,3.67,4.28-.62,2.43-2.81,4.23-4.61,5.81-1.03.9-2.16,1.75-3.04,2.8-.47.57-.94,1.16-1.38,1.75-.48.64-.61,1.19-.68,1.98-.05.62.75,1.05,1.26.72.29-.19.62-.33.87-.56s.45-.58.68-.85c.47-.57,1.03-1.01,1.57-1.51,1.08-1,2.2-1.96,3.31-2.93,2.32-2.06,4.69-4.57,4.93-7.83.22-3.06-2.15-6.08-5.32-6.08s-4.9,3.11-5.76,5.66c-.63,1.88-.27,3.7-.42,5.62-.17,2.1-1.09,4.03-1.64,6.04-.14.51.6.83.86.36h0Z"/>
        <path class="cls-3" d="m167.51,96.69c-4.53-.64-9.14-.36-13.71-.36H39.68c-5.2,0-10.61-.37-15.77.36-.76.11-.63,4.84-.55,6.41.63,11.69,5.8,23.12,12.94,32.2,7.94,10.1,18.77,17.49,30.81,21.8-.06.06-.12.12-.18.18-1.51,1.49-3.03,2.97-4.3,4.68-2.23,2.98-3.93,8.08.47,10,1.81.79,3.9.89,5.82,1.27,2.21.44,4.42.8,6.65,1.11,13.17,1.81,26.58,1.68,39.78.16,2.25-.26,4.51-.59,6.73-1.01,1.98-.38,4.08-.6,6.02-1.14,1.78-.5,3.36-1.61,3.79-3.49.44-1.93-.43-4.06-1.42-5.69-1.19-1.96-2.83-3.6-4.44-5.21-.43-.43-.87-.88-1.31-1.33,9.12-3.38,17.67-8.45,24.39-15.4,9.71-10.05,15.71-23.29,18.65-36.85.36-1.66.77-3.31.93-5,.24-2.44-.69-2.62-1.16-2.68Zm-39.58,68.68c.4.78,1.14,2.27.54,3.11-1.25,1.75-4.18,1.85-6.1,2-2.87.23-5.72.55-8.58.84-7.26.73-14.57.98-21.86.81-4.99-.12-9.97-.43-14.93-.94-3.87-.4-9.47-.21-12.83-2.42-1.43-.94.12-3.44.8-4.47,1.51-2.3,3.7-4.09,5.66-6.05,13.35,4.05,27.75,4.71,41.41,1.96,3.08-.62,6.15-1.42,9.18-2.39,2.35,2.42,5.15,4.52,6.71,7.55Zm-11.57-10.14c-13.08,3.52-27.26,3.96-40.45.69-12.74-3.15-24.31-9.63-33.36-19.16-8.65-9.11-14.83-21.09-16.32-33.64-.16-1.39-.29-2.79-.4-4.18,3.89.34,7.89.14,11.77.14h114.13c4.36,0,8.81.25,13.17-.09-2.03,12.79-6.79,25.47-14.99,35.6-8.52,10.52-20.6,17.15-33.55,20.63Z"/>
        <path class="cls-5" d="m149.08,30.8s6.08,2.08,6.17,2.92-6.67,15.25-14.08,27.33c-4.16,6.78-5.42,8.58-6.08,8.42s-5.75-2-6.17-3.5,11.83-21.42,14.08-25.75,5.42-9.5,6.08-9.42Z"/>
        <path class="cls-1" d="m166.53,97.61s0,.01,0,.02c-.02,0-.05,0-.07-.01.03,0,.05,0,.08-.01Z"/>
      </g>
      <rect class="cls-2" width="200" height="200"/>
    </g>
  </g>
</svg>