<?xml version="1.0" encoding="UTF-8"?>
<svg id="Capa_2" data-name="Capa 2" xmlns="http://www.w3.org/2000/svg" viewBox="0 0 200 200">
  <defs>
    <style>
      .cls-1 {
        fill: #93745b;
      }

      .cls-1, .cls-2, .cls-3, .cls-4, .cls-5, .cls-6, .cls-7 {
        stroke-width: 0px;
      }

      .cls-2 {
        fill: none;
      }

      .cls-3 {
        fill: #593737;
      }

      .cls-4 {
        fill: #f8d470;
      }

      .cls-5 {
        fill: #baa07e;
      }

      .cls-6 {
        fill: #957f7f;
      }

      .cls-7 {
        fill: #bdafaf;
      }
    </style>
  </defs>
  <g id="colorful_icons" data-name="colorful icons">
    <g>
      <g>
        <path class="cls-3" d="m162.62,63.5c-6.34-1.65-12.82-2.65-19.35-3.18-1.91-.15-3.84-.3-5.76-.3-9.92-.28-19.89.62-29.46,2.53-2.7.54-8.93,2.21-7.42,6.29.69,1.87,2.93,3.39,4.59,4.29,1.93,1.05,4.1,1.78,6.29,1.4.68-.12.52-1.03,0-1.22-1.77-.66-3.58-1.02-5.24-1.97-1.2-.69-4.28-2.57-3.3-4.21.74-1.23,2.8-1.71,4.1-1.98,2.05-.43,4.12-.78,6.19-1.08,6.54-.93,13.17-1.1,19.76-.77,6.53.33,13.08,1.14,19.52,2.25,2.1.36,4.19.77,6.28,1.23,2.29.5,4.61,1.08,6.78,1.98,1.62.68,3.87,1.69,4.49,3.51.88,2.58-7.3,4.29-9.07,4.74-2.43.62-4.86.98-7.31,1.14-.02-1.52.11-3.05.35-4.52.1-.65-.25-1.67-1.24-1.02-3.27,2.11-6.31,3.08-9.5,4.43-.49.21-.71,1.05-.39,1.47,2.65,3.47,6.83,6.2,11.27,6.55.62.05.79-.32.56-.91-.43-1.14-.71-2.34-.88-3.56,2.65-.09,5.29-.37,7.88-.87,2.38-.45,4.72-1.16,6.99-1.98,1.79-.65,3.67-1.45,4.64-3.2,3.48-6.31-6.49-9.91-10.77-11.02Z"/>
        <path class="cls-4" d="m28.13,115.54s7.18-6.09,18.92-3.05,22.4,7.83,35.24,4.57c12.83-3.26,30.02-7.61,40.68-5,10.66,2.61,18.71,6.74,27.19,5.66,8.48-1.09,11.75-3.05,11.75-3.05,0,0-8.27,25.45-28.71,36.76-20.45,11.31-48.51,9.79-61.56,6.09-13.05-3.7-26.75-14.14-33.28-22.84-6.53-8.7-10.22-19.14-10.22-19.14Z"/>
        <g>
          <path class="cls-7" d="m149.3,57.74c-7.17,10.86-17.91,22.01-23.77,30.26-5.86,8.23-9.42,12.69-9.58,15.96-.08,1.46.92,4.06,1.71,7.37,1.02,4.14,1.73,9.39-.29,14.89-2.98,8.09-13.29,19.77-21.57,22.54-8.28,2.76-15.19-.26-16.56-6.15-1.28-5.53-1.25-16.08,3.14-25.58.27-.62.58-1.22.9-1.83,5.28-9.94,18.67-13.02,18.67-13.02,0,0,5.99-1.48,8.19-3.85,2.2-2.37,19.42-40.48,22.72-48.07,3.3-7.59,10.27-15.59,16.44-13.49,6.18,2.1,7.17,10.1,0,20.96Z"/>
          <g>
            <path class="cls-2" d="m92.03,114.66c5.57-1.3,11.4-2.46,16.86-3.03-1.09-1.07-2.43-1.89-3.89-2.35-5.11-1.6-9.73,1.7-12.97,5.38Z"/>
            <path class="cls-5" d="m117.66,111.33c-2.09-.12-4.33-.06-6.64.11.83,1.29,1.42,2.74,1.75,4.21.31,1.42.37,2.87.17,4.31-.23,1.73-.92,2.99-1.83,4.46-.15.24-.58.08-.47-.2.59-1.5.94-3.44,1.01-5.05.07-1.53-.13-3.09-.71-4.51-.46-1.15-1.18-2.17-2.06-3.03-5.46.57-11.3,1.73-16.86,3.03-.16.18-.32.37-.48.55-3.29,3.93-5.44,8.75-6.29,13.79-.43,2.56-.48,5.18-.25,7.76.22,2.47.83,5.15,3.54,5.82,4.53,1.12,8.75-2.28,12.49-4.24.42-.22.83.22.63.63-1.27,2.56-4.14,4.21-6.75,5.19-2.81,1.05-6.36,1.55-9.03-.17-2.5-1.62-3.04-4.88-3.24-7.62-.23-3.11-.02-6.25.64-9.3.9-4.12,2.67-8.08,5.13-11.53-2.09.51-4.12,1.03-6.04,1.52-4.39,9.49-4.42,20.05-3.14,25.58,1.37,5.88,8.28,8.91,16.56,6.15,8.28-2.77,18.6-14.46,21.57-22.54,2.03-5.5,1.31-10.75.29-14.89Z"/>
            <path class="cls-6" d="m105,109.29c1.46.46,2.8,1.28,3.89,2.35.72-.07,1.43-.14,2.13-.19-.7-1.09-1.57-2.07-2.62-2.82-2.32-1.67-5.3-2.46-8.13-1.97-3.09.54-5.82,2.36-8.07,4.48-1.4,1.33-2.66,2.81-3.78,4.39,1.18-.29,2.39-.58,3.61-.86,3.25-3.68,7.86-6.98,12.97-5.38Z"/>
            <path class="cls-6" d="m110.95,114.67c.57,1.42.78,2.98.71,4.51-.08,1.62-.42,3.56-1.01,5.05-.11.28.32.44.47.2.9-1.48,1.59-2.73,1.83-4.46.19-1.44.14-2.9-.17-4.31-.32-1.47-.92-2.92-1.75-4.21-.7.05-1.41.12-2.13.19.88.86,1.6,1.88,2.06,3.03Z"/>
            <path class="cls-1" d="m82.65,136.36c.2,2.74.74,6.01,3.24,7.62,2.67,1.72,6.22,1.22,9.03.17,2.61-.97,5.48-2.63,6.75-5.19.2-.41-.21-.85-.63-.63-3.74,1.96-7.96,5.36-12.49,4.24-2.71-.67-3.32-3.34-3.54-5.82-.23-2.58-.18-5.21.25-7.76.86-5.04,3-9.86,6.29-13.79.16-.19.32-.37.48-.55-1.22.28-2.42.57-3.61.86-2.46,3.45-4.24,7.42-5.13,11.53-.67,3.05-.87,6.19-.64,9.3Z"/>
          </g>
          <path class="cls-1" d="m105.15,134.74c.24-.15.5-.3.72-.49s.4-.42.58-.64c.2-.25.34-.51.48-.8.12-.27.19-.56.34-.81.29-.49.57-.98.82-1.48.13-.26.26-.52.38-.79.11-.24.29-.51.2-.77-.04-.13-.18-.17-.29-.12-.23.1-.32.38-.43.59-.13.24-.26.48-.39.72-.28.49-.58.97-.9,1.44-.15.23-.38.38-.57.57-.21.21-.42.41-.59.65-.15.22-.33.44-.46.68-.14.24-.23.53-.35.79-.12.28.15.64.45.45h0Z"/>
        </g>
        <path class="cls-3" d="m164.9,98.75c-4.43-.63-8.95-.35-13.42-.35H39.77c-5.09,0-10.39-.36-15.44.35-.75.11-.62,4.73-.53,6.27.61,11.44,5.68,22.64,12.66,31.52,7.77,9.89,18.37,17.12,30.16,21.34-.06.06-.12.12-.18.18-1.47,1.46-2.96,2.91-4.21,4.58-2.19,2.92-3.85,7.9.46,9.79,1.77.77,3.82.87,5.7,1.25,2.16.43,4.33.79,6.51,1.08,12.89,1.77,26.02,1.65,38.93.16,2.2-.25,4.41-.57,6.59-.99,1.94-.37,3.99-.58,5.89-1.12,1.74-.49,3.29-1.57,3.71-3.42.43-1.89-.42-3.97-1.39-5.57-1.16-1.92-2.77-3.53-4.35-5.1-.43-.42-.85-.86-1.29-1.3,8.93-3.31,17.29-8.27,23.87-15.08,9.5-9.84,15.38-22.8,18.25-36.07.35-1.62.75-3.24.91-4.89.23-2.39-.68-2.56-1.14-2.63Zm-38.74,67.23c.39.76,1.12,2.22.53,3.04-1.23,1.72-4.09,1.81-5.98,1.96-2.81.22-5.59.54-8.4.82-7.11.71-14.26.96-21.4.79-4.88-.11-9.76-.42-14.61-.92-3.79-.39-9.27-.21-12.56-2.37-1.4-.92.12-3.37.78-4.38,1.48-2.25,3.62-4,5.54-5.92,13.06,3.97,27.16,4.61,40.54,1.92,3.01-.61,6.02-1.39,8.99-2.34,2.3,2.37,5.04,4.42,6.57,7.39Zm-11.32-9.93c-12.81,3.44-26.69,3.87-39.59.68-12.47-3.09-23.79-9.43-32.66-18.76-8.47-8.92-14.52-20.64-15.98-32.93-.16-1.36-.28-2.73-.39-4.1,3.81.34,7.72.14,11.52.14h111.71c4.27,0,8.62.25,12.89-.09-1.98,12.52-6.64,24.93-14.67,34.85-8.34,10.3-20.16,16.79-32.84,20.2Z"/>
      </g>
      <rect class="cls-2" width="200" height="200"/>
    </g>
  </g>
</svg>