<?xml version="1.0" encoding="UTF-8"?>
<svg id="Capa_2" data-name="Capa 2" xmlns="http://www.w3.org/2000/svg" viewBox="0 0 200 200">
  <defs>
    <style>
      .cls-1 {
        fill: #c46127;
      }

      .cls-1, .cls-2, .cls-3, .cls-4, .cls-5, .cls-6, .cls-7, .cls-8, .cls-9, .cls-10 {
        stroke-width: 0px;
      }

      .cls-2 {
        fill: #f9d980;
      }

      .cls-3 {
        fill: #ac9b9b;
      }

      .cls-4 {
        fill: none;
      }

      .cls-5 {
        fill: #593737;
      }

      .cls-6 {
        fill: #f28322;
      }

      .cls-7 {
        fill: #6bb262;
      }

      .cls-8 {
        fill: #e34b4b;
      }

      .cls-9 {
        fill: #f3b200;
      }

      .cls-10 {
        fill: #f7ae6f;
      }
    </style>
  </defs>
  <g id="colorful_icons" data-name="colorful icons">
    <g>
      <g>
        <g>
          <path class="cls-1" d="m49.73,130.34s-5.56-2.66-5.95-4.43,2.8-5.36,4.92-5.41,3.94,2.12,4.97,4.18,1.13,2.85.25,3.49-2.71,2.46-3.3,2.46-.89-.3-.89-.3Z"/>
          <path class="cls-8" d="m80.23,125.52c-.79-.59-5.71-.84-6.94-.1s-2.02,2.41-1.87,3.39-.05,1.62,1.62,2.07,7.25.16,7.53-.25c1.08-1.62.44-4.53-.34-5.12Z"/>
          <path class="cls-10" d="m131.42,19.52c-5.11,1.64-10.7,9.75-13.64,15.61-2.93,5.86-8.59,20.57-11.82,26.38-4.31,7.76-10.46,15.26-18.57,19.23-2.45,1.2-5.13,2.38-7.07,4.36-2.73,2.8-8.52,10.7-11.45,16.36-2.93,5.66-3.89,8.53-4.16,11.18-.2,1.98,1.84,3.14,3.75,1.77,1.91-1.36,9.34-15.2,10.23-16.43.89-1.23,2.59-2.45,3.55-.95s-1.16,4.84-2.86,7.84c-1.7,3-6.61,9.89-6.82,12.68-.2,2.8,2.45,3.2,4.36,1.7,1.91-1.5,9.07-15.2,10.29-16.36,1.23-1.16,3.27-1.57,3.55,0,.27,1.57-.82,3.89-2.45,6.68-1.64,2.8-7.84,11.11-7.7,13.29.14,2.18,1.7,2.86,4.57,1.3s11.79-16.7,14.04-21.2c2.25-4.5,2.05-9.75,2.05-11.66,0-4.63.89-9.34,2.63-13.67,1.79-4.44,4.49-8.45,7.23-12.34,1.48-2.09,3.03-4.12,4.66-6.1,10.52-12.82,21.16-24.48,21.36-34.16.11-5.18-2.08-6.69-5.73-5.52Zm1.04,7.54c-.13.44-.35.84-.64,1.19-.22.26-.52.49-.8.67-.39.25-.9.45-1.36.32-.57-.16-.84-.65-.88-1.21-.02-.3.05-.61.11-.9.17-.82.63-1.53,1.38-1.94.32-.18.68-.25,1.04-.29.22-.02.45.03.64.14.08.05.17.11.23.18.04.04.07.09.1.14,0,0,0,0,0-.01,0,.01,0,.02.01.03.02.03.03.06.04.1,0,.01,0,.02,0,.04,0,.04.02.07.01.11.27.41.25.98.12,1.43Z"/>
          <path class="cls-5" d="m131.52,28.99c.89-.61,1.58-1.68,1.57-2.78-.02-1.15-.88-2.17-2.03-2.34-1.17-.17-2.31.71-2.97,1.61-.73,1-.97,2.58.05,3.49.93.82,2.41.68,3.37.02Zm-2.25-.65c-.11-.66.19-1.45.63-1.94.46-.51,1.1-.82,1.78-.88.13-.01.26-.01.39-.01.36.63.23,1.44-.06,2.07-.37.8-1.06,1.51-1.98,1.56-.15,0-.3-.01-.43-.05-.09-.24-.27-.47-.32-.75Z"/>
          <g>
            <path class="cls-5" d="m127.46,108.38c-.01.44-.05.89-.11,1.33l20.85-4.01-.89-6.79-20.75,4.8c.74,1.39.93,3.2.89,4.67Z"/>
            <path class="cls-5" d="m128.72,103.53c-.19-.62-.75-1.07-1.41-1.07-16.08-.1-32.17,0-48.26,0-4.59,0-9.17,0-13.76,0-11.34,0-22.69,0-34.03,0-9.08,0-18.15,0-27.23,0-.66,0-1.22.46-1.42,1.08-.42,1.35-.29,2.95-.27,4.35.02,1.85.16,3.69.45,5.52.52,3.25,1.63,6.5,3.49,9.23,3.97,5.82,10.44,7.78,17.05,8.94.34.06.67.1,1.01.15-.28.06-.57.12-.86.19-1.66.43-1.66,2.6,0,3.03,5.07,1.31,10.29,1.1,15.52,1.1.38,0,.75,0,1.13,0,.08,0,.17,0,.25,0,4.71,0,9.41,0,14.12,0,3.71,0,7.42,0,11.13,0,7.24,0,14.47,0,21.71,0,1.6.01,3.21.03,4.82.01,5.27.05,10.6.21,15.69-1.11,1.66-.43,1.66-2.6,0-3.03-.33-.08-.65-.15-.98-.22.11-.01.21-.02.32-.04,6.38-.93,12.99-2.7,17.12-8.03,2.12-2.74,3.44-6.03,4.09-9.42.36-1.88.54-3.8.58-5.71.04-1.58.21-3.44-.26-4.97Zm-2.6,4.56c0,1.8-.11,3.6-.42,5.38-.51,2.88-1.5,5.68-3.18,8.09-3.63,5.21-10.07,6.77-15.99,7.69-3.88.61-7.83.56-11.75.63-4.64.09-9.28.2-13.92.31-13.7.31-27.4.02-41.1-.16-12.62-.17-30.06.35-33.77-15-.45-1.87-.66-3.78-.73-5.7-.04-1.2-.18-2.65-.03-3.94,15.69,0,31.37,0,47.06,0,4.33,0,8.67,0,13,0,11.6,0,23.19,0,34.79,0,8.67,0,17.34.04,26.02,0,.09.9.02,1.86.02,2.7Z"/>
            <path class="cls-6" d="m147.47,108.2c5.9.89,40.29-5.61,44.71-7.97s5.76-6.49,3.54-11.66-7.67-2.36-12.4-1.48-38.37,9.37-40.51,11.14c-1.05.87-1.25,9.08,4.65,9.96Z"/>
          </g>
          <path class="cls-8" d="m31.42,118.49c-1.6-.52-2.75,1.16-2.92,2.56-.17,1.35.32,2.71,1.46,3.42.04.05.08.1.14.13,1.27.68,2.95-.17,3.36-1.5.46-1.51-.43-4.09-2.04-4.61Z"/>
          <path class="cls-9" d="m40.67,107.73c-2.13,1.68-1.19,5.89,1.97,4.81,1.52-.52,2.45-2.4,1.9-3.92-.58-1.63-2.63-1.88-3.88-.89Z"/>
          <path class="cls-7" d="m56.31,108.15c-.05-.08-.12-.14-.21-.17-.48-.35-1.04-.42-1.68-.01-.79-.05-1.59-.1-2.21.25-.95.54-.88,1.74-.71,2.67.42,2.28,2.13,4.46,4.42,5.07.95.25,2,.13,2.64-.68.76-.96.36-1.95-.09-2.94-.4-.9-1.08-3.2-2.16-4.19Z"/>
          <path class="cls-1" d="m52.16,95.78c.41.87,1.3,1.45,2.46.96,1.23-.52,1.76-2.04,1.19-3.23-.64-1.34-2.19-1.45-3.22-.47-.76.72-.83,1.88-.43,2.74Z"/>
          <path class="cls-9" d="m25.18,93.14c.47.52,1.31.64,1.99.22,1.02-.63,1.22-2.1.59-3.08-.59-.92-1.94-1.02-2.72-.31-.9.82-.85,2.45.13,3.17Z"/>
          <path class="cls-9" d="m47.76,81.06c1.75,1.26,4.22,0,4.53-2.2.34-2.41-2.09-3.63-4.11-2.63-1.65.82-2.14,3.05-.87,4.42.14.16.29.29.45.4Z"/>
          <path class="cls-8" d="m64.45,84.5c.07.81.06,1.61.33,2.39,1.02,2.95,4.81,3.03,6.64.85,1.9-2.26,1.24-5.77-.57-7.87-1.36-1.58-5.46-3.76-6.97-1.29-.87.69-.8,1.96-.43,2.96.4,1.06.91,1.79,1,2.97Z"/>
          <path class="cls-7" d="m114.94,89.9c-1.39-.62-3.02-.78-4.51-.93-2.11-.22-4.93-.24-5.13,2.59-.12,1.71.45,3.76,2.25,4.3,1.32.4,2.74.19,4.09.2,1.16,0,2.4.23,3.2-.79,1.05-1.33,2.06-4.49.1-5.36Z"/>
          <path class="cls-9" d="m98.57,120.42c-.21.04-.41.09-.6.16-1.67.58-3.22,2.44-2.46,4.24.68,1.64,3.29,1.94,4.66,1.01,1.3-.87,1.65-3.24.87-4.54-.53-.88-1.54-1.04-2.47-.87Z"/>
          <path class="cls-5" d="m106.85,111.65c-.51.46-.79,1.49-.52,2.18-.04.98,1.23,1.74,2.23,1.52,1.29-.28,2.11-1.84,1.45-3.04-.6-1.1-2.19-1.52-3.17-.65Z"/>
          <path class="cls-5" d="m118.68,97.35c-.38.35.16.91.57.66,3.59-2.2,7.7-5.76,6.06-10.49-1.49-4.27-7.84-6.86-6.09-12.09.15-.44-.48-.85-.84-.57-3.4,2.64-.53,7,1.77,9.29,1.74,1.73,4.02,3.67,3.55,6.42-.46,2.72-3.07,5.01-5.02,6.78Z"/>
          <path class="cls-5" d="m40.56,93.85c-1.52-4.43-4.04-8.32-4.16-13.15-.11-4.54,2.55-7.84,5.13-11.27,2.44-3.25,3.84-6.57,3.28-10.7-.45-3.33-2.01-7.2-4.97-9.05-.46-.29-1.18.2-.97.74,1.47,3.83,3.67,7.21,2.37,11.48-1.15,3.79-4.37,6.48-6.1,9.96-3.56,7.15.31,16.47,5.05,22.19.14.17.44-.01.37-.21Z"/>
          <path class="cls-5" d="m16.71,96.48c.36.33.95-.09.69-.53-1.81-3.06-4.33-5.97-4.96-9.58-.59-3.44.89-5.74,2.79-8.38.25-.35-.16-.74-.51-.67-3.41.73-4.46,5.27-4.2,8.22.37,4.29,3.11,8.12,6.2,10.93Z"/>
        </g>
        <g>
          <g>
            <path class="cls-6" d="m47.72,168.19c-2.96,3.08-5.13,4.6-5.64,4.94-.08.05-.12.08-.12.08l-4.58.15s-.11-.04-.3-.12c-1.5-.59-8.24-3.63-9.88-10.44-1.84-7.68,4.69-12.71,6.79-16.23,2.73-4.58,1.1-7.61,1.84-8.12,8.63,8.85,12.25,10.33,14.46,15.05,2.82,6.02.81,11.14-2.58,14.68Z"/>
            <path class="cls-2" d="m40.01,173.1c-.08.05-.12.08-.12.08l-1.04.15s-.11-.04-.3-.12c-1.09-1.56-4.34-4.53-3.98-7.17.52-3.76,3.32-7.3,3.84-9.23.51-1.92-.44-4.8.14-4.72.59.07,4.36,4.93,5.46,8.04,2.16,6.1-3.65,12.14-4.02,12.96Z"/>
          </g>
          <g>
            <path class="cls-6" d="m73.79,168.19c-2.96,3.08-5.13,4.6-5.64,4.94-.08.05-.12.08-.12.08l-4.58.15s-.11-.04-.3-.12c-1.5-.59-8.24-3.63-9.88-10.44-1.84-7.68,4.69-12.71,6.79-16.23,2.73-4.58,1.1-7.61,1.84-8.12,8.63,8.85,12.25,10.33,14.46,15.05,2.82,6.02.81,11.14-2.58,14.68Z"/>
            <path class="cls-2" d="m66.08,173.1c-.08.05-.12.08-.12.08l-1.04.15s-.11-.04-.3-.12c-1.09-1.56-4.34-4.53-3.98-7.17.52-3.76,3.32-7.3,3.84-9.23.51-1.92-.44-4.8.14-4.72.59.07,4.36,4.93,5.46,8.04,2.16,6.1-3.65,12.14-4.02,12.96Z"/>
          </g>
          <g>
            <path class="cls-6" d="m99.76,168.19c-2.96,3.08-5.13,4.6-5.64,4.94-.08.05-.12.08-.12.08l-4.58.15s-.11-.04-.3-.12c-1.5-.59-8.24-3.63-9.88-10.44-1.84-7.68,4.69-12.71,6.79-16.23,2.73-4.58,1.1-7.61,1.84-8.12,8.63,8.85,12.25,10.33,14.46,15.05,2.82,6.02.81,11.14-2.58,14.68Z"/>
            <path class="cls-2" d="m92.05,173.1c-.08.05-.12.08-.12.08l-1.04.15s-.11-.04-.3-.12c-1.09-1.56-4.34-4.53-3.98-7.17.52-3.76,3.32-7.3,3.84-9.23.51-1.92-.44-4.8.14-4.72.59.07,4.36,4.93,5.46,8.04,2.16,6.1-3.65,12.14-4.02,12.96Z"/>
          </g>
          <g>
            <path class="cls-3" d="m27.94,172.62c-.59.07-.66,7.6-.15,8.04.52.44,74.6.22,75.34-.07.74-.3.37-7.67,0-8.04s-74.6,0-75.19.07Z"/>
            <path class="cls-5" d="m28.28,173.28c12.69.01,25.38.03,38.07.04,6.2,0,30.04-.21,36.48-.14.64,0,.64-1.22,0-1.26-5.63-.35-12.02-.34-17.74-.16-6.2.19-12.54.01-18.73.02-12.69.01-25.38.03-38.07.04-.94,0-.94,1.46,0,1.46h0Z"/>
          </g>
        </g>
      </g>
      <rect class="cls-4" width="200" height="200"/>
    </g>
  </g>
</svg>