<?xml version="1.0" encoding="UTF-8"?>
<svg id="Capa_2" data-name="Capa 2" xmlns="http://www.w3.org/2000/svg" viewBox="0 0 200 200">
  <defs>
    <style>
      .cls-1 {
        fill: #c46127;
      }

      .cls-1, .cls-2, .cls-3, .cls-4, .cls-5, .cls-6, .cls-7 {
        stroke-width: 0px;
      }

      .cls-2 {
        fill: #f9d980;
      }

      .cls-3 {
        fill: #ac9b9b;
      }

      .cls-4 {
        fill: none;
      }

      .cls-5 {
        fill: #593737;
      }

      .cls-6 {
        fill: #f28322;
      }

      .cls-7 {
        fill: #f3b200;
      }
    </style>
  </defs>
  <g id="colorful_icons" data-name="colorful icons">
    <g>
      <g>
        <g>
          <g>
            <path class="cls-6" d="m48.91,168.7c-2.94,3.06-5.1,4.58-5.61,4.91-.08.05-.11.08-.11.08l-4.55.15s-.11-.04-.3-.11c-1.49-.59-8.19-3.61-9.82-10.38-1.83-7.63,4.66-12.64,6.75-16.13,2.71-4.55,1.09-7.57,1.83-8.07,8.58,8.8,12.17,10.27,14.37,14.96,2.81,5.98.81,11.07-2.56,14.59Z"/>
            <path class="cls-2" d="m41.24,173.58c-.08.05-.11.08-.11.08l-1.03.15s-.11-.04-.3-.11c-1.08-1.55-4.32-4.5-3.95-7.12.52-3.74,3.3-7.26,3.82-9.17.51-1.91-.44-4.77.14-4.69.59.07,4.33,4.9,5.43,7.99,2.15,6.06-3.63,12.07-3.99,12.88Z"/>
          </g>
          <g>
            <path class="cls-6" d="m74.82,168.7c-2.94,3.06-5.1,4.58-5.61,4.91-.08.05-.11.08-.11.08l-4.55.15s-.11-.04-.3-.11c-1.49-.59-8.19-3.61-9.82-10.38-1.83-7.63,4.66-12.64,6.75-16.13,2.71-4.55,1.09-7.57,1.83-8.07,8.58,8.8,12.17,10.27,14.37,14.96,2.81,5.98.81,11.07-2.56,14.59Z"/>
            <path class="cls-2" d="m67.16,173.58c-.08.05-.11.08-.11.08l-1.03.15s-.11-.04-.3-.11c-1.08-1.55-4.32-4.5-3.95-7.12.52-3.74,3.3-7.26,3.82-9.17.51-1.91-.44-4.77.14-4.69.59.07,4.33,4.9,5.43,7.99,2.15,6.06-3.63,12.07-3.99,12.88Z"/>
          </g>
          <g>
            <path class="cls-6" d="m100.63,168.7c-2.94,3.06-5.1,4.58-5.61,4.91-.08.05-.11.08-.11.08l-4.55.15s-.11-.04-.3-.11c-1.49-.59-8.19-3.61-9.82-10.38-1.83-7.63,4.66-12.64,6.75-16.13,2.71-4.55,1.09-7.57,1.83-8.07,8.58,8.8,12.17,10.27,14.37,14.96,2.81,5.98.81,11.07-2.56,14.59Z"/>
            <path class="cls-2" d="m92.97,173.58c-.08.05-.11.08-.11.08l-1.03.15s-.11-.04-.3-.11c-1.08-1.55-4.32-4.5-3.95-7.12.52-3.74,3.3-7.26,3.82-9.17.51-1.91-.44-4.77.14-4.69.59.07,4.33,4.9,5.43,7.99,2.15,6.06-3.63,12.07-3.99,12.88Z"/>
          </g>
          <g>
            <path class="cls-3" d="m29.25,173.1c-.59.07-.66,7.55-.15,7.99.51.44,74.14.22,74.88-.07.73-.29.37-7.63,0-7.99s-74.14,0-74.73.07Z"/>
            <path class="cls-5" d="m29.59,173.75c12.61.01,25.23.03,37.84.04,6.16,0,29.85-.21,36.25-.14.64,0,.64-1.21,0-1.25-5.6-.35-11.95-.33-17.63-.16-6.16.19-12.46.01-18.62.02-12.61.01-25.23.03-37.84.04-.94,0-.94,1.45,0,1.45h0Z"/>
          </g>
        </g>
        <g>
          <path class="cls-7" d="m15.31,128.54c.39-.2,102.87,0,102.87,0,0,0-9.68,3.72-17.5,3.81s-58.28,2.25-66.59.88c-8.31-1.37-13.4-2.84-15.06-3.32s-3.72-1.37-3.72-1.37Z"/>
          <path class="cls-1" d="m37.85,132.4c-.37-.07-4.62-4.62-1.61-9.46s11.37-6.89,21.85-5.5,10.71,7.63,11.07,9.17-.15,3.81-2.2,5.21-29.11.59-29.11.59Z"/>
          <path class="cls-1" d="m77.38,132.84s-3.01-2.86-1.83-6.67,6.45-6.6,15.11-6.23c8.65.37,9.83,6.09,9.61,7.41s-.81,4.91-2.05,5.28-20.83.22-20.83.22Z"/>
          <g>
            <path class="cls-5" d="m126.99,109.25c-.01.44-.05.88-.1,1.32l20.73-3.99-.88-6.75-20.62,4.77c.74,1.38.92,3.18.88,4.64Z"/>
            <path class="cls-5" d="m128.24,104.44c-.19-.62-.75-1.06-1.4-1.07-15.99-.1-31.98,0-47.96,0-4.56,0-9.12,0-13.68,0-11.27,0-22.55,0-33.82,0-9.02,0-18.04,0-27.06,0-.66,0-1.22.46-1.41,1.07-.42,1.34-.29,2.94-.27,4.33.02,1.84.16,3.67.45,5.49.51,3.23,1.62,6.46,3.47,9.18,3.95,5.78,10.37,7.73,16.94,8.89.34.06.67.1,1,.15-.28.06-.57.12-.85.19-1.65.43-1.65,2.59,0,3.01,5.04,1.3,10.23,1.09,15.42,1.09.37,0,.75,0,1.12,0,.08,0,.17,0,.25,0,4.68,0,9.35,0,14.03,0,3.69,0,7.38,0,11.06,0,7.19,0,14.38,0,21.57,0,1.6.01,3.19.03,4.79.01,5.23.05,10.54.2,15.6-1.1,1.65-.43,1.65-2.59,0-3.01-.32-.08-.65-.14-.97-.22.11-.01.21-.02.32-.04,6.35-.93,12.91-2.68,17.02-7.98,2.11-2.72,3.42-5.99,4.06-9.36.35-1.87.53-3.77.58-5.67.04-1.57.21-3.42-.26-4.94Zm-2.59,4.53c0,1.79-.11,3.58-.42,5.34-.51,2.87-1.49,5.64-3.16,8.05-3.61,5.18-10.01,6.72-15.89,7.64-3.85.6-7.78.55-11.68.63-4.61.09-9.22.2-13.84.31-13.61.31-27.23.02-40.85-.16-12.55-.17-29.88.34-33.56-14.91-.45-1.86-.66-3.76-.72-5.66-.04-1.19-.18-2.63-.03-3.91,15.59,0,31.18,0,46.77,0,4.31,0,8.62,0,12.92,0,11.53,0,23.05,0,34.58,0,8.62,0,17.24.04,25.86,0,.08.89.02,1.85.02,2.69Z"/>
            <path class="cls-1" d="m146.88,109.08c5.87.88,40.04-5.57,44.44-7.92s5.72-6.45,3.52-11.59-7.63-2.35-12.32-1.47-38.13,9.31-40.26,11.07c-1.04.86-1.25,9.02,4.62,9.9Z"/>
          </g>
          <path class="cls-5" d="m42.23,125.68c-.14-.06-.28-.09-.42-.1-.05,0-.11,0-.16,0-.01,0-.03,0-.04,0-.08,0-.17,0-.25.02.06,0,.12-.02.18-.02-.19.01-.38,0-.57.07-.03,0-.05.01-.08.02-.02,0-.04,0-.05,0-.09,0-.17.02-.25.04-.01,0-.02,0-.03,0,0,0,.02,0,.03,0-.25.05-.47.15-.69.32-.28.22-.53.53-.61.88-.07.3-.07.6,0,.9.08.36.43.86.78,1.01.17.08.35.16.53.22.3.09.67.08.96,0,.22-.06.46-.15.65-.28.43-.27.73-.63.87-1.13.09-.33.1-.73-.03-1.06-.06-.41-.45-.74-.8-.89Zm-1.18.05c.07-.03.14-.06.22-.09h.02c-.08.02-.16.06-.23.09Z"/>
          <path class="cls-5" d="m47.87,122.45c.02-.16.02-.34,0-.52-.14-1.14-1.27-1.97-2.39-1.81-1.54.22-2.15,2.07-1.23,3.27,1.13,1.48,3.42.75,3.63-.94Z"/>
          <path class="cls-5" d="m48.12,126.38c-1.01,0-1.01,1.57,0,1.57s1.01-1.57,0-1.57Z"/>
          <path class="cls-5" d="m84.17,125.71l-.28-.22c-.22-.13-.45-.19-.71-.19-.19,0-.37.03-.54.12-.17.06-.32.15-.45.29-.14.13-.23.28-.29.45-.09.17-.13.35-.12.54.02.12.03.25.05.37.07.24.19.44.36.62.09.07.19.15.28.22.22.13.45.19.71.19.19,0,.37-.03.54-.12.17-.06.32-.15.45-.29.14-.13.23-.28.29-.45.09-.17.13-.35.12-.54-.02-.12-.03-.25-.05-.37-.07-.24-.19-.44-.36-.62Z"/>
          <path class="cls-5" d="m87.42,123.52c-1.18,0-1.19,1.84,0,1.84s1.19-1.84,0-1.84Z"/>
          <path class="cls-5" d="m68.07,78.84c1.89,2.27,3.11,4.99,2.71,7.98-.44,3.31-2.39,6.15-4.45,8.68-.37.46.22,1.09.66.66,3.73-3.66,7.26-8.41,6.35-13.94-.88-5.37-5.45-8.84-9.37-12.09-2.15-1.78-4.37-3.65-5.78-6.09-1.51-2.61-1.81-5.71-1.38-8.65.9-6.24,4.58-11.4,7.68-16.72.32-.54-.41-1.08-.86-.66-7.84,7.35-15.2,19.54-7.48,29.69,3.34,4.38,8.42,6.92,11.93,11.14Z"/>
          <path class="cls-5" d="m43.76,82.48c2.04,1.33,4.66,2.75,4.76,5.52.1,2.74-1.96,5.5-3.49,7.62-.3.41.34.86.68.53,3.04-2.88,6.32-7.18,3.75-11.44-2.32-3.85-9.03-5.07-8.39-10.51.05-.46-.64-.73-.93-.39-2.77,3.26.92,6.92,3.62,8.68Z"/>
          <path class="cls-5" d="m95.06,82.71c-.11,4.8-2.62,8.67-4.13,13.07-.07.2.23.38.36.21,4.71-5.68,8.56-14.94,5.02-22.05-1.72-3.46-4.92-6.14-6.06-9.9-1.29-4.25.9-7.61,2.36-11.41.21-.54-.5-1.02-.96-.74-2.94,1.84-4.5,5.68-4.94,8.99-.55,4.11.83,7.4,3.26,10.64,2.56,3.41,5.2,6.69,5.09,11.2Z"/>
          <path class="cls-7" d="m29.3,114.82c-.21-.85-.37-1.73-.7-2.54-.23-.56-.85-1.4-1.57-1.21-.65.17-.73,1.14-.67,1.67.11.9.59,1.79.92,2.63.48,1.22,2.34.78,2.01-.55Z"/>
          <path class="cls-7" d="m36.08,110.33c-1.2.06-1.5,1.62-1.55,2.57-.08,1.29,2.04,1.31,2.02,0,0-.75.47-1.51.13-2.23-.1-.21-.37-.35-.6-.34Z"/>
          <path class="cls-7" d="m49.89,113.21c-.1-.48-.73-.47-.97-.13-.2.29-.39.59-.58.89-.36.58.05,1.33.69,1.41.3.04.58-.05.8-.26.26-.26.3-.58.24-.92-.05-.33-.12-.66-.19-.99Z"/>
          <path class="cls-7" d="m80.76,111.21c-.56.56-.48,1.41-.47,2.14.02,1.26,1.94,1.26,1.96,0,.01-.72.09-1.58-.47-2.14-.28-.28-.75-.28-1.03,0Z"/>
          <path class="cls-7" d="m91.55,113.07c-.12-.26-.25-.58-.6-.58-.32,0-.46.29-.58.54-.15.31-.25.61-.32.95-.13.59.28,1.18.9,1.18s1.03-.59.9-1.18c-.07-.33-.16-.61-.3-.91Z"/>
          <path class="cls-7" d="m109.85,112.85c-.11.03-.23.06-.34.1-.26.09-.42.25-.59.45-.21.25-.42.5-.64.76-.41.48-.43,1.17.11,1.58.48.37,1.26.27,1.56-.3.16-.3.31-.59.47-.89.1-.19.21-.39.24-.6.02-.17,0-.34-.03-.51-.04-.38-.35-.7-.76-.58Z"/>
          <path class="cls-7" d="m118.97,112.83c-.12-.15-.36-.15-.51-.07-.17.09-.28.26-.4.41-.15.19-.29.38-.41.58-.36.57.05,1.3.68,1.39.29.04.57-.05.79-.26.25-.25.3-.57.24-.91-.06-.38-.14-.84-.38-1.15Z"/>
          <path class="cls-7" d="m17.61,111.51c-.43.02-.96.4-.89.89.06.46.24.85.57,1.18.21.21.44.41.67.62.44.41,1.2.47,1.63,0,.38-.41.51-1.23,0-1.63-.58-.45-1.19-1.09-1.97-1.06Z"/>
          <path class="cls-7" d="m27.93,98.9c.47,0,1.05-.36,1.13-.86.08-.58.12-1.26-.05-1.83-.14-.5-.47-1.15-1.08-1.15-1.29,0-1.25,2.13-1.13,2.98.07.5.66.86,1.13.86Z"/>
          <path class="cls-7" d="m83.76,96.98c.15-1.13.31-2.21.14-3.34-.07-.44-.75-.49-.94-.12-.5.94-.7,1.95-.91,2.99-.23,1.14,1.56,1.58,1.71.47Z"/>
          <path class="cls-7" d="m55.73,96.49c.06.28.28.5.54.61.48.2,1.15-.05,1.26-.61.09-.44.04-.88-.2-1.27-.27-.42-.99-.71-1.42-.38-.13.1-.21.21-.24.36-.02.15-.02.27.03.42,0,.02.01.03.01.04,0,.1.02.19.04.28,0,0,0,0,0,0-.06.18-.07.34-.03.54Zm.09-.72s-.04.09-.05.14c0,0,0-.01,0-.02,0-.02.02-.06.05-.12Z"/>
          <path class="cls-7" d="m68.32,108.5c-.09-.15-.2-.24-.33-.34-.28-.24-.64-.25-.93,0-.12.11-.24.2-.33.34-.13.21-.14.45-.17.69-.04.3-.07.61-.1.91-.06.55.53,1.08,1.06,1.06.52-.02,1.13-.47,1.06-1.06-.03-.3-.07-.61-.1-.91-.03-.24-.04-.48-.17-.69Z"/>
          <path class="cls-7" d="m30.12,119.8c-.38.05-.7.29-.82.66-.11.33-.01.65.15.94.07.12.13.19.22.31h0s-.04-.06-.07-.09c.03.04.05.07.07.11.02.08.04.25.02.02,0,0,0,0,0,0,.04.46.32.84.8.9.44.06.9-.21,1.01-.66.09-.38.1-.79-.02-1.16-.19-.58-.7-1.12-1.36-1.03Z"/>
          <path class="cls-7" d="m56.73,111.05c-.54.37-.65.97-.78,1.58-.1.44.13.91.59,1.03.41.11.95-.14,1.03-.59.11-.59.31-1.26-.05-1.82-.16-.25-.52-.39-.79-.21Z"/>
          <path class="cls-7" d="m74.18,118.22c-.67.33-.9,1.21-1.18,1.85-.18.41-.12.89.3,1.13.36.21.93.11,1.13-.3.34-.7.91-1.49.71-2.3-.11-.43-.59-.57-.96-.39Z"/>
          <path class="cls-7" d="m104.7,120.43c-.09,0-.18.01-.27.02-.17.02-.31.1-.46.17,0,0-.01,0-.02,0-.08.02-.16.05-.25.06-.22.04-.46.25-.57.44-.12.2-.17.5-.1.73.07.23.22.45.44.57.21.11.5.19.73.1.3-.12.56-.25.81-.46.11-.09.2-.2.28-.32.11-.17.12-.39.14-.58.03-.37-.36-.77-.73-.73Zm-.8.23s-.01,0-.02,0c0,0,.01,0,.02,0Z"/>
          <path class="cls-7" d="m116.87,98.13l.18-.48.09-.23s.02-.05.03-.07l.06-.42c0-.22-.04-.42-.14-.61-.12-.28-.08-.21-.33-.52,0,0-.01-.02-.02-.02l.23.3h0c.05.1.1.22.15.34l-.02-.14c-.07-.24-.19-.44-.36-.62-.17-.17-.38-.29-.62-.36-.25-.07-.5-.07-.74,0-.24.07-.44.19-.62.36l-.11.1.65-.38c-.1.03-.14.04-.26.09-.2.06-.37.17-.51.33l-.25.32c-.08.12-.13.28-.17.42-.03.08-.05.16-.08.24l-.17.5c-.07.21-.07.42-.03.63,0,.21.07.4.19.58.1.18.23.33.4.44.15.14.33.23.53.28l.42.06c.28,0,.55-.07.79-.21l.32-.25c.19-.2.33-.43.4-.69h0Z"/>
          <path class="cls-7" d="m103.36,109.51c.08-.12.15-.25.22-.38.02-.03.03-.06.04-.09.05-.12.12-.23.15-.35l.05-.34s0-.02,0-.03c-.01-.17-.04-.34-.06-.51-.06-.2-.16-.37-.3-.52-.15-.15-.32-.25-.52-.3-.41-.11-.84.01-1.15.3-.05.04-.09.09-.14.13-.11.09-.19.21-.25.34-.01.03-.03.06-.04.09-.06.13-.13.25-.21.36-.09.15-.15.31-.15.48-.04.17-.03.34.02.51.04.17.12.31.23.44.09.14.21.25.36.33l.31.13c.23.06.46.06.69,0l.31-.13c.19-.11.35-.27.46-.46h0Z"/>
        </g>
      </g>
      <rect class="cls-4" width="200" height="200"/>
    </g>
  </g>
</svg>