<?xml version="1.0" encoding="UTF-8"?>
<svg id="Capa_2" data-name="Capa 2" xmlns="http://www.w3.org/2000/svg" viewBox="0 0 200 200">
  <defs>
    <style>
      .cls-1 {
        fill: #c46127;
      }

      .cls-1, .cls-2, .cls-3, .cls-4, .cls-5, .cls-6, .cls-7, .cls-8, .cls-9 {
        stroke-width: 0px;
      }

      .cls-2 {
        fill: #f9d980;
      }

      .cls-3 {
        fill: #ac9b9b;
      }

      .cls-4 {
        fill: none;
      }

      .cls-5 {
        fill: #fff;
      }

      .cls-6 {
        fill: #593737;
      }

      .cls-7 {
        fill: #f28322;
      }

      .cls-8 {
        fill: #e34b4b;
      }

      .cls-9 {
        fill: #f3b200;
      }
    </style>
  </defs>
  <g id="colorful_icons" data-name="colorful icons">
    <g>
      <g>
        <g>
          <path class="cls-7" d="m78.27,168.65c-2.9,3.02-5.02,4.51-5.53,4.84-.08.05-.11.08-.11.08l-4.48.15s-.1-.03-.3-.11c-1.47-.58-8.08-3.56-9.68-10.23-1.8-7.52,4.6-12.46,6.65-15.9,2.67-4.48,1.08-7.46,1.8-7.95,8.46,8.67,12,10.12,14.17,14.75,2.77,5.9.8,10.91-2.52,14.38Z"/>
          <path class="cls-2" d="m70.72,173.46c-.08.05-.11.08-.11.08l-1.01.15s-.1-.03-.3-.11c-1.07-1.53-4.25-4.43-3.9-7.02.51-3.69,3.25-7.16,3.76-9.04.5-1.88-.43-4.7.14-4.62.58.07,4.27,4.83,5.35,7.88,2.12,5.98-3.58,11.9-3.94,12.69Z"/>
        </g>
        <g>
          <path class="cls-3" d="m33.35,172.99c-.58.07-.65,7.45-.14,7.88s73.09.22,73.81-.07c.72-.29.36-7.52,0-7.88-.36-.36-73.09,0-73.66.07Z"/>
          <path class="cls-6" d="m33.69,173.63c12.43.01,24.87.03,37.3.04,6.07,0,29.43-.21,35.74-.14.63,0,.63-1.2,0-1.24-5.52-.35-11.78-.33-17.38-.16-6.07.18-12.28.01-18.36.02-12.43.01-24.87.03-37.3.04-.92,0-.92,1.43,0,1.43h0Z"/>
        </g>
      </g>
      <g>
        <g>
          <g>
            <path class="cls-9" d="m19.9,122.98c.39-.19,101.4,0,101.4,0,0,0-9.54,3.66-17.25,3.76-7.71.1-57.45,2.22-65.64.87-8.19-1.35-13.21-2.8-14.84-3.28s-3.66-1.35-3.66-1.35Z"/>
            <path class="cls-1" d="m42.12,126.78c-.36-.07-4.55-4.55-1.59-9.33,2.96-4.77,11.21-6.8,21.54-5.42s10.55,7.52,10.92,9.04-.14,3.76-2.17,5.13-28.7.58-28.7.58Z"/>
            <path class="cls-1" d="m81.08,127.22s-2.96-2.82-1.81-6.58c1.16-3.76,6.36-6.51,14.89-6.14s9.69,6,9.47,7.3-.8,4.84-2.02,5.2-20.53.22-20.53.22Z"/>
            <g>
              <path class="cls-6" d="m129.99,103.96c-.01.44-.05.87-.1,1.3l20.43-3.93-.87-6.65-20.33,4.7c.73,1.36.91,3.13.87,4.58Z"/>
              <path class="cls-6" d="m131.22,99.22c-.19-.61-.74-1.05-1.38-1.05-15.76-.09-31.52,0-47.28,0-4.49,0-8.99,0-13.48,0-11.11,0-22.23,0-33.34,0-8.89,0-17.78,0-26.68,0-.65,0-1.2.45-1.39,1.06-.41,1.32-.28,2.89-.27,4.26.02,1.81.16,3.62.44,5.41.51,3.19,1.59,6.37,3.42,9.04,3.89,5.7,10.22,7.62,16.7,8.76.33.06.66.1.99.15-.28.06-.56.11-.84.19-1.63.42-1.63,2.55,0,2.97,4.96,1.28,10.08,1.08,15.2,1.08.37,0,.74,0,1.1,0,.08,0,.16,0,.24,0,4.61,0,9.22,0,13.83,0,3.64,0,7.27,0,10.91,0,7.09,0,14.18,0,21.27,0,1.57.01,3.15.03,4.72.01,5.16.05,10.39.2,15.37-1.09,1.63-.42,1.63-2.55,0-2.97-.32-.08-.64-.14-.96-.21.1-.01.21-.02.31-.04,6.26-.91,12.72-2.65,16.77-7.87,2.08-2.68,3.38-5.91,4-9.23.35-1.84.53-3.72.57-5.59.04-1.55.2-3.37-.26-4.87Zm-2.55,4.46c0,1.76-.11,3.53-.42,5.27-.5,2.83-1.47,5.56-3.11,7.93-3.56,5.1-9.86,6.63-15.66,7.53-3.8.59-7.67.54-11.51.62-4.55.09-9.09.2-13.64.3-13.42.3-26.85.02-40.26-.16-12.37-.16-29.46.34-33.09-14.7-.44-1.83-.65-3.7-.71-5.58-.04-1.17-.18-2.6-.03-3.86,15.37,0,30.74,0,46.1,0,4.25,0,8.49,0,12.74,0,11.36,0,22.72,0,34.08,0,8.5,0,16.99.04,25.49,0,.08.88.02,1.82.02,2.65Z"/>
              <path class="cls-8" d="m149.59,103.79c5.78.87,39.47-5.49,43.81-7.81s5.64-6.36,3.47-11.42-7.52-2.31-12.14-1.45c-4.63.87-37.59,9.18-39.69,10.92-1.03.85-1.23,8.89,4.55,9.76Z"/>
            </g>
            <path class="cls-6" d="m46.44,120.16c-.14-.06-.28-.09-.41-.1-.05,0-.11,0-.16,0-.01,0-.03,0-.04,0-.08,0-.17,0-.25.02.06,0,.12-.02.18-.02-.19.01-.37,0-.57.07-.03,0-.05.01-.08.02-.02,0-.03,0-.05,0-.09,0-.17.02-.25.04-.01,0-.02,0-.03,0,0,0,.02,0,.03,0-.24.05-.47.15-.68.31-.28.21-.52.52-.6.87-.07.29-.07.59,0,.89.08.35.42.85.77,1,.17.08.34.16.52.21.29.09.66.08.95,0,.22-.06.45-.15.64-.27.42-.26.72-.62.85-1.11.09-.33.09-.72-.03-1.05-.06-.4-.45-.73-.79-.87Zm-1.16.05c.07-.03.14-.06.21-.09h.02c-.08.02-.15.06-.23.09Z"/>
            <path class="cls-6" d="m51.99,116.97c.02-.16.02-.33,0-.51-.14-1.12-1.26-1.94-2.36-1.79-1.52.22-2.11,2.04-1.22,3.22,1.11,1.46,3.37.74,3.57-.92Z"/>
            <path class="cls-6" d="m52.24,120.85c-1,0-1,1.55,0,1.55s1-1.55,0-1.55Z"/>
            <path class="cls-6" d="m87.78,120.19l-.28-.22c-.22-.12-.45-.19-.7-.19-.19,0-.37.03-.53.12-.17.06-.32.15-.44.29-.13.13-.23.27-.29.44-.09.16-.13.34-.12.53.02.12.03.24.05.37.07.23.18.44.36.61.09.07.19.14.28.22.22.12.45.19.7.19.19,0,.37-.03.53-.12.17-.06.32-.15.44-.29.13-.13.23-.27.29-.44.09-.16.13-.34.12-.53-.02-.12-.03-.24-.05-.37-.07-.23-.18-.44-.36-.61Z"/>
            <path class="cls-6" d="m90.98,118.03c-1.17,0-1.17,1.81,0,1.81s1.17-1.81,0-1.81Z"/>
            <path class="cls-9" d="m33.69,109.45c-.21-.83-.36-1.7-.69-2.5-.23-.55-.84-1.38-1.55-1.19-.64.17-.72,1.12-.66,1.64.11.89.58,1.77.91,2.6.47,1.21,2.31.77,1.98-.55Z"/>
            <path class="cls-9" d="m40.38,105.03c-1.18.06-1.48,1.6-1.53,2.54-.08,1.28,2.01,1.29,2,0,0-.73.47-1.49.12-2.2-.1-.2-.37-.35-.59-.34Z"/>
            <path class="cls-9" d="m53.98,107.87c-.1-.47-.72-.47-.95-.12-.2.29-.39.58-.57.88-.36.57.05,1.31.68,1.39.29.04.57-.05.79-.26.26-.26.3-.57.24-.91-.05-.33-.11-.65-.18-.97Z"/>
            <path class="cls-9" d="m84.42,105.9c-.55.55-.48,1.39-.46,2.11.02,1.24,1.91,1.25,1.93,0,.01-.71.09-1.56-.46-2.11-.27-.27-.74-.27-1.01,0Z"/>
            <path class="cls-9" d="m95.06,107.73c-.12-.26-.25-.57-.59-.57-.32,0-.45.28-.57.53-.15.31-.24.6-.32.94-.13.58.27,1.17.89,1.17s1.02-.59.89-1.17c-.07-.32-.16-.6-.3-.9Z"/>
            <path class="cls-9" d="m113.09,107.51c-.11.03-.23.06-.34.1-.25.09-.42.25-.59.44-.21.25-.42.5-.63.75-.4.48-.42,1.15.11,1.56.47.36,1.24.27,1.53-.29.15-.29.31-.58.46-.88.1-.19.21-.38.24-.6.02-.17,0-.34-.03-.51-.04-.37-.35-.69-.75-.57Z"/>
            <path class="cls-9" d="m122.08,107.49c-.12-.15-.35-.15-.5-.06-.17.09-.28.26-.4.4-.15.18-.28.37-.41.57-.35.56.05,1.29.67,1.37.29.04.57-.04.77-.25.25-.25.29-.56.24-.9-.06-.37-.14-.83-.38-1.13Z"/>
            <path class="cls-9" d="m22.17,106.19c-.43.02-.94.39-.88.88.06.46.23.84.56,1.16.21.21.44.41.66.61.44.4,1.18.46,1.61,0,.37-.41.5-1.22,0-1.61-.57-.44-1.17-1.07-1.94-1.04Z"/>
            <path class="cls-9" d="m72.15,103.22c-.08-.14-.2-.23-.32-.34-.28-.24-.63-.24-.91,0-.12.11-.24.2-.32.34-.12.21-.14.44-.17.68-.04.3-.07.6-.1.9-.06.54.52,1.07,1.04,1.04.51-.02,1.11-.46,1.04-1.04-.03-.3-.07-.6-.1-.9-.03-.24-.04-.47-.17-.68Z"/>
            <path class="cls-9" d="m34.5,114.37c-.38.05-.69.28-.81.65-.11.33-.01.64.15.93.07.12.13.18.22.31h0s-.04-.06-.07-.09c.03.03.05.07.07.11.01.08.04.25.02.02,0,0,0,0,0,0,.04.45.32.82.79.89.43.06.89-.21,1-.65.09-.37.1-.78-.02-1.15-.18-.57-.69-1.11-1.34-1.02Z"/>
            <path class="cls-9" d="m60.73,105.74c-.54.37-.64.96-.77,1.55-.1.44.13.9.58,1.02.4.11.94-.14,1.02-.58.11-.59.3-1.25-.05-1.79-.16-.24-.51-.38-.78-.2Z"/>
            <path class="cls-9" d="m77.93,112.8c-.66.32-.88,1.2-1.16,1.82-.18.4-.12.88.29,1.12.36.21.92.1,1.12-.29.34-.69.9-1.46.7-2.26-.11-.43-.58-.56-.94-.38Z"/>
            <path class="cls-9" d="m108.02,114.99c-.09,0-.17.01-.26.02-.17.02-.31.1-.45.17,0,0-.01,0-.02,0-.08.02-.16.05-.25.06-.22.04-.45.24-.56.43-.12.2-.17.5-.09.72.07.23.21.44.43.56.21.11.49.19.72.09.3-.12.55-.25.8-.46.11-.09.2-.2.28-.31.11-.16.12-.38.13-.57.03-.36-.36-.76-.72-.72Zm-.79.23s-.01,0-.02,0c0,0,.01,0,.02,0Z"/>
            <path class="cls-9" d="m106.57,104.15c.09-.13.17-.27.23-.41.05-.11.12-.25.15-.35.04-.13.05-.25.04-.38,0-.04,0-.08,0-.12,0-.1-.02-.22-.04-.3-.07-.26-.24-.48-.47-.61s-.53-.18-.78-.1l-.24.1c-.08.05-.15.1-.22.17-.03.03-.05.06-.08.08-.09.09-.17.16-.24.29-.02.03-.03.07-.05.1-.07.14-.14.28-.23.41-.08.13-.13.27-.13.42-.03.15-.03.3.02.45.03.15.1.27.2.38.08.12.18.22.31.29l.27.11c.2.05.4.05.59,0l.27-.11c.17-.1.3-.23.4-.4h0Z"/>
          </g>
          <g>
            <g>
              <path class="cls-6" d="m63.17,64.19v12.34h12.05v-12.34s-12.14-.1-12.05,0Z"/>
              <path class="cls-8" d="m79.36,54.65c-6.75-.86-13.59-.86-20.33,0-6.07.77-7.23,1.73-7.13,3.47.1,1.73-.19,6.94,2.99,8.77,2.74,1.58,25.88,1.58,28.62,0,3.18-1.83,2.89-7.04,2.99-8.77s-1.06-2.7-7.13-3.47Z"/>
            </g>
            <g>
              <path class="cls-8" d="m129,93.78s-8.33-9.64-26.12-14.94c-6.58-1.96-13.4-3.08-20.21-3.84-13.75-1.55-27.88-.68-41.43,2.36-1.92.43-3.83.92-5.72,1.48-17.79,5.3-26.12,14.94-26.12,14.94,4.17-.07,8.35-.14,12.52-.22,8.44-.15,93.07-.03,101.9.13l5.18.09Z"/>
              <path class="cls-6" d="m132.08,91.75c-2.6-1.06-10.99-.48-10.99-.48H17.3s-8.39-.58-10.99.48c-2.6,1.06-3.47,5.78.39,6.36,3.31.5,121.69.5,125,0,3.86-.58,2.99-5.3.39-6.36Z"/>
            </g>
            <path class="cls-5" d="m56.53,60.69l.49-.06.24-.03s.08,0,.12-.01c.11-.01.24-.02.36-.05.16-.04.3-.11.42-.22.06-.03.1-.07.14-.11.15-.15.26-.33.31-.54.05-.16.06-.32.02-.49,0-.16-.06-.31-.14-.45-.11-.18-.25-.33-.44-.44-.16-.11-.3-.13-.48-.16-.11-.03-.22-.03-.33,0-.06,0-.12.01-.18.02-.04,0-.08.02-.12.02l-.25.05-.48.09c-.16.04-.29.11-.41.22-.13.08-.23.2-.31.34l-.12.29c-.05.16-.06.32-.02.48,0,.11.03.21.08.3.05.15.13.28.25.39l.24.19c.19.11.39.16.61.16h0Z"/>
            <path class="cls-5" d="m62.14,59.65l.24-.03c.08-.01.16-.02.23-.03.12-.03.24-.1.34-.16l.19-.1c.33-.17.33-.7,0-.88l-.19-.1c-.11-.06-.23-.14-.34-.16-.08-.02-.15-.02-.23-.03l-.24-.03c-.14-.04-.28-.04-.42,0-.13.04-.25.11-.35.2-.14.16-.23.35-.23.56,0,.2.09.42.23.56.1.1.22.17.35.2.14.04.28.04.42,0h0Z"/>
          </g>
          <path class="cls-6" d="m23.92,56.24c-2.41,3.22-6.26,7.15-5.74,11.9.43,3.94,4.1,6.66,7.25,7.26.39.07.68-.53.28-.79-1.58-1.03-3.28-1.7-4.54-3.32-1.61-2.06-1.13-4.55.12-6.66,2.38-4.01,5.71-7.18,8.09-11.2,1.75-2.95,2.8-7.2.59-10.24-1.23-1.69-2.97-2.68-3.87-4.71-.91-2.05-.7-4.36-.6-6.58.01-.31-.38-.53-.56-.27-2.04,3.07-.92,7.63,1.18,10.28.73.91,1.68,1.65,2.26,2.71.81,1.49.73,3.28.14,4.86-.97,2.58-3.04,4.67-4.61,6.77Z"/>
          <path class="cls-6" d="m34.96,52.18c-1.91,1.69-3.66,4.02-4.11,6.85-.36,2.24.17,5.24,2.05,6.32.17.1.44-.07.36-.32-1.12-3.34-1.16-6.31.94-9.21,1.51-2.07,3.61-3.37,5.13-5.39,1.44-1.9,1.72-4.11.87-6.46-.48-1.34-1.31-2.38-2.11-3.46-1.25-1.7-1.97-3.47-2.09-5.74-.02-.32-.35-.42-.5-.16-1.47,2.58.3,5.53,1.42,7.84.93,1.9,2.29,4.03,1.31,6.29-.66,1.53-2.15,2.45-3.28,3.45Z"/>
        </g>
        <rect class="cls-4" width="200" height="200"/>
      </g>
    </g>
  </g>
</svg>