<?xml version="1.0" encoding="UTF-8"?>
<svg id="Capa_2" data-name="Capa 2" xmlns="http://www.w3.org/2000/svg" viewBox="0 0 200 200">
  <defs>
    <style>
      .cls-1 {
        fill: #f9d980;
      }

      .cls-1, .cls-2, .cls-3, .cls-4, .cls-5 {
        stroke-width: 0px;
      }

      .cls-2 {
        fill: #ac9b9b;
      }

      .cls-3 {
        fill: none;
      }

      .cls-4 {
        fill: #593737;
      }

      .cls-5 {
        fill: #f28322;
      }
    </style>
  </defs>
  <g id="colorful_icons" data-name="colorful icons">
    <g>
      <g>
        <g>
          <path class="cls-5" d="m48.37,168.07c-3.01,3.13-5.21,4.68-5.73,5.02-.08.05-.12.08-.12.08l-4.65.15s-.11-.04-.31-.12c-1.52-.6-8.38-3.69-10.05-10.61-1.87-7.81,4.77-12.93,6.9-16.5,2.77-4.65,1.12-7.74,1.87-8.26,8.78,9,12.45,10.51,14.7,15.3,2.87,6.12.83,11.32-2.62,14.93Z"/>
          <path class="cls-1" d="m40.53,173.07c-.08.05-.12.08-.12.08l-1.05.15s-.11-.04-.31-.12c-1.11-1.58-4.41-4.6-4.04-7.28.53-3.83,3.38-7.43,3.91-9.38.52-1.95-.45-4.88.14-4.8.6.07,4.43,5.01,5.55,8.17,2.2,6.2-3.71,12.34-4.08,13.17Z"/>
        </g>
        <g>
          <path class="cls-5" d="m74.88,168.07c-3.01,3.13-5.21,4.68-5.73,5.02-.08.05-.12.08-.12.08l-4.65.15s-.11-.04-.31-.12c-1.52-.6-8.38-3.69-10.05-10.61-1.87-7.81,4.77-12.93,6.9-16.5,2.77-4.65,1.12-7.74,1.87-8.26,8.78,9,12.45,10.51,14.7,15.3,2.87,6.12.83,11.32-2.62,14.93Z"/>
          <path class="cls-1" d="m67.04,173.07c-.08.05-.12.08-.12.08l-1.05.15s-.11-.04-.31-.12c-1.11-1.58-4.41-4.6-4.05-7.28.53-3.83,3.38-7.43,3.91-9.38.52-1.95-.45-4.88.14-4.8.6.07,4.43,5.01,5.55,8.17,2.2,6.2-3.72,12.34-4.08,13.17Z"/>
        </g>
        <g>
          <path class="cls-5" d="m101.29,168.07c-3.01,3.13-5.21,4.68-5.73,5.02-.08.05-.12.08-.12.08l-4.65.15s-.11-.04-.31-.12c-1.52-.6-8.38-3.69-10.05-10.61-1.87-7.81,4.77-12.93,6.9-16.5,2.77-4.65,1.12-7.74,1.87-8.26,8.78,9,12.45,10.51,14.7,15.3,2.87,6.12.83,11.32-2.62,14.93Z"/>
          <path class="cls-1" d="m93.45,173.07c-.08.05-.12.08-.12.08l-1.05.15s-.11-.04-.31-.12c-1.11-1.58-4.41-4.6-4.04-7.28.53-3.83,3.38-7.43,3.91-9.38.52-1.95-.45-4.88.14-4.8.6.07,4.43,5.01,5.55,8.17,2.2,6.2-3.71,12.34-4.08,13.17Z"/>
        </g>
        <g>
          <path class="cls-2" d="m28.26,172.57c-.6.08-.68,7.73-.15,8.18.53.45,75.85.23,76.6-.08.75-.3.38-7.8,0-8.18s-75.85,0-76.45.07Z"/>
          <path class="cls-4" d="m28.61,173.24c12.9.01,25.81.03,38.71.04,6.3,0,30.54-.22,37.09-.14.65,0,.65-1.24,0-1.28-5.73-.36-12.22-.34-18.04-.16-6.3.19-12.75.01-19.05.02-12.9.01-25.81.03-38.71.04-.96,0-.96,1.49,0,1.49h0Z"/>
        </g>
      </g>
      <g>
        <g>
          <g>
            <g>
              <path class="cls-4" d="m127.18,108.75c-.01.44-.05.89-.11,1.33l20.83-4.01-.88-6.78-20.73,4.79c.74,1.38.93,3.19.88,4.67Z"/>
              <path class="cls-4" d="m22.88,132.47c-1.18,1.77-.08,2.65,1.08,2.95,5.06,1.31,9.62.99,14.84.99.38,0,.75,0,1.13,0,.08,0,.17,0,.25,0,4.7,0,9.4,0,14.1,0,3.71,0,7.41,0,11.12,0,7.23,0,14.33,0,21.56,0,1.6.01,3.21.03,4.81.01,5.26.05,9.93-.11,14.85-.7,1.03-.12,2.85-2.06.88-3.44-2.2,0-78.65.48-84.63.2Z"/>
              <path class="cls-2" d="m147.17,108.58c5.9.88,40.25-5.6,44.67-7.96,4.42-2.36,5.75-6.49,3.54-11.65s-7.67-2.36-12.38-1.47-38.33,9.36-40.47,11.13c-1.05.87-1.25,9.07,4.64,9.95Z"/>
            </g>
            <path class="cls-2" d="m4.7,102.88h120.11s3.54,0,3.54,3.15-1.97,19.07-11.2,23.39c-9.24,4.32-19.85,3.34-35.78,3.54-15.92.2-55.21-.46-56.02-.39-5.16.39-12.26-2.39-16.3-6.35-4.65-4.55-6.5-11.47-6.5-17.83,0-5.31.98-5.5,2.16-5.5Z"/>
          </g>
          <g>
            <path class="cls-5" d="m110.79,102.88H24.8c2.01-3.96,5.57-10.25,10.13-15.19,8.7-9.43,14.15-10.91,12.83-19.75-1.33-8.85-10.32-11.06-14-21.08-3.69-10.03-2.8-14.75-2.8-14.75,0,0,3.83,2.5,11.21,5.75,7.37,3.25,11.94,11.65,13.27,18.87,1.33,7.23,0,13.86,0,13.86,0,0,9.43-12.53,8.1-25.21-1.33-12.68-6.19-21.38-5.89-28.46.29-7.08,5.16-13.27,5.16-13.27,0,0-1.48,6.05,2.36,13.27,3.83,7.23,9.43,15.34,10.02,26.54.59,11.21-6.34,24.18-6.34,24.18,0,0,8.55-8.55,9.88-16.36,1.33-7.82.59-12.83,1.18-12.98.59-.15,6.63,11.35,5.75,21.08s-7.08,21.67-3.24,25.36c3.83,3.69,4.56-7.23,11.35-15.63s14.75-13.71,14.6-12.08c-.15,1.62-10.46,15.92-5.75,26.39,4.59,10.19,7.37,12.14,8.19,19.46Z"/>
            <path class="cls-1" d="m81.53,102.88h-26.19c.75-1.2,1.48-2.57,1.99-3.98,1.63-4.42,1.03-14.3,1.03-14.3,0,0,3.1,7.38,5.6,8.11,2.51.73,3.98-6.04,7.38-9.58,3.39-3.54,4.27-3.4,4.27-3.4,0,0-3.1,7.38.15,10.47,3.24,3.1,5.45,2.21,5.45,2.21,0,0-2.11,4.96-.88,7.96.39.94.8,1.77,1.2,2.5Z"/>
            <path class="cls-5" d="m23.43,98.61s2.06-4.42-.88-7.37-6.49-5.6-6.49-5.6c0,0-.74,3.98,2.06,7.96s5.31,5.01,5.31,5.01Z"/>
            <path class="cls-5" d="m109.38,86.52s.59-3.54,2.36-6.19,3.69-3.98,3.69-3.98c0,0,1.18,3.54-.88,6.78s-5.16,3.39-5.16,3.39Z"/>
            <path class="cls-1" d="m50.55,93.89s3.24-3.24,1.18-6.78-2.36-3.98-2.36-3.98c0,0-1.77,3.69-.74,6.63s1.92,4.13,1.92,4.13Z"/>
            <path class="cls-1" d="m86.38,95.21s-.74-3.1,2.21-5.45,4.28-2.51,4.28-2.51c0,0-.15,3.1-2.21,5.45s-4.28,2.51-4.28,2.51Z"/>
            <path class="cls-4" d="m28.32,77.83c.69,2.39.97,4.9.83,7.38-.04.62.88.71,1.05.14,1.26-4.15.59-8.16-1.22-12.1-1.01-2.19-2.79-4.15-3.36-6.54-.56-2.36-.32-4.5-.13-6.83.04-.44-.28-.94-.62-.58-2.95,3.15-1.67,8.6.19,11.92,1.22,2.18,2.56,4.18,3.26,6.61Z"/>
            <path class="cls-4" d="m91.65,57.02c1.02-2.65,3.23-4.59,4.6-7.05,1.34-2.41,1.46-4.92.66-7.54-.92-3.02-2.46-5.76-2.95-8.92-.27-1.69-.34-3.42-.22-5.12.11-1.63.68-3.35.51-4.99-.04-.37-.53-.7-.82-.34-1.74,2.09-1.75,5.75-1.58,8.32.2,3.09,1.14,5.91,2.35,8.73,1.39,3.23,2.33,6.25.59,9.56-1.27,2.42-3,4.5-3.86,7.14-.16.48.57.67.75.21Z"/>
            <path class="cls-4" d="m72.58,99.03c1.08-.6,1.66-2.14.76-3.15-.44-.5-1.34-.24-1.49.39-.16.66,0,1.1-.39,1.63-.5.7.45,1.49,1.12,1.12Z"/>
            <path class="cls-4" d="m15.18,99.25c.3.17.52.33.71.63.52.85,1.95.3,1.64-.69-.37-1.18-1.83-2.84-3.1-1.83-.45.25-.63.67-.18,1.08.21.38.52.57.93.81Z"/>
            <path class="cls-4" d="m63.35,81.98c.32.48.94.64,1.42.27.49-.38.45-.99.1-1.44-.28-.36-.54-.78-.88-1.08-.31-.28-.92-.58-1.3-.28-.39.3-.27.97-.09,1.36.2.42.5.8.76,1.18Z"/>
            <path class="cls-4" d="m96.84,98.3c.59-.04,1.16-.28,1.55-.74.49-.57.73-1.37.18-2-.3-.34-.85-.29-1.16,0-.13.12-.22.28-.3.44-.05.09-.07.19-.12.28-.02.03-.06.08-.07.1.01-.02.02-.04.03-.05,0,.01-.03.04-.05.06-.01.01-.02.02-.04.03-.07.03-.18.06-.04.03-.08.01-.15.04-.22.05-.45.07-.71.6-.65,1,.06.42.44.82.9.79Z"/>
          </g>
        </g>
        <rect class="cls-3" width="200" height="200"/>
      </g>
    </g>
  </g>
</svg>