<?xml version="1.0" encoding="UTF-8"?>
<svg id="Capa_2" data-name="Capa 2" xmlns="http://www.w3.org/2000/svg" viewBox="0 0 200 200">
  <defs>
    <style>
      .cls-1 {
        fill: none;
      }

      .cls-1, .cls-2, .cls-3 {
        stroke-width: 0px;
      }

      .cls-2 {
        fill: #593737;
      }

      .cls-3 {
        fill: #f7ae6f;
      }
    </style>
  </defs>
  <g id="colorful_icons" data-name="colorful icons">
    <g>
      <g>
        <path class="cls-2" d="m143.37,58.36c-6.32-1.65-12.79-2.64-19.3-3.17-1.91-.15-3.83-.3-5.74-.3-9.89-.28-19.84.62-29.39,2.52-2.7.54-8.9,2.2-7.4,6.27.69,1.87,2.93,3.38,4.58,4.28,1.92,1.05,4.09,1.78,6.27,1.4.67-.12.52-1.02,0-1.22-1.76-.66-3.57-1.02-5.23-1.97-1.2-.68-4.27-2.56-3.29-4.2.74-1.23,2.79-1.71,4.09-1.98,2.04-.43,4.11-.78,6.17-1.07,6.52-.93,13.14-1.1,19.71-.76,6.51.33,13.05,1.14,19.48,2.25,2.1.36,4.18.77,6.26,1.22,2.29.5,4.6,1.08,6.76,1.98,1.62.67,3.86,1.69,4.48,3.5.88,2.57-7.29,4.28-9.05,4.73-2.42.61-4.85.98-7.3,1.13-.02-1.52.11-3.05.35-4.51.1-.64-.24-1.66-1.24-1.02-3.26,2.1-6.3,3.07-9.48,4.42-.49.21-.7,1.05-.38,1.47,2.64,3.46,6.81,6.18,11.24,6.53.62.05.78-.32.56-.91-.43-1.14-.71-2.33-.87-3.55,2.64-.09,5.28-.37,7.86-.87,2.37-.45,4.71-1.15,6.98-1.98,1.79-.65,3.66-1.44,4.63-3.2,3.48-6.3-6.48-9.88-10.74-11Z"/>
        <g>
          <path class="cls-3" d="m128.71,36.07c-6.43,2.06-13.46,12.26-17.14,19.63-3.69,7.37-11.23,25.29-15.34,32.58s-10.03,15.09-14.66,17.66-14.92,7.29-19.46,12.09c-4.54,4.8-11.57,16.03-13.54,22.55-1.97,6.52-.6,9.43,3.26,14.66,3.86,5.23,9.43,11.14,15.86,8.74,6.43-2.4,13.3-11.65,16.46-19.63,3.77-9.52,8.49-27.6,11.92-36.78,3.43-9.17,8.81-18.79,12.09-22.63,13.12-15.34,27.52-29.75,27.77-41.92.14-6.51-2.62-8.41-7.2-6.94Zm-52.7,101.24c-.61,1.37-1.58,2.71-2.9,3.45-2.2,1.24-5.05.62-6.62-1.34-.88-1.09-1.3-2.44-1.25-3.84.07-1.59.69-2.98,1.68-4.21.78-.96,1.73-1.97,2.87-2.52.49-.45,1.3-.63,1.91-.66.79-.03,1.64.25,2.34.61,1.36.7,2.37,2.08,2.66,3.57.32,1.67,0,3.39-.69,4.93Zm54.13-91.66s-.05.08-.07.12c0,.42-.23.77-.49,1.09-.22.27-.49.5-.78.71-.28.2-.6.38-.93.46-.05.01-.1.01-.15.02-.11.04-.21.08-.32.1-.28.06-.54.07-.8,0-.04,0-.08,0-.11-.02-.04,0-.09,0-.14-.02,0,0,0,0,0,0,0,0,0,0,0,0-.14-.04-.29-.13-.37-.21-.1-.11-.17-.23-.21-.37-.03-.11-.04-.23-.01-.35-.07-.14-.12-.3-.13-.47-.02-.27.05-.56.13-.82.12-.37.35-.71.58-1.02.3-.39.61-.78,1-1.1.41-.34.9-.69,1.46-.68.03,0,.07.02.1.02.25,0,.51.03.72.16.31.18.49.46.61.78.2.5.11,1.12-.09,1.61Z"/>
          <path class="cls-2" d="m69.62,127.17c-2.53,1.22-4.84,3.73-5.78,6.39-.91,2.58-.38,5.8,1.78,7.47,1.67,1.29,4.13,1.48,6.12.97,3.5-.91,6.36-4.48,6.77-8.04.18-1.57-.15-3.19-1.22-4.69-1.7-2.4-5-3.38-7.67-2.09Zm6.19,8.14c-.13.92-.41,1.8-.84,2.63-.91,1.75-2.18,2.81-4.2,2.91-2.1.11-3.92-1.12-4.76-3.02-.74-1.67-.7-3.66.4-5.16.84-1.14,2.05-2.22,3.35-2.8,1.65-.74,3.42-.44,4.65.89,1.16,1.25,1.63,2.87,1.39,4.55Z"/>
          <path class="cls-2" d="m128.49,41.58c-1.44-.21-2.84.87-3.64,1.97-.89,1.23-1.19,3.16.06,4.28,1.13,1.01,2.95.83,4.13.02,1.09-.75,1.94-2.06,1.92-3.41-.02-1.41-1.08-2.66-2.49-2.86Zm1.16,4.54c-.45.98-1.3,1.86-2.43,1.92-.19.01-.36-.02-.53-.06-.11-.3-.33-.57-.39-.92-.14-.81.23-1.78.77-2.38.56-.63,1.35-1,2.19-1.08.16-.02.32-.02.48-.01.45.77.28,1.76-.08,2.54Z"/>
        </g>
      </g>
      <rect class="cls-1" width="200" height="200"/>
    </g>
  </g>
</svg>