<?xml version="1.0" encoding="UTF-8"?>
<svg id="Capa_2" data-name="Capa 2" xmlns="http://www.w3.org/2000/svg" viewBox="0 0 200 200">
  <defs>
    <style>
      .cls-1 {
        fill: none;
      }

      .cls-1, .cls-2, .cls-3 {
        stroke-width: 0px;
      }

      .cls-2 {
        fill: #593737;
      }

      .cls-3 {
        fill: #f7ae6f;
      }
    </style>
  </defs>
  <g id="colorful_icons" data-name="colorful icons">
    <g>
      <g>
        <path class="cls-2" d="m140.55,66.69c-6.29-1.64-12.72-2.63-19.2-3.15-1.9-.15-3.81-.3-5.71-.3-9.84-.28-19.74.62-29.24,2.51-2.68.54-8.86,2.19-7.37,6.24.68,1.86,2.91,3.36,4.56,4.26,1.91,1.04,4.07,1.77,6.24,1.39.67-.12.52-1.02,0-1.21-1.75-.65-3.55-1.01-5.2-1.96-1.19-.68-4.25-2.55-3.27-4.17.74-1.22,2.78-1.7,4.07-1.97,2.03-.43,4.09-.77,6.14-1.07,6.49-.92,13.07-1.09,19.61-.76,6.48.33,12.98,1.13,19.38,2.24,2.08.36,4.16.76,6.23,1.22,2.27.5,4.57,1.07,6.73,1.97,1.61.67,3.84,1.68,4.46,3.48.88,2.56-7.25,4.26-9.01,4.7-2.41.61-4.83.98-7.26,1.13-.02-1.51.11-3.03.35-4.49.1-.64-.24-1.65-1.23-1.02-3.25,2.09-6.27,3.05-9.43,4.4-.49.21-.7,1.04-.38,1.46,2.63,3.45,6.77,6.15,11.18,6.5.62.05.78-.32.55-.91-.43-1.13-.71-2.32-.87-3.53,2.63-.09,5.25-.37,7.82-.86,2.36-.45,4.68-1.15,6.94-1.97,1.78-.65,3.64-1.44,4.6-3.18,3.46-6.26-6.44-9.83-10.68-10.94Z"/>
        <g>
          <path class="cls-3" d="m132.39,34.1c-6.4,2.05-13.39,12.2-17.06,19.53-3.67,7.33-10.74,25.73-14.78,33.01-5.39,9.71-13.08,19.09-23.22,24.05-3.07,1.5-6.42,2.97-8.84,5.46-3.41,3.5-10.66,13.39-14.33,20.47-3.67,7.08-4.86,10.67-5.2,13.99-.26,2.47,2.3,3.92,4.69,2.22,2.39-1.71,11.68-19.02,12.79-20.55,1.11-1.54,3.24-3.07,4.43-1.19s-1.45,6.06-3.58,9.81c-2.13,3.75-8.27,12.37-8.53,15.86-.26,3.5,3.07,4.01,5.46,2.13,2.39-1.88,11.34-19.02,12.88-20.47,1.54-1.45,4.09-1.96,4.43,0,.34,1.96-1.02,4.86-3.07,8.36-2.05,3.5-9.81,13.9-9.64,16.63.17,2.73,2.13,3.58,5.71,1.62,3.58-1.96,14.75-20.9,17.57-26.52,2.81-5.63,2.56-12.2,2.56-14.58,0-5.79,1.11-11.69,3.29-17.1,2.24-5.55,5.61-10.57,9.05-15.44,1.85-2.61,3.8-5.16,5.83-7.63,13.16-16.03,26.47-30.62,26.72-42.73.14-6.48-2.61-8.37-7.16-6.91Zm1.3,9.43c-.16.55-.44,1.05-.8,1.49-.27.33-.65.61-1.01.84-.49.32-1.12.56-1.71.4-.71-.2-1.05-.82-1.1-1.51-.03-.38.06-.76.13-1.13.21-1.03.79-1.91,1.72-2.42.4-.22.85-.31,1.3-.36.28-.03.56.04.81.18.11.06.21.14.29.23.05.06.09.12.13.18,0,0,0-.01,0-.02,0,.01,0,.03.01.04.02.04.04.08.05.12,0,.02,0,.03,0,.05,0,.05.02.09.02.14.34.51.31,1.23.15,1.79Z"/>
          <path class="cls-2" d="m132.51,45.96c1.11-.76,1.98-2.1,1.96-3.48-.02-1.44-1.1-2.72-2.53-2.92-1.47-.21-2.89.89-3.71,2.01-.91,1.25-1.21,3.23.07,4.36,1.16,1.03,3.01.85,4.22.02Zm-2.81-.81c-.14-.82.23-1.81.78-2.43.57-.64,1.38-1.02,2.23-1.1.17-.02.33-.02.49-.01.45.79.28,1.8-.08,2.59-.46,1-1.33,1.89-2.48,1.96-.19.01-.37-.02-.54-.06-.12-.3-.34-.59-.4-.94Z"/>
          <path class="cls-2" d="m90.87,115.84s.08-.04.04-.06c-.04-.02-.08.04-.04.06Z"/>
        </g>
      </g>
      <rect class="cls-1" width="200" height="200"/>
    </g>
  </g>
</svg>