<?xml version="1.0" encoding="UTF-8"?>
<svg id="Capa_2" data-name="Capa 2" xmlns="http://www.w3.org/2000/svg" viewBox="0 0 200 200">
  <defs>
    <style>
      .cls-1 {
        fill: #ac9b9b;
      }

      .cls-1, .cls-2, .cls-3, .cls-4 {
        stroke-width: 0px;
      }

      .cls-2 {
        fill: none;
      }

      .cls-3 {
        fill: #fff;
      }

      .cls-4 {
        fill: #593737;
      }
    </style>
  </defs>
  <g id="colorful_icons" data-name="colorful icons">
    <g>
      <g>
        <path class="cls-1" d="m138.2,35.87c3.03-2.71,8.73-2.26,10.67,1.83,1.95,4.08,1.02,6.68-.09,8.63s-4.02,5.39-2.04,7.61c1.98,2.23,5.2.19,8.63-6.22,3.43-6.4,1.21-13.18-3.34-16.8-4.55-3.62-12.16-4.46-17.82-.56-5.66,3.9-9.75,13.99-12.53,24.75-4.96,19.18-8.15,38.65-11.2,58.2-.73,4.7-1.49,9.39-2.29,14.08,0,0-48.01-5.75-54.86-6.38-3.34-.31-8.96-1.58-9.16.69-.32,3.63-2.04,35.55,16.62,45.02,18.66,9.47,39.21,3.48,47.25-14.39,6.1-13.55,9.07-36.2,11.48-54.15,2.1-15.59,5.92-31.04,7.36-37.75,3.47-16.09,7.24-20.92,11.32-24.57Z"/>
        <path class="cls-3" d="m53.87,128.55c-2.52,2.68-2.08,6.31-1.47,9.71.65,3.63,1.58,7.94,4.28,10.58,1.65,1.62,4.13.16,4.22-1.9.14-3.23-1.64-6.31-2.44-9.41-.77-2.95-.59-6.06-2.15-8.74-.5-.86-1.77-.94-2.44-.24h0Z"/>
        <path class="cls-3" d="m61.31,155.79c-.12.25-.2.51-.31.76-.01.04-.03.07-.04.11.21-.57.18-.5-.09.21-.2.81,0,1.72.39,2.43.66,1.23,2.03,2.12,3.44,2.08,1.55-.05,2.93-1.72,2.34-3.27-.33-.85-.89-1.57-1.6-2.13-.34-.27-.66-.49-1.06-.65-.28-.17-.58-.25-.91-.26-.47-.05-.43-.04.11.01-.12-.02-.45-.17.06.04-.82-.34-1.89-.22-2.32.69h0Z"/>
        <path class="cls-4" d="m84.01,109.97c.26.24.72-.08.51-.39-4.09-5.91-8.39-13.28-3.73-20.07,1.96-2.85,4.85-4.92,7.45-7.15,2.58-2.22,5-4.46,7.05-7.19,4.02-5.36,6.35-11.86,5.75-18.61-.56-6.27-4.35-12.01-9.58-15.48-.58-.38-1.32.38-.95.95,3.48,5.38,5.21,12.37,4.65,18.82-.59,6.76-4.93,13.09-9.43,17.93-3.99,4.3-9.04,8.89-9.84,15.02-.88,6.78,3.56,11.9,8.13,16.18Z"/>
        <path class="cls-4" d="m65.97,109.67c-2.59-4.27-3.84-9.29-3.58-14.27.28-5.38,2.53-9.44,5.79-13.59,3.05-3.88,5.79-7.73,6.07-12.83.25-4.68-1.21-11.03-5.41-13.74-.51-.33-1.51-.04-1.52.62-.06,4.35,3.36,8.08,1.13,15.86-1.41,4.91-5.66,8.48-7.59,13.19-3.52,8.57-2.15,18.6,4.54,25.19.28.28.77-.08.56-.43Z"/>
        <path class="cls-4" d="m44.71,121.28c3.68,1.63,8.47,1.54,12.43,1.97,5.83.63,11.67,1.22,17.51,1.8,11.02,1.09,22.33,3.03,33.41,2.88.86-.01,1.09-1.33.21-1.54-10.35-2.48-21.44-2.72-32.02-3.8-5.9-.6-11.8-1.22-17.7-1.87-4.33-.48-9.28-1.81-13.62-1.16-.77.12-.94,1.4-.22,1.72h0Z"/>
      </g>
      <rect class="cls-2" width="200" height="200"/>
    </g>
  </g>
</svg>