<?xml version="1.0" encoding="UTF-8"?>
<svg id="Capa_2" data-name="Capa 2" xmlns="http://www.w3.org/2000/svg" viewBox="0 0 200 200">
  <defs>
    <style>
      .cls-1 {
        fill: #f9d980;
      }

      .cls-1, .cls-2, .cls-3, .cls-4, .cls-5 {
        stroke-width: 0px;
      }

      .cls-2 {
        fill: #ac9b9b;
      }

      .cls-3 {
        fill: none;
      }

      .cls-4 {
        fill: #593737;
      }

      .cls-5 {
        fill: #f28322;
      }
    </style>
  </defs>
  <g id="colorful_icons" data-name="colorful icons">
    <g>
      <g>
        <g>
          <path class="cls-5" d="m93.86,114.21c-3.7,3.85-6.41,5.76-7.05,6.18-.1.07-.14.1-.14.1l-5.72.19s-.13-.04-.38-.14c-1.87-.74-10.31-4.54-12.36-13.06-2.3-9.6,5.87-15.9,8.49-20.3,3.41-5.72,1.37-9.52,2.3-10.15,10.8,11.07,15.31,12.92,18.08,18.82,3.53,7.53,1.02,13.93-3.22,18.36Z"/>
          <path class="cls-1" d="m84.22,120.36c-.1.07-.14.1-.14.1l-1.3.19s-.13-.04-.38-.14c-1.36-1.95-5.43-5.66-4.98-8.96.65-4.71,4.15-9.14,4.81-11.54.64-2.4-.55-6,.18-5.9.74.09,5.45,6.17,6.83,10.05,2.71,7.63-4.57,15.18-5.02,16.2Z"/>
        </g>
        <g>
          <path class="cls-5" d="m126.46,114.21c-3.7,3.85-6.41,5.76-7.05,6.18-.1.07-.14.1-.14.1l-5.72.19s-.13-.04-.38-.14c-1.87-.74-10.31-4.54-12.36-13.06-2.3-9.6,5.87-15.9,8.49-20.3,3.41-5.72,1.37-9.52,2.3-10.15,10.8,11.07,15.31,12.92,18.08,18.82,3.53,7.53,1.02,13.93-3.22,18.36Z"/>
          <path class="cls-1" d="m116.82,120.36c-.1.07-.14.1-.14.1l-1.3.19s-.13-.04-.38-.14c-1.36-1.95-5.43-5.66-4.98-8.96.65-4.71,4.15-9.14,4.81-11.54.64-2.4-.55-6,.18-5.9.74.09,5.45,6.17,6.83,10.05,2.71,7.63-4.57,15.18-5.02,16.2Z"/>
        </g>
        <g>
          <path class="cls-2" d="m53.31,119.75c-.74.09-.83,9.5-.18,10.06.65.55,93.29.28,94.21-.09.92-.37.46-9.6,0-10.06s-93.29,0-94.03.09Z"/>
          <path class="cls-4" d="m53.74,120.57c15.87.02,31.74.03,47.61.05,7.75,0,37.57-.27,45.62-.18.8,0,.8-1.53,0-1.58-7.05-.44-15.04-.42-22.19-.2-7.75.24-15.68.02-23.43.02-15.87.02-31.74.03-47.61.05-1.18,0-1.18,1.83,0,1.83h0Z"/>
        </g>
      </g>
      <rect class="cls-3" width="200" height="200"/>
    </g>
  </g>
</svg>