<?xml version="1.0" encoding="UTF-8"?>
<svg id="Capa_2" data-name="Capa 2" xmlns="http://www.w3.org/2000/svg" viewBox="0 0 200 200">
  <defs>
    <style>
      .cls-1 {
        fill: #f9d980;
      }

      .cls-1, .cls-2, .cls-3, .cls-4, .cls-5 {
        stroke-width: 0px;
      }

      .cls-2 {
        fill: #ac9b9b;
      }

      .cls-3 {
        fill: none;
      }

      .cls-4 {
        fill: #593737;
      }

      .cls-5 {
        fill: #f28322;
      }
    </style>
  </defs>
  <g id="colorful_icons" data-name="colorful icons">
    <g>
      <g>
        <g>
          <path class="cls-5" d="m78.26,114.35c-3.66,3.82-6.35,5.71-6.99,6.12-.1.07-.14.1-.14.1l-5.67.19s-.13-.04-.37-.14c-1.85-.74-10.22-4.5-12.25-12.94-2.28-9.51,5.82-15.76,8.42-20.11,3.38-5.67,1.36-9.44,2.28-10.06,10.7,10.97,15.18,12.81,17.92,18.65,3.5,7.46,1.01,13.8-3.19,18.19Z"/>
          <path class="cls-1" d="m68.7,120.44c-.1.07-.14.1-.14.1l-1.28.19s-.13-.04-.37-.14c-1.35-1.93-5.38-5.61-4.93-8.88.65-4.66,4.12-9.05,4.76-11.43.64-2.38-.55-5.95.18-5.85.74.09,5.4,6.11,6.77,9.96,2.68,7.56-4.53,15.05-4.98,16.06Z"/>
        </g>
        <g>
          <path class="cls-5" d="m110.57,114.35c-3.66,3.82-6.35,5.71-6.99,6.12-.1.07-.14.1-.14.1l-5.67.19s-.13-.04-.37-.14c-1.85-.74-10.22-4.5-12.25-12.94-2.28-9.51,5.82-15.76,8.42-20.11,3.38-5.67,1.36-9.44,2.28-10.06,10.7,10.97,15.18,12.81,17.92,18.65,3.5,7.46,1.01,13.8-3.19,18.19Z"/>
          <path class="cls-1" d="m101.01,120.44c-.1.07-.14.1-.14.1l-1.28.19s-.13-.04-.37-.14c-1.35-1.93-5.38-5.61-4.93-8.88.65-4.66,4.12-9.05,4.76-11.43.64-2.38-.55-5.95.18-5.85.74.09,5.4,6.11,6.77,9.96,2.68,7.56-4.53,15.05-4.98,16.06Z"/>
        </g>
        <g>
          <path class="cls-5" d="m142.76,114.35c-3.66,3.82-6.35,5.71-6.99,6.12-.1.07-.14.1-.14.1l-5.67.19s-.13-.04-.37-.14c-1.85-.74-10.22-4.5-12.25-12.94-2.28-9.51,5.82-15.76,8.42-20.11,3.38-5.67,1.36-9.44,2.28-10.06,10.7,10.97,15.18,12.81,17.92,18.65,3.5,7.46,1.01,13.8-3.19,18.19Z"/>
          <path class="cls-1" d="m133.2,120.44c-.1.07-.14.1-.14.1l-1.28.19s-.13-.04-.37-.14c-1.35-1.93-5.38-5.61-4.93-8.88.65-4.66,4.11-9.05,4.76-11.43.64-2.38-.55-5.95.18-5.85.74.09,5.4,6.11,6.77,9.96,2.68,7.56-4.53,15.05-4.98,16.06Z"/>
        </g>
        <g>
          <path class="cls-2" d="m53.75,119.84c-.73.09-.82,9.42-.18,9.97.64.55,92.45.27,93.36-.09.91-.37.46-9.51,0-9.97s-92.45,0-93.18.09Z"/>
          <path class="cls-4" d="m54.17,120.66c15.73.02,31.46.03,47.19.05,7.68,0,37.23-.26,45.21-.18.79,0,.79-1.51,0-1.56-6.98-.44-14.9-.42-21.99-.2-7.68.23-15.54.02-23.22.02-15.73.02-31.46.03-47.19.05-1.17,0-1.17,1.81,0,1.81h0Z"/>
        </g>
      </g>
      <rect class="cls-3" width="200" height="200"/>
    </g>
  </g>
</svg>