<?xml version="1.0" encoding="UTF-8"?>
<svg id="Capa_2" data-name="Capa 2" xmlns="http://www.w3.org/2000/svg" viewBox="0 0 200 200">
  <defs>
    <style>
      .cls-1 {
        fill: none;
      }

      .cls-1, .cls-2, .cls-3 {
        stroke-width: 0px;
      }

      .cls-2 {
        fill: #593737;
      }

      .cls-3 {
        fill: #e34b4b;
      }
    </style>
  </defs>
  <g id="colorful_icons" data-name="colorful icons">
    <g>
      <g>
        <path class="cls-2" d="m116.62,117.16c-2.01-2.64-5.22-5.77-8.72-6.2-.03-1.48-.06-2.95-.04-4.36.07-5.38.12-10.76.16-16.14.04-5.47.07-10.95.09-16.42.01-4.69.3-9.49-.21-14.17-.39-3.53-1.35-7.53-4.91-9.11-2.98-1.33-6.98-.67-9.35,1.59-3.16,3.01-2.79,7.94-2.76,11.94.04,5.79.16,11.58.25,17.36.1,6.34.67,12.66.89,19,.13,3.69.08,7.48.29,11.23-6.24,1.12-10.93,7.69-12.55,13.41-2.07,7.33.44,15.71,6.48,20.43,13.51,10.57,34.54.73,34.52-16.57,0-4.33-1.54-8.56-4.15-11.99Zm-.44,14.5c-1.38,8.57-9.05,14.43-17.63,14.07-8.63-.36-15.28-7.05-15.13-15.75.06-3.48,1.14-7.08,3.18-9.93,2.69-3.73,6.9-5.26,7.98-6.54,1.07-1.27.04-41.99,0-47.8-.02-2.64-.13-5.77.58-8.35.86-3.11,5.52-5.17,7.76-2.23,2.86,3.75,2,11.64,1.94,16.06-.07,5.39-.13,28.04-.27,33.99-.02,1.05-.44,5.42-.11,6.52.64,2.18,3.17,3.44,4.92,4.62,1.96,1.32,3.16,2.51,4.47,4.53,2.08,3.21,2.92,7.04,2.31,10.82Z"/>
        <path class="cls-3" d="m105.27,119.56c-2.15-.71-3.56-2.76-3.5-5.03.53-18.61.18-53.71-.78-56.24-.71-1.88-2.07-1.27-2.6,0-.65,1.54-.22,14.07-.31,17.07-.12,4.03-.19,26.59.17,40.21.06,2.14-1.23,4.07-3.21,4.91-.93.39-1.64.8-2.19,1.22-2.82,2.14-4.42,5.81-3.94,9.73.83,6.75,7.53,9.53,13.74,7.89,5.76-1.52,10.42-9.26,7.95-14.98-1.07-2.47-3.03-4.01-5.33-4.77Z"/>
      </g>
      <rect class="cls-1" width="200" height="200"/>
    </g>
  </g>
</svg>