<?xml version="1.0" encoding="UTF-8"?>
<svg id="Capa_2" data-name="Capa 2" xmlns="http://www.w3.org/2000/svg" viewBox="0 0 200 200">
  <defs>
    <style>
      .cls-1 {
        fill: #fbe5a8;
      }

      .cls-1, .cls-2, .cls-3, .cls-4, .cls-5, .cls-6, .cls-7 {
        stroke-width: 0px;
      }

      .cls-2 {
        fill: none;
      }

      .cls-3 {
        fill: #fff;
      }

      .cls-4 {
        fill: #593737;
      }

      .cls-5 {
        fill: #d1c7c7;
      }

      .cls-6 {
        fill: #f3b200;
      }

      .cls-7 {
        fill: #bdafaf;
      }
    </style>
  </defs>
  <g id="colorful_icons" data-name="colorful icons">
    <g>
      <g>
        <path class="cls-4" d="m177.56,165.01c0,.45-1.34,10.45.6,11.34s7.01,1.34,8.51-.15,1.04-11.34,1.04-11.34l-10.15.15Z"/>
        <path class="cls-4" d="m12.93,165.01c0,.45-1.34,10.45.6,11.34s7.01,1.34,8.51-.15,1.04-11.34,1.04-11.34l-10.15.15Z"/>
        <path class="cls-7" d="m185.17,167.16H14.59c-12.01,0-10.61-10.22-10.61-10.22V60.66c0-12.2,12.97-10.81,16.82-10.81h158.18c3.85,0,16.82-1.4,16.82,10.81v96.28s1.41,10.22-10.61,10.22Z"/>
        <path class="cls-1" d="m16.36,62.79v89.54h117.15V63.24s-117.29-.6-117.15-.45Z"/>
        <path class="cls-5" d="m16.36,144.87v7.46h117.15v-7.42s-117.29-.05-117.15-.04Z"/>
        <g>
          <path class="cls-6" d="m108.3,111.14c-2.01,0-61.83-.63-65.74-.31-3.91.31-3.46.31-3.35,2.41.11,2.1,4.13,20.55,20.76,25.37.42.12.84.23,1.26.35-1.42,1.18-3.46,3.28-2.83,5.26.94,2.96,5.79,3.35,14.09,3.35s15.72.55,18.35-1.37c2.63-1.92.7-5.05-.53-6.7-.29-.39-.55-.74-.78-1.06,3.16-1.14,5.84-2.6,7.94-4.23,7.34-5.66,11.33-13.36,12.5-18.66.87-3.9.33-4.4-1.67-4.4Z"/>
          <path class="cls-4" d="m59.86,139.91c3.77,1.85,9.7,2.1,14.36,2.2,5.39.12,11.13-.59,16.2-2.67.62-.26.4-1.31-.3-1.25-2.6.23-5.15.99-7.73,1.37-2.81.41-4.65.51-8.71.51-4.59,0-8.96-.32-13.43-1.3-.37-.08-.64,1.01-.38,1.14Z"/>
        </g>
        <path class="cls-4" d="m133.66,61.65c-.06-.41-19.17-.6-22.93-.58-7.61.03-15.23.07-22.84.11-15.24.09-30.47.19-45.71.26-4.21.02-8.41.03-12.62.04-4.32.01-8.72.12-13.04.19-.75.01-1.02.63-1.03.96-.21,5.79-.16,11.6-.21,17.4-.06,5.88-.08,11.75-.08,17.62-.01,11.68-.02,23.35-.03,35.03,0,3.2,0,6.4,0,9.59,0,3.29-.01,6.93.49,10.19.06.41,4.17.43,5.88.42,1.92,0,3.83,0,5.75-.01,3.76,0,7.53-.02,11.29-.04,7.61-.03,15.23-.07,22.84-.11,15.24-.09,30.47-.19,45.71-.26,4.21-.02,8.41-.03,12.62-.04,4.32-.01,9.57.42,13.87-.02.28-.03.19-.81.21-1.14.21-5.79.16-11.6.21-17.4.06-5.88.08-11.75.08-17.62.01-11.68.02-23.35.03-35.03,0-3.2,0-6.4,0-9.59,0-3.29.03-6.72-.47-9.98Zm-12.39,88.81c-3.76,0-7.53.02-11.29.03-7.61.02-15.23.06-22.84.1-15.24.08-30.47.17-45.71.22-4.21.01-8.41.03-12.62.03-2.14,0-4.27,0-6.41,0-1.86,0-3.42.02-5.46,0,.72-5.37.35-10.52.34-15.93,0-5.87-.01-11.75-.02-17.62-.01-11.68.04-23.35-.08-35.03-.06-6.31,0-12.5-.22-18.81,3.65.32,7.38,0,11.04,0,3.76,0,7.53-.02,11.29-.03,7.61-.02,15.23-.06,22.84-.1,15.24-.08,30.47-.17,45.71-.22,4.21-.01,22.65.43,24.47.2-.24,5.39-.32,10.28-.32,15.69,0,5.87.01,11.75.02,17.62.01,11.68-.04,23.35.08,35.03.06,6.31,0,12.5.22,18.81-3.76.06-7.38,0-11.04,0Z"/>
        <path class="cls-4" d="m151.25,81.82v.03c4.95.65,10.03.64,15.04.86,6.85.31,13.67.5,20.5-.22.52-.05,1.05-.42,1.01-1.01-.35-5.58.03-11.45-.07-17.02,0-.36-.3-.68-.67-.67-1.87.03-3.74,0-5.61,0-3.4,0-6.8-.01-10.2-.02-3.58,0-7.16-.02-10.74-.03-1.51,0-3.02,0-4.53-.01-1.47,0-2.97-.11-4.43.08-.34.04-.68.2-.68.59-.03,2.84-.09,5.99-.2,8.83-.1,2.6-.54,5.43-.14,8,.06.38.38.57.73.59Z"/>
        <path class="cls-3" d="m168.38,71.67c.06.05.13.1.19.15.15.09.31.13.48.13.13,0,.25-.02.36-.08.12-.04.22-.1.3-.2.09-.09.16-.19.2-.3.06-.11.09-.23.08-.36-.01-.08-.02-.17-.03-.25-.04-.16-.13-.3-.24-.42-.06-.05-.13-.1-.19-.15-.15-.09-.31-.13-.48-.13-.13,0-.25.02-.36.08-.12.04-.22.1-.3.2-.09.09-.16.19-.2.3-.06.11-.09.23-.08.36.01.08.02.17.03.25.04.16.13.3.24.42Z"/>
        <path class="cls-3" d="m169.59,74.9c-.1-.06-.21-.1-.33-.1-.12-.03-.23-.02-.35.02-.15.04-.28.12-.39.23,0,0,0,0,0,0-.09.08-.15.17-.18.28-.06.1-.08.22-.08.34.01.08.02.16.03.23.03.11.08.21.16.3.04.07.09.12.16.16.08.08.18.13.3.16.08.01.16.02.23.03.16,0,.31-.04.44-.12,0,0,0,0,0,0,.13-.08.24-.18.32-.32.03-.07.06-.14.09-.21.04-.16.04-.31,0-.47-.03-.11-.08-.21-.16-.3-.06-.1-.14-.17-.25-.23Z"/>
        <path class="cls-3" d="m161.59,77.41c.04.4.12.76.46,1.03.42.32,1.01.22,1.49.17,1.12-.12,2.13-.21,3.26-.18.49.01.77-.63.41-1-.48-.51-1.67-.31-3.11-.21-.7.05-1.05.09-1.14-.03-.11-.13-.19-2.33-.32-2.92.83-.14,1.67-.27,2.5-.41.45-.07,1.34-.02,1.66-.42.21-.27.15-.56.15-.88,0-1.13-.17-2.29-.21-3.42,0-.25-.2-.46-.46-.46-1.32,0-2.64-.02-3.95.11-.2.02-.29.34-.05.38,1.19.22,2.39.3,3.6.4.16,1.03.5,2.62-.25,3.19-.32.25-1.5.15-1.88.19-.63.06-1.25.13-1.88.19-.41.04-.7.36-.6.79.28,1.19.19,2.29.32,3.48Z"/>
        <path class="cls-3" d="m171.45,77.97c-.01.31.26.53.55.55,1.2.07,4.38.7,4.76-.93.25-1.07-.09-2.47-.15-3.57-.09-1.58.01-3.5-.19-5.06-.06-.47-3.13-.4-3.93,0-.34.17-.6.44-.69.85-.27,1.13-.12,2.62-.16,3.77-.06,1.46-.12,2.93-.18,4.39Zm1.24-7.43c.39-1.04,1.48-1.11,2.47-1.13-.28,1.73.02,3.57.2,5.29.07.72.53,2.17-.21,2.66-.46.3-1.74.18-2.6.1.03-1.52.06-3.04.09-4.55.01-.66-.18-1.76.04-2.36Z"/>
        <path class="cls-3" d="m178.47,78.77c1.2-.13,2.38-.18,3.59-.14.33.01.64-.3.63-.63-.12-2.85.38-5.68.31-8.52,0-.32-.21-.82-.77-.88-1.17-.13-3.6-.63-4.04.86-.35,1.16-.2,2.81-.24,4.02-.06,1.55-.09,3.1-.1,4.66,0,.32.3.67.64.64Zm1.38-9.09c.42-.25,1.36-.13,2.04-.18-.02.05-.14,5.24-.4,7.86-.79-.01-1.58.02-2.37.08.03-1.68.08-3.36.15-5.04.03-.83-.25-2.21.58-2.72Z"/>
        <path class="cls-4" d="m152.13,100.33c1.49,1.29,3.61,1.74,5.45.97,1.81-.76,3.18-2.47,3.49-4.42.55-3.5-2.73-5.78-5.85-5.83-1.35-.02-2.72.59-3.66,1.65-1.25,1.41-1.49,3.47-.89,5.23.21.9.69,1.73,1.46,2.39Zm-.03-5.59c.86-2.07,3.32-2.76,5.12-2.04,1.07.43,1.91,1.37,2.04,2.81.21,2.52-1.98,4.6-4.46,4.53-.55-.01-1.02-.17-1.42-.43-.03-.02-.06-.04-.09-.06,0,0,0,0-.01,0-.1-.07-.19-.15-.28-.22-1.17-1.07-1.5-3.12-.89-4.59Z"/>
        <path class="cls-4" d="m165.06,92.8c-1.22,1.38-1.46,3.39-.87,5.1.21.88.68,1.69,1.42,2.33,1.45,1.26,3.53,1.7,5.32.95,1.76-.74,3.11-2.41,3.4-4.31.77-4.92-6.11-7.67-9.28-4.07Zm3.15,7.16c-.53-.01-.99-.17-1.39-.42-.03-.02-.06-.04-.09-.06,0,0,0,0-.01,0-.1-.07-.19-.14-.27-.22-1.99-1.82-1.3-5.41,1.12-6.48,1.01-.45,2.1-.41,3.01,0,1.06.47,1.87,1.45,1.98,2.77.21,2.46-1.94,4.49-4.36,4.42Z"/>
        <path class="cls-4" d="m185.83,92.48c-1.08-.81-2.46-1.28-3.81-1.3-1.33-.02-2.66.57-3.58,1.62-1.22,1.39-1.46,3.4-.87,5.12.21.88.68,1.69,1.43,2.34,1.46,1.26,3.54,1.71,5.34.95,1.77-.74,3.12-2.42,3.41-4.33.29-1.85-.58-3.39-1.92-4.4Zm-4.23,7.5c-.53-.01-1-.17-1.39-.42-.03-.02-.06-.04-.09-.06,0,0,0,0-.01,0-.1-.07-.19-.14-.27-.22-1.15-1.05-1.47-3.05-.87-4.49.76-1.83,3.17-2.68,5.02-2.02.34.12.66.3.95.52,2.93,2.31-.25,6.77-3.34,6.69Z"/>
        <path class="cls-4" d="m152.07,114.02c1.49,1.29,3.61,1.74,5.45.97,1.81-.76,3.18-2.47,3.49-4.42.55-3.5-2.73-5.78-5.85-5.83-1.35-.02-2.72.59-3.66,1.65-1.25,1.41-1.49,3.47-.89,5.23.21.9.69,1.73,1.46,2.39Zm-.03-5.59c.86-2.07,3.32-2.76,5.12-2.04,1.07.43,1.91,1.37,2.04,2.81.21,2.52-1.98,4.6-4.46,4.53-.55-.01-1.02-.17-1.42-.43-.03-.02-.06-.04-.09-.06,0,0,0,0-.01,0-.1-.07-.19-.15-.28-.22-1.17-1.07-1.5-3.12-.89-4.59Z"/>
        <path class="cls-4" d="m164.95,106.49c-1.22,1.38-1.46,3.39-.87,5.1.21.88.68,1.69,1.42,2.33,1.45,1.26,3.53,1.7,5.32.95,1.76-.74,3.11-2.41,3.4-4.31.77-4.92-6.11-7.67-9.28-4.07Zm3.15,7.16c-.53-.01-.99-.17-1.39-.42-.03-.02-.06-.04-.09-.06,0,0,0,0-.01,0-.1-.07-.19-.14-.27-.22-1.99-1.82-1.3-5.41,1.12-6.48,1.01-.45,2.1-.41,3.01,0,1.06.47,1.87,1.46,1.98,2.77.21,2.46-1.94,4.49-4.36,4.42Z"/>
        <path class="cls-4" d="m185.73,106.16c-1.08-.81-2.46-1.28-3.81-1.3-1.33-.02-2.66.57-3.58,1.62-1.22,1.39-1.46,3.4-.87,5.12.21.88.68,1.69,1.43,2.34,1.46,1.26,3.54,1.71,5.34.95,1.77-.74,3.12-2.42,3.41-4.33.29-1.85-.58-3.39-1.92-4.4Zm-4.23,7.5c-.53-.01-1-.17-1.39-.42-.03-.02-.06-.04-.09-.06,0,0,0,0-.01,0-.1-.07-.19-.14-.27-.22-1.15-1.05-1.47-3.05-.87-4.49.76-1.83,3.17-2.68,5.02-2.02.34.12.66.3.95.52,2.93,2.31-.25,6.77-3.34,6.69Z"/>
        <path class="cls-4" d="m152.02,127.71c1.49,1.29,3.61,1.74,5.45.97,1.81-.76,3.18-2.47,3.49-4.42.55-3.5-2.73-5.78-5.85-5.83-1.35-.02-2.72.59-3.66,1.65-1.25,1.41-1.49,3.47-.89,5.23.21.9.69,1.73,1.46,2.39Zm-.03-5.59c.86-2.07,3.32-2.76,5.12-2.04,1.07.43,1.91,1.37,2.04,2.81.21,2.52-1.98,4.6-4.46,4.53-.55-.01-1.02-.17-1.42-.43-.03-.02-.06-.04-.09-.06,0,0,0,0-.01,0-.1-.07-.19-.15-.28-.22-1.17-1.07-1.5-3.12-.89-4.59Z"/>
        <path class="cls-4" d="m164.95,120.18c-1.22,1.38-1.46,3.39-.87,5.1.21.88.68,1.69,1.42,2.33,1.45,1.26,3.53,1.7,5.32.95,1.76-.74,3.11-2.41,3.4-4.31.77-4.92-6.11-7.67-9.28-4.07Zm3.15,7.16c-.53-.01-.99-.17-1.39-.42-.03-.02-.06-.04-.09-.06,0,0,0,0-.01,0-.1-.07-.19-.14-.27-.22-1.99-1.82-1.3-5.41,1.12-6.48,1.01-.45,2.1-.41,3.01,0,1.06.47,1.87,1.45,1.98,2.77.21,2.46-1.94,4.49-4.36,4.42Z"/>
        <path class="cls-4" d="m185.73,119.85c-1.08-.81-2.46-1.28-3.81-1.3-1.33-.02-2.66.57-3.58,1.62-1.22,1.39-1.46,3.4-.87,5.12.21.88.68,1.69,1.43,2.34,1.46,1.26,3.54,1.71,5.34.95,1.77-.74,3.12-2.42,3.41-4.33.29-1.85-.58-3.39-1.92-4.4Zm-4.23,7.5c-.53-.01-1-.17-1.39-.42-.03-.02-.06-.04-.09-.06,0,0,0,0-.01,0-.1-.07-.19-.14-.27-.22-1.15-1.05-1.47-3.05-.87-4.49.76-1.83,3.17-2.68,5.02-2.02.34.12.66.3.95.52,2.93,2.31-.25,6.77-3.34,6.69Z"/>
        <path class="cls-4" d="m182.87,136.55c-3.49-.54-7.14-.32-10.65-.32-4.86,0-9.81-.31-14.64.23-2.23.25-4.58.97-5.8,3.01-1.26,2.1-1.09,4.92-.86,7.26.21,2.14.77,4.41,2.39,5.95,1.53,1.45,3.69,1.8,5.69,2.04,3.26.4,6.54.64,9.83.71,2.68.06,5.44.02,8.14-.2,2.42-.2,5-.28,7.29-1.24,2.47-1.02,3.88-3.04,4.38-5.63.47-2.42.73-5.46-.12-7.81-.9-2.49-3.15-3.62-5.64-4.01Zm.88,15.14c-3.39,1.44-6.98,1.24-10.75,1.29-5.05.07-10.59.3-15.53-.91-2.13-.52-3.6-1.85-3.95-4.07-.42-2.64-.7-7.27,2.29-8.38,1.71-.64,3.76-.61,5.57-.67,2.14-.07,4.28-.09,6.42-.12,1.06-.01,2.11-.04,3.17-.09,2.51.08,5.03.1,7.53.2,1.3.05,2.62.1,3.91.3,1.39.22,2.79.6,3.46,1.94.59,1.18.54,2.67.56,3.96.04,2.47-.07,5.44-2.69,6.55Z"/>
        <path class="cls-4" d="m144.68,167.16h-1.97c-.52-3.75-.3-7.59-.29-11.39v-13.39c0-15.85,0-31.7.03-47.54,0-7.96,0-15.92.06-23.89.06-7.02.05-14.08.38-21.1h1.62c.39,8.07.33,16.16.4,24.22.14,15.85.06,31.71.06,47.54v23.89c0,3.94,0,7.89,0,11.83,0,3.29.14,6.57-.3,9.82Z"/>
        <path class="cls-4" d="m94.95,89.37c1.02,1.65,1.39,3.58,1.48,5.5.11,2.25-.24,4.36-1.15,6.42-.76,1.73-1.92,3.32-2.47,5.12-.08.25.25.42.43.25,2.34-2.25,4.02-5.94,5.22-8.93,1.32-3.29,1.32-6.7-.39-9.85-1.51-2.78-4.54-4.72-5.66-7.68-.56-1.47-.54-3.09-.03-4.58.46-1.35,1.66-2.37,1.82-3.79.03-.3-.28-.56-.56-.56-2.5.04-3.67,3.8-3.97,5.81-.47,3.09.62,5.91,2.39,8.41.93,1.32,2.05,2.49,2.9,3.88Z"/>
        <path class="cls-4" d="m79.18,94.28c2.69,4.2-2.68,8.35-3.84,12.14-.06.21.2.45.4.31,1.33-1,2.21-2.64,3.06-4.05.97-1.6,1.78-3.2,2.38-4.96.51-1.5,1.03-3.28.7-4.87-.33-1.62-1.41-3-2.43-4.25-2.1-2.55-4.94-4.52-6.68-7.37-2.37-3.9-.46-7.29,1.22-10.95.25-.55-.27-1.15-.84-.84-2.81,1.51-4.14,4.9-4.42,7.98-.32,3.45,1.2,6.66,3.45,9.19,2.31,2.59,5.13,4.74,7.02,7.69Z"/>
        <path class="cls-4" d="m57.25,89.37c1.02,1.65,1.39,3.58,1.48,5.5.11,2.25-.24,4.36-1.15,6.42-.76,1.73-1.92,3.32-2.47,5.12-.08.25.25.42.43.25,2.34-2.25,4.02-5.94,5.22-8.93,1.32-3.29,1.32-6.7-.39-9.85-1.51-2.78-4.54-4.72-5.66-7.68-.56-1.47-.54-3.09-.03-4.58.46-1.35,1.66-2.37,1.82-3.79.03-.3-.28-.56-.56-.56-2.5.04-3.67,3.8-3.97,5.81-.47,3.09.62,5.91,2.39,8.41.93,1.32,2.05,2.49,2.9,3.88Z"/>
      </g>
      <rect class="cls-2" width="200" height="200"/>
    </g>
  </g>
</svg>