<?xml version="1.0" encoding="UTF-8"?>
<svg id="Capa_2" data-name="Capa 2" xmlns="http://www.w3.org/2000/svg" viewBox="0 0 200 200">
  <defs>
    <style>
      .cls-1 {
        fill: #fbe5a8;
      }

      .cls-1, .cls-2, .cls-3, .cls-4, .cls-5, .cls-6, .cls-7, .cls-8 {
        stroke-width: 0px;
      }

      .cls-2 {
        fill: none;
      }

      .cls-3 {
        fill: #fff;
      }

      .cls-4 {
        fill: #593737;
      }

      .cls-5 {
        fill: #d3885d;
      }

      .cls-6 {
        fill: #8b7373;
      }

      .cls-7 {
        fill: #f3b200;
      }

      .cls-8 {
        fill: #bdafaf;
      }
    </style>
  </defs>
  <g id="colorful_icons" data-name="colorful icons">
    <g>
      <g>
        <g>
          <path class="cls-8" d="m11.97,52.28s.33,125.99.66,127.96.33,3.94,8.2,3.94h160.11s3.61,1.31,4.59-5.58-.33-126.97-.33-126.97c0,0-173.23,0-173.23.66Z"/>
          <path class="cls-1" d="m18.2,60.15v91.21h160.11V60.15s-160.6-.49-160.11,0Z"/>
          <path class="cls-4" d="m185.2,51.62s-173.23,0-173.23.66c0,0,0,3.84.03,10.17h173.31c-.07-6.72-.11-10.83-.11-10.83Z"/>
          <path class="cls-8" d="m4.42,17.83v39.7h189.96V18.81S3.93,17.33,4.42,17.83Z"/>
          <path class="cls-6" d="m174.02,71.68c-.07-.3-.31-.53-.61-.61-9.7-1.14-19.41-.89-29.19-.91-9.77-.02-19.45,0-29.19,0l-58.38.1c-5.4,0-10.8,0-16.2.08-5.66.11-11.38,0-17.02.62-.49,0-.89.4-.89.89,0,.34.15,10.18.23,10.49.07.3.31.53.61.61,9.7,1.14,19.41.88,29.19.9,9.77.02,19.45,0,29.19,0l58.38-.1c5.4,0,10.84,0,16.21-.07,5.66-.11,11.38,0,17.01-.62.49,0,.89-.4.89-.89,0-.33-.15-10.19-.23-10.49Z"/>
          <path class="cls-4" d="m58.6,46.34c.93-.1,1.84-.37,2.68-.78,4.71-2.33,6.36-8.71,3.06-12.88-2.16-2.62-5.72-3.6-8.91-2.45-3.74,1.36-6.04,5.12-5.56,9.07.47,4.35,4.38,7.51,8.73,7.04Zm-2.19-13.76c1.9-.22,4.44.49,5.55,2.15,1.37,2.14,1.17,4.93-.5,6.85-1.89,2.11-5.12,2.29-7.23.4-.56-.5-1-1.11-1.29-1.8-1.55-3.26-.51-7.13,3.48-7.61Z"/>
          <path class="cls-4" d="m27.28,46.33c.93-.1,1.83-.37,2.67-.78,4.71-2.32,6.35-8.71,3.05-12.87-2.15-2.62-5.72-3.6-8.91-2.45-3.74,1.36-6.05,5.12-5.57,9.07.48,4.36,4.4,7.51,8.76,7.03Zm-2.19-13.75c1.9-.22,4.44.49,5.55,2.15,1.37,2.14,1.16,4.93-.5,6.85-1.89,2.11-5.13,2.29-7.24.39-.55-.5-.99-1.11-1.29-1.8-1.54-3.26-.51-7.13,3.49-7.61Z"/>
          <path class="cls-4" d="m134.28,45.56c3.93,1.94,8.69.33,10.63-3.6.41-.83.67-1.73.77-2.65.48-3.95-1.83-7.72-5.57-9.08-3.19-1.15-6.75-.16-8.91,2.45-3.29,4.17-1.64,10.56,3.07,12.88Zm-.68-10.82v-.02c1.1-1.67,3.64-2.37,5.55-2.15,3.99.48,5,4.34,3.49,7.61-1.12,2.6-4.13,3.81-6.74,2.69-.68-.29-1.3-.73-1.8-1.29-1.65-1.92-1.86-4.7-.5-6.84Z"/>
          <path class="cls-4" d="m165.63,45.56c3.92,1.95,8.68.35,10.63-3.57.42-.84.68-1.75.78-2.68.49-3.95-1.82-7.72-5.56-9.08-3.19-1.14-6.76-.16-8.91,2.45-3.3,4.17-1.65,10.56,3.06,12.88Zm-.68-10.82v-.02c1.1-1.67,3.64-2.37,5.55-2.15,3.99.48,5,4.34,3.48,7.61-1.12,2.6-4.13,3.81-6.74,2.69-.68-.29-1.3-.73-1.8-1.29-1.65-1.92-1.85-4.7-.49-6.84Z"/>
          <path class="cls-4" d="m78.71,45.57c.06.19.14.38.24.56,1.16,1.98,4.28,1.38,6.15,1.38,2.82,0,5.64,0,8.47-.01,4.46-.02,8.92-.05,13.38-.1,3.45-.04,6.87.29,10.3-.26.62-.1,1.26-.23,1.76-.61,1.73-1.3.82-6.24.78-8.12-.05-2.35.22-4.95-.18-7.27-.64-3.66-5.84-2.6-8.42-2.57-5.35.07-10.88.08-16.3.13-4.78.05-12.15-.49-15.4.76-.27.1-.53.26-.66.51-.35.7-.17,1.97-.21,2.73-.07,1.26-.14,2.51-.18,3.77-.09,2.6-.1,5.21.09,7.8.03.44.07.88.2,1.3Z"/>
          <g>
            <path class="cls-3" d="m98.98,36.13c.07.05.14.11.21.16.16.09.34.14.52.14.14,0,.28-.02.4-.09.13-.04.24-.11.33-.21.1-.09.17-.21.21-.33.07-.12.09-.26.09-.4-.01-.09-.02-.18-.04-.28-.05-.18-.14-.33-.27-.46-.07-.05-.14-.11-.21-.16-.16-.09-.34-.14-.52-.14-.14,0-.28.02-.4.09-.13.04-.24.11-.33.21-.1.09-.17.21-.21.33-.07.12-.09.26-.09.4.01.09.02.18.04.28.05.18.14.33.27.46Z"/>
            <path class="cls-3" d="m100.32,39.68c-.11-.07-.23-.11-.36-.11-.13-.03-.26-.02-.39.02-.16.05-.31.13-.43.25,0,0,0,0,0,0-.09.09-.16.19-.2.31-.06.12-.09.24-.08.37.01.09.02.17.03.26.03.13.09.24.17.33.04.07.1.13.17.17.09.09.2.14.33.17.09.01.17.02.26.03.17,0,.34-.04.49-.13,0,0,0,0,0,0,.15-.09.26-.2.35-.35.03-.08.06-.15.1-.23.05-.17.05-.34,0-.51-.03-.13-.09-.24-.17-.33-.07-.11-.16-.19-.27-.25Z"/>
            <g>
              <path class="cls-3" d="m83.22,42.1c.05.44.13.84.5,1.13.46.35,1.11.24,1.63.19,1.23-.13,2.34-.23,3.58-.2.54.01.84-.69.46-1.1-.53-.56-1.84-.34-3.41-.23-.77.05-1.15.1-1.26-.03-.12-.15-.21-2.56-.35-3.21.92-.15,1.84-.3,2.75-.45.49-.08,1.47-.02,1.83-.47.23-.29.16-.62.16-.96,0-1.24-.18-2.52-.23-3.76,0-.27-.22-.51-.51-.51-1.45.01-2.9-.03-4.35.12-.22.02-.31.37-.06.42,1.31.24,2.63.33,3.95.44.17,1.13.55,2.88-.27,3.51-.36.27-1.65.17-2.06.21-.69.07-1.38.14-2.06.21-.45.05-.77.4-.66.87.31,1.31.21,2.52.36,3.82Z"/>
              <path class="cls-3" d="m101.93,42.72c-.01.34.29.59.61.61,1.32.07,4.81.77,5.24-1.02.28-1.18-.1-2.72-.17-3.93-.1-1.74.01-3.84-.21-5.56-.07-.52-3.44-.45-4.32,0-.38.19-.65.49-.76.93-.3,1.24-.13,2.88-.18,4.15-.07,1.61-.13,3.22-.2,4.82Zm1.37-8.16c.43-1.14,1.63-1.22,2.72-1.25-.31,1.9.03,3.92.22,5.82.08.79.58,2.38-.23,2.92-.5.33-1.91.19-2.86.11.03-1.67.06-3.34.09-5.01.01-.72-.2-1.93.05-2.6Z"/>
              <path class="cls-3" d="m109.64,43.67c1.32-.14,2.62-.19,3.94-.15.36.01.71-.33.69-.69-.14-3.13.42-6.24.34-9.36,0-.35-.23-.9-.85-.97-1.29-.14-3.96-.7-4.45.94-.38,1.28-.22,3.09-.27,4.41-.06,1.71-.1,3.41-.11,5.12,0,.35.33.74.7.7Zm1.52-9.99c.46-.28,1.5-.14,2.24-.2-.02.05-.15,5.76-.44,8.64-.87-.01-1.74.02-2.61.09.03-1.85.09-3.69.16-5.54.04-.91-.28-2.43.64-2.99Z"/>
              <path class="cls-3" d="m90.89,42.72c-.01.34.29.59.61.61,1.32.07,4.81.77,5.24-1.02.28-1.18-.1-2.72-.17-3.93-.1-1.74.01-3.84-.21-5.56-.07-.52-3.44-.45-4.32,0-.38.19-.65.49-.76.93-.3,1.24-.13,2.88-.18,4.15-.07,1.61-.13,3.22-.2,4.82Zm1.37-8.16c.43-1.14,1.63-1.22,2.72-1.25-.31,1.9.03,3.92.22,5.82.08.79.58,2.38-.23,2.92-.5.33-1.91.19-2.86.11.03-1.67.06-3.34.09-5.01.01-.72-.2-1.93.05-2.6Z"/>
            </g>
          </g>
          <g>
            <g>
              <path class="cls-4" d="m96.84,90.35c.56-1.06,1.58-1.53,1.4-2.87,0-.27-.38-.5-.6-.25-1.14,1.28-2.84,2.97-2.5,4.85.23.82.65,1.57,1.23,2.18,1.78,2.28,2.27,3.69.18,6.29-.17.17-.17.45,0,.62.17.17.45.17.62,0h.03c1.93-1.73,3.21-3.69,1.6-6.1-1.02-1.52-3.09-2.59-1.97-4.72Z"/>
              <path class="cls-4" d="m105.68,94.86c-.42-.54-.7-1.18-.83-1.85,0-.15-.29-.17-.32,0-.11.89.2,1.78.83,2.41,1.32,1.45.13,3.45-1.05,4.69-.28.29.09.83.46.58h0c1.26-.76,2.11-2.04,2.33-3.49.07-.49-.07-.99-.38-1.38-.28-.38-.73-.58-1.05-.95Z"/>
              <path class="cls-4" d="m144.8,97.48c-.31-2.36-2.04-4.64-2.78-6.9-.01-.1-.1-.17-.2-.16-.1.01-.17.1-.16.2,0,2.26,1.78,3.84,1.96,6.03.23,2.64-2.5,4.09-3.04,6.5-.38,1.75.28,3.44.93,5,1.58,3.89,1.46,6.67-.28,10.53-.25.55.53,1.03.83.48v.03c1.14-2.11,2.39-4.36,2.13-6.83-.37-3.4-3.66-6.31-1.88-9.79.91-1.77,2.82-2.92,2.5-5.11Z"/>
              <path class="cls-4" d="m136.23,94.9c-.15.85-.18,1.72-.08,2.58-.02,1.03-.23,2.05-.63,2.99-.15.38.45.61.65.28h0c.93-1.59,2.05-4.36.75-6.02-.2-.27-.61-.08-.69.18Z"/>
              <path class="cls-4" d="m52.89,107.76c-.83-2.25-.16-4.17.17-6.45.05-.38-.38-.73-.69-.41-1.67,1.76-1.62,4.38-.68,6.52.72,1.67,1.83,2.33,2.03,4.22.18,1.73-.23,2.07-1.06,3.48-.54.93-1.08,1.85-1.67,2.78-.29.49.43,1.08.83.63h.02c1.53-1.77,3.74-4.39,3.15-6.93-.33-1.44-1.59-2.44-2.1-3.84Z"/>
              <path class="cls-4" d="m58.98,98.38c.05-.24-.1-.47-.34-.53-.14-.03-.28,0-.39.1-2.61,2.1-.24,6.43.13,8.98.09.62,1.05.44,1.06-.14h.04c-.02-1.31-.19-2.61-.51-3.89-.29-1.5-.29-3.03,0-4.53Z"/>
            </g>
            <g>
              <path class="cls-5" d="m141.68,131.78l-17.28.22-1.98.03-31.26.39-1.32.02-18.87.24h-.47s-15.65.21-15.65.21c0,0,3.6-14.55,9.95-21.44,6.34-6.89,12.24-6.12,14.66-5.69,1.3.24,2.6.8,3.52,1.25.78.39,1.28.72,1.28.72,0,0,.49-.26,1.31-.48,0,0,.02,0,.04,0,1.21-.32,3.1-.59,5.22.06,2.81.85,5.36,2.5,6.35,3.18.28.2.43.31.43.31,0,0,.68-.6,1.84-1.29,1.66-.97,4.29-2.11,7.34-1.88,2.76.21,4.3.76,5.06,1.14.45.23.63.38.63.38,0,0,.18-.19.51-.47,1.69-1.46,7.4-5.6,14.25-2.04,8.2,4.26,14.44,25.15,14.44,25.15Z"/>
              <path class="cls-4" d="m85.3,113.21c-.15-.09-.31-.14-.48-.13-.25.01-.49.11-.68.28-.09.08-.16.19-.2.31-.06.11-.09.24-.08.37v.25c.05.16.14.3.25.43l.19.14c.15.09.31.14.48.13.13,0,.25-.02.37-.08.23-.08.42-.27.5-.5.06-.11.09-.24.08-.37v-.26c-.04-.16-.13-.3-.24-.42l-.19-.15Z"/>
              <path class="cls-4" d="m87.89,111.9c0-.54-.44-.97-.97-.97-.54,0-.97.44-.97.98,0,.54.44.97.97.97.54,0,.97-.44.97-.98Z"/>
              <path class="cls-4" d="m87.68,115.36c-.41.04-.7.41-.66.82.04.35.31.62.66.66.41-.04.7-.41.66-.82-.04-.35-.31-.62-.66-.66Z"/>
              <path class="cls-4" d="m68.69,113.68c-.48,0-.86.39-.86.86s.39.86.86.86.86-.39.86-.86-.39-.86-.86-.86Z"/>
              <path class="cls-4" d="m70.98,111.71c-.51.05-.88.5-.83,1.01.04.44.39.79.83.83.51-.05.88-.5.83-1.01-.04-.44-.39-.79-.83-.83Z"/>
              <path class="cls-4" d="m104.36,112.59c-.66.06-1.14.63-1.09,1.29.05.58.51,1.04,1.09,1.09.66-.05,1.14-.63,1.09-1.29-.05-.58-.51-1.04-1.09-1.09Z"/>
              <path class="cls-4" d="m108.56,114.06c.58-.05,1-.56.95-1.14-.05-.51-.45-.91-.95-.95-.58.05-1,.56-.95,1.14.05.51.45.91.95.95Z"/>
              <path class="cls-4" d="m121.72,111.57c-.38,0-.68.31-.68.68,0,.38.31.68.68.68.38,0,.68-.31.68-.68,0-.38-.31-.68-.68-.68Z"/>
              <path class="cls-4" d="m124.78,109.63c-.4,0-.72.32-.72.72s.32.72.72.72.72-.32.72-.72-.32-.72-.72-.72Z"/>
              <path class="cls-4" d="m115.87,123.14c.27,0,.54-.11.73-.3.19-.2.3-.46.3-.73,0-.27-.11-.54-.3-.73-.2-.19-.46-.3-.73-.31-.28,0-.54.11-.73.31-.2.19-.3.46-.3.73,0,.27.11.54.3.73.2.19.46.3.73.3Z"/>
              <path class="cls-4" d="m116.67,127.71s-.02.08-.02.12c.01.31.27.55.58.54.04,0,.07,0,.11-.01.16-.03.31-.07.46-.14.21-.13.28-.41.15-.62-.04-.06-.09-.11-.15-.15-.15-.07-.3-.11-.46-.13-.29-.07-.59.11-.67.4Z"/>
              <path class="cls-4" d="m84.71,123.42c-.64.05-1.12.62-1.06,1.26.05.57.5,1.02,1.06,1.06.64-.05,1.12-.62,1.06-1.26-.05-.57-.5-1.02-1.06-1.06Z"/>
              <path class="cls-4" d="m80.52,110.8c-1.32,1.4-2.38,3.03-3.36,4.69-1.44,2.45-2.68,5.05-3.65,7.72-.51,1.41-.95,2.83-1.3,4.28-.39,1.59-.43,3.43-1.02,4.94-.04.1-.12.18-.22.24h0c-.15.09-.33.1-.46,0-.08-.04-.14-.13-.16-.25-.3-1.54.18-3.38.52-4.88.38-1.71.9-3.41,1.52-5.06,1.03-2.8,2.34-5.49,3.91-8.04,1.16-1.89,2.46-3.66,4.06-5.22.72-.7,1.62-1.53,2.64-2.23.78.39,1.28.72,1.28.72,0,0-1.69.9-3.74,3.08Z"/>
              <path class="cls-4" d="m99.44,109.49c-.49.66-.93,1.38-1.33,1.99-.6.93-1.03,1.79-1.55,2.76-1.07,2-1.96,4.08-2.72,6.22-1.37,3.89-2.09,7.9-2.69,11.96-.06.38-.11.78-.17,1.16-.1.69-1.22.51-1.2-.17,0-.32.03-.65.05-.97.26-4.33,1.23-8.69,2.71-12.77.79-2.18,1.75-4.31,2.87-6.33.55-.98,1.13-1.94,1.75-2.87.76-.52,1.4-.83,2.27-.97Z"/>
              <path class="cls-4" d="m123.94,134.11c-.18.25-.53.36-.78.11-.53-.58-.67-1.41-.75-2.19-.03-.23-.05-.45-.07-.67-.13-1.2-.33-2.39-.58-3.58-.48-2.28-.97-4.56-1.85-6.72-2.38-5.81-7.44-11.91-7.44-11.91,0,0,.18-.19.51-.47,3.69,3.08,6.6,6.89,8.48,11.34.98,2.33,1.75,4.75,2.25,7.23.24,1.16.4,2.34.54,3.53.04.37.1.8.13,1.22.04.77,0,1.55-.45,2.12Z"/>
              <path class="cls-4" d="m133.25,128.1c.89,0,.89-1.38,0-1.38s-.89,1.38,0,1.38h0Z"/>
              <path class="cls-4" d="m100.79,125.32c.02.05.04.11.06.16.03.07.05.14.08.2.07.12.17.22.3.3.12.07.28.12.42.12,0,0,.02,0,.03,0h.05c.06-.01.13-.02.19-.03.09-.02.17-.06.24-.13.05-.03.1-.07.13-.13.06-.07.1-.15.13-.24l.02-.05s0-.02.01-.03c.05-.13.03-.22.02-.34,0-.11-.04-.21-.1-.31-.03-.07-.08-.12-.13-.17-.04-.04-.09-.08-.13-.12l-.16-.12c-.09-.06-.19-.09-.29-.09-.07-.02-.14-.02-.21,0-.1,0-.2.04-.29.09l-.16.12-.12.16c-.06.09-.09.19-.09.29-.02.1-.02.21.01.31h0Z"/>
              <path class="cls-7" d="m71.16,151.62c13.74-.14,27.49-.07,41.23-.09,6.87,0,13.74-.02,20.61-.03,3.75,0,7.51-.06,11.27-.02,1.17-6.22,3.71-20.07,3.2-20.96-.66-1.15-97.77-.33-99.08.49-.99.62,2.02,14.24,3.57,20.95,6.4-.14,12.8-.28,19.2-.35Z"/>
            </g>
          </g>
          <path class="cls-4" d="m179.63,59.58c-.15-.88-1.63-.88-1.78,0-.52,2.97-.29,6.06-.29,9.06,0,2.94,0,5.88,0,8.82,0,6.04,0,12.08,0,18.12,0,12.08-.01,24.16.12,36.25.04,3.43-.19,15.18-.22,18.77-4.9-.52-146.03.19-157.54.45.11-5.82.22-10.69.22-16.37,0-5.98,0-11.96,0-17.94,0-11.96,0-23.92,0-35.88v-9.83c0-3.4.24-6.95-.19-10.32-.14-1.13-1.62-1.13-1.76,0-.38,2.97-.19,6.1-.19,9.09,0,2.95,0,5.9,0,8.85,0,5.98,0,11.96,0,17.94,0,11.96,0,23.92,0,35.88,0,6.48-.75,20.79.02,20.81,20.78.5,42.65.3,63.43.31,10.48,0,20.95.02,31.43.03,10.39,0,20.9-.17,31.28-.17,6.1,0,32.06-.03,35.02-.36.63-.07.52-7.06.53-9.99.02-2.94.02-5.88.05-8.82.07-6.04.15-12.08.15-18.12,0-12.08,0-24.16,0-36.25v-10.29c0-3.32.28-6.76-.29-10.04Z"/>
          <path class="cls-4" d="m159.51,81.49c-23.36-.06-46.72-.02-70.08-.03-11.77,0-23.54-.03-35.3-.05-5.88-.01-11.76-.04-17.64-.06-4.58-.02-9.18.05-13.76-.08.02.61.04,1.02.05,1.07.07.3.31.53.61.61,9.7,1.14,19.41.88,29.19.9,9.77.02,19.45,0,29.19,0l58.38-.1c5.4,0,10.84,0,16.21-.07,5.66-.11,11.38,0,17.01-.62.49,0,.89-.4.89-.89,0-.05,0-.28,0-.65-4.91-.01-9.82-.02-14.72-.04Z"/>
        </g>
        <path class="cls-4" d="m14.59,184.87c5.46.69,10.96.65,16.46.67s10.97.04,16.46.03c10.97-.02,21.95-.03,32.92-.03,21.86,0,43.73.04,65.59.1,6.14.02,12.28.02,18.42.02,3.13,0,6.22-.22,9.34-.43s6.02-.11,9-.55c.57-.08.57-1.06,0-1.15-2.66-.4-5.34-.39-8.02-.5s-5.4-.48-8.11-.48c-5.49,0-10.97,0-16.46,0-10.97.03-21.95.06-32.92.08-21.86.06-43.73.04-65.59,0-6.14,0-12.28-.02-18.42.01-6.23.03-12.48-.1-18.67.68-.99.12-.99,1.41,0,1.54h0Z"/>
      </g>
      <rect class="cls-2" width="200" height="200"/>
    </g>
  </g>
</svg>