<?xml version="1.0" encoding="UTF-8"?>
<svg id="Capa_2" data-name="Capa 2" xmlns="http://www.w3.org/2000/svg" viewBox="0 0 200 200">
  <defs>
    <style>
      .cls-1 {
        fill: #c46127;
      }

      .cls-1, .cls-2, .cls-3, .cls-4, .cls-5, .cls-6, .cls-7, .cls-8 {
        stroke-width: 0px;
      }

      .cls-2 {
        fill: #fbe5a8;
      }

      .cls-3 {
        fill: none;
      }

      .cls-4 {
        fill: #fff;
      }

      .cls-5 {
        fill: #593737;
      }

      .cls-6 {
        fill: #8b7373;
      }

      .cls-7 {
        fill: #f3b200;
      }

      .cls-8 {
        fill: #bdafaf;
      }
    </style>
  </defs>
  <g id="colorful_icons" data-name="colorful icons">
    <g>
      <g>
        <g>
          <path class="cls-8" d="m13.16,52.73s.33,125.4.65,127.36.33,3.92,8.16,3.92h159.36s3.59,1.31,4.57-5.55-.33-126.38-.33-126.38c0,0-172.42,0-172.42.65Z"/>
          <path class="cls-2" d="m19.36,60.57v90.78h159.36V60.57s-159.85-.49-159.36,0Z"/>
          <path class="cls-5" d="m185.58,52.08s-172.42,0-172.42.65c0,0,0,3.82.03,10.12h172.5c-.07-6.69-.11-10.78-.11-10.78Z"/>
          <path class="cls-8" d="m5.65,18.44v39.51h189.08V19.42S5.16,17.95,5.65,18.44Z"/>
          <path class="cls-6" d="m174.45,72.04c-.07-.3-.31-.53-.6-.6-9.65-1.14-19.32-.89-29.05-.9-9.73-.02-19.36,0-29.05,0l-58.1.1c-5.37,0-10.75,0-16.13.07-5.64.11-11.33,0-16.94.61-.49,0-.89.4-.89.89,0,.34.15,10.14.23,10.44.07.3.31.53.6.6,9.65,1.14,19.32.88,29.05.9,9.73.02,19.36,0,29.05,0l58.1-.1c5.38,0,10.79,0,16.14-.07,5.64-.11,11.33,0,16.93-.61.49,0,.89-.4.89-.89,0-.33-.15-10.14-.23-10.44Z"/>
          <path class="cls-5" d="m59.57,46.82c.93-.1,1.83-.36,2.67-.78,4.69-2.32,6.33-8.67,3.05-12.82-2.15-2.6-5.7-3.58-8.87-2.44-3.72,1.36-6.02,5.1-5.54,9.03.47,4.33,4.36,7.47,8.69,7.01Zm-2.18-13.7c1.89-.22,4.42.49,5.52,2.14,1.36,2.13,1.16,4.91-.5,6.82-1.88,2.1-5.1,2.28-7.2.4-.55-.5-.99-1.11-1.29-1.79-1.54-3.25-.51-7.1,3.46-7.57Z"/>
          <path class="cls-5" d="m28.39,46.81c.92-.1,1.82-.36,2.66-.78,4.69-2.31,6.32-8.67,3.04-12.81-2.14-2.6-5.69-3.58-8.86-2.44-3.72,1.36-6.02,5.1-5.54,9.03.47,4.34,4.38,7.47,8.71,7Zm-2.18-13.69c1.89-.22,4.42.49,5.52,2.14,1.36,2.13,1.16,4.91-.5,6.82-1.88,2.1-5.11,2.27-7.21.39-.55-.5-.99-1.11-1.28-1.79-1.54-3.25-.51-7.1,3.47-7.57Z"/>
          <path class="cls-5" d="m134.9,46.04c3.91,1.93,8.65.33,10.58-3.58.41-.83.67-1.72.77-2.64.48-3.94-1.82-7.68-5.54-9.04-3.17-1.14-6.72-.16-8.86,2.44-3.27,4.15-1.64,10.51,3.05,12.82Zm-.68-10.77v-.02c1.1-1.66,3.63-2.36,5.52-2.14,3.98.47,4.98,4.32,3.47,7.57-1.11,2.59-4.11,3.79-6.7,2.68-.68-.29-1.29-.73-1.79-1.28-1.65-1.91-1.85-4.68-.5-6.81Z"/>
          <path class="cls-5" d="m166.1,46.04c3.9,1.94,8.64.35,10.58-3.55.42-.84.68-1.74.78-2.67.48-3.93-1.81-7.68-5.54-9.04-3.18-1.14-6.73-.16-8.87,2.44-3.29,4.15-1.64,10.51,3.05,12.82Zm-.68-10.77v-.02c1.1-1.66,3.63-2.36,5.52-2.14,3.97.47,4.98,4.32,3.46,7.57-1.11,2.59-4.11,3.79-6.7,2.68-.68-.29-1.29-.73-1.79-1.28-1.64-1.91-1.84-4.68-.49-6.81Z"/>
          <path class="cls-5" d="m79.59,46.06c.06.19.14.38.24.55,1.15,1.97,4.26,1.37,6.12,1.37,2.81,0,5.62,0,8.43-.01,4.44-.02,8.88-.05,13.32-.1,3.43-.04,6.84.29,10.25-.26.62-.1,1.25-.23,1.75-.6,1.72-1.29.82-6.21.78-8.09-.05-2.34.22-4.93-.18-7.23-.64-3.65-5.81-2.59-8.39-2.56-5.33.07-10.83.08-16.23.13-4.75.05-12.09-.48-15.33.75-.26.1-.53.26-.66.51-.35.69-.17,1.96-.21,2.71-.07,1.25-.14,2.5-.18,3.75-.09,2.59-.1,5.18.09,7.77.03.43.07.88.2,1.29Z"/>
          <g>
            <path class="cls-4" d="m99.76,36.66c.07.05.14.11.21.16.16.09.34.14.52.14.14,0,.28-.02.4-.09.13-.04.24-.11.33-.21.1-.09.17-.2.21-.33.06-.12.09-.26.09-.4-.01-.09-.02-.18-.04-.27-.05-.18-.14-.33-.27-.46-.07-.05-.14-.11-.21-.16-.16-.09-.34-.14-.52-.14-.14,0-.28.02-.4.09-.13.04-.24.11-.33.21-.1.09-.17.2-.21.33-.06.12-.09.26-.09.4.01.09.02.18.04.27.05.18.14.33.27.46Z"/>
            <path class="cls-4" d="m101.09,40.2c-.11-.07-.23-.11-.36-.11-.13-.03-.26-.02-.38.02-.16.05-.3.13-.42.25,0,0,0,0,0,0-.09.09-.16.19-.2.31-.06.11-.09.24-.08.37.01.09.02.17.03.26.03.13.09.23.17.33.04.07.1.13.17.17.09.09.2.14.33.17.09.01.17.02.26.03.17,0,.34-.04.49-.13,0,0,0,0,0,0,.14-.09.26-.2.35-.35.03-.08.06-.15.1-.23.05-.17.05-.34,0-.51-.03-.13-.09-.23-.17-.33-.07-.1-.16-.19-.27-.25Z"/>
            <g>
              <path class="cls-4" d="m90.01,42.6c-.05.44-.13.83-.5,1.12-.46.35-1.1.24-1.63.19-1.23-.13-2.33-.23-3.56-.2-.54.01-.84-.69-.45-1.09.52-.55,1.83-.34,3.4-.23.76.05,1.15.1,1.25-.03.12-.14.21-2.54.35-3.19-.91-.15-1.83-.3-2.74-.45-.49-.08-1.46-.02-1.82-.46-.23-.29-.16-.61-.16-.96,0-1.23.18-2.51.23-3.74,0-.27.22-.51.51-.51,1.44.01,2.89-.03,4.33.12.22.02.31.37.06.42-1.3.24-2.62.33-3.94.44-.17,1.13-.55,2.86.27,3.49.35.27,1.64.17,2.06.21.69.07,1.37.14,2.06.21.45.05.77.4.66.87-.31,1.3-.21,2.51-.35,3.8Z"/>
              <path class="cls-4" d="m102.69,43.22c-.01.34.29.58.6.6,1.31.07,4.79.76,5.21-1.02.28-1.17-.1-2.71-.17-3.91-.1-1.73.01-3.82-.21-5.53-.07-.52-3.43-.44-4.3,0-.37.19-.65.48-.76.93-.3,1.23-.13,2.86-.18,4.13-.07,1.6-.13,3.2-.2,4.8Zm1.36-8.12c.43-1.14,1.62-1.22,2.71-1.24-.31,1.89.03,3.9.22,5.79.08.78.58,2.37-.23,2.91-.5.33-1.9.19-2.84.11.03-1.66.06-3.32.09-4.98.01-.72-.2-1.92.05-2.58Z"/>
              <path class="cls-4" d="m110.37,44.17c1.31-.14,2.6-.19,3.92-.15.36.01.71-.33.69-.69-.13-3.12.42-6.21.34-9.32,0-.35-.23-.89-.84-.96-1.28-.14-3.94-.69-4.43.94-.38,1.27-.22,3.07-.27,4.39-.06,1.7-.1,3.4-.11,5.09,0,.35.32.74.7.7Zm1.51-9.94c.45-.28,1.49-.14,2.23-.2-.02.05-.15,5.73-.43,8.6-.87-.01-1.73.02-2.59.09.03-1.84.09-3.67.16-5.51.04-.91-.28-2.42.63-2.98Z"/>
              <path class="cls-4" d="m91.7,43.22c-.01.34.29.58.6.6,1.31.07,4.79.76,5.21-1.02.28-1.17-.1-2.71-.17-3.91-.1-1.73.01-3.82-.21-5.53-.07-.52-3.43-.44-4.3,0-.37.19-.65.48-.76.93-.3,1.23-.13,2.86-.18,4.13-.07,1.6-.13,3.2-.2,4.8Zm1.36-8.12c.43-1.14,1.62-1.22,2.71-1.24-.31,1.89.03,3.9.22,5.79.08.78.58,2.37-.23,2.91-.5.33-1.9.19-2.84.11.03-1.66.06-3.32.09-4.98.01-.72-.2-1.92.05-2.58Z"/>
            </g>
          </g>
          <path class="cls-5" d="m160.01,81.81c-23.25-.06-46.5-.02-69.76-.03-11.71,0-23.43-.03-35.14-.05-5.85-.01-11.7-.04-17.56-.06-4.56-.02-9.14.05-13.7-.08.02.61.04,1.01.05,1.07.07.3.31.53.6.6,9.65,1.14,19.32.88,29.05.9,9.73.02,19.36,0,29.05,0l58.1-.1c5.38,0,10.79,0,16.14-.07,5.64-.11,11.33,0,16.93-.61.49,0,.89-.4.89-.89,0-.05,0-.28,0-.64-4.88-.01-9.77-.02-14.65-.04Z"/>
          <g>
            <g>
              <path class="cls-1" d="m58.22,143.59s-6.29-5.06-7.84-10.69,3.59-10.61,12.16-17.72c8.57-7.1,19.27-15.18,27.35-13.14s22.04,10.37,22.04,10.37c0,0,4.74-3.27,12.9-5.39s15.76-2.86,15.76-2.86c0,0,.08-2.37,1.8-3.35s3.67-.24,5.06,1.47,2.61,6.2,2.78,8.65-.49,2.86-1.55,2.2-3.1-2.2-3.76-2.04-4.16,4.49-8.33,7.59-6.29,4.16-6.29,4.16c0,0,5.47,2.69,10.69,7.67s2.78,8.25.33,11.02-83.11,2.04-83.11,2.04Z"/>
              <path class="cls-5" d="m70.12,136.27c1.2-2.59,1.67-5.52,2.59-8.23s2-5.43,3.3-8.01,2.88-4.88,5.75-5.52c1.43-.32,2.99-.36,4.39.1,1.52.5,2.99,1.36,4.42,2.09,4.78,2.44,9.94,5.34,12.11,10.56.21.51.55,1.24.48,1.81-.03.25-.26.58-.11.48-.06.04-.18.03-.25.06-.46.21-1.16.28-1.67.36-1.66.26-3.37.32-5.05.37-3.84.1-7.64.07-11.48-.16-1.1-.07-1.11,1.67,0,1.72,4,.2,8.05.6,12.05.54,2.73-.04,8.14.18,8.33-3.72.13-2.66-2.07-5.63-3.81-7.45-2.18-2.28-4.95-4.03-7.77-5.41-2.67-1.31-5.81-2.96-8.84-3.06s-5.73.93-7.62,3.17c-2.19,2.6-3.47,6.05-4.67,9.19-.69,1.82-1.32,3.66-1.85,5.54s-1.01,3.56-.96,5.42c0,.33.5.51.66.18h0Z"/>
              <path class="cls-5" d="m84.59,131.72c4.17.54,8.61,1.45,12.2,3.76,1.64,1.06,2.99,2.48,4,4.16.5.84.88,1.72,1.31,2.59.37.76.71,1.89,1.5,2.3.18.09.42.05.52-.14.44-.85,0-2.04-.25-2.9-.3-1-.76-1.99-1.26-2.91-1.06-1.98-2.58-3.59-4.45-4.82-4.08-2.66-8.86-2.79-13.56-2.74-.47,0-.44.65,0,.71h0Z"/>
              <path class="cls-5" d="m115.51,137.74c0-1.31-1.24-2.59-1.95-3.62-.94-1.37-1.73-2.75-2.37-4.28-1.21-2.91-2.37-6.28-1.5-9.33,2.61-9.1,10.02-11.5,11.18-12.26-1.01.11-3.73.14-7.92,3.37-2.57,1.99-4.56,4.6-4.99,7.88-.47,3.56.3,7.02,1.62,10.32.63,1.57,1.39,3.09,2.14,4.61.66,1.35,1.48,3.38,2.95,3.96.42.16.85-.25.85-.65h0Z"/>
              <g>
                <path class="cls-5" d="m124.23,125.33c1.06-.28,2.09-.43,3.13-.8.98-.34,1.94-.72,2.89-1.12,1.99-.84,3.94-1.84,5.69-3.09,4.98-3.58,9.68-9.78,8.9-9.18-1.57,1.2-3.45,2.66-4.95,3.97s-3.25,2.31-4.95,3.49-3.37,2.11-5.11,3.08c-.89.5-1.79.97-2.71,1.41-1.02.49-2.04,1.1-3.09,1.52-.43.18-.28.85.2.72h0Z"/>
                <path class="cls-5" d="m104.26,102.3c1.93-1.72,3.19-3.67,1.59-6.08-1.01-1.51-3.07-2.58-1.96-4.69.56-1.06,1.57-1.53,1.4-2.86-.03-.27-.37-.5-.6-.25-1.14,1.28-2.82,2.95-2.46,4.82.17.87.71,1.5,1.23,2.18,1.76,2.26,2.25,3.66.18,6.26-.34.43.19.99.61.61h0Z"/>
                <path class="cls-5" d="m111.79,101.82c1.18-.82,2.19-1.98,2.32-3.48.05-.55-.06-.95-.37-1.38-.28-.38-.74-.58-1.04-.95-.47-.56-.62-1.15-.8-1.84-.04-.15-.29-.17-.32,0-.13.9.2,1.73.81,2.4,1.31,1.44.13,3.44-1.04,4.66-.28.29.09.83.45.58h0Z"/>
                <path class="cls-5" d="m48.67,118.96c1.53-1.76,3.73-4.37,3.14-6.9-.34-1.44-1.59-2.44-2.09-3.82-.81-2.24-.16-4.17.16-6.42.05-.38-.38-.73-.69-.4-1.68,1.75-1.61,4.35-.68,6.49.72,1.65,1.82,2.33,2.02,4.2.19,1.71-.23,2.05-1.05,3.45-.54.92-1.08,1.85-1.62,2.77-.29.49.42,1.08.81.63h0Z"/>
                <path class="cls-5" d="m56.28,107.3c.02-1.36-.23-2.55-.51-3.86-.33-1.6-.2-2.9.05-4.51.07-.44-.37-.7-.72-.42-2.6,2.09-.24,6.4.13,8.94.09.61,1.05.44,1.05-.14h0Z"/>
                <path class="cls-5" d="m55.94,130.09c.12-.07.24-.16.33-.27.15-.18.23-.32.31-.54.11-.27-.01-.67-.23-.86-.11-.1-.24-.19-.39-.23-.07-.02-.15-.02-.22-.03.07,0,.15.02.22.03-.05-.01-.19-.03-.24-.03-.29,0-.63.16-.76.44-.02.04-.04.08-.07.11.05-.06.09-.12.14-.18-.03.03-.06.06-.09.09.06-.05.12-.09.18-.14-.03.02-.06.04-.09.05-.19.09-.36.34-.41.54-.06.22-.03.5.09.69.12.19.31.36.54.41.24.05.48.03.69-.09h0Z"/>
                <path class="cls-5" d="m57.09,126.96c.08,0,.16-.01.23-.05.07-.02.14-.06.19-.12.06-.05.1-.12.12-.19.04-.07.05-.14.05-.23,0-.05-.01-.1-.02-.16-.03-.1-.08-.18-.15-.26-.11-.1-.25-.17-.41-.17-.08,0-.16.01-.23.05-.07.02-.14.06-.19.12-.06.05-.1.12-.12.19-.04.07-.05.14-.05.23,0,.05.01.1.02.16.03.1.08.18.15.26.11.1.25.17.41.17h0Z"/>
                <path class="cls-5" d="m61.19,130.14c1.26,0,1.26-1.96,0-1.96s-1.26,1.96,0,1.96h0Z"/>
                <path class="cls-5" d="m82.86,119.95c1.16,0,1.16-1.8,0-1.8s-1.16,1.8,0,1.8h0Z"/>
                <path class="cls-5" d="m87.48,120.59s.02-.02.03-.03c.26-.27.26-.69,0-.96-.01-.01-.02-.02-.03-.03-.09-.09-.2-.15-.32-.19-.1-.03-.19-.03-.29-.01-.07,0-.13.02-.18.05-.06.02-.12.05-.16.09-.05.03-.1.08-.13.13-.09.12-.16.28-.16.44.01.25.14.5.36.63.06.02.12.05.17.07.1.03.19.03.29.01.07,0,.13-.02.18-.05.09-.03.17-.08.23-.15h0Z"/>
                <path class="cls-5" d="m114.65,120.34s-.05-.02-.07-.04c-.1-.05.08.05.08.06,0,0-.05-.06-.05-.06.03,0,.13.19.05.06-.03-.05-.14-.26-.19-.25-.03-.03-.02-.01.03.04.04.06.05.07.03.04-.04-.06-.09-.12-.14-.18-.26-.28-.71-.25-.97,0-.5.47-.31,1.3.17,1.72.4.35.98.35,1.32-.09.3-.39.23-1.07-.25-1.3h0Z"/>
                <path class="cls-5" d="m114.79,117.89c1.14,0,1.14-1.77,0-1.77s-1.14,1.77,0,1.77h0Z"/>
                <path class="cls-5" d="m117.71,118.6c1.12,0,1.12-1.74,0-1.74s-1.12,1.74,0,1.74h0Z"/>
                <path class="cls-5" d="m145.55,106.27s-.05-.03-.08-.04c-.07-.03-.14-.06-.21-.09-.12-.04-.23-.04-.35-.02-.08,0-.15.02-.22.06-.11.04-.2.1-.28.18-.05.06-.09.12-.14.18-.03.07-.06.14-.09.21-.04.12-.04.23-.02.35,0,.12.04.22.1.32.01.03.03.05.04.08.08.14.19.24.32.32.14.08.29.12.45.12.08-.01.16-.02.24-.03.15-.04.28-.12.4-.23.09-.08.15-.18.19-.29.06-.11.08-.22.08-.35,0-.16-.04-.31-.12-.45-.08-.14-.19-.24-.32-.32h0Z"/>
                <path class="cls-5" d="m132.65,131.98c1,0,1-1.55,0-1.55s-1,1.55,0,1.55h0Z"/>
                <path class="cls-5" d="m136.43,133.64s-.02.01-.03.02c-.09.05-.16.12-.22.2-.03.02-.05.05-.06.08,0,0,0,0,0,0,0,0,0,.01,0,.02-.04.07-.07.13-.1.22-.01.08-.02.16-.03.24,0,.17.04.32.13.46.05.06.1.12.14.19.11.11.25.19.4.24.08.01.16.02.24.03.17,0,.32-.04.46-.13.06-.05.12-.1.19-.14.11-.11.19-.25.24-.4.01-.08.02-.16.03-.24,0-.13-.02-.24-.08-.35-.04-.11-.1-.21-.19-.29-.08-.09-.18-.15-.29-.19-.11-.06-.23-.08-.35-.08-.17,0-.32.04-.46.13h0Z"/>
                <path class="cls-5" d="m89.76,108.33c.21,0,.44-.09.59-.25.08-.08.14-.17.17-.27.05-.1.08-.21.07-.32,0-.22-.08-.44-.25-.59-.16-.15-.37-.25-.59-.25-.21,0-.44.09-.59.25-.08.08-.14.17-.17.27-.05.1-.08.21-.07.32,0,.22.08.44.25.59.16.15.37.25.59.25h0Z"/>
                <path class="cls-5" d="m93.7,109.51c.91,0,.92-1.42,0-1.42s-.92,1.42,0,1.42h0Z"/>
                <path class="cls-5" d="m145.61,127.08c1.18-.39,1.96-1.17,2.24-2.41.42-1.89-.98-3.4-.11-5.31.06-.14-.05-.38-.23-.3-.95.4-1.14,1.26-1.06,2.25.06.75.36,1.46.43,2.21.12,1.28-.42,2.32-1.49,3.04-.25.17-.1.63.22.52h0Z"/>
                <path class="cls-5" d="m153.39,118.87c-.52-1.69,1.66-2.56,1.71-4.12.03-.89-.78-1.62-1.35-2.21-.07-.08-.21.02-.15.11,1.2,1.75.29,2.68-.55,4.21-.4.72-.45,1.44-.03,2.16.11.2.45.07.38-.16h0Z"/>
              </g>
            </g>
            <path class="cls-7" d="m67.2,151.78c16.51-.07,33.02-.03,49.53-.04,8.26,0,16.51-.01,24.77-.01,4.51,0,9.02-.03,13.54,0,1.41-3.03,4.46-9.78,3.85-10.22-.79-.56-117.47-.16-119.04.24-1.19.3,2.43,6.94,4.29,10.21,7.69-.07,15.38-.14,23.07-.17Z"/>
          </g>
          <path class="cls-5" d="m180.03,60c-.15-.88-1.62-.88-1.77,0-.51,2.96-.29,6.03-.29,9.02,0,2.93,0,5.85,0,8.78,0,6.01,0,12.03,0,18.04,0,12.03-.01,24.05.12,36.08.04,3.41-.19,15.11-.22,18.68-4.87-.52-145.35.19-156.8.45.11-5.79.22-10.64.22-16.29,0-5.95,0-11.91,0-17.86,0-11.91,0-23.81,0-35.72v-9.78c0-3.38.23-6.92-.19-10.27-.14-1.12-1.61-1.13-1.75,0-.37,2.96-.19,6.07-.19,9.05,0,2.94,0,5.87,0,8.81,0,5.95,0,11.91,0,17.86,0,11.91,0,23.81,0,35.72,0,6.44-.75,20.7.02,20.71,20.68.5,42.45.29,63.14.31,10.43,0,20.86.02,31.29.03,10.34,0,20.8-.17,31.14-.17,6.07,0,31.91-.03,34.85-.36.63-.07.51-7.03.53-9.95.02-2.92.02-5.85.05-8.78.07-6.01.15-12.02.15-18.04v-36.08c0-3.41.01-6.83.01-10.24,0-3.3.28-6.73-.29-9.99Z"/>
        </g>
        <path class="cls-5" d="m16.21,184.71c5.44.68,10.91.64,16.38.67,5.46.02,10.92.04,16.38.03,10.92-.02,21.84-.03,32.76-.03,21.76,0,43.52.04,65.28.1,6.11.02,12.23.02,18.34.02,3.11,0,6.19-.22,9.29-.43s5.99-.11,8.96-.55c.57-.08.57-1.06,0-1.14-2.65-.39-5.31-.38-7.98-.5s-5.38-.48-8.07-.48c-5.46,0-10.92,0-16.38,0-10.92.03-21.84.06-32.76.08-21.76.06-43.52.04-65.28,0-6.11,0-12.23-.02-18.34.01s-12.42-.1-18.58.68c-.98.12-.98,1.41,0,1.53h0Z"/>
      </g>
      <rect class="cls-3" width="200" height="200"/>
    </g>
  </g>
</svg>