<?xml version="1.0" encoding="UTF-8"?>
<svg id="Capa_2" data-name="Capa 2" xmlns="http://www.w3.org/2000/svg" viewBox="0 0 200 200">
  <defs>
    <style>
      .cls-1 {
        fill: #c46127;
      }

      .cls-1, .cls-2, .cls-3, .cls-4 {
        stroke-width: 0px;
      }

      .cls-2 {
        fill: none;
      }

      .cls-3 {
        fill: #ea7878;
      }

      .cls-4 {
        fill: #593737;
      }
    </style>
  </defs>
  <g id="colorful_icons" data-name="colorful icons">
    <g>
      <g>
        <g>
          <path class="cls-1" d="m124.89,73.67c-2.46-.35-4.82-1.19-7.29-1.53-4.2-.57-8.43-.49-12.65-.31-4.27.17-8.67.54-12.93.05-.15-.02-.3-.04-.45-.06-5.76-.82-17.18-1.65-23.97.93s-9.67,6.07-4.83,9.15c4.83,3.09,31.27,1.85,39.81,1.85s33.63.31,35.49-1.54c1.85-1.85,1.03-5.25-1.95-7.3s-7.61-.72-11.21-1.23Z"/>
          <path class="cls-4" d="m72.18,78.33c3.1.88,6.27,1.48,9.48,1.75,1.63.13,3.26.19,4.9.16,1.42-.02,3.27.25,4.45-.64.27-.2.38-.69,0-.87-.76-.36-1.17-.35-2-.26s-1.63.14-2.45.16c-1.52.04-3.04,0-4.55-.09-3.2-.21-6.37-.7-9.48-1.49-.83-.21-1.18,1.06-.36,1.29h0Z"/>
          <path class="cls-4" d="m93.55,80.13l1.08.21c.36.07.75.19,1.11.08.17-.05.34-.13.51-.2s.31-.13.44-.26c.16-.16.24-.36.27-.57.05-.39-.13-.79-.47-.99-.14-.08-.28-.17-.43-.24-.27-.14-.54-.19-.83-.17l-.28.02-1.12.06c-.27.01-.55.1-.74.31-.16.17-.26.37-.29.6s0,.47.12.67c.14.22.36.43.63.48h0Z"/>
          <path class="cls-4" d="m114.5,79.87h.87c.07,0,.14,0,.22,0,.04,0,.08,0,.12,0,.19,0,.32-.06.49-.14.06-.03.11-.05.17-.08.26-.12.44-.42.44-.71s-.17-.58-.43-.7c-.06-.03-.12-.06-.18-.08-.2-.09-.27-.13-.49-.14-.03,0-.07,0-.1,0h-.23c-.29,0-.58,0-.87,0-.24,0-.48.1-.65.27s-.28.42-.27.65.09.49.27.65.4.27.65.27h0Z"/>
          <path class="cls-4" d="m126.12,79.39c.12-.02.25-.04.37-.07.12-.03.2-.1.3-.16l.14-.1c.07-.04.13-.1.18-.18.04-.08.07-.16.07-.25,0-.09-.02-.17-.07-.25-.04-.07-.1-.13-.18-.18l-.14-.1c-.09-.06-.18-.14-.3-.16-.12-.03-.25-.05-.37-.07-.14-.04-.28-.04-.41,0-.13.04-.25.1-.34.2-.14.15-.23.34-.23.55,0,.11.02.21.07.3.03.1.08.18.16.25.1.1.21.16.34.2.14.04.28.04.41,0h0Z"/>
        </g>
        <path class="cls-4" d="m34.29,87.56s-1.34-1.08-.72-2.85,3.19-2.44,4.45-.9.57,3.03.08,3.55-3.8.21-3.8.21Z"/>
        <path class="cls-4" d="m42.27,87.56s-1.34-1.08-.72-2.85,3.19-2.44,4.45-.9.57,3.03.08,3.55-3.8.21-3.8.21Z"/>
        <path class="cls-4" d="m50.25,87.56s-1.34-1.08-.72-2.85,3.19-2.44,4.45-.9.57,3.03.08,3.55-3.8.21-3.8.21Z"/>
        <path class="cls-4" d="m58.23,87.56s-1.34-1.08-.72-2.85,3.19-2.44,4.45-.9.57,3.03.08,3.55-3.8.21-3.8.21Z"/>
        <path class="cls-4" d="m66.21,87.56s-1.34-1.08-.72-2.85,3.19-2.44,4.45-.9.57,3.03.08,3.55-3.8.21-3.8.21Z"/>
        <path class="cls-4" d="m74.19,87.56s-1.34-1.08-.72-2.85,3.19-2.44,4.45-.9.57,3.03.08,3.55-3.8.21-3.8.21Z"/>
        <path class="cls-4" d="m82.17,87.56s-1.34-1.08-.72-2.85,3.19-2.44,4.45-.9.57,3.03.08,3.55-3.8.21-3.8.21Z"/>
        <path class="cls-4" d="m90.15,87.56s-1.34-1.08-.72-2.85,3.19-2.44,4.45-.9.57,3.03.08,3.55-3.8.21-3.8.21Z"/>
        <path class="cls-4" d="m98.13,87.56s-1.34-1.08-.72-2.85,3.19-2.44,4.45-.9.57,3.03.08,3.55-3.8.21-3.8.21Z"/>
        <path class="cls-4" d="m106.11,87.56s-1.34-1.08-.72-2.85,3.19-2.44,4.45-.9.57,3.03.08,3.55-3.8.21-3.8.21Z"/>
        <path class="cls-4" d="m114.08,87.56s-1.34-1.08-.72-2.85,3.19-2.44,4.45-.9.57,3.03.08,3.55-3.8.21-3.8.21Z"/>
        <path class="cls-4" d="m122.06,87.56s-1.34-1.08-.72-2.85,3.19-2.44,4.45-.9.57,3.03.08,3.55-3.8.21-3.8.21Z"/>
        <path class="cls-4" d="m130.04,87.56s-1.34-1.08-.72-2.85,3.19-2.44,4.45-.9.57,3.03.08,3.55-3.8.21-3.8.21Z"/>
        <path class="cls-4" d="m138.02,87.56s-1.34-1.08-.72-2.85,3.19-2.44,4.45-.9.57,3.03.08,3.55-3.8.21-3.8.21Z"/>
        <path class="cls-4" d="m146,87.56s-1.34-1.08-.72-2.85,3.19-2.44,4.45-.9.57,3.03.08,3.55-3.8.21-3.8.21Z"/>
        <path class="cls-4" d="m153.98,87.56s-1.34-1.08-.72-2.85,3.19-2.44,4.45-.9.57,3.03.08,3.55-3.8.21-3.8.21Z"/>
        <path class="cls-4" d="m161.96,87.56s-1.34-1.08-.72-2.85,3.19-2.44,4.45-.9.57,3.03.08,3.55-3.8.21-3.8.21Z"/>
        <path class="cls-4" d="m65.91,146.51s-22.68,29.15-26.69,35.63-1.39,10.49,4.01,8.48c5.4-2.01,32.08-40.72,32.08-40.72l-9.41-3.39Z"/>
        <path class="cls-4" d="m133.69,146.51s22.68,29.15,26.69,35.63,1.39,10.49-4.01,8.48c-5.4-2.01-32.08-40.72-32.08-40.72l9.41-3.39Z"/>
        <path class="cls-4" d="m95.99,152.99s-2.62,35.02-1.85,38.87,6.02,7.56,9.87,1.54-.31-40.57-.31-40.57l-7.71.15Z"/>
        <path class="cls-3" d="m167.94,111.71c-.19.68-.39,1.37-.6,2.05-2.32,7.42-6.13,15.14-12.27,21.18-16.66,16.34-38.61,22.22-60.93,21.19-22.01-1.04-41.85-10.29-53.37-26.28-4.07-5.65-6.69-11.32-8.39-16.35-.18-.51-.33-1.02-.49-1.51-2.38-7.64-2.66-13.61-2.83-15.51-.31-3.24-1.24-8.89,0-9.51h140.06s1.39-.46,1.69,1.24c.19,1.01.48,11.63-2.86,23.51Z"/>
        <path class="cls-4" d="m167.94,111.71c-.19.68-.39,1.37-.6,2.05-1.03-.03-2.05-.08-3.06-.08-2.62,0-5.23,0-7.85,0-5.22,0-10.45,0-15.68,0-18.6,0-37.21-.02-55.81-.04-9.31,0-18.61,0-27.91-.02-4.68,0-9.38-.02-14.07-.03-2.38,0-4.77,0-7.14-.02-1.18,0-2.31.02-3.44-.06-.18-.51-.33-1.02-.49-1.51,1.67-.18,3.36-.1,5.08-.1,2.62,0,5.23-.02,7.85-.02,5.22,0,10.45-.03,15.68-.03,18.6-.02,37.21-.03,55.81-.04,9.31,0,18.61-.02,27.91-.02,4.68,0,9.38,0,14.07,0,2.38,0,4.77,0,7.14,0,.84,0,1.68-.04,2.52-.06Z"/>
        <path class="cls-4" d="m95.29,69.1c4.13-4.06,8.05-9.32,7.04-15.45-.98-5.96-6.04-9.8-10.39-13.41-2.38-1.97-4.85-4.05-6.41-6.76-1.67-2.89-2.01-6.33-1.54-9.59,1-6.92,5.08-12.64,8.51-18.54.35-.6-.45-1.2-.95-.73-8.7,8.15-16.86,21.67-8.29,32.93,3.7,4.86,9.33,7.67,13.23,12.35,2.09,2.51,3.44,5.53,3,8.85-.49,3.67-2.65,6.82-4.94,9.63-.41.51.25,1.21.73.73h0Z"/>
        <path class="cls-4" d="m71.71,69.07c3.38-3.19,7-7.96,4.16-12.69-2.57-4.27-10.01-5.62-9.31-11.66.06-.51-.71-.81-1.03-.43-3.07,3.62,1.02,7.67,4.02,9.62,2.26,1.47,5.17,3.05,5.28,6.12.12,3.04-2.18,6.1-3.87,8.45-.33.46.37.95.76.59h0Z"/>
        <path class="cls-4" d="m122.25,68.9c5.22-6.3,9.49-16.57,5.57-24.45-1.91-3.84-5.45-6.8-6.72-10.98-1.43-4.71.99-8.44,2.61-12.66.23-.6-.56-1.14-1.07-.82-3.26,2.04-4.99,6.29-5.48,9.97-.62,4.55.92,8.21,3.62,11.79,2.84,3.78,5.77,7.42,5.65,12.42-.13,5.33-2.91,9.62-4.58,14.49-.08.22.25.42.4.24h0Z"/>
        <g>
          <path class="cls-4" d="m47.88,107.28c4.65,2.29,10.07-.72,10.65-5.82.42-3.66-1.69-7.25-5.19-8.46-2.96-1.02-6.34-.2-8.31,2.28-3.08,3.88-1.54,9.84,2.85,12Zm-.64-10.09c1.02-1.55,3.4-2.21,5.17-2,3.72.44,4.69,4.04,3.25,7.08-1.5,3.16-5.49,3.96-7.95,1.31-1.57-1.68-1.72-4.49-.46-6.39Z"/>
          <path class="cls-4" d="m80.27,107.28c4.65,2.29,10.07-.72,10.65-5.82.42-3.66-1.69-7.25-5.19-8.46-2.96-1.02-6.34-.2-8.31,2.28-3.08,3.88-1.54,9.84,2.85,12Zm-.64-10.09c1.02-1.55,3.4-2.21,5.17-2,3.72.44,4.69,4.04,3.25,7.08-1.5,3.16-5.49,3.96-7.95,1.31-1.57-1.68-1.72-4.49-.46-6.39Z"/>
          <path class="cls-4" d="m112.66,107.28c4.65,2.29,10.07-.72,10.65-5.82.42-3.66-1.69-7.25-5.19-8.46-2.96-1.02-6.34-.2-8.31,2.28-3.08,3.88-1.54,9.84,2.85,12Zm-.64-10.09c1.02-1.55,3.4-2.21,5.17-2,3.72.44,4.69,4.04,3.25,7.08-1.5,3.16-5.49,3.96-7.95,1.31-1.57-1.68-1.72-4.49-.46-6.39Z"/>
          <path class="cls-4" d="m145.05,107.28c4.65,2.29,10.07-.72,10.65-5.82.42-3.66-1.69-7.25-5.19-8.46-2.96-1.02-6.34-.2-8.31,2.28-3.08,3.88-1.54,9.84,2.85,12Zm-.64-10.09c1.02-1.55,3.4-2.21,5.17-2,3.72.44,4.69,4.04,3.25,7.08-1.5,3.16-5.49,3.96-7.95,1.31-1.57-1.68-1.72-4.49-.46-6.39Z"/>
        </g>
      </g>
      <rect class="cls-2" width="200" height="200"/>
    </g>
  </g>
</svg>