<?xml version="1.0" encoding="UTF-8"?>
<svg id="Capa_2" data-name="Capa 2" xmlns="http://www.w3.org/2000/svg" viewBox="0 0 200 200">
  <defs>
    <style>
      .cls-1 {
        fill: #80dce8;
      }

      .cls-1, .cls-2, .cls-3 {
        stroke-width: 0px;
      }

      .cls-2 {
        fill: none;
      }

      .cls-3 {
        fill: #593737;
      }
    </style>
  </defs>
  <g id="colorful_icons" data-name="colorful icons">
    <g>
      <g>
        <g>
          <path class="cls-1" d="m193.21,60.84c-2.83-5.43-13.82-12.64-13.82-12.64,0,0-19.02-.24-31.3.59-12.28.83-29.65,2.24-42.88,7.32-13.23,5.08-28.59,19.37-34.37,38.04-3.44,11.08-4.73,22.66-5.25,34.2-.21,4.68-.08,9.83-1.58,14.33-1.68,5.05-4.21,9.34-9.49,11.03-5.28,1.68-12.02-3.22-15.54-4.06-3.52-.84-5.82,1.23-7.73,2.53-1.91,1.3-5.97,1.07-5.97,1.07,0,0-.61,11.72,2.6,17.76,3.22,6.05,5.9,6.81,12.1,8.58,6.2,1.76,49.39,2.07,70.06,1,20.67-1.07,22.59-6.05,25.04-11.33s1.45-21.59,1.07-22.28c-.38-.69-2.91,1.91-7.58,2.91-4.67,1-9.49-3.14-14.47-3.83-3.93-.54-6.74,2.99-10.26,1.45-1.94-.84-3.41-3.96-4.35-6.59-1.86-6.09-2.93-15.22-2.78-28.22.24-20.08-.38-30.31,4.97-43.66,2.08-5.2,5.91-8.01,5.91-8.01,0,0,17.94,4.19,21.01,6.32,3.07,2.13,7.32,8.15,8.62,13.47,1.3,5.32,13.23,19.96,22.44,20.08,9.21.12,17.6-6.02,25.87-16.54,8.27-10.51,10.51-18.07,7.68-23.51Z"/>
          <path class="cls-3" d="m194.08,57.12c-2.37-4.33-6.42-7.27-10.76-9.65.78-4.81.84-9.77-.45-13.31-1.4-3.83-3.87-7.08-6.83-9.85-2.92-2.75-6.34-5.89-10.14-7.32-2.96-1.11-6.18-1.34-9.26-.6-3.66.88-7.62,3.2-9.84,6.48,0-.02-.02-.03-.02-.05-.41-.95-.75-1.93-1.14-2.89-.51-1.27-1.13-3.5-2.91-2.46-1.65.97-2.81,2.47-4.05,3.89-2.67,3.06-5.22,6.21-7.8,9.35-.71.87-1.42,1.74-2.13,2.62-.26.27-.5.56-.75.84-3.4,3.96-6.59,8.09-9.94,12.09-1.96,2.33-10.32,12.98-10.63,13.46-.72,1.12-1.1,2.61.31,3.39.69.38,1.52.45,2.28.6.98.19,1.96.35,2.95.5,1.9.31,3.79.6,5.66,1.07,2.9.72,5.8,1.75,8.42,3.26,1.33.77,2.59,1.66,3.74,2.69,1.21,1.09,1.64,2.65,2.14,4.17.26.78.5,1.56.74,2.35.96,3.09,2.39,6.12,4.12,8.84,2.76,4.36,6.29,8.17,10.62,10.9,2.91,2.13,6.21,3.68,9.82,4.41,6.96,1.41,13.41-.46,18.92-4.86,3.09-2.47,5.77-5.39,8.24-8.47,1.7-2.11,3.65-4.38,5.02-6.87,5.71-6.72,7.88-16.93,3.7-24.57Zm-37.54-38.08c4.78-.79,10.03,1.59,13.67,4.42,3.8,2.95,8.38,6.52,9.95,11.1,1.9,5.54.85,10.23.84,11.33-1.11-.68-2.99-1.81-4.18-2.38,0,0,0,0,0,0,.47-2.17.82-4.41.38-6.61-.88-4.43-4.86-7.8-8.35-10.29-3.59-2.56-7.58-4.51-12.05-3.18-2.88.86-5.43,2.83-7.33,5.26-.54-1.14-1.32-2.79-1.84-3.94,2.54-2.58,5.1-5.09,8.92-5.72Zm18.18,23.41c-2.35-.93-5-1.56-7.48-2.04-3.09-.6-6.23-.67-9.24-1.59-.12-.05-.23-.1-.35-.15-2.97-1.36-5.34-4.95-6.9-7.71,1.21-1.34,2.35-2.73,3.96-3.68,2.61-1.53,5.34-1.58,8.1-.44,2.64,1.09,5.66,3.75,7.93,5.47.82.63,1.63,1.29,2.33,2.05.74,1.05,1.32,2.21,1.63,3.53.36,1.55.28,3.06.02,4.55Zm16.34,29.22c-.11.28-.22.56-.33.83-1.69,4.07-4.19,7.76-6.89,11.24-3.28,4.24-6.88,8.25-11,11.68-3.08,2.56-7.98,4.36-11.98,4.15-2.83-.14-5.74-1.24-8.11-2.8-4.64-3.06-9.55-7.09-12.57-11.75-3.37-5.21-2.78-10.28-6.13-14.4-3.54-4.36-9.47-6.32-14.83-7.66-1.57-.39-3.17-.68-4.77-.9-1.6-.21-3.88-.74-5.45-1.01.43-.73,12.16-14.69,14.48-17.5,4.64-5.61,19.67-23.76,19.61-24.04,1.22,6.26,4.63,12.83,8.69,17.76,1.59,1.93,2.99,3.62,5.4,4.32,2.91.84,6.83,1.12,9.49,1.61,7.14,1.3,13.1,4.87,18.68,9.49,2.99,2.48,6.04,7.21,6.74,11.03.48,2.66-.09,5.39-1.04,7.93Z"/>
        </g>
        <g>
          <path class="cls-3" d="m136.67,114.11c.23-.08,8.35-4.67,14.63-3.22s9.09,6.99,5.74,12.86-8.27,7.43-12.02,8.88c-3.75,1.45-8.35,3.22-8.35,3.22l.08-10.03s8.35-2.07,12.71-5.28c3.81-2.81,1.61-4.98-1.45-4.82-3.06.15-11.33,3.75-11.33,3.75v-5.36Z"/>
          <path class="cls-3" d="m24.31,114.11c-.23-.08-8.35-4.67-14.63-3.22-6.28,1.45-9.09,6.99-5.74,12.86s8.27,7.43,12.02,8.88,8.35,3.22,8.35,3.22l-.08-10.03s-8.35-2.07-12.71-5.28c-3.81-2.81-1.61-4.98,1.45-4.82,3.06.15,11.33,3.75,11.33,3.75v-5.36Z"/>
          <path class="cls-3" d="m138.5,134.52c-.09-4.25-.31-8.49-.44-12.73s-.57-14.76-.76-15.12c0,0,0-.02-.02-.03-.01-.01-.02-.03-.04-.03-.12-.18-112.94-.82-113.02-.18-1.6,12.23-1.24,47.72-1.12,53.07.09,3.98.25,8.31,1.66,12.08,1.61,4.3,4.8,7.68,9.09,9.36,3.9,1.52,8.33,1.8,12.47,2.09,4.55.32,9.08.31,13.64.29,7.17-.03,35.05-.05,39.3-.02,8.44.06,17.12.3,25.41-1.5,4.06-.88,8.24-3.22,10.39-6.91,2.3-3.95,2.96-8.49,3.15-12.99.4-9.1.48-18.25.28-27.37Zm-4.15,30.21c-1.3,5.35-4.87,9.29-9.85,11.54-1.75.79-3.56,1.25-5.42,1.52-1.48.09-2.96.12-4.42.15-4.69.09-9.38.06-14.06.07-9.32.01-18.65,0-27.97.02-9.3.01-18.62.13-27.92-.16-1.2-.04-2.41-.1-3.62-.21-.22-.04-.44-.09-.65-.14-4.81-1.13-9.45-4.2-11.82-8.59-1.8-3.33-2.27-7.1-2.32-10.83-.05-3.76.03-7.52.03-11.29.01-5.86,0-11.72,0-17.59,0-3.57-.06-7.14-.09-10.7-.03-3.15.27-6.59.02-9.95,7.21.32,14.17.44,21.38.46,5.45.02,62.52.17,65.87.17h18.83c.71,0,1.67.03,2.51,0-.17,4.27.28,14.57.25,17.36-.07,8.34-.26,16.81.09,25.17.18,4.35.22,8.78-.84,13.03Z"/>
        </g>
      </g>
      <rect class="cls-2" width="200" height="200"/>
    </g>
  </g>
</svg>