<?xml version="1.0" encoding="UTF-8"?>
<svg id="Capa_2" data-name="Capa 2" xmlns="http://www.w3.org/2000/svg" viewBox="0 0 200 200">
  <defs>
    <style>
      .cls-1 {
        fill: #f9d980;
      }

      .cls-1, .cls-2, .cls-3, .cls-4, .cls-5, .cls-6, .cls-7 {
        stroke-width: 0px;
      }

      .cls-2 {
        fill: #ac9b9b;
      }

      .cls-3 {
        fill: none;
      }

      .cls-4 {
        fill: #fff;
      }

      .cls-5 {
        fill: #593737;
      }

      .cls-6 {
        fill: #f28322;
      }

      .cls-7 {
        fill: #b0e9f1;
      }
    </style>
  </defs>
  <g id="colorful_icons" data-name="colorful icons">
    <g>
      <g>
        <g>
          <path class="cls-7" d="m38.89,96.63s3.95-2.64,7.8-.77c3.84,1.87,5.82,7.25,5.82,7.25,0,0,5.71-9.78,15.05-6.59s11.09,10.98,11.09,10.98c0,0,4.39-12.41,13.73-9.12,9.34,3.3,7.36,13.62,7.36,13.62,0,0,6.69-7.01,12.52-5.27,6.26,1.87,7.36,7.14,7.36,7.14,0,0,1.77-9.56,8.02-11.09,6.7-1.65,9.34,3.19,9.34,3.19,0,0-2.31-13.95,7.58-15.93,9.89-1.98,14.5,6.15,14.5,6.15,0,0,1.87,28.45-1.32,35.15s-13.07,14.17-27.46,15.05c-14.39.88-73.93,0-82.39-5.38s-8.35-20.1-8.46-26.14-.55-18.23-.55-18.23Z"/>
          <g>
            <path class="cls-5" d="m159.94,73.83c.25-.08,8.98-5.03,15.74-3.46,6.76,1.57,9.78,7.52,6.18,13.84s-8.9,7.99-12.93,9.56-8.98,3.46-8.98,3.46l.08-10.79s8.98-2.22,13.68-5.68c4.1-3.02,1.73-5.36-1.57-5.19s-12.19,4.04-12.19,4.04v-5.77Z"/>
            <path class="cls-5" d="m39.05,73.83c-.25-.08-8.98-5.03-15.74-3.46s-9.78,7.52-6.18,13.84,8.9,7.99,12.93,9.56,8.98,3.46,8.98,3.46l-.08-10.79s-8.98-2.22-13.68-5.68c-4.1-3.02-1.73-5.36,1.57-5.19s12.19,4.04,12.19,4.04v-5.77Z"/>
            <path class="cls-5" d="m161.91,95.79c-.1-4.57-.33-9.13-.48-13.7-.14-4.43-.61-15.88-.82-16.27,0-.01,0-.02-.02-.03-.01-.02-.02-.03-.04-.04-.13-.2-121.51-.88-121.6-.19-1.72,13.16-1.34,51.34-1.2,57.1.1,4.28.27,8.94,1.79,13,1.73,4.63,5.16,8.26,9.78,10.07,4.2,1.64,8.96,1.93,13.42,2.25,4.89.35,9.77.33,14.67.31,7.72-.03,37.72-.05,42.29-.02,9.08.07,18.42.33,27.34-1.62,4.37-.95,8.87-3.47,11.18-7.43,2.48-4.25,3.18-9.13,3.39-13.97.43-9.79.51-19.63.3-29.45Zm-4.47,32.51c-1.4,5.76-5.24,10-10.6,12.42-1.88.85-3.83,1.34-5.83,1.63-1.59.09-3.19.13-4.76.16-5.04.1-10.09.06-15.13.07-10.03.01-20.06,0-30.09.02-10.01.01-20.03.14-30.04-.17-1.29-.04-2.59-.11-3.89-.23-.24-.05-.47-.1-.7-.15-5.17-1.21-10.17-4.52-12.72-9.25-1.93-3.59-2.44-7.64-2.5-11.66-.05-4.05.03-8.09.03-12.14.01-6.31,0-12.61,0-18.92,0-3.84-.06-7.68-.1-11.52-.03-3.39.29-7.09.02-10.71,7.76.35,15.24.47,23.01.49,5.86.02,67.27.18,70.88.18h20.26c.76,0,1.8.04,2.7,0-.18,4.6.3,15.68.27,18.68-.08,8.97-.28,18.08.09,27.08.2,4.68.24,9.44-.91,14.02Z"/>
          </g>
          <path class="cls-4" d="m79.91,130.14c-2.21-.26-3.46,3.49-1.2,4.28,1.24.43,2.64-.38,2.89-1.67.22-1.17-.44-2.47-1.7-2.61Zm-.58,3.16c-.8.03-.92-1.01-.53-1.51.47-.6,1.55-.6,1.46.59-.04.51-.39.9-.92.92Z"/>
          <path class="cls-4" d="m142.11,125.72c-2.21-.26-3.46,3.49-1.2,4.28,1.24.43,2.65-.38,2.89-1.67.22-1.17-.44-2.47-1.7-2.61Zm-.58,3.16c-.8.03-.92-1.01-.53-1.51.47-.6,1.55-.6,1.46.59-.04.51-.39.9-.92.92Z"/>
          <path class="cls-4" d="m94.1,119.94c.05-1.64-1.48-3-3.17-2.41-2.14.74-2.26,4.23.07,4.85,1.45.38,2.8-.59,3.06-2.04.02-.13.04-.27.04-.4Zm-1.61,1.22c-1.13.64-2.05-.56-1.58-1.61.02-.03.03-.07.05-.1,1.13-2.04,3.25.72,1.53,1.71Z"/>
          <path class="cls-4" d="m60.41,118.94c-2.06-.42-3.72,2.39-2.11,3.91,1.13,1.07,3.01.74,3.62-.7.54-1.28-.06-2.91-1.5-3.21Zm.53,2.57c-.49,2.12-3.44-.23-1.87-1.15.97-.57,2.14-.05,1.87,1.15Z"/>
          <path class="cls-4" d="m95.5,134.98c-1.41-.29-2.55,1.64-1.45,2.68.77.73,2.07.51,2.49-.48.37-.88-.04-2-1.03-2.2Zm.37,1.76c-.33,1.45-2.36-.15-1.28-.79.66-.39,1.47-.03,1.28.79Z"/>
          <path class="cls-4" d="m55.4,114.68c-1.41-.29-2.55,1.64-1.45,2.68.77.73,2.07.51,2.48-.48.37-.88-.04-2-1.03-2.2Zm.37,1.76c-.33,1.45-2.36-.15-1.28-.79.67-.39,1.47-.03,1.28.79Z"/>
          <path class="cls-4" d="m147.39,119.27c-1.41-.29-2.55,1.64-1.45,2.68.77.73,2.07.51,2.48-.48.37-.88-.04-2-1.03-2.2Zm.37,1.76c-.33,1.45-2.36-.15-1.28-.79.67-.39,1.47-.03,1.28.79Z"/>
          <path class="cls-4" d="m141.52,116.36c.37-.88-.04-2-1.03-2.2-1.41-.29-2.55,1.64-1.45,2.68.77.73,2.07.51,2.49-.48Zm-1.95-1.23c.67-.39,1.47-.03,1.28.79-.33,1.45-2.36-.15-1.28-.79Z"/>
          <path class="cls-4" d="m114.98,125.81c-1.41-.29-2.55,1.64-1.45,2.68.77.73,2.07.51,2.49-.48.37-.88-.04-2-1.03-2.2Zm.37,1.76c-.33,1.45-2.36-.15-1.28-.79.67-.39,1.47-.03,1.28.79Z"/>
          <path class="cls-4" d="m109.25,129.26c-2.06-.42-3.72,2.39-2.11,3.91,1.13,1.07,3.01.74,3.62-.7.54-1.28-.06-2.91-1.5-3.21Zm.53,2.57c-.49,2.12-3.44-.23-1.87-1.15.97-.57,2.14-.05,1.87,1.15Z"/>
        </g>
        <path class="cls-5" d="m98.77,43.98c1.87,2.25,3.08,4.95,2.68,7.92-.44,3.28-2.37,6.1-4.41,8.61-.37.45.22,1.08.66.66,3.7-3.63,7.2-8.34,6.3-13.82-.88-5.33-5.4-8.77-9.3-11.99-2.13-1.77-4.34-3.62-5.74-6.05-1.49-2.59-1.79-5.66-1.37-8.58.89-6.19,4.54-11.3,7.62-16.59.31-.54-.4-1.07-.85-.66-7.78,7.29-15.08,19.39-7.42,29.46,3.31,4.35,8.35,6.86,11.84,11.05Z"/>
        <path class="cls-5" d="m74.66,47.59c2.03,1.32,4.62,2.73,4.73,5.47.1,2.72-1.95,5.45-3.47,7.56-.3.41.34.85.68.52,3.02-2.86,6.27-7.12,3.72-11.35-2.3-3.82-8.96-5.03-8.33-10.43.05-.46-.63-.72-.92-.38-2.75,3.24.91,6.86,3.59,8.61Z"/>
        <path class="cls-5" d="m125.55,47.81c-.11,4.76-2.6,8.6-4.1,12.97-.07.2.22.38.36.21,4.67-5.63,8.49-14.82,4.98-21.87-1.71-3.43-4.88-6.09-6.01-9.82-1.28-4.22.89-7.55,2.34-11.32.21-.54-.5-1.02-.95-.73-2.92,1.82-4.46,5.63-4.9,8.92-.55,4.07.83,7.34,3.23,10.55,2.54,3.38,5.16,6.64,5.05,11.11Z"/>
        <g>
          <g>
            <path class="cls-6" d="m81.65,184.99c-3.01,3.13-5.21,4.68-5.73,5.02-.08.05-.12.08-.12.08l-4.65.15s-.11-.04-.31-.12c-1.52-.6-8.38-3.69-10.04-10.61-1.87-7.8,4.77-12.92,6.9-16.5,2.77-4.65,1.12-7.74,1.87-8.25,8.77,9,12.45,10.5,14.7,15.3,2.87,6.12.83,11.32-2.62,14.92Z"/>
            <path class="cls-1" d="m73.81,189.98c-.08.05-.12.08-.12.08l-1.05.15s-.11-.04-.31-.12c-1.11-1.58-4.41-4.6-4.04-7.28.53-3.82,3.37-7.42,3.91-9.38.52-1.95-.45-4.88.14-4.8.6.07,4.43,5.01,5.55,8.17,2.2,6.2-3.71,12.34-4.08,13.17Z"/>
          </g>
          <g>
            <path class="cls-6" d="m108.14,184.99c-3.01,3.13-5.21,4.68-5.73,5.02-.08.05-.12.08-.12.08l-4.65.15s-.11-.04-.31-.12c-1.52-.6-8.38-3.69-10.04-10.61-1.87-7.8,4.77-12.92,6.9-16.5,2.77-4.65,1.12-7.74,1.87-8.25,8.77,9,12.45,10.5,14.7,15.3,2.87,6.12.83,11.32-2.62,14.92Z"/>
            <path class="cls-1" d="m100.31,189.98c-.08.05-.12.08-.12.08l-1.05.15s-.11-.04-.31-.12c-1.11-1.58-4.41-4.6-4.04-7.28.53-3.82,3.37-7.42,3.91-9.38.52-1.95-.45-4.88.14-4.8.6.07,4.43,5.01,5.55,8.17,2.2,6.2-3.71,12.34-4.08,13.17Z"/>
          </g>
          <g>
            <path class="cls-6" d="m134.54,184.99c-3.01,3.13-5.21,4.68-5.73,5.02-.08.05-.12.08-.12.08l-4.65.15s-.11-.04-.31-.12c-1.52-.6-8.38-3.69-10.04-10.61-1.87-7.8,4.77-12.92,6.9-16.5,2.77-4.65,1.12-7.74,1.87-8.25,8.77,9,12.45,10.5,14.7,15.3,2.87,6.12.83,11.32-2.62,14.92Z"/>
            <path class="cls-1" d="m126.71,189.98c-.08.05-.12.08-.12.08l-1.05.15s-.11-.04-.31-.12c-1.11-1.58-4.41-4.6-4.04-7.28.53-3.82,3.37-7.42,3.91-9.38.52-1.95-.45-4.88.14-4.8.6.07,4.43,5.01,5.55,8.17,2.2,6.2-3.71,12.34-4.08,13.17Z"/>
          </g>
          <g>
            <path class="cls-2" d="m61.55,189.49c-.6.07-.67,7.72-.15,8.17s75.82.23,76.57-.08c.75-.3.37-7.8,0-8.17-.37-.37-75.82,0-76.42.08Z"/>
            <path class="cls-5" d="m61.9,190.16c12.9.01,25.8.03,38.7.04,6.3,0,30.53-.22,37.07-.14.65,0,.65-1.24,0-1.28-5.73-.36-12.22-.34-18.03-.16-6.3.19-12.74.01-19.04.02-12.9.01-25.8.03-38.7.04-.96,0-.96,1.49,0,1.49h0Z"/>
          </g>
        </g>
      </g>
      <rect class="cls-3" width="200" height="200"/>
    </g>
  </g>
</svg>