<?xml version="1.0" encoding="UTF-8"?>
<svg id="Capa_2" data-name="Capa 2" xmlns="http://www.w3.org/2000/svg" viewBox="0 0 200 200">
  <defs>
    <style>
      .cls-1 {
        fill: #f9d980;
      }

      .cls-1, .cls-2, .cls-3, .cls-4, .cls-5, .cls-6, .cls-7 {
        stroke-width: 0px;
      }

      .cls-2 {
        fill: #ac9b9b;
      }

      .cls-3 {
        fill: none;
      }

      .cls-4 {
        fill: #fff;
      }

      .cls-5 {
        fill: #593737;
      }

      .cls-6 {
        fill: #f28322;
      }

      .cls-7 {
        fill: #f8bc88;
      }
    </style>
  </defs>
  <g id="colorful_icons" data-name="colorful icons">
    <g>
      <g>
        <g>
          <path class="cls-7" d="m38.98,103.52s2.32-1.87,6.84-.22,7.83,6.84,7.83,6.84c0,0,5.18-9.92,13.45-8.93s12.35,13.45,12.35,13.45c0,0,4.96-11.47,12.13-9.59,7.17,1.87,8.71,10.81,8.71,10.81,0,0,6.84-8.71,13.12-6.4s7.83,9.26,7.83,9.26c0,0,2.98-8.38,8.71-9.37s7.94,1.21,7.94,1.21c0,0,2.98-12.57,12.68-12.9s10.03,1.87,10.03,1.87c0,0,1.98,24.48-1.21,31.76s-10.14,13.45-18.53,14.67c-8.38,1.21-71.23.99-79.17-.11s-18.64-4.85-20.51-10.92-2.21-31.43-2.21-31.43Z"/>
          <g>
            <path class="cls-5" d="m160.74,74.14c.25-.08,9.01-5.04,15.8-3.47s9.82,7.55,6.2,13.89-8.93,8.02-12.98,9.59-9.01,3.47-9.01,3.47l.08-10.83s9.01-2.23,13.73-5.71c4.12-3.03,1.74-5.38-1.57-5.21s-12.24,4.05-12.24,4.05v-5.79Z"/>
            <path class="cls-5" d="m39.38,74.14c-.25-.08-9.01-5.04-15.8-3.47s-9.82,7.55-6.2,13.89,8.93,8.02,12.98,9.59,9.01,3.47,9.01,3.47l-.08-10.83s-9.01-2.23-13.73-5.71c-4.12-3.03-1.74-5.38,1.57-5.21,3.31.17,12.24,4.05,12.24,4.05v-5.79Z"/>
            <path class="cls-5" d="m162.71,96.17c-.1-4.59-.33-9.17-.48-13.75s-.61-15.94-.82-16.33c0-.01,0-.02-.02-.03-.01-.02-.02-.03-.04-.04-.13-.2-121.98-.88-122.07-.19-1.73,13.21-1.34,51.54-1.21,57.32.1,4.3.27,8.97,1.79,13.05,1.74,4.65,5.18,8.29,9.82,10.11,4.21,1.65,9,1.94,13.47,2.26,4.91.35,9.81.33,14.73.31,7.75-.03,37.86-.05,42.45-.02,9.11.07,18.49.33,27.45-1.63,4.38-.96,8.9-3.48,11.22-7.46,2.49-4.27,3.19-9.17,3.41-14.03.43-9.83.52-19.71.3-29.56Zm-4.48,32.63c-1.41,5.78-5.26,10.04-10.64,12.47-1.89.85-3.85,1.35-5.85,1.64-1.6.09-3.2.13-4.78.16-5.06.1-10.13.06-15.19.07-10.07.01-20.14,0-30.21.02-10.05.01-20.11.14-30.15-.17-1.3-.04-2.6-.11-3.91-.23-.24-.05-.47-.1-.7-.15-5.19-1.22-10.21-4.54-12.76-9.28-1.94-3.6-2.45-7.67-2.51-11.7-.05-4.06.03-8.13.03-12.19.01-6.33,0-12.66,0-18.99,0-3.85-.06-7.71-.1-11.56-.03-3.4.3-7.11.02-10.75,7.79.35,15.3.47,23.09.49,5.89.02,67.53.18,71.15.18h20.34c.77,0,1.8.04,2.71,0-.18,4.61.3,15.74.27,18.75-.08,9.01-.28,18.15.09,27.19.2,4.7.24,9.48-.91,14.08Z"/>
          </g>
          <path class="cls-4" d="m95.35,132.22c-1.42-.29-2.56,1.64-1.46,2.69.78.74,2.08.51,2.49-.48.37-.88-.04-2.01-1.04-2.21Zm.37,1.77c-.34,1.46-2.37-.16-1.29-.79.67-.39,1.47-.03,1.29.79Z"/>
          <path class="cls-4" d="m68.84,122.5c-2.22-.26-3.48,3.5-1.2,4.3,1.25.43,2.65-.38,2.9-1.67.22-1.17-.44-2.48-1.7-2.62Zm-.58,3.17c-.8.03-.92-1.02-.54-1.52.47-.6,1.56-.6,1.46.6-.04.52-.39.9-.93.92Z"/>
          <path class="cls-4" d="m143.01,125.56c-2.22-.26-3.48,3.5-1.2,4.3,1.25.43,2.66-.38,2.9-1.67.22-1.17-.44-2.48-1.7-2.62Zm-.58,3.17c-.8.03-.92-1.02-.54-1.52.47-.6,1.56-.6,1.46.6-.04.52-.39.9-.93.92Z"/>
          <path class="cls-4" d="m55.41,121.05c-1.42-.29-2.56,1.64-1.46,2.69.78.74,2.08.51,2.49-.48.37-.88-.04-2.01-1.04-2.21Zm.37,1.77c-.34,1.46-2.37-.16-1.29-.79.67-.39,1.48-.03,1.29.79Z"/>
          <path class="cls-4" d="m146.85,116.15c-1.42-.29-2.56,1.64-1.46,2.69.78.74,2.08.51,2.49-.48.37-.88-.04-2.01-1.04-2.21Zm.37,1.77c-.34,1.46-2.37-.16-1.29-.79.67-.39,1.47-.03,1.29.79Z"/>
          <path class="cls-4" d="m115.77,125.65c-1.42-.29-2.56,1.64-1.46,2.69.78.74,2.08.51,2.49-.48.37-.88-.04-2.01-1.04-2.21Zm.37,1.77c-.34,1.46-2.37-.16-1.29-.79.67-.39,1.47-.03,1.29.79Z"/>
          <path class="cls-5" d="m77.87,47.7c2.03,1.32,4.64,2.74,4.74,5.49.1,2.73-1.95,5.47-3.48,7.59-.3.41.34.85.68.53,3.03-2.87,6.29-7.15,3.73-11.4-2.31-3.83-8.99-5.05-8.36-10.47.05-.46-.64-.73-.93-.38-2.76,3.25.91,6.89,3.61,8.64Z"/>
          <path class="cls-5" d="m103.69,47.93c-.11,4.78-2.61,8.63-4.11,13.02-.07.2.22.38.36.21,4.69-5.66,8.52-14.88,5-21.96-1.72-3.45-4.9-6.11-6.04-9.86-1.28-4.23.89-7.58,2.35-11.36.21-.54-.5-1.02-.96-.74-2.93,1.83-4.48,5.65-4.92,8.95-.55,4.09.83,7.37,3.25,10.59,2.55,3.39,5.18,6.66,5.07,11.15Z"/>
          <path class="cls-5" d="m119.8,59.75c3.06-2.79,5.77-6.58,6.13-10.82.25-2.93-.79-7.42-4.16-8.14-.35-.07-.75.32-.51.66,1.88,2.61,3.34,4.89,2.76,8.29-.61,3.57-3.11,6.45-4.9,9.48-.26.43.32.85.68.53Z"/>
        </g>
        <g>
          <g>
            <path class="cls-6" d="m108.52,185.05c-3.02,3.14-5.23,4.7-5.75,5.04-.08.05-.12.08-.12.08l-4.67.15s-.11-.04-.31-.12c-1.53-.61-8.41-3.7-10.08-10.65-1.88-7.83,4.79-12.97,6.93-16.56,2.78-4.67,1.12-7.77,1.88-8.28,8.81,9.03,12.49,10.54,14.75,15.36,2.88,6.14.83,11.36-2.63,14.98Z"/>
            <path class="cls-1" d="m100.65,190.07c-.08.05-.12.08-.12.08l-1.06.15s-.11-.04-.31-.12c-1.11-1.59-4.43-4.62-4.06-7.31.53-3.84,3.39-7.45,3.92-9.41.52-1.96-.45-4.9.14-4.81.61.07,4.45,5.03,5.57,8.2,2.21,6.22-3.73,12.39-4.1,13.22Z"/>
          </g>
          <g>
            <path class="cls-2" d="m61.74,189.57c-.6.08-.68,7.75-.15,8.21s76.11.23,76.86-.08c.75-.3.38-7.83,0-8.21s-76.11,0-76.71.08Z"/>
            <path class="cls-5" d="m62.09,190.24c12.95.01,25.9.03,38.84.04,6.32,0,30.65-.22,37.21-.15.65,0,.65-1.25,0-1.29-5.75-.36-12.27-.34-18.1-.16-6.32.19-12.79.01-19.11.02-12.95.01-25.9.03-38.84.04-.96,0-.96,1.49,0,1.49h0Z"/>
          </g>
        </g>
      </g>
      <rect class="cls-3" width="200" height="200"/>
    </g>
  </g>
</svg>