<?xml version="1.0" encoding="UTF-8"?>
<svg id="Capa_2" data-name="Capa 2" xmlns="http://www.w3.org/2000/svg" viewBox="0 0 200 200">
  <defs>
    <style>
      .cls-1 {
        fill: #403434;
      }

      .cls-1, .cls-2, .cls-3, .cls-4, .cls-5, .cls-6, .cls-7, .cls-8, .cls-9 {
        stroke-width: 0px;
      }

      .cls-2 {
        fill: #f9d980;
      }

      .cls-3 {
        fill: #ac9b9b;
      }

      .cls-4 {
        fill: none;
      }

      .cls-5 {
        fill: #fff;
      }

      .cls-6 {
        fill: #593737;
      }

      .cls-7 {
        fill: #f28322;
      }

      .cls-8 {
        fill: #b4a5a5;
      }

      .cls-9 {
        fill: #b0e9f1;
      }
    </style>
  </defs>
  <g id="colorful_icons" data-name="colorful icons">
    <g>
      <g>
        <g>
          <g>
            <path class="cls-7" d="m84.9,184.14c-2.6,2.7-4.5,4.04-4.95,4.34-.07.05-.1.07-.1.07l-4.02.13s-.09-.03-.26-.1c-1.31-.52-7.23-3.19-8.67-9.16-1.62-6.74,4.12-11.16,5.96-14.24,2.39-4.02.96-6.68,1.62-7.13,7.58,7.77,10.75,9.07,12.69,13.21,2.48,5.28.71,9.77-2.26,12.88Z"/>
            <path class="cls-2" d="m78.13,188.46c-.07.05-.1.07-.1.07l-.91.13s-.09-.03-.26-.1c-.96-1.37-3.81-3.97-3.49-6.29.46-3.3,2.91-6.41,3.37-8.1.45-1.69-.39-4.21.12-4.14.52.06,3.83,4.33,4.79,7.06,1.9,5.35-3.21,10.65-3.53,11.37Z"/>
          </g>
          <g>
            <path class="cls-7" d="m107.77,184.14c-2.6,2.7-4.5,4.04-4.95,4.34-.07.05-.1.07-.1.07l-4.02.13s-.09-.03-.26-.1c-1.31-.52-7.23-3.19-8.67-9.16-1.62-6.74,4.12-11.16,5.96-14.24,2.39-4.02.96-6.68,1.62-7.13,7.58,7.77,10.75,9.07,12.69,13.21,2.48,5.28.71,9.77-2.26,12.88Z"/>
            <path class="cls-2" d="m101.01,188.46c-.07.05-.1.07-.1.07l-.91.13s-.09-.03-.26-.1c-.96-1.37-3.81-3.97-3.49-6.29.46-3.3,2.91-6.41,3.37-8.1.45-1.69-.39-4.21.12-4.14.52.06,3.83,4.33,4.79,7.06,1.9,5.35-3.21,10.65-3.53,11.37Z"/>
          </g>
          <g>
            <path class="cls-7" d="m130.57,184.14c-2.6,2.7-4.5,4.04-4.95,4.34-.07.05-.1.07-.1.07l-4.02.13s-.09-.03-.26-.1c-1.31-.52-7.23-3.19-8.67-9.16-1.62-6.74,4.12-11.16,5.96-14.24,2.39-4.02.96-6.68,1.62-7.13,7.58,7.77,10.75,9.07,12.69,13.21,2.48,5.28.71,9.77-2.26,12.88Z"/>
            <path class="cls-2" d="m123.8,188.46c-.07.05-.1.07-.1.07l-.91.13s-.09-.03-.26-.1c-.96-1.37-3.81-3.97-3.49-6.29.46-3.3,2.91-6.41,3.37-8.1.45-1.69-.39-4.21.12-4.14.52.06,3.83,4.33,4.79,7.06,1.9,5.35-3.21,10.65-3.53,11.37Z"/>
          </g>
          <g>
            <path class="cls-3" d="m67.54,188.03c-.52.06-.58,6.67-.13,7.06s65.46.19,66.11-.06c.65-.26.32-6.73,0-7.06-.32-.32-65.46,0-65.98.06Z"/>
            <path class="cls-6" d="m67.84,188.61c11.14.01,22.27.02,33.41.04,5.44,0,26.36-.19,32.01-.12.56,0,.56-1.07,0-1.11-4.94-.31-10.55-.29-15.57-.14-5.44.17-11,.01-16.44.02-11.14.01-22.27.02-33.41.04-.83,0-.83,1.28,0,1.28h0Z"/>
          </g>
        </g>
        <g>
          <g>
            <g>
              <path class="cls-6" d="m52.34,63.08s-14.04-1.71-20.3.57-5.69,9.11,3.98,10.05,19.92.19,19.92.19l-3.6-10.81Z"/>
              <path class="cls-6" d="m147.63,63.08s14.04-1.71,20.3.57,5.69,9.11-3.98,10.05c-9.67.95-19.92.19-19.92.19l3.6-10.81Z"/>
              <path class="cls-8" d="m50.82,61.75s-.57,23.52,5.31,32.25c5.88,8.73,36.42,10.05,58.62,8.92,22.19-1.14,29.59-5.12,31.87-12.52,2.28-7.4,4.17-25.8,2.66-28.08-.38-.57-98.45,0-98.45-.57Z"/>
            </g>
            <path class="cls-1" d="m100.49,39.77c1.58,1.89,2.59,4.16,2.26,6.67-.37,2.76-2,5.13-3.72,7.25-.31.38.19.91.55.55,3.11-3.06,6.06-7.02,5.3-11.63-.74-4.48-4.55-7.38-7.82-10.09-1.79-1.49-3.65-3.05-4.83-5.09-1.26-2.18-1.51-4.77-1.16-7.22.75-5.21,3.82-9.51,6.41-13.96.26-.45-.34-.9-.71-.55-6.55,6.13-12.69,16.32-6.24,24.79,2.79,3.66,7.03,5.78,9.96,9.3Z"/>
            <path class="cls-1" d="m80.2,42.81c1.7,1.11,3.89,2.29,3.98,4.61.09,2.29-1.64,4.59-2.92,6.36-.25.35.28.72.57.44,2.54-2.4,5.27-6,3.13-9.55-1.94-3.21-7.54-4.23-7.01-8.78.05-.39-.53-.61-.78-.32-2.31,2.72.76,5.78,3.02,7.24Z"/>
            <path class="cls-1" d="m123.03,43c-.09,4.01-2.19,7.24-3.45,10.91-.06.17.19.32.3.18,3.93-4.74,7.15-12.47,4.19-18.41-1.44-2.89-4.11-5.12-5.06-8.27-1.08-3.55.75-6.35,1.97-9.53.17-.45-.42-.86-.8-.62-2.46,1.53-3.75,4.74-4.13,7.51-.46,3.43.7,6.18,2.72,8.88,2.13,2.84,4.34,5.58,4.25,9.35Z"/>
          </g>
          <g>
            <path class="cls-9" d="m48.28,109.54s3.41-2.28,6.73-.66,5.03,6.26,5.03,6.26c0,0,4.93-8.44,12.99-5.69,8.06,2.75,9.58,9.48,9.58,9.48,0,0,3.79-10.72,11.86-7.87,8.06,2.85,6.35,11.76,6.35,11.76,0,0,5.78-6.05,10.81-4.55,5.41,1.61,6.35,6.17,6.35,6.17,0,0,1.53-8.25,6.92-9.58,5.79-1.42,8.06,2.75,8.06,2.75,0,0-1.99-12.05,6.54-13.75,8.54-1.71,12.52,5.31,12.52,5.31,0,0,1.61,24.57-1.14,30.35-2.75,5.79-11.29,12.24-23.71,12.99s-63.83,0-71.14-4.65-7.21-17.36-7.3-22.57c-.09-5.22-.47-15.74-.47-15.74Z"/>
            <g>
              <path class="cls-6" d="m152.81,89.86c.21-.07,7.75-4.34,13.59-2.99,5.83,1.35,8.44,6.5,5.34,11.95-3.07,5.39-7.68,6.9-11.17,8.25s-7.75,2.99-7.75,2.99l.07-9.32s7.75-1.92,11.81-4.91c3.54-2.61,1.49-4.62-1.35-4.48s-10.53,3.49-10.53,3.49v-4.98Z"/>
              <path class="cls-6" d="m48.42,89.86c-.21-.07-7.75-4.34-13.59-2.99-5.83,1.35-8.44,6.5-5.34,11.95,3.07,5.39,7.68,6.9,11.17,8.25s7.75,2.99,7.75,2.99l-.07-9.32s-7.75-1.92-11.81-4.91c-3.54-2.61-1.49-4.62,1.35-4.48,2.85.14,10.53,3.49,10.53,3.49v-4.98Z"/>
              <path class="cls-6" d="m154.51,108.82c-.09-3.94-.28-7.89-.41-11.83s-.53-13.71-.71-14.05c0,0,0-.02-.02-.03-.01-.01-.02-.03-.03-.03-.11-.17-104.92-.76-105-.17-1.49,11.37-1.16,44.33-1.04,49.3.09,3.7.23,7.72,1.54,11.22,1.49,4,4.46,7.13,8.45,8.69,3.62,1.42,7.74,1.67,11.58,1.94,4.22.3,8.44.29,12.67.27,6.66-.03,32.57-.04,36.51-.01,7.84.06,15.9.28,23.61-1.4,3.77-.82,7.66-2.99,9.65-6.42,2.14-3.67,2.75-7.88,2.93-12.07.37-8.46.44-16.95.26-25.43Zm-3.86,28.07c-1.21,4.97-4.53,8.63-9.15,10.72-1.62.73-3.31,1.16-5.03,1.41-1.37.08-2.75.11-4.11.14-4.35.09-8.71.05-13.07.06-8.66.01-17.32,0-25.98.02-8.64,0-17.3.12-25.94-.15-1.11-.04-2.24-.09-3.36-.2-.2-.04-.41-.08-.61-.13-4.47-1.05-8.78-3.91-10.98-7.98-1.67-3.1-2.11-6.6-2.15-10.07-.05-3.49.02-6.99.02-10.48.01-5.45,0-10.89,0-16.34,0-3.31-.05-6.63-.08-9.94-.03-2.93.25-6.12.02-9.24,6.7.3,13.16.41,19.86.43,5.06.02,58.09.15,61.2.15h17.49c.66,0,1.55.03,2.33,0-.16,3.97.26,13.54.23,16.13-.07,7.75-.24,15.61.08,23.39.17,4.04.2,8.16-.78,12.11Z"/>
            </g>
            <path class="cls-5" d="m83.71,138.48c-1.91-.22-2.99,3.01-1.03,3.7,1.07.37,2.28-.33,2.5-1.44.19-1.01-.38-2.13-1.46-2.26Zm-.5,2.73c-.69.02-.8-.88-.46-1.31.4-.52,1.34-.51,1.26.51-.03.44-.34.78-.8.79Z"/>
            <path class="cls-5" d="m137.41,134.66c-1.91-.22-2.99,3.01-1.03,3.7,1.07.37,2.28-.33,2.5-1.44.19-1.01-.38-2.13-1.46-2.26Zm-.5,2.73c-.69.02-.8-.88-.46-1.31.4-.52,1.34-.51,1.26.51-.03.44-.34.78-.8.79Z"/>
            <path class="cls-5" d="m95.96,129.67c.04-1.42-1.28-2.59-2.74-2.08-1.85.64-1.95,3.66.06,4.19,1.25.33,2.42-.51,2.64-1.76.02-.12.03-.23.04-.34Zm-1.39,1.05c-.97.56-1.77-.49-1.36-1.39.01-.03.03-.06.04-.09.97-1.76,2.81.62,1.32,1.48Z"/>
            <path class="cls-5" d="m66.87,128.8c-1.78-.36-3.21,2.06-1.83,3.37.97.92,2.6.64,3.12-.6.47-1.1-.05-2.52-1.3-2.77Zm.46,2.22c-.42,1.83-2.97-.19-1.61-.99.84-.49,1.85-.04,1.61.99Z"/>
            <path class="cls-5" d="m97.17,142.65c-1.22-.25-2.21,1.41-1.25,2.32.67.63,1.79.44,2.15-.41.32-.76-.04-1.73-.89-1.9Zm.32,1.52c-.29,1.26-2.04-.13-1.11-.68.57-.34,1.27-.03,1.11.68Z"/>
            <path class="cls-5" d="m62.54,125.13c-1.22-.25-2.21,1.41-1.25,2.32.67.63,1.79.44,2.15-.41.32-.76-.04-1.73-.89-1.9Zm.32,1.52c-.29,1.26-2.04-.13-1.11-.68.57-.34,1.27-.03,1.11.68Z"/>
            <path class="cls-5" d="m141.97,129.09c-1.22-.25-2.21,1.41-1.25,2.32.67.63,1.79.44,2.15-.41.32-.76-.04-1.73-.89-1.9Zm.32,1.52c-.29,1.26-2.04-.13-1.11-.68.57-.34,1.27-.03,1.11.68Z"/>
            <path class="cls-5" d="m136.9,126.58c.32-.76-.04-1.73-.89-1.9-1.22-.25-2.21,1.41-1.25,2.32.67.63,1.79.44,2.15-.41Zm-1.68-1.06c.57-.34,1.27-.03,1.11.68-.29,1.26-2.04-.13-1.11-.68Z"/>
            <path class="cls-5" d="m113.99,134.74c-1.22-.25-2.21,1.41-1.25,2.32.67.63,1.79.44,2.15-.41.32-.76-.04-1.73-.89-1.9Zm.32,1.52c-.29,1.26-2.04-.13-1.11-.68.57-.34,1.27-.03,1.11.68Z"/>
            <path class="cls-5" d="m109.04,137.72c-1.78-.36-3.21,2.06-1.83,3.37.97.92,2.6.64,3.12-.6.47-1.1-.05-2.52-1.3-2.77Zm.46,2.22c-.42,1.83-2.97-.19-1.61-.99.84-.49,1.85-.04,1.61.99Z"/>
          </g>
        </g>
      </g>
      <rect class="cls-4" width="200" height="200"/>
    </g>
  </g>
</svg>