<?xml version="1.0" encoding="UTF-8"?>
<svg id="Capa_2" data-name="Capa 2" xmlns="http://www.w3.org/2000/svg" viewBox="0 0 200 200">
  <defs>
    <style>
      .cls-1 {
        fill: #c46127;
      }

      .cls-1, .cls-2, .cls-3, .cls-4, .cls-5, .cls-6, .cls-7, .cls-8, .cls-9, .cls-10, .cls-11, .cls-12, .cls-13, .cls-14, .cls-15 {
        stroke-width: 0px;
      }

      .cls-2 {
        fill: #f9d980;
      }

      .cls-3 {
        fill: #ac9b9b;
      }

      .cls-4 {
        fill: none;
      }

      .cls-5 {
        fill: #f9c190;
      }

      .cls-6 {
        fill: #fff;
      }

      .cls-7 {
        fill: #fdead9;
      }

      .cls-8 {
        fill: #593737;
      }

      .cls-9 {
        fill: #d48a5f;
      }

      .cls-10 {
        fill: #f28322;
      }

      .cls-11 {
        fill: #f5994a;
      }

      .cls-12 {
        fill: #e34b4b;
      }

      .cls-13 {
        fill: #8b7373;
      }

      .cls-14 {
        fill: #f3b200;
      }

      .cls-15 {
        fill: #b4a5a5;
      }
    </style>
  </defs>
  <g id="colorful_icons" data-name="colorful icons">
    <g>
      <g>
        <g>
          <path class="cls-7" d="m41.1,80.96s2.63-1.53,6.13-.33,6.35,7.44,6.35,7.44c0,0,6.68-9.85,14.89-7.33,8.21,2.52,10.51,11.49,10.51,11.49,0,0,5.14-12.59,13.68-8.87s7.88,13.46,7.88,13.46c0,0,5.36-7.99,12.48-5.58s7.99,8.21,7.99,8.21c0,0,1.78-11.43,8.65-12.48,5.04-.77,7.88,3.28,7.88,3.28,0,0-.77-13.79,7.99-14.89,8.76-1.09,14.67,4.93,14.67,4.93,0,0,2.52,41.38,1.42,44.77s-5.04,13.9-9.3,15.65c-4.27,1.75-71.59,4.05-81.44,3.28s-20.58-.66-24.74-5.36-5.58-13.57-5.47-17.08.44-40.61.44-40.61Z"/>
          <path class="cls-5" d="m41.76,130.88s4.69-5.21,11.6-4.38c7.03.84,15.05,3.98,14.89,4.49,0,0,8.54-5.91,13.68-4.05s20.8,3.5,21.78,3.28,9.3-4.71,12.81-2.52c2.62,1.64,7.04.74,9.89.4,3.94-.46,7.78-1.46,11.69-.25,2.56.79,5.27,2.08,8.09,1.6,7.11-1.2,14.23-9.3,15-8.76s.33,13.46-4.93,18.39-36.89,7.77-42.69,6.35-58.01.55-63.6-3.17-8.21-11.38-8.21-11.38Z"/>
          <g>
            <path class="cls-8" d="m160.78,73.56c.25-.08,8.95-5.01,15.68-3.45s9.74,7.5,6.16,13.79c-3.55,6.22-8.87,7.96-12.89,9.52s-8.95,3.45-8.95,3.45l.08-10.75s8.95-2.22,13.63-5.66c4.09-3.01,1.72-5.34-1.56-5.17s-12.15,4.02-12.15,4.02v-5.75Z"/>
            <path class="cls-8" d="m40.31,73.56c-.25-.08-8.95-5.01-15.68-3.45-6.73,1.56-9.74,7.5-6.16,13.79s8.87,7.96,12.89,9.52,8.95,3.45,8.95,3.45l-.08-10.75s-8.95-2.22-13.63-5.66c-4.09-3.01-1.72-5.34,1.56-5.17s12.15,4.02,12.15,4.02v-5.75Z"/>
            <path class="cls-8" d="m162.73,95.43c-.1-4.55-.33-9.1-.47-13.65s-.61-15.82-.82-16.21c0-.01,0-.02-.02-.03-.01-.02-.02-.03-.04-.04-.13-.2-121.08-.88-121.17-.19-1.72,13.12-1.33,51.16-1.2,56.9.1,4.27.27,8.91,1.78,12.95,1.72,4.61,5.14,8.23,9.75,10.03,4.18,1.64,8.93,1.92,13.37,2.24,4.87.35,9.74.33,14.62.31,7.69-.03,37.58-.05,42.14-.02,9.05.07,18.35.33,27.25-1.61,4.35-.95,8.84-3.46,11.14-7.41,2.47-4.24,3.17-9.1,3.38-13.92.43-9.76.51-19.56.3-29.35Zm-4.45,32.39c-1.4,5.74-5.23,9.96-10.56,12.37-1.87.85-3.82,1.34-5.81,1.63-1.59.09-3.18.13-4.74.16-5.02.1-10.05.06-15.08.07-10,.01-19.99,0-29.99.02-9.97.01-19.96.14-29.93-.17-1.29-.04-2.58-.11-3.88-.23-.24-.05-.47-.1-.7-.15-5.15-1.21-10.13-4.51-12.67-9.21-1.93-3.57-2.43-7.61-2.49-11.62-.05-4.03.03-8.07.03-12.1.01-6.28,0-12.57,0-18.85,0-3.83-.06-7.65-.09-11.48-.03-3.38.29-7.06.02-10.67,7.73.35,15.19.47,22.92.49,5.84.02,67.03.18,70.63.18h20.19c.76,0,1.79.04,2.69,0-.18,4.58.3,15.62.27,18.62-.08,8.94-.28,18.02.09,26.99.19,4.66.24,9.41-.9,13.97Z"/>
          </g>
          <g>
            <path class="cls-8" d="m93.25,35.75l-.11,12.45,11.92.11.11-12.45s-12.01-.21-11.92-.11Z"/>
            <g>
              <g>
                <path class="cls-15" d="m36.36,61.59c-.1.31,20.25-7.33,28.79-10.51,9.41-3.5,16.42-6.57,34.48-6.68,18.06-.11,31.96,5.91,43.02,10.4,9.25,3.76,21.89,6.46,21.89,6.46,0,0-127.96-.33-128.18.33Z"/>
                <path class="cls-13" d="m111.33,26.24c-6.67-.89-17.37-.95-24.05-.18-6.01.69-7.17,1.61-7.09,3.28.08,1.67-.25,6.69,2.88,8.48,2.7,1.55,29.53,1.75,32.25.26,3.16-1.74,2.92-6.76,3.03-8.43s-1.03-2.61-7.02-3.41Z"/>
                <path class="cls-6" d="m84.75,32.17l.48-.05.24-.03s.08,0,.12-.01c.11-.01.24-.02.35-.04.16-.04.3-.11.42-.22.06-.03.1-.07.14-.11.15-.15.26-.33.31-.54.05-.16.06-.33.03-.49,0-.16-.05-.32-.14-.46-.11-.19-.25-.33-.43-.44-.16-.11-.29-.14-.47-.16-.11-.03-.22-.03-.33,0-.06,0-.12.01-.18.02-.04,0-.08.01-.12.02l-.25.05-.48.09c-.16.04-.29.11-.41.21-.13.08-.23.2-.31.34l-.12.29c-.05.16-.06.32-.03.48,0,.11.03.21.08.31.05.15.13.28.24.39l.24.19c.18.11.38.17.6.17h0Z"/>
                <path class="cls-6" d="m90.3,31.17l.24-.03c.08,0,.15-.02.23-.03.11-.03.24-.1.34-.16l.19-.1c.33-.17.33-.71,0-.89l-.19-.1c-.11-.06-.23-.14-.34-.17-.07-.02-.15-.02-.23-.04l-.24-.04c-.14-.04-.28-.04-.42,0-.13.04-.25.1-.35.2-.14.16-.23.35-.24.57,0,.21.08.42.23.57.1.1.21.17.35.21.14.04.28.04.42,0h0Z"/>
                <path class="cls-8" d="m64.88,41.72c-2.05-.45-3.57-.37-4.76-.37-1.61,0-5.17-.12-6.24,1.52-.95,1.46-.04,2.91,2.72,3.45l.11,8.29s.37,2.13,3.69,1.93,3.28-2.67,3.28-2.67l.04-7.58c1.34-.27,2.4-.74,2.88-1.45.94-1.4.33-2.67-1.72-3.12Z"/>
              </g>
              <path class="cls-8" d="m49.48,27.72c-2.65,3.04-6.9,6.77-6.33,11.26.48,3.73,4.52,6.31,7.99,6.87.43.07.75-.5.31-.75-1.74-.98-3.62-1.61-5-3.14-1.77-1.95-1.24-4.3.14-6.31,2.62-3.79,6.3-6.8,8.92-10.61,1.93-2.79,3.09-6.82.65-9.7-1.36-1.6-3.28-2.53-4.27-4.46-1-1.94-.77-4.13-.66-6.23.02-.29-.42-.5-.62-.25-2.25,2.91-1.01,7.23,1.3,9.73.8.87,1.85,1.56,2.49,2.56.89,1.41.8,3.11.15,4.6-1.07,2.44-3.35,4.42-5.08,6.41Z"/>
              <path class="cls-8" d="m61.65,23.87c-2.1,1.6-4.03,3.81-4.53,6.48-.4,2.12.18,4.96,2.26,5.98.19.09.48-.07.39-.3-1.24-3.16-1.28-5.98,1.04-8.72,1.66-1.96,3.98-3.19,5.66-5.11,1.58-1.8,1.89-3.89.96-6.12-.53-1.27-1.44-2.25-2.32-3.28-1.38-1.61-2.17-3.28-2.3-5.44-.02-.3-.39-.4-.56-.15-1.62,2.45.33,5.24,1.57,7.42,1.02,1.8,2.52,3.82,1.45,5.96-.73,1.45-2.37,2.32-3.61,3.27Z"/>
              <path class="cls-8" d="m167.7,61.34c-2.84-1.1-12.05-.6-12.05-.6l-53.05-.48-7.73-.07-53.05-.48s-9.19-.67-12.06.38c-2.86,1.04-3.86,5.8.36,6.42,3.63.53,133.46,1.71,137.1,1.24,4.23-.55,3.33-5.32.48-6.41Z"/>
            </g>
          </g>
          <g>
            <path class="cls-11" d="m80.74,128.31c-.39,1.43-1.55,3.77-1.55,3.77-1.73,1.34-16.12,5.81-17.69,5.5-.02,0-.03,0-.04,0-.25-.08-.48-.21-.69-.38-.86-.74-1.41-2.27-2.49-4.23-1.34-2.42-1.14-6.18.28-7.4.01-.01.03-.03.05-.04.11-.1.3-.22.53-.37,3-1.88,14.5-7.53,16.19-6.9,1.82.68,5.06,8.21,5.48,9.05,0,.01,0,.02.01.03.08.16.04.52-.09.97Z"/>
            <path class="cls-8" d="m80.74,128.31c-.66.21-1.34.38-1.98.58-3.36,1.06-6.7,2.14-10.06,3.17-1.39.43-2.78.86-4.18,1.26-.64.18-1.45.51-2.13.48,0,0-.01,0-.01,0-.13,1.01-.43,2-.67,2.97l-.2.8s-.03,0-.04,0c-.25-.08-.48-.21-.69-.38.09-.36.19-.72.28-1.08.22-.86.4-1.77.75-2.59-.14-.25-.23-.53-.34-.77-.18-.4-.34-.81-.52-1.22-.35-.85-.7-1.7-1.04-2.55-.45-1.13-.92-2.27-1.29-3.44.11-.1.3-.22.53-.37.49,1.15.92,2.32,1.38,3.48.34.86.69,1.7,1.03,2.56.18.41.35.82.53,1.23.08.16.17.34.25.52.81-.25,1.63-.48,2.45-.71,3.22-.95,6.43-1.97,9.64-2.96,1.58-.49,3.16-.98,4.73-1.46.54-.17,1.1-.36,1.66-.52,0,.01,0,.02.01.03.08.16.04.52-.09.97Z"/>
          </g>
          <g>
            <path class="cls-11" d="m141.18,125.92c-1.43.39-4.03.59-4.03.59-2.04-.81-13.21-10.92-13.74-12.43-.01-.01-.02-.02-.02-.04-.06-.26-.06-.52-.02-.78.19-1.12,1.24-2.37,2.37-4.3,1.41-2.39,4.74-4.13,6.51-3.52.02,0,.04.02.06.03.14.05.34.14.59.27,3.14,1.63,13.86,8.65,14.18,10.42.34,1.91-4.49,8.54-5,9.32,0,.01-.01.01-.02.02-.1.16-.43.3-.88.42Z"/>
            <path class="cls-8" d="m141.18,125.92c-.52-.46-1.01-.96-1.51-1.41-2.62-2.35-5.26-4.68-7.85-7.05-1.08-.98-2.16-1.95-3.21-2.96-.48-.46-1.17-.99-1.5-1.59,0,0-.01,0-.01,0-.93.4-1.94.65-2.9.93l-.79.24s-.02-.02-.02-.04c-.06-.26-.06-.52-.02-.78.36-.11.72-.2,1.07-.31.85-.25,1.72-.56,2.61-.68.15-.24.34-.46.5-.68.26-.36.52-.71.79-1.07.55-.74,1.11-1.47,1.67-2.19.75-.97,1.49-1.95,2.31-2.86.14.05.34.14.59.27-.73,1.01-1.53,1.97-2.3,2.96-.56.73-1.12,1.46-1.68,2.2-.27.36-.53.72-.8,1.08-.1.15-.21.31-.32.48.63.57,1.24,1.16,1.86,1.74,2.46,2.29,4.97,4.53,7.45,6.8,1.23,1.11,2.45,2.22,3.67,3.33.42.38.87.77,1.3,1.17,0,.01-.01.01-.02.02-.1.16-.43.3-.88.42Z"/>
          </g>
          <g>
            <path class="cls-12" d="m126.21,123.88c-4.39-.69-8.58,2.88-7.35,7.42s7.42,6.2,10.16,3.6,3.17-10.09-2.81-11.03Z"/>
            <path class="cls-8" d="m121.18,128.31c.17.13.34.25.52.34.22.11.43.16.68.18.39.03.81-.08,1.14-.29.36-.23.62-.57.76-.97s.15-.99-.15-1.33c-.1-.11-.29-.14-.42-.08-.15.06-.22.19-.24.35,0,.06,0,.12,0,.18,0,.01.01.13,0,.04,0,.08,0,.16,0,.23,0,.04,0,.08-.01.12,0,.01-.01.12,0,.06,0-.06-.01.06-.01.08,0,.03-.01.06-.02.09-.01.04-.03.07-.04.11.03-.08-.01.03-.02.04-.03.07-.07.13-.12.19.04-.06,0,0-.02.03s-.04.04-.06.07c-.03.03-.05.05-.08.07-.02.02-.02.02.01,0-.01.01-.03.02-.04.03-.05.04-.11.07-.17.1,0,0-.11.05-.03.02-.03.01-.07.03-.1.04-.07.02-.14.04-.21.05.06,0,0,0-.02,0-.04,0-.08,0-.13,0-.15,0-.28-.03-.42-.06-.15-.03-.31-.08-.45-.14-.13-.06-.28-.05-.37.07-.08.1-.09.29.02.38h0Z"/>
          </g>
          <g>
            <path class="cls-12" d="m80.22,104.99c4.42-.48,8.43,3.29,6.98,7.77s-7.71,5.83-10.32,3.11c-2.61-2.72-2.68-10.23,3.34-10.88Z"/>
            <path class="cls-8" d="m85.02,109.66c-.17.12-.35.23-.54.32-.22.1-.44.14-.69.15-.39.02-.8-.12-1.12-.35-.35-.25-.59-.6-.71-1.01s-.1-.99.22-1.32c.11-.11.29-.12.42-.06.15.07.21.2.22.36,0,.06,0,.12-.02.18,0,0-.02.13,0,.04,0,.08-.02.15-.02.23,0,.04,0,.08,0,.12,0,.01,0,.12,0,.06,0-.06,0,.06.01.08,0,.03.01.06.02.1,0,.04.02.08.03.11-.02-.08.01.03.02.04.03.07.07.13.11.19-.04-.06,0,0,.02.03s.04.05.06.07c.02.03.05.05.08.08.02.02.02.02-.01,0,.01.01.03.02.04.03.05.04.11.08.16.11,0,0,.11.06.03.02.03.01.07.03.1.04.07.03.14.05.21.06-.06-.01,0,0,.02,0,.04,0,.08,0,.13,0,.15,0,.28-.02.42-.04.16-.03.31-.06.46-.12.13-.05.28-.04.37.09.07.11.08.29-.04.38h0Z"/>
          </g>
          <path class="cls-14" d="m69.56,112.16c.08-.43-4.16-11.6-6.57-12.04s-9.85,2.74-9.85,4.49,7.99,12.37,9.85,12.48,6.24-3.06,6.57-4.93Z"/>
          <path class="cls-14" d="m144.32,93c-2.08.22-7.88,7.66-8.1,8.87s2.41,6.13,4.71,5.91,8.54-4.27,9.52-5.25-4.05-9.74-6.13-9.52Z"/>
          <g>
            <path class="cls-1" d="m85.54,122.29s-.44,3.34.44,8.37c.57,3.26,2.7,5.15,5.73,6.23,3.62,1.29,7.61,1.98,11.52,1.86,3.44-.11,8.66-.61,11.21-3.16,1.86-1.86,3.39-13.57.77-16.53s-29.66,3.23-29.66,3.23Z"/>
            <path class="cls-9" d="m115.21,119.06s-.77-5.8-15.22-4.82c-14.45.99-15.87,6.13-13.79,10.51s12.46,6.19,20.36,4.38c8.1-1.86,10.4-5.25,8.65-10.07Z"/>
            <path class="cls-8" d="m86.41,125.72c.99,1.46,2.38,2.67,4.05,3.34s3.39.91,5.12,1.14c2.17.29,4.37.66,6.57.66,3.94,0,7.71-.68,10.81-3.15,5.62-4.49,2.13-9.15,2.23-8.6.33,1.75.32,3.18-.59,4.8-.8,1.41-2.07,2.52-3.43,3.37-3.07,1.93-6.34,2.58-9.93,2.53-3.17-.04-6.46-.36-9.51-1.29-3.49-1.06-5.36-3.86-6.24-7.22-.08-.29-.77,1.92.93,4.42Z"/>
          </g>
          <path class="cls-14" d="m106.01,106.14s-9.19,6.02-7.99,7.66,5.47,8.1,7.88,7.66,6.9-9.19,6.68-10.95-4.82-5.25-6.57-4.38Z"/>
        </g>
        <g>
          <g>
            <path class="cls-10" d="m82.34,184.12c-2.99,3.12-5.19,4.66-5.71,5-.08.05-.12.08-.12.08l-4.64.15s-.11-.04-.31-.12c-1.52-.6-8.35-3.68-10.01-10.57-1.87-7.77,4.75-12.88,6.88-16.44,2.76-4.64,1.11-7.71,1.87-8.22,8.74,8.97,12.4,10.46,14.64,15.24,2.86,6.1.82,11.28-2.61,14.87Z"/>
            <path class="cls-2" d="m74.54,189.1c-.08.05-.12.08-.12.08l-1.05.15s-.11-.04-.3-.12c-1.1-1.58-4.4-4.58-4.03-7.26.53-3.81,3.36-7.4,3.89-9.34.52-1.95-.45-4.86.14-4.78.6.07,4.42,4.99,5.53,8.14,2.19,6.18-3.7,12.3-4.07,13.12Z"/>
          </g>
          <g>
            <path class="cls-10" d="m108.75,184.12c-2.99,3.12-5.19,4.66-5.71,5-.08.05-.12.08-.12.08l-4.64.15s-.11-.04-.31-.12c-1.52-.6-8.35-3.68-10.01-10.57-1.87-7.77,4.75-12.88,6.88-16.44,2.76-4.64,1.11-7.71,1.87-8.22,8.74,8.97,12.4,10.46,14.64,15.24,2.86,6.1.82,11.28-2.61,14.87Z"/>
            <path class="cls-2" d="m100.94,189.1c-.08.05-.12.08-.12.08l-1.05.15s-.11-.04-.3-.12c-1.1-1.58-4.4-4.58-4.03-7.26.53-3.81,3.36-7.4,3.89-9.34.52-1.95-.45-4.86.14-4.78.6.07,4.42,4.99,5.53,8.14,2.19,6.18-3.7,12.3-4.07,13.12Z"/>
          </g>
          <g>
            <path class="cls-10" d="m135.05,184.12c-2.99,3.12-5.19,4.66-5.71,5-.08.05-.12.08-.12.08l-4.64.15s-.11-.04-.31-.12c-1.52-.6-8.35-3.68-10.01-10.57-1.87-7.77,4.75-12.88,6.88-16.44,2.76-4.64,1.11-7.71,1.87-8.22,8.74,8.97,12.4,10.46,14.64,15.24,2.86,6.1.82,11.28-2.61,14.87Z"/>
            <path class="cls-2" d="m127.24,189.1c-.08.05-.12.08-.12.08l-1.05.15s-.11-.04-.31-.12c-1.1-1.58-4.4-4.58-4.03-7.26.53-3.81,3.36-7.4,3.89-9.34.52-1.95-.45-4.86.14-4.78.6.07,4.42,4.99,5.53,8.14,2.19,6.18-3.7,12.3-4.07,13.12Z"/>
          </g>
          <g>
            <path class="cls-3" d="m62.31,188.6c-.6.07-.67,7.7-.15,8.15.52.45,75.55.22,76.3-.07.75-.3.37-7.77,0-8.15s-75.55,0-76.15.07Z"/>
            <path class="cls-8" d="m62.66,189.27c12.85.01,25.71.03,38.56.04,6.28,0,30.42-.22,36.94-.14.65,0,.65-1.24,0-1.28-5.71-.36-12.18-.34-17.97-.16-6.27.19-12.7.01-18.97.02-12.85.01-25.71.03-38.56.04-.95,0-.96,1.48,0,1.48h0Z"/>
          </g>
        </g>
      </g>
      <rect class="cls-4" width="200" height="200"/>
    </g>
  </g>
</svg>