<?xml version="1.0" encoding="UTF-8"?>
<svg id="Capa_2" data-name="Capa 2" xmlns="http://www.w3.org/2000/svg" viewBox="0 0 200 200">
  <defs>
    <style>
      .cls-1 {
        fill: #df4331;
      }

      .cls-1, .cls-2, .cls-3, .cls-4, .cls-5, .cls-6, .cls-7, .cls-8, .cls-9, .cls-10, .cls-11, .cls-12 {
        stroke-width: 0px;
      }

      .cls-2 {
        fill: #f9d980;
      }

      .cls-3 {
        fill: #c15719;
      }

      .cls-4 {
        fill: #ac9b9b;
      }

      .cls-5 {
        fill: none;
      }

      .cls-6 {
        fill: #fff;
      }

      .cls-7 {
        fill: #f18a30;
      }

      .cls-8 {
        fill: #d17b3e;
      }

      .cls-9 {
        fill: #593737;
      }

      .cls-10 {
        fill: #f28322;
      }

      .cls-11 {
        fill: #9e7e5c;
      }

      .cls-12 {
        fill: #f3b200;
      }
    </style>
  </defs>
  <g id="colorful_icons" data-name="colorful icons">
    <g>
      <g>
        <g>
          <g>
            <path class="cls-10" d="m95.62,185.26c-2.96,3.08-5.13,4.6-5.64,4.94-.08.05-.12.08-.12.08l-4.58.15s-.11-.04-.3-.12c-1.5-.59-8.24-3.63-9.88-10.44-1.84-7.67,4.69-12.71,6.79-16.23,2.73-4.58,1.1-7.61,1.84-8.12,8.63,8.85,12.24,10.33,14.45,15.05,2.82,6.02.81,11.14-2.58,14.68Z"/>
            <path class="cls-2" d="m87.91,190.18c-.08.05-.12.08-.12.08l-1.04.15s-.11-.04-.3-.12c-1.09-1.56-4.34-4.53-3.98-7.16.52-3.76,3.32-7.3,3.84-9.22.51-1.92-.44-4.8.14-4.72.59.07,4.36,4.93,5.46,8.04,2.16,6.1-3.65,12.14-4.02,12.95Z"/>
          </g>
          <g>
            <path class="cls-10" d="m121.68,185.26c-2.96,3.08-5.13,4.6-5.64,4.94-.08.05-.12.08-.12.08l-4.58.15s-.11-.04-.3-.12c-1.5-.59-8.24-3.63-9.88-10.44-1.84-7.67,4.69-12.71,6.79-16.23,2.73-4.58,1.1-7.61,1.84-8.12,8.63,8.85,12.24,10.33,14.45,15.05,2.82,6.02.81,11.14-2.58,14.68Z"/>
            <path class="cls-2" d="m113.97,190.18c-.08.05-.12.08-.12.08l-1.04.15s-.11-.04-.3-.12c-1.09-1.56-4.34-4.53-3.98-7.16.52-3.76,3.32-7.3,3.84-9.22.51-1.92-.44-4.8.14-4.72.59.07,4.36,4.93,5.46,8.04,2.16,6.1-3.65,12.14-4.02,12.95Z"/>
          </g>
          <g>
            <path class="cls-4" d="m63.2,189.69c-.59.07-.66,7.6-.15,8.04.52.44,74.57.22,75.31-.07.74-.3.37-7.67,0-8.04-.37-.37-74.57,0-75.16.07Z"/>
            <path class="cls-9" d="m63.55,190.35c12.69.01,25.37.03,38.06.04,6.2,0,30.03-.21,36.47-.14.64,0,.64-1.22,0-1.26-5.63-.35-12.02-.34-17.74-.16-6.19.19-12.53.01-18.73.02-12.69.01-25.37.03-38.06.04-.94,0-.94,1.46,0,1.46h0Z"/>
          </g>
        </g>
        <g>
          <path class="cls-12" d="m40.25,84.84l118.11-.27s2.41,36.16-1.07,46.06c-3.48,9.91-9.64,13.12-19.28,13.66s-77.93.27-85.7-2.14c-7.77-2.41-9.91-5.62-12.05-13.66s0-43.65,0-43.65Z"/>
          <path class="cls-11" d="m128.92,127.36c-1.7-.49-8.59,5.75-8.43,8.02s2.76,7.29,5.02,6.97,7.78-4.7,8.67-5.59-3.57-8.91-5.27-9.4Z"/>
          <g>
            <path class="cls-9" d="m158.29,73.55c.24-.08,8.83-4.94,15.48-3.4,6.64,1.54,9.62,7.4,6.08,13.61s-8.75,7.86-12.72,9.4c-3.97,1.54-8.83,3.4-8.83,3.4l.08-10.62s8.83-2.19,13.45-5.59c4.03-2.97,1.7-5.27-1.54-5.11s-11.99,3.97-11.99,3.97v-5.67Z"/>
            <path class="cls-9" d="m39.38,73.55c-.24-.08-8.83-4.94-15.48-3.4s-9.62,7.4-6.08,13.61,8.75,7.86,12.72,9.4c3.97,1.54,8.83,3.4,8.83,3.4l-.08-10.62s-8.83-2.19-13.45-5.59c-4.03-2.97-1.7-5.27,1.54-5.11,3.24.16,11.99,3.97,11.99,3.97v-5.67Z"/>
            <path class="cls-9" d="m160.22,95.15c-.1-4.49-.32-8.98-.47-13.47s-.6-15.62-.81-16c0-.01,0-.02-.02-.03-.01-.02-.02-.03-.04-.04-.13-.19-119.52-.87-119.61-.19-1.69,12.95-1.32,50.5-1.18,56.16.1,4.21.27,8.79,1.76,12.78,1.7,4.55,5.08,8.13,9.62,9.9,4.13,1.61,8.82,1.9,13.2,2.21,4.81.34,9.61.33,14.43.31,7.59-.03,37.1-.05,41.59-.02,8.93.07,18.12.32,26.9-1.59,4.3-.94,8.72-3.41,11-7.31,2.44-4.18,3.13-8.98,3.34-13.74.43-9.63.51-19.31.3-28.97Zm-4.39,31.97c-1.38,5.66-5.16,9.83-10.42,12.21-1.85.84-3.77,1.32-5.73,1.6-1.57.09-3.14.12-4.68.15-4.96.1-9.92.06-14.88.07-9.87.01-19.73,0-29.6.02-9.85.01-19.7.14-29.55-.17-1.27-.04-2.55-.1-3.83-.23-.23-.05-.46-.09-.69-.15-5.09-1.19-10-4.45-12.51-9.1-1.9-3.53-2.4-7.51-2.45-11.47-.05-3.98.03-7.96.03-11.94.01-6.2,0-12.41,0-18.61,0-3.78-.06-7.55-.09-11.33-.03-3.34.29-6.97.02-10.53,7.63.34,14.99.46,22.63.48,5.77.02,66.17.18,69.72.18h19.93c.75,0,1.77.04,2.66,0-.18,4.52.29,15.42.27,18.38-.08,8.82-.28,17.79.09,26.64.19,4.6.23,9.29-.89,13.79Z"/>
          </g>
          <path class="cls-11" d="m63.04,132.79s-4.13-10.86-5.59-11.75-10.13,2.51-9.97,4.62,7.37,11.26,9.24,11.67,6.24-2.43,6.32-4.54Z"/>
          <g>
            <path class="cls-7" d="m83.08,114.91c-.4,1.39-1.55,3.66-1.55,3.66-1.71,1.29-15.8,5.47-17.33,5.14-.02,0-.03,0-.04,0-.24-.08-.46-.21-.66-.38-.83-.73-1.35-2.23-2.38-4.16-1.28-2.38-1.04-6.05.37-7.22.01-.01.03-.03.05-.04.11-.09.29-.21.52-.35,2.95-1.79,14.24-7.17,15.88-6.53,1.77.69,4.84,8.07,5.24,8.9,0,.01,0,.02,0,.03.08.16.03.51-.1.95Z"/>
            <path class="cls-9" d="m83.08,114.91c-.65.2-1.31.36-1.94.54-3.29.99-6.57,2.01-9.86,2.97-1.36.4-2.72.81-4.09,1.18-.62.17-1.42.48-2.08.44,0,0-.01,0-.01,0-.14.98-.44,1.95-.69,2.89l-.21.78s-.03,0-.04,0c-.24-.08-.46-.21-.66-.38.09-.35.19-.7.29-1.05.22-.84.41-1.72.76-2.52-.13-.24-.21-.52-.32-.76-.17-.4-.33-.8-.49-1.2-.33-.83-.67-1.67-.98-2.51-.43-1.11-.87-2.23-1.22-3.38.11-.09.29-.21.52-.35.47,1.12.87,2.27,1.3,3.42.32.84.65,1.67.98,2.51.17.4.33.81.5,1.21.07.16.16.33.23.51.79-.24,1.6-.45,2.4-.67,3.16-.89,6.3-1.84,9.45-2.76,1.54-.46,3.09-.91,4.64-1.37.53-.16,1.08-.34,1.63-.49,0,.01,0,.02,0,.03.08.16.03.51-.1.95Z"/>
          </g>
          <g>
            <path class="cls-7" d="m146.93,136.49c-1.41.32-3.96.42-3.96.42-1.96-.87-12.45-11.16-12.91-12.66-.01-.01-.01-.02-.02-.04-.05-.25-.04-.51,0-.76.23-1.08,1.3-2.27,2.48-4.1,1.46-2.27,4.78-3.84,6.49-3.18.02,0,.04.02.06.03.14.05.33.15.56.29,3,1.71,13.18,8.97,13.43,10.71.26,1.88-4.71,8.15-5.23,8.9,0,.01-.01.01-.02.02-.1.15-.43.28-.88.37Z"/>
            <path class="cls-9" d="m146.93,136.49c-.49-.47-.95-.98-1.42-1.44-2.47-2.39-4.94-4.77-7.39-7.18-1.01-.99-2.03-1.99-3.02-3.01-.45-.46-1.11-1.01-1.4-1.61,0,0-.01,0-.01,0-.92.36-1.92.56-2.86.8l-.78.2s-.01-.02-.02-.04c-.05-.25-.04-.51,0-.76.35-.09.71-.17,1.05-.26.84-.21,1.7-.48,2.57-.56.15-.23.35-.44.51-.65.26-.34.54-.67.81-1.01.57-.7,1.13-1.39,1.71-2.07.77-.91,1.53-1.84,2.36-2.7.14.05.33.15.56.29-.76.95-1.57,1.86-2.35,2.8-.58.69-1.15,1.38-1.72,2.08-.27.34-.54.68-.82,1.02-.1.14-.21.3-.33.45.59.58,1.17,1.18,1.75,1.77,2.31,2.33,4.67,4.61,7,6.91,1.15,1.13,2.3,2.26,3.45,3.39.4.39.82.78,1.22,1.19,0,.01-.01.01-.02.02-.1.15-.43.28-.88.37Z"/>
          </g>
          <g>
            <path class="cls-1" d="m126.11,110.96c-4.13-1.57-8.93,1.05-8.66,5.71.26,4.66,5.95,7.54,9.14,5.58,3.19-1.96,5.15-9.16-.47-11.29Z"/>
            <path class="cls-9" d="m120.31,114.24c.14.16.27.31.44.44.19.15.39.25.62.32.37.11.8.09,1.17-.05.4-.15.72-.42.94-.79s.35-.93.12-1.32c-.07-.13-.25-.19-.39-.16-.16.03-.25.14-.3.29-.02.06-.02.12-.03.18,0,.01-.02.13,0,.04-.01.08-.02.15-.04.23-.01.04-.02.07-.04.11,0,.01-.03.11-.02.06.02-.05-.02.06-.03.07-.01.03-.03.06-.04.09-.02.03-.04.07-.06.1.04-.07-.02.02-.03.03-.05.06-.1.11-.15.16.05-.05,0,0-.03.02s-.05.03-.07.05c-.03.02-.06.03-.09.05-.03.01-.02.01.02,0-.02,0-.03.01-.05.02-.06.03-.12.05-.19.06,0,0-.12.03-.04.01-.04,0-.07.01-.11.01-.07,0-.14,0-.21,0,.06,0,0,0-.02,0-.04,0-.08-.01-.12-.02-.15-.03-.26-.09-.4-.15-.14-.06-.28-.14-.41-.23-.12-.08-.26-.11-.38,0-.1.08-.15.26-.06.37h0Z"/>
          </g>
          <g>
            <path class="cls-1" d="m83.11,133.25c.22-4.41-3.74-8.17-8.09-6.49-4.36,1.68-5.35,7.97-2.51,10.41,2.85,2.44,10.3,2.09,10.6-3.92Z"/>
            <path class="cls-9" d="m78.21,128.74c-.11.18-.21.36-.29.55-.09.23-.12.45-.11.69,0,.39.16.79.41,1.09.27.33.62.55,1.04.65s.99.04,1.3-.29c.1-.11.1-.3.03-.42-.08-.14-.21-.2-.37-.2-.06,0-.12.01-.18.03,0,0-.13.03-.04.01-.08.01-.15.03-.23.03-.04,0-.08,0-.12,0-.01,0-.12,0-.06,0,.06,0-.06,0-.08,0-.03,0-.06,0-.1-.01-.04,0-.08-.02-.11-.02.08.02-.03,0-.04-.02-.07-.03-.13-.06-.2-.1.06.04,0,0-.03-.02s-.05-.04-.07-.05c-.03-.02-.05-.05-.08-.07-.02-.02-.02-.02,0,.01-.01-.01-.02-.03-.04-.04-.04-.05-.08-.1-.12-.16,0,0-.06-.11-.02-.03-.02-.03-.03-.06-.05-.1-.03-.07-.05-.13-.07-.2.02.06,0,0,0-.02,0-.04-.01-.08-.02-.13-.01-.15,0-.28.02-.42.02-.16.05-.31.09-.46.04-.14.02-.28-.11-.36-.11-.07-.29-.06-.37.06h0Z"/>
          </g>
          <g>
            <path class="cls-3" d="m116.75,124.61s.43,3.3-.43,8.27c-.56,3.22-2.67,5.09-5.65,6.15-3.57,1.28-7.51,1.95-11.37,1.83-3.39-.11-8.55-.6-11.07-3.12-1.84-1.84-3.35-13.4-.76-16.32s29.28,3.19,29.28,3.19Z"/>
            <path class="cls-8" d="m87.47,121.42s.76-5.73,15.02-4.75,15.67,6.05,13.61,10.37-12.29,6.11-20.1,4.32c-8-1.84-10.26-5.19-8.54-9.94Z"/>
            <path class="cls-9" d="m115.89,127.99c-.98,1.44-2.35,2.63-4,3.3s-3.35.9-5.05,1.13c-2.14.29-4.32.65-6.48.65-3.89,0-7.61-.67-10.67-3.11-5.55-4.43-2.1-9.03-2.2-8.49-.33,1.73-.32,3.14.58,4.74.79,1.4,2.04,2.49,3.39,3.33,3.03,1.9,6.26,2.55,9.81,2.5,3.13-.04,6.38-.35,9.39-1.27,3.44-1.05,5.3-3.81,6.16-7.13.08-.29.76,1.89-.91,4.36Z"/>
          </g>
          <path class="cls-11" d="m103.97,115.21s-6.89-7.29-8.27-6.89-5.92,4.94-5.92,5.51,4.78,9.64,6.81,9.89,6.89-6.89,7.37-8.51Z"/>
          <path class="cls-6" d="m129.67,96.11c2.17.26,3.41-3.43,1.18-4.21-1.22-.43-2.6.37-2.84,1.64-.22,1.15.43,2.43,1.67,2.57Zm.57-3.11c.78-.03.91,1,.53,1.49-.46.59-1.53.59-1.43-.58.04-.51.38-.88.91-.9Z"/>
          <path class="cls-6" d="m56.38,98.6c2.17.26,3.41-3.43,1.18-4.21-1.22-.43-2.6.37-2.84,1.64-.22,1.15.43,2.43,1.67,2.57Zm.57-3.11c.78-.03.91,1,.53,1.49-.46.59-1.53.59-1.43-.58.04-.51.38-.88.91-.9Z"/>
          <path class="cls-6" d="m109.75,101.29c2.11-.73,2.22-4.17-.07-4.77-1.43-.38-2.75.59-3.01,2.01-.02.13-.04.26-.04.39-.05,1.62,1.46,2.95,3.12,2.37Zm-1.54-3.57c1.11-.63,2.02.55,1.55,1.58-.02.03-.03.07-.05.1-1.11,2.01-3.2-.71-1.5-1.68Z"/>
          <path class="cls-6" d="m149.2,98.62c2.02.41,3.66-2.35,2.08-3.84-1.11-1.05-2.96-.73-3.56.69-.53,1.26.06,2.87,1.48,3.15Zm-.52-2.53c.48-2.08,3.38.22,1.83,1.13-.95.56-2.1.05-1.83-1.13Z"/>
          <path class="cls-6" d="m92.57,94.65c1.39.28,2.51-1.61,1.43-2.64-.76-.72-2.03-.5-2.44.47-.36.86.04,1.97,1.02,2.17Zm-.36-1.74c.33-1.43,2.32.15,1.26.77-.65.38-1.44.03-1.26-.77Z"/>
          <path class="cls-6" d="m136.56,107.98c1.39.28,2.51-1.61,1.43-2.64-.76-.72-2.03-.5-2.44.47-.36.86.04,1.97,1.02,2.17Zm-.36-1.74c.33-1.43,2.32.15,1.26.77-.65.38-1.44.03-1.26-.77Z"/>
          <path class="cls-6" d="m148.29,111.22c-.36.86.04,1.97,1.02,2.17,1.39.28,2.51-1.61,1.43-2.64-.76-.72-2.03-.5-2.44.47Zm1.92,1.2c-.65.38-1.45.03-1.26-.77.33-1.43,2.32.15,1.26.77Z"/>
          <path class="cls-6" d="m110.6,113.69c1.39.28,2.51-1.61,1.43-2.64-.76-.72-2.03-.5-2.44.47-.36.86.04,1.97,1.02,2.17Zm-.36-1.74c.33-1.43,2.32.15,1.26.77-.65.38-1.45.03-1.26-.77Z"/>
          <path class="cls-6" d="m50.34,110.96c1.39.28,2.51-1.61,1.43-2.64-.76-.72-2.03-.5-2.44.47-.36.86.04,1.97,1.02,2.17Zm-.36-1.74c.33-1.43,2.32.15,1.26.77-.65.38-1.44.03-1.26-.77Z"/>
          <path class="cls-6" d="m67.24,103.81c1.39.28,2.51-1.61,1.43-2.64-.76-.72-2.03-.5-2.44.47-.36.86.04,1.97,1.02,2.17Zm-.36-1.74c.33-1.43,2.32.15,1.26.77-.65.38-1.44.03-1.26-.77Z"/>
          <path class="cls-6" d="m88.28,107.68c1.39.28,2.51-1.61,1.43-2.64-.76-.72-2.03-.5-2.44.47-.36.86.04,1.97,1.02,2.17Zm-.36-1.74c.33-1.43,2.32.15,1.26.77-.65.38-1.44.03-1.26-.77Z"/>
          <path class="cls-9" d="m100.33,46.43c1.84,2.21,3.03,4.87,2.64,7.79-.43,3.23-2.33,6-4.34,8.47-.36.45.22,1.06.65.64,3.64-3.57,7.08-8.2,6.19-13.6-.86-5.24-5.31-8.62-9.14-11.8-2.1-1.74-4.26-3.56-5.64-5.95-1.47-2.55-1.77-5.57-1.35-8.44.88-6.09,4.47-11.12,7.49-16.32.31-.53-.4-1.06-.84-.64-7.65,7.17-14.83,19.07-7.3,28.97,3.26,4.28,8.21,6.75,11.64,10.87Z"/>
          <path class="cls-9" d="m76.61,49.98c1.99,1.29,4.55,2.68,4.65,5.38.1,2.68-1.91,5.36-3.41,7.43-.29.4.33.84.67.52,2.97-2.81,6.16-7.01,3.66-11.17-2.26-3.76-8.81-4.95-8.19-10.26.05-.45-.62-.71-.91-.38-2.71,3.18.89,6.75,3.53,8.47Z"/>
          <path class="cls-9" d="m126.67,50.2c-.11,4.69-2.56,8.46-4.03,12.75-.07.2.22.37.36.21,4.6-5.54,8.35-14.58,4.9-21.52-1.68-3.38-4.8-5.99-5.91-9.66-1.26-4.15.88-7.42,2.3-11.14.2-.53-.49-1-.94-.72-2.87,1.79-4.39,5.54-4.82,8.77-.54,4.01.81,7.22,3.18,10.38,2.49,3.32,5.07,6.53,4.97,10.93Z"/>
          <path class="cls-12" d="m60.54,82.07c.47,1.19,2.29.76,1.96-.54-.21-.83-.36-1.69-.68-2.48-.22-.54-.83-1.36-1.53-1.18-.64.17-.71,1.11-.65,1.63.11.88.58,1.75.9,2.57Z"/>
          <path class="cls-12" d="m69.58,79.67c0-.73.46-1.47.12-2.18-.1-.2-.36-.34-.58-.33-1.17.06-1.46,1.59-1.52,2.51-.08,1.26,1.99,1.28,1.98,0Z"/>
          <path class="cls-12" d="m81.75,82.08c.29.04.57-.05.78-.26.25-.25.29-.57.24-.9-.05-.32-.11-.64-.18-.96-.1-.47-.71-.46-.94-.12-.2.28-.39.57-.57.87-.35.56.05,1.29.68,1.38Z"/>
          <path class="cls-12" d="m114.17,80.1c.01-.7.09-1.54-.46-2.09-.27-.27-.73-.27-1,0-.54.54-.47,1.38-.46,2.09.02,1.23,1.89,1.23,1.91,0Z"/>
          <path class="cls-12" d="m122.66,81.87c.61,0,1.01-.58.88-1.15-.07-.32-.16-.6-.3-.89-.12-.26-.25-.56-.58-.56-.32,0-.45.28-.56.53-.14.31-.24.6-.31.93-.13.57.27,1.15.88,1.15Z"/>
          <path class="cls-12" d="m139.66,82.43c.47.36,1.23.26,1.52-.29.15-.29.3-.58.45-.87.1-.19.2-.38.23-.59.02-.17,0-.33-.03-.5-.04-.37-.34-.68-.75-.57-.11.03-.23.06-.34.1-.25.09-.41.24-.58.44-.21.25-.41.49-.62.74-.4.47-.42,1.14.1,1.54Z"/>
          <path class="cls-12" d="m149.37,81.85c.28.04.56-.04.77-.25.25-.25.29-.56.23-.89-.06-.37-.14-.82-.37-1.12-.12-.14-.35-.14-.5-.06-.17.09-.27.25-.39.4-.15.18-.28.37-.4.57-.35.55.05,1.27.67,1.36Z"/>
          <path class="cls-12" d="m51.43,80.93c.43.4,1.17.46,1.59,0,.37-.4.5-1.2,0-1.59-.56-.44-1.16-1.06-1.92-1.03-.42.02-.93.39-.87.87.06.45.23.83.55,1.15.21.21.43.4.65.6Z"/>
          <path class="cls-12" d="m150.82,64.69c.36-.4.62-.83.8-1.33.1-.27.14-.55.1-.84-.03-.19-.09-.38-.19-.54-.06-.08-.12-.16-.18-.24.09.09.1.09,0-.02-.41-.58-1.27-.66-1.66,0-.07.11-.07.12,0,.02-.09.11-.17.21-.25.32-.07.13-.12.27-.16.41-.04.35-.06.44-.04.29.02-.11-.07.25-.09.3.05-.1.04-.08-.02.05-.04.07-.08.14-.12.21-.67,1.08.92,2.36,1.79,1.38Z"/>
          <path class="cls-12" d="m115.64,64.13c.15-1.1.3-2.16.13-3.26-.07-.43-.73-.48-.92-.12-.49.92-.68,1.9-.89,2.92-.22,1.11,1.52,1.54,1.67.46Z"/>
          <path class="cls-12" d="m99.8,77.96c.51-.02,1.1-.46,1.03-1.03-.03-.3-.07-.59-.1-.89-.03-.23-.04-.46-.16-.67-.08-.14-.2-.23-.32-.34-.27-.24-.63-.24-.9,0-.12.1-.23.19-.32.34-.12.21-.14.44-.16.67-.04.3-.07.59-.1.89-.06.54.52,1.06,1.03,1.03Z"/>
          <path class="cls-12" d="m86.14,71.09c1.31,0,1.31-2.03,0-2.03s-1.31,2.03,0,2.03h0Z"/>
          <path class="cls-12" d="m138.09,72.91c.13-.14.24-.3.35-.45.05-.07.09-.14.13-.21.02-.04.04-.07.06-.11.05-.1.09-.21.13-.32.06-.23.06-.46,0-.69,0-.01,0-.03-.01-.04-.01-.03-.02-.07-.04-.1-.04-.1-.08-.2-.13-.3,0-.02-.01-.03-.02-.05-.07-.13-.16-.23-.28-.31-.11-.1-.23-.16-.37-.2l-.29-.04c-.2,0-.38.05-.55.15-.05.02-.09.06-.13.08-.02.01-.04.02-.07.04-.15.08-.27.19-.36.33-.11.12-.19.27-.23.44,0,.02-.01.04-.02.05l.13-.31c-.07.16-.16.32-.27.46l.2-.26s-.02.02-.02.03c-.12.11-.21.25-.26.41-.08.15-.12.31-.11.49,0,.17.03.34.11.49.05.16.14.29.26.41l.26.2c.2.11.41.17.64.17l.34-.05c.22-.06.4-.17.56-.33h0Z"/>
          <path class="cls-12" d="m123.58,73.5c1.08,0,1.08-1.68,0-1.68s-1.08,1.68,0,1.68h0Z"/>
          <path class="cls-12" d="m60.53,63.33c1.33,0,1.33-2.07,0-2.07s-1.33,2.07,0,2.07h0Z"/>
          <path class="cls-12" d="m90.68,63.38c1.71,0,1.71-2.66,0-2.66s-1.71,2.66,0,2.66h0Z"/>
          <path class="cls-12" d="m59.4,73.48c.13,0,.26-.02.38-.08.12-.04.23-.11.31-.2.1-.09.16-.19.2-.31.06-.12.09-.24.08-.38l-.03-.26c-.05-.17-.13-.31-.25-.43l-.2-.15c-.15-.09-.32-.13-.49-.13-.13,0-.26.02-.38.08-.12.04-.23.11-.31.2-.1.09-.16.19-.2.31-.06.12-.09.24-.08.38l.03.26c.05.17.13.31.25.43l.2.15c.15.09.32.13.49.13h0Z"/>
        </g>
      </g>
      <rect class="cls-5" width="200" height="200"/>
    </g>
  </g>
</svg>