<?xml version="1.0" encoding="UTF-8"?>
<svg id="Capa_2" data-name="Capa 2" xmlns="http://www.w3.org/2000/svg" viewBox="0 0 200 200">
  <defs>
    <style>
      .cls-1 {
        fill: #ac9b9b;
      }

      .cls-1, .cls-2, .cls-3, .cls-4, .cls-5, .cls-6 {
        stroke-width: 0px;
      }

      .cls-2 {
        fill: none;
      }

      .cls-3 {
        fill: #f9c190;
      }

      .cls-4 {
        fill: #fff;
      }

      .cls-5 {
        fill: #593737;
      }

      .cls-6 {
        fill: #6bb262;
      }
    </style>
  </defs>
  <g id="colorful_icons" data-name="colorful icons">
    <g>
      <g>
        <path class="cls-3" d="m123.66,101.15s-16.97,2.77-26.15,14.03-14.37,31.69-15.93,37.92-2.94,12.64-2.94,12.64l34.98-1.04s-5.02-15.24-6.23-26.67c-1.21-11.43-1.39-15.06,1.56-18.87s15.41-5.37,15.41-5.37l-.69-12.64Z"/>
        <g>
          <path class="cls-1" d="m79.77,26.94c-.9-3.05,1.32-6.92,4.85-6.93,3.54-.01,5.06,1.51,6.07,2.95s2.47,4.64,4.7,3.98c2.24-.66,1.87-3.61-1.51-8.18-3.38-4.56-8.91-5.25-12.99-3.25-4.08,2.01-7.21,7.11-6.34,12.41.86,5.3,6.63,11.55,13.31,17.12,11.89,9.9,24.59,18.66,37.38,27.34,3.07,2.09,6.14,4.19,9.19,6.32,0,0-20.09,32-22.82,36.63-1.33,2.26-4.11,5.8-2.57,6.7,2.46,1.44,24.44,13.31,37.36,3.28,12.92-10.02,15.55-26.54,5.6-38.19-7.54-8.83-22.55-18.49-34.43-26.18-10.32-6.69-19.95-14.54-24.22-17.8-10.21-7.82-12.36-12.1-13.58-16.2Z"/>
          <path class="cls-4" d="m117.11,117.45c1.06,2.68,3.76,3.57,6.37,4.28,2.78.75,6.14,1.54,8.91.51,1.7-.63,1.49-2.86.06-3.62-2.23-1.18-5.01-.95-7.46-1.41-2.34-.44-4.48-1.61-6.89-1.4-.78.07-1.26.94-.98,1.64h0Z"/>
          <path class="cls-4" d="m138.84,121.29c.14.17.29.31.44.47.02.02.04.04.07.06-.33-.34-.3-.3.12.13.51.41,1.22.57,1.85.53,1.09-.06,2.18-.72,2.61-1.74.48-1.11-.23-2.65-1.53-2.74-.71-.05-1.41.11-2.04.42-.31.15-.57.31-.81.53-.21.14-.37.33-.49.55-.19.31-.17.29.04-.07-.06.08-.27.26.04-.03-.51.47-.79,1.26-.29,1.87h0Z"/>
          <path class="cls-5" d="m108.92,121.49c2.38-2.06,3.92-5.47,5.54-8.12,2.39-3.91,4.76-7.84,7.11-11.77,4.45-7.42,9.59-14.77,13.19-22.64.28-.61-.58-1.21-1.02-.66-5.21,6.49-9.08,14.24-13.37,21.35-2.4,3.97-4.8,7.93-7.23,11.88-1.79,2.9-4.38,5.95-5.37,9.23-.18.58.68,1.13,1.14.73h0Z"/>
        </g>
        <g>
          <path class="cls-6" d="m179.58,159.92c-.8-.35-1.97-.15-2.84-.15-2.28,0-4.56.01-6.84.01-1.92,0-3.85,0-5.77,0-2.29,0-4.58,0-6.87,0-2.61,0-5.21,0-7.82,0-2.87,0-5.74,0-8.6,0-3.08,0-6.16,0-9.23.01-3.24,0-6.47,0-9.71.01-3.34,0-6.68,0-10.02.01-3.39,0-6.79.01-10.18.02-3.39,0-6.79.01-10.18.02-3.34,0-6.68.01-10.02.02-3.24,0-6.47.01-9.71.02-3.08,0-6.16.01-9.24.02-2.87,0-5.74.01-8.61.02-2.61,0-5.21.01-7.82.02-2.29,0-4.58.01-6.87.02-1.92,0-3.85.01-5.77.02-1.5,0-3.01.01-4.51.02-1.03,0-2.07,0-3.1.01-.51,0-1.02,0-1.52.01-.02,0-.04,0-.07,0-1.23.03-5.92.35-4.63,2.82.26.5.57.95.91,1.35,1.2,2.87,5.29,4.85,7.91,5.49,2.82.69,5.77.52,8.65.64,2.06.08,4.35.4,6.26,1.21,1.03.44,2.01,1.2,2.96,1.78,2.29,1.39,4.54,2.87,7.21,3.45,1.72.37,3.52.42,5.31.39.43.51,4.63,6.13,13.23,6.31,5.79.12,11.62-.08,17.41-.1,12.26-.04,24.5-.17,36.76-.04,3.08.03,6.21.26,9.16-.91,2.57-1.02,5.07-4.42,5.39-5.27,1.38.03,2.75.01,4.11-.09,1.74-.13,3.42-.61,5-1.34,1.55-.72,3.03-1.59,4.48-2.5,2.02-1.27,4.05-2.35,6.44-2.68,3.16-.43,6.37-.1,9.53-.52,2.52-.34,5.12-1.33,7.19-2.81.82-.59,1.58-1.29,2.12-2.14.59-.93,1.09-2.44.93-3.54-.09-.58-.33-1.24-.87-1.55-.05-.03-.1-.05-.15-.08Z"/>
          <path class="cls-5" d="m59.11,177.78c1.17.44,2.43.35,3.67.39,1.34.05,2.68.09,4.02.12,2.69.06,5.37.13,8.06.13,5.32,0,10.64.06,15.96.05,10.65-.02,21.31-.03,31.96-.06,2.99-.01,5.98-.02,8.97-.03s6.02.22,8.94-.36c.82-.16.82-1.49,0-1.65-2.57-.52-5.21-.35-7.82-.35s-5.38,0-8.06,0c-5.32,0-10.64.03-15.96.06-10.65.06-21.31.16-31.96.23-2.99.02-5.98.06-8.97.14-1.49.04-2.98.09-4.47.14s-2.98-.09-4.34.42c-.37.14-.37.62,0,.76h0Z"/>
        </g>
      </g>
      <rect class="cls-2" width="200" height="200"/>
    </g>
  </g>
</svg>