<?xml version="1.0" encoding="UTF-8"?>
<svg id="Capa_2" data-name="Capa 2" xmlns="http://www.w3.org/2000/svg" viewBox="0 0 200 200">
  <defs>
    <style>
      .cls-1 {
        fill: #9a8585;
      }

      .cls-1, .cls-2, .cls-3, .cls-4, .cls-5, .cls-6, .cls-7, .cls-8, .cls-9, .cls-10, .cls-11, .cls-12 {
        stroke-width: 0px;
      }

      .cls-2 {
        fill: #beb1b1;
      }

      .cls-3 {
        fill: #a18d8d;
      }

      .cls-4 {
        fill: none;
      }

      .cls-5 {
        fill: #fef7e3;
      }

      .cls-6 {
        fill: #f9c89e;
      }

      .cls-7 {
        fill: #593737;
      }

      .cls-8 {
        fill: #d48a5f;
      }

      .cls-9 {
        fill: #f3ded2;
      }

      .cls-10 {
        fill: #f5994a;
      }

      .cls-11 {
        fill: #e34b4b;
      }

      .cls-12 {
        fill: #f3b200;
      }
    </style>
  </defs>
  <g id="colorful_icons" data-name="colorful icons">
    <g>
      <g>
        <g>
          <path class="cls-8" d="m104.2,83.08c-.21-1.31-.59-2.61-1.16-3.89-1.49-3.36-4.1-6.1-7.57-7.41-1.65-.62-3.42-.91-5.18-.96-12.42-.33-20.83,12.08-13.5,24.17,7.33,12.08,21.17,6,25.08-.58,2.08-3.5,2.95-7.46,2.32-11.33Z"/>
          <path class="cls-9" d="m95.13,85.08c-.08-.52-.23-1.03-.46-1.53-.58-1.32-1.62-2.4-2.98-2.92-.65-.25-1.35-.36-2.04-.38-4.89-.13-8.21,4.76-5.32,9.52s8.34,2.36,9.88-.23c.82-1.38,1.16-2.94.91-4.46Z"/>
        </g>
        <path class="cls-12" d="m38.38,153.25h121.5s-1.83,10.67-8.33,13.17-52,3.67-69.5,3.83-32.67-2.5-36.5-5.5-7.17-11.5-7.17-11.5Z"/>
        <g>
          <path class="cls-7" d="m160.64,96.75c.25-.08,9.08-5.08,15.92-3.5s9.89,7.61,6.25,14-9,8.08-13.08,9.67-9.08,3.5-9.08,3.5l.08-10.92s9.08-2.25,13.83-5.75c4.15-3.06,1.75-5.42-1.58-5.25s-12.33,4.08-12.33,4.08v-5.83Z"/>
          <path class="cls-7" d="m38.35,96.75c-.25-.08-9.08-5.08-15.92-3.5s-9.89,7.61-6.25,14,9,8.08,13.08,9.67,9.08,3.5,9.08,3.5l-.08-10.92s-9.08-2.25-13.83-5.75c-4.15-3.06-1.75-5.42,1.58-5.25s12.33,4.08,12.33,4.08v-5.83Z"/>
          <path class="cls-7" d="m162.62,118.95c-.1-4.62-.33-9.24-.48-13.86s-.62-16.06-.83-16.46c0-.01,0-.02-.02-.03-.01-.02-.03-.03-.04-.04-.13-.2-122.91-.89-123-.2-1.74,13.31-1.35,51.93-1.22,57.75.1,4.33.27,9.04,1.81,13.15,1.75,4.68,5.22,8.36,9.89,10.18,4.24,1.66,9.07,1.95,13.57,2.27,4.95.35,9.88.33,14.84.32,7.81-.03,38.15-.05,42.77-.02,9.18.07,18.63.33,27.66-1.64,4.42-.96,8.97-3.51,11.31-7.52,2.51-4.3,3.22-9.24,3.43-14.13.44-9.91.52-19.86.3-29.79Zm-4.52,32.88c-1.42,5.82-5.31,10.11-10.72,12.56-1.9.86-3.88,1.36-5.9,1.65-1.61.09-3.22.13-4.82.16-5.1.1-10.21.06-15.31.07-10.15.01-20.29,0-30.44.02-10.12.01-20.26.15-30.38-.18-1.3-.04-2.62-.11-3.94-.23-.24-.05-.48-.1-.71-.15-5.23-1.23-10.28-4.58-12.86-9.35-1.96-3.63-2.47-7.73-2.52-11.79-.05-4.09.03-8.19.03-12.28.01-6.38,0-12.76,0-19.14,0-3.88-.06-7.77-.1-11.65-.03-3.43.3-7.17.02-10.83,7.84.35,15.42.47,23.27.5,5.93.02,68.04.18,71.69.18h20.49c.77,0,1.82.04,2.73,0-.19,4.65.3,15.86.27,18.9-.08,9.07-.29,18.29.09,27.39.2,4.73.24,9.55-.92,14.18Z"/>
        </g>
        <g>
          <path class="cls-10" d="m71.88,59.36c-.04,1.7-.67,4.64-.67,4.64-1.56,1.98-16.36,10.98-18.2,11.07-.02.01-.03.01-.05.01-.3-.02-.59-.1-.87-.23-1.17-.58-2.21-2.14-3.96-4.02-2.17-2.33-3-6.58-1.75-8.33.01-.02.03-.04.05-.06.1-.14.27-.33.49-.56,2.82-2.93,14.07-12.45,16.13-12.22,2.22.25,7.94,7.74,8.64,8.56.01,0,.01.02.02.03.14.16.19.57.17,1.11Z"/>
          <path class="cls-7" d="m71.88,59.36c-.68.42-1.39.8-2.05,1.2-3.45,2.12-6.88,4.26-10.34,6.35-1.43.87-2.86,1.74-4.31,2.57-.66.38-1.47.97-2.24,1.13-.01,0-.01.01-.01.01.14,1.16.08,2.35.08,3.5v.95s-.03.01-.05.01c-.3-.02-.59-.1-.87-.23,0-.43.01-.86.01-1.28,0-1.02-.05-2.08.11-3.1-.22-.24-.4-.53-.59-.77-.31-.4-.61-.81-.92-1.22-.63-.85-1.26-1.7-1.87-2.56-.82-1.14-1.66-2.28-2.4-3.48.1-.14.27-.33.49-.56.87,1.14,1.67,2.33,2.51,3.5.62.86,1.24,1.71,1.87,2.57.31.41.62.82.93,1.23.13.16.28.33.42.51.83-.51,1.69-.99,2.53-1.48,3.33-1.96,6.62-3.99,9.93-5.99,1.62-.99,3.25-1.97,4.87-2.95.56-.34,1.13-.71,1.71-1.05.01,0,.01.02.02.03.14.16.19.57.17,1.11Z"/>
        </g>
        <g>
          <path class="cls-10" d="m143.22,114.23c.15-1.69-.14-4.69-.14-4.69-1.33-2.14-15.02-12.76-16.83-13.06-.02-.01-.03-.01-.05-.02-.3-.01-.6.03-.89.13-1.23.44-2.44,1.88-4.39,3.55-2.42,2.07-3.72,6.2-2.68,8.08,0,.02.03.04.04.07.08.15.23.36.42.61,2.47,3.23,12.57,13.96,14.65,13.96,2.23,0,8.76-6.79,9.55-7.53.01,0,.01-.02.02-.03.16-.14.25-.54.29-1.08Z"/>
          <path class="cls-7" d="m143.22,114.23c-.63-.49-1.29-.95-1.9-1.42-3.19-2.5-6.35-5.01-9.56-7.48-1.32-1.03-2.64-2.05-3.99-3.04-.61-.45-1.35-1.13-2.1-1.38,0,0,0-.01,0-.01.27-1.14.34-2.33.47-3.47l.11-.94s-.03-.01-.05-.02c-.3-.01-.6.03-.89.13-.05.43-.09.86-.13,1.27-.12,1.01-.28,2.06-.24,3.09-.25.21-.46.48-.67.7-.35.36-.7.74-1.05,1.11-.72.77-1.44,1.55-2.15,2.33-.94,1.04-1.91,2.08-2.78,3.19.08.15.23.36.42.61.99-1.03,1.92-2.13,2.89-3.19.71-.78,1.43-1.56,2.15-2.34.35-.37.71-.74,1.06-1.12.15-.14.32-.3.47-.46.77.6,1.57,1.17,2.35,1.76,3.09,2.32,6.13,4.71,9.19,7.07,1.5,1.17,3.01,2.32,4.51,3.48.52.4,1.04.83,1.58,1.24.01,0,.01-.02.02-.03.16-.14.25-.54.29-1.08Z"/>
        </g>
        <g>
          <path class="cls-11" d="m86.38,49c-5.08-.8-9.92,3.33-8.5,8.58s8.58,7.17,11.75,4.17,3.67-11.67-3.25-12.75Z"/>
          <path class="cls-7" d="m80.57,54.12c.19.15.39.29.61.4.25.13.5.19.78.21.45.04.93-.09,1.31-.34.41-.27.71-.66.88-1.12s.17-1.14-.18-1.54c-.12-.13-.33-.16-.48-.09-.17.07-.26.22-.27.41,0,.07,0,.14.01.21,0,.01.01.15,0,.05,0,.09.01.18,0,.27,0,.05,0,.09-.01.14,0,.01-.01.14,0,.07,0-.07-.01.07-.02.09,0,.04-.02.07-.03.11-.01.04-.03.09-.04.13.03-.1-.01.03-.02.05-.04.08-.09.15-.13.22.05-.07,0,0-.03.03s-.05.05-.07.08c-.03.03-.06.05-.09.08-.03.02-.02.02.02,0-.02.01-.03.02-.05.04-.06.04-.13.08-.2.12,0,0-.13.06-.04.02-.04.02-.08.03-.12.04-.08.03-.16.04-.24.06.07-.01,0,0-.03,0-.05,0-.1,0-.15,0-.18,0-.32-.03-.49-.07-.18-.04-.36-.09-.52-.16-.15-.07-.32-.06-.43.09-.09.12-.11.33.03.44h0Z"/>
        </g>
        <g>
          <path class="cls-11" d="m138.96,142.48c-.05-5.14-4.92-9.23-9.87-6.97s-5.65,9.65-2.17,12.28,12.11,1.69,12.04-5.31Z"/>
          <path class="cls-7" d="m132.94,137.59c-.12.21-.22.43-.29.66-.08.27-.1.53-.08.81.04.45.24.91.55,1.24.34.36.76.6,1.25.68s1.16-.02,1.49-.43c.11-.14.1-.35.01-.49-.1-.16-.26-.22-.45-.2-.07,0-.14.02-.21.05-.01,0-.15.04-.05.02-.09.02-.18.04-.27.05-.05,0-.09,0-.14,0-.01,0-.14.01-.07,0,.07,0-.07,0-.09,0-.04,0-.08,0-.11,0-.04,0-.09-.01-.13-.02.1.01-.03,0-.05-.01-.08-.03-.16-.06-.24-.1.08.04,0,0-.03-.02s-.06-.04-.09-.06c-.03-.02-.06-.05-.1-.08-.03-.02-.02-.02.01.01-.02-.01-.03-.03-.04-.04-.05-.05-.1-.11-.15-.17,0,0-.08-.12-.03-.04-.02-.04-.04-.07-.06-.11-.04-.07-.07-.15-.1-.23.02.07,0,0,0-.03-.01-.05-.02-.1-.03-.14-.03-.18-.02-.32-.01-.49,0-.18.03-.37.08-.54.04-.16,0-.33-.15-.41-.13-.07-.35-.05-.43.1h0Z"/>
        </g>
        <g>
          <path class="cls-1" d="m59.26,112.16s1.54,1.58,1.54,4.46-.83,8,1.04,10.21,8.83-.79,10.42-3.83-3.12-5.79-4.5-7.21-2.88-2.25-2.92-4.58-5.58.96-5.58.96Z"/>
          <path class="cls-7" d="m60.68,119.42c2.36-1.14,4.56-2.58,6.84-3.86-1.31-1.28-2.64-2.15-2.68-4.35-.04-2.33-5.58.96-5.58.96,0,0,1.54,1.58,1.54,4.46,0,.8-.06,1.77-.12,2.8Z"/>
          <path class="cls-2" d="m53.68,119.71c-.96.21-2.46-.25-3.12-4.04s.96-9.63,7.79-12.71,11.29.08,12.88,2.04,2.29,3.88,1.79,5.25-18.38,9.25-19.33,9.46Z"/>
        </g>
        <g>
          <g>
            <path class="cls-3" d="m106.08,54.08s-.08-1.19,10.25-3.86,22.39-6.72,25.89-6.31c2.42.29,7.17,1.67,6.25,8.58-.73,5.48-9.92,17.17-12.92,21.42s-5.33,7.17-6.83,7.75-8-19-12-22.67-10.64-4.92-10.64-4.92Z"/>
            <path class="cls-6" d="m109.8,52.66c-6.83.42-8.08,6-5.75,12.25s8,14.33,15.75,17.42,11.5-1.67,12.08-5.75-3.17-10.67-5.42-13.75-9.83-10.58-16.67-10.17Z"/>
            <path class="cls-5" d="m119.87,72.53c.73-.25,1.25-.91,1.32-1.68.12-1.03-.56-1.97-1.09-2.8-.15-.27-.31-.5-.48-.71-.58-.82-1.24-1.58-1.96-2.27-.97-.99-2.13-1.77-3.42-2.3-1.41-.53-3.44-.55-3.63,1.39-.16,1.7,1.75,3.4,2.77,4.55,1.4,1.58,4.06,4.61,6.49,3.81Z"/>
          </g>
          <path class="cls-7" d="m106.51,53.41c8.65-1.17,15.21,4.5,19.94,10,2.28,2.65,4.3,5.56,4.85,9.07.25,1.6.3,3.47-.12,5.04-.62,2.29-1.5,3.58-2.08,4.23-.19.22,1.71-.38,2.92-2.98.77-1.67,1.01-4.09.77-5.91-.49-3.71-2.41-6.99-4.79-9.82-2.56-3.04-5.57-5.71-8.9-7.88s-6.67-2.94-10.81-2.34c-1,.15-1.77.58-1.77.58Z"/>
        </g>
        <g>
          <path class="cls-3" d="m110.8,117s-5.83-3-12.67-3.75-11.83,6.25-14.92,14.25-3.83,14.25-3.17,18.5,16.67,10.75,19.33,10.75,11.42-39.75,11.42-39.75Z"/>
          <path class="cls-6" d="m115.38,122.41c-1.7-6.32-7.33-6.67-11.58-4.42s-10.92,13.83-10.92,24,3.42,15.3,8.33,15.17c6.25-.17,18.08-20.17,14.17-34.75Z"/>
          <path class="cls-5" d="m108.22,140.08s2.67-4.58,1.58-8.83c-.77-3.03-3.61-2.52-5.37-.65-1.63,1.74-2.4,4.17-2.74,6.48-.28,1.92-.75,5.09,1.53,6,2.5,1,4.25-1.92,5-3Z"/>
          <path class="cls-7" d="m110.11,116.26c-.81-.33-1.46-.64-2.34-.58s-1.76.26-2.59.59c-1.38.55-2.65,1.42-3.74,2.43-2.66,2.47-4.72,5.86-6.25,9.13-3.07,6.58-4,14.17-2.17,21.24.5,1.93,1.17,3.89,2.34,5.52,1.02,1.42,2.53,2.99,4.42,2.87.43-.03.61-.49.34-.82-.66-.79-1.51-1.32-2.24-2.03s-1.29-1.47-1.78-2.32c-1.07-1.86-1.6-3.97-1.95-6.07-.67-4.05-.42-8.24.58-12.22,1.86-7.45,6.33-17.37,15.33-17.26.3,0,.3-.38.06-.48h0Z"/>
        </g>
      </g>
      <rect class="cls-4" width="200" height="200"/>
    </g>
  </g>
</svg>