<svg xmlns="http://www.w3.org/2000/svg" id="Layer_1" version="1.1" viewBox="519.35 471.76 236.92 136.08">
    <path class="fill-white" d="M609.71 561.41c-10.11.24-12.23 11.94-20.83 11.97-1.06 0-2.61-2.06-3.61-2.44-1.21-.47-3.04 2.82-4.27 3.46-8.31 4.33-21.78 5.74-40.73 15.09-2.94 1.45-5.98 2.04-9.48 1.97l1.86-5.94c-1.25.98-2.8 2.53-3.44 3.65l-1.02 1.77c-.2.34-1.6.25-1.77-.11-.26-.54-.39-1.9-.09-2.41l1.33-2.32c.32-.55-1.05-1.32-1.64-1.85 16.56-2.1 26.27-9.31 39.55-18.19-.69 4.16 1.66 9.29 5.62 9.43 1.54.06 4.35-1.7 5.82-2.23 13.71-4.97 7.17-7.84 20.08-16.11-6.72-3.89-10.15 7.56-15.2 9.44 1.59-3.37 9.3-11.86 7.33-15.71-1.5-2.93-6.28 9.17-12.79 10.83l-7.89-1.91c3.01-3.06 6.18-5.3 4.06-8.5-1.34-2.03-6.2-2.87-8.43-3.03l3.81-7.02-3.96 1.62c-4.52-18.22 7.59-13.53.36-16.36l2.32-5.23c-11.21 6.35-3 20.6-8.91 24.42.77-10.12-4.34-18.74.69-22.04 3.02-1.99 6.07-5.81 8.84-6.58l7.46-2.07c7.65-2.13 15.6-2.07 22.39 1.31.08.65-.02 1.86.34 1.92l2.46.4c7.46 1.21 16.21 12.82 16.42 14.96.55 5.71-6.69 9.07-9.43 18.06-12.29-4.56-1.22-23.89-12.1-27.05 5.19 11.62-2.07 26.04 10.24 30.28 3.07 1.06 5.71-.34 6.58-3.25 2.17-7.28 11.87-13.54 7.97-21.32-1.14-2.28-4.3-4.84-5.91-6.94-3.42-4.45-7.48-7.71-12.8-8.65l8.61-3.13c6.84-2.49 12.68-5.8 17.79-11.32 15.99-17.28 26.37-27.72 52.4-23.13 9.97 1.76 18.93 4.32 27.06 11.26 12.47 10.66 28 14.3 44.59 9.68-2.81 5.63-7.9 7.5-13.59 9.77l5.41 1.95c-5.31 1.41-9.6 1.36-15.89 1.47l4.82 3.82c-6.31 1-9.9-2.44-15.85-6.14l1.5 6.51c-4.94-2.48-7.45-6.11-11.04-11.12l-.36 5.5c-8.07-8.32-7.32-22.76-17.21-24.24 4.16 5.69 7.07 11.19 6.86 17.35-.15 4.39 1.57 13.04.2 13.27l-1.99.34c1.07 13.38-6.66 13.76.37 26.95.83 1.56 1.69 5.54 1.43 7.28l-2.8 18.4c-.4 2.62-2.56 5.11-5 5.9l.39-5.2-4.76 5.35.45-5.86-4.12 4.01c5.09-7.75 9.74-14.87 5.67-23.54-2.81-5.99-14.78-4.92-17.71-18.12-1.15-5.16-7.95-1.31.74-25.08-6.68 5.92-8.43 15.72-6.41 24.04l-11.36 17.52c-2.86 4.41-7.08 7.46-11.52 10.02l1.98 2.16-8.11 5.85c-2.2 1.59-4.11 3.17-7.14 3.86l2.55-13.74c-5.78 6.13-6.85 14.13-6.99 22.28-1.18.13-2.65-.15-2.72.48l-.41 3.95-10.86 3.98c-3.58 1.31-7.03 2.93-10.93 3.89-10.32 2.54-21.13 6.75-29.78 11.71-.9.51-4.25.82-4.17-.03l.43-4.26-4.72 5.21c-.78-.77-1.59-1.93-1.37-2.57l1.32-3.75-4.22 3.09c-.03-1.77 2.09-4.59 4.55-5.25 6.99-1.87 12.38-4.88 18.42-8.71 6.91-4.39 16.04-6.19 21.32-12.71 1.97-2.44-1.82-1.88 10.94-12.27m24.1-28.62c.83-4.59-.5-7.73-2.37-10.97l1.07-2.51c-2.75-5.16-8.46-8.27-14.62-6.85 5.5 1.17 10.83 2.91 13.39 8.37l-3.13-.6 5.65 12.57Zm-43.36 4.37c-2.55-2.56-4.22-3.52-6.66-3.5-1.07.01-2.74 2.88-2.11 3.7.51.65 2.33 1.59 3.11 1.37z"/>
    <path class="fill-white" d="M653.97 565.93c-.22-.13-.34-1.56-.39-1.82-.07-.35-.23-.54-.6-.4l-2.57.97c4.52-5.6 12.79-4.82 8.76-20.88l5.16-7.92c1.8 3.47 3.87 7.66 4.99 10.91l-6.98 15.75c-1.37 3.09-6.29 4.63-8.38 3.39Zm-77.32-.55c.84 1.49-2.33 6.6-5.69 6.57-2.76-.03-2.57-6.64-.74-6.93 1.62.38 2.38.49 6.43.36"/>
    <path d="M641.95 566.33c-4.97 4.14-9.53 6.31-15.46 8.31l-1.04 8.02c-.96 1.08-3.84 4-5.33 4.55-7.82 2.92-17.1 6.11-25.14 8.55-8.4 2.55-15.48 4.99-23.12 9.28-5.74 3.22-15.15 4.47-20.15-.69-4.5-4.64.79-12.07 6.03-13.51 4.21-1.15 8.14-2.4 11.54-4.45l10.83-6.52-13.34 3.75c-8.65 2.43-16.5 5.78-24.72 9.5-6.79 3.07-15.43 4.24-21.41-.91-2.07-1.78-1.33-6.26 0-8.11 4.99-6.97 9.06-2.24 21.46-8.77 7.07-3.73 13.51-7.55 19.97-12.44-4.45-3.23-3.64-8.05-4.87-12.29-8.49-4.73-.86-6.48-4.58-18.16-1.34-4.21-.72-8.94 3.09-11.9l9.85-7.65c1.09-.84 4.77-.92 6.06-1.39 7.41-2.73 15.88-2.96 23.48-.65 4.87 1.48 8.59-1.66 12.43-3.19 6.23-2.49 11.62-4.8 16.25-9.96 17.2-19.13 29.21-29.74 56.92-24.69 10.54 1.92 20.06 4.32 28.53 11.8 11.31 9.99 26.3 13.52 41 9.28 1.54-.44 4.17-.49 6.01-.31.48 8.64-5.49 7.89-6.54 15.19-1.56 3.25-7.31 4.22-10.09 6.57-4 3.38-9.37 3.93-14.13 3.21-1.84.74-4.69 1.74-6.93.9l-10.13-3.79c-2.54-.95-5.71-4.54-7.77-6.54-.01 5.19.2 10.06-1.92 14.58-7.21 15.42 3.66 16.98 1.45 29.14l-3.22 17.71c-1.21 6.67-6.5 9.36-13.17 8.45-2.28-.31-5.47-1.23-6.77-2.81s-.87-6.15.62-7.7c4.85-5.05 7.1-11.16 4.38-17.89l-8.23-3.46c-3.2 7.14-6.06 14.57-10.9 20.68-3.08 3.89-11.02 3.07-15.21 1.27-1.61-.69-2.15-4.79-1.64-6.37 2.22-6.9 11.15-3.23 10.12-14.47l-9.41 11.29c-1.39 1.67-2.66 4.77-4.81 6.56Zm-32.24-4.92c-12.77 10.39-8.97 9.83-10.94 12.27-5.28 6.52-14.41 8.32-21.32 12.71-6.04 3.84-11.43 6.84-18.42 8.71-2.46.66-4.57 3.48-4.55 5.25l4.22-3.09-1.32 3.75c-.23.64.59 1.8 1.37 2.57l4.72-5.21-.43 4.26c-.09.84 3.27.54 4.17.03 8.64-4.96 19.46-9.17 29.78-11.71 3.9-.96 7.35-2.58 10.93-3.89l10.86-3.98.41-3.95c.06-.63 1.54-.35 2.72-.48.14-8.15 1.2-16.15 6.99-22.28l-2.55 13.74c3.03-.69 4.94-2.27 7.14-3.86l8.11-5.85-1.98-2.16c4.44-2.56 8.66-5.62 11.52-10.02l11.36-17.52c-2.02-8.33-.27-18.12 6.41-24.04-8.69 23.78-1.88 19.92-.74 25.08 2.93 13.2 14.9 12.12 17.71 18.12 4.07 8.67-.57 15.79-5.67 23.54l4.12-4.01-.45 5.86 4.76-5.35-.39 5.2c2.43-.79 4.6-3.29 5-5.9l2.8-18.4c.26-1.74-.6-5.72-1.43-7.28-7.03-13.19.7-13.58-.37-26.95l1.99-.34c1.37-.23-.35-8.88-.2-13.27.21-6.17-2.7-11.66-6.86-17.35 9.89 1.48 9.14 15.92 17.21 24.24l.36-5.5c3.59 5.01 6.1 8.64 11.04 11.12l-1.5-6.51c5.95 3.7 9.54 7.14 15.85 6.14l-4.82-3.82c6.3-.11 10.59-.07 15.89-1.47l-5.41-1.95c5.69-2.27 10.78-4.14 13.59-9.77-16.6 4.62-32.13.97-44.59-9.68-8.13-6.95-17.09-9.51-27.06-11.26-26.03-4.59-36.41 5.86-52.4 23.13-5.11 5.53-10.95 8.84-17.79 11.32l-8.61 3.13c5.32.94 9.38 4.2 12.8 8.65 1.61 2.1 4.77 4.66 5.91 6.94 3.9 7.79-5.79 14.05-7.97 21.32-.87 2.91-3.51 4.31-6.58 3.25-12.31-4.24-5.05-18.66-10.24-30.28 10.88 3.16-.19 22.49 12.1 27.05 2.74-8.99 9.98-12.35 9.43-18.06-.21-2.14-8.96-13.75-16.42-14.96l-2.46-.4c-.36-.06-.26-1.27-.34-1.92-6.79-3.37-14.74-3.43-22.39-1.31l-7.46 2.07c-2.76.77-5.81 4.59-8.84 6.58-5.03 3.3.08 11.92-.69 22.04 5.92-3.82-2.3-18.07 8.91-24.42l-2.32 5.23c7.23 2.83-4.88-1.86-.36 16.36l3.96-1.62-3.81 7.02c2.23.17 7.09 1.01 8.43 3.03 2.12 3.2-1.05 5.44-4.06 8.5l7.89 1.91c6.52-1.66 11.3-13.75 12.79-10.83 1.97 3.85-5.75 12.34-7.33 15.71 5.05-1.88 8.48-13.33 15.2-9.44-12.91 8.27-6.37 11.14-20.08 16.11-1.47.53-4.28 2.29-5.82 2.23-3.96-.14-6.31-5.27-5.62-9.43-13.28 8.88-22.99 16.09-39.55 18.19.58.53 1.95 1.3 1.64 1.85l-1.33 2.32c-.29.51-.16 1.87.09 2.41.17.36 1.57.46 1.77.11l1.02-1.77c.65-1.12 2.19-2.67 3.44-3.65l-1.86 5.94c3.5.07 6.54-.52 9.48-1.97 18.95-9.35 32.42-10.75 40.73-15.09 1.23-.64 3.06-3.93 4.27-3.46.99.39 2.54 2.45 3.61 2.44 8.6-.03 10.72-11.73 20.83-11.97m44.26 4.52c2.09 1.25 7.01-.3 8.38-3.39l6.98-15.75c-1.12-3.25-3.18-7.44-4.99-10.91l-5.16 7.92c4.03 16.06-4.24 15.28-8.76 20.88l2.57-.97c.38-.14.54.05.6.4.05.26.17 1.69.39 1.82Zm-77.32-.55c-4.05.13-4.81.02-6.43-.36-1.83.29-2.02 6.9.74 6.93 3.36.03 6.53-5.08 5.69-6.57"/>
    <path d="m590.45 537.16-5.66 1.57c-.78.22-2.6-.72-3.11-1.37-.63-.81 1.04-3.69 2.11-3.7 2.44-.03 4.11.93 6.66 3.5m43.36-4.37-5.65-12.57 3.13.6c-2.57-5.46-7.89-7.2-13.39-8.37 6.16-1.42 11.87 1.68 14.62 6.85l-1.07 2.51c1.87 3.24 3.2 6.38 2.37 10.97Z"/>
</svg>