<svg xmlns="http://www.w3.org/2000/svg" id="Layer_1" version="1.1" viewBox="282.06 443.84 225.8 162.49">
    <defs>
        <style>
            .st0{fill:#fff}
        </style>
    </defs>
    <path d="M375.7 597.2c-3.66 6.19-33.39 3.51-45.95 5.51l-20.7 3.31c-13.42 2.14-15.46-7.41-15.33-7.39l-4.87-.62c-2.15-.27-5.44-1.53-6.27-3.07-1.24-2.31-.09-5.71 1.47-7.72 3.4-4.37 8.04-3.53 12.96-4.4 10.01-1.78 19.65-5.04 29.7-7.98-3.63-5.96-5.3-11.78-5.06-18.86l-2.3-.48c-.75-.16-1.59-2.75-1.49-3.62l1.63-13.86c.16-1.35-.98-4.55-2.01-5.28s-3.39-.86-5.23-1.02c-4.73-.43-8.68-1.71-13.16-3.04-1.49-.44-5.18-.13-6.07-1.39-.93-1.34-.91-4.85 0-6.44 2.18-3.82 6.26-4.29 11.04-5.45-11.11-4.1-11.3-18.52-7.43-22.38s13.9 2.52 19.01.62c3.04-1.13 6.06-4.29 8.98-4.84 13.78-2.58 27.26 6.75 33.41 19.63 1.93 4.04 7.34 9.31 12.07 10.15 16.04 2.86 24.96-2.57 37.85-12.27 13.08-9.84 26.55-11.97 42.06-11.46 9.12.3 16.06-12.18 16.55-19.44 1.19-17.57-13.75-22.25-16.04-25.88-2.17-3.43 11.81-4.13 14.89-2.95l.52-2.74c7.62.04 13.3 4.65 16.45 10.81l2.16-.97c.53-.24 1.75 1 2.16 1.52 4.81 6.17 4.91 14.12 4.01 21.16 6.33 3.05-4.41 19.7-8.76 21.89l1.35 2.29c1.59 2.7-10.96 7.36-15.78 7.52 7.9 8.83 9.81 20.35 7.19 30.83-.91 3.62 1.15 9.88-1.96 12.02-4.79 3.3-3.82 9.4.29 13.23 2.88 2.68 4.29 6.34 3.43 10.25l-4.17 18.98c-1.44 6.56-6.79 9.24-13.45 8.54-2.48-.26-6.2-1.25-7.2-2.99-1.37-2.38-.29-6.84 1.74-8.52 3.37-2.79 5.11-5.11 5.7-9.38.7-5.1-2.9-9.87-7.62-9.61-4.01 6.68-6.36 14.78-11.74 20.41-3.72 3.89-11.93 3.11-16.21.57-1.67-.99-1.38-5.34-.44-6.8 1.12-1.72 3.07-3.26 5.71-4.19 3.72-1.31 7.18-8.72 3.54-11.46l-8.43-6.34-8.3 8.1-8.02 6.85c-1.94 1.66-2.33 5.35-7.03 5.43-11.38.19-.79 7.48-25.35 6.26.17 1.2 1.05 5.57.48 6.97Zm-68.43 4.93c8.29-1.32 14.61-3.25 21.97-3.62l36.39-1.82c.57-.64 1.52-2.45 2.07-2.23l3.15 1.24c.45-7.87-.59-16.54 5.94-22.74l-1.82 13.01 12.98-.19-1.01-3.57 13.36-1.97-2.18-2.31 6.76-3.06c.47-.21 1.94-1.12 1.61-.94-.36.19-1.14-1.97-.6-2.12 13.02-3.67 16.97-16.74 26.6-27.31 5.5 7.98 1.26 7 7.96 13.13 1.58 1.44 3.69 5.17 5.45 6.09 5 2.6 10.85 3.61 14.52 7.89 4.89 5.72 3.34 15.78-2.62 20.36l.36 6.5 4.5-4.94.22 4.54c2.99-1.14 4.83-3.03 5.4-5.78l3.56-17.26c.35-1.72.55-6.13-.92-7.13-6.74-4.58-7.09-15.99-3.25-21.46.57-.81 0-4.07.72-4.02l3.13.19-2.12-9.96c-.12-.57.12-2.09.67-2.22l2.35-.56-5.16-9.31 2.93-1.6c-3.39-5.52-6.98-10.05-11.2-14.78 6.02.48 11.68-.37 16.91-2.56l-4.35-2.89c8.15-2.74 14.36-8.17 16.21-16.08l-5.69 2.39c4.56-7.83 7.15-15.57 3.54-24.23l-3.2 8.68c-1.38-8.48-2.51-15.22-9.83-19.81l1.02 6.16c-4.98-4.31-9.85-7.23-16.04-5.89 9.62 6.31 14.79 17.01 12.66 28.89-1.44 8-10.04 20.73-19.85 20.46-38.14-1.07-33.75 12.52-61.91 23.04-4.11 1.54-8.48 1-12.56 1.15-5.67.21-10.62-.33-15.04-5.74-1.26 3.91-3.44 6.66-6.78 8.35l-10.53 5.32c-2.75 1.39-7.47.87-9.04-2.01-4.99-9.12 3.65-17.46 5-28.85 6.52 8.54-8.34 19.95-.33 28.38 5.21-2.5 10.81-5.16 15.66-8.12 3.95-2.41-.16-7.69-.81-10.42-1.16-4.84-2.89-6.89-6.73-10-24.53-19.87-24.76 3.9-40.46-3.25-2.34 2.08-5.19 4.1-8.33 5.95 8.1 16.11 25.33 7.79 24.86 15.27s-15.14 6.44-19.68 7.64c8.74 3.86 23.19-1.77 24.9 15.67l-5.19-8.13-.85 16.12 2.57-1.09c1.34-.57-.59 15.91 3.27 20.53l1.53-5.38c3.21 6.82 6.11 15.95 14.2 18.75l1-9.28c3.88 2.34-.11 7.93 6.79 8.8-7.88 4.03-16.48 5.67-25.25 7.76-8.03 1.92-15.21 3.94-23.56 4.49-2.27.15-4.94 3.05-4.27 4.59l3.72-2.66c-.71 2.88-1.05 4.03-.06 5.95l4.92-5.56-.13 5.55Zm10.75-83.54-15.46.87c-3.16.18-6.63 2.33-6.54 5.62 13.49-7.48 10.37-1.33 22-6.49m108.21 70.74c4.29.71 7.86.81 10.91-.1 3.93-6.69 7-12.98 10.1-19.82-7.71-4.06-12.65-8.31-15.38-16.87-2.13 2.29-3.83 4.51-5.36 7.13l9.33 7.87c4.68 3.94.96 14.46-3.89 16.95-2.92 1.5-4.11 1.86-5.71 4.84m-134.35 5.11 8.82-3.56c4.08-1.65 9.45-1.19 13.8-2.3l22.35-5.71-5.23-5.7c-10.69 3.78-21.41 7.73-32.8 9.36l-8.99 1.28c-2.04.29-3.47 4.34-2.16 5.22l4.69-4.06c-.59 2.28-1.14 3.84-.48 5.47m205.54-98.72c5.22-7.02 8.38-14.27 9.36-24.37 2.97 8.35-.22 19.63-9.36 24.37m-.08-7.82c2.1-8.39 2.78-16.43.86-26.08 5.27 7.34 5.02 18.08-.86 26.08"/>
    <path d="M455.82 472.04c-4.79-5-9.81-7.45-16.91-9.6 7.2-2.48 15.12 2.41 16.91 9.6m1.63-7.06c-5.38-4.54-9.74-7.4-15.95-9.54 7.25-2.09 13.96 3.32 15.95 9.54"/>
    <path class="st0" d="m307.27 602.13.13-5.55-4.92 5.56c-.99-1.93-.65-3.07.06-5.95l-3.72 2.66c-.67-1.54 2-4.44 4.27-4.59 8.35-.56 15.53-2.57 23.56-4.49 8.77-2.09 17.37-3.73 25.25-7.76-6.89-.88-2.9-6.46-6.79-8.8l-1 9.28c-8.09-2.8-10.99-11.93-14.2-18.75l-1.53 5.38c-3.86-4.62-1.93-21.1-3.27-20.53l-2.57 1.09.85-16.12 5.19 8.13c-1.71-17.45-16.16-11.81-24.9-15.67 4.54-1.2 19.2-.03 19.68-7.64s-16.75.84-24.86-15.27c3.14-1.85 5.99-3.86 8.33-5.95 15.7 7.15 15.93-16.63 40.46 3.25 3.84 3.11 5.57 5.16 6.73 10 .66 2.73 4.76 8.01.81 10.42-4.85 2.96-10.45 5.62-15.66 8.12-8.01-8.43 6.85-19.84.33-28.38-1.35 11.39-9.99 19.72-5 28.85 1.57 2.88 6.29 3.4 9.04 2.01l10.53-5.32c3.34-1.69 5.52-4.43 6.78-8.35 4.42 5.41 9.37 5.95 15.04 5.74 4.08-.15 8.45.39 12.56-1.15 28.16-10.52 23.77-24.11 61.91-23.04 9.81.28 18.41-12.46 19.85-20.46 2.13-11.88-3.04-22.58-12.66-28.89 6.19-1.34 11.06 1.57 16.04 5.89l-1.02-6.16c7.32 4.59 8.45 11.33 9.83 19.81l3.2-8.68c3.61 8.66 1.02 16.39-3.54 24.23l5.69-2.39c-1.85 7.91-8.06 13.34-16.21 16.08l4.35 2.89c-5.24 2.2-10.9 3.05-16.91 2.56 4.21 4.74 7.8 9.27 11.2 14.78l-2.93 1.6 5.16 9.31-2.35.56c-.56.13-.8 1.65-.67 2.22l2.12 9.96-3.13-.19c-.73-.04-.15 3.21-.72 4.02-3.84 5.47-3.48 16.88 3.25 21.46 1.47 1 1.28 5.41.92 7.13l-3.56 17.26c-.57 2.75-2.41 4.63-5.4 5.78l-.22-4.54-4.5 4.94-.36-6.5c5.96-4.58 7.51-14.64 2.62-20.36-3.66-4.28-9.52-5.29-14.52-7.89-1.76-.92-3.88-4.65-5.45-6.09-6.7-6.13-2.46-5.14-7.96-13.13-9.63 10.57-13.57 23.64-26.6 27.31-.54.15.24 2.31.6 2.12.33-.17-1.15.73-1.61.94l-6.76 3.06 2.18 2.31-13.36 1.97 1.01 3.57-12.98.19 1.82-13.01c-6.53 6.2-5.49 14.87-5.94 22.74l-3.15-1.24c-.55-.22-1.5 1.59-2.07 2.23l-36.39 1.82c-7.37.37-13.69 2.3-21.97 3.62Zm129.23-77.52c-5.03 3.72-5.66 10.29-5.25 15.39 1.88-.61 3.05-10.92 5.25-15.39m-70.22 19.78c5.55-3.97 8.79-14 3.92-17.16-.94 4.14 1.65 9.34-2.47 9.62-.79 1.6-1.19 3.85-1.45 7.53Zm-29.18 9.28c2.15-4.11 3.38-7.3 6.03-8.41 4.34-1.82 5.9-7.21 3.96-11.61l-2.99 8.42c-.8-.28-2.16-1.63-2.41-1.15l-1.36 2.65c-1.9 3.7-3.75 6.97-3.24 10.1Zm47.4-18.49.91 16.94c2.77-3.69 2.16-16.42-.91-16.94m-42.77 35.04c2.68-3.73 3.83-7.24 6.06-9.15l9.42-8.11c-4.93-2.26-4.86 5-9.18 2.65l-6.38 9.27z"/>
    <path class="st0" d="M426.23 589.33c1.6-2.99 2.79-3.35 5.71-4.84 4.85-2.49 8.57-13.01 3.89-16.95l-9.33-7.87c1.53-2.62 3.23-4.83 5.36-7.13 2.73 8.56 7.67 12.81 15.38 16.87-3.1 6.84-6.17 13.13-10.1 19.82-3.06.9-6.62.81-10.91.1m-134.35 5.11c-.66-1.62-.12-3.19.48-5.47l-4.69 4.06c-1.31-.87.12-4.92 2.16-5.22l8.99-1.28c11.39-1.63 22.12-5.58 32.8-9.36l5.23 5.7-22.35 5.71c-4.36 1.11-9.73.65-13.8 2.3zm26.14-75.85c-11.63 5.16-8.51-.99-22 6.49-.09-3.29 3.37-5.44 6.54-5.62z"/>
    <path d="m341.73 570.22-.08-5.34 6.38-9.27c4.32 2.35 4.25-4.9 9.18-2.65l-9.42 8.11c-2.23 1.92-3.38 5.43-6.06 9.15m-4.63-16.55c-.51-3.13 1.34-6.39 3.24-10.1l1.36-2.65c.25-.49 1.6.87 2.41 1.15l2.99-8.42c1.95 4.4.38 9.79-3.96 11.61-2.65 1.11-3.89 4.3-6.03 8.41Zm29.18-9.28c.26-3.68.66-5.93 1.45-7.53 4.12-.28 1.54-5.48 2.47-9.62 4.86 3.16 1.63 13.19-3.92 17.16Zm18.22-9.21c3.07.51 3.68 13.25.91 16.94zm52-10.57c-2.2 4.47-3.36 14.78-5.25 15.39-.41-5.11.22-11.68 5.25-15.39"/>
</svg>