<svg xmlns="http://www.w3.org/2000/svg" id="Layer_1" version="1.1" viewBox="610.74 599.84 122.98 133.11">
    <defs>
        <style>
            .st0{fill:#fff}
        </style>
    </defs>
    <path d="m652.92 649.13-6.75-.5c.49-2.7 2.07-6.73 4.97-8.72 1.28-.88 4.45.12 5.67 1.01s2.87 4.36 2.1 5.93-4.44 2.4-5.99 2.29Zm41.69-19.87c-5.51 3.39-3.07 8.14-11.93 6.15-.98-2.57-1.31-7.14.95-8.39 3.83-2.12 8.81.28 10.98 2.24"/>
    <path class="st0" d="M668.15 660.56c-2.11 13.99 20.88 7.79 13.54 16.95l-5.97 7.45c-.86 1.08-2.92 2.54-4.16 2.63s-4.38-1.3-4.97-2.56l-5.18-10.95-.7 3.61c-15.3-8.26-23.17-24.77-24.41-42.29-4.12 6.76-2.25 14.09.76 20.57 4.19 9.03 12.22 24.81 2.22 33.67-1.55-7.39-1.63-13.46-4.97-19.76l.81 10.94-10.36-5.7c-4.11-2.26-6.08-7.31-6.34-11.61l-2.06-.09c-.42-.02-.42-1.87-.17-2.38l6.76-13.74 5.21-11.4-3.33-.5c3.72-6.05 10.14-5.63 13.26-11.03 4.87-8.42 12.42-10.61 20.46-14.03 9.15-3.89 17.23-7.41 27.91-4.54l10.68-1.97c.34 1.42.16 1.99.63 2.3s2.55.82 3.39 1.23L722.88 618c.67.33 1.97.87 1.73 1.22l-1.36 1.96c3.42 3.47 5.33 9.08 3 14.05l-5.37 11.46-4.83-8.9c.48 6.79 3.41 11.79 5.65 18.36-19.25-2.93-9.39-37.96-28.88-43.68 4.02 6.02 7.98 11.08 9.27 17.45l3.16 15.62c.88 4.36-.92 10.41-1.32 15.52-1.8-2.42-2.81-4.05-5.55-6.47l4.39 10.71c1.02 2.49 1.25 8.3-1.18 9.98-4.12 2.84-15.59-.58-16.29-2-.64-1.29.58-3.99 1.74-5.19 3.81-3.95 5.28-11.15.67-14.73-5.73-4.45-18.72 1.66-19.55 7.19Zm26.46-31.3c-2.17-1.96-7.15-4.36-10.98-2.24-2.25 1.25-1.93 5.82-.95 8.39 8.86 2 6.42-2.75 11.93-6.15m-41.69 19.87c1.55.12 5.26-.8 5.99-2.29.77-1.57-.86-5.02-2.1-5.93s-4.39-1.89-5.67-1.01c-2.9 1.99-4.49 6.02-4.97 8.72l6.75.5Z"/>
    <path class="st0" d="M695.73 680.3c-4.17 3.93-9.63 6.79-16.08 5.79 3.13-5.6 9.19-8.32 16.08-5.79"/>
    <path d="M701.51 681.16c-7.12 6.46-14.18 9.67-23.74 9.62-2.69-.01-6.35 2.34-9.48.76-2.6-1.31-4.56-4.32-7.01-7.04-3.76-4.16-8.78-7.61-13.2-11.5 1.76 14.57-1.98 20.34 2.04 32.97l2.83-8.38 6.48 18.56c-2.95-1.51-4.57-4.61-5.89-8.07l-1.41 1.77c-.47.59-3.07-.21-3.36-.92l-4.1-9.95c-4.67 5.3-7.02 21.43-9.22 23.28-2.72 2.28.01-7.55-1.92-10.03l7.79-17.79c-11.82-1.02-1.75-7.32-13.31-12.3-4.86-2.1-8.34-5.54-12.2-9.13-2.56-2.39-6.31-3.59-4.66-9.31 3.74-12.95 8.9-15.2 7.79-22.34-1.47-9.45 8.45-12.42 12.64-17.5 7.56-9.17 14.65-14.09 25.42-18.29 10.16-3.96 18.54-6.3 30.3-4.99 5.65.63 15.1-3.28 19.93 2.35.53 1.29 1.58 3.68 3.17 4.38l16.82 7.37c5.13 2.25 4.65 6.51 4.49 10.66-.25 6.69-.89 12.67-4.62 18.69-6.94 11.17 7.14 15.32-8.2 17.66l6.45 15.76c.21.5.07 3.67-.42 3.75l-3.35.52c1.12 2.84 2.37 5.8 4.01 8.72 8.62 15.39 4.51 7.37 7 21.72.65 3.75 2.74 7.2-1.16 10.69-4.61-12.75-3.33-21.47-10.42-31.03-1.13 3.79-1.89 6.47-3.78 9.16-.02-9.52-.1-16.8-1.15-25.96l4.06.9-5.78-13.34c-1.68-3.87-2.63-7.1-5.44-10.55-1.45 6.87-1.84 13.1-1.36 19.73.35 4.75-2.93 6.6-6.04 9.42Zm-33.36-20.6c.83-5.53 13.81-11.64 19.55-7.19 4.61 3.57 3.14 10.77-.67 14.73-1.16 1.2-2.37 3.9-1.74 5.19.7 1.42 12.18 4.84 16.29 2 2.43-1.68 2.2-7.49 1.18-9.98l-4.39-10.71c2.75 2.42 3.75 4.06 5.55 6.47.4-5.12 2.2-11.16 1.32-15.52l-3.16-15.62c-1.29-6.37-5.24-11.43-9.27-17.45 19.49 5.72 9.63 40.75 28.88 43.68-2.24-6.57-5.18-11.57-5.65-18.36l4.83 8.9 5.37-11.46c2.33-4.97.43-10.57-3-14.05l1.36-1.96c.24-.34-1.07-.89-1.73-1.22l-21.72-10.64c-.84-.41-2.93-.91-3.39-1.23s-.28-.89-.63-2.3l-10.68 1.97c-10.68-2.86-18.75.66-27.91 4.54-8.04 3.41-15.58 5.6-20.46 14.03-3.12 5.4-9.54 4.99-13.26 11.03l3.33.5-5.21 11.4-6.76 13.74c-.25.51-.26 2.36.17 2.38l2.06.09c.26 4.3 2.23 9.35 6.34 11.61l10.36 5.7-.81-10.94c3.34 6.31 3.43 12.37 4.97 19.76 10-8.86 1.97-24.64-2.22-33.67-3.01-6.48-4.88-13.82-.76-20.57 1.24 17.52 9.11 34.03 24.41 42.29l.7-3.61 5.18 10.95c.59 1.26 3.73 2.64 4.97 2.56s3.3-1.55 4.16-2.63l5.97-7.45c7.34-9.16-15.65-2.96-13.54-16.95Zm27.58 19.74c-6.9-2.53-12.95.19-16.08 5.79 6.45 1 11.91-1.86 16.08-5.79"/>
    <path d="M676.72 732.95c-2.81-12.55-15.1-9.31-12.81-25.77 2.05 5.99 3.73 10.32 8.22 13.67 3.52 2.63 6.65 7.16 4.59 12.1m26.78-13.7c3.47-8.22 6.45-15.43 7.97-24.6 3.4 8.5-.22 18.5-7.97 24.6m-3.2-3.35c-.29 4.2-4.64 9.35-8.18 10.97 2.45-6.19 10.48-14.76 6.31-21.08-.16-.25-.19-.56.07-.78.35-.3 2.48 1.03 2.45 1.51zm-17.71-5.24c-3.94-3.87-5.08-12.79 1-17.1-2.19 5.51-2.39 9.62-1 17.1m14.25-6.93-5.47-4.55c-1.12-1.31-1.24-5.51-.69-7z"/>
</svg>