<svg xmlns="http://www.w3.org/2000/svg" viewBox="961.48 262.24 193.7 204.44">
    <path d="M1068.85 466.68c-23.18-28.53-62.15-24.14-81.13-56.82l-1.76 5.5c-9.65-7.64-15.96-18.4-17.55-30.64-2.91 1.1-5.75 1.32-6.93-.6 5.71-6.81 10.9-13.19 13.56-21.2l8.02-24.11-4.22 1.14c-9.18-11.32.81-25.47 8.15-34.9l-4.12-3.65c4.39-3.94 8.25-7.08 10.72-11.55 3.73-6.74 9.45-9.24 15.3-13.27 5.34-3.69 10.14-7.9 16.75-10.24 12.35-4.37 25.11-4.71 38.32-3.49 21.87 2.02 44.33 15.89 45.98 39.5 3.24 3.61 9.01 6.14 13.76 7.93l25.37 9.55c5.63 2.12 7.26 8.23 5.33 13.93-6.28 18.58-1.38 25.07-17.77 37.05-6.02 4.4-11.21 8.46-19.33 8.67-9.58.25-19.25 2.49-27.91 6.8-2.49 4.09-2.32 11.12-.21 15.32l6.02 11.95c-1.53.78-4.15 1.01-6.9.82 2.07 9.34 4.64 19.43-1.9 29.28-1.49-2.03-2.51-4.5-4.04-7.84-.7 11.19-4.42 21.61-13.51 30.87m-.22-7.7c8.28-8.95 9.42-20.92 9.37-33.92 2.63 1.76 4.49 3.43 7.48 6.04.28-8.3-2.17-14.93-4.85-23.45l5.82.08c-4.31-7.26-5.22-14.84-2.29-22.64-1.21-1.17-5.06-2.48-6.49-1.33-6.33 5.07-7.08 13.78-6.71 22.64-2.61-2.57-2.83-6.13-3.29-10.48-3.8 6.99-2.52 14.25-.13 22.63-10.6-10.03-3.16-29.22 7.18-37.5l-3.92-4.11c5.26-2.8 12.7 5.1 20.54 2.42 22.88-7.83 34.24-1.83 41.48-13.65-11.06 7.25-22.35 7.88-34.74 7.43-5.23-.19-10.11 4.15-15.68 1.07-1.84-1.02-3.86-3.54-3.33-5.48.4-1.44 3.69-3.59 5.31-3.31l16.37 2.8c16.91 2.89 38.32-6.95 42.96-23.42-7.22-2.87-11.67-8.46-12.57-15.79-.47-3.87 2.07-7.19 5.92-8.47-13.03-5.21-32.63-8.29-35.02-24.27l2.8 1.97c-3.88-13.46-14.33-22.32-27.06-27.05-16.34-6.08-45.28-6.08-59.45 4.97l6.92 3.3c-20.34-2.02-30.71 17.64-28.91 17.41l2.6-.34c-4.89 10.66-19.83 21.92-18.52 35.2l4.38-3.62c3.91 12.31 11.34 22.27 22.9 27.28 18.13 7.87 19.99 18.54 28.47 17.3 2.3-.34 5.56-2.89 7.03-5.42 8.52-14.71 2.15-35.4-2.32-51.32-5.63-20.06 1.02-29.94 1.81-27.26l.65 2.23c1.01-2.09 2.08-3.88 4.45-5.22-4.05 11.5-5.03 21.03-1.41 32.03 5.31 16.14 10.42 39.95-.28 54.24-5.55 7.41-14.37 7.94-21.17 1.86-4.38-3.91-8.95-8.86-14.37-11.22-9.54-4.16-17.09-8.96-23.7-18.01-2.21 5.86-3.57 10.87-5.78 16.36l-7.05 17.51c-3.77 9.37 3.68 20.71 9.43 28.01 1.41-5.15 1.11-9.28 4.23-12.49 2.75 18.95 17 30.2 32.95 37.52l25.35 11.63c8.35 3.83 15.73 9.15 22.62 15.87Z"/>
    <path d="M1068.63 458.98c-6.89-6.72-14.27-12.03-22.62-15.87l-25.35-11.63c-15.95-7.32-30.2-18.57-32.95-37.52-3.12 3.22-2.81 7.35-4.23 12.49-5.75-7.3-13.2-18.65-9.43-28.01l7.05-17.51c2.21-5.49 3.57-10.5 5.78-16.36 6.61 9.05 14.15 13.85 23.7 18.01 5.42 2.36 10 7.3 14.37 11.22 6.8 6.08 15.62 5.55 21.17-1.86 10.7-14.29 5.59-38.1.28-54.24-3.62-11-2.63-20.53 1.41-32.03-2.37 1.34-3.45 3.13-4.45 5.22l-.65-2.23c-.78-2.68-7.44 7.21-1.81 27.26 4.47 15.92 10.84 36.61 2.32 51.32-1.47 2.53-4.73 5.08-7.03 5.42-8.48 1.24-10.34-9.43-28.47-17.3-11.56-5.02-18.99-14.98-22.9-27.28l-4.38 3.62c-1.31-13.28 13.63-24.54 18.52-35.2l-2.6.34c-1.8.23 8.57-19.43 28.91-17.41l-6.92-3.3c14.17-11.05 43.11-11.04 59.45-4.97 12.73 4.73 23.17 13.59 27.06 27.05l-2.8-1.97c2.4 15.98 22 19.06 35.02 24.27-3.85 1.28-6.4 4.6-5.92 8.47.9 7.33 5.35 12.93 12.57 15.79-4.64 16.47-26.05 26.31-42.96 23.42l-16.37-2.8c-1.62-.28-4.92 1.87-5.31 3.31-.54 1.94 1.49 4.46 3.33 5.48 5.56 3.08 10.45-1.26 15.68-1.07 12.38.45 23.68-.18 34.74-7.43-7.24 11.82-18.6 5.81-41.48 13.65-7.83 2.68-15.28-5.21-20.54-2.42l3.92 4.11c-10.34 8.28-17.77 27.47-7.18 37.5-2.39-8.38-3.68-15.64.13-22.63.47 4.36.68 7.91 3.29 10.48-.36-8.87.38-17.57 6.71-22.64 1.44-1.15 5.29.16 6.49 1.33-2.93 7.8-2.02 15.39 2.29 22.64l-5.82-.08c2.68 8.51 5.13 15.14 4.85 23.45-2.99-2.61-4.84-4.28-7.48-6.04.05 13-1.09 24.97-9.37 33.92Zm21.15-148.37c-1.39-3.71-3.72-8.07-6.53-11.96-3.27 1.26-6.35 3.01-8.43 4.99l-7.47 7.13 6.59-.43c11.14 5.85 6.51-.95 15.85.27Zm-23.28 58.3c-5.97-4.44-13.51-1.04-16.19 4.06 5.71-2.17 10.49-3.17 16.19-4.06m-20.41 60.03c-5.78-6.26-9.23-12.91-13.31-20.61-.25 4.44.47 8.24 1.01 12.8-9.68-7.99-12.43-19.06-13-31.73-3.74 2.94-5.74 6.79-7.92 11.16-4.31-8.22-2.06-16.6-2.33-25.83-6.29 9.72-4.2 23.39 2.96 31.37l3.99-8.16c2.01 12.01 7 21.99 17.1 27.29.97-.73 2.06-1.9 2.45-1.52.33.32 1.24 1.2 1.56 1.54l13.98 14.97c-.76-4.27-3.46-8.01-6.48-11.29Z" style="fill:#fff"/>
    <path d="M1046.09 428.94c3.03 3.28 5.73 7.02 6.48 11.29l-13.98-14.97c-.32-.34-1.23-1.22-1.56-1.54-.4-.38-1.48.78-2.45 1.52-10.1-5.3-15.09-15.28-17.1-27.29l-3.99 8.16c-7.16-7.99-9.25-21.65-2.96-31.37.27 9.24-1.98 17.61 2.33 25.83 2.18-4.37 4.19-8.22 7.92-11.16.57 12.67 3.31 23.74 13 31.73-.54-4.56-1.26-8.36-1.01-12.8 4.09 7.69 7.53 14.34 13.31 20.61Zm43.69-118.33c-9.34-1.22-4.71 5.58-15.85-.27l-6.59.43 7.47-7.13c2.08-1.98 5.16-3.74 8.43-4.99 2.81 3.9 5.14 8.25 6.53 11.96Zm-23.28 58.3c-5.69.89-10.48 1.89-16.19 4.06 2.67-5.1 10.21-8.5 16.19-4.06"/>
</svg>