<svg xmlns="http://www.w3.org/2000/svg" id="Layer_1" version="1.1" viewBox="1188.62 260.44 177.26 207.62">
    <defs>
        <style>
            .st0{fill:#fff}
        </style>
    </defs>
    <path d="M1239.17 456.22c-7.79-6.22-8.17-14.85-8.3-24.36l-4.12 6.67c-5.09-6.71-2.77-12.77-1.82-19.81l-4.7-2.74c5.43-5.64 11.1-17.13 7.84-22.59-2.2-3.69-9.65 3.42-25.51-12.96-2.86-2.95-7.56-3.87-9.58-8.72-3.38-8.14-3.11-16.68-3.9-25.22-.66-7.1-1.72-13.29 5.96-17.91l7.62-4.58c-1.79-27.18 1.61-19.84 7.84-36.39 7.23-19.2 18.66-15.61 25.67-19.56 18.24-10.27 21.59-5.98 43.21-7.47 14.33-.99 27.7 3.13 38.96 11.9 8.15.25 15.35 3.47 21.29 8.75l-.47 4.38 15.3 10.72-6.07 3.17 11.6 13.32c8.52 9.78 6.1 26.07 3.25 25.99l-3.11-.09c-2.8 7-7.29 12.89-13.88 17.54 1.78 10.4 4.38 21.1 10.93 29.45l6.41 8.17c-3 .76-4.94.63-7.65.14-5.74 24.45-29.75 42.81-52.29 51.56l-31.69 12.3c-5.44 2.11-9.76 5.9-14.37 10.18-7.37-4.04-12.81-11.31-14.82-19.2l-3.61 7.37Zm-10.5-30.31 7.07-4.08c.15 9.65-1.61 16.9 2.35 25.72l6.9-8.04c2.42 9.77 4.65 17.25 12.64 23.14l6.21-4.83c26.3-16.6 50.37-15.1 73.7-40.37 7-7.58 14.97-19.45 13.12-29.9-1.7-9.62-8.75-17.65-8.87-28.04-14.02 4.37-17.18 20.78-27.85 20.15-6.1-.36-11.04-5.51-13.48-10.93-10.48-23.33 5.99-51.23 3.26-64.41l-4.02-19.44c25.15 22.05-11.69 61.08 8.29 86.13 1.41 1.77 4.63 3.62 6.4 3.44 1.57-.16 4.64-1.9 5.64-3.3 15.63-21.95 32.13-14.47 37.48-43.38l3.6 4.44c.68-6.68-2.1-12.34-6.1-17.12l-16.71-19.99 3.93-.67-14.54-11.84 1.09-2.48c-10.01-3.79-11.63-1.5-19.44-2.72-.52-.08.09-1.71.61-1.85l2.89-.82c-14.85-10.33-39.02-13.49-56.74-1.69 1.18-3.08 3.69-4.52 6.64-6.38-16.69-3.35-29.17 8.91-37.74 22.19l-1.79 2.77c-.39.6.92 1.94 1.66 3.08-4.39.35-6.88 4.46-6.62 9.2 1.21-1.32 3.39-2.92 5.02-2.73 1.26.14 3.09 2.11 4.26 3.59l2.89-5.13c3.03 14.38-16.14 23.18-25.56 29.07 4.12.67 8.03 1.13 11.13 2.39 6.26 2.54 7.07 9.52 3.88 14.6-3.69 5.87-7.94 10.02-14.64 12.57-.81 8.33 22.02 17.64 28.75 18.76 19.54 3.23 32-11.44 36.2-6.45 1.21 1.44.66 4.5-.33 6.14-4.18 6.89-11.28 11.45-18.83 7.32-11.43-6.25-7.09 3.06-28.91-5.95-5.29-2.19-10.33-3.87-16.06-4.34 2.1 6.94 7.62 10.68 14.28 12.25 12.14 2.86 17.43-1.54 30.88 2.86 8.18 2.68 15.74.7 22.82-5.44 0 6.23-5.36 8.3-10.63 10.92 7.88 4.96 6.93 16.19 13.21 27.99-5.46-1.77-6.08-6.95-8.3-12.54l-2.53 21.43c-7.11-7.74 5.42-21.76-3.67-36.14l-12.27-.83c2.28 7.78 3.61 18.09-3.84 23.12 2.53-8.84 3.98-17.46-2.48-24.04-1.79-1.82-7.19-1.44-10.22-1.15 1.62 7.13.06 13.41-3.34 19.56.15 1.67.21 4.35-.05 6.05l-1.21 8.15Zm-14.56-126.77c3.38-8.78 8.69-16.1 13.92-23.68-10.67 3.25-10.16 9.98-16.45 22.84-3.47 7.1-5.79 14.4-4.03 22.3 10.6-3.21 2.5-10.92 6.57-21.46Zm.68 38.36c-4.72-6.61-14.34-5.94-19.78-2.45zm-13.71 20.43c-1.12-1.1-4.3-2.61-6.41-3.66.14 6.7 1.5 13.35 5.83 18.68 2.1-4.82 4.63-10.35.58-15.02"/>
    <path d="M1239.17 456.22c-7.79-6.22-8.17-14.85-8.3-24.36l-4.12 6.67c-5.09-6.71-2.77-12.77-1.82-19.81l-4.7-2.74c5.43-5.64 11.1-17.13 7.84-22.59-2.2-3.69-9.65 3.42-25.51-12.96-2.86-2.95-7.56-3.87-9.58-8.72-3.38-8.14-3.11-16.68-3.9-25.22-.66-7.1-1.72-13.29 5.96-17.91l7.62-4.58c-1.79-27.18 1.61-19.84 7.84-36.39 7.23-19.2 18.66-15.61 25.67-19.56 18.24-10.27 21.59-5.98 43.21-7.47 14.33-.99 27.7 3.13 38.96 11.9 8.15.25 15.35 3.47 21.29 8.75l-.47 4.38 15.3 10.72-6.07 3.17 11.6 13.32c8.52 9.78 6.1 26.07 3.25 25.99l-3.11-.09c-2.8 7-7.29 12.89-13.88 17.54 1.78 10.4 4.38 21.1 10.93 29.45l6.41 8.17c-3 .76-4.94.63-7.65.14-5.74 24.45-29.75 42.81-52.29 51.56l-31.69 12.3c-5.44 2.11-9.76 5.9-14.37 10.18-7.37-4.04-12.81-11.31-14.82-19.2l-3.61 7.37Zm-10.5-30.31 7.07-4.08c.15 9.65-1.61 16.9 2.35 25.72l6.9-8.04c2.42 9.77 4.65 17.25 12.64 23.14l6.21-4.83c26.3-16.6 50.37-15.1 73.7-40.37 7-7.58 14.97-19.45 13.12-29.9-1.7-9.62-8.75-17.65-8.87-28.04-14.02 4.37-17.18 20.78-27.85 20.15-6.1-.36-11.04-5.51-13.48-10.93-10.48-23.33 5.99-51.23 3.26-64.41l-4.02-19.44c25.15 22.05-11.69 61.08 8.29 86.13 1.41 1.77 4.63 3.62 6.4 3.44 1.57-.16 4.64-1.9 5.64-3.3 15.63-21.95 32.13-14.47 37.48-43.38l3.6 4.44c.68-6.68-2.1-12.34-6.1-17.12l-16.71-19.99 3.93-.67-14.54-11.84 1.09-2.48c-10.01-3.79-11.63-1.5-19.44-2.72-.52-.08.09-1.71.61-1.85l2.89-.82c-14.85-10.33-39.02-13.49-56.74-1.69 1.18-3.08 3.69-4.52 6.64-6.38-16.69-3.35-29.17 8.91-37.74 22.19l-1.79 2.77c-.39.6.92 1.94 1.66 3.08-4.39.35-6.88 4.46-6.62 9.2 1.21-1.32 3.39-2.92 5.02-2.73 1.26.14 3.09 2.11 4.26 3.59l2.89-5.13c3.03 14.38-16.14 23.18-25.56 29.07 4.12.67 8.03 1.13 11.13 2.39 6.26 2.54 7.07 9.52 3.88 14.6-3.69 5.87-7.94 10.02-14.64 12.57-.81 8.33 22.02 17.64 28.75 18.76 19.54 3.23 32-11.44 36.2-6.45 1.21 1.44.66 4.5-.33 6.14-4.18 6.89-11.28 11.45-18.83 7.32-11.43-6.25-7.09 3.06-28.91-5.95-5.29-2.19-10.33-3.87-16.06-4.34 2.1 6.94 7.62 10.68 14.28 12.25 12.14 2.86 17.43-1.54 30.88 2.86 8.18 2.68 15.74.7 22.82-5.44 0 6.23-5.36 8.3-10.63 10.92 7.88 4.96 6.93 16.19 13.21 27.99-5.46-1.77-6.08-6.95-8.3-12.54l-2.53 21.43c-7.11-7.74 5.42-21.76-3.67-36.14l-12.27-.83c2.28 7.78 3.61 18.09-3.84 23.12 2.53-8.84 3.98-17.46-2.48-24.04-1.79-1.82-7.19-1.44-10.22-1.15 1.62 7.13.06 13.41-3.34 19.56.15 1.67.21 4.35-.05 6.05l-1.21 8.15Zm-14.56-126.77c3.38-8.78 8.69-16.1 13.92-23.68-10.67 3.25-10.16 9.98-16.45 22.84-3.47 7.1-5.79 14.4-4.03 22.3 10.6-3.21 2.5-10.92 6.57-21.46Zm.68 38.36c-4.72-6.61-14.34-5.94-19.78-2.45zm-13.71 20.43c-1.12-1.1-4.3-2.61-6.41-3.66.14 6.7 1.5 13.35 5.83 18.68 2.1-4.82 4.63-10.35.58-15.02"/>
    <path class="st0" d="m1228.67 425.91 1.21-8.15c.25-1.7.19-4.39.05-6.05 3.4-6.15 4.96-12.43 3.34-19.56 3.03-.29 8.43-.68 10.22 1.15 6.46 6.57 5.01 15.19 2.48 24.04 7.45-5.03 6.12-15.34 3.84-23.12l12.27.83c9.08 14.37-3.44 28.39 3.67 36.14l2.53-21.43c2.22 5.58 2.84 10.76 8.3 12.54-6.27-11.8-5.33-23.03-13.21-27.99 5.27-2.62 10.62-4.7 10.63-10.92-7.08 6.14-14.64 8.11-22.82 5.44-13.45-4.4-18.74 0-30.88-2.86-6.65-1.57-12.17-5.31-14.28-12.25 5.72.47 10.76 2.15 16.06 4.34 21.82 9.01 17.48-.3 28.91 5.95 7.55 4.12 14.65-.43 18.83-7.32.99-1.64 1.54-4.7.33-6.14-4.2-4.99-16.66 9.68-36.2 6.45-6.73-1.11-29.55-10.43-28.75-18.76 6.7-2.55 10.96-6.7 14.64-12.57 3.19-5.08 2.38-12.05-3.88-14.6-3.1-1.26-7.01-1.72-11.13-2.39 9.42-5.9 28.59-14.69 25.56-29.07l-2.89 5.13c-1.17-1.48-3-3.45-4.26-3.59-1.63-.18-3.8 1.41-5.02 2.73-.26-4.73 2.23-8.84 6.62-9.2-.73-1.14-2.05-2.48-1.66-3.08l1.79-2.77c8.58-13.28 21.05-25.55 37.74-22.19-2.95 1.86-5.46 3.3-6.64 6.38 17.72-11.81 41.89-8.64 56.74 1.69l-2.89.82c-.52.15-1.13 1.77-.61 1.85 7.81 1.23 9.43-1.06 19.44 2.72l-1.09 2.48 14.54 11.84-3.93.67 16.71 19.99c4 4.78 6.78 10.44 6.1 17.12l-3.6-4.44c-5.34 28.92-21.85 21.43-37.48 43.38-.99 1.4-4.07 3.14-5.64 3.3-1.77.18-4.99-1.67-6.4-3.44-19.98-25.05 16.86-64.07-8.29-86.13l4.02 19.44c2.73 13.18-13.75 41.08-3.26 64.41 2.44 5.42 7.37 10.57 13.48 10.93 10.67.63 13.83-15.78 27.85-20.15.12 10.39 7.16 18.42 8.87 28.04 1.85 10.45-6.12 22.32-13.12 29.9-23.33 25.27-47.41 23.77-73.7 40.37l-6.21 4.83c-7.99-5.88-10.22-13.37-12.64-23.14l-6.9 8.04c-3.96-8.82-2.2-16.07-2.35-25.72l-7.07 4.08Zm50.32-125.22c-1.65-5.42-13.28-10.96-14.78-5.29 5.77.42 9.7 2.47 14.78 5.29m-2.68 12.36 6.63.85c-2.78-3.06-15-17.55-19.66-10.73-2.31 3.38-4 7.61-5.1 11.12 8.98-2.32 4.27 5.76 18.13-1.23Zm3.08 61.25c1.42-2.49 1.75-5.98.76-8.81-.81-2.32-3.23-4.58-6.91-4.43 3.89 3.68 5.35 7.19 6.15 13.25Zm21.64 5.5c-3.48-5.6-11.9-6.04-16.07-1.46 5.82-.25 10.53.17 16.07 1.46m-5.86 54.37-7.71 10.38c7.61-2.04 10-9.86 15.27-13.62 9.57-6.82 16.7-14.2 18.23-27.1l2.36 9.14c5.86-8.43 9.14-20.29 3.64-30.86-.35 7.43-.7 13.82-1.87 21.05l-6.84-7.58c-1 11.74-3.73 21.62-12.1 28.4l-.95-11.42c-3.11 8.1-5.18 15.09-10.02 21.61Z"/>
    <path class="st0" d="M1214.11 299.14c-4.06 10.54 4.03 18.25-6.57 21.46-1.76-7.9.56-15.21 4.03-22.3 6.29-12.86 5.78-19.59 16.45-22.84-5.23 7.58-10.53 14.9-13.92 23.68Zm-13.03 58.79c4.05 4.67 1.51 10.2-.58 15.02-4.32-5.32-5.69-11.98-5.83-18.68 2.11 1.05 5.28 2.55 6.41 3.66m13.71-20.43-19.78-2.45c5.43-3.49 15.06-4.17 19.78 2.45"/>
    <path d="M1295.17 434.17c4.84-6.51 6.91-13.5 10.02-21.61l.95 11.42c8.37-6.78 11.1-16.66 12.1-28.4l6.84 7.58c1.17-7.23 1.52-13.62 1.87-21.05 5.5 10.57 2.22 22.43-3.64 30.86l-2.36-9.14c-1.53 12.9-8.66 20.28-18.23 27.1-5.27 3.76-7.66 11.58-15.27 13.62l7.71-10.38Zm-18.86-121.12c-13.86 6.99-9.16-1.08-18.13 1.23 1.1-3.5 2.79-7.74 5.1-11.12 4.66-6.82 16.88 7.67 19.66 10.73l-6.63-.85Zm2.68-12.36c-5.08-2.82-9.01-4.87-14.78-5.29 1.49-5.67 13.13-.12 14.78 5.29m22.04 79.11c-5.54-1.29-10.25-1.7-16.07-1.46 4.17-4.59 12.6-4.14 16.07 1.46m-21.64-5.5c-.8-6.05-2.26-9.57-6.15-13.25 3.68-.14 6.1 2.11 6.91 4.43.99 2.83.65 6.33-.76 8.81Z"/>
</svg>