<svg xmlns="http://www.w3.org/2000/svg" id="Layer_1" version="1.1" viewBox="750.22 260.87 188.24 204.81">
    <defs>
        <style>
            .st0{fill:#fff}
        </style>
    </defs>
    <path d="m858.4 454.93-13.89 10.75-13.33-9.72c-5.04-3.68-9.14-7.94-12.86-12.81l-1.07 6.25c-9.02-5.13-13.11-12.98-17.22-21.62l-1.98 6.86c-7.83-8.04-10.65-17.46-11.76-27.83l-3.36 5.64c-3.59-3.76-3.88-8.74-2.79-13.45l4.63-19.97c-2.65.21-5.5.47-7.19-.04s-3.4-4.32-3.24-6.04c1.43-15.6-17-17.38-19.8-36.29l-.57-3.87c-.12-.82-2.52-1.07-3.75-1.53.15-15.48 10.47-17.17 21.38-33.83l5.76-8.8-1.81-1.92c-.56-.59.13-2.94.66-3.65 8.91-11.96 20.69-6.32 27.63-12.55 12.02-10.78 25.72-9.62 40.15-9.59 14.75.04 28.44-.84 40.76 9.86 6.19 5.38 20.77.59 28.59 14.41.49.86-1.8 2.78-2.98 3.19l7.29 11.02c2.95 4.46 6.89 8.31 10.84 12.13 9.78 9.5 11.55 21.22 8.81 20.85l-3.52-.47c.07 11.69-6.48 19.08-14.63 27.16-9.67 9.59-2.06 16.98-8.64 19.98-1.62.74-4.5.21-7.52-.43l4.84 19.42c1.17 4.68.77 10.08-1.75 14.25-1.91-.79-2.87-3.1-3.95-5.54-1.56 10.2-3.77 19.88-12.36 27.51l-1.32-7.41c-3.23 9.16-8.37 17.17-17.24 22.3l-1.49-6.15c-2.81 4.42-6.6 8.26-11.3 11.9Zm1.53-101.66c-2.23 6.58-7.5 10.55-13.67 12.35-.9 1.08-.8 5.6.59 6.52l13.81 9.09c3.74 2.46 8.21 2.25 10.92-1.94 4.52-6.98.54-14.76 4.35-23.6l2.54 9.69 8.3-18.49c2.99-6.67 3.72-14.09 4.97-21.25 2.15-12.26.96-23.36-2.84-35.88 19.03 20.48-.71 48.83 7.71 73.53 1.92 5.63 5.39 10.18 11.46 11.36 2.61-9.16-2.74-16.42 1.33-29.81l2.36 14c10.3-9.51 22.43-20.47 14.89-35.58l5.01.37c-8.69-12.35-11.45-10.76-20.36-24.81-3.46-5.46-6.98-9.28-12.46-14.17l4.17-2.47c-8.34-4.98-12.01-.56-22.17-7.94-9.5-6.9-20.06-9.68-31.79-7.95s-23.25-5.44-40.41 7.25c-11.18 8.26-13.62 3.1-23.56 8.47l3.73 2.66c-5.62 5.27-9.81 10.13-13.6 16.56-7.22 12.27-10.59 10.92-18.78 22.24l4.54.42c-7.32 15.77 5.4 25.05 15.23 35.42l2.49-13.51c2.51 10.38-.14 18.28.83 28.53 5.76-.71 8.67-3.81 10.7-8.45 11.42-26.01-11.05-53.78 9.04-75.86-8.9 25.2-1.97 53.39 10.43 74.97l2.25-8.57c4.94 9.05-.43 14.41 4.65 23.12 1.61 2.76 5.78 4.19 8.59 2.45l16-9.87c1.55-.96 1.63-6.3-.05-6.8-11.58-3.49-15.85-14.5-13.18-20.59 3.66-8.34 17.84-8.02 24.98-5.84 6.4 1.95 9.16 7.98 7 14.35Zm-6.78-8.59c-6.5-4.42-14.2-3.97-19.8.57zm34.17 67.09c2.97 4.5 3.14 7.73 4.39 12.21 5.75-9.13 6.48-18.81 4.23-30.09l7.12 6.83c-.6-3.31-1.33-6.32-2.12-9.81l-3.67-16.25c-4.01-7.04-7.7-13.07-8.05-22.26-3.16 6.23-6.31 12.16-8.84 18.77-2.37 6.18-4.46 13.08-7.46 18.41-4.41 7.82-10.69 5.04-17.45 4.31-7.11-.76-15.82-.79-23.01.02-6.68.75-12.87 3.25-17.36-4.56-5.62-9.78-8.13-24.82-16.38-37.08.09 9.05-4.5 15.01-7.82 22.45-.53 1.18-5.83 24.53-5.32 25.93l6.33-6.26c-1.45 11.05-1.48 20.86 4.66 29.86 1.17-5.32 2.05-9.57 4.74-13.09.72 11.25 4.71 21.24 11.96 28.91.89-3.85 1.64-6.85 2.95-10.26 3.92 8.5 8.2 15.09 15.6 20.42l12.4 8.93 13.19-9.6c7.07-5.14 10.62-11.69 14.75-19.8 1.29 3.88 1.96 6.91 2.6 10.11 8.38-7.47 10.36-17.75 12.57-28.09Zm-29.02-24.39c-.1.4-.57 2.23-.11 2.55 2.12 1.49 8.4 1.76 9.86-2.24-4.44.09-8.86-1.46-12.36-4.24-7.79-6.19-17.36-5.84-24.57.66-2.72 2.45-7.31 3.18-10.94 3.3 1.13 3.71 6.63 4.41 9.35 2.58-.05-.74.14-2.83.66-2.72 8.43 1.89 19.53 2.22 28.11.12Z"/>
    <path class="st0" d="M859.93 353.27c2.16-6.37-.6-12.39-7-14.35-7.14-2.18-21.32-2.5-24.98 5.84-2.67 6.09 1.6 17.1 13.18 20.59 1.68.51 1.61 5.84.05 6.8l-16 9.87c-2.81 1.74-6.98.31-8.59-2.45-5.08-8.71.29-14.07-4.65-23.12l-2.25 8.57c-12.4-21.59-19.33-49.77-10.43-74.97-20.09 22.08 2.38 49.85-9.04 75.86-2.04 4.64-4.95 7.74-10.7 8.45-.96-10.25 1.68-18.15-.83-28.53l-2.49 13.51c-9.84-10.37-22.56-19.65-15.23-35.42l-4.54-.42c8.19-11.32 11.56-9.97 18.78-22.24 3.79-6.43 7.98-11.3 13.6-16.56l-3.73-2.66c9.94-5.38 12.38-.22 23.56-8.47 17.17-12.68 28.73-5.53 40.41-7.25s22.29 1.05 31.79 7.95c10.16 7.38 13.83 2.96 22.17 7.94l-4.17 2.47c5.48 4.88 9 8.7 12.46 14.17 8.91 14.05 11.67 12.46 20.36 24.81l-5.01-.37c7.54 15.11-4.58 26.07-14.89 35.58l-2.36-14c-4.07 13.38 1.28 20.64-1.33 29.81-6.07-1.17-9.54-5.72-11.46-11.36-8.42-24.71 11.32-53.06-7.71-73.53 3.8 12.52 4.99 23.61 2.84 35.88-1.26 7.16-1.98 14.58-4.97 21.25l-8.3 18.49-2.54-9.69c-3.81 8.84.17 16.62-4.35 23.6-2.71 4.19-7.18 4.4-10.92 1.94l-13.81-9.09c-1.39-.91-1.49-5.43-.59-6.52 6.17-1.81 11.44-5.77 13.67-12.35Zm-41.25-55.19c-5.03-2.57-12.32 1.05-13.12 7.3 4.31-3.46 8.1-5.76 13.12-7.3m63.75 7.16c-1.63-6.74-8.84-9.7-14.41-7.11 5.57 1.12 9.66 3.82 14.41 7.11M821.73 316c.83 1.45 1.34 2.65 1.59 2.34s1.28-1.48 1.43-1.87c1.68-4.4-1.89-12.44-7.77-11.86-5.03.49-9.52 4.75-12.05 9.71 1.01.41 3.57.39 4.89.31 3.19 2.48 7.87 4.17 11.91 1.38Zm56.02-1c1.16-.45 4.46.63 5.46-.31-2.46-4.98-6.77-9.46-12.38-10.26-2.87-.41-6.16 2.62-7.21 4.66-1.49 2.91-1.41 6.13.11 9.06l3.04-2.09c3.35 3.23 7.81.17 10.99-1.07Zm-62.45 41.1 5.81-19.31c-5.01 5.27-7.14 12.17-5.81 19.31m57.21-1.25c1.6-6.79-.79-12.38-5.21-16.84z"/>
    <path class="st0" d="M887.32 411.77c-2.21 10.34-4.19 20.62-12.57 28.09-.64-3.21-1.32-6.23-2.6-10.11-4.12 8.11-7.68 14.66-14.75 19.8l-13.19 9.6-12.4-8.93c-7.4-5.33-11.68-11.92-15.6-20.42-1.31 3.41-2.07 6.41-2.95 10.26-7.25-7.67-11.24-17.67-11.96-28.91-2.69 3.52-3.57 7.77-4.74 13.09-6.14-8.99-6.11-18.81-4.66-29.86l-6.33 6.26c-.5-1.4 4.79-24.75 5.32-25.93 3.32-7.44 7.9-13.41 7.82-22.45 8.25 12.25 10.76 27.3 16.38 37.08 4.49 7.81 10.68 5.32 17.36 4.56 7.19-.81 15.89-.78 23.01-.02s13.04 3.5 17.45-4.31c3-5.33 5.09-12.22 7.46-18.41 2.53-6.61 5.68-12.54 8.84-18.77.35 9.19 4.04 15.22 8.05 22.26l3.67 16.25c.79 3.49 1.52 6.5 2.12 9.81l-7.12-6.83c2.25 11.28 1.52 20.96-4.23 30.09-1.24-4.48-1.42-7.71-4.39-12.21Zm-52.7-6.2c.96-2.65 1.57-5.61 1.99-9.18-8.92 10.03-8.53 24.86 1.93 33.54-1.45-8.86-8.4-12.02-3.92-24.36m20.94 12.29c-2.35-7.58-3.58-13.61-4.28-21.17-4.24 7.1-.69 15.69 4.28 21.17m1.61 11.33c3.71-5.09 4.2-11.68.25-16.38z"/>
    <path class="st0" d="M858.3 387.38c-8.58 2.1-19.68 1.77-28.11-.12-.52-.1-.71 1.99-.66 2.72-2.72 1.83-8.22 1.13-9.35-2.58 3.63-.13 8.22-.86 10.94-3.3 7.21-6.49 16.78-6.85 24.57-.66 3.5 2.79 7.92 4.33 12.36 4.24-1.46 4-7.74 3.73-9.86 2.24-.46-.32.01-2.15.11-2.55Zm-5.15-42.7-19.8.57c5.6-4.54 13.3-4.99 19.8-.57"/>
    <path d="M877.75 315c-3.18 1.23-7.64 4.3-10.99 1.07l-3.04 2.09c-1.52-2.93-1.6-6.15-.11-9.06 1.04-2.05 4.33-5.07 7.21-4.66 5.61.79 9.92 5.27 12.38 10.26-.99.94-4.29-.14-5.46.31Zm-56.02 1c-4.04 2.79-8.73 1.1-11.91-1.38-1.32.08-3.89.1-4.89-.31 2.53-4.96 7.02-9.22 12.05-9.71 5.88-.58 9.45 7.47 7.77 11.86-.15.39-1.17 1.56-1.43 1.87s-.76-.89-1.59-2.34Zm60.7-10.76c-4.75-3.28-8.84-5.99-14.41-7.11 5.57-2.59 12.78.37 14.41 7.11m-63.75-7.16c-5.02 1.54-8.81 3.84-13.12 7.3.8-6.25 8.09-9.87 13.12-7.3m-3.38 58.02c-1.33-7.14.8-14.05 5.81-19.31zm57.21-1.25-5.21-16.84c4.42 4.46 6.81 10.05 5.21 16.84m-37.89 50.72c-4.47 12.34 2.47 15.5 3.92 24.36-10.47-8.68-10.85-23.51-1.93-33.54-.42 3.57-1.03 6.53-1.99 9.18m20.94 12.29c-4.97-5.49-8.52-14.08-4.28-21.17.7 7.56 1.93 13.6 4.28 21.17m1.61 11.33.25-16.38c3.95 4.7 3.46 11.3-.25 16.38"/>
</svg>