<svg xmlns="http://www.w3.org/2000/svg" viewBox="1101.36 496.95 272.36 237.13">
    <path d="M1175.88 598.5c-9.51 1.3-31.2 1.22-34.41 3.7-4.06 3.13-22.37 18.39-17.71 23.94l3.42-6.1.04 5.8c13.42-2.36 11.41-17.4 23.88-13.68 11.16 3.33 2.36-2.64 17.78 8.81l-.67-6.31 12.93 8.14-1.72-5.81 10.98 5.51-.43-6.06 6.48 1.72c-.36-7.03 2.26-14.13 8.73-18.42-2.81 8.04-6.65 13.91-4.34 22.11l-5.59.44-.05 3.61-6.14-.2-7.5.76 5.39 5.47.97-2.15c.27-.6 2.35.05 2.82.51l7.65 7.64.73-6.11c5.49 5.81 11.38 9.77 18.18 13.36l.58-4.08 8.39 5.37c11.03.72 25.55 2.35 32.34 11.42l-.82-8.5c4.57 6.43 6.62 12.04 9.29 18.71 1.4 3.48 4.47 5.56 6.85 7.95 6.51 6.55 12.95 11.48 22.32 13.94 19.19 5.04 22.11 11.54 27.44 29.39 1.62 5.41 5.35 11.11 11.71 10l-4.79-5.48 5.25 1.64c-.53-4.5-1.8-7.31-3.84-11.4 6.08.65 9.25 5.77 8.31 12.03-.27 1.8-1.13 4.24-1.99 5.86-.77 1.45-4.42 2.42-6.2 1.93-19.5-5.37-8.29-30.63-29.65-37.22.74 12.04 11.24 20.05 5.94 29.68-1.4 2.55-5.67 2.76-8.25 1.51-13.36-6.5-8.89-25.2-17.34-30.59-13.29-8.47-25.55-4.82-36.86-29.45l-6.48-14.11c-1.57-3.42-11.07-.25-17.79-5.33l-1.51 3.29c-.38.83-2.5-1.09-3.34-1.61l-12.95-7.89-3.79 1.48-8.68-7.1-3.37.9c-5.89-3.21-10.37-8.46-13.92-14.62l-3.9 3.98-10.02-7.4-2.81 1.52c-1.41.76-2.92-4.87-10.79-4.15-5.08.47-8.24 16.25-23.44 13.16-3.45-.7-5.86-4.12-4.82-7.74.96-3.34 3.12-6.78 5.51-9.27l11.12-11.57c-8.23-2.93-15.83 9.71-29.42 2.94-1.95-.97-4.23-3.93-4.22-5.87s2.45-5.85 4.56-6.67l18.03-7.02c5.58-2.17 10.28-3.33 16.31-2.1l11.21 2.29.52-10.99c.09-1.82-2.98-4.58-1.22-7.13l3.62-5.25c-7.8-5.93 6.56-7.41 5.31-16.25-10.47-.53-19.41 4.22-24.67-9.38 2.29-1.51 4.89-2.91 7.87-4.46-9.72-1.97-15.81-12.11-11.9-21.3 9.97-3.9 17.67 1.85 23.89-6.43 8.42-11.23 22.91-5.93 31.87-3.12 6.5 2.03 11.76 4.76 17.26 9.35 2.75 2.29 8.39 4.16 7.73 9-.88 6.49-2.07 21.85 2.41 26.66l8.47 9.1c.18 13.38 12.88 15.89 10.91 22.19 12.76 15.67 29.52 27.43 47.41 37.17 3.16 1.72 6.55 4.49 9.39 6.37 21.13 6.26 42.38-1.29 56.3-17.85 5.91-7.03 19.34-16.12 27.08-10.42l-6.93 11.01 3.7 1.25c2.42 7.23-2.62 13.84-5.72 19.78-1.61 3.09 3.52 4.69-13.29 15.11l1 2.16c.33.71-1.36 2.46-2.02 2.87-5.54 3.42-11.92 3.56-18.65 2.9l-.59 2.81c-.99 4.7-18.97-2.78-23.85-5.02l5.09 8.6c3.12 5.28-1.97 3.43 3.68 17.21 1.13 2.75 1.12 4.24-.51 7 5.33 8.46 9.34 3.1 12.29 13.13l5.46 18.6-2.79 1.02c-.63.23-2.02-1.34-2.26-2.19l-4.19-14.73c-2.76-9.69-14.36-8.17-15.65-21.79l4.13-.82-6.73-7.5 3.58-.18-6.19-9.11 4.78-.1-12.78-19.34 14.66 6.34c5.36 2.31 10.03 4.35 15.99 5.84l-5.58-6.23c9.44 2.06 17.87 4.06 26.96 1.58-4.93-1.3-8.98-1.57-12.14-5 9.27.03 17.33-2.25 23.87-8.33-3.84.05-6.8.17-9.92-1.17 8.14-3.87 15.15-7.41 16.51-15.45-2.19 1.46-3.65 2.37-5.8 3.44l4.18-6.86c.19-.31.34-2.22.04-2.29l-2.04-.46c.92-3.63 1.93-6.22 4.25-10.57.85.62-.5-.32-.67-.51-6.5 1.25-12.69 6.68-17.26 11.95-13.59 15.7-33.9 23.24-54.4 18.68l-1.01 3.55c-5.81-5.77-10.97-10.07-17.87-13.73-15.11-8.01-28.48-18.16-40.39-30.35-3.2-3.28-4.79-7.72-7.13-11.22-3.46-5.18-8.6-9.23-8.44-16.04l-4.33-4.98c-3.66-4.21-7.14-7.67-7.67-13.87-25.73-1.2-15.99-20.39-28.41-27.68 15.3-1.41 5.19 23.53 27.85 23.4l.91-15.11c-2.27-3.71-8.09-6.62-11.74-9.59-3.03-2.48-5.66-3.42-9.44-4.73-12.48-4.35-20.96-8.52-30.85 3.9-3.21 4.03-9.51 2.99-14.2 3.95l-5.96 7.06c10.11 15.09 25.67 2.3 29.08 10.68 2.88 7.06-18.12 9.69-21.32 9.56 9.16 3.49 15.33-2.61 22.28 2.44 1.88 1.37 2.93 4.32 2.13 6.95l-2.83-3.88c-1.33 4.17-3.4 8.17-5.96 10.94l3.45 1.18-7.14 9.19 4.7-.57c-2.75 6.19-4.37 11.6-4.14 17.67l3.16-1.8 2.48 12.36 11.73.04c-.14-4.78-.05-7.91 1.77-11.48l.45 10.74 2.97 1.21c.69.28-1.33 2.65-2.16 2.77Zm-51.55-.19c5.53-3.92 10.12-.48 14.68-1l18.33-2.09c.09-1.29-.57-4.55-2.03-4.85-6.23-1.26-16-4.74-22.8-3.71-6.34.95-11.51 4.81-17.44 6.39-4.08 1.08-8.7 2.2-8.77 7.1l6.25-4.02-2.66 5c5.01 1.33 10.39.06 14.45-2.81Zm180.02 125.99c2.96-4.33-.43-8.47-1.82-11.98-2.14-5.4-3.45-11.06-5-16.95-10.36-3.8-20.57-8.46-28.45-16.41-4.95-4.99-5.55-11.77-13.31-18.45l-1.23 2.14c-.98 1.71-2.36-9.12-9.45-8.55l4.92 11.98c6.43 15.63 11.93 14.4 16.15 17.71 8.3 6.5 17.9 7.04 21.65 12.26 8.3 11.55 5.25 27.2 16.53 28.24Z"/>
    <path d="m1167.75 513.65-7.7.13c-.14-1.56.26-2.88 1.8-5.35 2.54 1.91 3.07 2.35 5.9 5.22m5.81 59.32c-2.54 5.47-4.32 10.4-6.1 16.27-2.81-6.08-.07-13.45 6.1-16.27m38.15 18.31c7.19.51 12.46-2.5 15.2-9.5 1.33 3.99-1.68 7.43-3.95 8.92-3.38 2.23-7.85 3.75-11.26.58Zm-42.6-30.31c1.6-4.93 6.44-7.52 10.65-10.35l2.14-7.21 2.96 3.77 1.61-9.27c1.51 3.13 2.07 8.12-.82 10.66l-5.83 5.13-10.7 7.26Zm11.49 12.09c2.75-4.25 6.96-6.86 11.2-9.6l-.34 2.17c-.04.27 11.49-.52 14.63-8.92 1.83 11.24-15.5 9.63-25.48 16.34Z"/>
    <path d="M1304.35 724.3c-11.29-1.04-8.23-16.7-16.53-28.24-3.75-5.22-13.35-5.77-21.65-12.26-4.23-3.31-9.73-2.07-16.15-17.71l-4.92-11.98c7.1-.57 8.47 10.26 9.45 8.55l1.23-2.14c7.76 6.68 8.36 13.46 13.31 18.45 7.88 7.95 18.1 12.61 28.45 16.41 1.56 5.89 2.86 11.55 5 16.95 1.39 3.51 4.78 7.64 1.82 11.98Zm-180.02-125.99c-4.06 2.87-9.44 4.14-14.45 2.81l2.66-5-6.25 4.02c.07-4.9 4.7-6.01 8.77-7.1 5.93-1.58 11.11-5.43 17.44-6.39 6.8-1.02 16.56 2.45 22.8 3.71 1.46.29 2.12 3.55 2.03 4.85L1139 597.3c-4.56.52-9.14-2.91-14.68 1Z" style="fill:#fff"/>
</svg>