<svg xmlns="http://www.w3.org/2000/svg" id="Layer_1" version="1.1" viewBox="46.73 259.26 223.56 154.07">
    <defs>
        <style>
            .st0{fill:#fff}
        </style>
    </defs>
    <path class="st0" d="M131.49 317.83c.55-1.45 1.99-3.22 3.72-2.79 1.57.39 2.71 2.38 2.22 4.05-1.04 3.52-2.94 5.11-5.97 5.25-2.71.13-4.88-2.34-5.65-5.47-.25-1.01.9-3.3 1.79-3.74 1.26-.63 2.9.98 3.9 2.69Z"/>
    <path d="M141.13 320.96c-1.86 3.37-5.45 5.66-8.76 5.75s-7.57-1.55-9.45-4.53l-6.24-9.89c-1.8-2.85-2.95-6.58-.8-9.48 1.71 4.14 2.08 8.79 6.27 10.09 3.23 1 7.26-1.75 8.31-5-4.75-.85-8.68-6.22-6.16-10.69s10.85-4 13.38 0c2.88 4.54-1.07 9.37-5.34 11.01 1 3.16 5.42 6.33 8.91 4.84s3.94-5.83 5.89-9.37c1.1 2.14.56 5.36-.66 7.57l-5.35 9.69Zm-9.64-3.13c-1-1.71-2.63-3.32-3.9-2.69-.89.44-2.04 2.73-1.79 3.74.77 3.13 2.94 5.6 5.65 5.47 3.03-.14 4.93-1.74 5.97-5.25.49-1.67-.66-3.66-2.22-4.05-1.73-.43-3.17 1.34-3.72 2.79ZM119.6 347.8c1.07-2.79 1.42-3.53.81-1.1l6.9 9.98c-.4-1.26 8.29-18.15 8.29-12.71v2.77c3.74-2.68 6.78-5.96 10.28-9.82-1.07 5.32-5.11 8.59-9.41 11.76l-1.38 1.02c-.35.26-.93-.79-1.6-1.67l-5.31 13.65-8.59-13.89Z"/>
    <path d="M122.16 324.62c6.29 5.81 13.62 5.26 19.34-.49-.24 5.23-5.11 7.27-9.15 7.43-4.36.17-10.19-1.58-10.18-6.93Zm27.43-39.3-6.81 1.55c-1.37.31-3.11-2.28-2.94-3.44s2.69-2.88 3.98-2.49c1.9.57 3.26 1.73 5.77 4.38m-40.48 78.24c1.51 2.55 4.09 4.65 4.95 7.56-7.21-2.17-8.68-9.69-10.05-16.15l5.11 8.59Zm9.21-76.57-3.96-1.82c.33-3.34 4.86-4.91 6.94-3.45.83.58 1.38 2.58 1.12 3.43-.31 1.01-3.14 2.29-4.1 1.85Zm18.79 87.11c-.5-6.46 3.08-12.4 9.26-16.02-3.25 4.92-6.26 10.25-9.26 16.02m27.09-27.09c1.95-5.62 2.96-10.45 3.27-16.09 3.01 5.19 1.16 11.93-3.27 16.09"/>
    <path class="st0" d="M132.32 400.89c-1.5 2-2.25 4.4-3.19 7.94l-5.05-.81 2.07-8.89c-3.17 1.58-4.09 4.48-5.49 7.8-1.08-3.81 1.03-7.58 4.39-9.94 4.54-3.2 8.13-6.94 12.21-10.79 7.05-6.64 16.37-9.64 25.73-13.85-4.38-1.89-15.95 1.3-20.24 4.23l-10.08 6.88-4.49-2.94c-.99-.65-2.95-.75-4.18-.45l-7.09-7.87 1.27 8.14-4.84-5.19.07 3.75-5.69-2.52c-.62.4-2.84 1.55-2.51 2.08l1.91 3.01-14.71 5.17-9.16 3.05 2.34-6.61c-7.22 6.77-8.62 14.19-21.88 15.85l.92-6.67c-5.1 2.08-2.17 6.45-7.19 7-1.03.11-2.84-2.2-2.39-3.12l2.59-5.23c-2.6 1.23-4.12 3.19-6.12 5.76-1.01-7.85 10.18-7.9 18.06-13.26 7.48-5.1 14.6-10.5 20.74-17.18 2.37-4.48 4.36-10.75 6.06-15.1l2.12 1.67.05-10.52h-2.06c-.98-8.34-.7-6.03 5.5-14.5l3.08 5.78 2.35-.07c1.63-.05 4.26 12.56 9.3 15.26l-7.36-17.45-3.2-7.45c.28-.3-.73.78-1.95 2.1-.85-6.74 1.76-13.08 5.68-18.56l9.01 12.91c-1.9-6.47-5.81-10.73-8.27-16.83-1.04-2.58-.93-7.37-1.48-10.55-1.01-5.75-.5-10.86.46-16.95-10.41 10.1 3.35 24.72-7.1 35.57l-1.92-6.22c-3.35-3.4-9.05-9.27-6.99-15.32 1.46-4.27 12.47-18.21 12.99-17.43l-1.3-1.92 8.55-2.65c22.41-6.94 17.28-6.55 43.29 2.82 2.65 10.65 21.21 17.56 9.19 29.49-3.16 3.14-4.26 6.85-4.56 12.11-12.22-8.49 2.31-27.34-8.58-36.48.72 5.32 1.43 10.2.86 14.97l-1.58 13.08c-.33 2.71-3.13 5.72-3.19 9.26 1.71-1.93 3.15-4.11 4.3-6.08 3.55 7.51 8.59 9.72 5.53 17.89l-2.03-1.73c-.37-.31-.74.65-1.07 1.55l-5.99 16.42c3.34-3.08 5.04-6.82 6.82-11.3l2.51 2.16c3.77-4.64 4.05-10.51 3.51-17.12 6.24 2.32 9.24 8.04 11.49 13.53l3.08 7.51c1.4-6.49-.68-11.85-5.55-17.71l23.16.49c21.85.46 38.67 18.37 38.96 40l-4.31-1.51c.56 3.34 10.93 9.89 7.27 13.22-5 4.54-9.76 7.26-16.16 10.22l-.5-5.91-4.32 6.46-1.42-6.15-2.81 3.85c-1.1-2.11 1.23-5.96 3.73-6.36l12.98-2.07c-2.23-2.9-5.92-2.42-9.45-2.93-9.45-1.37-15.88-8.72-19.23-17.64l-1.32 1.94c-3.24-7.46-.07-13.81 6.5-18.79-7.24.59-11.61 8.91-10.24 15.98.98 5.05 4.15 9.35 6 14.05.98 2.49.57 5.53 2.26 8.36 1.51-2.84 1.73-5.23 1.32-7.21l7.94 5.92c-8.41 4.78-10.52.06-14.16 4.94-14.29-2.24-5.36.65-15.62 1.9l-10.25-23.14c-.74 4.82-.06 9.47 1.87 13.89l5.96 13.62c-1.37 1.98-1.89 3.23-1.63 5.97l-20.12 4.56 4.08 1.89c-23.74 1.05-15.87 9.77-29.7 14.73l-.35-7.76Zm-14-113.9c.96.44 3.79-.83 4.1-1.85.26-.84-.3-2.84-1.12-3.43-2.07-1.46-6.61.11-6.94 3.45l3.96 1.82Zm31.27-1.67c-2.51-2.65-3.87-3.81-5.77-4.38-1.29-.39-3.82 1.34-3.98 2.49s1.57 3.75 2.94 3.44zm-8.46 35.64 5.35-9.69c1.22-2.2 1.76-5.43.66-7.57-1.95 3.54-2.53 7.93-5.89 9.37s-7.91-1.68-8.91-4.84c4.27-1.64 8.22-6.48 5.34-11.01-2.54-3.99-10.98-4.25-13.38 0-2.52 4.47 1.41 9.83 6.16 10.69-1.06 3.25-5.08 6-8.31 5-4.19-1.3-4.56-5.95-6.27-10.09-2.16 2.89-1 6.63.8 9.48l6.24 9.89c1.88 2.98 6.19 4.62 9.45 4.53s6.9-2.38 8.76-5.75Zm-18.97 3.66c0 5.35 5.83 7.1 10.18 6.93 4.04-.15 8.91-2.2 9.15-7.43-5.71 5.75-13.05 6.3-19.34.49Zm42.04 22.39c4.44-4.16 6.28-10.91 3.27-16.09-.32 5.64-1.32 10.47-3.27 16.09m-44.6.79 8.59 13.89 5.31-13.65c.67.87 1.25 1.92 1.6 1.67l1.38-1.02c4.3-3.17 8.34-6.44 9.41-11.76-3.5 3.86-6.55 7.14-10.28 9.82v-2.77c0-5.44-8.7 11.45-8.3 12.71l-6.9-9.98c.62-2.43.27-1.69-.81 1.1Zm-10.49 15.76-5.11-8.59c1.38 6.46 2.84 13.98 10.05 16.15-.86-2.92-3.43-5.01-4.95-7.56Zm28 10.54c3-5.77 6.01-11.11 9.26-16.02-6.19 3.63-9.77 9.56-9.26 16.02m106.62 7.05 3.66-5.58-4.96 1.02c1.7-5.82 7.5-9.62 5.5-14.06l-6.17 7.5-3.79-9.27c-.78-1.91-.92-6.03-.85-8.11 9.92 4.71 23.04 4.7 27.93 14.16 2 3.86 1.34 8.36-2.65 10.2l-.7-6.04c-3.45 8.54-5.2 10.15-17.97 10.19Z"/>
    <path d="M147.39 402.79c-6.38 7.65-13.24 11.89-23.56 10.15-2.17-.36-5.67-1.58-6.92-3.3-1.51-2.08-1.9-5.94-.83-8.55 3.54-8.6 10.58-8.78 14.4-14.36l-12.05-2.67c-1.2-.27-4.33-.25-5.64-.36-20.12 9.08-18.06 4.55-39.17 16.8-8.25 4.79-24.45 3.59-26.44-2.53-3.12-9.62 11.04-13.77 14.46-15.47 9-4.49 17.58-10.7 24.31-18.6 3.48-4.08 6.12-12.73 7.05-17.69-6.92-14.36 11.06-19.89 7.12-29.74l-3.15-7.88c-2.31-5.76-9.51-10.14-8.59-17.65.77-6.27 9.29-10.27 12.48-20.1 1.65-5.09 7.38-4.14 10.89-6.11 12.82-7.18 26.65-7.48 39.47.21 3.03 1.82 8.93 1.23 10.72 5.19 5.61 12.38 13.73 16.88 13.08 21.74-.86 6.42-5.71 11.07-8.79 16.34-1.61 2.76 2.46 5.35 5.11 5.45l25 .97c18.16.71 32.83 12.16 39.35 28.75 4.36 11.09 19.44 6.38 30.37 17.33 4.18 4.18 5.27 9.59 3.24 14.77-2.13 5.46-6.8 7.09-12.94 8.24-5.8 1.08-12.43 1.73-17.78.19 0-3.43-.08-4.93-.89-7.83l-9.1 5.69c-5.92 3.71-15.44 4.5-20.33-.74-.88-.94-1.66-4.59-2.75-4.29s-3.21 1.89-4.31 2.78c-5.11.05-11.49.28-16.16 1.48-.77 3.3-1.35 5.7-2.83 8.6-1.25 2.45-7.34 2.46-9.51 3.95-10.63 7.3-20.18 3.07-25.31 9.22Zm-15.07-1.9.35 7.76c13.83-4.96 5.96-13.67 29.7-14.73l-4.08-1.89 20.12-4.56c-.26-2.74.26-3.99 1.63-5.97l-5.96-13.62c-1.93-4.42-2.61-9.07-1.87-13.89l10.25 23.14c10.25-1.25 1.32-4.14 15.62-1.9 3.64-4.88 5.75-.16 14.16-4.94l-7.94-5.92c.41 1.99.19 4.37-1.32 7.21-1.69-2.82-1.28-5.87-2.26-8.36-1.86-4.71-5.03-9-6-14.05-1.37-7.07 3-15.39 10.24-15.98-6.56 4.98-9.73 11.33-6.5 18.79l1.32-1.94c3.35 8.92 9.78 16.27 19.23 17.64 3.52.51 7.22.03 9.45 2.93l-12.98 2.07c-2.5.4-4.83 4.25-3.73 6.36l2.81-3.85 1.42 6.15 4.32-6.46.5 5.91c6.39-2.96 11.16-5.68 16.16-10.22 3.66-3.33-6.71-9.87-7.27-13.22l4.31 1.51c-.29-21.63-17.11-39.54-38.96-40l-23.16-.49c4.87 5.86 6.95 11.22 5.55 17.71l-3.08-7.51c-2.25-5.49-5.24-11.2-11.49-13.53.54 6.61.27 12.49-3.51 17.12l-2.51-2.16c-1.77 4.48-3.47 8.22-6.82 11.3l5.99-16.42c.33-.9.71-1.86 1.07-1.55l2.03 1.73c3.06-8.17-1.99-10.38-5.53-17.89-1.14 1.97-2.59 4.15-4.3 6.08.06-3.54 2.86-6.55 3.19-9.26l1.58-13.08c.57-4.77-.13-9.65-.86-14.97 10.88 9.14-3.64 27.99 8.58 36.48.31-5.26 1.4-8.97 4.56-12.11 12.02-11.93-6.54-18.84-9.19-29.49-26.01-9.37-20.88-9.75-43.29-2.82l-8.55 2.65 1.3 1.92c-.52-.77-11.54 13.17-12.99 17.43-2.07 6.05 3.64 11.92 6.99 15.32l1.92 6.22c10.45-10.84-3.31-25.47 7.1-35.57-.96 6.09-1.47 11.21-.46 16.95.56 3.18.44 7.97 1.48 10.55 2.46 6.1 6.37 10.36 8.27 16.83l-9.01-12.91c-3.92 5.48-6.54 11.82-5.68 18.56 1.22-1.31 2.23-2.39 1.95-2.1l3.2 7.45 7.36 17.45c-5.05-2.7-7.67-15.31-9.3-15.26l-2.35.07-3.08-5.78c-6.2 8.47-6.48 6.16-5.5 14.51h2.06l-.05 10.5-2.12-1.67c-1.71 4.35-3.69 10.62-6.06 15.1-6.14 6.69-13.26 12.08-20.74 17.18-7.88 5.37-19.07 5.41-18.06 13.26 2-2.57 3.52-4.53 6.12-5.76l-2.59 5.23c-.45.92 1.36 3.23 2.39 3.12 5.02-.55 2.09-4.93 7.19-7l-.92 6.67c13.26-1.66 14.66-9.08 21.88-15.85l-2.34 6.61 9.16-3.05 14.71-5.17-1.91-3.01c-.33-.53 1.89-1.67 2.51-2.08l5.69 2.52-.07-3.75 4.84 5.19-1.27-8.14 7.09 7.87c1.22-.3 3.18-.2 4.18.45l4.49 2.94 10.08-6.88c4.3-2.93 15.86-6.12 20.24-4.23-9.37 4.21-18.68 7.21-25.73 13.85-4.08 3.84-7.66 7.59-12.21 10.79-3.36 2.36-5.47 6.13-4.39 9.94 1.4-3.32 2.31-6.22 5.49-7.8l-2.07 8.89 5.05.81c.94-3.53 1.69-5.93 3.19-7.94Zm111.41-19.74c12.77-.04 14.52-1.65 17.97-10.19l.7 6.04c3.99-1.84 4.65-6.35 2.65-10.2-4.9-9.46-18.01-9.45-27.93-14.16-.06 2.08.07 6.21.85 8.11l3.79 9.27 6.17-7.5c2.01 4.44-3.8 8.23-5.5 14.06l4.96-1.02-3.66 5.58Z"/>
</svg>