<svg xmlns="http://www.w3.org/2000/svg" id="Layer_1" version="1.1" viewBox="271.15 643.02 319.97 83.61">
    <defs>
        <style>
            .st0{fill:#fff}
        </style>
    </defs>
    <path class="st0" d="m459.16 692.72-5.67 17.91-18.36.9c-.53-1.37-.68-1.71-.82-2.2-.19-.64-2.5-.52-3.36-.54l-17.61-.31c-3.3-6.86-10.48-8.73-19.22-8.2 6.73-7.45 8.74-17.86.88-24.41 1.64 5.99 3.77 10.37.97 14.32-4.37 6.18-8.36 12.25-16.63 15.36-23.96 9.01-37.23-5.78-51.71 11.12-2.64 3.08-6.52 5.24-10.59 5.53l3.11-3.57-6.27 1.94c-.73.23-2.51-.73-2.88-1.39-1.78-3.16 5.14-1.95 7.14-4.59l-6.23-.93c.67-1.02 3.05-3.29 4.4-3.57 6.44-1.33 11.26-7.33 16.78-9.64 7.54-3.15 17.09-2.26 22.37-10.28l-8.23 3.48.4-2.23c.05-.27-.39-.05-.69 0-6.05 1.13 3.08-3.29 0-6.22l5.3-8.5c-7.72 2.2-10.3 10.87-12.49 17.96-5.56.34-10.5 1.53-14.43 5.85-2.81 3.08-7.79 4.32-11.58 6.24s-7.56 3.01-11.3 2.6l1.33-2.97c1.17-2.61-13.48 4.59-17.5 2.96l4.73-4.47-13.78 2.84c4.43-6.19 11.24-10.32 19.06-11.31l19.56-2.48c9.57-1.21 17.65-5.06 24.41-11.74 19.65-19.41 32.56-28.2 61.77-27.92 16.45.16 32.08-.64 47.89-3.26-1.83 3.35-4.43 7.01-4.48 9.41l-.23 11.72 5.13-14.6-4.32 4.6c5.7-17.89 24.06-16.26 38.68-11.56 2.67.86 5.46.68 8.36.89 8.29.61 16.1 4.13 23.86 7.85l-3.78 3.45c12.55-3.34 24.81-1.67 34.15 6.82 12.3 11.19-2.11 13.68 16.77 26.29-.91.49-3.72 1.91-4.26 2.89-1.54 2.79 2.25 7.06 4.29 8.92-2.35 4.08-9.53 6-13.42 3.72-3.1-1.82-5.96-3.16-9.35-3.74l-16.44-2.84c4.06-15.65-1.68-14.95 2.66-30.46-11.1 3.82-1.05 21.67-7.01 27.54-3.5 3.45-10.33-1.28-12.85-4.27-2.88-3.41-7.78-5.88-7.47-10.81.2-3.22 4.56-6.55 6.12-9.24 2.68-4.64 5.42-7.99 10.89-8.25-6.75-2.43-11.68 1.77-15.15 6.81-2.6 3.78-6.91 7.9-6.96 13 1.54 3.68 5.78 7.55 8.67 10.64-12.78.78-9.13-5.58-15.25-9.74l2.54 8.41c-4.3-.48-9.38-.55-11.95 3.2 3.42-.03 6.79-.2 9.82.36l27.15 5.03c8.79 1.63 16.98 3.9 25.88 5.06 3.7.48 6.8 2.96 6.85 6.57l-5.2-4.78 2.42 5.88c.25.6-2.44 2.18-2.76 1.62l-1.51-2.57c-.98-1.68-2.43-3.2-4.1-4.18l1.96 6.6c-14.74.59-11.41-4.45-32.7-3.98-12 .27-25.48.96-36.75.09-2.1-.16-6.13-1.75-8.12-1.69-.77.03-.47-2.76-1.2-2.69l-3.98.38c1.78-6.82 3.67-13.64 2.32-20.69Zm24.35-20.96c-.86-4.31-.34-7.19 1.41-10.89-5.34 2.35-6.1 10.18-2.98 13.84.69.01 2.31-.49 2.51-.06l1.15 2.38c.18.14.82-3.38.15-3.81l-2.25-1.45Zm61.42 16.8c.67-.35.43-3.03-.23-2.93l-8.5 1.39c1.23 2.88 6.24 2.84 8.72 1.54Z"/>
    <path class="st0" d="m403.55 714.52-4.48.24c.78-2.1 1.52-3.5 1.04-4.65-.59-1.41-3.34-3.15-5.17-2.84l-.76 5.58-15.25-2.19 10.85-5.77c2.25-1.2 7.29-.32 10.2-.33 6.22-.03 9.18 4.17 8.75 7.89-.12 1-2.27 1.66-3.8 1.79l2.78-2.99c-.1-.3-2.33-1-3.21-.95s-.98 1.79-.93 4.22Zm178.34-7.16-1.82-3.01c-.4-.66-2.87-.11-2.84.14 1.24 2.16 1.89 3.31 2.63 5.3l-10.62-1.12 3.24-8.91 11.56 2.31-1.43 1.59c-.38.42 1.07 1.59 1.34 2.1l1.08 1.99c.27.51-.92 1.07-1.56 1.41-.5.27-1.07-.95-1.58-1.79Z"/>
    <path d="m483.51 671.76 2.25 1.45c.67.43.03 3.95-.15 3.81l-1.15-2.38c-.21-.43-1.82.07-2.51.06-3.12-3.66-2.37-11.49 2.98-13.84-1.76 3.7-2.27 6.58-1.41 10.89Zm61.42 16.8c-2.48 1.31-7.5 1.34-8.72-1.54l8.5-1.39c.66-.11.9 2.57.23 2.93Z"/>
    <path d="M452.22 715.27c-7.71.14-16.03.82-24.23-.6-4.2-.73-10.16-4.57-14.14-.7-3.56 3.46-7.04 6.63-13.08 5.28-22.98-5.14-32.62-6.14-56.12-6.69-12.09-.28-14.06 14.35-28.57 14.06-2.52-.05-6.07-1.49-7.47-3-1.9-2.05-1.79-6.64-1.42-9.8l-11.96-.67c-5.13-.29-10.11.78-15.43-1.07l-8.65.91c.98-8.46 6.93-14.07 14.22-17.57 17.72-8.49 35.52-.91 50.06-14.96 8.92-8.61 17.94-17.05 28.93-23.05 24.54-13.4 54.17-3.31 85.55-11.41 11.13-2.87 21.44-4.79 32.77-.37 8.77 3.42-3.34-5.36 18.69 3.03l18.99 7.23c2.81 1.07 37.59-.07 37.17 29.25 4.68 3.66 9.52 8.36 14.79 10.13 3.78 1.28 19.44 1.28 18.78 12.17-.52 8.65-18.56 6.07-24.01 5.49l-13.13 4.27c-1.14 10.63-18.54 9.6-26.36 7.18-19.2-5.95-41.34.37-66.41-3.7 4.57.74-15.94-3.76-8.97-5.42Zm6.94-22.55c1.35 7.06-.53 13.88-2.32 20.69l3.98-.38c.73-.07.43 2.72 1.2 2.69 1.99-.06 6.02 1.53 8.12 1.69 11.27.87 24.76.18 36.75-.09 21.3-.47 17.97 4.57 32.7 3.98l-1.96-6.6c1.66.97 3.11 2.5 4.1 4.18l1.51 2.57c.33.56 3.01-1.02 2.76-1.62l-2.42-5.88 5.2 4.78c-.06-3.62-3.15-6.09-6.85-6.57-8.9-1.16-17.09-3.43-25.88-5.06l-27.15-5.03c-3.03-.56-6.41-.39-9.82-.36 2.57-3.75 7.65-3.67 11.95-3.2l-2.54-8.41c6.12 4.16 2.47 10.52 15.25 9.74-2.88-3.09-7.13-6.96-8.67-10.64.05-5.1 4.36-9.22 6.96-13 3.47-5.05 8.4-9.24 15.15-6.81-5.46.26-8.21 3.61-10.89 8.25-1.55 2.69-5.91 6.02-6.12 9.24-.31 4.93 4.58 7.4 7.47 10.81 2.52 2.99 9.35 7.72 12.85 4.27 5.96-5.87-4.09-23.72 7.01-27.54-4.34 15.51 1.4 14.81-2.66 30.46l16.44 2.84c3.39.59 6.24 1.92 9.35 3.74 3.89 2.28 11.06.36 13.42-3.72-2.03-1.87-5.82-6.13-4.29-8.92.54-.98 3.34-2.4 4.26-2.89-18.88-12.62-4.47-15.1-16.77-26.29-9.34-8.49-21.6-10.16-34.15-6.82l3.78-3.45c-7.75-3.72-15.57-7.24-23.86-7.85-2.89-.21-5.69-.04-8.36-.89-14.62-4.7-32.97-6.33-38.68 11.56l4.32-4.6-5.13 14.6.23-11.72c.05-2.41 2.64-6.06 4.48-9.41-15.81 2.61-31.44 3.41-47.89 3.26-29.2-.28-42.12 8.51-61.77 27.92-6.76 6.68-14.84 10.53-24.41 11.74l-19.56 2.48c-7.81.99-14.63 5.13-19.06 11.31l13.78-2.84-4.73 4.47c4.02 1.64 18.67-5.57 17.5-2.96l-1.33 2.97c3.73.41 7.52-.69 11.3-2.6s8.77-3.16 11.58-6.24c3.94-4.31 8.87-5.5 14.43-5.85 2.2-7.09 4.77-15.76 12.49-17.96l-5.3 8.5c3.08 2.93-6.04 7.35 0 6.22.3-.06.74-.28.69 0l-.4 2.23 8.23-3.48c-5.28 8.03-14.83 7.14-22.37 10.28-5.53 2.31-10.35 8.31-16.78 9.64-1.35.28-3.72 2.55-4.4 3.57l6.23.93c-2 2.65-8.92 1.43-7.14 4.59.37.66 2.15 1.62 2.88 1.39l6.27-1.94-3.11 3.57c4.07-.29 7.95-2.45 10.59-5.53 14.47-16.9 27.75-2.12 51.71-11.12 8.27-3.11 12.26-9.18 16.63-15.36 2.8-3.95.66-8.33-.97-14.32 7.86 6.55 5.85 16.96-.88 24.41 8.74-.52 15.92 1.35 19.22 8.2l17.61.31c.86.02 3.17-.1 3.36.54.14.5.29.83.82 2.2l18.36-.9 5.67-17.91Zm122.73 14.64c.51.84 1.08 2.06 1.58 1.79.63-.34 1.83-.9 1.56-1.41l-1.08-1.99c-.27-.5-1.72-1.67-1.34-2.1l1.43-1.59-11.56-2.31-3.24 8.91 10.62 1.12c-.74-1.99-1.39-3.13-2.63-5.3-.03-.26 2.45-.8 2.84-.14l1.82 3.01Zm-178.34 7.16c-.05-2.43.05-4.17.93-4.22s3.11.65 3.21.95l-2.78 2.99c1.54-.13 3.69-.8 3.8-1.79.43-3.72-2.53-7.92-8.75-7.89-2.91.01-7.95-.86-10.2.33l-10.85 5.77 15.25 2.19.76-5.58c1.82-.31 4.58 1.43 5.17 2.84.48 1.15-.26 2.55-1.04 4.65l4.48-.24Z"/>
</svg>