<svg xmlns="http://www.w3.org/2000/svg" id="Layer_1" version="1.1" viewBox="904.77 68.63 298.09 148.24">
    <defs>
        <style>
            .st0{fill:#fff}
        </style>
    </defs>
    <path d="m1114.72 139.16 10.01 12.51c-.15-1.2-.03-2.98.39-4.05 2.14 5.14 3.02 8.85.84 13.72-1.39-9.56-6.09-14-13.12-18.26l-8.71-5.27c-4.79-2.9-7.87-10.36-5.06-16.08 1.14 5.5 2.47 10.73 6.02 14.62l.76-6.1c1.96 4.52 3.7 7.78 6.89 12.13l2-3.22Zm-28.06 6.78c7.1 7.37 18.59 9.86 20.54 16.36l-13.87-8.95c-1.45-.94-4.05-1.11-5.5-1.54-6.88-2.07-10.32-10.7-9.52-16.86 2.08 5.31 2.83 10.8 7.73 13.92l.61-2.92Zm-21.44 20.11c-3.47-1.78-4.3-5.41-5.34-9.01-1.15-5.74-2.48-12.58 3.34-16.24-3.92 8.93-2.66 17.07 2.01 25.25Zm71.69-74.76-9.61.08c1.83-3.14 3.92-5.17 6.89-5.66 1.73-.28 3.22 3.35 2.72 5.58m-113.59 83.64c4.34 10.79 1.97 10.02 12.77 15.71-7.71-.08-14.51-7.56-12.77-15.71m98.21 6.15c-.93-6.15-3.03-10.78-6.38-15.59 6.33 2.83 8.04 9.75 6.38 15.59"/>
    <path d="M1080.41 210c-2.78-.59-4.6-3.45-5.05-5.21-4.76 1.13-34.48 3.71-35.62-2l-10.65-1.14c-3.37 3.43-7.38 4.99-12.02 3.96-10.45-2.33-1.08 7.79-26.78 4l-23.17-3.42 2.38 5.88c-10.56 6.25-21.59 2.5-32.38 2.23-9.02-.23-14.74-1.73-22.35-6.17s-12.92-11.29-8.23-21.1c3.67-7.68 11.66-12.89 20.35-15.15 9.9-2.57 19.99-7.24 26.11-15.72 9.09-12.58 21.14-21.17 36.64-24.6 28.59-6.32 51.46.58 60.42-2.45l16.88-5.72c7.23-2.45 14.71-11.03 15.95-18.42 1.07-6.33 2.69-10.72 5.82-16.38 2.04-3.68 3.85-6.83 7.01-9.76 9.72-9.01 21.5-11.99 34.64-9.19 8.72 1.86 15.86 6.62 17.67 16.28l15.72 4.43c1.8.51 4.74 1.69 5.41 3.07 1.76 3.64-1.31 18.29-10.31 20.78 3.05 3.03 5.15 6.49 4.4 10.96-.18 1.08-2.07 3.47-3.1 3.32l-4.78-.66c-4.06-.56-10.4 1.07-16.74.23-.78 8.81 9.58 15.72 4.95 21.11 1.1 6.26 2.66 13.61.65 19.67-1.54 1.3-2.51 2.11-3.22 2.84-.86.89-.14 5 1.18 5.54 6.57 2.7 16.33 4.9 23.49 7.1 9.31 2.85 17.32 5.11 27 6.2 5.71.65 12.03 7.31 9.68 12.86-2.22 5.24-9.72 3.37-13.7 4.96-.24 9.44-17.9 9.01-23 8.06-11.24-2.08-23.8-3.71-34.32-1.38v-2.31c0-.42-1.91-.58-2.47-.51-15.89 1.77-32.19 1.27-48.45-2.2Zm-64.8-31.94c2.31-7.62-.19-14.21-5.44-21.71 2.06 1.09 3.9 2.32 6.82 4.34-8.7-13.23-12.53-11.26-27.86-13.61 12.25-4.16 25.96.97 29.45 12.59-.36.62-1.26 2.72-.95 3.32 2.55 4.98 3.85 16.19-2.67 19.76-2.82 1.54-4.98 2.49-7.54 5.9l9.54.42c5.67.25 9.64 3.07 11.52 8.55l19.22 1.09c1.45-2.03 1.03-.54.17 2.23 9.63 1.04 19.74 1.18 29.88-.98 2.5-7.46.29-13.9-1.62-21.17 7.2 6.42 7.65 16.16 5.02 24.24l8.12-2.57-3.8 5.95 17.64 2.18 39.45.17 5.29 1.21c-4.92-1.12 28.78 4.04 27.05 2.69l-2.89-6.94c4.72 1.36 5.66 8.82 8.71 6.03.64-.59.45-2.33 0-3.07l-1.45-2.35c-.25-.41.59-.95 1.78-2.18-1.74-.78-4.56-1.83-6.99-2.12-9.03-1.09-16.98-2.97-25.68-5.28-11.01-2.91-30.05-2.29-37.82-10.1 2.28-.08 5.04.13 7.1.32l.05-6.77 2.69 5.54c.81 1.66 5.05 4.18 5.98 2.17l4.86-10.57 2.37 4.82c3.45-7.72 4.78-15.98 4.6-24.8l3.15 2.79c-.77-6.53-2.92-11.2-5.32-16.36l2.73-1.39c.62-.31-4.86-9.34-4.27-15.18-.14-.93-4.22-.24-4.67.88-1.43 3.49-.51 8.22.93 12.25-7.88-6.09-1.73-13.82-2.39-15.27l-1.12-2.44 18.85 2.38c2.24.28 4.93-.26 6.1-1.57-7.66-.18-27.68-2.3-24.24-12.62.51-1.53 3.99-3.1 5.47-2.45 7.37 3.23 14.14 5.07 21.87 2.77 3.45-1.03 7.63-3.95 8.18-6.94-2.06-1.59-4.7-3.4-5.33-4.95-.57-1.38.05-4.67.26-6.25-4.6-1.05-11.01-2.33-13.74-5.38-2.89-8.99-8.76-13.51-17.93-14.33-7.41-.66-15.08-.89-21.74 4.12l3.09 1.27c-3.83 1.6-14.19 2.7-12 8.28-2.55 3.45-7.22 8.05-7.32 12.65-.08 3.56 2.16 8.44 4.79 9.68 11.98 5.66 12.16 10.58 15.49 9.36.98-.36 2.8-2.1 3.26-3.25 4.76-12.02-6.73-21.93-1-31.91l2.51 3.3.26-3.26c.03-.42 1.28-.4 1.28.02.11 7.25-2.57 8.19.41 16.67 3.49 9.95 1.06 21.86-6.36 22.7-2.57.29-5.47-1.11-7.25-2.9-7.38-7.45-6.46-3.6-15.33-11.33-10.2 18.28-16.96 19.21-36.29 24.84-10.88 3.17-31.34-3.92-58.9 2.12-15.19 3.33-26.83 11.99-35.74 24.26-6.5 8.95-17.43 13.39-27.67 16.32-9.84 2.82-22.29 10.85-17.91 22.76.98-3.07 2.21-6.12 4.39-8.63-.44 4.97-.91 9.05 2.25 12.71 3.98 4.62 10.04 7.19 16.05 7.19-1.63-2.68-2.77-4.5-3.64-7.02 9.36 7.68 21.17 10.44 33.37 7.12-4.54-2.89-8.2-4.57-10.96-8.64L963.4 207c-1.35-3.38-3.21-6.84-5.68-8.26l-10.67-6.17 8 .91c-2.08-2.5-5.38-4.83-8.79-5.81l-16.09-4.59c5.44-2.54 10.53.23 15.85 1.08 1-5 1.65-9.54 5.5-13.34l-.33 8.01c3.13-3.82 6.82-7.77 12.12-8.23-5.1 4.69-9.11 9.29-12.51 14.97 7.23 3.89 11.12 10.42 15.37 16.26l28.84 4.23c1.04.15 3.59.19 4.02-.55s-.45-2.03-1.53-4.49c-.73.08 1.09-.59 1.48-.62 1.26 2.96 2.36 5.54 5.42 5.33.44-1.58-.96-4.42-2.23-6.64l3.65 1.16c-2.27-7.04-26.02-2.6-35.12-5.64 1.92-6.13 11.26.43 23.19-2.95 8.22-2.33 17.2-10.56 19.32-19.57l2.43 6.05Zm143.45-53.45c1.63-5.93-3.43-9.01-8.1-8.65s-8.33-.72-13.9-1.78c9.67 6.81 9.27-1.02 22 10.43m29.5 72.8 6.91 5.57c1.17-.91.2-2.75-1.02-5.87l4.18 3.42c-3.18-8.01-12.74-5.4-25.43-9.61-15.39-5.1-21.62-5.05-34.33-10.55l-3.37 7.09c-2.46.34-3.45.28-5.4 1.59l16.83 3.02c9.3 1.67 17.72 4.76 27.2 5.8 11.54 1.27 10.33 7.26 17.25 5.39l-2.81-5.86Zm-165.79-1.11c-.89-5.9-16.29-4.35-19.89-3.14l7.57 4.01c4.49-2.43 7.76-2.42 12.32-.88Z"/>
    <path class="st0" d="m1015.61 178.06-2.43-6.05c-2.12 9.01-11.1 17.23-19.32 19.57-11.93 3.39-21.28-3.18-23.19 2.95 9.09 3.04 32.85-1.41 35.12 5.64l-3.65-1.16c1.27 2.21 2.67 5.05 2.23 6.64-3.06.21-4.16-2.37-5.42-5.33-.38.03-2.21.7-1.48.62 1.08 2.46 1.97 3.75 1.53 4.49s-2.98.7-4.02.55l-28.84-4.23c-4.25-5.85-8.14-12.37-15.37-16.26 3.4-5.68 7.41-10.28 12.51-14.97-5.31.46-8.99 4.41-12.12 8.23l.33-8.01c-3.84 3.8-4.5 8.34-5.5 13.34-5.31-.85-10.41-3.62-15.85-1.08l16.09 4.59c3.41.97 6.71 3.31 8.79 5.81l-8-.91 10.67 6.17c2.46 1.43 4.33 4.88 5.68 8.26l-11.62-5.27c2.76 4.07 6.42 5.75 10.96 8.64-12.2 3.33-24.02.56-33.37-7.12.87 2.51 2.01 4.34 3.64 7.02-6.01 0-12.07-2.56-16.05-7.19-3.15-3.66-2.68-7.75-2.25-12.71-2.18 2.5-3.42 5.56-4.39 8.63-4.39-11.91 8.07-19.94 17.91-22.76 10.24-2.93 21.16-7.37 27.67-16.32 8.91-12.27 20.55-20.93 35.74-24.26 27.56-6.04 48.02 1.05 58.9-2.12 19.34-5.63 26.09-6.55 36.29-24.84 8.87 7.73 7.95 3.88 15.33 11.33 1.77 1.79 4.68 3.19 7.25 2.9 7.42-.84 9.85-12.75 6.36-22.7-2.98-8.49-.29-9.43-.41-16.67 0-.42-1.25-.44-1.28-.02l-.26 3.26-2.51-3.3c-5.72 9.99 5.76 19.89 1 31.91-.46 1.16-2.28 2.89-3.26 3.25-3.33 1.22-3.51-3.7-15.49-9.36-2.62-1.24-4.86-6.12-4.79-9.68.1-4.6 4.78-9.2 7.32-12.65-2.19-5.58 8.18-6.68 12-8.28l-3.09-1.27c6.65-5 14.33-4.78 21.74-4.12 9.17.82 15.04 5.34 17.93 14.33 2.73 3.05 9.14 4.33 13.74 5.38-.21 1.58-.83 4.87-.26 6.25.64 1.55 3.27 3.36 5.33 4.95-.55 2.99-4.72 5.91-8.18 6.94-7.73 2.3-14.5.46-21.87-2.77-1.48-.65-4.96.93-5.47 2.45-3.44 10.32 16.57 12.44 24.24 12.62-1.17 1.31-3.87 1.85-6.1 1.57l-18.85-2.38 1.12 2.44c.66 1.45-5.48 9.18 2.39 15.27-1.44-4.03-2.36-8.76-.93-12.25.46-1.12 4.53-1.81 4.67-.88-.59 5.84 4.89 14.86 4.27 15.18l-2.73 1.39c2.4 5.17 4.55 9.83 5.32 16.36l-3.15-2.79c.18 8.82-1.15 17.08-4.6 24.8l-2.37-4.82-4.86 10.57c-.93 2.01-5.17-.5-5.98-2.17l-2.69-5.54-.05 6.77c-2.06-.19-4.82-.4-7.1-.32 7.76 7.81 26.81 7.19 37.82 10.1 8.7 2.3 16.65 4.19 25.68 5.28 2.43.29 5.25 1.34 6.99 2.12-1.19 1.24-2.03 1.77-1.78 2.18l1.45 2.35c.46.75.65 2.48 0 3.07-3.05 2.79-3.99-4.67-8.71-6.03l2.89 6.94c1.73 1.34-31.97-3.81-27.05-2.69l-5.29-1.21-39.45-.17-17.64-2.18 3.8-5.95-8.12 2.57c2.63-8.08 2.18-17.82-5.02-24.24 1.91 7.27 4.13 13.72 1.62 21.17-10.14 2.17-20.25 2.03-29.88.98.86-2.78 1.28-4.26-.17-2.23l-19.22-1.09c-1.89-5.48-5.85-8.29-11.52-8.55l-9.54-.42c2.56-3.41 4.73-4.36 7.54-5.9 6.52-3.57 5.22-14.78 2.67-19.76-.31-.6.58-2.7.95-3.32-3.49-11.61-17.2-16.75-29.45-12.59 15.33 2.35 19.16.38 27.86 13.61-2.93-2.02-4.76-3.24-6.82-4.34 5.25 7.51 7.75 14.09 5.44 21.71Zm121.3-86.77c.5-2.23-.99-5.86-2.72-5.58-2.97.48-5.06 2.51-6.89 5.66zm-22.19 47.87-2 3.22c-3.19-4.36-4.93-7.61-6.89-12.13l-.76 6.1c-3.55-3.89-4.88-9.12-6.02-14.62-2.81 5.72.27 13.18 5.06 16.08l8.71 5.27c7.03 4.26 11.73 8.7 13.12 18.26 2.19-4.87 1.3-8.58-.84-13.72-.42 1.08-.54 2.85-.39 4.05l-10.01-12.51Zm-28.06 6.78-.61 2.92c-4.9-3.12-5.65-8.61-7.73-13.92-.8 6.16 2.64 14.78 9.52 16.86 1.45.44 4.04.61 5.5 1.54l13.87 8.95c-1.94-6.5-13.44-8.99-20.54-16.36Zm-21.44 20.11c-4.67-8.18-5.93-16.32-2.01-25.25-5.82 3.66-4.49 10.5-3.34 16.24 1.04 3.6 1.88 7.23 5.34 9.01Zm56.31 15.03c1.66-5.84-.06-12.76-6.38-15.59 3.35 4.81 5.45 9.44 6.38 15.59m-98.21-6.15c-1.74 8.15 5.06 15.62 12.77 15.71-10.8-5.69-8.44-4.92-12.77-15.71"/>
    <path class="st0" d="m1188.56 197.41 2.81 5.86c-6.92 1.87-5.71-4.12-17.25-5.39-9.48-1.04-17.9-4.13-27.2-5.8l-16.83-3.02c1.95-1.31 2.94-1.25 5.4-1.59l3.37-7.09c12.71 5.49 18.94 5.44 34.33 10.55 12.7 4.21 22.26 1.6 25.43 9.61l-4.18-3.42c1.22 3.11 2.18 4.96 1.02 5.87l-6.91-5.57Zm-29.5-72.8c-12.73-11.44-12.33-3.61-22-10.43 5.57 1.06 9.36 2.13 13.9 1.78s9.73 2.72 8.1 8.65m-136.29 71.69c-4.56-1.55-7.83-1.55-12.32.88l-7.57-4.01c3.6-1.21 18.99-2.76 19.89 3.14Z"/>
</svg>