<svg xmlns="http://www.w3.org/2000/svg" id="Layer_1" version="1.1" viewBox="34.28 415.56 228.37 190.86">
    <defs>
        <style>
            .st0{fill:#fff}
        </style>
    </defs>
    <path d="M188.43 496.97c3.75 2.28 6.98 5.89 8.19 10.13-8.7-9.27-23.67-6.37-23.4-19.32 2.54 3.79 5.02 7.16 8.98 8.84l7.62 3.23-1.39-2.87Zm7.05-17.11c4.49 11.78 5.83 5.54 7.37 13.41l-7.5-6.88c-1.44-1.32-4.6-2.8-5-4.62-.45-2 .03-5.13 1.07-6.99l1.57 7.53z"/>
    <path class="st0" d="M248.93 438.18c-1.22 1.72-6.12-.53-7.27-2.26-1.57-2.37-2.33-5.4-2.35-8.23 6.16-.4 9.68-2.57 12.87-7.47 3.45 1.27 5.83 4.19 6.72 7.96-5.38 1.36-7.26 4.19-9.98 10.01Z"/>
    <path class="st0" d="M249.92 420.17c-1.9 3.13-5.56 4.85-9.19 4.28 1.76-3.57 4.58-5.47 9.19-4.28m2.16 18.34c.2-3.66 2.53-6.99 6.23-7.08-.27 3.9-2.46 6.26-6.23 7.08M77.55 590.45c-.63 4.16.44 7.07 4.18 10.11-2.56 1.74-4.58-.19-6.9-2.99l-.25 4.74c-8.04.52-1.24-24.68 1.41-29.53 1.62-2.96 11.52-8.37 6.57-14.04l4.22-8.36c-1.34-.06-2.8.16-2.62-.19s.79-1.72 1.02-2.03l2.38-3.17c.58-.78-.83-2.41-1.44-3.72l4.87-9.43c.81-1.57 1.58-3.86 1.95-5.24l-11.26 6.38c-4.04 2.29-8.27 3.92-12.44 4.72l2.85-4.63c-6.94 1.07-12.48 1.46-18.48-.74l7.17-3.25c-7.98-2.61-14.62-4.34-18.01-11.58l5.96.82c-4.18-3.88-7.39-6.96-8.6-11.82l3.89 1.58-3.43-9.4c5.58 1.16 10.19 5.12 14.19 9.44 9.07 9.8 20.73 14.96 34.32 12.86 2.23-.35 5.43.23 7.85.85 15.12-12.84 37.42-12.32 51.16-22.78l13.64-10.39c1.54-1.17 2.48-5.02 4.67-6.2 2.64-1.42 4.27-4.09 5.12-6.29 1.34 3.05 4.61 4.41 7.86 2.92s5.18-5.22 7.73-7.87c1.84-1.92 7.7-2.92 4.82-12.88-1.2 4.78-1.87 7.53-3.42 10.72-.25-6.41-.02-11.37.74-17.38-8.44 4.26.71 20.16-12.92 24.03-2.08-10.25-10.98-9.31-5.06-15.32l8.61-8.75 7.29-7.16c6.17-6.06 13.45-6.03 21.14-3 2.45.97 7.31-1.92 9.98-2.91l7.71 3.41c-3.23 13.65-17.01 10.16-18.35 16.59-1.46 7.02 16.54 2.69 19.45 2-3.71 5.84-20.19 6.28-22.25 15.35l4.22-1.93c-1.14 6.43.22 11.03 4.28 16.23l-4.53-.69c2.62 6.48 4.38 11.78 4.11 17.39l-3.2-2.78c.51 7.54-.31 10.76-3.65 16-.82 1.29-1.72 3.34-2.45 4.32-.85 1.14-5.32.78-5.56-.22l.14-8.14-2.09 7.95-5.47 1.46c16.8 8.1 21.87.05 37.26 12.42l7.49 6.02c1.03.83 1.38 3.91.87 5.46l-4.67-4.04.73 4.44c-9.16-.95-12.49-15-26.98-7.45-.51.27-1.85.86-2.26 1.03-.52.22-.98-1.08-1.79-2.41l-8.6 4.98.03-4.23-9.62 4.76.56-4.26-8.46.48.44-2.76c.08-.5-1.17-.8-1.84-1.21-.36-5.24-.01-11.32-5.24-14.85 3.95 15.24.5 8.86 1.8 21.44l-7.58 3.14-.52-3.03c-2.54.8-7.54 3.3-10.15 3.01l-8.95-1.01c-8.02-.91-15.38-1.63-21.77 3.39-.09-1.31-.03-3.07-.35-2.83-7.96 5.88-4.99 17.3-30.76 26.27-7.38 2.57-11.51 7.82-12.78 16.17Zm117.93-110.59-2.49 2.45-1.57-7.53c-1.04 1.86-1.52 4.99-1.07 6.99.41 1.82 3.56 3.3 5 4.62l7.5 6.88c-1.53-7.87-2.88-1.63-7.37-13.41m-7.05 17.11 1.39 2.87-7.62-3.23c-3.96-1.68-6.44-5.05-8.98-8.84-.27 12.96 14.7 10.06 23.4 19.32-1.21-4.25-4.44-7.85-8.19-10.13Z"/>
    <path class="st0" d="M112.21 595.57c-1.79 1.9-8.44 2.51-10.22-.43-3.23-5.36-3.66-12.56-3.83-18.95 19.28-9.81 14.35-11.62 22.52-19.46l2.3-2.2c.63-.6 2.91.23 3.66.05 1.4-1.44 3.27-3.38 5.78-3.65-1.04 4.24-2.94 10.07-6.5 12.72l-7.68 5.71c-3.41 2.54-8.57 4.12-11.77 6.97-3.16 3.74-2.04 10.54-.42 14.52l6.17 4.72Zm140.02-69.85c-15.76 6.62-9.11-6.12-30.6 1.2-3.56 1.21-9.26-.27-13.72-1l4.75-6.71c22.54-4.83 17.36-1.65 35.68 2.61 1.32.31 3.5 2.49 3.89 3.89Z"/>
    <path d="M244.03 416.58c7.78-3.07 15.55 1.1 17.98 8.68 2.05 6.39-.94 14.47-8.09 16.97s-14.72-.53-17.59-7.87c-2.46-6.31-.08-14.7 7.7-17.77Zm5.89 3.59c-4.61-1.19-7.43.71-9.19 4.28 3.63.57 7.29-1.15 9.19-4.28m-.99 18.01c2.72-5.82 4.6-8.64 9.98-10.01-.9-3.77-3.27-6.69-6.72-7.96-3.19 4.9-6.71 7.07-12.87 7.47.02 2.83.77 5.86 2.35 8.23 1.15 1.73 6.05 3.98 7.27 2.26Zm3.15.33c3.77-.82 5.96-3.18 6.23-7.08-3.71.09-6.03 3.42-6.23 7.08m-152.77 160c-4.83-6.11-4.16-13.37-6.04-20.35-3.13.68-7.71 2.95-9.05 5.56-6.14 11.9 2.62 12.76.79 19.61-.94 3.51-11.44 4.24-15.65 1.13-1.81-1.33-3.28-5.37-2.94-8.06 1.07-8.58 2.36-16.26 4.61-24.6.65-2.41 5.97-4.57 6.28-6.75l.88-7.23c.31-2.56 1.13-4.84 2.14-7.38l-2.43-.83c-2.44-.83 5.57-8.59 5.9-13.34-6.87 3.51-17.92 9.59-22.16 1.95-5.01-1.11-11.42-2.47-15.2-6.84l1.3-3.18c-7.23-3.83-9.7-10.18-10.52-17.83l-1.05-9.76c-.09-.87-1.5-2.71-1.85-3.51-.71-1.63 7.36-7.08 20.37 5.24 5.53 5.23 10.77 11.13 18.6 13.35 7.01 1.99 17.2 2.8 24-.35 8.25-3.83 15.36-7.56 24.29-9.97 8.87-2.39 18.25-4.69 25.48-10.36l10.34-8.1-.19-3.27c-.03-.55 13.45-5.57 11.23-13.14-.52-1.77-3.69-4.33-3.57-6.04.48-7.11 4.58-5.48 8.4-13.77.9-1.95 5.33-3.43 7.11-5.35 5.78-6.22 14.05-12.3 22.98-9.51 4.75 1.48 7.82 2.48 12.98-.79 2.19-1.38 7.82-3.46 9.98-1.45 3.56 3.32 3.87 9.22 2.09 13.87-1.2 3.15-5.13 6.05-9.13 9.18l8.81-1.32c1.55.39 3.31 3.59 3.09 5.12-.25 1.71-2.09 5.18-3.77 5.9l-12.73 5.43c-7.9 12.55 8.36 15.28.65 23.4 1.44 6.02 3.28 13.4-1.39 19.07 6.35.12 11.51-2.64 16.4-1.59 7.53 1.62 14.23 3.92 21.71 6.25 1.93.6 4.1 3.92 4.15 5.67.07 2.34-1.95 5.33-4.53 6.36-10.83 4.32-18.14-6.65-26.97-.3l13.43 10.23c2.97 2.26 4.83 8.32 1.49 10.52-7.27 4.8-15.03.78-20.54-4.62-7.29-7.15-17.23 5.63-21.2 1.09l-7.77 3.24c-5.68-5.13-11.73 4.6-13.11-4.01-5.55 2.23-12.4 4.84-17.74 6.17-1.15-.26-4.26-.79-5.24-.95-9.32 4.68-14.08-4.12-16.97.65-3.38 5.57-4.46 13.47-10.33 16.79l-16.76 9.47c-2.11 1.19-1.71 8.19.46 9.34 3.34 1.76 8.56 6.76 4.49 10.74-3.02 2.95-12.59 3.08-15.66-.79Zm-21.76-8.06c1.27-8.34 5.41-13.6 12.78-16.17 25.76-8.97 22.8-20.39 30.76-26.27.32-.24.26 1.52.35 2.83 6.39-5.02 13.75-4.3 21.77-3.39l8.95 1.01c2.61.29 7.61-2.21 10.15-3.01l.52 3.03 7.58-3.14c-1.3-12.58 2.15-6.2-1.8-21.44 5.23 3.53 4.88 9.61 5.24 14.85.67.4 1.92.71 1.84 1.21l-.44 2.76 8.46-.48-.56 4.26 9.62-4.76-.03 4.23 8.6-4.98c.82 1.33 1.27 2.63 1.79 2.41.41-.17 1.75-.76 2.26-1.03 14.49-7.55 17.82 6.5 26.98 7.45l-.73-4.44 4.67 4.04c.52-1.55.17-4.63-.87-5.46l-7.49-6.02c-15.39-12.37-20.46-4.32-37.26-12.42l5.47-1.46 2.09-7.95-.14 8.14c.24 1.01 4.7 1.36 5.56.22.73-.97 1.63-3.03 2.45-4.32 3.34-5.24 4.17-8.46 3.65-16l3.2 2.78c.27-5.61-1.49-10.91-4.11-17.39l4.53.69c-4.05-5.2-5.41-9.79-4.28-16.23l-4.22 1.93c2.07-9.07 18.54-9.51 22.25-15.35-2.91.68-20.91 5.01-19.45-2 1.34-6.43 15.12-2.94 18.35-16.59l-7.71-3.41c-2.67.99-7.53 3.88-9.98 2.91-7.7-3.04-14.97-3.06-21.14 3l-7.29 7.16-8.61 8.75c-5.92 6.02 2.98 5.07 5.06 15.32 13.63-3.87 4.48-19.78 12.92-24.03-.76 6.01-.99 10.97-.74 17.38 1.55-3.19 2.21-5.94 3.42-10.72 2.88 9.96-2.98 10.97-4.82 12.88-2.54 2.65-4.61 6.43-7.73 7.87s-6.52.13-7.86-2.92c-.86 2.2-2.48 4.87-5.12 6.29-2.19 1.18-3.13 5.03-4.67 6.2l-13.64 10.39c-13.74 10.46-36.04 9.94-51.16 22.78-2.42-.63-5.62-1.2-7.85-.85-13.59 2.11-25.25-3.05-34.32-12.86-4-4.33-8.61-8.28-14.19-9.44l3.43 9.4-3.89-1.58c1.21 4.86 4.42 7.94 8.6 11.82l-5.96-.82c3.38 7.24 10.03 8.96 18.01 11.58l-7.17 3.25c6 2.21 11.54 1.82 18.48.74l-2.85 4.63c4.18-.8 8.4-2.43 12.44-4.72l11.26-6.38c-.37 1.38-1.14 3.67-1.95 5.24l-4.87 9.43c.61 1.3 2.02 2.94 1.44 3.72l-2.38 3.17c-.23.31-.83 1.66-1.02 2.03s1.27.14 2.62.19l-4.22 8.36c4.94 5.67-4.95 11.08-6.57 14.04-2.65 4.85-9.45 30.05-1.41 29.53l.25-4.74c2.33 2.8 4.34 4.73 6.9 2.99-3.74-3.05-4.81-5.95-4.18-10.11Zm174.68-64.73c-.4-1.4-2.57-3.59-3.89-3.89-18.32-4.26-13.14-7.44-35.68-2.61l-4.75 6.71c4.46.72 10.16 2.21 13.72 1 21.5-7.32 14.84 5.42 30.6-1.2Zm-140.02 69.85-6.17-4.72c-1.62-3.97-2.74-10.78.42-14.52 3.2-2.85 8.36-4.44 11.77-6.97l7.68-5.71c3.57-2.65 5.46-8.48 6.5-12.72-2.51.26-4.38 2.21-5.78 3.65-.75.18-3.03-.65-3.66-.05l-2.3 2.2c-8.16 7.84-3.24 9.65-22.52 19.46.16 6.38.59 13.59 3.83 18.95 1.78 2.94 8.42 2.33 10.22.43Z"/>
</svg>