<svg xmlns="http://www.w3.org/2000/svg" id="Layer_1" version="1.1" viewBox="557.2 254.25 187.92 189.44">
    <defs>
        <style>
            .st0{fill:#fff}
        </style>
    </defs>
    <path d="M595.38 275.46c-1.96.54-5.01 1.11-6.69 1.09-.79-.01-1.96-2.19-1.87-2.97.12-.98 2.17-3.11 3.02-2.57 1.42.9 3.42 2.57 5.53 4.45Z"/>
    <path class="st0" d="m630.38 396.3 2.46 1.8.8-10.93c.12-1.7 1.87-4.34.63-6.18-4.78-7.08-4.19-14.03-2.39-22.28-5.52 6.5-5.81 14.59-1.67 22.63l-3.63-1.05 3.67 10.31-3.78-1.06-1.1 17.58-3.27-2.24-.49 12.14-1.24-1.93c-.24-.37-.67-.39-1.87-.64l-5.73 20.43c-.63 2.25-4.52 5.11-5.55 3.78-.38-2.22-.78-4.56-.7-4.08-2.43 2.73-3.24 3.71-5.57 5.59l-.31-6.57-3.36 5.35c-2.94-6.44 6.31-4.62 8.42-18.41 1.37-8.98 5.49-44.78-4.81-49.26 1.95 8.7 4.66 14.99 2.53 23.25l-2.89-3.56-2.48 3.34-7.78-13.94-1.52 3.5-9.66-17.07c-.28-.49-.96-2.32-1.23-3.02s-1.84.65-2.6.97c-3.85-8-3.16-17.23-1.29-25.92-.51-.58-2.54-.11-3.48.42.74-5.38 3.13-10.8 5.59-15.56l-2.97-1.57c-.95-.5 6.13-11.91 6.34-16.7.91-.37 5.11 1.18 5.23 2.69.23 2.69-.11 6.21-.42 8.61l2.45-.2c.75-.06.61 2.48.75 5.15 2.59-5.13 1.72-10.55-.69-15.37l3.59-2.46-13.39-1.26c4.19-2.29 9.52 1.87 12.68-3.86-9.51 1.18-19.12.66-25.26-7.63 2.13-1.68 5.29-4.69 6.12-7.29.44-1.4-2.32-4.25-3.29-4.81 3.19-.65 13.01-7.78 9.72-9.03l-2.09-.8c2.19-6.14 8.45-9.42 14.89-10.46 8.41-1.35 15.1 1.4 21.94 5.27 4.09 2.31 7.13 3.51 9.2 8.37 1.52 3.55 5.67 7.22 6.29 11.43.46 3.12-3.95 8.12-6.64 9.27-4.28 1.83-7.3 3.8-10.94 6.46-11.47-5.08 6.62-27.62-5.08-32.1 2.42 15.01-4.68 18.15-1.9 29.91 1.09 4.61 6.84 7.81 10.48 4.7 2.44-2.09 4.57-3.64 7.91-4.48 4.99 20.47 10.24 9.19 15.24 36.38l1.98-1.38 11.21 12.09c6.1 6.58 10.4 14.18 15.45 21.57 4.81 7.05 10.26 13.31 13.86 21.14 4.39 9.53 6.01 20.58 2.43 29.89-3.18-3.15-5.46-5.07-7.79-5.31 3.94 5 6.45 8.87 8.28 15.12l-18.39 4.46c-5.95 1.44-10.8 2.43-17.45 2.72l3.96-4.2c0-.28-2.57.09-3.17.75l-3.28 3.56.34-5.45-3.45 2.78c3.19-8.92 18.28-5.18 26.19-6.53l-13.53-5c-3.26-1.2-5.9-4.28-7.5-7.05l-1.33 3.62c-1.44-3.75-2.24-6.65-3.24-10.76l-2.59.58 2.06-7.23c.2-.7-.28-2.46-.65-3.54 1.6-2.09 4.53-4.95 6.76-6.93l-.78-1.4c-.88-1.58 10.41-7.96 22.12-.38-2.69-5.62-8.92-6.73-13.91-6.59-13.4.38-22.52 20.59-18.28 33.1h3.57c.84 4.67 3.96 5.88 9.5 7.86-3.02 1.56-8.37 2.44-11.5 1.6-5.5-8.63-7.85-5.04-11.56-8.83-.32-.33-.35-1.78.11-1.76l2.74.11c.94-4.83 1.49-9.88 1.99-16.23Zm-35-120.84c-2.12-1.88-4.11-3.55-5.53-4.45-.85-.54-2.9 1.59-3.02 2.57-.09.78 1.07 2.96 1.87 2.97 1.68.02 4.73-.55 6.69-1.09Zm3.07 53.13 10.41-7.16c2.8-1.92 3.99-7.29 3.92-10.39l-4.09 8.53-1.53-3.25c-.13-.27-.61.23-.73.51l-.84 1.97zm17.97 12.94 7.96-6.29c3.09-2.44 4.17-7.98 3.24-11.28l-3.54 8.45-1.67-1.29-6 10.42Zm-35.01 8.42-2.34 3.12-1.48-11.24c-3.92 6.21-.28 11.39 3.31 16l3.97 5.11zm8.96 17.81c.03-10.04 10.38-18.97 16.19-24.54 3.03-3.22-14.12 7.96-10.92 5.69-5.9 4.18-6.47 12.91-5.26 18.85Zm139.71 54.17c-17.86-1.02-27.76 3.86-45.36.65l2.07-9.97c5.79 1.46 10.98 1.36 16.98.05 12.42-2.72 26.01-1.02 35.8 7.87l-9.19-.95-.3 2.36Z"/>
    <path class="st0" d="m578.26 431.58.62-4.73-4.94 5.15c-.92-1.08-2.05-4.16-2.3-5.8 6.59-1.43 9.84-4.92 10.73-11.08 1.82-12.59.79-25.33-1.04-38.11l6.77 13.09c2.51.53 4.82 1.22 5.72 2.66 1.74 2.79 1.64 4.92.88 7.87-.98 3.79-1.09 8.67-2.37 12.21l-4.14 11.5c-.71 1.96-1.99 5.15-3.34 6.19s-5.38 1.2-6.58 1.05Zm42.99-7.06c-.52.08-1.39-2.5-.87-2.55l2.59-.24c1.07-.1 1.69-1.23 2.95-3.83l7.02 4.88z"/>
    <path d="M590.37 367.76c-1.21-5.94-.64-14.67 5.26-18.85-3.2 2.27 13.95-8.91 10.92-5.69-5.8 5.58-16.15 14.5-16.19 24.54Z"/>
    <path d="M613.89 440.39c-5.08 4.31-13.94 4.19-18.94.84-4.12-2.76-2.37-8.83.87-11.44 2.59-2.08 5.22-5.17 5.6-8.39l2.07-17.45c.19-1.64-1.4-4.38-3.03-6.37-2.2 5.88-2.82 11.05-4.25 17.37-.76 3.36-2.89 7.41-4.09 11.17-.93 2.91-2.9 7.09-5.65 8.27-5.77 2.46-12.98 2.86-18.39-.65-2.09-1.36-1.3-6.7.12-8.88 1.2-1.84 4.57-3.49 7.24-4.83 6.43-3.21 3.42-32.37 2.26-39.66-1.83-11.57-9.27-8.78-9.32-32.11 0-3.79-5.37-3.29.9-20.5-.99-1.2-2.59-4.42-1.85-5.73l4.93-8.76c1.2-2.13 2.08-4.62 2.47-7.23-6.98-1.48-13.32-4.09-16.23-10.91-1.7-3.97-1.77-10.19-.65-14.67.54-2.18 5.4-4.22 7.62-4.77 4.36-1.08 4.97-3.66 5.91-7.41 2.38-9.41 12.84-13.55 21.47-13.99s14.98 2.79 21.89 6.79c5.86 3.38 9.58 6.71 12.15 13.08 1.62 4.01 5.15 7.85 4.96 12.82l-6.57 7.81c-.07 4.52 1.54 10.53 4.86 13.83 10.88 10.78 4.04 15.15 16.31 26.73 8.66 8.18 14.7 17.23 21.17 27.11 10.4 15.86 19.19 22.5 19.85 45.53 3.51 1.69 8.25 1.99 12.42.99 14.18-3.4 28.51-1.76 40.28 6.8 2.65 1.93 5.14 5.95 4.82 8.85l-10.15.93c-6.57.6-13.2 0-19.65.98-9.8 1.48-20.05 1.06-29.63.65-1.76 2.48-4.27 4.85-6.95 5.41l-19.89 4.16c-6.13 1.28-12.1 2.27-18.35.65-1.43-.37-4.3-2.03-4.19-3.37l.6-7.07-18.37 2.06c-1.12 4.16-1.54 8.73-4.62 11.34Zm16.49-44.09c-.51 6.35-1.05 11.4-1.99 16.23l-2.74-.11c-.46-.02-.43 1.43-.11 1.76 3.72 3.79 6.06.2 11.56 8.83 3.13.84 8.47-.05 11.5-1.6-5.54-1.98-8.66-3.2-9.5-7.87h-3.57c-4.24-12.51 4.87-32.72 18.28-33.1 4.99-.14 11.21.98 13.91 6.59-11.71-7.58-23-1.19-22.12.38l.78 1.4c-2.23 1.98-5.16 4.84-6.76 6.93.37 1.08.85 2.84.65 3.54l-2.06 7.23 2.59-.58c1 4.11 1.8 7.01 3.24 10.76l1.33-3.62c1.6 2.77 4.25 5.85 7.5 7.05l13.53 5c-7.91 1.34-23-2.4-26.19 6.53l3.45-2.78-.34 5.45 3.28-3.56c.6-.65 3.17-1.03 3.17-.75l-3.96 4.2c6.65-.29 11.51-1.28 17.45-2.72l18.39-4.46c-1.82-6.24-4.34-10.11-8.28-15.12 2.33.24 4.62 2.16 7.79 5.31 3.58-9.31 1.96-20.36-2.43-29.89-3.61-7.84-9.06-14.09-13.86-21.14-5.04-7.4-9.34-14.99-15.45-21.57l-11.21-12.09-1.98 1.38c-4.99-27.2-10.24-15.92-15.24-36.38-3.35.84-5.47 2.39-7.91 4.48-3.64 3.12-9.38-.08-10.48-4.7-2.79-11.76 4.32-14.9 1.9-29.91 11.7 4.47-6.39 27.01 5.08 32.1 3.64-2.66 6.66-4.63 10.94-6.46 2.69-1.15 7.1-6.15 6.64-9.27-.62-4.2-4.77-7.87-6.29-11.43-2.07-4.86-5.12-6.05-9.2-8.37-6.84-3.87-13.53-6.63-21.94-5.27-6.44 1.04-12.7 4.32-14.89 10.46l2.09.8c3.29 1.26-6.53 8.38-9.72 9.03.97.56 3.74 3.41 3.29 4.81-.83 2.6-3.99 5.61-6.12 7.29 6.13 8.29 15.75 8.81 25.26 7.63-3.16 5.73-8.5 1.57-12.68 3.86l13.39 1.26-3.59 2.46c2.41 4.82 3.28 10.24.69 15.37-.14-2.67 0-5.21-.75-5.15l-2.45.2c.31-2.39.65-5.91.42-8.61-.13-1.51-4.33-3.06-5.23-2.69-.21 4.79-7.29 16.2-6.34 16.7l2.97 1.57c-2.46 4.76-4.85 10.18-5.59 15.56.93-.52 2.97-1 3.48-.42-1.87 8.69-2.56 17.92 1.29 25.92.76-.32 2.34-1.64 2.6-.97s.95 2.53 1.23 3.02l9.66 17.07 1.52-3.5 7.78 13.94 2.48-3.34 2.89 3.56c2.13-8.26-.58-14.54-2.53-23.25 10.31 4.48 6.19 40.28 4.81 49.26-2.11 13.79-11.36 11.97-8.42 18.41l3.36-5.35.31 6.57c2.34-1.87 3.14-2.86 5.57-5.59-.08-.48.32 1.86.7 4.08 1.03 1.34 4.92-1.53 5.55-3.78l5.73-20.43c1.2.25 1.63.26 1.87.64l1.24 1.93.49-12.14 3.27 2.24 1.1-17.58 3.78 1.06-3.67-10.31 3.63 1.05c-4.14-8.05-3.85-16.13 1.67-22.63-1.8 8.26-2.38 15.2 2.39 22.28 1.24 1.84-.5 4.48-.63 6.18l-.8 10.93-2.46-1.8Zm-52.12 35.28c1.2.14 5.24 0 6.58-1.05s2.63-4.23 3.34-6.19l4.14-11.5c1.28-3.54 1.39-8.42 2.37-12.21.76-2.95.86-5.09-.88-7.87-.9-1.43-3.21-2.12-5.72-2.66l-6.77-13.09c1.82 12.78 2.86 25.52 1.04 38.11-.89 6.16-4.13 9.65-10.73 11.08.25 1.64 1.37 4.72 2.3 5.8l4.94-5.15-.62 4.73Zm151.82-9.65.3-2.36 9.19.95c-9.79-8.89-23.38-10.59-35.8-7.87-5.99 1.31-11.19 1.41-16.98-.05l-2.07 9.97c17.6 3.22 27.5-1.66 45.36-.65Zm-108.83 2.59 11.69-1.74-7.02-4.88c-1.26 2.6-1.88 3.73-2.95 3.83l-2.59.24c-.52.05.35 2.62.87 2.55"/>
</svg>