<svg xmlns="http://www.w3.org/2000/svg" id="Layer_1" version="1.1" viewBox="785.17 524.49 167.66 209.82">
    <defs>
        <style>
            .st0{fill:#fff}
        </style>
    </defs>
    <path d="M832.53 623.65c.34-1.92 2.42-5.09 4.54-6.45l9.97-6.37.9 3.16c3.51-3.57 5.59-6.94 7.95-11.12.12 6.81-4.65 11.86-10.06 14.97l-2.86-1.78-10.45 7.58Zm-8.07-20.77c-.22-3.95 4.15-4.56 7.77-11.22l.9 5.89 5.53-10.2c-.21 3.92-.1 6.87-1.86 8.81-1.88 2.08-4.49 3.11-7.37 3.64l-4.98 3.08Zm-21.61 25.05 4.15 14.05-6.5-7.62c-1.76-2.06-2.04-6.23-1.03-9.57l2.07 6.13 1.32-3Zm28.16-82.24c-1.3-.92-2.73-2.57-3.75-2.85l-3.01-.84c-.88-.25-1.99-2.62-1.3-3.22s3.4-1.8 4.31-1.55c2.09.57 3.75 5.04 3.75 8.46m-19.69 96.47c-1.34-8.52 4.7-16 11.64-19.12-5.86 6.11-9.62 11.79-11.64 19.12m-1.11-27.48c1-6.54 5.2-10.32 8.87-14.3-1.92 6.07-5.66 10.21-8.87 14.3"/>
    <path class="st0" d="m856.73 685.36-.43-10.19 2.86-2.91c2.38-2.42-7.99-10.8-2.09-27.82-7.06 7.02-5.66 16.86-1.99 25.86l-4.66-.13 2.45 9.17-3.81-.21-.03 12.53c0 .37-1.21 1.27-1.4 1.07l-2.09-2.15-1.3 10.62c-.18 1.48-2.68 3.8-3.25 5.14-5.2 12.36-4.2 24.8-13.46 22.7l.61-5.87-4.36 6.43c-.72.01-2.81-.36-2.69-1.07l.76-4.49-4.26 4.11c-.65-8.19 8.24-4.13 10.36-16.36 1.95-11.25 6.16-42.75-.66-50.9-2.3-2.75-3.33-4.08-3.97-7.96-3.64 8.41 6.07 9.65 3.21 26.9l-4.02-6.59-1.6 1.33-5.15-8.66-1.68 3-7.69-16.53-2.04 5.6c-2.99-7.25-6.28-15.62-7.23-23.83-.09-.75.23-3.65-.43-3.73l-2.88-.35 4.2-23.25-4.15 1.82c-.23-6.99 11.11-17.47 9.14-17.98l-4.05-1.06c5.37-5.25 8.06-11.58 7.41-19.65 7.18 4.35 7.85 13.26 6.96 21.03 3.39-5.57 3.99-16.61-2.07-21.15-5.45-4.07-22.97-12.73-20.57-19.1 6.36 5.92 18.22 17.47 27.54 14.07-2.54-2.3-4.75-3.16-8.04-4.22-6.45-2.07-21.3-13-14.93-18.91 4.19-.28 8.18-2.53 7.7-7.32 4.07 1.16 7.31 1.89 11.35.94 1.68-.4 2.54-3.42 2.45-4.82 17.31-6.29 31.58 5.62 41.49 19.06-.1 9.21 3.25 10.24 4.11 19.54l-2.08-1.89c-1.87 8.13-6.12 4.02-18.8 11.5-3.25 1.92-9.96-4.18.39-20.89 2.98-4.81 5.2-10.49 1.9-15.79-1.41 14.93-14.45 20.5-10.76 35.01.58 2.28 2.55 4.99 4.18 5.75 5.53 2.59 8.54-2.77 14.6-4.12 4.73 20.5 11.3 10.33 10.82 34.23l2.92-3.8 13.01 16.62c10.69 13.66 21.03 27.22 29.1 42.64 7.1 13.56 8.55 29.18 3.36 43.37l-3.87-2.38 2.09 5.75c-1.49 5.78-7.21 6.19-12.19 6.88l-28.25 3.93 1.6-6.58-4.43 4.72-1.25 1.3c-.26.27-1.66-.51-1.51-.85.22-.52.67-1.48 1.05-2.13l1.31-2.21c.32-.54-.83-1.27-1.61-2.26 10.43-3.41 18.57.71 29.58-2.1-12.48-4.12-28.78-8.08-28.11-25.12l-2.24 3.52c-1.89-7.12 2.55-12.71 6.47-17.31l-1.15-1.63c-.95-1.35 8.39-4.95 10.13-5.49 5.48-1.7 11.38 1.69 16.19 3.51-1.88-3.39-5.43-5.03-9-6.15-8.2-2.56-16.71-.24-21.32 7.65-3.59 6.14-7.03 15.71-4.64 22.65l4.8 6.97 8.18 7.4c-1.1.32-2.75.39-4.25.2l-3.02-.39c-1.77-.23-1.14-7.54-3.33-6.95l-3.13.84-6.64-8.92.73-11.17zm-25.72-139.67c0-3.42-1.66-7.89-3.75-8.46-.91-.25-3.62.95-4.31 1.55s.42 2.97 1.3 3.22l3.01.84c1.02.28 2.45 1.93 3.75 2.85m-6.55 57.19 4.98-3.08c2.88-.53 5.48-1.56 7.37-3.64 1.75-1.94 1.65-4.88 1.86-8.81l-5.53 10.2-.9-5.89c-3.62 6.65-7.98 7.27-7.77 11.22Zm-14.25 11.8c3.2-4.1 6.94-8.23 8.87-14.3-3.66 3.99-7.87 7.77-8.87 14.3m22.32 8.97 10.45-7.58 2.86 1.78c5.41-3.11 10.17-8.16 10.06-14.97-2.36 4.18-4.44 7.55-7.95 11.12l-.9-3.16-9.97 6.37c-2.13 1.36-4.2 4.53-4.54 6.45Zm-21.21 18.51c2.02-7.33 5.78-13.01 11.64-19.12-6.94 3.13-12.97 10.6-11.64 19.12m-8.47-14.23-1.32 3-2.07-6.13c-1 3.34-.73 7.51 1.03 9.57l6.5 7.62-4.15-14.05Zm109.39 101.53 2.97-2.34-10.07 1.44 6.3-5.67c-5.96-5.39 18.09-7.07 17.48-11.69l-13.59 2 2.52-10.38 15.65 2.86c4.07.74 8.45 2.42 11.5 5.11 3.68 3.25 4.74 8.2 1.64 12.32l-1.96-2.93c-2.22 3.5-5.25 6.22-8.83 7.58l-.1-2.22c-.02-.48-1.69.68-2.17.98-6.11 3.87-13.05 3.58-21.35 2.94Z"/>
    <path class="st0" d="m798.65 721.56 2.61-6.28c-2.91 1.87-4.13 3.39-6.67 6.03-4.49-9.13 8.9-4.12 11.19-14.76 1.69-7.89 2.25-16.15 1.74-24.31l-1.27-20.32c2.93 5.54 5.32 12.3 9.82 15.41 2.19-1.19 5.07 1.91 4.57 4.78l-3.15 18.4-3.27 6.8c-1.31 2.72-2.08 16.24-15.57 14.25m43.96-5.58c-.11-1.89 1.45-5.88 3.02-6.79l6.36-.84c-2.2-3.19-3.91-4.3-2.35-7.78l8.21 8.79c2.83.09 5.53 1.61 6 5.16l-21.25 1.45Z"/>
    <path d="M818.34 718.18c2.8-1.72 4.75-4.1 5.19-6.64 1.63-9.37 2.63-18.13 2.62-27.99-4.99 5.75-1.91 12.97-4.65 19.22-1.04 2.36-2.81 5.22-3.78 8.02-1.51 4.32-2.94 10.28-7.1 12.74-5.72 3.38-15.44 3.9-20.53-.25-2.65-2.16-.56-7.29 1.07-9.56s5.07-3.03 8.2-4.93c6.39-3.88 4.07-39.18 1.18-49.47-2.08-7.39-6.24-14.06-6.73-21.61l-2.17-.39c-3.35-.6-1.12-13.46-.29-17.18 1.21-5.46-7.24-7.87 3.98-25.34l-2-2.79c-2.02-2.82 6.83-6.99 8.95-16.77 1.03-4.76-1.33-7.81-4.73-9.5-12.07-6-15.17-18.56-9.93-30.14 1.93-4.25 3.32-8.04 9.67-6.72l12.92 2.7c3.79-4.85 8.84-6.89 14.74-7.07 12.57-.39 22.53 6.26 30.53 14.9 4.97 5.37 8.33 9.88 8.81 17.52.24 3.82 3.91 8.51 2.09 12.98-1.38 3.4-6.52 5.76-9.14 8.72-1.23 3.32 2.2 9.59 4.88 12.05 4.06 3.72 2.98 8.97 5.25 12.75 5.72 9.56 13.26 17.45 19.93 26.31 8.61 11.44 16.58 22.88 23.64 35.32 5.72 10.08 7.24 20.97 7.64 32.74 10.72 4.73 22.5 1.25 31.06 11.59 3.33 4.02 4.07 9.3 2.14 13.6-2.11 4.7-6.22 6.88-11.7 7.63-2.02.28-5.03 1.69-7.28 2.12-10.38 1.97-22.03 1.65-31.71-.43-.94-.2-3.34-1.43-3.12-2.13.27-.87.74-2 1.67-4.23l-24.9 3.76c-5.41.82-12 .39-16.68-2.57-1.45-.92-1.43-5.06-1.31-7.74l-15.37 1.09c-1.49 3.47-2.09 8.41-5.33 10.66-5.76 4-16.43 4.51-21.82-.2-3.94-3.44.54-10.54 4.12-12.75Zm38.39-32.82-3.55.02-.73 11.17 6.64 8.92 3.13-.84c2.2-.59 1.57 6.72 3.33 6.95l3.02.39c1.49.19 3.15.12 4.25-.2l-8.18-7.4-4.8-6.97c-2.39-6.93 1.05-16.5 4.64-22.65 4.61-7.89 13.12-10.21 21.32-7.65 3.57 1.11 7.12 2.76 9 6.15-4.81-1.81-10.72-5.21-16.19-3.51-1.74.54-11.08 4.14-10.13 5.49l1.15 1.63c-3.92 4.6-8.36 10.2-6.47 17.31l2.24-3.52c-.67 17.04 15.63 21 28.11 25.12-11.01 2.81-19.15-1.32-29.58 2.1.77.99 1.93 1.72 1.61 2.26l-1.31 2.21c-.38.65-.84 1.62-1.05 2.13-.15.35 1.25 1.12 1.51.85l1.25-1.3 4.43-4.72-1.6 6.58 28.25-3.93c4.98-.69 10.7-1.1 12.19-6.88l-2.09-5.75 3.87 2.38c5.19-14.19 3.74-29.8-3.36-43.37-8.07-15.42-18.41-28.98-29.1-42.64l-13.01-16.62-2.92 3.8c.48-23.9-6.08-13.73-10.82-34.23-6.07 1.35-9.08 6.71-14.6 4.12-1.64-.77-3.6-3.47-4.18-5.75-3.69-14.51 9.35-20.09 10.76-35.01 3.3 5.3 1.08 10.99-1.9 15.79-10.36 16.71-3.65 22.81-.39 20.89 12.68-7.48 16.93-3.36 18.8-11.5l2.08 1.89c-.86-9.3-4.21-10.33-4.11-19.54-9.91-13.43-24.19-25.35-41.49-19.06.1 1.41-.77 4.43-2.45 4.82-4.04.95-7.27.22-11.35-.94.48 4.79-3.51 7.04-7.7 7.32-6.38 5.91 8.48 16.84 14.93 18.91 3.29 1.05 5.5 1.92 8.04 4.22-9.32 3.4-21.18-8.16-27.54-14.07-2.39 6.36 15.13 15.02 20.57 19.1 6.06 4.53 5.46 15.58 2.07 21.15.89-7.77.22-16.68-6.96-21.03.65 8.07-2.04 14.4-7.41 19.65l4.05 1.06c1.97.51-9.37 10.99-9.14 17.98l4.15-1.82-4.2 23.25 2.88.35c.65.08.34 2.98.43 3.73.95 8.21 4.23 16.57 7.23 23.83l2.04-5.6 7.69 16.53 1.68-3 5.15 8.66 1.6-1.33 4.02 6.59c2.86-17.25-6.84-18.49-3.21-26.9.64 3.87 1.67 5.21 3.97 7.96 6.82 8.15 2.61 39.65.66 50.9-2.12 12.22-11.01 8.17-10.36 16.36l4.26-4.11-.76 4.49c-.12.71 1.97 1.08 2.69 1.07l4.36-6.43-.61 5.87c9.26 2.1 8.26-10.34 13.46-22.7.56-1.34 3.07-3.67 3.25-5.14l1.3-10.62 2.09 2.15c.19.2 1.4-.7 1.4-1.07l.03-12.53 3.81.21-2.45-9.17 4.66.13c-3.67-9-5.07-18.83 1.99-25.86-5.9 17.01 4.47 25.4 2.09 27.82l-2.86 2.91zm-58.08 36.2c13.49 1.99 14.26-11.53 15.57-14.25l3.27-6.8 3.15-18.4c.49-2.88-2.39-5.97-4.57-4.78-4.51-3.11-6.89-9.87-9.82-15.41l1.27 20.32c.51 8.16-.05 16.42-1.74 24.31-2.28 10.64-15.68 5.63-11.19 14.76 2.55-2.64 3.76-4.17 6.67-6.03zm43.96-5.58 21.25-1.45c-.47-3.56-3.17-5.07-6-5.16l-8.21-8.79c-1.56 3.48.14 4.59 2.35 7.78l-6.36.84c-1.57.91-3.13 4.9-3.02 6.79Zm69.63 13.48c8.3.64 15.24.93 21.35-2.94.49-.31 2.15-1.46 2.17-.98l.1 2.22c3.58-1.35 6.6-4.08 8.83-7.58l1.96 2.93c3.1-4.12 2.03-9.08-1.64-12.32-3.05-2.69-7.43-4.37-11.5-5.11l-15.65-2.86-2.52 10.38 13.59-2c.61 4.63-23.44 6.3-17.48 11.69l-6.3 5.67 10.07-1.44-2.97 2.34Z"/>
</svg>