<svg xmlns="http://www.w3.org/2000/svg" id="Layer_1" version="1.1" viewBox="1223.76 34.1 127.97 201.97">
    <defs>
        <style>
            .st0{fill:#fff}
        </style>
    </defs>
    <path d="M1310.68 86.34c3.32-1.43 3.62-6.07 5.83-8.88 1.21 7.67-3.42 14.81-9.76 19.34-2.91 2.08-8.09 1.64-11.05-.46-6.3-4.46-11.5-11.55-9.89-19.43 2.11 3 2.64 7.74 5.88 9.39 3 1.53 7.07-2.78 9.41-4.09 2.34 1.16 6.03 5.66 9.58 4.13m-5.66 1.58-7.41-.2c-1.41-.04-2.42 4.47-1.39 5.46 2.87 2.75 7.31 2.79 10.11-.33.9-1.01.07-4.9-1.31-4.94Z"/>
    <path d="M1307 69.49c2.98 2.54 1.14 6.61-.47 8.58-2.34 2.85-5.75 3.41-8.83 1.73-2.35-1.28-5.3-5.31-4-8.55 1.77-4.41 9.39-5.1 13.3-1.76m-6.27 65.64-4.28-9.35c-.22-.47-1.19-1.79-1.45-2.1-.35-.42-1.37.58-2.32 1.18-4.92-4.05-8.89-10.55-6.78-17.72 1.7 5.82 2.58 9.89 5.89 14.49l1.2-5.19c4.85 5.44 7.81 11.37 7.75 18.7Zm4.28 24.04c-.31-7.39 4.8-12.53 9.08-17.41l1.48 2.06c.26.37 1.43-1.15 1.65-1.58l4.38-8.45c.06 5.87-3.21 11.16-7.13 15.29l-1.08-4.17-8.38 14.27Zm1.58-33.82 3.96-11.52 1.3 7.07c2.22-3.79 3.52-7.62 4.82-12.03 1.69 7.29-2.14 13.53-6.8 18.26l-1.43-2.94c-.24-.5-1.25.66-1.85 1.15Zm-8.74 33.29-7.49-11.43-2.94 1.48c-3.02-3.85-5.72-8.66-6.25-13.87l5.97 9.79c.38-.66 1.29-2.25 1.32-2.15.04.19 9.98 9.28 9.39 16.19Zm12.58-61.72c.37 4.6-5.14 6.12-8.88 6.08-4.1-.05-9.35-1.27-9.97-6.59 6.31 4.05 11.85 5.11 18.85.51m-22.48-36.31-4.37-1.77c1.8-2.06 3.01-3.38 4.07-3.94s4.23.56 4.77 1.63c.34.67.22 2.63-.26 3.21-.6.72-3.25 1.26-4.2.88Zm31.12-1.73-6.76 1.78c-.98.26-3.02-2.23-2.89-3.28s2.41-2.86 3.59-2.68c2 .29 3.62 1.53 6.05 4.18Z"/>
    <path class="st0" d="M1301.51 203.78c6.31-6.53 1.38-2.94 7.89-12.78.45-.67-.68-2.3-1.41-3.29l-5.7 12.54c-4.14-3.7-5.79-8.74-6.84-14.24l-3.9 5.02.05-12.92c0-1.63-1.64-3.61-3.14-4.41l-2.15-7.29c-3.88 4.4 1.04 8.12 1.06 11.96l.13 31.61c.02 3.58-1.07 17.44-2.6 19.49-.72.96-3.41 1.54-4.34 1.45l-.19-6.58c-4.31 4.22-.77 6.76-5.75 6.85-2.85.05.93-5.92-.56-6.73-2.31 2.26-2.31 4.95-4.97 5.25 4.52-9.55 7.43-17.12 6.72-26.82-.88-12.11-2.89-23.84-4.45-35.94-.58-4.53-.9-8.8-2.12-13.15-2.46-8.74-3.33-17.58-1.68-26.51 2.04 2.8 3.9 5.31 6.39 7.84-2.42-7.16-4.33-12.63-4.67-19.31l-1.17.04c-2.91.11 3.13-13.44 4.33-14.98l1.49 5.53c.27 1 2.72.91 3.57 1.42l3.83 4.64-2.58-12.99-2.39 2.54c-2.66-6.9-1.24-14.75 3.38-20.91l8.19 11.17c-.93-5.09-3.65-7.89-6.14-12.28-1.93-3.39-3.43-24.63-1.18-30.86-3.23 2.9-4.37 7.29-4.3 11.81l.25 15.75c.05 3.02-2.11 6.53-4.49 8.61l-1.53-11.62-2.13 2.01c-.33.31-5.91-3.88-5.47-10.76.16-2.53 2.28-4.98 4.47-7.65l8.95-10.94-1.36-2.4 8.71-1.31c11.1-6.22 23.43-5.96 34.68-.17 2.42.62 6.33 1.13 7.67 2.35 3.45 8.66 15.69 15.92 12.8 23.93-.8 2.23-2.21 7.45-6.47 5.91l-1.86 10.86c-11.87-8.97 1.82-27.27-8.19-35.62 1.59 5.97-.01 23.36-1.24 27.32-2.03 6.53-6.5 11.52-7.86 17.88l9.31-14.23c4.38 6.48 6.25 13.39 4.28 20.03l-3.01-2.4-2.32 14.16 4.09-6.39 2.38 2.19 2.71-7.64c2.47 4.27 4.31 8.86 5.6 14.18l-2.45 1.09c-.38 6.76-2.32 12.1-4.53 19.25 2.42-2.55 3.96-5.12 6.08-8.6 2.07 8.01 1.4 16.02-.71 24.06-1.66 6.34-2.2 12.56-3.01 19.08-1.42 11.47-3.29 22.52-4.09 34.06-1.02 14.75 5 16.53 5.94 26.15l-4.15-5.16.69 4.58c.14.92-1.75 1.86-2.76 2.04l-4.2-7.21-.35 6.83c-7.15 2.92-6.57-18.54-6.57-23.1l.03-30.05c0-3.53 2.76-7.56.62-10.76l-1.91 5.61c-5.04 1.58-1.84 16.95-2.5 28.69-.31 5.43-.4 9.91 0 15.34-3.18 1.5-7.78-.57-10.15-1.9-2.95 1.18-7.5 5.71-11.29 3.14 2.94-12.07-3.54-22.33 2.86-25.86 2.1 3.84 4.09 7.11 7.71 11.5Zm-13.56-143.17c.96.39 3.6-.16 4.2-.88.48-.57.6-2.54.26-3.21-.54-1.07-3.71-2.19-4.77-1.63s-2.27 1.88-4.07 3.94l4.37 1.77Zm31.12-1.73c-2.44-2.65-4.05-3.89-6.05-4.18-1.18-.17-3.46 1.63-3.59 2.68s1.91 3.54 2.89 3.28l6.76-1.78ZM1307 69.49c-3.91-3.34-11.53-2.64-13.3 1.76-1.31 3.24 1.65 7.26 4 8.55 3.08 1.69 6.49 1.12 8.83-1.73 1.61-1.97 3.45-6.04.47-8.58m3.68 16.85c-3.55 1.53-7.24-2.97-9.58-4.13-2.34 1.31-6.41 5.62-9.41 4.09-3.24-1.65-3.77-6.39-5.88-9.39-1.61 7.89 3.59 14.97 9.89 19.43 2.96 2.1 8.14 2.54 11.05.46 6.34-4.54 10.96-11.67 9.76-19.34-2.21 2.81-2.5 7.45-5.83 8.88m-.25 10.58c-7 4.6-12.54 3.54-18.85-.51.63 5.33 5.87 6.55 9.97 6.59 3.74.04 9.25-1.48 8.88-6.08m-9.7 38.21c.06-7.32-2.9-13.26-7.75-18.7l-1.2 5.19c-3.31-4.59-4.19-8.67-5.89-14.49-2.11 7.18 1.86 13.68 6.78 17.72.96-.6 1.97-1.61 2.32-1.18.26.32 1.23 1.63 1.45 2.1l4.28 9.35Zm5.86-9.78c.6-.49 1.6-1.65 1.85-1.15l1.43 2.94c4.66-4.73 8.49-10.97 6.8-18.26-1.3 4.41-2.6 8.24-4.82 12.03l-1.3-7.07-3.96 11.52Zm-1.58 33.82 8.38-14.27 1.08 4.17c3.92-4.14 7.19-9.42 7.13-15.29l-4.38 8.45c-.22.43-1.38 1.95-1.65 1.58l-1.48-2.06c-4.29 4.88-9.39 10.01-9.08 17.41Zm-7.16-.53c.59-6.9-9.35-16-9.39-16.19-.02-.1-.93 1.49-1.32 2.15l-5.97-9.79c.53 5.21 3.23 10.02 6.25 13.87l2.94-1.48 7.49 11.43Z"/>
    <path class="st0" d="m1333.83 212.76 10.31 2.75c-.13 2.1-.18 3.23-.07 4.71l.13 1.69c.02.29-.53.7-.71.48l-1.27-1.53-2.81-3.44-.23 4.59c-.08 1.59-10.81 2.83-6.5-31.15l4.02-31.71c3.32 6.79 1.07 12.63.86 19.44l4.02-6.31 5.58 6.84-1.93 3.05c4.49 7.85-1.16 19.3-4.19 27.33-2.95.79-4.12 1.02-7.23 3.23Zm-74.56 2.18 10.25-2.09c-1.53-1.22-4.08-2.46-6.33-3.43-3.44-5.88-6.75-14.11-6.27-21.31l.61-9.16c.12-1.87 2.72-4.9 4.24-6.28l4.09 5.19c-.8-7.2-1.44-12.91.69-19.14l4.15 32.37c.78 6.06 3.68 32.93-6.58 31.28l.21-5.71-3.65 5.27c-.24.07-2.08-.11-1.94-.53l.92-2.81c.09-.27.94-1.54.95-1.56.03-.04-.45-.71-1.34-2.08Z"/>
    <path class="st0" d="M1252.47 217.64c-5.43 1.05-11.97.66-18.63.39l2.67-3.82-7.37 3.06c3.94-8.84 24.02-12.83 27.4-10.93 1.18.67 2.1 3.45 1.27 4.5l-5.33 6.8Z"/>
    <path d="M1287 233.38c-5.91 3.46-12.58 2.95-18.49.88-2.8-.98-3.41-5.13-3.26-7.88-5.29 1-10.22.02-13.26-3.89l-26.07-.38c-6.22-.09 1.37-15.88 17.55-18.67l11.31-1.95c-3.45-14.29-5.58-22.67 6.04-33.9 6.48-23.72-1.93-23.67 3.65-46.92-6.31-13.8 14.28-27.29 3.75-33.59l-1.1-7.13c-5.65-4.37-9.25-10.25-8.81-17.75 5.37-8.44 9.46-7.96 12.24-17.51 1.56-5.36 7.65-4.22 11.32-5.95 12.7-5.98 25.85-6.41 38.47.08 3.38 1.73 9.83.43 11.45 5.45 3.75 11.62 11.1 12.87 12.2 19.25 1.3 7.57-5.74 11.99-8.29 17.76-1.5 3.41-.51 6.78-4.65 9.02.25 3.22 2.39 8.58 4.27 11.07 5.13 6.79 3.63 13.44 4.26 20.53.92 10.4 1.17 19.53.34 29.92-.36 4.42 2.35 10.91 2.78 15.66 14.03 11.06 9.3 29.05 1.99 43.25 4.39 2.65 8.5 8.68 4.59 13.81-2.08 2.73-7.58 2.12-10.87 1.99-.22 1.53-.81 5.85-2.09 6.93-5.82 3.27-15.4 4-20.72-.91-2.14-1.97-2.23-7.45-3.13-10.14l-10.89-1.55c-2.67-.38-8.02 2.12-10.76 2.86-1.14 2.34-1.09 8.08-3.8 9.67Zm14.51-29.6c-3.62-4.39-5.6-7.67-7.71-11.5-6.4 3.53.08 13.79-2.86 25.86 3.79 2.56 8.35-1.97 11.29-3.14 2.37 1.34 6.97 3.4 10.15 1.9-.41-5.42-.31-9.91 0-15.34.66-11.75-2.53-27.11 2.5-28.69l1.91-5.61c2.15 3.2-.61 7.23-.62 10.76l-.03 30.05c0 4.56-.58 26.03 6.57 23.1l.35-6.83 4.2 7.21c1.01-.18 2.9-1.12 2.76-2.04l-.69-4.58 4.15 5.16c-.94-9.62-6.96-11.4-5.94-26.15.8-11.53 2.66-22.59 4.09-34.06.81-6.52 1.35-12.74 3.01-19.08 2.11-8.04 2.78-16.05.71-24.06-2.12 3.48-3.67 6.04-6.08 8.6 2.21-7.15 4.15-12.49 4.53-19.25l2.45-1.09c-1.29-5.32-3.12-9.9-5.6-14.18l-2.71 7.64-2.38-2.19-4.09 6.39 2.32-14.16 3.01 2.4c1.98-6.64.1-13.55-4.28-20.03l-9.31 14.23c1.36-6.36 5.83-11.35 7.86-17.88 1.23-3.96 2.84-21.35 1.24-27.32 10.01 8.35-3.68 26.64 8.19 35.62l1.86-10.86c4.26 1.54 5.67-3.68 6.47-5.91 2.88-8.01-9.35-15.27-12.8-23.93-1.35-1.21-5.26-1.73-7.67-2.35-11.25-5.79-23.58-6.05-34.68.17l-8.71 1.31 1.36 2.4-8.95 10.94c-2.19 2.68-4.31 5.12-4.47 7.65-.44 6.88 5.14 11.07 5.47 10.76l2.13-2.01 1.53 11.62c2.38-2.08 4.54-5.59 4.49-8.61l-.25-15.75c-.07-4.52 1.07-8.91 4.3-11.81-2.25 6.23-.74 27.46 1.18 30.86 2.49 4.39 5.22 7.18 6.14 12.28l-8.19-11.17c-4.61 6.16-6.03 14.01-3.38 20.91l2.39-2.54 2.58 12.99-3.83-4.64c-.85-.51-3.3-.42-3.57-1.42l-1.49-5.53c-1.2 1.54-7.24 15.09-4.33 14.98l1.17-.04c.34 6.67 2.25 12.15 4.67 19.31-2.48-2.53-4.35-5.04-6.39-7.84-1.65 8.93-.79 17.78 1.68 26.51 1.23 4.35 1.54 8.62 2.12 13.15 1.55 12.1 3.56 23.83 4.45 35.94.71 9.7-2.2 17.27-6.72 26.82 2.66-.3 2.66-2.99 4.97-5.25 1.49.82-2.29 6.79.56 6.73 4.98-.09 1.44-2.63 5.75-6.85l.19 6.58c.94.09 3.63-.49 4.34-1.45 1.53-2.05 2.62-15.91 2.6-19.49l-.13-31.61c-.02-3.84-4.93-7.57-1.06-11.96l2.15 7.29c1.5.79 3.15 2.78 3.14 4.41l-.05 12.92 3.9-5.02c1.04 5.5 2.7 10.54 6.84 14.24l5.7-12.54c.73.99 1.86 2.62 1.41 3.29-6.52 9.84-1.59 6.24-7.89 12.78Zm-42.24 11.16c.89 1.36 1.37 2.04 1.34 2.08-.01.01-.86 1.29-.95 1.56l-.92 2.81c-.14.42 1.69.6 1.94.53l3.65-5.27-.21 5.71c10.26 1.66 7.35-25.21 6.58-31.28l-4.15-32.37c-2.13 6.23-1.5 11.94-.69 19.14l-4.09-5.19c-1.52 1.38-4.11 4.41-4.24 6.28l-.61 9.16c-.48 7.2 2.83 15.43 6.27 21.31 2.25.97 4.8 2.2 6.33 3.43l-10.25 2.09Zm74.56-2.18c3.11-2.21 4.28-2.45 7.23-3.23 3.03-8.04 8.69-19.49 4.19-27.33l1.93-3.05-5.58-6.84-4.02 6.31c.21-6.82 2.46-12.66-.86-19.44l-4.02 31.71c-4.31 33.99 6.42 32.74 6.5 31.15l.23-4.59 2.81 3.44 1.27 1.53c.18.22.73-.19.71-.48l-.13-1.69c-.12-1.48-.06-2.61.07-4.71l-10.31-2.75Zm-81.36 4.88 5.33-6.8c.83-1.05-.09-3.83-1.27-4.5-3.38-1.91-23.45 2.08-27.4 10.93l7.37-3.06-2.67 3.82c6.65.27 13.2.66 18.63-.39Z"/>
    <path class="st0" d="M1305.02 87.92c1.38.04 2.22 3.93 1.31 4.94-2.8 3.12-7.24 3.08-10.11.33-1.04-.99-.03-5.5 1.39-5.46l7.41.2Z"/>
</svg>