<svg xmlns="http://www.w3.org/2000/svg" id="Layer_1" version="1.1" viewBox="339.33 33.9 223.06 200.66">
    <defs>
        <style>
            .st0{fill:#fff}
        </style>
    </defs>
    <path d="m414.4 208.1-.64 5.7c-.12 1.08-2.08.94-3.85 1.23l-5.57 12.42c-3.66 8.15-13.19 7.24-21.41 6.89-3.91-.17-5.95-3.37-7.99-6.05-2.19-.55-7.5-.25-9.16-1.89-2.2-2.16-1.45-6.14-.23-8.34 5.72-10.34 17.29 8.18 12.27-44.96-.28-3-3.61-2.92-4.91-4.19-4.9-4.85-7-12.67-8.68-19.08l-2.66-.16c-4.48-.27-2.36-18.02-1.55-21.77-2.52-6.7-3.72-13.8.73-20.46-1.18-1.32-2.1-2.38-2.48-3.18-.77-1.62 11.94-17.47 8.16-20.36-3.43-2.62-10.84-.55-17.91-5.44s-10.24-18.65-8.89-23.12c.46-1.52 3.38-2.84 5.25-3.25l15.06-3.28c3.28-10.3 12.04-14.2 21.89-14.83 20.4-1.32 30.87 13.11 34.25 30.92l3.04 16c.55 2.9 2.63 7.09 4.83 8.88 6.14 4.97 7.59 11.56 11.69 17.67 4.36 6.49 10.72 11.92 16.11 17.8 12.39 13.51 23.68 27.07 33.19 42.67 7.02 11.52 9.53 23.67 11.12 36.66 2.47 7.53 13.72 6.96 20.09 5.78 14.41-2.67 41.98 1.63 46.24 18.76-28.09-1.35-44.12 3.47-71.59-.56-2.98 1.42-7.09 3.19-10.76 3.36l-40.58 1.81c-5.15.23-8.5-3.27-10.47-6.61-4.77-.62-10.18.46-14.86-1.58-1.62-.7-2.2-4.94-1.66-6.52s2.75-4.38 4.4-4.86l6.67-1.95-4.56-5.95-4.61 1.84Zm5.87-17.75-.47 9.66 9.91 13.02-.14-5.71c.99 3.06 3.99 8.2 6.77 10.17 1.51 1.07 6.07.16 6.96-.11-3.56-3.25-6.42-6.85-8.71-10.6l-2.68.87c-.44.14-1.35-1.62-1.52-2.1-1.71-5-.44-10.17.48-15.24.53-2.91.92-5.22 2.92-7.58l6.78-8c8.59-4.74 19.11-2.06 26.2 3.7l-14.98-2.86c-2.58-.49-6.86 1.54-9.76 2.76l2.71 1.14-7.67 5.34c1.03-.72-6.2 15.77-4.37 18.45l3.04-4.39c2.86 11.68 7.51 14.44 18.45 19.49l-.66-3.32 11.64 6.71-26.08.05-5.05 5.11 2.89 2.15 5.38-5.33-2.47 6 45.85-2.55c-.28-8.11-4.31-12.32-8.58-18.28 4.09 2.41 6.54 5.7 10.06 9.72 7.32-13.38 2.69-32.78-4.12-44.98-5.17-9.27-10.57-18.07-17.62-26.05l-32.88-37.19c-5.06-5.73-6.07-13.48-12.62-18.64-2.92-2.3-4.32-7.8-5.15-11.45l-2.28-10.03-9.04 4.6c-4.49 2.28-8.09 9.17-14.6 7.17-1.72-.53-3.99-2.84-4.88-5.02-4.35-10.65 4.58-19.19 3.54-32.22 4.1 3.47 3.45 8.44 2.04 12.79s-5.59 18.54.18 20.47c.94.31 3.5-.22 4.34-.91l10.27-8.49c.53-.43 1.79-2.17 2.23-2.65.33-.36 1.15.83 2.11 1.75 1.71-1.83 2.36-5.56 1.01-8.35l-4.33-8.99c-.74-1.53-2.76-4.81-4.03-6.02-7.78-7.38-22.16-8.01-31.46-2.74-3.24 1.84-4.27 6.17-6.6 8.79-3.11 3.49-9.68 3.33-13.59 4.99-.39 3.11-2.13 6.75-4.49 9.01-.39 4.55 5.47 8.17 10.15 9.05 10.58 1.97 13.73-2.3 17.52.99.54.47-1.35 2.35-2.1 2.37l-14.87.39c4.97 1.41 10.76 1.11 15.61 3.26 6.34 2.81 6.54 10.75 2.95 17.07l-.59-8.79c-.1-1.47-1.49-4.02-2.47-4.89-1.53 6.95-3.54 12.52-7.19 17.73l3.56 1.03c-3.28 6.5-6.11 11.29-5.99 18.3l4.32-3-3.65 23.35 5.46-5.1c-.16 8.23.44 15.65 3.36 22.74l2.51-3.2 3.98 10.37c3 .33 3.66 1.82 5.06 4.15l1.21 2.02c.23.39 1.61-.8 1.89-.44l5.39 7.02c1.77-9.78-3.16-17.09-6.77-26.64 14.96 9.83 11.91 42.5 9.9 58.42-.47 3.76-2.82 9.2-5.74 10.69l-6.75 3.45 3.14.34c.55.06-.63 1.72-.82 2.23l-.81 2.11c-.09.24.58.32.71.27l5.06-4.27-1.29 4.56c3.85.59 9.82.64 11.7-3 2.36-4.57 3.98-9.46 6.77-13.56 4.89-7.18 2.15-3.24 3.81-13.33.06-.35 1.16.5 1.49.73l1.73 1.22-.19-9.01 3.19 3.89c.56-5.42-.05-9.22-1.15-15.24l4.28 2.71c.3-3.88-1.43-7.86-3.64-12.18l5.76 1.99c-5.1-15.41-7.99-13.67 1.05-30.49.27 9.27-5.62 11.54-.6 21.27 1.95 3.78 3.18 7.71 4.09 11.74l-3.26 2.34c1.3 5.34 1.77 10.22-.47 15.24l-2.29-4.01Zm-42.33 32.42 8.35-5.04c6.6-3.98 5.43-26.82 5.72-34.64l-4.22-.55-5.42-6.51c.6 11.76 1.31 22.74-.93 34.39-1.89 9.84-12.6 3.95-12.52 12.57l5.38-4.11-1.86 5.03c1.55.29 3.83-.13 5.5-1.14m178.62 2.61c-6.05-7.01-14.51-9.44-23.33-10.73-22.43-3.3-23.17 6.6-38.61-4.9l-4.86 14.31c20.43 3.08 32.06 2.19 51.6.59l-3.6-2.83c9.38-1.2 6.03 4.66 18.81 3.57Zm-136.54-2.49c4.78-.04 8.83-.18 14.18-1.26-1.97-3.76-5.81-5.65-9.32-5.29s-8.16 1.4-8.24 5.74l3.94-3.27z"/>
    <path class="st0" d="m420.27 190.35 2.29 4.01c2.24-5.01 1.77-9.89.47-15.24l3.26-2.34c-.91-4.03-2.15-7.96-4.09-11.74-5.02-9.73.87-12.01.6-21.27-9.03 16.83-6.15 15.08-1.05 30.49l-5.76-1.99c2.21 4.32 3.94 8.31 3.64 12.18l-4.28-2.71c1.1 6.03 1.7 9.82 1.15 15.24l-3.19-3.89.19 9.01-1.73-1.22c-.33-.23-1.43-1.08-1.49-.73-1.66 10.1 1.08 6.15-3.81 13.33-2.79 4.1-4.41 8.99-6.77 13.56-1.88 3.64-7.85 3.59-11.7 3l1.29-4.56-5.06 4.27c-.12.05-.8-.03-.71-.27l.81-2.11c.19-.5 1.37-2.17.82-2.23l-3.14-.34 6.75-3.45c2.92-1.49 5.27-6.93 5.74-10.69 2.01-15.92 5.06-48.59-9.9-58.42 3.61 9.55 8.54 16.86 6.77 26.64l-5.39-7.02c-.28-.36-1.65.83-1.89.44l-1.21-2.02c-1.41-2.34-2.06-3.83-5.06-4.15l-3.98-10.37-2.51 3.2c-2.92-7.09-3.52-14.51-3.36-22.74l-5.46 5.1 3.65-23.35-4.32 3c-.12-7.01 2.72-11.8 5.99-18.3l-3.56-1.03c3.64-5.21 5.65-10.78 7.19-17.73.98.88 2.37 3.43 2.47 4.89l.59 8.79c3.59-6.32 3.38-14.26-2.95-17.07-4.85-2.15-10.64-1.85-15.61-3.26l14.87-.39c.76-.02 2.64-1.91 2.1-2.37-3.79-3.29-6.95.98-17.52-.99-4.68-.87-10.55-4.49-10.15-9.05 2.36-2.26 4.1-5.91 4.49-9.01 3.91-1.66 10.47-1.5 13.59-4.99 2.33-2.61 3.36-6.95 6.6-8.79 9.29-5.27 23.68-4.65 31.46 2.74 1.27 1.2 3.29 4.48 4.03 6.02l4.33 8.99c1.34 2.79.7 6.52-1.01 8.35-.96-.92-1.78-2.12-2.11-1.75-.45.48-1.71 2.22-2.23 2.65l-10.27 8.49c-.84.69-3.41 1.22-4.34.91-5.77-1.93-1.65-15.92-.18-20.47s2.07-9.33-2.04-12.79c1.04 13.03-7.89 21.57-3.54 32.22.89 2.17 3.16 4.49 4.88 5.02 6.5 2 10.11-4.88 14.6-7.17l9.04-4.6 2.28 10.03c.83 3.65 2.24 9.15 5.15 11.45 6.55 5.17 7.56 12.92 12.62 18.64l32.88 37.19c7.06 7.98 12.45 16.78 17.62 26.05 6.81 12.2 11.44 31.61 4.12 44.98-3.52-4.02-5.96-7.31-10.06-9.72 4.27 5.95 8.29 10.17 8.58 18.28l-45.85 2.55 2.47-6-5.38 5.33-2.89-2.15 5.05-5.11 26.08-.05-11.64-6.71.66 3.32c-10.93-5.05-15.58-7.81-18.45-19.49l-3.04 4.39c-1.83-2.68 5.4-19.17 4.37-18.45l7.67-5.34-2.71-1.14c2.9-1.22 7.18-3.25 9.76-2.76l14.98 2.86c-7.09-5.75-17.61-8.44-26.2-3.7l-6.78 8c-1.99 2.35-2.39 4.67-2.92 7.58-.92 5.08-2.2 10.25-.48 15.24.16.47 1.08 2.24 1.52 2.1l2.68-.87c2.28 3.75 5.14 7.34 8.71 10.6-.89.27-5.45 1.18-6.96.11-2.78-1.97-5.78-7.11-6.77-10.17l.14 5.71-9.91-13.02.47-9.66Zm-43.83-137-5.42-5.72-2.66 3.02c-.47.53.63 2.75 1.32 2.74zm4.12 57.6c10.26-12.52 7.99-5.42 16.1-14.59l1.54 1.05c1.95 1.33 7.51-9.37 5.59-14.41l-4.13 11.14-2.24-4.21c-2.02 4.39-3.81 7.74-6.69 10.08l-.07-5.91c-3.78 5.71-7.52 10.25-10.11 16.85Zm17.67 10.97c6.09-3.41 10.8-6 16.58-8.19 4.2-1.48 7.41-6.22 5.98-10.87-4.73 11.68-16.05 8.44-22.57 19.06Zm-17.07 19.44-3.28 2.63c1.09-7.62 7.18-10.55 10.01-16.83-8.24 4.8-13.9 13.7-10.88 22.9zm175.4 84.02c-12.77 1.09-9.43-4.77-18.81-3.57l3.6 2.83c-19.54 1.6-31.17 2.49-51.6-.59l4.86-14.31c15.44 11.51 16.18 1.6 38.61 4.9 8.82 1.3 17.29 3.73 23.33 10.73Z"/>
    <path class="st0" d="M377.94 222.77c-1.67 1.01-3.95 1.43-5.5 1.14l1.86-5.03-5.38 4.11c-.08-8.62 10.63-2.73 12.52-12.57 2.24-11.65 1.53-22.63.93-34.39l5.42 6.51 4.22.55c-.28 7.82.89 30.66-5.72 34.64zm42.08.12.56-4.08-3.94 3.27c.08-4.34 4.8-5.38 8.24-5.74s7.35 1.52 9.32 5.29c-5.35 1.08-9.4 1.22-14.18 1.26"/>
    <path d="M380.56 110.95c2.6-6.6 6.33-11.14 10.11-16.85l.07 5.91c2.87-2.35 4.67-5.69 6.69-10.08l2.24 4.21L403.8 83c1.92 5.04-3.64 15.73-5.59 14.41l-1.54-1.05c-8.11 9.17-5.83 2.08-16.1 14.59Zm17.67 10.97c6.51-10.62 17.84-7.38 22.57-19.06 1.43 4.65-1.79 9.39-5.98 10.87-5.79 2.18-10.49 4.78-16.58 8.19Zm-17.07 19.44-4.15 8.7c-3.02-9.21 2.63-18.1 10.88-22.9-2.83 6.28-8.92 9.21-10.01 16.83zm-4.72-88.01-6.76.04c-.69 0-1.79-2.21-1.32-2.74l2.66-3.02z"/>
</svg>