<svg xmlns="http://www.w3.org/2000/svg" id="Layer_1" version="1.1" viewBox="46.1 622.86 192.56 111.22">
    <defs>
        <style>
            .st0{fill:#fff}
        </style>
    </defs>
    <path class="st0" d="m149.52 692.84-3.37 10.99-9.28-.59c.27-2.08.13-4.21.67-5.83l4.67-14.19c-6.16 5.23-8.49 12.02-9.73 19.84l-5.76-.15c5.61-8.33 7.97-16.2 8.42-25.89.27-5.88-.74-10.24-4-15.23-3.05-4.67-6.12-9.05-11.73-11.13-6.16-2.29-12.33-4-19.5-3.42l6.17 1.36c-4.64.95-8.78 1.47-12.89 3.79l12.86-.36c6.1-.17 12.25.95 16.52 4.21l-4.18 1.06c5.63 3.81 10.74 5.52 13.33 12.14l-4.15-2.15c9.63 22.83-7.05 32.33-6.2 37.92.11.72 1.84 1.6 2.81 1.66l22.26 1.32c3.8 7.54 6.6 4 12.17 8.11-5.46 2.07-13.1 3.28-17.88-.03-10.28-7.11-21.36-10.61-33.29-13.26-1.65-.37-4.46-2.36-6.18-2.18l-14.2 1.51c-9.77 1.04-17.12-3.75-22.23-11.6 1.89 11.26 10.78 14.93 21.09 14.58l13.2-.44-6.95 3.95c8.47-.1 14.8-2.04 23.17-.9l-7.39 3.45c8.72.85 15.99-.2 24.49 3.44l-7.58 1.45 16.49 5.09-7.91 2.26c4.37 1.66 7.54 1.66 13.84 2.23-12.57 4.9-25.69 4.49-39.9.67l5.58 3.33c-10.19-.56-20.14-2.41-30.36-6.83-1.66-.4-1.27.22.09 2.06-21.68-6.54-36.84-20.36-30.37-46.32 3.53-14.18 10.12-25.69 22.81-33.79 16.36-10.45 34.99-16.09 54.64-17.41 14.93-1 29.04.95 43.91 2.8 11.31 1.4 22.99.79 33.7 6.81 5.87 3.3 10.9 9.29 16.58 13.88 1.73 1.4 2.22 4.4 2.03 6.26l5.79 9.02-2.83.28c2.56 6.49 1.64 12.07 2.08 17.65.3 3.81 4.8 7.82 2.91 13.08-4.06 11.31-15.86 13.64-26.49 12.42 2.5-3.03 4.48-5.14 5.33-7.85 2.66-8.49 10.46-4.26 16.26-11.34l-6.35 1c3.65-5.52 4.17-11.07-.21-16.21-5.4-6.33-.59-8.96-7.24-18.48l2.26 10.54c-3.36-3.41-5.87-6.7-10.73-6.98 5.28 5.31 11.84 14.68 14.73 22.14.93 2.4-2.58 6.82-4.6 8.24-4.82 3.39-7.2 7.62-9.17 12.91-3.93.33-7.2-4.63-6.91-8.75l1.07-15.01c.26-3.66-1.55-8.02-4.7-9.74 4.11 16.96-2.99 17.47 1.14 32.05-6.3-1.9-11.79-.36-16.24 3.92-7.01 6.73-15.8 11.96-24.39 4.12l5.19-3.16c1.15-.7 1.49-4.82.65-5.94-2.17-2.87-6.74-3.66-10.69-4.3l4.71-7.92c-2.45-10.92.33-20.52 5.28-30.32-10.25 6.81-9.37 18.3-10.31 29.39l-1.39-15.99c-.52-5.97 1.71-9.26 5.98-13.08 9.19-8.23 25.01-11.7 38.26-9.19l-10.91-4.08 11.72-1.14c-5.98-3.39-12.67-1.67-19.1.66l-14.12 5.11c-3.79 1.37-7.43 5.31-10.55 7.94-4.67 3.93-6.33 8.66-5.24 14.72 2.34 13.02-.68 12.49 2.33 19.82Zm17.01-55.32-4.77.11c3.97-2.78 8.09-4.13 13.31-5.29-5.62-.75-11.77.18-15.97 6.01l2.96-.19c-2.98 2.68-5.78 5.8-6.54 9.95l11-10.59Zm21.1 48.6-10.65-2.35c-.3.02.54 2.8 1.3 3.24 2.11 1.23 7.86 1.32 9.35-.89"/>
    <path class="st0" d="M196.83 719.93c-.96-3.09-2.03-4.86-3.34-6.01l1 7.16c-2.43.14-5.52-.66-7.32-2.06l-7.37-5.71c3.19-2.67 6.61-6.47 10.23-7.25 6.48-1.39 19.76 6.85 15.34 13.3-1.96-2.91-3.27-4.88-5.02-6.76.55 3.44 1.64 6 1.14 7.98-.34 1.31-4.34.44-4.67-.65Z"/>
    <path d="M209.96 721.59c-9.21 6.58-21.74 5.8-29.15-2.18-2.98-3.21-5.87-1.96-9.51-1.3-4.69.85-8.97 1.59-13.53 3.95.07 2.58-1.53 4.43-4.08 5.7-11.51 5.73-23.95 6.5-36.74 6.29-16.7-.28-32.64-2.23-47.52-9.25-18.97-8.95-28.48-29.39-20.48-48.97 4.12-25.62 27.66-40.09 50.68-47.18 18.08-5.57 36.7-6.9 55.57-4.94l35.39 3.68c11.89 1.24 20.75 6.54 29.24 13.75 6.73 5.71 10.62 11.35 13.8 19.52 1.6 4.13 2.81 6.3 1.55 10.6-.86 2.94.76 8.54.04 12.38 6.33 9.47 3.71 20.85-6.08 26.69-5.31 3.17-11.78 4.1-17.98 4.34l-1.2 6.93Zm-60.44-28.75c-3.02-7.33 0-6.79-2.33-19.82-1.09-6.06.57-10.79 5.24-14.72 3.12-2.63 6.76-6.57 10.55-7.94l14.12-5.11c6.44-2.33 13.12-4.05 19.1-.66l-11.72 1.14 10.91 4.08c-13.25-2.51-29.06.96-38.26 9.19-4.27 3.82-6.5 7.11-5.98 13.08l1.39 15.99c.95-11.09.06-22.58 10.31-29.39-4.95 9.8-7.74 19.41-5.28 30.32l-4.71 7.92c3.95.64 8.52 1.43 10.69 4.3.85 1.12.51 5.23-.65 5.94l-5.19 3.16c8.6 7.84 17.38 2.62 24.39-4.12 4.46-4.28 9.94-5.82 16.24-3.92-4.13-14.59 2.97-15.1-1.14-32.05 3.15 1.73 4.96 6.09 4.7 9.74l-1.07 15.01c-.29 4.11 2.98 9.07 6.91 8.75 1.97-5.29 4.35-9.52 9.17-12.91 2.02-1.42 5.52-5.85 4.6-8.24-2.89-7.46-9.45-16.83-14.73-22.14 4.85.28 7.37 3.56 10.73 6.98l-2.26-10.54c6.65 9.52 1.84 12.15 7.24 18.48 4.38 5.14 3.86 10.69.21 16.21l6.35-1c-5.8 7.07-13.6 2.85-16.26 11.34-.85 2.72-2.84 4.82-5.33 7.85 10.63 1.21 22.44-1.11 26.49-12.42 1.89-5.26-2.61-9.27-2.91-13.08-.45-5.58.48-11.15-2.08-17.65l2.83-.28-5.79-9.02c.19-1.86-.31-4.86-2.03-6.26-5.68-4.6-10.71-10.58-16.58-13.88-10.71-6.02-22.39-5.41-33.7-6.81-14.87-1.84-28.98-3.8-43.91-2.8-19.65 1.32-38.28 6.96-54.64 17.41-12.68 8.1-19.27 19.62-22.81 33.79-6.47 25.96 8.68 39.78 30.37 46.32-1.36-1.83-1.75-2.45-.09-2.06 10.22 4.42 20.16 6.27 30.36 6.83l-5.58-3.33c14.21 3.82 27.33 4.23 39.9-.67-6.3-.57-9.48-.58-13.84-2.23l7.91-2.26-16.49-5.09 7.58-1.45c-8.5-3.64-15.77-2.59-24.49-3.44l7.39-3.45c-8.37-1.14-14.7.8-23.17.9l6.95-3.95-13.2.44c-10.32.34-19.2-3.32-21.09-14.58 5.11 7.84 12.46 12.63 22.23 11.6l14.2-1.51c1.72-.18 4.52 1.81 6.18 2.18 11.93 2.64 23.01 6.14 33.29 13.26 4.78 3.31 12.42 2.1 17.88.03-5.57-4.1-8.38-.57-12.17-8.11l-22.26-1.32c-.97-.06-2.7-.94-2.81-1.66-.85-5.59 15.83-15.09 6.2-37.92l4.15 2.15c-2.59-6.63-7.7-8.33-13.33-12.14l4.18-1.06c-4.28-3.27-10.42-4.39-16.52-4.21l-12.86.36c4.12-2.33 8.25-2.84 12.89-3.79l-6.17-1.36c7.17-.57 13.34 1.14 19.5 3.42 5.61 2.08 8.68 6.46 11.73 11.13 3.26 4.99 4.27 9.35 4 15.23-.45 9.69-2.81 17.57-8.42 25.89l5.76.15c1.24-7.81 3.57-14.6 9.73-19.84l-4.67 14.19c-.53 1.62-.39 3.75-.67 5.83l9.28.59 3.37-10.99Zm47.31 27.09c.33 1.08 4.34 1.96 4.67.65.51-1.97-.59-4.54-1.14-7.98 1.76 1.88 3.06 3.85 5.02 6.76 4.42-6.45-8.86-14.69-15.34-13.3-3.63.78-7.04 4.58-10.23 7.25l7.37 5.71c1.8 1.39 4.89 2.2 7.32 2.06l-1-7.16c1.3 1.15 2.38 2.91 3.34 6.01Z"/>
    <path d="m166.53 637.52-11 10.59c.76-4.15 3.55-7.27 6.54-9.95l-2.96.19c4.2-5.83 10.34-6.77 15.97-6.01-5.23 1.16-9.34 2.51-13.31 5.29l4.77-.11Zm21.1 48.6c-1.5 2.22-7.24 2.12-9.35.89-.76-.44-1.6-3.22-1.3-3.24z"/>
</svg>