<svg xmlns="http://www.w3.org/2000/svg" id="Layer_1" version="1.1" viewBox="49.28 33.74 256.52 201.02">
    <defs>
        <style>
            .st0{fill:#fff}
        </style>
    </defs>
    <path d="m162.85 171.58-9-7.51-2.4 1.81c-.6.45-2.11-.84-2.99-1.28-7.51 18.84-9.76 12.98-23.63 27.38-4.68 4.86-4.58 14.72-1.06 20.03 2.13 1.13 6.2 2.52 7.48 4.28 1.49 2.04 2.44 7.52.16 8.89-7.93 2.6-21.19 2.69-23.58-7.9l-5.32-23.54c-7.6 6.11-10.58 16.45-8.75 25.04 2.58 1.44 5.23 3.32 6.31 4.96 1.38 2.11 1.85 7.4-.54 8.69-5.53 3-12.48 2.56-18.53.42-2.38-.84-4.67-5.54-4.67-8.11l.04-29.5c0-6.47 7.42-10.82 8.72-16.7-2.97 2.23-16.68 15.38-22.59 10.44l-11.75 3.46c-7.63-32.32 16.53-24.74 23.99-55.87 4.31-18 8.4-27.59 24.59-36.12 10.44-5.5 20.85-9.51 32.93-10.13a278 278 0 0 1 30.8.12c16.68.99 33.08-1.17 47.77-9.66 9.61-5.56 16.21-28.44 30.7-41.1 8.3-7.25 21.53-7.22 31.06-3.37 7.09 2.87 10.69 8.32 12.7 15.44l18.33 6.79c4.24 1.57 1.11 7.56.4 10.15-4.65 16.98-16.16 15.68-30.07 17.33-1.14 4.04-.67 9.24 1.25 12.57 2.7 4.67-.71 8.08-.64 11.17.2 9.19-1.47 15.65-5.18 23.34-2.34 4.84.65 12.63-5.19 16.75l-2.92-2.25c.77 10.13-8.4 14.95-12.22 21.8s-7.28 38.35-1.41 42.76c2.99 1.41 6.47 2.57 8.14 4.53 1.78 2.09 2.87 6.52.84 8.92s-6.28 2.19-9.47 2.24l-2.59 4.98c-6.85 2.27-15.06 3.1-21.92-.67-7.37-4.05-3.67-16.99-13.21-16.57l-.8-6.39-1.65 1.25c-3.64 2.76-3.5-13.28-3.56-14.94-5.91 1.78-3.32-9.43-3.82-13.33l-10.11-6.94-2.23 4.37-7.51-4.31c-5.42-1.79-9.95-3.66-14.35-7.92l-2.52 4.21Zm-21.4-21.54c1.35 4.79 3.73 7.45 7.72 10.27l1.57-4.7 10.42 9.39-1.74-9.73 13.67 13.43.66-6.19c3.98 4.55 7.15 8.08 10.77 11.28l1.8-7.04 11.16 9.73c1.37-15.78 8.12-14.06 7.47-24.34l-.57-8.96 2.82 6.71c4.15 9.86-5.12 14.35-5.63 24.11l5.28-4.21-3.64 17.85c2.6-2.49 3.2-3.36 6.7-5.99l-2.85 19.52 4.61-3.75c-.05 5.3-.04 8.62.38 12.92l3.24-3.85c.39 2.06.9 5.19 1.61 6.67l6.19 12.87c2.08 4.32 7.6 5.35 11.5 3.53l-1.92-4.82c6 2.73.74 3.54 6.59 4.94.5.12-.05-1.11-.39-2.18-.28-.88-.05-2.47.31-3.6l-5.88-2.46c-8.63-7.99-5.01-40.07-2.96-51.19 1.24-6.73 4.38-12.69 9.46-16.79l-5.46 15.78c8.48-2.78 12.49-7.85 16.58-14.74l1.64 4.34c4.73-6.02 5.96-13.47 6.98-21.6l4.28 5.46c1.93-11.47-.39-14.62 2.51-25.14l3.04 5.57c1.28-7.13.46-13.83-.86-21.06l3.14.46-3.31-15.56-2.89 8.06c-1.57-3.19-1.39-9.63 3.05-11.6 4.58-2.04 10.14-1.75 15.6-2.91l-9.66-1.01c-.92-.1-2.31-2.62-1.51-2.89 4.61-1.53 4.77 1.71 15.1 1.52 5.21-.09 11.03-4.55 11.18-9.05-2.69-2.32-3.61-6.27-3.7-9.45-3.86-1.84-10.44-2.36-12.98-6.05-2.69-3.9-3.6-8.86-7.79-11.47-9.39-5.84-23.3-5.63-31.63 1.7-.85 1.66-2.5 4.48-3.94 6.03l-2.62 2.81c-.51.54 1.02 2.09 1.29 2.87-2.8 3.27-4.25 7.56-1.73 11 .65-.42 1.64-1.52 1.92-1.05.21.36 1.19 2.12 1.51 2.4l9.76 8.73c1.41 1.26 3.67 2.59 4.97 2.34s3.48-2.88 3.61-4.27c1.38-15.03-7.43-21.61.6-29.05-1.5 13.59 6.41 21.75 1.82 32.81-.78 1.87-3.48 4.14-5.14 4.52-1.82.41-5.14-.92-6.68-2.31l-8.39-7.57c-6.85-1.67-8.79-5.79-8.79-13.37l-8.29 14.21c-4.82 8.25-11.75 12.68-20.56 15.6-12.36 4.1-24.24 6.09-37.48 5.28-10.44-.64-20.82-.61-31.11-.25-11.74.42-21.57 4.28-31.74 9.45-8.88 4.51-16.42 10.5-19.45 20.75l-5.29 17.93c-7.14 24.2-27.27 22.35-23.34 43.28l7.23-6.31-.92 6.02 10.82-6.95-1.24 6.21c4.37-3.06 6.49-6.66 9.28-11.25l1.67 3.05c2.51-1.54 3.85-5.56 1.42-8.41l3.94-9.87-5.81-1.17 5.5-14.03c-4.64-4.57 4.95-26.36 11.4-27.85-3.83 7.89-7.01 14.36-8.89 22.3l3.92-1.28-6.51 17.69 5.97-1.58c-1.97 6.16-3.46 10.87-4.6 16.55l4.26-3.15c2.58 15.84-10.36 23.52-10.46 29.01l-.52 28.33c-.03 1.89 1.49 5.38 2.96 6.1s5.13.7 6.67.47l-1.97-5.2c1.57.94 3.01 2.07 3.75 3.15l1.59 2.31c.31.45 2.03-1.14 2.25-1.76.98-2.73-2.67-5.77-5.92-6.65-1.75-6.71-.73-16.36 3.04-22.97 7.55-13.21 23.68-15.24 30.64-28.57l1.16 3.77c5.07-6.91 7.42-13.78 11.53-22.59l2.54 6.85 2.78-8.13Zm-17.21 69.34 4.05 2.12c.15-4.06-3.91-4-7.53-5.83-2.17-1.09-9.03-19.13 4.25-29.81 5.03-4.05 9.43-8.04 14.15-13.07 1.98-2.11 4.05-7.82 5.04-10.51.23-.63-1.14-3.21-1.61-2.74l-1.6 1.58c-.72.71-1.59 1.88-2.16 1.56l-2.41-1.34c-3.17 6.25-5.91 13.74-11.95 17.64l-18.2 11.77c1.82 9.21 3.69 17.39 5.95 25.91 2.08 7.82 12.24 5.5 12.2 4.95l-.17-2.22Zm124.3-.58 4.59 4.14c-.76-9.01-10.04-1.75-11.92-14.14-2.02-13.33.15-25.72 2.09-39.19l-9.83 6.18c-1.1 8.88-4.45 37.38 3.21 42.02l8.83 5.34c.82.49 3.86.49 3.71-.38l-.68-3.96Z"/>
    <path class="st0" d="m141.45 150.04-2.78 8.13-2.54-6.85c-4.12 8.81-6.46 15.68-11.53 22.59l-1.16-3.77c-6.96 13.33-23.09 15.36-30.64 28.57-3.77 6.61-4.79 16.26-3.04 22.97 3.25.88 6.9 3.92 5.92 6.65-.22.62-1.94 2.21-2.25 1.76l-1.59-2.31c-.74-1.08-2.18-2.21-3.75-3.15l1.97 5.2c-1.53.24-5.16.28-6.67-.47s-2.99-4.21-2.96-6.1l.52-28.33c.1-5.49 13.04-13.16 10.46-29.01l-4.26 3.15c1.14-5.69 2.63-10.4 4.6-16.55l-5.97 1.58 6.51-17.69-3.92 1.28c1.88-7.94 5.06-14.41 8.89-22.3-6.46 1.49-16.04 23.28-11.4 27.85l-5.5 14.03 5.81 1.17-3.94 9.87c2.43 2.86 1.09 6.88-1.42 8.41l-1.67-3.05c-2.79 4.59-4.91 8.18-9.28 11.25l1.24-6.21-10.82 6.95.92-6.02-7.23 6.31c-3.93-20.93 16.2-19.08 23.34-43.28l5.29-17.93c3.03-10.25 10.56-16.24 19.45-20.75 10.17-5.17 19.99-9.03 31.74-9.45 10.3-.36 20.67-.39 31.11.25 13.24.81 25.12-1.18 37.48-5.28 8.81-2.92 15.74-7.35 20.56-15.6l8.29-14.21c0 7.59 1.94 11.7 8.79 13.37l8.39 7.57c1.54 1.39 4.87 2.72 6.68 2.31 1.66-.37 4.36-2.65 5.14-4.52 4.6-11.06-3.31-19.22-1.82-32.81-8.02 7.43.79 14.01-.6 29.05-.13 1.39-2.3 4.02-3.61 4.27s-3.56-1.08-4.97-2.34l-9.76-8.73c-.32-.29-1.3-2.05-1.51-2.4-.28-.47-1.27.63-1.92 1.05-2.52-3.44-1.08-7.73 1.73-11-.27-.77-1.79-2.32-1.29-2.87l2.62-2.81c1.44-1.54 3.09-4.37 3.94-6.03 8.34-7.33 22.24-7.55 31.63-1.7 4.19 2.61 5.1 7.57 7.79 11.47 2.54 3.69 9.12 4.21 12.98 6.05.09 3.18 1 7.12 3.7 9.45-.14 4.5-5.96 8.96-11.18 9.05-10.33.18-10.5-3.06-15.1-1.52-.8.27.59 2.79 1.51 2.89l9.66 1.01c-5.46 1.16-11.02.87-15.6 2.91-4.44 1.98-4.62 8.41-3.05 11.6l2.89-8.06 3.31 15.56-3.14-.46c1.32 7.24 2.14 13.93.86 21.06l-3.04-5.57c-2.9 10.52-.58 13.67-2.51 25.14l-4.28-5.46c-1.02 8.12-2.26 15.57-6.98 21.6l-1.64-4.34c-4.09 6.89-8.09 11.96-16.58 14.74l5.46-15.78c-5.09 4.1-8.22 10.06-9.46 16.79-2.05 11.12-5.67 43.2 2.96 51.19l5.88 2.46c-.36 1.13-.59 2.71-.31 3.6.33 1.07.89 2.3.39 2.18-5.85-1.4-.59-2.21-6.59-4.94l1.92 4.82c-3.9 1.82-9.42.78-11.5-3.53l-6.19-12.87c-.71-1.47-1.22-4.61-1.61-6.67l-3.24 3.85c-.42-4.3-.43-7.62-.38-12.92l-4.61 3.75 2.85-19.52c-3.5 2.63-4.1 3.5-6.7 5.99l3.64-17.85-5.28 4.21c.51-9.76 9.78-14.26 5.63-24.11l-2.82-6.71.57 8.96c.65 10.28-6.1 8.55-7.47 24.34l-11.16-9.73-1.8 7.04c-3.63-3.2-6.79-6.73-10.77-11.28l-.66 6.19-13.67-13.43 1.74 9.73-10.42-9.39-1.57 4.7c-3.99-2.82-6.37-5.48-7.72-10.27Zm135.72-94.23c.68-1.82-.53-5.9-1.82-5.39-2.33.92-4.15 2.51-6 4.73zm-26.95 36.05-1.38 5.76c-3.62-5.24-5.22-10.07-6.43-15.71-2.05 7.87 1.37 16.75 9.4 19.07 4.04 4.51 5.45 10.39 6.64 17.21 3.33-11.27-3.95-16.28-8.23-26.33m-26.98 9.12-.89 2.44c-.15.4-2.12-.4-2.35-.76l-4.9-7.76c-.54 14.97 15.54 10.02 22.63 24.86.43-8.81-9.95-11.08-14.5-18.77Zm26.09 41.14c2.07-6.86-.7-14.42-6.76-18.1 6.33 12.32 3.29 6.48 6.76 18.1m-110.93 2.91c2.89-6.98.23-14.88-5.82-18.05 3.69 5.82 4.63 11.15 5.82 18.05"/>
    <path class="st0" d="m124.24 219.38.17 2.22c.04.55-10.12 2.87-12.2-4.95-2.26-8.51-4.13-16.7-5.95-25.91l18.2-11.77c6.04-3.9 8.78-11.39 11.95-17.64l2.41 1.34c.57.32 1.44-.85 2.16-1.56l1.6-1.58c.48-.47 1.84 2.12 1.61 2.74-.99 2.69-3.05 8.4-5.04 10.51-4.72 5.03-9.12 9.03-14.15 13.07-13.28 10.68-6.41 28.72-4.25 29.81 3.63 1.83 7.68 1.77 7.53 5.83l-4.05-2.12Zm124.3-.58.68 3.96c.15.87-2.89.88-3.71.38l-8.83-5.34c-7.66-4.64-4.31-33.14-3.21-42.02l9.83-6.18c-1.94 13.47-4.11 25.86-2.09 39.19 1.88 12.39 11.16 5.13 11.92 14.14l-4.59-4.14Z"/>
    <path d="M250.22 91.86c4.28 10.05 11.56 15.06 8.23 26.33-1.19-6.82-2.6-12.7-6.64-17.21-8.03-2.32-11.45-11.2-9.4-19.07 1.21 5.64 2.81 10.48 6.43 15.71zm-26.98 9.12c4.55 7.69 14.92 9.96 14.5 18.77-7.1-14.84-23.18-9.9-22.63-24.86l4.9 7.76c.23.36 2.2 1.17 2.35.76l.89-2.44Zm26.09 41.14c-3.47-11.62-.43-5.78-6.76-18.1 6.06 3.68 8.83 11.23 6.76 18.1m-110.93 2.91c-1.19-6.9-2.13-12.23-5.82-18.05 6.06 3.16 8.71 11.07 5.82 18.05m138.77-89.22-7.82-.66c1.86-2.21 3.67-3.8 6-4.73 1.29-.51 2.5 3.57 1.82 5.39"/>
</svg>