<svg xmlns="http://www.w3.org/2000/svg" id="Layer_1" version="1.1" viewBox="967.06 518.81 128.28 215.39">
    <defs>
        <style>
            .st0{fill:#fff}
        </style>
    </defs>
    <path class="st0" d="m1030.76 666.58-2.78-2.38c-3.19 9.07 3.8 16.85 4.99 25.19 1.8 12.61-1.91 25.48-1.92 38.56-4.83 1.94-11.31 2.79-15.41.44s2.06-5.56 3.28-7.36c3.69-5.41 3.15-13.59 3.18-20 .09-20.28-10.79-18.96-17.93-43.26-5.04-17.14-4.11-34.11-1.34-52-7.69 10.81-5.93 27.27-5.93 39.38-9.76-10.08-11.51-22.78-12.64-36.39-6.12 13.11 1.37 31.12 11.61 41.35 7.29 7.29-4.99 10.23-.02 28.48l3.73 5.6-6.71 2.29c-.17 1.56 2.01 3.59 4.06 4.07 1.39.33 2.9-1.38 4.64-3.48l2.31 5.31-2.96-.67c-.67-.15-.77 2.62-.2 3.01.69.47 1.43.17 3.46-.04-.62 1.8-2.81 3.44-4.7 3.48s-5.62-1.33-6.58-3.07c-12.31-22.25-7.36-26.73-10.12-50.06-.85-7.14-3.06-14.22-4.41-21.18-3.06-15.77.45-29.82 8.65-43.78l-8.01 7.81 6.34-21.04c2.58-8.55.25-17.64 4.07-26.93-10.21 6.94-4.31 21.08-10.81 25.01-2.47-12.14-11.35-14.66-4.65-21.18 11.85-11.53 4.78-12.78 15.61-15.04 4.73-3.55 10.33-5.46 16.38-5.51 6.62-.05 11.1 2.51 16.59 5.01 4.51 2.06 6.32 2.85 8.82 7.5s5.85 8.61 8.84 13.19l-7.64 13.12c-3.54-8.21-2.4-16.02-9.47-22.86 2.17 8.39 4.02 14.59 4.48 22.28l6.7 10.46c-8.23.12-16.22-1.25-22.06 4.81 19.9-5.95 42.58 2.63 51.24 22.05 5.37 12.05 7.31 25.25 4.66 38.65-6.31-10.63-5.25-34.01-16.21-39.7 2.64 7.3 5.61 13.76 6.49 20.8 5.41 43.13 37.49 42.55 31.96 75.95-3.62-5.2-5.13-10.89-11.16-12.71l4.74 8.27c-7.96-2.36-11.42-8.07-16.78-13.99.45 3.68 1.69 6.48 3.35 10.48-9.12-3.88-10.86-13-15.34-20.64l.49 11.11c-7.56-6.47-7.69-15.73-9.29-25.34l-2.81 10.75c-3.63-9.52-1.88-18.52-1.45-28.97l-4.93 10.75 1.02-17.16c.44-7.32-.27-15.59-6.13-21.06 2.51 9.74 3.71 18.34 2.25 28.26-3.83 26.08 7.98 11.19 1.08 26.05-1.01-2.81-1.48-4.03-2.78-6.39l-1.84 12.72Zm-8.65-103.17c-4.24-4.79-11.67-5.75-17.51-3.07 6.26.5 11.13 1.3 17.51 3.07"/>
    <path class="st0" d="m1053.28 688.03-5.73 22.66c-1.85 1.58-8.1 2.52-9.94.84-3.02-2.76.89-7.1 2.28-9.36 6.43-10.44 4.43-21.39 1.78-33.9l4.69 2.01c4.45 10.38 9.3 8.3 6.91 17.75Z"/>
    <path class="st0" d="M1038.59 694.08c.6-8.91-8.15-16.69-5.89-20.81l4.04-7.38 3.03 16.45c.65 3.56-.43 8.43-1.17 11.73Z"/>
    <path d="M1022.11 563.41c-6.37-1.77-11.24-2.57-17.51-3.07 5.84-2.68 13.27-1.72 17.51 3.07"/>
    <path d="M1035.45 726.07c-1.13 12.09-20.94 7.58-22.98 5.96-6.11-4.86.33-9.86 2.72-13.88 5.47-9.24 3.35-29.51-5.42-37.86-.9.68-2.07 1.88-2.27 1.48s-.93-1.78-1.09-2.25l-5.66-17.64c-3.96 8.17-1.88 15.52 3.68 21.73 3.89 4.34 6.54 11.28 2.08 16.12-4.71 5.12-13.78 3.02-17.56-2.87-13.66-21.29-7.24-39.63-11.79-58.45-3.3-13.67-6.62-27.61-1.94-41.34-3.26-8.21 1.69-19 4.67-27.3-8.72-.28-2.52-2.53-10.52-15.03-6.04-9.44.87-11.28 8.16-23.36 2.23-3.69 6.43-4.92 9.96-6.97 11.68-6.78 23.81-7.85 35.68-.71 3.24 1.95 8.27 3.37 10.26 6.76 2.59 4.41 4.85 8.05 7.93 12.01 8.54 10.97-4.49 13.11-4.31 24.62.04 2.85 4.01 6.14 6.53 7.11 27.45 10.56 33.21 42.68 28.33 69.03 1.76 5.02 5.95 10 9.8 14.01 11.32 11.8 19.15 30.71 8.8 44.55-16.36-19.39-14.28-1.09-31.65-19.09-2.26 12.92-3.73 13.9-6.2 27.09-.73 3.89-3.41 6.62-7.61 6.59l-8.7-.06-.91 9.74Zm-4.69-59.49 1.84-12.72c1.3 2.36 1.76 3.58 2.78 6.39 6.9-14.87-4.91.03-1.08-26.05 1.46-9.92.26-18.52-2.25-28.26 5.85 5.46 6.56 13.74 6.13 21.06l-1.02 17.16 4.93-10.75c-.43 10.45-2.18 19.45 1.45 28.97l2.81-10.75c1.6 9.61 1.73 18.88 9.29 25.34l-.49-11.11c4.48 7.64 6.22 16.77 15.34 20.64-1.66-3.99-2.9-6.8-3.35-10.48 5.36 5.92 8.82 11.63 16.78 13.99l-4.74-8.27c6.03 1.82 7.54 7.51 11.16 12.71 5.53-33.4-26.56-32.82-31.96-75.95-.88-7.04-3.85-13.49-6.49-20.8 10.97 5.69 9.9 29.06 16.21 39.7 2.64-13.4.71-26.6-4.66-38.65-8.66-19.42-31.34-28-51.24-22.05 5.84-6.06 13.83-4.69 22.06-4.81l-6.7-10.46c-.46-7.69-2.31-13.89-4.48-22.28 7.07 6.83 5.92 14.65 9.47 22.86l7.64-13.12c-2.99-4.59-6.44-8.74-8.84-13.19s-4.31-5.44-8.82-7.5c-5.49-2.51-9.97-5.06-16.59-5.01-6.04.05-11.65 1.96-16.38 5.51-10.82 2.26-3.75 3.51-15.61 15.04-6.7 6.52 2.18 9.03 4.65 21.18 6.5-3.93.6-18.07 10.81-25.01-3.82 9.28-1.5 18.37-4.07 26.93L979 587.88l8.01-7.81c-8.19 13.96-11.7 28.01-8.65 43.78 1.35 6.96 3.57 14.04 4.41 21.18 2.77 23.33-2.19 27.82 10.12 50.06.96 1.73 4.74 3.1 6.58 3.07s4.08-1.68 4.7-3.48c-2.03.21-2.77.51-3.46.04-.58-.39-.47-3.16.2-3.01l2.96.67-2.31-5.31c-1.75 2.1-3.25 3.81-4.64 3.48-2.05-.48-4.23-2.5-4.06-4.07l6.71-2.29-3.73-5.6c-4.98-18.25 7.31-21.19.02-28.48-10.24-10.23-17.73-28.24-11.61-41.35 1.13 13.61 2.88 26.32 12.64 36.39 0-12.11-1.76-28.58 5.93-39.38-2.77 17.89-3.7 34.86 1.34 52 7.14 24.3 18.03 22.97 17.93 43.26-.03 6.41.51 14.59-3.18 20-1.23 1.8-7.26 5.09-3.28 7.36s10.58 1.5 15.41-.44c0-13.08 3.71-25.95 1.92-38.56-1.19-8.34-8.18-16.12-4.99-25.19l2.78 2.38Zm7.83 27.5c.74-3.3 1.83-8.17 1.17-11.73l-3.03-16.45-4.04 7.38c-2.25 4.12 6.5 11.9 5.89 20.81Zm14.69-6.05c2.39-9.46-2.46-7.38-6.91-17.75l-4.69-2.01c2.65 12.51 4.64 23.46-1.78 33.9-1.39 2.25-5.3 6.6-2.28 9.36 1.84 1.68 8.09.74 9.94-.84l5.73-22.66Z"/>
</svg>