<?xml version="1.0" encoding="UTF-8" standalone="no"?>
<!DOCTYPE svg PUBLIC "-//W3C//DTD SVG 1.1//EN" "http://www.w3.org/Graphics/SVG/1.1/DTD/svg11.dtd">
<svg width="100%" height="100%" viewBox="0 0 3838 3833" version="1.1" xmlns="http://www.w3.org/2000/svg" xmlns:xlink="http://www.w3.org/1999/xlink" xml:space="preserve" xmlns:serif="http://www.serif.com/" style="fill-rule:evenodd;clip-rule:evenodd;stroke-linejoin:round;stroke-miterlimit:2;">
    <g transform="matrix(0.416721,0,0,-0.41663,-262.534,4020.48)">
        <path d="M5322,8278C5216,8265 5036,8218 4936,8177C4837,8137 4713,8057 4622,7976C4579,7937 4551,7920 4532,7920C4427,7919 4277,7852 4180,7763C4069,7660 4025,7577 3989,7401C3962,7268 3938,7225 3860,7165C3638,6995 3560,6842 3573,6602C3580,6474 3610,6367 3670,6266C3739,6148 3797,6082 3959,5936L4003,5896L3997,5706C3984,5306 3934,5126 3714,4685C3645,4548 3583,4429 3577,4421C3570,4413 3498,4353 3415,4287C3252,4156 2969,3880 2874,3760C2771,3629 2748,3597 2674,3485C2407,3077 2238,2603 2213,2190C2207,2086 2208,2084 2234,2053C2269,2011 2317,2001 2359,2026C2399,2050 2417,2089 2425,2175C2470,2630 2673,3132 2971,3525C3130,3735 3344,3949 3600,4155C3663,4206 3723,4256 3732,4266C3754,4291 3929,4616 3992,4750C4137,5057 4198,5283 4209,5563L4215,5711L4310,5589C4425,5442 4473,5398 4567,5353C4777,5252 5036,5342 5153,5557C5197,5639 5220,5747 5220,5874C5220,5996 5207,6062 5126,6344C5044,6628 5027,6777 5056,6950C5084,7122 5085,7161 5060,7192C5049,7207 5022,7225 5000,7231C4967,7241 4957,7240 4929,7224C4911,7213 4887,7190 4877,7173C4829,7090 4811,6756 4845,6565C4854,6511 4888,6376 4920,6265C4953,6155 4984,6034 4991,5997C5008,5895 4999,5746 4971,5685C4920,5570 4803,5502 4702,5530C4640,5546 4587,5592 4504,5701C4413,5821 4325,5910 4115,6095C3961,6231 3878,6326 3840,6412C3790,6526 3776,6661 3806,6760C3833,6852 3871,6899 3996,6993C4117,7084 4155,7148 4195,7330C4226,7470 4255,7536 4313,7594C4387,7667 4515,7720 4620,7720C4664,7720 4670,7724 4746,7798C5006,8048 5453,8143 5859,8035C6105,7969 6256,7839 6377,7590C6448,7445 6481,7398 6541,7360C6591,7327 6783,7260 6969,7208C7059,7183 7080,7174 7068,7166C7014,7126 6993,7019 7025,6942C7055,6871 7171,6780 7233,6780C7262,6780 7263,6754 7237,6703C7195,6618 7165,6577 7093,6505C6915,6328 6666,6242 6365,6253C6196,6260 6111,6281 5876,6375C5665,6459 5633,6467 5580,6451C5516,6432 5498,6395 5502,6290C5505,6223 5511,6193 5532,6147C5615,5970 5795,5834 6026,5774C6103,5754 6160,5747 6281,5743L6437,5737L6494,5663C6526,5622 6550,5586 6547,5584C6545,5582 6485,5577 6414,5573C6266,5567 6121,5580 5944,5616C5810,5643 5788,5641 5751,5594C5740,5579 5730,5553 5730,5536C5730,5495 5763,5442 5793,5435L5817,5428L5792,5357C5772,5301 5766,5259 5762,5168C5757,5035 5774,4935 5820,4834C5879,4703 5994,4561 6064,4535C6103,4520 6110,4520 6144,4534C6185,4551 6216,4606 6206,4645C6203,4658 6173,4701 6140,4742C6025,4881 5975,5019 5982,5175C5985,5249 5991,5277 6014,5323C6045,5387 6040,5385 6163,5373L6230,5367L6230,5310C6230,5149 6300,4945 6417,4763C6563,4537 6621,4434 6659,4335C6727,4156 6744,4032 6728,3840C6718,3716 6719,3694 6738,3575C6807,3165 6698,2682 6468,2367C6440,2330 6417,2300 6415,2300C6413,2300 6412,2343 6411,2396C6408,2593 6350,2899 6297,2993C6258,3062 6185,3080 6131,3034C6085,2996 6083,2958 6119,2838C6174,2654 6184,2570 6184,2310C6184,2113 6181,2068 6167,2031C6136,1951 6150,1892 6207,1865C6266,1837 6298,1856 6451,2009C6658,2217 6784,2422 6878,2705C6980,3011 7007,3369 6951,3653C6933,3743 6931,3770 6940,3817C6955,3899 6952,4065 6935,4161C6899,4356 6823,4534 6682,4752C6639,4820 6588,4902 6568,4935C6499,5056 6450,5214 6450,5319L6450,5367L6514,5374C6549,5377 6610,5388 6648,5398C6708,5413 6723,5414 6742,5403C6755,5396 6796,5381 6833,5369C7082,5291 7300,5471 7301,5755C7301,5896 7256,6003 7136,6141L7071,6217L7123,6251C7255,6336 7398,6509 7458,6656C7517,6799 7568,7051 7555,7131C7545,7189 7500,7244 7438,7273C7409,7287 7234,7344 7050,7400C6866,7457 6699,7511 6679,7521C6650,7535 6636,7554 6604,7622C6504,7835 6461,7900 6360,8000C6241,8117 6092,8196 5896,8245C5730,8287 5497,8300 5322,8278ZM5980,6101C6016,6090 6073,6075 6107,6068C6155,6058 6181,6045 6224,6010C6254,5985 6279,5962 6280,5959C6281,5948 6132,5971 6055,5995C5952,6026 5867,6078 5794,6151L5737,6209L5826,6166C5875,6142 5944,6113 5980,6101ZM6917,6068C7035,5939 7080,5850 7080,5747C7079,5600 6989,5526 6875,5579C6827,5601 6764,5665 6632,5830C6576,5899 6515,5973 6496,5996L6461,6037L6543,6044C6626,6051 6775,6080 6820,6099C6862,6116 6876,6111 6917,6068Z" style="fill-rule:nonzero;"/>
        <path d="M5865,7478C5793,7452 5724,7390 5674,7305C5639,7244 5629,7205 5644,7185C5655,7169 5661,7170 5719,7199C5795,7238 5859,7251 5925,7240C6015,7226 6060,7261 6060,7347C6060,7399 6034,7444 5991,7468C5949,7492 5912,7495 5865,7478Z" style="fill-rule:nonzero;"/>
        <path d="M4795,4888C4707,4840 4723,4747 4844,4585C4975,4412 5076,4341 5397,4199C5625,4098 5737,4025 5870,3891C5980,3780 6046,3674 6086,3541C6117,3441 6144,3410 6202,3410C6313,3410 6337,3505 6271,3677C6216,3818 6146,3922 6020,4051C5860,4213 5763,4275 5450,4416C5354,4459 5243,4516 5204,4542C5115,4601 5024,4698 4969,4791C4911,4888 4853,4920 4795,4888Z" style="fill-rule:nonzero;"/>
        <path d="M4074,4000C4016,3977 4003,3894 4045,3815C4107,3699 4258,3538 4383,3453C4487,3384 4622,3320 4665,3320C4759,3320 4813,3415 4759,3484C4747,3499 4697,3531 4647,3556C4598,3580 4529,3620 4496,3644C4417,3700 4310,3814 4254,3901C4230,3938 4198,3978 4184,3989C4156,4011 4111,4015 4074,4000Z" style="fill-rule:nonzero;"/>
        <path d="M4860,3872C4837,3848 4830,3833 4830,3802C4830,3750 4860,3713 4938,3672C5074,3600 5187,3516 5296,3406C5494,3209 5580,3043 5631,2765C5651,2656 5725,2612 5801,2663C5865,2706 5863,2805 5794,3020C5726,3231 5621,3401 5450,3570C5331,3689 5251,3749 5091,3840C5018,3881 4984,3895 4944,3898C4895,3902 4888,3900 4860,3872Z" style="fill-rule:nonzero;"/>
    </g>
</svg>
