<?xml version="1.0" encoding="UTF-8" standalone="no"?>
<!DOCTYPE svg PUBLIC "-//W3C//DTD SVG 1.1//EN" "http://www.w3.org/Graphics/SVG/1.1/DTD/svg11.dtd">
<svg width="100%" height="100%" viewBox="0 0 3511 3515" version="1.1" xmlns="http://www.w3.org/2000/svg" xmlns:xlink="http://www.w3.org/1999/xlink" xml:space="preserve" xmlns:serif="http://www.serif.com/" style="fill-rule:evenodd;clip-rule:evenodd;stroke-linejoin:round;stroke-miterlimit:2;">
    <g transform="matrix(0.416629,0,0,-0.416723,-530.629,3901.54)">
        <path d="M5703,8438C5560,8426 5372,8363 5228,8279C5008,8151 4763,7897 4699,7732C4668,7653 4668,7524 4697,7458C4732,7382 4777,7323 4836,7278L4891,7236L4885,7126C4866,6788 4840,6579 4795,6406C4763,6281 4748,6241 4650,6020C4609,5926 4561,5790 4521,5655C4492,5556 4430,5466 4223,5230C4018,4994 3956,4918 3843,4765C3316,4049 3026,3127 3146,2539L3151,2513L3023,2507C2953,2504 2843,2492 2780,2480C2423,2414 2254,2284 2273,2092C2285,1976 2379,1879 2535,1821C2674,1769 2601,1770 5173,1770L7620.01,1770C7725.84,1770.24 7721.2,1921.09 7620.01,1920L7310,1920L7330,1957C7355,2004 7357,2097 7334,2164C7314,2223 7228,2317 7167,2348C7100,2381 7029,2392 6952,2380L6887,2369L6847,2407C6734,2517 6657,2677 6590,2940C6509,3263 6470,3592 6470,3959C6470,4267 6473,4279 6568,4479C6687,4726 6727,4852 6755,5067C6809,5475 6720,5818 6475,6155C6292,6407 6267,6461 6266,6610C6265,6694 6268,6710 6290,6750C6325,6812 6393,6851 6538,6889C6829,6968 6902,7001 6960,7082C6976,7103 6990,7125 6992,7130C6994,7136 7017,7144 7044,7149C7106,7160 7144,7196 7143,7243C7141,7322 7048,7443 6954,7490C6927,7504 6903,7516 6901,7517C6899,7519 6927,7551 6962,7589C7084,7718 7125,7844 7117,8067C7113,8188 7110,8205 7084,8257C7049,8327 7005,8360 6946,8360C6923,8360 6796,8330 6665,8294C6289,8190 6307,8191 6226,8275C6103,8404 5932,8458 5703,8438ZM5930,8274C6016,8254 6066,8223 6125,8154C6224,8039 6284,8035 6603,8124C6672,8144 6733,8160 6738,8160C6744,8160 6758,8139 6770,8114C6800,8052 6857,8015 6923,8015L6972,8015L6966,7952C6943,7734 6786,7571 6526,7496C6477,7482 6398,7465 6351,7460C6136,7433 6090,7418 6065,7369C6029,7301 6070,7225 6155,7201C6229,7180 6360,7178 6498,7194C6678,7216 6705,7214 6769,7181L6822,7154L6792,7128C6774,7113 6728,7094 6678,7081C6487,7031 6350,6990 6307,6970C6236,6936 6184,6885 6149,6814C6120,6756 6116,6737 6112,6643C6104,6469 6139,6366 6272,6175C6312,6117 6368,6035 6397,5993C6500,5844 6564,5690 6597,5515C6619,5393 6619,5146 6596,5025C6578,4926 6531,4770 6519,4770C6516,4770 6510,4784 6506,4802C6496,4852 6435,4972 6385,5038C6360,5072 6305,5127 6264,5162L6190,5224L6190,5300C6190,5410 6152,5531 6084,5637C6066,5666 6053,5690 6056,5690C6070,5690 6211,5577 6257,5529C6324,5459 6340,5438 6379,5365C6396.47,5332.9 6408.58,5313.37 6417.25,5300.36C6440.61,5265.32 6509.71,5272.53 6520.54,5321.64C6527.04,5351.1 6527.17,5399.2 6521,5478C6496,5790 6414,5965 6202,6157C6149,6205 6066,6284 6019,6331C5913,6436 5871,6515 5841,6665C5834.81,6695.96 5828.25,6720.91 5822.53,6739.65C5803.84,6800.91 5708.27,6791 5695,6718C5679,6630 5744,6430 5824,6321C5864,6268 5986,6146 6081,6067C6165,5996 6247,5888 6299,5781C6353,5668 6352,5652 6293,5707C6232,5765 6129,5825 5885,5948C5775,6004 5638,6080 5580,6118C5367,6257 5257,6423 5219,6660C5216.27,6677.19 5211.69,6691.55 5210.46,6704.33C5202.76,6784.55 5092.71,6808.14 5081.96,6698.42C5080.1,6679.49 5081.19,6655.92 5083,6627C5092,6479 5141,6353 5242,6217C5324,6107 5400,6044 5603,5919C5652,5889 5724,5835 5764,5798C6081.82,5504.02 6043.27,5241.77 5957,5148C5876.6,5060.61 5992.65,4979.17 6054.39,5027.42C6065.11,5035.79 6077.95,5044.61 6091,5057C6125,5089 6137,5083 6223,4990C6325,4880 6390,4725 6390,4590C6390,4433 6311,4250 6154,4042L6122,4000L6127,4078C6134,4178 6117,4298 6078,4420C6027,4582 5936,4735 5779,4920C5603,5128 5494,5314 5450,5478C5445.53,5494.82 5438.57,5508.52 5433.19,5520.84C5403.85,5588.04 5293.92,5566.47 5310.89,5462.95C5314.12,5443.22 5317.49,5418.2 5326,5386C5364,5236 5466,5067 5667,4817C5910,4516 5975,4360 5975,4075C5975,3896 5955,3813 5893,3737C5872,3712 5855,3692 5854,3693C5853,3694 5858,3720 5867,3750C5890,3834 5888,4036 5863,4130C5819,4295 5786,4354 5528,4730C5509.5,4757.5 5497.53,4774.07 5486.12,4783.5C5436.6,4824.45 5363.76,4795.4 5381.83,4716.95C5391.32,4675.76 5427.03,4612.15 5530,4459C5702,4204 5732,4120 5732,3905C5731,3768 5706,3599 5676,3543C5663,3518 5601,3455 5526,3390L5498,3365L5505,3520C5512,3694 5529,3831 5559,3970C5573.22,4032.97 5574.84,4060.09 5576.69,4083.49C5583.05,4163.82 5496.24,4166.99 5464.87,4113.54C5448.26,4085.22 5432.59,4053.34 5415,3989C5365,3802 5355,3693 5356,3340C5357,2978 5377,2737 5430,2455C5445,2373 5461,2284 5464,2258C5468,2233 5477,2207 5484,2200C5492,2194 5529,2188 5566,2186C5605,2185 5651,2176 5671,2166C5715,2145 5769,2094 5781,2062C5801,2010 5784,1946.8 5742,1923.8C5727,1915.8 5725,1928 5724,1970C5721,2044 5689,2090 5641,2090C5605,2090 5589,2071 5589,2028C5589,1968 5587.2,1921.4 5554,1921.4C5508.6,1921.4 5501,1918 5465,1989C5416,2088 5366,2116 5320,2070C5295,2045 5295,2020 5320,1968C5331,1945 5340,1925 5340,1923C5340,1921 5314,1922.4 5283,1922.4C5138,1923.4 5046,2019 4971,2254C4925,2398 4907,2529 4913,2684C4914.8,2736.32 4914.74,2767.85 4914.35,2788.34C4912.84,2868.43 4826.03,2862.77 4801.71,2810.93C4788.84,2783.51 4780.84,2764.03 4767,2655L4754,2555L4730,2640C4712,2705 4706,2759 4702,2871C4696,3067 4716,3165 4801,3357C4807.48,3372.22 4811.94,3383.35 4814.65,3392.22C4829.89,3441.95 4776.12,3487.61 4723.29,3454.21C4685.75,3430.49 4650.13,3367.28 4618,3275L4590,3195L4590,3302C4590,3491 4633,3641 4728,3782C4783,3864 4792,3900 4763,3932C4725,3975 4670,3942 4588,3826L4538,3755L4542,3850C4545,3935 4550,3952 4580,4010C4621,4087 4699,4169 4761,4200C4823,4231 4840,4249 4840,4282C4840,4318 4808,4350 4771,4350C4740,4350 4657,4310 4623,4277C4610,4266 4600,4261 4600,4267C4600,4273 4633.2,4320.4 4680.2,4370.4C4717.7,4410.24 4741.26,4436.51 4755.85,4454.49C4801.58,4510.84 4726.2,4575.6 4661,4536C4602.11,4500.23 4500.8,4352.8 4495.8,4352.8C4490.8,4352.8 4471,4390 4458,4428C4425,4525 4425,4710 4459,4828C4486,4922 4480,4955 4435,4966C4371,4982 4326,4917 4296,4768C4257,4578 4293,4365 4392,4196L4421,4147L4406,4086C4397,4052 4386,4003 4382,3975L4375,3926L4310,3923C4138,3915 3921,3855 3782,3778C3690.7,3725.7 3562.52,3607.75 3535.48,3551.94C3498.32,3475.25 3582.68,3438.77 3620.72,3469.33C3634.56,3480.45 3655.18,3493.47 3682,3518C3851,3676 4044,3757 4271,3768L4377,3772L4388,3701C4395,3662 4411,3601 4425,3565C4447,3505 4448,3494 4439,3415C4427,3309 4442,3132 4470,3035C4491,2966 4564.6,2644.21 4565.6,2509.21C4565.6,2435.21 4544.6,2377.21 4517.6,2377.21C4466.6,2377.21 4355,2554 4339,2681C4333.16,2724.37 4327.35,2753.21 4322.44,2773.76C4309.36,2828.53 4222.34,2853.6 4199,2768C4190,2735 4190,2704 4199,2637C4212,2534 4244,2449 4295,2381C4337,2323 4334,2296 4286,2303C4171.68,2358.75 3615.28,2495.76 3298.2,2501.45C3265.35,2561.62 3220.42,3429.67 3561,3835C3692.52,3991.53 3905,4099 4102,4140C4206.8,4161.81 4204.2,4280 4105,4280C3988,4280 3734,4175 3630,4083C3576,4036 3576,4035 3597,4070C3608,4089 3630,4128 3645,4155C3738,4324 3779,4395 3832,4480C3906,4597 4090,4842 4202,4972C4430,5238 4513,5330 4521,5330C4526,5330 4530,5317 4530,5302C4530,5208 4610,5006 4688,4904C4725.05,4855.02 4756.94,4828.67 4781.07,4812.3C4834.92,4775.77 4905.7,4857.88 4865.59,4902.72C4854.25,4915.4 4843.3,4935.59 4829,4955C4726,5095 4682,5221 4673,5406C4666,5545 4679,5654 4716,5768C4744,5853 4800,5980 4809,5980C4812,5979 4835,5952 4860,5918C4988,5745 5189,5640 5391,5640C5408.23,5640 5422.74,5641.44 5435.03,5642.94C5508.89,5652 5508.88,5761.51 5438.78,5770.64C5338.36,5783.71 5094.73,5825.41 4957,6052C4895,6154 4893,6176 4929,6305C4986,6508 5016,6714 5027,6983C5032,7102 5036,7140 5046,7140C5080,7140 5115,7111 5157,7047C5245,6915 5339,6865 5489,6872C5639,6879 5740,6946 5804,7080C5831,7137 5835,7158 5838,7250C5844,7422 5820,7490 5667,7728C5577,7867 5557,7913 5541,8019C5537.78,8038.63 5532.77,8053.55 5530.88,8066.13C5521.82,8126.64 5447.03,8127.2 5412.98,8066.52C5392.89,8030.69 5397.51,7968.95 5414,7897C5434,7813 5465,7750 5547,7633C5582,7582 5628,7506 5648,7463C5683,7388 5685,7381 5685,7279C5685,7179 5683,7171 5655,7124C5594,7024 5456,6990 5363,7052C5342,7066 5302,7111 5275,7151C5238,7206 5212,7232 5173,7255C5144,7271 5083,7307 5036,7334C4942,7388 4871,7450 4844,7502C4816,7557 4822,7637 4860,7709C4966,7907 5220,8127 5452,8222C5614,8288 5791,8307 5930,8274ZM6969.6,8183.2C6968.32,8163.17 6940.4,8160.2 6927.4,8160.2C6912,8160.2 6906.08,8177.45 6899.6,8190.4C6894.2,8201.2 6898.99,8211.39 6920.2,8219.6C6958.13,8234.29 6972.6,8230 6969.6,8183.2ZM6856,7376C6911,7350 6983,7293 6975,7280C6967,7267 6894,7288 6822,7325C6784,7344 6729,7366 6699,7373C6637,7390 6651,7397 6745,7399C6789,7400 6819,7393 6856,7376ZM6320,3758C6345,3270 6430,2841 6556,2562C6595,2477 6673,2360 6728,2307C6765,2271 6767,2265 6762,2224C6753,2137 6817,2112 6886,2176C6952,2239 7009,2253 7078,2224C7175,2184 7229,2076 7184,2012C7162,1981 7153,1984 7146,2028C7135,2091 7120,2118 7088,2131C7045,2148 7027,2134 7013,2069C7007,2040 6993,2010 6984,2003C6960,1985 6764,1986 6678,2005C6544,2033 6431,2105 6351,2214C6248,2353 6174,2521 6145,2676C6136,2725 6121,2773 6113,2783C6092,2805 6048,2805 6027,2782C6004,2756 5996,2683 6009,2620C6015,2591 6018,2565 6016,2563C6008,2555 5963,2652 5946,2710C5923,2791 5907,2965 5915,3051C5917.5,3078.52 5916.62,3099.36 5915.9,3115.31C5913.59,3166.88 5831.17,3184.91 5804.55,3128.96C5792.89,3104.46 5782.73,3065.84 5775,3005L5764,2915L5747,2987C5727,3070 5725,3185 5741,3262C5763,3367 5802,3426 5941,3570C6077,3710 6206,3858 6269,3946C6292,3979 6306,3992 6307,3981C6308,3972 6314,3872 6320,3758ZM5566,3098C5562,3052 5553,2993 5546,2965L5533,2915L5526,2995C5522,3039 5518,3084 5517,3095C5516,3113 5556,3180 5568,3180C5571,3180 5570,3143 5566,3098ZM5695,2778C5705,2760 5733,2724 5757,2699C5780,2674 5807,2634 5815,2611C5835,2553 5912,2439 5957,2399C5977,2382 6023,2354 6057,2337C6113,2311 6124,2301 6147,2256C6161,2228 6190,2180 6210,2150C6247,2096 6371,1971 6420,1938C6444,1922 6432,1921 6190,1921L5935,1922.4C5941.81,1945.09 5945.73,1970.72 5947.6,1994C5950.39,2028.66 5938,2077 5917,2123C5871,2224 5780,2297 5658,2330L5611,2342L5596,2409C5588,2445 5576,2506 5570,2543L5559,2611L5612,2711C5641,2765 5667,2810 5670,2810C5673,2810 5684,2795 5695,2778ZM3326,2350C3620,2327 3927,2256 4357,2114C4449,2084 4528,2055 4532,2051C4545,2040 4441,1983 4355,1955C4257,1922 4122,1912 4024,1930C3975,1939 3916,1963 3820,2013C3436,2213 3310,2256 3065,2267C3011.84,2269.35 2991.37,2269.02 2971.68,2268.62C2875.18,2266.63 2871.4,2149.64 2935.27,2139.14C2952.49,2136.3 2965.08,2133.57 3016,2129C3222,2111 3377,2067 3545,1981L3655,1920.2L3265,1922C2853,1919 2722,1927 2608,1960C2494,1994 2411,2075 2425,2138C2458,2289 2870,2386 3326,2350ZM4769.19,2336.38C4777.39,2348.81 4821.52,2143.59 4854.61,2085.01C4873.55,2051.47 4750.8,1922.4 4750.8,1922.4L4617,1922.4C4617,1922.4 4689.75,1980.47 4713.4,2004.8C4762.45,2055.27 4766.16,2128.38 4727.44,2151.63C4709.49,2162.41 4699.77,2169.82 4648.4,2192.6C4638.13,2197.16 4693.35,2221.41 4769.19,2336.38Z" style="fill-rule:nonzero;"/>
        <path d="M5935,8112C5874,8074 5780,7946 5780,7900C5780,7868 5808,7840 5838,7840C5850,7840 5874,7856 5892,7877C5968,7962 5987,7976 6035,7986C6062,7991 6088,8002 6093,8011C6108,8035 6083,8088 6046,8111C6007,8135 5973,8135 5935,8112Z" style="fill-rule:nonzero;"/>
        <path d="M5115,7876C5069,7830 5068,7684 5113,7586C5147,7511 5182,7467 5242,7423C5264.69,7406.38 5284.98,7395.86 5303.03,7390.69C5387.19,7366.57 5433.35,7435.05 5377.65,7480.13C5263.69,7572.35 5221.8,7664.6 5213.8,7778.6C5211.64,7810.16 5210.15,7832.4 5209.3,7848.48C5207.3,7886.32 5146.8,7907.8 5115,7876Z" style="fill-rule:nonzero;"/>
        <path d="M5199.34,3393.6C5202.52,3455.65 5115.13,3488.57 5084.34,3404.39C5042.69,3290.53 5035.61,2964.77 5090,2702C5118.74,2565.08 5180.03,2413.51 5217.4,2340.62C5251.78,2273.58 5363.89,2312.78 5336.12,2391.26L5306,2481C5221,2731 5183,2983 5194,3225C5198.42,3321.67 5198.06,3368.48 5199.34,3393.6Z" style="fill-rule:nonzero;"/>
        <path d="M3955,3421C3872,3407 3789,3380 3715,3342C3654.16,3310.06 3585.02,3252.39 3554.84,3213.38C3511.85,3157.81 3578.58,3088.14 3634.04,3122.13C3653.03,3133.77 3679.73,3148.2 3705,3166C3852,3266 4010,3302 4150,3265C4258,3237 4279,3236 4300,3255C4330,3282 4326,3327 4291,3360C4238,3408 4070,3439 3955,3421Z" style="fill-rule:nonzero;"/>
        <path d="M6227.01,3487.95C6224.36,3547.6 6127.74,3560.46 6109.12,3492.51C6098.76,3454.66 6089.72,3395.75 6089,3275C6089,3108 6102,3016 6151,2855C6196.6,2706.81 6291.81,2515.47 6342.71,2448.09C6388.78,2387.1 6493.68,2446.4 6457.11,2511.07C6448.09,2527.02 6439.83,2540.75 6425,2570C6377,2665 6314,2825 6284,2928C6245,3064 6230,3181 6230,3352C6230,3426.32 6228.01,3465.37 6227.01,3487.95Z" style="fill-rule:nonzero;"/>
    </g>
</svg>
