<?xml version="1.0" encoding="UTF-8" standalone="no"?>
<!DOCTYPE svg PUBLIC "-//W3C//DTD SVG 1.1//EN" "http://www.w3.org/Graphics/SVG/1.1/DTD/svg11.dtd">
<svg width="100%" height="100%" viewBox="0 0 3576 3576" version="1.1" xmlns="http://www.w3.org/2000/svg" xmlns:xlink="http://www.w3.org/1999/xlink" xml:space="preserve" xmlns:serif="http://www.serif.com/" style="fill-rule:evenodd;clip-rule:evenodd;stroke-linejoin:round;stroke-miterlimit:2;">
    <g transform="matrix(0.416685,0,0,-0.416685,-390.349,3889.01)">
        <path d="M4882,8510C4440,8464 4071,8281 3824,7988C3783,7939 3750,7896 3750,7891C3750,7887 3720,7878 3683,7871C3425,7824 3210,7651 3076,7382C3032,7295 2966,7127 2925,7000C2888,6886 2827,6744 2786,6676C2711,6552 2695,6495 2695,6345C2695,6235 2699,6205 2718,6148C2767,6008 2870,5885 3065,5737C3236,5607 3288.93,5539.6 3277.81,5257.81C3263.75,4901.5 2625.87,4199.27 2799.02,3488.19C2980.27,2743.81 3462,2558 3819,2322C3881,2281 4071,2176 4241,2090C4659,1875 4802,1775 4928,1605C4985,1527 5013,1472 5040,1380C5066,1292 5091,1260 5135,1260C5177,1260 5206,1283 5234,1338C5332,1528 5583,1788 5887,2016C6186,2239 6307,2355 6432,2535C6606,2785 6685,3021 6696,3325C6708,3621 6649,3878 6489,4233C6462,4293 6440,4347 6440,4354C6440,4361 6456,4372 6475,4379C6495,4386 6539,4411 6575,4434C6635,4475 6643,4477 6728,4482C6801,4486 6831,4493 6884,4518C7088,4613 7184,4853 7120,5104C7095,5204 7073,5253 7006,5355L6951,5439L7003,5465C7130,5532 7204,5596 7279,5705C7394,5871 7425,5978 7426,6220C7426,6352 7431,6412 7444,6465C7466,6554 7459,6624 7419,6707C7365,6820 7298,6863 7035,6953C6947,6984 6846,7022 6810,7039L6746,7070L6745,7222C6744,7346 6740,7391 6721,7460C6693,7570 6609,7741 6528,7855C6449,7967 6261,8156 6153,8233C5971,8362 5756,8452 5534,8491C5400,8515 5031,8525 4882,8510ZM5127,8309C5311,8284 5355.2,8289.4 5506.2,8139.4C5594.21,8051.98 5639.41,8000.47 5716.01,7926.39C5809.58,7835.88 5941.71,7885.58 5888.2,7977.79C5844.81,8052.59 5765,8161 5719,8204C5673,8248 5642,8281 5650,8278C5902,8184 6032,8106 6195,7948C6392,7759 6526,7546 6544,7395L6550,7345L6534,7387C6492,7502 6365,7512 6329,7403C6312,7352 6314,7242 6332,7200C6382,7085 6521,6990 6765,6906C6820,6887 6858,6870 6850,6867C6675,6815 6618,6785 6569,6716C6477,6590 6501,6430 6632,6300C6696,6237 6825,6164 6891,6154C6914,6150 6930,6142 6930,6134C6930,6107 6882,5990 6851,5941C6743,5773 6479,5616 6208,5559C6078,5531 5817,5529 5703,5554C5480,5603 5366,5671 5197,5859C5164.71,5894.92 5159.8,5913.85 5094,5908C5049,5904 5033,5897 5005,5870C4924,5792 4903,5644 4953,5503C5046,5235 5425,4921 5753,4840C5851,4816 6005,4807 6095,4821L6155,4830L6185,4792C6243,4720 6344,4619 6387,4592C6411,4577 6430,4562 6430,4559C6430,4534 6232,4516 6113,4530C5926,4553 5843,4582 5637,4698C5452,4803 5389,4824 5255,4824C5122,4824 5030,4802 4893,4734C4650,4614 4483,4353 4425,4001C4411,3919 4409,3865 4413,3756C4423,3525 4460,3385 4567,3169L4615,3073L4505,3154C4352,3266 4237,3382 4200,3462C4138,3595 4104,3799 4113,3990C4129,4331 4259,4615 4547,4939C4593,4991 4634.47,5046 4646,5062C4692.4,5126.4 4622.31,5236.57 4537.24,5176.44C4509.98,5157.16 4472.17,5122.76 4416,5063C4181,4813 4024,4536 3959,4254C3945,4193 3937,4112 3933,3995L3927,3825L3903,3895C3872,3986 3837.6,4093.8 3840,4263C3841.55,4371.99 3865,4518 3905,4636C3923.45,4692.49 3927.18,4703.91 3933.11,4720.87C3960.39,4798.84 3863.63,4837.34 3808.47,4792.47C3774.62,4764.94 3738.86,4709.98 3717,4643C3674,4509 3657,4378.4 3663,4216C3683.7,3655.61 4029,3334 4110,3247C4197,3154 4295,3072 4460,2955C4798,2715 4897.2,2682.2 4994.2,2406.2C5009.25,2363.95 5016.07,2294.89 5016.07,2294.89C4883.38,2470.53 4807.45,2500.16 4277.8,2767.36C3826.9,2994.83 3460.24,3298.41 3419.33,3887.6C3410.66,4012.48 3237.23,4039.44 3232.09,3886C3207,3136.72 3995.81,2689.94 4141.46,2621.19C4622.05,2394.37 4765.12,2341.18 4936.09,2121.04C5000.97,2037.5 5057.79,1937.36 5061.53,1929.23C5102.33,1840.62 5090,1717 5090,1717L5068,1746C5025,1804 4923,1903 4846,1962C4748,2038 4633.6,2105.8 4347.6,2248.8C3965.6,2440.8 3665.39,2618.67 3475.61,2766.4C3262.98,2931.91 3051.62,3259.39 2994.62,3516.39C2967.62,3642.39 2943.98,3949.12 3054.81,4210.78C3196.76,4545.91 3307.28,4781.97 3373.75,4949.76C3490.47,5244.34 3486.77,5341.89 3480.66,5427.5C3480.66,5427.5 3759.44,4868.54 3797.62,4918.09C3819.42,4946.38 3841.27,4972.47 3863,4996C3904,5039 3977,5100 4050,5150C4194,5249 4282,5339 4338,5448C4427,5619 4457,5773 4446,6008C4440,6149 4428,6233 4379,6475C4347,6632 4336.82,6898.69 4378,7022C4521.46,7451.59 4274,7675 4213,7730C4152,7784 4087,7822 4007,7849L3959,7866L4052,7956C4103,8005 4172,8064 4205,8087C4461,8260 4831,8350 5127,8309ZM3950,7669C4097,7618 4201,7496 4235,7333C4241.47,7302 4240.23,7231.6 4230,7198C4142,6909 4140,6698 4220,6294C4304,5877 4263,5600 4092,5418C4056,5381 4024,5350 4020,5350C4016,5350 4026,5396 4042,5453C4085,5604 4110,5728 4110,5793C4110,5842 4106,5855 4085,5876C4065,5895 4051,5900 4023,5898C3975,5894 3950,5859 3941,5783C3934,5725 3933,5725 3921,5755C3914,5772 3882.2,5827.4 3855.2,5890.4C3801.63,6018.34 3766.44,6097.78 3747.16,6180.85C3725.54,6274 3717.19,6398.38 3729.87,6624.76C3735.65,6728 3617.95,6724.11 3596.65,6664.21C3539.11,6502.36 3562.06,6208.65 3577,6148C3607.8,6023 3653,5917 3738,5735C3841,5512 3854,5456 3824,5352C3809,5298 3802.19,5265.17 3790,5287C3753.21,5352.87 3642.91,5535 3488.59,5680.28C3306.61,5851.6 3259.96,5768.7 2962.09,6083.67C2839.22,6213.58 2886.33,6474.95 2938.73,6564.59C3072.82,6793.97 3155,7098 3155,7098C3218,7265 3269,7367 3325,7440C3488,7652 3735,7742 3950,7669ZM7138,6725C7219,6701 7290,6626 7290,6565C7290,6552 7283,6554 7258,6574C7214,6606 7160,6620 7074,6620C6966,6620 6904,6597 6850,6539C6811,6496 6800,6490 6766,6490C6695,6490 6670,6541 6709,6605C6745,6665 6924,6738 7036,6739C7064,6740 7110,6733 7138,6725ZM7247,6123C7233,5955 7160,5811 7033,5703L6982,5659L7001,5747C7011,5795 7038,5894 7060,5965C7082,6037 7104,6106 7108,6120C7113,6136 7127,6148 7150,6155C7169,6161 7199,6173 7215,6182C7232,6191 7247,6198 7249,6199C7251,6200 7250,6165 7247,6123ZM5495,5357C5561,5321 5669,5271 5735,5244C5848,5199 5860,5192 5933,5119C6030,5022 6033,5007 5948,5015C5812,5028 5696,5071 5564,5155C5455,5225 5310,5381 5256,5488L5239,5521L5307,5472C5344,5444 5429,5393 5495,5357ZM6696,5438C6872,5273 6971,5079 6957,4924C6927,4602 6580,4582 6346,4889C6323,4920 6271,4999 6231,5066C6191,5133 6129,5221 6094,5262L6031,5338L6118,5349C6166,5355 6232,5367 6265,5374C6334,5391 6342,5388 6405,5323C6459,5268 6498,5208 6555,5095C6615,4977 6641,4957 6696,4984C6757,5013 6755,5075 6686,5214C6661,5264 6615,5339 6584,5380C6553,5421 6532,5456 6536,5457C6541,5459 6559,5469 6575,5479C6592,5490 6610,5499 6617,5499C6624,5500 6659,5472 6696,5438ZM5348,4654C5378,4646 5376,4634 5335,4589C5282,4530 5259,4476 5247,4379C5232,4257 5250,4165 5325,3995C5454,3701 5473,3637 5473,3480C5473,3364 5454,3253 5411,3110C5385,3025 5381,3018 5375,3045C5331,3239 5292,3334 5181,3525C5097,3669 5054,3758 5017,3863C4987,3950 4986,3963 4985,4105C4985,4232 4989,4267 5008,4333C5031,4413 5086,4532 5124,4583C5170,4646 5264,4676 5348,4654ZM5608,4468C5693,4400 5763,4290 5812,4148C5844,4057 5845,4051 5844,3890C5844,3740 5841,3717 5817,3637C5786,3536 5728,3417 5675,3345C5654,3318 5641,3304 5645,3315C5659,3355 5663,3566 5651,3635C5634,3731 5591,3856 5525,4000C5450,4166 5429,4232 5428,4315C5427,4399 5448,4453 5494,4481C5538,4508 5561,4505 5608,4468ZM4839,4408C4798,4287 4783,4140 4799,3998C4818,3820 4872,3682 5017,3437C5097,3303 5153,3177 5187,3055C5221,2931 5229,2712 5206,2510C5197,2431 5188,2364 5186,2362C5184,2360 5174,2382 5165,2411C5142,2480 5069,2636 5021,2718C5000,2755 4952,2844 4915,2915C4878,2987 4831,3074 4810,3110C4599,3476 4547,3758 4630,4087C4652,4171 4712,4305 4758,4373C4788,4415 4855,4490 4863,4490C4866,4490 4855,4453 4839,4408ZM6087,4350C6124,4350 6146,4324 6190,4227C6244,4107 6264,4010 6264,3855C6266,3491 6124,3184 5758,2756C5550,2514 5440,2362 5350,2192C5332,2158 5315,2131 5313,2133C5311,2135 5328,2219 5350,2319C5442,2727 5480,2816 5666,3040C5851,3264 5920,3374 5980,3545C6038,3711 6053,3853 6030,4036C6015,4155 5990,4241 5934,4366C5931,4373 5949,4373 5992,4364C6027,4356 6069,4350 6087,4350ZM6511,3505C6541,3208 6460,2892 6292,2655C6182,2499 6068,2390 5830,2211C5649,2075 5512.6,1932 5411.6,1834C5330.6,1755 5330.6,1755 5409.6,1923C5512.6,2143 5626,2310 5824,2544C5880,2610 5958,2704 5998,2754C6264,3086 6413,3409 6446,3726L6454,3795L6476,3705C6489,3656 6505,3566 6511,3505Z" style="fill-rule:nonzero;"/>
        <path d="M5250,7381C5192,7362 5160,7337 5072,7241C5000.68,7163.2 4934.4,7113.52 4864.19,7078.8C4818.97,7056.43 4791.33,7040.82 4775.17,7024.76C4709.95,6959.96 4792.83,6897.11 4860.19,6911.8C4937.26,6928.6 5005.14,6922.6 5073,6998C5091,7018 5091,7018 5147,6984C5250,6922 5366,6929 5446,7002C5467,7020 5471,7021 5513,7006C5560,6990 5594,6994 5623,7018C5650,7042 5644,7070 5595,7145C5570,7184 5557.4,7202.85 5550,7223C5527.67,7283.8 5481.66,7331.35 5439,7359C5378.2,7398.4 5295,7396 5250,7381Z" style="fill-rule:nonzero;"/>
    </g>
</svg>
