<?xml version="1.0" encoding="UTF-8" standalone="no"?>
<!DOCTYPE svg PUBLIC "-//W3C//DTD SVG 1.1//EN" "http://www.w3.org/Graphics/SVG/1.1/DTD/svg11.dtd">
<svg width="100%" height="100%" viewBox="0 0 4267 4267" version="1.1" xmlns="http://www.w3.org/2000/svg" xmlns:xlink="http://www.w3.org/1999/xlink" xml:space="preserve" xmlns:serif="http://www.serif.com/" style="fill-rule:evenodd;clip-rule:evenodd;stroke-linejoin:round;stroke-miterlimit:2;">
    <g transform="matrix(0.416699,0,0,-0.416699,-241,4258)">
        <path d="M6280,7860C6129,7842 5996,7794 5863,7708C5804,7670 5790,7665 5770,7673C5729,7689 5581,7685 5523,7666C5471,7649 5445.8,7627.6 5480.8,7627.6C5489.8,7626.6 5478,7618 5446,7605C5367,7572 5328,7540 5281,7471C5208,7364 5147,7333 5039,7345C4899,7361 4798,7287 4755,7136C4729,7047 4738,6882 4775,6770C4806,6678 4809,6624 4796,6480C4786,6373 4797,6327 4850,6268C4902,6209 4971,6179 5061,6177C5099,6176 5130,6171 5130,6165C5130,6145 5032,6004 4987,5958C4932,5903 4845,5849 4776,5826C4690,5797 4595,5791 4357,5800C4034,5813 3848,5800 3649,5749C3579,5732 3558,5731 3419,5740C3312,5747 3224,5747 3130,5740C2852,5718 2683,5716 2566,5735C2426,5757 2326,5783 2218,5826C1927,5942 1763,6104 1691,6347C1668,6422 1652,6440 1607,6440C1552,6440 1494,6329 1470,6180C1439,5983 1477,5795 1584,5617C1696,5430 1889,5218 2015,5144C2167,5056 2340,4998 2497,4984C2537,4980 2570,4976 2570,4974C2570,4973 2548,4935 2521,4890C2435,4749 2396,4621 2384,4438L2377,4342L2312,4330C2175,4306 2109,4244 2049,4085C2029,4030 2026,4028 1954,3995C1855,3950 1785,3881 1694,3742C1644,3666 1580,3587 1498,3502C1304,3300 1264,3221 1272,3061C1278,2935 1331,2849 1438,2792C1515,2751 1586,2743 1670,2764C1805,2799 1902,2885 2037,3089C2171,3294 2184,3312 2229,3362C2275,3413 2336,3454 2392,3471C2410,3476 2495,3485 2580,3490C2817,3504 2979,3544 3139,3631C3472,3810 3780,4188 3843,4496C3861,4582 3856,4618 3824,4632C3790,4648 3777,4633 3714,4507C3608,4296 3478,4128 3301,3973C3067,3768 2894,3691 2622,3670C2375,3651 2320,3642 2251,3608C2215,3591 2166,3559 2142,3536C2118,3514 2036,3403 1960,3290C1802,3057 1742,2985 1678,2952C1518,2873 1386,3018 1464,3187C1481,3222 1529,3281 1619,3373C1711,3469 1770,3540 1823,3621C1909,3753 1949,3793 2050,3846C2150,3898 2183,3932 2209,4010C2238,4100 2264,4139 2307,4156C2376,4185 2449,4150 2487,4068L2507,4042.8L2518,4076C2524,4103 2532,4170 2535,4225C2545,4391 2559,4501 2580,4583C2660,4893 3025,5301 3373,5470C3479,5521 3635,5571 3780,5601C3890,5624 3912,5625 4248,5623C4443,5622 4604,5620 4606,5617C4608,5615 4597,5584 4580,5548C4503,5383 4504,5170 4582,5016C4593,4995 4605,4982 4609,4986C4613,4991 4622,5054 4628,5125C4642,5297 4699,5475 4765,5555C4781,5575 4781,5575 4776,5550C4755,5462 4747,5312 4758,5225C4771,5120 4786,5072 4800,5086C4805,5091 4832,5174 4859,5270C4887,5366 4923,5479 4939,5520L4968,5595L4975,5545C4984,5480 5005,5413 5030,5372C5065,5316 5075,5335 5077,5461C5082,5694 5119,5815 5248,6009L5284,6063L5301,6009C5324,5930 5356,5868 5397,5820C5440,5770 5504,5728 5530,5732C5547,5735 5546,5740 5515,5790C5445,5902 5413,6034 5426,6167C5433,6242 5443,6253 5455,6197C5470,6130 5552,5990 5620,5917C5691,5841 5805,5770 5856,5770C5889,5770 5886,5780 5844,5821C5793,5870 5722,5966 5690,6030C5662,6087 5645,6150 5636,6235L5631,6285L5658,6250C5732,6153 5865,6060 5932,6060C5969,6060 5967,6069 5924,6111C5829,6202 5746,6341 5734,6432C5728,6476 5730,6482 5767,6527C5896,6685 5942,6790 5989,7028C6025,7207 6049,7274 6102,7341L6128.6,7374.73C6131.03,7392.61 6119.07,7389.98 6094,7386C6031,7376 5963,7346 5927,7312C5881,7268 5852,7199 5821,7058C5805,6985 5780,6894 5765,6857C5706,6711 5571,6547 5446,6472C5283,6373 5069,6327 5002,6377C4959,6409 4954,6437 4975,6544C4995,6651 4993,6670 4949,6810C4932,6862 4916,6939 4913,6982C4908,7047 4910,7065 4929,7102C4956,7158 4986,7173 5056,7164C5185,7148 5328,7219 5410,7339C5431,7371 5464,7410 5483,7427C5554,7489 5738,7536 5877,7527C5959,7522 5971,7525 5949,7547C5942,7554 5948,7563 5972,7576C6028,7609 6122,7648 6185,7665C6268,7688 6440,7695 6526,7681C6670,7656 6810,7581 6907,7477C6978,7400 7011,7335 7045,7200C7087,7035 7087,7035 7248,6979C7296,6962 7359,6935 7389,6920L7443,6893L7377,6887C7304,6880 7279,6870 7238,6832C7157,6757 7219,6614 7363,6546C7394,6532 7420,6516 7420,6512C7420,6490 7352,6428 7293,6397C7182,6339 7108,6319 6985,6313C6793,6304 6672,6348 6533,6476C6418,6581 6374,6597 6293,6561C6240,6536 6217,6494 6217,6419C6217,6278 6342,6132 6625,5943C6802,5824 6928,5775 7032,5782C7081,5786 7090,5784 7088,5771C7086,5762 7065,5745 7040,5732C7002,5712 6984,5709 6928,5713C6868,5717 6848,5724 6753,5777C6693,5810 6593,5862 6529,5893C6466,5923 6384,5969 6347,5994C6310,6019 6276,6040 6271,6040C6254,6040 6290,5954 6334,5889C6371,5833 6442,5765 6494,5735C6509,5726 6510,5721 6499,5695C6471,5628 6487,5376 6520,5355C6524,5352 6538,5380 6550,5417C6572,5487 6626,5597 6659,5639L6677,5663L6729,5634C6773,5609 6780,5601 6780,5575C6780,5559 6790,5484 6801,5410C6827,5240 6830,5016 6806,4878C6797,4824 6790,4771 6790,4760C6790,4691 6883,4808 6929,4937C6974,5060 6987,5180 6972,5332C6965,5400 6957,5466 6953,5480C6947,5503 6948,5504 6964,5491C7002,5460 7073,5347 7105,5267C7194,5047 7191,4798 7097,4550C7039,4396 6949,4240 6863,4142L6825,4099L6737,4139C6689,4162 6602,4196 6545,4216C6487,4236 6440,4256 6440,4260C6440,4282 6344,4392 6297,4424C6236,4466 6141,4505 6129,4493C6124,4488 6139,4462 6161,4435C6215,4370 6254,4311 6248,4304C6245,4302 6223,4304 6199,4309C6122,4327 5971,4322 5922,4300C5860,4272 5846,4216 5894,4185C5905,4178 5956,4167 6005,4160C6224,4133 6490,4054 6688,3960C6825,3894 6920,3834 7125,3686C7202,3630 7308,3555 7360,3521C7604,3358 7671,3294 7686,3213C7694,3170 7683,3098 7665,3074C7652,3056 7651,3058 7650,3094C7650,3174 7591,3250 7531,3250C7499,3250 7498,3235 7530,3175C7588,3065 7562,2971 7465,2938C7437,2929 7414,2923 7412,2925C7410,2927 7416,2942 7424,2959C7472,3050 7409,3187 7311,3206C7266,3215 7261,3190 7299,3133C7359,3044 7326,2950 7236,2950C7224,2950 7185,2964 7150,2982C7084,3014 6998,3094 6864,3245C6772,3349 6700,3390 6612,3390C6579,3390 6539,3385 6524,3380C6488,3366 6447.2,3351.4 6409.2,3319.4C6269.2,3200.4 6229,3201 6127,3176C6099,3169 6100,3171 6147,3230C6206,3302 6262,3412 6284,3497C6315,3616 6311,3616 6188,3494C5970,3280 5871,3219 5706,3196L5668,3191L5727,3250C5795,3318 5846,3398 5814,3386C5706,3344 5670,3336 5580,3336C5511,3335 5472,3340 5438,3353L5391,3371L5493,3472C5549,3527 5590,3574 5583,3577C5577,3579 5554,3577 5533,3571C5512,3565 5470,3560 5440,3560C5270,3560 5227,3705 5298,4045C5347,4276 5350,4401 5310,4541C5295,4594 5226,4703 5197,4720C5154,4744 5149,4727 5166,4615C5189,4470 5180,4303 5140,4118C5123,4037 5104,3922 5097,3863L5085,3756L5035,3759C4853,3770 4588,3883 4271,4084C4035,4235 3930,4279 3914,4235C3902,4204 3922,4168 3993,4093C4073,4008 4129,3964 4275,3867C4330,3831 4383,3795 4393,3788C4410,3776 4409,3771 4370,3711C4309,3617 4253,3555 4179,3500C4097,3438 4026,3405 3931,3384C3856,3367 3830,3367 3493,3386C3397,3392 3372,3390 3313,3372C3224,3345 3160,3301 3097,3226C2987,3093 2931,2984 2880,2800C2843,2670 2815,2607 2773,2568C2701,2499 2584,2504 2532,2577C2500,2622 2497,2662 2518,2732C2529,2767 2543,2837 2549,2888C2570,3062 2628,3195 2701,3239C2730,3257 2846,3287 2855,3279C2857,3277 2850,3250 2840,3220C2820,3159 2808,3070 2820,3070C2824,3070 2857,3110 2894,3159C2930,3208 2982,3268 3009,3293C3070,3347 3186,3408 3300,3445C3427,3486 3468,3511 3550,3595C3595,3642 3645,3682 3675,3696C3728,3721 3770,3727 3770,3709C3770,3686 3704,3574 3668,3536C3647,3515 3630,3496 3630,3494C3630,3485 3753,3526 3790,3548C3846,3580 3927,3655 3946,3692C3959,3716 3966,3720 4006,3720C4048,3720 4051,3719 4045,3698C4028,3643 3971,3551 3923,3501L3872,3448L3903,3454C3969,3466 4115,3548 4183,3611C4240,3663 4310,3747 4310,3763C4310,3776 4125,3843 4040,3860C3905,3888 3717,3888 3628,3860C3553,3837 3513,3810 3410,3710C3316,3619 3244,3570 3116,3510C3000,3455 2934,3437 2761,3415C2687,3405 2622,3391 2600,3380C2549,3354 2496,3289 2455,3205C2413,3119 2340.02,2775.97 2334.4,2750C2316.07,2665.2 2340,2544 2373,2497L2410,2445L2162,2433C1860,2419 1691,2403 1673,2388C1652,2371 1662,2337 1690,2323C1793,2274 3626,2272 3811,2321C3855,2332 3868,2357 3843,2381C3829,2394 3795,2401 3705,2409C3533,2425 3200,2440 3033,2440L2890,2440L2935,2495C2988,2561 3000,2587 3046,2745C3091,2896 3135,2988 3204,3076C3300,3199 3366,3227 3521,3209C3715,3187 3859,3187 3964,3208C4132,3243 4277,3325 4394,3451C4458,3520 4560,3671 4560,3696C4560,3703 4597,3693 4658,3670C4783,3621 4891,3592 5010,3578L5105,3566L5162,3508L5218,3450L5196,3432C5184,3423 5155,3406 5132,3395C5109,3384 5090,3370 5090,3364C5090,3347 5178,3282 5245,3250C5278,3235 5338,3214 5378,3205C5417,3195 5450,3185 5450,3183C5450,3167 5344,3100 5289,3081C5247,3066 5253,3054 5316,3030C5432,2987 5571,2982 5730,3015C5800,3030 5809,3028 5790,3005C5775,2987 5782,2984 5861,2976C5943,2967 6116,2987 6217,3016C6265,3029 6366,3070 6440,3107C6656,3212 6666,3211 6764,3086C6897,2915 7050,2807 7215,2765C7288,2746 7428,2746 7495,2764C7614,2796 7725,2877 7779,2971L7806,3019L7851,2973C7988,2831 8177,2784 8325,2856C8384,2885 8406,2902 8444,2952C8476,2995 8510,3095 8510,3149C8510,3275 8414,3467 8165,3840C8002,4084 7867,4223 7685,4337C7591,4396 7432,4474 7343,4506C7314,4516 7290,4529 7290,4534C7290,4540 7297,4570 7305,4600C7367,4828 7363,5062 7294,5275C7262,5371 7233,5432 7171,5525C7146,5564 7121,5600 7117,5607C7112,5615 7124,5626 7152,5641C7176,5653 7209,5675 7225,5690C7243,5706 7277,5723 7309,5730C7413,5754 7479,5847 7467,5952C7463,5980 7448,6028 7434,6059C7407,6113 7329,6203 7300,6212C7274,6221 7301,6237 7370,6254C7495,6286 7582,6369 7616,6489C7625,6520 7642,6579 7655,6620C7691,6734 7694,6762 7676,6823C7650,6913 7582,6961 7360,7050C7303,7072 7251,7095 7244,7101C7237,7106 7229,7134 7225,7163C7195,7396 7115,7548 6955,7677C6770,7826 6535,7890 6280,7860ZM7492.4,6676.4C7488.52,6671.82 7471.05,6683.63 7465.4,6686.8C7446.42,6697.47 7440.69,6731.26 7443.2,6743.2C7448,6766 7505.4,6766.8 7513.4,6756.8C7521.4,6745.8 7506.8,6693.4 7492.4,6676.4ZM6485,6295C6502,6285 6573.79,6241.69 6584,6237.6C6608,6228 6623.6,6220.2 6666.6,6159.2C6690.6,6126.2 6730,6049 6730,6049L6633,6129C6528,6213 6503,6238 6474,6285L6455,6315L6485,6295ZM7222,6154C7290,6110 7338,5996 7318,5924C7295,5841 7192,5838 7076,5918C7055,5932 7007,5987 6970,6040C6933,6093 6895,6142 6886,6149C6859,6172 6868,6181 6913,6174C7020,6159 7071,6123 7140,6014C7162,5979 7185,5950 7190,5950C7196,5950 7200,5971 7200,5998C7200,6048 7166,6135 7137,6159C7090,6197 7161,6193 7222,6154ZM1754,5906C2014,5658 2464,5517 2896,5550C2965,5555 3058,5563 3103,5566L3185,5573L3115,5525C2991,5440 2957,5412 2833,5289L2711,5168L2597,5163C2522,5159 2477,5161 2464,5168C2446,5179 2447,5179 2470,5180C2500,5180 2564,5216 2620,5262C2661,5296 2674,5328 2643,5315C2587,5294 2467,5277 2337,5273L2190,5267L2127,5298C2013,5355 2012,5359 2116,5359C2181,5359 2223,5365 2263,5379C2320,5399 2380,5435 2380,5449C2380,5454 2325,5460 2258,5463C2071,5471 1924,5516 1833,5595C1740,5674 1661,5831 1642,5974L1633,6043L1668,5999C1688,5975 1727,5933 1754,5906ZM7350,4308C7593,4206 7747,4091 7900,3900C8010,3761 8227,3420 8296,3276C8369,3125 8321,3000 8191,3000C8169,3000 8139,3005 8123,3011C8097,3021 8097,3023 8115,3030C8143,3041 8166,3069 8185,3114C8213,3181 8176,3280 8123,3280C8114,3280 8110,3264 8110,3230C8110,3169 8094,3133 8059,3114C8019,3094 7993,3096 7944,3125C7896,3153 7858,3209 7840,3280C7825,3337 7804,3378 7774,3411C7759,3426 7746,3458 7740,3493C7727,3560 7708,3608 7673,3661C7646,3701 7625,3713 7634,3683C7644,3646 7652,3530 7644,3530C7639,3530 7616,3568 7593,3613C7547,3703 7476,3792 7387,3869C7330,3919 7212,3996 7204,3988C7202,3985 7225,3936 7255,3879C7285,3822 7310,3771 7310,3766C7310,3760 7295,3770 7278,3786C7232,3828 7126,3910 7058,3955C7026,3976 7000,3996 7000,4000C7000,4004 7021,4036 7047,4071C7102,4146 7210,4329 7210,4348C7210,4365 7226,4360 7350,4308Z" style="fill-rule:nonzero;"/>
        <path d="M6494.4,7165C6456.4,7147 6406,7078 6384,7025C6366,6981 6370,6973 6402,6994C6440,7019 6510,7025 6554,7006C6627,6976 6676,6989 6674,7044C6672,7093 6638.4,7149 6602.4,7167C6565.4,7186 6535.4,7186 6494.4,7165Z" style="fill-rule:nonzero;"/>
        <g transform="matrix(0.890505,5.45718e-18,5.45718e-18,0.935067,1893.6,1842.31)">
            <path d="M8265,6140C8144,6107 8055,6055 7959,5960C7890,5892 7865,5858 7832,5790C7775,5675 7760,5607 7760,5477C7760,5304 7800,5186 7905,5052C8095,4809 8420,4727 8712,4849C8885,4922 9023,5074 9091,5267C9121,5351 9128,5523 9106,5624C9062,5820 8916,6007 8734,6098C8610,6161 8408,6179 8265,6140ZM8092.63,5858.57C8235.72,5955.94 8946.23,5583.39 8949.29,5456.5C8953.58,5278.99 8850.62,5111.51 8697.94,5031.11C8634.18,4997.54 7917.35,5535.2 7940.21,5615.28C7988.56,5784.71 8053.47,5831.92 8092.63,5858.57ZM7928.82,5384.03C8062.86,5235.7 8302.37,5057.32 8497.1,4966.05C8154.74,4953.03 7970.32,5171.34 7928.82,5384.03ZM8897.74,5707.02C8697.4,5861.4 8440.75,5968.38 8295.36,5981.16C8495.05,6030.8 8767.78,5977.7 8897.74,5707.02Z" style="fill-rule:nonzero;"/>
        </g>
        <path d="M5920,5390C5920,5385 5964,5352 6018,5317C6336,5107 6491,4881 6565,4518C6576,4463 6588,4430 6596,4430C6603,4430 6616,4453 6625,4481C6651,4558 6641,4740 6607,4838C6519,5087 6309,5299 6071,5381C6014,5401 5920,5407 5920,5390Z" style="fill-rule:nonzero;"/>
        <path d="M5558,5254C5523,5247 5505,5226 5523,5212C5530,5206 5587,5178 5649,5150C5923,5028 6107,4884 6257,4673C6293,4622 6328,4580 6336,4580C6357,4580 6354,4656 6331,4729C6264,4945 6030,5163 5791,5234C5735,5251 5604,5262 5558,5254Z" style="fill-rule:nonzero;"/>
        <path d="M4254,4365C4243,4336 4274,4285 4350,4209C4514,4045 4761,3974 4952,4036C5004,4053 5029,4075 5013,4091C5007,4097 4954,4108 4895,4116C4716,4141 4566,4197 4395,4302C4264,4382 4261,4384 4254,4365Z" style="fill-rule:nonzero;"/>
    </g>
</svg>
