<?xml version="1.0" encoding="UTF-8" standalone="no"?>
<!DOCTYPE svg PUBLIC "-//W3C//DTD SVG 1.1//EN" "http://www.w3.org/Graphics/SVG/1.1/DTD/svg11.dtd">
<svg width="100%" height="100%" viewBox="0 0 4267 4267" version="1.1" xmlns="http://www.w3.org/2000/svg" xmlns:xlink="http://www.w3.org/1999/xlink" xml:space="preserve" xmlns:serif="http://www.serif.com/" style="fill-rule:evenodd;clip-rule:evenodd;stroke-linejoin:round;stroke-miterlimit:2;">
    <g transform="matrix(0.416699,0,0,-0.416699,0,4267)">
        <path d="M6935,8862C6855,8854 6767,8817 6190,8552C5965,8449 5923,8437 5806,8442C5707,8446 5703,8447 5472,8569C5360,8629 5250,8656 5090,8665C4895,8676 4691,8634 4411,8523C4161,8425 4046,8358 3890,8218C3837,8171 3786,8128 3775,8123C3764,8117 3694,8095 3620,8075C3474,8034 3342,7982 3252,7928C3170,7879 3044,7748 2981,7644C2885,7486 2856,7446 2790,7379C2713,7302 2646,7262 2530,7225C2414,7188 2379,7148 2412,7087C2430,7052 2450,7042 2525,7029C2636,7011 2670,6985 2670,6923C2670,6868 2624,6796 2520,6685C2404,6560 2365,6492 2347,6380C2331,6274 2349,6178 2406,6061C2473,5926 2552,5849 2728,5750C2904,5652 2905,5649 2904,5547C2903,5488 2895,5441 2875,5380C2816,5195 2756,5094 2568,4864C2353,4602 2275,4475 2184,4245L2137,4125C2137,4125 1850.96,3848.39 1744,3720C1557.4,3496 522.811,2025.51 422.73,1529.34C399.492,1414.13 577.368,1398.24 614.807,1489.84C893.534,2171.8 1759,3423 2009,3705C2065,3768 2116,3820 2121,3820C2126,3820 2128,3810 2125,3798C2115,3759 2138,3554 2161,3467C2191,3356 2247,3227 2302,3144C2349,3074 2463.82,2925.59 2683,2836C2717.35,2821.96 2768,2853 2776,2885C2788,2932 2772,2958 2692,3019C2512,3155 2409,3310 2354,3529C2307,3711 2312,3952 2365,4129C2418,4307 2497,4444 2668,4654C2738,4741 2809,4832 2827,4856L2859,4901L2865,4873C2899,4713 2923,4650 2993,4542C3075,4416 3189,4316 3340,4240C3420,4199 3473,4181 3670,4125C3755,4101 3862,4065 3908,4046C4124,3953 4267,3810 4332,3621C4364,3529 4364,3352 4333,3232C4308,3134 4314,3099 4361,3080C4399,3064 4430,3083 4471,3148C4516,3220 4542,3312 4547,3426C4553,3547 4540,3635 4499,3741C4400,3996 4189,4170 3845,4280C3773,4302 3658,4339 3589,4361C3386,4426 3261,4510 3171,4645C3048,4829 3021,5038 3080,5335C3097,5418 3112,5489 3114,5495C3115,5500 3172,5449 3240,5381C3429,5192 3520,5143 3702,5133C4001,5116 4207,5263 4356,5597L4391,5675L4387,5540C4383,5434 4376,5386 4356,5317C4302,5134 4207,4991 4055,4861C3956,4777 3962.07,4738.3 4001,4705C4032.8,4677.8 4070,4677 4154,4728C4312,4823 4468,5027 4535,5225C4582,5367 4594,5442 4594,5600C4594,5762 4576,5864 4519,6038L4498,6100L4519,6188C4561,6371 4569,6505 4545,6646C4525,6761 4484,6847 4381,6985C4223,7198 4172,7339 4184,7526C4189,7612 4188,7631 4175,7644C4111,7707 4040,7591 4040,7424C4040,7268 4106,7117 4244,6955C4302,6887 4289,6889 4184,6962C3952,7122 3869,7354 3940,7642C3962,7732 3962,7740 3947,7763C3897,7840 3799,7764 3747,7607C3716,7513 3717,7322 3749,7220C3823,6983 3998,6794 4245,6684C4312,6655 4320,6633 4327,6465C4331,6365 4328,6319 4305,6186C4263,5935 4187,5695 4108,5562C4061,5483 3975,5400 3905,5365C3851,5338 3835,5335 3750,5335C3668,5335 3647,5339 3600,5361C3525,5397 3455,5461 3399,5547C3344,5632 3305,5735 3260,5920C3233,6030 3221,6060 3198,6084C3166,6116 3131,6114 3095,6079C3078,6062 3075,6047 3077,5982C3078,5940 3085,5874 3094,5837C3103,5799 3110,5767 3110,5765C3110,5762 3088,5777 3060,5798C3033,5818 2956,5864 2889,5900C2670,6017 2572,6135 2562,6296C2556,6397 2569,6428 2664,6529C2785,6656 2828,6727 2875,6870C2895,6935 2969,7111 2982,7124C3000,7145 2988,7146 2937,7129C2876,7108 2770,7093 2785,7107C2791,7112 2829,7141 2870,7172C2911,7203 2954,7239 2965,7252C3016,7311 3053,7364 3120,7473C3276,7728 3397,7809 3746,7896L3895,7934L4000,8034C4158,8184 4318,8279 4555,8363C4814,8455 4968,8481 5128,8461C5256,8444 5324,8420 5447,8349C5570,8276 5629,8255 5744,8240C5908,8218 6011,8244 6316,8385C6536,8487 6658,8540 6672,8540C6678,8540 6679,8529 6676,8515C6667,8480 6687,8412 6716,8374C6729,8356 6761,8332 6786,8319C6827,8300 6850,8297 6954,8296C7060,8295 7081,8292 7123,8272C7184,8241 7220,8184 7220,8115C7220,8040 7142,7899 7011,7735C6766,7429 6453,7211 6000,7030C5742,6928 5666,6886 5579,6800C5529,6751 5493,6704 5474,6665C5448,6610 5445,6596 5445,6499C5445,6400 5447,6390 5478,6329C5578,6132 5762,6031 6135,5970C6375,5930 6607.6,5991.6 6802.6,6038.6L6887.6,6059.6L7002.6,6014.6C7103.6,5973.6 7177.6,5951.6 7355.6,5905.6L7404.6,5892.6L7363.6,5850.6C7255.6,5739.6 7083,5658 6742,5696C6522,5720 6362,5705 6171,5641C5865,5538 5628,5320 5516,5038C5467,4913 5443,4721 5470,4670C5494,4625 5560,4622 5582,4664C5588,4675 5599,4716 5606,4754C5632,4890 5726,5048 5847,5160C5889,5198 5928,5230 5932,5230C5937,5230 5928,5211 5912,5188C5843,5087 5773,4917 5749,4788C5743,4753 5738,4681 5738,4627C5738.4,4578.83 5741.26,4545.97 5746.55,4523.42C5763,4453.16 5850.04,4471.63 5862.78,4516.87C5868.72,4537.94 5873.97,4570.2 5880,4604C5889,4660 5910,4735 5926,4770L5954,4833L5971,4714C5993,4563 6022,4465 6105,4260C6247,3912 6265,3836 6265,3600C6265,3442 6255,3359 6226,3258L6214,3218L6181,3285C6141,3366 6065,3467 5926,3625C5744,3831 5650.6,3989.4 5591.6,4166.4C5552.6,4285.4 5445.6,4233.8 5445.6,4176.8C5445.6,4091.8 5462,3974 5520,3857C5577,3744 5637,3659 5766,3508C5829,3435 5903,3341 5931,3300C6092,3061 6155,2805 6116,2544C6096,2405 6073,2333 6008,2202C5956,2097 5931,2064 5944,2115C5959,2176 5971,2318 5965,2375C5951,2517 5925,2570 5871,2570C5827,2570 5816,2548 5813,2449C5808,2291 5750,2069 5674,1918C5611,1794 5541,1699 5426,1584C5264,1423 5087,1311 4870,1233L4775,1199L4802,1227C4847,1275 4937,1417 4989,1523C5123,1793 5182,2110 5151,2390C5129,2595 5074,2755 4977,2901C4892,3030 4834,3065 4780,3022C4743,2992 4752,2950 4823,2811C4907,2647 4938,2549 4950,2401C4955,2337 4960,2277 4960,2267C4960,2255 4944,2266 4905,2304C4841,2366 4785,2406 4650,2480C4509,2558 4450,2601 4383,2675C4274,2793 4223,2919 4195,3136C4170,3339 4135,3458 4063,3590C4012,3683 3939,3772 3868,3825C3762,3904 3705.6,3913.6 3675,3866C3657.64,3838.99 3666,3807 3756,3720C3798,3679 3850,3619 3872,3587L3912,3528L3836,3589C3704,3694 3534.77,3774.26 3462,3780C3401.2,3784.8 3351.56,3704.67 3417.86,3662.43C3440.14,3648.24 3475.68,3622.79 3540,3581C3726,3460 3881,3293 3956,3135C3974,3097 4005,3009 4025,2940C4066,2797 4101,2717 4159,2631C4247,2502 4345,2421 4559,2300C4772,2180 4866,2080 4890,1948C4916,1811 4814,1566 4630,1323L4582,1259L4576,1322C4573,1357 4567,1468 4562,1569C4558.04,1659.52 4554.54,1705.3 4551.64,1731.65C4544.75,1794.37 4440.07,1832.43 4412.59,1742.53C4405.47,1719.25 4396.84,1687.48 4390,1637C4364,1438 4386,1178 4446,990C4474.38,899.381 4502.33,838.715 4531.4,806.661C4565.85,768.677 4674.4,797.404 4666,904L4660,967L4757,990C4994,1044 5256,1171 5465,1334C5509,1369 5595,1449 5656,1513L5767,1629L5774,1492C5789,1198 5845,905 5905,814C5925,782 5982,772 6015,794C6066,827 6067,845 6032,1054C5979,1366 5968,1542 5991,1707C6003,1796 6029,1856 6100,1955C6196,2089 6265,2244 6307,2419C6331,2514 6333,2547 6335,2740L6337,2955L6373,3046C6469,3288 6501,3545 6465,3785C6438,3963 6421,4016 6263,4425C6185,4625 6152,4835 6170,5006C6197,5251 6274,5401 6405,5465C6470,5497 6588,5511 6697,5499C7000,5467 7011,5466 7110,5478C7220,5491 7346,5532 7420,5580C7505,5635 7601.6,5778.6 7617.6,5841.6C7623.6,5868.6 7634.6,5872.6 7741.6,5883.6C7990.6,5908.6 8117.4,6036 8103.4,6233C8094.4,6370 7953.81,6453.04 7869.2,6494.4C7689.2,6582.4 7532,6615.6 7196,6605.6C6970,6598.6 6871,6645 6753,6681L6689,6701L6696,6733C6717,6833 6804,6948 6999,7136C7351,7475 7490,7719 7490,8000C7490,8122 7466,8218 7401,8359C7369,8427 7347,8490 7340,8535C7319,8669 7251,8771 7148,8823C7095,8850 6996,8868 6935,8862ZM7054,8689C7129,8630 7035,8490 6921,8490C6838,8490 6839,8639 6923,8690C6965,8716 7020,8716 7054,8689ZM6548,6519C6689,6504 6956,6445 7099,6398C7298,6332 7482,6325.99 7636.6,6229.19C7676,6202.23 7723.25,6175.09 7756.6,6179.19C7821.6,6187.19 7826.8,6180.79 7826.8,6202.79C7826.8,6225.79 7764,6270.6 7685,6321.6C7600,6377.6 7470.8,6406.8 7354.4,6428.8L7265,6449L7361,6449C7612,6451 7947.3,6288.79 7911.2,6171.8C7882.2,6077.8 7800.6,6076.6 7621.6,6076.6C7454.6,6076.6 7325.6,6111.6 7086.6,6220.6C6638.22,6425.09 6125,6398 5970,6322C5931,6303 5915,6289 5915,6275C5915,6256 5921,6255 6080,6258C6193,6260 6283,6256 6365,6245C6499,6227 6694,6180 6683,6169C6678,6164 6624,6156 6562,6149C6383,6129 6130,6161 5931,6227C5827,6262 5818,6267 5829,6288C5834,6297 5858,6324 5882,6348C6024,6490 6261,6551 6548,6519Z" style="fill-rule:nonzero;"/>
        <path d="M8758,8386C8744,8375.6 8667,8317 8588,8249C8508,8181 8345,8043 8224,7943C7940.97,7706.73 7866.37,7645.89 7845.29,7614.68C7801.94,7550.5 7902.56,7491.15 7948.86,7522.43C8070.64,7604.7 8826.51,8173.98 8882,8237C8964.24,8330.4 8836.22,8444.1 8758,8386Z" style="fill-rule:nonzero;"/>
        <path d="M5224,8130C5132,8109 5089,8049 5070,7915C5062,7860 5046,7810 5019,7753C4998,7708 4980,7669 4980,7666C4980,7644 5044,7671 5136,7733C5196,7773 5287,7823 5339,7845C5488,7908 5540,7973 5495,8038C5473,8068 5400,8109 5338,8126C5280,8141 5270,8142 5224,8130Z" style="fill-rule:nonzero;"/>
        <path d="M8910,7714C8700,7632 8561,7580 8167,7433C8085,7403 8070,7389 8070,7345C8070,7305 8106,7275 8143,7282C8264,7308 9123.63,7594.91 9212,7624C9309.2,7656 9258.07,7836.85 9155.3,7804.97C9116.58,7792.97 9018.97,7755.97 8910,7714Z" style="fill-rule:nonzero;"/>
        <path d="M3187,7397C3172,7374 3140,7327 3116,7292C3078,7239 3068,7213 3045,7112C2976,6809 2924,6669 2826,6522C2766,6433 2761,6408 2794,6376C2808,6361 2828,6350 2838,6350C2868,6350 2935,6404 2989,6472C3128,6648 3220,6925 3237,7221C3243,7325 3235,7440 3222,7440C3218,7439 3203,7420 3187,7397Z" style="fill-rule:nonzero;"/>
        <path d="M8875,7109C8776,7105 8522,7097 8310,7090C8168.14,7085.32 8096.29,7079.39 8048.92,7069.72C7991.15,7057.92 7983.48,6957.05 8047.4,6951.36C8092.13,6947.39 8270.8,6935.29 8580,6931C8940,6926 9256.59,6929.14 9289,6930C9410.2,6933.2 9390.14,7118.08 9296.59,7117.77C9274.92,7117.69 9242.74,7118.78 9191,7118C9116,7118 8974,7113 8875,7109Z" style="fill-rule:nonzero;"/>
        <path d="M8307.06,6675.16C8221.35,6699.86 8180.4,6587.2 8233,6553C8276.4,6524.78 8293,6510 8550,6397C8668,6345 9043.61,6184.97 9077.43,6173.5C9183.79,6137.42 9251.99,6304.63 9156.01,6347.74C9130.07,6359.39 8681,6536 8437,6631C8385.97,6650.41 8335.86,6666.86 8307.06,6675.16Z" style="fill-rule:nonzero;"/>
        <path d="M3383,6496C3356,6472 3355,6469 3352,6347C3349,6245 3352,6207 3369,6139C3408,5983 3488,5849 3600,5748C3714,5644 3805,5613 3855,5660C3896,5698 3889,5736 3833,5784C3617,5971 3551,6091 3517,6355C3503,6462 3499,6477 3475,6497C3442,6526 3418,6526 3383,6496Z" style="fill-rule:nonzero;"/>
        <path d="M4763.52,5220.58C4710.18,5249.34 4629.1,5199.92 4672.03,5142.04C4689.69,5118.23 4722.4,5068.64 4761,5020C4871,4880 4929,4784 4975,4665C5029,4527 5043,4440 5044,4242C5044.51,4160.91 5046.91,4117.19 5048.11,4091.84C5050.88,4033.71 5150.11,4033.05 5171.26,4072.87C5207.97,4141.97 5239.16,4321.7 5222,4453C5190,4712 5080,4939 4903,5112C4845.87,5167.72 4798.84,5201.54 4763.52,5220.58Z" style="fill-rule:nonzero;"/>
        <path d="M4693,4115C4654,4088 4654,4046 4694,3966C4742,3867 4827,3778 4993,3653C5073,3592 5152,3523 5177,3491C5279,3365 5337,3182 5327,3022C5323,2949 5324,2936 5341,2919C5387,2873 5447,2916 5471,3012C5490,3086 5488,3259 5466,3339C5433,3462 5349,3600 5248,3696C5161.4,3778.31 4959.23,3893.61 4882.8,3988.6C4775.8,4121.6 4742,4149 4693,4115Z" style="fill-rule:nonzero;"/>
        <path d="M1817,2760C1789,2738 1770,2682 1750,2565C1732,2460 1742,2215 1768,2117C1819,1929 1919,1759 2065,1614C2251,1429 2486,1308 2772,1250C2847.9,1234.21 2894.86,1231.49 2926.18,1231.4C2994.33,1231.18 3009.68,1352.01 2946.66,1377.71C2918.55,1389.18 2887.12,1402.5 2830,1419C2560,1497 2358,1606 2209,1752C2000,1958 1901,2235 1930,2535C1945,2703 1944,2727 1915,2755C1886,2785 1851,2787 1817,2760Z" style="fill-rule:nonzero;"/>
        <path d="M2670,1987C2638,1971 2620,1933 2627,1896C2633,1867 2656,1841 2807,1698C2892,1618 2973,1512 3020,1420C3067,1326 3100,1222 3144,1028C3168,925 3195,830 3204,816C3236,766 3309,770 3336,822C3350,848 3351,871 3346,943C3329,1188 3230,1480 3103,1659C2996,1810 2820,1962 2715,1994C2704,1997 2684,1994 2670,1987Z" style="fill-rule:nonzero;"/>
    </g>
</svg>
