<?xml version="1.0" encoding="UTF-8" standalone="no"?>
<!DOCTYPE svg PUBLIC "-//W3C//DTD SVG 1.1//EN" "http://www.w3.org/Graphics/SVG/1.1/DTD/svg11.dtd">
<svg width="100%" height="100%" viewBox="0 0 16338 16333" version="1.1" xmlns="http://www.w3.org/2000/svg" xmlns:xlink="http://www.w3.org/1999/xlink" xml:space="preserve" xmlns:serif="http://www.serif.com/" style="fill-rule:evenodd;clip-rule:evenodd;stroke-linejoin:round;stroke-miterlimit:2;">
    <g transform="matrix(4.16679,0,0,4.16658,11068,2170.01)">
        <path d="M0,0C1.302,0.001 1.302,0.001 2.631,0.002C96.005,0.175 186.651,18.319 257.305,83.926C259.415,85.878 261.562,87.761 263.75,89.625C271.727,96.59 278.941,104.118 285.523,112.41C286.991,114.241 288.496,116.042 290.039,117.809C307.051,137.342 325.493,164.417 333.75,189.188C345.607,196.397 360.996,198.251 374.465,200.168C375.654,200.342 376.843,200.515 378.068,200.694C381.275,201.162 384.482,201.625 387.69,202.087C391.077,202.576 394.463,203.072 397.849,203.568C408.665,205.15 419.482,206.719 430.302,208.273C476.535,214.913 476.535,214.913 497.25,218.938C498.317,219.143 498.317,219.143 499.405,219.353C523.808,224.098 548.289,230.329 563.891,251.027C582.423,278.787 568.703,318.94 562.75,349.188C562.589,350.006 562.428,350.825 562.262,351.669C538.191,473.781 538.191,473.781 491.75,507.188C484.286,512.02 476.594,515.758 468.438,519.25C454.33,525.337 445.971,533.694 439.5,547.707C438.633,550.574 438.41,551.512 439.75,554.188C441.749,556.103 443.727,557.831 445.875,559.563C447.156,560.627 448.435,561.695 449.711,562.766C450.376,563.323 451.041,563.881 451.726,564.455C457.597,569.479 463.157,574.858 468.75,580.188C469.679,581.063 470.609,581.938 471.566,582.84C495.713,606.155 511.444,639.246 512.063,673C511.407,694.592 504.701,714.965 489.578,730.715C473.791,744.518 453.978,746.528 433.984,748.863C422.171,750.27 410.907,752.394 399.421,755.474C382.275,760.054 365.422,763.456 347.75,765.188C346.529,765.319 345.309,765.45 344.051,765.586C321.701,767.62 299.387,766.445 277.434,761.996C276.356,761.779 275.279,761.562 274.17,761.339C262.401,758.946 250.677,756.359 238.958,753.738C235.302,752.921 231.645,752.109 227.988,751.297C225.651,750.776 223.314,750.255 220.977,749.734C219.889,749.493 218.802,749.251 217.682,749.002C216.682,748.778 215.681,748.554 214.651,748.323C213.774,748.127 212.896,747.931 211.993,747.73C209.75,747.188 209.75,747.188 206.75,746.188C208.063,759.183 210.671,771.69 213.938,784.313C214.113,784.997 214.289,785.682 214.47,786.387C220.189,808.538 227.01,830.38 234.188,852.096C235.357,855.634 236.519,859.174 237.681,862.714C241.027,872.909 244.385,883.1 247.773,893.281C267.364,952.189 284.415,1012.1 295.75,1073.19C295.888,1073.92 296.025,1074.66 296.167,1075.42C299.593,1093.87 302.287,1112.37 304.5,1131C304.652,1132.25 304.652,1132.25 304.806,1133.53C307.945,1159.76 309.142,1186.01 309.068,1212.41C309.062,1214.48 309.06,1216.56 309.057,1218.63C309.013,1242.57 308.159,1266.35 305.75,1290.19C305.663,1291.06 305.576,1291.93 305.486,1292.83C301.36,1333.65 295.01,1374.17 282.096,1413.23C277.968,1426.01 276.323,1439.16 275.25,1452.5C275.127,1453.95 275.003,1455.4 274.879,1456.84C274.172,1465.23 273.576,1473.61 273.035,1482.01C268.888,1546.19 254.087,1601.46 219.685,1656.31C205.705,1678.61 199.251,1698.53 195.498,1724.6C194.684,1730.25 193.84,1735.9 192.998,1741.54C192.784,1742.98 192.57,1744.41 192.357,1745.85C190.191,1760.42 187.919,1774.99 185.633,1789.54C185.261,1791.91 184.89,1794.28 184.518,1796.65C183.025,1806.16 181.531,1815.68 180.03,1825.19C172.206,1874.82 165.321,1924.54 159,1974.38C158.851,1975.55 158.702,1976.72 158.549,1977.92C152.289,2027.21 141.647,2174.91 138.542,2307.88C135.317,2446.02 139.75,2568.66 139.75,2570.19C140.303,2570.22 147.856,2570.26 148.426,2570.29C156.229,2570.92 163.704,2572.58 171.313,2574.38C171.975,2574.53 172.637,2574.69 173.319,2574.85C202.56,2581.77 228.702,2593.68 245.266,2619.97C257.445,2640.14 266.087,2663.46 265.82,2687.19C265.815,2688.06 265.81,2688.93 265.805,2689.83C265.792,2691.95 265.772,2694.07 265.75,2696.19C266.577,2696.19 266.577,2696.19 267.42,2696.19C307.446,2696.15 516.626,2695.63 518.628,2695.63C551.815,2695.5 556.619,2756.76 518.957,2756.7C517.45,2756.7 -2201.91,2757.45 -2206.01,2757.44C-2207.49,2757.44 -2208.96,2757.44 -2210.43,2757.45C-2231.58,2757.52 -2231.58,2757.52 -2240.07,2749.47C-2246.33,2742.89 -2248.35,2736.82 -2248.69,2727.81C-2248.42,2718.28 -2245.68,2710.74 -2239.03,2703.84C-2230.07,2695.54 -2220.38,2695.9 -2208.81,2695.95C-2207.34,2695.95 -1912.28,2696.14 -1868.25,2696.19C-1868.42,2695.32 -1868.6,2694.46 -1868.78,2693.57C-1869.43,2690.32 -1870.09,2687.07 -1870.74,2683.83C-1871.02,2682.43 -1871.3,2681.03 -1871.58,2679.63C-1890.14,2587.66 -1860.79,2464.02 -1780.28,2198.62C-1767.89,2176.42 -1767.89,2176.42 -1755.81,2154.06C-1755.27,2153.05 -1755.27,2153.05 -1754.72,2152.02C-1753.36,2149.43 -1752.18,2146.97 -1751.25,2144.19C-1757.86,2147.89 -1764.42,2151.62 -1770.79,2155.72C-1814.32,2183.67 -1864.34,2198.34 -1915.25,2205.19C-1916.66,2205.38 -1916.66,2205.38 -1918.09,2205.59C-1956.21,2210.72 -1995.85,2207.18 -2033.25,2199.19C-2034.72,2198.87 -2034.72,2198.87 -2036.23,2198.55C-2096.87,2185.23 -2171.67,2156.52 -2218.25,2114.19C-2219.06,2113.46 -2219.87,2112.73 -2220.7,2111.98C-2230.11,2103.08 -2236.43,2091.95 -2237.43,2078.85C-2238.3,2044.47 -2223.36,2019.13 -2203.25,1992.19C-2202.75,1991.52 -2202.25,1990.84 -2201.73,1990.15C-2163.42,1938.97 -2118.71,1911.31 -2061.31,1884.88C-2028.52,1869.72 -1995.85,1853.06 -1966.1,1832.47C-1964.82,1831.58 -1963.53,1830.7 -1962.24,1829.82C-1948.32,1820.33 -1935.18,1809.93 -1922.78,1798.51C-1921.08,1796.95 -1919.37,1795.39 -1917.65,1793.84C-1910.3,1787.17 -1903.2,1780.29 -1896.19,1773.26C-1894.42,1771.49 -1892.65,1769.72 -1890.88,1767.95C-1885.65,1762.72 -1880.48,1757.5 -1875.68,1751.86C-1873.49,1749.29 -1871.18,1746.85 -1868.88,1744.38C-1864.58,1739.73 -1860.52,1734.95 -1856.55,1730.02C-1854.51,1727.51 -1852.43,1725.05 -1850.32,1722.61C-1844.13,1715.41 -1838.42,1707.92 -1832.8,1700.28C-1831.32,1698.28 -1829.81,1696.29 -1828.29,1694.32C-1816.16,1678.34 -1805.31,1661.45 -1794.26,1644.73C-1792.34,1641.83 -1790.42,1638.94 -1788.48,1636.05C-1783.53,1628.67 -1778.72,1621.24 -1774.12,1613.62C-1773.52,1612.63 -1772.92,1611.64 -1772.31,1610.62C-1767.83,1603.2 -1763.45,1595.76 -1759.25,1588.19C-1758.84,1587.45 -1758.42,1586.71 -1758,1585.95C-1743.83,1560.62 -1731.43,1534.72 -1719.89,1508.11C-1719.51,1507.25 -1719.14,1506.38 -1718.75,1505.49C-1718.38,1504.63 -1718,1503.77 -1717.61,1502.88C-1713.79,1494.08 -1709.82,1485.34 -1705.81,1476.62C-1705.48,1475.9 -1705.14,1475.17 -1704.8,1474.42C-1703.51,1471.6 -1702.21,1468.79 -1700.91,1465.97C-1699.03,1461.88 -1697.16,1457.79 -1695.3,1453.7C-1658.18,1371.94 -1612.58,1294.95 -1551.02,1229.1C-1549.64,1227.61 -1548.28,1226.11 -1546.92,1224.61C-1540.24,1217.25 -1533.36,1210.14 -1526.32,1203.13C-1524.55,1201.36 -1522.78,1199.59 -1521.01,1197.81C-1515.77,1192.57 -1510.55,1187.38 -1504.87,1182.6C-1503.08,1181.04 -1501.41,1179.38 -1499.75,1177.69C-1496.09,1173.98 -1492.21,1170.58 -1488.25,1167.19C-1487.22,1166.29 -1486.19,1165.4 -1485.16,1164.5C-1448.25,1132.51 -1407.51,1105.79 -1364.25,1083.19C-1363.29,1082.69 -1362.34,1082.19 -1361.35,1081.67C-1282.58,1040.69 -1197.52,1022.95 -1077.95,1011.34C-1023.14,1006.38 -968.715,1000.81 -914.575,990.624C-912.462,990.227 -910.349,989.835 -908.236,989.444C-848.821,978.312 -789.44,960.993 -734.25,936.188C-733.164,935.7 -732.079,935.213 -730.96,934.711C-709.458,925.015 -688.52,914.634 -668.095,902.83C-665.388,901.267 -662.673,899.719 -659.957,898.172C-637.545,885.283 -615.932,870.696 -595.25,855.188C-594.349,854.512 -594.349,854.512 -593.431,853.823C-585.882,848.135 -578.512,842.237 -571.25,836.188C-569.771,834.989 -569.771,834.989 -568.262,833.766C-551.732,820.178 -535.735,804.598 -523.25,787.188C-522.578,786.311 -521.907,785.434 -521.215,784.531C-514.891,776.183 -509.548,767.207 -504.25,758.188C-503.889,757.58 -503.528,756.972 -503.156,756.346C-475.031,708.487 -465.498,647.778 -458.449,593.414C-458.322,592.438 -458.195,591.463 -458.064,590.457C-455.098,567.598 -452.491,544.7 -449.988,521.785C-449.363,516.068 -448.722,510.354 -448.078,504.639C-447.577,500.176 -447.087,495.711 -446.601,491.246C-446.369,489.133 -446.132,487.021 -445.892,484.909C-445.563,482.002 -445.248,479.093 -444.938,476.183C-444.787,474.896 -444.787,474.896 -444.633,473.584C-444.551,472.795 -444.47,472.006 -444.387,471.193C-444.312,470.512 -444.236,469.831 -444.159,469.129C-444.367,464.683 -447.528,461.343 -450.125,457.938C-450.94,456.861 -451.755,455.784 -452.57,454.707C-453.924,452.928 -455.279,451.15 -456.636,449.373C-467.948,434.537 -478.874,419.336 -488.25,403.188C-488.742,402.347 -488.742,402.347 -489.244,401.489C-501.39,380.531 -508.324,357.169 -508.453,332.902C-508.459,332.043 -508.465,331.184 -508.47,330.298C-508.48,328.489 -508.486,326.68 -508.49,324.87C-508.5,322.156 -508.531,319.443 -508.563,316.729C-508.768,283.054 -494.77,254.398 -474.25,228.188C-473.459,227.165 -472.667,226.143 -471.852,225.09C-469.708,222.4 -467.507,219.783 -465.25,217.188C-464.814,216.684 -464.378,216.181 -463.929,215.663C-456.899,207.618 -449.368,200.493 -441.114,193.719C-439.2,192.147 -437.301,190.558 -435.402,188.969C-426.036,181.183 -416.313,174.044 -406.25,167.188C-405.504,166.678 -404.788,166.122 -403.99,165.644C-384.535,153.989 -379.867,151.286 -366.875,143.25C-354.15,135.38 -350.209,126.924 -344.122,115.866C-326.864,84.602 -302.132,58.885 -267.25,48.625C-266.559,48.419 -265.868,48.213 -265.156,48.001C-190.863,25.967 -107.501,4.352 -29.891,0.637C-29.026,0.595 -28.161,0.553 -27.27,0.51C-18.18,0.098 -9.098,-0.012 0,0ZM-118.375,72.813C-119.062,73.006 -119.75,73.2 -120.458,73.4C-124.031,74.506 -125.099,74.961 -127.25,78.188C-122.978,82.105 -118.607,85.71 -113.875,89.063C-95.926,101.972 -82.196,119.401 -77.84,141.438C-74.321,163.807 -83.497,186.28 -90.234,207.25C-106.093,256.826 -97.693,299.158 -84.617,348.066C-75.722,381.352 -68.653,413.887 -68.859,448.545C-68.875,451.754 -68.859,454.961 -68.84,458.17C-68.82,476.905 -70.323,495.662 -74.938,513.875C-75.192,514.9 -75.447,515.925 -75.71,516.981C-81.392,538.947 -90.618,559.686 -105.25,577.188C-105.685,577.712 -106.12,578.236 -106.568,578.775C-126.042,601.93 -154.211,615.329 -184.25,618.188C-254.613,622.585 -321.734,568.315 -373.56,526.839C-379.74,521.361 -379.74,521.361 -387.25,519.188C-389.819,535.402 -392.162,551.63 -394.257,567.912C-396.983,589.045 -399.743,610.168 -403.25,631.188C-403.424,632.233 -403.424,632.233 -403.602,633.299C-409.211,666.789 -416.838,699.83 -425.152,732.742C-425.49,734.08 -425.827,735.418 -426.165,736.756C-427.801,743.236 -429.451,749.712 -431.123,756.182C-436.815,778.389 -441.285,800.475 -441.488,823.473C-441.498,824.404 -441.508,825.335 -441.518,826.295C-441.688,846.583 -441.616,866.276 -437.25,886.188C-436.952,887.599 -436.952,887.599 -436.649,889.038C-432.678,907.342 -425.766,924.707 -419.117,942.163C-414.432,954.485 -412.222,961.398 -410.653,965.894C-405.184,981.569 -433.657,1005.95 -457.889,986.906C-483.015,967.155 -491.238,915.719 -498.96,888.639C-499.365,887.228 -499.365,887.228 -499.779,885.789C-500.291,884.005 -500.797,882.22 -501.297,880.433C-501.639,879.241 -501.639,879.241 -501.988,878.025C-502.185,877.329 -502.381,876.634 -502.583,875.917C-503.201,873.966 -503.201,873.966 -505.25,872.188C-560.227,941.62 -594.459,1026.48 -617.25,1131.19C-617.412,1132.28 -617.573,1133.38 -617.74,1134.51C-620,1150.07 -621.665,1165.64 -622.938,1181.31C-623.029,1182.43 -623.029,1182.43 -623.122,1183.56C-623.542,1188.77 -623.911,1193.98 -624.25,1199.19C-624.299,1199.92 -624.349,1200.66 -624.4,1201.42C-625.485,1218.2 -625.435,1234.99 -625.435,1251.8C-625.435,1397.04 -564.663,1517.08 -562.249,1521.74C-547.442,1550.32 -585.484,1571.68 -600.652,1546.68C-607.711,1535.04 -655.425,1473.93 -675.5,1337.31C-675.687,1336.04 -679.628,1282.14 -679.568,1256.33C-679.562,1253.9 -679.56,1251.46 -679.558,1249.03C-679.526,1224.73 -678.989,1200.59 -676.478,1176.4C-676.247,1174.16 -676.028,1171.92 -675.812,1169.68C-669.305,1102.95 -653.706,1032.7 -625.766,971.535C-625.469,970.883 -625.172,970.23 -624.866,969.558C-623.41,966.358 -621.944,963.164 -620.452,959.98C-617.688,953.96 -615.522,948.841 -615.25,942.188C-619.415,943.614 -622.301,945.665 -625.75,948.375C-637.209,956.915 -656.495,966.845 -669.25,973.188C-670.226,973.679 -671.202,974.17 -672.207,974.676C-746.51,1011.99 -828.73,1036.88 -1062.46,1070.02C-1066.79,1070.46 -1071.13,1070.89 -1075.47,1071.33C-1076.55,1071.44 -1077.63,1071.55 -1078.75,1071.66C-1080.94,1071.88 -1083.14,1072.11 -1085.33,1072.33C-1091.74,1072.97 -1098.14,1073.61 -1104.55,1074.24C-1123.65,1076.13 -1142.72,1078.08 -1161.72,1080.82C-1162.76,1080.97 -1162.76,1080.97 -1163.82,1081.12C-1254.1,1094.26 -1337.54,1129.31 -1439.18,1206.59C-1441.93,1208.93 -1444.74,1211.19 -1447.56,1213.44C-1452.03,1217.09 -1456.27,1220.92 -1460.48,1224.86C-1461.17,1225.51 -1461.86,1226.16 -1462.57,1226.83C-1470.19,1234.03 -1477.62,1241.41 -1485.03,1248.83C-1487.34,1251.15 -1489.66,1253.46 -1491.98,1255.78C-1493.47,1257.28 -1494.97,1258.78 -1496.47,1260.28C-1497.15,1260.95 -1497.83,1261.63 -1498.53,1262.33C-1502.43,1266.25 -1506.15,1270.27 -1509.76,1274.46C-1511.68,1276.68 -1513.65,1278.84 -1515.62,1281C-1520.36,1286.25 -1524.81,1291.69 -1529.25,1297.19C-1530.28,1298.45 -1531.32,1299.72 -1532.36,1300.98C-1542.47,1313.35 -1552.16,1325.91 -1561.31,1339C-1563.13,1341.61 -1564.98,1344.21 -1566.85,1346.79C-1617.06,1416.01 -1654.45,1497.58 -1672.25,1581.19C-1672.48,1582.27 -1672.71,1583.35 -1672.95,1584.47C-1682.72,1630.84 -1689.38,1680.77 -1688.25,1728.19C-1685.17,1725.34 -1683.1,1722.53 -1681.04,1718.88C-1680.14,1717.31 -1680.14,1717.31 -1679.23,1715.71C-1678.6,1714.59 -1677.96,1713.47 -1677.31,1712.31C-1676.3,1710.53 -1675.28,1708.75 -1674.27,1706.97C-1673.58,1705.77 -1672.89,1704.57 -1672.21,1703.36C-1669.19,1698.06 -1666.11,1692.81 -1663,1687.56C-1662.49,1686.7 -1661.97,1685.83 -1661.44,1684.94C-1658.6,1680.14 -1655.75,1675.35 -1652.9,1670.55C-1639.33,1647.72 -1563.53,1485.38 -1534.4,1450.38C-1521.38,1434.74 -1503.06,1448.91 -1502.81,1457.94C-1501.35,1512.05 -1641.41,1761.86 -1651.25,1785.19C-1651.74,1786.35 -1652.24,1787.51 -1652.74,1788.7C-1658.11,1801.38 -1663.09,1814.15 -1667.5,1827.19C-1667.89,1828.35 -1668.29,1829.5 -1668.7,1830.7C-1669.05,1831.77 -1669.4,1832.84 -1669.77,1833.94C-1670.08,1834.88 -1670.39,1835.83 -1670.71,1836.8C-1671.5,1839.31 -1671.5,1839.31 -1670.25,1842.19C-1663.8,1835.55 -1658.34,1828.39 -1652.9,1820.92C-1648.4,1814.74 -1522.07,1656.56 -1514.08,1650.77C-1486.21,1630.59 -1473.46,1663.68 -1486.72,1682.53C-1493.74,1692.51 -1601.71,1848.08 -1608.25,1858.19C-1608.8,1859.03 -1609.35,1859.88 -1609.91,1860.75C-1648.35,1920.36 -1661.01,1978.25 -1668.75,2047.57C-1676.38,2115.85 -1676.38,2115.85 -1685.25,2146.19C-1685.59,2147.38 -1685.59,2147.38 -1685.94,2148.6C-1693.01,2172.77 -1705.84,2195.79 -1718.73,2217.27C-1724.65,2227.14 -1730.14,2237.25 -1735.67,2247.33C-1736.96,2249.66 -1738.26,2251.97 -1739.59,2254.28C-1760.2,2291 -1769,2333.52 -1776.84,2374.49C-1777.05,2375.6 -1777.27,2376.7 -1777.48,2377.84C-1782.51,2404.06 -1787.09,2447.35 -1791.59,2473.65C-1792.71,2480.2 -1793.85,2486.76 -1794.98,2493.31C-1799.31,2518.34 -1803.55,2543.37 -1807.27,2568.5C-1807.41,2569.45 -1807.56,2570.41 -1807.7,2571.39C-1816.9,2623.34 -1816.9,2623.34 -1805.25,2673.19C-1804.66,2674.41 -1804.66,2674.41 -1804.06,2675.65C-1800.94,2681.83 -1797.34,2686.56 -1790.75,2689.18C-1788.26,2689.96 -1785.8,2690.62 -1783.25,2691.19C-1782.11,2691.44 -1782.11,2691.44 -1780.94,2691.71C-1761.38,2695.2 -1738.21,2692.72 -1721.61,2681.38C-1719.91,2680.19 -1718.24,2678.98 -1716.57,2677.74C-1710.77,2673.87 -1703.87,2672.38 -1696.97,2673.59C-1691.9,2675.19 -1689.77,2677.42 -1687.25,2682.19C-1686.95,2682.87 -1686.65,2683.55 -1686.34,2684.25C-1685.86,2685.3 -1685.86,2685.3 -1685.38,2686.38C-1685.11,2687.03 -1684.84,2687.68 -1684.57,2688.36C-1682.59,2691.11 -1680.36,2691.89 -1677.25,2693.19C-1673.71,2693.64 -1673.71,2693.64 -1669.94,2693.59C-1669.26,2693.59 -1668.58,2693.59 -1667.88,2693.6C-1666.44,2693.6 -1665,2693.59 -1663.57,2693.58C-1661.39,2693.56 -1659.21,2693.58 -1657.04,2693.6C-1649.97,2693.61 -1643.62,2693.59 -1637.25,2690.19C-1634.14,2685.52 -1635.19,2681.55 -1636.25,2676.19C-1640.78,2661.3 -1646.7,2645.35 -1661.11,2637.66C-1674.66,2631.6 -1689.24,2631.18 -1703.88,2630.98C-1705.32,2630.95 -1705.32,2630.95 -1706.79,2630.93C-1710.81,2630.88 -1714.83,2630.82 -1718.85,2630.79C-1745.48,2630.54 -1745.48,2630.54 -1751.48,2625.21C-1754.4,2621.88 -1754.43,2618.5 -1754.25,2614.19C-1752.5,2606.26 -1747.88,2599.8 -1741.25,2595.19C-1739.55,2594.18 -1737.84,2593.18 -1736.12,2592.19C-1729.11,2588.01 -1727,2584.2 -1724.95,2576.47C-1723.8,2571.1 -1723.38,2565.69 -1722.97,2560.22C-1722.82,2558.08 -1722.64,2555.93 -1722.47,2553.78C-1722.03,2548.43 -1721.61,2543.08 -1721.2,2537.73C-1719.06,2509.97 -1715.87,2482.55 -1709.88,2455.31C-1709.66,2454.31 -1709.66,2454.31 -1709.43,2453.28C-1702.35,2420.76 -1693.02,2371.13 -1678.25,2341.19C-1677.57,2339.77 -1676.88,2338.35 -1676.2,2336.93C-1658.72,2300.95 -1633.57,2270.49 -1605.5,2242.31C-1605,2241.81 -1604.51,2241.32 -1604,2240.8C-1598.26,2235.05 -1592.47,2229.42 -1586.25,2224.19C-1584.99,2223.12 -1584.99,2223.12 -1583.69,2222.03C-1569.63,2210.49 -1555.23,2199.51 -1540.25,2189.19C-1539.6,2188.74 -1538.95,2188.29 -1538.28,2187.83C-1535.68,2186.04 -1533.08,2184.25 -1530.47,2182.47C-1505.91,2165.61 -1482.05,2148.09 -1458.99,2129.24C-1456.78,2127.43 -1454.56,2125.64 -1452.32,2123.86C-1439.65,2113.73 -1428.22,2102.25 -1416.75,2090.81C-1416.23,2090.3 -1415.71,2089.78 -1415.18,2089.25C-1409.85,2083.94 -1404.6,2078.61 -1399.71,2072.89C-1397.66,2070.5 -1395.51,2068.19 -1393.38,2065.88C-1389.28,2061.39 -1385.39,2056.78 -1381.58,2052.05C-1379.55,2049.55 -1377.47,2047.1 -1375.37,2044.65C-1368.85,2037.06 -1362.79,2029.16 -1356.77,2021.18C-1355.41,2019.4 -1354.04,2017.62 -1352.66,2015.85C-1337.9,1996.88 -1324.62,1976.96 -1311.39,1956.92C-1309.92,1954.69 -1308.44,1952.46 -1306.95,1950.23C-1269.39,1893.4 -1238.09,1830.71 -1216.25,1766.19C-1215.89,1765.13 -1215.53,1764.08 -1215.16,1763C-1192.53,1696.2 -1188.13,1634.51 -1210.61,1567.23C-1218.47,1543.68 -1186.83,1517.53 -1164.76,1552.85C-1139.08,1593.95 -1141.16,1716.71 -1150.19,1750.15C-1150.49,1751.28 -1149.63,1755.56 -1149.91,1756.58C-1150.3,1759.54 -1149.85,1760.73 -1148.25,1763.19C-1143.08,1763.27 -1138.15,1763.13 -1133.03,1762.48C-1077.98,1755.7 -1020.67,1765.34 -971.128,1790.03C-970.265,1790.45 -969.401,1790.87 -968.512,1791.31C-967.738,1791.69 -966.964,1792.08 -966.167,1792.48C-965.534,1792.71 -964.902,1792.95 -964.25,1793.19C-963.59,1792.86 -962.93,1792.53 -962.25,1792.19C-968.884,1783.11 -975.811,1774.26 -982.4,1765.15C-1034.01,1693.81 -1054.75,1607.09 -1057.61,1556.27C-1058.72,1536.48 -1028.16,1531.44 -1023.59,1551.98C-1022.75,1555.79 -1011.11,1601.92 -991.016,1646.95C-971.027,1691.73 -913.204,1765.69 -909.578,1770.64C-903.643,1778.76 -883.905,1796.69 -873.967,1806.6C-871.984,1808.58 -870.008,1810.56 -868.031,1812.54C-861.939,1818.64 -855.832,1824.62 -849.25,1830.19C-847.454,1831.83 -845.661,1833.47 -843.875,1835.12C-839.733,1838.9 -835.505,1842.48 -831.098,1845.93C-828.897,1847.67 -826.723,1849.44 -824.559,1851.22C-816.561,1857.81 -808.444,1864.08 -799.941,1870C-798.271,1871.17 -796.618,1872.37 -794.969,1873.57C-769.419,1892.18 -742.077,1907.88 -714,1922.31C-713.142,1922.76 -712.283,1923.2 -711.399,1923.66C-702.645,1928.17 -664.988,1945.43 -661.25,1945.43L-661.25,1940.75C-663.646,1938.82 -696.542,1919.9 -699.688,1917.75C-700.474,1917.21 -701.26,1916.68 -702.069,1916.13C-725.539,1900.09 -747.23,1882.3 -768.25,1863.19C-768.811,1862.68 -769.372,1862.17 -769.95,1861.64C-782.32,1850.39 -782.32,1850.39 -787.414,1844.28C-789.899,1841.45 -792.571,1838.83 -795.25,1836.19C-799.181,1832.3 -802.975,1828.37 -806.559,1824.16C-808.489,1821.91 -810.494,1819.74 -812.5,1817.56C-816.592,1813.03 -820.364,1808.31 -824.099,1803.49C-827.003,1799.75 -829.988,1796.1 -833.063,1792.5C-839.289,1785.09 -844.949,1777.26 -850.629,1769.42C-852.026,1767.5 -853.431,1765.58 -854.84,1763.66C-906.119,1693.19 -947.282,1615.95 -951.813,1525.75C-952.588,1510.32 -932.37,1502.79 -923.822,1515.79C-920.717,1520.52 -887.332,1619.01 -871.374,1650C-870.557,1651.59 -869.744,1653.18 -868.935,1654.78C-861.909,1668.59 -854.445,1682.03 -846.25,1695.19C-845.852,1695.83 -845.454,1696.47 -845.044,1697.13C-830.214,1720.98 -812.875,1742.82 -793.816,1763.41C-791.519,1765.9 -789.254,1768.41 -787,1770.94C-775.979,1783.19 -764.897,1795.87 -753.366,1807.64C-719.346,1842.38 -651.93,1889.11 -651.93,1889.11L-645.93,1866.11C-645.93,1866.11 -672.725,1847.22 -676.652,1844.24C-693.56,1829.21 -727.403,1793.93 -728.703,1792.51C-773.973,1742.89 -808.292,1681.97 -831.25,1619.19C-831.777,1617.75 -831.777,1617.75 -832.315,1616.29C-846.469,1577.32 -855.879,1513.04 -855.579,1490.63C-855.252,1466.25 -828.604,1469.23 -823.905,1486.65C-822.496,1491.88 -792.312,1603.24 -778.25,1634.19C-777.884,1635 -777.519,1635.82 -777.142,1636.66C-755.658,1684.5 -725.123,1730.04 -689.699,1768.49C-687.746,1770.64 -635.53,1819.95 -635.53,1819.95C-635.53,1819.95 -621.143,1784.5 -620.53,1781.95C-621.692,1778.86 -629.25,1771.65 -631.25,1769.19C-632.238,1767.81 -633.225,1766.43 -634.211,1765.05C-635.346,1763.53 -636.484,1762.02 -637.625,1760.5C-692.709,1686.48 -728.413,1603.85 -746.25,1509.19C-746.591,1507.35 -746.591,1507.35 -746.939,1505.48C-749.418,1491.67 -752.795,1462.61 -749.39,1446.35C-746.736,1433.69 -728.818,1429.92 -723.773,1443.98C-721.65,1449.9 -710.499,1492.24 -707.029,1506.3C-700.861,1531.24 -693.905,1555.84 -685.055,1579.98C-684.249,1582.19 -683.466,1584.41 -682.688,1586.63C-666.496,1632.34 -622.965,1717.19 -600.73,1737.83C-592.87,1717.14 -580.521,1713.04 -572.188,1712.62C-565.925,1712.97 -548.311,1715.02 -553.387,1739.26C-556.506,1754.15 -564.562,1766.78 -569.746,1781C-608.353,1886.86 -621.481,2085.68 -582.523,2036.98C-581.087,2035.19 -540.549,1952.15 -538.666,2074.78C-538.128,2109.77 -540.648,2180.21 -544.725,2269.18C-547.147,2322.03 -518.598,2231.16 -516.143,2330.33C-515.918,2339.4 -514.635,2348.42 -513.929,2357.44C-504.405,2479.14 -499.275,2612.43 -479.332,2638.55C-478.645,2639.42 -477.958,2640.29 -477.25,2641.19C-476.235,2642.51 -476.235,2642.51 -475.199,2643.86C-457.898,2665.77 -434.76,2684.98 -406.136,2688.44C-399.879,2689.12 -393.704,2689.35 -387.414,2689.36C-386.413,2689.36 -385.413,2689.36 -384.382,2689.37C-382.279,2689.37 -380.177,2689.37 -378.074,2689.37C-374.89,2689.38 -371.707,2689.39 -368.523,2689.41C-352.059,2689.46 -337.946,2689.33 -324.625,2678.56C-319.568,2674.48 -315.153,2672.49 -308.688,2671.81C-303.654,2672.36 -299.814,2673.62 -296.188,2677.25C-295.029,2679.01 -293.912,2680.79 -292.887,2682.63C-289.899,2687.96 -289.899,2690.96 -285.688,2695.31C-280.19,2696.71 -256.535,2695.79 -246.25,2694.19C-246.592,2678.96 -248.263,2663 -257.25,2650.19C-257.666,2649.58 -258.083,2648.96 -258.512,2648.33C-265.342,2639.37 -276.181,2632.83 -287.25,2631.19C-295.749,2630.05 -304.256,2630.16 -312.813,2630.19C-323.288,2630.23 -333.756,2630.15 -344.229,2629.93C-345.85,2629.89 -347.47,2629.86 -349.091,2629.84C-371.51,2629.51 -371.51,2629.51 -377.478,2624.21C-380.484,2620.78 -380.723,2618.13 -380.645,2613.68C-379.452,2606.14 -372.888,2600.21 -367.383,2595.39C-362.91,2592.25 -358.1,2590.08 -353.052,2588.01C-352.345,2587.72 -351.638,2587.42 -350.91,2587.11C-350.277,2586.86 -349.644,2586.61 -348.992,2586.35C-346.446,2584.65 -345.504,2582.97 -344.25,2580.19C-344.05,2577.04 -344.05,2577.04 -344.473,2573.7C-344.651,2571.83 -344.651,2571.83 -344.833,2569.93C-345.039,2568.08 -345.039,2568.08 -345.25,2566.19C-345.363,2565.12 -345.477,2564.05 -345.593,2562.95C-345.825,2560.81 -346.062,2558.67 -346.303,2556.53C-356.692,2462.67 -348.226,2350.46 -337.995,2257C-337.397,2251.54 -336.802,2246.08 -336.206,2240.61C-326.71,2153.45 -316.907,2066.34 -286.25,1844.19C-286.093,1843.22 -285.937,1842.24 -285.775,1841.24C-282.872,1823.27 -279.669,1805.37 -276.328,1787.48C-276.065,1786.07 -275.802,1784.66 -275.539,1783.25C-275.341,1782.19 -275.341,1782.19 -275.14,1781.11C-267.836,1742.29 -267.836,1742.29 -262.25,1703.19C-262.029,1701.36 -262.029,1701.36 -261.804,1699.5C-254.79,1640.36 -254.597,1581.12 -268.52,1522.96C-268.692,1522.24 -268.864,1521.52 -269.041,1520.77C-269.512,1518.81 -269.988,1516.84 -270.466,1514.88C-272.82,1503.8 -273.828,1492.34 -268.625,1481.94C-263.115,1475.56 -256.189,1472.74 -247.875,1471.81C-240.309,1472.6 -234.429,1475.94 -229.285,1481.5C-180.456,1545.98 -195.913,1662.51 -206.201,1737.31C-208.773,1755.64 -212.232,1773.8 -215.692,1791.98C-217.438,1801.16 -219.159,1810.34 -220.837,1819.53C-221.152,1821.25 -221.47,1822.96 -221.791,1824.68C-222.234,1827.04 -222.667,1829.41 -223.098,1831.78C-223.231,1832.47 -223.363,1833.17 -223.5,1833.89C-224.102,1837.26 -224.462,1839.93 -223.25,1843.19C-216.674,1836.71 -210.228,1830.23 -204.25,1823.19C-203.276,1822.06 -202.301,1820.94 -201.324,1819.82C-190.79,1807.72 -180.393,1795.57 -170.573,1782.88C-169.32,1781.28 -168.04,1779.7 -166.758,1778.12C-159.895,1769.54 -154.356,1760.37 -148.834,1750.89C-147.241,1748.17 -145.617,1745.48 -143.984,1742.79C-108.715,1693.66 -90.288,1612.82 -86.969,1566.3C-82.54,1504.22 -88.064,1446.04 -109.638,1389.48C-118.922,1365.14 -90.688,1347.76 -70.714,1374.01C-35.742,1419.96 -32.03,1495.04 -32,1549.19C-31.999,1550.85 -31.999,1550.85 -31.998,1552.54C-32.015,1570.61 -32.701,1588.28 -35.25,1606.19C-35.427,1607.44 -35.604,1608.69 -35.786,1609.98C-39.326,1634.23 -44.837,1657.84 -52.25,1681.19C-52.476,1681.92 -52.702,1682.65 -52.936,1683.4C-62.269,1713.56 -76.223,1743.01 -92.25,1770.19C-92.885,1771.27 -92.885,1771.27 -93.532,1772.37C-107.689,1796.37 -124.062,1819.01 -141.826,1840.46C-143.111,1842.02 -144.377,1843.59 -145.641,1845.17C-150.663,1851.43 -155.993,1857.33 -161.469,1863.19C-163.661,1865.54 -165.787,1867.93 -167.875,1870.38C-171.328,1874.38 -175.09,1878.04 -178.848,1881.75C-180.887,1883.82 -182.805,1885.92 -184.688,1888.12C-187.526,1891.45 -190.563,1894.5 -193.688,1897.56C-201.115,1904.84 -201.115,1904.84 -207.25,1913.19C-206.92,1914.18 -206.59,1915.17 -206.25,1916.19C-196.321,1912.58 -186.857,1908.32 -177.375,1903.69C-176.657,1903.34 -175.939,1902.99 -175.199,1902.63C-131.541,1881.35 -90.707,1853.82 -55.52,1820.25C-53.412,1818.24 -51.263,1816.34 -49.012,1814.5C-46.805,1812.65 -45.05,1810.96 -43.25,1808.75C-39.788,1804.68 -36.048,1800.94 -32.25,1797.19C-27.371,1792.35 -22.629,1787.49 -18.25,1782.19C-17.616,1781.43 -16.982,1780.67 -16.328,1779.89C-14.404,1777.57 -12.501,1775.24 -10.613,1772.88C-9.658,1771.69 -8.699,1770.51 -7.738,1769.32C48.023,1700.28 71.97,1625.5 72.06,1537.71C72.062,1535.72 72.072,1533.72 72.073,1531.73C72.096,1490.11 63.618,1367 -56.984,1228.7C-96.792,1183.05 -206.03,1102.1 -227.54,1088.77C-234.033,1084.73 -240.252,1080.72 -245.797,1075.4C-265.19,1056.81 -247.766,1020.75 -215.857,1033.15C-189.704,1043.32 -72.004,1124.06 12.427,1216.31C75.306,1285.01 116.507,1371.33 130.875,1495.81C131.374,1500.14 131.877,1504.46 132.383,1508.79C132.501,1509.8 132.619,1510.81 132.74,1511.86C133.582,1519 134.55,1526.1 135.75,1533.19C138.667,1533.49 138.667,1533.49 140.258,1532.04C144.62,1527.54 148.591,1522.8 152.516,1517.91C154.422,1515.59 156.388,1513.39 158.438,1511.19C210.904,1452.48 237.54,1366.86 244.438,1289.88C244.498,1289.2 244.559,1288.53 244.622,1287.83C252.412,1200.21 245.632,1114.02 180.239,887.677C178.943,883.771 177.649,879.864 176.355,875.958C173.072,866.043 169.782,856.13 166.487,846.219C165.693,843.83 164.901,841.442 164.108,839.053C162.86,835.291 161.608,831.53 160.354,827.77C159.895,826.391 159.436,825.011 158.978,823.631C156.464,816.048 153.836,808.559 150.75,801.188C148.64,804.353 147.801,806.92 146.727,810.559C146.54,811.188 146.354,811.817 146.162,812.465C145.558,814.516 144.965,816.57 144.375,818.625C144.172,819.331 144.08,820.078 143.761,820.764C106.769,900.261 157.754,1065.53 158.581,1071.67C160.737,1087.68 140.926,1090.39 133.316,1082.01C117.362,1064.43 103.353,1017.09 102.962,1015.97C72.002,927.093 90.588,815.803 104.867,781.586C105.923,779.144 105.923,779.144 105.75,776.188C89.097,782.886 74.912,815.431 67.938,831.188C57.177,856.575 52.518,882.47 49.537,909.722C48.061,923.014 46.548,929.332 46.193,933.515C45.103,946.337 22.857,951.315 18.797,934.73C17.227,928.318 15.385,922.088 14.75,915.188C14.619,913.78 14.619,913.78 14.485,912.345C13.606,901.711 13.55,891.101 13.563,880.438C13.563,879.489 13.564,878.54 13.564,877.562C13.629,839.868 17.96,804.73 33.75,770.188C34.185,769.233 34.185,769.233 34.628,768.259C41.878,752.571 51.058,738.862 62.75,726.188C63.449,725.418 64.147,724.648 64.867,723.855C83.289,704.479 107.976,694.874 133.75,690.188C134.977,689.961 136.204,689.734 137.469,689.5C179.803,683.202 223.112,692.125 264.586,699.995C266.905,700.435 269.224,700.874 271.543,701.314C278.582,702.648 285.621,703.985 292.657,705.342C295.633,705.915 298.611,706.483 301.589,707.05C302.983,707.317 304.376,707.586 305.768,707.857C314.09,709.477 322.283,710.692 330.75,711.188C327.496,707.018 324.056,703.577 320.027,700.156C317.514,697.983 315.11,695.712 312.688,693.438C293.54,676.04 274.104,667.936 248.553,665.093C188.46,658.315 129.026,637.069 78.75,603.188C78.105,602.753 77.46,602.319 76.795,601.872C49.529,583.343 25.624,559.781 17.172,526.941C15.26,514.461 16.21,501.955 20.75,490.188C21.166,489.058 21.166,489.058 21.59,487.906C26.08,477.478 34.765,470.374 45.07,466.262C67.367,458.288 92.209,464.995 113.75,472.188C114.427,472.413 115.104,472.638 115.802,472.87C126.721,476.576 137.093,481.483 147.547,486.32C183.832,503.106 220.334,515.706 260.688,515.5C261.44,515.498 262.193,515.496 262.968,515.494C285.676,515.403 307.62,512.199 329.75,507.188C330.585,507 331.421,506.812 332.282,506.618C374.06,496.995 413.663,477.377 445.313,448.398C446.873,446.983 448.455,445.589 450.063,444.227C456.08,439.108 460.945,433.447 465.75,427.188C466.191,426.616 466.633,426.044 467.087,425.455C479.592,409.168 495.75,385.63 495.75,364.188C491.157,364.629 487.093,365.383 482.688,366.75C464.369,371.452 445.199,368.602 428.922,359.293C417.557,351.749 406.905,340.877 403.75,327.188C402.246,318.101 401.977,309.053 407,301C421.104,284.355 454.459,281.74 474.5,277.875C477.794,277.234 481.087,276.589 484.378,275.938C486.398,275.539 488.419,275.146 490.442,274.759C491.345,274.582 492.248,274.404 493.179,274.221C494.363,273.993 494.363,273.993 495.57,273.761C497.831,273.166 499.703,272.304 501.75,271.188C493.225,268.209 484.525,266.905 475.625,265.625C473.927,265.375 472.23,265.124 470.532,264.873C458.594,263.12 446.64,261.482 434.684,259.855C309.64,242.823 309.64,242.823 293.75,228.188L291.75,228.188C291.486,227.602 291.221,227.017 290.949,226.414C289.706,224.105 288.344,222.479 286.563,220.563C279.91,213.143 274.687,204.666 269.5,196.188C268.663,194.83 268.663,194.83 267.809,193.445C265.123,189.082 262.456,184.708 259.816,180.316C222.961,119.099 162.454,82.61 93.844,65.386C30.173,49.836 -55.531,54.965 -118.375,72.813ZM-274.25,116.188C-273.717,120.372 -272.426,122.645 -269.75,125.875C-266.211,130.191 -264.935,132.334 -265.039,138.105C-265.72,144.83 -271.197,150.472 -276.058,154.795C-278.029,156.387 -280.032,157.922 -282.063,159.438C-283.184,160.282 -283.184,160.282 -284.329,161.144C-298.635,171.787 -314.051,180.755 -329.289,189.977C-329.883,190.336 -330.478,190.696 -331.09,191.066C-333.816,192.716 -336.544,194.365 -339.272,196.011C-351.007,203.102 -362.316,210.547 -373.311,218.743C-375.059,220.045 -376.816,221.334 -378.578,222.617C-386.093,228.145 -393.211,234.073 -400.25,240.188C-401.069,240.893 -401.887,241.598 -402.73,242.324C-414.681,252.833 -426.365,263.918 -435.25,277.188C-435.809,278.002 -436.369,278.817 -436.945,279.656C-449.027,298.355 -451.864,321.705 -447.25,343.188C-441.349,365.383 -429.88,382.803 -415.25,400.188C-414.446,401.161 -413.643,402.135 -412.815,403.139C-404.858,412.691 -396.224,421.488 -387.403,430.24C-384.984,432.641 -382.574,435.049 -380.164,437.459C-378.605,439.013 -377.045,440.568 -375.484,442.121C-374.776,442.829 -374.067,443.536 -373.337,444.265C-369.347,448.217 -365.263,452.006 -361.005,455.669C-358.422,457.904 -355.937,460.234 -353.438,462.563C-348.817,466.831 -344.059,470.868 -339.156,474.813C-335.84,477.522 -332.61,480.32 -329.375,483.125C-323.873,487.877 -318.236,492.391 -312.438,496.773C-310.362,498.345 -308.299,499.933 -306.25,501.539C-279.663,522.361 -250.95,541.187 -219.25,553.188C-218.043,553.645 -216.837,554.103 -215.594,554.574C-207.512,557.168 -199.821,557.556 -191.375,557.625C-190.317,557.635 -189.258,557.646 -188.167,557.656C-178.379,557.545 -171.07,555.749 -163.75,549.125C-163.197,548.638 -162.645,548.151 -162.075,547.65C-141.898,529.579 -130.417,504.845 -128.395,477.827C-125.922,432.817 -136.333,389.88 -148.408,346.919C-153.64,328.27 -158.301,309.499 -160.25,290.188C-160.361,289.151 -160.472,288.115 -160.586,287.047C-163.791,251.181 -157.162,220.073 -144.795,186.726C-144.372,185.578 -144.372,185.578 -143.939,184.407C-143.407,182.969 -142.871,181.532 -142.331,180.097C-139.021,171.155 -135.921,161.184 -139.055,151.77C-140.276,149.389 -141.648,147.33 -143.25,145.188C-143.824,144.41 -144.397,143.633 -144.988,142.832C-154.963,130.649 -169.31,122.421 -183.478,115.994C-185.056,115.276 -186.619,114.523 -188.18,113.766C-214.927,101.491 -249.262,99.039 -274.25,116.188ZM78.75,517.188C83.009,527.134 94.438,534.375 102.858,540.753C104.77,542.202 106.67,543.665 108.57,545.129C142.225,570.894 180.226,589.894 220.563,602.875C221.278,603.107 221.993,603.339 222.73,603.578C227.693,605.09 232.585,605.765 237.75,606.188C235.109,603.166 231.997,601.468 228.52,599.512C227.903,599.164 227.286,598.817 226.651,598.459C219.639,594.528 212.544,590.756 205.438,587C204.031,586.254 202.624,585.507 201.217,584.76C193.771,580.814 186.303,576.918 178.806,573.07C166.402,566.697 154.363,559.822 142.364,552.721C138.812,550.637 135.225,548.624 131.625,546.625C125.308,543.11 119.088,539.444 112.875,535.75C105.858,531.583 98.815,527.474 91.688,523.5C90.59,522.885 90.59,522.885 89.471,522.258C85.966,520.319 82.525,518.563 78.75,517.188ZM277.75,579.188C281.065,581.917 284.439,584.324 288.063,586.625C303.856,597.096 317.848,610.102 331.103,623.584C332.816,625.252 334.606,626.776 336.438,628.313C339.891,631.292 342.962,634.535 346.016,637.914C352.724,645.252 359.693,652.317 366.723,659.346C368.819,661.444 370.907,663.55 372.994,665.656C387.688,680.412 401.39,694.057 423.375,694.563C432.023,694.352 438.789,693.004 445.246,686.996C450.858,680.247 452.308,671.724 451.75,663.188C449.288,640.347 433.496,618.964 416.52,604.367C389.549,583.141 359.433,576.526 325.625,576.875C323.744,576.884 321.862,576.892 319.981,576.9C305.841,577.001 291.815,577.672 277.75,579.188ZM194.75,1566.19C188.418,1571.01 182.683,1576.13 177.117,1581.81C174.445,1584.49 171.659,1586.97 168.781,1589.43C167.362,1590.66 165.968,1591.92 164.594,1593.19C160.153,1597.33 155.6,1601.08 150.694,1604.64C137.72,1614.06 132.256,1622.42 128.254,1638.01C124.077,1654.06 117.506,1669.54 110.336,1684.48C110.143,1685.04 109.949,1685.61 109.75,1686.19C110.08,1686.85 110.41,1687.51 110.75,1688.19C124.408,1676.16 136.241,1663.31 147.367,1648.97C148.644,1647.32 149.933,1645.69 151.223,1644.06C165.993,1625.23 179.197,1604.94 190.438,1583.81C190.848,1583.05 191.258,1582.28 191.68,1581.49C193.952,1577.12 195.57,1572.97 196.75,1568.19C195.76,1567.2 195.76,1567.2 194.75,1566.19ZM-1751.25,1688.19C-1752.35,1689.86 -1753.4,1691.56 -1754.43,1693.28C-1755.08,1694.36 -1755.74,1695.45 -1756.42,1696.57C-1756.94,1697.44 -1756.94,1697.44 -1757.48,1698.33C-1767.58,1715.05 -1778.71,1730.76 -1790.7,1746.19C-1792.17,1748.08 -1793.63,1749.98 -1795.09,1751.88C-1801.09,1759.61 -1807.35,1767.07 -1813.76,1774.46C-1816.22,1777.31 -1818.64,1780.19 -1821.06,1783.06C-1828.09,1791.37 -1835.29,1799.49 -1842.67,1807.48C-1844.34,1809.28 -1845.99,1811.09 -1847.65,1812.91C-1854.86,1820.76 -1862.28,1828.12 -1870.25,1835.19C-1871.1,1835.97 -1871.95,1836.75 -1872.83,1837.55C-1923.53,1883.86 -1983.88,1916.74 -2046.06,1944.81C-2133.32,1972.75 -2175.34,2061.68 -2175.72,2062.34C-2176.46,2064.24 -2176.46,2064.24 -2175.51,2066.26C-2173.66,2069.09 -2171.29,2071.26 -2168.81,2073.5C-2168.28,2073.99 -2167.74,2074.47 -2167.18,2074.97C-2144.7,2094.87 -2113.16,2102.38 -2083.72,2100.98C-2050.22,2098.84 -2022.48,2087.27 -1997.25,2065.19C-1996.52,2064.57 -1995.79,2063.94 -1995.03,2063.3C-1981.14,2051.2 -1968.16,2038.04 -1957.25,2023.19C-1956.45,2022.15 -1955.66,2021.12 -1954.84,2020.05C-1944.05,2005.97 -1935.52,1990.52 -1926.94,1975.04C-1924.23,1970.15 -1921.8,1966.6 -1920.45,1963.52C-1911.87,1944.06 -1879.22,1949.21 -1882.31,1974.07C-1883.01,1979.66 -1884.84,1985.17 -1886.25,1990.19C-1886.44,1990.87 -1886.62,1991.54 -1886.82,1992.24C-1897.07,2028.17 -1916.49,2060.51 -1941.25,2088.19C-1942.08,2089.11 -1942.9,2090.04 -1943.75,2090.99C-1945.24,2092.65 -1946.73,2094.3 -1948.23,2095.95C-1950.14,2098.07 -1952.01,2100.22 -1953.88,2102.38C-1956.74,2105.68 -1959.79,2108.74 -1962.97,2111.74C-1964.47,2113.11 -1964.47,2113.11 -1964.25,2115.19C-1964.8,2115.4 -1965.34,2115.62 -1965.9,2115.84C-1969.07,2117.66 -1971.33,2120.19 -1973.81,2122.81C-1979.17,2128.33 -1984.85,2132.9 -1991.25,2137.19C-1991.92,2137.64 -1992.58,2138.1 -1993.27,2138.56C-1994.59,2139.45 -1995.92,2140.32 -1997.25,2141.19C-1996.92,2141.85 -1996.59,2142.51 -1996.25,2143.19C-1990.69,2142.68 -1986.61,2141.22 -1981.69,2138.62C-1980.99,2138.27 -1980.3,2137.91 -1979.58,2137.54C-1977.46,2136.44 -1975.35,2135.32 -1973.25,2134.19C-1972.64,2133.86 -1972.03,2133.54 -1971.41,2133.2C-1951.92,2122.73 -1933.42,2109.24 -1917.25,2094.19C-1915.98,2093.1 -1914.71,2092.02 -1913.44,2090.94C-1904.76,2083.37 -1896.62,2075.02 -1889.25,2066.19C-1888.51,2065.32 -1887.76,2064.45 -1887,2063.56C-1853.69,2024.37 -1831.94,1977.43 -1814.29,1929.5C-1813.77,1928.08 -1813.77,1928.08 -1813.24,1926.64C-1811.5,1921.93 -1809.78,1917.23 -1808.08,1912.51C-1803.33,1899.43 -1800.05,1891.21 -1797.96,1885.61C-1792.86,1871.99 -1768.66,1871.66 -1769.88,1898.17C-1773.55,1978.1 -1823.09,2074.59 -1877.04,2131.63C-1878.94,2133.83 -1880.03,2135.59 -1881.25,2138.19C-1873.38,2135.83 -1866.2,2132.44 -1858.88,2128.75C-1858.26,2128.44 -1857.64,2128.13 -1857.01,2127.82C-1834.59,2116.53 -1814.27,2102.68 -1796.25,2085.19C-1795.67,2084.64 -1795.1,2084.09 -1794.51,2083.52C-1785.92,2075.31 -1778.28,2066.76 -1771.25,2057.19C-1770.78,2056.55 -1770.31,2055.91 -1769.82,2055.26C-1751.8,2030.74 -1731.98,2003.57 -1731.25,1972.19C-1731.23,1971.52 -1731.21,1970.86 -1731.19,1970.17C-1730.33,1939.26 -1733.38,1908.2 -1735.97,1877.43C-1736.03,1876.68 -1736.09,1875.92 -1736.16,1875.14C-1737.09,1864.1 -1738.03,1853.06 -1738.98,1842.03C-1740.13,1828.64 -1741.27,1815.26 -1742.4,1801.87C-1742.5,1800.73 -1742.5,1800.73 -1742.6,1799.57C-1744.26,1779.9 -1745.83,1760.23 -1747.07,1740.54C-1747.12,1739.63 -1747.18,1738.72 -1747.24,1737.78C-1747.9,1727.14 -1748.45,1716.5 -1748.87,1705.85C-1749.11,1699.94 -1749.6,1694.07 -1750.25,1688.19L-1751.25,1688.19ZM120.75,1770.19C119.451,1771.73 118.188,1773.3 116.938,1774.88C111.964,1781.02 106.662,1786.8 101.259,1792.57C99.844,1794.09 98.446,1795.62 97.055,1797.16C90.571,1804.33 83.824,1811.22 77,1818.06C76.113,1818.95 75.225,1819.85 74.311,1820.77C69.832,1825.23 65.304,1829.57 60.481,1833.67C58.655,1835.27 56.95,1836.95 55.25,1838.69C51.587,1842.4 47.711,1845.8 43.75,1849.19C42.707,1850.08 41.664,1850.98 40.621,1851.88C38.234,1853.92 35.844,1855.97 33.453,1858.02C31.062,1860.06 28.677,1862.11 26.297,1864.17C6.952,1880.89 -13.262,1896.39 -33.899,1911.47C-35.435,1912.59 -36.97,1913.72 -38.503,1914.84C-49.72,1923.09 -61.161,1930.94 -72.797,1938.58C-74.993,1940.02 -77.184,1941.47 -79.375,1942.92C-100.113,1956.57 -121.516,1969.14 -143.286,1981.06C-145.187,1982.04 -152.187,1986.04 -153.25,1987.19C-154.755,1998.02 -147.295,2102.81 -142.25,2154.19C-138.091,2150.41 -128.71,2129.05 -126.762,2124.75C-116.556,2102.31 -116.556,2102.31 -107.758,2097.95C-103.667,2096.7 -100.327,2096.93 -96.25,2098.19C-74.604,2104.85 -93.612,2273.63 -93.313,2301.25C-93.204,2311.25 -65.03,2262.51 -70.942,2374.22C-80.725,2559.07 -6.33,2660.37 -5.856,2660.98C8.736,2679.48 33.29,2689.78 56.986,2692.62C65.135,2693.41 73.32,2693.41 81.5,2693.44C82.205,2693.44 82.909,2693.45 83.636,2693.45C101.119,2693.55 113.582,2690.82 128.426,2681.52C134.82,2677.86 140.475,2677.44 147.75,2678.19C153.561,2680.53 156.412,2685.59 159.82,2690.63C162.452,2694.12 164.615,2694.81 168.75,2696.19C173.392,2696.42 198.338,2696.8 200.75,2695.19C204.869,2686.95 201.498,2673.31 199.016,2664.82C197.245,2659.74 194.942,2655.51 191.75,2651.19C191.299,2650.54 190.848,2649.9 190.383,2649.24C183.565,2640.36 172.118,2635.46 161.32,2633.6C151.798,2632.37 142.408,2631.86 132.813,2631.72C91.199,2631.08 85.199,2631.08 76.75,2625.19C74.044,2621.64 73.7,2617.45 74.75,2613.19C75.554,2609.93 79.629,2606.79 80.75,2603.62C81.322,2602 81.885,2600.38 82.438,2598.75C82.689,2598.04 81.94,2595.33 82.199,2594.6C83.523,2588.8 72.05,2452.64 75.737,2298.67C79.902,2124.68 103.102,1923.8 121.043,1785.16C121.136,1784.44 121.192,1783.72 121.268,1782.98C121.685,1778.7 121.813,1774.49 121.75,1770.19L120.75,1770.19ZM-1162.25,1844.19C-1163.45,1844.59 -1163.45,1844.59 -1164.68,1845C-1169.73,1847.36 -1171.65,1851.49 -1173.96,1856.33C-1174.31,1857.04 -1174.65,1857.75 -1175.01,1858.47C-1176.1,1860.71 -1177.17,1862.95 -1178.25,1865.19C-1178.93,1866.58 -1179.6,1867.98 -1180.28,1869.37C-1181.64,1872.17 -1182.99,1874.97 -1184.34,1877.77C-1199.5,1909.25 -1216.08,1939.68 -1233.98,1969.7C-1236.68,1974.22 -1239.36,1978.75 -1242.04,1983.28C-1249.87,1996.53 -1257.77,2009.73 -1265.9,2022.8C-1269.72,2028.93 -1273.51,2035.07 -1277.28,2041.23C-1278.04,2042.48 -1278.81,2043.73 -1279.58,2044.97C-1280.66,2046.72 -1281.73,2048.47 -1282.79,2050.22C-1283.72,2051.73 -1283.72,2051.73 -1284.67,2053.27C-1287.68,2058.83 -1288.6,2063.99 -1289,2070.24C-1289.05,2071.01 -1289.11,2071.78 -1289.16,2072.57C-1289.28,2074.22 -1289.4,2075.86 -1289.51,2077.51C-1289.81,2081.82 -1290.14,2086.14 -1290.47,2090.46C-1290.54,2091.31 -1290.6,2092.16 -1290.67,2093.04C-1292.92,2121.79 -1297.94,2150.3 -1305.25,2178.19C-1305.48,2179.08 -1305.72,2179.98 -1305.96,2180.9C-1319.15,2231.01 -1342.22,2279.27 -1383.19,2312.38C-1389.49,2317.79 -1391.18,2324.24 -1392.25,2332.19C-1392.44,2336.33 -1392.3,2340.43 -1392.12,2344.56C-1392.08,2345.86 -1392.03,2347.15 -1391.98,2348.48C-1387.89,2447.83 -1381.62,2572.38 -1313.06,2694.58C-1310.34,2697 -1308.71,2697.31 -1305.16,2697.32C-1303.87,2697.32 -1303.87,2697.32 -1302.55,2697.33C-1301.6,2697.32 -1300.65,2697.32 -1299.67,2697.32C-1298.66,2697.32 -1297.65,2697.32 -1296.61,2697.32C-1293.22,2697.33 -1289.83,2697.32 -1286.44,2697.31C-1285.28,2697.31 -1284.11,2697.31 -1282.91,2697.31C-1250.69,2697.28 -1218.47,2696.73 -1186.25,2696.19C-1186.24,2693.95 -1186.23,2691.71 -1186.22,2689.47C-1186.21,2688.22 -1186.21,2686.98 -1186.2,2685.69C-1186.45,2668.11 -1193.1,2653.79 -1204.94,2641C-1227.52,2619.52 -1263.25,2615.95 -1292.79,2613.92C-1294.16,2613.82 -1294.16,2613.82 -1295.57,2613.72C-1296.38,2613.66 -1297.18,2613.61 -1298.02,2613.55C-1300.46,2613.15 -1302.15,2612.48 -1304.25,2611.19C-1306.16,2607.37 -1305.81,2603.1 -1304.64,2599.09C-1302.22,2593.57 -1298.48,2590.11 -1293.25,2587.19C-1291.27,2586.48 -1289.27,2585.8 -1287.25,2585.19C-1287.46,2584.6 -1287.67,2584.01 -1287.89,2583.4C-1295.86,2560.85 -1301.68,2538 -1304.25,2514.19C-1304.34,2513.33 -1304.44,2512.46 -1304.54,2511.57C-1311.18,2442.78 -1295,2362.36 -1251.32,2308.62C-1248.17,2304.92 -1244.9,2301.34 -1241.61,2297.77C-1239.65,2295.63 -1237.76,2293.46 -1235.88,2291.25C-1229.25,2283.64 -1221.98,2276.49 -1214.3,2269.95C-1211.79,2267.79 -1209.37,2265.55 -1206.94,2263.31C-1202.49,2259.26 -1197.92,2255.43 -1193.24,2251.65C-1189.81,2248.83 -1186.47,2245.92 -1183.12,2243C-1172.68,2233.89 -1162,2225.07 -1151.06,2216.56C-1144.53,2211.48 -1115.72,2186.74 -1112.83,2184.34C-1106.85,2179.36 -1054.67,2128.42 -1031.56,2100.69C-1015.93,2081.93 -971.734,2020.11 -962.813,1957.88C-962.652,1956.76 -954.759,1911.88 -950.875,1868.81C-950.826,1868.02 -950.777,1867.23 -950.727,1866.41C-951.528,1863 -953.367,1862.07 -956.25,1860.19C-989.24,1844.36 -1031.22,1841.99 -1067.25,1839.19C-1068.37,1839.09 -1069.48,1839 -1070.63,1838.9C-1081.25,1838.08 -1091.84,1838 -1102.47,1838C-1105.55,1838 -1108.62,1837.98 -1111.69,1837.96C-1128.9,1837.91 -1145.82,1838.6 -1162.25,1844.19ZM-889.25,1892.19C-891.179,1897.19 -891.76,1901.83 -892.18,1907.12C-892.334,1908.89 -892.8,1914.27 -892.881,1915.22C-895.714,1948.21 -914.397,2020.87 -940.25,2074.19C-940.67,2075.05 -941.192,2075.87 -941.677,2076.73C-957.013,2103.86 -975.183,2129.36 -995.25,2153.19C-996.104,2154.22 -996.959,2155.24 -997.813,2156.27C-1003.4,2162.97 -1009.18,2169.45 -1015.13,2175.82C-1017.61,2178.47 -1020.02,2181.17 -1022.43,2183.88C-1027.09,2189.07 -1061.21,2221.88 -1064.06,2224.56C-1069.11,2229.29 -1098.51,2254.2 -1104.44,2258.79C-1107.35,2261.04 -1137.91,2285.51 -1141.62,2288.44C-1145.76,2291.73 -1149.66,2295.23 -1153.56,2298.79C-1156.09,2301.04 -1158.68,2303.15 -1161.33,2305.25C-1167.08,2309.93 -1172.32,2314.99 -1177.52,2320.25C-1179.01,2321.76 -1180.5,2323.25 -1182,2324.75C-1187.29,2330.06 -1192.43,2335.45 -1197.25,2341.19C-1197.74,2341.78 -1198.24,2342.36 -1198.75,2342.97C-1210.2,2356.74 -1219.92,2371.34 -1228.25,2387.19C-1228.81,2388.24 -1228.81,2388.24 -1229.37,2389.31C-1239.58,2408.94 -1246.95,2447.13 -1249.25,2469.19C-1249.33,2469.93 -1249.42,2470.67 -1249.5,2471.44C-1250.14,2477.29 -1250.42,2483.06 -1250.45,2488.95C-1250.46,2489.84 -1250.47,2490.74 -1250.47,2491.67C-1250.49,2494.55 -1250.5,2497.43 -1250.5,2500.31C-1250.5,2501.3 -1250.5,2502.28 -1250.5,2503.29C-1250.49,2518.13 -1250.05,2532.58 -1247.25,2547.19C-1247.1,2548 -1246.95,2548.8 -1246.8,2549.64C-1243.73,2566 -1243.73,2566 -1233.25,2578.19C-1230.05,2579.56 -1230.05,2579.56 -1226.5,2580.62C-1225.85,2580.84 -1225.2,2581.04 -1224.53,2581.26C-1221.06,2582.37 -1217.57,2583.39 -1214.05,2584.34C-1186.42,2591.86 -1162.66,2609.26 -1148.24,2634.29C-1140.12,2649.81 -1138.35,2668.05 -1137.69,2685.25C-1137.64,2686.31 -1137.6,2687.36 -1137.56,2688.45C-1137.45,2691.03 -1137.35,2693.61 -1137.25,2696.19C-1121.8,2697.08 -572.307,2696.2 -516.25,2696.19C-517.571,2692.8 -518.984,2690.81 -520.938,2687.74C-521.466,2686.9 -521.995,2686.06 -522.54,2685.2C-523.104,2684.31 -523.669,2683.42 -524.25,2682.5C-533.306,2668.02 -543.841,2632.97 -550.366,2585.47C-559.01,2522.53 -569.126,2406.52 -567.25,2392.19C-569.1,2391.99 -569.1,2391.99 -570.988,2391.79C-575.661,2391.3 -603.409,2432.2 -606.639,2353.84C-607.962,2321.74 -606.171,2212.35 -603.25,2195.19C-603.58,2194.53 -603.91,2193.87 -604.25,2193.19C-604.954,2193.95 -605.658,2194.71 -606.383,2195.5C-611.716,2201.13 -622.727,2215.03 -640.25,2216.19C-654.983,2217.16 -658.028,2197.56 -658.488,2192.36C-658.563,2191.59 -665.295,2027.07 -665.25,2013.19C-666.124,2012.85 -666.997,2012.52 -667.897,2012.17C-671.202,2010.91 -674.505,2009.64 -677.808,2008.37C-679.226,2007.82 -680.644,2007.28 -682.062,2006.73C-694.071,2002.14 -705.79,1997.08 -717.401,1991.54C-720.284,1990.17 -723.176,1988.82 -726.07,1987.48C-738.483,1981.67 -750.543,1975.36 -762.516,1968.7C-765.25,1967.19 -767.995,1965.7 -770.746,1964.22C-783.779,1957.2 -796.578,1949.84 -809.25,1942.19C-810.099,1941.68 -810.947,1941.16 -811.821,1940.64C-825.1,1932.61 -838.016,1924.08 -850.898,1915.44C-858.622,1910.26 -866.4,1905.17 -874.25,1900.19C-874.887,1899.78 -875.524,1899.38 -876.18,1898.96C-878.012,1897.8 -879.848,1896.65 -881.688,1895.5C-883.232,1894.54 -883.232,1894.54 -884.809,1893.55C-887.075,1892.03 -887.075,1892.03 -889.25,1892.19ZM-225.844,2012.68C-248.03,2036.18 -251.599,2072.38 -256.318,2102.75C-256.694,2105.17 -257.072,2107.59 -257.451,2110C-272.05,2203.35 -285.864,2314.59 -291.875,2443.44C-291.908,2445.07 -291.908,2445.07 -291.942,2446.74C-292.296,2464.93 -292.27,2483.02 -291.25,2501.19C-291.189,2502.29 -291.129,2503.4 -291.066,2504.53C-290.372,2539.4 -290.372,2539.4 -277.25,2570.19C-271.268,2573.48 -265.133,2575.72 -258.688,2577.94C-244.486,2582.99 -232.517,2588.95 -221.25,2599.19C-220.32,2600 -220.32,2600 -219.371,2600.82C-192.566,2625.57 -186.467,2661.82 -184.25,2696.19L-49.25,2696.19C-50.821,2693.05 -52.532,2690.33 -54.472,2687.42C-119.791,2589.51 -125.371,2402.07 -125.576,2400.76C-126.261,2397.13 -131.519,2404.28 -137.25,2405.19C-142.472,2405.65 -145.93,2404.26 -150.25,2401.19C-162.704,2383.04 -147.14,2323.84 -152.25,2271.19C-152.697,2271.57 -153.145,2271.96 -153.605,2272.35C-173.106,2289.1 -173.106,2289.1 -183.824,2288.64C-188.259,2287.81 -190.657,2285.82 -193.25,2282.19C-203.373,2262.66 -203.341,2237.9 -203.895,2216.36C-203.964,2213.69 -210.268,2052.67 -211.558,2034.7C-211.685,2032.93 -211.809,2031.16 -211.931,2029.39C-212.102,2026.93 -212.284,2024.48 -212.469,2022.03C-212.518,2021.31 -212.567,2020.58 -212.617,2019.84C-212.925,2015.96 -213.462,2012.67 -215.25,2009.19C-219.591,2006.79 -222.622,2009.66 -225.844,2012.68ZM-1347.25,2115.19C-1352.05,2119.27 -1356.62,2123.47 -1361,2128C-1362.95,2129.89 -1364.94,2131.68 -1366.99,2133.46C-1371.24,2137.14 -1375.31,2140.99 -1379.38,2144.88C-1386.26,2151.4 -1424.14,2183.24 -1433.84,2190.4C-1436.04,2192.03 -1438.23,2193.69 -1440.42,2195.35C-1449.63,2202.37 -1459.08,2208.96 -1468.67,2215.44C-1473.27,2218.55 -1477.85,2221.68 -1482.44,2224.81C-1483.37,2225.45 -1484.3,2226.08 -1485.26,2226.74C-1487.08,2227.98 -1488.9,2229.22 -1490.72,2230.46C-1492.31,2231.55 -1493.9,2232.63 -1495.49,2233.71C-1528.58,2256.23 -1562.21,2280.59 -1587.25,2312.19C-1588.19,2313.33 -1589.14,2314.48 -1590.09,2315.62C-1611.84,2341.96 -1627.22,2389.98 -1638.25,2422.19C-1638.54,2423.02 -1638.82,2423.85 -1639.12,2424.71C-1646.81,2447.34 -1652.52,2470.58 -1656.25,2494.19C-1656.46,2495.46 -1656.46,2495.46 -1656.67,2496.77C-1660.79,2522.38 -1661.66,2548.28 -1661.25,2574.19C-1660.53,2574.45 -1659.81,2574.72 -1659.07,2574.99C-1626.59,2587.08 -1603.06,2600.16 -1587.5,2632.62C-1578.3,2652.73 -1577.43,2674.43 -1575.25,2696.19L-1378.25,2696.19C-1379.77,2691.64 -1381.08,2688.46 -1383.44,2684.44C-1384.08,2683.37 -1384.7,2682.29 -1385.35,2681.18C-1386.02,2680.05 -1386.69,2678.92 -1387.38,2677.75C-1388.75,2675.39 -1390.11,2673.04 -1391.48,2670.68C-1392.14,2669.55 -1392.79,2668.42 -1393.47,2667.26C-1394.35,2665.74 -1394.35,2665.74 -1395.25,2664.19C-1395.7,2663.42 -1396.15,2662.64 -1396.61,2661.85C-1415.62,2628.78 -1421.23,2590.53 -1425.87,2553.25C-1426.22,2550.4 -1426.58,2547.56 -1426.94,2544.72C-1428.4,2533.21 -1429.83,2521.7 -1431.25,2510.19C-1431.39,2509.05 -1431.53,2507.92 -1431.67,2506.75C-1433.88,2488.93 -1436.07,2471.12 -1438.25,2453.3C-1438.66,2449.93 -1439.08,2446.56 -1439.49,2443.19C-1442.71,2416.92 -1445.94,2373.64 -1448.87,2347.33C-1449.09,2345.4 -1449.31,2343.47 -1449.53,2341.54C-1453.72,2304.91 -1453.72,2304.91 -1443.25,2291.19C-1440.36,2287.75 -1437.32,2284.47 -1434.25,2281.19C-1433.31,2280.16 -1432.36,2279.14 -1431.42,2278.12C-1427.34,2273.68 -1423.25,2269.26 -1419.13,2264.86C-1413.69,2259.03 -1408.44,2253.14 -1403.46,2246.92C-1401.94,2245.04 -1400.39,2243.19 -1398.82,2241.36C-1392.26,2233.71 -1386.6,2225.72 -1381.25,2217.19C-1380.22,2215.54 -1380.22,2215.54 -1379.16,2213.86C-1364.58,2189.49 -1357.47,2161.81 -1350.12,2134.62C-1349.92,2133.88 -1349.72,2133.13 -1349.51,2132.36C-1348.93,2130.24 -1348.36,2128.12 -1347.81,2126C-1347.48,2124.78 -1347.15,2123.56 -1346.82,2122.3C-1346.29,2119.41 -1346.22,2117.9 -1347.25,2115.19Z" style="fill-rule:nonzero;"/>
    </g>
    <g transform="matrix(4.16679,0,0,4.16658,10108.1,5037.92)">
        <path d="M-41.424,8.851C-36.321,-12.922 -3.894,-13.37 4.398,7.095C6.718,12.822 9.387,18.458 11.5,24.25C11.915,25.374 12.33,26.498 12.758,27.656C15.55,35.308 18.199,43.002 20.793,50.723C21.274,52.15 21.274,52.15 21.764,53.606C23.36,58.346 24.944,63.089 26.507,67.839C31.988,84.319 38.845,100.067 46.938,115.438C47.437,116.39 47.936,117.343 48.451,118.324C53.108,127.075 58.315,135.414 63.729,143.711C65.466,146.403 67.137,149.132 68.807,151.866C83.553,175.916 100.959,198.332 119.125,219.875C119.651,220.5 120.177,221.125 120.718,221.769C126.804,228.985 133.03,236.046 139.457,242.961C141.417,245.102 143.318,247.261 145.206,249.463C149.437,254.304 153.946,258.84 158.496,263.379C159.377,264.261 160.258,265.143 161.166,266.052C163.491,268.377 165.818,270.7 168.145,273.022C169.561,274.436 170.976,275.852 172.389,277.269C175.13,280.017 177.875,282.761 180.621,285.504C181.455,286.34 182.288,287.175 183.147,288.036C187.452,292.324 191.823,296.467 196.436,300.424C198.823,302.475 201.126,304.614 203.438,306.75C207.874,310.797 212.438,314.624 217.109,318.395C220.672,321.325 224.15,324.343 227.625,327.375C231.929,331.128 236.253,334.839 240.688,338.438C263.271,356.818 271.728,365.509 277.458,370.863C289.859,382.451 292.148,423.75 245.234,412.928C226.587,408.627 208.957,389.947 195.773,378.317C192.965,375.86 190.105,373.465 187.25,371.063C179.92,364.87 172.739,358.551 165.678,352.054C162.598,349.22 159.498,346.412 156.375,343.625C142.326,330.976 128.852,317.764 115.504,304.384C113.033,301.908 110.558,299.436 108.082,296.966C105.676,294.564 103.274,292.159 100.871,289.754C99.995,288.88 99.119,288.006 98.216,287.105C93.868,282.74 89.652,278.321 85.649,273.637C82.951,270.518 80.086,267.555 77.25,264.563C71.592,258.539 66.265,252.349 61.125,245.875C60.207,244.759 59.288,243.645 58.367,242.531C51.48,234.149 45.267,225.431 39.215,216.43C36.968,213.092 34.654,209.821 32.27,206.581C26.079,198.155 20.804,189.225 15.511,180.217C14.298,178.168 13.068,176.133 11.82,174.105C-15.311,129.963 -53.997,62.497 -41.424,8.851Z" style="fill-rule:nonzero;"/>
    </g>
    <g transform="matrix(4.16679,0,0,4.16658,5677.37,9228.08)">
        <path d="M-31.84,23.152C-22.639,-3.175 18.487,-9.605 14.809,22.852C-7.811,222.431 -195.852,351.882 -289.527,376.215C-303.989,379.971 -314.278,351.68 -299.978,336.805C-294.859,331.48 -278.44,324.232 -277.274,323.583C-81.733,214.747 -66.167,121.372 -31.84,23.152Z" style="fill-rule:nonzero;"/>
    </g>
    <g transform="matrix(4.16679,0,0,4.16658,11664.9,2920.87)">
        <path d="M0,0C10.76,8.494 16.651,19.878 18.254,33.414C18.885,42.711 18.926,54.456 13.109,62.184C12.58,62.775 12.05,63.367 11.504,63.977C10.84,64.723 10.176,65.469 9.492,66.238C-0.856,77.164 -14.257,84.858 -29.496,85.977C-47.527,86.132 -62.4,79.528 -75.406,67.16C-75.993,66.605 -76.579,66.049 -77.184,65.477C-77.932,64.719 -77.932,64.719 -78.695,63.945C-81.46,62.458 -83.477,63.335 -86.496,63.977C-88.501,64.63 -90.49,65.336 -92.461,66.086C-93.584,66.509 -94.706,66.931 -95.863,67.367C-97.041,67.816 -98.22,68.264 -99.434,68.727C-101.87,69.641 -104.308,70.554 -106.746,71.465C-107.914,71.901 -109.082,72.338 -110.285,72.788C-139.552,83.625 -139.552,83.625 -151.496,81.977C-153.496,79.977 -153.496,79.977 -153.559,76.852C-152.651,71.704 -149.046,68.569 -145.496,64.977C-144.98,64.412 -144.465,63.847 -143.934,63.266C-139.965,59.039 -135.508,55.579 -130.888,52.09C-125.635,48.119 -120.539,43.971 -115.446,39.797C-111.299,36.409 -107.09,33.131 -102.809,29.914C-95.21,24.125 -88.289,17.615 -81.43,10.977C-59.868,-9.142 -25.493,-17.441 0,0Z" style="fill-rule:nonzero;"/>
    </g>
</svg>
