<?xml version="1.0" encoding="UTF-8" standalone="no"?>
<!DOCTYPE svg PUBLIC "-//W3C//DTD SVG 1.1//EN" "http://www.w3.org/Graphics/SVG/1.1/DTD/svg11.dtd">
<svg width="100%" height="100%" viewBox="0 0 3905 3905" version="1.1" xmlns="http://www.w3.org/2000/svg" xmlns:xlink="http://www.w3.org/1999/xlink" xml:space="preserve" xmlns:serif="http://www.serif.com/" style="fill-rule:evenodd;clip-rule:evenodd;stroke-linejoin:round;stroke-miterlimit:2;">
    <g transform="matrix(0.416699,0,0,-0.416699,-155,4052)">
        <path d="M4108,9095C4028,9075 3936,9031 3864,8977C3783,8917 3754,8903 3641,8868C3512,8827 3463,8801 3408,8743C3340,8670 3313,8609 3343,8597C3362,8589 3181,8416 3121,8385C3092,8371 3043,8354 3012,8348C2945,8335 2930,8325 2930,8295C2930,8240 3087,8252 3197,8316C3220,8330 3284,8382 3339,8434C3404,8495 3459,8537 3499,8555C3586,8597 3579,8611 3478,8602C3445,8599 3420,8601 3420,8606C3420,8621 3522,8716 3555,8733C3572,8741 3641,8767 3710,8790C3812,8824 3848,8841 3905,8884C4037,8985 4121,9014 4275,9015C4372,9015 4391,9012 4440,8989C4470,8975 4510,8949 4528,8932L4562,8900L4603,8935C4715,9031 4928,9046 5091,8969C5126,8952 5183,8917 5219,8891C5303,8830 5321,8821 5457,8776C5518,8755 5586,8726 5607,8711C5652,8678 5710,8620 5710,8607C5710,8603 5680,8600 5643,8601C5599,8603 5575,8599 5572,8592C5570,8585 5573,8580 5578,8580C5609,8580 5736,8494 5814,8419C5864,8372 5925,8322 5950,8307C6033,8260 6181,8246 6196,8285C6208,8315 6181,8338 6121,8348C6034,8363 5988,8392 5883,8491C5832,8540 5770.06,8579.06 5777,8580C5826.3,8586.7 5820.38,8602.52 5815,8619L5795,8656C5764,8714 5697,8783 5643,8812C5617,8826 5555,8850 5506,8864C5394,8896 5353,8916 5265,8981C5138,9075 5030,9110 4865,9110C4757,9110 4670,9093 4610,9059L4573,9038L4534,9058C4458,9097 4391,9110 4276,9109C4215,9109 4139,9102 4108,9095Z" style="fill-rule:nonzero;"/>
        <path d="M3743,8705C3623,8624 3540,8456 3541,8295L3541,8235L3562,8275C3573,8297 3595,8352 3611,8397C3651,8517 3694,8599 3757,8674C3787,8710 3808,8740 3803,8740C3799,8740 3771,8724 3743,8705Z" style="fill-rule:nonzero;"/>
        <path d="M5364,8679C5425,8611 5486,8500 5520,8395C5553,8293 5581,8230 5591,8236C5615,8251 5589,8417 5548,8510C5521,8569 5439,8666 5376,8712C5311,8759 5305,8744 5364,8679Z" style="fill-rule:nonzero;"/>
        <path d="M3854,8651C3801,8612 3767,8574 3732,8513C3678,8421 3659,8341 3653,8182C3647,8014 3654,7970 3717,7775C3760,7643 3762,7630 3758,7544C3755,7471 3749,7443 3726,7397C3686,7315 3643,7285 3566,7285C3483,7285 3454,7307 3400,7412C3372,7466 3333,7520 3290,7565C3202,7657 3190,7681 3190,7775C3190,7816 3186,7850 3181,7850C3166,7850 3150,7824 3136,7779L3123,7735L3105,7775C3064,7869 3089,7933 3207,8032C3285,8098 3314,8140 3273,8127C3201,8104 3070,8044 3048,8023C3001,7978 2976,7906 2976,7810C2975,7740 2979,7717 2998,7681L3021,7638L3044,7659L3067,7681L3093,7641C3108,7619 3155,7563 3199,7517C3311,7398 3315,7389 3315,7250C3314,7105 3297,7047 3188,6815C3093,6615 3026,6421 3003,6280C2988,6190 2988,6167 3000,6086C3014,5987 3014,5993 3005,5745C2999,5594 3001,5563 3020,5470C3032,5412 3059,5319 3082,5262L3122,5159L3109,5087C3103,5048 3097,4948 3097,4865C3098,4744 3102,4699 3119,4635C3148,4525 3201,4419 3264,4341C3294,4305 3337,4237 3361,4190L3404,4105L3411,3920C3415,3818 3423,3720 3428,3703C3434,3685 3460,3624 3486,3568L3534,3465L3541,3220C3547,2964 3550,2948 3600,2850C3612,2826 3642,2780 3666,2747C3717,2677 3718,2663 3694,2512C3686,2458 3680,2391 3682,2364C3685,2322 3688,2315 3707,2312C3720,2310 3736,2317 3747,2329C3756,2341 3768,2350 3773,2350C3778,2350 3780,2244 3777,2103C3769,1711 3744,1636 3560,1454C3438,1334 3405,1280 3394,1189C3373,1005 3522,908 3803,924C4007,935 4095,946 4130,965C4223,1013 4259,1065 4294,1200C4303,1236 4338,1319 4371,1385C4462,1566 4475,1641 4464,1925C4451,2284 4451,2276 4503,2428C4556,2579 4575,2666 4585,2792C4590,2860 4596,2882 4612,2897C4636,2919 4658,2959 4675,3014L4687,3055L4700,3028C4713,3000 4709,2981 4656,2857C4640,2820 4640,2819 4668,2792C4685,2776 4712,2729 4731,2680C4762,2601 4765,2587 4765,2485C4764,2388 4760,2364 4732,2283C4693,2169 4634,2052 4581,1981C4449,1806 4483,1639 4662,1585C4735,1564 4832,1557 4909,1569C4999,1583 5103,1617 5129,1641C5148,1659 5149,1659 5155,1594C5166,1499 5158,1461 5104,1354C5064,1273 5056,1248 5052,1184C5046,1092 5065,1036 5120,986C5173,938 5217,927 5350,925C5413,924 5488,920 5516,916C5579,907 5730,931 5801,962C5860,987 5922,1053 5938,1108C5955,1165 5953,1272 5931,1391C5920,1448 5906,1533 5900,1580C5886,1678 5872,2000 5881,2000C5885,2000 5893,1993 5900,1985C5916,1965 5944,1966 5961,1986C5983,2012 5985,2168 5965,2274L5947,2367L5999,2475C6079,2640 6104,2762 6080,2865C6075,2887 6073,2906 6074,2908C6076,2910 6096,2878 6118,2838C6203,2686 6353,2558 6530,2485C6555,2475 6629,2453 6695,2435L6815,2403L6822,2364C6833,2307 6822,2106 6798,1936C6771,1738 6781,1680 6853,1626C6927,1569 7155,1543 7310,1574C7486,1609 7545,1663 7543,1785C7543,1836 7533,1866 7482,1980C7404,2156 7397,2176 7345,2414C7321,2524 7280,2705 7255,2815C7170,3185 7168,3196 7172,3310C7176,3403 7181,3429 7220,3540C7265,3665 7265,3665 7264,3800C7264,3919 7260,3949 7232,4050C7205,4149 7192,4217 7164,4390L7159,4425L7190,4388C7229,4341 7276,4335 7286,4374C7290,4392 7280,4413 7245,4461C7185,4542 7168,4576 7137,4675C7096,4807 7087,4913 7092,5188C7098,5444 7092,5565 7066,5691C7011,5955 6876,6207 6681,6412C6516,6585 6350,6688 6100,6775C6026,6800 5958,6828 5948,6836C5922,6861 5864,6978 5839,7060C5820,7120 5815,7158 5815,7250C5815,7390 5820,7402 5935,7520C5980,7567 6029,7622 6043,7644C6067,7681 6069,7681 6080,7661C6097,7629 6125,7650 6145,7711C6178,7809 6149,7954 6083,8022C6069,8037 6034,8057 6006,8066C5978,8075 5934,8093 5908,8106C5811,8155 5816,8129 5926,8026C5973,7982 6018,7934 6026,7918C6045,7882 6044,7821 6023,7774L6007,7735L5993,7780C5980,7823 5955,7854 5940,7845C5936,7842 5935,7810 5938,7772C5944,7685 5931,7658 5838,7564C5789,7514 5756,7469 5726,7409C5673,7303 5636,7277 5547,7283C5478,7287 5444,7315 5402,7400C5378,7449 5375,7466 5375,7560C5376,7658 5379,7675 5422,7806C5480,7980 5494,8083 5480,8210C5456,8418 5412,8529 5318,8616C5213,8714 5176,8699 5251,8589C5339,8460 5377,8344 5387,8185C5394,8059 5382,7984 5324,7813C5257,7613 5254,7485 5315,7351C5384,7201 5515,7143 5660,7199C5690,7210 5716,7220 5718,7220C5719,7220 5720,7201 5720,7178C5720,7101 5749,7011 5859,6741C6026,6332 6050,6241 6069,5945C6079,5794 6078,5758 6065,5827C6055,5883 5990,6034 5940,6120C5873,6234 5834,6265 5810,6220C5798,6198 5806,6178 5869,6061C6006,5813 6052,5537 5994,5314C5948,5134 5818,4923 5682,4804C5627,4756 5616,4724 5645,4700C5694,4659 5887,4851 5989,5040C6044,5143 6067,5205 6100,5340C6214,5801 6181,6256 6006,6635C5987,6676 5975,6710 5980,6710C6005,6710 6222,6625 6287,6590C6450,6502 6611,6363 6727,6210C6805,6106 6911,5896 6945,5775C6994,5605 7001,5527 6998,5183C6996,4856 7006,4731 7055,4421C7064,4369 7069,4325 7067,4323C7054,4310 6942,4607 6925,4703C6919,4731 6913,4740 6897,4740C6878,4740 6877,4736 6884,4661C6897,4506 6943,4373 7044,4201C7103,4099 7143,4010 7158,3950C7175,3878 7183,3776 7175,3729L7168,3686L7150,3741C7130,3808 7100,3860 7083,3860C7067,3860 7067,3861 7087,3743C7102,3651 7102,3634 7085,3463C7074,3344 7070,3254 7074,3208C7078,3168 7115,2991 7155,2815C7195,2639 7240,2439 7255,2370C7288,2208 7309,2134 7332,2087C7343,2065 7350,2047 7348,2045C7346,2043 7314,2050 7275,2060C7159,2091 7038,2080 6955,2032C6935,2020 6918,2010 6916,2010C6914,2010 6915,2086 6918,2178C6923,2365 6911,2504 6880,2602C6869,2636 6855,2721 6850,2790C6832,3005 6806,3082 6690,3275C6566,3480 6544,3535 6529,3685C6523,3740 6514,3788 6507,3792C6483,3807 6466,3771 6462,3699L6458,3629L6433,3652C6396,3686 6312,3813 6283,3879C6240,3975 6220,4074 6220,4187C6220,4282 6219,4290 6201,4290C6188,4290 6178,4279 6170,4255C6156,4213 6140,4209 6140,4248C6140,4290 6197,4444 6217,4455C6257,4478 6346,4569 6381,4624C6533,4857 6575,5321 6473,5644C6436,5763 6415,5800 6385,5800C6347,5800 6345,5766 6379,5647C6452,5387 6458,5157 6399,4910C6376,4815 6296,4643 6250,4590L6220,4555L6227,4600C6241,4681 6235,4861 6216,4922C6189,5012 6149,5051 6121,5016C6112,5005 6113,4987 6126,4938C6151,4850 6151,4669 6126,4573C6106,4493 6090,4478 6090,4538C6090,4624 6056,4729 6034,4708C6032,4705 6028,4627 6026,4534C6023,4389 6018,4350 5996,4265C5961,4136 5927,4060 5868,3982C5841,3947 5820,3914 5820,3908C5820,3903 5842,3870 5869,3836C5968,3712 6033,3559 6045,3418C6049,3375 6050,3340 6046,3340C6043,3340 6032,3357 6021,3378C5996,3428 5932,3504 5890,3535C5825,3583 5810,3557 5861,3484C5933,3380 5992,3218 6006,3091L6013,3027L5968,3073C5937,3106 5915,3120 5897,3120C5862,3120 5863,3110 5903,3042C5978,2912 6002,2813 5985,2704L5977,2655L5964,2714C5941,2809 5876,2919 5854,2897C5851,2895 5856,2866 5864,2833C5885,2751 5894,2621 5885,2515L5878,2427L5860,2476C5824,2579 5770,2664 5770,2618C5770,2602 5831,2375 5865,2261C5879,2215 5890,2159 5890,2136L5890,2095L5846,2183C5822,2232 5792,2283 5779,2296C5752,2325 5725,2329 5735,2303C5768,2216 5779,2134 5785,1920C5793,1648 5802,1546 5835,1388C5863,1252 5866,1184 5846,1137C5831,1101 5777,1050 5754,1050C5733,1050 5720,1092 5720,1156C5720,1219 5707,1250 5681,1250C5666,1250 5662,1239 5656,1189C5653,1155 5650,1105 5650,1079C5650,1034 5648,1030 5623,1023C5569,1009 5521,1014 5499,1037C5471,1064 5458,1144 5467,1234C5473,1297 5472,1302 5454,1299C5419,1292 5396,1224 5394,1125C5393,1076 5392,1032 5391,1028C5389,1013 5293,1020 5280,1036C5272,1044 5265,1087 5262,1131C5258,1199 5255,1210 5239,1210C5215,1210 5203,1187 5195,1117C5188,1059 5187,1058 5168,1078C5153,1093 5148,1111 5149,1159C5149,1215 5155,1234 5224,1373C5304,1534 5354,1671 5344,1702C5331,1744 5272,1712 5257,1655C5246,1611 5252,1775 5266,1920C5275,2010 5285,2259 5290,2510C5299,2978 5305,3035 5357,3181C5378,3240 5382,3262 5373,3271C5367,3277 5355,3280 5348,3277C5324,3268 5279,3165 5251,3049C5217,2913 5204,2922 5213,3076C5222,3229 5263,3371 5317,3432C5336,3453 5327,3480 5301,3480C5277,3480 5248,3445 5210,3366C5169,3283 5141,3166 5133,3046L5126,2945L5104,3038C5048,3270 5036,3561 5078,3700C5114,3823 5152,3884 5318,4085C5352,4127 5372.74,4158.45 5375.2,4162.8C5387.2,4184 5366.8,4219.6 5323.4,4202.8C5305.68,4195.94 5169,4062 5114,3983C4976,3791 4934,3568 4975,3237C5002,3017 5003,3024 4959,3115C4825,3397 4783,3652 4843,3835C4876,3935 4936,4037 5035,4160C5135,4284 5196,4384 5226,4467C5253,4545 5256,4583 5235,4600C5206,4624 5187,4606 5149,4517C5107,4418 5073,4366 4937,4190C4834,4058 4786,3971 4748,3850C4728,3786 4725,3755 4726,3635C4726,3471 4740,3407 4825,3185C4854,3108 4881,3034 4885,3021L4892,2997L4860,3020C4778,3078 4718,3223 4660,3495C4601,3776 4550,3892 4392,4102C4276,4257 4225,4337 4179,4435C4137,4526 4112,4550 4086,4524C4065,4504 4066,4492 4091,4417C4120,4330 4170,4243 4260,4126C4374,3975 4417,3909 4465,3807C4528,3677 4560,3557 4567,3430L4572,3325L4542,3365C4494,3429 4415,3584 4352,3740C4285,3904 4236,3992 4181,4050C4143,4090 4110,4102 4110,4076C4110,4068 4134,4015 4164,3958C4194,3901 4237,3803 4260,3740C4317,3582 4386,3440 4457,3334C4564,3175 4593,3103 4571,3050C4564,3031 4561,3030 4561,3043C4560,3074 4495,3202 4454,3256C4433,3284 4375,3349 4327,3401C4210,3525 4145,3626 4071,3795C4002,3952 3964,4016 3863,4146C3825,4195 3779,4259 3762,4287C3695,4399 3646,4550 3634,4686C3629,4743 3623,4763 3609,4770C3554,4800 3541,4647 3584,4478C3621,4332 3670,4243 3826,4038C3903,3938 3938,3874 3994,3736C4061,3569 4113,3492 4291,3298C4398,3180 4452,3085 4469,2985C4486,2884 4494,2746 4482,2753C4477,2757 4469,2777 4465,2797C4431,2982 4309,3210 4244,3210C4213,3210 4214,3206 4250,3151C4325,3034 4370,2892 4369,2775L4369,2715L4346,2780C4320,2852 4258,2980 4228,3023C4206,3054 4180,3059 4180,3032C4180,3022 4189,2994 4201,2971C4239,2892 4308,2666 4324,2570C4332,2518 4344,2387 4350,2280C4355,2173 4365,2022 4370,1945C4381,1798 4372,1654 4347,1570L4334,1525L4327,1560C4317,1611 4270,1665 4243,1656C4211,1646 4208,1625 4231,1568C4271,1465 4274,1429 4246,1360C4232,1326 4211,1264 4200,1222C4188,1180 4170,1131 4159,1113C4121,1052 3994,1016 3958,1058C3938,1080 3923,1130 3914,1198C3908,1244 3905,1250 3884,1250C3854,1250 3847,1226 3851,1127C3853,1082 3851,1039 3847,1033C3842,1025 3815,1020 3775,1020C3722,1020 3706,1024 3684,1043C3661,1063 3656,1077 3652,1129C3647,1204 3668,1266 3717,1321C3752,1360 3748,1377 3706,1366C3672,1358 3593,1268 3581,1224C3575,1202 3570,1155 3570,1118C3570,1048 3565,1041 3538,1063C3451,1133 3483,1261 3614,1371C3736,1475 3778,1533 3822,1660C3866,1788 3874,1885 3872,2243C3871,2429 3868,2586 3864,2591C3853,2610 3831,2579 3810,2514C3798,2478 3786,2451 3784,2453C3781,2455 3786,2497 3795,2545C3814,2658 3814,2681 3789,2855C3778,2936 3766,3038 3762,3083C3756,3148 3752,3165 3738,3168C3705,3174 3695,3132 3696,2987C3697,2912 3696,2851 3694,2852C3687.72,2844.83 3637.81,2968.53 3637,3015L3634,3448L3631,3880L3673,3846C3731,3799 3834,3740 3859,3740C3881,3740 3904,3774 3896,3795C3893,3803 3866,3825 3835,3844C3760,3892 3662,3992 3618,4065C3598,4098 3565,4171 3544,4228C3523,4284 3501,4330 3494,4330C3473,4330 3468,4270 3484,4208C3491,4176 3495,4150 3493,4150C3491,4150 3473,4184 3454,4225C3407,4327 3353,4495 3335,4600C3303,4773 3299,4790 3284,4790C3277,4790 3267,4778 3264,4764C3257,4738 3265,4562 3275,4505C3284,4453 3242,4553 3219,4639C3194,4727 3179,5005 3198,4999C3204,4997 3247,4946 3292,4885C3358,4799 3381,4774 3403,4772C3424,4769 3432,4774 3441,4794C3452,4817 3446,4830 3367,4947C3259,5109 3190,5239 3151,5359C3064,5619 3072,5842 3175,6099C3216,6202 3217,6216 3190,6225C3159,6235 3136,6208 3098,6115L3086,6085L3082,6120C3076,6173 3098,6299 3131,6410C3163,6518 3213,6641 3308,6845C3371,6980 3410,7109 3410,7179C3410,7202 3411,7220 3413,7220C3415,7220 3436,7210 3461,7198C3584,7138 3739,7202 3809,7341C3877,7477 3876,7600 3806,7817C3750,7991 3736,8077 3743,8195C3753,8350 3800,8479 3890,8597C3949,8675 3928,8706 3854,8651ZM6134,3980L6195,3845L6195,3730C6195,3639 6190,3597 6170,3525L6146,3435L6130,3519C6118,3578 6115,3625 6120,3674C6129,3761 6120,3832 6080,3984C6064,4048 6050,4118 6051,4138L6052,4175L6062,4145C6068,4129 6100,4054 6134,3980ZM6003,3913C6026,3817 6033,3774 6027,3780C6024,3783 6001,3815 5976,3852L5930,3920L5952,3954C5964,3973 5978,3986 5981,3984C5985,3982 5995,3950 6003,3913ZM3548,3794L3545,3665L3527,3723C3507,3788 3493,3938 3504,3966C3510,3982 3514,3981 3531,3953C3548,3926 3550,3907 3548,3794ZM6305,3555C6303,3528 6282,3442 6259,3365C6224,3244 6217,3208 6213,3097C6208,2997 6211,2955 6225,2899C6234,2860 6239,2826 6236,2823C6228,2815 6176,2931 6154,3005C6123,3111 6130,3184 6188,3359C6217,3444 6244,3541 6250,3574C6270,3691 6270,3691 6292,3645C6306,3616 6309,3592 6305,3555ZM6410,3475C6410,3447 6400,3373 6388,3310C6343,3077 6363,2861 6443,2698C6484,2615 6470,2609 6405,2683C6328,2771 6288,2875 6274,3024C6265,3128 6274,3177 6367,3509C6381,3559 6384,3562 6396,3545C6404,3535 6410,3503 6410,3475ZM6495,3388C6497,3375 6501,3266 6503,3145C6506,2946 6509,2916 6532,2829C6553,2752 6589,2662 6638,2568C6640,2563 6636,2560 6630,2560C6607,2560 6548,2636 6510,2715C6424,2893 6406,3063 6450,3288C6473,3408 6485,3433 6495,3388ZM6604,3197C6613,3168 6626,3090 6634,3024C6643,2957 6661,2863 6675,2815C6698,2736 6768,2579 6791,2556C6804,2542 6802,2510 6788,2510C6767,2510 6705,2585 6668,2656C6619,2749 6583,2877 6570,3007C6558,3118 6565,3264 6581,3255C6586,3251 6596,3226 6604,3197ZM6735,2905C6740,2846 6739,2846 6720,2930C6698,3029 6695,3076 6716,3010C6724,2985 6733,2938 6735,2905ZM4880,2881C4905,2871 4946,2859 4972,2855L5018,2848L5081,2697C5208,2387 5208,2386 5186,2122C5177,2021 5170,1937 5170,1934C5170,1932 5153,1949 5133,1972C5061,2051 4915,2095 4798,2072C4771,2067 4750,2064 4750,2065C4750,2066 4763,2097 4780,2133C4866,2324 4889,2513 4842,2655C4829,2694 4805,2750 4788,2781C4761,2834 4759,2840 4770,2881C4787,2942 4789,2944 4814,2921C4826,2910 4855,2892 4880,2881ZM4962,1964C5023,1944 5085,1889 5115,1830L5139,1782L5119,1756C5101,1733 5052,1700 5036,1700C5033,1700 5019,1720 5005,1744C4960,1821 4915,1811 4930,1727C4935,1700 4934,1683 4928,1679C4907,1666 4841,1660 4816,1669C4785,1682 4772,1749 4789,1816C4801,1864 4798,1880 4775,1880C4750,1880 4721,1824 4710,1754C4704,1717 4697,1684 4696,1682C4686,1673 4637,1696 4620,1717C4561,1792 4632,1924 4755,1968C4800,1984 4910,1982 4962,1964ZM7261,1967C7321,1949 7383,1908 7415,1865C7448,1823 7459,1754 7437,1726C7423,1708 7422,1708 7410,1744C7395,1791 7344,1850 7319,1850C7296,1850 7296,1848 7315,1786C7338,1709 7335,1691 7295,1674C7248,1655 7212,1656 7207,1678C7204,1687 7194,1730 7185,1772C7167,1858 7143,1897 7115,1887C7102,1881 7099,1873 7104,1852C7108,1837 7114,1788 7117,1743L7123,1660L7081,1660C7025,1660 7000,1686 7000,1743C7000,1793 6985,1814 6960,1800C6944,1792 6935,1773 6915,1715C6909,1696 6908,1696 6895,1720C6850,1801 6920,1923 7035,1964C7086,1982 7204,1984 7261,1967Z" style="fill-rule:nonzero;"/>
        <path d="M4081,8289C4028,8273 4002,8251 3959,8188C3926,8141 3922,8129 3935,8124C3943,8121 3961,8121 3974,8124C3989,8128 4002,8124 4011,8114C4045,8073 4113,8061 4172,8085C4184,8090 4189,8086 4192,8068C4194,8053 4203,8044 4218,8042C4236,8039 4244,8046 4256,8075C4273,8117 4269,8153 4239,8217C4208,8282 4150,8309 4081,8289Z" style="fill-rule:nonzero;"/>
        <path d="M4970,8287C4925,8271 4879,8198 4872,8131C4868,8087 4871,8078 4895,8055C4923,8026 4940,8030 4943,8069C4944,8086 4948,8088 4965,8082C5008,8067 5077,8074 5102,8098C5119,8113 5139,8120 5168,8120C5191,8120 5210,8123 5210,8128C5210,8138 5163,8208 5136,8239C5101.69,8278.4 5045,8297.6 5020,8296.6C5012,8296.6 4989,8294 4970,8287Z" style="fill-rule:nonzero;"/>
        <path d="M3169,8241C2992,8181 2965,8163 2920,8078C2890,8022 2897,7910 2930,7910C2935,7910 2958,7946 2981,7990C3027,8080 3045,8097 3157,8158C3241,8203 3330,8273 3314,8282C3309,8284 3244,8266 3169,8241Z" style="fill-rule:nonzero;"/>
        <path d="M5830,8281C5830,8264 5928,8182 5992,8146C6071,8102 6124,8047 6156,7975C6183,7912 6198,7900 6217,7925C6237,7953 6233,8037 6209,8087C6176,8155 6123,8193 6018,8225C5967,8240 5908,8261 5888,8271C5847,8292 5830,8295 5830,8281Z" style="fill-rule:nonzero;"/>
        <path d="M4432,7747C4339,7713 4287,7631 4286,7515C4286,7456 4290,7437 4315,7392C4347,7332 4402,7287 4473,7262L4520,7245L4520,7180C4520,7144 4516,7110 4512,7105C4503,7092 4357,6973 4313,6942C4295,6929 4259,6917 4233,6914C4169,6906 4125,6935 4088,7009C4063,7058 4060,7074 4060,7170C4060,7301 4048,7368 4012,7440C3993,7479 3978,7496 3962,7498C3931,7503 3924,7478 3940,7416C3947,7388 3956,7291 3959,7200C3965,7053 3969,7029 3992,6980C4040,6873 4113,6815 4211,6803C4238,6800 4260,6796 4260,6795C4260,6794 4251,6767 4239,6734C4225,6692 4218,6647 4217,6575L4215,6475L4240,6475C4262,6475 4266,6482 4278,6530C4309,6652 4333,6730 4342,6730C4347,6730 4364,6723 4380,6715C4417,6696 4417,6683 4385,6563C4359,6464 4327,6393 4276,6320C4236,6262 4231,6249 4242,6228C4260,6193 4296,6207 4345,6267C4406,6342 4425,6380 4475,6535L4517,6665L4645,6665L4696,6513C4782,6260 4829,6187 4881,6228L4903,6247L4863,6331C4841,6377 4804,6480 4781,6560L4739,6704L4762,6722C4775,6732 4788,6740 4791,6740C4800,6740 4827,6675 4858,6580C4878,6518 4890,6494 4904,6492C4932,6486 4943,6504 4942,6557C4941,6599 4908,6731 4886,6780C4881,6792 4892,6798 4941,6807C5016,6821 5074,6860 5112,6920C5156,6989 5170,7050 5170,7174C5170,7235 5175,7314 5181,7350C5186,7386 5194,7432 5197,7452C5201,7482 5199,7491 5185,7496C5157,7507 5137,7488 5111,7424C5091,7375 5086,7340 5080,7215C5069,6997 5034,6927 4928,6915C4874,6908 4833,6927 4743,7000C4612,7107 4610,7109 4610,7184C4610,7229 4614,7252 4623,7254C4779,7299 4850,7381 4850,7518C4850,7630 4795,7716 4701,7748C4657,7763 4475,7762 4432,7747ZM4680,7651C4717,7632 4758,7584 4747,7574C4743,7570 4734,7572 4727,7578C4720,7584 4685,7597 4651,7606C4580,7624 4514,7619 4436,7589C4408,7579 4385,7572 4384,7573C4373,7584 4413,7629 4450,7648C4508,7677 4628,7679 4680,7651ZM4491,7427C4478,7390 4453,7373 4437,7389C4430,7396 4432,7402 4444,7406C4453,7409 4468,7426 4476,7442C4496,7481 4505,7471 4491,7427ZM4688,7414C4704,7399 4707,7390 4700,7385C4684,7375 4674,7387 4656,7435C4647,7457 4646,7466 4653,7456C4659,7445 4675,7426 4688,7414ZM4585,7000C4589,6994 4580,6990 4566,6990C4552,6990 4540,6995 4540,7000C4540,7006 4549,7010 4559,7010C4570,7010 4582,7006 4585,7000ZM4560,6900C4582,6900 4617,6907 4636,6915C4671,6929 4674,6929 4711,6902C4732,6887 4750,6870 4750,6864C4750,6845 4685,6793 4644,6780C4584,6760 4478,6772 4430,6804C4373,6842 4370,6857 4413,6896C4448,6929 4450,6929 4484,6915C4504,6907 4538,6900 4560,6900Z" style="fill-rule:nonzero;"/>
        <path d="M3739,7127C3719,7109 3659,7068 3605,7035C3446,6937 3406,6863 3407,6670C3408,6547 3432,6444 3486,6330C3529,6240 3557,6205 3577,6221C3598,6239 3593,6275 3550,6407C3494,6578 3483,6664 3503,6764C3524,6865 3546,6899 3641,6971C3723,7033 3790,7110 3790,7141C3790,7167 3781,7164 3739,7127Z" style="fill-rule:nonzero;"/>
        <path d="M5340,7147C5340,7119 5420,7023 5493,6963C5601,6874 5624,6823 5624,6675C5624,6556 5617,6525 5554,6347C5517,6243 5516,6238 5533,6225C5563,6204 5578,6217 5619,6299C5742,6544 5752,6796 5644,6937C5630,6956 5581,6996 5536,7025C5492,7055 5433,7097 5405,7119C5351,7163 5340,7168 5340,7147Z" style="fill-rule:nonzero;"/>
        <path d="M3860,7099C3860,7070 3770,6965 3685,6896C3589,6818 3568,6791 3557,6732C3540,6647 3602,6618 3627,6700C3643,6754 3647,6759 3733,6834C3770,6867 3815,6911 3832,6933C3872,6984 3902,7067 3889,7092C3878,7112 3860,7116 3860,7099Z" style="fill-rule:nonzero;"/>
        <path d="M5247,7103C5232,7089 5241,7037 5266,6987C5282,6957 5334,6892 5391,6833C5458,6765 5492,6722 5496,6701C5507,6645 5554,6636 5566,6687C5581,6743 5553,6788 5431,6909C5366,6973 5303,7044 5290,7068C5266,7110 5259,7116 5247,7103Z" style="fill-rule:nonzero;"/>
        <path d="M5209,6784C5194,6766 5197,6760 5275,6653C5345,6557 5373,6484 5378,6379C5382,6309 5378,6280 5361,6228C5326,6123 5314,6116 5318,6202C5324,6315 5271,6499 5237,6487C5230,6484 5226,6478 5227,6472C5228,6466 5235,6421 5241,6372C5252,6294 5251,6270 5236,6194C5209,6055 5140,5934 5028,5829C4985,5789 4977,5748 5009,5730C5025,5722 5039,5729 5090,5766C5190,5840 5320,5970 5372,6049C5460,6183 5492,6351 5456,6486C5427,6594 5321,6748 5250,6785C5225,6798 5220,6798 5209,6784Z" style="fill-rule:nonzero;"/>
        <path d="M3821,6741C3760,6682 3697,6587 3673,6517C3660,6478 3655,6436 3655,6350C3656,6249 3659,6228 3682,6172C3743,6029 3820,5939 4045,5753C4197,5626 4264,5542 4301,5429C4325,5355 4328,5280 4317,5080C4315,5041 4318,5035 4336,5032C4390,5024 4425,5141 4417,5300C4408,5495 4356,5589 4136,5805C4000,5938 3979,5964 3942,6037C3920,6082 3896,6145 3890,6177C3878,6234 3881,6403 3896,6463C3905,6502 3878,6499 3856,6458C3815,6377 3797,6212 3820,6115C3832,6061 3826,6060 3799,6111C3735,6237 3722,6361 3761,6486C3784,6561 3813,6611 3875,6685C3928,6749 3931,6755 3924,6774C3912,6804 3873,6791 3821,6741Z" style="fill-rule:nonzero;"/>
        <path d="M4650,6340C4639,6333 4639,6315 4647,6247C4666,6093 4630,5982 4526,5861C4469,5796 4460,5774 4482,5752C4505,5729 4532,5740 4585,5794C4717,5930 4764,6112 4710,6275C4689,6339 4674,6355 4650,6340Z" style="fill-rule:nonzero;"/>
        <path d="M3373,6208C3324,6143 3300,5769 3333,5600C3363,5450 3400,5386 3437,5423C3453,5439 3453,5444 3437,5508C3396,5674 3389,5848 3416,6062C3425,6132 3430,6197 3426,6205C3419,6223 3386,6225 3373,6208Z" style="fill-rule:nonzero;"/>
        <path d="M4783,5752C4684,5673 4603,5575 4556,5478C4493,5349 4477,5273 4482,5125C4486,4993 4500,4947 4538,4942C4569,4937 4578,4968 4568,5049C4540,5269 4625,5478 4817,5660C4892,5732 4902,5747 4888,5773C4874,5801 4835,5793 4783,5752Z" style="fill-rule:nonzero;"/>
        <path d="M3540,5671C3525,5642 3541,5588 3600,5464C3688,5282 3857,5052 4100,4786C4318,4547 4378,4458 4430,4298C4452,4229 4468,4213 4501,4230C4576,4271 4435,4570 4250,4765C4060,4965 3896,5164 3793,5317C3761,5365 3704,5467 3665,5544C3610,5654 3590,5686 3573,5688C3559,5690 3547,5684 3540,5671Z" style="fill-rule:nonzero;"/>
        <path d="M5233,5598C5227,5591 5215,5560 5205,5530C5134,5314 5021,5169 4821,5035C4705,4958 4691,4941 4721,4914C4741,4896 4743,4896 4817,4935C4992,5027 5141,5173 5214,5322C5263,5422 5303,5566 5290,5591C5278,5613 5247,5616 5233,5598Z" style="fill-rule:nonzero;"/>
        <path d="M5413,5528C5408,5521 5389,5472 5371,5420C5296,5199 5193,5074 4936,4891C4751,4760 4690,4704 4690,4667C4690,4652 4698,4637 4709,4631C4724,4622 4741,4632 4806,4683C4850,4718 4932,4778 4990,4818C5247,4992 5375,5146 5444,5368C5458,5414 5470,5466 5470,5484C5470,5531 5436,5558 5413,5528Z" style="fill-rule:nonzero;"/>
        <path d="M6712,4892C6657,4844 6590,4534 6590,4324C6590,4216 6600,4192 6638,4205C6663,4212 6670,4238 6670,4324C6670,4419 6696,4583 6731,4720C6755.49,4813.52 6764.38,4852.25 6767.2,4874.84C6771.26,4907.47 6727,4905.09 6712,4892Z" style="fill-rule:nonzero;"/>
        <path d="M5663,4458C5657,4451 5638,4398 5620,4340C5577,4199 5548,4133 5495,4051C5450,3980 5339,3861 5261,3799C5226,3771 5219,3760 5224,3743C5240,3693 5294,3714 5414,3816C5564,3944 5675,4143 5716,4359C5729,4427 5729,4435 5714,4452C5694,4473 5676,4475 5663,4458Z" style="fill-rule:nonzero;"/>
        <path d="M6386,4373C6383,4363 6387,4330 6395,4300C6416,4223 6414,4130 6389,4033C6365,3937 6368,3917 6407,3922C6431,3925 6439,3934 6459,3985C6503,4096 6498,4254 6448,4353C6428,4393 6395,4403 6386,4373Z" style="fill-rule:nonzero;"/>
        <path d="M6836,4062C6832,4051 6843,4015 6861,3975C6926,3832 6952,3657 6929,3515C6911,3399 6912,3359 6932,3346C6960,3329 6980,3358 7001,3446C7047,3637 7010,3906 6922,4035C6890,4081 6846,4095 6836,4062Z" style="fill-rule:nonzero;"/>
    </g>
</svg>
