<?xml version="1.0" encoding="UTF-8" standalone="no"?>
<!DOCTYPE svg PUBLIC "-//W3C//DTD SVG 1.1//EN" "http://www.w3.org/Graphics/SVG/1.1/DTD/svg11.dtd">
<svg width="100%" height="100%" viewBox="0 0 3697 3697" version="1.1" xmlns="http://www.w3.org/2000/svg" xmlns:xlink="http://www.w3.org/1999/xlink" xml:space="preserve" xmlns:serif="http://www.serif.com/" style="fill-rule:evenodd;clip-rule:evenodd;stroke-linejoin:round;stroke-miterlimit:2;">
    <g transform="matrix(0.416699,0,0,-0.416699,-373,4004)">
        <path d="M4805,8286C4701,8273 4622,8253 4546,8220C4521,8210 4464,8196 4419,8190C4257,8168 4193,8130 4096,7997C4022,7896 3977,7858 3913,7841C3882,7833 3869,7823 3862,7802C3857,7787 3834,7751 3811,7721C3713,7591 3694,7424 3761,7289C3771,7268 3815,7213 3859,7166C3920,7100 3941,7071 3946,7042C3959,6965 3971,6930 3997,6899C4027,6864 4081,6837 4104,6846C4118,6851 4119,6831 4114,6654C4107,6421 4100,6388 4023,6257C3906,6056 3900,6040 3815,5710C3807,5680 3800,5642 3800,5625C3800,5599 3794,5606 3757,5674C3648,5878 3467,5978 3224,5968C3132,5964 3117,5960 3046,5925C2957,5881 2912,5834 2867,5742C2808,5617 2821,5487 2901,5396C2946,5345 3032,5300 3085,5300C3118,5300 3122,5297 3144,5246C3157,5216 3203,5140 3245,5076C3337,4938 3369,4864 3406,4710C3477,4408 3494,4349 3532,4261C3587,4136 3657,4032 3747,3943C3874,3817 4028,3753 4179,3763C4221,3766 4267,3771 4282,3775C4306,3781 4310,3779 4316,3754C4322,3730 4318,3723 4284,3696C4145,3586 4069,3443 4054,3263C4036,3045 4144,2768 4322,2574C4343,2551 4360,2530 4360,2528C4360,2525 4335,2519 4304,2515C4097,2489 3967,2380 3953,2218L3947,2160L3102.25,2160C3015.26,2160.09 3018.85,2048.39 3089.6,2048.8C3101.61,2048.87 5056.03,2051.43 5055,2049C5058.88,1970.34 5148.27,1885.12 5215.91,1884.67L5413,1882C5600,1879 5641,1881 5677,1895C5737,1918 5779,1956 5802,2007L5821,2050L6810,2050C7588.56,2050 7768.24,2050.4 7814.94,2050.52C7881.76,2050.7 7876.59,2160.4 7810.4,2160.4C7807.04,2160.4 7759.45,2161.01 7759.45,2161.01C7759.45,2161.01 7745.13,2190.66 7736,2215C7710,2281 7641,2370 7571,2427C7494,2489 7391,2540 7231,2597C7162,2621 7105,2642 7103,2644C7100,2646 7108,2710 7120,2786C7186,3210 7138,3479 6952,3724C6853,3855 6694,4182 6500,4655C6359,4998 6257,5205 6175,5315C6124,5384 6119,5401 6129,5511C6139,5634 6129,5737 6095,5854C6067,5950 6044,6000 5946,6169C5879,6285 5839,6379 5821,6460C5808,6518 5807,6810 5820,6810C5825,6810 5845,6824 5864,6841C5891,6864 5905,6889 5920,6939C5937,6997 5945,7010 5989,7043C6065,7101 6119,7165 6153,7238C6183,7300 6185,7313 6185,7410C6185,7509 6183,7520 6152,7581C6135,7618 6096,7675 6066,7708C6016,7765 6012,7772 6017,7808C6022,7842 6019,7850 5999,7863C5986,7871 5959,7881 5939,7884C5890,7893 5858,7919 5794,8006C5714,8115 5657,8148 5508,8174C5460,8182 5390,8202 5353,8219C5260,8259 5177,8279 5057,8290C4935,8301 4932,8301 4805,8286ZM5122,8175C5169,8167 5240,8146 5281,8129C5363,8094 5443,8070 5475,8070C5511,8070 5610,8041 5636,8022C5649,8013 5689,7966 5725,7918C5790,7832 5830,7798 5883,7785C5898,7781 5910,7771 5910,7763C5910,7740 5937,7696 5985,7639C6062,7550 6084,7498 6085,7410C6085,7291 6058,7248 5898,7105C5848,7062 5839,7047 5824,6992C5804,6922 5790,6909 5743,6922C5657,6945 5619,7109 5651,7325C5667,7440 5666,7597 5647,7661C5626,7730 5555,7888 5533,7912C5508,7940 5466,7935 5451,7904C5441,7880 5445,7866 5489,7771C5555,7631 5564,7592 5556,7472C5536,7150 5537,7075 5558,7003C5582,6924 5627,6856 5671,6832L5702,6815L5697,6680C5690,6470 5661,6394 5532,6247C5454,6159 5444,6140 5425,6048C5403,5946 5379,5905 5273,5784C5137,5630 5103,5573 5068,5437C5052.35,5376.2 5140.28,5338 5160,5392C5216.33,5546.24 5246,5598 5321,5677C5445,5809 5497,5894 5521,6005C5537,6084 5546,6101 5625,6195C5662,6238 5701,6292 5712,6313C5723,6335 5735,6348 5739,6344C5758,6322 5822,6153 5830,6102C5842,6032 5822,5931 5783,5857C5751,5797 5529.9,5589.91 5455.86,5535.95C5410.96,5503.23 5468.45,5449.02 5509.13,5464.4C5552.47,5480.8 5672.56,5574.83 5735,5632C5813,5703 5879,5800 5911,5889L5938,5965L5964,5909C6027,5768 6027,5765 6017,5385C6017,5358 6026,5300 6038,5258C6087,5079 6086,4844 6034,4680C6007,4594 6009,4565 6041,4555C6074,4544 6097,4559 6119,4606C6162,4696 6174,4775 6175,4952L6175,5119L6204,5062C6254,4964 6329,4792 6410,4595C6509,4351 6649,4039 6700,3946C6722,3906 6740,3868 6740,3861C6740,3852 6724,3851 6683,3855C6611,3863 6502,3841 6429,3804C6345,3762 6231,3641 6185,3546C6164,3503 6145,3448 6142,3424C6133.23,3353.8 6204.05,3355.19 6221.07,3383.34C6231.74,3401 6246.72,3427.03 6260,3456C6346,3643 6481,3750 6629,3750C6773,3750 6877,3676 6955,3516C7055,3313 7070,3131 7014,2795C7000,2713 6984,2616 6978,2580C6972,2544 6970,2470 6973,2416L6979,2317L6900,2451C6826.49,2574.59 6781.66,2644.45 6747.02,2672.88C6712.6,2701.13 6648.9,2665.68 6669.81,2624.71C6684.07,2596.77 6716.75,2543.29 6786,2432C6897,2255 6948,2160.8 6948,2160.8C6948,2160.8 6797,2160 6607,2160L6263,2160L6268,2185C6277,2232 6215,2271 6182,2238C6175,2231 6170,2211 6170,2193L6170,2160L6050,2160L6050,2192C6050,2209 6055,2239 6062,2257C6073,2287 6072,2293 6053,2311C6005,2360 5950,2303 5950,2205L5950,2159L5852.6,2160.2L5859,2220C5863,2288 5878,2319 5927,2359C5982,2405 6053,2422 6184,2423C6309,2423 6388,2406 6481,2359C6501.64,2348.8 6519.35,2341.69 6534.14,2336.95C6585.31,2320.58 6622.63,2384.57 6585,2415.02C6577.22,2421.31 6567.9,2429.73 6554,2439C6501,2473 6416,2508 6353,2519C6301,2529 6290,2538 6235,2615C6165,2713 6146,2768 6146,2885C6145,2966 6149,2997 6169,3051C6178.13,3077 6185.97,3102.89 6186.92,3119.28C6190.21,3176.57 6126.61,3170.53 6105.88,3149.81C6052.06,3096.01 6020.18,2886.76 6050,2760C6063,2705 6100,2624 6140,2564L6161,2532L6098,2525C6030,2518 5955,2499 5920,2480C5901,2470 5899,2471 5904,2487C5912,2516 5937,2668 5970,2890C5986,3003 6011,3167 6025,3255C6039,3343 6054,3479 6057,3558C6063,3690 6065,3702 6087,3728C6188,3843 6244,4048 6222,4223C6211,4307 6192,4340 6155,4340C6114,4340 6110,4324 6117,4200C6127,4014 6082,3865 5999,3812L5963,3789L5957,3627C5953,3538 5941,3407 5930,3335C5919,3264 5894,3097 5875,2965C5831,2665 5804,2507 5778,2405C5767,2361 5755,2275 5750,2213C5745,2151 5735,2089 5727,2073C5705,2031 5666,1999 5634,1997L5605,1995L5605,2070C5605,2139 5603,2145 5580,2157C5560,2167 5551,2167 5535,2156C5518,2145 5515,2130 5512,2066L5509,1990L5367,1990L5372,2081C5378,2180 5370,2200 5324,2200C5289,2200 5270,2150 5270,2060C5270,2015.38 5269.66,1990.88 5269.66,1990.88C5269.66,1990.88 5164.8,1980.81 5160,2091C5157.39,2150.94 5181,2189 5252,2260C5311,2318 5318,2330 5324,2375C5344,2543 5354,2815 5354,3265C5355,3836 5353,3856 5284,4001C5227.96,4117.19 5158.56,4230.93 5121.95,4271.28C5085.41,4311.56 5022.78,4263.18 5044.78,4221.86C5057.31,4198.33 5080.76,4149.02 5110,4099C5254,3860 5255,3852 5255,3318C5255,3084 5252,2888 5248,2884C5231,2868 5059,2953 4945,3035C4826,3119 4643,3334 4542,3505C4496,3584 4437,3721 4420,3793C4408,3840 4408,3840 4443,3879C4463,3901 4486,3933 4496,3951L4512,3984L4541,3906C4628,3667 4774,3454 4933,3335C4957.81,3316.21 4978.86,3305.67 4994.74,3297.4C5044.46,3271.51 5095.78,3331.28 5052.24,3370.6C5045.53,3376.66 5036.65,3384.22 5025,3394C4802,3578 4703,3741 4580,4123C4541,4245 4503,4356 4496,4370C4481,4402 4440,4408 4416,4381C4399,4362 4399,4358 4420,4268C4447,4155 4443,4090 4403,4011C4355,3915 4276,3870 4154,3870C3990,3870 3832,3970 3712,4148C3642,4253 3593,4379 3550,4560C3472,4892 3442,4972 3343,5121C3318,5159 3300,5193 3303,5196C3313,5206 3454,5180 3496,5160C3547,5135 3562,5135 3585,5160C3615,5193 3595,5229 3529,5263C3485,5286 3456,5292 3380,5297C3328,5300 3274,5307 3261,5312C3222,5326 3253,5347 3326,5354C3442,5366 3514,5409 3555,5490C3584,5547 3587,5586 3564,5618C3535,5659 3480,5638 3480,5585C3480,5576 3473,5552 3464,5534C3441,5486 3381,5456 3322,5463C3285,5467 3270,5463 3233,5440C3099,5355 2954,5426 2934,5587C2926,5647 2941,5635 2964,5563C2986,5496 3045,5440 3094,5440C3142,5440 3180,5473 3180,5515C3180,5544 3170,5559 3116,5612C3063,5665 3051,5683 3040,5729L3027,5784L3059,5810C3147,5884 3336,5885 3479,5813C3586,5759 3622,5711 3762,5430C3903,5146 4042,4907 4082,4877C4126.2,4843.85 4170.79,4893.93 4155.96,4932.49C4149.3,4949.83 4138.89,4972.26 4120,5000C4061,5087 3903,5366 3889,5407C3882,5430 3880,5473 3885,5537L3892,5633L3940,5541C3967,5491 3998,5437 4010,5422C4046,5376 4159,5264 4185,5250C4219,5232 4258,5245 4266,5277C4272,5301 4265,5311 4202,5369C4075,5487 4005,5609 3979,5755C3957,5881 3983,5980 4079,6144C4111,6199 4147,6263 4158,6285C4176,6320 4179,6323 4186,6305C4214,6230 4324,6103 4434,6019C4640,5861 4713,5762 4740,5607C4748,5564 4748,5526 4741,5482C4723,5369 4692,5319 4505,5100C4403,4981 4361,4864 4360,4695C4360,4596 4367,4580 4410,4580C4451,4580 4460,4598 4460,4675C4460,4770 4483,4869 4520,4938C4537,4970 4587,5036 4631,5085C4676,5135 4725,5193 4740,5215C4868,5402 4882,5593 4784,5798C4754,5859 4728,5893 4656,5965C4606,6015 4529,6084 4484,6118C4352,6219 4268,6344 4234,6487C4221,6542 4219,6586 4224,6724C4230,6882 4232,6894 4255,6924C4314,7001 4315,7009 4315,7335C4315,7634 4315,7635 4341,7701C4368,7772 4401,7830 4451,7896C4487,7944 4484,7974 4443,7993C4419,8004 4414,8001 4376,7959C4275,7847 4213,7692 4203,7528C4200,7475 4203,7362 4210,7278C4221,7141 4221,7118 4206,7068C4183,6989 4158,6960 4110,6960C4076,6960 4071,6964 4061,6991C4055,7009 4050,7032 4050,7044C4050,7100 4026,7143 3951,7224C3908,7271 3862,7329 3850,7354C3823,7410 3821,7488 3844,7558C3868,7630 3940,7725 3991,7750C4050,7781 4113,7842 4175,7931C4255,8045 4296,8069 4454,8090C4498,8097 4561,8113 4595,8127C4734,8186 4949,8205 5122,8175ZM4389,3571C4506,3323 4749,3031 4943,2905C5027,2851 5195,2770 5225,2770C5233,2770 5241,2766 5244,2761C5249,2753 5237,2549 5224,2428C5218,2374 5215,2367 5151,2303L5083,2234L5029,2278C4936,2354 4890,2402 4833,2488C4745,2620 4691,2784 4690,2927C4690,3006 4640,3039 4604,2985C4590,2963 4588,2943 4593,2862C4601,2740 4620,2667 4671,2561C4741,2414 4862,2263 4961,2199C4988,2182 5010,2163.6 5010,2161.6C5010,2159.6 4830,2160 4610,2160L4211,2160L4216,2188C4223,2222 4193,2253 4158,2248C4141,2246 4132,2234 4121,2202C4114.38,2181.03 4110.94,2160.24 4110.94,2160.24L4056.73,2159.1C4056.73,2159.1 4056.54,2186.49 4058,2204C4062,2257 4093,2313 4133,2344C4199,2394 4235,2403 4405,2409C4561,2415 4565,2415 4577,2439C4592,2471 4581,2491 4527,2529C4464,2572 4359,2686 4306,2767C4150,3008 4117,3266 4216,3462C4240,3509 4340,3620 4358,3620C4362,3620 4376,3598 4389,3571ZM7230,2483C7422,2412 7531,2341 7598,2241C7621,2207 7640,2159.4 7640,2159.4C7640,2159.4 7524,2160 7366,2160L7093,2160L7086,2288C7082,2358 7077,2441 7073,2474L7067,2532L7101,2525C7120,2521 7178,2502 7230,2483Z" style="fill-rule:nonzero;"/>
        <path d="M4489,7671C4428,7609 4464,7500 4545,7500C4647,7500 4699,7605 4629,7671C4586,7712 4530,7711 4489,7671Z" style="fill-rule:nonzero;"/>
        <path d="M5174,7681C5132,7656 5114,7603 5130,7556C5164,7451 5330,7476 5330,7587C5330,7634 5308,7668 5264,7686C5221,7704 5211,7704 5174,7681Z" style="fill-rule:nonzero;"/>
        <path d="M4674,7279C4615,7265 4578,7223 4572,7161C4563,7059 4597,6992 4680,6955L4720,6937L4720,6857C4720,6782 4718,6777 4690,6750C4605,6670 4493,6736 4454,6890C4442,6939 4439,6975 4445,7043C4452,7139 4445,7160 4404,7160C4365,7160 4347,7119 4342,7017C4337,6919 4351,6839 4382,6775C4410,6720 4465,6654 4500,6633C4529,6616 4530,6614 4530,6534C4530,6395 4576,6302 4673,6246C4760,6195 4891,6203 4977,6266C5004,6285 5043,6312 5065,6326C5118,6360 5221,6461 5275,6531C5374,6658 5413,6787 5392,6914C5376,7014 5348,7049 5295,7036C5267,7029 5253,7002 5226,6908C5203,6829 5154,6760 5099,6732C4976,6668 4830,6752 4830,6888C4830,6938 4832,6942 4863,6955C4937,6986 4989,7056 4990,7124C4990,7173 4954,7234 4911,7258C4865,7284 4740,7295 4674,7279ZM5271,6719C5248,6667 5202,6602 5141,6534C5106,6495 5099,6490 5104,6510C5108,6524 5117,6554 5123,6578C5131,6612 5143,6628 5174,6650C5197,6665 5230,6698 5249,6724C5268,6749 5285,6768 5287,6766C5289,6765 5281,6743 5271,6719ZM4912,6625C4941,6611 4974,6600 4984,6600C5001,6600 5002,6594 4997,6542C4981,6390 4921,6320 4807,6320C4694,6320 4631,6401 4630,6548L4630,6600L4693,6630C4728,6646 4765,6669 4775,6680C4793,6700 4793,6700 4826,6675C4845,6661 4883,6638 4912,6625Z" style="fill-rule:nonzero;"/>
        <path d="M3204,5789C3176,5758 3178,5641 3209,5582C3248,5506 3322,5480 3387,5520C3450,5558 3444,5618 3370,5673C3337,5698 3312,5727 3297,5758C3271,5813 3237,5825 3204,5789Z" style="fill-rule:nonzero;"/>
    </g>
</svg>
