<?xml version="1.0" encoding="UTF-8" standalone="no"?>
<!DOCTYPE svg PUBLIC "-//W3C//DTD SVG 1.1//EN" "http://www.w3.org/Graphics/SVG/1.1/DTD/svg11.dtd">
<svg width="100%" height="100%" viewBox="0 0 4267 4267" version="1.1" xmlns="http://www.w3.org/2000/svg" xmlns:xlink="http://www.w3.org/1999/xlink" xml:space="preserve" xmlns:serif="http://www.serif.com/" style="fill-rule:evenodd;clip-rule:evenodd;stroke-linejoin:round;stroke-miterlimit:2;">
    <g transform="matrix(0.416699,0,0,-0.416699,0,4267)">
        <path d="M5445,8419C5335,8406 5191,8366 5076,8316C4976,8272 4969,8271 4919,8280C4891,8286 4826,8290 4775,8290C4526,8290 4336,8177 4230,7965C4192,7890 4166,7855 4069,7754C3946,7627 3908,7571 3878,7482C3856,7414 3854,7283 3875,7214C3894,7148 3958,7050 4023,6987C4076,6936 4204,6847 4242,6834C4262,6828 4263,6823 4256,6728C4240,6475 4165,6265 4000,6005C3849,5768 3845,5760 3710,5440C3556,5078 3361,4841 3121,4726C3034,4684 2888,4650 2650,4615C2335,4568 2122,4475 1860,4271C1553,4032 1334,3742 1163,3345C1059,3106 981,2777 980,2579C980,2503 996,2480 1048,2480C1095,2480 1109,2509 1120,2636C1178,3244 1546,3907 1962,4151C2250,4321 2624,4336 2848,4189C3131,4003 3157,3528 2899,3259C2825,3182 2752,3149 2585,3115L2555,3109L2558,3214C2562,3335 2543,3430 2507,3468C2478,3499 2434,3494 2407,3458C2386,3430 2386,3429 2404,3359C2426,3276 2422,3097 2398,3075C2391,3069 2338,3051 2281,3036C2027,2970 1783,2845 1569,2672C1416,2548 1220,2317 1178,2210C1153,2144 1143,2035 1159,1987C1206,1846 1376,1774 1605,1798L1695,1808L1845,1742C1928,1706 2040,1652 2095,1623C2526,1391 2707,1330 2959,1330C3324,1331 3574,1508 3588,1776C3593,1869 3578,1928 3532,1994C3493,2051 3416,2108 3355,2126C3306,2140 3298,2140 3271,2125C3239,2109 3224,2075 3234,2042C3238,2031 3267,2010 3303,1992C3408,1942 3452,1881 3452,1787C3450,1653 3314,1523 3133,1485C3053,1468 2892,1466 2800,1480C2696,1497 2553,1545 2440,1603C2096,1778 1935,1863 1937,1867C1943,1880 2443,2088 2570,2130C2765,2195 2887,2220 3050,2227C3279,2237 3458,2200 3775,2079C4284,1886 4441,1841 4775,1793C4882,1778 5045,1776 6304,1773C7711,1769 7712,1769 7755,1790C7780,1802 7810,1828 7826,1852C7851,1887 7855,1903 7855,1959C7855,2034 7839,2075 7783,2139C7724,2208 7623,2249 7300,2334C6974,2419 6881,2449 6721,2514C6504,2604 6377,2621 6115,2596C5755,2560 5512,2590 5315,2693C5274,2714 5222,2757 5152,2829C5065,2917 5044,2933 5018,2933C4982,2933 4950,2901 4950,2865C4950,2833 4994,2777 5092,2684C5309,2479 5620,2409 6109,2455C6379,2480 6447,2471 6676,2380C6873,2301 6962,2274 7271,2196C7389,2166 7510,2133 7541,2121C7664,2074 7735,2002 7714,1943L7705,1915L6385,1912C5506,1910 5020,1913 4931,1920C4647,1943 4357,2008 4105,2105C3711,2257 3542,2313 3372,2347C3265,2369 2982,2371 2870,2352C2662,2315 2423,2235 2132,2104C1856,1979 1714,1939 1540,1936C1420,1935 1360,1951 1320,1997C1245,2082 1313,2226 1534,2445C1736,2646 1968,2791 2211,2870C2278,2892 2335,2908 2337,2906C2354,2890 2206,2679 2099,2566C1998,2460 2001.8,2417.9 2037,2390C2068.8,2364.8 2104,2370 2178,2443C2281,2544 2384,2689 2452,2828C2486,2898 2514,2956 2514,2957C2515,2958 2569,2970 2635,2985C2786,3019 2844,3041 2921,3092C3117,3223 3246,3544 3212,3818C3168,4181 2927,4396 2527,4428L2435,4436L2505,4453C2544,4462 2653,4481 2748,4495C2843,4509 2964,4532 3018,4545C3136,4575 3293,4651 3376,4719L3438,4769L3443,4637C3448,4486 3463,4421 3520,4305C3593,4155 3714,4034 3865,3961C3909,3939 4019,3898 4110,3870C4325,3801 4412,3764 4514,3696C4662,3597 4801,3422 4852,3269C4877,3193 4904,3160 4940,3160C4971,3160 5010,3197 5010,3227C5010,3258 4977,3347 4932,3435C4836,3628 4682,3779 4482,3879C4393,3924 4334,3946 4170,3997C4013,4045 3892,4099 3818,4155C3723,4225 3629,4372 3594,4501C3570,4594 3572,4754 3599,4856C3620,4934 3733,5180 3748,5180C3752,5180 3764,5151 3774,5115C3804,5011 3882,4863 3957,4770C4093,4602 4259,4493 4560,4375C4908,4239 5137,4099 5296,3925C5564,3633 5673,3288 5630,2869C5618,2748 5618,2739 5635,2720C5669,2683 5731,2699 5748,2750C5768,2807 5783,2985 5777,3105C5760,3479 5616,3808 5356,4066C5178,4243 4977,4363 4640,4495C4323,4619 4170,4720 4049,4882C3939,5031 3890,5172 3890,5345C3890,5519 3931,5641 4052,5826C4209,6065 4261,6165 4319,6335C4359,6457 4384,6561 4396,6663L4403,6720L4435,6692L4467,6665L4462,6498C4458,6352 4460,6321 4479,6237C4514,6085 4576,5973 4692,5854L4742,5803L4721,5736C4670,5572 4671,5337 4723,5185C4825,4888 5036,4690 5365,4587C5740,4469 5780,4452 5897,4358C6010,4268 6109,4111 6149,3958C6160,3916 6174,3872 6180,3861C6195,3831 6251,3829 6283,3857C6306,3879 6305,3922 6275,4024C6214,4234 6084,4413 5907,4528C5817,4587 5732,4621 5519,4685C5177,4788 4998,4917 4894,5135C4842,5244 4826,5319 4826,5455C4825,5603 4851,5736 4878,5724C4921,5706 5008,5679 5042,5674C5096,5665 5127,5676 5145,5710C5167,5753 5148,5791 5100,5803C5004,5827 4930,5851 4925,5860C4919,5870 4979,5957 5037,6023C5092,6085 5074,6150 5002,6150C4961,6150 4916,6110 4854,6020C4828,5981 4803,5950 4799,5950C4768,5950 4646,6145 4621,6235C4604,6294 4591,6458 4598,6507L4605,6550L4635,6529C4652,6518 4692,6495 4725,6477C4780,6448 4814.6,6445 4880,6445C5013,6445 5071,6469 5165,6564C5337,6737 5393,7000 5341,7396C5300,7710 5320,7859 5419,7984C5458,8033 5459,8071 5424,8099C5409,8111 5391,8120 5383,8120C5358,8120 5312,8081 5278,8033C5184,7895 5160,7694 5201,7383C5248,7024 5206,6807 5060,6659C4970,6568 4863,6555 4753,6622C4635,6694 4465,6891 4387,7048C4351,7122 4346,7141 4342,7218C4337,7324 4356,7380 4432,7484C4497,7574 4504,7589 4491,7623C4477,7659 4438,7677 4405,7662C4342,7633 4232,7448 4209,7332C4194,7251 4202,7132 4229,7056C4241,7023 4249,6995 4247,6994C4240,6987 4111,7091 4082,7127C4021,7204 3996,7268 3996,7345C3995,7451 4026,7504 4174,7658C4277,7766 4303,7800 4348,7887C4378,7943 4421,8008 4443,8031C4530,8118 4695,8168 4835,8149C4868,8145 4918,8138 4946,8134C4993,8128 5006,8131 5098,8174C5301,8267 5503,8304 5693,8283C5893,8260 6079,8188 6212,8082C6353,7969 6420,7853 6452,7662C6475,7530 6493,7486 6554,7426C6609,7370 6696,7329 6844,7287C6909,7268 6957,7250 6951,7246C6928,7231 6900,7160 6900,7115C6900,7090 6909,7050 6921,7025C6973,6914 7132,6842 7191,6903C7226,6938 7167,6837 7117,6775C6969,6592 6706,6490 6384,6490C6136,6490 5980,6551 5890,6683C5863,6722 5822,6750 5793,6750C5782,6750 5762,6738 5748,6723C5682,6653 5670,6477 5724,6371C5782,6257 5900,6163 6030,6126C6119,6101 6282,6080 6394,6080L6498,6080L6534,6038C6554,6015 6570,5993 6570,5989C6570,5985 6553,5974 6533,5965C6477,5938 6387,5935 6269,5956C6110,5983 6027,5981 5958,5947C5876,5907 5823,5829 5813,5736C5809,5696 5812,5680 5826,5663C5874,5607 5942,5635 5954,5715C5963,5773 6000,5817 6052,5831C6101,5844 6106,5840 6127,5769C6140,5728 6144,5669 6145,5526C6145.53,5428.56 6146.67,5381.43 6149.31,5355.77C6154.85,5301.86 6262,5305 6280,5368C6300,5441 6292,5673 6264,5800C6254,5848 6277,5805 6305,5725C6344,5612 6398,5509 6513,5325C6720,4996 6799,4795 6829,4518C6851,4315 6836,4140 6766,3814C6695,3486 6678,3365 6678,3200C6678,3086 6683,3038 6699,2977C6737,2833 6828,2691 6937,2608C7072,2505 7202,2454 7523,2380C8093,2249 8433,2164 8500,2138C8641,2083 8703,2001 8654,1932C8639,1910 8638,1910 8332,1910C8159.2,1910 8074.71,1911.32 8027.59,1908.56C7953.94,1904.24 7960.79,1775.53 8022.43,1775L8646.8,1775C8671.05,1775.82 8700.11,1790.2 8721,1805C8841,1890 8841,2064 8721,2173C8631,2254 8498,2298 7990,2415C7312,2571 7252,2587 7115,2658C7030,2703 6926,2804 6883,2887C6788,3065 6789,3284 6886,3714C6965,4063 6989,4286 6970,4494C6944,4788 6866,5019 6702,5285C6537,5554 6507,5605 6476,5677C6420,5805 6419,5795 6499,5814C6569,5829 6640,5860 6671,5886C6685,5898 6694,5897 6736,5878C6807,5846 6901,5847 6960,5880C7048,5929 7085,6032 7056,6148C7037,6226 7015,6262 6931,6359C6886,6410 6870,6435 6880,6438C6928,6454 7074,6536 7121,6573C7262,6685 7414,6970 7415,7125C7415,7171 7409,7194 7392,7223C7352,7286 7296,7311 7055,7375C6868,7424 6735,7469 6689,7498C6631,7535 6606,7585 6586,7708C6547,7939 6428,8118 6230,8246C6015,8385 5715,8451 5445,8419ZM7207,7189C7246,7176 7280,7137 7280,7102L7280,7077L7259,7104C7220,7154 7124,7129 7099,7062L7089,7036L7063,7063C7026,7099 7027,7155 7065,7188C7094,7213 7129,7213 7207,7189ZM5950,6442C6040,6393 6137,6363 6228,6354C6288,6348 6298,6343 6328,6311C6347,6291 6371,6262 6383,6246L6404,6217L6312,6223C6112,6237 5972,6285 5904,6363C5865,6408 5831,6473 5830,6504C5830,6523 5831,6523 5853,6503C5865,6491 5909,6464 5950,6442ZM6796,6298C6891,6200 6918,6158 6925,6099C6940,5982 6838,5955 6730,6047C6661,6106 6476,6344 6496,6348C6526,6355 6675,6377 6696,6379C6710,6380 6743,6353 6796,6298Z" style="fill-rule:nonzero;"/>
        <path d="M5923,7680C5905,7669 5878,7642 5863,7619C5847,7596 5811,7554 5783,7525C5725,7468 5725,7468 5741,7438C5751,7420 5758,7419 5814,7424C5865,7430 5890,7427 5958,7405C6055,7375 6086,7376 6111,7410C6128,7433 6129,7440 6115,7505C6094,7604 6082,7636 6053,7670C6023,7706 5972,7710 5923,7680Z" style="fill-rule:nonzero;"/>
        <path d="M5425,6456C5402,6422 5390,6326 5390,6179C5390,5986 5423,5843 5507,5675C5589,5512 5676,5409 5914,5189C6293,4838 6447,4596 6506,4260C6528,4133 6521,3894 6491,3762C6448,3567 6356,3338 6234,3124C6188,3042 6156,2993 6043,2834C6003,2778 6001,2748 6037,2720C6092,2677 6134,2709 6246,2876C6434,3159 6574,3473 6632,3740C6657,3859 6667,4110 6651,4232C6608,4554 6451,4857 6191,5120C6138,5173 6026,5281 5941,5361C5769,5521 5690,5619 5625,5754C5546,5916 5536,5971 5535,6233C5535,6483 5536,6480 5473,6480C5450,6480 5436,6473 5425,6456Z" style="fill-rule:nonzero;"/>
        <path d="M3580,2853C3495,2844 3326,2808 3239,2779C3125,2742 2919,2642 2868,2600C2824,2564 2818,2522 2850,2490C2876,2464 2898,2465 2951,2495C3140,2601 3272,2654 3441,2692C3531,2712 3571,2715 3745,2715C3914,2714 3961,2711 4047,2692C4308,2635 4532,2532 4735,2375C4779,2341 4886,2240 4971,2151C5055.58,2062.94 5097.5,2024.97 5120,2004.72C5174.13,1956 5241.3,2049.16 5215,2085C5177.05,2136.71 5011,2327 4915,2412C4655,2643 4314,2800 3970,2846C3875,2858 3667,2862 3580,2853Z" style="fill-rule:nonzero;"/>
    </g>
</svg>
