<?xml version="1.0" encoding="UTF-8" standalone="no"?>
<!DOCTYPE svg PUBLIC "-//W3C//DTD SVG 1.1//EN" "http://www.w3.org/Graphics/SVG/1.1/DTD/svg11.dtd">
<svg width="100%" height="100%" viewBox="0 0 4112 4112" version="1.1" xmlns="http://www.w3.org/2000/svg" xmlns:xlink="http://www.w3.org/1999/xlink" xml:space="preserve" xmlns:serif="http://www.serif.com/" style="fill-rule:evenodd;clip-rule:evenodd;stroke-linejoin:round;stroke-miterlimit:2;">
    <g transform="matrix(0.416616,0,0,-0.416616,-154.148,4112)">
        <path d="M5265,6229C5238,6225 5150,6216 5070,6210C4692,6181 4517,6101 4426,5914C4399,5858 4370,5749 4370,5697C4370,5680 4354,5650 4327,5617C4278,5557 4239,5473 4232,5413C4227,5370 4227,5370 4186,5370C4069,5370 3984,5304 3965,5198C3961,5177 3957,5160 3955,5160C3954,5160 3939,5167 3924,5175C3873,5201 3781,5191 3758,5156C3753,5150 3762,5136 3777,5123C3808,5098 3808,5098 3756,5079C3709,5062 3701,5047 3733,5033C3801,5002 3853,4929 3866,4848L3873,4805L3887,4839C3909,4892 3914,4988 3896,5043C3882,5091 3882,5092 3901,5074C3931,5047 3978,4942 3991,4873C3997,4838 4006,4810 4011,4810C4015,4810 4029,4831 4041,4858C4060,4901 4062,4916 4056,5035C4051,5147 4053,5171 4068,5200C4088,5241 4140,5270 4192,5270C4227,5270 4230,5268 4240,5228C4267,5117 4274,5100 4291,5084C4308,5069 4311,5068 4335,5084C4365,5104 4367,5134 4344,5246C4324,5340 4329,5417 4360,5488C4386,5549 4433,5593 4510,5629C4560,5653 4576,5655 4690,5655C4806,5655 4933,5645 5155,5619C5322,5600 5312,5603 5304,5567C5293,5514 5272,5482 5227,5451C5161,5406 5076,5381 4972,5377C4922,5376 4878,5371 4874,5367C4862,5355 4901,5309 4935,5294C5029,5255 5221,5305 5330,5396C5367,5428 5399,5491 5400,5535L5401,5565L5416,5536C5432,5508 5431,5431 5416,5384C5411,5370 5414,5357 5424,5347C5438,5333 5446,5333 5497,5346C5529,5354 5590,5365 5633,5372C5707,5384 5715,5383 5778,5361C5867,5329 5973,5276 5991,5254C6001,5240 5997,5241 5973,5258C5886,5319 5755,5353 5695,5330L5665,5319L5756,5271C5871,5212 5944,5156 6028,5063C6064,5023 6097,4990 6101,4990C6112,4990 6094,5109 6074,5166C6064,5194 6142,5083 6174,5024C6189,4996 6227,4944 6257,4909L6313,4845L6306,4920C6303,4961 6295,5048 6290,5113C6283,5193 6274,5246 6260,5277C6241,5321 6238,5323 6223,5307C6213,5297 6203,5267 6200,5238L6195,5186L6166,5229C6130,5280 6035,5354 5957,5390C5899,5416 5899,5416 5925,5428C5945,5437 5951,5446 5948,5467C5944,5504 5919,5517 5878,5503C5860,5496 5809,5491 5765,5490C5721,5490 5668,5486 5647,5481L5609,5472L5649,5509C5692,5549 5696,5562 5680,5605C5671,5630 5669,5630 5636,5616C5605,5603 5600,5603 5589,5617C5574,5634 5500,5672 5450,5688C5431,5695 5359,5704 5290,5709C5140,5720 5075,5742 4984,5811C4915,5863 4877,5872 4860,5841C4845,5812 4847,5805 4883,5770C4906,5746 4909,5739 4895,5745C4884,5749 4820,5755 4753,5758C4631,5763 4519,5750 4493,5728C4473,5712 4477,5738 4506,5831C4527,5896 4540,5920 4574,5954C4664,6041 4795,6082 5055,6106C5149,6114 5252,6125 5285,6130C5318,6136 5373,6140 5407,6140C5463,6140 5470,6137 5494,6109C5531,6065 5529,6016 5488,5954C5470,5927 5439,5897 5420,5886C5380,5863 5381,5864 5446,5943C5487,5993 5496,6025 5475,6057C5450,6095 5411,6085 5382,6033C5350,5975 5280,5907 5225,5880C5186,5861 5170,5859 5110,5865C5041,5872 5040,5872 5040,5848C5040,5786 5164,5739 5247,5771C5262,5776 5292,5793 5313,5807C5333,5821 5351,5831 5353,5829C5354,5827 5360,5816 5366,5805C5399,5745 5518,5812 5586,5928C5636,6013 5639,6080 5598,6150C5558,6220 5512,6240 5404,6239C5355,6238 5293,6234 5265,6229Z" style="fill-rule:nonzero;"/>
        <path d="M7580,6088C7448,6039 7401,5794 7485,5588C7499,5554 7550,5468 7598,5398C7646,5328 7704,5243 7728,5208C7800,5102 7780,5053 7658,5031C7603,5022 7595,5022 7586,5037C7570,5067 7497,5141 7425,5203C7321,5292 7251,5359 7208,5413C7172,5459 7170,5465 7170,5534C7170,5628 7149,5688 7093,5750C7040,5809 6989,5838 6923,5847C6896,5850 6863,5859 6848,5866C6810,5885 6750,5883 6717,5862C6646,5814 6614,5725 6622,5594C6632,5443 6687,5342 6842,5188C6937,5093 6939,5090 6912,5085C6828,5068 6778,5054 6718,5029C6651,5002 6545,4936 6521,4906C6500,4881 6494,4886 6480,4938C6449,5051 6368,5192 6346,5170C6323,5147 6334,5039 6374,4912L6412,4789L6382,4722C6310,4562 6311,4401 6387,4240C6415,4183 6442,4146 6507,4082C6578,4010 6598,3983 6635,3904C6686,3795 6739,3723 6841,3624C6925,3543 6952,3530 6981,3556C7014,3586 7005,3614 6940,3672C6851,3752 6782,3844 6729,3954C6689,4037 6668,4067 6595,4141C6496,4243 6457,4315 6439,4428C6417,4572 6461,4701 6565,4805C6683,4922 6815,4978 6990,4987C7076,4991 7131,4986 7292,4961C7403,4943 7527,4930 7577,4930C7829,4930 7938,5048 7845,5219C7831,5244 7781,5319 7734,5385C7623,5540 7594,5590 7569,5673C7542,5759 7545,5904 7575,5960L7593,5995L7602,5968C7614,5933 7635,5933.2 7673,5952.2C7689,5960.2 7711.4,5972 7718.4,5972C7741.4,5972 7778,5888 7804,5797C7818,5748 7822.4,5701.6 7836,5699C7877.26,5691.11 7888,5761.01 7903,5782.01C7916,5800.01 7917,5800.01 7928,5768.01C7943,5727.01 7963,5646 7998,5663C8037,5681 8056,5747 8040,5804C8029,5845 7978.6,5890.2 7945.6,5911.2C7937.6,5916.2 7935,5946 7923,5972C7889,6044 7836,6075 7741,6077C7699,6077 7651,6082 7635,6088C7616,6094 7595,6094 7580,6088ZM6792,5768C6795,5746 6800,5745 6875,5745C6951,5745 6957,5743 6998,5711C7052,5667 7053,5651 6998,5687C6964,5710 6945,5715 6898,5715C6811,5714 6808,5700 6885,5650C6963,5599 6999,5558 7071,5435C7128,5337 7213,5246 7363,5121C7412,5081 7450,5046 7448,5045C7444,5041 7123,5088 7099,5095C7090,5098 7020,5162 6943,5238C6827,5351 6797,5387 6771,5440C6736,5514 6719,5611 6729,5686C6740,5764 6784,5822 6792,5768Z" style="fill-rule:nonzero;"/>
        <path d="M8044,5555C8006,5496 8047,5401 8201,5192C8325,5024 8350,4978 8350,4920C8350,4814 8277,4764 7910,4618C7697,4533 7668,4518 7641,4484C7615,4451 7614,4434 7638,4421C7651,4414 7674,4420 7724,4442C7780,4466 7811,4473 7891,4477C7946,4480 7990,4480 7990,4476C7990,4472 7978,4458 7963,4444L7935,4419L8017,4424C8107,4431 8124,4423 8085,4391L8059,4371L8084,4354C8106,4340 8117,4339 8154,4349C8179,4355 8208,4360 8220,4360L8241,4360L8219,4329C8197,4298 8197,4297 8215,4284C8240,4265 8256,4266 8307,4291C8351,4312 8410,4374 8410,4398C8410,4405 8415,4408 8421,4404C8441,4392 8424,4289 8386,4198C8344,4097 8338,4024 8368,3997C8378,3987 8392,3980 8398,3980C8416,3980 8447,4027 8454,4065C8462,4105 8474,4110 8491,4078C8516,4032 8475,3814 8419,3695C8392,3638 8299,3548 8231,3512C8134,3461 7997,3411 7833,3367L7675,3325L7320,3325C6990,3326 6957,3327 6850,3349C6772,3364 6684,3373 6575,3377C6427,3382 6402,3380 6240,3351L6064,3320L5630,3321C5391,3321 5202,3324 5210,3327C5243,3339 5249,3351 5238,3376C5221,3412 5201,3413 5093,3386C4838,3322 4872,3325 4290,3325C3790,3325 3752,3326 3705,3344C3632,3371 3595,3403 3542,3483C3494,3556 3471,3571 3445,3550C3410,3521 3440,3420 3504,3351L3535,3318L3405,3323C3312,3327 3227,3339 3105,3364C2880,3412 2894,3406 2929,3436C2990,3487 3009,3585 2969,3649C2948,3683 2831,3800 2818,3800C2813,3800 2810,3812 2810,3828C2809,3875 2774,3937 2729,3969C2656,4023 2544,4044 2461,4020C2442,4015 2422,4014 2416,4019C2393,4037 2304,4060 2258,4060C2185,4060 2085,4023 2050,3983C2015,3943 2014,3939 2040,3915C2059,3898 2062,3898 2119,3924C2151,3938 2200,3952 2226,3955C2263,3959 2269,3958 2253,3951C2161,3910 2127,3863 2171,3840C2187,3831 2214,3837 2313,3871C2408,3903 2454,3914 2520,3917C2598,3921 2608,3919 2645,3896L2685,3871L2642,3870L2599,3870L2726,3748C2873,3604 2894,3578 2886,3546C2875,3502 2618,3355 2500,3324C2373,3292 2261,3329 2188,3427C2167,3456 2143,3480 2135,3480C2113,3480 2100,3446 2100,3388C2100,3337 2100,3336 2084,3359C2075,3372 2060,3408 2051,3439C2039,3479 2027,3499 2010,3507C1981,3522 1970,3513 1961,3468L1954,3435L1922,3490C1855,3605 1814,3795 1803,4036C1795,4213 1816,4292 1900,4415C1968,4513 2025,4553 2170,4602C2272,4636 2349,4686 2393,4749C2446,4823 2465,4876 2505,5060C2519,5123 2537,5200 2546,5230L2562,5285L2575,5254C2583,5234 2599,5219 2620,5211C2646,5202 2650,5197 2641,5186C2634,5178 2619,5169 2606,5166C2555,5153 2568,5080 2621,5080C2690,5080 2764,5143 2790,5224L2802,5262L2849,5256C2910,5248 2939,5225 2973,5160C3015,5076 3032,4976 3033,4800L3035,4645L3000,4575L2966,4505L2960,4570C2954,4644 2947,4660 2920,4660C2890,4660 2870,4610 2870,4533C2870,4451 2883,4399 2910,4375C2940,4348 2969,4366 3033,4452C3113,4558 3132,4603 3138,4688C3143,4767 3124,5020 3110,5071C3098,5112 3103,5117 3124,5086C3147,5049 3158,4992 3171,4828C3184,4665 3179,4614 3134,4514C3104,4445 3103,4405 3131,4389C3149,4380 3156,4382 3181,4406C3197,4421 3220,4459 3232,4490L3254,4547L3339,4553C3473,4562 3563,4600 3629,4676C3673,4725 3699,4785 3700,4835C3701,4872 3702,4874 3715,4856C3736,4828 3744,4755 3733,4683C3728,4648 3725,4620 3725,4620C3734,4620 3810,4744 3820,4773C3843,4845 3810,4947 3755,4972C3716,4989 3648,4965 3589,4913C3532,4861 3526,4840 3570,4840C3611,4840 3610,4814 3567,4758C3523,4701 3445,4661 3359,4653L3293,4647L3287,4716C3283,4754 3275,4841 3269,4910C3261,5015 3254,5045 3229,5097C3192,5175 3118,5243 3013,5298C2932,5340 2818,5367 2778,5354C2765,5350 2751,5355 2737,5368C2674,5425 2602,5445 2553,5417C2493,5384 2456,5299 2399,5063C2336,4798 2302,4753 2115,4690C2013,4655 1955,4623 1901,4572C1760,4436 1698,4287 1697,4085C1696,3969 1720,3760 1747,3650C1766,3569 1826,3439 1871,3380C1890,3355 1909,3331 1912,3325C1916,3318 1721,3316 1333,3318C818,3320 744,3319 724,3305C698,3288 692,3252 712,3232C721,3223 903,3220 1468,3220L2212,3220L2207,3241C2203,3257 2205,3260 2218,3254C2303,3218 2178,3219 6113,3220C8880,3220 9917,3223 9927,3231C9947,3248 9942,3287 9918,3304C9902,3315 9872,3320 9814,3320L9733,3320L9714,3363C9704,3386 9669,3433 9636,3468L9576,3531L9615,3515C9664,3494 9700,3502 9700,3534C9700,3587 9615,3643 9513,3657C9486,3660 9451,3674 9433,3688C9415,3701 9375,3722 9345,3735L9289,3757L9327,3764C9348,3767 9393,3770 9428,3770C9491,3770 9491,3770 9488,3798C9481,3858 9361,3878 9238,3840C9203,3829 9145,3816 9110,3811C9006,3796 8969,3771 8986,3726C8993,3708 9001,3707 9080,3709C9142,3712 9206,3699 9265,3674L9305,3657L9270,3648C9212,3632 9215,3624 9287,3606C9396,3579 9530,3508 9530,3478C9530,3473 9526,3472 9520,3475C9515,3478 9501,3476 9490,3470C9471,3460 9474,3456 9527,3411C9559,3385 9594,3353 9604,3341L9623,3320L9329,3320C9083,3320 9015,3323 8915,3340C8761,3365 8628,3365 8486,3340C8395,3323 8339,3320 8194,3322C8018,3325 8016,3325 8075,3339C8108,3346 8184,3377 8244,3408C8358,3466 8382,3486 8576,3690C8714,3835 8790,3867 9022,3877C9148,3882 9161,3885 9180,3905L9202,3928L9182,3948C9158,3972 9101,3990 9050,3990C9031,3990 8960,3981 8893,3970C8749,3947 8682,3918 8611,3850C8583,3823 8560,3802 8560,3803C8560,3804 8570,3830 8582,3860C8613,3939 8613,4078 8583,4136C8571,4158 8555,4182 8547,4188C8535,4198 8538,4205 8565,4235C8605,4276 8625,4350 8615,4418C8603,4508 8577,4510 8544,4424C8535,4400 8524,4380 8520,4380C8516,4380 8508,4398 8501,4420C8488,4465 8422,4540 8397,4540C8387,4540 8368,4517 8350,4480C8330,4440 8314,4420 8302,4420C8270,4420 8271,4430 8303,4482C8328,4523 8335,4544 8335,4586C8335,4615 8332,4641 8329,4644C8316,4657 8290,4636 8259,4589C8239,4558 8221,4540 8208,4540C8175,4540 8100,4562 8105,4570C8108,4575 8160,4607 8222,4641C8352,4714 8391,4746 8428,4809C8450,4847 8455,4867 8455,4925C8455,5012 8430,5066 8333,5193C8210,5354 8160,5433 8144,5490C8124,5564 8117,5574 8087,5578C8068,5580 8057,5574 8044,5555ZM2830,3325C2830,3322 2813,3320 2793,3320C2758,3321 2756,3322 2774,3335C2787,3345 2798,3346 2811,3339C2822,3334 2830,3327 2830,3325Z" style="fill-rule:nonzero;"/>
        <path d="M4593,5438C4541,5371 4609,5221 4739,5113C4884,4993 5038,4934 5190,4942C5297,4947 5340,4967 5340,5010C5340,5050 5306,5067 5259,5051C5220,5038 5130,5037 5110,5050C5099,5057 5103,5060 5127,5060C5172,5060 5215,5099 5207,5131C5201,5154 5193,5158 5127,5168C5036,5182 4980,5205 4883,5270C4801,5326 4777,5330 4772,5287C4769,5266 4779,5249 4822,5207C4851,5179 4901,5142 4933,5127C4991,5099 5010,5083 4966,5100C4864,5138 4762,5216 4714,5292C4701,5312 4685,5351 4680,5377C4674,5403 4664,5430 4658,5437C4645,5454 4605,5454 4593,5438Z" style="fill-rule:nonzero;"/>
        <path d="M5575,4950C5535,4927 5462,4900 5405,4885C5266,4849 5274,4852 5291,4834C5306,4820 5393,4802 5540,4782C5587,4776 5599,4771 5585,4766C5526,4744 5490,4726 5490,4721C5491,4691 5531,4675 5630,4666C5671,4662 5732,4652 5765,4644C5847,4625 5860,4626 5860,4651C5860,4684 5799,4738 5746,4752L5699,4764L5740,4775C5763,4780 5782,4789 5783,4794C5784,4799 5769,4816 5749,4832C5722,4854 5698,4863 5655,4867L5598,4873L5629,4897C5653,4916 5660,4929 5660,4956C5660,4975 5657,4990 5653,4989C5648,4989 5613,4971 5575,4950Z" style="fill-rule:nonzero;"/>
        <path d="M4422,4928C4358,4864 4556,4556 4720,4463C4801,4417 4845,4407 4871,4429C4908,4459 4891,4491 4817,4528C4697,4589 4603,4690 4529,4841C4506,4887 4483,4928 4476,4932C4459,4943 4435,4941 4422,4928Z" style="fill-rule:nonzero;"/>
        <path d="M5653,4603C5644,4600 5640,4576 5640,4532C5640,4411 5589,4302 5496,4224C5444,4181 5434,4160 5450,4130C5457,4116 5471,4110 5494,4110C5523,4110 5538,4121 5603,4190C5666,4257 5684,4284 5709,4350C5726,4394 5740,4436 5740,4444C5740,4479 5752,4490 5791,4490C5840,4490 5842,4510 5798,4550C5745,4599 5690,4619 5653,4603Z" style="fill-rule:nonzero;"/>
        <path d="M2295,4560C2248,4550 2191,4519 2175,4496C2155,4469 2156,4397 2177,4357C2201,4309 2270,4220 2286,4213C2314,4202 2340,4240 2340,4291C2340,4330 2345,4344 2370,4368C2387,4385 2400,4409 2400,4423C2400,4455 2364,4500 2338,4500C2318,4500 2318,4501 2333,4518C2365,4553 2348,4572 2295,4560ZM2280,4405C2280,4391 2276,4380 2270,4380C2259,4380 2256,4413 2267,4423C2278,4434 2280,4431 2280,4405Z" style="fill-rule:nonzero;"/>
        <path d="M3530,4360C3392,4220 3329,4056 3344,3882C3356,3751 3391,3676 3438,3682C3481,3687 3486,3711 3465,3792C3432,3916 3445,4053 3502,4164C3513,4186 3560,4244 3606,4291C3670,4357 3688,4383 3683,4397C3659,4465 3625,4456 3530,4360Z" style="fill-rule:nonzero;"/>
    </g>
</svg>
