<?xml version="1.0" encoding="UTF-8" standalone="no"?>
<!DOCTYPE svg PUBLIC "-//W3C//DTD SVG 1.1//EN" "http://www.w3.org/Graphics/SVG/1.1/DTD/svg11.dtd">
<svg width="100%" height="100%" viewBox="0 0 4267 4267" version="1.1" xmlns="http://www.w3.org/2000/svg" xmlns:xlink="http://www.w3.org/1999/xlink" xml:space="preserve" xmlns:serif="http://www.serif.com/" style="fill-rule:evenodd;clip-rule:evenodd;stroke-linejoin:round;stroke-miterlimit:2;">
    <g transform="matrix(0.416699,0,0,-0.416699,0,4267)">
        <path d="M6993,8359C6953,8354 6892,8344 6856,8336C6799,8322 6784,8322 6718,8336C6665,8348 6617,8350 6545,8346C6309,8332 6095,8246 5927,8100C5814.61,8002.32 5530.6,7819.74 5430,7789C5394,7778 5329,7762 5285,7755C5199,7739 5160,7712 5160,7667C5160,7577 5366,7456 5561,7430C5653,7418 5785,7429 5846,7455C5909,7481 5928,7544 5888,7595C5868,7620 5863,7622 5811,7616C5667,7601 5593,7600 5540,7613L5485,7626L5540,7644C5636,7677 5737,7731 5809,7790L5879,7847L5951,7848C6039,7850 6126,7873 6140,7900C6157,7931 6152,7982 6129,8006L6108,8029L6179,8065C6377,8164 6544,8192 6720,8154C6794,8138 6799,8138 6891,8160C7029,8193 7224,8198 7350,8172C7556,8129 7637,8059 7700,7867C7728,7781 7736,7776 7947,7707C8096,7659 8109,7653 8102,7635C8098,7624 8095,7583 8095,7544C8095,7482 8099,7468 8124,7432C8162,7376 8195,7356 8259,7350L8313,7345L8273,7294C8172,7168 7979,7104 7772,7128C7651,7142 7547,7175 7404,7245C7342,7275 7281,7300 7267,7300C7254,7300 7231,7291 7216,7279C7166,7240 7185,7162 7269,7057C7341,6965 7430,6895 7570,6818C7634,6782 7699,6726 7688,6715C7673,6700 7413,6802 7257,6884C7093,6969 7051,6946 7005,6744C6973,6605 6973,6559 7003,6525C7035,6488 7091,6486 7126,6522C7147,6543 7154,6562 7162,6631C7167,6677 7173,6716 7174,6717C7176,6719 7235,6693 7306,6661C7520,6564 7712,6511 7916,6494C8200,6470 8339,6702 8181,6936L8141,6995L8192,7017C8262,7049 8362,7122 8403,7173C8489,7277 8530,7406 8530,7572C8530,7666 8529,7669 8501,7693C8482,7708 8368,7752 8175,7816L7877,7915L7863,7950C7789,8126 7708,8222 7580,8282C7423,8357 7211,8384 6993,8359ZM8353,7571C8362,7562 8322,7524 8294,7516C8268,7508 8261,7522 8267,7566C8272,7597 8273,7598 8308,7588C8329,7583 8348,7575 8353,7571ZM7972,6913C8084,6812 8103,6701 8013,6670C7966,6653 7934,6672 7892,6741C7872,6775 7829,6836 7797,6876L7740,6950L7930,6950L7972,6913Z" style="fill-rule:nonzero;"/>
        <path d="M6688,7940C6651,7912 6636,7873 6591,7695C6568,7607 6536,7507 6520,7473C6480,7393 6410,7315 6346,7283C6279,7249 6163,7241 6073,7264C6039,7273 5944,7287 5863,7294C5699,7310 5673,7306 5656,7259C5635,7198 5684,7142 5766,7132C5791,7130 5813,7124 5815,7120C5822,7109 5700,6998 5628,6949C5555,6900 5550,6894 5550,6857C5550,6792 5589,6770 5706,6770C5747,6770 5780,6766 5780,6762C5780,6750 5724,6664 5672,6595C5612,6516 5402,6302 5319,6235C5152,6101 4984,6008 4795,5947C4655,5902 4552,5882 4145,5824C3832,5779 3804,5777 3595,5777C3412,5777 3353,5781 3245,5799C2927,5854 2708,5973 2527,6192C2437,6301 2395,6393 2345,6595C2293,6801 2271,6861 2222,6931C2091,7118 1873,7127 1707,6951C1595,6832 1541,6682 1539,6486C1537.99,6387.02 1558.57,6258.38 1566.11,6189.02C1570.32,6150.32 1559.38,6138.34 1544.8,6140.32C1531.27,6142.16 1484.91,6148.35 1456,6124C1399,6076 1397,6050 1441,5923C1502,5749 1590,5612 1722,5484C1794,5413 1795,5412 1770,5403C1736,5390 1716,5350 1724,5308C1733,5262 1807,5172 1895,5101C2153,4893 2513,4876 2716,5062C2819,5156 2846,5237 2789,5284C2739,5326 2716,5319 2638,5239C2593,5193 2548,5159 2512,5142C2461,5118 2444,5115 2350,5116C2269,5117 2231,5122 2185,5139C2130,5159 2014,5227 2022,5235C2023,5237 2045,5234 2070,5230C2178,5209 2276,5225 2299,5268C2328,5323 2294,5373 2212,5396C1984,5458 1773,5636 1661,5857C1644,5891 1630,5922 1630,5926C1630,5929 1645,5923 1663,5912C1733,5868 1801,5877 1828,5933C1841,5959 1838,5968 1800,6047C1738,6176 1717,6277 1716,6445C1716,6552 1720,6599 1734,6645C1771,6768 1828,6846 1905,6881C1958,6906 1990,6905 2030,6878C2084,6840 2116,6768 2169,6562C2242,6281 2309,6152 2465,5995C2570,5889 2662,5822 2785,5761C2924,5692 3042,5654 3200,5630C3404,5598 3390,5602 3350,5577C3243,5512 3125,5429 3051,5366C2958,5288 2638,4945 2554,4835C2412,4647 2318,4406 2288,4151C2283.8,4112.57 2279.72,3925.84 2260.86,3801.36C2248.31,3718.55 2246.75,3637.88 2122.14,3545.13C2069.89,3506.23 2003.22,3461.89 1885,3404C1791,3358 1705,3310 1693,3298C1633,3231 1404,2731 1369,2590C1361,2557 1355,2486 1356,2415C1357,2274 1372,2208 1436,2074C1460,2024 1480,1981 1480,1977C1480,1973 1360.29,1969.71 1351.95,1969.61C1248.28,1968.28 1237.99,1800 1339,1800L6934.24,1800C7027.72,1800.15 7030.27,1967.23 6942,1970L4192,1970L4186,2015C4182,2040 4161,2095 4139,2139C4075,2267 3964,2352 3841,2367C3800,2372 3790,2376 3790,2392C3790,2424 3839,2612 3858,2649C3883,2700 3974,2757 4280,2915C4577,3068 4635,3101 4735,3176C4909,3304 5043,3465 5150,3672C5204,3775 5214,3790 5232,3784C5306,3761 5449,3740 5540,3740L5645,3740L5660,3708C5689,3647 5719,3635 5838,3636C5952,3638 6055,3657 6222,3709C6339,3745 6456,3770 6507,3770L6545,3770L6485,3732C6409,3683 6314,3582 6273,3504C6170,3311 6260,3231 6595,3214C6874,3200 7176,3260 7395,3373C7544,3450 7667,3598 7699,3739C7704,3762 7711,3784 7714,3787C7717,3790 7765,3781 7822,3766C7879,3752 7957,3735 7996,3729L8067,3717L8098,3574C8175,3235 8250,3064 8389,2916C8621,2670 8922,2670 8996,2916C9026,3017 9017,3062 8891,3403C8841,3536 8770,3733 8732,3841C8693,3949 8652,4057 8640,4081C8580,4199 8509,4274 8241,4505C8010,4703 7879,4858 7794,5032L7767,5088L7798,5217C7897,5614 7890,5979 7778,6329C7739,6452 7726,6477 7687,6500C7645,6526 7606,6525 7580,6498C7552,6468 7555,6428 7590,6333C7703,6022 7722,5643 7640,5305C7611,5186 7555,5012 7518,4925C7483,4844 7370,4637 7364,4643C7361,4645 7364,4668 7370,4693C7400,4831 7390,5047 7344,5208C7299,5369 7188,5559 7125,5586C7079,5605 7033,5588 7015,5547C6999,5508 7008,5477 7054,5413C7105,5342 7154,5230 7181,5125C7219,4972 7208,4722 7155,4542C7146,4513 7138,4490 7137,4490C7135,4490 7096,4505 7049,4523C7003,4542 6944,4565 6918,4574C6891,4584 6870,4596 6870,4600C6870,4605 6884,4631 6900,4657C6967,4762 6995,4952 6956,5028C6947,5045 6938,5060 6937,5060C6936,5060 6921,5064 6904,5069C6860,5081 6814,5058 6801,5016C6796,4999 6791,4957 6792,4923C6792,4889 6787,4844 6780,4823C6766,4778 6690,4660 6675,4660C6669,4660 6636,4669 6602,4681C6521,4708 6477,4701 6449,4657C6427,4620 6431,4587 6462,4553C6475,4539 6548,4510 6669,4470C7055,4342 7352,4207 7440,4119C7529,4030 7561,3891 7521,3761C7502,3699 7490,3680 7436,3625C7332,3519 7143,3441 6907,3406C6751,3382 6459,3387 6433,3414C6424,3422 6472,3491 6517,3534C6568,3583 6699,3647 6785,3665C6824,3673 6899,3680 6953,3680C7048,3680 7052,3681 7081,3709C7141,3769 7109,3826 6998,3858C6758,3929 6670,3945 6530,3944C6386,3943 6386,3943 6093,3857C6025,3837 5940,3818 5903,3814L5835,3807L5885,3850C5955,3911 6036,3996 6082,4056C6126,4115 6135,4167 6106,4199C6073,4235 6038,4234 5962,4195C5893,4160 5740,4127 5724,4143C5720,4146 5733,4167 5752,4188C5917,4371 6050,4725 6050,4984C6050,5124 6033,5225 6003,5261C5955,5318 5860,5287 5859,5214C5859,5198 5861,5122 5865,5045C5873,4900 5862,4793 5837,4778C5804,4757 5703,4745 5570,4746C5403,4746 5325,4763 5180,4830C5079,4877 5058,4879 5025,4845C4988,4809 4991,4757 5033,4716C5072,4677 5189,4627 5319,4593C5431,4565 5634,4552 5720,4568C5750,4574 5777,4577 5778,4575C5785,4568 5718,4445 5665,4365C5635,4321 5576,4247 5533,4201C5462,4124 5456,4113 5456,4076C5458,4004 5524,3970 5672,3967L5752,3965L5703,3943C5663,3924 5638,3920 5550,3920C5492,3920 5416,3925 5380,3930C5287,3945 5127,3996 5045,4037C4898,4111 4842,4160 4520,4493C4403,4614 4392,4622 4343,4622C4296,4622 4260,4588 4260,4542C4260,4513 4273,4495 4347,4417C4394,4366 4442,4317 4453,4307C4480,4283 4471,4278 4424,4292C4401,4299 4316,4304 4220,4305C4084,4305 4045,4302 4000,4286C3912,4256 3887,4236 3809,4132C3559,3799 3238,3568 2765,3380C2365,3220 2188,3090 2040,2846C1983,2751 1768,2322 1751,2269C1738,2230 1747,2193 1774,2171C1793,2155 1847,2161 1905,2183C1955,2203 2040,2204 2083,2186C2101,2179 2128,2160 2144,2144C2176,2112 2234,1994 2225,1980C2221,1974 2114,1970 1961,1970C1667,1970 1700,1960 1633,2072C1571,2176 1538,2286 1532,2410C1528,2509 1530,2522 1559,2607C1588,2690 1640,2809 1764,3073L1810,3171L1952,3239C2139,3328 2351,3458 2496,3573C2591,3648 2727,3828 2774,3942C2806,4017 2787,4082 2731,4095C2681,4106 2649,4080 2595,3984C2553,3908 2492,3822 2445,3771C2430,3756 2432,3793 2456,4052C2494,4464 2664,4783 2903,4888C2953,4910 3080,4940 3125,4940C3162,4940 3200,4982 3200,5023C3200,5083 3146,5119 3074,5107C3056,5104 3040,5105 3040,5110C3040,5126 3225,5284 3316,5347C3578,5525 3799,5599 4265,5665C4573,5708 4727,5739 4870,5787C4996,5829 5150,5902 5254,5970C5296,5998 5333,6020 5335,6020C5338,6020 5340,6008 5340,5994C5340,5888 5432,5660 5493,5616C5532,5587 5588,5591 5617,5625C5650,5663 5646,5699 5600,5766C5539,5855 5516,5941 5523,6054C5526,6104 5533,6156 5538,6170C5544,6184 5587,6236 5635,6285C5682,6335 5748,6410 5782,6453C5815,6495 5844,6530 5846,6530C5848,6530 5865,6497 5883,6456C6009,6185 6269,5957 6565,5860C6660,5828 6714,5829 6747,5863C6781,5897 6781,5947 6746,5976C6733,5988 6689,6008 6648,6020C6394,6097 6159,6291 6059,6503C5996,6639 5985,6741 6025,6821C6051,6872 6051,6898 6025,6920C6014,6929 5995,6928 5941,6916C5902,6907 5868,6900 5864,6900C5860,6900 5884,6928 5916,6963C5949,6997 5987,7040 6000,7057L6025,7090L6085,7080C6276,7049 6428,7095 6557,7226C6651,7321 6704,7429 6759,7635C6781,7718 6806,7803 6814,7825C6835,7881 6834,7894 6804,7929C6773,7966 6726,7971 6688,7940ZM7736,4778C7834,4632 7960,4507 8274,4241C8386,4145 8443,4082 8474,4016C8488,3988 8555,3809 8623,3619C8692,3430 8766,3227 8789,3169C8840,3035 8846,2995 8823,2951C8800,2906 8761,2895 8698,2916C8608,2945 8512,3028 8439,3138C8374,3237 8358,3284 8284,3580C8234,3781 8216,3839 8200,3852C8176,3871 8172,3873 7955,3919C7873,3937 7783,3959 7756,3968C7709,3984 7707,3987 7689,4043C7655,4155 7549,4281 7439,4340C7406,4357 7380,4373 7380,4376C7380,4379 7403,4408 7431,4440C7505,4524 7568,4622 7625,4743C7653,4801 7678,4849 7681,4850C7684,4850 7709,4817 7736,4778ZM4594,4059C4628,4047 4736,3996 4835,3945C4934,3894 5021,3851 5029,3848C5040,3845 5030,3818 4986,3736C4915,3603 4859,3527 4755,3425C4640,3312 4552,3255 4257,3103C3926,2933 3799,2857 3745,2798C3696,2743 3666,2663 3625,2470C3608,2392 3591,2340 3581,2333C3530,2293 3520,2277 3520,2234C3520,2184 3546,2150 3584,2150C3597,2150 3638,2161 3674,2175C3776,2213 3851,2205 3915,2149C3953,2116 4016,1998 4005,1981C4001,1973 3897,1970 3684,1970L3370,1970L3350,2003C3301,2081 3287,2140 3282,2278C3277,2418 3289,2544 3321,2698C3358,2881 3344,2861 3488,2935C3630,3007 3724,3074 3820,3170C3875,3226 3896,3258 3963,3391C4050,3564 4124,3667 4210,3731C4240,3753 4271,3779 4278,3788C4297,3813 4292,3856 4268,3885C4226,3932 4126.2,3894 4075.4,3815.8L3752.82,3380.63C3702.11,3462.06 3665.93,3554.95 3641.12,3660.49L3966.81,3973.39C4117.6,4118.79 4341.81,4148.01 4594,4059ZM3538,3495C3550,3457 3580,3389 3605,3346L3650,3266L3628,3242C3584,3195 3495,3136 3375,3075C3233,3003 3214,2980 3175,2846C3122,2662 3105,2531 3105,2320C3105,2132 3106,2123 3133,2054C3148,2015 3160,1980 3160,1976C3160,1973 2992,1970 2786,1970L2412,1970L2400,2023C2370,2151 2280,2280 2183,2332C2157,2347 2106,2364 2070,2371C2034,2378 2003,2385 2001,2386C1996,2390 2138,2661 2191,2748C2283,2902 2395,3009 2550,3093C2586,3113 2705,3165 2815,3210C3121,3336 3360,3461 3474,3557C3490,3570 3506,3577 3509,3573C3513,3569 3526,3534 3538,3495Z" style="fill-rule:nonzero;"/>
        <path d="M7328,7850C7289,7820 7276,7779 7290,7736C7313,7665 7393,7646 7451,7698C7541,7778 7423,7925 7328,7850Z" style="fill-rule:nonzero;"/>
    </g>
</svg>
