<?xml version="1.0" encoding="UTF-8" standalone="no"?>
<!DOCTYPE svg PUBLIC "-//W3C//DTD SVG 1.1//EN" "http://www.w3.org/Graphics/SVG/1.1/DTD/svg11.dtd">
<svg width="100%" height="100%" viewBox="0 0 4267 4267" version="1.1" xmlns="http://www.w3.org/2000/svg" xmlns:xlink="http://www.w3.org/1999/xlink" xml:space="preserve" xmlns:serif="http://www.serif.com/" style="fill-rule:evenodd;clip-rule:evenodd;stroke-linejoin:round;stroke-miterlimit:2;">
    <g transform="matrix(0.416699,0,0,-0.416699,0,4267)">
        <path d="M5005,8453C4168,8412 3377,8067 2805,7495C2306,6996 1995,6411 1861,5720C1813,5471 1805,5387 1806,5090C1806,4778 1818,4662 1881,4380C2064,3554 2547,2829 3231,2355C3715,2019 4273,1820 4868,1769C5045,1754 5410,1762 5570,1785C6097,1858 6558,2035 7000,2331C7724,2817 8232,3574 8403,4420C8459,4694 8465,4763 8465,5105C8465,5460 8457,5540 8395,5816C8276,6348 8028,6853 7679,7270C7570,7401 7343,7626 7228,7717C6757,8092 6199,8335 5615,8419C5473,8440 5192,8461 5110,8458C5085,8457 5038,8455 5005,8453ZM5507,8165C5973,8105 6408,7945 6795,7692C6992,7563 7125,7455 7290,7290C7665,6916 7928,6476 8079,5970C8167,5677 8200,5442 8200,5112C8200,4632 8119,4238 7935,3830C7877,3701 7758,3480 7746,3480C7730,3480 7613,3579 7544,3652C7368,3837 7236,4099 7156,4417C7109,4603 7105,4628 7074,4920L7047,5174L7096,5214C7437,5492 7554,5855 7428,6249C7339,6530 7135,6776 6887,6901C6850,6920 6822,6942 6812,6962C6761,7055 6696,7142 6636,7196C6527,7297 6374,7360 6237,7360L6179,7360L6102,7433C6012,7518 5962,7554 5862,7604C5608,7732 5231,7785 4858,7745C4387,7695 4013,7543 3754,7297C3622,7172 3535,7051 3481,6920C3427,6787 3415,6609 3450,6461C3461,6415 3469,6376 3468,6375C3466,6374 3391,6320 3300,6255C2630,5775 2625,5771 2625,5585C2625,5507 2629,5487 2653,5435C2681,5376 2682,5371 2690,5125C2699,4849 2711,4783 2773,4665C2819,4576 2930,4469 3003,4442C3100,4406 3211,4419 3243,4472C3250,4482 3258,4490 3263,4490C3267,4490 3297,4472 3329,4450C3480,4347 3705,4280 3901,4280L3947,4280L3979,4211C3996,4174 4020,4105 4031,4059C4050,3984 4052,3958 4046,3810C4040,3630 4025,3543 3946,3207C3872,2888 3865,2846 3866,2650C3866,2505 3870,2459 3888,2381C3901,2330 3908,2285 3906,2283C3903,2280 3845,2307 3775,2344C3448,2516 3206,2692 2970,2929C2484,3419 2191,4011 2093,4705C2068,4887 2068,5323 2093,5495C2192,6154 2441,6692 2873,7178C3148,7487 3521,7756 3915,7930C4237,8072 4573,8154 4965,8184C5061,8191 5390,8180 5507,8165ZM5376,7484C5571,7456 5767,7383 5858,7305C5881,7285 5921,7242 5946,7209C6009,7127 6030,7118 6182,7110C6297,7104 6314,7101 6373,7072C6455,7031 6523,6959 6578,6853C6627,6759 6641,6744 6750,6684C6915,6593 7017,6496 7108,6343C7183,6217 7212,6123 7218,5978C7227,5763 7184,5665 7005,5484C6926,5405 6862,5352 6780,5298C6669,5225 6510,5136 6510,5146C6510,5149 6519,5168 6529,5189C6555,5239 6606,5411 6614,5475C6631,5603 6496,5688 6409,5604C6388,5584 6377,5558 6365,5506C6324,5321 6249,5153 6153,5034C5987,4824 5807,4820 5704,5021C5655,5119 5637,5211 5637,5370C5636,5532 5645,5587 5714,5855C5789,6144 5795,6178 5794,6360C5794,6497 5790,6538 5772,6603C5741,6717 5695,6806 5636,6866C5621.81,6880.76 5612.02,6892.38 5602.41,6899.3C5515.15,6962.17 5389.25,6877.95 5412.29,6781.43C5418.18,6756.76 5433.04,6728.87 5455,6695C5526,6587 5545,6513 5544,6345C5544,6198 5538,6166 5461,5875C5408,5674 5388,5559 5383,5419C5369,5061 5495,4766 5707,4664C5784,4627 5919,4619 6016,4645C6051,4654 6083,4666 6086,4671C6089,4676 6096,4680 6102,4680C6117,4680 6106,4526 6085,4436C6014,4129 5794,3833 5482,3622C5372,3548 5309,3510 5295,3510C5291,3510 5298,3523 5310,3540C5345,3589 5407,3730 5424,3800C5515,4173 5411,4495 5127,4724C5039,4794 4936,4843 4873,4844C4809,4845 4777,4823 4736,4753C4699,4688 4625,4639 4506,4601C4342,4549 4239,4535 4000,4536C3811,4536 3775,4539 3705,4558C3554,4600 3486,4642 3310,4804C3207,4899 3154,4934 3100,4944C3057,4951 3004,4937 2975,4910L2953,4889L2947,4957C2943,4994 2940,5044 2940,5067L2940,5109L2976,5085C2996,5071 3026,5060 3042,5060C3060,5060 3132,5090 3213,5132C3376,5216 3448,5278 3496,5375C3522,5429 3525,5445 3525,5530C3525,5605 3521,5634 3504,5671C3459,5767 3377,5832 3263,5861L3200,5876L3318,5960C3666,6208 3714,6251 3750,6348C3791,6457 3774,6576 3704,6668C3671,6711 3676,6742 3734,6854C3832,7045 4005,7208 4226,7318C4389,7400 4704,7481 4928,7499C5057,7510 5239,7504 5376,7484ZM3162,5649C3324,5602 3334,5461 3180,5391C3122,5365 3095,5364 3105,5388C3126,5434 3122,5467 3095,5489C3062,5515 3040,5515 2977,5493C2942,5480 2925,5479 2913,5486C2838,5533 2839,5658 2914,5673C2955,5682 3096,5668 3162,5649ZM6822,4948C6831,4665 6776,4497 6593,4250C6554.85,4198.42 6532.8,4159.25 6523.97,4126.42C6491.73,4006.49 6657.21,3944.29 6725.29,4007.1C6757.95,4037.23 6810.6,4108.6 6877,4211L6927,4288L6974,4146C7048,3922 7139,3746 7265,3585C7334,3497 7466,3366 7547,3306C7576,3284 7596,3262 7592,3256C7589,3250 7550,3202 7506,3150C7221,2809 6864,2527 6475,2335C6321,2258 6121,2175 6113,2184C6106,2190 6151,2294 6192,2370C6359,2677 6590,2927 6877,3113C6931,3149 6964.36,3176.29 6986.6,3193C7084.79,3266.8 7024.6,3422 6869,3388C6738.4,3359.46 6360,3059 6169,2804C6015,2598 5916,2415 5849,2210L5811,2095L5688,2073C5501,2041 5344,2028 5140,2028C4876,2028 4655,2055 4398,2116L4290,2142L4290,2179C4290,2271 4351,2430 4434,2554C4535,2703 4759,2902 4987,3043C5035,3073 5172,3150 5290,3215C5679,3428 5850,3557 6020,3765C6252,4051 6360,4338 6360,4674L6360,4817L6473,4859C6534,4882 6632,4925 6690,4955C6748,4984 6801,5009 6808,5009C6816,5010 6821,4990 6822,4948ZM5035,4455C5160,4333 5206,4209 5197,4020C5188,3815 5099,3627 4903,3393C4799,3269 4736,3208 4559,3055C4468,2977 4370,2886 4341,2854C4274,2779 4190,2653 4149,2567C4132,2530 4117,2500 4117,2500C4109,2501 4111,2702 4120,2778C4146,2990 4219,3140 4404,3358C4633,3628 4723,3778 4776,3976C4803,4077 4801,4250 4772,4353C4760,4395 4750,4432 4750,4433C4750,4435 4774,4453 4803,4473C4833,4494 4867,4521 4880,4535C4902,4559 4904,4559 4933,4542C4950,4533 4996,4494 5035,4455ZM4531,4293C4538,4266 4544,4204 4543,4155C4541,4005 4488,3876 4354,3696C4322,3654 4295,3622 4292,3624C4290,3627 4293,3660 4299,3699C4323,3854 4305,4052 4254,4195C4240,4233 4226,4272 4223,4281C4219,4294 4231,4298 4292,4304C4332,4308 4392,4317 4425,4325C4517,4345 4516,4345 4531,4293Z" style="fill-rule:nonzero;"/>
        <path d="M4583,6675C4502,6634 4460,6565 4405,6385C4389.29,6333.81 4385.34,6297.34 4384.59,6268.19C4382,6167.92 4509.96,6156.55 4539.66,6176.52C4551.98,6184.8 4566.43,6193.45 4588,6214C4632,6255 4638,6258 4675,6251C4728,6242 4785,6252 4818,6277C4843,6296 4884,6348 4892,6372C4894,6378 4913,6374 4940,6360C5024,6317 5104,6338 5131,6409C5173,6517 4895,6700 4690,6700C4650,6700 4619,6693 4583,6675Z" style="fill-rule:nonzero;"/>
        <path d="M6772,6420C6754,6409 6732,6384 6724,6364C6708,6325 6711,6310 6760,6176C6790,6093 6799,6000 6785,5922C6778.09,5886.07 6777.63,5856.01 6779.52,5830.81C6790.61,5682.57 6991.13,5710.71 7015.79,5816.95C7024.41,5854.13 7035,5895.75 7035,5985C7035,6303 6912,6505 6772,6420Z" style="fill-rule:nonzero;"/>
        <path d="M5450,3196C5156,3087 4820,2786 4676,2503C4634,2419 4645,2335 4704,2296C4757,2262 4843,2288 4878,2351C4946,2473 5022,2574 5114,2665C5229,2778 5334,2852 5495,2933C5556,2963 5613,2997 5623,3007C5671,3061 5661,3147 5601,3187C5563,3213 5506,3216 5450,3196Z" style="fill-rule:nonzero;"/>
    </g>
</svg>
