<?xml version="1.0" encoding="UTF-8" standalone="no"?>
<!DOCTYPE svg PUBLIC "-//W3C//DTD SVG 1.1//EN" "http://www.w3.org/Graphics/SVG/1.1/DTD/svg11.dtd">
<svg width="100%" height="100%" viewBox="0 0 4267 4267" version="1.1" xmlns="http://www.w3.org/2000/svg" xmlns:xlink="http://www.w3.org/1999/xlink" xml:space="preserve" xmlns:serif="http://www.serif.com/" style="fill-rule:evenodd;clip-rule:evenodd;stroke-linejoin:round;stroke-miterlimit:2;">
    <g transform="matrix(0.416699,0,0,-0.416699,0,4267)">
        <path d="M4945,9115C4773,9083 4622,9029 4482,8949C4397,8900 4353,8867 4214,8743C4153,8690 4104,8658 4024,8619C3934,8576 3903,8555 3844,8496C3764.86,8416.86 3719.9,8339.17 3721.36,8289.79C3722.95,8236.2 3779.64,8228.34 3796.36,8242.49C3811.05,8254.93 3830.11,8275.55 3855,8316C3915,8411 3966,8455 4100,8525C4168,8561 4238,8607 4286,8649C4525,8857 4700,8947 4956,8996C5080,9019 5287,9011 5385,8980C5569,8922 5671.2,8861.59 5740.2,8704.59C5767.2,8644.59 5792.2,8627.59 5829.2,8641.59C5865.4,8655.29 5871.2,8687.59 5860.2,8728.59C5840.2,8813.59 5769,8904 5670,8971C5643,8990 5620,9008 5620,9011C5620,9018 5730,9003 5784,8989C6006,8930 6194,8765 6299,8538C6334,8463 6382.4,8297.8 6371.4,8289.8C6352.03,8309.14 6291.58,8305.07 6275.4,8285.2L6267,8362C6261,8430 6240,8460 6199,8460C6151,8460 6136,8424 6144,8329C6159,8144 6234,8050 6495,7885C6597,7821 6618,7800 6579,7800C6527,7800 6444,7764 6404,7724C6283,7604 6348,7367 6523,7290C6549,7278 6570,7267 6570,7264C6570,7261 6561,7242 6550,7221C6507,7136 6352,7037 6190,6990C6098,6963 5906,6953 5804,6969C5649,6993 5438,7081 5378,7148C5327,7204 5301,7220 5255,7220C5099,7220 5068,7014 5197,6839C5283,6721 5387,6638 5526,6573C5679,6503 5856,6465 6007,6472L6100,6476L6155,6424L6210,6371L6153,6359C6075,6343 5910,6353 5724,6385C5544,6416 5543,6416 5534,6300C5524,6167 5487,6082 5393,5977C5356,5936 5353.4,5898.6 5378,5877C5397.51,5859.87 5434,5857 5486,5904C5565,5975 5650,6140 5650,6223C5650,6250 5652,6252 5664,6240C5685,6218 5710,6134 5717,6065C5725,5978 5705,5878 5659,5781C5638.8,5737.39 5626.39,5710.6 5623.16,5691.79C5611.16,5621.84 5683.23,5623.73 5706.31,5638.54C5731.68,5654.81 5757.34,5692.35 5783,5751C5840,5880 5854,6022 5824,6166C5816,6208 5810,6243 5812,6245C5814,6247 5835,6245 5860,6240C5913,6230 5933,6209 6004,6090C6096,5935 6160,5745 6185,5553C6210,5360 6212,5367 6128,5313C6034,5253 5844,5064 5796,4982C5747,4900 5720,4823 5714,4741C5711,4704 5698,4650 5684,4617C5662,4568 5659,4547 5661,4475L5664,4391L5582,4306C5441,4159 5346,3990 5263,3741C5199,3546 5177,3403 5182,3210C5187,3043 5204,2967 5256,2891C5282,2853 5286,2821 5271,2774C5266,2758 5259,2728 5255,2708C5249,2670 5230,2655 5230,2688C5230,2718 5143,3078 5107,3195C5041,3411 4914,3686 4842,3771C4801,3819 4695.1,3800.2 4749,3702C4822,3569 4918,3367 4948,3284C5038,3029 5105,2726 5160,2325C5186,2132 5214,1977 5251,1818C5267,1749 5280,1688 5280,1683C5280,1678 5256,1637 5226,1593C5153,1482 5136,1401 5166,1303C5172,1282 5169,1280 5137,1280C5098,1280 5090,1294 5090,1366C5090,1447 5060,1500 5015,1500C4977,1500 4956,1466 4964,1418C4968,1394 4974,1354 4977,1328L4982,1282L4939,1287C4874,1294 4837,1308 4797,1338C4716,1398 4642,1536 4609,1685C4595,1748 4592,1977 4601,2371C4605,2564 4604,2579 4586,2599C4563,2625 4519,2626 4497,2602C4483,2587 4480,2561 4479,2479C4479,2380 4478,2377 4466,2415C4444,2485 4384,2621 4316,2759C4193,3007 4140,3163 4124,3316L4117,3384L4149,3359C4261,3276 4309,3257 4341,3286C4371,3313 4366,3355 4328,3383C4139,3521 4081,3569 3995,3655C3889,3762 3800,3876 3736,3988C3619,4191 3540,4466 3540,4667C3540,4712 3536,4722 3515,4736C3478,4760 3444,4748 3430,4705C3408,4638 3437,4412 3487,4255C3566,4008 3694,3795 3885,3590C3925,3548 3964,3502 3973,3489C3982,3475 3991,3427 3995,3370C4010,3156 4043,3052 4194,2725C4250,2604 4302,2492 4309,2475C4347,2386 4421,2173 4439,2104C4461,2019 4479,1780 4464,1780C4452,1780 4336,1850 4329,1862C4325,1868 4322,1905 4321,1946C4317,2131 4252,2379 4155,2575C4096,2695 3981,2845 3913,2893C3893.75,2906.33 3875.08,2914.27 3858.42,2917.79C3821.14,2925.68 3766.91,2888.82 3799.18,2846.75C3813.88,2827.58 3840.76,2793.95 3873,2761C4044,2583 4150,2340 4195,2020C4203,1959 4210,1906 4210,1902C4210,1898 3949.59,1923.07 3801.8,1879.6C3733.8,1859.6 3717.2,1847.4 3543.2,1842.4C3454.79,1839.86 3325.8,1890 3247.8,1866C3103.8,1823 3050.8,1788 3050.8,1739C3050.8,1710 3073.8,1690 3107.8,1690C3117.8,1690 3157.8,1703 3195.8,1719C3313.8,1769 3414.8,1721.77 3535,1716C3660,1710 3682,1712 3734,1730C3972,1812 4234,1788 4391,1670C4446,1629 4518,1540 4537,1490C4548,1461 4547,1458 4510,1433C4488,1419 4464,1410 4457,1413C4450,1416 4438,1436 4432,1458C4404,1550 4283,1660 4210,1660C4144,1660 4128,1609 4180,1568C4257,1509 4283,1484 4301,1449C4324,1403 4325,1384 4304,1376C4277,1366 4160,1369 4010,1386C3865,1401 3862,1401 3625,1374C3147,1319 2816,1343 2618,1447C2290,1619 2102,2136 2149,2733C2185,3186 2307,3616 2520,4042C2662,4327 2807,4554 3106,4960C3205,5095 3301,5226 3318,5252C3336,5278 3355,5302 3360,5305C3365,5308 3381,5287 3396,5258C3435.3,5179.4 3471.8,5133.3 3500.68,5111.63C3534.07,5086.58 3602.02,5114.52 3579.72,5176.24C3574.09,5191.83 3562.01,5214.53 3542,5252C3476,5375 3456,5455 3456,5600C3456,5795 3506,5937 3667,6205C3716,6288 3772,6387 3790,6425C3866,6589 3926,6797 3931,6918C3933,6946 3935,6970 3937,6970C3939,6970 3967,6957 4000,6940C4033,6924 4108,6896 4167,6879C4300,6840 4367,6807 4456,6735C4572,6642 4629,6624 4724,6652C4781,6669 4859,6749 4898,6831C4953,6946 4965,7008 4964,7170C4963,7345 4946,7417 4841,7687C4756,7905 4724,8017 4710,8138C4696,8269 4708,8342 4765,8454L4802.8,8527.95C4825.68,8553.25 4795.8,8643.5 4714.61,8585.9C4705.7,8579.58 4696.62,8570.49 4687,8559C4625,8487 4580,8337 4580,8204C4580,8065 4615,7931 4722,7655C4819,7406 4842,7314 4843,7170C4844,7039 4827,6960 4777,6867C4729,6776 4675,6744 4616,6772C4599,6781 4554,6813 4515,6844C4428,6913 4352,6951 4230,6986C4028,7042 3935,7111 3864,7255C3831,7324 3821,7335 3797,7338C3769.6,7341.43 3740,7325 3740,7287C3740,7258 3739,7258 3721,7274C3687,7305 3641,7404 3630,7473C3603,7643 3669,7799 3861,8020C3989,8167 4090,8308 4090,8341C4090,8370 4067,8400 4045,8400C4016,8400 3999,8386 3943,8317C3911,8277 3881,8239 3875,8232C3856,8209 3745,8124 3700,8098C3675,8084 3628,8063 3595,8051C3523,8024 3510,8014 3510,7986C3510,7952 3538,7921 3575,7914C3594,7911 3610,7906 3610,7904C3610,7901 3594,7868 3575,7830C3467,7616 3486,7373 3623,7200C3660,7153 3756,7083 3804,7067C3825,7060 3814,6891 3786,6777C3741,6600 3691,6485 3560,6266C3389,5978 3343,5844 3334,5610L3329,5486L3278,5410C3249,5369 3170,5259 3101,5165C2814,4773 2712,4626 2583,4412C2290,3925 2125,3467 2044,2915C2018,2743 2018,2376 2043,2225C2089,1947 2161,1759 2288,1582C2317,1541 2445,1398 2445,1398L2516,1359C2608,1308 2733,1266 2857,1244C3007,1217 3358,1219 3604,1249C3747,1267 3820,1271 3904,1266C4260,1247 4301,1247 4400,1269C4452,1281 4522,1303 4555,1320L4615,1349L4670,1291C4731,1225 4798,1188 4880,1172C4974,1153 5111,1148 5183,1160C5245,1170 5257,1169 5308,1149C5356,1131 5385,1128 5485,1129C5706,1131 5798,1161 5878,1259L5922,1313L6111,1314C6215,1315 6300,1312 6300,1309C6300,1287 6396,1200 6442,1179C6491,1157 6508,1155 6670,1155C6878,1155 6971,1172 7050,1225L7099,1258L7162,1238C7215,1221 7244,1219 7345,1223C7446,1227 7494,1235 7645,1275C7838,1325 7925,1358 7960,1395L7982,1418L8035,1395C8119,1357 8474.86,1310.96 8643.21,1354.8C8816.99,1400.05 8797.61,1659.02 8606.95,1711.11C8464.58,1750.01 8409.51,1696.26 8253.21,1847.49C8158.45,1939.18 8091.58,2070.48 8091.58,2070.48C8091.58,2070.48 8047.77,2160.34 8049,2225C8051,2368 8011,2536 7947,2650C7891,2750 7837,2813 7649,3000C7547,3102 7442,3215 7416,3252C7373,3313 7368,3327 7355,3415C7337,3534 7317,3613 7278,3713C7262,3755 7250,3798 7252,3808C7254,3820 7271,3828 7311,3836C7524,3878 7669.8,4017.4 7720.8,4207.4C7739.8,4279.4 7741.86,4489 7716,4538C7697,4574 7649,4618 7574,4668C7480,4730 7480,4731 7480,4815C7480,4913 7465,4980 7425,5065C7339,5244 7144,5394 6925,5449C6835,5472 6680,5481 6588,5470C6498,5459 6390,5437 6346,5421C6323,5412 6322,5412 6315,5493C6298,5699 6232,5921 6131,6116L6073,6228L6138,6235C6210,6243 6309,6272 6358,6301C6376,6311 6403,6320 6418,6320C6462,6320 6545,6365 6575,6404C6614,6455 6629,6505 6630,6580C6630,6635 6609,6739 6585,6801C6580,6814 6591,6823 6626,6840C6692,6872 6798,6975 6843,7051C6898,7144 6931,7261 6942,7404C6947,7471 6953,7549 6956,7578C6963,7642 6944,7700 6901,7748C6885,7765 6799,7827 6711,7885C6622,7944 6546,7999 6540,8009C6535,8020 6521,8101 6510,8191C6487,8381 6464,8472 6410,8588C6288,8848 6089,9026 5838,9101C5769,9122 5743,9123 5390,9126C5116,9128 4996,9125 4945,9115ZM6397.4,8151.4C6398.11,8130.4 6375.45,8138.5 6365.6,8143.6C6348.74,8152.33 6342,8155.4 6328.94,8188.34C6311.16,8233.23 6386.62,8204.38 6392.4,8181.8C6394.3,8174.36 6396.81,8168.85 6397.4,8151.4ZM6812,7671C6828,7653 6839,7633 6837,7627C6830,7606 6775,7599 6673,7605C6575.77,7610.72 6567.32,7606.21 6532,7575C6489,7537 6472,7532 6464,7555C6455,7577 6472,7642.82 6524,7670C6568,7693 6654,7709 6719,7707C6777,7704 6785,7701 6812,7671ZM6678.8,7466.6C6678.8,7446.6 6614,7366 6554.6,7368.4C6541.61,7368.93 6570.6,7401.4 6595.6,7427.4C6634.6,7467.4 6678.8,7487.6 6678.8,7466.6ZM6804,7268C6769,7133 6668,6996 6570,6950C6519,6926 6518,6926 6504,6945C6483,6974 6487,6981 6545,7028C6610,7080 6655,7146 6676,7217C6688,7260 6696,7270 6718,7275C6733,7278 6759,7289 6775,7300C6792,7311 6808,7320 6812,7320C6815,7320 6812,7297 6804,7268ZM5287,7038C5412,6842 5551,6745 5804,6680C5938,6645 5955,6638 5971,6608C5982,6588 5981,6587 5919,6594C5632,6626 5356,6782 5265,6964C5240,7014 5231,7080 5250,7080C5255,7080 5272,7061 5287,7038ZM6395,6868C6464,6789 6502,6701 6508,6609C6511,6552 6508,6526 6496,6502C6474,6459 6428,6436 6378,6444C6297,6457 6236,6504 6162,6612C6124,6667 6049,6736 5969,6788L5909,6827L5962,6833C5991,6837 6051,6842 6096,6846L6177,6853L6217,6816C6239,6796 6274,6748 6294,6710C6327,6648 6334,6640 6360,6640C6436,6640 6422,6756 6333,6860C6304,6893 6300,6904 6311,6911C6336,6927 6348,6921 6395,6868ZM6889,5329C7013,5300 7120,5241 7211,5151C7325,5037 7348,4985 7359,4810C7369,4661 7378,4643 7479,4585C7522,4560 7565,4531 7575,4520C7593,4500 7592,4500 7561,4500C7496,4500 7440,4454 7440,4400C7440,4335 7502,4280 7576,4280L7612,4280L7605,4243C7587,4146 7504,4038 7415,3995C7337,3957 7263,3952 7159,3980C7035,4013 7012,4015 6990,3995C6944,3953 6979,3899 7070,3873C7103,3863 7130,3852 7130,3849C7130,3837 7086,3830 7011,3830C6902,3830 6814,3812 6780,3784C6763,3769 6744,3738 6734,3707C6707,3624 6692,3601 6608,3513C6576.15,3479.58 6557.44,3455.64 6544.65,3439.15C6501.13,3383.06 6570.34,3351.19 6600.31,3361.42C6676.25,3387.34 6805.44,3525.99 6849,3663C6861,3700 6862,3700 6916,3700L6978,3700C6987,3699 6982,3629 6968,3565C6955,3506 6905,3397 6855,3319C6827,3275 6820,3257 6826,3236C6834,3203 6861,3187 6895,3196C6922,3203 6990,3290 7028,3365C7062,3433 7099,3564 7106,3644C7110,3693 7117,3719 7124,3717C7143,3711 7189,3609 7209,3529C7244,3392 7276,2949 7266,2731C7263.34,2665.99 7263.13,2624.32 7264.66,2597.48C7268.8,2525.04 7356.19,2535.8 7368,2588C7375.5,2621.18 7385,2660 7385,2855L7385,3085L7591,2880C7774,2697 7801,2667 7837,2595C7875,2522 7920,2392 7920,2359C7920,2351 7911,2363 7899,2385C7869,2442 7806,2522 7771,2548C7733,2576 7685,2577 7670,2551C7653,2518 7658,2505 7715,2434C7829,2291 7876,2160 7867,2014C7862,1951 7865,1928 7876,1911C7894,1887 7932,1883 7954,1905C7962,1913 7971,1917 7973,1913C7976,1908 7976,1856 7975,1795C7970,1621 7923,1502 7842,1461C7787,1433 7581,1377 7433,1349C7343,1332 7228,1340 7193,1366C7153,1395 7109,1481 7103,1543C7098,1590 7101,1599 7126,1629C7183,1697 7275,1709 7375,1661C7408,1645 7451,1616 7469,1596C7513,1551 7560,1546 7586,1585C7609,1621 7591,1660 7526,1712C7426,1792 7308,1828 7206,1809C7173,1803 7138,1794 7128,1789C7105,1776 7105,1776 7140,1921C7170,2045 7194,2189 7205,2315C7207.14,2341.32 7204.15,2362.61 7205.46,2379.75C7210.65,2447.28 7112.21,2467.48 7093.72,2396.68C7088.07,2375.07 7082.41,2344.82 7079,2302C7069,2171 7055,2094 7007,1900C6955,1691 6952,1599 6994,1471C7009,1425 7019,1378 7016,1366C7012,1348 6947,1300 6926,1300C6923,1300 6920,1320 6920,1345C6920,1440 6867,1498 6820,1455C6803,1440 6800,1424 6800,1360C6800,1272 6798,1270 6724,1270L6680,1270L6680,1338C6680,1418 6663,1450 6621,1450C6577,1450 6565,1427 6567,1347L6570,1277L6530,1283C6444,1294 6380,1383 6394,1472C6398,1495 6420,1550 6445,1594C6514,1721 6521,1760 6530,2050C6539,2325 6547,2376 6600,2479C6616,2510 6639.74,2550.2 6654,2569C6684.8,2609.6 6648.49,2711.61 6574.42,2655.31C6542,2630.67 6510.43,2579.06 6486,2527C6428,2403 6419,2351 6410,2070C6405,1926 6396,1796 6389,1771C6377,1728 6377,1728 6337,1733C6261,1743 6170,1798 6079,1889C5998,1969 5992,1978 5985,2026C5977,2085 5951,2120 5915,2120C5865,2120 5862,2100 5852,1755C5844,1438 5843,1434 5818,1385C5804,1358 5781,1325 5768,1313C5737,1283 5678,1260 5636,1260L5602,1260L5598,1331C5594,1405 5579,1430 5538,1430C5499,1430 5480,1395 5480,1321C5480,1258 5478,1252 5458,1247C5426,1239 5362,1255 5331,1278C5317,1288 5296,1318 5286,1343C5261,1403 5270,1435 5349,1559C5409,1652 5430,1712 5430,1788C5430,1808 5416,1935 5399,2070C5361,2378 5358,2579 5389,2745C5400,2806 5410,2862 5410,2871C5410,2879 5392,2916 5371,2951C5310,3052 5297,3118 5303,3285C5309,3445 5332,3566 5385,3720C5431,3854 5516,4027 5576,4110C5622,4175 5709,4270 5721,4270C5724,4270 5748,4243 5774,4210C5829,4139 5892,4095 5973,4073C6023,4059 6038,4048 6081,3999C6159,3909 6221,3890 6310,3931C6407,3975 6451,4050 6458,4182C6462,4256 6457,4288 6426,4417C6389,4571 6384.4,4662.6 6396.4,4767.6C6405.4,4840.6 6326.21,4875 6285,4795C6268,4762 6265,4735 6265,4640C6266,4538 6270,4511 6303,4396C6365,4179 6347,4060 6248,4036C6225,4031 6217,4035 6193,4067C6141,4135 6113,4155 6029,4184C5959,4208 5937,4221 5893,4266C5834,4326 5805,4378 5789,4449C5765,4564 5842,4683 5990,4761C6070,4802 6088,4826 6069,4861C6045,4907 5996,4906 5908,4857C5887,4846 5868,4839 5865,4841C5855,4852 5938,4976 6000,5043C6239,5302 6559,5405 6889,5329ZM6181,1657C6216,1640 6260,1620 6277,1613L6310,1602L6296,1563C6289,1542 6279,1506 6275,1482L6268,1440L6173,1440L6167,1482C6161,1527 6140,1550 6104,1550C6074,1550 6063,1533 6055,1478C6047,1428 6041,1423 5993,1436C5972,1442 5966.99,1448.07 5970,1514C5979.6,1723.99 6019.41,1752.39 6075,1721.2C6077.62,1719.73 6146,1675 6181,1657ZM8048.97,1526.28C8074.74,1620.63 8092.82,1734.53 8089.77,1833.46C8277.46,1637.37 8407.45,1633.87 8533.8,1625.03C8713.24,1612.48 8680.24,1426.37 8507.34,1435.09C8357.34,1442.65 8108.65,1436.54 8048.97,1526.28Z" style="fill-rule:nonzero;"/>
        <path d="M7094,4693C7086,4775 6990.2,4764 6933,4740C6894.27,4723.75 6891.39,4720.79 6869.79,4702.2C6790.79,4634.2 6859.79,4550.2 6924.79,4594.2C6965.39,4621.68 6972.39,4590.39 7012,4584C7043,4579 7102.61,4604.77 7094,4693Z" style="fill-rule:nonzero;"/>
        <path d="M5969.6,2767C5926.8,2779 5885.2,2753.4 5902,2702.6C5905.45,2692.16 5912,2674 5939,2645C6027,2548 6053,2465 6052,2282C6051,2164 6052,2159 6075,2144C6105,2125 6135,2133 6157,2167C6170,2187 6173,2217 6173,2313C6173,2494 6140,2601 6050,2703C6015,2742 5993.67,2760.25 5969.6,2767Z" style="fill-rule:nonzero;"/>
        <path d="M5501,8248C5467,8240 5443,8225 5398,8180C5366,8148 5324,8112 5304,8100C5277,8082 5270,8072 5272,8052C5276,8016 5302,8003 5340,8017C5368,8028 5372,8027 5379,8007C5395,7966 5467,7920 5515,7920C5579,7920 5650,7973 5650,8022C5650,8046 5654,8050 5680,8050C5704,8050 5711,8055 5716,8076C5727,8118 5691,8190 5645,8221C5597,8253 5560,8260 5501,8248ZM5560,8112C5578,8098 5581,8087 5576,8067C5568,8033 5535,8023 5509,8046C5486,8067 5485,8088 5507,8112C5527,8134 5532,8134 5560,8112Z" style="fill-rule:nonzero;"/>
        <path d="M4106.6,6663.8C4091.2,6709.8 4012.3,6704 4008.18,6642.61C4006.9,6623.64 4005,6589.76 4005,6521C4005,6396 4008,6364 4028,6300C4082,6129 4206,5942 4338,5836C4420,5770 4561,5684 4602,5674C4691,5652.29 4707.57,5744.79 4660.97,5769.46C4642.11,5779.44 4611.44,5800.7 4550,5836C4437,5902 4282,6054 4223,6160C4150,6290 4127,6375 4122,6530C4120,6604 4110.75,6651.4 4106.6,6663.8Z" style="fill-rule:nonzero;"/>
        <path d="M4416.6,5690.4C4368.35,5719.43 4316.8,5655 4353.6,5604.4C4361.6,5593.4 4476,5502 4620,5390C5064,5045 5203,4898 5315,4655C5331.43,4619.89 5348.27,4595.71 5358.91,4576.54C5393.98,4513.36 5481.81,4554.68 5455.32,4632.05C5446.86,4656.79 5432.82,4692.76 5405,4747C5306,4942 5136,5139 4910,5321C4697,5492 4441.2,5675.6 4416.6,5690.4Z" style="fill-rule:nonzero;"/>
        <path d="M3809,5389C3770,5316 3902,5056 4083,4849C4166.19,4753.41 4282.06,4654.89 4334.92,4634.23C4384.95,4614.67 4432.33,4666.38 4398.72,4708.85C4381.95,4730.05 4347.05,4765.17 4307,4801C4251,4853 4182,4921 4155,4952C4063,5058 3962,5226 3930,5325C3909,5391 3892,5410 3854,5410C3830,5410 3817,5404 3809,5389Z" style="fill-rule:nonzero;"/>
        <path d="M5122,4270C5083.18,4322.8 4996.23,4289.52 5013.48,4238.47C5016.83,4228.57 5020.49,4214.29 5029,4192C5041,4161 5065,4095 5082,4045C5117,3941 5132,3920 5171,3920C5203,3920 5220,3943 5220,3989C5220,4027 5147,4236 5122,4270Z" style="fill-rule:nonzero;"/>
        <path d="M3434,3059C3267.89,3140.25 2857.58,3190.96 2570,2980C2533.49,2953.22 2531,2910 2556,2886C2583,2858 2609,2862 2665,2900C2787,2984 2890,3014 3055,3014C3191,3014 3299,2991 3401,2940C3469,2905 3491,2903 3513,2928C3552,2971 3526,3014 3434,3059Z" style="fill-rule:nonzero;"/>
    </g>
</svg>
