<?xml version="1.0" encoding="UTF-8" standalone="no"?>
<!DOCTYPE svg PUBLIC "-//W3C//DTD SVG 1.1//EN" "http://www.w3.org/Graphics/SVG/1.1/DTD/svg11.dtd">
<svg width="100%" height="100%" viewBox="0 0 4012 4012" version="1.1" xmlns="http://www.w3.org/2000/svg" xmlns:xlink="http://www.w3.org/1999/xlink" xml:space="preserve" xmlns:serif="http://www.serif.com/" style="fill-rule:evenodd;clip-rule:evenodd;stroke-linejoin:round;stroke-miterlimit:2;">
    <g transform="matrix(0.416699,0,0,-0.416699,-113,4035)">
        <path d="M4151,7345C3889,7305 3708,7229 3552,7092C3491,7039 3456,7018 3364,6980C3301,6953 3224,6918 3193,6900C2683,6613 2267,6050 2150,5489C2125,5365 2108,5143 2116,5043C2122,4977 2120,4966 2092,4906C2034,4782 1925,4642 1811,4543C1769,4508 1641,4415 1525,4338C1269,4166 1160,4064 1093,3933C1040,3830 1016,3723 1022,3621C1027,3527 1052,3471 1121,3396C1174,3337 1179,3322 1152,3297C1136,3282 1107,3280 957,3280C879.845,3280 835.769,3279.71 808.642,3279.61C742.225,3279.38 747.345,3170.33 800.809,3170.15C843.431,3170.01 921.336,3170 1067,3170L1336,3170L1380,3080L1196,3080C1112.24,3080 1065.88,3078.04 1038.5,3076.84C980.988,3074.31 975.563,2981.11 1042.77,2981.11C1042.77,2981.11 1129.36,2980 1229,2980L1441,2980L1511,2914C1592,2838 1652,2808 1724,2808C1760,2808 1791,2799 1832,2779C1906,2741 1986,2724 2135,2711C2274.65,2698.7 2708.7,2702.27 2830.23,2705.83C2871.04,2707.03 2884.5,2785.75 2823.21,2790.39C2783.03,2793.44 2715.59,2797.82 2601,2800C2424,2804 2375,2807 2426,2812C2469,2816 2522,2830 2561,2847L2625,2875L3345,2871L4065,2868L4115,2842C4154,2822 4187,2816 4265,2810C4364,2804 4366,2803 4457,2748C4643,2635 4829,2587 5075,2587C5249,2586 5344,2601 5457,2646L5518,2671L5582,2649C5633,2632 5660,2629 5727,2633C5807,2638 5858,2656 5960,2715C5979,2726 6026,2730 6171,2730C6273.55,2730 6350.36,2730.82 6350.36,2730.82C6392.69,2730.82 6420.09,2794.99 6352.19,2808.71C6326.82,2813.83 6285.11,2820 6196,2820L6050,2820L6067.8,2865C6080.8,2897 6077,2885 6163,2891C6205.11,2893.87 6252.09,2897.96 6252.09,2897.96C6299.57,2897.96 6321.41,2971.67 6258.88,2979.02C6241.79,2981.03 6105.2,2976.8 6105.2,2990.8C6105.2,3000.8 6113.2,3031 6122.2,3034C6131.2,3038 6345,3038 6591,3034C6876.38,3029.13 6982.25,3031.31 7028.4,3033.37C7079.65,3035.66 7083.63,3117.06 7031.36,3122.03C6978.34,3127.07 6862.33,3129.97 6605,3134C6358,3137 6147,3140 6138,3140C6126,3140 6120,3148 6120,3165L6120,3190L6223,3187C6279,3186 6505,3191 6725,3198C6945,3204 7424,3213 7790,3216C8140.88,3219.18 8434.6,3218.35 8434.6,3218.35C8496.88,3219.65 8489.29,3309.74 8434.99,3308.64L7815,3311L7865,3332C7904,3348 7951,3354 8075,3361C8376,3377 8615,3435 8830,3546L8917,3590L9117,3590C9231.19,3590 9306.5,3590.6 9306.5,3590.6C9371.6,3590.13 9367.67,3701.1 9306.12,3700.01C9306.12,3700.01 9247.92,3700 9189,3700C9066,3700 9062,3703 9114,3763L9147,3800L9496.71,3797.2C9555.86,3797.44 9558.1,3891.46 9497.74,3891.97L9205,3895L9207,3925C9208,3942 9212,3993 9215,4040C9235,4297 9083,4549 8767,4784C8605,4905 8580,4937 8520,5105C8468,5251 8368,5449 8273,5597C8223,5673 8151,5797 8111,5874C7970,6145 7803,6383 7617,6576C7425,6777 7245,6899 7049,6965C6947,6999 6922,7003 6810,7007C6715,7010 6664,7007 6599,6993C6544,6981 6502,6977 6484,6982C6396,7006 6026,7085 5840,7119C5459,7189 5298,7211 5045,7231C4898,7242 4876,7246 4780,7282C4722,7304 4644,7328 4605,7336C4499,7357 4263,7362 4151,7345ZM4635,7177C4679,7163 4747,7140 4785,7127C4839,7107 4890,7099 5005,7091C5088,7085 5209,7073 5275,7065C5526,7033 6208,6908 6318,6874C6326,6872 6296,6836 6242,6782C6168,6710 6146,6680 6111,6610C6058,6499 6038,6405 6038,6255C6038,6064 6082,5909 6180,5755C6258,5634 6275,5595 6320,5446C6436,5058 6555,4813 6737,4587L6792,4519L6753,4526C6732,4530 6688,4541 6656,4550C6599,4566 6596,4568 6582,4611C6564,4663 6519,4734 6454,4810C6425,4844 6381,4919 6338,5008C6274,5141 6262,5159 6175,5249C6091,5337 6081,5351 6071,5401C6036,5579 6025,5624 5998,5710C5880,6081 5595,6439 5255,6642C5032,6775 4732,6874 4488,6896C4373,6906 4330,6888 4330,6830C4330,6789 4361,6772 4461,6759C4738,6725 5019,6622 5244,6473C5374,6387 5562,6201 5654,6068C5759,5916 5856,5706 5888,5563C5899,5515 5892,5510 5864,5541C5854,5553 5791,5608 5725,5664C5571,5793 5564,5800 5459,5955C5365,6094 5276,6201 5195,6273C5043,6408 4767,6540 4636,6540C4588,6540 4556,6509 4565,6472C4574,6433 4586,6425 4689,6391C4874,6328 5028,6234 5156,6105C5201,6060 5242,6014 5248,6003C5259,5984 5255,5984 5187,6011C5147,6026 5067,6048 5010,6060C4920,6079 4883,6081 4750,6077C4562,6071 4455,6046 4294,5971C4182,5920 4159,5914 3947,5890C3734,5865 3552,5774 3439,5637C3396,5584 3333,5469 3292,5369C3285,5350 3255,5330 3178,5292C3008,5208 2923,5124 2840,4955C2807,4888 2766,4825 2716,4766C2587,4612 2540,4497 2540,4329C2540,4220 2568,4110 2619,4014C2708,3850 2806,3751 2976,3654L3085,3592L3083,3554C3081,3533 3075,3500 3069,3481L3057,3446L3038,3486C3027,3507 3011,3531 3002,3537C2976,3558 2932,3553 2915,3527C2898,3500 2906,3467 2946,3396C2978,3340 2976,3335 2931,3361C2869,3396 2802,3470 2710,3608C2633,3722 2621,3735 2593,3738C2552,3742 2524,3705 2534,3659C2542,3615 2612,3491 2676,3406C2706,3367 2725,3333 2720,3332C2691,3322 2660,3345 2617,3408C2591,3445 2536,3507 2495,3544C2409,3621 2394,3646 2338,3809C2288,3955 2259,4009 2191,4082C2100,4182 1989,4230 1855,4230C1691,4230 1523,4131 1567,4061C1583,4036 1614,4037 1697,4065C1845,4116 1984,4088 2076,3988C2137,3922 2159,3879 2206,3738C2259,3580 2286,3536 2387,3444C2431,3404 2477,3352 2492,3323C2552,3214 2568,3069 2528,3010C2486,2948 2481,2958 2487,3102C2492,3208 2489,3247 2477,3291C2457,3359 2426,3400 2395,3400C2351,3400 2345,3379 2345,3206C2344,3020 2333,2962 2288,2925C2253,2895 2230,2894 2199,2919C2177,2937 2176,2939 2188,3016C2195,3060 2200,3117 2200,3144C2200,3207.27 2184.42,3291.31 2168.6,3327.24C2149.29,3371.13 2064.21,3377.62 2058.84,3327.86C2056.78,3308.74 2054.54,3276.1 2054,3213C2053,3049 2036,2945 2004,2913C1977,2886 1960,2884 1914,2906C1854,2935 1848,2958 1850,3168C1850.88,3258.78 1850.39,3341.02 1851,3365.41C1853.4,3462.29 1751.74,3436.52 1737.88,3384.51C1729.45,3352.87 1716.15,3301.36 1710,3203C1705,3121 1700,3043 1700,3028C1700,3003 1696,3000 1666,3000C1640,3000 1623,3009 1595,3038C1518,3115 1504,3190 1537,3343C1562,3459 1561.22,3685.7 1536,3753C1506.93,3830.6 1416.71,3810.56 1413.54,3755.43C1411.78,3724.92 1410,3675.38 1410,3615C1410,3474 1398,3366 1381,3348C1371,3337 1200,3527 1183,3569C1172,3594 1169,3628 1172,3687C1176,3756 1182,3780 1213,3842C1278,3974 1383,4070 1662,4252C1989,4465 2163,4665 2280,4960C2349,5135 2412,5254 2554,5485C2629,5606 2693,5716 2697,5729C2707,5767 2680,5804 2642,5808C2623,5810 2602,5805 2593,5798C2564,5774 2357,5453 2282,5315C2265,5285 2267,5311 2291,5425C2354,5728 2476,5996 2659,6235C2889,6536 3219,6790 3470,6859C3533,6877 3552,6888 3600,6933C3686,7017 3740,7056 3826,7098C4006,7187 4121,7210 4370,7206C4535,7203 4564,7200 4635,7177ZM6966,6839C7145,6784 7296,6684 7486,6495C7620,6362 7721,6234 7799,6102C7833,6045 7831,6045 7755,6100C7688,6149 7600,6185 7566,6176C7534,6168 7515,6131 7524,6096C7528,6078 7551,6059 7600,6030C7871,5872 8129,5589 8284,5282C8329,5194 8403,5009 8396,5003C8386,4992 8266,5096 8219,5155C8153,5239 8057.37,5147.8 8105,5075C8175,4968 8249,4910 8460,4795C8612,4713 8682,4666 8780,4584C8991,4407 9093,4201 9061,4019C9034,3865 8943,3766 8735,3664C8525,3561 8344,3520 8020,3501C7883,3492 7838,3486 7755,3460C7626,3421 7477,3395 7265,3376C6928,3346 6667,3348 6559,3380C6472,3405 6360,3558 6360,3649C6360,3818 6624,3914 6993,3881C7146.65,3867.13 7218.76,3862.45 7257.3,3861.55C7329.03,3859.88 7344.99,3939.31 7290.22,3960.34C7265.05,3969.99 7222.66,3979.98 7145,3994C6974,4025 6841,4034 6729,4022C6672,4016 6624,4012 6622,4014C6615,4022 6780,4084 6869,4106C6935,4123 6993,4131 7055,4131C7203,4132 7274,4116 7611,4009C7696,3982 7780,3960 7798,3960C7865,3960 7892,4033 7840,4072C7826,4082 7712,4125 7585,4167L7355,4244L7430,4258C7539,4277 7931,4268 8112,4241C8315,4211 8412,4206 8519,4220C8668,4239 8775,4283 8798,4335C8815,4373 8813,4395 8786,4448C8727.98,4561.66 8555.61,4669.45 8460.71,4670.1C8419.41,4670.39 8369.2,4637.95 8399.5,4587.5C8411.61,4567.34 8443.5,4548 8495,4521C8578,4478 8649,4416 8633,4400C8597,4362 8365,4348 8224,4375C8071,4404 7992,4465 7805,4700C7733.3,4789.48 7687.66,4839.51 7658.89,4869.64C7593.7,4937.9 7498.65,4874 7546,4801C7570,4764 7787,4491 7823,4453L7854,4420L7704,4420C7622,4420 7515,4415 7466,4410L7376,4401L7342,4438C7244,4546 7155,4679 7028,4911C6931,5087 6862,5197 6834,5221C6791,5258 6740,5245 6726,5194C6719,5172 6728,5153 6851,4930C6995,4669 7068,4553 7162,4432C7189,4397 7210,4367 7208,4365C7195,4354 6992,4286 6908,4265C6757,4227 6621,4182 6571,4153C6544,4137 6529,4133 6533,4141C6576,4240 6591,4284 6601,4334L6613,4393L6679,4386C6715,4383 6808,4377 6886,4374C7021,4367 7028,4368 7049,4389C7086,4426 7076,4445 6957,4563C6721,4797 6607,5018 6441,5566C6419,5638 6395,5690 6359,5746C6291,5849 6225,5989 6205,6070C6165,6236 6178,6411 6239,6535C6293,6645 6427,6769 6543,6819C6669,6873 6831,6881 6966,6839ZM5022,5906C5285,5839 5508,5682 5963,5246C6058,5154 6143,5065 6152,5047C6161,5029 6194,4963 6224,4900C6263,4819 6297,4764 6340,4715C6427,4616 6452,4559 6458,4443C6461,4384 6459,4350 6453,4350C6447,4350 6440,4362 6437,4378C6428.79,4416.47 6409.01,4448.36 6385.34,4467.34C6362.87,4485.35 6287.3,4489 6293,4432C6295,4412 6310,4361 6326,4320C6351,4254 6354,4231 6354,4125C6355,4033 6351,3991 6336,3948C6306,3855 6296,3875 6306,4008C6324,4254 6315,4300 6249,4300C6209,4300 6193,4271 6176,4161C6129,3872 6150,3704 6260,3485C6293,3419 6320,3359 6320,3352C6320,3334 6270,3318 6235,3324C6195,3332 6136,3381 6105,3434C6064,3504 6012,3679 5999,3792C5977,3979 6018,4227 6095,4379C6143,4474 6154,4526 6147,4638C6141,4748 6098,4900 6055,4963C6034,4994 6023,5000 5995,5000C5969,5000 5956,4994 5943,4974C5927,4949 5927,4944 5942,4891C5951,4860 5968,4802 5979,4761C6007,4660 6007,4551 5979,4493C5954,4442 5922,4423 5846,4414C5784,4407 5782,4409 5799,4468C5818,4532 5773,4575 5711,4554C5694,4548 5676,4528 5660,4495C5637.02,4447.6 5627.75,4382.58 5630.2,4322.4C5634.7,4211.86 5641,4150 5748,3930C5876,3666 5980,3315 5980,3150C5980,3079 5957,2973 5932,2924C5875,2813 5732,2742 5651,2784C5603,2809 5615,2830 5702,2875C5831,2942 5889,3015 5912,3140C5927,3217 5910,3334 5874,3408C5826,3506 5742,3540 5550,3540C5344,3540 5253,3502 5194,3390C5179,3362 5175,3333 5175,3245C5175,3144 5177,3130 5204,3077C5238,3006 5324,2917 5403,2870C5469,2831 5472,2813 5420,2788C5335,2746 5262,2735 5075,2735C4859,2736 4782,2752 4624,2830C4512,2885 4433,2949 4392,3019C4367,3061 4365,3073 4367,3160C4369.25,3261.35 4354.92,3316.25 4345.43,3358.08C4327.77,3435.94 4240.83,3429.74 4233.11,3371.1C4229.97,3347.18 4226.82,3312.23 4225,3222C4222,3096 4224,3038 4234,3005C4247,2964 4247,2960 4231,2960C4200,2960 4146,3004 4121,3049C4093,3101 4091,3139 4109,3303C4128,3477 4110,3550 4047,3550C4004,3550 3988,3518 3979,3415C3969,3301 3945,3239 3898,3210C3859,3186 3810,3176 3781,3185C3738,3198 3739,3220 3794,3331C3852,3449 3885,3566 3902,3722C3912,3807 3911,3860 3899,3996C3882,4203 3881,4481 3898,4574C3914,4658 3962,4811 3995,4883C4036,4970 4021,5040 3961,5040C3926,5040 3900,5012 3862,4935C3762,4733 3717,4454 3740,4183C3746,4107 3754,3982 3757,3905C3766,3669 3723,3482 3623,3321C3553,3208 3486,3145 3413,3124C3317,3096 3253,3116 3202,3191C3174,3231 3176,3279 3211,3425C3239,3544 3240,3646 3212,3730C3201,3766 3137,3906 3070,4042C3002.16,4181.59 2971.23,4245.89 2949.56,4273.64C2917.03,4315.29 2841.61,4283.56 2848.01,4218C2853.35,4163.36 2890.32,4068.87 2966,3916C2996,3856 3020,3804 3020,3803C3020,3789 2893,3890 2854,3934C2743,4058 2691,4184 2690,4326C2690,4471 2720,4542 2844,4685C2893,4742 2928,4796 2966,4875C3064,5079 3185,5167 3476,5245C3627,5286 3699,5325 3830,5437C3955,5544 3970,5570 3931,5609C3889,5651 3841,5634 3724,5535C3682,5499 3629,5459 3606,5445C3560,5419 3483,5394 3474,5403C3462,5415 3527,5516 3585,5576C3694,5687 3838,5742 4070,5760C4203,5771 4207,5772 4320,5824C4518,5917 4626,5941 4810,5935C4888,5932 4956,5923 5022,5906ZM5884,4234C5876,4208 5865,4158 5859,4122C5848,4060 5847,4058 5834,4081C5815,4115 5780,4228 5780,4256C5780,4279 5783,4280 5839,4280L5898,4280L5884,4234ZM3038,3168C3041,3151 3028,3150 2866,3150C2696,3150 2690,3151 2690,3170C2690,3190 2695,3190 2862,3188C3017,3185 3035,3183 3038,3168ZM5512,3115C5520,3096 5520,3084 5512,3064C5496,3031 5455,3035 5427,3072C5407,3099 5407,3100 5425,3120C5451,3149 5497,3147 5512,3115ZM5748,3128C5770.8,3102.8 5766.1,3084.8 5742.2,3060.2C5708.2,3025.2 5680,3033 5680,3072C5680,3123 5721.43,3157.36 5748,3128ZM3116,3029C3141,3012 3188,2993 3223,2985C3280,2973 3262,2972 2983,2971C2816,2970 2680,2973 2680,2978C2680,2982 2685,3002 2691,3023L2701,3060L3071,3060L3116,3029ZM3975,3003L3989,2970L3545,2972L3670,2990C3739,3001 3824,3016 3860,3024C3947,3043 3959,3041 3975,3003Z" style="fill-rule:nonzero;"/>
        <path d="M3700,6693C3553,6640 3357,6482 3247,6328C3194,6253 3130,6126 3130,6095C3130,6058 3158,6030 3196,6030C3227,6030 3234,6035 3258,6076C3383,6287 3499,6414 3660,6518C3712,6552 3763,6587 3773,6596C3798,6621 3794,6655 3764,6679C3737,6700 3727,6703 3700,6693Z" style="fill-rule:nonzero;"/>
        <path d="M4740,4557C4709,4542 4701,4490 4724,4455C4733,4441 4740,4429 4740,4427C4740,4421 4507,4467 4445,4485C4376,4505 4347,4504 4327,4482C4303,4456 4306,4417 4333,4393C4365,4362 4466,4331 4618,4304C4691,4291 4755,4278 4760,4275C4788,4258 4775.8,4193 4699.8,4074C4690.14,4058.08 4683.55,4039.26 4675.74,4025.03C4637.81,3955.89 4707.47,3915.86 4759.16,3949.9C4813.57,3985.74 4866.29,4058.01 4902,4156C4929,4231 4931,4345 4907,4416C4870,4524 4797,4586 4740,4557Z" style="fill-rule:nonzero;"/>
    </g>
</svg>
