<?xml version="1.0" encoding="UTF-8" standalone="no"?>
<!DOCTYPE svg PUBLIC "-//W3C//DTD SVG 1.1//EN" "http://www.w3.org/Graphics/SVG/1.1/DTD/svg11.dtd">
<svg width="100%" height="100%" viewBox="0 0 4267 4267" version="1.1" xmlns="http://www.w3.org/2000/svg" xmlns:xlink="http://www.w3.org/1999/xlink" xml:space="preserve" xmlns:serif="http://www.serif.com/" style="fill-rule:evenodd;clip-rule:evenodd;stroke-linejoin:round;stroke-miterlimit:2;">
    <g transform="matrix(0.416699,0,0,-0.416699,0,4267)">
        <path d="M6550,8024C5994,7976 5468,7790 5094,7509C5011,7447 4994,7438 4914,7420C4499,7324 4184,7108 3955,6763C3929,6723 3904,6690 3900,6690C3883,6690 3452,6405 3338,6319C2453,5652 1835,4694 1730,3830C1712,3683 1717,3448 1741,3340C1752,3288 1762,3239 1763,3231C1764,3220 1739,3212 1670,3199C1531,3174 1454,3152 1372,3114C1218,3043 1118,2950 1056,2820C1030,2764 1025,2744 1025,2675C1025,2631 1029,2578 1034,2558L1042,2520L884.805,2520C796.405,2520 801.002,2367 883,2365C899.8,2364.59 2803,2361 5123,2362L9342,2365C9420.11,2365 9423,2520.91 9340,2518.6C9304,2517.6 9077,2520 9077,2520L9108,2554C9118,2565 9130,2583 9133,2593C9137,2603 9099,2727 9044,2888C8991,3040 8926,3231 8899,3311C8871,3391 8840,3471 8829,3489C8803,3532 8748,3555 8610,3579C8075,3673 7302,3673 6740,3579C6595,3555 6515,3528 6494,3495C6486,3483 6459,3414 6434,3344C6276,2895 6190,2634 6190,2606C6190,2593 6199,2571 6210,2557C6221,2543 6230,2530 6230,2527C6230,2525 6213,2516.8 6193,2517.8C6172,2518.8 5981.8,2520.4 5981.8,2520.4L6005,2560C6029,2607 6024,2692 5993,2756C5951,2843 5850,2919 5778,2920C5721,2920 5603,3067 5553,3198C5500,3339 5498,3370 5493,3886L5488,4367L5591,4425C5929,4617 6213,4928 6317,5222C6337,5280 6344,5320 6347,5416L6352,5537L6389,5529C6409,5524 6459,5520 6500,5520L6575,5520L6594,5480C6639,5386 6770,5280 6885,5243C6913,5235 6984,5225 7044,5221C7107.79,5216.75 7231.58,5222.55 7347,5255C7417.51,5274.82 7532,5324 7544,5343C7554,5358 7560,5421 7565,5550C7573,5788 7587,5942 7605,6005C7626,6077 7660,6121 7746,6186C7962,6349 8072,6571 8087,6875C8099,7121 8021,7376 7873,7575C7763,7723 7617,7842 7465,7908C7268,7993 7116,8021 6815,8025C6694,8026 6575,8026 6550,8024ZM7034,7849C7342,7817 7573,7697 7731,7487C7858,7318 7910,7171 7917,6955C7921,6839 7918,6799 7901,6723C7861,6540 7787,6424 7631,6302C7582,6263 7533,6218 7521,6201C7452,6104 7424,5981 7414,5720L7407,5547L7387,5574C7366,5604 7321,5630 7292,5630C7270,5630 7229,5588 7206,5543C7186,5503 7185,5430 7205,5404C7213,5394 7220,5381 7220,5376C7220,5372 7165,5370 7098,5372C6910,5379 6829,5419 6748,5544C6707,5608 6670,5712 6670,5764C6670,5790 6677,5799 6710,5818C6744,5837 6750,5845 6750,5875C6750,5973 6586,5976 6533,5878C6520,5854 6515,5823 6515,5763L6515,5680L6454,5680C6370,5680 6300,5703 6243,5750C6184,5800 6156,5808 6130,5785C6102,5760 6105,5719 6140,5649C6185,5560 6198,5454 6176,5345C6167,5299 6149,5237 6136,5208L6112,5155L6111,5206C6109,5317 6032,5529 5964,5610C5918,5664 5830,5644 5830,5578C5830,5562 5848,5513 5871,5469C5921,5369 5949,5264 5957,5145C5963,5044 5952,4976 5918,4903L5895,4855L5890,4916C5884,4987 5862,5020 5820,5020C5776,5020 5757,4989 5744,4891C5737,4842 5724,4785 5714,4764C5689,4709 5579,4606 5492,4555C5422,4514 5416,4512 5394,4526C5382,4535 5359,4540 5343,4538C5320,4536 5309,4522 5275,4462C5227,4375 5163,4286 5115,4240L5080,4206L5080,4239C5080,4293 5119,4468 5146,4534C5173,4601 5213,4662 5272,4727C5333,4796 5318,4870 5243,4870C5199,4870 5153,4835 5093,4756C4926,4535 4878,4197 4941,3695C4974,3428 5027,3256 5151,3007C5237,2837 5245,2830 5375,2830C5473,2829 5520,2817 5580,2775C5624,2745 5670,2664 5670,2618C5670,2582 5646,2535 5625,2526C5585,2511 5573,2519 5561,2567C5543,2635 5524,2666 5483,2695C5411,2743 5362,2718 5410,2657C5436,2624 5460,2567 5460,2539C5460,2517 5459,2517 5317,2523C5094,2534 5016,2561 4915,2664C4809,2773 4766,2896 4752,3135C4749.18,3182.63 4747.57,3211.37 4744.71,3229.54C4738.2,3270.81 4668.55,3292.97 4628.81,3239.43C4610.09,3214.19 4605,3171.23 4605,3098C4605,2988 4598,2991 4558,3115C4539,3174 4536,3204 4538,3310C4539,3379 4541,3455 4542,3480C4542.96,3492.5 4542.94,3501.68 4542.54,3508.92C4538.52,3581.8 4453.04,3548.1 4434.17,3521.4C4414.73,3493.89 4398.93,3456.33 4392,3404L4384,3345L4365,3420C4350,3476 4345,3526 4346,3615C4347,3755 4364,3834 4414,3940C4456,4027 4450.82,4052.2 4428,4077C4405,4102 4380,4106 4350,4090C4324,4076 4271,3997 4250,3941L4232,3895L4216,3950C4177,4082 4173,4189 4202,4310C4220,4386 4274,4492 4324,4550C4352.28,4583.52 4367.9,4607.73 4375.18,4627.78C4390.62,4670.29 4369.12,4730.83 4286.02,4706.68C4269.32,4701.83 4253.46,4686.78 4216,4648C4182,4613 4146,4568 4137,4548C4127,4527 4117,4510 4114,4510C4106,4510 4120,4608 4141,4697C4176,4852 4245,4969 4360,5069C4411,5114 4420,5126 4420,5155C4420,5189 4384,5230 4353,5230C4288,5230 4115,5060 4051,4931C3987,4805 3953,4620 3964,4462C3971,4366 4004,4129 4021,4052C4044,3947 4096,3824 4151,3743C4178,3705 4180,3694 4180,3610C4180,3498 4201,3391 4245,3281C4283,3186 4283,3187 4216,3081L4175,3018L4110,3024C4074,3027 3949,3030 3832,3030L3619,3030L3686,3108C3859,3310 3947,3546 3957,3835C3963,4007 3949,4106 3899,4244C3835,4422 3683,4597 3524,4678C3386,4748 3144,4766 2970,4718C2759,4660 2683,4597 2735,4523C2761,4487 2799,4486 2885,4520C3159,4629 3405,4597 3583,4430C3903,4131 3862,3498 3500,3157C3408,3070 3349,3032 3230,2986C3178,2965 3129,2942 3121,2935C3101,2915 3103,2864 3126,2839C3143,2820 3152,2818 3210,2823C3246,2827 3316,2836 3367,2844C3431,2854 3558,2860 3777,2862C4159,2866 4179,2862 4266,2776C4342,2700 4360,2610 4312,2550C4291,2524 4183,2508 4176,2531C4174,2539 4167,2565 4160,2590C4137,2674 4034,2749 3973,2726C3959,2720 3962,2714 3992,2682C4045,2627 4087,2531 4058,2529C4051,2529 3693,2528 3264,2527L2482,2525L2534,2581C2597,2649 2653,2732 2686,2806C2719,2881 2760,3024 2760,3065C2760,3108 2726,3150 2691,3150C2646,3150 2625,3126 2601,3048C2545,2863 2483,2758 2381,2674C2270,2582 2114,2534 1948,2542C1870,2545 1847,2550 1803,2574C1737,2611 1656,2691 1629,2749C1618.24,2771.22 1605.04,2787.19 1597.98,2802.7C1562.18,2881.29 1455.2,2831.2 1460,2767C1464.03,2713.15 1510,2616 1569,2553C1581,2541 1590,2529 1590,2527C1590,2524 1507,2522 1405,2521L1219,2519L1204,2556C1196,2576 1186,2614 1183,2641C1170,2749 1274,2882 1433,2960C1499,2993 1549,3008 1681,3034C1873,3073 1915,3090 1937,3136C1952,3167 1952,3175 1927,3267C1861,3517 1866,3792 1945,4094C2004,4321 2080,4516 2200,4747C2485,5298 2939,5821 3470,6210C3576,6288 3867,6480 3971,6541C4004,6560 4037,6597 4096,6681C4200,6828 4288,6921 4403,7009C4576,7141 4728,7209 5008,7281C5078,7299 5105,7313 5173,7363C5313,7467 5400,7520 5545,7590C5997,7809 6530,7902 7034,7849ZM5323,3823C5330,3335 5347,3226 5443,3045L5478,2980L5419,2980C5349,2980 5353,2976 5260,3165C5169,3352 5125,3522 5094,3799L5078,3950L5189,4067C5250,4132 5300,4188 5300,4192C5300,4197 5304,4200 5309,4200C5313,4200 5320,4030 5323,3823ZM8115,3477C8203,3470 8270,3462 8265,3458C8239,3442 7688,3430 7425,3440C7088,3454 7022,3464 7205,3474C7277,3478 7342,3483 7350,3484C7390,3493 7974,3487 8115,3477ZM6705,3345C6914,3302 7245,3280 7700,3280C8140,3280 8412,3300 8628,3346C8670,3355 8705,3359 8710,3354C8719,3345 8780,3168 8780,3152C8780,3142 8635,3108 8471,3080C8408,3069 8352,3056 8347,3051C8342,3046 8340,3034 8344,3024C8350,3009 8364.4,2998.4 8450.4,3003.4C8536.4,3009.4 8751.4,3047.4 8793.4,3064.4C8806.4,3070.4 8816,3054 8859,2931C8887,2849 8905.2,2792.4 8905.2,2787.4C8905.2,2775.4 8669.2,2729.4 8505.2,2709.4C8222.2,2674.4 8218,2658 8235,2629C8241,2620 8285,2619 8419,2623C8621,2631 8821,2655 8921,2686C8932,2689 8941,2681 8950,2660C8957,2643 8960,2627 8957,2624C8937,2604 8712,2567 8430,2538C8256,2520 7143,2520 6935,2538C6750,2554 6580,2575 6475,2596C6355,2619 6357,2618 6365,2648C6368,2663 6375,2678 6379,2683C6383,2687 6418,2684 6456,2676C6564,2653 6859,2621 7030,2614C7192,2607 7368,2616 7354,2630C7344,2639 7178,2678.8 6990,2696.8C6760,2718.8 6452,2766.8 6422,2785.8C6413,2790.8 6425,2819 6463,2931L6515,3071.6L6605,3048.6C6701,3024.6 6904,2995.6 6976,2995.6C7021,2995.6 7044,3030 7023,3051C7018,3056 6935,3073 6838,3089C6678,3116 6554,3143 6544,3153C6541,3156 6579,3278 6605,3348C6611,3363 6620,3363 6705,3345ZM4466,2903C4465,2902 4442,2912 4415,2925C4389,2939 4360,2950 4352,2950C4336,2950 4336,2951 4370,3007L4395,3049L4431,2977C4452,2937 4467,2904 4466,2903Z" style="fill-rule:nonzero;"/>
        <path d="M6640,7596C6374,7539 6122,7369 6060,7203C5995,7029 6012,6822 6110,6590C6131,6543 6146,6486 6151,6437C6171,6257 6224,6159 6330,6105C6425,6057 6523,6064 6655,6129C6757,6179 6844,6258 6915,6364C6982,6465 7017,6549 7069,6731C7118,6901 7143,6951 7219,7032C7291,7110 7298,7130 7268,7163C7246,7188 7229,7194 7184,7191C7149,7189 7072,7121 7026,7051C6971,6968 6960,6942 6915,6779C6870,6618 6818,6504 6750,6418C6656,6302 6553,6240 6452,6240C6394,6240 6364,6259 6339,6314C6312,6374 6313,6590 6341,6720C6382,6909 6377,6940 6305,6940C6266,6940 6226,6900 6215,6849C6201,6785 6187,6839 6186,6962C6185,7070 6188,7091 6208,7135C6265,7260 6459,7390 6658,7436C6709,7448 6750,7450 6831,7445C6933,7439 6939,7439 6959,7461C7001,7507 6976,7564 6903,7588C6847,7607 6711,7610 6640,7596Z" style="fill-rule:nonzero;"/>
        <path d="M5573,7095C5532,7062 5456,6940 5430,6865C5308.95,6515.82 5446.96,6120 5565,5941C5656,5803 5709,5771 5758,5823C5793,5860 5786,5893 5725,5979C5601.73,6152.79 5473.79,6673.82 5646,6950C5699,7035 5705,7074 5671,7102C5640,7127 5611,7125 5573,7095Z" style="fill-rule:nonzero;"/>
        <path d="M7237,6542C7227,6532 7220,6516 7220,6506C7220,6478 7260,6410 7305,6361C7357,6304 7361,6294 7344,6252C7331,6220 7331,6219 7353,6226C7386,6236 7428,6259 7435,6270C7439,6276 7464,6292 7491,6305C7550,6336 7562,6366 7534,6418C7511,6462 7418,6523 7345,6545C7276,6565 7257,6564 7237,6542Z" style="fill-rule:nonzero;"/>
        <path d="M4309,5958C4221,5867 4151,5744 4101,5594C4071,5504 4040,5346 4040,5279C4040,5211 4108,5176 4160,5218C4178,5233 4187,5258 4201,5341C4236,5539 4300,5701 4393,5825C4446,5896 4455,5922 4439,5952C4423,5983 4411,5990 4373,5990C4349,5990 4332,5981 4309,5958Z" style="fill-rule:nonzero;"/>
        <g transform="matrix(0.921227,-0.208992,0.209329,0.92271,41.9596,1820.08)">
            <path d="M7654,3105C7637.2,3085.8 7629.55,3053.8 7632,3020C7637,2951 7660.6,2930 7695,2930C7736.2,2930 7763,2959 7764,3019C7766,3110 7701.49,3159.28 7654,3105Z" style="fill-rule:nonzero;"/>
        </g>
        <g transform="matrix(0.887074,0.236881,-0.22549,0.844417,1482.05,-1357.73)">
            <path d="M7465,3010C7439,2982 7448,2889 7480,2855C7541,2790 7614,2864 7579,2957C7554,3024 7500,3049 7465,3010Z" style="fill-rule:nonzero;"/>
        </g>
        <g transform="matrix(0.935194,0.00711216,-0.00703645,0.925238,596.679,227.929)">
            <path d="M7465,3010C7439,2982 7448,2889 7480,2855C7541,2790 7614,2864 7579,2957C7554,3024 7500,3049 7465,3010Z" style="fill-rule:nonzero;"/>
        </g>
        <g transform="matrix(0.863458,-0.40173,0.403613,0.867506,-83.2047,3527.9)">
            <path d="M7847,3004C7801,2958 7798,2880 7841,2848C7861,2833 7871,2831 7893,2839C7947,2860 7971,2969 7930,3010C7903,3037 7878,3035 7847,3004Z" style="fill-rule:nonzero;"/>
        </g>
        <path d="M7655,2880C7643,2876 7613,2846 7587,2814C7530,2746 7526,2704 7573,2682C7589.8,2674.14 7615.6,2678.2 7645,2691L7689,2713L7745,2692C7790,2675 7805,2673 7825,2682C7880,2707 7870,2756 7796,2833C7740,2892 7709,2902 7655,2880Z" style="fill-rule:nonzero;"/>
    </g>
</svg>
