<?xml version="1.0" encoding="UTF-8"?>
<svg id="Capa_2" xmlns="http://www.w3.org/2000/svg" viewBox="0 0 243.3 243.3">
  <defs>
    <style>
      .cls-1 {
        fill: #fff;
      }

      .cls-2 {
        fill: none;
      }

      .cls-3 {
        fill: #4f3535;
      }

      .cls-4 {
        fill: #d9472e;
      }
    </style>
  </defs>
  <g id="grocery_icons">
    <g>
      <rect class="cls-2" width="243.3" height="243.3"/>
      <g>
        <path class="cls-4" d="M204.06,114.61c-3.19-5.59-7.03-10.49-11.7-14.47-11.72-9.98-27.58-11.83-42.38-12.45-12.09-.5-24.16-1.46-36.23-2.18-18.16-1.09-38.46-3.56-55.37,5.24-26.39,13.74-36.15,53.5-26.75,80.62,9.4,27.11,28.92,41.21,54.59,36.87,25.67-4.34,36.87-5.06,53.14-.36,16.27,4.7,49.17,7.59,66.16-18.08,16.99-25.67,7.23-60.01-1.45-75.19Z"/>
        <path class="cls-1" d="M76.43,95.48c-7.18,1.78-13.86,6.05-19.13,11.21-4.69,4.59-9.91,11.57-7.92,18.45.57,1.96,2.97,2.53,4.43,1.17,4.25-3.97,6.05-9.98,9.96-14.36,4.24-4.74,9.66-7.81,14.75-11.51,2.4-1.75,1.06-5.74-2.09-4.96h0Z"/>
        <path class="cls-1" d="M47.44,137.97l.62,1.08c.7,1.23,2.56,1.23,3.26,0,.21-.36.41-.72.62-1.08.98-1.71-.26-3.93-2.25-3.93s-3.24,2.21-2.25,3.93h0Z"/>
        <path class="cls-1" d="M178.79,193.22c4.13-.11,7.76-1.18,10.75-4.21,2.79-2.84,5.72-7.98,2.47-11.47-.96-1.03-2.47-1.05-3.65-.47-2.55,1.25-2.85,4.2-4.48,6.28-1.4,1.79-3.6,3.77-5.82,4.42-2.95.86-2.46,5.54.74,5.46h0Z"/>
        <g>
          <path class="cls-1" d="M151.71,126.12c-6.82,0-13.3-1.72-19.25-5.11-7.49-4.27-11.69-10.02-15.69-17.34l-.56-1.02-.93.71c-9.95,7.62-24.28,13.04-42.59,16.11-.09.01-.17.02-.25.02-.64,0-1.1-.4-1.27-.81-.12-.28-.17-.72.28-1.2,5.78-6.06,11.11-11.44,17.78-15.83,3.76-2.47,7.89-4.36,11.88-6.18.79-.36,1.58-.72,2.36-1.08l3.04-1.41-3.32-.49c-8.12-1.19-15.44-5.28-19.59-10.92-5.61-7.65-5.66-17.68-.12-24.4.17-.21.36-.31.6-.31.52,0,1.13.45,1.33.98,5.44,14.72,19.39,24.78,35.54,25.63l.91.05.13-.9c1.61-10.95,5.48-25.65,14.78-33.51,2.33-1.97,5.43-3.1,8.53-3.1s5.49,1.07,6.83,2.93c1.32,1.83,1.48,4.38.47,7.39-1.38,4.14-4.9,7.71-8,10.87l-1.1,1.12c-1.98,2.04-4.22,4.34-6.1,6.93-1.73,2.4-5.54,8.21-3.61,10.33.4.44.98.49,1.39.49,1.55,0,4.62-.88,7.71-1.83l.73-.22c3.55-1.06,6.95-2.36,10.12-3.87,6.64-3.14,12.7-7.06,18.02-11.66.36-.31.75-.47,1.13-.47.41,0,.81.19,1.1.52.34.4.48.94.39,1.52-1.36,9.01-5.97,16.55-13.31,21.79-7.83,5.59-16.53,6.83-24.76,7.35l-1.83.11,1.08,1.48c5.06,6.89,12.22,15.57,22.84,21.53.69.39.93,1.33.79,2.06-.07.41-.32,1.11-1.13,1.24-2.11.33-4.25.5-6.35.5Z"/>
          <path class="cls-3" d="M171.1,67.73c-5.4,4.67-11.34,8.46-17.79,11.51-3.22,1.53-6.56,2.79-9.97,3.81-1.43.42-8.12,2.61-8.81,1.85-1.43-1.57,2.78-7.82,3.68-9.07,1.78-2.45,3.91-4.66,6.01-6.82,3.47-3.57,7.71-7.51,9.33-12.37,4-11.93-9.9-14.67-17.42-8.3-9.36,7.92-13.38,22.3-15.12,34.13-15.38-.81-29.26-10.36-34.66-24.98-.51-1.38-2.51-2.34-3.64-.96-6.09,7.39-5.47,18.05.09,25.63,4.59,6.25,12.35,10.16,20.25,11.32-4.86,2.25-9.81,4.33-14.37,7.33-6.83,4.5-12.33,10.08-17.95,15.97-1.61,1.68.05,4.01,2.13,3.66,14.5-2.43,31-7.09,43.03-16.3,3.99,7.31,8.31,13.31,16.07,17.73,8.05,4.59,17.13,6.17,26.25,4.73,2.46-.39,2.64-4.05.67-5.16-9.44-5.3-16.27-12.73-22.52-21.25,9-.56,17.52-1.99,25.28-7.53,7.6-5.42,12.33-13.26,13.72-22.45.38-2.5-2.23-4.24-4.26-2.48ZM134.01,96.35c-1.35-.01-2.91,1.58-2.35,2.98,3.7,9.17,13.71,17.58,21.6,23.41-15.36-.27-31.14-10.83-33.62-23.23-.4-2.01-2.29-2.3-3.88-1.53-7.02,3.37-13.91,6.82-21.02,10.07-4.99,2.28-13.26,5.69-18.48,7.37,3.82-3.61,9.7-8.68,13.92-11.66,6.08-4.29,15.31-10.26,22.78-11.39,2.26-.34,1.95-2.78-.11-3.27-8.06-1.92-16.25-2.05-23.09-7.44-5.58-4.4-8.7-12.39-5.87-18.93-.21.49,1.63,3.03,1.93,3.52.72,1.19,1.5,2.34,2.34,3.45,1.66,2.2,3.52,4.26,5.57,6.11,4.07,3.7,8.84,6.63,14.01,8.53,2.49.91,5.03,1.73,7.65,2.15,2.58.41,5.76.91,7.89-1.02,2.91-2.65,3.77-6.93,4.69-10.58,1.11-4.44,3.48-8.94,5.63-12.97,1.97-3.68,7.73-14.43,13.27-9.77,1.94,1.64,1.3,2.69.2,4.82-.79,1.51-1.96,3.02-3.01,4.33-1.6,1.99-3.34,3.86-5.07,5.72-3.28,3.53-6.64,7.13-8.48,11.66-1.23,3.06-1.93,7.56.88,10.17,3.03,2.81,9.11.5,12.42-.39,8.86-2.37,19.21-9.49,26.54-14.79-5.61,14.73-22.91,22.8-36.34,22.68Z"/>
        </g>
      </g>
    </g>
  </g>
</svg>