<?xml version="1.0" encoding="UTF-8"?>
<svg id="Capa_2" xmlns="http://www.w3.org/2000/svg" viewBox="0 0 243.3 243.3">
  <defs>
    <style>
      .cls-1 {
        fill: #5a992f;
      }

      .cls-2 {
        fill: #fff;
      }

      .cls-3 {
        fill: none;
      }

      .cls-4 {
        fill: #4f3535;
      }
    </style>
  </defs>
  <g id="grocery_icons">
    <g>
      <rect class="cls-3" width="243.3" height="243.3"/>
      <g>
        <path class="cls-1" d="M209.71,82.06c-4.11-14.69-9.57-32.53-23.01-41.41-11.05-7.31-26.22-3.81-34.76,5.71-4.58,5.11-7.93,11.45-9.75,18.06-2.96,10.76-4.22,21.87-7.64,32.54-3.19,9.95-7.63,19.48-14.02,27.79-6.25,8.12-14.26,14.78-23.76,18.75-9.86,4.12-20.56,5.36-31.1,6.36-14.05,1.33-39.5.65-44.54,17.94-5.71,19.61,19.13,32.65,33.8,37.78,20.17,7.05,43.12,9.74,64.34,7.39,37.34-4.14,65.84-31.35,81.06-64.44,9.4-20.43,15.59-44.24,9.38-66.47Z"/>
        <path class="cls-4" d="M48.62,166.31c25.83,3.7,53.89-3.65,75.46-18.04,20.84-13.91,34.73-34.11,42.23-57.87,4.56-14.42,7.39-29.96,8.73-45.03.1-1.12-1.52-1.15-1.71-.1-2.89,16.57-4.99,33.07-10.59,49.04-5.25,14.96-13.4,28.42-24.78,39.52-10.39,10.13-22.93,17.94-36.45,23.18-17.11,6.63-34.6,8.2-52.78,7.48-1.19-.05-1.25,1.65-.1,1.82h0Z"/>
        <path class="cls-4" d="M49.71,179.72c32.74,11.36,70.41,8.86,99.65-10.61,23.91-15.92,39.66-40.88,42.66-69.46,1.33-12.65,2.83-29.56-4.65-40.71-.7-1.04-2.45-.23-1.79.91,5.85,10.06,5.06,23.97,4.17,35.14-.94,11.77-3.32,22.98-8.46,33.7-13.85,28.87-42.16,48.47-73.44,53.74-19.18,3.23-39.06,1.37-57.58-4.39-1.09-.34-1.64,1.3-.56,1.67h0Z"/>
        <path class="cls-2" d="M159.01,63.67c.75,0,1.46.44,1.55,1.24.08.75-.54,1.37-1.1,1.77s-.18,1.41.48,1.38c1.82-.07,3.04-1.81,2.76-3.58-.29-1.77-2.15-2.79-3.82-2.54-.96.15-.85,1.74.14,1.73h0Z"/>
        <path class="cls-2" d="M178.53,84.09c2.28.76,1.49,3.01.4,4.4-.54.68.24,1.51.96,1.41,1.93-.28,3.07-2.33,2.9-4.14-.17-1.93-1.63-3.48-3.52-3.86-1.42-.29-2.2,1.71-.74,2.2h0Z"/>
        <path class="cls-2" d="M169.08,120.01c.76-.2,1.65.23,1.7,1.1.06,1.06-1.25,1.16-1.66,1.88-.19.32-.21.79.08,1.08.83.81,2.09.33,2.83-.39s1.21-1.89,1.04-2.97c-.32-2.14-2.72-3.14-4.61-2.45-1,.36-.39,2.02.63,1.75h0Z"/>
        <path class="cls-2" d="M199.3,98.7c.22.58-.07,1.14.01,1.8l.03-.56c-.07.25-.12.5-.17.76-.1.52.54,1.02,1.02.88,1.72-.53,2.02-2.75.86-4.07-.35-.4-.98-.47-1.41-.16-.47.33-.55.85-.35,1.37h0Z"/>
        <path class="cls-2" d="M191.31,133.54c.7.47.24,1.84-.39,2.26-.69.46-.52,1.44.33,1.56,3.14.48,3.72-4.43,1.32-5.73-1.27-.69-2.5,1.07-1.26,1.9h0Z"/>
        <path class="cls-2" d="M148.13,95.4c1.1-.35.87,1.52.69,2.03-.32.96-.94,1.92-.66,2.95.12.45.64.77,1.08.51,1.58-.91,2.74-3.69,2.25-5.46-.51-1.81-2.33-3.08-4.13-2.2-1.15.56-.5,2.57.77,2.16h0Z"/>
        <path class="cls-2" d="M142.49,147.73c.44.31.51.87.42,1.37-.05.31-.15.62-.32.88-.08.13-.18.27-.26.4-.09.17-.08.16.03-.03-.1.09-.17.19-.23.31-.24.42-.12,1.04.41,1.19,1.53.43,2.72-1.17,2.86-2.54.15-1.52-.62-2.83-1.98-3.47-1.12-.53-1.89,1.23-.93,1.9h0Z"/>
        <path class="cls-2" d="M160.82,172.96c1.1.04,1.8,1.04,1.31,2.06-.22.46-.72.69-.88,1.18-.18.55.01,1.09.48,1.41.34.23.87.29,1.23.07,1.47-.88,2.36-2.53,1.92-4.26-.44-1.72-2.2-2.93-3.94-2.85-1.5.07-1.7,2.33-.13,2.39h0Z"/>
        <path class="cls-2" d="M109.38,193.42c.68-.02,1.84.06,2.21.77.13.25.03.96-.4.97-1.29.01-1.5,1.59-.41,2.12,2.09,1.02,4.07-1.65,3.61-3.56-.54-2.29-3.17-2.96-5.2-2.62-1.29.22-1.16,2.37.18,2.33h0Z"/>
        <path class="cls-2" d="M113.58,166.44c.15.03.2.11.04-.03.17.15-.13-.13-.01-.03.13.12.06.09,0-.03.04.07.09.15.13.22.13.17-.01-.15,0-.03,0,.01.06.21.05.21.03,0-.03-.29-.03,0,0,.16.02.33.05.49l.04-.64c-.02.11-.06.21-.09.32-.07.2-.08.4-.03.61,0-.19-.02-.23-.02-.11-.05.53.4.96.9,1.01.36.04.72-.05,1-.29.11-.09.21-.19.29-.31.1-.15.02-.1-.04,0,.13-.23.3-.34.39-.6.04-.12.08-.35.08-.5.01-.24-.01-.5-.06-.73-.23-1.01-1.13-1.91-2.23-1.84-.58.04-1.09.33-1.2.95-.09.51.19,1.22.76,1.33h0Z"/>
        <path class="cls-2" d="M76.19,157.23c.16,1.66,2.03,2.55,3.54,2.27,1.57-.29,3.57-2.37,3.16-4.06-.15-.62-.75-.83-1.31-.62-.93.35-1.19,1.46-1.94,2.03-.33.25-1.19.52-1.31-.09-.27-1.42-2.27-.9-2.14.46h0Z"/>
        <path class="cls-2" d="M64.37,190.84c1.63,1.01-.65,3-1.04,4.04-.23.63.46,1.06.99.86,2.46-.94,3.64-5,1.12-6.52-1.07-.65-2.15.96-1.08,1.63h0Z"/>
        <path class="cls-2" d="M32.68,170.76c1.6,1.21,1.19,2.5.85,4.19-.32,1.55.96,2.68,2.45,2.12,2.06-.78,2.65-3.45,2.23-5.42-.41-1.92-1.79-3.98-3.8-4.43-2.16-.49-3.61,2.13-1.73,3.54h0Z"/>
      </g>
    </g>
  </g>
</svg>