<?xml version="1.0" encoding="UTF-8"?>
<svg id="Capa_2" xmlns="http://www.w3.org/2000/svg" viewBox="0 0 243.3 243.3">
  <defs>
    <style>
      .cls-1 {
        fill: #fff;
      }

      .cls-2 {
        fill: none;
      }

      .cls-3 {
        fill: #4f3535;
      }

      .cls-4 {
        fill: #c0c728;
      }
    </style>
  </defs>
  <g id="grocery_icons">
    <g>
      <rect class="cls-2" width="243.3" height="243.3"/>
      <g>
        <path class="cls-4" d="M14.44,94.77s-7.36,4.83-6.03,8.68,4.43.82,18.07,5.67c13.64,4.85,28.68,18.15,36.33,35.84,7.65,17.69,5.15,51.75,16.34,66.6,11.19,14.85,21.05,18.62,36.69,16.78,15.64-1.84,19.81-5.15,19.81-5.15,0,0,17.22,6.16,30.75-5.17,13.53-11.33,13.42-30.8,16.74-44.56,3.31-13.77,9.83-28.83,20.83-38.47,11-9.65,23.79-15.24,28.45-21.22,4.67-5.97,1.85-9.08-2.8-13.61-4.65-4.53-11.76-6.28-11.76-6.28,0,0,8.37-9.7,2.89-17.02-5.48-7.32-16.3-1.84-16.3-1.84,0,0,11.31-15.35,2.3-23.11s-19.34,2.06-19.34,2.06c0,0,7.75-12.73-.57-16.37-8.32-3.65-14.16,4.59-14.16,4.59,0,0,1.76-15.47-7.62-17.25-13.06-2.48-17.97,13.79-17.97,13.79,0,0-3.91-13.76-15.58-11.51-11.68,2.25-15.81,16.94-15.81,16.94,0,0-4.62-14.59-15.36-15.03-9.94-.4-10.68,11.38-10.68,11.38,0,0-10.41-15.88-20.87-12.06-13.7,5-6.89,19.68-6.89,19.68,0,0-2.73,1.92-3.73,7.01-1,5.09.59,9.59.59,9.59,0,0-21.02-21.68-37.08-8.88-16.06,12.8,8.94,24.39,8.94,24.39,0,0-13.89-5.27-19.15,1.61-5.27,6.89,2.98,12.94,2.98,12.94Z"/>
        <path class="cls-1" d="M114.66,216.98c-14.92-4.62-20.95-17.32-23.68-31.81-2.17-11.5-2.24-25.99-9.66-35.66-.74-.96-2.48-.26-2,.99,2.88,7.46,5.36,14.39,6.71,22.34,1.29,7.58,2.19,15.26,4.59,22.6,3.72,11.37,11.37,21.26,23.64,23.46,1.26.23,1.59-1.55.4-1.92h0Z"/>
        <path class="cls-1" d="M141.03,214.18c12.41-6.9,15.41-21.09,18.46-33.82,1.85-7.72,4.38-15.16,8.1-22.19,3.61-6.81,8.72-12.4,12.81-18.84.62-.98-.8-2.22-1.7-1.5-9.83,7.8-16.13,22.03-19.69,33.73-4.37,14.35-4.64,32.52-18.97,41.15-.98.59,0,2.02.99,1.47h0Z"/>
        <path class="cls-1" d="M143.63,178.32c2.55-8.55,3.91-18.06,1.7-26.84-.25-1.01-1.76-.62-1.74.34.2,8.93.51,17.36-1.51,26.17-.23,1,1.26,1.28,1.54.33h0Z"/>
        <path class="cls-1" d="M189.52,130.76c1.98-.67,4.28-1.68,5.62-3.35.6-.74-.26-1.67-1.07-1.22-1.76.97-3.22,2.13-5.16,2.8-1.13.39-.54,2.15.61,1.77h0Z"/>
        <path class="cls-1" d="M101.54,173.61c.35-5.48,3.24-9.59,7.22-13.12.9-.8-.38-2.06-1.32-1.51-5.12,3.01-7.78,9.02-8.03,14.76-.06,1.38,2.04,1.21,2.13-.13h0Z"/>
        <path class="cls-1" d="M76.53,134.9c-.87-2.52-1.56-5.24-2.76-7.63-.4-.81-1.88-.31-1.71.58.51,2.62,1.62,5.21,2.46,7.74.43,1.29,2.45.6,2-.69h0Z"/>
        <path class="cls-1" d="M110.01,127.78c-1.64-8.2-.7-16.19,1.9-24.07.29-.87-1.1-1.31-1.49-.52-3.99,7.96-4.55,16.7-2.46,25.3.33,1.38,2.32.63,2.06-.7h0Z"/>
        <path class="cls-1" d="M79.54,91.87c-.06-4.96.2-9.92.04-14.88-.03-.83-1.35-.95-1.48-.11-.77,5.02-.75,10.05-.65,15.11.03,1.35,2.11,1.22,2.09-.13h0Z"/>
        <path class="cls-1" d="M164.01,99.37c.01-3.91-.13-7.81-1.17-11.59-.31-1.12-2.01-.72-1.96.39.15,3.79.65,7.55.72,11.35.03,1.57,2.41,1.4,2.42-.15h0Z"/>
        <path class="cls-1" d="M189.06,79.02c-.11-1.42.18-2.74.36-4.14.15-1.13-1.31-1.69-1.89-.66-.84,1.48-.98,3.28-.9,4.95.07,1.57,2.55,1.42,2.44-.15h0Z"/>
        <path class="cls-1" d="M127.85,74.76c.33-3.67,1.72-6.78,2.77-10.25.28-.92-1.08-1.57-1.66-.84-2.29,2.9-3.09,7.01-3.36,10.61-.11,1.45,2.12,1.96,2.26.48h0Z"/>
        <path class="cls-1" d="M106.37,64.94c-.35-1.75-.61-3.47-1.39-5.09-.44-.9-1.64-.67-1.7.34-.12,1.9.35,3.71.71,5.56.13.67,1.02.98,1.6.78.72-.24.91-.94.78-1.6h0Z"/>
        <path class="cls-1" d="M160.39,58.02c-.19-3.23-.05-6.73-.96-9.85-.29-1.01-1.9-.91-2.07.13-.52,3.22.04,6.67.25,9.9.12,1.79,2.89,1.62,2.78-.17h0Z"/>
        <g>
          <path class="cls-3" d="M139.89,137.23c-.31-.23-.63-.45-.95-.68-.35-.46-1-.61-1.54-.47-7.36-2.87-16.4-.86-22.61,3.64-5.67-1.85-12.03-1.19-17.91-.23.32-6.68.07-13.41-.02-20.09-.07-5.59.21-13.24-3.47-17.9-6.1-7.73-12.38-.67-16.37,5.8-2.01-11.3-7.07-23.56-19.11-26.24-9.83-2.18-20.6,6.54-16.77,16.65-5.17,1.51-10.3,2.54-15.48,3.29-1.34-.92-3.01-1.39-4.53-1.92-1.82-.64-3.45-1.41-5.08-2.44-.77-.49-1.64.78-.91,1.34,1.5,1.14,3.31,2.62,5.23,3.7-3.54.4-7.11.73-10.74,1.03-1.69.14-1.49,2.55.16,2.59,11.14.26,22.86-2.31,33.48-5.54.87-.26,1-1.22.65-1.92-2.77-5.44.43-11.61,6.11-13.28,5.03-1.48,10.38.21,14.15,3.69,7.2,6.66,8.06,16.67,9.89,25.71.41,2.02,3.32,1.45,3.75-.23.81-3.25,5.61-14,10.89-11.74,4.15,1.78,3.88,9.38,4.29,13,1.01,8.94.76,17.42-.02,26.38-.1,1.12.64,2.53,2.01,2.32,8.98-1.37,20.91-2.6,26.01,6.82,5.03,9.28,1.34,21.74,0,31.6-1.23,9.03-3.13,18.71-.28,27.63,2.17,6.81,7.54,13,14.96,13.45,2.03.12,2.64-3.17.8-3.9-11.88-4.7-13.23-15.83-11.8-27.3,1.27-10.14,3.79-20.59,3.61-30.83-.13-7.52-2.66-15.35-9.3-19.55-.13-.08-.26-.13-.39-.2,6.44-3.79,12.94-3.27,20.12-.81,1.93.66,3.05-2.58,1.18-3.38Z"/>
          <path class="cls-3" d="M216.93,99.86c-.69-.28-1.39-.47-2.1-.62.33-.37.65-.74.95-1.13.76-1.01,1.64-1.92,2.42-2.9.72-.9-.33-2.17-1.34-1.53-1.14.72-2.16,1.69-3.14,2.62-.46.44-.88.9-1.27,1.4-.33.42-.58.88-.84,1.34-2.98.18-5.8,1.43-7.89,3.58-1.75-5.38-4.04-11.54-8.51-14.54-4.21-2.83-9.57-2.57-13.95-.28-5.04,2.63-8.31,7.54-9.8,12.93-1.05,3.77-2.08,8.85-1.93,13.46-2.76-2.19-5.78-4.05-8.91-5.78-4.45-2.46-8.88-4.08-13.89-2.19-1.61.61-2.99,1.41-4.19,2.33-2.68-6.63-11.01-8.28-17.18-5.37-.15-3.27-.26-6.64-.59-9.97,1.32-2.86,2.7-5.46,5.93-6.61,5.03-1.79,10.16-.48,14.38,2.57,1.07.77,3.2.24,2.91-1.42-.69-3.89-1.65-7.13.1-10.95,1.59-3.49,4.37-6.24,7.95-7.6,7.2-2.74,14.24-.2,20.37,3.77,1.26.81,2.8-.5,2.74-1.8-.35-7.9,6.93-13.25,12.25-17.56,1.24-1.01.37-3.11-1.28-2.59-3.84,1.22-7.1,4.23-9.44,7.44-2.32,3.19-3.08,6.53-4.33,9.99-6.96-4.24-15.8-6.09-23.15-1.64-1.1.67-2.07,1.43-2.97,2.25.17-7.68-2.33-17.54-8.42-21.36-6.72-4.21-15.91.06-22.15,4.13-1.34-4.62-2.97-9.09-5.19-13.38-.73-1.41-3.06-.23-2.49,1.23,1.98,5.02,3.85,10.02,5.22,15.25.25.96,1.64,1.43,2.43.82,5.18-4.07,17.32-9.73,22.15-2.71,4.32,6.29,3.39,13.55,4.88,20.56,0,.04.03.07.05.11-.34.68-.68,1.37-.93,2.13-.86,2.61-1.47,5.92-1.48,8.99-7.28-3.37-15.45-2.15-20.12,3.98-1.12-6.3-3.5-12.15-9.04-16.35-6.48-4.91-15.23-4.3-21.85-.21-1.26-11.86-3.61-26.47-16.62-30.18-5.58-1.59-10.71,1.19-14.45,5.29-4.61,5.07-5.42,10.12-4.92,16.68.14,1.83,2.95,1.66,2.85-.17-.24-4.55.68-10.47,3.7-14,4.85-5.67,11.38-6.39,17.03-1.33,7.36,6.6,7.46,18.64,8.5,27.78.21,1.86,2.45,2.68,3.76,1.29,6.65-7,17.57-5.38,22.88,2.31,5.14,7.45,5.92,18.12,5.62,26.85-.05,1.47,1.92,2.35,3.05,1.51,4.98-3.75,12.22-2.64,14.92,3.22,0,.01.02.02.02.03-4.36,5.83-4.64,14.44-4.02,21.76.12,1.37,2.21,1.25,2.13-.13-.46-8.59.86-20.78,10.85-23.61,7.57-2.14,18.13,6.66,22.74,11.74,1.55,1.71,4.15-.76,2.97-2.6-4.8-7.45.1-21.89,7.16-26.78,11.44-7.92,17.12,7.31,19.81,15.64.5,1.53,2.86,1.76,3.54.24,2.5-5.58,8.78-6.11,13.33-2.68,4.48,3.37,4.83,8.33,5.96,13.35.37,1.63,3.16,1.46,3.33-.2.74-7.37-3.44-15.55-10.49-18.39Z"/>
        </g>
      </g>
    </g>
  </g>
</svg>