<?xml version="1.0" encoding="UTF-8"?>
<svg id="Capa_2" xmlns="http://www.w3.org/2000/svg" viewBox="0 0 243.3 243.3">
  <defs>
    <style>
      .cls-1 {
        fill: #5a992f;
      }

      .cls-2 {
        fill: none;
      }

      .cls-3 {
        fill: #4f3535;
      }
    </style>
  </defs>
  <g id="grocery_icons">
    <g>
      <rect class="cls-2" width="243.3" height="243.3"/>
      <g>
        <path class="cls-1" d="M122.81,226.73s-11.09-10.59-20.42-23.95c-9.33-13.36-18.66-26.72-19.66-34.79-1.01-8.07,7.56-19.41,9.33-34.54,1.76-15.13,1.01-20.42-14.62-32.52-15.63-12.1-40.34-34.29-53.45-27.23-13.11,7.06-15.38,46.14-3.03,63.53,12.35,17.4,29.75,26.47,37.56,28.24,7.82,1.76,14.37.5,17.4,4.29,3.03,3.78,9.58,22.69,17.65,35.3s18.91,23.19,22.94,25.21,10.34-.5,6.3-3.53Z"/>
        <path class="cls-1" d="M124.83,149.59s-2.77-9.58-20.42-29.75c-17.65-20.17-27.98-42.35-19.41-66.05,8.57-23.7,31.26-37.82,53.7-27.23s25.97,43.11,21.93,69.33c-4.03,26.22-15.38,35.55-20.17,50.67-4.79,15.13-6.81,39.33-9.58,55.97-2.77,16.64-6.05,27.23-8.32,27.48s-5.29-3.28-4.79-6.3c.5-3.03,5.29-18.66,7.56-42.86,2.27-24.2-.5-31.26-.5-31.26Z"/>
        <path class="cls-1" d="M149.03,187.91c11.66-19.27,19.16-39.08,18.4-46.39-.76-7.31-11.09-28.49-.5-46.89,10.59-18.4,37.31-33.28,55.72-25.97,18.4,7.31,15.38,45.63-.25,75.63-15.63,30-37.31,16.89-45.13,19.16-7.82,2.27-30.51,45.63-39.83,57.23-9.33,11.6-14.62,11.09-16.89,8.57s10.34-11.35,28.49-41.35Z"/>
        <g>
          <path class="cls-3" d="M74.46,154.02c-6.95-10.21-13.5-19.24-20.32-29.54-3.76-5.68-7.39-11.46-10.7-17.42-3.29-5.93-5.72-12.39-9.17-18.21-.78-1.32-2.86-.45-2.47,1.04,3.14,12.24,11.54,24.17,18.36,34.66,1.4,2.15,2.83,4.29,4.27,6.42-7.29-2.49-15.4-3.26-21.83-7.63-1.12-.76-2.09,1.01-1.04,1.79,6.41,4.75,16.51,7.82,24.56,8.34,5.9,8.64,12.01,17.13,17.96,25.73,4.47,6.46,5.39,4.33,4.23,1.81-.94-2.05-2.73-5.02-3.83-6.99Z"/>
          <path class="cls-3" d="M37.59,106.45c-4.84-3.18-10.01-5.22-13.2-10.36-.66-1.07-2.33-.11-1.69.99,3.03,5.22,8.64,8.91,14.23,10.94.95.35,1.44-1.06.66-1.57Z"/>
          <path class="cls-3" d="M54.86,123.39c-.11.83,1.15,1.07,1.52.41,4.31-7.75,3.6-18.56,1.5-26.87-.35-1.39-2.44-.8-2.14.59.98,4.52,1.4,9.19,1.23,13.82-.15,4.15-1.58,7.97-2.1,12.05Z"/>
          <path class="cls-3" d="M71.43,144.89c4.33-9.93,5.79-21.17,5.29-31.92-.07-1.61-2.49-1.62-2.51,0-.14,10.77-1.97,20.82-4.33,31.27-.2.88,1.15,1.58,1.55.65Z"/>
          <path class="cls-3" d="M58.12,148.53c-2.57.24-4.43.48-6.83-.78-1.05-.55-2.34.89-1.33,1.73,2.24,1.88,6.1,2.87,8.74,1.18.88-.56.62-2.24-.58-2.13Z"/>
          <path class="cls-3" d="M128.08,79.2c5.58-9.11,11.96-20.95,10.52-31.87-.14-1.04-1.89-1.58-2.08-.28-.74,5.33-1.41,10.45-3.35,15.51-1.68,4.39-3.89,8.49-6.06,12.63-3.13-12.58-7.23-24.95-12.39-36.75-.49-1.11-2.3-.32-1.95.82,4.07,13.2,8.32,26.29,11.6,39.66-6.39-9.87-16.64-17.94-26.27-23.26-1.34-.74-2.51,1.25-1.2,2.05,6.5,3.97,12.57,8.62,17.74,14.24,4.84,5.27,8.04,11.32,12,17.12.36,1.77.7,3.55,1,5.34.76,4.4,1.41,8.82,1.94,13.25-7.73-9.6-21.47-15.71-31.9-20.12-1.32-.56-2.5,1.29-1.16,1.98,6.36,3.23,12.8,6.48,18.75,10.43,6,3.99,10.2,8.82,14.94,13.92.28,3.27.49,6.55.58,9.83.27,9.65-.81,19.14-1.39,28.75-.07,1.19,1.79,1.43,2.08.28,4.47-18.23,2.88-38.86-.16-57.19-.91-5.46-1.99-10.91-3.25-16.33Z"/>
          <path class="cls-3" d="M148.56,82.35c-1.65,6.17-2.48,12.47-4.49,18.57-2.18,6.61-5.24,12.81-8.93,18.7-.66,1.05.98,1.99,1.65.97,7.04-10.78,13.83-24.81,13.61-37.99-.02-1.04-1.56-1.29-1.84-.25Z"/>
          <path class="cls-3" d="M225.45,101.32c-3.93,4.61-6.82,9.33-11.44,13.47-5.22,4.67-11.04,8.45-16.57,12.63,1-1.67,1.98-3.35,2.93-5.04,3.97-7.07,7.08-14.37,10.29-21.8,3.1-7.16,6.35-14.41,8.15-22.03.29-1.24-1.62-2.2-2.17-.92-2.86,6.62-4.88,13.57-7.52,20.28-2.98,7.6-6.89,15.02-10.83,22.18-4.29,7.8-9.17,15.1-14.59,22-5.33-9.05-6.56-21.66-7.34-31.75-.08-1.06-1.82-1.49-2.01-.27-.95,6.11.28,12.33,1.92,18.23,1.32,4.75,2.38,11.84,6.2,15.37-3.95,4.92-8.16,9.64-12.66,14.17-1.03,1.04.51,2.53,1.59,1.59,3.5-3.05,6.79-6.34,9.88-9.8.18.18.42.31.73.35,10.75,1.22,23.47-.22,31.45-8.28.84-.85-.27-2.4-1.31-1.69-9.22,6.23-18.46,6.9-29.16,7.66,3.98-4.65,7.62-9.6,10.98-14.73,0,0,0,0,.01,0,7.89-5.18,15.48-10.42,22.54-16.71,4.22-3.76,9.18-8.24,10.55-13.96.21-.88-.96-1.72-1.62-.94Z"/>
          <path class="cls-3" d="M195.43,118.23c-.39-12.01-.12-23.59,2.52-35.39.26-1.17-1.53-1.67-1.8-.5-2.73,11.76-4.04,24.09-2.29,36.1.13.9,1.61.68,1.58-.21Z"/>
        </g>
      </g>
    </g>
  </g>
</svg>