<?xml version="1.0" encoding="UTF-8"?>
<svg id="Capa_2" xmlns="http://www.w3.org/2000/svg" viewBox="0 0 243.3 243.3">
  <defs>
    <style>
      .cls-1 {
        fill: #5a992f;
      }

      .cls-2 {
        fill: #fff;
      }

      .cls-3 {
        fill: none;
      }

      .cls-4 {
        fill: #4f3535;
      }

      .cls-5 {
        fill: #c0c728;
      }
    </style>
  </defs>
  <g id="grocery_icons">
    <g>
      <rect class="cls-3" width="243.3" height="243.3"/>
      <g>
        <path class="cls-5" d="M104.03,149.2s7.61,9.13,11.99,15.98c4.38,6.85,5.14,14.08,5.14,14.08,0,0,1.71-7.61,6.66-15.79,4.95-8.18,7.04-12.75,7.04-12.75,0,0,19.79,2.47,19.22,2.85s-6.28,15.79-8.75,31.2c-2.47,15.41-.76,25.87-1.9,27.97-1.14,2.09-37.1,1.9-39,.57-1.9-1.33-.38-20.74-6.09-33.86-5.71-13.13-19.22-33.29-18.07-35.96,1.14-2.66,23.78,5.71,23.78,5.71Z"/>
        <path class="cls-1" d="M127.82,60.74s15.79-24.16,32.91-18.45c17.77,5.92,11.8,31.96,11.8,31.96,0,0,14.83-6.9,21.69,3.81,7.8,12.18-7.8,20.74-7.8,20.74,0,0,23.59-4.38,26.25,16.36,2.21,17.2-22.45,19.6-22.45,19.6,0,0,13.24,16.76-1.14,27.21-18.07,13.13-29.49-6.47-29.49-6.47,0,0-6.85,11.8-21.88,8.18-15.03-3.61-23.4-24.92-27.21-36.53-3.81-11.61,17.31-66.4,17.31-66.4Z"/>
        <path class="cls-1" d="M168.53,94.07c-1.68-6.92-8.18-11.08-18.26-12.22,4.41-5.66,8.37-15.38,3.36-21.05-4.38-4.96-12.71-1.79-16.87,2.41-2.2-13.35-16.41-25.97-29.89-24.38-14.33,1.69-23.32,16.63-23.57,30.47-8.07-5.02-19.47-7.7-27.74-2.41-7.25,4.63-10.42,16.81-7.64,25.44-9.84-.11-21.52,4.72-22.93,15.19-1.11,8.28,7.6,14.81,14.94,16.58-5.87,4.58-12.02,13.13-9.06,20.67,3.52,8.94,15.73,9.76,24.09,6.15.13,7.78,3.04,18.99,11.25,19.79,4.5.44,8.37-.63,11.87-5.43,3.33-4.57,1.82-10.12,2.38-14.17,5.84,6.64,17.66,11.76,25.65,8.07,7.09-3.28,11.34-15.73,10.31-24.05,7.24,4.13,18.38,8.31,25.38,3.23,7.03-5.1,8.68-14.84,4.3-23.78,11.42,1.71,25.21-9.15,22.45-20.51Z"/>
        <path class="cls-2" d="M70.45,96.63c-4.78-1.56-10.38.27-12.81,4.83-2,3.74-1.69,10.76,2.7,12.76.73.33,1.51-.35,1.11-1.11-1.78-3.38-4.03-6.28-2.09-10.3,1.9-3.94,6.5-5.44,10.52-4.13,1.3.43,1.86-1.63.57-2.05h0Z"/>
        <path class="cls-2" d="M70.25,137.85c-1.35-2.39-.31-4.6,1.28-6.5.65-.78-.14-1.78-1.06-1.37-3.17,1.44-3.42,6.14-1.66,8.71.6.87,1.96.11,1.43-.84h0Z"/>
        <path class="cls-2" d="M101.45,99.77c.27-1.84,2.32-2.22,3.81-1.87,1.51.36,1.61.8,2.98,1.36.84.35,1.63-.73,1.06-1.43-1.56-1.92-3.38-2.68-5.93-2.29-2.12.33-3.86,1.83-4.13,4-.18,1.43,2.01,1.64,2.22.23h0Z"/>
        <path class="cls-2" d="M108.39,75.38c4.75-4.96,10.77-2.63,14.06,2.47.49.75,1.64.27,1.44-.61-1.75-7.88-12.05-8.53-16.84-3.2-.81.9.49,2.22,1.34,1.34h0Z"/>
        <path class="cls-2" d="M162.07,136.34c3.77-2.21,7.35.48,9.63,3.73.49.69,1.35-.09,1.22-.78-1.02-5.63-7.75-6.85-11.71-4.57-.97.56-.11,2.19.86,1.62h0Z"/>
        <path class="cls-2" d="M182.04,110.81c1.37.04,2.55.77,3.34,1.87.74,1.04.92,2.22,1.18,3.44.18.86,1.28.66,1.55,0,1.49-3.66-2.83-7.03-6.08-7.21-1.21-.07-1.22,1.85,0,1.89h0Z"/>
        <path class="cls-2" d="M107.86,128.28c1.1-2.19,3.83-2.15,5.3-.39.57.67,1.57-.19,1.18-.91-1.91-3.53-6.54-3.13-8.44.16-.73,1.27,1.31,2.44,1.96,1.14h0Z"/>
        <g>
          <path class="cls-4" d="M135.44,63.9c.12.86,1.31,1.01,1.85.49,3.71-3.62,12.88-7.54,16.39-1.3,2.78,4.94-.46,11.15-2.5,15.63-.36.79.53,1.66,1.3,1,5.15-4.38,8.98-14.49,3.1-20.37-4.76-4.76-13.94-2.6-18.32,2.14-.84-4.28-2.42-8.34-5.04-11.88-.62-.84-1.94-.13-1.43.84,2.29,4.33,3.96,8.6,4.65,13.46Z"/>
          <path class="cls-4" d="M151.36,81.35c.03-.09.05-.19.08-.28.19-.71-.79-1.11-1.18-.5-.24.37-.47.75-.71,1.12-.28.44-.02,1.12.5,1.23,8.25,1.87,18.51,7.23,16.29,17.47-1.88,8.67-10.97,12.17-18.78,13.38-.9.14-1.13,1.26-.79,1.94,3.81,7.61,1.7,16.94-5.95,21.25-7.06,3.97-17.01,1.15-23.89-2.08-1.05-.49-2.28.32-1.98,1.52,1.3,5.28.39,10.87-2.87,15.28-2.22,3-4.93,4.63-8.02,5.96-2.66.91-5.54,1.19-8.4.85-5.36-.64-12.14-3.27-14.68-8.35-.58-1.16-2.6-.35-2.13.9,4.67,12.46,22.5,14.88,32.17,7.37,8.23-6.39,8.09-19.33,6.98-19.88,7.64,4.71,19.06,6.51,26.23,1.29,7.13-5.19,9.98-16.13,5.57-23.76,8.91-1.62,18.89-5.08,20.53-16.28,1.52-10.4-9.59-17.64-18.98-18.45Z"/>
        </g>
        <path class="cls-4" d="M123.97,156.05c5.27,5.79,11.44,10.59,19.59,10.3,6.55-.23,13.61-4.3,17.15-9.97.64-1.03-.83-2.17-1.68-1.29-4.47,4.64-9.48,7.7-16.15,7.57-6.33-.13-13.23-3.37-17.24-8.28-.95-1.17-2.72.54-1.68,1.68h0Z"/>
      </g>
    </g>
  </g>
</svg>