<?xml version="1.0" encoding="UTF-8"?>
<svg id="Capa_2" xmlns="http://www.w3.org/2000/svg" viewBox="0 0 243.23 243.23">
  <defs>
    <style>
      .cls-1 {
        fill: #ba6347;
      }

      .cls-2 {
        fill: none;
      }

      .cls-3 {
        fill: #4f3535;
      }
    </style>
  </defs>
  <g id="grocery_icons">
    <g>
      <rect class="cls-2" width="243.23" height="243.23"/>
      <g>
        <path class="cls-3" d="M109.65,188.6c.8,7.23-1.53,14.6-6.19,20.19-4.36,5.22-12.66,10.09-11.66,18,.22,1.74,2.75,1.86,2.8,0,.11-3.96,2.1-7.14,4.72-9.99,2.62-2.84,5.39-5.44,7.74-8.52,4.26-5.58,7.06-13.04,4.89-19.99-.37-1.2-2.45-1.06-2.3.31h0Z"/>
        <path class="cls-3" d="M117.91,188.18c-.47,8.33-2.73,16.49-2.72,24.86,0,3.45.39,6.96,1.37,10.28.45,1.54,1.07,3.04,1.81,4.46s1.72,3.23,3.03,4.25c.92.72,2.3-.16,1.69-1.3-.77-1.45-1.87-2.69-2.61-4.18s-1.3-3.13-1.73-4.77c-.85-3.22-1.11-6.56-1.05-9.89.16-7.95,2.12-15.75,2.35-23.71.04-1.39-2.07-1.38-2.15,0h0Z"/>
        <path class="cls-3" d="M125.06,188.24c-1.42,7.41-.92,15.02,1.29,22.23,1.1,3.59,2.61,7.07,4.52,10.31,1.83,3.09,4,6.49,6.97,8.58.98.69,2.23-.65,1.62-1.62-1.84-2.94-4.25-5.45-6.02-8.46-1.78-3.02-3.23-6.23-4.3-9.57-2.14-6.67-2.77-13.89-1.83-20.84.2-1.45-1.97-2.13-2.26-.62h0Z"/>
        <path class="cls-3" d="M130.72,190.1c.7,6.9,4.1,13.31,9.91,17.24,3.25,2.2,6.99,3.52,10.3,5.62,1.46.93,2.83,2.05,3.91,3.4s1.61,2.92,2.42,4.36c.71,1.26,2.3.53,2.46-.67.13-.96.09-1.55-.27-2.48-.3-.8-.7-1.55-1.18-2.25-.94-1.37-2.09-2.56-3.39-3.59-2.98-2.36-6.5-3.74-9.85-5.46-6.47-3.33-11.4-9.1-12.62-16.4-.16-.95-1.79-.74-1.69.23h0Z"/>
        <path class="cls-1" d="M115.76,40.83s1.54-15.18,4.23-20.37c2.69-5.19,4.03-2.88,6.92,3.65,2.88,6.53,4.03,13.64,4.03,13.64,0,0,4.42-7.88,4.42-6.15s-1.73,16.71-.19,25.55c.94,5.38.89,8.98,6.2,11.75,7.61,3.97,15.56,7.16,23.11,11.28,9.37,5.12,19.27,10.94,26.21,19.23,13.32,15.91,12.3,39.96,2.5,59.37-9.8,19.4-42.08,30.93-62.06,35.16-19.98,4.23-57.34-6.52-72.24-22.09-16.91-17.68-25.17-42.46-8.26-70.7,16.4-27.4,57.83-32.85,62.06-38.81,4.23-5.96-3.27-27.09-1.73-27.47s4.23,5,4.8,5.96Z"/>
        <path class="cls-3" d="M134.65,30.67c-2.92,2.01-5.27,4.65-7.35,7.5-1.02,1.39-1.96,2.83-2.87,4.29-.46.75-.93,1.51-1.37,2.27-.19.33-.39.66-.59,1-1.54-1.85-3.16-3.63-4.84-5.36-2.07-2.12-4.14-4.46-6.57-6.18-.84-.59-2.05.6-1.44,1.44,1.67,2.3,3.89,4.24,5.82,6.31,1.94,2.08,3.82,4.22,5.59,6.45,1.77,2.21,3.4,4.55,4.82,7,.72,1.24,1.38,2.52,1.97,3.83.56,1.22.81,2.56,2.13,3.1.41.17,1.02-.11,1.22-.49.64-1.25-.11-2.51-.64-3.69-.61-1.38-1.31-2.72-2.07-4.02-1.24-2.14-2.66-4.18-4.17-6.14.37-.51.66-1.09.98-1.63.42-.73.83-1.46,1.25-2.19.87-1.48,1.77-2.95,2.74-4.37,1.9-2.76,4.13-5.25,6.7-7.4.94-.79-.3-2.41-1.32-1.71Z"/>
        <path class="cls-3" d="M101.71,76.7c-4.34,1.03-8.46,2.92-12.39,5.01s-7.37,4.31-10.66,7.01c-6.1,4.99-11.01,11.48-14.39,18.59-3.37,7.09-5.34,14.86-5.42,22.72-.09,8.7,2.68,17.3,7.44,24.54,2.55,3.88,5.65,7.41,9.12,10.5,1.76,1.56,3.61,3.02,5.53,4.37s3.85,2.76,6.09,3.43c1.34.4,2.48-1.44,1.4-2.41-1.4-1.26-3.04-2.12-4.6-3.15-1.72-1.14-3.38-2.37-4.96-3.69-3.02-2.53-5.81-5.37-8.17-8.54-4.87-6.55-8.08-14.46-8.47-22.65-.7-14.65,5.91-29.56,16.62-39.44,3.32-3.06,7.09-5.59,11.04-7.77,4.16-2.3,8.58-4.03,12.8-6.19,1.31-.67.38-2.63-.98-2.31h0Z"/>
        <path class="cls-3" d="M114.35,77.88c-2.63,2.42-4.62,5.45-6.48,8.48-1.79,2.93-3.38,5.99-4.73,9.15-2.83,6.61-4.51,13.55-5.02,20.73-1.02,14.25.76,29.08,5.35,42.62,1.26,3.72,2.76,7.36,4.48,10.89s3.5,7.16,6.06,10.03c1.14,1.27,2.91-.35,2.24-1.73-1.5-3.11-3.51-5.96-5.05-9.06-1.48-2.97-2.78-6.02-3.91-9.14-2.31-6.37-3.91-12.99-4.91-19.7-2.01-13.6-2.1-28.12,2.87-41.1,1.35-3.53,3.03-6.94,4.95-10.2,1.91-3.24,4.22-6.22,6.09-9.48.71-1.24-.92-2.45-1.94-1.5h0Z"/>
        <path class="cls-3" d="M129.59,77.83c3.2,6.21,6.52,12.36,9.03,18.89,2.51,6.53,4.39,13.33,5.57,20.23,2.32,13.57,1.61,27.73-2.14,40.98-1.05,3.7-2.3,7.36-3.8,10.9-1.54,3.63-3.43,7.09-5.19,10.61-.84,1.69,1.4,2.93,2.49,1.45,4.2-5.69,7.06-12.65,9.16-19.37,2.11-6.77,3.45-13.82,3.95-20.89,1-14.33-1.33-28.88-6.4-42.3-2.83-7.51-6.3-14.95-11.18-21.37-.66-.86-2.01-.14-1.49.87h0Z"/>
        <path class="cls-3" d="M145.6,80.38c7.45,2.77,13.57,7.45,19.19,12.96,5.6,5.49,10.23,11.91,13.76,18.91,3.73,7.38,5.33,15.39,4.6,23.64-.64,7.24-3.03,14.3-6.69,20.56-2.07,3.53-4.55,6.8-7.43,9.71-2.92,2.96-6.35,5.43-9.78,7.76-1.45.98-.21,3.05,1.36,2.33,7.04-3.24,12.89-9.17,17.31-15.45,4.5-6.4,7.57-13.87,8.74-21.62,1.32-8.73.28-17.61-3.26-25.71-3.31-7.59-8.25-14.51-14.05-20.39-6.4-6.49-14.52-11.78-23.24-14.54-1.19-.38-1.64,1.42-.51,1.84h0Z"/>
      </g>
    </g>
  </g>
</svg>