<?xml version="1.0" encoding="UTF-8"?>
<svg id="Capa_2" xmlns="http://www.w3.org/2000/svg" viewBox="0 0 243.3 243.3">
  <defs>
    <style>
      .cls-1 {
        fill: none;
      }

      .cls-2 {
        fill: #4f3535;
      }

      .cls-3 {
        fill: #b6836a;
      }
    </style>
  </defs>
  <g id="grocery_icons">
    <g>
      <rect class="cls-1" width="243.3" height="243.3"/>
      <g>
        <g>
          <path class="cls-3" d="M122.02,84.21c.07-5.72-1.29-11.48-4.25-16.4-2.93-4.85-7.28-8.79-12.17-11.62-5.53-3.2-11.73-4.91-18.05-5.6-17.01-1.86-34.92,5.93-47.71,17.04-8.8,7.64-16.34,16.89-22.83,26.54-6.64,9.87-11.22,21.55-10.54,33.61.66,11.65,5.97,22.99,15.19,30.3,9.15,7.24,21.14,9.72,32.39,6.64,5.62-1.54,10.9-4.29,15.56-7.75,5.08-3.77,9.24-8.36,13.32-13.17,8.1-9.56,17.66-17.8,25.56-27.53,7.32-9.02,13.37-20.17,13.52-32.06Z"/>
          <path class="cls-3" d="M228.74,69.56c-5.06-9.87-11.03-19.45-19.57-26.69-15.37-13.03-36.33-17.72-55.77-12.38-9.33,2.56-17.53,9.57-21.64,18.32-2.37,5.05-3.45,10.63-3.19,16.2.52,11.31,7.62,21.27,11.78,31.48,2.02,4.97,4.66,9.53,8.87,12.97,15.77,12.89,44.73,20.89,64.31,13.75,9.42-3.44,17.45-10.61,20.88-20.16,4.07-11.35-.48-23.32-5.68-33.48Z"/>
          <path class="cls-3" d="M214.39,160.52c-3.22-5.32-7.37-10.67-13.1-13.41-2.92-1.4-6.05-2.23-9.13-3.19-3.21-1-6.25-2.33-9.25-3.82-6.02-2.99-11.98-5.92-18.43-7.88-12.46-3.79-25.55-4.45-38.36-2.29-11.37,1.91-23.03,5.48-30.97,14.3-7.99,8.87-11.47,21.35-8.86,33.03,1.37,6.16,4.27,12.01,7.88,17.16,3.56,5.08,7.85,9.47,13.84,11.52,11.75,4.01,23.88,6.98,35.45,12.13,5.64,2.51,11.38,4.92,17.38,6.42,6.6,1.65,13.38,1.99,20.14,1.25,11.47-1.26,24.42-4.39,32.83-12.83,9.02-9.04,9.77-23.38,7.3-35.25-1.25-6.02-3.55-11.87-6.73-17.13Z"/>
        </g>
        <path class="cls-2" d="M25.18,142.62c3.42,4.04,8.53,6.44,13.84,6.37,2.63-.03,5.18-.7,7.56-1.83s4.73-2.83,5.93-5.11c.51-.97-.61-2.43-1.65-1.65-1.77,1.32-3.33,2.78-5.31,3.8s-4.27,1.64-6.52,1.72c-4.54.18-9.03-1.72-12.16-4.98-1.07-1.11-2.64.53-1.67,1.67h0Z"/>
        <path class="cls-2" d="M66.05,130.49c.34-.17.69-.32,1.01-.52.25-.15.52-.3.71-.52l.36-.42c.13-.15.25-.32.3-.52l.04-.31c0-.16-.03-.31-.1-.46-.03-.1-.08-.19-.15-.26-.05-.09-.12-.16-.21-.21-.2-.15-.46-.27-.72-.25l-.54.04c-.21.01-.41.03-.6.11l-.26.1c-.28.11-.56.22-.83.36l-.53.28c-.17.09-.32.22-.42.39-.13.14-.22.32-.27.51-.06.2-.07.4-.03.6,0,.2.07.39.18.56.21.32.51.6.9.69l.4.05c.27,0,.52-.07.76-.2h0Z"/>
        <path class="cls-2" d="M72.31,113.86h1.34c.09,0,.18-.02.27-.03.13-.03.25-.09.35-.18.08-.05.14-.11.18-.18.09-.1.15-.22.18-.35.04-.18.04-.37,0-.55-.03-.13-.09-.25-.18-.35-.07-.11-.17-.2-.29-.26l-1.17-.62c-.21-.12-.44-.18-.69-.19-.25,0-.47.06-.69.19-.3.19-.53.46-.63.81-.06.18-.06.36-.02.54,0,.18.06.35.16.51.24.41.69.67,1.17.67h0Z"/>
        <path class="cls-2" d="M36.57,115.29c.38.04.75.08,1.13.13-.23-.03.25.04.24.03.16.02.32.05.48.07.71.11,1.42.25,2.13.41s1.36.32,2.03.51c.79.23,1.56.43,2.39.38.63-.04,1.27-.43,1.42-1.08.16-.69-.13-1.25-.68-1.67-1.23-.92-2.99-1.06-4.47-1.26s-3.1-.36-4.67-.39c-.75-.02-1.47.67-1.44,1.44.04.84.63,1.36,1.44,1.44h0Z"/>
        <path class="cls-2" d="M41.62,94.5c-.31.04.22-.02.27-.03.13-.01.26-.02.38-.03.3-.02.6-.02.9-.02s.6.02.9.05c.09,0,.17.02.26.03-.16-.02-.16-.02.01,0,.15.02.3.05.44.08,1.19.23,2.34.67,3.5,1,.48.14,1.09-.09,1.33-.54s.22-1.09-.18-1.43c-2.31-1.95-5.67-2.22-8.56-1.79-.72.11-1.18,1.05-.97,1.7.26.79.93,1.08,1.7.97h0Z"/>
        <path class="cls-2" d="M58.95,75.33c.44-.03.89,0,1.33.05l-.33-.04c.47.07.94.18,1.39.34.22.08.45.11.67.17s.45.14.69.18c.41.08.89-.05,1.1-.45s.13-.83-.15-1.18-.65-.59-1.02-.82-.81-.37-1.24-.48c-.79-.2-1.63-.28-2.45-.23-.33.02-.63.12-.87.36-.21.21-.37.56-.36.87.03.64.54,1.27,1.23,1.23h0Z"/>
        <path class="cls-2" d="M87.67,72.55c.31,0,.62,0,.93.03.21.02-.07,0-.13-.02.07.02.15.03.23.04.15.03.3.06.45.1.29.08.56.19.84.28-.46-.16,0,0,.13.07.14.07.27.15.41.23.12.07.24.15.35.23.06.04.13.09.19.14.24.17-.23-.19-.08-.06.22.19.46.37.68.57.45.42.88.86,1.34,1.27s1.17.57,1.71.22.78-.96.65-1.59c-.34-1.63-1.73-2.9-3.18-3.59s-2.96-1.04-4.51-.86c-.4.05-.75.13-1.04.43-.26.26-.45.68-.43,1.04.03.78.65,1.5,1.48,1.48h0Z"/>
        <path class="cls-2" d="M96.21,94.14l.35.67c.03.06.06.11.09.16.08.14.2.26.3.38l.24.28.24.19c.14.09.29.13.44.14.11.03.21.03.32,0,.16,0,.31-.05.44-.14.17-.11.32-.26.43-.43.09-.14.13-.29.14-.44.04-.16.03-.32-.02-.48l-.08-.36c-.01-.06-.03-.12-.04-.18-.04-.16-.14-.32-.21-.47l-.33-.69c-.08-.16-.2-.28-.34-.37-.13-.12-.28-.2-.45-.24-.18-.06-.35-.06-.53-.02-.18,0-.34.06-.5.16l-.27.21c-.17.17-.28.36-.34.59l-.05.35c0,.24.06.47.18.67h0Z"/>
        <path class="cls-2" d="M74.86,95.43c.13.04.26.09.39.15l-.39-.17c.46.2.9.45,1.29.76l-.34-.26c.18.14.35.29.51.44s.31.35.48.51c.2.2.39.41.61.58.21.16.43.3.65.44.38.25.92.23,1.31,0,.41-.24.61-.65.64-1.12.01-.18,0-.36-.02-.54-.02-.17-.03-.35-.08-.52s-.13-.33-.21-.48c-.04-.08-.09-.17-.14-.25-.27-.46-.64-.85-1.06-1.19-.83-.68-1.74-1.21-2.79-1.5-.4-.11-.89-.05-1.25.16-.34.2-.66.58-.75.97-.09.42-.07.88.16,1.25s.56.61.97.75h0Z"/>
        <path class="cls-2" d="M93.15,109.83c0,.63-.03,1.26-.11,1.88l.06-.42c-.05.33-.09.66-.13.99l.06-.42c-.03.19-.05.38-.09.57s-.08.38-.09.57c0,.21.04.42.09.62l-.05-.38c.02.16-.01.32-.03.47s0,.31,0,.47c0,.51.37,1.05.89,1.16.21.05.43.05.64,0,.32-.07.53-.31.72-.55.1-.13.19-.25.27-.4s.13-.29.22-.42l-.23.29c.24-.29.43-.56.54-.93.04-.13.07-.27.1-.4.09-.42.16-.84.2-1.26.06-.61.07-1.23.04-1.84-.04-.8-.68-1.58-1.54-1.54s-1.55.68-1.54,1.54h0Z"/>
        <path class="cls-2" d="M120.18,166.9c-.06-.2-.11-.39-.15-.59-.02-.08-.03-.16-.04-.24-.07-.4.02.26,0,.03-.02-.39-.05-.76-.03-1.15,0-.18.03-.37.05-.55,0-.1.02-.2.03-.3.02-.35-.05.3-.01.07.07-.38.15-.76.26-1.13.05-.18.12-.35.18-.52.08-.23-.2.42-.02.05.03-.07.07-.15.1-.22.17-.35.34-.69.54-1.02s.34-.68.55-1c.17-.25-.12.14,0-.01s.25-.3.36-.46.21-.32.32-.47c.69-.95-.47-2.45-1.57-2.04-.62.24-1.08.5-1.6.92-.04.04-.29.28-.11.1.11-.08.1-.08-.02.01l-.35.27c-.28.22-.46.44-.69.74-.6.8-1.01,1.71-1.29,2.67-.59,2.07-.37,4.15.51,6.1.33.73,1.35.94,2.02.66.73-.31,1.16-1.13.94-1.91h0Z"/>
        <path class="cls-2" d="M162.57,153.51c.85-.39,1.71-.78,2.56-1.16.42-.19.87-.36,1.26-.62.44-.29.96-.56,1.29-.98.31-.4.46-.84.25-1.33-.19-.46-.62-.72-1.12-.75-.55-.03-1.07.16-1.59.3-.56.15-1.09.44-1.62.68-.87.39-1.74.79-2.61,1.18-.33.15-.62.59-.71.93-.1.37-.06.87.16,1.2s.53.62.93.71c.43.1.8.03,1.2-.16h0Z"/>
        <path class="cls-2" d="M144.6,205.73c-.52-2.35-1.02-4.78-1.2-7.18-.09-1.25-.09-2.5-.08-3.75,0-.62,0-1.25,0-1.87s.05-1.34-.18-1.96c-.33-.87-1.57-1.48-2.3-.61-.93,1.11-1.13,2.77-1.25,4.17s-.06,2.77.1,4.15c.34,2.9,1.02,5.54,2.46,8.09.77,1.37,2.79.42,2.46-1.04h0Z"/>
        <path class="cls-2" d="M150.86,171.67c.12-.4.26-.8.37-1.21.08-.31.08-.64.09-.96s.02-.59-.09-.89c-.13-.36-.33-.62-.68-.77-.14-.07-.29-.11-.46-.1-.21,0-.41.05-.6.16-.04.03-.07.05-.11.08-.15.08-.27.19-.36.33-.04.05-.09.11-.13.17-.06.09-.11.18-.16.27-.17.28-.34.55-.45.86-.13.41-.24.82-.36,1.23-.11.37-.04.83.15,1.17.18.31.54.61.9.7.39.09.82.07,1.17-.15s.58-.52.7-.9h0Z"/>
        <path class="cls-2" d="M102.18,181.45c-.18-.26-.33-.54-.45-.83l.18.42c-.18-.43-.3-.87-.37-1.34l.07.49c-.04-.35-.05-.7-.13-1.04-.02-.09-.04-.18-.05-.27-.04-.24-.15-.45-.25-.67-.25-.53-.92-.85-1.48-.85-.59,0-1.2.32-1.48.85-.09.18-.19.37-.24.56-.06.21-.06.45-.09.67-.03.3,0,.58.06.88s.14.62.25.91c.15.41.33.82.55,1.2s.5.74.78,1.07c.26.3.82.52,1.21.5s.73-.13,1.03-.37c.28-.22.53-.53.61-.89.1-.43.08-.93-.17-1.31h0Z"/>
        <path class="cls-2" d="M117.65,191.56c-.07-.2-.13-.41-.2-.61s-.17-.4-.25-.6l-.12-.28c-.07-.14-.17-.25-.3-.33-.07-.07-.16-.12-.26-.15-.14-.07-.29-.11-.45-.1l-.31.04-.28.12c-.14.07-.25.17-.33.3-.1.11-.17.25-.21.4-.08.2-.18.4-.25.6s-.14.41-.2.61c-.08.29-.08.58,0,.87.08.28.22.52.42.72l.33.26c.26.15.53.22.83.22.23,0,.44-.04.63-.14.2-.07.38-.18.53-.34.2-.2.34-.45.42-.72.08-.29.08-.58,0-.87h0Z"/>
        <path class="cls-2" d="M177.12,190.26l.33-.34c.12-.12.22-.24.32-.37.14-.18.28-.36.42-.54.17-.22.12-.14.23-.39.03-.08.07-.16.1-.25l.04-.1.08-.21c.07-.27.07-.54,0-.8-.07-.26-.2-.48-.39-.67-.19-.19-.41-.32-.67-.39-.27-.07-.54-.07-.8,0l-.2.07-.1.04c-.16.06-.33.12-.48.2-.16.09-.35.27-.51.4l-.2.16c-.13.1-.25.2-.36.32l-.35.34c-.17.16-.3.35-.37.58-.11.21-.16.44-.15.69,0,.25.04.48.15.69.07.22.2.41.37.58l.36.28c.28.16.58.24.91.24l.48-.06c.3-.09.57-.24.79-.46h0Z"/>
        <path class="cls-2" d="M202.57,178.22c.59-1.08,1-2.26,1.17-3.48.09-.65.15-1.31.11-1.97s-.33-1.41-.63-2.02c-.46-.93-1.89-.45-1.89.51,0,.24-.06.57,0,.8,0,.09,0,.07.03-.05-.01.07-.02.13-.03.2-.04.25-.05.43-.04.66.03.51.02,1.02-.03,1.52,0,.07-.02.14-.02.22.02-.13.02-.16,0-.06-.02.12-.04.25-.07.38-.05.25-.11.5-.18.74s-.15.49-.24.72c-.03.07-.05.14-.08.2.05-.12.05-.12,0,0-.06.13-.12.26-.19.39-.29.56-.17,1.34.43,1.65.56.3,1.33.16,1.65-.43h0Z"/>
        <path class="cls-2" d="M200.23,204.89c1.72-.55,3.3-1.53,4.55-2.84.61-.65,1.16-1.37,1.6-2.15.25-.44.46-.93.61-1.41s.13-1.01.12-1.49c-.03-1.12-1.6-1.64-2.18-.59-.23.41-.51.78-.68,1.22-.11.27.13-.27,0,.01-.04.09-.08.17-.12.26-.08.16-.16.31-.24.47-.17.33-.35.65-.55.96-.11.16-.22.32-.33.47-.2.27.2-.24-.02.02-.06.07-.12.15-.19.22-.24.28-.5.55-.77.8-.13.12-.26.24-.4.35-.05.04-.1.08-.15.12l.12-.1c-.06.07-.16.12-.23.17-.31.22-.64.43-.98.61-.17.09-.34.17-.52.25-.22.11.15-.06,0,0-.11.04-.21.08-.32.12-.63.23-1.13.89-.91,1.6.21.65.9,1.12,1.6.91h0Z"/>
        <path class="cls-2" d="M186.54,213.37c1.72,0,1.72-2.67,0-2.67s-1.72,2.67,0,2.67h0Z"/>
        <path class="cls-2" d="M127.75,145.55c.31.01.61,0,.91-.04.44-.06.88-.11,1.31-.25.8-.24,1.57-.74,2.1-1.38.2-.24.34-.47.38-.79.04-.29,0-.62-.16-.88-.13-.2-.29-.36-.49-.49-.28-.18-.75-.24-1.06-.14-.2.07-.41.11-.61.18s-.41.15-.62.21c-.42.11-.85.23-1.28.29l.44-.06c-.3.04-.61.05-.91.04-.42-.01-.88.19-1.17.48s-.5.76-.48,1.17c.04.92.73,1.62,1.65,1.65h0Z"/>
        <path class="cls-2" d="M162.96,103.36c-.24-.22-.48-.46-.69-.72-.05-.06-.09-.12-.14-.17.29.32.11.13.04.04-.1-.14-.19-.27-.27-.41-.17-.28-.32-.58-.46-.88-.11-.24.06.07.05.12,0-.06-.08-.2-.1-.26-.06-.16-.1-.31-.15-.47-.19-.62-.3-1.25-.42-1.88-.01-.07,0-.2-.05-.27l.03.24-.06-.46c-.04-.19-.09-.42-.21-.55-.03-.08-.03-.06.03.06.04.06.06.13.06.2.06.24,0-.08,0-.12-.02-.16-.03-.34-.07-.5s-.11-.32-.16-.48c-.23-.79-1.4-1.25-2-.53-.34.41-.6.8-.76,1.31-.02.06-.13.35-.02.11.05-.13.05-.13,0-.01l-.17.41c-.09.28-.1.6-.12.89-.06.85.1,1.75.38,2.55.55,1.6,1.55,3.1,2.88,4.15.36.29.7.49,1.19.49.41,0,.9-.18,1.19-.49.59-.65.69-1.74,0-2.37h0Z"/>
        <path class="cls-2" d="M163.32,88.2c.16-.46.32-.91.49-1.37.08-.22.09-.47.13-.7s.09-.45.1-.67c0-.12,0-.23,0-.35-.01-.49-.29-.91-.74-1.1s-.99-.11-1.32.25c-.46.5-.85,1.1-1.1,1.73-.18.46-.36.92-.54,1.38-.06.21-.07.41-.03.62,0,.21.07.4.18.58.19.32.56.63.93.71.4.09.84.07,1.2-.16l.31-.24c.19-.19.33-.42.4-.68h0Z"/>
        <path class="cls-2" d="M174.71,71.61c2.56-5.41,6.72-10.18,11.71-13.48,2.48-1.64,5.17-2.97,8-3.89,1.38-.45,2.79-.8,4.22-1.06s3.34-.08,4.48-.95c.66-.5.74-1.4,0-1.89-1.34-.87-3.41-.35-4.89-.1-1.56.26-3.1.63-4.61,1.11-3.14,1.01-6.14,2.46-8.87,4.32-5.52,3.77-9.68,8.83-12.16,15.04-.48,1.21,1.55,2.07,2.11.89h0Z"/>
        <path class="cls-2" d="M156.56,69.17l1.22-1.22c.1-.1.2-.19.29-.3s.17-.22.26-.33c.09-.12.18-.23.27-.35.09-.11.19-.22.26-.34.16-.24.19-.5.22-.78,0-.06,0-.11.01-.17.02-.32-.16-.74-.39-.95-.25-.23-.6-.42-.95-.39-.05,0-.1,0-.15.01-.27.02-.53.07-.77.21-.12.07-.23.18-.34.26-.12.09-.23.19-.35.28-.11.09-.22.17-.33.26s-.21.21-.31.31c-.4.41-.8.82-1.2,1.23-.29.3-.47.72-.47,1.13,0,.39.17.86.47,1.13s.71.49,1.13.47.83-.16,1.13-.47h0Z"/>
        <path class="cls-2" d="M161.72,48.61c1.35-1.37,3.03-2.37,4.74-3,.46-.17.93-.31,1.4-.43.25-.06.5-.12.76-.17.11-.02.23-.04.34-.06.02,0,.26-.04.12-.02,1.04-.14,2.46.07,3.33-.56.59-.43.78-1.21.23-1.78-.87-.9-2.4-.78-3.56-.64s-2.36.39-3.49.82c-2.2.82-4.18,2.22-5.72,3.99-.46.53-.52,1.33,0,1.85s1.35.51,1.85,0h0Z"/>
        <path class="cls-2" d="M189.72,88.23l1.21-.9.6-.44c.15-.11.3-.22.45-.34.12-.07.22-.17.3-.3.05-.06.1-.12.14-.19.06-.1.15-.32.18-.43.01-.05.02-.11.03-.16.07-.38.07-.8-.15-1.14l-.23-.3c-.18-.18-.4-.31-.65-.38-.04,0-.08-.01-.12-.02-.14-.02-.32-.06-.46-.06l-.43.06h-.04c-.25.08-.45.21-.66.36l-.63.43-1.24.85c-.2.11-.36.25-.48.44-.15.16-.25.36-.31.58-.07.23-.08.45-.03.68.01.23.08.44.2.63.23.36.58.68,1.02.78l.45.06c.31,0,.59-.08.86-.23h0Z"/>
        <path class="cls-2" d="M202.42,106.3l.07.03-.36-.36c.42.96,1.95.88,2.8.74.73-.12,1.43-.38,2.1-.69s1.28-.72,1.81-1.21c.65-.6,1.22-1.41,1.23-2.33,0-.4-.22-.79-.57-.99-.38-.22-.77-.17-1.15,0-.21.09-.37.22-.54.37-.19.16.16-.11.03-.02-.06.04-.12.08-.17.12-.31.22-.56.51-.85.75-.1.09-.21.17-.31.26-.24.21.27-.19,0,0-.05.04-.1.07-.15.11-.25.17-.51.33-.77.47-.12.06-.24.12-.37.18-.16.08.29-.11.05-.02-.07.03-.14.05-.21.08-.27.1-.54.17-.82.23-.72.16-1.72.23-2.11.94l.6-.46-.08.03c-.37.11-.64.42-.69.8-.05.35.12.8.46.96h0Z"/>
        <path class="cls-2" d="M218.63,91.26c.17-.28.36-.56.5-.86.07-.15.15-.3.22-.45.12-.25.16-.34.19-.56l.04-.25.05-.37c0-.19-.03-.37-.12-.53-.03-.12-.09-.22-.18-.31-.1-.15-.23-.27-.39-.36l-.33-.14-.37-.05c-.19,0-.37.03-.53.12-.17.06-.32.15-.45.29l-.2.16c-.17.13-.24.22-.39.44-.1.13-.19.27-.29.4-.19.27-.35.56-.51.85-.12.18-.18.38-.19.6-.05.21-.04.43.03.64.05.21.15.39.29.55.11.17.26.31.45.41.37.2.82.3,1.24.16l.38-.16c.24-.14.43-.33.58-.58h0Z"/>
        <path class="cls-2" d="M209.82,74.96c.3-.19.58-.4.86-.62.08-.06.16-.12.23-.19s.14-.16.2-.24c.21-.27.42-.53.6-.83.05-.09.11-.18.15-.27.12-.26.23-.51.22-.81,0-.02,0-.04,0-.06,0-.05,0-.09,0-.14,0-.26-.07-.5-.19-.72-.09-.17-.21-.3-.37-.4-.14-.13-.3-.21-.48-.25-.25-.07-.5-.07-.76,0-.06.02-.11.03-.17.05-.33.09-.57.28-.82.5-.11.1-.22.2-.34.29l.34-.26c-.09.07-.19.14-.28.2-.05.03-.09.06-.14.09-.17.11-.33.24-.49.37l.36-.28c-.23.18-.47.33-.72.47-.21.11-.38.27-.51.47-.16.17-.27.38-.32.61-.08.24-.09.48-.03.72.01.24.08.46.21.67l.28.37c.23.22.49.38.8.46l.48.06c.33,0,.63-.08.91-.25h0Z"/>
        <path class="cls-2" d="M140.83,62.54c.1-.52.2-1.05.3-1.57.07-.38.15-.77.16-1.16,0-.13.01-.27,0-.4,0-.27-.07-.49-.15-.73-.14-.49-.52-.88-1.01-1.01s-1.07,0-1.41.37c-.15.17-.35.36-.45.55-.06.12-.11.24-.16.36-.1.23-.21.45-.28.68-.04.13-.07.27-.1.4-.13.52-.26,1.03-.4,1.55-.12.46-.06.98.18,1.39.22.37.65.73,1.08.83.46.11.98.08,1.39-.18.38-.24.74-.62.83-1.08h0Z"/>
      </g>
    </g>
  </g>
</svg>