<?xml version="1.0" encoding="UTF-8"?>
<svg id="Capa_2" xmlns="http://www.w3.org/2000/svg" viewBox="0 0 243.3 243.3">
  <defs>
    <style>
      .cls-1 {
        fill: none;
      }

      .cls-2 {
        fill: #d2bfd7;
      }

      .cls-3 {
        fill: #4f3535;
      }
    </style>
  </defs>
  <g id="grocery_icons">
    <g>
      <rect class="cls-1" width="243.3" height="243.3"/>
      <g>
        <path class="cls-2" d="M129.15,116.72c-3.06,5.72-8.97,11.4-16.39,13.57-2.39.7-4.7.91-6.42.96-1.73.05-2.86-.08-2.86-.08,0,0-.13.22-.39.6-1.41,2-6.72,8.52-17.98,11.44-8.31,2.16-15.7.02-20.12-1.91-2.7-1.18-4.3-2.29-4.3-2.29,0,0-.53.44-1.5,1.09-4.49,3.02-18.26,10.55-30.5-.85-11.99-11.18-10.83-27.32-2.27-40.74,8.51-13.36,23.07-25.56,26.4-35.98,3.03-9.49-2.17-15.95-5.43-19.92s-4.47-5.85-3.29-5.95c1.19-.1,6.49,1.24,10.35,4.48,3.62,3.04,4.76,5.21,4.89,5.46-.14-.49-2.1-6.91-1.17-14.26.97-7.64,3.34-12.24,4.52-12,1.18.24,1.68,9,2.25,14.04.57,5.03,2.22,9.13,2.22,9.13,0,0,1.33-4.27,4.89-7.86,3.55-3.58,5.97-4.32,6.45-3.74.47.57-4.98,8.57-1.94,17.16,3.05,8.59,11.7,12.09,18.8,14.47,7.11,2.39,25.52,6.71,33.3,20.83,7.78,14.13,3.55,26.66.5,32.37Z"/>
        <path class="cls-3" d="M48.82,108.45c.86-4.77,2.27-9.26,4.12-13.74,1.69-4.07,3.86-8.17,4.52-12.56.11-.73-1.06-1.07-1.38-.42-2.07,4.14-3.53,8.71-5.16,13.05s-3.13,8.78-3.58,13.42c-.08.84,1.32,1.1,1.48.25h0Z"/>
        <path class="cls-3" d="M59.04,77.37c3.68-6.25,5.37-15.78,1.67-22.42-.32-.58-1.28-.36-1.16.35.63,3.72,1.64,7.03,1.36,10.89-.27,3.71-1.42,7.23-3.02,10.56-.32.66.76,1.26,1.14.62h0Z"/>
        <path class="cls-3" d="M68.12,49.37c-.28,8.08,5.37,14.68,10.87,20,3.02,2.93,6.43,5.49,9.62,8.25,3.68,3.18,6.34,6.61,8.9,10.73.35.56,1.41.26,1.16-.44-5.82-16.07-28.04-19.58-29.14-38.48-.05-.88-1.37-.97-1.4-.06h0Z"/>
        <path class="cls-3" d="M59.19,140.09c-6.93-5.75-10.86-15.14-11.01-24.08-.01-.83,1.37-.96,1.46-.14.93,8.81,4.64,16.38,10.85,21.99,1.38,1.24-.33,1.59-1.3,2.23Z"/>
        <path class="cls-3" d="M109.13,118.34c-.2,4.06-.98,8.87-2.79,12.91-1.73.05-2.86-.08-2.86-.08,0,0,.32-1.08.66-1.93.36-.89.69-1.78.95-2.72.8-2.89,1.26-5.87,1.41-8.87.3-6.17-.93-11.59-2.96-17.35-.34-.96,1.18-1.46,1.64-.62,3.01,5.55,4.25,12.38,3.95,18.67Z"/>
      </g>
      <g>
        <path class="cls-2" d="M208.45,214.68c-5.57,3.74-13.73,6.07-21.56,4.46-2.52-.52-4.74-1.45-6.33-2.24-1.61-.8-2.57-1.46-2.57-1.46,0,0-.22.14-.65.36-2.26,1.15-10.27,4.54-21.99,1.74-8.65-2.06-14.37-7.59-17.46-11.51-1.9-2.39-2.82-4.18-2.82-4.18,0,0-.7.15-1.9.27-5.57.58-21.81.78-27.47-15.57-5.54-16.04,3.35-30.22,17.68-38.34,14.26-8.09,33.48-12.18,41.59-20.09,7.38-7.21,5.75-15.63,4.7-20.85-1.05-5.21-1.25-7.51-.12-7.04,1.13.49,5.33,4.29,7.29,9.11,1.83,4.53,1.83,7.07,1.82,7.37.1-.51,1.43-7.34,5.85-13.6,4.59-6.51,8.99-9.57,9.95-8.78.96.8-2.83,9.04-4.75,13.92-1.92,4.88-2.4,9.42-2.4,9.42,0,0,3.29-3.26,8.28-4.82,4.98-1.55,7.55-1.05,7.71-.29.16.75-8.71,5.42-10.1,14.75-1.38,9.33,4.84,16.72,10.17,22.35,5.34,5.64,20.08,18.51,20.34,35.19.26,16.69-9.68,26.09-15.24,29.83Z"/>
        <path class="cls-3" d="M139.03,168.16c3.1-3.95,6.56-7.37,10.43-10.56,3.52-2.9,7.49-5.59,10.22-9.29.45-.61-.44-1.49-1.06-1.06-3.9,2.78-7.45,6.25-11.04,9.42s-7.12,6.5-9.78,10.53c-.48.73.68,1.65,1.23.95h0Z"/>
        <path class="cls-3" d="M163.45,144.7c6.4-3.92,12.56-11.82,12.4-19.69-.01-.68-.99-.95-1.23-.24-1.23,3.71-1.91,7.22-4.04,10.61-2.04,3.26-4.8,5.92-7.88,8.19-.61.45.09,1.52.74,1.12h0Z"/>
        <path class="cls-3" d="M185.33,123.51c-4.17,7.25-2.21,16.03.23,23.55,1.34,4.14,3.21,8.14,4.79,12.2,1.82,4.69,2.59,9.12,2.94,14.12.05.68,1.16.92,1.27.16,2.47-17.51-16.14-31.5-7.98-49.31.38-.83-.78-1.56-1.25-.73h0Z"/>
        <path class="cls-3" d="M133.17,202.11c-3.55-8.62-2.58-19.11,1.62-27.35.39-.76,1.72-.22,1.4.58-3.42,8.5-3.7,17.22-.75,25.36.65,1.81-1.07,1.29-2.27,1.41Z"/>
        <path class="cls-3" d="M189.37,206.44c-2.15,3.62-5.2,7.63-8.81,10.45-1.61-.8-2.57-1.46-2.57-1.46,0,0,.82-.83,1.54-1.45.76-.64,1.49-1.3,2.18-2.02,2.13-2.25,4-4.75,5.59-7.42,3.27-5.49,4.77-11.05,5.71-17.3.15-1.04,1.79-.76,1.8.22.06,6.54-2.12,13.38-5.44,18.98Z"/>
      </g>
    </g>
  </g>
</svg>