<?xml version="1.0" encoding="UTF-8"?>
<svg id="Capa_2" xmlns="http://www.w3.org/2000/svg" viewBox="0 0 243.3 243.3">
  <defs>
    <style>
      .cls-1 {
        fill: #a36545;
      }

      .cls-2 {
        fill: #7b6767;
      }

      .cls-3 {
        fill: #b9aeae;
      }

      .cls-4 {
        fill: #fff;
      }

      .cls-5 {
        fill: none;
      }

      .cls-6 {
        fill: #4f3535;
      }

      .cls-7 {
        fill: #c0c728;
      }
    </style>
  </defs>
  <g id="grocery_icons">
    <g>
      <rect class="cls-5" width="243.3" height="243.3"/>
      <g>
        <g>
          <path class="cls-2" d="M132.12,106.13c-1.5-2.42-3.03-4.83-4.49-7.32-4.21-7.21-7.07-15.74-8.06-24.02-.68-5.64-1.14-11.24-3.2-16.6-2.75-7.16-7.17-14.38-13.58-18.8-5.78-3.99-12.93-5.53-19.87-5.63-15.43-.22-32.73,6.03-40.7,20.04-1.18,2.07-2.11,4.28-2.76,6.58-3.62,12.89,1.35,26.08-4.79,38.59-5.16,10.51-10.65,20.34-12.17,32.17-1.38,10.75.85,21.53,6.33,30.88,7.44,12.71,20.58,21.55,34.83,24.82,8.6,1.98,17.59,2.33,26.35,1.3,7.59-.89,15.02-3.17,21.86-6.58,8-3.99,15.31-9.58,20.81-16.67,9.66-12.45,11.76-28.58,7.07-43.45-1.76-5.6-4.62-10.47-7.63-15.31Z"/>
          <path class="cls-3" d="M74.96,43.38c-.25-.91-.94-5.9-.58-8.1.24-1.45,1.33-2.65,2.64-3.33,1.3-.67,2.8-.88,4.27-.95.57-.03,1.15-.03,1.7.14,1.16.37,1.93,1.46,2.4,2.58,1.03,2.47.84,7.03.75,9.71l-11.17-.05Z"/>
          <path class="cls-6" d="M39.16,118.34c-1.13-.3-2.34.12-3.11.97-1.93,2.1-.65,5.66,2.34,5.63,3.81-.04,4.35-5.64.77-6.6ZM38.86,121.93s0,0,0-.01c0,0,0,0,0,0,0,0,0,0,0,0ZM38.26,121.41s0,0-.01,0c0,0,0,0,0,0,.09-.02.15-.03,0,0ZM38.38,123.36s.04-.06.06-.09c0,0,0,0,.01-.01.34-.34-.02.02-.08.11Z"/>
          <path class="cls-6" d="M38.6,139.68c-1.47-.92-3.14-.85-3.97,1.21-.71,1.76.22,4.27,1.35,5.62,1.34,1.59,3.7,1.84,4.87-.11,1.42-2.34-.24-5.46-2.26-6.73Z"/>
          <path class="cls-6" d="M55.55,136.31c-1.07-1.88-3.87-1.85-5.19.15-1.91,2.9,1.08,6.51,4.14,4.28.99-.72,1.59-2,1.44-3.21-.06-.47-.2-.87-.39-1.22ZM53.22,136.28c-.12-.06-.24-.11-.36-.15,0,0,0,0,0,0,.12.05.24.1.36.15Z"/>
          <path class="cls-6" d="M70.55,41.88c5.37,4.51,14.12,5.51,19.45.25,1.25-1.23-.34-3.24-1.85-2.4-5.46,3.01-10.44,3.72-15.76-.22-1.37-1.02-3.15,1.27-1.83,2.38h0Z"/>
        </g>
        <path class="cls-2" d="M189.13,86.41c-20.1,2.93-28.1,14.58-35.92,18.26-15.46,7.28-33.24,7.36-48.44,15.39-13.74,7.26-20.72,19.96-21.89,35.22-.61,7.89-.42,16.72,2.24,24.25,2.4,6.78,8.42,14.06,13.28,19.27,21.66,23.22,55.03,27.12,83.42,16.75,13.48-4.93,25.18-12.57,32.98-24.72,7.49-11.67,10.89-25.29,12.65-38.9,1.67-12.98,3.02-26.87-.77-39.51-8.27-27.57-31.17-26.94-37.54-26.01Z"/>
        <path class="cls-4" d="M211.38,96.37s-9.76-9.17-24.98-8.2c-15.22.98-26.54,12.68-36.68,16.78-10.15,4.1-38.05,7.02-51.12,17.17-13.07,10.15-21.85,23.61-17.95,43.71,3.9,20.1,22.63,41.95,56.98,41.17,34.34-.78,65.56-27.32,75.32-49.95,9.76-22.63,7.61-42.15,6.44-48.2-1.17-6.05-8-12.49-8-12.49Z"/>
        <path class="cls-7" d="M187.87,95.67c-13.89,1.73-26.07,10.71-38.44,16.52-6.92,3.25-13.92,5.19-21.38,6.73-12.53,2.58-29.36,8.53-34.66,21.52-4.65,11.37-5.41,25.1.52,36.12,5.97,11.09,17.18,19.51,29.52,21.46,11.96,1.9,24.2.24,35.48-4.06,21.69-8.27,39.54-25.43,47.72-47.27,6.27-16.73,8.68-54.44-18.77-51.03Z"/>
        <path class="cls-1" d="M171.52,134.24c-.05-.16-.11-.31-.17-.46-1.2-3-4.52-5.39-7.14-7.08-6.32-4.07-14.07-6.17-21.55-6.51-9.8-.45-19.6,3.2-25.83,10.95-3.91,4.86-6.18,10.87-7.1,17-.95,6.34-1.45,14.55,2.44,20.05,7.84,11.12,25.74,8.69,36.39,3.8,7.66-3.52,14.17-9.54,18.35-16.86,2.05-3.6,3.54-7.53,4.29-11.61.53-2.91,1.29-6.36.33-9.28Z"/>
        <path class="cls-4" d="M134.81,126.06c-.71.03-1.42.22-2.09.48-4.04,1.51-7.77,3.68-10.69,6.92-3.25,3.6-5.84,9.43-3.85,14.13.57,1.34,2.74,1.81,3.88,1.02,3.61-2.5,3.16-6.84,5.49-10.24,2.22-3.24,6.01-5.42,9.17-7.64,1.91-1.35,1.2-4.17-1.02-4.6-.29-.06-.59-.08-.89-.06Z"/>
        <path class="cls-4" d="M116.79,156.97c.27.54.5,1.1.98,1.49.51.42,1.01.64,1.67.55s1.09-.42,1.46-.95.42-1.09.53-1.7c.17-.91.03-1.79-.65-2.47-.57-.57-1.34-.81-2.13-.7s-1.45.52-1.86,1.21c-.48.82-.42,1.74,0,2.57h0Z"/>
        <path class="cls-6" d="M221.24,111.38c-2.05-11.05-9.7-19.65-20.32-23.17-10.23-3.39-21.32-1.98-30.69,3.17-5.99,3.29-11.53,7.36-17.62,10.48-6.41,3.29-13.16,4.87-19.96,6.89-19.23,2.9-39.36,9.68-48.87,27.94-4.85,9.32-6.44,20.49-4.69,30.83,2.14,12.63,10.48,22.41,20.5,29.86,2.18,1.62,4.45,3.28,6.88,4.5,5.27,2.9,11.02,4.93,16.93,6.05,18.45,3.49,37.84-1.85,53.87-11.05,15.77-9.05,29.78-22.83,37.16-39.6,6-13.64,9.55-31.06,6.8-45.9ZM212.18,152.06c-11.67,31.53-48.46,55.49-82.04,53.17-12.59-.87-35.47-8.01-45.4-30.72-5.36-12.26-3.11-26.62,3.31-37.92,5.48-9.65,15.54-16.3,25.84-20.02,4.54-1.64,9.2-2.91,13.95-3.74,7.06-1.24,14.17-2.61,20.85-5.4,5.79-2.41,11.14-6.08,16.46-9.39,8.81-5.49,17.7-9.21,27.64-8.14,11.79,1.93,21.3,7.98,24.09,20.7,2.92,13.34-.02,28.84-4.69,41.46Z"/>
      </g>
    </g>
  </g>
</svg>