<?xml version="1.0" encoding="UTF-8"?>
<svg id="Capa_2" xmlns="http://www.w3.org/2000/svg" viewBox="0 0 243.3 243.3">
  <defs>
    <style>
      .cls-1 {
        fill: #fff;
      }

      .cls-2 {
        fill: none;
      }

      .cls-3 {
        fill: #4f3535;
      }

      .cls-4 {
        fill: #d9472e;
      }
    </style>
  </defs>
  <g id="grocery_icons">
    <g>
      <rect class="cls-2" width="243.3" height="243.3"/>
      <g>
        <path class="cls-4" d="M209.68,120.07c-2.17-35.86-17.37-48.31-39.94-49.38-.96-.05-1.93-.06-2.92-.05-8.56-.27-17.09,1.61-25.12,4.46-7.55,2.68-14.82,6.76-23.08,6.55-7.38-.19-12.94-4.01-19.14-7.41-11.29-6.2-24.94-9.01-37.42-4.89-25.86,8.53-32.3,39.38-23.65,74.12,8.65,34.75,27.95,74.14,50.21,77.62,22.26,3.47,28.17-15.4,35.05-12.07,6.88,3.33,14.25,18.61,37.04,10.12,22.79-8.49,51.13-63.2,48.97-99.05Z"/>
        <path class="cls-1" d="M73.63,80.56c-8.41.32-15.09,6.05-19.32,12.99-4.09,6.7-7.22,17.76-1.04,24.04,1.62,1.65,4.53,1.19,5.64-.8,3.04-5.48,1.96-12.15,5.02-17.78,2.85-5.25,7.88-8.67,12.22-12.57,2.24-2.01.37-5.98-2.52-5.87h0Z"/>
        <path class="cls-1" d="M55.85,133.16c.21.61.42,1.22.66,1.82.23.55.47.99.96,1.36.45.34,1.03.58,1.6.55.47-.03.91-.15,1.33-.38.63-.34.95-.96,1.19-1.59.23-.61.42-1.22.62-1.84.64-2.07-1.17-4.16-3.23-4.13s-3.82,2.17-3.13,4.22h0Z"/>
        <path class="cls-3" d="M160.06,197.65l3.06.03c1.17.01,2.3.07,3.28-.68,1.3-.99,1.28-2.61-.05-3.56-1-.72-2.13-.63-3.29-.59-1.02.04-2.04.07-3.06.11-3.01.11-2.96,4.66.06,4.69h0Z"/>
        <path class="cls-3" d="M162.07,188.48c1.1-.14,2.22-.21,3.32-.07,1.24.16,2.45.43,3.69.11,1.81-.47,2.07-2.64.98-3.9-1.99-2.28-6.1-1.87-8.77-1.45-2.98.46-2.24,5.7.79,5.31h0Z"/>
        <g>
          <path class="cls-1" d="M143.15,105.1c-4.75,0-8.97-.76-12.53-2.27-4.5-1.89-7.31-3.9-9.17-5.23-1.26-.9-2.09-1.49-2.89-1.64l-.1-.02h-.2c-.86,0-1.77.62-3.43,1.76-1.8,1.24-4.53,3.11-8.32,4.89-3.51,1.64-7.65,2.47-12.3,2.47-.92,0-1.89-.03-2.86-.1-.61-.04-1.32-.54-1.58-1.11-.16-.35-.13-.66.11-.98,3.83-5.13,8.49-9.9,13.85-14.19l1.12-.89-1.14-.86c-5.31-3.97-9.18-10.52-10.91-18.42-.08-.39.04-.87.31-1.2.14-.17.37-.37.69-.37.1,0,.2.02.3.05,6.69,2.22,13.11,5.13,19.09,8.65l1.86,1.1-.2-2.15c-.55-6-3.32-11.28-6.36-16.61-.68-1.19-1.45-2.36-2.26-3.61-2.15-3.29-4.37-6.69-4.84-10.19-.44-3.24,1.09-5.82,2.46-7.41,2.98-3.46,8.21-5.93,12.72-6h.25c4.5,0,8.09,1.85,10.68,5.5,6.72,9.49,5.06,27.54,1.82,36.75l-.58,1.65,1.74-.18c5.8-.61,11.76-2.64,17.52-4.61,2.39-.82,4.64-1.58,6.82-2.23.13-.04.27-.06.41-.06.63,0,1.28.41,1.61,1.03.19.36.35.91-.03,1.48-4.67,7.22-11.1,13.02-19.13,17.26l-1.31.69,1.04,1.06c3.64,3.73,6.87,8.03,9.58,12.79.37.66.38,1.41.02,2.06-.36.65-1.03,1.05-1.78,1.09-.69.03-1.38.05-2.08.05Z"/>
          <path class="cls-3" d="M154.49,66.6c-7.45,2.21-16.09,5.96-24.14,6.8,5.04-14.34,5.12-44.01-13.8-43.73-7.32.11-17.4,6.32-16.26,14.66.7,5.1,4.74,9.84,7.24,14.2,2.94,5.16,5.68,10.34,6.21,16.17-6.11-3.6-12.53-6.5-19.31-8.75-1.74-.57-3.06,1.25-2.73,2.81,1.6,7.35,5.3,14.56,11.32,19.07-5.25,4.2-9.98,8.96-14.04,14.39-1.29,1.71.56,3.74,2.28,3.86,5.38.35,10.81-.19,15.71-2.48,6.95-3.26,10.27-6.76,11.38-6.55,1.48.28,4.44,3.69,11.83,6.8,4.73,2,9.96,2.53,15.08,2.31,2.42-.1,3.88-2.68,2.68-4.8-2.72-4.77-5.95-9.12-9.75-13.01,7.89-4.17,14.62-10.03,19.54-17.64,1.37-2.1-.96-4.79-3.24-4.11ZM106.16,44.76c-.45-1.8-.35-3.57,1.05-5.14,1.46-1.63,3.75-2.81,5.77-3.46,2.42-.8,4.46-.79,6.17-.22-1.91,4.58-7.34,7.62-12.99,8.82ZM132.59,85.62c-1.95.83-2.76,1.18-.91,2.85,3.32,2.97,8.85,9.01,11.27,12.62-8.76,2.27-21.27-7.56-23.43-8.39-3.53-1.36-4.54,1.11-10.88,4.73-7.61,4.36-11.5,4.2-15.3,4.93,3.65-3.89,10.76-10.36,15.51-13.12,2.01-1.17,1.78-2.07-.12-3.23-5.61-3.39-11.06-10.96-13.45-16.68,6.06,2.39,14.41,7.18,19.95,10.67.01.01.02.02.03.02,1.71,1.28,2.83,1.5,3.14-1.37.8-7.43-.83-15.04-4.84-21.21-2.01-3.1-4.29-5.86-5.96-9.12,6.07-1.34,12.3-6.08,12.83-11.83,4.22,2.28,6.19,8.25,6.97,13.49,1.26,8.44,1.7,16.5-2.43,24.17-.91,1.68-.15,4.2,1.68,4.28,4.73.2,8.54-1.47,13.07-2.65,2.39-.63,10.04-3.04,12.07-4.09-4.36,4.41-13.31,11.47-19.19,13.94Z"/>
        </g>
      </g>
    </g>
  </g>
</svg>