<?xml version="1.0" encoding="UTF-8"?>
<svg id="Capa_2" xmlns="http://www.w3.org/2000/svg" viewBox="0 0 243.3 243.3">
  <defs>
    <style>
      .cls-1 {
        fill: none;
      }

      .cls-2 {
        fill: #fe9736;
      }

      .cls-3 {
        fill: #4f3535;
      }
    </style>
  </defs>
  <g id="grocery_icons">
    <g>
      <rect class="cls-1" width="243.3" height="243.3"/>
      <g>
        <path class="cls-2" d="M169.61,126.03s-8.13-7.55-21.08-1.93c-12.94,5.62-30.6,29.61-46.16,51.53-15.56,21.92-34.52,43.93-31.35,51.62,3.17,7.69,15.35,1.98,29.04-5.37,13.69-7.34,58.93-45.73,69.24-55.06,10.3-9.34,15.01-19.65,14.52-25.96-.49-6.3-2.35-6.02-2.35-6.02,0,0-13.37,6.86-14.12,2.6-.75-4.26,2.25-11.41,2.25-11.41Z"/>
        <path class="cls-3" d="M229.64,122.84c-.34-3.81-6.12-4.1-8.88-4.1-6.4-.01-12.65,1.44-18.76,3.26-8.82,2.64-18.08,5.5-26.28,10.02,8.77-7.46,17.35-15.18,26.16-22.59,5.21-4.38,10.95-8.72,15.51-13.78,1.89-2.09,4.68-7.2.47-8.57-4.13-1.34-9.68,2.21-12.74,4.59-4.96,3.87-9.4,8.68-13.71,13.25-4.6,4.87-8.99,9.93-13.13,15.18,1.76-4.32,3.17-8.77,4.28-13.16,1.49-5.87,2.3-11.93,2.52-17.98.11-3.09,1.29-9.53-2.04-11.51-3.38-2-4.89,1.46-5.55,4.18-1.45,5.93-2.36,11.98-3.46,17.98-2.29,12.47-5.17,24.79-9.74,36.64-.71,1.84-.77,5.32,4.29,4.8,3.66-.37,6.28-1.43,9.36-2.32,3.28-.95,6.59-1.83,9.9-2.66,5.68-1.43,11.41-2.68,17.17-3.81,5.73-1.13,11.49-2.06,17.23-3.06,3.15-.55,7.76-2.25,7.39-6.37ZM200.88,100.5c3.42-3.27,7-6.98,11.43-8.86.39-.16,2.9-1.39,3.34-.98,1.63,1.49-1.15,3.79-2.04,4.6-2.15,1.97-4.51,3.73-6.72,5.63-4.46,3.83-8.9,7.69-13.23,11.66-5.17,4.74-10.58,9.19-15.95,13.69,3.47-4.42,7.06-8.75,10.81-12.94,3.96-4.42,8.08-8.69,12.37-12.8ZM175.6,109.01c.97-4.45,1.8-8.94,2.62-13.42.43-2.35.82-4.7,1.23-7.06.29-1.68.23-5.87,1.15-7.16,1.38-1.91,1.77,1.31,1.73,2.5-.05,1.34-.17,2.69-.3,4.02-.22,2.23-.52,4.46-.88,6.68-.83,5.13-2.1,10.24-3.72,15.17-1.53,4.67-3.44,9.07-5.57,13.37,1.46-4.64,2.7-9.34,3.74-14.11ZM222.64,125.07c-8.83,1.97-17.86,3.14-26.7,5.21-4.58,1.07-9.15,2.21-13.7,3.41-1.7.45-3.53.84-5.37,1.28,6.55-3.27,13.6-5.53,20.54-7.83,5.35-1.77,10.76-3.44,16.37-4.19,2.76-.37,5.62-.61,8.41-.35.19.02,2.95.19,3.12.71.42,1.27-2.04,1.63-2.65,1.76Z"/>
        <path class="cls-3" d="M105.37,194.17c1.44,6.21,7.52,11.98,14.26,10.98.92-.14.93-1.53-.01-1.65-5.82-.72-11-3.51-12.63-9.56-.27-.99-1.86-.81-1.62.23h0Z"/>
        <path class="cls-3" d="M120.32,182.07c2.62,4.96,6.94,10.61,12.78,11.83.79.16,1.22-.98.59-1.43-2.08-1.49-4.39-2.54-6.35-4.22-2.22-1.9-4.19-4.2-5.53-6.81-.47-.92-1.98-.29-1.49.63h0Z"/>
        <path class="cls-3" d="M135.79,169.81c2.12,5.15,7.46,10.8,13.52,10.35.7-.05.78-1.08.17-1.33-2.44-1.02-4.84-1.58-7.02-3.18-2.26-1.66-4.03-3.92-5.11-6.5-.42-1.01-1.98-.35-1.56.66h0Z"/>
        <path class="cls-3" d="M152.38,158.34c2.11,4.88,6.53,9.24,11.96,9.99.84.12,1.21-1.15.39-1.46-4.76-1.82-8.64-4.39-10.82-9.18-.44-.97-1.96-.34-1.53.65h0Z"/>
        <path class="cls-3" d="M92.88,213.98c1.91,3.02,5.76,4.64,9.17,3.3.71-.28.39-1.36-.35-1.27-2.94.36-5.79-.51-7.56-2.99-.6-.85-1.8.12-1.26.97h0Z"/>
      </g>
      <g>
        <path class="cls-2" d="M79.72,73.37s-10.64-3.15-19.74,7.63c-9.1,10.78-14.25,40.12-18.46,66.67-4.2,26.55-11.41,54.69-5.15,60.17,6.26,5.48,14.63-5.05,23.63-17.71,9-12.66,32.48-67.15,37.56-80.09,5.08-12.94,4.72-24.28,1.48-29.71-3.24-5.43-4.78-4.35-4.78-4.35,0,0-8.92,12.09-11.49,8.61s-3.06-11.22-3.06-11.22Z"/>
        <path class="cls-3" d="M132.09,43.84c-2-3.27-7.31-.95-9.77.27-5.74,2.84-10.7,6.91-15.36,11.26-6.73,6.28-13.76,12.96-19.1,20.65,4.55-10.58,8.79-21.31,13.4-31.86,2.72-6.23,5.93-12.68,7.77-19.24.76-2.71.99-8.53-3.39-7.88-4.3.64-7.69,6.28-9.37,9.77-2.72,5.67-4.57,11.96-6.4,17.97-1.95,6.41-3.64,12.89-5.02,19.43-.35-4.65-1.06-9.27-2.02-13.68-1.28-5.92-3.24-11.71-5.73-17.23-1.27-2.82-3.08-9.11-6.94-9.4-3.92-.29-3.73,3.48-3.12,6.21,1.34,5.95,3.21,11.78,4.89,17.65,3.49,12.19,6.39,24.51,7.56,37.16.18,1.97,1.67,5.11,5.98,2.39,3.11-1.96,4.99-4.07,7.36-6.24,2.52-2.31,5.09-4.56,7.69-6.79,4.46-3.81,9.03-7.47,13.68-11.04,4.63-3.55,9.38-6.95,14.08-10.4,2.58-1.89,5.95-5.46,3.79-8.99ZM96.39,36.6c1.61-4.45,3.17-9.36,6.3-13.01.27-.32,1.98-2.53,2.56-2.37,2.12.61.65,3.9.22,5.03-1.05,2.72-2.38,5.34-3.52,8.03-2.3,5.41-4.55,10.84-6.67,16.33-2.53,6.54-5.39,12.93-8.21,19.35,1.14-5.5,2.43-10.98,3.93-16.39,1.59-5.72,3.38-11.38,5.39-16.96ZM77.53,55.46c-1.11-4.42-2.36-8.81-3.62-13.19-.66-2.29-1.35-4.58-2.03-6.87-.48-1.63-2.41-5.36-2.15-6.93.38-2.33,2.17.39,2.66,1.47.56,1.22,1.04,2.48,1.52,3.74.8,2.1,1.51,4.23,2.18,6.37,1.53,4.97,2.67,10.1,3.41,15.25.7,4.87.94,9.66.95,14.45-.75-4.8-1.73-9.57-2.92-14.3ZM126.8,48.95c-7.04,5.69-14.61,10.75-21.61,16.53-3.63,3-7.22,6.04-10.76,9.15-1.32,1.16-2.79,2.32-4.25,3.53,4.41-5.83,9.72-11,14.92-16.14,4.01-3.97,8.11-7.86,12.8-11.03,2.31-1.56,4.77-3.05,7.37-4.05.18-.07,2.72-1.14,3.11-.75.94.95-1.1,2.36-1.59,2.76Z"/>
        <path class="cls-3" d="M52.45,162.96c4.05,4.92,12.06,7.39,17.65,3.5.76-.53.15-1.79-.74-1.47-5.53,1.94-11.41,1.74-15.56-2.95-.68-.77-2.03.1-1.35.93h0Z"/>
        <path class="cls-3" d="M60.46,145.47c4.55,3.28,10.93,6.42,16.71,4.92.78-.2.66-1.42-.11-1.55-2.53-.41-5.06-.32-7.56-.96-2.83-.72-5.62-1.9-7.98-3.64-.84-.62-1.9.62-1.06,1.23h0Z"/>
        <path class="cls-3" d="M68.88,127.62c4.18,3.67,11.48,6.36,16.71,3.27.61-.36.22-1.31-.44-1.27-2.64.17-5.03.74-7.7.27-2.76-.49-5.35-1.72-7.47-3.55-.83-.71-1.93.57-1.1,1.29h0Z"/>
        <path class="cls-3" d="M78.64,109.97c4.06,3.44,9.95,5.38,15.16,3.64.81-.27.57-1.57-.3-1.49-5.08.48-9.69-.09-13.78-3.41-.83-.67-1.91.57-1.08,1.26h0Z"/>
        <path class="cls-3" d="M50.06,186.26c3.05,1.85,7.22,1.6,9.68-1.12.51-.57-.26-1.4-.88-.98-2.48,1.63-5.41,2.12-8.1.68-.91-.49-1.56.91-.7,1.43h0Z"/>
      </g>
    </g>
  </g>
</svg>