<?xml version="1.0" encoding="UTF-8" standalone="no"?>
<!DOCTYPE svg PUBLIC "-//W3C//DTD SVG 1.1//EN" "http://www.w3.org/Graphics/SVG/1.1/DTD/svg11.dtd">
<svg width="100%" height="100%" viewBox="0 0 4267 4267" version="1.1" xmlns="http://www.w3.org/2000/svg" xmlns:xlink="http://www.w3.org/1999/xlink" xml:space="preserve" xmlns:serif="http://www.serif.com/" style="fill-rule:evenodd;clip-rule:evenodd;stroke-linejoin:round;stroke-miterlimit:2;">
    
     <style>
    path { 
      fill: #E17100; 
    }

  </style><g transform="matrix(0.416699,0,0,-0.416699,0,4267)">
        <path d="M7190,9116C7075,9099 6961,9071 6843,9029C6445,8888 6117,8542 6074,8217C6068,8174 6058,8156 6001,8091C5864,7933 5784,7818 5711,7671C5647,7544 5614,7448 5545,7180C5473,6901 5439,6794 5382,6663C5291,6451 5151,6242 4998,6088C4862,5950 4750,5868 4440,5676C3914,5350 3780,5266 3630,5166C3137,4838 2865,4597 2615,4265C2353,3917 2207,3571 2121,3095C2102,2987 2089,2853 2070,2555C2065,2473 2054,2382 2045,2353C2022,2276 1954,2182 1890,2137C1805,2078 1763,2070 1547,2070C1287,2070 1138,2039 945,1943C604,1773 473,1552 584,1332C608,1285 685,1204 729,1180C742,1174 785,1157 824,1144C908,1115 1029,1104 1395,1095C1654,1088 1789,1099 1893,1136C1926,1148 2061,1150 2671,1150L3409,1150L3492,1124C3540,1108 3617,1094 3675,1089C3795,1079 4942,1079 5475,1089L5855,1096L5924,1123L5992,1150L7222,1150L7309,1122L7395,1095L7765,1095C8129,1095 8136,1095 8200,1119C8236,1132 8274,1144 8285,1145C8296,1146 8499,1148 8736,1149L9167,1150L9194,1176C9232,1215 9230,1269 9189,1304C9155,1333 9136,1334 8723,1330C8639,1329 8570,1332 8570,1336C8570,1340 8580,1364 8592,1389C8622,1451 8629,1583 8606,1661C8575,1768 8496,1861 8380,1930C8300,1977 8229,1999 8128,2007L8050,2013L8019,2062C7889,2264 7824,2662 7850,3090C7856,3197 7866,3318 7871,3359L7880,3432L7982,3539C8190,3756 8317,4002 8387,4324C8410,4431 8413,4472 8416,4672C8419,4894 8419,4899 8445,4950C8508,5075 8531,5283 8496,5416C8475,5498 8475,5497 8515,5504C8560,5513 8590,5552 8590,5601C8590,5676 8483,5846 8336,6007C8210,6145 8158,6235 8145,6335C8136,6409 8160,6489 8200,6523C8252,6568 8290,6574 8444,6564C8690,6548 8883,6554 8977,6578C9129,6619 9241,6682 9347,6789C9496,6937 9621,7197 9645,7405C9648,7438 9665,7505 9682,7554C9735,7713 9729,7782 9653,7856C9611,7895 9469,7960 9245,8039C8989,8130 8903,8166 8860,8198C8765,8267 8733,8314 8690,8445C8645,8583 8578,8691 8474,8794C8318,8949 8121,9041 7830,9096C7661,9128 7344,9138 7190,9116ZM7750,8915C7962,8880 8114,8826 8241,8739C8379,8646 8451,8549 8511,8379C8607,8107 8714,8020 9125,7880C9223,7847 9306,7817 9309,7814C9312,7812 9304,7803 9292,7794C9240,7758 9226,7677 9259,7605C9288,7539 9381,7470 9440,7470C9464,7470 9465,7461 9444,7363C9394,7119 9241,6901 9058,6811C8943,6754 8842,6736 8680,6744C8294,6763 8265,6763 8209,6745C8043,6691 7958,6565 7958,6373C7958,6186 8015,6072 8228,5833C8278,5776 8324,5722 8329,5711C8339,5692 8339,5692 8309,5707C8275,5724 8243,5719 8209,5691C8173,5662 8179,5613 8228,5548C8279,5481 8309,5406 8320,5316C8325,5277 8327,5244 8326,5242C8324,5241 8306,5273 8286,5315C8214,5467 8115,5591 7992,5682C7891,5757 7836,5767 7789,5721C7737,5669 7756,5616 7853,5547C8021,5427 8138,5237 8203,4982C8222,4906 8225,4869 8224,4680C8224,4496 8221,4450 8202,4364C8152,4132 8067,3944 7937,3773C7896,3718 7874,3704 7890,3742C7895,3755 7909,3809 7920,3864C7937,3944 7939,3969 7929,3997C7909,4060 7828,4077 7782,4027C7769,4013 7748,3955 7726,3868C7683,3700 7654,3629 7596,3542C7551,3474 7439,3350 7423,3350C7418,3350 7393,3430 7366,3528C7339,3625 7316,3710 7314,3716C7311,3722 7341,3748 7380,3774C7809,4059 8000,4645 7809,5093C7743,5249 7606,5411 7459,5507C7418,5534 7305,5595 7209,5643C7006,5744 6936,5797 6862,5903C6794,6001 6766,6024 6720,6016C6683,6010 6654,5982 6644,5944C6629,5886 6753,5708 6871,5615C6914,5582 7018,5522 7133,5464C7349,5355 7448,5287 7527,5191C7590,5115 7652,4993 7677,4900C7700,4813 7700,4620 7677,4528C7621,4302 7474,4077 7300,3951C7248,3914 7255,3905 7198,4066C7151,4198 7127,4230 7073,4230C7032,4230 6980,4184 6980,4148C6980,4135 6998,4073 7020,4010C7156,3623 7253,3247 7390,2586C7413,2477 7443,2351 7457,2306C7529,2074 7640,1919 7776,1859C7816,1840 7853,1835 7985,1829C8148,1822 8194,1813 8265,1778C8317,1752 8386,1685 8411,1638C8436,1590 8435,1500 8410,1440L8391,1395L8391,1431C8390,1482 8336,1583 8288,1625C8238,1667 8189,1672 8153,1638C8121,1608 8124,1577 8166,1509C8229,1404 8233,1343 8179,1314C8146,1297 8149,1294 8131,1377C8097,1540 7922,1673 7845,1595C7804,1555 7811,1515 7869,1461C7930,1404 7960,1355 7960,1312L7960,1278L7693,1282C7390,1286 7359,1293 7261,1370C7086,1509 6939,1912 6971,2167C6995,2365 6996,2353 6960,2383C6918,2419 6885,2417 6846,2378C6822,2353 6810,2328 6799,2280C6784,2210 6780,1973 6792,1880L6800,1825L6780,1860C6769,1879 6748,1931 6734,1975C6710,2044 6707,2071 6707,2175C6707,2279 6710,2306 6735,2380C6750,2427 6775,2491 6791,2522C6838,2616 6825,2678 6753,2696C6700,2710 6660,2675 6607,2570C6534,2425 6517,2346 6516,2158C6515,2071 6514,2000 6513,2000C6507,2000 6462,2161 6456,2201C6445,2275 6467,2415 6507,2525C6526,2580 6544,2643 6547,2666C6551,2702 6548,2710 6520,2733C6448,2794 6395,2753 6322,2580C6292,2509 6260,2377 6260,2323C6260,2299 6257,2280 6253,2280C6241,2280 6201,2384 6185,2454C6132,2688 6179,2964 6308,3170C6327,3200 6376,3257 6416,3296C6478,3355 6490,3371 6490,3399C6490,3442 6444,3490 6403,3490C6305,3490 6136,3291 6055,3081C5999,2935 5978,2826 5975,2669L5974,2533L5934,2486C5880,2421 5687,2255 5701,2285C5704,2291 5725,2333 5748,2380C5816,2518 5836,2687 5805,2862C5775,3033 5713,3181 5565,3428C5375,3746 5317,3907 5294,4180C5286,4281 5272,4314 5229,4329C5192,4342 5138,4323 5121,4292C5106,4263 5107,4122 5125,4010C5158,3792 5217,3644 5396,3338C5584,3016 5622,2910 5623,2705C5623,2600 5620,2577 5598,2518C5544,2375 5446,2251 5316,2162C5182,2069 5054,2026 4880,2015L4785,2009L4849,2072C5010,2232 5124,2477 5166,2750C5189,2903 5180,3149 5147,3290C5012,3857 4609,4246 4072,4326C3930,4348 3687,4340 3545,4310C3382,4275 3147,4178 3072,4115C3014,4066 3034,3978 3108,3955C3125,3950 3165,3964 3258,4008C3492,4119 3667,4156 3900,4147C4058,4141 4150,4123 4274,4074C4425,4014 4522,3949 4641,3831C4754,3718 4808,3643 4869,3515C4951,3345 4991,3167 4991,2975C4991,2654 4899,2401 4711,2207C4623,2116 4543,2060 4405,1993C4341,1963 4283,1929 4275,1917C4251,1883 4256,1842 4289,1809C4325,1774 4346,1773 4440,1805L4514,1830L5080,1830C5612,1830 5652,1829 5724,1810C5853,1777 5969,1692 6022,1590C6040,1555 6045,1529 6045,1473C6045,1429 6040,1396 6033,1388C6023,1379 6020,1382 6020,1408C6020,1507 5901,1650 5819,1650C5779,1650 5767,1643 5751,1613C5733,1579 5737,1565 5785,1495C5843,1411 5860,1352 5837,1317C5822,1294 5777,1276 5765,1288C5762,1291 5760,1310 5760,1330C5760,1353 5746,1395 5725,1438C5645,1597 5489,1671 5446,1569C5426,1522 5437,1494 5495,1444C5547,1401 5580,1343 5580,1300C5580,1280 5570,1280 4612,1280C3557,1280 3580,1279 3481,1337C3342,1418 3267,1558 3314,1648C3333,1685 3402,1721 3546,1770C3695,1821 3865,1905 3951,1969C4017,2020 4124,2139 4154,2197C4183,2255 4169,2307 4116,2335C4086,2351 4081,2352 4049,2336C4030,2327 4006,2306 3996,2290C3967,2240 3850,2130 3776,2082C3694,2030 3615,1993 3515,1960C3269,1880 3200,1837 3150,1736C3094,1622 3101,1502 3171,1387L3200,1340L2987,1340C2745,1340 2633,1350 2505,1384C2384,1417 2294,1458 2179,1536C2070,1609 2035,1616 1995,1575C1981,1562 1970,1539 1970,1525C1970,1490 1995,1443 2022,1429L2043,1418L2019,1399C1976,1366 1889,1330 1801,1307C1681,1277 1432,1277 1318,1308C1218,1335 1148,1371 1089,1427C969,1539 970,1684 1091,1780C1184,1854 1310,1880 1565,1880C1759,1880 1817,1889 1920,1936C2037,1990 2126,2079 2189,2207C2240,2309 2250,2368 2265,2630C2280,2900 2297,3029 2341,3225C2443,3673 2647,4050 2975,4398C3212,4648 3519,4879 4070,5222C4216,5313 4430,5446 4545,5517C4897,5737 5028,5838 5183,6009C5446,6300 5595,6604 5719,7100C5742,7191 5782,7330 5808,7410L5855,7555L5861,7445C5873,7240 5929,7089 6038,6968C6060,6944 6061,6939 6050,6903C6012,6788 5959,6723 5857,6666C5767,6615 5748,6568 5796,6511C5831,6469 5877,6469 5956,6511C6070,6572 6155,6658 6194,6753L6216,6807L6359,6688C6450,6611 6517,6547 6543,6509C6650,6357 6678,6324 6728,6294C6918,6179 7197,6269 7376,6501C7513,6680 7585,6901 7584,7145C7583,7290 7572,7359 7509,7597C7468,7747 7466,7762 7466,7900C7465,8037 7467,8049 7493,8109C7508,8145 7520,8181 7520,8191C7520,8217 7474,8267 7446,8272C7378,8285 7324,8219 7289,8079C7271,8008 7268,7977 7273,7865C7277,7748 7283,7713 7335,7515C7392,7298 7393,7293 7394,7150C7395,6998 7385,6938 7338,6820C7252,6603 7064,6430 6912,6430C6849,6430 6803,6464 6744,6555C6714,6602 6653,6680 6607,6729C6562,6778 6510,6843 6491,6874C6387,7047 6356,7244 6410,7398C6436,7472 6435,7486 6401,7521C6360,7561 6309,7561 6271,7521C6215,7461 6180,7282 6197,7145C6203,7101 6206,7064 6205,7062C6200,7056 6129,7171 6105,7222C6002,7447 6055,7749 6218,7869C6281,7916 6290,7928 6290,7969C6290,7993 6282,8012 6263,8032L6236,8060L6271,8096C6320,8148 6482,8253 6586,8301C6635,8324 6683,8352 6692,8364C6719,8397 6715,8446 6683,8476C6643,8513 6582,8506 6460,8451C6408,8428 6359,8406 6351,8403C6327,8393 6399,8489 6473,8567C6670,8774 6951,8904 7270,8934C7359,8942 7657,8931 7750,8915ZM7665,3220C7651,3139 7657,2679 7674,2548C7697,2367 7738,2203 7781,2118C7808,2066 7790,2070 7751,2125C7670,2237 7624,2379 7554,2726C7529,2852 7500,2992 7489,3038C7479,3083 7470,3125 7470,3130C7470,3139 7649,3259 7663,3260C7668,3260 7669,3242 7665,3220ZM6068,2208C6119,2104 6157,2066 6208,2066C6228,2066 6252,2069 6261,2074C6275,2080 6281,2073 6290,2043C6311,1980 6370,1873 6411,1826C6460,1771 6497,1760 6544,1788L6578,1808L6621,1748C6681,1662 6763,1583 6799,1575C6816,1571 6842,1571 6858,1575C6884,1580 6888,1577 6914,1523C6929,1491 6962,1437 6986,1403C7010,1369 7030,1340 7030,1338C7030,1333 6230,1337 6224,1343C6221,1346 6223,1365 6229,1387C6268,1524 6210,1692 6081,1820C5970,1930 5844,1989 5666,2015L5585,2026L5625,2040C5731,2075 5930,2198 5994,2269C6005,2281 6016,2290 6020,2290C6024,2290 6045,2253 6068,2208ZM840,1445C853,1419 877,1382 893,1363C909,1345 920,1327 917,1323C909,1315 833,1346 797,1372C781,1384 759,1413 748,1437C725,1490 734,1538 777,1582L805,1611L811,1552C814,1520 827,1472 840,1445Z" style="fill-rule:nonzero;"/>
        <path d="M8155,8268C8135,8251 8102,8211 8083,8181C8063,8150 8032,8108 8014,8087C7929,7993 8018,7940 8118,8026C8152,8055 8163,8059 8179,8051C8205,8037 8263,8037 8293,8051C8349,8076 8377,8179 8345,8240C8323,8282 8292,8300 8238,8300C8199,8300 8184,8294 8155,8268Z" style="fill-rule:nonzero;"/>
        <path d="M4844,5202C4833,5193 4798,5146 4767,5099C4647,4915 4464,4783 4202,4690C4099,4653 4070,4628 4070,4573C4070,4550 4078,4531 4096,4513C4119,4490 4127,4488 4173,4493C4262,4502 4498,4601 4613,4678C4788,4794 4965,5006 4977,5115C4982,5154 4979,5162 4952,5190C4917,5224 4877,5229 4844,5202Z" style="fill-rule:nonzero;"/>
    </g>
</svg>
