<?xml version="1.0" encoding="UTF-8"?>
<svg id="Capa_2" xmlns="http://www.w3.org/2000/svg" viewBox="0 0 243.3 243.3">
  <defs>
    <style>
      .cls-1 {
        fill: #fff;
      }

      .cls-2 {
        fill: none;
      }

      .cls-3 {
        fill: #e58473;
      }

      .cls-4 {
        fill: #4f3535;
      }
    </style>
  </defs>
  <g id="grocery_icons">
    <g>
      <rect class="cls-2" width="243.3" height="243.3"/>
      <g>
        <g>
          <g>
            <path class="cls-3" d="M207.44,55.75c0,4.13-21.98.56-30.62,16.35-8.65,15.78-3.95,30.44-15.22,40.2-11.27,9.77-26.88,1.32-39.08,8.27-13.85,7.88-14.46,16.15-28.75,22.16-14.28,6.02-43.59,5.83-43.59,5.83,0,0-4.15-5.46-8.35-12.04-.18-.26-.35-.53-.52-.8-.2-.33-.42-.66-.63-.99h0c-1.12-1.84-2.22-3.71-3.22-5.55-.29-.55-.59-1.1-.87-1.65-.11-.23-.23-.44-.33-.65-1.8-3.58-3.07-6.92-3.17-9.32-.38-9.02,15.78-21.23,30.81-18.97,15.03,2.25,20.66.74,25.56-4.14,4.88-4.88,7.51-19.73,21.42-23.87,13.9-4.13,19.9,2.57,29.12-5.25,6.2-5.26,2.45-25.93,19.73-36.83,17.28-10.9,26.3-12.03,30.07-9.58,2.42,1.59,4.9,4.91,7.2,8.96.08.15.17.29.25.44.37.65.73,1.33,1.09,2.02,2.18,4.19,4.13,8.87,5.67,13.09.19.53.37,1.04.55,1.54.12.35.24.69.35,1.03,1.58,4.67,2.54,8.42,2.54,9.75Z"/>
            <path class="cls-1" d="M204.55,44.97c-.64.03-1.31.05-2,.07-10.02.25-21.54,5.01-33.82,17.78-12.28,12.78-5.51,33.08-21.05,39.08-15.52,6.01-23.08-.12-36.35,2.13-13.28,2.25-16.75,13.94-25.27,20.95-8.52,7.01-15.03,5.47-25.8,4.48-6.75-.63-14.28,3.26-18.96,6.26-1.68-2.67-3.34-5.49-4.72-8.18,3.66-3.68,10.89-9.02,22.17-9.35,17.29-.51,19.04-2.76,30.57-7.02,11.52-4.25,18.29-20.29,29.05-24.29,10.78-4.01,19.04.74,28.06-4.51,9.02-5.26,12.03-22.79,20.8-36.07,6.61-10.01,22.33-15.75,30-17.97,2.89,5.15,5.47,11.39,7.32,16.65Z"/>
          </g>
          <path class="cls-4" d="M204.9,46c-17.72,3.58-38.34,13.82-42.82,32.17-1.68,6.88-2.69,14.49-7.88,19.78-4.54,4.67-11.12,6.29-17.42,6.74-8.93.63-18.2-1.84-26.99.62-8.91,2.49-13.45,10.18-19.38,16.56-4.48,4.81-9.5,8.16-16.15,8.89-9.54,1.03-21.52-1.91-32.44,5.75-.18-.26-.35-.53-.52-.8-.2-.33-.42-.66-.63-.99h0c6.43-4.72,14.79-7.01,25.46-6.56,6.03.26,12.04.17,17.2-3.38,3.21-2.21,5.74-5.26,8.23-8.22,4.52-5.38,9.02-10.74,15.86-13.16,7.87-2.76,16.36-1.39,24.47-1.19,10.29.23,20.42-1.89,24.62-12.37,2.96-7.4,3.65-14.99,7.52-22.08,6.99-12.8,25.78-21.84,39.96-24.34.19.53.37,1.04.55,1.54.12.35.24.69.35,1.03Z"/>
          <path class="cls-4" d="M198.33,30.34c-8.21,1.68-18.58,7.16-24.79,12.75-6.62,5.95-9.91,13.27-13.37,21.28-5.66,13.04-12.46,23.18-28.05,22.46-5.25-.25-10.34-.78-15.04,2.09-4.35,2.65-7.85,7.24-11.44,10.78-5.75,5.66-11.88,10.27-18.83,14.49-6.63,4.02-14.32,5.47-21.98,5.83-9.09.42-20.35,2.48-27.38,9.18-.29-.55-.59-1.1-.87-1.65-.11-.23-.23-.44-.33-.65,14.63-15.08,34.45-6.47,48.69-14.68,8.27-4.78,15.32-10.57,22.19-17.17,5.32-5.1,9.81-9.26,17.44-10.01,9.85-.98,19.02.8,26.11-7.7,6.03-7.23,8.4-18.48,12.9-26.56,6.49-11.7,20.15-20.75,33.41-22.88.08.15.17.29.25.44.37.65.73,1.33,1.09,2.02Z"/>
        </g>
        <g>
          <path class="cls-3" d="M233.36,149c-1.38,1.1-15.52-4.51-28.06,8.51-12.52,13.03-9.49,30.55-26.05,38.08-13.78,6.27-25.05-7.51-37.57-6.01-12.52,1.5-20.54,20.29-39.58,21.79-12.74,1-25.2-12.69-36.83-10.27-12.02,2.5-18.53,14.78-22.55,14.04-1.29-.24-3.91-5.24-6.89-12.14-.21-.51-.44-1.01-.65-1.53-.14-.33-.27-.65-.41-.99-2.15-5.19-4.42-11.14-6.4-16.85-.2-.57-.41-1.15-.6-1.71-.14-.39-.27-.79-.41-1.18-3.12-9.13-5.37-17.11-5.19-19.45.5-6.27,19.54-30.82,43.59-24.55,24.05,6.27,27.8,12.03,39.33,8.77,11.52-3.26,14.52-15.78,28.8-14.04,14.28,1.76,17.42,7.65,35.95,2.64,18.54-5.01,12.65-26.44,30.44-34.45,17.79-8.02,20.04-5.76,20.04-5.76,0,0,3.1,5.58,6.28,12.95.07.15.12.29.19.44.26.6.52,1.22.77,1.84,1.93,4.66,3.77,9.84,4.85,14.68.07.29.14.57.19.86.08.37.15.72.2,1.08.02.07.03.15.05.21,2.5,14.04,3.01,21.05.5,23.05Z"/>
          <path class="cls-1" d="M232.62,124.65c-6.55.63-18.18,3.09-26.56,12.32-12.28,13.53-18.95,30.04-32.72,34.04-13.79,4.01-23.14-9.49-37.67-5.98-14.53,3.51-14.34,15.34-32.13,18.1-17.79,2.75-33.51-6.58-46.28-4.82-10.89,1.49-18.51,15.02-22.07,23.16-2.48-5.92-5.15-12.98-7.41-19.56,5.85-8.15,16.19-19.74,27.98-20.38,18.28-1,26.81,12.28,42.08,7.26,15.29-5.01,19.29-22.79,38.08-22.04,18.79.76,27.3,13.78,41.08,5.51,13.79-8.27,17.03-29.82,30.82-38.08,8.12-4.87,14.85-6.44,19-6.9,2.3,5.38,4.62,11.65,5.81,17.37Z"/>
          <path class="cls-4" d="M227.58,109.12c-7.73,1.89-17.99,5.03-23.53,10.79-6.48,6.76-8.96,15.09-13.62,21.42-6.97,9.48-14.31,17.29-26.85,15.51-7.43-1.06-14.17-4.69-21.48-6.27-9.56-2.06-16.84-.16-24.38,5.79-5.14,4.06-10.56,11.5-16.83,13.87-6.5,2.45-15.04.26-21.51-1.38-9.93-2.51-21.07-8.03-31.18-3.01-6.62,3.29-14.9,11.71-19.83,17.78-.2-.57-.41-1.15-.6-1.71-.14-.39-.27-.79-.41-1.18,4.44-6.48,12.99-13.91,19.9-17.32,7.6-3.75,15.91-1.93,23.71.36,8.54,2.5,21.04,7.38,29.68,3.35,7.07-3.3,13.84-12.37,20.54-16.58,6.28-3.93,12.06-4.95,19.45-3.86,7.05,1.05,12.92,4.66,19.78,6.36,8.8,2.19,15.9.27,22.2-6.14,5.24-5.34,8.97-13.98,12.89-20.31,3.25-5.25,6.5-8.92,11.56-12.68,4.58-3.4,13.64-5.64,19.56-7.06.07.15.12.29.19.44.26.6.52,1.22.77,1.84Z"/>
          <path class="cls-4" d="M232.82,125.73c-21.05,3.19-33.9,22.44-46.24,37.39-4.96,6.01-10.5,9.82-18.51,9.62-10.11-.26-19.13-6.5-29.23-6.37-10.26.14-15.68,8.51-23.52,13.57-7.42,4.79-16.41,5.44-24.98,4.42-10.04-1.2-20.07-5.11-30.26-4.46-10.53.65-19.29,13.9-24.25,23.1-.21-.51-.44-1.01-.65-1.53-.14-.33-.27-.65-.41-.99,3.01-6.99,8.87-16.93,14.27-20.16,7.6-4.53,16.73-3.97,24.94-2.32,11.46,2.31,23.87,6.13,35.33,1.71,8.33-3.22,13.38-11.42,21.64-14.68,9.41-3.7,19.02.86,28.05,3.44,6.2,1.77,13.02,2.9,18.84-.69,4.79-2.93,8.27-8.11,11.6-12.49,9.95-13.09,24.55-30.66,42.98-31.5.07.29.14.57.19.86.08.37.15.72.2,1.08Z"/>
          <path class="cls-4" d="M22.98,160.36c10.61-17.49,26.01-25.23,46.64-20.73,8.92,1.94,17.63,7.04,26.88,7.34,18.88.61,25.01-17.55,46.93-13.34,12.59,2.42,21.1,9.08,32.99.3,4.9-3.62,7.19-8.06,9.96-13.33,8.15-15.55,15.67-22.03,33.26-26.37,1.54-.38.88-2.67-.65-2.36-17.67,3.53-25.7,9.21-33.89,25.09-17.84,34.56-39.03,3.56-63.18,16.11-13.24,6.88-22.4,13.13-38.34,8.26-8.25-2.53-17.01-5.91-25.78-6-16.58-.18-28.22,10.59-36.23,24.2-.54.91.87,1.73,1.42.83h0Z"/>
        </g>
      </g>
    </g>
  </g>
</svg>