<?xml version="1.0" encoding="UTF-8"?>
<svg id="Capa_2" xmlns="http://www.w3.org/2000/svg" viewBox="0 0 243.3 243.3">
  <defs>
    <style>
      .cls-1 {
        fill: #fff;
      }

      .cls-2 {
        fill: #f2bfb6;
      }

      .cls-3 {
        fill: none;
      }

      .cls-4 {
        fill: #4f3535;
      }

      .cls-5 {
        fill: #eeaca1;
      }
    </style>
  </defs>
  <g id="grocery_icons">
    <g>
      <rect class="cls-3" width="243.3" height="243.3"/>
      <g>
        <path class="cls-5" d="M216.6,158c-4.89,1.4-10.12,2.22-15.08,2.69-4.1.39-8.01.53-11.41.54-6.79.05-11.53-.4-11.53-.4,0,0-71.2-61.48-92.23-66.34-21.03-4.86-56.23.4-56.23.4,0,0-1.5-2.13-3.03-5.57-.91-2.07-1.84-4.63-2.45-7.47-1.19-5.61-1.13-12.37,2.65-18.92,8.9-15.37,17.81-17.8,28.72-18.2,10.93-.4,28.08,2.65,47.33,0,20.63-2.83,44.9,1.21,55.83,10.12,10.92,8.89,22.65,27.5,41.66,40.04,19.01,12.53,35.2,33.97,36.41,43.69,1.21,9.71-3.64,14.56-20.64,19.42Z"/>
        <path class="cls-4" d="M201.52,160.69c-4.1.39-8.01.53-11.41.54-.14-.17-.29-.36-.44-.53-2.69-3.12-5.68-6-8.73-8.77-5.76-5.23-11.86-10.05-17.5-15.41-11.77-11.23-18.98-27.96-32.91-36.74-15.87-9.98-36.1-13.51-54.55-14.13-9.47-.32-18.95.15-28.39.97-6.87.61-13.68,1.77-20.51,2.69-.91-2.07-1.84-4.63-2.45-7.47,17.2-4.39,32.18-7.46,49.46-6.76,19.13.79,43.71,6.19,60.34,16.15,15.46,9.26,22.78,26.63,35.55,38.76,6.06,5.76,12.69,10.89,18.83,16.58,4.19,3.89,9.51,8.72,12.72,14.11Z"/>
        <path class="cls-2" d="M38.2,81.55c-13.18,2.23-32.22,11.04-32.77,26.34-.32,8.66,2.03,19.26,8.5,25.44,8.9,8.5,12.94,20.63,15.37,32.36,2.43,11.73,4.05,19.01,20.23,25.08s33.58,1.62,41.26,9.71,11.73,16.99,36,14.16,42.88-3.24,56.63-2.43c13.75.81,23.06,5.26,29.13-6.07,6.07-11.33-11.33-43.69-25.89-55.83-7.98-6.65-16.12-13.12-23.8-20.12-7.53-6.87-12.93-14.23-18.96-22.37-7.47-10.07-18.74-16.85-30.67-20.24-11.97-3.4-24.94-4.92-37.29-6.23-12.48-1.32-25.31-1.92-37.74.19Z"/>
        <path class="cls-4" d="M188.67,144.79c1.04.67,2.29.78,3.49.98,1.09.17,2.18.33,3.27.45,2.27.25,4.55.41,6.82.5s4.41.18,6.6.03,4.3-.47,5.64-2.22c.67-.88-.26-2.01-1.18-2.05s-1.92.23-2.86.39-1.91.21-2.88.24c-2.01.05-4.03.02-6.03-.06s-4.08-.23-6.12-.42c-1.09-.11-2.19-.2-3.28-.31s-2.1-.28-3.16,0c-1.18.31-1.29,1.88-.33,2.49h0Z"/>
        <path class="cls-4" d="M223.28,142.36c.47-.34.96-.68,1.41-1.05l.52-.43c.18-.15.34-.34.5-.51.2-.21.31-.45.35-.74s0-.58-.15-.82c-.12-.19-.27-.34-.46-.46-.15-.09-.31-.14-.48-.15-.17-.04-.34-.03-.51.02-.32.12-.65.22-.95.38l-.6.32c-.41.22-.81.48-1.21.72-.34.21-.61.55-.72.94-.07.21-.07.42-.03.63,0,.21.07.4.19.58.22.33.54.63.94.72s.87.09,1.21-.16h0Z"/>
        <path class="cls-4" d="M128.68,79.62c1.08-3.36,3.07-6.53,5.57-9.02,1.25-1.24,2.63-2.3,4.13-3.21.78-.47,1.58-.89,2.42-1.26.41-.18.82-.37,1.24-.56.48-.22.87-.58,1.28-.91,1.01-.79.08-2.23-.96-2.31-2.08-.15-4.12,1-5.85,2.06s-3.34,2.39-4.73,3.87c-2.82,3-4.76,6.61-5.54,10.66-.31,1.59,1.94,2.24,2.45.67h0Z"/>
        <path class="cls-4" d="M90.69,69.82c1.17-2.73,2.75-5.23,4.7-7.38.99-1.09,2.04-2.12,3.17-3.06,1.12-.93,2.37-1.8,3.54-2.88,1.04-.96-.04-2.78-1.38-2.37-3.12.96-5.84,3.43-7.93,5.87-2.19,2.56-3.9,5.42-5.14,8.55-.69,1.73,2.29,3.01,3.04,1.28h0Z"/>
        <path class="cls-4" d="M73.53,123.53c.94-1.69,1.59-3.53,2.5-5.24.88-1.67,1.92-3.27,3.12-4.73s2.58-2.83,4.05-4.03c.72-.59,1.48-1.13,2.25-1.66.84-.57,1.84-1.12,2.48-1.92.73-.91.38-2.7-1.07-2.58-2.21.18-4.21,1.83-5.87,3.18-1.66,1.35-3.17,2.88-4.5,4.55-1.35,1.69-2.55,3.48-3.53,5.4-1,1.96-1.9,4.12-2.01,6.34-.07,1.39,1.93,1.88,2.59.7h0Z"/>
        <path class="cls-4" d="M115.07,137.12c.89-3.07,2.26-5.96,4.06-8.6.86-1.26,1.82-2.44,2.87-3.55,1.13-1.2,2.36-2.31,3.41-3.58.88-1.06-.2-2.58-1.49-1.93-3.06,1.55-5.37,4.68-7.17,7.51-1.85,2.91-3.23,6.14-4.06,9.49-.39,1.55,1.95,2.2,2.4.66h0Z"/>
        <path class="cls-4" d="M164.98,173.63c1.15-1.88,2.49-3.51,4.12-5.02.4-.37.8-.72,1.22-1.06.12-.1.24-.19.36-.29-.14.11.09-.07.14-.1.23-.17.46-.33.68-.49.96-.69,1.94-1.37,2.86-2.12.97-.79-.08-2.45-1.21-2.08-2.35.78-4.32,2.43-6.02,4.17-1.67,1.71-3.11,3.66-4.26,5.76-.75,1.38,1.28,2.56,2.1,1.23h0Z"/>
        <path class="cls-4" d="M105.49,195.65c1.65.75,2.82,2.34,4.19,3.5s2.92,2.05,4.6,2.73c3.44,1.39,7.21,1.78,10.88,2.08,3.98.31,8.02.54,12,.26,3.58-.25,8.35-.75,11.05-3.41.8-.79.25-2.45-.97-2.35-1.82.15-3.63.84-5.43,1.18s-3.57.61-5.4.73c-3.75.23-7.5,0-11.25-.17-3.36-.15-6.8-.38-9.98-1.58-3.25-1.23-5.38-4.32-8.81-5.04-1.18-.25-2.11,1.51-.87,2.07h0Z"/>
        <path class="cls-4" d="M162.66,198c2.88-.49,5.69-.81,8.6-.76s5.62.03,8.43.13,5.4.46,8.1.66c2.3.17,5.08.14,6.77-1.67.8-.86.25-2.36-.97-2.35s-2.52.28-3.8.31c-1.17.03-2.33-.06-3.5-.17-2.66-.25-5.33-.48-8.01-.45-5.45.04-10.91.97-16.26,2.01-1.51.29-.86,2.54.63,2.29h0Z"/>
        <path class="cls-4" d="M44,150.81c4.66.5,9.33,1.04,13.92,2.01,4.58.97,9.09,2.29,13.51,3.83,8.81,3.06,17.39,6.84,25.84,10.78,4.03,1.88,8.46,4.12,11.71,7.2.83.79,2.1-.2,1.57-1.21-2.08-3.94-5.3-6.37-9.22-8.34-4.16-2.08-8.47-3.9-12.74-5.74-9.11-3.94-18.41-7.6-28.13-9.76-5.4-1.2-10.92-2.04-16.46-1.69-1.9.12-1.85,2.72,0,2.92h0Z"/>
        <path class="cls-4" d="M117.26,181.54c1.56,0,1.57-2.43,0-2.43s-1.57,2.43,0,2.43h0Z"/>
        <path class="cls-1" d="M42.71,64.58c.45-.97,1.01-1.89,1.66-2.74l-.34.45c.75-.97,1.62-1.81,2.54-2.62.11-.1.22-.19.33-.29.05-.04.29-.29.34-.28-.02,0-.41.32-.17.13.17-.13.35-.26.52-.4.11-.09.22-.19.33-.28.22-.18.38-.39.54-.63.17-.26-.25.26-.08.1.05-.05.1-.1.15-.15.34-.35.67-.68.78-1.18.13-.59-.08-1.33-.66-1.62-.52-.26-.92-.27-1.51-.19-.11.02-.22.03-.32.05-.42.07.25-.01.08,0-.24.02-.58.03-.78.09-.23.08-.46.19-.69.29-.2.09-.4.18-.6.3-.9.54-1.75,1.19-2.5,1.92-1.4,1.38-2.59,3.04-3.4,4.83-.25.55-.39,1.08-.22,1.69.14.51.53,1.06,1.01,1.31.97.51,2.48.32,3-.79h0Z"/>
        <path class="cls-1" d="M54.53,54.91l.77-.26c.26-.09.52-.18.75-.33l.33-.22.32-.25c.15-.14.26-.31.33-.51.07-.12.11-.26.11-.4.05-.21.04-.42-.03-.63l-.16-.38-.25-.32c-.14-.15-.31-.26-.51-.33-.19-.1-.39-.14-.61-.14l-.39-.03c-.07,0-.14-.01-.21-.01-.19,0-.43.06-.64.09l-.8.13c-.24.06-.45.17-.63.33-.2.13-.36.3-.48.52-.14.21-.21.44-.22.69-.06.25-.04.49.03.74l.19.44c.16.28.39.5.66.66l.44.19c.33.09.66.09.98,0h0Z"/>
        <path class="cls-1" d="M208.77,126.8l1.37-.6c.23-.1.44-.21.66-.34s.45-.25.63-.45c.08-.09.15-.18.22-.27.17-.21.34-.43.41-.7l.06-.42c0-.22-.04-.42-.14-.61-.04-.14-.11-.25-.21-.35-.07-.12-.17-.22-.29-.29-.29-.23-.59-.31-.97-.34-.11,0-.23-.02-.34-.03-.27,0-.52.07-.78.14-.24.07-.47.15-.7.25l-1.38.58c-.32.09-.59.25-.83.48l-.29.38c-.17.29-.26.61-.26.95,0,.26.04.5.16.72.08.23.21.43.39.6.17.18.37.31.6.39.22.12.47.17.72.16.34,0,.66-.09.95-.26h0Z"/>
        <path class="cls-1" d="M202.06,117.28c2.21,0,2.21-3.43,0-3.43s-2.21,3.43,0,3.43h0Z"/>
        <path class="cls-1" d="M150.65,140.48l1.34-1.21c.11-.1.22-.19.31-.3l.28-.36c.17-.22.37-.43.5-.66.08-.13.15-.27.22-.4.31-.57.27-1.25-.12-1.77-.07-.12-.17-.22-.29-.29-.1-.1-.22-.17-.35-.21-.31-.13-.71-.2-1.04-.08-.4.14-.79.29-1.16.5l-.39.22c-.26.15-.49.36-.72.55l-1.42,1.16c-.2.18-.34.4-.42.65-.13.24-.18.5-.17.78-.01.28.05.54.17.78.08.25.22.47.42.65.38.35.89.61,1.42.59l.54-.07c.34-.1.64-.27.89-.52h0Z"/>
        <path class="cls-1" d="M25.39,105.44c.69-1.07,1.38-2.14,2.07-3.21.34-.52.65-1.08.92-1.64.14-.29.26-.6.39-.9.11-.25.24-.5.3-.77.09-.39.04-.72-.03-1.1-.18-.87-1.17-1.3-1.96-1.11-.83.19-1.4.9-1.92,1.54-.48.58-.95,1.2-1.35,1.84-.69,1.07-1.38,2.14-2.07,3.21-.6.94-.22,2.38.76,2.9,1.05.56,2.26.24,2.9-.76h0Z"/>
        <path class="cls-1" d="M38.24,105.57c2.51,0,2.51-3.89,0-3.89s-2.51,3.89,0,3.89h0Z"/>
        <path class="cls-1" d="M65.99,180.51l1.11-.06c.34-.02.7-.01,1.02-.15l.24-.1c.11-.04.21-.09.32-.13.23-.07.42-.2.59-.38.11-.12.21-.25.3-.39.33-.5.33-1.29,0-1.8-.18-.28-.39-.49-.66-.67-.12-.08-.35-.15-.52-.22l-.24-.1c-.33-.14-.69-.14-1.04-.16l-1.11-.06c-.29-.01-.56.05-.81.18-.26.09-.49.23-.68.44-.21.19-.35.42-.44.68-.13.25-.19.52-.18.81l.08.56c.1.36.28.67.54.93.4.37.93.65,1.49.62h0Z"/>
      </g>
    </g>
  </g>
</svg>