<?xml version="1.0" encoding="UTF-8"?>
<svg id="Capa_2" xmlns="http://www.w3.org/2000/svg" viewBox="0 0 243.3 243.3">
  <defs>
    <style>
      .cls-1 {
        fill: none;
      }

      .cls-2 {
        fill: #f4c8c0;
      }

      .cls-3 {
        fill: #4f3535;
      }

      .cls-4 {
        fill: #b5593b;
      }

      .cls-5 {
        fill: #f0b5ab;
      }
    </style>
  </defs>
  <g id="grocery_icons">
    <g>
      <rect class="cls-1" width="243.3" height="243.3"/>
      <g>
        <path class="cls-4" d="M39.22,108.53s.94-12.14,14.82-24.02c13.89-11.88,30.31-12.52,30.31-12.52,0,0,4.17-8.05,17.71-11.78,13.54-3.74,20.39-1.71,20.39-1.71,0,0,14.15-15.54,41.98-10.08,27.82,5.46,50.29,17.32,61.83,48.48,11.54,31.16,13.18,56.86.49,71.04-12.68,14.18-57.48,33.44-69.73,35.33-12.25,1.89-117.8-94.75-117.8-94.75Z"/>
        <g>
          <path class="cls-5" d="M48.79,96.45c-20.4,10.12-36.08,35.64-38.15,55.38-2.07,19.74,3.06,31.49,30.21,38.65,28.63,7.55,76.04,15.02,95.75,15.54,19.71.52,23.75-2.31,28.37-15.67,4.62-13.37.96-57.81-17.34-75.15-27.94-26.48-78.45-28.86-98.85-18.74Z"/>
          <path class="cls-2" d="M65.48,111.03c-1.65-2.24-4.79-3.24-7.43-2.37-1.28.42-2.45,1.28-3.05,2.49-1,2.03-.14,4.55,1.31,6.29,1.72,2.07,4.25,3.44,6.92,3.76.77.09,1.6.09,2.28-.29.4-.22.73-.55,1.03-.89.75-.86,1.37-1.87,1.54-3,.26-1.8-1.55-4.58-2.59-5.99Z"/>
          <path class="cls-2" d="M84.85,105.25c-2.63,1.58-4.14,4.82-3.66,7.85.29,1.86,1.26,3.58,1.37,5.45.08,1.25-.23,2.49-.2,3.73.04,1.93.89,3.78,2.06,5.31,3.83,5.02,10.63,6.69,16.93,7.14,6.3.45,12.82.05,18.73,2.28,2.28.86,4.42,2.1,6.77,2.75,2.2.61,4.58.7,6.6,1.77,5.97,3.16,5.55,12.64,11.1,16.48.62.43,1.34.79,2.1.8,1.56.03,2.81-1.35,3.39-2.79,1.39-3.46.17-7.43-1.68-10.67-1.84-3.24-4.3-6.15-5.66-9.63-.68-1.73-1.06-3.58-1.86-5.26-.88-1.87-2.24-3.48-3.76-4.88-4.45-4.09-10.46-6.46-16.51-6.5-2.36-.02-4.82.29-7.02-.56-1.24-.48-2.32-1.3-3.34-2.17-2.72-2.32-5.11-5.02-7.91-7.25-4.03-3.21-12.48-6.87-17.48-3.87Z"/>
          <path class="cls-2" d="M103.37,152.59c-.72,1.35-.69,2.99-.33,4.47.71,2.94,3.03,5.73,6.05,5.95,1.64.12,3.3-.56,4.46-1.73,1.16-1.17,1.82-2.79,1.91-4.44.02-.48,0-.97-.13-1.44-.37-1.33-1.52-2.27-2.65-3.05-2.45-1.67-7.5-3.14-9.31.23Z"/>
          <path class="cls-2" d="M131.63,161.32c.22,2.59-.73,5.17-2.14,7.36-.76,1.18-1.7,2.48-1.35,3.84.42,1.64,2.43,2.24,4.12,2.38,5.12.44,10.52-.61,15.25,1.39,1.75.74,3.46,2.11,3.67,4,.1.93-.18,1.87-.61,2.71-1.42,2.77-4.3,4.5-7.23,5.52-7.23,2.5-15.63,1.31-21.87-3.12-.62-.44-1.29-1.09-1.11-1.83.08-.33.32-.6.59-.8.98-.75,2.3-.81,3.45-1.27,1.14-.46,2.19-1.77,1.59-2.84-.23-.41-.65-.67-1.03-.95-1.49-1.08-2.6-2.66-3.11-4.43-.24-.82-.34-1.69-.13-2.51.24-.91.86-1.68,1.52-2.35,1.15-1.18,2.47-2.23,3.37-3.61s1.31-3.25.46-4.67c-.62-1.03-1.84-1.74-2.03-2.93-.4-2.42,2.35-2.25,3.61-1.35,1.76,1.26,2.82,3.33,3,5.47Z"/>
          <path class="cls-2" d="M79.81,137.35c-3.81-1.6-8.1-1.47-12.22-1.18-3.21.23-6.54.54-9.55-.58-4.61-1.72-7.47-6.35-11.68-8.9-5.63-3.41-13.43-2.41-18.33,1.98-4.91,4.39-6.8,11.7-5.09,18.06,1.7,6.36,6.75,11.61,12.87,14.03,2.35.93,4.83,1.47,7.29,2.01,9.35,2.04,18.79,4.1,28.36,4.09,3.81,0,7.84-.42,10.91-2.68,1.98-1.45,3.39-3.57,5.36-5.03,1.1-.82,2.37-1.43,3.35-2.39.98-.96,1.63-2.46,1.09-3.72-.62-1.45-2.44-1.92-4.01-1.95-4.08-.09-7.99,1.49-11.96,2.45-3.56.86-7.24,1.24-10.9,1.13-3.09-.1-6.29-.6-8.81-2.39-.77-.55-1.49-1.23-1.87-2.1-1.01-2.25.6-5.03,2.88-5.97s4.91-.45,7.19.49c2.28.94,4.36,2.32,6.66,3.2,4.38,1.68,9.22,1.48,13.9,1.25,1.29-.06,3.45-.26,3.76-1.9.24-1.29-1.16-2.11-1.86-3.03-2.16-2.88-3.83-5.4-7.32-6.87Z"/>
          <path class="cls-2" d="M84.52,172.97c-9.64,2.69-20.05,2.59-29.64-.28-1.7-.51-3.78-1.03-5.08.2-1.27,1.21-.86,3.39.18,4.8,1.94,2.62,5.39,3.61,8.62,4.05,9.61,1.3,19.32-.81,29.01-1.08,2.72-.08,5.56.02,7.96,1.3,2.76,1.48,4.87,4.47,8,4.67,2.83.18,5.47-2.59,5.15-5.4-.3-2.68-2.67-4.58-4.93-6.06-6.26-4.11-12.27-4.15-19.29-2.19Z"/>
        </g>
        <path class="cls-3" d="M174.27,119.8c1.35,1.18,2.37,2.5,3.14,4.12.73,1.51,1.08,3.19,1.94,4.64.76,1.29,2.6.86,3.02-.45,1.43-4.42-2.51-9.03-5.82-11.39-1.79-1.28-3.94,1.65-2.29,3.09h0Z"/>
        <path class="cls-3" d="M197.61,106.11c.86,1.27,1.65,2.57,2.36,3.93.7,1.34,1.26,2.72,2.35,3.81,1.09,1.08,2.99.2,2.97-1.3-.03-3.08-2.45-6.18-4.2-8.56-1.53-2.08-4.96-.08-3.48,2.12h0Z"/>
        <path class="cls-3" d="M84,73.84c15.89-2.36,32.03-1.49,47.31,3.68,6.57,2.22,12.97,5.22,18.6,9.3,5.07,3.68,8.35,8.03,11.75,13.19,1.34,2.04,4.84.68,4.02-1.78-4.02-12.1-19.56-19.74-30.54-23.82-16.3-6.06-34.66-7.77-51.66-3.94-1.86.42-1.41,3.66.52,3.37h0Z"/>
        <path class="cls-3" d="M123.36,59.74c12.69.16,25.91,1.97,37.56,7.23,5.29,2.39,10.21,5.51,14.6,9.3,4.26,3.68,7.51,9.13,12.12,12.23,1.54,1.04,3.63-.77,3.07-2.45-1.88-5.65-8.27-10.63-12.84-14.15-4.73-3.65-9.93-6.67-15.42-9.02-12.48-5.35-25.7-6.73-39.15-6.42-2.11.05-2.05,3.25.06,3.28h0Z"/>
        <path class="cls-3" d="M43.46,101.5c27.44-12.25,63.32-12.58,88.78,4.77,19.78,13.48,30.62,37.4,31.92,60.91.74,13.26-2.16,25.11-11.55,34.74-1.64,1.68.61,4.68,2.63,3.28,20.63-14.34,15.77-47.34,7.96-67.26-4.88-12.46-12.84-23.8-23.36-32.13-12.56-9.95-27.92-14.79-43.68-16.61-9.29-1.07-18.65-.81-27.88.63-8.75,1.37-19.53,3.01-26.65,8.67-1.78,1.42-.25,3.93,1.83,3h0Z"/>
      </g>
    </g>
  </g>
</svg>