<?xml version="1.0" encoding="UTF-8"?>
<svg id="Capa_2" xmlns="http://www.w3.org/2000/svg" viewBox="0 0 243.3 243.3">
  <defs>
    <style>
      .cls-1 {
        fill: #fff;
      }

      .cls-2 {
        fill: none;
      }

      .cls-3 {
        fill: #feb672;
      }

      .cls-4 {
        fill: #4f3535;
      }

      .cls-5 {
        fill: #e27562;
      }
    </style>
  </defs>
  <g id="grocery_icons">
    <g>
      <rect class="cls-2" width="243.3" height="243.3"/>
      <g>
        <path class="cls-3" d="M119.52,150.1l-104.36-1.41c-.18.55,7.35,27.75,10.29,36.02,2.94,8.27,4.23,12.13,18.75,14.34,13.63,2.07,59.94,2.2,75.32,1.9,15.37.3,61.69.17,75.32-1.9,14.52-2.21,15.81-6.07,18.75-14.34,2.94-8.27,10.48-35.47,10.29-36.02l-104.36,1.41Z"/>
        <path class="cls-1" d="M114.36,65s-58.29-.36-63.45,0-19.37,1.78-24.35,6.22c-4.98,4.44-9.6,17.59-12.8,27.37-3.2,9.77-9.6,33.41-9.24,40.17.36,6.75,1.6,12.09,8.89,13.68,7.29,1.6,62.38,1.42,62.38,1.42l108.77.18s37.32,1.42,45.5-1.78c8.18-3.2,9.06-13.33,6.93-21.86s-13.33-48.7-17.59-55.1-10.84-9.24-17.77-9.95-87.26-.36-87.26-.36Z"/>
        <path class="cls-5" d="M222.52,144.55c-.58.24-.09.03.04-.03.28-.13.56-.27.83-.42.56-.3,1.1-.64,1.62-1,.12-.08.23-.17.34-.25.04-.03.08-.06.12-.1.24-.19.47-.4.69-.61.22-.2.42-.41.62-.63.08-.09.16-.18.24-.28,0-.01.01-.01.02-.02.05-.08.1-.16.15-.24-.67-2.98-2.34-5.69-4.65-7.68,1.08-2.52,1.02-5.51-.43-7.91-1.35-2.24-3.59-3.57-6.08-3.94.33-3.22-.18-6.45-1.56-9.42-.79-1.7-1.89-3.28-3.2-4.63-.85-.87-1.51-1.37-1.17-2.69.25-.99.64-1.92.84-2.92.66-3.33.31-7.13-1.84-9.88-.52-.67-1.13-1.23-1.82-1.73-.81-.58-1.88-.97-2.51-1.76-.58-.71-.8-1.65-1.3-2.41-.48-.72-1.07-1.33-1.77-1.83-3.61-2.58-7.67-1.25-11.35.3-2.11-3.2-6.39-4.63-10.13-4.14-2.49.32-4.89,1.47-6.94,3.09-4.93-4.53-12.62-5.5-18.5-1.69-6.57-4.41-15.91-3.84-21.71,1.64-5.09-2.79-11.41-2.42-16.25.69-1.07-1.05-2.38-1.83-3.88-2.2-2.22-.55-4.08-.1-6.13.74-.73.3-.91.33-1.49-.22-.43-.4-.79-.86-1.22-1.26-.79-.74-1.67-1.4-2.6-1.95-1.89-1.11-4-1.79-6.17-2.06-2.15-.27-4.39-.1-6.46.56-1.1.35-2.09.94-3.17,1.34-1.36.5-2.31-.23-3.46-.9-3.73-2.15-8.13-2.96-12.39-2.43-4.49.56-8.7,2.5-11.84,5.75-3.74-1.35-7.93-2.61-11.82-1.21-2.88,1.04-5.3,3.35-5.78,6.37-4.39,1.14-7.77,5.18-8.44,9.64-.18,1.18-.17,2.33.04,3.51.12.67.37,1.29.5,1.96.19.98-.21,1.4-.94,1.95-2.33,1.75-4.52,3.43-5.92,6.07-1.3,2.44-1.77,5.22-1.11,7.93.29,1.2.83,2.35,1.56,3.33.18.24,1.37,1.27,1.34,1.51-.04.3-1.3.8-1.54.94-4.18,2.41-7.27,6.41-8.94,10.9-.65,1.73-1.09,3.63-1.29,5.55,0,.03.02.05.03.08.14.28.28.55.44.82.07.12.15.23.22.35.03.04.05.08.08.12.19.14.36.44.51.61.42.48.89.9,1.38,1.32,0,0,0,0,0,0,.35.24.71.47,1.08.67.23.12.46.24.7.35.06.03.32.13.24.1.02,0,.03.01.04.02.77.29,1.57.5,2.38.69,5.13-.1,10.28-.06,15.4-.1,8.11-.06,16.22-.07,24.33-.09,28.67-.07,57.35-.07,86.02-.06,24.51,0,49.03.08,73.54.01.16-.07.31-.14.48-.21Z"/>
        <path class="cls-4" d="M40.9,114.28c1.47-4.22,3.96-7.96,7.76-10.41,4.05-2.62,9.09-3.52,13.81-2.56.51.1,1.23-.15,1.32-.75.53-3.67,3.13-6.9,6.78-7.84,3.66-.95,7.35.76,9.71,3.56.79.94,2.43-.3,1.72-1.33-2.58-3.73-7.42-5.42-11.82-4.36-4.39,1.05-7.82,4.97-8.45,9.4l1.32-.75c-10.24-2.08-21.49,4.01-23.92,14.54-.27,1.16,1.39,1.6,1.78.49h0Z"/>
        <path class="cls-4" d="M68.95,114.09c1.11-.41,2.26-.63,3.43-.8,1.09-.16,2.18-.3,3.27-.06.88.19,1.73.53,2.46,1.06s1.22,1.46,2.03,1.87c.49.25,1.21.06,1.33-.54.27-1.29-.74-2.47-1.69-3.22s-2.08-1.32-3.29-1.56c-1.38-.28-2.78-.23-4.16.05s-2.71,1.12-3.94,1.86c-.68.41-.24,1.64.56,1.34h0Z"/>
        <path class="cls-4" d="M92.05,126.17c1.46-3.36,3.75-6.36,6.82-8.39,3.17-2.09,6.64-2.8,10.38-2.8.7,0,1.27-.71,1.06-1.39-.47-1.58.27-3.98.75-5.51.59-1.87,1.92-3.68,3.51-4.83,1.47-1.07,3.22-1.82,5-2.18,1.92-.39,3.72.04,5.63-.06.86-.04,1.22-1.18.45-1.65-1.86-1.11-4.41-.89-6.46-.47-2.22.45-4.26,1.45-5.97,2.94-1.71,1.49-2.92,3.25-3.94,5.27-.51,1-.89,2.07-1.07,3.18-.2,1.21.06,2.4-.06,3.6l1.1-1.1c-7.93-.85-16.56,5.19-18.8,12.72-.27.92,1.19,1.59,1.59.67h0Z"/>
        <path class="cls-4" d="M122.77,116c.15-.09.3-.18.46-.26.05-.02.09-.04.14-.06.01,0,.13-.06.03-.01s.01,0,.03,0c.06-.02.12-.04.17-.06.16-.06.33-.1.5-.14.09-.02.17-.03.26-.05.1-.02.11.03-.06,0,.04,0,.1-.01.15-.01.17-.01.35-.02.52-.02.09,0,.18,0,.26.01.07,0,.38.04.17.01-.22-.03.08.01.13.02.17.02.35.05.52.06.14,0-.16-.02-.15-.02.05,0,.1.01.15.02.18.03.37.07.56.09.25.02.5.04.75-.01.53-.1.87-.57.89-1.09.04-.75-.8-1.27-1.45-1.4-.5-.1-.97-.13-1.47-.07-.4.05-.79.13-1.17.26-.89.31-1.71.78-2.39,1.44-.66.64.19,1.79.99,1.29h0Z"/>
        <path class="cls-4" d="M95.61,100.42c.03-.07.07-.14.11-.21.02-.03.04-.07.07-.1-.11.14-.13.17-.06.08.06-.06.11-.11.17-.17.03-.03.06-.05.09-.08-.14.11-.17.13-.08.06.13-.08.29-.15.42-.23-.17.07-.2.08-.09.04.04-.01.08-.03.11-.04.08-.03.15-.05.23-.07.02,0,.25-.05.25-.05-.16.02-.19.02-.06,0,.05,0,.1,0,.16-.01.21-.01.42-.01.62,0s.42.02.63.02c.28,0,.53-.06.79-.14.76-.22.91-1.28.22-1.68-.25-.15-.5-.29-.8-.34s-.61-.1-.92-.1c-.52,0-1.06.04-1.56.19-.88.27-1.76.86-2.15,1.72-.12.27-.19.53-.11.82.07.25.26.52.49.64.48.25,1.2.15,1.46-.38h0Z"/>
        <path class="cls-4" d="M122.13,129.09c5.07-4.36,12.68-2.69,15.79,3.1.43.8,1.48.65,1.94,0,1.31-1.87,3.18-3.33,5.31-4.16s4.26-.8,6.52-.79c.88,0,.96-1.18.2-1.46-2.44-.92-5.41-.41-7.79.53-2.5.99-4.58,2.61-6.18,4.76h1.94c-3.69-7.26-13.24-8.81-19.28-3.51-1.06.93.49,2.46,1.55,1.55h0Z"/>
        <path class="cls-4" d="M149.92,111.53c1.77-.3,3.64-.05,5.32.55.82.3,1.6.73,2.32,1.23s1.35,1.39,2.18,1.76c.77.34,1.73-.22,1.48-1.14-.3-1.1-1.46-1.92-2.37-2.52s-1.92-1.06-2.96-1.39c-2.09-.66-4.3-.69-6.41-.08-1.03.3-.59,1.76.44,1.58h0Z"/>
        <path class="cls-4" d="M164.93,104.75c1.5-2.43,4.65-2.75,7.24-2.54,1.28.11,2.51.47,3.56,1.22.47.34.89.75,1.27,1.19.44.5.75,1.07,1.34,1.41.69.39,1.42-.12,1.48-.85.13-1.56-1.61-3.02-2.77-3.8-1.45-.98-3.15-1.39-4.89-1.49-3.32-.19-7.31.58-8.8,3.95-.46,1.05.94,1.94,1.57.92h0Z"/>
        <path class="cls-4" d="M149.22,92.39c.19-.06.39-.12.59-.16.1-.02.2-.04.3-.05-.18.02.13,0,.16-.01.2-.01.41-.02.61,0,.1,0,.2.02.31.02.11.01.1.01-.01,0,.05,0,.1.02.15.03.4.07.79.19,1.17.33.1.04.09.04-.02,0,.05.02.09.04.14.06.09.04.18.09.27.14.14.08.27.18.43.22.09.02.19.03.29.05.34.06.67-.02.89-.3.2-.26.24-.65.07-.94s-.38-.53-.7-.69c-.25-.13-.52-.25-.79-.35-.49-.18-.99-.27-1.51-.31-1.01-.07-2.01.15-2.93.59-.34.16-.45.63-.31.95s.53.56.89.44h0Z"/>
        <path class="cls-4" d="M38.03,135.88c5.36-3.42,13.42-5.73,18.48-.51.4.41,1.19.46,1.58,0,1.52-1.77,3.5-2.88,5.79-3.33,1.05-.21,2.15-.25,3.21-.11s2.22.78,3.33.73c.64-.03,1.28-.81.82-1.42-1.53-2.04-5.38-1.96-7.64-1.57-2.76.47-5.33,1.96-7.1,4.12h1.58c-2.68-2.65-6.45-3.98-10.21-3.74-4.1.26-7.63,2.13-10.81,4.61-.7.55.21,1.7.95,1.23h0Z"/>
        <path class="cls-4" d="M97.37,140.59c2.49-3.15,6.05-4.37,9.97-4.54,1.9-.08,3.84.13,5.61.88.77.33,1.51.77,2.15,1.3.64.53,1.1,1.22,1.72,1.77.7.61,1.95.04,1.64-.96-.57-1.83-2.56-3.22-4.23-4-2.09-.97-4.41-1.3-6.7-1.19-4.64.21-8.85,1.76-11.74,5.51-.69.9.87,2.12,1.58,1.22h0Z"/>
        <path class="cls-4" d="M191.11,112.92c.53-1.43,2.55-1.74,3.87-1.79,1.03-.04,2.12.02,3.09.44.81.36,1.34.93,1.84,1.64.28.41.69.57,1.17.48.19-.04.32-.15.46-.27.26-.22.38-.69.27-1.01-.99-2.73-4.33-3.51-6.92-3.35-2.31.15-4.84.96-5.69,3.33-.18.51.2,1.09.7,1.22.56.15,1.04-.19,1.22-.7h0Z"/>
        <path class="cls-4" d="M192.39,94.48c.32-.04.64-.05.96-.04.15,0,.3.02.45.04.1.01.09.01-.04,0,.04,0,.08.01.13.02.07.01.15.03.22.04.3.06.6.15.89.26.04.02.08.03.12.05.09.04.08.03-.03-.01.1.02.24.11.33.14.16.06.32.09.48.14.32.1.73-.06.88-.36s.14-.71-.12-.95c-.16-.14-.33-.31-.51-.41-.19-.11-.41-.19-.62-.26-.31-.12-.63-.21-.96-.27-.72-.14-1.45-.18-2.18-.09-.24.03-.43.08-.61.25-.15.15-.26.39-.25.61.02.42.38.91.86.86h0Z"/>
        <path class="cls-4" d="M174.67,124.87c2.43-1.08,5.01-1.76,7.66-2,2.33-.21,4.96-.29,7.1.78,3.76,1.88,4.92,6.3,6.34,9.9.34.87,1.11,1.17,1.97.8,2.54-1.1,5.64-1.99,8.42-1.45,2.5.48,3.85,1.9,5.23,3.9.54.78,2.16.62,2.02-.55-.36-2.97-3.31-4.94-6.01-5.66-3.65-.96-7.21.22-10.68,1.3l1.65.93c-1.22-4.4-3.57-9.55-8.01-11.49-5.11-2.24-11.76-.18-16.53,2.06-.99.47-.13,1.89.85,1.46h0Z"/>
        <path class="cls-4" d="M175.4,137.7c.27-.1.55-.17.84-.23.08-.02.17-.03.25-.05-.11.02-.04,0,.03,0,.13-.01.27-.02.41-.03.29-.01.58,0,.87.01.09,0,.17.01.26.02.12.01.11.02,0,0,.15.03.3.05.45.09.28.06.57.14.84.22.13.04.26.08.39.13.06.02.13.05.19.07-.25-.1-.02,0,.03.02.12.06.24.13.36.19.14.07.29.13.44.19-.1-.04-.12-.06,0,0,.28.13.55.28.8.44.43.28,1.05.13,1.35-.27.33-.44.26-.96-.08-1.37-.46-.55-1-1.04-1.65-1.34-.76-.34-1.51-.57-2.34-.65-1.43-.14-2.88.18-4.13.87-.9.49-.29,2.03.71,1.68h0Z"/>
        <path class="cls-1" d="M166.26,90.69l.96-.09c.18-.02.37-.03.55-.08l.23-.06s.07-.02.1-.03c.34-.12.58-.3.78-.6.03-.04.05-.08.08-.12l.11-.25c.04-.14.05-.28.02-.42,0-.1-.02-.18-.07-.27-.04-.13-.12-.24-.22-.34-.04-.04-.07-.08-.11-.11-.16-.17-.36-.27-.58-.34-.14-.05-.3-.05-.44-.06s-.3-.03-.45-.01l-.94.09c-.19,0-.36.03-.52.12-.17.05-.31.15-.44.28-.13.12-.23.27-.28.44-.09.16-.12.34-.12.52.02.35.13.72.4.96.25.23.61.43.96.4h0Z"/>
        <path class="cls-1" d="M176.92,115.43l.84-.09c.23-.02.45-.05.68-.08.07-.01.14-.02.2-.04.24-.07.44-.2.6-.38l-.22.17c.08-.05.17-.08.26-.12.14-.07.26-.15.39-.26.2-.17.27-.47.24-.72-.04-.27-.18-.49-.41-.63s-.48-.17-.73-.26l.26.11c-.37-.28-.84-.24-1.28-.21l-.82.05c-.33.02-.63.12-.87.36-.21.21-.37.56-.36.87s.12.65.36.87c.23.21.55.39.87.36h0Z"/>
        <path class="cls-1" d="M208.2,124.31c.18,0,.37.01.55.04l-.36-.05c.25.03.49.09.73.16.12.04.23.09.35.11s.25.04.37.07l.32.04c.17,0,.32-.03.47-.1.23-.1.46-.27.58-.49.1-.19.16-.4.16-.61.01-.3-.14-.65-.35-.85-.06-.06-.13-.12-.19-.18-.14-.12-.29-.26-.45-.34-.25-.12-.51-.22-.77-.3-.45-.14-.92-.2-1.38-.23-.19,0-.36.03-.53.12-.17.06-.32.15-.44.28-.13.12-.23.27-.28.44-.09.16-.13.34-.12.53.02.35.13.72.4.97s.6.4.97.4h0Z"/>
        <path class="cls-1" d="M162.53,137.25c.64-.07,1.29-.06,1.93.02.27,0,.53-.07.76-.21.23-.13.41-.31.54-.54.01-.02.02-.03.03-.05l-.22.28.02-.02-.27.21c.09-.05.18-.09.27-.13.31-.14.49-.49.53-.81.05-.35-.06-.67-.3-.93-.07-.08-.14-.15-.22-.23l.21.27v-.03c.03.11.08.22.13.33,0-.02,0-.04-.02-.05l-.15-.36c-.09-.18-.22-.32-.39-.42-.09-.09-.2-.16-.33-.19-.18-.09-.37-.14-.58-.13-.64-.08-1.29-.07-1.93,0-.21,0-.4.04-.58.13-.19.06-.35.16-.48.31-.26.26-.45.68-.44,1.06s.14.79.44,1.06c.27.25.67.48,1.06.44h0Z"/>
        <path class="cls-1" d="M136.81,110.58c.13-.03.26-.05.39-.07l-.41.05c.35-.04.7-.04,1.06,0l-.4-.05c.21.03.41.06.62.08l-.4-.05c.25.03.5.09.76.07.17-.01.34-.02.51-.06.15-.04.29-.12.43-.18l-.29.12s.09-.03.13-.05c.26-.1.52-.25.66-.51s.21-.58.11-.85c-.06-.17-.12-.34-.21-.49-.1-.19-.25-.32-.41-.45-.28-.22-.37-.29-.72-.42-.06-.02-.11-.04-.17-.05-.11-.03-.23-.05-.34-.07-.35-.05-.7-.1-1.06-.1s-.71.06-1.06.12-.74.4-.92.7c-.19.33-.27.81-.15,1.18s.35.73.7.92c.37.2.76.25,1.18.15h0Z"/>
        <path class="cls-1" d="M133.56,92.62c.34,0,.68.04,1.02.08l-.39-.05c.33.05.65.12.98.11.1,0,.2,0,.3,0,.27-.01.52-.05.76-.19.03-.02.07-.04.1-.06.57-.35.77-1.08.44-1.67-.14-.25-.32-.46-.57-.6-.08-.05-.16-.08-.24-.12-.05-.02-.09-.04-.14-.07-.13-.06-.28-.15-.42-.18-.1-.02-.2-.04-.3-.05-.5-.07-1.01-.14-1.52-.15-.37-.01-.79.17-1.05.43s-.45.68-.43,1.05.14.78.43,1.05.64.42,1.05.43h0Z"/>
        <path class="cls-1" d="M110.28,91.05c.25-.03.49-.06.74-.09.19,0,.37-.07.54-.17.01,0,.02-.01.03-.02.02,0,.03-.02.05-.03l.1-.06.21-.13c.36-.22.59-.6.59-1.02s-.23-.8-.59-1.02l-.2-.12-.11-.07s-.03-.02-.05-.03c-.01,0-.02-.01-.03-.02-.17-.11-.35-.16-.54-.17-.25-.03-.49-.06-.74-.09-.21,0-.4.04-.59.13-.19.06-.35.17-.49.31-.15.14-.25.3-.31.49-.1.18-.14.38-.13.59l.05.4c.07.26.2.48.39.67l.31.24c.24.14.49.21.77.21h0Z"/>
        <path class="cls-1" d="M92.68,112.75c1.52,0,1.52-2.37,0-2.37s-1.52,2.37,0,2.37h0Z"/>
        <path class="cls-1" d="M69.75,85.56c2.21,0,2.22-3.44,0-3.44s-2.22,3.44,0,3.44h0Z"/>
        <path class="cls-1" d="M47.18,94.13c1.81,0,1.81-2.82,0-2.82s-1.81,2.82,0,2.82h0Z"/>
        <path class="cls-1" d="M56.8,120.38l1.2-.18.59-.09c.39-.06.68-.36.96-.61s.36-.62.32-.96-.23-.68-.55-.84l-.23-.11c-.13-.06-.26-.13-.39-.17-.3-.1-.53-.05-.83,0-.2.03-.39.05-.59.08l-1.23.17c-.18.04-.34.13-.48.25-.15.1-.27.23-.36.4-.18.3-.25.75-.14,1.08s.32.67.65.84l.34.14c.25.07.5.07.75,0h0Z"/>
        <path class="cls-1" d="M27.63,133.92c1.78,0,1.78-2.77,0-2.77s-1.78,2.77,0,2.77h0Z"/>
        <path class="cls-1" d="M82.2,139.24l.36.04c.12.01.24,0,.36,0,.2,0,.45,0,.64-.05.11-.04.21-.08.32-.13l.23-.1.19-.15.15-.19c.07-.11.11-.23.11-.36.02-.08.02-.17,0-.25,0-.09-.02-.17-.07-.24-.02-.08-.06-.15-.12-.21-.07-.1-.16-.19-.27-.25-.09-.07-.18-.14-.27-.19-.17-.11-.41-.15-.61-.21l-.17-.05c-.16-.04-.32-.06-.48-.08l-.38-.04c-.17,0-.33.03-.48.11-.15.05-.29.13-.4.25-.12.11-.21.24-.25.4-.08.15-.11.31-.11.48.01.32.12.65.36.87l.25.19c.19.11.4.17.62.17h0Z"/>
        <g>
          <path class="cls-4" d="M219.63,94.55c-1.78-5.43-3.22-11.46-6.94-15.96-2.9-3.51-7.1-5.55-11.53-6.36-2.63-.48-5.31-.58-7.98-.71-3.31-.16-6.63-.28-9.94-.37-6.64-.18-13.29-.27-19.93-.32-11.19-.08-22.37,0-33.56-.01-3.86-.14-7.73-.11-11.6-.06-1.79,0-3.58.01-5.36.07-.8,0-1.6.02-2.4.02-7.24.04-14.49-.14-21.73-.1-13.06.08-26.13.12-39.18.76-5.05.25-10.19.52-14.71,3.06-4.08,2.3-6.81,6.14-8.47,10.45-4.76,12.34-8.32,25.35-10.9,38.32-.64,3.22-1.21,6.46-1.72,9.7-.49,3.14-.91,6.41,1.14,9.1,3.23,4.24,8.82,4.1,13.63,4.05,5.38-.05,10.88.34,16.26.36,7.89.03,159.15-.2,165.29-.18,3.16.01,7.69.07,10.81-.41,2.83-.43,5.61-1.71,7.28-4.12,1.88-2.71,1.36-5.99.87-9.05-2.05-13-5.23-25.77-9.32-38.28ZM223.57,141.66c-3,2-7.7,1.28-11.05,1.26-5.67-.03-11.34,0-17.01.03-23.12.12-46.22-.08-69.33-.04-.56,0-1.12,0-1.68,0-1.04,0-2.08,0-3.12,0-14.87.04-29.71.24-44.58.51-8.14.15-16.25-.38-24.38-.43-5.75-.04-11.78-.06-17.63-.06-4.73,0-11.65,1.25-15.86-1.39-2.88-1.81-2.5-4.87-2.04-7.83,2.01-12.67,5.11-25.11,9.03-37.32,1.05-3.26,2.12-6.51,3.28-9.73.77-2.14,1.8-4.24,3.28-5.98,2.78-3.25,6.74-4.83,10.91-5.38,2.77-.37,5.6-.38,8.38-.49,3.19-.12,6.37-.2,9.56-.26,6.47-.12,12.95-.15,19.42-.21,12.7-.11,25.39-.59,38.1-.65,4.11.03,8.23,0,12.34.03,7.19.07,14.36.3,21.55.51,12.85.38,25.72.11,38.57.6,4.8.18,9.96.09,14.35,2.34,4.08,2.08,6.45,5.77,7.94,9.99,4.29,12.2,7.97,24.63,10.5,37.32.81,4.05,3.5,11.32,1.3,15.19-.49.85-1.11,1.5-1.84,1.98Z"/>
          <path class="cls-4" d="M239.26,136.11c-.53-4.69-1.76-9.25-2.97-13.81-1.92-7.19-3.65-14.42-5.76-21.55-1.14-3.88-2.42-7.71-3.65-11.56-1.04-3.23-2.07-6.47-3.46-9.56-1.35-3.01-3.11-5.87-5.57-8.1-2.21-1.99-4.78-3.47-7.52-4.6-4.87-2.01-10.19-2.87-15.43-3.11-6.62-.3-13.25.26-19.87,0-6.41-.25-12.84-.18-19.26-.19-10.72-.03-21.45-.12-32.17-.05-9.42-.14-18.86,0-28.28.03-5.86.01-11.73.03-17.59.04-7.29.02-14.57.36-21.86.17-10.59-.28-22.92.25-31.17,7.84-4.98,4.58-6.96,11.49-8.97,17.73-2.59,8.07-5.04,16.15-7.16,24.35-1.33,5.17-2.78,10.33-3.97,15.53-1,4.35-1.81,8.95-1.25,13.41.52,4.17,2.47,7.98,6.26,10.06,3.65,2.01,7.85,2.1,11.92,2.23,8.08.27,16.16.33,24.24.36,10.82.04,21.64.02,32.46.03,10.8.01,21.59.02,32.39.02,4.09,0,8.18,0,12.27,0,.67,0,1.34,0,2.01,0,10.45,0,20.9-.02,31.35-.02,11.02,0,22.04-.02,33.06-.02,9.03,0,18.06-.03,27.09-.24,7.27-.17,16.83.57,21.09-6.64,2.16-3.67,2.25-8.23,1.78-12.34ZM236.24,142.62c-.54,3.79-2.63,6.86-6.31,8.16-3.4,1.19-7.15,1.06-10.71,1.17-18.81.53-37.64.55-56.45.49-13.47,0-26.91-.39-40.37-.28-11.36.09-23,.21-34.47.25-19.9.08-39.79.04-59.69-.35-3.07-.06-6.14-.13-9.21-.27-3.89-.17-8.31-.82-10.75-4.23-2.27-3.17-2.21-7.47-1.82-11.18.48-4.54,1.71-9,2.85-13.41,1.81-6.99,3.45-14.02,5.44-20.97,1.09-3.8,2.3-7.56,3.5-11.33,1.03-3.25,1.99-6.54,3.37-9.67,1.27-2.88,2.88-5.59,5.23-7.71,2.2-1.99,4.91-3.42,7.68-4.43,4.58-1.68,9.48-2.43,14.35-2.6,6.81-.23,13.68-.33,20.49-.02,6.23.28,12.52.03,18.76.02,9.37-.02,18.75.02,28.12.04,10.21.12,20.42-.07,30.63-.05,5.65.01,11.3.03,16.95.04,6.92.02,13.86-.35,20.78-.16,10.56.3,22.96-.41,31.37,7.29,4.93,4.52,6.62,11.49,8.58,17.63,2.53,7.93,4.85,15.9,6.85,23.97,1.24,4.97,2.58,9.93,3.69,14.92.91,4.1,1.76,8.48,1.15,12.69Z"/>
        </g>
        <path class="cls-4" d="M196.91,191.97c1.38.23,2.76.3,4.16.17.71-.07,1.44-.15,2.13-.33s1.37-.54,1.99-.91c.98-.58.33-2.09-.77-1.82-.62.15-1.25.24-1.87.4s-1.18.31-1.79.41c-1.06.17-2.41.16-3.57.02-.51-.06-.97.44-1.03.91s.23,1.06.75,1.15h0Z"/>
        <path class="cls-4" d="M202.19,185.8c.32.05.65.1.98.1s.64-.04.95-.1c.22-.04.43-.1.65-.19.13-.05.27-.1.39-.17.1-.05.22-.17.32-.25.08-.07.16-.15.23-.23.27-.28.35-.69.2-1.05-.07-.16-.16-.28-.3-.38-.16-.12-.38-.22-.58-.21-.14.01-.28,0-.42.01-.24,0-.47.08-.71.11l.31-.04c-.16.02-.32.04-.49.06l.32-.04c-.35.04-.69.04-1.04,0l.33.04c-.16-.02-.31-.05-.47-.09-.32-.08-.68-.04-.97.13-.26.15-.51.45-.58.75-.07.32-.06.68.13.97.17.26.44.53.75.58h0Z"/>
        <path class="cls-4" d="M24.12,160.51l1.32.18.64.09c.28.04.55.1.84.02.15-.04.32-.14.48-.2.26-.11.42-.43.45-.69.04-.28-.04-.6-.26-.79-.13-.11-.26-.25-.4-.33-.16-.09-.32-.14-.5-.17l-.65-.11-1.28-.22c-.31-.05-.61-.05-.89.12-.24.14-.47.42-.53.69-.07.3-.05.63.12.89.15.23.4.49.69.53h0Z"/>
        <path class="cls-4" d="M26.57,168.61c.24-.01.48-.02.72-.04.31-.02.62-.11.93-.18l.21-.09c.1-.05.18-.13.24-.22.11-.15.2-.34.19-.53,0-.15-.05-.3-.12-.44-.05-.1-.13-.18-.22-.24-.08-.08-.18-.13-.3-.16-.3-.07-.62-.16-.93-.18-.24-.02-.48-.03-.72-.04-.15,0-.28.02-.41.09-.13.04-.24.12-.34.22-.1.1-.18.21-.22.34-.07.13-.1.26-.09.41.01.27.1.56.31.75s.47.32.75.31h0Z"/>
      </g>
    </g>
  </g>
</svg>