<?xml version="1.0" encoding="UTF-8"?>
<svg id="Capa_2" xmlns="http://www.w3.org/2000/svg" viewBox="0 0 243.3 243.3">
  <defs>
    <style>
      .cls-1 {
        fill: #fff;
      }

      .cls-2 {
        fill: none;
      }

      .cls-3 {
        fill: #e58473;
      }

      .cls-4 {
        fill: #4f3535;
      }
    </style>
  </defs>
  <g id="grocery_icons">
    <g>
      <rect class="cls-2" width="243.3" height="243.3"/>
      <g>
        <path class="cls-3" d="M200.37,147.77s12.68-4.39,20.73-11.95c8.05-7.56,14.06-30.19,13.98-37.78-.08-7.59-2.76-25.88-20.32-31.73s-28.05-2.2-37.81-8.29c-9.76-6.1-39.27-21.71-58.05-21.46-18.78.24-50.98,10.49-59.27,18.29s-15.85,23.42-16.34,29.76c-.49,6.34,2.93,18.05,2.93,18.05,0,0-24.88,13.9-31.71,29.03-6.83,15.12-1.46,27.81.98,38.05,2.44,10.24,10.49,28.78,16.1,32.68,5.61,3.9,22.44,11.46,37.32,10.24s32.2-4.15,44.39-3.17c12.2.98,26.34,7.32,45.61.73,19.27-6.59,33.17-17.07,34.88-20.98,1.71-3.9,5.12-21.95,5.12-21.95,0,0,3.66-12.93,1.46-19.51Z"/>
        <path class="cls-1" d="M228.66,74.6c-4.15-9.02-21.22-11.22-31.46-11.22s-37.81-12.93-48.78-18.29c-10.98-5.37-31.22-10.73-50.98-6.34-19.76,4.39-35.37,14.63-42.2,21.22-6.83,6.59-12.68,17.81-11.95,24.64.73,6.83,2.93,18.05,2.93,18.05,0,0-9.02,6.83-14.88,10.49-5.85,3.66-14.15,14.15-16.83,19.76-2.68,5.61-4.39,20.49.73,29.51,5.12,9.02,20.49,24.64,36.1,27.81,15.61,3.17,36.83,6.34,47.32,3.9,10.49-2.44,33.42,3.17,42.93,3.17s37.32-8.29,45.12-14.15c7.81-5.85,12.68-16.1,13.66-24.64.98-8.54-1.22-20-3.17-25.12,0,0,21.46-6.1,29.51-18.29,8.05-12.2,6.1-31.46,1.95-40.49ZM172.32,183.26c-13.54,6.59-26.16,8.05-36.77,7.5-10.61-.55-22.14-7.87-31.83-9.7-9.7-1.83-28.9,4.02-43.17,2.2-11.45-1.47-26.16-5.49-35.31-18.48-9.15-12.99-5.49-31.46,1.46-40.25,6.95-8.78,15.73-10.06,17.01-8.05,1.28,2.01-4.02,4.76-6.95,9.33-2.93,4.57-6.77,14.63-2.93,16.1,3.84,1.46,10.79-17.2,19.21-23.96,8.42-6.77,18.66-9.88,32.93-11.52,14.27-1.65,34.57,8.78,41.71,14.82,7.13,6.04,2.74,26.53,3.29,32.93s1.65,16.1,9.33,18.48c7.68,2.38,25.61-3.29,31.46-6.22,5.85-2.93,15-9.15,18.29-7.32s-4.21,17.56-17.74,24.15ZM189.88,153.44c-3.66,3.29-6.77,1.65-14.82,2.93-8.05,1.28-18.66,11.52-28.35,2.38-9.7-9.15-5.3-26.89.73-29.09,6.04-2.2,8.6,3.84,15,2.38,6.4-1.46,19.79-2.42,25.61,1.83,6.77,4.94,5.49,16.28,1.83,19.57ZM211.1,120.94c-10,7.81-16.34,7.56-16.34,7.56-4.39-5.12-25.37-5.85-32.44-5.61-7.07.24-20.73-4.88-28.54-8.78-7.81-3.9-20.73-14.15-37.19-16.12-16.46-1.97-42.33,2.46-42.33,2.46,0,0-.98-3.41-2.44-8.78-1.46-5.37-.98-13.42,5.37-23.42,6.34-10,17.32-14.15,19.27-9.76,1.95,4.39-13.17,20.73-10.98,24.64,2.2,3.9,10.73-13.9,18.29-22.68,7.56-8.78,23.42-11.95,35.86-12.68,12.44-.73,33.66,9.02,40.25,15.61s2.2,21.95,3.17,34.15c.98,12.2,6.83,16.34,14.39,17.07,7.56.73,26.83-6.59,32.68-10.98,5.85-4.39,10.24-4.39,12.2-2.44,1.95,1.95-1.22,11.95-11.22,19.76ZM223.3,93.38c-2.93,4.63-7.07,3.9-15.37,4.88-8.29.98-14.39,7.56-27.56,2.93-13.17-4.63-7.07-25.37-3.17-28.54,3.9-3.17,9.76-.98,14.63,0,4.88.98,15.61.73,22.68.98,7.07.24,8.54,5.61,8.54,5.61,1.46,3.17,3.17,9.51.24,14.15Z"/>
        <path class="cls-4" d="M96.94,95.4c-2.39-.46-4.72-.92-7.15-1.05s-4.87-.15-7.31-.08c-4.81.14-9.58.59-14.34,1.28-8.46,1.22-17.38,2.87-25.11,6.67-7.87,3.86-14.72,9.28-20.66,15.7-5.6,6.05-10.13,13.35-11.62,21.56-1.5,8.26-.2,17.3,3.69,24.75,3.61,6.92,8.85,13.15,15.04,17.9,14.98,11.49,33.97,14.32,52.36,14.75,9.42.22,18.86-.32,28.28,0,6.51.22,12.95,1.17,19.42,1.92,6.58.77,13.22,1.14,19.83.51,8.42-.8,16.82-2.89,24.64-6.1,3.37-1.38,6.58-3.2,9.67-5.13s5.99-4.05,8.47-6.71c5.94-6.36,9.16-14.52,10.23-23.07.61-4.85.49-9.76-.12-14.6-.56-4.46-1.21-9.13-3.26-13.18-3.76-7.45-12.92-9.12-20.44-9.9-4.2-.43-8.42-.49-12.63-.64-4.46-.16-8.84-1.01-13.11-2.29-8.67-2.6-16.7-6.87-24.68-11.07-7.32-3.85-14.65-7.18-22.67-9.28-8.37-2.19-17.11-3.25-25.76-2.96-4.08.14-8.01,1.15-12,1.91-2.25.43-1.3,3.87.95,3.44,3.82-.73,7.86-.45,11.72-.45s8.02.28,11.98.81c7.88,1.07,15.73,2.99,23.11,5.97s14.63,7.45,22.05,10.91c7.97,3.71,16.27,6.76,25.08,7.64,7.87.78,15.81,0,23.52,2.16,3.17.89,6.17,2.35,7.9,5.28,1.99,3.38,2.56,7.56,3.07,11.39,1.13,8.47.81,17.67-2.8,25.55-1.59,3.46-3.68,6.66-6.35,9.38-2.4,2.45-4.84,4.09-7.85,5.92-12.26,7.43-27.17,10.83-41.67,10.18-6.04-.27-12.03-1.15-18.04-1.78-7.38-.78-14.7-.78-22.11-.67-18.13.28-37.33.82-54.29-6.63-6.9-3.03-13.28-7.32-18.43-12.85-5.23-5.61-9.45-12.39-10.69-20.06-1.25-7.68.29-15.73,4.1-22.48,3.81-6.77,9.59-12.63,15.92-17.08,3.43-2.42,7.03-4.73,10.82-6.56,3.58-1.73,7.5-2.79,11.35-3.72,8.51-2.05,17.22-3.2,25.95-3.65,2.19-.11,4.37-.2,6.56-.3,2.37-.11,4.69-.43,7.05-.69,1.35-.15,1.95-2.29.35-2.6h0Z"/>
        <path class="cls-4" d="M228.14,69.9c-3.63-4.29-9.04-6.06-14.44-6.81-5.83-.8-11.7-1.07-17.5-2.1-6.01-1.07-11.95-2.62-17.67-4.76-5.38-2.02-10.5-4.63-15.59-7.28-9.86-5.13-19.86-10.65-30.89-12.74-6.36-1.2-12.82-1.18-19.26-.79-5.67.34-11.32.96-16.91,1.96-11.13,1.99-22.17,5.71-31.55,12.15-4.26,2.92-8.14,6.41-11.43,10.4-3.4,4.12-5.98,8.55-8.01,13.48-4.07,9.86-4.1,20.39-.47,30.32,1.05-.81,2.18-1.46,3.36-2.01-.65-2.17-1.21-4.37-1.61-6.6-.83-4.66-.59-9.48.53-14.08,2.29-9.37,8.12-17.76,15.35-24.04,7.92-6.88,17.9-11.05,27.99-13.56,10.64-2.64,22.02-3.85,32.97-3.42,11,.43,20.93,4.63,30.58,9.62,9.82,5.08,19.44,10.48,30.1,13.65,5.68,1.69,11.49,2.83,17.36,3.61,5.23.7,10.68.69,15.79,2.09,2.18.59,4.35,1.5,6.05,3.03,1.84,1.65,3.13,3.74,4.17,5.96,1.83,3.91,2.81,8.28,3,12.58.39,8.67-2.19,17.32-7.21,24.39-5.73,8.07-14.71,12.72-23.95,15.64-.19.06-.38.12-.57.17.5,1.59.75,3.23.87,4.9,3.27-.93,6.48-2.06,9.65-3.34,5.1-2.04,9.9-4.95,13.87-8.77,6.96-6.7,11.14-16,12.36-25.5,1.23-9.5-.6-20.65-6.94-28.14Z"/>
        <path class="cls-4" d="M208.31,131.04c-.29,2.08-.58,4.16-.87,6.24-.14,1.02-.29,2.04-.43,3.06-.08.54-.16,1.08-.21,1.62s-.19,1.17,0,1.71c.32.9,1.46,1.07,1.99.26.32-.49.33-1.08.41-1.65.07-.5.12-1,.17-1.51.11-1.07.22-2.13.32-3.2l.63-6.27c.12-1.14-1.86-1.42-2.02-.27h0Z"/>
        <path class="cls-4" d="M173.38,190.21c-.05,2-.09,4.01-.1,6.01,0,.98,0,1.97,0,2.95,0,1.07-.21,2.22.52,3.1.33.39,1.1.39,1.43,0,.72-.85.53-1.94.52-2.99,0-1.02,0-2.04,0-3.06,0-2.01-.04-4.01-.1-6.01-.04-1.46-2.23-1.47-2.27,0h0Z"/>
        <path class="cls-4" d="M162.25,194.24c-.34,2.53-.35,5.14-.45,7.7-.05,1.24-.07,2.48-.1,3.72-.03,1.16-.23,3.32,1.49,3.32s1.59-2.14,1.63-3.32c.05-1.24.11-2.48.15-3.72.08-2.55.24-5.15.08-7.7-.05-.75-.61-1.4-1.4-1.4-.84,0-1.3.65-1.4,1.4h0Z"/>
        <path class="cls-4" d="M134.15,197.53c-.13,2.49-.28,4.97-.38,7.46-.05,1.24-.1,2.49-.15,3.73s-.2,2.53.29,3.71c.29.71,1.43,1.12,1.85.24.56-1.18.55-2.38.56-3.67l.04-3.87c.02-2.53,0-5.07,0-7.6,0-1.43-2.14-1.42-2.21,0h0Z"/>
        <path class="cls-4" d="M115.83,195.34c-.22,2.36-.15,4.74-.18,7.11-.01,1.14-.02,2.28-.03,3.42,0,.62-.01,1.23.04,1.84.07.75.22,1.27.85,1.75.28.21.83.21,1.12,0,.64-.48.78-.98.85-1.75.06-.62.05-1.23.04-1.84-.01-1.14-.02-2.28-.03-3.42-.02-2.37.05-4.75-.18-7.11-.15-1.6-2.34-1.6-2.49,0h0Z"/>
        <path class="cls-4" d="M70.27,192.77c-.35,3.03-.59,6.09-.6,9.14,0,1.53.03,3.05.11,4.58.07,1.48.1,3.06.55,4.48.37,1.15,1.85.83,1.99-.27.19-1.5-.04-3.06-.11-4.57-.07-1.47-.1-2.93-.11-4.4-.02-2.99.05-5.98.29-8.97.11-1.38-1.97-1.33-2.12,0h0Z"/>
        <path class="cls-4" d="M52.94,193.14c-.2,2.79-.24,5.6-.06,8.39.09,1.35.21,2.69.38,4.03s.19,3.07.9,4.28c.47.8,1.96.75,2.13-.28.22-1.31-.2-2.69-.37-4-.18-1.39-.31-2.78-.4-4.18-.18-2.74-.22-5.49-.09-8.24.07-1.61-2.38-1.59-2.49,0h0Z"/>
        <path class="cls-4" d="M31.17,183.98c.18,2.87.34,5.75.69,8.6.17,1.37.35,2.73.55,4.1.21,1.43.3,2.98.87,4.32.41.97,1.78.37,1.83-.5.08-1.34-.35-2.76-.56-4.08s-.43-2.74-.62-4.12c-.39-2.78-.83-5.54-1.12-8.33-.11-1.02-1.69-1.06-1.63,0h0Z"/>
        <path class="cls-4" d="M56.91,154.11c5.05-5.51,10.28-10.79,15.5-16.14,2.58-2.64,5.18-5.24,7.79-7.85,2.57-2.57,5.42-5.06,7.63-7.95.53-.69-.5-1.68-1.19-1.19-2.88,2.07-5.37,4.82-7.89,7.32-2.67,2.66-5.29,5.39-7.9,8.11-5.15,5.39-10.1,11.01-15.05,16.59-.66.75.42,1.85,1.1,1.1h0Z"/>
        <path class="cls-4" d="M78.69,162.66c.4-.63.8-1.26,1.21-1.88.11-.17.15-.46.09-.65-.06-.18-.15-.32-.3-.44s-.33-.19-.51-.18c-.21,0-.45.08-.6.25l-1.45,1.7c-.12.12-.21.27-.26.44l-.04.27c-.01.31.16.6.39.78.22.17.46.23.74.2.32-.04.56-.21.73-.48h0Z"/>
        <path class="cls-4" d="M82.47,157.56c2.83-3.4,5.74-6.73,8.75-9.99,1.46-1.58,2.92-3.17,4.38-4.75,1.51-1.63,3.15-3.19,4.51-4.96.68-.89-.69-1.69-1.43-1.1-1.72,1.38-3.19,3.1-4.69,4.71s-2.99,3.27-4.43,4.96c-2.84,3.34-5.58,6.75-8.25,10.23-.51.66.63,1.55,1.16.9h0Z"/>
        <path class="cls-4" d="M110.27,161.84c1.78-1.73,3.57-3.44,5.39-5.13.88-.82,1.69-1.71,2.52-2.58.9-.94,1.78-1.87,2.45-2.98.46-.76-.49-1.8-1.26-1.26-1.05.72-1.9,1.6-2.76,2.53-.84.91-1.72,1.79-2.51,2.75-1.58,1.93-3.19,3.82-4.82,5.7-.58.67.33,1.6.98.98h0Z"/>
        <path class="cls-4" d="M159.92,181.6c1.02-.53,1.99-1.13,2.89-1.84s1.82-1.42,2.39-2.41c.23-.39.18-.96-.16-1.27s-.87-.42-1.27-.16c-.94.59-1.7,1.43-2.56,2.12-.05.04-.09.07-.14.11-.12.09-.01.03.03-.02-.12.15-.33.25-.48.37-.1.08-.2.16-.3.24-.22.18.13-.09,0,0-.05.03-.09.07-.14.11-.43.32-.87.63-1.33.92s-.7.96-.38,1.45c.32.5.93.66,1.45.38h0Z"/>
        <path class="cls-4" d="M174.59,175.82c.82-.51,1.61-1.08,2.35-1.69s1.39-1.34,1.78-2.23c.16-.37.18-.83-.15-1.13-.3-.28-.77-.37-1.13-.15s-.68.48-1.02.72c-.41.3-.77.68-1.14,1.03-.3.29-.62.57-.94.84-.17.14-.34.27-.5.41l.12-.09s-.05.04-.08.06c-.05.03-.09.07-.14.1-.09.07-.18.14-.28.2-.24.17-.43.37-.51.67-.07.27-.04.62.11.86.32.5.99.73,1.53.4h0Z"/>
        <path class="cls-4" d="M182.88,147.11c.75-.89,1.52-1.77,2.33-2.61.4-.42.8-.83,1.21-1.24.44-.44.92-.88,1.25-1.42.43-.71-.42-1.53-1.12-1.12-.54.32-.99.8-1.41,1.26s-.8.88-1.18,1.33c-.8.92-1.57,1.87-2.31,2.84-.24.31-.08.81.2,1.02s.78.25,1.04-.06h0Z"/>
        <path class="cls-4" d="M153.85,150.77c2.53-2.88,5.48-5.56,7.15-9.07.21-.44.16-.95-.25-1.26-.36-.27-.95-.3-1.28.08-2.49,2.86-4.22,6.3-6.72,9.14-.66.75.44,1.86,1.1,1.1h0Z"/>
        <path class="cls-4" d="M169.94,149.78l.35-.39c.11-.13.22-.26.31-.41l.14-.22.1-.24c.04-.13.05-.26.02-.39,0-.09-.02-.17-.07-.25-.04-.12-.11-.23-.2-.32l-.2-.15-.24-.1c-.13-.04-.26-.05-.39-.02-.13,0-.25.04-.37.12l-.22.13c-.15.09-.28.2-.41.31l-.39.35c-.11.1-.19.22-.23.36-.07.13-.1.28-.1.43,0,.15.03.3.1.43.04.14.12.26.23.36l.23.17c.17.1.36.15.56.15l.3-.04c.19-.05.35-.15.49-.29h0Z"/>
        <path class="cls-4" d="M195.25,123.14l.44-.55c.13-.17.27-.33.38-.52l.18-.3.12-.28c.05-.16.06-.31.02-.47,0-.11-.03-.2-.08-.29-.05-.14-.13-.27-.24-.38l-.24-.18-.28-.12c-.16-.05-.31-.06-.47-.02-.16,0-.3.05-.43.14l-.29.18c-.19.12-.35.25-.53.39l-.55.44c-.14.13-.23.27-.29.45-.09.17-.13.34-.12.53,0,.19.03.37.12.53.06.17.15.32.29.45l.28.22c.22.13.45.19.7.19l.37-.05c.23-.07.44-.18.61-.36h0Z"/>
        <path class="cls-4" d="M206.33,119.58c1.52-1.36,3-2.78,4.41-4.26.69-.72,1.36-1.45,2.02-2.2.69-.78,1.46-1.59,1.99-2.5.45-.79-.57-1.53-1.23-.95-.73.66-1.34,1.48-1.98,2.22s-1.36,1.53-2.06,2.27c-1.38,1.47-2.83,2.87-4.32,4.23-.8.72.38,1.89,1.18,1.18h0Z"/>
        <path class="cls-4" d="M122.76,105.86c5.23-4.86,10.18-9.95,15.07-15.15,2.58-2.74,5.15-5.48,7.74-8.2,1.22-1.29,2.46-2.55,3.66-3.85,1.03-1.11,2.23-2.22,2.99-3.54.52-.89-.53-2-1.44-1.44-1.3.8-2.36,2.04-3.42,3.12-1.24,1.26-2.44,2.57-3.65,3.86-2.57,2.74-5.13,5.5-7.69,8.25-4.86,5.23-9.59,10.55-14.29,15.92-.62.7.34,1.67,1.03,1.03h0Z"/>
        <path class="cls-4" d="M98.86,98.27c4.02-3.99,8.09-7.93,12.11-11.91,4.01-3.97,8.34-7.73,12.03-11.99.77-.89-.37-1.96-1.27-1.27-4.45,3.46-8.39,7.67-12.41,11.61s-7.97,8.05-11.86,12.17c-.87.92.49,2.29,1.39,1.39h0Z"/>
        <path class="cls-4" d="M190.24,93.69c.56-.57,1.07-1.2,1.54-1.85.21-.29.41-.58.59-.89.09-.16.17-.31.25-.47.08-.15.17-.3.21-.47s.05-.35.07-.52-.06-.4-.15-.54c-.12-.2-.3-.35-.51-.44-.41-.17-.85-.07-1.18.22-.39.35-.64.85-.91,1.29-.24.38-.5.76-.78,1.12l.19-.24c-.3.39-.63.76-.97,1.12-.43.45-.48,1.23,0,1.67s1.21.47,1.67,0h0Z"/>
        <path class="cls-4" d="M205.12,90.29c1.28-1.45,2.59-2.87,3.92-4.27.66-.69,1.28-1.41,1.93-2.12.31-.34.61-.7.91-1.06.35-.42.75-.83.98-1.33.4-.87-.41-1.76-1.31-1.31-.47.23-.85.62-1.23.97-.34.31-.68.63-1,.96-.68.71-1.37,1.41-2.01,2.15-1.27,1.46-2.52,2.94-3.75,4.44-.38.47-.46,1.12,0,1.58.41.41,1.17.45,1.58,0h0Z"/>
        <path class="cls-1" d="M183.48,78.94l.17-.25s.01-.02.02-.03h0c.06-.16.13-.31.19-.46.02-.09.03-.18.04-.26.01-.09.03-.17.03-.26,0-.01,0-.02,0-.03v-.13c.01-.32-.07-.62-.23-.9-.16-.27-.37-.48-.64-.64-.28-.16-.58-.24-.9-.24-.32,0-.62.08-.9.24l-.12.07c-.09.05-.14.1-.24.17-.21.13-.37.31-.49.53h0s-.01.03-.02.04l-.17.25c-.14.22-.21.45-.22.7-.06.25-.04.5.03.75.06.25.17.46.34.64.13.21.31.37.53.49l.45.19c.33.09.67.09,1,0l.45-.19c.28-.17.51-.39.68-.68h0Z"/>
        <path class="cls-1" d="M178.14,88.54l-.29.4c-.09.15-.13.32-.13.5,0,.18.05.34.13.5.18.3.5.48.85.49h.52c.44,0,.86-.24,1.08-.62s.23-.88,0-1.27-.64-.62-1.08-.62c-.23,0-.44.06-.63.17-.19.11-.34.26-.45.45h0Z"/>
        <path class="cls-1" d="M82.16,77.25c2.41,0,2.42-3.75,0-3.75s-2.42,3.75,0,3.75h0Z"/>
        <path class="cls-1" d="M92.73,64.62c.2-.34.41-.69.62-1.03l.15-.35.05-.39-.05-.39c-.05-.19-.13-.36-.26-.5-.07-.11-.15-.2-.26-.26-.09-.09-.2-.15-.33-.19-.12-.07-.24-.1-.37-.1-.2-.04-.39-.04-.59.03-.39.11-.78.21-1.17.31-.66.17-1.19.72-1.37,1.37-.09.35-.09.7,0,1.04.06.26.18.48.35.67.14.21.32.38.55.51.31.18.64.27.99.27.7,0,1.34-.38,1.7-.97h0Z"/>
        <path class="cls-1" d="M156.31,89.09l.43-.65.1-.16c.11-.17.18-.37.24-.57l.11-.35.06-.43-.06-.43-.16-.38c-.1-.19-.24-.34-.41-.45-.1-.1-.22-.17-.35-.21-.13-.07-.26-.11-.41-.11-.14-.04-.28-.04-.43,0-.21,0-.41.07-.6.19l-.31.18c-.24.14-.45.32-.64.51l-.55.55c-.24.24-.4.52-.49.84l-.07.5c0,.34.09.66.26.96.12.22.28.4.49.53.18.17.4.28.65.34.25.08.5.09.76.03.25-.01.49-.09.71-.23.29-.17.51-.4.68-.68h0Z"/>
        <path class="cls-1" d="M61.09,125.66c.05-.07.1-.13.14-.2l-.31.41c.16-.2.34-.38.45-.61.04-.09.09-.17.13-.25.1-.17.21-.34.32-.5s.18-.34.28-.5.16-.29.24-.46c.06-.15.09-.21.12-.34,0-.05.02-.09.03-.14l-.18.44c.06-.11.13-.21.19-.32.13-.21.19-.45.26-.68.13-.47.02-.95-.27-1.33s-.71-.59-1.2-.6c-.05,0-.11,0-.16,0-.1,0-.18.02-.29.03-.34.05-.27.04-.67.22-.12.05-.24.11-.36.17l.44-.18c-.25.07-.49.13-.71.26-.18.1-.35.26-.52.4-.04.04-.08.07-.12.11-.29.26-.55.56-.74.9s-.33.69-.48,1.05-.18.77-.19,1.16l.07.52c.06.25.18.47.35.66.09.15.2.26.35.35.19.17.41.29.66.35.34.08.69.08,1.03,0,.25-.06.47-.18.66-.35.21-.14.38-.32.5-.54h0Z"/>
        <path class="cls-1" d="M69.63,117.83c2.25,0,2.25-3.49,0-3.49s-2.25,3.49,0,3.49h0Z"/>
        <path class="cls-1" d="M26.57,153.73c1.77,0,1.77-2.74,0-2.74s-1.77,2.74,0,2.74h0Z"/>
        <path class="cls-1" d="M130.02,178.28l.11-.2.05-.09.02-.05s0-.02.01-.03c.04-.08.08-.17.11-.26.04-.09.07-.17.11-.26.02-.06.04-.13.06-.19l.03-.09s0-.03.01-.05c.05-.17.08-.22.07-.52h0c-.02-.18-.05-.35-.07-.52-.01-.04-.02-.07-.04-.11l-.09-.2c-.07-.21-.19-.39-.35-.55l-.17-.13c-.11-.1-.23-.18-.37-.22-.08-.03-.15-.07-.22-.09l-.06-.02s-.02,0-.03,0c0,0-.5-.07-.51-.07h-.01c-.17.02-.34.05-.51.07-.03,0-.06.02-.1.03l-.19.06s-.03.01-.05.02c-.05.02-.46.19-.51.21-.01,0-.02.01-.03.02l-.11.06-.23.12c-.34.2-.6.47-.8.8-.2.35-.3.72-.3,1.13l.08.59c.11.38.3.71.57.99.2.22.44.37.72.46.27.14.55.2.86.19.4,0,.78-.1,1.13-.3.34-.2.6-.47.8-.8h0Z"/>
        <path class="cls-1" d="M172.75,139.51c.21-.08.42-.16.62-.26.04-.02.08-.05.12-.07.17-.13.36-.25.51-.4.02-.02.03-.03.05-.05.06-.07.12-.14.17-.21.06-.07.11-.14.16-.21,0,0,.01-.02.02-.03.1-.18.18-.41.25-.58.02-.04.03-.08.04-.12.05-.19.07-.44.09-.61.02-.21-.03-.38-.06-.6-.09-.31-.24-.58-.47-.8-.23-.23-.49-.38-.8-.47-.32-.09-.65-.09-.97,0-.31.09-.58.24-.8.47-.04.03-.08.08-.12.11l.38-.29c-.07.05-.14.09-.21.12l.47-.2s-.06.02-.09.03c0,0-.01,0-.02,0l-.48.2h-.01s-.04.02-.05.03l.49-.21c-.08.03-.17.06-.25.07l.56-.07s-.09,0-.13,0c-.38,0-.74.1-1.07.29l-.43.33c-.26.26-.44.58-.54.93-.09.28-.1.56-.04.84.01.28.1.54.25.79.13.25.31.44.55.59.2.19.44.31.72.38.38.1.75.1,1.13,0h0Z"/>
        <path class="cls-1" d="M150.53,184.21c1.35,0,1.35-2.1,0-2.1s-1.35,2.1,0,2.1h0Z"/>
      </g>
    </g>
  </g>
</svg>