<?xml version="1.0" encoding="UTF-8"?>
<svg id="Capa_2" xmlns="http://www.w3.org/2000/svg" viewBox="0 0 243.3 243.3">
  <defs>
    <style>
      .cls-1 {
        fill: #fff;
      }

      .cls-2 {
        fill: none;
      }

      .cls-3 {
        fill: #4f3535;
      }

      .cls-4 {
        fill: #b5593b;
      }
    </style>
  </defs>
  <g id="grocery_icons">
    <g>
      <rect class="cls-2" width="243.3" height="243.3"/>
      <g>
        <path class="cls-3" d="M203.95,87.63c-.49-5.19,1.06-10.62,2.26-9.74,1.88,1.37,1.81,7.3.86,10.17,1.38.46,1.66.52,2.94,1.19,2.96-3.8,7.28-7.07,8.19-7.34.21-.06.45-.04.62.1.12.11.18.27.21.43.28,1.31-.68,2.72-1.48,3.66-1.1,1.3-3.55,3.26-4.95,4.14.88.69,1.72,1.37,2.43,2.23,3.89-3.01,8.96-8.88,6.81-12.3-2.33-3.72-7.28-.43-11.05,3.11,0-.43,0-.86-.04-1.31-.2-2.18-1.13-6.18-3.42-7.19-1.98-.87-3.93,1.11-4.83,2.7-1.19,2.1-1.8,7.24-1.92,9.86,1.12.01,2.24.12,3.35.3Z"/>
        <path class="cls-3" d="M85.47,197.75c-5.14-.87-10.67.28-9.88,1.54,1.23,1.98,7.15,2.34,10.08,1.6.36,1.41.4,1.7.98,3.02-4,2.67-7.58,6.74-7.92,7.64-.08.2-.08.45.06.62.1.13.26.2.41.24,1.29.37,2.76-.48,3.76-1.21,1.37-1.01,3.51-3.3,4.49-4.63.63.92,1.24,1.81,2.04,2.59-3.29,3.66-9.51,8.29-12.77,5.9-3.54-2.6.1-7.29,3.91-10.8-.43-.02-.86-.06-1.3-.14-2.16-.36-6.08-1.58-6.92-3.93-.73-2.04,1.4-3.84,3.04-4.62,2.18-1.03,7.35-1.27,9.97-1.19-.07,1.12-.05,2.24.06,3.37Z"/>
        <path class="cls-4" d="M214.12,149.02c10.75-21.19,12.77-37.21,6.67-48.84-6.09-11.63-16.78-17.21-28.58-12.15-11.79,5.07-17.82,22.26-25.1,37.67s-17.65,31.53-37.98,38.83c-20.33,7.3-37.59,11.56-43.59,22.44-6,10.88-.21,28.1,16.1,33.17,16.31,5.08,44.6-5.5,62.63-16.75,18.03-11.25,39.1-33.19,49.85-54.39Z"/>
        <path class="cls-3" d="M180.11,109.72c3.12-1.88,7.35-1.72,10.79-.86,3.38.84,5.81,2.88,8.8,4.46,1.18.62,2.25-.73,1.45-1.77-4.44-5.77-16.51-8.31-22.42-3.79-1.08.82.22,2.65,1.38,1.95h0Z"/>
        <path class="cls-3" d="M171.79,132.1c5.86-.66,10.13,2,14.55,5.42.87.68,2.17-.56,1.59-1.48-3.41-5.42-10.69-7.25-16.69-6.39-1.62.23-1.03,2.63.55,2.45h0Z"/>
        <path class="cls-3" d="M106.17,176.39c-4.95,5.57-3.29,17.79,2.14,22.63.96.86,2.41-.09,1.87-1.32-1.37-3.11-3.21-5.65-3.81-9.1-.61-3.51-.46-7.71,1.64-10.7.77-1.09-.94-2.54-1.84-1.51h0Z"/>
        <path class="cls-3" d="M128.55,170.51c-1.29,5.92,0,13.32,5.16,17.12.87.64,2.2-.56,1.59-1.48-3.09-4.67-5.43-9.12-4.35-14.91.29-1.56-2.06-2.32-2.4-.72h0Z"/>
        <path class="cls-3" d="M153.77,156.43c4.53,1.89,7.49,4.99,11.17,8.03.96.79,2.42-.05,1.85-1.3-2.14-4.7-7.56-7.71-12.33-9.03-1.52-.42-2.1,1.72-.7,2.31h0Z"/>
        <path class="cls-1" d="M212.86,116.26c-1.13,5.21-1.91,10.22-4.02,15.18-1.88,4.43-5.87,9.1-6.03,13.99-.06,1.92,2.16,3.54,3.92,2.48,4.65-2.79,6.91-9.6,8.68-14.49,1.91-5.28,3.4-11.39,2.18-16.99-.5-2.28-4.2-2.64-4.73-.17h0Z"/>
        <path class="cls-1" d="M198.49,151.84c-.08.23-.16.47-.24.7-.45,1.29.86,2.7,2.18,2.35.24-.06.48-.13.72-.19.79-.21,1.43-.76,1.67-1.56.23-.76.03-1.61-.51-2.19s-1.37-.84-2.15-.67c-.82.18-1.4.78-1.67,1.56h0Z"/>
        <path class="cls-1" d="M139.77,200.63c-3.34,2.23-6.96,4.03-10.78,5.3-3.24,1.08-6.71,1.35-9.5,3.39-1.59,1.16-.57,3.49.94,4.05,7.22,2.7,17-4.4,21.98-8.99,1.85-1.71-.42-5.24-2.64-3.75h0Z"/>
      </g>
      <g>
        <path class="cls-3" d="M169.59,29.93c1.15-5.08,4.32-9.75,5.19-8.55,1.36,1.89-.56,7.5-2.36,9.93,1.17.87,1.41,1.02,2.42,2.05,3.99-2.68,9.12-4.45,10.08-4.41.22,0,.44.1.55.29.08.14.09.31.07.47-.15,1.33-1.49,2.37-2.55,3.02-1.45.89-4.39,1.99-5.99,2.39.62.93,1.2,1.84,1.61,2.87,4.64-1.65,11.29-5.64,10.32-9.56-1.06-4.26-6.78-2.68-11.47-.5.14-.41.27-.82.37-1.26.49-2.13.85-6.23-1-7.9-1.61-1.45-4.08-.17-5.43,1.05-1.79,1.62-3.97,6.31-4.9,8.76,1.06.36,2.09.81,3.09,1.34Z"/>
        <path class="cls-3" d="M22.64,97.55c-4.61-2.43-10.22-3.06-9.87-1.62.55,2.27,6.06,4.46,9.08,4.67-.1,1.46-.15,1.74-.02,3.18-4.64,1.29-9.31,4.03-9.91,4.78-.14.17-.21.4-.14.61.05.15.18.27.32.36,1.11.75,2.77.41,3.95.03,1.62-.53,4.37-2.04,5.71-3,.31,1.07.61,2.11,1.13,3.1-4.27,2.45-11.62,4.91-13.97,1.62-2.55-3.57,2.38-6.9,7.08-9.04-.4-.16-.8-.33-1.2-.54-1.94-1.01-5.28-3.4-5.35-5.9-.06-2.16,2.53-3.21,4.33-3.44,2.39-.3,7.38,1.09,9.84,1.98-.41,1.04-.74,2.11-1,3.22Z"/>
        <path class="cls-4" d="M160.08,91.43c16.83-16.78,23.75-31.36,21.59-44.31-2.16-12.95-10.57-21.59-23.36-20.46-12.79,1.13-23.88,15.58-35.61,27.95-11.73,12.37-26.61,24.44-48.2,25.03-21.59.59-39.32-.76-48.42,7.7-9.1,8.46-8.98,26.63,4.93,36.54,13.91,9.92,44.09,8.7,64.73,3.64,20.64-5.06,47.5-19.32,64.34-36.1Z"/>
        <path class="cls-3" d="M140.04,43.47c3.55-.81,7.52.66,10.52,2.56,2.95,1.85,4.62,4.55,6.96,6.98.92.96,2.36,0,1.93-1.23-2.42-6.87-13.09-13.05-20.11-10.6-1.28.45-.62,2.58.7,2.28h0Z"/>
        <path class="cls-3" d="M125.15,62.13c5.77,1.2,9,5.07,12.13,9.7.62.91,2.24.14,1.98-.91-1.55-6.21-7.89-10.22-13.86-11.29-1.61-.29-1.8,2.17-.24,2.5h0Z"/>
        <path class="cls-3" d="M48.98,83.72c-6.44,3.74-8.68,15.87-5.04,22.17.65,1.12,2.32.67,2.19-.67-.33-3.38-1.28-6.37-.77-9.83.52-3.53,1.97-7.47,4.9-9.65,1.07-.8-.1-2.7-1.28-2.01h0Z"/>
        <path class="cls-3" d="M72.07,85.12c-3.07,5.22-4.15,12.65-.45,17.87.63.88,2.27.16,1.98-.91-1.48-5.4-2.31-10.36.53-15.52.76-1.39-1.23-2.85-2.06-1.44h0Z"/>
        <path class="cls-3" d="M100.44,79.62c3.71,3.21,5.56,7.08,8.11,11.12.66,1.05,2.31.7,2.16-.66-.56-5.14-4.78-9.69-8.89-12.43-1.31-.88-2.53.98-1.38,1.97h0Z"/>
        <path class="cls-1" d="M169.11,59.91c-2.71,4.6-5,9.11-8.55,13.16-3.17,3.62-8.42,6.81-10.1,11.4-.66,1.81.94,4.04,2.95,3.58,5.29-1.2,9.56-6.96,12.77-11.05,3.47-4.42,6.78-9.76,7.38-15.45.24-2.32-3.17-3.82-4.44-1.64h0Z"/>
        <path class="cls-1" d="M144.35,89.23c-.15.2-.3.4-.45.59-.83,1.09-.03,2.84,1.34,2.92.25.01.5.03.74.04.82.05,1.6-.27,2.08-.96.46-.65.53-1.52.2-2.24s-1.04-1.23-1.84-1.31c-.83-.08-1.58.3-2.08.96h0Z"/>
        <path class="cls-1" d="M73.33,117.24c-3.87,1.08-7.87,1.65-11.9,1.67-3.41.02-6.79-.81-10.08.25-1.87.61-1.63,3.14-.37,4.14,6.02,4.82,17.52,1.13,23.69-1.68,2.3-1.05,1.24-5.11-1.34-4.39h0Z"/>
      </g>
    </g>
  </g>
</svg>