<?xml version="1.0" encoding="UTF-8"?>
<svg id="Capa_2" xmlns="http://www.w3.org/2000/svg" viewBox="0 0 243.3 243.3">
  <defs>
    <style>
      .cls-1 {
        fill: #fff;
      }

      .cls-2 {
        fill: none;
      }

      .cls-3 {
        fill: #fad380;
      }

      .cls-4 {
        fill: #b17c61;
      }

      .cls-5 {
        fill: #4f3535;
      }

      .cls-6 {
        fill: #bf937d;
      }
    </style>
  </defs>
  <g id="grocery_icons">
    <g>
      <rect class="cls-2" width="243.3" height="243.3"/>
      <g>
        <g>
          <path class="cls-4" d="M108.14,197.14c-.62.95-1.32,1.92-2.1,2.92-.36.46-.72.91-1.1,1.38-8.82,10.68-22.59,19.43-54.36,13.18-33.12-6.53-44.66-21.08-44.92-40.4-.05-3.64.61-6.9,1.83-9.87.06-.15.12-.28.18-.43,2.96-6.83,8.93-12.03,16.2-16.36.41-.24.82-.49,1.23-.72,5.78-3.3,12.29-6.1,18.7-8.75,5.1-2.11,10.2-3.82,15.08-5.04h.01c.38-.1.75-.19,1.12-.27,12.6-3,23.61-2.68,29.47,2.3,6.96,5.91,4.88,11.45,4.34,16.05-.09.72-.14,1.42-.1,2.09,0,.15.01.29.02.43.36,3.55,6.61,7.49,11.47,12.4.27.26.53.53.79.8,1.69,1.82,3.16,3.76,4.05,5.87,3.2,7.54,4.53,14.67-1.92,24.43Z"/>
          <path class="cls-5" d="M93.83,151.12c-.09.72-.14,1.42-.1,2.09-11.88.64-23.12-9.43-23.65-21.4-.03-.9,1.38-1.08,1.57-.21,2.63,11.98,10.4,18.52,22.18,19.52Z"/>
          <path class="cls-5" d="M61.72,133.52c-2.35,9.3.58,17.3,8.36,22.83,7.81,5.55,18.73,8.25,28.1,5.66,1.1-.3.93-2.16-.28-2.05-8.36.72-15.95.43-23.52-3.66-9.27-5.01-11.96-12.37-10.86-22.53.11-1.04-1.55-1.23-1.8-.24h0Z"/>
          <path class="cls-5" d="M58.82,133.14c-5.91,10.29-7.06,26.01,3.75,33.62,11.73,8.25,30.06,6.93,42.67,1.66,1.39-.58.87-2.84-.64-2.33-11.23,3.77-23.23,5.46-34.73,1.66-6.8-2.24-11.68-6.53-13.01-13.78-1.27-6.93.31-13.78,3.63-19.87.59-1.09-1.04-2.05-1.66-.97h0Z"/>
          <path class="cls-5" d="M34.26,142.97c.32,9.18,2.19,18.37,7.54,26.01,4.99,7.13,12.52,11.42,20.57,14.36,16.19,5.91,34.57,2.82,46.99-9.59,1.11-1.11-.57-2.77-1.72-1.72-11.68,10.78-27.69,14.34-42.77,9.47-7.97-2.57-16.06-6.78-21.07-13.7-5.23-7.23-7.04-16.09-7.39-24.84-.06-1.38-2.21-1.39-2.16,0h0Z"/>
          <path class="cls-5" d="M23.87,147.58c-6.17,20.74,10.57,38.02,28.42,45.37,19.33,7.95,43.18,5.36,59.52-8.03,1.14-.93-.35-2.86-1.58-2.05-16.36,10.93-35.19,14.99-54.2,8.55-18.15-6.14-35.82-22.32-30.04-43.26.38-1.37-1.72-1.94-2.12-.58h0Z"/>
          <path class="cls-5" d="M108.14,197.14c-.62.95-1.32,1.92-2.1,2.92-.36.46-.72.91-1.1,1.38-17.29,7.98-38.65,9.15-56.77,4.68-9.8-2.42-19.56-6.78-27.17-13.52-8.19-7.26-11.83-17.3-13.52-27.88-.02-.14-.02-.26,0-.37.06-.15.12-.28.18-.43.46-.69,1.67-.78,1.85.24,1.91,10.82,5.69,20.9,14.49,27.99,7.61,6.13,17.07,9.87,26.58,11.87,19.63,4.12,39.34.98,57.55-6.88Z"/>
          <path class="cls-1" d="M19.22,170.19c.13-.61.26-1.23.21-1.86-.03-.4-.05-.81-.17-1.19-.15-.48-.41-.98-.78-1.32-.36-.33-.8-.64-1.28-.75-.92-.21-1.83-.03-2.58.54-.4.31-.7.67-.97,1.1-.35.54-.57,1.12-.74,1.74-.23.81-.1,1.8.33,2.52.4.68,1.18,1.33,1.96,1.5.84.19,1.78.15,2.52-.33.69-.45,1.33-1.12,1.5-1.96h0Z"/>
          <path class="cls-1" d="M23.61,162.09c3.76,0,3.77-5.85,0-5.85s-3.77,5.85,0,5.85h0Z"/>
        </g>
        <g>
          <g>
            <path class="cls-4" d="M66.7,92.38c-.28-1.1-.52-2.27-.74-3.52-.1-.58-.19-1.15-.28-1.74-1.93-13.72.91-29.78,26.98-49,27.18-20.03,45.71-18.71,60.13-5.86,2.71,2.42,4.68,5.11,6.05,8.01.07.14.12.28.19.42,3.04,6.8,2.84,14.71,1.13,23-.1.46-.2.94-.3,1.4-1.47,6.49-3.8,13.18-6.17,19.7-1.89,5.19-4.07,10.1-6.46,14.52h0c-.18.36-.36.69-.55,1.02-6.29,11.32-13.97,19.23-21.6,20.19-9.05,1.14-11.74-4.13-14.77-7.63-.47-.55-.96-1.06-1.47-1.49-.11-.1-.22-.19-.33-.27-2.86-2.13-9.98-.18-16.89.09-.37.02-.75.03-1.13.04-2.48.02-4.91-.21-7.07-.97-7.72-2.74-13.88-6.56-16.72-17.91Z"/>
            <path class="cls-5" d="M110.32,112.88c-.47-.55-.96-1.06-1.47-1.49,7.55-9.2,22.56-10.69,31.75-3,.69.58-.13,1.75-.9,1.3-10.62-6.15-20.68-4.83-29.38,3.18Z"/>
            <path class="cls-5" d="M144.98,101.09c-5.28-8.01-13.15-11.25-22.49-9.24-9.37,2.01-18.73,8.25-23.15,16.91-.52,1.02.96,2.14,1.7,1.18,5.11-6.65,10.45-12.05,18.58-14.88,9.95-3.46,17.2-.47,23.96,7.2.69.78,1.95-.32,1.39-1.16h0Z"/>
            <path class="cls-5" d="M147.22,99.2c-3.6-11.31-14.42-22.77-27.33-19.93-14.01,3.08-25.4,17.5-30.03,30.36-.51,1.42,1.5,2.56,2.15,1.1,4.8-10.83,11.66-20.82,22.22-26.75,6.25-3.51,12.7-4.21,18.95-.3,5.97,3.74,9.95,9.53,12.21,16.09.4,1.17,2.22.61,1.84-.57h0Z"/>
            <path class="cls-5" d="M156.54,74.44c-6.99-5.96-15.03-10.78-24.28-12-8.63-1.14-16.88,1.52-24.48,5.48-15.28,7.95-25.42,23.6-24.65,41.14.07,1.57,2.43,1.45,2.43-.11-.07-15.89,8.12-30.11,21.88-37.95,7.27-4.14,15.84-7.27,24.33-6.29,8.87,1.02,16.62,5.67,23.31,11.32,1.06.89,2.52-.69,1.46-1.59h0Z"/>
            <path class="cls-5" d="M160.16,63.67c-11.14-18.55-35.18-17.87-52.65-9.66-18.92,8.89-33.1,28.23-34.26,49.33-.08,1.47,2.35,1.67,2.57.22,2.98-19.44,12.7-36.08,30.28-45.76,16.79-9.25,40.65-11.35,52.2,7.04.75,1.2,2.59.04,1.86-1.17h0Z"/>
            <path class="cls-5" d="M66.7,92.38c-.28-1.1-.52-2.27-.74-3.52-.1-.58-.19-1.15-.28-1.74,5.78-18.14,19.35-34.69,34.88-45.03,8.4-5.6,18.2-9.85,28.31-10.92,10.88-1.14,20.75,2.95,29.69,8.85.12.07.21.16.27.25.07.14.12.28.19.42.2.81-.55,1.76-1.43,1.21-9.27-5.9-19.26-9.91-30.43-8.21-9.66,1.48-18.81,5.93-26.7,11.6-16.29,11.7-27.29,28.36-33.78,47.1Z"/>
            <path class="cls-1" d="M82.36,79.98c-.15-.61-.3-1.22-.62-1.76-.2-.34-.4-.71-.67-1-.35-.37-.79-.7-1.28-.85-.46-.14-1-.23-1.48-.12-.92.21-1.67.77-2.09,1.61-.23.46-.33.91-.4,1.42-.08.64-.02,1.26.09,1.89.14.83.7,1.66,1.4,2.13.65.44,1.64.68,2.42.5.84-.19,1.67-.64,2.13-1.4.43-.71.7-1.59.5-2.42h0Z"/>
            <path class="cls-1" d="M82.79,70.77c3.39-1.64.85-6.91-2.55-5.27s-.85,6.91,2.55,5.27h0Z"/>
          </g>
          <path class="cls-1" d="M145.45,84.01c4.69,0,4.7-7.29,0-7.29s-4.7,7.29,0,7.29h0Z"/>
        </g>
        <g>
          <path class="cls-4" d="M188.67,152.2s19.76-10.73,25.41-25.03c5.65-14.3,1.32-18.26-16.75-19.39-18.07-1.13-43.1,9.03-59.29,22.4-16.19,13.36-26.54,28.98-14.87,35.2,11.67,6.21,45.92-5.46,45.92-5.46,0,0-19.57,20.7-24.09,33.5-4.52,12.8-.94,20.51,17.69,24.28,18.63,3.76,36.7,1.13,53.07-12.05,16.37-13.17,25.78-32.18,19.39-44.79-6.4-12.61-23.9-11.29-30.3-11.48-6.4-.19-16.19,2.82-16.19,2.82Z"/>
          <path class="cls-3" d="M165.33,172.53c-9.5,11.88-19.2,29.36-10.16,37.08,9.03,7.72,46.11,6.21,62.86-10.73s16.23-35.53,9.6-39.9c-17.69-11.67-50.25-1.51-62.3,13.55Z"/>
          <path class="cls-3" d="M183.59,151.63c7.62-3.57,20.14-12.99,25.41-22.21,3.96-6.93,3.01-13.36-5.27-15.06-8.28-1.69-33.12,2.26-49.31,11.86-16.19,9.6-26.35,20.89-27.67,29.36s9.79,9.03,18.82,7.72c9.03-1.32,25.97-6.02,38.02-11.67Z"/>
          <path class="cls-5" d="M134.35,162.85c-3.03-.76-6.34-2.23-6.34-5.79,0-3.32,1.29-6.71,3.11-9.42,5.6-8.36,14.73-14.15,23.15-19.33s16.57-9.23,25.78-11.7c4.2-1.12,8.49-1.95,12.83-2.26,3.53-.26,7.62-.51,10.93.99,2.24,1.02,4.31,2.77,5.1,5.16,1.45,4.39-1.24,8.77-3.53,12.32-.88,1.36-6.53,8.64-5.33,7.65,10.16-8.41,12.18-14.45,11.52-18.9-.43-2.88-2.13-5.31-4.47-6.99-2.66-1.91-5.81-2.52-9.04-2.64-4.58-.17-9.21.41-13.69,1.33-10.34,2.11-19.93,6.38-28.96,11.77-9.31,5.56-19.06,11.87-25.48,20.81-2.32,3.23-4.1,7.56-3.86,11.64.26,4.35,4.07,6.1,7.91,6.76.91.16,1.32-1.18.39-1.41h0Z"/>
          <path class="cls-5" d="M163.23,175.73c4.38-4.83,9.49-8.98,15.12-12.26,2.76-1.61,5.66-3,8.65-4.13,3.13-1.17,6.33-1.85,9.53-2.75,1.28-.36,1.09-2.56-.33-2.41-3.36.37-6.74,1.48-9.89,2.66-3.13,1.18-6.18,2.6-9.07,4.28-5.91,3.41-11.15,7.88-15.43,13.19-.79.98.53,2.39,1.42,1.42h0Z"/>
          <path class="cls-6" d="M204.44,173.94c-4.16-1.39-8.89-.96-13.07-2.33-5.42-1.78-10.39-2.35-15.57.58-2.94,1.66-5.53,3.86-8.31,5.77-5.68,3.91-9.77,8.32-10.47,15.49-.28,2.84,0,5.8,1.33,8.32,3,5.72,9.49,5.33,15.02,4.9,4.66-.36,9.21,1.02,13.83,1.28,4.18.24,8.4-.7,12.13-2.6,7.09-3.62,12.91-10.7,13.3-18.87.26-5.43-2.85-10.76-8.19-12.54Z"/>
          <path class="cls-5" d="M170.6,201.25c6.69.09,13.19-.87,19.23-3.9,2.88-1.45,5.6-3.38,7.79-5.76,2.01-2.19,4.6-5.88,3.65-9.04-.34-1.13-2.06-1.2-2.36,0-.39,1.55-.4,3-1.15,4.46s-1.74,2.66-2.88,3.77c-2.06,2.01-4.47,3.6-7.06,4.84-5.25,2.51-11.44,3.62-17.22,3.96-1.06.06-1.08,1.64,0,1.66h0Z"/>
          <path class="cls-5" d="M172.62,192.71c-.27-.13-.54-.47-.8-.66-.31-.23-.62-.44-.88-.73-.39-.44-.68-1.01-.76-1.59-.24-1.68,1.35-2.91,2.54-3.79,1.6-1.19,3.31-2.23,5.09-3.11.87-.43,1.76-.82,2.66-1.16.95-.36,2.18-.55,2.94-1.25.58-.53.33-1.71-.49-1.85-1.19-.21-2.47.44-3.56.87-1.13.45-2.25.96-3.33,1.52-2.1,1.1-4.23,2.42-5.98,4.03-1.58,1.45-2.63,3.47-1.99,5.64.27.92.8,1.79,1.51,2.44.37.34.8.66,1.29.82.23.07.53.15.77.14.25,0,.45-.13.69-.17.53-.07.93-.85.31-1.15h0Z"/>
          <path class="cls-5" d="M184.42,187.35c.74.16,1.52.15,2.24-.09.46-.16.86-.36,1.25-.66.19-.15.36-.31.48-.52s.17-.43.2-.66c.05-.19.05-.38,0-.57-.05-.18-.14-.34-.27-.47-.25-.25-.69-.41-1.04-.27-.1.04-.19.06-.29.09-.24.07-.44.2-.63.36-.05.04-.1.08-.15.12l.26-.2c-.16.12-.31.23-.47.35l.26-.2c-.21.16-.44.3-.69.41l.3-.12c-.25.1-.51.18-.77.21l.32-.04c-.22.03-.45.04-.68.01-.27-.02-.63.14-.81.34s-.28.4-.32.66c-.07.54.26,1.14.82,1.26h0Z"/>
        </g>
      </g>
    </g>
  </g>
</svg>