<?xml version="1.0" encoding="UTF-8"?>
<svg id="Capa_2" xmlns="http://www.w3.org/2000/svg" viewBox="0 0 243.3 243.3">
  <defs>
    <style>
      .cls-1 {
        fill: none;
      }

      .cls-2 {
        fill: #e58473;
      }

      .cls-3 {
        fill: #4f3535;
      }

      .cls-4 {
        fill: #f0b5ab;
      }
    </style>
  </defs>
  <g id="grocery_icons">
    <g>
      <rect class="cls-1" width="243.3" height="243.3"/>
      <g>
        <path class="cls-3" d="M47.09,186.27c-5.88-2.26-14.48-5.8-13.08-13.63.76-4.25,3.83-7.89,6.55-11.07,2.78-3.24,5.8-6.27,8.87-9.23,6.06-5.85,12.53-11.5,17.41-18.42,4.24-6.01,7.38-13.78,5.24-21.18-1.04-3.6-3.19-6.96-6.14-9.29-2.82-2.23-6.62-3.73-10.01-1.93-.48.25-.4,1.1.16,1.21,3.16.6,6.28,1.21,8.83,3.32,2.64,2.18,4.47,5.31,5.24,8.63,1.83,7.9-3.11,15.89-7.99,21.66-5.47,6.47-13.44,12.06-19.39,18.07-3,3.03-5.9,6.2-8.44,9.63-2.3,3.1-4.39,6.86-4.17,10.85.2,3.6,2.22,6.6,5.03,8.74,3.03,2.31,7.97,3.41,11.72,3.87.74.09.76-.99.16-1.21h0Z"/>
        <path class="cls-3" d="M43.23,190.64c-1.81-.24-3.58-.66-5.41-.77-1.84-.11-3.67-.22-5.49-.52-3.17-.53-6.35-1.46-9.06-3.23-2.24-1.47-4.56-3.68-5.64-6.17-1.26-2.9-1.01-6.09.25-8.95,1.26-2.86,3.24-5.31,5.22-7.7,2.24-2.68,4.44-5.39,6.48-8.24,3.97-5.54,7.89-11.82,9.41-18.55,1.32-5.85.31-14.67-6.11-17.22-.9-.36-1.55.96-.91,1.57,2.27,2.18,4.07,4.35,4.83,7.48.82,3.37.28,6.87-.78,10.12-2.29,7-6.73,12.9-11.23,18.65-3.79,4.85-9.91,10.6-11.08,16.92-1.08,5.84,1.98,11.41,6.69,14.71,3.03,2.12,6.58,3.22,10.22,3.7,1.94.25,3.9.35,5.85.36,2.07,0,4.88-.85,6.9-1.19.6-.1.36-.9-.13-.96h0Z"/>
        <g>
          <path class="cls-3" d="M130.36,170.84c-.27,3.11.07,6.58-.8,9.61-.99,3.47-3.39,6.18-4.58,9.5-.47,1.31,1.02,2.88,2.23,1.75,6.03-5.62,6.89-12.87,5.74-20.71-.23-1.55-2.44-1.77-2.58-.16-.08-.04,0,0,0,0Z"/>
          <path class="cls-3" d="M140.95,172.06c-.15,3.25-.32,7.12-.98,10.36-.66,3.24-2.2,6.27-2.63,9.45-.21,1.54,1.64,2.2,2.63,1.06,5.1-5.85,5.29-13.96,4.54-21.27-.28-2.71-3.46-1.79-3.56.39-.07-.09,0,0,0,0Z"/>
          <path class="cls-3" d="M150.83,175.64c.94,2.62,1.06,5.52.37,8.19-.69,2.67-2.07,4.84-2.05,7.59,0,1.26,1.45,2.3,2.56,1.37,2.63-2.22,4.16-5.61,4.32-9.12.16-3.52-.53-6.78-2.51-9.72-1.11-1.66-3.32-.09-2.68,1.69-.05-.03,0,0,0,0Z"/>
          <path class="cls-2" d="M113.2,142.42c-20.2,9.83-58.13,28.03-71.83,41.75-13.7,13.72,8.99,19.65,19.18,20.17,16.44.85,32.8-4.71,42.46-13.15s12.19-21.98,10.97-30.89c-1.36-9.92-7.89-14.43-.78-17.89Z"/>
          <path class="cls-2" d="M188.92,204.18c-.73.92-1.28,1.7-1.71,2.35-1.43,2.1-1.65,2.76-2.64,1.81-.53-.51-1.31-1.51-2.63-3.02-2.15-2.45-6.44-7.05-11.52-11.78-5.56-5.16-12.05-10.48-17.71-13.31-.51-.26-1.07-.5-1.66-.73-.16-.07-.34-.13-.51-.2-5.15-1.89-12.57-2.72-19.22-2.46-.12,0-.23.01-.35.02-4.07.16-7.83.76-10.58,1.77-7.98,2.93-8.46,1.71-14.86,4.18-.37-11.3-2.89-24.94-.22-35.72.22-.88,4.32-2.62,5.19-3.11,1.62-.93,3.25-1.81,4.92-2.62,2.99-1.45,6.09-2.65,9.3-3.48,4.52-1.16,9.17-1.82,13.83-1.97,3.32-.1,6.63.05,9.91.48,3.79.49,7.87,1.16,11.31,2.82,3.55,1.71,6.86,3.7,9.96,6.15,9.25,7.29,15.37,15.64,17.99,23.82.9,2.78,1.64,5.51,2.25,8.15,2.81,12.18,2.53,22.34-1.06,26.86Z"/>
          <path class="cls-4" d="M188.92,204.18c-.73.92-1.28,1.7-1.71,2.35-.96.84-1.82,1.47-2.64,1.81-.53-.51-1.31-1.51-2.63-3.02-2.15-2.45-6.44-7.05-11.52-11.78,2.29-.74,5.85-2.26,10.34-5.91,5.02-4.11,7.88-8.27,9.23-10.31,2.81,12.18,2.53,22.34-1.06,26.86Z"/>
          <path class="cls-4" d="M169.74,145.35v.04c-.11,1.7-.13,3.42-.44,5.11-.61,3.33-1.27,6.5-2.77,9.61-2.48,5.13-9.65,14.38-15.48,19.38-.16-.07-.34-.13-.51-.2-5.15-1.89-12.57-2.72-19.22-2.46-.12,0-.23.01-.35.02,5.11-10.53,9.64-23.07,8.78-34.65-.12-1.65-.73-4.28-1.19-6.3,3.32-.1,6.63.05,9.91.48,3.79.49,7.87,1.16,11.31,2.82,3.55,1.71,6.86,3.7,9.96,6.15Z"/>
          <path class="cls-2" d="M186.67,202c-.9.24-1.7.61-2.4,1.09-2.53,1.74-3.53,4.46-4.59,6.92-.6,1.38-1.32,4.47-1.52,4.99-1.2,3.16-4.56,17.96,1.11,17.01,5.67-.94,5.85-12.6,7.25-16.69,2.74,3.98,11.21,17.66,17.07,12.62,5.87-5.04-6.57-15.82-10.83-18.79,5.86,1.89,16.62,6.41,21.16.35,2.81-3.75-1.08-6.8-4.67-7.81-4.03-1.14-14.72-1.05-15.83-.87-2.17.35-4.63.6-6.76,1.17Z"/>
          <path class="cls-3" d="M106.36,147.14c2.78,5.65,5.39,11.63,6.05,17.83.66,6.2-1.06,11.15-3,16.78-.39,1.13,1.22,2.07,2.04,1.19,4.74-5.12,4.94-11.62,4.06-18.43-.88-6.81-3.2-13.27-7.71-18.55-.88-1.03-1.93.2-1.44,1.19-.04-.01,0,0,0,0Z"/>
          <path class="cls-3" d="M83.82,166.88c-3.71,1.3-4.86,6.84-1.33,9.17,2.94,1.95,8-.21,8.42-3.73.48-4.01-3.37-6.74-7.08-5.44Z"/>
        </g>
      </g>
      <g>
        <path class="cls-3" d="M120.81,11.64c-1.08.54-.12,1.94.85,1.74,4.89-.97,13.23-.26,9.46,7.02-2.24,4.33-7.13,7.57-11.07,10.22-8.22,5.55-17.36,9.54-25.91,14.52-7.15,4.16-14.8,9.12-18.69,16.7-1.41,2.75-2.13,5.72-.19,8.37,1.52,2.08,3.35,2.58,4.19,3.03.59-.92.9-1.62,1.72-2.33-2.44-.94-3.91-2.38-4.31-3.75-.91-3.12.99-6.32,3.17-8.4,3.72-3.54,8.14-6.54,12.5-9.23,8.8-5.42,18.34-9.53,27.06-15.08,5.69-3.63,16.01-9.76,15.67-17.71-.32-7.6-9.31-7.67-14.45-5.12Z"/>
        <path class="cls-3" d="M89.95,19.32c-1.13-.11-1.93,1.48-.71,2.02,10.07,4.5-11.12,18.35-14.62,20.74-6.26,4.26-13.71,8.38-17.98,14.84-3.33,5.04-3.41,11.34,1.58,15.33,5.12,4.09,13.08,5.26,20.46,4,.03-.3.07-.61.12-.9.11-.57.27-1.16.49-1.72-3.91.4-10.5.07-14.13-1.47-3.86-1.64-9-4.86-8.02-9.78,1.56-7.82,11.45-12.79,17.51-16.71,6.4-4.14,13.88-8.67,18.26-15.1,2.52-3.7,2.88-10.68-2.96-11.25Z"/>
        <path class="cls-3" d="M173.51,73.31c-1.09,2.94-1.96,6.13-3.63,8.81-1.91,3.05-5.08,4.67-7.2,7.45-.83,1.09.11,2.92,1.57,2.37,7.29-2.71,10.75-10.62,11.77-17.75.2-1.41-1.95-2.4-2.51-.88h0Z"/>
        <path class="cls-3" d="M183.17,77.63c-1.07,3.24-2.53,6.4-4.3,9.32-1.67,2.74-4.08,5.07-5.48,7.96-.68,1.4.86,2.43,2.07,1.83,6.21-3.08,9.75-12.05,11.27-18.36.56-2.33-2.85-2.93-3.57-.76h0Z"/>
        <path class="cls-3" d="M191.1,84.14c.11,2.62-1.02,5.26-2.48,7.39-1.45,2.12-3.7,3.85-4.57,6.31-.4,1.13.46,2.52,1.78,2.06,3.15-1.09,5.53-4.34,7.09-7.15,1.64-2.95,2.01-5.93,1.37-9.21-.36-1.85-3.26-1.19-3.18.59h0Z"/>
        <path class="cls-2" d="M159.11,43.02s-70.64,23.46-78.82,27.99c-8.19,4.54,2.15,18.4,15.97,22.99,13.82,4.6,31.35,3.78,45.6-5.37,14.25-9.15,17.23-21.8,18.59-30.48,1.52-9.66-1.33-15.13-1.33-15.13Z"/>
        <path class="cls-2" d="M155.21,44.55s22.43-10.48,44.65,1.28c20.3,10.75,31.37,28.93,26.45,51.29-5.09,23.14-20.51,28.23-23.81,27.75-3.3-.48-6.46-2.14-5.12-3.63,1.34-1.49,7.57-15.84-5.75-31.95-9.67-11.69-22.92-11.54-31.01-10.7-8.1.84-14.74,2.07-14.74,2.07,0,0,6.28-35.1,9.35-36.12Z"/>
        <path class="cls-4" d="M220.78,103.72c-2.87,1.19-5.86,2.18-8.93,2.7-3.22.54-6.66.58-9.85-.13-.82-.18-1.63-.41-2.43-.65,1.48,8.5-1.34,14.65-2.2,15.6-1.34,1.49,1.82,3.15,5.12,3.63,3.07.45,16.67-3.95,22.63-23.27-1.39.81-2.86,1.5-4.34,2.12Z"/>
        <path class="cls-4" d="M195.39,84.5c5.76-2.07,11.19-5.12,15.51-9.51,2.35-2.38,4.36-5.02,5.95-7.96.81-1.48,1.56-3.01,2.14-4.6.07-.19.12-.38.18-.57-4.72-6.37-11.3-11.79-19.32-16.03-2.55-1.35-5.1-2.4-7.62-3.21-.12,2.23-.43,4.45-.85,6.64-2.26,11.8-9.3,21.58-17.96,29.56,5.2.9,10.7,3.06,15.57,7.68,2.15-.6,4.29-1.25,6.39-2Z"/>
        <path class="cls-2" d="M204.61,121.25c-.83-.42-1.69-.76-2.59-.96-3.24-.73-6.59-.14-9.8.45-1.8.33-3.57.81-5.29,1.42-10.31,3.66-14.53,9.51-12.02,11.95s18.17-5.21,18.17-5.21c0,0-6.74,20.41,1.24,21.97,7.97,1.55,8.17-20.82,8.17-20.82,0,0,6.33,18.58,13.77,16.52,4.6-1.27,4.2-5.5,2.68-9.32-1.71-4.31-3.4-6.59-6.53-9.97-.74-.8-1.5-1.61-2.36-2.27-1.68-1.28-3.47-2.75-5.44-3.75Z"/>
        <path class="cls-3" d="M156.07,44.81c1.42,6.35,2.3,12.37,1.21,18.86s-4.1,11.07-7.5,16.46c-.68,1.08.81,2.2,1.77,1.57,5.56-3.65,8.1-11.62,9.05-17.86.99-6.5.72-14.13-2.6-19.97-.65-1.14-2.18-.17-1.93.94h0Z"/>
        <path class="cls-3" d="M127.53,61.24c-3.91.7-6.22,6.38-3.24,9.38,2.49,2.51,8.41.87,9.3-2.56,1.36-3.81-2.09-7.54-6.07-6.82Z"/>
      </g>
    </g>
  </g>
</svg>