<?xml version="1.0" encoding="UTF-8"?>
<svg id="Capa_2" xmlns="http://www.w3.org/2000/svg" viewBox="0 0 243.3 243.3">
  <defs>
    <style>
      .cls-1 {
        fill: #fff;
      }

      .cls-2 {
        fill: none;
      }

      .cls-3 {
        fill: #4f3535;
      }

      .cls-4 {
        fill: #d9472e;
      }
    </style>
  </defs>
  <g id="grocery_icons">
    <g>
      <rect class="cls-2" width="243.3" height="243.3"/>
      <g>
        <path class="cls-3" d="M97.64,83.92c-10.4,1.36-12.75,13.56-3.76,15.92,8.24,2.16,13.36-3.2,14.72-5.92,2.02-4.03-.56-11.36-10.96-10Z"/>
        <polygon class="cls-3" points="102.68 97.68 104.68 112.89 100.6 114.09 98.52 97.68 102.68 97.68"/>
        <path class="cls-3" d="M146.95,83.92c10.4,1.36,12.75,13.56,3.76,15.92-8.24,2.16-13.36-3.2-14.72-5.92-2.02-4.03.56-11.36,10.96-10Z"/>
        <polygon class="cls-3" points="141.91 97.68 139.91 112.89 143.99 114.09 146.07 97.68 141.91 97.68"/>
        <path class="cls-4" d="M44.76,98.32s8.53-8.75,17.07-20.91c8.53-12.16,13.65-30.72,15.57-31.15,1.92-.43,10.41,11.03,1.49,33.92-7.89,20.27-28.37,30.08-35.2,28.59-6.83-1.49,1.07-10.45,1.07-10.45Z"/>
        <path class="cls-4" d="M53.51,68.03c6.4-24.11,15.79-37.97,14.72-40.96-1.07-2.99-38.19-5.12-50.13,25.6-11.75,30.21,14.29,55.04,25.6,56.11,8.01.76,3.41-16.64,9.81-40.75Z"/>
        <path class="cls-4" d="M67,134.65s-10.56-26.24-20-27.36c-9.44-1.12-5.28,11.52,4.32,21.12,9.6,9.6,13.92,9.44,13.92,9.44l1.76-3.2Z"/>
        <path class="cls-3" d="M57.88,154.97s-14.24,5.44-24.8-1.76-9.12-26.72-12.32-28.8c-4.17-2.71-4.96,12.96.8,24.32,5.76,11.36,15.49,15.38,24.64,15.2,8.16-.16,14.4-3.68,14.4-3.68l-2.72-5.28Z"/>
        <path class="cls-3" d="M62.82,168.88s-5.82,13.58-21.66,12.85c-13.75-.63-21.97-15.47-24.45-13.14-2.97,2.8,8.19,21.69,28.48,19.64,19.39-1.96,21.9-18.62,21.9-18.62l-4.27-.73Z"/>
        <path class="cls-3" d="M78.36,188.41s-16.48-.8-28.64,11.52c-12.16,12.32-12.68,27.55-8.96,28.32,4.64.96,4.16-16.96,16.48-27.04,11.37-9.3,29.12-8.32,29.12-8.32l-8-4.48Z"/>
        <path class="cls-3" d="M67.36,27.06c-2.76,2.78-5.73,10.08-7.54,15.18-2.17,6.12-4.77,13.16-6.42,19.45-3.93,14.94-6.4,31.2-7.8,45.39-.21,2.14,3.04,2.85,3.48.69,3.07-14.88,4.98-30.16,8.77-44.93,1.57-6.1,3.28-12.16,5.31-18.12,1.89-5.53,4.16-10.07,6.25-16.46.38-1.17-1.17-2.04-2.04-1.19h0Z"/>
        <path class="cls-4" d="M199.87,98.32s-8.53-8.75-17.07-20.91c-8.53-12.16-13.65-30.72-15.57-31.15-1.92-.43-10.41,11.03-1.49,33.92,7.89,20.27,28.37,30.08,35.2,28.59,6.83-1.49-1.07-10.45-1.07-10.45Z"/>
        <path class="cls-4" d="M191.12,68.03c-6.4-24.11-15.79-37.97-14.72-40.96,1.07-2.99,38.19-5.12,50.13,25.6,11.75,30.21-14.29,55.04-25.6,56.11-8.01.76-3.41-16.64-9.81-40.75Z"/>
        <path class="cls-4" d="M177.63,134.65s10.56-26.24,20-27.36c9.44-1.12,5.28,11.52-4.32,21.12-9.6,9.6-13.92,9.44-13.92,9.44l-1.76-3.2Z"/>
        <path class="cls-3" d="M186.75,154.97s14.24,5.44,24.8-1.76c10.56-7.2,9.12-26.72,12.32-28.8,4.17-2.71,4.96,12.96-.8,24.32-5.76,11.36-15.49,15.38-24.64,15.2-8.16-.16-14.4-3.68-14.4-3.68l2.72-5.28Z"/>
        <path class="cls-3" d="M181.81,168.88s5.82,13.58,21.66,12.85c13.75-.63,21.97-15.47,24.45-13.14,2.97,2.8-8.19,21.69-28.48,19.64-19.39-1.96-21.9-18.62-21.9-18.62l4.27-.73Z"/>
        <path class="cls-3" d="M166.27,188.41s16.48-.8,28.64,11.52c12.16,12.32,12.68,27.55,8.96,28.32-4.64.96-4.16-16.96-16.48-27.04-11.37-9.3-29.12-8.32-29.12-8.32l8-4.48Z"/>
        <path class="cls-3" d="M177.27,27.06c2.76,2.78,5.73,10.08,7.54,15.18,2.17,6.12,4.77,13.16,6.42,19.45,3.93,14.94,6.4,31.2,7.8,45.39.21,2.14-3.04,2.85-3.48.69-3.07-14.88-4.98-30.16-8.77-44.93-1.57-6.1-3.28-12.16-5.31-18.12-1.89-5.53-4.16-10.07-6.25-16.46-.38-1.17,1.17-2.04,2.04-1.19h0Z"/>
        <path class="cls-4" d="M177.9,127.34c-18.69-18.31-49.3-19.06-55.58-19.01-6.28-.05-36.89.7-55.58,19.01-22.24,21.79-7.66,56.33,16.91,68.67,16.38,8.23,35.47,8.41,53.29,6.32,15.96-1.86,31.59-7.62,41.92-20.51,8.83-11.01,12.48-26.08,8.11-39.69-1.79-5.57-4.88-10.69-9.06-14.79Z"/>
        <path class="cls-3" d="M78.86,149.14c-1.56,4.69-2.46,9.85-.89,14.64.54,1.66,2.68,1.2,2.88-.39.57-4.46.78-8.79,2.29-13.07.95-2.69-3.38-3.88-4.27-1.18Z"/>
        <path class="cls-3" d="M99.83,144.15c-1.36,7.29-2.06,15,0,22.23.46,1.6,2.91,1.3,2.92-.39.03-7.02-.5-13.9.49-20.89.31-2.19-2.98-3.21-3.41-.94Z"/>
        <path class="cls-3" d="M148.56,165.06c2.19-6,1.13-12.61-1.05-18.46-.88-2.37-4.71-1.37-3.84,1.06,2.01,5.61,2,11.14,2.04,17.02.01,1.7,2.3,1.88,2.84.38Z"/>
        <path class="cls-3" d="M165.39,149.42c1.48,2.86,1,5.45,1.25,8.51.13,1.62,2.2,2.32,3.12.85,2.1-3.38.84-8.12-.96-11.35-1.24-2.23-4.57-.26-3.4,1.99Z"/>
        <path class="cls-3" d="M89.99,131.08c-3.7,0-3.7,5.75,0,5.75s3.7-5.75,0-5.75Z"/>
        <path class="cls-3" d="M111.24,119.43c-.26-.2-.52-.4-.78-.61-.6-.35-1.26-.53-1.96-.53-.53-.02-1.03.09-1.49.33-.48.16-.9.42-1.25.8-.38.35-.65.77-.8,1.25-.24.46-.35.96-.33,1.49.05.34.09.69.14,1.03.18.66.52,1.23,1,1.71.26.2.52.4.78.61.6.35,1.26.53,1.96.53.53.02,1.03-.09,1.49-.33.48-.16.9-.42,1.25-.8.38-.35.65-.77.8-1.25.24-.46.35-.96.33-1.49l-.14-1.03c-.18-.66-.52-1.23-1-1.71Z"/>
        <path class="cls-3" d="M123.69,135.91c2.51,0,2.52-3.91,0-3.91s-2.52,3.91,0,3.91Z"/>
        <path class="cls-3" d="M128.77,171.36c-.29-.22-.57-.44-.86-.67-.49-.31-1.02-.48-1.58-.51-.57-.13-1.13-.1-1.7.08-1.03.33-2.03.97-2.55,1.96-.14.34-.29.68-.43,1.02-.11.4-.15.79-.15,1.19-.08.74,0,1.52.41,2.17.18.23.36.46.54.69.3.3.66.51,1.04.68.13.07.25.15.38.2.24.13.49.24.76.31,1.02.28,2.38.15,3.28-.43.29-.22.57-.44.86-.67.42-.39.71-.84.88-1.37.27-.51.39-1.05.37-1.64.02-.59-.1-1.13-.37-1.64-.17-.53-.47-.99-.88-1.37Z"/>
        <path class="cls-3" d="M111.55,184.49c-.18-.14-.37-.29-.55-.43-.43-.25-.89-.37-1.38-.37-.38-.01-.73.06-1.06.24-.34.11-.63.3-.88.57-.27.25-.46.54-.57.88-.17.33-.25.68-.24,1.06.03.24.07.49.1.73.13.46.37.87.7,1.21.18.14.37.29.55.43.43.25.89.37,1.38.37.38.01.73-.06,1.06-.24.34-.11.63-.3.88-.57.27-.25.46-.54.57-.88.17-.33.25-.68.24-1.06-.03-.24-.07-.49-.1-.73-.13-.46-.37-.87-.71-1.21Z"/>
        <path class="cls-3" d="M150.15,176.45c-4.06,0-4.07,6.31,0,6.31s4.07-6.31,0-6.31Z"/>
        <path class="cls-1" d="M47.55,33.14c-6.09.86-10.34,3.38-14.17,8.26-3.46,4.42-7.84,11.26-6.25,17.07.44,1.62,2.52,2.6,4,1.63,4.11-2.72,5.04-7.8,7.47-11.85,2.24-3.74,6.22-8.03,10.54-9.32,3.81-1.14,2.13-6.32-1.6-5.79h0Z"/>
        <path class="cls-1" d="M28.76,73.28c3.19,0,3.2-4.96,0-4.96s-3.2,4.96,0,4.96h0Z"/>
        <path class="cls-1" d="M215.97,82.16c3.35-5.93,4.6-11.76,4.06-18.58-.42-5.24-.98-12.35-6.47-14.59-1.01-.41-2.34.46-2.56,1.46-1.05,4.69,2.4,9.24,2.95,13.91.62,5.29-.24,11.14-1.8,16.19-.69,2.26,2.65,3.66,3.81,1.61h0Z"/>
        <path class="cls-1" d="M211.62,41.89c-.91-1.32-2.29-3.21-4.15-2.43-.64.27-1.06.8-1.27,1.45-.18.55-.07,1.09.01,1.64.08.51.2.97.36,1.46.52,1.56,2.14,2.46,3.72,1.79,1.41-.6,2.28-2.53,1.32-3.92h0Z"/>
      </g>
    </g>
  </g>
</svg>