<?xml version="1.0" encoding="UTF-8"?>
<svg id="Capa_2" xmlns="http://www.w3.org/2000/svg" viewBox="0 0 243.3 243.3">
  <defs>
    <style>
      .cls-1 {
        fill: #7b6767;
      }

      .cls-2 {
        fill: #fff;
      }

      .cls-3 {
        fill: none;
      }

      .cls-4 {
        fill: #fe9736;
      }

      .cls-5 {
        fill: #4f3535;
      }
    </style>
  </defs>
  <g id="grocery_icons">
    <g>
      <rect class="cls-3" width="243.3" height="243.3"/>
      <g>
        <g>
          <g>
            <path class="cls-1" d="M144.15,52.49c-11.04-19.65-35.95-28.16-57.26-23.02-21.95,5.3-36.38,22.87-42.66,43.94-7.34,24.59-8.79,51.2-5.53,76.57.91,7.04,2.14,14.03,3.82,20.93,1.2,4.95,2.49,10.83,7.03,13.87,6.16,4.12,14.64,1.64,20.45-1.93,20.29-12.47,36.2-29.56,52-47.11,11.33-12.59,25.72-25.32,28.42-42.8,3.04-19.65.45-28.49-6.27-40.44Z"/>
            <path class="cls-5" d="M55.5,167.34c-.74-1.13-2.44-.67-2.51.68-.04.77.22,1.62.36,2.38.15.81,1.18,1.35,1.94,1.1.76-.25,1.4-1.11,1.1-1.94-.26-.73-.46-1.58-.89-2.23Z"/>
            <path class="cls-5" d="M79.22,158.53c-5.41-3.12-13.45.14-17.99,3.48-1.16.86-.14,2.77,1.16,1.99,2.84-1.71,5.79-2.73,9.09-3.08,2.5-.26,4.97.24,7.44-.11,1.11-.16,1.15-1.79.3-2.28Z"/>
            <path class="cls-5" d="M51.41,146.02c-1.27.88-.09,2.97,1.23,2.1,4.78-3.16,11.7-4.58,17.4-4.25,6.39.37,10.24,4.24,13.89,9.03.9,1.19,3.3.58,2.67-1.13-5.07-13.71-25.22-12.7-35.19-5.75Z"/>
            <path class="cls-5" d="M72.62,124.6c-10.07,2.03-18.41,7.98-23.9,16.58-.63.99.91,1.87,1.56.91,5.22-7.7,13.99-13.05,23.14-14.59,5.04-.85,10.2-.59,15.17.58,4.62,1.08,8.73,3.52,13.27,4.64,1.29.32,2.33-1.31,1.33-2.28-7.23-7.02-21.28-7.72-30.57-5.85Z"/>
            <path class="cls-5" d="M83.42,108.92c-5.53-.27-11.08.41-16.43,1.79-5.26,1.35-11.85,3.12-16.07,6.65-1.04.87.1,2.35,1.23,2.11,4.88-1.03,9.4-3.86,14.24-5.25,5.1-1.46,10.45-2.36,15.77-2.13,9.37.41,18.31,4.01,24.73,10.92,1.42,1.53,3.62-.72,2.27-2.27-6.43-7.42-16.02-11.36-25.74-11.82Z"/>
            <path class="cls-5" d="M112.37,92.4c-7.69-2.48-15.73-2.77-23.69-1.76-13.5,1.72-29.3,6.74-38.26,17.65-1.45,1.76.79,4.09,2.53,2.53,4.95-4.43,9.81-8.36,15.92-11.12,6.36-2.87,13.26-4.61,20.17-5.51,7.38-.96,14.61-.86,21.76,1.38,6.9,2.17,11.98,6.23,18.11,9.78,1.49.86,2.83-1.07,1.77-2.29-4.51-5.2-11.86-8.58-18.3-10.66Z"/>
            <path class="cls-5" d="M63.83,82.17c7.8-4.48,16.35-7.18,25.4-7.15,9.49.03,16.85,3.46,25.18,7.46,1.73.83,3.89-1.43,2.21-2.86-7.05-5.97-17.74-8.1-26.74-8.15-9.71-.06-19.53,2.63-27.35,8.46-1.31.97-.18,3.09,1.31,2.24Z"/>
            <path class="cls-5" d="M132.26,72.03c-3.9-5.81-9.42-10.53-15.77-13.47-14.93-6.9-33-1.04-46.32,6.73-1.23.72-.13,2.58,1.11,1.9,12.11-6.62,30.89-11.4,43.86-4.98,5.57,2.76,10.26,6.99,13.99,11.93,4.08,5.41,4.93,11.27,7.15,17.43.58,1.62,2.83,1.33,2.97-.4.51-6.6-3.43-13.84-6.99-19.14Z"/>
            <path class="cls-5" d="M113.99,46.96c3.33,1.43,6.6,3.14,9.34,5.55,2.62,2.31,4.15,5.56,6.69,7.82,1.05.94,2.42,0,2.22-1.29-.54-3.58-4.18-7.08-6.86-9.28-3.08-2.52-6.47-4.37-10.36-5.26-1.4-.32-2.5,1.83-1.04,2.46Z"/>
            <path class="cls-5" d="M135.38,68.94c.74.37,1.9.11,2.07-.84.24-1.36-.54-2.65-1.06-3.87-.38-.89-1.75-1.15-2.51-.66-.84.54-1.17,1.62-.66,2.51.56.97,1.11,2.34,2.16,2.86Z"/>
          </g>
          <path class="cls-2" d="M103.05,39.97c-10.89-2.73-22.32-.72-31.71,5.57-6.85,4.59-17.42,14.36-15.96,23.56.31,1.94,2.76,2.06,3.97,1.05,3.04-2.52,4.46-6.85,6.81-10,2.55-3.43,5.71-6.5,9.27-8.86,7.91-5.24,17.59-7.19,26.98-6.71,2.65.14,3.18-3.97.62-4.61h0Z"/>
          <path class="cls-2" d="M51.36,79.27c-.46,1.67-1.04,3.46-.21,5.1.39.77,1.49,1.01,2.2.58,1.55-.94,1.99-2.83,2.47-4.45.34-1.16-.41-2.57-1.62-2.84-1.22-.28-2.5.37-2.84,1.62h0Z"/>
        </g>
        <g>
          <path class="cls-1" d="M220.12,137.1c-2.39-15.42-13.79-37.64-48.64-37.64-44.8,0-111.17,85.21-108.13,102.33,3.05,17.12,39.16,19.23,67.54,19,28.38-.23,58.88-8.62,75.04-28.61,13.84-17.12,16.61-39.37,14.18-55.07Z"/>
          <path class="cls-5" d="M214.61,137.79c-.95-11.32-4.73-22.71-13.67-30.23-11.74-9.89-28.82-10.94-43.25-6.8-6.64,1.9-12.36,4.46-18.24,7.99-5.13,3.07-10.3,6-15.22,9.42-9.95,6.91-19.13,14.93-27.34,23.83-7.21,7.81-13.69,16.31-19.3,25.34-2.84,4.57-5.46,9.29-7.83,14.12-2.24,4.56-5.45,9.73-5.13,14.97.44,7.03,7.27,10.42,13.38,11.49,8.83,1.55,17.97,2.66,26.9,3.42,34.24,2.91,77.21-.91,98.91-31.5,8.57-12.08,12.03-27.4,10.79-42.04ZM204.43,168.06c-6.11,13.68-18.99,23.6-32.4,29.64-15.57,7.01-33.71,8.8-50.6,8.81-8.41,0-16.82-.43-25.21-.88-3.96-.21-7.92-.57-11.87-.99-4.25-.45-9.05-.6-12.7-3.07-7.52-5.08.74-17.11,3.96-23.08,3.23-6,6.86-11.76,10.75-17.35,8.9-12.79,19.69-24.25,31.79-34.06,19.53-15.82,46.24-30.84,71.76-19.85.13.06.27.12.4.17,9.03,3.99,15.11,11.07,17.53,20.68,3.25,12.89,2,27.84-3.41,39.97Z"/>
          <path class="cls-4" d="M198.5,129.83c-.75,0-8.76-19.19-30.56-14.72-21.8,4.47-44.16,33.36-53.48,44.35-9.32,10.99-12.86,21.43-1.49,29.63,11.37,8.2,27.02,13.42,53.67,1.3,26.65-12.11,34.85-29.07,37.46-41.37,2.61-12.3.37-19.19-5.59-19.19Z"/>
          <path class="cls-5" d="M80.43,199.81c1.66-3.3,3.6-6.45,5.96-9.3,2.22-2.68,4.92-4.84,7.23-7.41,1.03-1.14-.28-3.03-1.69-2.19-6.23,3.71-10.94,11.04-14.06,17.41-.83,1.7,1.69,3.2,2.55,1.49Z"/>
          <path class="cls-5" d="M100.11,175.87c2.18,0,2.18-3.38,0-3.38s-2.18,3.38,0,3.38Z"/>
          <path class="cls-2" d="M182.09,126.43c-8-4.19-16.28-2.3-24.1,1.5-6.29,3.05-17.01,8.41-18.63,15.93-.4,1.85,1.38,3.06,3.01,2.32,2.71-1.24,4.77-3.43,7.08-5.27,2.87-2.3,6.04-4.25,9.22-6.09,6.67-3.86,14.14-6.41,21.94-4.88,2.02.39,3.52-2.44,1.48-3.51h0Z"/>
          <path class="cls-2" d="M132.93,150.91c-.61.69-1.24,1.37-1.81,2.1-.8,1.02-1.67,2.09-1.31,3.47.23.9,1.01,1.31,1.85,1.41,1.15.14,2.16-.87,2.91-1.62.62-.62,1.19-1.3,1.77-1.95.84-.94,1-2.49,0-3.41-.91-.84-2.52-1.01-3.41,0h0Z"/>
          <path class="cls-5" d="M187.47,140c-1.94,3.26-4.52,6.17-7.42,8.62-6.35,5.37-14.11,8.57-21.99,10.98-13.63,4.18-26.38,9.48-30.59,24.43-.94,3.35,3.44,5.06,5.35,3.01,2.4-1.04,4.04-2.98,5.73-5.06,2.8-3.46,5.75-6.63,9.8-8.64,7.49-3.72,16.13-4.25,23.71-7.8,6.33-2.97,11.83-7.58,16.06-13.13,2.41-3.17,4.2-6.75,5.81-10.38.8-1.79,1.55-3.6,2.33-5.4.93-2.14,3.07-4.77,2.22-7.23-1.33-3.85-6.63,1.1-7.61,2.79-1.43,2.47-1.94,5.35-3.41,7.83ZM171.33,161.78c-7.18,3.73-15.46,4.39-22.7,8.01-3.33,1.67-6.21,4.09-8.74,6.81-1.75,1.88-3.41,4.1-5.33,5.96,1.35-3.51,3.37-6.71,6.08-9.39,4.23-4.18,10.01-5.68,15.59-7.18,6.98-1.88,14.04-4,20.35-7.5-1.66,1.23-3.43,2.33-5.27,3.29Z"/>
        </g>
      </g>
    </g>
  </g>
</svg>