<?xml version="1.0" encoding="UTF-8"?>
<svg id="Capa_2" xmlns="http://www.w3.org/2000/svg" viewBox="0 0 243.3 243.3">
  <defs>
    <style>
      .cls-1 {
        fill: #fff;
      }

      .cls-2 {
        fill: none;
      }

      .cls-3 {
        fill: #e58473;
      }

      .cls-4 {
        fill: #4f3535;
      }

      .cls-5 {
        fill: #f0b5ab;
      }
    </style>
  </defs>
  <g id="grocery_icons">
    <g>
      <rect class="cls-2" width="243.3" height="243.3"/>
      <g>
        <g>
          <path class="cls-5" d="M113.75,18.5s-18.38,5.09-21.9,15.45c-3.52,10.37,4.3,15.06,1.17,23.08-3.13,8.02-11.54,14.08-6.45,24.64,5.09,10.56,10.76,15.06,13.49,19.75,2.74,4.69,16.23-73.15,17.41-77.06,1.17-3.91-3.72-5.87-3.72-5.87Z"/>
          <path class="cls-5" d="M150.32,16.74c.78-.2,13.69,8.8,16.23,17.41,2.54,8.61-9,23.08-6.65,28.75,2.35,5.67,6.85,13.89,4.3,19.95-2.54,6.06-19.56,19.95-20.73,18.58-1.17-1.37,6.85-84.69,6.85-84.69Z"/>
          <path class="cls-3" d="M118.44,124.11s-8.61,8.41-8.41,17.8c.2,9.39,2.54,20.14.98,26.21-1.56,6.06-16.04,11.73-19.95,25.03-3.91,13.3,2.74,26.4,4.5,26.79s-.68-14.67,4.4-25.62c5.09-10.95,13.4-17.6,14.18-15.45.78,2.15-6.55,7.43-4.6,21.32,1.96,13.89,9,17.5,6.75,33.64-.87,6.27-1.56,6.45.2,6.26,1.76-.2,7.63-9.19,7.24-20.34-.39-11.15-3.72-22.49-4.11-28.36-.39-5.87,4.3-12.71,5.28-12.71s10.37,4.3,11.54,17.6c1.17,13.3-2.15,22.3-.39,31.1,1.76,8.8,8.8,12.71,10.37,12.71s-5.28-5.87-3.32-15.65c1.96-9.78,6.45-16.82,5.28-28.16-1.17-11.34-10.17-17.41-9.58-19.56.59-2.15,6.85-.59,13.49,6.65,6.65,7.24,8.61,13.89,8.41,21.9s-4.11,13.69-2.15,14.08c1.96.39,10.76-13.49,5.48-31.88-5.5-19.13-21.87-20.8-24.62-28.59-2.76-7.79,1.94-13.07.57-20.11-1.37-7.04-4.89-12.32-9.19-14.28-4.3-1.96-12.32-.39-12.32-.39Z"/>
          <path class="cls-3" d="M155.02,66.8c1.96-25.23,2.54-52.02-8.21-61.41-10.76-9.39-33.84,2.35-41.85,24.25-8.02,21.9-11.15,47.53-7.82,69.63,3.32,22.1,4.11,28.55,9.39,31.49,5.28,2.93,19.36,4.3,28.75,2.74,9.39-1.56,13.3-11.15,14.47-16.23,1.17-5.09,3.32-25.23,5.28-50.46Z"/>
          <g>
            <path class="cls-4" d="M139.68,91.91c-.57.02-1.1-.1-1.59-.36-.51-.17-.95-.45-1.33-.85-.4-.37-.69-.82-.85-1.33-.26-.49-.38-1.02-.36-1.59l.15-1.1c.2-.7.55-1.31,1.06-1.82.28-.21.56-.43.83-.64.64-.37,1.34-.56,2.08-.56.57-.02,1.1.1,1.59.36.51.17.95.45,1.33.85.4.37.69.82.85,1.33.26.49.38,1.02.36,1.59l-.15,1.1c-.2.7-.55,1.31-1.06,1.82-.28.21-.56.43-.83.64-.64.37-1.34.56-2.08.56h0Z"/>
            <path class="cls-4" d="M139.73,115.26c-3.17,0-3.17-4.92,0-4.92,3.17,0,3.17,4.92,0,4.92h0Z"/>
            <path class="cls-4" d="M127.41,106.11c-.52.02-1.01-.09-1.46-.33-.47-.15-.88-.41-1.22-.78-.37-.34-.63-.75-.78-1.22-.24-.45-.35-.94-.33-1.46l.14-1.01c.18-.64.51-1.2.98-1.67l.77-.59c.59-.34,1.23-.52,1.92-.52.52-.02,1.01.09,1.46.33.47.15.88.41,1.22.78.37.34.63.75.78,1.22.24.45.35.94.33,1.46l-.14,1.01c-.18.64-.51,1.2-.98,1.67l-.77.59c-.59.34-1.23.52-1.92.52h0Z"/>
            <path class="cls-4" d="M118.25,149.49c-.34-.65-.77-1.27-1.28-1.81-2.16-2.29-5.55-3.05-8.58-2.58-2.75.43-4.23,2.44-4.88,5.03-1.43,5.68,2.22,10.38,8.11,10.35,2.4-.01,5.01-.85,6.37-2.97,1.55-2.42,1.55-5.54.26-8.03Z"/>
            <path class="cls-4" d="M146.02,147.89c-.34-.65-.77-1.27-1.28-1.81-2.16-2.29-5.55-3.05-8.58-2.58-2.75.43-4.23,2.44-4.88,5.03-1.43,5.68,2.22,10.38,8.11,10.35,2.4-.01,5.01-.85,6.37-2.97,1.55-2.42,1.55-5.54.26-8.03Z"/>
          </g>
          <path class="cls-1" d="M109.25,153.19c.3.01.58-.05.84-.19.27-.09.51-.24.7-.45.21-.2.36-.43.45-.7.14-.26.2-.54.19-.84l-.08-.58c-.1-.37-.29-.69-.56-.96l-.44-.34c-.34-.2-.71-.3-1.1-.3-.3-.01-.58.05-.84.19-.27.09-.51.24-.7.45-.21.2-.36.43-.45.7-.14.26-.2.54-.19.84l.08.58c.1.37.29.69.56.96.15.11.3.23.44.34.34.2.71.3,1.1.3h0Z"/>
          <path class="cls-1" d="M135.38,151.52c.11.24.26.45.45.64.56.54,1.36.77,2.12.56.37-.1.69-.29.96-.56.27-.27.46-.59.56-.96.03-.19.07-.42.08-.61.01-.21-.03-.43-.08-.63-.01-.05-.02-.1-.03-.15-.11-.38-.3-.7-.57-.98l-.45-.35c-.35-.2-.72-.3-1.12-.3-.31-.01-.59.05-.86.19-.28.09-.51.24-.71.46-.22.2-.37.44-.46.71-.14.26-.2.55-.19.86,0,.4.1.77.3,1.12h0Z"/>
          <path class="cls-4" d="M111.6,134.76c8.96,2.33,19.41,2.73,28.03-.99,1.53-.66.43-3.06-1.12-2.65-9.06,2.45-17.35,1.35-26.53.76-1.66-.11-1.97,2.47-.39,2.88h0Z"/>
          <path class="cls-4" d="M103.97,186.43c2.68,0,2.69-4.17,0-4.17s-2.69,4.17,0,4.17h0Z"/>
          <path class="cls-4" d="M98.3,192.89c2.44,0,2.44-3.79,0-3.79s-2.44,3.79,0,3.79h0Z"/>
          <path class="cls-4" d="M95.76,202.95c2.55,0,2.55-3.96,0-3.96s-2.55,3.96,0,3.96h0Z"/>
          <path class="cls-4" d="M117.66,199.64c.3.01.58-.05.84-.19.27-.09.51-.24.7-.45.21-.2.36-.43.45-.7.14-.26.2-.54.19-.84l-.08-.58c-.1-.37-.29-.69-.56-.96l-.44-.34c-.34-.2-.71-.3-1.1-.3-.3-.01-.58.05-.84.19-.27.09-.51.24-.7.45-.21.2-.36.43-.45.7-.14.26-.2.54-.19.84l.08.58c.1.37.29.69.56.96.15.11.3.23.44.34.34.2.71.3,1.1.3h0Z"/>
          <path class="cls-4" d="M120.69,208.48s.05-.02.08-.02c.31-.09.43-.2.67-.4.02-.01.03-.03.05-.04,0,0,.01-.01.02-.02.23-.19.3-.37.41-.62.12-.23.17-.47.16-.73,0-.34-.09-.66-.26-.96-.12-.22-.28-.4-.49-.53-.18-.17-.4-.28-.64-.34-.34-.09-.67-.09-1.01,0-.25.06-.46.17-.64.34-.21.13-.37.31-.49.53-.17.3-.26.61-.26.96,0,.26.04.5.16.73.08.23.21.44.39.61.47.47,1.2.68,1.84.49h0Z"/>
          <path class="cls-4" d="M121.38,218.21c2.31,0,2.31-3.58,0-3.58s-2.31,3.58,0,3.58h0Z"/>
          <path class="cls-4" d="M140.54,208.86c2.35,0,2.35-3.65,0-3.65s-2.35,3.65,0,3.65h0Z"/>
          <path class="cls-4" d="M139.17,216.94c2.17,0,2.18-3.38,0-3.38s-2.18,3.38,0,3.38h0Z"/>
          <path class="cls-4" d="M138.39,225.57c2.46,0,2.46-3.82,0-3.82s-2.46,3.82,0,3.82h0Z"/>
          <path class="cls-4" d="M151.32,178.82l.1-.06c.29-.17.52-.4.69-.69.17-.3.26-.62.26-.97,0-.35-.09-.67-.26-.97-.17-.29-.4-.52-.69-.69l-.1-.06c-.31-.18-.64-.27-1-.27-.36,0-.69.09-1,.27-.6.35-.98,1.01-.98,1.71s.38,1.36.98,1.71c.31.18.64.27,1,.27.36,0,.69-.09,1-.27h0Z"/>
          <path class="cls-4" d="M155.41,184.41c2.35,0,2.35-3.65,0-3.65s-2.35,3.65,0,3.65h0Z"/>
          <path class="cls-4" d="M159.71,192.29c2.42,0,2.42-3.75,0-3.75s-2.42,3.75,0,3.75h0Z"/>
        </g>
        <path class="cls-1" d="M124.75,15.34c-15.22,12.44-18.28,30.67-17.28,49.42.1,1.92,2.79,3.56,4.23,1.75,5.69-7.11,3.31-16.46,5.06-24.86,1.74-8.31,5.87-16.47,11.4-22.9,2.04-2.38-1.02-5.36-3.41-3.41h0Z"/>
        <path class="cls-1" d="M107.64,74c-.05.3-.11.6-.16.9-.09.55-.18,1.02-.01,1.57.04.15.11.29.16.44.3.82.83,1.46,1.7,1.7.81.22,1.79,0,2.37-.63.45-.49.85-.97,1.03-1.64.08-.29.13-.6.19-.89.16-.72.1-1.46-.28-2.11-.33-.57-.98-1.11-1.64-1.26-.7-.16-1.49-.13-2.11.28-.57.37-1.13.94-1.26,1.64h0Z"/>
      </g>
    </g>
  </g>
</svg>