<?xml version="1.0" encoding="UTF-8"?>
<svg id="Capa_2" xmlns="http://www.w3.org/2000/svg" viewBox="0 0 243.3 243.3">
  <defs>
    <style>
      .cls-1 {
        fill: #5a992f;
      }

      .cls-2 {
        fill: #fff;
      }

      .cls-3 {
        fill: none;
      }

      .cls-4 {
        fill: #4f3535;
      }

      .cls-5 {
        fill: #d9472e;
      }
    </style>
  </defs>
  <g id="grocery_icons">
    <g>
      <rect class="cls-3" width="243.3" height="243.3"/>
      <g>
        <g>
          <path class="cls-5" d="M176.39,68.56c-15.92-6.81-32.57-1.08-46.71,7.32.17-.1-2.57,1.73-2.67,2.21-.06-.02-.13-.04-.18-.04-.66.07-1.62-.3-2.39-.56-2.75.25-6.05.62-5.68-1.43-1.94-.48-3.88-.96-5.82-1.44-9.51-2.35-19-4.82-28.52-7.12-5.19-1.25-12.08-4.43-17.29-2.41-14,5.42-25.54,17.31-32.78,30.23-8.39,14.96-9.37,32.2-5.08,48.64,4.93,18.9,16.43,36.25,29.37,50.66,6.1,6.79,13.28,13.45,21.5,17.59,8.62,4.35,21.71,8.99,41.8-7.21.79-.64,2.84-2.97,3.76-3.09,1.81-.24,4.46,3.82,12.07,7.99,11.38,6.23,25.45,3.96,36.26-3.08,11.93-7.77,19.8-21.14,25.22-33.98,5.13-12.14,11.22-28.36,9.7-52.5-1.55-24.71-12.11-43.01-32.56-51.76Z"/>
          <path class="cls-1" d="M119.34,78.1c-.02-.15-.05-.3-.11-.46-.04-.18-.11-.34-.19-.48-9.62-25.06-32.31-43.45-58.93-47.46-1.35-.2-2.65.54-2.67,2.04-.21,16.84.19,33.98,14.24,45.43,12.86,10.48,30.94,12.41,46.44,7.43,1.07-.34,1.97-1.35,1.93-2.53-.04-1.34-.41-2.67-.71-3.98Z"/>
          <path class="cls-2" d="M47.3,101.84c-1.9,4.73-5.42,16.67-1.84,21.38,9.14,12.03,27.97-22.04,21.92-32.03-4.51-7.45-11.79-1.64-15.69,3.13-1.88,2.3-3.32,4.84-4.39,7.53Z"/>
        </g>
        <path class="cls-2" d="M124.94,99.57s-1.44-16.06,1.08-25.44,6.68-16.42,10.29-19.85c3.61-3.43,7.58-7.76,5.23-10.47s-5.77-3.07-10.47-.18-9.38,11.37-10.47,19.49-2.35,19.13-2.17,27.07.9,10.47.9,10.47l5.59-1.08Z"/>
        <path class="cls-4" d="M140.19,40.69c-4.17-2-9.03-.41-12.3,2.54-6.82,6.15-8.33,17.81-9.94,26.33-.68,3.58-1.05,7.18-1.24,10.78-5.23-5.72-10.75-11.3-16.52-16.67-.79-5.97-2.07-12.27-4.22-17.83-.4-1.05-2.32-1.04-2.15.29.62,5.09,2.32,10.1,3.7,15.11-10.21-9.27-21.08-17.91-32.26-25.51-.86-.59-1.93.78-1.12,1.46,8.1,6.79,16.32,13.43,24.38,20.23-6.44,1.14-13,3.63-19.25,5.09-1.52.36-.87,2.66.64,2.33,6.72-1.47,14.64-2.52,21.06-5.36,4.41,3.76,8.76,7.59,13.01,11.53-7.43,1.64-14.73,4.32-21.77,7.12-1.25.5-.73,2.54.56,2.05,7.55-2.85,15.38-4.81,22.97-7.49,3.71,3.5,7.35,7.09,10.86,10.82-.09,4.92.15,9.85.55,14.78-1.21-.48-2.34-1.22-3.33-2.18-2.02-1.98-4.95,1.01-3.08,3.08,6.05,6.71,20.48,6.15,21.97-4.52.32-2.3-2.3-3.5-3.73-1.57-.66.89-1.33,1.74-2.04,2.53-.98-7.84.73-16.36,2.55-23.64,1.21-4.83,2.78-9.15,5.55-13.35,2.25-3.41,5.84-5.37,8.14-8.69,2.46-3.56.63-7.53-2.99-9.27ZM136.9,50.71c-6.33,5.73-9.99,13.15-11.92,21.39-1.11,4.74-1.69,9.59-2.26,14.41-.49,4.16-.87,8.01.3,11.87-.23.08-.42.21-.66.27-.53.13-1.05.2-1.57.23-.36-8.48-.38-16.73.42-25.21.64-6.71,2.77-17.04,6.61-23.84,1.93-3.42,5.55-7.02,9.87-5.87,5.17,1.38,1.44,4.73-.79,6.75Z"/>
      </g>
    </g>
  </g>
</svg>