<?xml version="1.0" encoding="UTF-8"?>
<svg id="Capa_2" xmlns="http://www.w3.org/2000/svg" viewBox="0 0 243.3 243.3">
  <defs>
    <style>
      .cls-1 {
        fill: #fff;
      }

      .cls-2 {
        fill: none;
      }

      .cls-3 {
        fill: #4f3535;
      }

      .cls-4 {
        fill: #f7bc3b;
      }
    </style>
  </defs>
  <g id="grocery_icons">
    <g>
      <rect class="cls-2" width="243.3" height="243.3"/>
      <g>
        <path class="cls-1" d="M69.86,36.06c-.09-2.54-2-4.19-8.99-4.79-6.99-.6-14.98,2.8-13.18,5.79s9.59,5.99,14.98,4.79c5.39-1.2,7.27-3.48,7.19-5.79Z"/>
        <g>
          <path class="cls-4" d="M70.06,37.63s-3.57,4.36-11.5,3.37c-7.93-.99-11.9-3.37-11.9-3.37l1.98,30.53s-29.14,12.89-26.37,48.97c2.78,36.08,22.8,65.03,60.67,83.47,37.87,18.44,85.05,10.51,112.21-9.32,27.16-19.83,39.06-59.67,33.11-77.12-5.95-17.45-23.2,3.37-29.34,8.33-6.15,4.96-27.95,22.01-58.88,21.61-30.93-.4-49.76-11.5-60.47-32.51-10.31-20.23-10.31-42.62-10.31-53.33s.79-20.62.79-20.62Z"/>
          <g>
            <path class="cls-3" d="M210.47,134.21c-8.41,10.21-18.01,18.55-30.15,24.04-12.05,5.44-25.05,8.15-38.27,7.96-27.02-.39-52.99-15.56-67.92-37.87-9.69-14.47-15.34-32.65-15.79-50.02-.03-1.14-1.68-1.12-1.76,0-1.12,15.72,4.76,33.34,12.64,46.78,7.02,11.97,16.94,22.22,28.44,29.94,23.31,15.65,53.34,19.5,79.53,9.13,13.99-5.54,27.32-15.51,35.63-28.14.92-1.4-1.26-3.14-2.35-1.81Z"/>
            <path class="cls-3" d="M195.05,171.87c-13.53,9.63-27.73,17-44.2,20.13-17.05,3.24-34.78,1.89-51.21-3.66-17.44-5.89-32.93-18.27-44.03-32.8-9.05-11.85-14.88-25.65-17.08-40.4-.19-1.28-2.45-.99-2.28.31,3.21,25.07,17.95,46.65,37.76,61.82,20.39,15.61,46.64,22.04,72.1,18.74,18.17-2.35,36.86-9.65,50.84-21.69,1.33-1.14-.44-3.48-1.89-2.45Z"/>
          </g>
          <path class="cls-3" d="M60.28,29.68c-3,.12-6.03.89-8.69,1.99-1.86.77-4.48,1.81-5.56,3.64-1.41,2.4,1.17,4.18,3.07,5.28,3.85,2.22,8.44,3.06,12.85,2.51,3-.38,6.87-1.27,8.58-4.05.93-1.51,1.02-3.51.24-5.1-.94-1.9-2.95-3.06-4.98-3.65-1.75-.51-3.62-.69-5.49-.62ZM58.49,39.57c-2.31-.16-4.62-.66-6.55-1.3-.41-.13-.83-.29-1.13-.59-1.39-1.37,1.38-2.45,2.29-2.86,1.61-.73,3.34-1.21,5.09-1.44,2.62-.34,6.12-.17,8.25,1.63.25.21.49.46.63.76.28.62.08,1.38-.35,1.91s-1.06.86-1.7,1.11c-1.93.74-4.23.93-6.53.77Z"/>
          <path class="cls-3" d="M217.45,112.3c.4,1.73,1.53,3.14,3.07,3.99,1.42.79,3.84,1.64,5.33.64.95-.64,1.32-2.08.38-2.93-1.3-1.19-4.19-.84-4.95-2.76-.92-2.34-4.42-1.49-3.84,1.06h0Z"/>
        </g>
      </g>
    </g>
  </g>
</svg>