<?xml version="1.0" encoding="UTF-8"?>
<svg id="Capa_2" xmlns="http://www.w3.org/2000/svg" viewBox="0 0 243.3 243.3">
  <defs>
    <style>
      .cls-1 {
        fill: #fff;
      }

      .cls-2 {
        fill: none;
      }

      .cls-3 {
        fill: #814f8f;
      }

      .cls-4 {
        fill: #4f3535;
      }
    </style>
  </defs>
  <g id="grocery_icons">
    <g>
      <rect class="cls-2" width="243.3" height="243.3"/>
      <g>
        <g>
          <path class="cls-3" d="M175.29,144.6c-30.95,1.27-41.45,28.78-41.99,40.36-.54,11.58,6.52,36.74,41.99,37.46,35.47.72,42.72-26.8,42.17-36.92-1.27-23.35-11.22-42.17-42.17-40.9Z"/>
          <path class="cls-1" d="M196.03,208.05c3.22-1.16,5.99-2.85,8.31-5.41,2.14-2.37,4.61-5.9,3.69-9.25-.55-1.98-2.77-2.25-4.21-1.11-1.92,1.52-2.71,4.38-4.09,6.37-1.42,2.05-3.37,3.89-5.45,5.26s-.8,5.05,1.74,4.13h0Z"/>
          <path class="cls-1" d="M208.95,186.32l-.18-.49-.15-.36c-.09-.17-.22-.31-.39-.42-.09-.09-.2-.16-.33-.19-.18-.09-.37-.14-.58-.13-.27.01-.52.08-.76.2-.17.09-.31.22-.42.39-.13.14-.22.31-.27.51l-.18.49c-.08.3-.08.6,0,.9.08.29.23.53.43.75.33.3.74.49,1.19.49.43,0,.89-.19,1.19-.49.21-.21.35-.46.43-.75.08-.3.08-.6,0-.9h0Z"/>
          <path class="cls-4" d="M188.05,178.47c-1.94-.88-4.24-1.47-6.37-1.08-3.7.68-5.95,6.46-2.7,9.04.15.12.32.23.49.33,2.62,1.44,6.41.58,8.6-1.26,1.23-1.03,2.06-2.66,1.98-4.28-.07-1.42-.91-2.24-2-2.73ZM187.08,182.49c-1.15,1.67-3.83,2.28-5.73,2.1-.28-.03-.57-.07-.81-.22-.4-.25-.61-.74-.62-1.21-.02-1.15.8-2.66,1.89-3.12.7-.29,1.48-.34,2.23-.32,1.35.04,4.37.83,3.03,2.78Z"/>
          <path class="cls-4" d="M191.17,172.59c-1.48-.88-3.16-1.39-4.87-1.53-1.32-.1-2.66-.03-3.99.2-6.45,1.13-12.47,6.02-12.92,12.84-.52,7.83,7.81,11.07,14.45,10.35,6.58-.72,12.77-6.21,12.46-13.18-.16-3.57-2.03-6.85-5.12-8.68ZM183.65,191.63c-5.22.65-12.68-1.58-11.7-8.21,1.06-7.16,9.7-11.48,16.29-9.12,2.97,1.06,5.12,3.56,5.28,6.78.28,5.68-4.58,9.89-9.86,10.55Z"/>
        </g>
        <g>
          <path class="cls-3" d="M47.15,108.22s-1.09-21.36.72-21.9c1.81-.54,4.16,3.26,6.7,11.4s4.71,15.2,4.71,15.2c0,0,18.1-12.49,40.9,5.97,22.8,18.46,12.85,44.34,3.8,57.55-9.05,13.21-34.03,15.57-51.76,6.52-17.74-9.05-18.64-28.05-16.65-38.01,1.99-9.95,9.59-19.73,9.59-19.73,0,0-22.44-3.08-21.54-6.15.9-3.08,17.56-3.62,17.56-3.62,0,0-14.12-14.12-11.58-16.29s17.56,9.05,17.56,9.05Z"/>
          <path class="cls-4" d="M22.69,121.72c3.89,1.53,8.1,2.34,12.18,3.26,3.7.84,7.49,1.98,11.28,2.12,1.92.07,2.04-2.56.43-3.16-3.88-1.46-8.23-1.95-12.27-2.87-3.72-.84-7.43-1.87-11.22-2.33-1.83-.22-1.85,2.4-.4,2.97h0Z"/>
          <path class="cls-4" d="M26.83,101.49c1.38,2.48,3.64,4.34,5.65,6.3,2.42,2.35,4.8,4.77,7.34,6.99,1.69,1.47,4.05-.82,2.48-2.48-4.16-4.4-9.01-8.14-12.95-12.76-1.22-1.43-3.39.4-2.53,1.95h0Z"/>
          <path class="cls-4" d="M46.19,86.78c-1.95,5.81-1.83,14.74.15,20.52.48,1.4,2.6,1.2,2.63-.36.06-3.3-.55-6.58-.53-9.89.02-3.31.59-6.6.47-9.9-.05-1.59-2.23-1.85-2.72-.37h0Z"/>
          <path class="cls-1" d="M67.94,122.95c6.78-1.73,14.23,0,19.66,4.39,2.41,1.94,4.44,4.25,6.04,6.9,1.53,2.54,2.67,5.31,4.99,7.25,1.38,1.15,3.57.82,4.1-1.08,2.09-7.55-5.61-15.92-11.34-19.8-7.38-4.99-16.59-5.96-24.79-2.51-2.89,1.22-1.91,5.68,1.34,4.85h0Z"/>
          <path class="cls-1" d="M98.23,152.6c.11.66.06,1.31.26,2.12.19.75.48,1.47,1.07,2.13.63.7,1.75.59,2.39,0,1.55-1.42,1.21-3.68.92-5.53-.19-1.25-1.82-2.05-2.96-1.68-1.34.43-1.91,1.63-1.68,2.96h0Z"/>
          <path class="cls-1" d="M43.86,159.92c1.23,2.81,3.43,5.79,6.67,6.17,1.42.16,2.05-1.58,1.51-2.64-.58-1.14-1.49-2.04-2.33-3-.75-.86-1.3-1.89-1.76-2.93-.51-1.17-2.23-1.44-3.25-.85-1.21.71-1.37,2.07-.85,3.25h0Z"/>
        </g>
        <g>
          <path class="cls-3" d="M147.78,55.73s-15.93-19.91-13.57-20.63c2.35-.72,18.46,13.94,18.46,14.66s4.52-23.89,6.52-23.89,2.9,21.36,2.9,21.36c0,0,14.84-15.57,17.01-14.84,2.17.72-12.67,25.7-12.67,25.7,0,0,25.34,6.52,27.33,26.97s-9.59,37.65-23.71,44.16c-10.8,4.99-35.11,4.52-50.5-12.49s-10.32-39.27,2.35-50.68c12.67-11.4,25.88-10.32,25.88-10.32Z"/>
          <path class="cls-1" d="M143.01,61.83c-6.69-.08-12.37,2.43-16.64,7.69-3.45,4.25-8.06,12.77-4.52,18.05.86,1.28,2.78,1.76,3.93.51,3.17-3.45,3.08-8.95,5.78-12.89,2.75-4.01,7.4-7.33,12.1-8.63,2.62-.72,2.08-4.69-.64-4.72h0Z"/>
          <path class="cls-1" d="M125.1,99.68l.52.36c.31.21.87.27,1.22.16.38-.12.76-.36.94-.73l.29-.57c.18-.35.28-.7.3-1.09.02-.47-.18-.95-.47-1.31-.1-.16-.23-.29-.39-.39-.14-.13-.29-.23-.48-.28-.17-.1-.35-.15-.55-.15-.29-.06-.58-.05-.86.04-.35.11-.7.3-.96.56s-.46.61-.56.96l-.08.58c-.01.3.05.58.19.83.05.18.14.34.28.48.15.24.36.42.61.56h0Z"/>
          <path class="cls-1" d="M166.9,121.73c4.32-.92,8.92-4.21,9.22-8.95.12-1.95-2.34-2.64-3.62-1.5-2.29,2.06-3.91,4.58-6.9,5.75-2.88,1.13-1.83,5.37,1.3,4.7h0Z"/>
          <path class="cls-4" d="M168.45,59.33c2.51-4.28,4.5-8.87,6.92-13.2,2.18-3.89,5.18-7.95,6.29-12.3.37-1.44-1.53-2.73-2.61-1.52-3.16,3.53-5.04,8.47-7.21,12.64-2.24,4.3-4.78,8.53-6.45,13.09-.66,1.81,2.12,2.89,3.06,1.29h0Z"/>
          <path class="cls-4" d="M163.28,46.91c.62-6.88-1.04-14.3-2.19-21.07-.25-1.48-2.65-1.12-2.6.35.25,6.89,1.19,13.84,1.73,20.72.15,1.97,2.88,1.96,3.06,0h0Z"/>
          <path class="cls-4" d="M153.48,48.85c-2.24-3.07-5.76-5.18-8.61-7.65-2.91-2.53-5.74-5.36-9-7.44-1.9-1.21-3.59,1.4-2.28,2.95,2.37,2.79,5.66,4.84,8.63,6.93,3.15,2.23,5.99,5.27,9.39,7.09,1.11.6,2.74-.7,1.88-1.88h0Z"/>
        </g>
      </g>
    </g>
  </g>
</svg>