<?xml version="1.0" encoding="UTF-8"?>
<svg id="Capa_2" xmlns="http://www.w3.org/2000/svg" viewBox="0 0 243.3 243.3">
  <defs>
    <style>
      .cls-1 {
        fill: #5a992f;
      }

      .fill-white {
        fill: #fff;
      }

      .cls-3 {
        fill: none;
      }

      .cls-4 {
        fill: #4f3535;
      }

      .cls-5 {
        fill: #c0c728;
      }
    </style>
  </defs>
  <g id="grocery_icons">
    <g>
      <rect class="cls-3" width="243.3" height="243.3"/>
      <g>
        <path class="cls-1" d="M209.41,72.8c-.99-7-10.22-9.6-16.94-10.76,5.81-3.17,13.4-8.65,13.13-14.95-.34-7.99-11.55-6.46-16.61-5.28-9.92,2.32-18.8,7.84-27.94,12.14-10.72,5.05-21.86,9.24-33.19,12.72-.12-.03-.25-.06-.37-.09-.8-.17-1.36.18-1.63.69.05-.17.08-.35.08-.53.27-.12.5-.36.6-.74,2.75-10.35,3.81-21.06,2.85-31.75-.74-8.21-2.04-18.45-7.54-25.01-4.92-5.87-10.52-4-14.29,1.93-4.77,7.51-4.63,15.39-4.68,23.76-4.6-4.63-10.37-8.06-16.61-10-4.94-1.54-12.79-3.25-16.73,1.24-3.82,4.35-2.05,10.51,1.2,14.56,3.27,4.07,7.8,7.03,12.71,8.9-3.54.47-6.95,1.58-9.79,3.82-3.98,3.15-6.06,8.43-1.03,11.62,6.38,4.05,15.18,4.14,22.44,4.18,9.75.05,19.55-.21,29.29-.79.67-.04,1.13-.4,1.37-.87-.17.67.11,1.48.97,1.84,10.17,4.27,19.27,11.01,28.35,17.18,7.98,5.42,15.83,11.7,25.16,14.62,6.28,1.97,15.46,2.63,19.64-3.65,3.88-5.84,1.41-12.5-2.8-17.25,5.71.06,13.43.07,12.35-7.52Z"/>
        <g>
          <path class="cls-4" d="M162.92,34.69c7.34-3.02,14.72-3.79,22.4-5.3,2.21-.44,1.5-3.56-.5-3.71-8.18-.64-17.26,2.22-24.69,5.38-8.09,3.44-15.31,8.35-21.65,14.42-5.49,5.25-10.07,11.13-13.64,17.78-8.52-10.87-20.91-18.98-33.66-23.95-.82-.32-1.41,1.06-.6,1.42,12.93,5.81,23.27,14.12,33.18,24.1.05.05.12.08.17.11-.22.45-.49.86-.7,1.32-3.25,6.92-6.95,16.39-5.56,24.15.39,2.16,3.2,1.6,3.85,0,1.42-3.52,1.72-7.52,2.74-11.18,1.1-3.96,2.54-7.81,4.29-11.52,3.35-7.13,7.9-14.12,13.58-19.61,5.92-5.73,13.19-10.28,20.8-13.41Z"/>
          <path class="cls-4" d="M175.26,65.71c-4.35-.5-8.74-.76-13.12-.79-10.87-.06-21.72,1.44-32.54,2.24-.87.06-.88,1.42,0,1.37,10.29-.66,20.71-1.62,31.03-1.5,4.1.05,8.23.21,12.31.6,4.11.4,7.97,1.7,12,2.26,1.05.14,1.74-1.14.75-1.78-2.89-1.87-7.08-2.03-10.43-2.41Z"/>
        </g>
        <path class="cls-5" d="M171.48,101.21c-14.45-8.64-25.63-5.07-30.88-2.31-3.75-7.34-10.86-13.46-20.99-15.58-8.11-1.7-14.5.79-19.26,4.96-4.16-6.91-12.55-15.97-27.25-13.3-23.06,4.17-22.26,32.8-16.5,39.75,1.51,1.83,3.36,3.66,5.58,5.3-7.74,6.38-12.17,16.4-9.56,24.12,2.3,6.79,6.8,11.47,12.68,14.17-11.62,3.97-15.77,17.12-13.08,26.77,1.08,3.87,2.87,6.9,5.16,9.26-4.62,1.91-10.08,5.66-11.92,13-3.38,13.52,5.37,27.43,24.85,26.24,14.84-.91,22.74-13.91,25.58-22,2.09,1.09,4.41,1.97,7.01,2.52,18.09,3.78,27.23-11.73,28.82-18.68.79-3.46.41-8.52-1.07-13.26,2.03,2.66,4.61,4.88,7.83,6.31,15.31,6.76,29.62-4.97,35.78-14.71s2.98-21.07-.99-26.04c-1.19-1.49-2.72-2.76-4.41-3.83.48-.18.94-.34,1.43-.54,16.5-6.96,21.47-30.01,1.19-42.14ZM126.08,173.57c.1-.06.21-.11.31-.17.08.27.15.55.24.82-.18-.22-.36-.43-.55-.65Z"/>
        <path class="cls-4" d="M168.67,142.42c-6.41,1.85-11.79,3.82-18.57,1.92-6.1-1.71-10.87-5.98-14.07-11.33,1.03-.81,2.01-1.71,2.91-2.71,7.17-7.9,9.3-22.07,3.82-31.37-1.1-1.87-3.89-.22-2.9,1.7,4.37,8.46,2.85,20.77-3.76,27.77-6.91,7.33-17.57,8.71-26.67,4.97-6.9-2.84-12.8-8.42-15.82-15.27,0-.24-.06-.49-.24-.73-.04-.05-.08-.09-.12-.14-.55-1.39-1-2.82-1.31-4.3-2.1-10.25,2.38-17.62,10-23.97,1.11-.92-.3-2.37-1.43-1.86-9.23,4.2-13.24,17.25-11.3,26.58.02.1.05.2.07.3-8.2-4.19-21.48-.16-27.6,5.12-1.08.93.36,2.84,1.54,2,4.05-2.85,8.39-4.47,13.29-5.13,5.58-.75,9.68.26,14.33,2.98,1.84,4.44,4.72,8.4,8.32,11.58-9.8,5.5-15.04,14.85-12.92,26.31.23,1.21.53,2.4.9,3.57-.09,0-.18,0-.27.01-6.87,1.16-16.3,1.7-22.26-3.03-1.48-1.18-3.57.75-2.13,2.13,5.51,5.35,19.04,8.07,25.46,3.08,1.14,2.76,2.69,5.32,4.6,7.56-7.24,4.86-11.92,12.77-11.67,21.71.07,2.55.64,5.46,1.67,8.3-4.07.11-7.7.58-11.93-.33-4.91-1.06-9.76-3.34-13.64-6.48-1.28-1.04-2.96.4-1.76,1.97,3.64,4.79,9.11,7.57,14.9,8.94,4.06.96,10.06,1.56,13.86-.8,2.38,4.7,6.05,8.71,10.77,9.83,1.54.36,2.54-1.44,1.51-2.59-2.55-2.85-5.64-4.78-7.75-8.1-2.04-3.21-3.28-6.95-3.47-10.75-.38-7.61,3.52-15.1,9.62-19.52,3.01,2.83,6.68,4.98,10.84,6.11,6.95,1.88,13.73.89,19.64-2.22,1.29,1.36,2.61,2.67,3.48,4.35.96,1.84,2,4.84,3.08,6.6.71,1.15,2.07.77,2.2-.44.43-3.95-3.27-9.16-6.15-12.05,2.2-1.46,4.25-3.23,6.11-5.26,5.74-6.29,9.17-17.14,7.17-26.04,8.42,6.55,20.61,8.93,29.3,1.84,1.35-1.1-.11-3.27-1.65-2.83ZM137.76,152.04c-.32,4.85-1.87,9.5-4.62,13.5-5.51,8.03-15.81,11.32-25.25,9.28-8.46-1.83-15.57-8.72-18.01-17-3.19-10.84,2.13-20.07,11.55-25.33.04-.02.07-.05.11-.08,2.5,1.83,5.26,3.33,8.2,4.38,7.84,2.81,16.81,2.15,23.85-2.12.73,1.41,1.62,2.77,2.65,4.06.56,4.51,1.81,8.64,1.51,13.31Z"/>
        <path class="fill-white" d="M77.19,80.16c-4.2-.36-8.03,1.41-11.08,4.23-2.67,2.48-5.77,7.22-3.68,10.85.64,1.1,2.27,1.62,3.38.88,2.33-1.55,3.09-4.55,4.98-6.56,1.9-2.02,4.48-3.35,7.1-4.18,2.96-.93,2.24-4.97-.71-5.22h0Z"/>
        <path class="fill-white" d="M114,90.27c-4.1.38-7.6,2.28-10.11,5.55-2.23,2.9-5.31,8.61-2.87,12.09.72,1.03,1.85,1.33,2.99.78,2.77-1.32,3.3-5.08,4.65-7.56,1.36-2.5,3.28-4.41,6.14-4.95,3.3-.62,2.59-6.22-.8-5.91h0Z"/>
        <path class="fill-white" d="M167.36,113.6c1.37,1.7,2.12,3.8,2.33,5.97s-.41,4.28.14,6.39c.55,2.11,3.08,2.53,4.59,1.21,5.17-4.52,1.04-13.89-2.85-17.77-2.77-2.77-6.55,1.29-4.21,4.21h0Z"/>
        <path class="fill-white" d="M71.28,122.05c-6.02,2.45-13.58,10.87-9.28,17.77,1.04,1.67,3.37,1.23,4-.52.83-2.32.87-4.82,2.03-7.07,1.21-2.36,2.99-4,5.38-5.13,2.79-1.32.78-6.24-2.13-5.05h0Z"/>
        <path class="fill-white" d="M98.67,143.23c-3.03,4.23-4.97,12.2-.05,15.79,1.29.94,3.56,0,3.83-1.56.35-2-.25-3.79-.37-5.79-.13-2.04.32-3.9,1.31-5.69,1.73-3.13-2.7-5.57-4.71-2.75h0Z"/>
        <path class="fill-white" d="M162.14,160.2c.26,1.65-.13,3.35-.81,4.85-.74,1.62-2.09,2.91-2.78,4.53s.05,4.21,2.27,3.95c6.8-.79,8.88-9.43,7.57-15.04-.96-4.13-6.88-2.3-6.24,1.72h0Z"/>
        <path class="fill-white" d="M95.4,180.11c-3.4,3.86-6.43,11.92-1.7,15.97,1.07.92,3.31.79,3.57-.94.3-2.05-.11-3.98.04-6.03.17-2.17,1-4.02,2.32-5.73,1.86-2.42-2.22-5.55-4.23-3.26h0Z"/>
        <path class="fill-white" d="M62.83,168.87c-2.87,4.08-4.77,9.8-2.87,14.65,1.03,2.62,5.28,2.51,5.22-.71-.07-4.14-.54-7.94,1.21-11.86,1.08-2.42-2.02-4.29-3.57-2.08h0Z"/>
        <path class="fill-white" d="M52.16,209.04c-2.73,4.56-2.08,14.53,4.91,14.75,1.31.04,2.56-1.42,2.08-2.72-1.16-3.11-4.06-5.74-2.33-9.31,1.5-3.09-2.85-5.73-4.65-2.72h0Z"/>
      </g>
    </g>
  </g>
</svg>