<?xml version="1.0" encoding="UTF-8"?>
<svg id="Capa_2" xmlns="http://www.w3.org/2000/svg" viewBox="0 0 243.3 243.3">
  <defs>
    <style>
      .cls-1 {
        fill: #5a992f;
      }

      .fill-white {
        fill: #fff;
      }

      .cls-3 {
        fill: none;
      }

      .cls-4 {
        fill: #4f3535;
      }

      .cls-5 {
        fill: #f7bc3b;
      }
    </style>
  </defs>
  <g id="grocery_icons">
    <g>
      <rect class="cls-3" width="243.3" height="243.3"/>
      <g>
        <path class="cls-5" d="M154.94,75.09c1.49-2.58,3.96-4.47,5.55-6.99,1.58-2.52,1.94-6.35-.49-8.09l-.19-.04c-.3.19-.61.36-.93.53-1.57.79-3.47,1.59-5.26,1.45-1.09-.09-2.11-.51-2.72-1.47-.44-.69-.53-1.48-.46-2.26-10.51,4.52-22.47,3.53-33.9,2.76-5.35-.36-10.77-.65-16.04.35-4.19.79-8.19,2.38-12.04,4.23-25.5,12.29-44.19,36.37-53.61,63.06-4,11.33-6.49,23.3-6.12,35.31.37,12.01,3.71,24.07,10.57,33.94.55.79,1.14,1.65,1.06,2.6-.09,1.11-1.06,1.92-1.77,2.78-3.61,4.39-.21,11.79,5.22,13.44,5.43,1.65,11.38-1.13,15.31-5.23,6.86,2.36,14.28,2.66,21.51,2.04,26.83-2.29,52.25-17.54,66.89-40.13,14.64-22.59,18.19-52.03,9.32-77.45-2.38-6.81-5.54-14.58-1.93-20.83Z"/>
        <path class="cls-1" d="M227.04,113.38c-.8-10.61-5.17-20.47-10.12-29.74-4.75-8.9-9.83-17.6-17.99-23.8-8.06-6.13-17.61-9.75-27.02-13.23-1.09-.4-1.98-.15-2.61.42-1.6-.66-3.3,1.39-1.95,2.94,3.59,4.14,3.27,9.97,3.19,15.13-.09,5.91-1.55,11.71-1.64,17.66-.14,9.88,2.91,19.27,7.73,27.81,9.54,16.91,23.39,30.47,41.87,37,1.47.52,3.06-.6,3.48-1.98,3.11-10.2,5.87-21.47,5.06-32.21Z"/>
        <g>
          <path class="cls-4" d="M75.31,94.48c-.63,2.82,1.44,6.78,4.75,6.03,3.34-.75,4.79-5.28,2.52-7.83-1.61-1.8-4.58-1.9-6.27-.14-.52.54-.84,1.21-1.01,1.93Z"/>
          <path class="cls-4" d="M107.26,79.55c.41-1.65.17-3.58-1.33-4.46-1.31-.77-3.49-.51-4.88-.13-3.01.82-5.88,3.35-5.89,6.67,0,3,2.27,4.17,4.98,3.7,2.51-.44,4.83-1.87,6.3-3.95.35-.5.64-1.14.81-1.83ZM100.6,79.92c.69-.49,1.5-.75,2.33-.81-.43,1.17-2.49,2.11-3.74,2.66.03-.13.09-.28.12-.37.21-.57.81-1.13,1.3-1.47Z"/>
          <path class="cls-4" d="M109.36,98.13c-4.14-1.5-8.05,2.14-7.23,6.3,1.15,5.85,14.9-3.52,7.23-6.3ZM107.34,101.75c-.14.18-.3.35-.46.52-.13-.01-.26-.02-.4-.03.04-.04.08-.09.12-.13.16-.13.44-.27.74-.36Z"/>
        </g>
        <path class="fill-white" d="M155.39,61.63c.47-.27,12.57-10,16.51-17.27,3.94-7.27,5.15-13.94,3.18-16.36-1.97-2.42-3.79-3.94-5.61-.15-1.82,3.79-1.97,12.27-5,16.97-3.03,4.7-13.18,11.21-13.03,13.94.15,2.73,0,5.15,3.94,2.88Z"/>
        <path class="cls-4" d="M220.3,93.53c-8.08-3.57-18.49-4.81-27.29-5.31-.1,0-.18.02-.27.04-6.85-13.53-13.81-27-21-40.36,1.1-1.7,2.17-3.42,3.15-5.17,2.17-3.85,4.17-8.23,3.37-12.76-.6-3.39-3.93-7.07-7.58-5.08-3.52,1.93-4.55,6.28-5.33,9.88-1.31,6.04-3.8,11.82-8.09,16.36-2.3,2.44-7.74,4.68-8.17,8.47-.33,2.9,2.29,4.87,5,4.76,4.34-.18,8.37-4.77,11.04-7.73,1.88-2.09,3.62-4.33,5.24-6.66,4.41,8.83,8.87,17.64,13.35,26.44-2.46,9.35-5.18,19.26-5.47,28.96-.03.93,1.41,1.14,1.64.22,2.09-8.59,3.43-17.34,5.48-25.95,2.68,5.27,5.37,10.54,8.03,15.81,1.16,2.3,2.27,4.64,3.4,6.97,0,0,0,0,0,0-2.4,7.64-4.34,16.76-4.25,24.81,0,.9,1.37,1.12,1.59.22,1.74-7.1,2.92-14.53,4.25-21.78,5.86,12.27,11.42,24.71,17.79,36.69.71,1.34,3.09.41,2.51-1.06-6.34-15.9-14.9-31.13-22.57-46.42-.72-1.44-1.47-2.87-2.2-4.31,4.34.84,8.72,1.49,13.06,2.38,4.24.87,8.44,2.25,12.75,2.66,1.08.1,1.57-1.65.57-2.09ZM166.98,47.64c-2.05,3.08-4.15,6.17-6.79,8.78-.74.74-6.35,5.25-6.88,2.76-.12-.56,2.36-1.92,2.82-2.27,4.2-3.22,7.45-7.44,9.68-12.24,1.01-2.18,1.82-4.45,2.42-6.77.49-1.91.65-3.89,1.22-5.79.29-.98.67-1.94,1.28-2.77,1.76-2.43,3.45,1.67,3.48,3.18.03,1.4-.4,2.78-.91,4.08-1.47,3.73-3.7,7.1-5.92,10.44-.13.2-.27.4-.4.6Z"/>
      </g>
    </g>
  </g>
</svg>