<?xml version="1.0" encoding="UTF-8"?>
<svg id="Capa_2" xmlns="http://www.w3.org/2000/svg" viewBox="0 0 243.3 243.3">
  <defs>
    <style>
      .cls-1 {
        fill: #5a992f;
      }

      .cls-2 {
        fill: #fff;
      }

      .cls-3 {
        fill: none;
      }

      .cls-4 {
        fill: #fe9736;
      }

      .cls-5 {
        fill: #4f3535;
      }
    </style>
  </defs>
  <g id="grocery_icons">
    <g>
      <rect class="cls-3" width="243.3" height="243.3"/>
      <g>
        <g>
          <path class="cls-4" d="M203.64,127.56c-7.47-24.93-26.68-42.04-51.62-48.68-16.96-4.52-34.39-4.5-51.71-2.77-23.72,2.37-46.81,17.85-57.25,39.33-17.96,36.98-11.64,99.25,59.79,113.79,71.25,14.51,112.13-63.8,100.79-101.67Z"/>
          <path class="cls-5" d="M68.29,102.7l-.14.05c-.6.21-1.12.56-1.55,1.04-.44.5-.72,1.07-.85,1.72-.02.33-.04.65-.06.98.05.64.25,1.23.61,1.77.26.42.59.74,1.01.97.38.31.83.51,1.33.58.65.13,1.29.08,1.91-.13.6-.21,1.12-.56,1.55-1.04l.1-.11c.18-.26.35-.52.53-.78.24-.44.36-.91.34-1.41.06-.32.04-.64-.07-.95-.06-.47-.23-.9-.51-1.29l-.61-.7-.78-.53c-.44-.24-.91-.36-1.41-.34-.48-.07-.95-.02-1.41.16h0Z"/>
          <path class="cls-5" d="M84.82,108.25c.31.07.62.07.92-.02.3-.04.58-.14.83-.33.26-.16.47-.38.62-.64.2-.24.32-.52.37-.84l.04-.62c-.03-.41-.16-.78-.39-1.12l-.39-.45c-.31-.28-.68-.46-1.09-.54-.31-.07-.62-.07-.92.02-.3.04-.58.14-.83.33-.26.16-.47.38-.62.64-.2.24-.32.52-.37.84-.01.21-.03.41-.04.62.03.41.16.78.39,1.12l.39.45c.31.28.68.46,1.09.54h0Z"/>
          <path class="cls-5" d="M72.96,123.25c.03.19.05.32.1.53.05.41.2.79.45,1.13.17.25.37.47.59.66-.33-.66-.65-1.32-.98-1.98.03.29.1.57.18.85-.05-.23-.1-.46-.14-.7.11.55.13.85.45,1.33.27.4.62.7,1.05.92.24.12.5.21.77.26.63.12.96.03,1.57-.12l-1.53.11h.06c.28.03.57.04.85.06.43-.02.82-.13,1.17-.35.26-.09.49-.24.67-.45.34-.25.59-.56.77-.95.02-.04.04-.08.06-.12.26-.53.37-1.09.33-1.68-.04-.56-.22-1.08-.54-1.55-.51-.69-1.19-1.2-2.05-1.37-.43-.1-.86-.09-1.27.03-.42.05-.8.2-1.15.45-.47.32-.83.73-1.09,1.23-.26.53-.37,1.09-.33,1.68h0Z"/>
        </g>
        <g>
          <path class="cls-2" d="M124.79,96.4s-2.78-32.49-7.18-45.54-12.8-20.9-17.75-19.73-9.39,2.47-5.22,7.6,14.09,13.16,16.92,21.61c2.84,8.46,6.28,23.97,6.23,28.15-.04,4.17-.18,8.27-.18,8.27,0,0,6.28,2.19,7.16-.35Z"/>
          <g>
            <path class="cls-1" d="M121.68,76.04c.06,1.37,1.19,2.46,2.47,2.76,18.47,4.37,39.29.48,53.27-12.86,15.28-14.58,14.19-34.53,12.41-54.07-.16-1.74-1.75-2.48-3.29-2.12-30.55,7.08-55.23,30.5-64.13,60.49-.08.17-.15.36-.18.57-.06.19-.08.37-.08.54-.23,1.55-.54,3.13-.47,4.68Z"/>
            <path class="cls-5" d="M181.11,17.23c-12.3,9.86-24.13,20.86-35.16,32.57,1.14-5.94,2.66-11.92,2.92-17.88.06-1.56-2.16-1.4-2.52-.14-1.99,6.65-2.91,14.09-3.28,21.09-4.27,4.64-8.39,9.39-12.35,14.23-1.81,2.2-3.58,4.41-5.31,6.63-.54-4.17-1.3-8.31-2.42-12.41-2.64-9.75-5.46-23.15-13.94-29.68-4.06-3.13-9.85-4.54-14.51-1.83-4.05,2.36-5.82,7.13-2.63,11.04,2.97,3.66,7.32,5.6,10.24,9.36,3.61,4.62,5.82,9.5,7.66,15.01,2.78,8.3,5.53,18.03,5.12,27.23-.9-.86-1.76-1.78-2.61-2.76-1.83-2.1-4.77-.47-4.19,2.17,2.71,12.26,19.51,11.6,25.93,3.25,1.98-2.58-1.7-5.77-3.85-3.3-1.06,1.22-2.31,2.18-3.68,2.85.02-5.77-.15-11.51-.71-17.22,1.95-2.42,3.93-4.79,5.94-7.13,1.88-2.17,3.78-4.32,5.7-6.43,9.06,2.42,18.33,3.99,27.37,6.61,1.54.46,1.96-1.96.46-2.42-8.42-2.61-17.14-5.06-25.93-6.29,4.57-4.97,9.27-9.81,14.06-14.58,7.72,2.7,17,3.21,24.95,4.3,1.8.25,2.34-2.48.54-2.76-7.39-1.13-15.24-3.42-22.83-4.16,8.75-8.64,17.68-17.09,26.48-25.72.87-.86-.5-2.34-1.44-1.59ZM122.37,95.64c-.6,0-1.22-.02-1.85-.13-.29-.04-.52-.18-.79-.25,1.01-4.59.21-9.03-.73-13.82-1.1-5.55-2.22-11.13-3.94-16.54-2.98-9.4-7.92-17.68-15.79-23.76-2.77-2.15-7.42-5.7-1.53-7.77,4.91-1.74,9.44,2.12,12,5.92,5.08,7.55,8.5,19.36,9.86,27.09,1.7,9.78,2.43,19.37,2.78,29.25Z"/>
          </g>
        </g>
      </g>
    </g>
  </g>
</svg>