<?xml version="1.0" encoding="UTF-8"?>
<svg id="Capa_2" xmlns="http://www.w3.org/2000/svg" viewBox="0 0 243.3 243.3">
  <defs>
    <style>
      .cls-1 {
        fill: #fff;
      }

      .cls-2 {
        fill: none;
      }

      .cls-3 {
        fill: #4f3535;
      }

      .cls-4 {
        fill: #d9472e;
      }
    </style>
  </defs>
  <g id="grocery_icons">
    <g>
      <rect class="cls-2" width="243.3" height="243.3"/>
      <g>
        <g>
          <path class="cls-4" d="M214.19,135.15c-6.65-4.82-14.66-6.99-22.5-8.98-4.3-1.09-8.68-1.85-12.94-3.11s-7.84-3.71-11.92-5.48c-8.32-3.6-19.79-6.84-29.12-3.08-16.7,6.74-29.33,39.39-15.55,76.4,13.36,35.89,23.21,38.16,37.94,35.16,14.73-3,43.61-26.03,56.37-51.97,10.12-20.57,9.83-30.16-2.29-38.94Z"/>
          <path class="cls-3" d="M147.58,155.81c-.14-.69-1.17-1.15-1.73-.4-.73.98-7.57,10.97-2.76,10.66,1.69-.11,2.9-2.23,3.54-3.56.92-1.93,2.05-4.58.99-6.65-.01-.02-.03-.03-.04-.05ZM143.91,163.77c-.22.21-.49.29-.66-.07-.14-.3.04-.88.13-1.19.2-.68.96-1.74,1.37-2.37.47-.7.97-1.38,1.48-2.06-.13.7-.33,1.38-.6,2.09-.43,1.14-.84,2.25-1.48,3.3-.07.11-.15.21-.23.29Z"/>
          <path class="cls-3" d="M166.2,168.61c1.61,2.11,3.96.03,4.83-1.59,1.06-1.97,1.65-5.29.25-7.26-1.55-2.17-3.64.4-4.4,1.92-.95,1.9-2.15,5.01-.68,6.93ZM169.68,161c.23.15.28.89.33,1.27.14,1.26-.15,2.56-.73,3.68-.13.25-.6,1.3-.95,1.34-1.95.23.49-5.38.85-5.95.22-.34.38-.42.5-.34Z"/>
          <path class="cls-3" d="M193.06,167.28c-.29,0-.57.05-.81.16-1.11.53-1.35,2.39-1.52,3.45-.23,1.42-.16,2.89.16,4.3.38,1.72,1.49,3.59,3.49,2.37,1.59-.97,1.93-3.44,1.95-5.12.01-1.22-.09-2.58-.66-3.69-.27-.52-.68-1-1.25-1.21-.39-.14-.89-.26-1.36-.26ZM192.82,175.09c-.45-.73-.2-2.38-.1-3.2.11-.9.36-1.79.6-2.67,1,.52,1.05,2.8,1.02,3.62-.02.6-.55,3.83-1.52,2.25Z"/>
          <path class="cls-3" d="M169.77,184.6c-.83.16-1.62.87-1.97,1.74-.7,1.73-1.3,3.83-.83,5.7.34,1.33,1.68,3.39,3.09,2,1.58-1.56,2.46-4.3,2.29-6.46-.06-.72-.28-1.5-.69-2.1-.53-.78-1.23-1-1.9-.87ZM169.37,192.53c-.04-.06-.09-.14-.17-.24-.13-.28-.22-.57-.27-.87-.12-.54-.13-1.08-.08-1.63.11-1.12.53-2.21.96-3.26.74.52.62,1.72.56,2.6-.06.87-.49,2.8-1.01,3.41Z"/>
          <path class="cls-3" d="M147.92,182.79c-.52.92-.8,2.1-.96,2.88-.1.53-.13,1.07-.08,1.61.02.23.14,1.38.38,1.47.72,1.63,2.59,2.02,3.51.34.95-1.73,1.64-4.89.7-6.74-.35-.69-1.08-1.09-1.85-.97-.75.12-1.3.69-1.71,1.41ZM149.1,188.31c-.34.24-.49-1.76-.47-2.1.06-.92.39-1.7.93-2.44.05-.07.08-.14.11-.2.04-.05.09-.11.12-.17-.06.12.1,1.12.09,1.31-.01.32-.04.64-.08.95-.07.54-.2,2.3-.7,2.65Z"/>
          <path class="cls-3" d="M152.98,203.33c-.59.42-1.04,1.23-1.3,1.89-.67,1.67-.99,3.56-.47,5.32.55,1.88,2.48,3.43,4.27,1.94,1.75-1.46,1.42-4.12.94-6.07-.25-1.03-.74-2.24-1.58-2.93-.71-.59-1.34-.51-1.86-.14ZM154.6,210.34c-.02.06-.04.11-.06.17-.03.07-.06.14-.12.19-.41.32-.94-.71-1.03-.97-.2-.54-.19-1.14-.09-1.7.09-.51.24-1.01.4-1.5.05-.16.51-1.16.43-1.29.51.73.66,1.89.74,2.76.07.79,0,1.59-.26,2.33Z"/>
          <path class="cls-3" d="M138.17,140.53c-.05-.71-.54-1.27-1.22-1.46-.81-.23-1.52-.06-2.14.32-1.22.75-2.08,2.34-2.64,3.47-.45.9-.86,1.97-.63,2.99.43,1.86,2.5,1.57,3.59.53,1.29-1.24,3.18-3.96,3.04-5.85ZM135.49,143.42c-.26.4-.51.8-.75,1.21-.14.24-.29.49-.49.68-.6.56-1.48.08-1.29-.77.06-.25.19-.47.31-.69.44-.75.87-1.5,1.31-2.24.43-.74,1.59-2.26,2.18-.84.26.62-.29,1.22-.62,1.7-.22.32-.44.64-.65.96Z"/>
          <path class="cls-3" d="M165.47,144.87c.83-1.21,2.62-3.89.68-4.99-1.9-1.08-3.95,1.14-4.89,2.54-.77,1.16-2.23,3.52-.67,4.65,1.74,1.26,3.96-.86,4.87-2.19ZM162.74,143.53c.7-.82,1.9-2.25,2.38-2.02.22.1-1.02,2.1-1.16,2.29-.26.38-.54.76-.89,1.07-.09.08-1.28.95-1.3.94-.21-.11.39-1.28.96-2.29Z"/>
          <path class="cls-3" d="M130.48,169.43c-1.83.37-2.11,3.63-1.72,5,.23.83,1.44.83,1.54-.09.08-.71.02-1.59.31-2.25.49-1.12.56.59.55,1.09-.01.78-.31,2.71-1.01,3.53-.1-.23-.17-.5-.22-.62-.23-.56-1.19-.26-1.02.33.35,1.18.91,2.82,2.32,1.42,1.35-1.35,1.85-3.61,1.71-5.46-.1-1.33-.72-3.3-2.46-2.95Z"/>
          <path class="cls-3" d="M187.35,186.75c-1.08-.47-2.25.54-2.94,1.26-.88.93-1.66,2.2-1.54,3.52.11,1.28,1.32,1.8,2.46,1.42,1.23-.4,2.19-1.58,2.59-2.78.25-.75.32-1.69.12-2.46-.14-.53-.38-.83-.69-.97ZM185.27,191.04c-.06.06-.5.47-.58.42-.15-.11.17-.93.21-1.04.27-.68.76-1.28,1.2-1.86.03-.04.06-.09.08-.13.14.34.12.69,0,1.14-.16.56-.49,1.09-.91,1.48Z"/>
          <path class="cls-3" d="M139.55,197.43c-1.08-1.13-2.42.72-2.52,1.4-.19,1.25.05,2.49.88,3.46.33.38.9.33,1.19-.05.99-1.3,1.81-3.37.45-4.8Z"/>
          <path class="cls-3" d="M170.67,206.95c-.43-.51-1.26-.48-1.64.07-.07.1-.13.19-.2.29-.1.15-.17.32-.25.48-.02.08-.03.15-.05.23,0,.07,0,.15.01.22.03.19.13.35.27.47.26.24.63.29.95.15.2-.09.37-.19.56-.31.16-.08.3-.19.4-.34.11-.16.17-.33.19-.52,0-.27-.06-.53-.24-.74Z"/>
          <path class="cls-3" d="M213.29,151.2c-.72-.46-1.65-.26-2.05.51-.39.75.11,1.81.65,2.35.76.77,1.92.42,2.22-.59.09-.31.13-.63.07-.95-.1-.53-.44-1.05-.89-1.33ZM211.76,153.54c.07.04.14.08.22.12-.06-.03-.13-.07-.19-.1,0,0-.02-.01-.02-.02Z"/>
          <path class="cls-1" d="M143.84,143.54c.42.17.85.22,1.29.16.43.01.84-.08,1.23-.29.4-.17.74-.43,1-.77.33-.3.56-.67.7-1.1.06-.29.12-.58.18-.87.04-.58-.06-1.13-.31-1.66-.41-.78-1.03-1.4-1.87-1.7-.42-.17-.85-.22-1.29-.16-.43-.01-.84.08-1.23.29-.4.17-.74.43-1,.77-.33.3-.56.67-.7,1.1-.06.29-.12.58-.18.87-.04.58.06,1.13.31,1.66.41.78,1.03,1.4,1.87,1.7h0Z"/>
          <path class="cls-1" d="M127.49,158.63c2.87,1.03,4.47-3.43,1.59-4.46s-4.47,3.43-1.59,4.46h0Z"/>
          <path class="cls-1" d="M129.01,138.37c2.52.9,3.92-3.01,1.4-3.92s-3.92,3.01-1.4,3.92h0Z"/>
        </g>
        <path class="cls-1" d="M205.89,154.66c-6.17-5.85-10.21-15.74-10.98-24.12,13.47,2.77,28.89-4.65,33.36-16.29.07-.17.1-.35.09-.5.21-.99-.29-2.13-1.58-2.17-11.77-.38-25.45,3.22-37.05,9.99,2.59-5.2,7.07-12.94,6.96-18.89-.1-5.5-2.03-13.47-7.62-15.98-2.22-.99-5-.85-6.88.82-2.36,2.07-1.87,5.16-1.21,7.88,1,4.08,2.53,8.06,2.47,12.32-.04,3.01-.96,8.93-2.11,11.64-1.91-11.06-12.88-17.57-14.83-26.98-.23-1.06-.88-2.21-2-1.46-9.37,6.22-6.05,19.67,1.86,28.08-9.9-2.14-22.47-.82-30.43,4.23-.81.51-.92,1.44-.6,2.12,0,.22.09.44.3.64,10.67,10.02,30.64,11.55,43.45,4.14,1.25,6.73,1.73,14.32,7.14,19.2.39.35.8.68,1.22,1,.34-.12.71-.14,1.01,0,.49.23,1,.47,1.42.81.22.18.42.38.63.58.23,0,.46.03.68.11.33.13.63.31.93.5.83.52,1.63,1.08,2.49,1.55.53.25,1.09.47,1.57.8.11.07.19.17.28.26.35.17.69.36,1.01.58.15.1.27.23.38.36,2.27.92,4.59,1.56,7.12,1.32,1.11-.11,1.75-1.77.91-2.56Z"/>
        <path class="cls-3" d="M205.89,154.66c-6.17-5.85-10.21-15.74-10.98-24.12,13.47,2.77,28.89-4.65,33.36-16.29.07-.17.1-.35.09-.5.21-.99-.29-2.13-1.58-2.17-11.77-.38-25.45,3.22-37.05,9.99,2.59-5.2,7.07-12.94,6.96-18.89-.1-5.5-2.03-13.47-7.62-15.98-2.22-.99-5-.85-6.88.82-2.36,2.07-1.87,5.16-1.21,7.88,1,4.08,2.53,8.06,2.47,12.32-.04,3.01-.96,8.93-2.11,11.64-1.91-11.06-12.88-17.57-14.83-26.98-.23-1.06-.88-2.21-2-1.46-9.37,6.22-6.05,19.67,1.86,28.08-9.9-2.14-22.47-.82-30.43,4.23-.81.51-.92,1.44-.6,2.12,0,.22.09.44.3.64,10.67,10.02,30.64,11.55,43.45,4.14,1.25,6.73,1.73,14.32,7.14,19.2.94.85,1.98,1.58,3.04,2.26-.83,2.56,1.11,5.14,3.55,5.92,1.08.34,2.35.16,3.14-.7.39-.43.59-.95.61-1.47,2.68,1.2,5.4,2.15,8.4,1.86,1.11-.11,1.75-1.77.91-2.56ZM194.06,155.49c-.45.66-1.08-.07-1.38-.5-.39-.55-.72-1.21-.81-1.88.81.42,1.62.82,2.45,1.21.04.32.07.72-.25,1.18ZM187.63,146.08c-4.09-4.27-5.83-11.72-6.92-17.41-.13-.74-.92-1.09-1.59-.81-6.72,2.81-13.02,5.05-20.45,4.67-7.58-.4-13.84-3.39-20.13-7.2,5.5-2.75,11-4.51,17.29-4.55,6.59-.04,12.19,1.93,18.18,4.35.66.26,1.33-.03,1.69-.6.92-1.45-.99-3.05-1.97-3.86-1.82-1.51-3.63-3.01-5.32-4.68-1.96-1.93-3.86-3.95-5.29-6.31-3.16-5.19-2.64-11.39,1.51-15.54,2.25,10.35,13.73,16.52,14.23,27.6.07,1.71,2.34,2.98,3.46,1.24,2.91-4.51,4.59-9.59,4.71-14.98.07-2.84-.31-5.61-1-8.37-.37-1.47-.69-2.95-1.2-4.37-1.3-3.64-.9-4.89.28-5.46,3.83-1.88,6.4,4.29,7.16,7.07.73,2.63.72,5.4.37,8.09-.87,6.63-4.3,12.87-7.15,18.83-.91,1.91,1.65,3.05,3.04,2.12,10.82-7.31,22.79-11.04,35.75-10.77-3.13,4.48-6.25,8.46-11.55,10.94-3.24,1.53-6.77,2.46-10.33,2.83-1.81.18-3.63.22-5.44.11-1.36-.08-3.5-.94-4.19.54-.06.14-.11.3-.11.47-.52,8.91,3.18,16.6,8.26,23.44-4.91-1.25-10.17-4.1-13.33-7.38Z"/>
      </g>
      <g>
        <g>
          <path class="cls-4" d="M72.83,57.25c-6.95,1.38-13.03,5.16-18.89,8.95-3.21,2.08-6.27,4.4-9.56,6.36-3.37,2-6.95,2.78-10.46,4.32-7.16,3.15-15.94,8.5-19.04,16.6-5.54,14.51,7.7,41.66,39.18,54.67,30.54,12.62,37.75,7.72,44.5-3.35,6.75-11.07,9.14-42.85.23-66.14-7.07-18.48-13.3-23.91-25.96-21.41Z"/>
          <path class="cls-3" d="M46.81,111.49c-.52-.32-1.42.07-1.27.86.19,1.04,2.49,11.23,5.12,8,.93-1.14.29-3.15-.17-4.33-.68-1.72-1.69-3.98-3.62-4.53-.02,0-.04,0-.06,0ZM49.68,118.48c0,.27-.1.48-.43.38-.27-.09-.54-.54-.68-.78-.32-.52-.54-1.63-.69-2.26-.17-.7-.3-1.42-.43-2.14.36.49.68,1.02.97,1.61.47.94.93,1.85,1.21,2.87.03.1.05.22.05.32Z"/>
          <path class="cls-3" d="M65.82,107.23c2.28.22,2.34-2.49,1.83-3.99-.62-1.83-2.38-4.15-4.44-4.42-2.28-.29-1.88,2.54-1.37,3.91.64,1.71,1.9,4.3,3.98,4.5ZM63.05,100.57c.23-.06.73.34,1,.54.88.65,1.53,1.6,1.9,2.62.08.23.47,1.14.29,1.39-1,1.37-3.12-3.47-3.26-4.03-.09-.34-.04-.49.08-.52Z"/>
          <path class="cls-3" d="M80.74,89.47c-.17.18-.31.39-.37.6-.32,1.01.72,2.25,1.29,2.98.77.98,1.74,1.79,2.81,2.42,1.31.77,3.14,1.16,3.55-.82.32-1.57-1.04-3.24-2.09-4.24-.77-.73-1.68-1.46-2.72-1.74-.49-.13-1.03-.16-1.5.08-.32.16-.69.41-.97.71ZM85.54,94.21c-.72-.14-1.62-1.27-2.09-1.81-.51-.6-.92-1.28-1.34-1.95.92-.33,2.38.98,2.89,1.48.37.37,2.1,2.6.53,2.28Z"/>
          <path class="cls-3" d="M78.02,114.36c-.39.62-.4,1.54-.06,2.26.69,1.46,1.66,3.07,3.12,3.87,1.04.56,3.13.93,3.08-.78-.06-1.91-1.28-4.08-2.74-5.24-.49-.39-1.11-.7-1.73-.8-.8-.12-1.35.19-1.66.69ZM82.8,119.27c-.06-.01-.15-.03-.25-.04-.25-.08-.49-.19-.71-.34-.41-.24-.76-.55-1.08-.91-.64-.73-1.09-1.63-1.5-2.52.76-.17,1.45.62,1.97,1.17.51.55,1.48,1.96,1.56,2.64Z"/>
          <path class="cls-3" d="M64.06,127.11c.28.87.85,1.74,1.26,2.3.27.38.6.71.97,1,.16.12.95.72,1.15.62,1.45.5,2.8-.46,2.27-2.02-.54-1.62-2.13-3.9-3.85-4.4-.64-.18-1.32.04-1.7.6-.36.54-.33,1.23-.11,1.91ZM68.24,129.6c-.05.35-1.4-.72-1.6-.94-.55-.58-.84-1.24-1-2.02-.01-.07-.04-.13-.07-.19,0-.06-.01-.12-.04-.17.04.11.77.59.88.71.19.19.38.4.55.61.3.36,1.34,1.48,1.26,2Z"/>
          <path class="cls-3" d="M80.02,135.97c-.08.62.17,1.38.43,1.93.66,1.4,1.67,2.71,3.08,3.42,1.51.76,3.63.45,3.73-1.56.1-1.96-1.77-3.31-3.29-4.16-.8-.45-1.85-.85-2.78-.73-.79.1-1.11.54-1.18,1.09ZM85.4,139.06s.05.09.07.14c.03.06.05.12.05.18-.04.45-1,.17-1.22.08-.46-.19-.84-.55-1.13-.94-.27-.36-.49-.74-.71-1.13-.07-.13-.43-1.01-.56-1.02.76.11,1.58.69,2.18,1.15.54.42,1.01.93,1.33,1.53Z"/>
          <path class="cls-3" d="M31.61,108.47c-.48-.38-1.12-.4-1.64-.09-.62.38-.93.92-1.06,1.54-.24,1.21.26,2.69.64,3.71.31.81.74,1.7,1.52,2.15,1.42.82,2.46-.66,2.44-1.96-.03-1.54-.64-4.33-1.91-5.36ZM31.87,111.86c.1.4.21.79.32,1.19.07.23.14.47.14.71,0,.71-.82.98-1.24.37-.12-.18-.19-.4-.25-.61-.22-.72-.43-1.43-.65-2.15-.21-.71-.49-2.33.75-1.87.55.2.6.89.71,1.39.07.33.14.65.23.97Z"/>
          <path class="cls-3" d="M50.38,93.76c-.28-1.23-.92-3.94-2.76-3.36-1.8.57-1.6,3.17-1.26,4.58.28,1.17.91,3.47,2.55,3.15,1.82-.36,1.78-3.01,1.47-4.37ZM47.93,94.7c-.11-.92-.31-2.52.12-2.69.2-.08.73,1.88.77,2.08.09.39.16.78.15,1.19,0,.11-.15,1.37-.16,1.37-.19.07-.58-.99-.88-1.95Z"/>
          <path class="cls-3" d="M45.37,130.3c-.84,1.37,1.05,3.46,2.15,4.02.66.34,1.37-.42.85-1.03-.4-.47-.99-.95-1.24-1.52-.42-.97.7,0,1.01.29.48.46,1.53,1.78,1.64,2.71-.2-.07-.42-.18-.52-.22-.49-.18-.87.6-.39.84.95.48,2.32,1.08,2.26-.64-.06-1.65-1.2-3.29-2.45-4.28-.9-.71-2.51-1.48-3.3-.17Z"/>
          <path class="cls-3" d="M89.71,104.51c-.93.41-.98,1.74-.93,2.6.07,1.1.42,2.34,1.32,3.04.88.68,1.91.22,2.34-.72.47-1.01.28-2.31-.24-3.27-.32-.6-.88-1.2-1.48-1.52-.42-.23-.75-.25-1.02-.13ZM91.19,108.34c0,.07,0,.59-.08.61-.15.03-.49-.66-.53-.74-.27-.57-.36-1.24-.47-1.86,0-.05-.02-.09-.04-.13.3.11.5.33.71.67.26.43.4.95.4,1.45Z"/>
          <path class="cls-3" d="M68.4,140.99c-1.34.02-.96,1.96-.6,2.41.68.85,1.6,1.43,2.7,1.47.43.02.74-.37.67-.78-.24-1.39-1.07-3.13-2.77-3.1Z"/>
          <path class="cls-3" d="M92.69,126.91c-.57-.03-1.04.51-.92,1.08.02.1.04.2.07.3.03.15.1.29.15.44.04.05.08.11.12.16.05.04.1.08.15.12.14.09.3.12.46.11.3-.02.55-.23.65-.51.06-.18.1-.35.13-.53.05-.15.05-.3.02-.46-.04-.16-.11-.3-.22-.42-.17-.16-.37-.27-.61-.28Z"/>
          <path class="cls-3" d="M82.45,67.24c-.71.19-1.14.89-.88,1.6.25.68,1.21.99,1.87.97.93-.03,1.39-.97.93-1.75-.14-.24-.32-.45-.56-.6-.39-.25-.92-.33-1.37-.22ZM83.03,69.58c.07-.02.14-.04.2-.07-.06.02-.12.04-.18.06,0,0-.02,0-.03,0Z"/>
          <path class="cls-1" d="M36.85,106.65c.35-.17.64-.41.86-.72.26-.26.44-.58.54-.95.13-.36.16-.72.1-1.09,0-.38-.09-.75-.29-1.09l-.44-.63c-.34-.37-.75-.62-1.23-.78-.73-.2-1.49-.17-2.17.19-.35.17-.64.41-.86.72-.26.26-.44.58-.54.95-.13.36-.16.72-.1,1.09,0,.38.09.75.29,1.09l.44.63c.34.37.75.62,1.23.78.73.2,1.49.17,2.17-.19h0Z"/>
          <path class="cls-1" d="M36.79,125.84c2.33-1.21.45-4.84-1.89-3.63-2.33,1.21-.45,4.84,1.89,3.63h0Z"/>
          <path class="cls-1" d="M24.88,113c2.05-1.06.4-4.25-1.65-3.18s-.4,4.25,1.65,3.18h0Z"/>
        </g>
        <path class="cls-1" d="M80.3,73.94c-7.32.46-15.94-2.78-21.69-7.21,9.66-6.89,14.01-20.99,9.28-30.65-.07-.15-.16-.26-.26-.35-.5-.72-1.52-1.07-2.3-.28-7.15,7.22-12.9,17.98-15.43,29.29-1.77-4.69-4.03-12.07-7.86-15.49-3.54-3.17-9.71-6.62-14.58-4.56-1.93.82-3.47,2.67-3.52,4.83-.08,2.71,2.16,4.21,4.28,5.39,3.17,1.76,6.58,3.13,9.24,5.67,1.88,1.79,5.08,5.85,6.12,8.17-8.11-5.28-18.67-2.17-25.76-6.46-.81-.48-1.91-.74-2.1.41-1.57,9.57,8.89,15.37,18.85,15.3-7.16,5-13.7,13.72-15.19,21.73-.15.81.38,1.43.98,1.63.14.13.33.2.58.18,12.6-.86,25.29-12.59,28.12-25.04,4.99,3.15,10.07,7.31,16.33,6.76.45-.04.9-.11,1.35-.19.12-.28.33-.53.59-.64.43-.17.88-.36,1.35-.42.24-.03.49-.04.74-.06.13-.15.29-.28.47-.36.27-.13.57-.22.86-.3.81-.22,1.64-.4,2.44-.66.47-.19.93-.41,1.43-.52.11-.02.22-.02.32-.02.31-.12.63-.23.96-.3.15-.03.31-.04.46-.03,1.91-.89,3.68-1.99,5.01-3.73.59-.77-.09-2.14-1.08-2.08Z"/>
        <path class="cls-3" d="M80.3,73.94c-7.32.46-15.94-2.78-21.69-7.21,9.66-6.89,14.01-20.99,9.28-30.65-.07-.15-.16-.26-.26-.35-.5-.72-1.52-1.07-2.3-.28-7.15,7.22-12.9,17.98-15.43,29.29-1.77-4.69-4.03-12.07-7.86-15.49-3.54-3.17-9.71-6.62-14.58-4.56-1.93.82-3.47,2.67-3.52,4.83-.08,2.71,2.16,4.21,4.28,5.39,3.17,1.76,6.58,3.13,9.24,5.67,1.88,1.79,5.08,5.85,6.12,8.17-8.11-5.28-18.67-2.17-25.76-6.46-.81-.48-1.91-.74-2.1.41-1.57,9.57,8.89,15.37,18.85,15.3-7.16,5-13.7,13.72-15.19,21.73-.15.81.38,1.43.98,1.63.14.13.33.2.58.18,12.6-.86,25.29-12.59,28.12-25.04,4.99,3.15,10.07,7.31,16.33,6.76,1.09-.1,2.16-.32,3.21-.6,1.13,2.03,3.9,2.32,5.83,1.23.85-.48,1.48-1.39,1.4-2.39-.04-.5-.26-.93-.57-1.25,2.33-.99,4.52-2.15,6.11-4.22.59-.77-.09-2.14-1.08-2.08ZM73.88,81.91c.16.67-.68.64-1.13.58-.57-.08-1.19-.25-1.67-.59.74-.26,1.47-.55,2.2-.84.22.16.49.38.6.85ZM64.16,80.46c-5.1.08-10.83-3.19-15.07-5.84-.55-.35-1.23-.06-1.45.52-2.17,5.9-4.45,11.19-9.05,15.67-4.7,4.56-10.27,6.76-16.37,8.5,1.49-5.09,3.6-9.6,7.28-13.6,3.84-4.19,8.37-6.58,13.42-8.94.55-.26.77-.86.61-1.43-.38-1.43-2.51-1.17-3.6-1.02-2.02.27-4.03.53-6.08.61-2.37.11-4.76.12-7.09-.36-5.13-1.05-8.75-5.02-8.94-10.08,7.87,4.65,18.5,1.01,25.8,7.2,1.13.96,3.25.27,2.82-1.46-1.15-4.49-3.37-8.53-6.7-11.77-1.75-1.71-3.73-3.09-5.88-4.28-1.15-.63-2.27-1.3-3.47-1.81-3.06-1.31-3.62-2.3-3.29-3.39,1.06-3.52,6.47-1.53,8.67-.38,2.09,1.09,3.84,2.72,5.33,4.51,3.68,4.45,5.61,10.27,7.71,15.57.67,1.7,2.9.74,3.13-.68,1.73-11.13,6.39-20.89,14.17-28.93.99,4.61,1.68,8.92.14,13.72-.94,2.95-2.42,5.72-4.27,8.19-.95,1.25-1.99,2.42-3.12,3.51-.85.82-2.65,1.66-2.11,2.96.05.12.12.24.23.35,5.33,5.56,12.36,7.73,19.67,8.53-3.67,2.37-8.57,4.03-12.49,4.09Z"/>
      </g>
    </g>
  </g>
</svg>