<?xml version="1.0" encoding="UTF-8"?>
<svg id="Capa_2" xmlns="http://www.w3.org/2000/svg" viewBox="0 0 243.3 243.3">
  <defs>
    <style>
      .cls-1 {
        fill: none;
      }

      .cls-2 {
        fill: #b17c61;
      }

      .cls-3 {
        fill: #4f3535;
      }

      .cls-4 {
        fill: #d6baab;
      }

      .cls-5 {
        fill: #847272;
      }
    </style>
  </defs>
  <g id="grocery_icons">
    <g>
      <rect class="cls-1" width="243.3" height="243.3"/>
      <g>
        <g>
          <path class="cls-2" d="M101.15,115.63c-10.17-22.29,6.84-35.78,25.61-46.53,18.77-10.75,41.25-20.14,63.93-13.69,22.68,6.45,49.66,49.86,45.75,71.95-3.91,22.09-25.76,24.07-47.12,24.63-29.33.78-78.01-14.08-88.18-36.37Z"/>
          <path class="cls-5" d="M138.04,87.53c-18.25.94-24.33,8.65-26.43,17.54-2.11,8.89,7.72,18.01,23.16,24.8,15.44,6.78,42.57,10.99,55.44,11.23,12.87.23,26.9-3.51,29.71-10.99,2.81-7.49-7.23-17.35-12.63-20.58-14.04-8.42-50.99-22.92-69.24-21.99Z"/>
          <path class="cls-3" d="M125.17,123.8c4.9.09,9.8.08,14.7.08,4.47,0,9.2.48,13.62-.26.9-.15.89-1.65,0-1.81-4.41-.78-9.15-.3-13.62-.26-4.91.04-9.8.13-14.7.35-1.21.06-1.23,1.87,0,1.9h0Z"/>
          <path class="cls-3" d="M115.68,106.36c11.35,3.74,22.81,7.04,34.38,10.01.9.23,1.23-1.06.38-1.37-11.24-4.09-22.71-7.37-34.19-10.7-1.33-.39-1.87,1.64-.57,2.07h0Z"/>
          <path class="cls-3" d="M137.73,92.75c3.31,3.05,6.53,6.24,9.6,9.53,2.8,3,5.22,6.68,8.5,9.15.77.58,1.44-.49,1.16-1.16-1.6-3.76-5.01-6.94-7.78-9.87-3.12-3.29-6.44-6.32-9.94-9.2-1.07-.88-2.59.58-1.54,1.54h0Z"/>
          <path class="cls-3" d="M170.27,112.58c.09.01.2.04.29.06,1.65-5.36,1.56-12.28,1.26-17.63-.08-1.38-2-1.35-2.12,0-.27,3.13-.42,6.26-.65,9.39-.19,2.66-.75,5.4-.74,8.07.66-.03,1.31,0,1.97.1Z"/>
          <path class="cls-3" d="M178.46,114.25c4.05-1.52,8.15-2.94,12.27-4.27,3.76-1.22,7.79-1.94,11.38-3.6.76-.35.37-1.59-.42-1.56-4.14.17-8.31,1.74-12.22,3.02s-7.89,2.94-11.72,4.71c-.94.44-.27,2.07.71,1.69h0Z"/>
          <path class="cls-3" d="M181.55,121.84c5.69-.29,11.42-.24,17.1.24,5.66.48,11.23,1.65,16.89,2.14.91.08.93-1.19.2-1.48-10.48-4.09-23.16-4.05-34.19-2.99-1.31.13-1.36,2.15,0,2.08h0Z"/>
          <path class="cls-3" d="M178.16,127.36c8.03,3.31,15.45,7.83,23.39,11.29.7.3,1.55-.54.89-1.15-6.58-6.06-15.25-9.66-23.64-12.48-1.52-.51-2.05,1.76-.65,2.34h0Z"/>
          <path class="cls-3" d="M211.66,102.78c.29.99,1.19,1.8,2,2.41.79.6,1.58,1.14,2.55,1.43,2.24.66,4.03-2.33,2.3-3.96-.74-.7-1.58-1.09-2.51-1.48s-2.1-.78-3.13-.53c-.9.22-1.47,1.25-1.21,2.13h0Z"/>
          <path class="cls-3" d="M211.93,95.85c.39.2.78.39,1.21.49.33.08.72.16,1.06.05s.7-.34.87-.67c.34-.65.16-1.44-.41-1.91-.2-.17-.4-.35-.62-.49-.15-.09-.33-.17-.49-.25-.75-.38-1.77-.22-2.2.58-.38.73-.23,1.8.58,2.2h0Z"/>
          <path class="cls-3" d="M133.21,80.79c.48-.03.96-.07,1.44-.13.3-.04.65-.04.94-.12.31-.09.57-.26.84-.44.92-.6.92-1.86,0-2.47-.26-.17-.52-.35-.84-.44-.29-.08-.64-.08-.94-.12-.48-.06-.96-.1-1.44-.13-1.01-.06-1.97.93-1.92,1.92.04.99.85,1.99,1.92,1.92h0Z"/>
          <path class="cls-3" d="M219.45,118.53c-5.08-7.44-14.37-12.5-22.15-16.6-16.15-8.51-34.93-13.73-53.15-15.16-14.14-1.11-35.98,3.21-34.2,21.79.86,8.97,8.94,14.65,16.13,18.8,7.93,4.58,17.03,9.14,26.25,10.93.09-.25.19-.5.29-.75.31-.85.58-1.71.8-2.58-6.97-2.48-14.08-4.38-20.81-7.65-6.34-3.08-13.94-7.17-17.66-13.41-4.03-6.75-1.46-15.47,5.16-19.33,6.47-3.77,14.04-4.67,21.4-4.32,14.88.7,30.31,5.01,43.93,10.86,7.5,3.22,14.67,7.17,21.36,11.85,5.39,3.77,15.15,11.73,9.31,19.02-3.59,4.49-10.99,5.64-16.33,6.23-8.58.95-16.76.03-25.11-1.36-.37,1.11-.81,2.2-1.29,3.28-.11.24-.22.48-.33.72,8.29,2.64,17.51,2.86,26.03,2.01,6.22-.62,12.97-1.75,18.03-5.69,6.01-4.68,6.57-12.46,2.35-18.64Z"/>
          <path class="cls-4" d="M177.16,112.46c-6.29-3.14-19.42-4.44-24.78,3.51-5.36,7.95,0,12.58-5.73,30.52-5.73,17.94-19.79,44.76-14.8,57.71,4.99,12.95,18.87,17.57,31.26,14.61,12.39-2.96,14.43-15.17,12.02-21.83-2.4-6.66-7.58-13.5-5.55-29.78s7.69-28.26,9.43-33.48c2.96-8.88,4.44-18.13-1.85-21.27Z"/>
          <path class="cls-3" d="M160.5,122.78l.4-.03c.24,0,.47-.04.68-.15.22-.07.41-.19.57-.37.17-.16.3-.35.37-.57.11-.21.16-.44.15-.68l-.06-.47c-.08-.3-.24-.56-.46-.78l-.36-.28c-.28-.16-.57-.24-.89-.24l-.4-.03c-.25,0-.48.04-.69.15-.22.07-.42.2-.58.37-.18.16-.3.36-.37.58-.11.21-.16.45-.15.69l.06.48c.09.3.24.57.46.79.34.31.8.56,1.27.53h0Z"/>
          <path class="cls-3" d="M160.49,130.13c.24-.06.47-.14.68-.27.49-.3.8-.82.8-1.4s-.31-1.1-.8-1.4c-.21-.13-.44-.21-.68-.27-.58-.15-1.27,0-1.68.44-.31.34-.51.75-.51,1.22,0,.24.04.46.15.67.07.21.19.4.36.56.44.44,1.08.6,1.68.44h0Z"/>
          <path class="cls-3" d="M163.28,189.66c.07.02.35.12.03-.01-.17-.08-.19-.08-.07-.01l-.24-.18c.07,0,.52.67.06.04.19.26.39.48.66.66-.53-.35-.56-.65-.39-.36.13.22.36.51.61.62l-.55-.68c.04.14.04.1,0-.12.06.46.2.85.63,1.1.36.21.93.27,1.29,0,.15-.11.31-.22.44-.36.11-.12.33-.57.2-.26-.08.1-.1.12-.05.08.06-.05.11-.11.15-.18.23-.3.31-.59.36-.95.04-.28.04-.3.01-.08-.03.16-.03.2-.01.11.15-.16.04-.89,0-1.01-.29-1.01-1.12-1.81-2.14-2.07-.96-.24-2.1.31-2.33,1.32-.22.96.29,2.1,1.32,2.33h0Z"/>
        </g>
        <g>
          <path class="cls-2" d="M111.02,178.1c-3.17,4.67-7.51,8.35-12.24,11.33-6.51,4.1-13.77,6.9-19.77,9.19-10.36,3.96-25.8,6.78-25.8,6.78,0,0-3.43.37-8.47.36-9.7-.04-25.34-1.54-33.89-9.96-12.99-12.8-6.59-37.28,15.25-54.79,21.84-17.51,56.68-25.04,78.33-10.54,21.65,14.5,14.12,36.52,6.59,47.64Z"/>
          <path class="cls-5" d="M98.77,189.43c-6.51,4.1-13.77,6.9-19.77,9.19-10.36,3.96-25.8,6.78-25.8,6.78,0,0-3.43.37-8.47.36-3.22-2.06-7.16-5.51-9.73-11.01-5.02-10.72,4.5-20.58,17.99-25.94,13.49-5.36,35.28-7.61,44.27,1.39,5.45,5.45,3.72,13.64,1.51,19.24Z"/>
          <path class="cls-3" d="M21.65,195.3c.93.46,2,.87,3.04.66.59-.12,1.08-.79,1.05-1.38-.03-.69-.44-1.13-1.05-1.38-.22-.09-.44-.1-.67-.14.3.05-.18-.05-.24-.06-.14-.03-.28-.07-.41-.12-.05-.02-.48-.19-.25-.09-.69-.31-1.59-.22-1.99.52-.35.66-.2,1.62.52,1.99h0Z"/>
          <path class="cls-3" d="M18.02,190.08c.41.17.83.31,1.26.4.67.15,1.21.08,1.84-.19.39-.17.62-.68.62-1.08,0-.48-.26-.81-.62-1.08-.65-.49-1.57-.56-2.32-.85-.71-.28-1.62.3-1.78,1.01-.19.84.26,1.48,1.01,1.78h0Z"/>
          <path class="cls-3" d="M106.43,169.07h.59c.29,0,.59-.13.8-.33s.34-.52.33-.8c-.03-.61-.5-1.13-1.13-1.13h-.59c-.29,0-.59.13-.8.33s-.34.52-.33.8c.03.61.5,1.13,1.13,1.13h0Z"/>
          <path class="cls-3" d="M106.66,165.3l.2-.31.12-.28c.05-.16.06-.31.02-.47,0-.11-.03-.21-.08-.3-.05-.15-.13-.27-.24-.38l-.24-.18-.28-.12c-.16-.05-.31-.06-.47-.02-.16,0-.3.05-.44.14l-.31.2c-.19.11-.34.26-.45.45-.11.2-.17.41-.17.64.01.33.13.65.37.89.11.12.25.21.41.26.15.08.31.11.48.11.46,0,.85-.25,1.09-.62h0Z"/>
          <path class="cls-3" d="M46.46,205.43c-2.5-2-5.63-3.11-7.85-5.51-2.4-2.59-3.62-6.09-3.8-9.59-.41-7.92,4.68-13.48,11.14-17.27,6.84-4.01,14.51-6.65,22.36-7.69,7.6-1,16.68-1.01,23.62,2.65,3.76,1.99,6.53,5.26,7.47,9.45.95,4.23-.29,7.95-1.95,11.8-.29.67.45,1.34,1.04.8,5.25-4.8,4.16-14.4,0-19.54-5.52-6.83-15.9-7.85-24.06-7.63-9.61.25-19.13,2.9-27.56,7.51-6.89,3.77-13.06,9.12-13.69,17.43-.62,8.2,4.46,16.49,12.74,18.49.49.12.99-.55.53-.92h0Z"/>
          <path class="cls-3" d="M39.46,201.57c2.48-.26,4.89-.89,7.38-1.08,2.71-.2,5.25.17,7.92.68.62.12,1.04-.71.45-1.06-4.5-2.7-11.25-1.98-15.96-.14-.78.3-.78,1.71.22,1.6h0Z"/>
          <path class="cls-3" d="M35,190.67c3.41-.08,6.81.14,10.17.79,3.12.6,6.07,1.77,9.17,2.41.63.13,1-.69.44-1.04-5.51-3.53-13.41-4.05-19.78-3.76-1.03.05-1.04,1.64,0,1.61h0Z"/>
          <path class="cls-3" d="M41.87,176.02c2.78,1.86,5.57,3.72,8.28,5.68,2.63,1.9,5.09,4.5,8.03,5.92.54.26,1.24-.3.88-.88-1.69-2.65-4.58-4.53-7.06-6.4-2.93-2.21-5.97-4.18-9.21-5.89-1.04-.55-1.88.92-.91,1.56h0Z"/>
          <path class="cls-3" d="M59.75,166.45c.94,5.41,2.08,11.67,4.72,16.54.3.56,1.26.32,1.22-.33-.32-5.62-2.95-11.22-4.23-16.68-.26-1.12-1.89-.63-1.7.47h0Z"/>
          <path class="cls-3" d="M75.57,164.22c-1.06,3.04-1.82,6.12-2.29,9.31-.38,2.62-.94,5.46-.46,8.09.12.69,1.11.58,1.29,0,.86-2.68.86-5.69,1.38-8.47.53-2.83,1.13-5.65,1.77-8.46.25-1.11-1.32-1.53-1.69-.47h0Z"/>
          <path class="cls-3" d="M93.1,167.58c-3.86,3.28-8.32,8.28-9.01,13.5-.1.77.99.9,1.35.37,2.89-4.33,5.36-8.72,9.07-12.46.92-.92-.44-2.23-1.41-1.41h0Z"/>
          <path class="cls-3" d="M89.83,186.79c1.63-1.54,3.4-2.87,5.36-3.96,1.8-.99,3.77-1.61,5.55-2.6.53-.3.32-1.24-.32-1.19-4.42.32-8.71,3.59-11.75,6.59-.76.74.39,1.89,1.16,1.16h0Z"/>
          <path class="cls-4" d="M87.18,182.7c-3.92-4.73-11.41-3.34-18.22-1.84-6.8,1.5-13.37,3.57-15.22,10.49-1.84,6.92-2.19,16.14-.58,21.33,1.61,5.19,5.88,9.11,17.87,7.61s18.55-4.71,20.64-7.49c3.46-4.61-.58-25.36-4.5-30.09Z"/>
          <path class="cls-3" d="M83.56,209.83c.41.08.82.13,1.24.09.38-.04.69-.11,1.02-.3.46-.27.81-.76.8-1.31-.03-.93-.8-1.46-1.67-1.42-.18,0-.36.04-.54.07-.27.05.26,0,.07-.01-.18,0-.34,0-.52-.02-.33-.04-.83.19-1.05.43s-.36.52-.41.85c-.09.68.34,1.48,1.06,1.63h0Z"/>
        </g>
      </g>
    </g>
  </g>
</svg>