<svg xmlns="http://www.w3.org/2000/svg" width="3240" height="3240">
  <path d="M1624.891 850.795q-8.411.02-16.823.02c-26.577-.002-53.152-.092-79.715.92q-6.191.259-12.384.47c-459.447 39.726-645.52 70.028-810.04 142.15l-5.93 2.645c-11.745 5.194-23.37 10.561-34.864 16.293l-5.01 2.52c-19.033 9.553-37.87 19.295-55.965 30.55L600 1049c-9.984 6.326-19.364 13.23-28.64 20.551l-4.36 3.45c-7.194 5.528-14.211 11.083-20.875 17.25q-3.06 2.877-6.125 5.75c-4.266 3.7-8.38 7.38-12.375 11.374L523 1112a744 744 0 0 0-10 9l-2 4h-2l-3 4c-16.19 18.45-29.302 38.177-40.48 60.024L463 1194c-5.814 11.112-10.823 22.426-15.57 34.035L445 1234c-5.933 13.947-10.753 28.126-15.37 42.551-2.847 8.915-5.737 17.809-8.73 26.676a1399 1399 0 0 0-11.687 36.205c-8.707 28.378-18.125 56.478-27.713 84.568a5913 5913 0 0 0-16.621 49.336 4063 4063 0 0 1-4.301 12.905c-8.464 25.164-16.646 50.413-24.668 75.722L334 1568c-5.94 18.754-11.768 37.48-16.563 56.563A564 564 0 0 1 314 1638c-3 6-3 6-9 10-9.158 5.475-17.84 11.345-26.453 17.645L274 1669c-8.449 6.192-16.725 12.53-24.813 19.188L241 1695c-17.621 14.205-32.407 30.777-45.406 49.293L193 1748c-4.96 6.864-9.68 13.782-14.012 21.063-19.895 35.46-27.426 68.252-27.35 108.52.026 5.23.049 10.461.046 15.693a3554 3554 0 0 0 .001 10.377l.014 4.972c-.003 5.8.018 11.582.3 17.375 3.538 27.246 12.57 49.24 27.497 72.172L182 2002c6.862 10.664 13.989 20.83 22.105 30.582L207 2036c15.315 18.22 33.786 34.684 52.625 49.188L266 2090c7.873 6.176 15.829 12.019 24.2 17.508L294 2110c8.294 5.626 16.646 11.043 25.25 16.188q4.88 2.9 9.75 5.812c21.542 13.777 43.566 26.082 66.668 37.024L402 2172q5.476 2.586 10.959 5.159l3.666 1.716q6.66 3.121 13.375 6.125c7.624 2.907 15.128 5.91 22.559 9.278 34.816 15.812 70.42 30.074 106.699 42.18L570 2240c14.405 4.853 28.838 9.55 43.373 14 12.986 3.957 25.993 7.851 38.908 12.035 12.523 4.08 25.075 7.815 37.81 11.174L697 2279c59.167 15.371 118.507 29.317 178.562 40.813 5.663 1.069 11.316 2.162 16.957 3.342a1104 1104 0 0 0 36.473 7.142l6.133 1.078c80.925 14.528 162.972 26.489 244.824 34.243l4.05.382c35.754 3.384 71.513 6.714 107.32 9.485l6.68.515c45.82 3.585 91.647 6.532 137.563 8.545q7.77.335 15.537.686c110.797 5.03 222.489 5.153 333.293.244a8085 8085 0 0 1 16.4-.723c30.94-1.314 61.954-2.248 92.829-4.693 9.58-.782 19.162-1.452 28.754-2.065l5.707-.36q11.865-.758 23.73-1.509c40.973-2.56 81.838-5.783 122.635-10.388l4.303-.487c96.3-10.817 191.836-24.52 286.869-43.568l8.38-1.682c43.639-8.673 86.774-19.037 129.895-29.959l4.106-1.04c28.817-7.3 57.243-15.396 85.625-24.25a1634 1634 0 0 1 25.89-7.856c33.677-9.878 66.77-20.545 99.649-32.844 5.02-1.881 10.04-3.76 15.076-5.6 14.739-5.33 29.208-11.057 43.58-17.314 3.64-1.59 7.278-3.18 10.928-4.744 15.409-6.574 30.682-13.35 45.748-20.686L2840 2173c9.987-4.858 19.755-10.002 29.441-15.437a1597 1597 0 0 1 8.961-5c30.417-16.811 60.255-34.081 86.953-56.5 4.13-3.47 8.362-6.784 12.645-10.063 4.593-3.508 9.048-7.042 13.375-10.875L2996 2071c14.15-11.143 26.584-23.938 38.219-37.66l2.78-3.34c8.591-10.308 16.664-21.145 23.313-32.812L3063 1992c3.793-6.276 7.249-12.516 10.437-19.125 17.787-41.796 19.031-88.066 13.75-132.75L3086 1834c-5.939-35.727-22.138-69.119-45-97.125l-5-5.875c-5.52-6.917-11.188-13.445-17.43-19.703l-2.945-2.922c-5.684-5.729-11.384-11.174-17.59-16.347L2993 1688c-6.609-6.017-13.44-11.468-20.617-16.78L2968 1668c-8.52-6.319-16.99-12.53-26.125-17.937a715 715 0 0 1-11.438-6.875c-6.717-6.229-6.717-6.229-13.47-26.707l-1.342-4.168a4658 4658 0 0 1-9.938-30.75c-1.644-5.2-3.297-10.392-5.017-15.567a2577 2577 0 0 1-7.897-23.93c-7.832-24.213-15.824-48.362-24.289-72.363a2333 2333 0 0 1-6.8-19.441 2218 2218 0 0 0-14.372-40.762c-6.81-18.616-12.996-37.41-19.007-56.299-9.038-28.418-17.699-57.069-28.575-84.853L2798 1264c-3.408-8.804-7.038-17.454-11.086-25.988L2785 1234c-17.95-38.2-37.487-73.983-65.352-105.98L2717 1125c-9.845-11.486-20.846-21.7-32.188-31.687L2681 1090c-10.929-10.042-22.458-19.054-34.578-27.605L2643 1060c-36.047-25.34-75.226-46.045-115.695-63.449l-18.305-7.55c-12.872-5.409-25.687-10.962-38.875-15.563a1331 1331 0 0 1-17.223-5.953 5205 5205 0 0 0-11.896-4.233A9109 9109 0 0 1 2429 959c-33.008-11.92-66.775-21.658-100.805-30.21L2321 927c-41.394-10.632-83.11-19.195-125.25-26.312-13.697-2.3-27.391-4.607-41.063-7.055-36.234-6.502-72.455-12.066-109.027-16.281q-9.287-1.068-18.566-2.186c-29.484-3.585-58.952-7.163-88.553-9.629L1932 865c-42.18-3.517-84.384-6.45-126.643-8.86l-6.857-.39c-57.872-3.35-115.65-5.094-173.61-4.955m13.66 38.955h4.636c49.572-.018 99.068.282 148.579 3.016q4.302.238 8.605.469c77.588 4.145 155.185 11.155 232.256 21.064l5.373.701c69.053 8.978 137.467 20.736 205.422 35.961a2898 2898 0 0 0 28.863 6.334c64.036 13.683 128.509 28.815 189.371 53.346a1189 1189 0 0 0 12.574 5.014c63.785 24.72 128.65 56.105 180.575 101.525l3.195 2.82c19.257 16.576 35.86 36.443 50.625 57.063l3.375 4.937c5.54 8.085 10.654 16.332 15.57 24.805l2.43 4.195c17.138 28.748 28.696 59.806 39.637 91.301a7795 7795 0 0 0 8.347 23.961l1.64 4.676a2329 2329 0 0 0 12.313 34.312c4.314 11.655 8.476 23.355 12.58 35.084l3.073 8.79 1.597 4.564c3.151 9.004 6.301 18.006 9.645 26.941a829 829 0 0 1 14.605 42.496 2437 2437 0 0 0 15.618 48.094c1.465 4.357 2.924 8.716 4.36 13.082 5.46 16.679 11.108 33.258 17.128 49.744 5.644 15.434 11.4 30.775 15.762 46.631 1.37 5.112 2.774 10.21 4.203 15.305a6196 6196 0 0 1 4.435 15.885 3801 3801 0 0 0 7.133 25.418q1.645 5.746 3.283 11.494l3.266 11.472c7.274 25.216 10.633 45.876 7.125 72-4.915 30.148-20.286 58.059-38.813 82l-3.937 4.75c-13.224 17.496-28.655 31.694-45.563 45.563l-5.437 4.437c-7.931 6.891-15.929 13.265-24.66 19.125l-4.34 2.875c-10.48 7.087-21.042 13.689-32.188 19.688-5.486 2.916-10.96 5.82-16.34 8.93-9.552 5.7-19.21 11.145-28.996 16.437l-5.476 2.945c-25.33 13.746-51.776 25.125-78.625 35.563-5.762 2.227-11.495 4.487-17.195 6.867-24.22 10.243-48.64 18.852-73.793 26.445a4001 4001 0 0 0-15.498 4.684 5153 5153 0 0 1-32.182 9.736l-5.707 1.705c-80.583 24.234-162.595 43.482-245.184 59.49l-7.816 1.51c-30.978 5.986-61.974 11.57-93.21 16.035q-5.328.757-10.655 1.518c-33.911 4.857-67.847 9.454-101.887 13.32l-4.436.502c-39.858 4.551-79.81 7.811-119.847 10.32l-5.903.368c-34.377 2.159-68.752 4.317-103.173 5.644l-7.89.293c-53.919 2.081-107.842 2.183-161.794 2.188h-5.518c-10.715.003-21.43.005-32.144-.006l-10.094-.014c-28.39-.008-56.691-.651-85.049-2.119l-6.658-.353-14.719-.77q-11.307-.6-22.615-1.191c-14.742-.77-29.484-1.547-44.225-2.344l-7.183-.39c-27.607-1.5-55.199-3.021-82.742-5.446l-4.133-.367c-27.127-2.37-54.202-5.044-81.244-8.248q-6.27-.749-12.543-1.492-13.18-1.56-26.356-3.141l-10.857-1.307c-25.234-3.018-50.38-6.397-75.496-10.28l-4.63-.72c-22.95-3.55-45.864-7.272-68.75-11.226a5412 5412 0 0 0-15.128-2.604c-26.76-4.549-53.399-9.648-80.02-14.953l-6.101-1.217c-31.92-6.304-63.995-12.575-95.332-21.39a772 772 0 0 0-12.18-3.344c-10.407-2.753-20.76-5.604-31.05-8.766-5.906-1.827-11.813-3.605-17.762-5.285-11.006-3.044-21.96-6.155-32.832-9.648l-4.844-1.567c-47.314-15.05-95.967-28.658-141.063-49.687-3.696-1.765-7.397-3.52-11.132-5.2l-8.848-3.915-4.957-2.198c-11.872-5.239-23.597-10.688-35.195-16.51l-5.055-2.552-10.14-5.098a3838 3838 0 0 0-18.407-9.219c-31.113-15.431-61.969-35.69-88.64-57.87l-5.563-4.75c-18.337-14.5-34.422-31.914-48.973-50.169l-3.027-3.832c-16.753-20.605-28.58-43.896-34-70-6.224-32.555-.523-58.948 10-89.937 3.187-9.365 6.099-18.745 8.625-28.313 6.706-25.65 6.707-25.65 26.105-82.576 12.09-35.474 24.467-70.91 34.938-106.908 6.964-24.735 14.898-49.125 23.016-73.502l1.316-3.951a4864 4864 0 0 1 21.81-64.008c5.617-16.082 11.081-32.17 15.918-48.506 6.179-21 12.69-41.6 22.3-61.334l1.972-3.965c3.464-7.118 6.926-14.171 10.937-21 1.74-2.84 3.454-5.697 5.082-8.601 9.28-16.738 19.082-33.383 31.48-48.024q2.755-3.183 5.5-6.375c6.486-8.042 13.003-15.468 20.75-22.312l4.25-3.688c18.158-16.946 37.722-31.183 59.212-43.652l5.789-3.348c34.533-20.529 70.513-39.01 108.187-53.125 3.98-1.456 7.945-2.927 11.887-4.48 10.753-4.268 21.617-8.129 32.563-11.875 3.824-1.309 7.648-2.619 11.466-3.947 18.654-6.511 37.324-12.829 56.325-18.272l4.572-1.3a1729 1729 0 0 1 143.101-34.29 3474 3474 0 0 0 20.647-4.064c94.638-19.126 189.639-32.202 285.77-40.973l7.482-.674c67.537-6.116 135.221-10.355 203.023-11.81q7.113-.147 14.225-.315c36.767-.874 73.527-1.115 110.303-1.125m-36.21 31.117-4.653.008c-23.118.027-46.237-.017-69.341.903L1523 922c-140.91 5.738-285.102 13.635-423.672 41.145-4.801.961-9.604 1.908-14.416 2.814-27.193 5.08-53.882 11.438-80.62 18.526a2372 2372 0 0 1-31.849 8.218l-5.693 1.422A1244 1244 0 0 1 929 1003l7.312-2.75q4.346-1.621 8.688-3.25c6.346-2.452 12.587-4.45 19.187-6.062 4.012-.932 7.799-1.932 11.66-3.371 4.74-1.788 9.533-3.171 14.403-4.567 5.466-1.557 9.192-2.581 13.75-6-24.805-.278-24.805-.278-77.961 14.5a944 944 0 0 1-16.766 4.5c-33.072 8.382-65.932 17.322-98.162 28.557L807 1026c-26.207 9.174-52.44 19.076-77.434 31.227L726 1059c-35.278 17.112-69.935 36.643-98.25 64.125-19.965 20.49-36.608 41.147-44.125 69.25-3.381 15.867.683 29.374 5.375 44.625 7.841 20.362 21.053 40.123 37.187 54.813L631 1296c40.599 37.476 85.71 63.272 136.437 84.688q6.289 2.639 12.563 5.312c14.705 6.742 29.757 13.049 45.312 17.563a494 494 0 0 1 15.153 4.453c20.104 6.338 40.34 12.046 60.722 17.422 4.53 1.18 9.06 2.361 13.584 3.566 13.86 3.703 27.7 7.46 41.666 10.746 4.662 1.083 9.305 2.182 13.93 3.414 11.278 3.073 22.638 5.651 34.063 8.112a1416 1416 0 0 1 20.046 4.447c31.729 7.354 63.667 13.267 95.903 17.906 4.74.675 9.481 1.351 14.219 2.047 31.162 4.61 62.362 8.159 93.714 11.2 17.471 1.688 34.93 3.44 52.37 5.429 56.626 6.525 113.186 11.534 170.105 14.617l4.9.266c41.772 2.304 83.506 2.984 125.338 2.945l6.662-.008c54.278-.037 108.627.173 162.852-2.535 6.013-.312 12.028-.616 18.043-.894 30.875-1.41 61.622-3.466 92.398-6.309a4167 4167 0 0 1 27.703-2.492c47.494-4.086 94.835-8.732 142.098-15.004a6722 6722 0 0 1 21.895-2.889c42.295-5.479 83.96-12.171 125.78-20.498a5086 5086 0 0 1 17.925-3.558c30.456-5.962 60.62-13.086 90.494-21.508a840 840 0 0 1 20.633-5.664c91.567-23.726 194.996-53.785 269.117-115.149L2582 1309c4.351-3.702 8.458-7.458 12.5-11.5l4.5-4.5c3.828-3.314 7.542-6.493 10.937-10.25L2613 1279c7.52-8.808 13.676-17.83 19.172-28.031 8.52-16.543 11.677-32.384 10.828-50.969-2.334-19.254-9.367-36.998-20.063-53.125L2619 1142c-4.051-5.176-7.969-10.053-12.813-14.5L2602 1124c-30.65-28.342-65.345-48.62-103.313-65.687q-4.846-2.148-9.687-4.313c-21.987-10.6-44.889-19.002-68.04-26.693L2417 1026c-42.046-13.872-84.674-26.179-127.885-35.865L2284 989c-65.166-14.531-131.657-23.475-198.084-29.984l-5.479-.516c-11.188-1.066-22.193-1.774-33.437-1.5l-1 1 2 3c3.564.993 7.137 1.962 10.74 2.803l4.51 1.01c21.063 4.818 42.2 9.104 63.5 12.75q7.126 1.209 14.25 2.437c12.558 2.282 29.64 2.7 39.75 11.125 15.218 13.876 15.218 13.876 56.887 29.7 4.224 1.6 8.445 3.207 12.658 4.837l4.287 1.67 8.293 3.23c4.7 1.836 9.408 3.646 14.125 5.438 5.383 1.528 5.383 1.528 9 3v5c-7 0-7 0-11.781-.898-26.51-5.594-54.042-8.645-81.051-10.676-8.206-.487-21.507-3.256-29.168.574v6c11.411 11.412 11.411 11.412 53.437 30.75a1774 1774 0 0 1 32.852 15.485l5.71 2.765c5.43 2.552 10.714 5.154 16 8l1 4h-7c-7.704-3.232-14.697-5.017-22.917-6.283l-4.957-.717c-24.71-3.656-61.952-14.057-86.125-6l-1 5c4.088 5.45 4.088 5.45 20.383 12.93 21.93 9.58 43.779 19.158 64.117 31.887 6.332 4.085 11.847 7.317 18.937 10.058L2260 1149l1 4h-3c-3.981-3.089-7.311-5.745-12.063-7.5-10.342-3.142-19.865-7.354-29.375-12.437-10.46-5.607-20.703-11.368-32.562-13.063l1 3 5.312 2.813c11.292 5.846 22.683 13.183 31.688 22.187-3.394-.848-6.757-1.821-10.11-2.82q-7.891-2.381-15.789-4.75L2188 1138l-7.04-2.117-6.335-1.883c-6.199-1.852-12.14-3.642-18.625-4l-1 2c5 5 5 5 10.812 8.813L2171 1144c-3.317 0-3.317 0-11.313-4.437-5.273-2.933-8.667-4.56-14.687-5.563l-2 3 1 5 3.14 2.512L2151 1147c9.27 6.758 18.382 11.78 29.094 15.918q4.913 1.835 9.812 3.711l4.844 1.856c13.29 5.033 26.598 10.015 39.25 16.515l4 6 4.625 1.125 4.375.875c2 4 2 4 2 11-4.998-1.018-9.99-2.042-15-3-7.915-1.286-15.774-2.719-23.623-4.361l-4.19-.889c-8.058-1.696-16.064-3.455-24.03-5.543-9.624-2.651-18.054-5.037-28.157-4.207v2c2.679 1.786 5.43 3.464 8.187 5.125L2167 1196c-6.868-.46-12.144-2.072-18.438-4.812-4.746-2.082-4.746-2.082-8.562-3.188l-2 4c8.358 10.03 19.39 15.535 31.113 20.856L2174 1215a947 947 0 0 0 39.463 16.26L2218 1233c5.32 2.045 10.649 4.038 16 6 6 1.438 6 1.438 10 3v7l-1 1c-3.25-.399-6.5-.814-9.74-1.285l-4.385-.652a6883 6883 0 0 1-27.637-4.072l-7.172-1.073-14.629-2.168c-15.69-2.375-35.042-7.882-50.437-2.75l-1 4c12.807 17.03 31.7 26.537 50.824 34.797L2184 1279c10.964 4.74 21.898 9.559 32.988 13.996 5.115 1.997 9.594 3.69 14.012 7.004l1 6c-6 0-6 0-10.137-.883-26.68-6.128-55.024-8.355-82.3-10.203l-4.563-.289-4.389-.293c-5.53-.314-9.564-.855-14.611 1.668l1 5c16.402 18.496 39.002 27.954 61.5 36.75 6.502 2.493 12.944 5.004 19.308 7.828L2203 1348l4.504 2.063 4.058 1.937c4.13 1.938 4.13 1.938 7.438 4l2 5c-24.625-3.51-49.292-6.455-74.063-8.705l-6.125-.545c-12.23-1.107-24.536-2.585-36.812-1.75l-1 5c9.368 9.618 9.368 9.618 41.168 23.11 3.673 1.554 7.345 3.113 11.006 4.697 12.395 5.394 24.76 10.87 37.26 16.021l4.25 1.727q3.937 1.602 7.878 3.195c6.653 2.657 11.383 4.196 16.438 9.25v5l-4.012 1.176-5.988.824c-15.944 2.364-32.009 4.962-48.149 3.657L2157 1423c-22.02-2.424-43.898-5.707-65.785-9.105-89.4-13.893-179.601-27.007-270.117-30.469q-9.127-.336-18.25-.756-8.091-.388-16.182-.773l-8.354-.397c-9.6-.464-19.2-.898-28.804-1.283L1744 1380c-43.024-1.72-85.97-2.294-129.026-2.205q-9.735.02-19.47.02c-107.617-.007-215.846 1.308-322.828 14.154-6.685.808-13.375 1.542-20.07 2.25-18.503 1.954-36.97 3.946-55.376 6.691a3163 3163 0 0 1-21.84 3.202l-5.328.763a3285 3285 0 0 1-39.892 5.483c-15.633 2.048-31.21 4.133-46.72 6.978l-3.45.664v-3c4 0 4 0 9.312-1.187 16.69-3.935 33.413-7.42 50.305-10.367L1148 1402c24.677-4.319 49.35-8.47 74.166-11.924 7.603-1.054 15.201-2.113 22.783-3.31 42.967-6.79 86.28-11.432 129.533-15.98L1382 1370c41.773-4.378 83.546-8.368 125.437-11.449l7.563-.55a3644 3644 0 0 1 56.574-3.745L1576 1354c49.149-2.88 98.127-4.404 147.367-4.154l6.387.037q5.946.035 11.89.074c6.058.06 14.988 1.727 20.356-.957-4.375-2.916-4.375-2.916-45.438-6l-6.74-.5-6.506-.5c-7.246-.54-14.25-1.25-21.316-3v-2l3-4c9.869-1.844 9.87-1.844 32.172-3.09l6.515-.347q14.157-.792 28.313-1.563 10.794-.584 21.588-1.181l6.85-.381c6.156-.326 12.31-.664 18.464-1.047 7.143-.547 15.012-.333 21.098-4.39l1-5c-2.238-4.477-4.485-7.423-8-11-16.327-10.39-16.327-10.39-91.063-17.563-4.595-.434-9.19-.87-13.783-1.324l-4.314-.43c-4.668-.424-9.204-.955-13.84-1.684l-1-3c38.55-2.534 80.002-1.58 117.547-11.16 6.314-1.837 10.739-3.125 15.453-7.84l-1-7c-2.813-3.625-2.813-3.625-7-7-12.528-6.65-12.528-6.65-46.188-10.437-26.409-2.896-52.635-7.056-78.812-11.563l1-3c5.985-.994 5.985-.994 22.566-1.341 14.739-.29 29.465-.737 44.192-1.393l5.742-.266 5.572-.252 5.21-.248c10.154-.483 19.84-2.07 29.718-4.5 8.645-3.024 15.456-5.456 22-12l-1-5-6-5c-16.497-7.89-16.498-7.89-56.774-12.328-13.14-1.44-26.23-3.03-39.304-4.994l-5.235-.803-5.068-.77-4.732-.738c-4.964-.775-9.072-1.762-13.887-3.367v-2c6.385-.721 6.385-.722 23.342-1.672q4.312-.237 8.625-.48 6.985-.395 13.97-.785c23.333-1.29 47.326-1.271 70.063-7.063 7.25-2.085 13.536-3.535 19-9l-2-5c-15.316-8.533-32.442-11.554-49.664-13.3-19.571-1.866-39.133-3.928-58.588-6.778l-4.873-.734c-5.53-.75-10.459-1.71-15.875-3.188l-2-7c41.711.697 94.185 3.635 133-13v-5l-3-3c-12.527-7.754-12.526-7.754-45.174-10.57l-5.389-.43c-17.514-1.481-35.038-2.835-52.562-4.187l-6.76-.506-6.248-.475c-4.473-.333-8.613-.414-12.867-1.832v-2c5.691-2.845 5.691-2.845 49.875-6.375 10.052-.784 20.094-1.607 30.125-2.625 16.537-2.1 39.233-2.674 53-13l-1-6-2.938-2.625c-11.388-5.342-11.388-5.342-47.062-9.375-18.096-2.042-36.17-4.222-54.22-6.633l-6.905-.93-6.822-.886-6.31-.867c-5.693-.764-5.693-.764-9.743-1.684v-3l3.473-.476c4.51-.146 9.018-.308 13.527-.524 5.842-.834 11.647-1.443 17.523-1.95q4.334-.372 8.664-.75 7.407-.652 14.813-1.3c5.69-.492 11.38-.986 17.07-1.492l5.68-.508c13.737-1.174 26.784-2.898 40.105-6.648l5.332-1.727c5.418-1.71 5.418-1.71 9.813-3.625l3-5-1-5c-9.35-6.009-9.35-6.009-54.12-10.289-19.663-1.817-39.225-3.734-58.747-6.746q-6.57-1.033-13.147-2.031c-5.405-.817-10.715-1.48-15.986-2.934v-4l5.496-.941 7.941-.621c14.15-1.15 14.15-1.15 44.375-2.938 18.764-1.108 37.5-2.165 56.086-5.119 22.193-3.658 43.127-5.098 65.684-3.955 12.562.646 25.128 1.192 37.695 1.729q4.8.203 9.598.408c20.942.919 43.39 3.893 64.125.437v-1c-55.854-15.958-55.855-15.957-263.652-26.043-9.395-.452-18.786-.88-28.168-1.547-10.641-.8-21.256-1.506-31.924-1.835l-4.303-.122c-16.872-.473-33.735-.608-50.613-.586M1270 980c2.727 4.09 2.726 4.09 5.598 27.586q.59 4.898 1.189 9.795l.64 5.242c2.95 24.25 5.822 48.508 9.215 72.7 4.05 28.614 6.723 57.284 9.057 86.086l.55 6.904c.83 10.184 1.543 20.361 2.034 30.568l.139 5.475c.128 4.844.128 4.844-.422 8.644-5.563 3.338-5.563 3.337-17.1 5.227q-4.926.778-9.847 1.586-5.181.85-10.366 1.687c-12.05 1.941-24.102 3.857-36.125 5.961-10.63 1.874-21.227 3.691-31.937 5.04-5.962.743-11.897 1.542-17.832 2.476a3133 3133 0 0 1-46.871 7.334c-24.783 3.687-50.8 5.622-74.852 12.74-5.03 1.615-9.86 3.095-15.07 3.95l-2-2v-5c9.45-9.452 9.45-9.452 43.312-18.626 3.924-1.024 7.831-2.122 11.688-3.375 1-3 1-3 .504-6.793l-.942-4.394c-.87-4.418-.87-4.418-2.562-7.813-6.889 0-12.262.869-18.865 2.592l-4.073 1.096c-7.278 1.907-14.53 3.85-21.734 6.027-3.753 1.172-7.537 2.242-11.328 3.285l-4-2c-1-7-1-7 0-10 6.597-4.433 6.597-4.433 22.1-9.46 10.9-3.469 23.376-6.082 32.9-12.54 0-8.263-.352-11.703-4-19l-3.82.407c-13.092 4.028-26.608 7.355-40.125 9.566-6.925.808-11.506 1.647-18.055-.973l-1-7 3.25-1.75c15.297-4.025 30.535-8.384 45.312-14.062L1070 1175l5-2v-4c-6.542 1.423-12.889 2.964-19.25 5.063L1050 1176q-4.503.987-9 2c-7.177 2.722-13.311 4.555-21 5v-2l3-3 4.039-.972c4.96-1.028 4.96-1.028 9.984-2.649 9.3-3.156 18.089-5.728 27.852-6.941 4.742-.442 4.742-.442 8.125-1.438 0-5.965-.723-11.184-2-17-2.192 0-2.192 0-17.125 3.375-14.103 3.234-28.317 6.277-42.875 5.625-3-1-3-1-8-5l-1-6c8.759-4.812 17.847-8.187 27.316-11.33l4.184-1.357c6.902-2.298 13.746-4.672 20.836-6.32 3.599-.824 7.14-1.889 10.664-2.993.947-5.74.837-9.488-1-15-4.441.17-4.441.17-21.428 3.07-15.38 2.635-30.988 5.993-46.572 6.93l-4-2-1-5c4-4 4-4 7.535-5.5l4.527-1.5 5.332-1.8q7.722-2.57 15.43-5.18l9.426-3.207c8.203-2.754 17.561-4.916 24.75-9.813 0-6 0-6-2-13-3 0-3 0-6.71.778-10.309 2.321-20.557 4.072-31.046 5.351l-5.307.621c-10.018 1.237-19.823 2.526-29.937 2.25l-1-1-1-4c3-3 3-3 8.406-4.875a2899 2899 0 0 0 10.914-3.285l4.016-1.223a3665 3665 0 0 0 23.068-7.03l4.72-1.462c6.68-2.026 13.848-3.097 18.876-8.125 0-6.687 0-6.687-1-13-5 0-5 0-9.942.844-21.722 4.146-49.478 12.322-71.058 6.156l-1-4c5-2 5-2 9.148-2.754 11.338-1.754 22.534-3.976 33.723-6.498l5.191-1.185c8.939-2.01 17.637-4.115 26.309-7.098 11.876-4.416 23.734-7.48 36.117-10.068l6.2-1.272c14.94-3.1 29.89-6.025 44.937-8.562A402 402 0 0 0 1144 1001c6-3 5.999-2.999 11.762-4.238l7.066-1.215c4.041-.7 8.082-1.395 12.127-2.076l4.295-.72c29.62-5.035 60.696-12.75 90.75-12.75m1159.437 127.937C2434 1109 2434 1109 2438 1112c-3.06 21.419-7.84 42.1-13.484 62.975-7.762 28.654-15.049 57.424-22.297 86.21l-3.328 13.218q-2.727 10.82-5.444 21.644l-2.072 8.266c-2.83 11.265-5.733 22.515-8.324 33.838l-.961 4.261q-.935 4.128-1.864 8.256l-1.662 7.52C2376.999 1364 2377 1364 2374 1367c-7.46 3.449-14.77 7.024-23 8l-1-3c3.13-6.728 5.07-13.123 6.584-20.4 4.264-20.838 9.853-41.213 15.709-61.65q3.659-12.757 7.29-25.52l1.917-6.742c4.845-17.035 9.508-34.103 13.937-51.25 5.23-20.259 10.471-40.484 17.188-60.313 2.498-7.294 4.644-14.61 6.625-22.062 1.522-5.912 3.002-10.568 5.75-16.063zM793 1128h2c3.144 5.241 4.959 10.472 6.869 16.256q1.465 4.498 2.943 8.992l1.485 4.514c1.45 4.427 2.91 8.847 4.406 13.258 9.13 26.737 9.13 26.737 24.125 81.418 1.953 7.13 3.917 14.255 5.906 21.375 4.018 14.371 7.974 28.754 11.766 43.187 1.914 7.32 3.836 14.637 5.879 21.922l1.441 5.07q1.4 4.943 2.805 9.883l1.365 4.703c1.549 5.45 3.416 9.8 2.01 15.422l-3-1c-5.08-6.348-7.267-12.575-9.61-20.314l-1.57-5.752-1.795-6.524c-5.092-18.678-10.26-37.334-15.623-55.937-4.582-15.881-9.095-31.76-13.152-47.785-2.5-9.912-5.072-19.79-7.82-29.637a3949 3949 0 0 1-11.307-41.062l-1.623-6.051c-2.86-10.592-5.8-21.084-7.5-31.938m1914 134-2 2c-2.667 5.335-5.665 9.73-9.274 14.45L2693 1282c-25.383 33.75-58.05 60.305-93.207 83.508L2596 1368c-15.726 10.434-32.024 19.747-49.063 27.875-4.963 2.322-9.93 4.618-14.824 7.082-18.896 9.723-18.896 9.723-64.117 26.801L2462 1432c-67.478 25.282-137.094 45.74-207.074 62.832L2246 1497c-14.333 3.567-28.686 6.985-43.127 10.088l-4.873 1.037c-13.166 2.826-26.386 5.207-39.66 7.465q-6.478 1.094-12.953 2.197c-39.934 6.82-79.844 13.926-120.098 18.6q-5.49.637-10.977 1.297-15.81 1.907-31.636 3.683c-6.258.696-12.516 1.388-18.772 2.096-50.686 5.752-101.382 10.083-152.296 13.252l-4.607.285c-45.804 2.836-91.674 4.41-137.54 5.86l-4.46.14c-30.658.963-61.312 1.086-91.983 1.12l-6.205.005c-34.347.049-68.661-.314-102.982-1.77l-5.08-.23q-5.997-.267-11.992-.539c-6.507-.3-13.012-.598-19.52-.875-40.766-1.736-81.344-4.76-121.984-8.336q-4.156-.366-8.313-.73c-27.547-2.406-55.07-4.97-82.562-7.945l-6.38-.7v3l3.95 1.055 5.598.96 6.289 1.093 6.914 1.142a1794 1794 0 0 0 73.417 10.775l7.832.976c101.313 12.652 202.948 24.477 304.83 31.418 19.2 1.306 39.316 1.72 58.197 5.621 8.864 2.28 16.936 3.57 26.047 3.875l4.926.086c15.426.29 15.426.29 59.658-.86l5.342-.14q6.99-.181 13.98-.379l4.145-.12c6.45-.189 12.822-.396 19.242-1.032l3.633-.469v2c-7.789 0-15.3.966-23 2-13.033 1.755-26.054 3.427-39.145 4.69l-7.879.728c-5.491.51-10.983 1.02-16.476 1.52-14.705 1.278-29.197 2.588-43.652 5.652-19.276 4.441-19.276 4.441-79.344 8.078q-7.377.444-14.754.895l-7.688.5c-3.693.23-7.387.504-11.062.937v2c6 1 6 1 10.55 1.395 13.259.962 26.512 1.98 39.764 3.027l6.498.516c16.938 1.298 35.02 1.567 51.188 7.125 8.053 3.12 16.205 3.833 24.793 4.332l7.394.195c18.133.49 36.27.71 54.407.912q5.492.06 10.984.125 12.793.153 25.586.297l6.836.076c-25.557 2.398-51.105 4.945-76.75 6.188-16.711.809-33 1.58-49.25 5.812-8.267 2.265-16.416 3.776-24.897 4.89l-4.916.61c-20.023 2.518-40.072 3.803-60.214 4.922-2.994.155-5.986.335-8.973.578l-1 1c3.992 2.662 3.993 2.662 25.476 4.715q6.02.503 12.04 1.02 6.648.575 13.296 1.14c14.446 1.199 29.051 1.902 43.2 5.196 13.845 3.5 27.533 4.159 41.75 4.181l6.21-.021q6.645-.001 13.288-.006a8963 8963 0 0 1 20.742-.04q6.81.001 13.623-.007l6.535-.01c10.772-.006 21.513-.01 32.268-.677l6.572-.49v2c-9.708-.146-19.254.576-28.899 1.665-16.713 2.051-33.44 3.512-50.226 4.834-20.02 1.573-42.612.992-61.625 8.063-10.435 4.07-10.434 4.069-33.229 5.527-14.741.907-29.48 1.88-44.2 3.092l-4.509.38a321 321 0 0 0-14.312 1.438l-1 2c5.27 1.151 10.437 2.049 15.803 2.639l6.36.545 7.095.623c21.099 1.807 43.257 2.225 63.904 7.195 15.679 4.479 30.83 5.226 47.04 5.225l6.743-.031c7.234-.01 14.468-.02 21.701-.045q7.528-.026 15.055-.041 20.199-.032 40.397-.096l3.902-.014c-6.053.452-12.086.89-18.113 1.614-10.974 1.475-21.96 2.728-32.977 3.822l-5.098.502q-10.405 1.037-20.812 2.062c-14.792 1.415-29.627 2.56-44.223 5.41-32.063 7.032-64.888 9.5-97.638 11.047-7.07.323-14.127.553-21.14 1.543l-1 2c8.009 1.49 15.927 2.397 24.054 2.938l4.49.281c4.872.322 9.744.645 14.617.959q7.492.48 14.982.967l9.65.637c13.342.84 26.801 1.58 39.88 4.472 7.878 2.03 15.53 3.623 23.662 4.184l6.787.18c3.913.106 7.827.212 11.74.298l4.139.084c9.986.202 19.972.365 29.959.502q4.432.061 8.863.125 10.336.151 20.672.297l5.506.076c-10.672 1.92-21.166 3.416-31.98 4.178q-5.043.332-10.085.691l-5.314.381c-8.58.604-17.158 1.214-25.732 1.881l-4.702.37c-7.443.538-14.675 1.13-21.949 2.906-9.232 2.808-18.304 4.934-27.898 6.076l-4.153.455c-19.711 2.212-39.514 3.33-59.314 4.431l-4.295.237-8.062.465c-4.178.228-8.354.505-12.516.93v2c4.861 2.43 4.862 2.43 43.228 5.128 13.515.928 27.032 1.825 40.528 3.002l4.119.37c4.716.416 9.427.907 14.125 1.5 15.881 4.05 31.104 5.227 47.437 5.226l6.414-.031c6.887-.01 13.773-.02 20.659-.045q7.162-.026 14.326-.041 19.225-.032 38.451-.096l3.713-.014v2c-5.645-.155-10.963.113-16.58.77-12.286 1.72-24.555 3.32-36.912 4.431l-4.164.362q-8.421.731-16.844 1.437c-14.912 1.238-29.788 2.355-44.531 5-22.875 4.236-45.918 5.989-69.086 7.735q-7.889.592-15.776 1.191l-10.033.77c-6.332.47-13.035.291-19.074 2.304 7.333 3.667 7.333 3.667 44.937 6 9.98.609 19.954 1.237 29.922 2.012l4.578.363c8.435.607 16.463 1.461 24.66 3.602 12.559 3.604 25.013 4.25 37.993 4.224l5.597-.04a7677 7677 0 0 0 18.084-.065q9.355-.05 18.71-.086l11.894-.037 5.646-.035 5.252-.02c5.488-.03 10.245.3 15.727 1.082-16.515 2.744-33.088 4.372-49.75 5.938-20.316 1.89-40.36 4.158-60.346 8.338-12.938 2.727-25.663 4.647-38.838 5.79l-7.004.56a2186 2186 0 0 1-58.625 4.124l-6.552.35-5.952.322c-2.98.153-5.96.329-8.933.578v1c7 2 7 2 12.648 2.532l6.727.398 7.549.465q10.25.61 20.5 1.265l4.181.27c12.239.784 24.472 1.615 36.698 2.582l6.01.488c8.317.63 16.652 1.034 24.783 2.98 13.942 3.884 13.94 3.884 48.242 4.286l5.306.05q8.628.098 17.256.186 5.97.06 11.938.125 13.846.154 27.693.297l7.469.076c-4.635 1.159-4.636 1.159-18.02 2.713l-5.855.662a924 924 0 0 1-49.875 4.25c-13.003.683-25.47 1.81-38.25 4.375-16.202 4.403-16.202 4.403-75.125 7-5.677.246-11.355.494-17.031.754l-5.352.246q-4.98.206-9.957.438c-7.535.562-7.535.562-10.535 2.562 18.202 2.573 36.4 4.024 54.728 5.252 19.113 1.275 38.27 2.273 57.272 4.748 16.996 3.935 16.996 3.935 77.937 4.5q8.444.076 16.887.162l5.328.057c8.367.067 16.546.095 24.848 1.281-15.17 1.898-30.34 3.771-45.553 5.305l-4.096.406-8.294.824c-18.968 1.883-38.009 3.469-56.772 6.893-35.946 6.879-35.946 6.878-111.965 9.178-4.088.111-8.594-.469-12.32 1.394 4 2 4 2 7.586 2.532l4.566.414 5.446.5 6.402.554q10.057.876 20.117 1.733c21.386 1.815 42.809 3.405 64.115 6.015 34.111 4.269 34.111 4.267 134.983 5.192l6.785.06c-25.34 5.068-51.488 7.234-77.25 8.688-16.636.927-33.268 1.732-49.75 4.312-9.364 2.486-18.547 4.04-28.147 5.246l-6.353.754c-25.334 3.016-50.62 4.389-76.094 5.457-7.835.303-15.602.774-23.406 1.543l1 2c4.342.516 8.688 1.006 13.043 1.395l5.77.48c19.15 1.658 38.317 2.964 57.5 4.188 13.79.833 27.52 1.69 41.23 3.433 15.075 1.988 30.05 3.655 45.26 4.036l4.947.093c25.278.544 25.277.544 83.057.39l5.193-.015v2c-5 0-5 0-10.688.551-13.923 1.45-27.835 2.668-41.804 3.58-24.657 1.579-49.97 2.02-74.258 6.807-26.607 5.285-54.115 6.6-81.166 7.836l-5.084.226c-14.115.638-28.23 1.257-42.348 1.848l-3.652.152 2 2 6.752.54c5.06.274 10.058.631 15.107 1.107 12.839 1.308 25.677 2.508 38.543 3.508l4.969.38q10.032.77 20.066 1.528 7.696.573 15.391 1.162l4.855.373c8.248.604 16.351 1.028 24.317 3.402 4.678 1.415 8.723 2.037 13.63 2.28l6.57.039c3.808.03 7.616.06 11.425.078q4.076.017 8.152.045 10.689.08 21.377.136 11.075.06 22.149.135 21.54.146 43.082.262l4.615.025c-21.37 3.053-21.37 3.053-81 7.125-10.977.731-21.95 1.487-32.918 2.332l-5.395.473c-4.675.406-4.675.406-8.687 1.07-9.146 4.573-9.145 4.572-32.02 6.496l-6.293.504a1357 1357 0 0 1-56.941 3.405c-9.597.367-19.188.638-28.746 1.595v2a195 195 0 0 0 12.195 1.635q5.87.553 11.74 1.111l4.29.41a4615 4615 0 0 1 33.69 3.352q4.2.436 8.397.867c15.782 1.574 31.425 3.22 47.008 6.278 9.935 2.09 19.635 3.308 29.766 3.945l7.914.402c26.51 1.416 52.949 2.151 79.5 2.063l7.342-.049 6.752-.041c3.468-.031 6.938-.037 10.406.027l1 1c-29.973 4.06-59.838 7.221-90.063 8.688-16.928.762-34.529.534-51.138 4.252-17.71 4.496-17.708 4.496-64.326 6.437q-6.78.28-13.56.567l-8.663.373c-6.881.285-13.46.552-20.25 1.683l2 2c3.254.413 6.513.802 9.781 1.09l4.344.348c16.876 1.41 33.776 2.312 50.687 3.187l7.518.373 7.064.354c6.004.29 11.675.66 17.606 1.648l4 2 5 2c-2.125 4.813-2.125 4.813-5 10-6 3-6 3-10.264 3.393l-4.998.023-5.691.051-6.164.01c-6.625.049-13.25.093-19.875.121-8.97.034-17.939.09-26.909.148l-6.529.043c-18.872.114-37.712.466-56.57 1.211l3 2c10.5.919 10.5.919 34.072 1.545l6.842.174q14.856.395 29.71.781 11.286.292 22.571.592l7.156.19c10.896.276 21.792.448 32.665 1.244 216.934 3.38 391.765-13.062 560.652-45.498l5.332-1.028c72.997-13.854 146.019-30.454 217.316-51.437a1088 1088 0 0 1 12.7-3.7l3.761-1.05 6.66-1.875c5.383-1.504 8.624-1.999 12.563-5.938-3.203-16.013-3.202-16.012-20.875-85.287-6.535-25.6-13.086-51.192-19.188-76.9-2.129-9.038-4.252-18.074-6.505-27.082-4.022-15.957-7.876-31.945-11.635-47.965-5.154-21.99-10.252-43.995-15.797-65.89a1917 1917 0 0 1-7.408-30.163l-1.155-4.9q-2.22-9.406-4.437-18.813c-3.893-16.532-7.964-32.996-12.377-49.398a1720 1720 0 0 1-21.473-89.121l-1.65-7.793-1.604-7.563-1.49-7.113c-1.46-6.963-3.108-13.888-3.406-21.012 3-2 3-2 8.078-3.722 3.649-1.2 7.295-2.411 10.912-3.703 18.662-6.807 37.343-13.443 56.26-19.512 9.772-3.102 19.47-6.285 29.078-9.867 4.794-1.821 9.146-3.298 14.172-4.383 17.089-3.086 17.089-3.086 53-20.188a870 870 0 0 1 16.113-7.687c11.42-5.255 22.758-10.586 33.95-16.313 3.105-1.62 6.241-3.189 9.437-4.625l3 1 1.586 4.887c3.306 12.568 6.926 24.913 11.162 37.195 5.592 16.07 10.992 32.161 15.908 48.453l1.344 4.465c6.696 22.16 13.388 44.322 19.812 66.563a2422 2422 0 0 0 18.147 59.98c15.207 47.9 30.128 95.93 44.014 144.23 6.466 22.507 13.293 44.893 20.19 67.27l3.58 11.618 1.67 5.425q3.032 9.843 6.056 19.688 1.264 4.114 2.53 8.226c3.035 9.691 5.968 19.193 7.813 29.188l1.188 6.812 1 1c5-1 5-1 8.562-3.5 5.409-4.266 10.907-8.393 16.438-12.5 6.498-4.436 12.823-8.857 18.937-13.812l6.063-5.188q3.626-3.092 7.25-6.187l6.75-5.813 4.062-3.437c24.221-21.914 46.515-48.373 57.375-79.563 1.722-6.61 3.177-11.563 1.489-18.261l-1.614-4.426-1.695-4.785c-1.317-3.687-2.516-7.415-3.68-11.153a895 895 0 0 0-3.117-10.097c-1.756-5.536-3.484-11.068-5.039-16.664a464 464 0 0 0-8.32-27.344c-7.816-22.842-14.8-45.955-21.59-69.121-6.567-22.47-13.374-44.86-20.594-67.13l-2.277-7.019c-4.096-12.813-8.148-25.636-12.54-38.351-4.281-12.236-8.384-24.473-12.085-36.899-4.337-14.687-8.879-29.3-13.738-43.824a728 728 0 0 1-6.887-21.55c-5.571-18.42-11.306-36.786-17.059-55.15l-1.441-4.6a2391 2391 0 0 0-5.25-16.626c-2.825-8.392-5.569-16.784-8.129-25.261-5.2-17.306-10.41-34.613-15.941-51.817l-1.555-4.797c-1.626-5.164-3.347-10.094-5.375-15.125zm-2180 29-1 1c-1.082 22.504-1.082 22.504-17.063 71.75-2.764 8.499-5.509 16.998-8.062 25.563-5.74 19.425-11.818 38.741-18.04 58.017l-4.945 15.297-2.43 7.526a2487 2487 0 0 0-6.187 19.347c-2.624 8.407-5.366 16.74-8.357 25.024-6.69 18.478-12.693 37.154-18.592 55.898a3984 3984 0 0 1-5.09 16.121c-3.27 10.245-6.498 20.5-9.658 30.78-6.66 21.668-13.526 43.266-20.455 64.85q-5.174 16.102-10.332 32.21l-2.04 6.367c-3.176 9.908-6.36 19.814-9.47 29.742l-3.207 10.293-1.51 4.84c-3.29 10.559-6.815 20.931-10.812 31.25-2.839 6.996-3.75 10.359-3.75 18.125 4.303 12.91 11.703 23.495 20 34.125l4 4.875c11.182 14.1 24.034 26.716 38 38.063 2.68 2.11 5.35 4.236 7.945 6.449 16.067 13.837 33.75 28.48 53.055 37.488l3-2 .988-5.422C494 1922 494 1922 495.48 1916.422l1.707-5.672 1.891-6.336a1490 1490 0 0 0 3.656-12.39c2.337-8.091 4.698-16.172 7.168-24.223 6.413-20.685 12.462-41.46 18.348-62.3a551 551 0 0 1 2.75-9.5c4.56-13.487 8.713-27.083 12.812-40.716l2.526-8.396c5.166-17.151 10.284-34.314 15.287-51.514 3.243-11.155 6.546-22.283 10-33.375 2.63-8.385 5.232-16.776 7.783-25.185l1.213-4.006q4.664-15.398 9.27-30.815l1.293-4.334 5.253-17.597c10.33-34.727 21.259-69.268 33.102-103.512l1.613-4.64q1.61-4.644 3.223-9.286c2.475-7.024 4.972-13.982 6.758-21.218.885-3.82 1.867-7.616 2.867-11.407h3c18.29 10.974 38.417 19.5 58.562 26.375 5.504 1.774 5.504 1.774 9.438 3.625 0 5 0 5-.852 8.66L713 1473c-3.757 16.635-8.23 32.944-13.067 49.293-5.777 19.518-11.375 39.084-16.935 58.664L681 1588q-3.511 12.364-7.006 24.733l-2.37 8.392c-4.412 15.577-8.744 31.166-12.753 46.852a1198 1198 0 0 1-8.84 32.73c-3.446 11.988-6.946 23.967-10.07 36.043-2.875 11.335-5.883 22.602-9.211 33.813-4.371 14.697-8.647 29.42-12.89 44.154l-2.548 8.846c-3.792 13.16-7.594 26.317-11.295 39.504-2.42 8.676-4.815 17.356-7.388 25.988a5060 5060 0 0 0-10.567 35.258c-1.763 5.984-3.532 11.965-5.367 17.928l-1.383 4.466q-1.374 4.46-2.75 8.918c-2.516 8.017-5.354 15.901-5.562 24.375 4.275 4.276 4.275 4.276 25 12 9.978 3.653 19.811 7.548 29.625 11.625 18.986 7.903 38.008 15.808 57.316 22.895L687 2028c19.34 7.258 39.614 15.866 60.328 17.621 6.672.38 6.672.38 10.895 1.07l3.84.872 4.831 1.066c6.49 1.458 12.985 2.888 19.483 4.309l4.873 1.062c10.535 2.296 21.057 4.498 31.687 6.313q5.034.829 10.063 1.687c6.78 1.476 13.363 2.924 20.25 3.75 4.75.25 4.75.25 6.75-.75v-4l-3-5c-16.184-12.585-16.183-12.586-59.277-30.615l-4.536-1.885c-5.368-2.243-10.729-4.484-16.187-6.5-3.68-.95-7.353-1.93-11-3l-1.313-3.937C765 2006 765 2006 767 2002h4c29.276 8.365 68.563 19.002 99 13l1-5c-12.218-14.66-12.218-14.66-52-30.812-6.272-2.48-12.499-4.961-18.645-7.739L795 1969l-5.45-2.21-5.238-2.165c-5.324-2.148-5.324-2.148-9.312-4.625v-7l1-1c6 0 6 0 10.715 1.282 28.17 7.703 62.108 14.737 91.285 11.718l4-3 1-5c-3.983-4.223-7.882-6.936-12.988-9.695l-5.325-2.43-5.3-2.445L854 1940c-5.314-2.457-10.607-4.844-16.05-7a875 875 0 0 1-30.028-12.027l-4.047-1.723c-7.318-3.058-13.155-5.53-18.875-11.25l1-6c3.656.012 3.656.012 8 1 20.044 5.59 20.043 5.59 62.406 9.346l4.719.404c10.31.893 20.515 1.597 30.875 1.25l2-2v-5c-12.786-12.785-30.766-19.597-47.625-25.375-9.762-3.327-19.254-7.16-28.738-11.207L812 1868c-5.275-2.117-10.004-4.241-15-7v-7l1-1c7 0 7 0 11.504.77 17.744 3.658 35.513 5.966 53.521 7.863l5.35.555c6.537.694 13.067 1.346 19.625 1.812 6.943.273 13.652 1.174 20-2v-5c-8.707-9.234-18.782-13.923-30.438-18.562L871 1836c-6.423-2.602-12.812-5.224-19.344-7.539-6.252-2.161-12.359-4.328-18.406-7.023L828 1819c-6.155-2.329-11.73-4.048-17-8v-6l1-1c4-1 4-1 8.805-.18 21.41 4.602 42.89 8.41 64.636 11l4.809.555c9.023 1.07 17.708 2.12 26.75.625l1-1-1-7c-12.42-10.867-26.994-17.338-42.25-23.312a1027 1027 0 0 1-30.375-12.188A760 760 0 0 0 831 1767c-3.357-.917-6.703-1.886-10-3v-4l3-5c5 0 4.999.001 8.898.672l4.618.938 5.181 1.033c20.352 4.06 40.606 7.627 61.303 9.357 8.853.385 18.895 2.053 27-2v-4c-8.29-8.29-8.29-8.29-40.063-22.562a1187 1187 0 0 1-21.086-9.621L866 1727q-4.846-2.279-9.688-4.562-4.65-2.233-9.312-4.438c-7.25-3.125-7.25-3.125-12-6l1-7c7.36 1.276 14.73 2.4 22.125 3.438 5.006.699 9.993 1.4 14.965 2.316 10.857 2.04 21.722 2.992 32.722 3.871 5.732.44 11.46.895 17.188 1.375 5.996 1.2 12.107 1.965 18 0l1-4-2-3c-12.054-9.378-12.054-9.378-51.734-26.715l-3.954-1.722c-8.98-3.927-17.976-7.575-27.187-10.938-4.805-1.648-4.805-1.648-8.125-3.625v-7l1-1c8 0 8 0 12.988.88 5.916 1.102 11.824 1.878 17.801 2.566l4.398.492c14.545 1.642 29.102 3.1 43.676 4.449L936 1667l7.668.707C950 1668 950 1668 954 1666v-5c-3-4-3-4-7.059-6.418L942 1652c-14.828-7.891-29.654-15.854-45.063-22.562-3.958-1.699-7.89-3.415-11.785-5.254-5.008-2.398-9.924-4.752-15.168-6.594-3.357-1.111-6.675-2.34-9.984-3.59l-1-4 2-5c6.034-1.005 10.698-.438 16.685.537 12.767 2.14 25.488 3.893 38.377 5.088 9.43.843 18.803 1.824 28.188 3.063 7.317 1.01 14.356 1.625 21.75 1.312l1-2-2-6c-10.669-9.166-10.669-9.166-47.25-24.125-8.397-3.391-16.739-6.813-24.938-10.664l-6.812-3.21c-5.204-2.037-9.067-3.068-13-7 0-7 0-7 1-9 4.187-.188 4.187-.188 9 0 18.918 3.152 37.986 5.66 57.062 7.624 7.987.802 15.844 1.804 23.75 3.188 6.485 1.245 8.457 1.11 15.188-.813v-6c-3.432-3.636-6.662-5.832-11.137-8.054l-4.55-1.82-5.06-2.044L953 1543c-9.004-3.687-17.97-7.312-27.188-10.437-6.801-2.178-6.801-2.178-20.5-7.25A295 295 0 0 0 893 1521a377 377 0 0 1-12-2c-1.24-4.96-1.24-4.96 2-19l2-1c6.326 1.055 12.66 2.033 19 3 15.38 2.296 30.753 4.595 46.086 7.188 12.736 2.161 25.475 4.22 38.262 6.064 13.11 1.88 26.203 3.787 39.253 6.051 11.783 2.066 23.567 4.09 35.393 5.895l4.506.677c8.878 1.371 17.492 2.39 26.5 2.125l-2-2c-3.504-.821-7.011-1.629-10.535-2.36q-4.466-.902-8.928-1.827l-4.584-.953c-17.044-3.525-34.008-7.391-50.953-11.36-7.403-1.738-14.806-3.457-22.23-5.101-9.645-2.112-19.283-4.2-28.833-6.711q-4.968-1.346-9.937-2.688c-34.65-8.96-69.158-18.578-103.172-29.73q-5.51-1.833-11.025-3.65c-17.765-5.843-35.46-11.835-53.053-18.178q-6.996-2.53-14-5.04l-7.25-2.59c-6.35-2.27-12.701-4.534-19.07-6.75-26.632-9.22-52.768-19.95-77.582-33.382L666 1395a2253 2253 0 0 1-20.324-11.234L639 1380c-11.862-6.69-23.384-13.818-34.754-21.31l-4.434-2.94c-7.41-4.9-14.653-9.829-21.613-15.36l-5.2-4.39c-6.925-5.522-13.471-11.196-19.751-17.43l-2.936-2.945c-5.72-5.627-11.02-11.224-15.77-17.726C531 1293 531 1293 527 1291m-284 494 1 4c-2 6-2 6-3.438 12.813q-.779 4.094-1.562 8.187c-3.315 15.098-4.286 30.145-2.461 45.551 4.878 26.668 26.462 54.762 43.71 75.2l4.75 5.25c19.469 22.944 43.064 42.745 66.688 61.25 7.854 6.148 15.59 12.438 23.313 18.75l5.5 4.5 5.5 4.5c22.488 18.623 46.7 33.25 72.265 47.32l6.735 3.68c10.783 5.91 21.55 11.837 32.562 17.312 12.18 6.014 23.938 12.451 35.438 19.687l-3 1c-3.338-1.107-6.67-2.235-9.965-3.466l-4.16-1.596c-35.116-13.333-70.24-28.152-103.375-45.875a796 796 0 0 0-12.965-6.906c-20.015-10.368-39.67-21.05-58.098-34.094a522 522 0 0 0-9.539-6.985c-7.61-5.42-15.084-10.934-22.336-16.828L302 1992c-17.602-13.801-33.795-30.19-46-49-14.421-24.446-29.814-56.112-31.235-84.718-.397-26.242 5.571-50.216 18.235-73.282m2747 4 2 1c7.126 13.12 12.23 27.005 15.898 41.461 5.563 27.97 6.08 56.308-2.898 83.54-15.384 36.302-44.38 66.348-75.254 90.12l-3.746 2.88c-10.386 8.278-20.898 15.603-32.375 22.304L2889 2033c-10.097 6.361-20.424 12.12-30.934 17.762L2852 2054c-11.178 6.01-22.431 11.776-33.918 17.176L2812 2074c-34.679 16.16-69.885 29.667-106.096 41.996L2700 2118c-28.968 9.841-58.074 19.113-87.485 27.555a3213 3213 0 0 0-13.333 3.85c-42.763 12.473-85.922 22.952-129.415 32.55-6.015 1.326-12.029 2.65-18.035 4.018-53.044 12.165-106.65 21.34-160.435 29.549l-7.297 1.103-7.02 1.077-6.48.962c-6.166.925-10.318 1.367-16.5.336l1-2c9.366-2.495 9.366-2.495 32.598-6.33 37.014-6.08 73.767-13.165 110.283-21.75l4.431-1.045a2561 2561 0 0 0 56.854-14.093q5.997-1.565 11.998-3.11A10098 10098 0 0 0 2501 2163c41.532-10.659 82.483-22.804 122.75-37.562 8.521-3.145 17.032-6.308 25.603-9.315 6.808-2.364 13.601-4.718 20.323-7.318l4.636-1.93 5.551-2.304 6.137-2.57c9.012-3.75 18.019-7.511 27.01-11.311l3.99-1.69c34.903-14.773 69.123-31.059 101.96-50.023L2824 2036c8.922-5.248 17.686-10.668 26.299-16.412l3.763-2.525c17.945-11.948 35.89-24.178 52.25-38.25q3.337-2.914 6.688-5.813c24.177-19.341 45.896-43.274 61.004-70.34L2976 1899c7.205-13.077 12.572-26.744 17-41 4.375-18.166 4.98-38.196 0-56.25-2-6.75-2-6.75-3-12.75M576 2112c8.34 2.108 16.358 4.8 24.437 7.75 25.405 9.358 50.94 18.24 77.2 24.899 3.257.82 6.51 1.655 9.757 2.515 71.362 19.09 143.983 37.212 217.23 47.274 13.526 1.83 27 3.907 40.477 6.066 45.253 7.27 112.69 30.232 156.899 15.496-5-2-5-2-10.305-2.86-44.278-6.001-89.864-14.982-132.172-29.562L955 2182c-5.507-1.795-10.657-3.71-16-6v-3c3.7.617 7.392 1.301 11.058 2.094 38.926 8.581 78.027 15.388 117.473 21.096q13.053 1.89 26.098 3.84c59.468 8.888 118.768 17.296 178.8 21.39q6.53.441 13.06.89c65.723 4.558 131.465 8.452 197.3 10.964 10.216.388 20.426.822 30.635 1.361 56.678 2.995 56.677 2.996 186.523 2.416l17.033-.078c40.002-.177 80.005-.36 120.006-.58 33.673-.187 67.345-.401 101.018-.475l6.86-.011 6.355-.02 5.58-.002c3.62-.005 6.939-.516 10.2 1.115l-1 3c-15.084 4.544-15.083 4.544-56.358 5.81q-6.05.168-12.098.345c-30.622.906-61.248 1.596-91.875 2.257-53.484 1.154-107.026 2-160.455 4.78-20.781 1.136-41.553 2.13-62.358 2.695L1578 2256l1 2c28.372 8.107 28.373 8.107 139.182 8.186l6.943.002c45.502.022 90.769-.944 136.18-3.916q4.15-.273 8.302-.543c11.428-.74 22.856-1.478 34.28-2.287L1910 2259v3c-5.67 1.89-11.087 2.887-16.986 3.75l-4.452.625c-16.109 2.272-32.241 4.1-48.433 5.664-4.984.472-9.968.944-14.95 1.44-61.094 6.078-122.584 9.121-183.93 11.367l-4.25.154a3238 3238 0 0 1-196.948 1.252l-5.114-.127c-38.265-.93-76.348-3.12-114.494-6.293l-6.193-.52c-30.896-2.575-61.682-5.415-92.422-9.488a1681 1681 0 0 0-26.123-3.294c-33.496-3.934-66.902-8.285-100.254-13.31l-5.576-.845c-74.39-11.192-147.568-27.29-220.738-44.644l-9.233-2.194-4.994-1.185q-7.33-1.741-14.664-3.475c-7.862-1.852-15.724-3.709-23.582-5.58a3118 3118 0 0 0-14.565-3.44c-24.142-5.627-47.91-12.121-71.626-19.341-5.587-1.712-11.174-3.425-16.766-5.12-20.59-6.223-41.063-12.733-61.445-19.607a2709 2709 0 0 0-17.825-5.953c-7.966-2.624-15.676-5.652-23.437-8.836-8.567-3.575-16.96-6.65-25.875-9.25-3.059-.858-6.107-1.758-9.125-2.75-1-2-1-2-1-8z"/>
</svg>
