<?xml version="1.0" encoding="utf-8"?>
<!-- Generator: Adobe Illustrator 28.0.0, SVG Export Plug-In . SVG Version: 6.00 Build 0)  -->
<svg version="1.1" id="Layer_1" xmlns="http://www.w3.org/2000/svg" xmlns:xlink="http://www.w3.org/1999/xlink" x="0px" y="0px"
	 viewBox="0 0 4000 4000" style="enable-background:new 0 0 4000 4000;" xml:space="preserve">
<style type="text/css">
	.st0{fill:#191918;}
</style>
<g>
	<path class="st0" d="M3849.61,3448.57c-37.84-149.35-71.82-299.58-78.28-454.2c-2.57-32.12-13.12-62.35-31.53-88.53
		c-166-158.99-107.71-257.92-157.67-453.68c-89.36-254.71-6.96-556.41-202.02-772.56c-7.7-9.19-14.13-20.74-7.91-32.6
		c51.74-60.64,59.01-166.63-19.85-200.66c-64.28-28.35-134.17-4.83-201.48-10.62c-13.6-0.84-26.99-1.85-39.33-8.16
		c-124.72-66.91-259.19-97.95-399.6-104.2c-277.07-26.55-661.98,91.68-878.1-55.93c-56.08-36.93-120-54.58-182.99-76.06
		c-12.44-6.46-22.95-16.18-30.88-27.93c-41.1-65.29-93.45-121.25-142.56-180.02c-24.05-50.74-24.57-110.37-46.28-162.66
		c-1.29-4.19,0.41-7.17,4.55-8.57c39.25-8.05,29.19-56.83,28.95-86.37c-3.4-42.24,18.35-77.62,43.74-110.13
		c38.17-59.72,74.42-140.78,43.12-210.27c-18.41-39.44-58.51-66.51-99.13-83.31c-65.95-30.83-134.27-55.92-197.63-91.97
		c-46.72-28.73-96.78-15.97-146.9-7.34c-81.29-28.01-163.61-31.61-247.14-12.17c-12.85,2.44-25.61,1.7-38.09-2.21
		c-73.22-20.77-146.65-19.58-220.09-0.12c-12.33,2.91-24.56,1.84-36.33-2.92c-49.76-21.65-101.29-8.45-149.14,11.46
		c-76.6,32.01-167.25,46.99-232.82,99c-80.42,76.06-48.38,206.42,2.38,295.18c26.56,64.31-18.34,100.01-3.86,150.01
		c49.13,55.82,110.06-75.04,124.54-113.47c0.42-1.19,2.06-4.25,2.92-2.37c0.28,0.51,0.52,1.33,0.73,2.33
		c3.2,17.55,2.58,34.6,0.18,51.75c-33.17,145.61-4.81,279.07,99.73,386.52c30.24,41.73,18.27,91.57,30.55,133.13
		c3.21,18.87,22.97,34.46,28.92,53.69c17.59,82.32,44.43,158.59,25.06,243.23c-28.86,115.07-0.4,234.08-24.69,349.66
		c-12.33,75.31-10.67,152.22,3.47,226.96c18.14,96.77,56.34,189.76,108.05,275.21c17.91,30.53,28.38,63.76,30.87,99.19
		c-3.05,121.43,25.24,238.38,51.4,355.91c26.28,145.91,38.7,291.88,26.09,441.14c-11.26,78.09-22.33,210.84-120.1,224.74
		c-87.46,7.27-174.8,184.25-55.3,206.48c42.61,31.87,94.68,19.39,144.22,24.79c96.39,11.1,187.17-16.82,203.55-128.29
		c2.05-19.63,12.13-35.12,28.47-45.74c46.45-46.04,8.2-126.18,56.89-173.11c25.35-19.61,26.4-52.62,22.61-82.04
		c-26.09-240.04,74.13-470.28,75.44-710.66c81.25,24.84,159.78,47.6,244.31,52.21c12.71,0.95,24.52,0.79,27.28,16.58
		c52.72,251.82,51.15,509.22,26.78,763.95c-42.26,201.79-78.49,109.54-155.86,218.34c-40.17,70.13-32.03,143.27,56.05,156.43
		c27.11,21.4,59.59,21.36,91.14,16.36c29.67-2.71,58.19,0.35,87.89,0.98c163.52,10.26,161.86-164.01,176.24-296.14
		c0.09-62.89,49.71-87.58,43.44-154.03c-7.89-182.6,43.92-360.68,72.53-539.67c13.67-67.62,20.06-138.08,41.74-203.52
		c4.67-8.27,16.4-12.32,25.85-14.11c43.2-10.01,85.38-23.28,127.04-38.32c122.91-44.11,239.33-104.43,364.27-143.19
		c22.22-6.24,36.96-13.45,46.9,12.32c39.36,120.14,92.86,234.05,181.73,325.13c188.48,153.35,292.02,326.57,163.33,562.28
		c-36.73,54.33-107.75,29.03-146.31,94.28c-43.66,60.26-36.36,133.11,38.57,145.45c35.17,27.16,75.87,10.2,115.02,12.9
		c99.69,31.38,184.29-48.58,205.18-141.37c34.02-151.17,113.67-295.26,142.28-444.58c-0.53-27.33-11.87-54.81-30.64-75.8
		c-134.73-134.37-175.48-331.66-64.17-494.19c1.97-2.66,3.7-4.68,6.43-2.1c24.79,30.55,47.88,63.06,70.52,95.26
		c58.34,83.42,114.13,169.08,186.62,241.24c119.64,125.53,284.12,203.57,339.72,379.94c27.5,85.24,97.46,283.25,23.31,354.63
		c-39.99,25.74-57.35,70.06-56.48,116.15c-1.52,48.88,37.4,77.87,85.26,78.23c41.42,25.02,85.76,19.8,129.84,6.96
		c156.72,37.03,171.14-124.75,137.7-233.24L3849.61,3448.57z M469.07,1211.21c-5.11-6.14-8.01-75.97,0.63-77
		c2.52,3.37,11.02,25.17,13,13.06c-3.24-95.96,8.47-199.5,60.85-281.18c43.35-73.68,139.02-113.34,228.25-102.6
		c145.95,8.21,217.87,132.95,233.24,260.22c6.51,43.14,2.55,86.51-0.24,128.12c8.25,11.63,16.82-48.6,18.68-54.59
		c30.34-193.19-113.12-384.97-321.15-350.5c-173.84,21.81-243.7,198.14-245.18,353.58c-1.56,17.78-23.68-48.95-25.16-51.17
		c-2.81-9.24-19.24-4.56-16.54-16.52c4.05-61.09-12.37-119.51-9.57-180.55c0.12-2.68,0.54-4.72,2.46-0.63
		c32.88,72.93,69.09,42.47,106.06-17.15c28.21-42.04,60.56-80.44,97.79-114.61c3.08-3.34,13.05-9.65,9.47-14.19
		c-9.41,4.58-20.7,6.06-23.86-6.77c-5.28-17.04-7.93-35.64-16.78-51.47c-19.46-36.4-66.01-44.22-100.11-16.97
		c-15.78,12.94-26.53,29.61-42.36,43.17c0.02,2.98,7.22,1.42,10.11,3.39c2.84,1.12,5.09,2.78,6.96,4.8
		c29.24,65.11,70.19,59.62,130.97,38.55c-47.64,46.11-78.54,97.32-120.19,146.88c-30.82,35.71-47.3-44.47-54.73-64.47
		c-19.06-34.21-30.34,100.06-22.35,109.22c6.77,34.78,6.37,67.57,6.18,105.19c-0.32,3.85-2.11,1.76-3.83-0.51
		c-100.41-137.88-49.59-231.57-52.17-375.43c-21.03-135.21,57.79-270.96,160.47-353.86c6.04-4.94-0.72-13.79-7.45-9.85
		c-3.84,1.59-7.68,3.94-11.69,5.54c-89.05,37.68-125.59,128.77-158.27,211.79c-28.63,87.07-37.38,188-109.92,247.68
		c-11.87,5,1.69-29.9,2.27-34.44c17.48-53.38,5.58-105.62-23.04-153.22c-28.63-59.73-41.12-140.1-6.53-194.51
		c24.39-39.91,73.49-54.5,115.24-69.85c61.37-19.73,121.09-47.2,183.3-64.63c21.49-3.4,48.93-5.06,68.06,7.24
		c0.59,2.28-2.81,4.61-5.85,5.97c-7.07,2.2-8.03,10.37-0.41,11.85c5.17,0.55,10.69-2.19,15.74-3.15
		c84.78-23.54,175.42-36.29,260.69-9.23c17.05,4,34.18,4.03,51.18-0.26c88.9-20.39,175.52-11.1,258.43,27.28
		c5.23,3.58,16.07,5.39,14.43-3.82c-1.25-4.4-9.88-7.73-8.34-12.5c28.15-14.21,65.68-11.54,93.59,2.91
		c72.05,37.31,147.15,66.77,220.23,102.15c77.48,32.98,98.39,90.93,69.87,169.03c-33.15,96.73-106.52,131.79-82.79,247.01
		c-5.95,28.03-31.73,1.82-38.95-11.69c-102.15-132.78-33.15-376.08-217.1-459.17c-9.34,0.73-0.68,10.12,3.3,13.2
		c22.75,22.67,41,46.38,55.54,70.46c51.75,87.73,63.18,187.12,83.69,293.33c-3.43,164.54,4.35,293.37-125.06,398.93
		c-1.94,1.76-4.48,3.14-4.79-0.26c-1.55-40.39,2.21-79.8,10.71-118.84c5.06-33.96,5.45-69.64-9.55-100.45
		c-3.1-7.26-9.26-2.44-10.55,3.07c-63.06,200.56-162.64-66.02-222.65-120.16c-1.3-1.26-2.35-2.36-0.64-3.23
		c29.25-5.58,51.8,25.89,81.36,23.8c33.83-0.04,55.08-20.58,71.14-46.67c4.6-5.63,19.05-1.58,20.88-8.6
		c-12.88-15.01-26.87-30.67-40.88-45.39c-56.62-52.78-110.09-9.95-132.52,52.79c-7.27,20.36-9.24,19.02-28.71,9.56
		c-19.01,0.84,28.85,36.64,31.36,45.03c54.8,67.98,138.44,279.22,224.46,136.88c6.04,56.28-21.32,105.55-13.52,160.53
		c1.79,35.75-14.57,45.19-40.03,65.06c-1.65,1.21-3.46,2.26-4.64,0.71c-0.99-1.69-0.16-5.51-0.04-8.14
		c0.67-9.03-5.99-7.96-10.13-2.65c-20.07,21.27-16.02,67.17-49.86,72.66c-11.9,2.51-18.92,14.51-25.73,23.83
		c-27.51,40.75-69.88,65.41-111.5,52.15c-72.26-33.04-103.73-120.83-177.5-154.49c-16.16-7.73-26.6-23.07-24.91-41
		c-7.43-88.26,64.43-32.45,95.89-114.5c16.41-10.61,30.09-26.82,32.5-44.6c17.46-123.31-247.36-135.26-257.54-19.82
		c-4.81,24.9,9.41,38.41,22.46,55.45c3.39,12.88,10.66,29.17,19.57,37.95c17.67,22.08,54.16,20.18,64.69,46.96
		c7.65,36.25,0.65,71.14-36.46,87.96c-54.61,22.32-76.81,82.07-118.7,119.25c-33.27,25.24-72.45,11.09-84.92-27.98L469.07,1211.21z
		 M574.59,693.88c-22.23,52.1-115.31,22.47-94.24-32.52c0.43-0.46,0.78,0.15,1.06,1.49c8.07,53,52.51,66.89,92.95,30.96
		L574.59,693.88z M524.31,649.36c0.35-15.38,25.7-13.21,26.98,0.78c-0.17,16.85-27.12,16.36-26.99-0.06L524.31,649.36z M1041.39,737
		c47.01,3.99,52.52-57.75,56.25-37.92c2.36,12.84-7.95,24.02-17.19,31.9c-21.4,17.83-46.93,18.38-71.62,1.34
		c-8.03-6.1-17.84-11.35-20.29-21.66c-1.49-1.81,1.63-21.45,4.87-13.82c9.82,26.4,25.05,39.15,47.11,40.12L1041.39,737z
		 M1027.26,672.18c-0.57-14.68,25.87-16.83,27.57-2.11c3.37,17.95-27.43,19.53-27.55,2.81L1027.26,672.18z M1062.62,1240.32
		c-13.2,56.32-78.58,88.69-121.35,58.63c-0.19-0.54,0.55-0.88,1.93-1.07c56.71-1.23,71.19-19.51,119.24-57.79L1062.62,1240.32z
		 M679.66,889.9c-10.78-5.38-26.05,4.11-21.59,16.31c1.15,3.5,3.49,6.73,4.61,10.13c1.72,4.35-1.51,8.57-5.4,10.5
		c-21.17,9.82-35.35-21.22-28.47-38.69c13.86-74.13,228.77-64.28,205.66,26.24c-4.46,16.69-37.21,31.52-41.21,9.62
		c-0.4-3.29,0.83-7.41,2.22-10.69c9.38-19.88-16.65-26.98-29.1-15.79c-23.81,17.99-12.03,60.62,17.99,65.48
		c3.57,1.35,14.55,1.54,8.84,7.49c-14.34,16.35-33.47,21.09-51.9,27.86c-7.73,2.93-9.43-1.54-9.08-8.47
		c-0.28-24.01-0.69-48.3-1-72.39c0.4-6.96-8.16-10.59-11.52-3.94c-4.62,26.4-4.54,52.25-7.51,80.49c-0.26,1.99-1.04,3.49-3.23,3.02
		c-9.32-3.37-19.09-7.67-27.7-12.81c-3.08-0.71-30.99-23.86-21.63-25.72c37.15,1.15,56.32-48.76,20.9-68.22L679.66,889.9z
		 M739.01,1131.58c59.4,30.33,94.48,87.56,141.16,132.84c1.06,1.18,1.49,2.28,0.9,3.26c-43.76,25.11-90.63,31.32-135.15,5.01
		c-5.19-3.07-12.46-8.58-16.93-1.81c-12.76,21.29-36.58,14.51-57.12,10.87c-27.47-3.49-48.72-21.03-70.11-37.36
		c-6.19-4.18-5.8-9.04-1.47-14.58c21.95-29.98,84.76-120.45,137.95-98.59L739.01,1131.58z M580.82,1278.68
		c-14.64,7.43-28.04,6.51-43.86-1.02c-1.08-0.52-1.48-1.03-0.9-1.48c11.35-4.76,25.33-7.6,34.28-16.32c3.6-3.4,9.16-6.96,14-4.54
		c4.8,2.28,13.24,12.53,9.83,17.8c-2.41,3.28-9.73,3.83-12.68,5.25L580.82,1278.68z M2901.46,2395.92
		c-118.96,177.12-75.96,390.15,72.13,535.36c34.59,46.36,15.29,88.96-3.75,136.74c-45.29,111.9-83.01,226.39-115.5,342.59
		c-8.13,27.18-18.45,53.53-34.01,77.4c-26.39,43.66-71.81,62.88-123.1,56.69c-5.27-0.59-10.68-2.45-14.66-5.58
		c-9.78-7.45-11.3-21.83-10.32-33.4c2.27-29.39,22.68-51,44.1-69.21c4.88-4.32,8.2-12.26-0.79-11.8
		c-8.88,0.25-26.54,8.08-41.97,22.9c-15.99,14.66-28.22,38.82-28.59,61.56c-0.23,6.8,0.28,13.22,1.52,20.24
		c0.83,4.26,0.07,7.82-2.89,10.03c-8.87,6.3-27.36,4.62-38.83,2.74c-66.66-5.99-29.92-90.47,3.87-118.13
		c3.46-2.91,10.35-6.08,10.36-11.49c-0.07-1.3-0.88-2.15-2.09-2.42c-20.75-0.12-37.74,12.33-50.2,29.12
		c-13.41,18.24-22.61,44.26-25.67,74.71c-0.26,1.61-0.71,2.82-1.46,3.33c-1.66,1.25-5.02-1.58-7.17-3.46
		c-6.87-6.13-9.32-15.07-9.16-24.11c0.42-32.13,13.15-58.19,34.94-78.9c14.35-12.85,30.95-26.37,50.35-28.89
		c8.51-0.87,17.57-2.19,25.67-4.65c65.62-19.75,81.74-92.49,100.74-150.38c25.52-91.58,25.45-192.31-17.95-278.26
		c-34.23-65.29-88.65-120.47-143.74-168.96c-66.02-56.67-117.66-124.36-157.7-200.64c-27.82-53.01-49.34-108.06-67.16-165.8
		c-7.35-19.88,7.51-18.56,23.01-22.2c42.67-9.38,93.73-10.05,133.21-0.68c28.78,5.84,51.68,13.33,81.47,0.98
		c75.54-37.08,139.98-119.02,232.59-103.33c7,2.23,13.21,7.67,18.79,13.3c15.68,15.29,30.62,31.28,45.27,47.55
		c10.57,12.87,32.36,28.2,19.21,46.22L2901.46,2395.92z M3834.68,3571.51c-4.4,127.14-182.66,119.89-103.92-22.31
		c9.8-12.44,6.62-23.12-9.85-12.61c-36.84,22.8-40.63,77.45-31.66,116.06c-4.46,20.55-80.82,16.99-89.27-4.26
		c-26.97-36.23,3.82-94.12,29.88-126.57c2.11-2.68,2.11-4.21-1.51-3.91c-41.26,2.29-62.5,54.03-65,121.89
		c-1.04,2.68-3.56,2.91-6.01,2.17c-21.39-6.19-30.91-22.54-31.03-43.47c-1.3-44.58,18.68-81.4,55.04-103.26
		c74.32-68.83,11.08-260.25-12.49-348.79c-57.72-222.66-287.53-319.29-419.12-490.6c-66-77.76-114.49-161.15-176.17-243.98
		c-91.38-127.62-230.29-267.94-399.69-205.63c-58.98,19.65-111.84,51.59-160.18,90.29c-20.09,19.08,15.46,5.16,22.51-0.81
		c104.61-56.09,230.78-115.96,341.16-39.37c-90.44,15.88-144.03,83.21-200.66,105.21c-318.01-42.57-504.5,138.51-797.51,204.11
		c-6.79,1.9-4.34-4.13-2.96-7.71c36.56-81.07-27.16-142.09,1.93-222.3c71.93-177.73,133.27-413.01,35.06-581.28
		c5.63,99.66,31.16,200.32,16.79,301.09c-11.57,107.33-63.35,206.23-89.49,310.42c-7.12,64.38,36.09,116.23,8.55,176.08
		c-20.56,53.61-33.29,108.92-43.8,165.07c-35.69,225.24-97.88,447.95-92.89,677.47c-1.04,24.35-19.04,42.95-30.71,62.12
		c-17.32,73.58-18.74,150.04-30.72,224.63c-10.86,139.51-259.7,152.92-136.22-10.81c35.32-35.16-72.8-12.05-60.96,110.72
		c-108.74,37.12-129.63-50.09-62-125.83c57.93-43.74-58.49-27.16-66.8,97.02c-3.77,18.6-26.08-6.54-27.45-14.92
		c-7.67-54.3,19.07-110.73,72.42-129.39c66.88-27.79,88.44-102.65,102.08-170.44c26.44-254.95,29.37-512.39-21.77-764.35
		c-16.25-64.17-25.1-186.34-88.11-219.21c-52.16-17.7-94.66-54.68-141.05-81.88c-2.58-0.33-2.62,1.56-1.08,4.27
		c23.47,42.02,81.26,77.38,127.36,100.79c40.15,20.74,44.51,84.21,58.52,124.5c5.3,27.19-110.53-3.64-128.86-5.38
		c-175.56-38.42-360.14-127.89-477.05-249.08c43.14,111.42,188.84,182.34,296.1,221.77c25.01,14.14,16.76,49.28,17.91,83.34
		c-11.8,190.03-72.31,366.32-78.18,553.44c-5.46,51.8,22.16,110.83-6.6,157.62c-6.58,8.03-9.27-8.76-16.36-5.62
		c-33.38,46.95-6.17,139.32-43.28,179.67c-8.47,5.11-7.75-14.74-16.42-13.32c-6.41-0.25-8.35,7.59-8.51,12.81
		c-7.78,49.55-12.49,110.09-55.42,142.67c-111.34,60.37-211.24,13.7-94.36-99.93c-1.22-14.51-26.43,1.16-33,6.48
		c-32.82,24.57-50.11,56.73-44.41,99.56c0.38,4.41,0.55,9.84-3.67,11.76c-94.47,23.68-103.17-63.38-39.83-122.6
		c3.17-4.05,19.71-11.9,9.89-18.03c-50.44,8.31-77.23,64.27-77.67,111.72c-1.5,5.22-7.07,0.48-9.75-1.75
		c-8.42-7.46-9.95-18.85-9.46-29.55c1-46.67,34.4-91.7,78.17-107.59c96.3-6.76,122.92-95.12,143.09-172.67
		c49.8-246.65-10.63-495.96-56.46-738.04c-15.85-80.3,6.99-168.5-36.88-242.06c-113.17-175.59-145.18-385.11-103.37-588.42
		c2.31-88.96-8.03-176.61,14.63-264.92c0.31-2.48,1.43-6.55,2.81-1.99c7.21,26.29,16.74,52.36,27.42,77.49
		c31.62,74.63,73.3,145.45,94.99,223.95c5.24,9.7,9.69-3.53,7.96-8.97c-0.67-65.86-32.79-125.06-58.32-184.07
		c-48.51-101.93-69.42-213.44-95.28-322.24c-0.84-4.6,2.18-7.1,6.27-4.71c38.91,29.48,65.39,11.26,99.4-1.59
		c6.33-1.06,12.54,0.57,18.4,3.92c30.57,16.51,63.53,21.44,97.37,10.95c14.77-5.19,26.31,0.88,40.32,5.67
		c54.33,19.09,90.96-15.2,121.71-10.26c63.98,34.18,125.34,51.56,174.94-11.16c34.6-48.14,36.47-89.83,74.01-131.19
		c180.47-129.82,210.39-216,216.25-419.03c81.6,112.42,91.95,255.22,92.05,389.36c-0.15,6.32,4.21,9.52,6.83,4.38
		c12.84-32.68,15.95-66.87,16.6-105.09c-0.01-1.98,0.11-6.17,2.65-4.67c44.61,44.14,79.77,89.74,114.13,141.5
		c97.37,105.99,189.87,211.39,221.14,356.38c3.36,10.11,2.52,20.51,11.98,29.62c2.23,2.16,3.91,1.22,3.76-2.5
		c0.79-122.62-71.81-228.78-129.62-313.39c102.36,26.28,179.71,92.66,256.27,159.96c26.74,1.73-35.16-51.91-15.9-48.14
		c457.11,76.29,904-128.09,1313.96,197.26c-13.19-30.27-44.84-54-72.2-77.88c-3.07-2.8-1-3.43,2.22-3.3
		c50.54,1.79,96.53-11.97,142.59,1.43c75.52,15.58,76.72,106.37,29.13,160.61c-10.53,15.78-38.34-25.47-50.89-31.59
		c-11.02-10.47-19.77,0.14-10.18,9.96c112.89,138.67,211.2,298.62,207.68,482.02c-0.53,151.56,32.61,296.08,71.98,441.12
		c16.68,102.81,5.28,227.11,75.02,310.64c44.49,59.62,96.07,91.33,97.86,160.61c0.81,195.6,79.31,379.24,93.21,571.79
		L3834.68,3571.51z"/>
	<path class="st0" d="M1421.95,1220.71c-76.33,215.28-356.13,294.75-394.54,518.14c-0.7,6.41-3.44,12.57-1.04,18.71
		c2.79,5.56,6.38,1.99,8.44-2.45c75.19-245.33,355.78-299.22,396.6-538.04c1.35-9.2-8.22-2.42-9.16,2.86L1421.95,1220.71z"/>
	<path class="st0" d="M982.28,2453.56c-107.76-110.17-174.59-238.26-197.02-388.14c-0.49-2.98-0.92-5.02-2.18-2.22
		c-39.59,90.97,99.78,372.18,199.24,390.65L982.28,2453.56z"/>
	<path class="st0" d="M1230.34,2057.7c-42.95-27.94-89.41-49.19-135.24-72.16c-17.5-8.01-36.82-10.5-55.85-8.06
		c-50.22,8.54-95.3,34.42-146.59,41.74c-1.89,0.36-2.72,0.89-1.98,1.66c25.66,14.34,58.09,6.08,85.2-0.64
		c35.89-9.99,73.98-26.58,109.93-10.21c58.03,31.16,121.17,52.61,176.35,88.82c2.61,1.84,8.48,1.56,7.98-2.68
		c-0.33-2.02-2.21-4.1-3.53-6.03c-9.51-12.94-22.19-23.17-35.52-31.94L1230.34,2057.7z"/>
	<path class="st0" d="M1188.27,1400.45c58.41-118.47,178.07-223.14,175.4-361.78c-3.18-0.21-4.95,3.52-5.97,6.44
		c-25.04,82.67-69.87,153.68-117.53,225c-26.44,42.17-56.85,89.09-64.07,138.25c-0.76,5.44,5.17,3.25,7.69-0.14
		c1.86-2.27,2.99-4.84,4.1-7.01L1188.27,1400.45z"/>
	<path class="st0" d="M2811.09,2054.14c-14.31-61.43-27.11-126.39-69.8-175.61c-0.72-0.77-1.72-1.76-2.74-2.17
		c-0.49,0.11-1.47,0.33-1.96,0.45c-4.4,4.48-1.04,10.59,1.14,15.52c27.6,63.44,38,131.74,55.79,198.07
		c12.34,44.63,32.02,87.04,56.31,126.16c2.02,3.31,6.52,8.22,10.59,6.33c3.87-5.92-2.63-14.67-4.58-20.7
		c-19.64-47.47-33.36-97.08-44.55-147.16L2811.09,2054.14z"/>
	<path class="st0" d="M892.65,1576.64c45.89-70.89,77.21-149.42,110.13-226.69c-12.73-51.31-107.08,189.98-112.07,204.9
		c-2.16,6.93-8.06,16.58-2.75,22.92c1.45,0.8,3.23,0.25,4.2-0.63L892.65,1576.64z"/>
	<path class="st0" d="M589.15,1972.67c-33.09,29.47-45.23,68.71-47.44,114.69c-0.23,4.26,2.66,3.04,5.31,0.69
		c5.32-4.3,6.28-10.31,8.46-16.04c8.43-21.48,17.06-42.68,30.52-61.79c4.9-7.37,10.92-14.97,18.84-18.14
		c31.18-13.01,67.1,43.96,106.63,26.41c2.53-1.12,3.57-2.23,0.51-3.17c-40.88-13.37-84.78-74.18-122.13-43.23L589.15,1972.67z"/>
	<path class="st0" d="M667.5,1342.81c-5.83-7.7-10.99-14.92-24.14-16.81c-2.58-0.26-3.36,0.76-1.82,3.12
		c43.22,68.07,45.82,148,82.91,215.52c1.03,1.91,2.03,3.13,1.74-0.3c-4.97-66.74-18.27-146.2-58.22-200.9L667.5,1342.81z"/>
	<path class="st0" d="M3617.29,2877.29c15.79,57.81,59.19,100.36,77.45,158.23c9.31-42.6-35.09-131.28-77.27-158.47L3617.29,2877.29
		z"/>
	<path class="st0" d="M576.45,511.06c-39.99,19.99-66,55.87-94.45,88.38c-3.88,6.65,6.34,5.44,11.5,2.95
		c30.95-10.62,56.15-6.86,79.01,14.61c7.3,6.43,12.76,15.43,19.59,21.94c9.12,8.98,21.15,15.8,32.91,18.55
		c37.29,9.94,69.48-19.51,75.36-60.37c10.35-67.41-62.69-120.14-123.04-86.5L576.45,511.06z M674.8,614.12
		c-19.21,41.27-62.35,28.88-84.79-4.75c-15.12-16.63-33.61-27.96-60.02-29.48c-3.56-0.13-3.82-1.42-1.79-3.56
		c24.61-26.66,49.17-47.85,83.17-54.48c46.96-6.64,86.05,46.32,63.85,91.36L674.8,614.12z"/>
	<path class="st0" d="M973.78,658.09c30.53-30.44,68.07-55.7,109.68-30.86c2.62,0.98,11.4,1.87,8.12-3.16
		c-25.31-35.7-47.01-76.63-87.27-97.5c-59.48-34.74-139.47,13.08-134.98,81.16c-3.07,53.52,62.33,88.96,103.75,51.01L973.78,658.09z
		 M890.96,586.74c16.95-57.02,84.63-66.36,125.54-26.82c13.1,11.24,24.1,24.5,34.53,38.66c0.68,1.45,0.83,2.5-1.57,2.6
		c-35.47-0.31-59.1,16.59-81.67,39.32c-45.17,40.83-90.71-7.43-77.09-52.83L890.96,586.74z"/>
	<path class="st0" d="M784.55,593.88c6.87-70.18,14.84-141.39,20.61-214.33c-29.29,34.45-43.47,169.4-20.79,214.49L784.55,593.88z"
		/>
	<path class="st0" d="M2921.85,3027.11c0.62,3.66,4.02,6.89,7.19,3.74c26.71-60.31-23.91-113.68-55.38-160.57
		c-2.78-4.16-2.72,0.87-2.73,4.26c0.12,11.33,4.94,21.62,9.65,31.67c18.18,38.32,42.45,74.99,41.11,119.91L2921.85,3027.11z"/>
</g>
</svg>
