<?xml version="1.0" encoding="utf-8"?>
<!-- Generator: Adobe Illustrator 28.0.0, SVG Export Plug-In . SVG Version: 6.00 Build 0)  -->
<svg version="1.1" id="Layer_1" xmlns="http://www.w3.org/2000/svg" xmlns:xlink="http://www.w3.org/1999/xlink" x="0px" y="0px"
	 viewBox="0 0 4000 4000" style="enable-background:new 0 0 4000 4000;" xml:space="preserve">
<style type="text/css">
	.st0{fill:#191918;}
</style>
<g>
	<path class="st0" d="M3760.87,2053.4c-90.46,39.08-186.32-49.7-178.28-142.73c26.31-187.07,26.48-342.98-102-493.65
		c-15.01-16.92-28.01-33.32-37.92-53.3c-72.37-156.24-264.7-252.51-424.79-169.81c-64.15-42.15-162.22-51.64-219.22,4.99
		c-15.4,17.42-33.07,31.83-53.5,42.62c-146.19,77.6-201.1,266.84-134.99,414.6c2.27,6.17-2.99,7.29-7.6,6.97
		c-121.52-4.82-243.44,0.54-364.85,11.34c-112.27,5.88-245.97,24.16-359.55-11.21c-129.68-45.28-78.54-60.16-100.75-171.96
		c-19.54-152.59-90.91-282.08-198.72-390.85c-98.81-173.6-331.79-431.17-549.48-268.99c-7.39,5.05-16.35,16.55-25.1,6.31
		c-55.44-65.77-142.73-70.63-218.66-40.33c-38.53,15.08-74.19,38.62-101.78,66.52c-8.01,8.71-17.7,15.53-28.87,19.6
		c-139.4,56.01-218.8,195.67-269.26,329.98c-56.28,160.25-115.29,320.29-156.52,485.06c-16.19,103.03,5.73,222.88,97.53,285.03
		c8.29,4.94,14.42,11.92,17.48,21.02c27.27,65.67,34.62,148.75-25.64,200.31c-5.52,4.12-9.76,11.63-3.2,16.63
		c11.9,7.48,27.22,4.77,40.78,5.06c34,7,71.09,9.81,103.74-3.87c16.57-6.47,31.2-16.55,45.65-26.96c2.89-1.85,4.45-1.94,4.37,0.27
		c-52.34,157.52,1.85,187.5,43.1,325.97c22.44,75.02,67.39,134.74,135.07,173.04c49.17,77.23,80.34,180.08,22.7,261.71
		c-75.2,81.16-44.07,186.76,74.22,188.94c33.42,19.44,70.04,23.39,108.19,18.93c30.03,6.95,60.36,9.61,90.96,4.17
		c10.94-2.27,20.97,1.68,29.79,8.11c48.97,35.91,108.46,26.83,165.14,29.32c74.03,19.84,152.49,19.59,226.06-4.41
		c12.1-4.94,24.76-6.1,37.46-2.84c53.24,11.88,102-3.39,149.25-27.26c35.01,0.61,71.41,6.8,104.89-7.53
		c29.47-10.98,62.18-30.6,77.31-58.86c0.83-5.74-3.99-7.27-9.6-7.49c-54.39,4.47-97.13-19.02-126.37-64.34
		c-2.76-6.13-13.13-19.81-12.14-5.6c4.66,36.56,39.05,68.07,93.98,86.36c4.15,2.42,12.48,3.68,9.02,9.01
		c-95.68,73-230.34,4.12-260.93-105.53c-11.64-33.52-16.33-68.9-16.81-104.49c-0.05-5.2-1.53-9.38-3.39-8.44
		c-23.94,92.88,23.91,206.89,111.55,251.24c6.37,3.28,4.69,6.46-0.94,8.83c-83.33,36.77-184.11,12.05-223.96-71.14
		c-3.89-9.42-5.23-3.81-4.46,1.84c2.46,33.51,28.46,62.59,56.39,81.05c2.24,1.82,6.87,4.31,4.39,6.86
		c-107.04,34.27-305.23,29.53-225.1-132.89c-41.87,19.09-43.31,76.51-19.08,125.05c2.26,6.69-2.59,8.9-8.84,9.13
		c-127.09,6.58-209.52-83.4-135.21-199.22c97.88-131.6,42.19-309.45,121.96-449.9c18.05-46.62-27.18,25.1-29.66,35.04
		c-25.99,51.85-37.61,108.49-42.67,165.29c-1.07,67.37-15.54,135.72-74.32,176.49c-5.05,2.98-2.09-4.22-1.32-6.71
		c20.14-56.65,8.92-116.11-25.27-162.53c-1.77,14.08,7.31,32.77,10.67,47.15c12.96,48.39,8.42,97.1-16.13,141.05
		c-11.9,41.93,71.78-22.63,77.41-37.06c7.63-9.04,5.84-3.88,3.99,2.35c-36.42,94.96-112.31,141.95-49.88,250.62
		c-57.55,18.69-123.28-16.87-103.13-84.9c1.9-8.62-0.9-8.07-4.67-3.26c-14.32,17.58-14.5,44.33-1.88,74.39
		c1.19,3.75,3.17,8.42-0.06,10.9c-23.19,5.02-50-4.84-68.47-18.32c-83.13-77.37,36.96-136.56,27.99-209.84
		c-11.16,21.64-21.29,50.21-39.63,69.81c-24.41,27.7-43.66,63.8-35.1,100.93c1.51,8.38,5.09,17.05,8.66,25.55
		c3.14,6.72-2.06,8.52-7.43,7.29c-57.81-9.97-75.69-68.2-52.13-114.59c42.14-54.7,72.1-115.81,57.9-186.04
		c-14.31-96.24-86.43-170.55-108.46-264.51c-8.26-30.76-12.77-62.04-12.71-94.23c0.05-5.31-0.22-10.69-3.43-12.36
		c-22.83,65.97,5.56,142.54,31.18,205.58c-117.93-85.42-123.21-252.81-87.11-391.52c-31.64,43.18-37.67,101.59-41.99,154.49
		c-57.48-93.1-8.57-216.36,27.86-314.49c17.6-63.29,12.82-127.21-5.53-190.54c-1.18-3.26-3.22-11.4,2.76-6.49
		c22.91,23.53,50.53,35.11,73.17,55.37c20.28,36.84,28,78.64,19.78,119.79c-4.85,20.76,8.01,9.83,11.14-2.83
		c13.22-41.68,7.77-90.92-13.48-128.77c-45.28-43.58-79.52-103.31-85.14-167.08c-0.25-3.5-1.42-13.02-4.48-5.7
		c-12.63,32.74,7.38,81.92,22.76,113.06c2.4,4.19,5.43,15.13-3.41,10.97c-145.79-131.03-81.28-385.11,87.21-471.8
		c74.1-27.64,120.16-75.48,203.71-47.33c7.67,1.95,4.27-6.73-0.07-9.71c-24.05-17.06-55.59-17.05-83.48-11.76
		c-7.19,1.55-11.59-3.81-12.09-10.85c-1.78-13.66-5.9-27.28-13.19-38.97c-22.04-40.94-86.81-44.14-112.62-7.78
		c-7.12,9.43-33.37,39.41-27.36,49.6c2.63,1.1,8.1-2.11,10.65-0.53c2.5,1.41,3.44,5.43,4.04,8.4c2.64,16.59,11.64,29.95,24.58,41.49
		c6.96,5.57,4.87,10.71-2.87,13.38c-31.24,15.64-59.04,36.23-82.87,60.42c-103.94,104.23-126.34,271.01-51.03,399.87
		c40.34,98.87,48.54,237.17-38.03,308.89c-15.18,17.15-100.55,42.62-83.76,24.15c82.44-70.65,70.4-181.53,39.81-273.41
		c-9.7-23.68-12.6-53.14-23.36-74.82c-6.22,53.04,24.12,106.94,27.09,160.57c8.54,70.6-12.06,174.32-96.01,187.35
		c-1.76,0.09-3.53,0.07-4.77-0.79c-2.08-1.42,2.11-6.75,4.17-9.08c111.4-149.87-102.43-272-20.72-581.32
		c-0.54-7,6.61-16.61,0.79-21.93c-1.49,0.49-2.32,1.92-3.19,3.82c-46.52,120.73-40.3,241.2-5.62,360.31
		c-41.72-35.31-63.66-88.03-72.6-138.8c-23.69-141.5,50.35-274.44,88.63-406.98c63.46-198.27,129.63-438.22,343-520.21
		c50.99-49,107.59-87.76,180.97-91.77c42.25-5.42,120.49,18.66,133.87,65.01c-1.13,11.65-24.68,40.1-10.66,48.08
		c7.37-0.56,8.71-11.96,12.55-17.02c31.36-58.12,87.25-87.38,149.59-93.14c183.46-13.84,325.05,161.75,410.4,305.67
		c119.55,116.94,194.87,269.04,203.88,437.21c-32.72-55.07-61.04-134.49-90-197.48c-14.62-29.26-25.65-66.95-47.13-89.81
		c59.7,212.55,222.37,420.53,161.48,651.92c-10.3,38.22-26.53,73.84-45.59,108.38c-2.91,6.35-37.13,57.64-11.56,39.85
		c105.31-114.6,103.51-266.1,70.99-407.77c155.36,86.68,346.98,45.73,515.72,38.7c52.45,0.2,302.15-28.27,315.97,14.4
		c34.06,74.64,110.17,128.48,191.98,133.67c3.85-0.21,7.7-1.3,7.58-5.12c-0.99-3.28-4.55-5.27-7.83-6.41
		c-183.85-43.8-248.86-227.35-149.21-379.54c58.76-90.84,154.36-142.19,262.57-122.19c1.73-1.58-2.17-5.14-7.14-7.22
		c-22.25-9.05-46.5-11.69-70.24-9.32c-136.08,12.89-237.7,144.64-250.9,271.49c-48.07-182.75,140.25-419.06,332.29-325.33
		c5.97,1.99,12.03,9.28,18.05,5.94c0.32-0.44,0.43-0.29,0.69-1.52c-48.28-75.28-181.97-26.25-142.73-52.34
		c49.05-32.7,123.12-36.4,174.17-3.65c3.77,3,6.06,6.24,4.32,10.56c-2.87,7.22-31.2,31.81-16.27,37.1
		c57.68-50.11,124.96-78.63,204.06-63.14c91.75,15.15,174.62,73.02,222.36,154.03c-83.45-48.83-177.19-107.27-283.23-72.27
		c-10.64,3.4-21.4,6.88-30.41,13.42c-5.43,3.89-8,8.99-1.01,8.08c31.3-10.28,64.34-18.07,96.7-16.08
		c158.69,17.71,286.44,132.13,348.68,270.98c52.97,114.88,43.51,236.57,25.65,356.34c-1.09,1.98-2.65,0.16-3.9-3.88
		c-0.79-2.5-1.38-5.34-1.85-8.06c-7.17-45.78-12.92-91.76-20.55-137.56c-11.61-70.5-35.4-135.42-79.62-189.98
		c-22.98-27.09-48.51-54.19-81.63-69.17c-5.39-2.22-11.43-3.7-8.95,0.99c88.86,62.91,139.72,164.97,154.7,272
		c10.91,108.68,25.25,255.52,141.27,305.15c21.67,8.97,47.94,11.06,75,9.54c3.61,0.49,2.81,2.75,0.76,4.89
		c-95.36,88.29-225.12-3.66-259.41-106.57c-15.67-40.15-22.51-83.6-24.37-126.6c-0.37-5.73-2.77-10.5-4.85-8.68
		c-13.19,81.22,10.38,163.62,63.11,227.86c6.64,7.07,12.45,13.9,14.05,23.6c3.8,21.95,14.53,41.18,25.97,60.09
		c106.72,127.31,175.81,225.77,93.85,392.7c-9.19,19.17-76.95,115.64-47,37.13c28.02-105.32-9.65-214.99-88.7-290.69
		c-53.74-53.78-94.14-118.03-104.93-195.53c-0.79-8.64-5.92-20.8-7.75-5.46c-3.45,166.95,168.32,225.1,186.8,377.94
		c10.61,67.91-4.77,136.84-43.54,194.66c-6.02,12.99-22.47,22.97-23.84,37.47c3.67,7.66,13.74-1.02,17.17-5.42
		c12.9-15.04,26.8-28.87,41.35-42.08c127.69-89.84,168.85-277.52,76.21-406.77c-29.18-47.07-82.32-83.1-99.17-137.03
		c72.23,43.27,176.08,40.4,219.22-41.76c2.8-4.85,5.7-12.07,1.9-16.74c-2.65-2.91-7.69-2.63-12.37-0.85L3760.87,2053.4z
		 M722.43,1310.53c17.04,1.14,16.07,24.9-1.11,26.79c-18.63,0.7-17.54-26.95,0.41-26.79L722.43,1310.53z"/>
	<path class="st0" d="M3514.57,3016.53c-65.86-58.6-89.41-152.54-80.32-238.28c89.28-82.73,127.4-225.12,66.5-335.63
		c-1.4-4.81-12.69-14.07-9.57-2.74c38.17,97.63,27.16,214.23-44.54,292.39c-4.88,6.05-7.9,5.59-6.42-2.35
		c15.89-113.27,16.5-199.71-12.64-295.52c-26.37-85.16-75.41-164.22-95.67-252.08c-17.87-80.3-45.05-157.35-91.42-225.76
		c32.61-119.03,69.05-238.73-32.37-342.6c-30-33.13-75.25-53.31-119.86-45.01c-9.26-0.49-47.76,17.83-18.08,14.45
		c154.08-25.14,216.4,176.02,178.36,298.07c-4.09,8.15-10.07,71.56-26.18,49.27c-129.18-190.61-283.37-151.15-279.78-255.87
		c-3.52-79.44,20.04-146.26,91.17-187.24c3.95-2.06,4.74-7.67-0.99-6.76c-126.15,38.75-128.04,201.67-82.79,305.87
		c39.03,81.45,51.41,170.37,5.23,251.82c-5.32,8.7-0.78,15.75,6.17,8.3c76.24-80.12,35.23-195.51,4.6-283.82
		c217.88,67.3,314.32,278.06,367.19,483.28c34.54,111.89,101.52,215.54,98.27,336.34c2.33,104.03-37.88,207.29-10.31,310.88
		c10.36,46.75,30.44,89.13,71.03,122.17c2.52,1.97,6.14,5.36,4.62,8c-42.23,27.38-100.78,14.13-138-17.34
		c-121.52-99.35-47.82-267.31-119.34-390.17c-4.49-8.84-8.39-5.85-5.58,4.42c38.58,91.36,16.61,192.22,39.72,286.32
		c22.6,70.96,88.29,160.11,163.11,182.8c5.14,0.64,10.17,4.74,4.37,9.01c-70.71,68.27-170.05,69.85-238.34,1.41
		c-1.55,20.69,20.7,34.58,33.36,49.69c-61.1,9.16-108.64-41.99-135.62-90.33c-4.05-7.33-3.13-1.02-2.14,2.97
		c10.66,46.38,38.11,79.18,81.55,100.12c2.9,1.76,8.29,3.59,4.21,6.38c-63.33,24.35-127.86,13.86-191.81-6.84
		c9.97,21.39-39.42,17.66-51.93,19.95c-80.84,6.8-155.88-64.54-119.17-147.54c4.27-9.53,1.1-15.22-5.34-7.68
		c-61.21,69.52,48.09,151.65-40.26,118.91c-57.52-23.03-64.49-96.58-30.38-142.15c21.79-33.42,26.55-70.57,19.63-108.69
		c-0.9-6.74,1.43-8.03,6.27-4.87c28.8,20.35,57.62,41.48,93.16,49.02c29.27,8.51,41.65,54.69,52.71,80.72
		c2.08,5.37,2.15,15.2,8.37,16.46c14.58-52.21-39.79-111.99-69.08-153.1c-36.48-50.5-59.93-110.23-63.84-172.34
		c-0.72-4.07-1.34-41-5.38-29.7c-16.18,86.08,14.65,161.74,66.71,231.86c4.08,5.97-0.17,4.25-4.66,2.04
		c-198.47-96.23-273.16-337.21-192.89-537.47c13.07-42.03,27.91-86.39,21.82-130.8c-4.33-21.61-11.48,53.68-15.16,57.73
		c-188.4,476.66,139.91,484.26,76.96,666.12c-26.34,46.5-57.19,101.02-22.18,152.54c6.17,7.33,4.59,13.74-4.58,14.17
		c-63.01,12.93-173.83,7.61-153.58-83.1c3.94-20.68,19.36-38.21,27.86-57.01c3.13-3.63,17.05-46.51,3.66-28.77
		c-21.74,48.95-75.51,92-41.3,148.82c7.57,20.58-64.38-7.69-67.11-42.05c-13.62-57.96,46.07-106.81,55.14-162.13
		c21.91-74.36,7.02-150.54-25.54-221.48c-19.95-50.15-35.76-101.04-31.93-156.28c1.67-11.2-4.91-12.75-6.66-0.86
		c-24.57,108.55,65.34,204.82,53.07,311.22c-5.58,82.04-57.41,154.91-138,180.93c-4.53,1.15-4.75-0.77-2.47-4.74
		c39.31-69.08,30.92-208.21-16.17-258.03c38.27,105.85,12.77,228.85-86.99,290.77c-16.05,14.08-100.38,48.99-87.01,27
		c45.15-57.82,65.26-144.07,34.95-183.28c-1.17-0.75-1.64,0.79-1.52,4.09c22.75,170.39-140.81,213.46-63.14,210.05
		c99.04-3.79,178.61-58.49,219.51-148.83c7.06,15.22-18.57,56.45-29.78,71.46c-15.93,20.25,13.71,18.21,26.22,13.37
		c96.59-20.8,101.06-89.98,76.64,1.99c-6.37,68.21,58.27,96.41,115.51,100.29c50.88,13.92,103.73,16.78,155.42,5.02
		c9.65-2.41,19.37-0.95,27.92,4.22c22.76,12.8,48.25,15.22,73.91,14.77c5.5,0.22,10.46,2.15,15.36,4.82
		c52.63,33.68,109.03,24.86,166.17,12.65c53.75,10.28,108.1,20.02,160.48,2.13c100.85-48.41,136.1-2.23,223.21-39.52
		c15.75-4.47,97.55-63.09,69.88-75.35c-19.32-6.1-41-9.01-57.07-22.38c-2.56-2.53,0.13-2.36,2.75-1.94
		c34.36,6.95,72.33,5.36,99.87-18.3c6.64-5.24,10.51-13.2,2.88-19.75L3514.57,3016.53z"/>
	<path class="st0" d="M1346.45,2154.68c3.64,2.42,7.88,5.09,11.45,4.09c6.29-2.51,1.66-8.77-1.94-11.69
		c-48.5-40.62-74.65-96.78-81.58-157.96c-19.03-190.88,115.64-348.76,143.68-531.51c17.89-109.55,8.18-231.64-57.53-324.19
		c-20.18-28.2-46.58-54.22-77.5-73.57c-3.93-2.64-10.66-5.82-14.88-4.36c-3.07,2.93,3.53,6.91,5.96,8.8
		c144.72,104.94,155.76,311.44,105.46,469.8c-15.95,52.62-37.26,103.38-58.74,153.96c-1.58,4.28-6.49,10.95-6.38,1.22
		c13.17-125.87-25.22-237.85-98.58-338.87c-32.22-46.92-88.88-70.28-135.85-28.8c-16.08,14.36-26.16,34.11-33.15,55.81
		c-2.25,5.14-1.81,15.86,6.13,10.44c5.88-5.79,9.29-13.89,14.45-21c2.69-3.52,3.66-0.63,4.15,3.17c3.16,33.99,16.9,58.6,41,69
		c41.14,17.4,82.06,4.78,102.83-40.52c1.33-2.79,3.95-7.37,6.94-5.88c10.07,8.47,15.67,23.1,22.44,34.53
		c36.64,63.7,53.74,133.97,53.29,206.74c1.91,49.55,3.71,99.86-12.92,147.21c-44.87,119.95-61.64,294.95,60.55,373.12
		L1346.45,2154.68z M1147.45,1366.39c-17.81-0.58-16.82-27.58,0.82-27.67c18.85,0.07,18.79,28.89,0.01,27.71L1147.45,1366.39z"/>
	<path class="st0" d="M818.07,1663.09c-8.01-4.46-17.46,0.46-8.11,8.01c18.57,12.38,40.75,21.3,63.07,20.23
		c9.25-0.38,18.36-2.26,27.7-5.95c9-3.64,18.09-7.42,26.84-4.86c93.24,62.23,114.2,197.05,64.26,298.48
		c-2.31,5.64-11.72,17.55-4.08,17.68c10.77-5.12,17.43-18.72,23.44-28.64c52.85-91.77,23.73-243.56-72.63-304.92
		c-16.46-9.05-30.96-19.92-47.41-29.57c-20.68-13.05-30.08-35.31-28.07-58.66c0.71-15.49,4.45-21.88,19.43-24.2
		c14.42-3.31,27.7-9.3,38.06-20c3.77-3.36,6.93-10.3,1.11-13.52c-3.89-1.82-9.23-1.5-13.52-2.66c-11.07-2.44-18.3-10.77-17.44-21.1
		c0.38-4.44,3.01-8.93,7.45-10.15c6.93-1.72,7.47,6.63,8.55,11.52c2.66,13.68,17.75,17.26,28.77,16.39
		c20.03-6.37,32.34-26.85,26.19-46.03c-22.39-58.95-133.39-70.67-170.85-23.5c-10.56,13.45-14.07,30.93-3.86,45.07
		c14.77,26.97,18.33,44.85,48.43,59.5c6.07,2.91,12.74,5.46,14.31,12.6c3.17,14.45,1.76,29.68-2.77,39.8
		c-4.43,9.97-12.31,17.94-24.26,25.08c-6.81,4.22-14.45,7.2-21.93,9.49c-106.45,34.79-158.04,166.26-117.15,269.04
		c3.48,8.66,6.84,16.62,12.52,23.96c1.63,2.06,3.4,3.48,4.79,3.37c3.91-0.88,2.78-8.03,2.21-11.19
		c-11.31-38.82-18.33-79.51-11.72-119.38c12.17-61.39,40.97-120.34,103.73-142.91c11.27-3.92,22.39-7.67,32.59-13.79
		c21.3-14.21,28.35-19.36,46.63,1.47c8.76,8.96,21.08,15.6,32.01,24.03c1.34,1.29,1.74,2.41,0.96,3.27
		c-29.93,9.46-61.41,3.5-88.51-7.68L818.07,1663.09z M834.24,1499c-4.48,7.37-10.96,11.05-21.47,5.9c-1.21-0.53-2.48-1.31-3.24-2.42
		c4.03-2.42,10.99-4.64,14.06-8.78c3.77-4.06,5.01-9.44,5.18-15.01c0.16-0.24,0.47-0.71,0.63-0.95c1.69-0.25,4.59,3.1,5.64,4.52
		c3.68,4.98,2.5,11.02-0.45,16.13L834.24,1499z M825.02,1446.24c8.14-18.6,81.72-11.49,91.2,4.82c1.19,2.02,0.51,4.15-2.13,5
		c-29.36,1-61.59,5.75-88.82-9.42L825.02,1446.24z"/>
	<path class="st0" d="M1519.23,2252.8c42.51,4.47,86.21,2.23,129.19,2.08c19.08-2.5,36.63-12.81,56.05-16.1
		c8.66-1.16,19.94-3.51,11.28-14.58c-57.05-55.69-42.49-140.79-17.93-208.03c15.39-49.02,26.31-99.25,27.18-150.69
		c-0.39-35.55-1.61-74.13-15.5-107.45c-8.18-15.95-3.71,16.27-3.35,20.38c2.24,18.69,3.44,37.61,3.43,56.35
		c0.02,25.77-2.08,51.51-5.98,77.03c-14.23,100.76-87.69,207.19-19.69,301.39c1.78,2.77,2.58,5.09,1.57,6.07
		c-0.93,1.04-3.74,0.71-6.84-0.24c-33.86-11.18-55.86-37.27-68.92-70.28c-20.76-49.92-13.26-104.37-4.87-156.49
		c0.04-6.73-2.06-7.3-4.37-1.64c-33.64,81.53-30.49,188.65,52.09,238.83c1.9,1.18,7,4.08,5.23,5.36
		c-54.68,9.07-108.26-9.71-144.48-54.47c-45.57-52.49-48.32-123.96-47.49-189.73c-32.22,82.57-0.7,192.47,74.48,241.14
		c2.6,1.95,3.73,3.83,2.56,4.83c-4.58,2.31-10.86,0.34-16.03-0.19c-19.96-3.43-39.84-10.51-56.48-19.74
		c-43.52-23.97-73.09-64.31-90.73-110.11c-65.38-166.41,36.29-325.37,70.44-485.19c0.76-4.27,1.65-8.39,1.94-12.57
		c0.59-10.3-5.22-6.32-6.84,1.1c-23.67,93.92-71.73,179.73-92.91,274.41c-37.35,136.29-0.77,344.32,166.11,368.41L1519.23,2252.8z"
		/>
	<path class="st0" d="M931.29,1270.77c0.85,2.5,1.65,4.82,2.84,7.09c3.66,7.03,10.24,10.16,7.68,0.87
		c-34.75-128.45,30.36-271.55,161.71-309.03c134.29-40.29,260.32,28.27,325.45,150.12c53.49,93.54,69.57,199.94,63.28,309.99
		c-0.04,1.4,0.02,2.63,0.26,3.47c0.41,0.84,0.28,1.35,1.56,1.32c2.83-1.01,5.56-8.22,5.57-12.35
		c37.63-215.86-103.35-505.83-345.3-482.78c-155.06,12.85-280.74,177.06-223.3,330.54L931.29,1270.77z"/>
	<path class="st0" d="M1814.51,3030.25c-51.61-55.97-54.48-139.44-39.89-210.46c9.4-45.97,13.09-93.53,7.89-139.67
		c-2.87-27.95-10.26-56.99-19.02-83.36c-1.07-3.43-4.45-10.15-7.39-10c-1.34,0.07-2.14,1.83-2.16,4.39c0,4.38,1.35,8.85,2.32,13.19
		c3.29,13.94,5.93,28.27,7.86,42.38c7.74,55.76,4.44,112.45-7.99,167.48c-14.6,66.88-16.15,132.79,18.16,194.62
		c1.52,2.99,1.82,4.77,0.09,4.58c-10.53-3.91-20.13-11.7-28.45-18.33c-55.03-46.32-62.52-125.61-54.68-194.57
		c6.31-45.81,4.83-92.39-2.78-136.49c-5.35-31.46-13.58-62.16-23.88-92.45c-6.67-19.57-14.21-39.12-22.4-58.31
		c-0.46-1.01-0.92-1.91-1.35-2.59c-0.77-1.21-1.47-1.75-2-1.45c-2.45,4.17-0.28,10.58,0.63,15.23c3.5,13.22,7.24,26.94,10.8,40.41
		c7.75,29.3,15.07,58.68,20.03,88.58c13.51,68.33,0.94,137.18-0.9,205.63c0.18,81.88,45.96,175.22,135.62,185.53
		c10.3,2.01,19.99-3.54,10.04-13.72L1814.51,3030.25z"/>
	<path class="st0" d="M1222.33,1905.2c74.79-135.31,31.35-341.19-97.66-433.48c-3.91-2.25-18.54-6.28-16.62,1.18
		c6.46,10.22,17.1,17.47,25.19,26.72c81.45,83.43,115.46,183.74,102.15,292.56c-7.91,82.6-46.99,156.35-123.47,195.22
		c-8.21,4.32-3.61-1.24-0.43-5.2c45.87-58.2,55.7-150.85,38.04-179.64c1.17,86.12-33.08,155.93-90.23,215.76
		c-1.55,3.74,2,4.45,6.27,3.77c67.68-16.02,122.45-55.14,156.34-116.16L1222.33,1905.2z"/>
	<path class="st0" d="M891.67,989.74c0.29-5.85-6.84-11.13-11.03-14.97c-18.36-15.69-38.69-26.8-59.91-32.99
		c-18.61-5.47-38.13-7.44-58.41-6.24C520,959.02,412.74,1250.52,457.96,1464.2c10.55,33.32,15.82-12.03,12.88-22.59
		c-4.52-43.38-5.2-87.17-0.72-130.38c15.39-138.45,84.96-287.64,224.1-341.66c63.77-25.75,130.24-24.45,189.02,17.94
		c2.38,1.14,6.47,4.51,8.25,2.54L891.67,989.74z"/>
	<path class="st0" d="M2005.18,3068.25c13.3-18.49,30.55-35.8,34.72-59.19c7.1-45.87,6.77-99.65-14.85-141.34
		c-3.37-4.8-3.6-1.65-2.98,2.87c7.6,55.94,9.24,112.23-19.65,164.24c-27.77,50.68-73,88.76-133.81,98.51
		c-2.96-0.69,0.09-5.47,1.28-7.54c36.6-62.05,32.88-123.42,0.92-186.81c-1.25-1.82-1.71-3.45-3.89-3.3
		c-3.06,2.92-0.7,8.55,0.06,12.27c17.67,65.18,19.42,132.1-26.25,186.86c-3.72,4.59-10.34,10.61-7.4,16.57
		c2.8,5.22,10.28,4.7,15.69,4.47c66.03-2.32,118.49-34.23,155.67-86.94L2005.18,3068.25z"/>
	<path class="st0" d="M2707.14,1555.11c-21.42,64.73-1.19,135.19,40.39,187.08c27.44,35.59,65.01,58.17,100.23,84.27
		c43.73,32.05,75.28,73.48,86.86,124.93c2.97,13.02,4.78,27.02,5.17,41.21c0.23,3.8-0.37,8.81,1.79,11.62
		c5.23,4.67,9.29-4.68,9.6-9.3c7.22-62.79-18.16-116.8-62.46-159.39c-26.01-25.52-57.75-43.5-86.25-65.94
		c-67.9-51.96-101.39-132.03-88.99-215.24c0.78-6.26-3.31-6.25-6.05,0.06L2707.14,1555.11z"/>
	<path class="st0" d="M2090.02,2562.54c-10.62,72.3,2.2,142.03,42.26,204.41c2.6,4.56,10.46,17.73,12.92,9.89
		c-0.09-6.5-4.59-12.06-7.17-18.36c-31.8-67.43-41.73-140.77-25.96-213.83c19.47-107.03,41.2-205.51-10.38-313.92
		c-2.55-5.04-5.85-15.4-10.76-15.84c-1.62,0.19-1.99,3-1.22,6.3c1.68,7.19,4.35,15.1,6.69,22.61
		c37.19,117.67,13.19,202.69-6.24,317.88L2090.02,2562.54z"/>
	<path class="st0" d="M1013.83,2247.77c22.87-34.29,42.75-70.48,54.08-110.52c1.5-5.48,3.27-11.11,3.27-16.75
		c-1.09-11.04-6.69-0.66-7.91,4.35c-22.94,71.94-77.36,126.85-111.33,193.12c-43.77,82.88-58.27,175.53-21.54,264.52
		c1.51,2.13,4.38,3.6,5-0.34c-26.65-128.12,4.17-227.68,77.98-333.7L1013.83,2247.77z"/>
	<path class="st0" d="M2927.43,1408.76c2.19-1.91,0.75-3.27-1.48-2.91c-31.47,5.91-58.06,32.8-77.32,60
		c-64.73,85.09-31.37,240.74,52.18,285.15c4.38,2.06,3.79-0.06,1.68-3c-10.8-14.87-21.35-28.58-32.13-44.05
		c-75.23-107.33-36.2-242.88,56.65-294.79L2927.43,1408.76z"/>
	<path class="st0" d="M763.88,1237.04c-96.29-51.43-185.97,58.03-213.36,142.56c-2.71,5.31-1.71,16.21,4.6,7.46
		c25.23-48.17,53.59-98.32,100.4-126.79c56.49-36.15,112.52-18.69,145.49,35.23c1.56,2.44,3.97,5.04,3.45-0.32
		c-2.49-25.87-18.19-45.59-39.84-57.72L763.88,1237.04z"/>
	<path class="st0" d="M935.99,2902.33c5.03-54.36-22.16-103.22-55.3-144.98c-27.76-38.79-52.16-80.37-61.29-127.68
		c-0.72-3.22-1.29-7.48-4.21-9.05c-0.56-0.11-0.53-0.35-1.67,0.14c-1.35,0.76-2.04,3.38-2.07,6.23c-0.25,8.87,1.42,17.5,3.03,26.53
		c4.41,23.75,12.81,46.17,23.92,67.45c21.36,42.12,56.23,76.49,73.07,121.41c9.93,25.83,12.76,53.77,11.86,81.28
		c0.08,0.86,0.17,2.22,0.65,2.84c0.82,1.14,2.25,0.24,3.18-0.62c5.95-5.71,8.16-14.75,8.77-22.72L935.99,2902.33z"/>
	<path class="st0" d="M741,2496.88c-52.7-107.9-63.36-219.05-22.06-332.64c1.64-4.58,1.37-5.68-1.52-1.74
		c-59.43,80.43-48.33,273.48,23.53,334.56L741,2496.88z"/>
	<path class="st0" d="M2131.9,2988.72c-12.62,75.86-74.36,136.81-153.14,137.96c-5.13,1.6-10.6,4.85-9.03,10.16
		c0.97,2.85,4.37,4.45,7.78,5.03c83.1,9.91,161.15-60.3,164.23-144.27c-0.08-8.57,2.31-19.94-2.71-27.45
		c-5.27-1.63-6.2,14.14-7.01,17.81L2131.9,2988.72z"/>
	<path class="st0" d="M460.08,1699.63c22.07-76.94,20.11-158.07,31.31-236.65c-0.67-9.57-10-5.06-11.35,2.11
		c-25.6,75.96-22.27,156-20.08,234.52L460.08,1699.63z"/>
	<path class="st0" d="M1066.92,906.22c40.79-26.32,88.42-33.25,135.54-35.51c-81.1-34.95-232.36,55.55-231.96,138.73
		c0.88,1.69,3.34-3.08,4.11-4.29c23.21-39.72,52.6-74.15,91.6-98.49L1066.92,906.22z"/>
	<path class="st0" d="M908.67,1375.48c-3.97,1.84-5.91,7.6-0.66,8.6c76.26-11.46,124.77,17.9,176.28,71.72
		c3.43,2.23,9.74,7.27,13.56,4.99c3.27-3.95-1.78-13.4-4.27-17.53c-35.56-52.92-121.22-96.39-184.24-68.14L908.67,1375.48z"/>
	<path class="st0" d="M756.24,1974.44c-23.52-51.67-35.76-106.05-26.34-163.13c-0.06-2.62-0.86-4.11-2.04-3.87
		c-33.33,45.88-7.19,164.76,42.81,224.64c3.83,4.46,4.29,1.43,3.59-2.64c-2.88-18.91-9.98-36.85-17.68-54.24L756.24,1974.44z"/>
	<path class="st0" d="M2962.74,3035.56c2.66-0.08,5.51-2.73,6.83-6.67c16.98-75.52-17.38-143-58.05-202.8
		c-3.71-4.85-7.53-3.89-6.1,2.2c4.51,17.26,13.32,32.51,21.03,48.4c20.14,41.48,35.11,84.38,33.69,131.52
		c0.62,6.63-5.78,25.17,2.09,27.34L2962.74,3035.56z"/>
	<path class="st0" d="M1022.94,3075.51c-0.27,4.39-0.09,18.24,6.93,15.71c2.67-1.97,2.5-7.79,2.9-11.27
		c6.27-71.62,80.9-106.77,85.7-190.41c0.22-4.01,0.07-7.11-1.8-1.43c-10.88,34.2-31.2,62.5-52.07,90.21
		c-23.01,28.07-42.07,58.6-41.63,96.37L1022.94,3075.51z"/>
	<path class="st0" d="M3324.49,2444.54c30.22,69.38,50.45,139.72,51,213.89c0.13,4.25,0.87,4.66,2.12,1.12
		c17.73-51.08-12.76-191.68-53.09-215.27L3324.49,2444.54z"/>
	<path class="st0" d="M969.2,1879.41c1.74,64.2-24.77,121.16-52.16,177.11c-1.93,4.13-0.8,4.24,2.19,1.64
		c43.74-37.93,73.28-135.89,50.08-178.91L969.2,1879.41z"/>
	<path class="st0" d="M1143.77,1223.48c-57.5-31.31-135.42,22.65-135.69,84.71c-0.04,4.38,1.2,4.63,3.84,0.19
		c36.4-68.95,67.79-81.91,131.76-84.69L1143.77,1223.48z"/>
	<path class="st0" d="M886.47,860.55c-9.5-4.13-21.1-8.15-32.55-5.62c-3.16,0.91-1.58,2.02,1.32,3.13
		c52.94,17.94,84.65,56.02,103.83,105.7c1.39,3.35,2.95,8.68,6.85,8.95c2.42,0.22,4.7-2.09,5.07-4.95
		c-6.34-48.59-38.9-87.36-83.76-106.87L886.47,860.55z"/>
	<path class="st0" d="M856.14,1282.01c21.61-45.47-19.29-127.84-72.32-139.86c-3.81-0.8-3.79,0.28-0.48,2.95
		c46.1,35.2,66.03,79.66,72.62,136.78L856.14,1282.01z"/>
</g>
</svg>
