<svg xmlns="http://www.w3.org/2000/svg" version="1.0" preserveAspectRatio="xMidYMid meet" viewBox="121.5 184.4 326.27 353.45">

<g transform="translate(0.000000,720.000000) scale(0.100000,-0.100000)" fill="#000000" stroke="none">
<path d="M2610 5347 c-129 -36 -221 -151 -257 -322 -20 -94 -12 -273 17 -375 65 -228 210 -415 385 -497 53 -24 72 -28 155 -28 85 0 100 3 141 27 225 132 273 501 109 833 -108 219 -274 356 -449 370 -31 3 -76 -1 -101 -8z"/>
<path d="M3629 5026 c-223 -60 -305 -401 -184 -762 114 -338 394 -585 618 -543 64 12 96 30 144 82 68 74 97 143 113 272 32 260 -94 603 -294 800 -82 81 -157 128 -241 150 -69 18 -94 18 -156 1z"/>
<path d="M1661 4794 c-310 -83 -327 -498 -34 -815 274 -296 690 -342 826 -91 138 254 -68 671 -418 847 -138 70 -262 89 -374 59z"/>
<path d="M2813 3956 c-112 -28 -216 -115 -270 -225 -28 -55 -28 -58 -23 -206 8 -249 4 -602 -9 -735 -7 -69 -24 -201 -38 -294 -23 -151 -24 -177 -14 -235 39 -216 229 -404 435 -434 153 -22 274 21 391 138 254 255 449 363 772 429 268 55 440 291 419 575 -12 157 -74 288 -193 407 -62 63 -91 82 -220 147 -286 144 -622 289 -923 397 -132 47 -238 59 -327 36z"/>
<path d="M1483 3750 c-111 -23 -195 -89 -242 -189 -23 -50 -26 -68 -26 -166 1 -94 5 -121 27 -184 76 -208 241 -393 443 -494 208 -104 433 -87 544 40 198 224 41 667 -313 888 -139 87 -317 130 -433 105z"/>
</g>
</svg>